<svg width="80" height="80" viewBox="0 0 80 80" fill="none" xmlns="http://www.w3.org/2000/svg">
<path d="M52 47C52 53.6274 46.6274 59 40 59C33.3726 59 28 53.6274 28 47C28 40.3726 33.3726 35 40 35C46.6274 35 52 40.3726 52 47Z" stroke="white" stroke-width="2"/>
<path fill-rule="evenodd" clip-rule="evenodd" d="M13 47C13 32.0883 25.0883 20 40 20C46.07 20 51.6722 22.0031 56.1817 25.3843C56.6134 24.8337 57.0567 24.3254 57.4888 23.8649C52.6268 20.1838 46.5684 18 40 18C23.9837 18 11 30.9837 11 47C11 63.0163 23.9837 76 40 76C56.0162 76 69 63.0163 69 47C69 43.592 68.4121 40.3213 67.3322 37.2838C67.0028 37.8509 66.6001 38.3781 66.1305 38.8505C66.0344 38.9472 65.9361 39.041 65.8356 39.1319C66.5927 41.6213 67 44.2631 67 47C67 61.9117 54.9117 74 40 74C25.0883 74 13 61.9117 13 47Z" fill="white"/>
<path d="M69 32.5385C69 24.9231 61 19 61 19C61 19 53 24.9231 53 32.5385C53 34.7826 53.8429 36.9348 55.3431 38.5217C56.8434 40.1085 58.8783 41 61 41C63.1217 41 65.1566 40.1085 66.6569 38.5217C68.1571 36.9348 69 34.7826 69 32.5385Z" stroke="white" stroke-width="2" stroke-linejoin="round"/>
<path d="M49 10C49 5.5 44 2 44 2C44 2 39 5.5 39 10C39 11.3261 39.5268 12.5979 40.4645 13.5355C41.4021 14.4732 42.6739 15 44 15C45.3261 15 46.5979 14.4732 47.5355 13.5355C48.4732 12.5979 49 11.3261 49 10Z" stroke="white" stroke-width="2" stroke-linecap="round" stroke-linejoin="round"/>
</svg>
