<svg width="81" height="81" viewBox="0 0 81 81" fill="none" xmlns="http://www.w3.org/2000/svg">
<path fill-rule="evenodd" clip-rule="evenodd" d="M10.125 9.125C9.57272 9.125 9.125 9.57272 9.125 10.125V70.8749C9.125 71.4272 9.57272 71.8749 10.125 71.8749H70.8749C71.4272 71.8749 71.8749 71.4272 71.8749 70.8749V10.125C71.8749 9.57272 71.4272 9.125 70.8749 9.125H10.125ZM11.125 27.35V11.125H69.8749V27.35L11.125 27.35ZM11.125 29.35V69.8749H69.8749V29.35L11.125 29.35ZM21.2625 22.275C22.9401 22.275 24.3 20.9151 24.3 19.2375C24.3 17.5599 22.9401 16.2 21.2625 16.2C19.5849 16.2 18.225 17.5599 18.225 19.2375C18.225 20.9151 19.5849 22.275 21.2625 22.275ZM59.7375 22.275C61.4151 22.275 62.775 20.9151 62.775 19.2375C62.775 17.5599 61.4151 16.2 59.7375 16.2C58.0599 16.2 56.7 17.5599 56.7 19.2375C56.7 20.9151 58.0599 22.275 59.7375 22.275ZM32.375 20.275H48.625V18.2H32.375V20.275ZM31.375 16.2C30.8227 16.2 30.375 16.6477 30.375 17.2V21.275C30.375 21.8273 30.8227 22.275 31.375 22.275H49.625C50.1773 22.275 50.625 21.8273 50.625 21.275V17.2C50.625 16.6477 50.1773 16.2 49.625 16.2H31.375ZM19.25 36.45C19.25 35.8977 19.6977 35.45 20.25 35.45H60.75C61.3023 35.45 61.75 35.8977 61.75 36.45V62.775C61.75 63.3273 61.3023 63.775 60.75 63.775H20.25C19.6977 63.775 19.25 63.3273 19.25 62.775V36.45ZM21.25 37.45V61.775H59.75V37.45H21.25Z" fill="white"/>
</svg>
