<svg width="100" height="90" viewBox="0 0 100 90" fill="none" xmlns="http://www.w3.org/2000/svg">
    <rect x="1" y="45" width="98" height="33" rx="4" stroke="white" stroke-width="2"/>
    <rect x="1" y="68" width="98" height="1" fill="white"/>
    <path d="M4.5 68.5V71.7391C4.5 72.5676 5.17157 73.2391 6 73.2391H94.2353C95.0637 73.2391 95.7353 72.5676 95.7353 71.7391V68.5H4.5Z" stroke="white"/>
    <rect x="45.6765" y="52.1738" width="10.0882" height="4.30435" rx="1" fill="white"/>
    <path d="M4 71H96V72C96 73.1046 95.1046 74 94 74H6C4.89543 74 4 73.1046 4 72V71Z" fill="white"/>
    <path d="M66.9706 16.0294C67.3611 15.6389 67.3624 15.0041 66.9566 14.6295C64.7932 12.6326 62.292 11.0317 59.5671 9.90301C56.5339 8.64664 53.283 8 50 8C46.7169 8 43.466 8.64665 40.4329 9.90301C37.708 11.0317 35.2068 12.6326 33.0434 14.6295C32.6376 15.0041 32.6389 15.6389 33.0294 16.0294C33.42 16.42 34.0517 16.4182 34.4588 16.045C36.4356 14.233 38.7161 12.7789 41.1983 11.7508C43.9888 10.5949 46.9796 10 50 10C53.0204 10 56.0112 10.5949 58.8017 11.7508C61.2839 12.7789 63.5644 14.233 65.5412 16.045C65.9483 16.4182 66.58 16.42 66.9706 16.0294Z" fill="white"/>
    <path d="M62.0152 20.9848C62.4088 20.5912 62.4106 19.9506 61.9956 19.5796C60.4876 18.2317 58.7613 17.146 56.8883 16.3702C54.7044 15.4656 52.3638 15 50 15C47.6362 15 45.2956 15.4656 43.1117 16.3702C41.2387 17.146 39.5124 18.2318 38.0044 19.5796C37.5894 19.9506 37.5912 20.5912 37.9848 20.9848C38.3785 21.3785 39.0147 21.3758 39.4324 21.0078C40.7513 19.8455 42.2548 18.9072 43.8832 18.2327C45.8225 17.4294 47.9009 17.016 50 17.016C52.099 17.016 54.1775 17.4294 56.1168 18.2327C57.7452 18.9072 59.2487 19.8455 60.5676 21.0078C60.9853 21.3758 61.6215 21.3785 62.0152 20.9848Z" fill="white"/>
    <path d="M57.0704 25.9296C57.4613 25.5387 57.464 24.9009 57.0391 24.5472C56.1889 23.8391 55.2352 23.2622 54.2095 22.8373C52.8749 22.2845 51.4445 22 50 22C48.5555 22 47.1251 22.2845 45.7905 22.8373C44.7648 23.2622 43.8111 23.8391 42.9609 24.5472C42.536 24.9009 42.5387 25.5387 42.9296 25.9296C43.3206 26.3206 43.9512 26.3155 44.3831 25.9704C45.0424 25.4436 45.7739 25.0112 46.5566 24.6869C47.6483 24.2347 48.8184 24.002 50 24.002C51.1816 24.002 52.3517 24.2347 53.4434 24.6869C54.2261 25.0111 54.9576 25.4436 55.6169 25.9704C56.0488 26.3155 56.6794 26.3206 57.0704 25.9296Z" fill="white"/>
    <circle cx="50" cy="31" r="2" fill="white"/>
</svg>
