<svg width="100" height="90" viewBox="0 0 100 90" fill="none" xmlns="http://www.w3.org/2000/svg">
    <path d="M6 29C6 26.7909 7.79086 25 10 25H74C76.2091 25 78 26.7909 78 29V61C78 63.2091 76.2091 65 74 65H10C7.79086 65 6 63.2091 6 61V29Z" stroke="white" stroke-width="2"/>
    <path d="M14 25H70L78 33V57L70 65H14L6 57V33L14 25Z" stroke="white" stroke-width="2"/>
    <path d="M78 35H92C92.5523 35 93 35.4477 93 36V54C93 54.5523 92.5523 55 92 55H78V35Z" stroke="white" stroke-width="2"/>
    <rect x="83.5" y="37.7224" width="3.4" height="4.55556" stroke="white"/>
    <rect x="83.5" y="47.7222" width="3.4" height="4.55556" stroke="white"/>
</svg>
