<svg width="375" height="232" viewBox="0 0 375 232" fill="none" xmlns="http://www.w3.org/2000/svg">
<g clip-path="url(#clip0_2234_10936)">
<rect x="60" y="7" width="86" height="218" rx="9" stroke="white" stroke-width="2"/>
<rect x="66.1001" y="21.9" width="73.8" height="30.9" rx="0.5" stroke="white"/>
<rect opacity="0.5" x="66.1001" y="67" width="18.8" height="8.9" rx="4.45" stroke="white"/>
<rect opacity="0.5" x="93.6001" y="67" width="18.8" height="8.9" rx="4.45" stroke="white"/>
<g opacity="0.5">
<rect x="66.1001" y="85.7" width="18.8" height="8.9" rx="4.45" stroke="white"/>
<rect x="93.6001" y="85.7001" width="18.8" height="8.9" rx="4.45" stroke="white"/>
<rect x="121.1" y="85.7001" width="18.8" height="8.9" rx="4.45" stroke="white"/>
</g>
<g opacity="0.5">
<rect x="66.1001" y="164.9" width="18.8" height="8.9" rx="4.45" stroke="white"/>
<rect x="93.6001" y="164.9" width="18.8" height="8.9" rx="4.45" stroke="white"/>
<rect x="121.1" y="164.9" width="18.8" height="8.9" rx="4.45" stroke="white"/>
</g>
<g opacity="0.5">
<rect x="66.1001" y="183.6" width="18.8" height="8.9" rx="4.45" stroke="white"/>
<rect x="93.6001" y="183.6" width="18.8" height="8.9" rx="4.45" stroke="white"/>
<rect x="121.1" y="183.6" width="18.8" height="8.9" rx="4.45" stroke="white"/>
</g>
<circle cx="131.05" cy="71.45" r="7.75" fill="#FDBA12" stroke="white"/>
<circle opacity="0.5" cx="103" cy="129.2" r="24.8" stroke="white"/>
<g opacity="0.5">
<circle cx="75.5002" cy="205.1" r="2.8" stroke="white"/>
<circle cx="103" cy="205.1" r="2.8" stroke="white"/>
<circle cx="130.5" cy="205.1" r="2.8" stroke="white"/>
</g>
<rect x="190" y="38" width="160" height="156" rx="3" stroke="white" stroke-width="2"/>
<rect x="189.5" y="73.5" width="160" height="84" stroke="white"/>
<rect x="190.5" y="73.5" width="37" height="42" stroke="white"/>
<rect x="312.5" y="73.5" width="37" height="42" stroke="white"/>
<rect x="227.5" y="73.5" width="85" height="84" stroke="white"/>
<path d="M264.876 88.6V98.232C264.876 98.568 264.568 98.876 264.232 98.876H263.616C263.308 98.876 263 98.568 263 98.232V89.216C263 88.908 263.308 88.6 263.616 88.6H264.876ZM265.66 88.6H274.06V89.832C274.06 90.168 273.752 90.476 273.444 90.476H266.276C265.968 90.476 265.66 90.168 265.66 89.832V88.6ZM274.844 88.6V98.232C274.844 98.568 275.152 98.876 275.488 98.876H276.104C276.412 98.876 276.72 98.568 276.72 98.232V89.216C276.72 88.908 276.412 88.6 276.104 88.6H274.844ZM273.444 98.876C273.752 98.876 274.06 99.184 274.06 99.492V100.108C274.06 100.416 273.752 100.724 273.444 100.724H266.276C265.968 100.724 265.66 100.416 265.66 100.108V99.492C265.66 99.184 265.968 98.876 266.276 98.876H273.444ZM264.876 111V101.032C264.876 100.724 264.568 100.416 264.232 100.416H263.616C263.308 100.416 263 100.724 263 101.032V110.384C263 110.692 263.308 111 263.616 111H264.876ZM274.844 111V101.032C274.844 100.724 275.152 100.416 275.488 100.416H276.104C276.412 100.416 276.72 100.724 276.72 101.032V110.384C276.72 110.692 276.412 111 276.104 111H274.844ZM265.66 111H274.06V109.432C274.06 109.124 273.752 108.816 273.444 108.816H266.276C265.968 108.816 265.66 109.124 265.66 109.432V111ZM281.905 88.6V98.232C281.905 98.568 281.597 98.876 281.261 98.876H280.645C280.337 98.876 280.029 98.568 280.029 98.232V89.216C280.029 88.908 280.337 88.6 280.645 88.6H281.905ZM282.829 88.6H291.229V89.832C291.229 90.168 290.921 90.476 290.613 90.476H283.445C283.137 90.476 282.829 90.168 282.829 89.832V88.6ZM290.613 98.876C290.921 98.876 291.229 99.184 291.229 99.492V100.108C291.229 100.416 290.921 100.724 290.613 100.724H283.445C283.137 100.724 282.829 100.416 282.829 100.108V99.492C282.829 99.184 283.137 98.876 283.445 98.876H290.613ZM281.905 111V101.032C281.905 100.724 281.597 100.416 281.261 100.416H280.645C280.337 100.416 280.029 100.724 280.029 101.032V110.384C280.029 110.692 280.337 111 280.645 111H281.905ZM292.153 111V101.032C292.153 100.724 292.461 100.416 292.797 100.416H293.413C293.721 100.416 294.029 100.724 294.029 101.032V110.384C294.029 110.692 293.721 111 293.413 111H292.153ZM282.829 111H291.229V109.432C291.229 109.124 290.921 108.816 290.613 108.816H283.445C283.137 108.816 282.829 109.124 282.829 109.432V111Z" fill="white"/>
<path d="M105.474 30.4V37.968C105.474 38.232 105.232 38.474 104.968 38.474H104.484C104.242 38.474 104 38.232 104 37.968V30.884C104 30.642 104.242 30.4 104.484 30.4H105.474ZM106.09 30.4H112.69V31.368C112.69 31.632 112.448 31.874 112.206 31.874H106.574C106.332 31.874 106.09 31.632 106.09 31.368V30.4ZM113.306 30.4V37.968C113.306 38.232 113.548 38.474 113.812 38.474H114.296C114.538 38.474 114.78 38.232 114.78 37.968V30.884C114.78 30.642 114.538 30.4 114.296 30.4H113.306ZM112.206 38.474C112.448 38.474 112.69 38.716 112.69 38.958V39.442C112.69 39.684 112.448 39.926 112.206 39.926H106.574C106.332 39.926 106.09 39.684 106.09 39.442V38.958C106.09 38.716 106.332 38.474 106.574 38.474H112.206ZM105.474 48V40.168C105.474 39.926 105.232 39.684 104.968 39.684H104.484C104.242 39.684 104 39.926 104 40.168V47.516C104 47.758 104.242 48 104.484 48H105.474ZM113.306 48V40.168C113.306 39.926 113.548 39.684 113.812 39.684H114.296C114.538 39.684 114.78 39.926 114.78 40.168V47.516C114.78 47.758 114.538 48 114.296 48H113.306ZM106.09 48H112.69V46.768C112.69 46.526 112.448 46.284 112.206 46.284H106.574C106.332 46.284 106.09 46.526 106.09 46.768V48ZM118.905 30.4V37.968C118.905 38.232 118.663 38.474 118.399 38.474H117.915C117.673 38.474 117.431 38.232 117.431 37.968V30.884C117.431 30.642 117.673 30.4 117.915 30.4H118.905ZM119.631 30.4H126.231V31.368C126.231 31.632 125.989 31.874 125.747 31.874H120.115C119.873 31.874 119.631 31.632 119.631 31.368V30.4ZM125.747 38.474C125.989 38.474 126.231 38.716 126.231 38.958V39.442C126.231 39.684 125.989 39.926 125.747 39.926H120.115C119.873 39.926 119.631 39.684 119.631 39.442V38.958C119.631 38.716 119.873 38.474 120.115 38.474H125.747ZM118.905 48V40.168C118.905 39.926 118.663 39.684 118.399 39.684H117.915C117.673 39.684 117.431 39.926 117.431 40.168V47.516C117.431 47.758 117.673 48 117.915 48H118.905ZM126.957 48V40.168C126.957 39.926 127.199 39.684 127.463 39.684H127.947C128.189 39.684 128.431 39.926 128.431 40.168V47.516C128.431 47.758 128.189 48 127.947 48H126.957ZM119.631 48H126.231V46.768C126.231 46.526 125.989 46.284 125.747 46.284H120.115C119.873 46.284 119.631 46.526 119.631 46.768V48Z" fill="white"/>
<path d="M247.016 93.472C247.016 93.9787 246.832 94.3733 246.464 94.656C246.096 94.9387 245.6 95.08 244.976 95.08C244.656 95.08 244.36 95.056 244.088 95.008C243.816 94.96 243.589 94.8933 243.408 94.808V94.12C243.6 94.2053 243.837 94.2827 244.12 94.352C244.408 94.4213 244.704 94.456 245.008 94.456C245.435 94.456 245.755 94.3733 245.968 94.208C246.187 94.0427 246.296 93.8187 246.296 93.536C246.296 93.3493 246.256 93.192 246.176 93.064C246.096 92.936 245.957 92.8187 245.76 92.712C245.568 92.6 245.299 92.4827 244.952 92.36C244.467 92.184 244.099 91.968 243.848 91.712C243.603 91.456 243.48 91.1067 243.48 90.664C243.48 90.36 243.557 90.1013 243.712 89.888C243.867 89.6693 244.08 89.5013 244.352 89.384C244.629 89.2667 244.947 89.208 245.304 89.208C245.619 89.208 245.907 89.2373 246.168 89.296C246.429 89.3547 246.667 89.432 246.88 89.528L246.656 90.144C246.459 90.0587 246.243 89.9867 246.008 89.928C245.779 89.8693 245.539 89.84 245.288 89.84C244.931 89.84 244.661 89.9173 244.48 90.072C244.299 90.2213 244.208 90.4213 244.208 90.672C244.208 90.864 244.248 91.024 244.328 91.152C244.408 91.28 244.539 91.3947 244.72 91.496C244.901 91.5973 245.147 91.7067 245.456 91.824C245.792 91.9467 246.075 92.08 246.304 92.224C246.539 92.3627 246.715 92.5307 246.832 92.728C246.955 92.9253 247.016 93.1733 247.016 93.472ZM251.599 95H248.407V89.288H251.599V89.92H249.127V91.704H251.455V92.328H249.127V94.368H251.599V95ZM254.9 95H254.18V89.92H252.396V89.288H256.676V89.92H254.9V95Z" fill="white"/>
<path d="M249.82 149.13C249.36 149.13 248.998 149.284 248.734 149.592C248.47 149.9 248.338 150.322 248.338 150.858C248.338 151.39 248.46 151.812 248.704 152.124C248.952 152.432 249.322 152.586 249.814 152.586C250.002 152.586 250.18 152.57 250.348 152.538C250.516 152.506 250.68 152.466 250.84 152.418V152.886C250.68 152.946 250.514 152.99 250.342 153.018C250.174 153.046 249.972 153.06 249.736 153.06C249.3 153.06 248.936 152.97 248.644 152.79C248.352 152.61 248.132 152.354 247.984 152.022C247.84 151.69 247.768 151.3 247.768 150.852C247.768 150.42 247.846 150.04 248.002 149.712C248.162 149.38 248.396 149.122 248.704 148.938C249.012 148.75 249.386 148.656 249.826 148.656C250.278 148.656 250.672 148.74 251.008 148.908L250.792 149.364C250.66 149.304 250.512 149.25 250.348 149.202C250.188 149.154 250.012 149.13 249.82 149.13ZM255.396 150.852C255.396 151.296 255.32 151.684 255.168 152.016C255.02 152.344 254.8 152.6 254.508 152.784C254.216 152.968 253.854 153.06 253.422 153.06C252.978 153.06 252.608 152.968 252.312 152.784C252.02 152.6 251.802 152.342 251.658 152.01C251.514 151.678 251.442 151.29 251.442 150.846C251.442 150.406 251.514 150.022 251.658 149.694C251.802 149.366 252.02 149.11 252.312 148.926C252.608 148.742 252.98 148.65 253.428 148.65C253.856 148.65 254.216 148.742 254.508 148.926C254.8 149.106 255.02 149.362 255.168 149.694C255.32 150.022 255.396 150.408 255.396 150.852ZM252.012 150.852C252.012 151.392 252.126 151.818 252.354 152.13C252.582 152.438 252.938 152.592 253.422 152.592C253.91 152.592 254.266 152.438 254.49 152.13C254.714 151.818 254.826 151.392 254.826 150.852C254.826 150.312 254.714 149.89 254.49 149.586C254.266 149.278 253.912 149.124 253.428 149.124C252.944 149.124 252.586 149.278 252.354 149.586C252.126 149.89 252.012 150.312 252.012 150.852ZM260.084 150.852C260.084 151.296 260.008 151.684 259.856 152.016C259.708 152.344 259.488 152.6 259.196 152.784C258.904 152.968 258.542 153.06 258.11 153.06C257.666 153.06 257.296 152.968 257 152.784C256.708 152.6 256.49 152.342 256.346 152.01C256.202 151.678 256.13 151.29 256.13 150.846C256.13 150.406 256.202 150.022 256.346 149.694C256.49 149.366 256.708 149.11 257 148.926C257.296 148.742 257.668 148.65 258.116 148.65C258.544 148.65 258.904 148.742 259.196 148.926C259.488 149.106 259.708 149.362 259.856 149.694C260.008 150.022 260.084 150.408 260.084 150.852ZM256.7 150.852C256.7 151.392 256.814 151.818 257.042 152.13C257.27 152.438 257.626 152.592 258.11 152.592C258.598 152.592 258.954 152.438 259.178 152.13C259.402 151.818 259.514 151.392 259.514 150.852C259.514 150.312 259.402 149.89 259.178 149.586C258.954 149.278 258.6 149.124 258.116 149.124C257.632 149.124 257.274 149.278 257.042 149.586C256.814 149.89 256.7 150.312 256.7 150.852ZM261.033 153V148.716H261.573V152.52H263.445V153H261.033Z" fill="white"/>
<path d="M299.568 91.996C298.992 91.996 298.528 91.828 298.176 91.492C297.832 91.148 297.66 90.704 297.66 90.16C297.66 89.616 297.832 89.172 298.176 88.828C298.52 88.484 298.984 88.312 299.568 88.312C300.136 88.312 300.596 88.484 300.948 88.828C301.3 89.172 301.476 89.616 301.476 90.16C301.476 90.704 301.3 91.148 300.948 91.492C300.596 91.828 300.136 91.996 299.568 91.996ZM299.58 91.288C299.964 91.288 300.244 91.184 300.42 90.976C300.604 90.768 300.696 90.496 300.696 90.16C300.696 89.808 300.6 89.528 300.408 89.32C300.224 89.112 299.948 89.008 299.58 89.008C299.188 89.008 298.9 89.112 298.716 89.32C298.532 89.528 298.44 89.808 298.44 90.16C298.44 90.496 298.532 90.768 298.716 90.976C298.9 91.184 299.188 91.288 299.58 91.288ZM304.377 97H303.297V88.432H308.085V89.38H304.377V92.416H307.857V93.364H304.377V97Z" fill="white"/>
<path d="M260.81 142.163L259.451 141.356L260.598 140.653C260.782 140.562 260.839 140.307 260.735 140.12C260.628 139.928 260.397 139.888 260.222 139.993L258.693 140.914L256.262 139.459L258.693 138.02L260.222 138.94C260.27 138.976 260.332 138.996 260.4 138.996C260.53 138.996 260.646 138.934 260.735 138.814C260.837 138.623 260.782 138.372 260.598 138.28L259.451 137.578L260.81 136.77C260.987 136.666 261.048 136.43 260.946 136.237C260.849 136.051 260.61 135.987 260.427 136.096L259.061 136.911L259.041 135.506C259.038 135.289 258.877 135.114 258.665 135.114C258.454 135.114 258.288 135.302 258.29 135.506L258.303 137.361L255.886 138.8V135.879L257.409 134.986C257.587 134.883 257.664 134.642 257.559 134.453C257.452 134.261 257.233 134.204 257.047 134.312L255.886 134.986V133.392C255.886 133.175 255.715 133 255.504 133C255.292 133 255.128 133.175 255.128 133.392V135.001L253.926 134.312C253.739 134.206 253.526 134.266 253.421 134.453C253.314 134.645 253.38 134.88 253.564 134.986L255.128 135.893V138.785L252.656 137.319L252.67 135.506C252.69 135.302 252.512 135.114 252.301 135.114H252.287C252.089 135.114 251.914 135.289 251.911 135.506L251.898 136.869L250.566 136.083C250.38 135.972 250.151 136.038 250.054 136.222C249.953 136.417 250.005 136.646 250.191 136.757L251.536 137.557L250.361 138.28C250.177 138.372 250.119 138.626 250.232 138.814C250.304 138.935 250.409 138.996 250.553 138.996C250.628 138.996 250.69 138.977 250.751 138.94L252.287 138.006L254.752 139.459L252.287 140.927L250.751 139.993C250.566 139.882 250.328 139.934 250.232 140.12C250.13 140.313 250.185 140.545 250.361 140.653L251.536 141.369L250.191 142.177C250.005 142.288 249.945 142.521 250.054 142.712C250.13 142.843 250.232 142.908 250.375 142.908C250.409 142.908 250.477 142.887 250.566 142.851L251.898 142.064L251.911 143.428C251.914 143.645 252.089 143.813 252.287 143.813H252.301C252.512 143.813 252.671 143.631 252.67 143.413L252.656 141.601L255.128 140.148V143.026L253.564 143.932C253.377 144.04 253.312 144.275 253.421 144.466C253.497 144.599 253.598 144.663 253.742 144.663C253.81 144.663 253.873 144.651 253.926 144.62L255.128 143.919V145.555C255.128 145.772 255.292 145.941 255.504 145.941C255.715 145.941 255.886 145.772 255.886 145.555V143.946L257.047 144.62C257.1 144.651 257.163 144.663 257.224 144.663C257.375 144.663 257.485 144.6 257.559 144.466C257.663 144.277 257.596 144.04 257.409 143.932L255.886 143.055V140.133L258.303 141.573L258.29 143.413C258.288 143.631 258.454 143.813 258.665 143.813C258.877 143.813 259.038 143.645 259.041 143.428L259.061 142.015L260.427 142.837C260.48 142.869 260.55 142.879 260.625 142.879C260.769 142.879 260.874 142.818 260.946 142.697C261.058 142.509 260.987 142.268 260.81 142.163Z" fill="white"/>
<path d="M90.2892 28.3313L89.4986 27.8616L90.1661 27.4528C90.2734 27.3996 90.3066 27.2515 90.2456 27.1425C90.1834 27.031 90.0494 27.0075 89.9476 27.0685L89.0576 27.6045L87.6431 26.7582L89.0575 25.9206L89.9475 26.4557C89.9753 26.4767 90.0111 26.4889 90.0509 26.4889C90.1263 26.4889 90.1939 26.4523 90.2456 26.3825C90.3052 26.2718 90.2734 26.1254 90.1661 26.0723L89.4985 25.6635L90.2892 25.1937C90.3923 25.1327 90.4277 24.9959 90.3687 24.8835C90.3124 24.7754 90.1729 24.7379 90.0667 24.8015L89.2721 25.2757L89.2602 24.4581C89.2583 24.3318 89.1648 24.2298 89.0417 24.2298C88.9185 24.2298 88.8222 24.3396 88.8232 24.4581L88.831 25.5371L87.4246 26.3747V24.6751L88.3106 24.1557C88.414 24.0955 88.4591 23.9552 88.398 23.8454C88.3359 23.7339 88.2085 23.7007 88.1 23.7635L87.4246 24.1557V23.2283C87.4246 23.102 87.3252 23 87.2021 23C87.0789 23 86.9835 23.102 86.9835 23.2283V24.1644L86.2842 23.7635C86.1753 23.7016 86.0513 23.7365 85.9902 23.8454C85.9282 23.957 85.9667 24.0938 86.0736 24.1557L86.9835 24.683V26.366L85.5452 25.5127L85.5532 24.4581C85.5651 24.3396 85.4618 24.2298 85.3386 24.2298H85.3307C85.2155 24.2298 85.1134 24.3317 85.1121 24.4581L85.1042 25.2512L84.3294 24.7937C84.2213 24.7292 84.0878 24.7675 84.0314 24.8747C83.9724 24.988 84.0029 25.1214 84.1109 25.1859L84.8936 25.6513L84.2102 26.0722C84.1029 26.1254 84.0695 26.2736 84.1347 26.3825C84.1768 26.4531 84.238 26.4889 84.3215 26.4889C84.3651 26.4889 84.4015 26.4775 84.4367 26.4557L85.3307 25.9128L86.765 26.7582L85.3307 27.6123L84.4367 27.0685C84.3293 27.004 84.191 27.0345 84.1347 27.1425C84.0757 27.255 84.1078 27.3901 84.2102 27.4528L84.8936 27.8694L84.1109 28.3392C84.0032 28.4037 83.9682 28.5396 84.0314 28.6503C84.0756 28.727 84.1347 28.7645 84.2181 28.7645C84.238 28.7645 84.2777 28.7523 84.3294 28.7314L85.1042 28.2738L85.1121 29.0669C85.1134 29.1933 85.2155 29.2909 85.3307 29.2909H85.3386C85.4618 29.2909 85.5541 29.1855 85.5532 29.0582L85.5452 28.0045L86.9835 27.1591V28.8334L86.0736 29.3607C85.965 29.4234 85.927 29.5602 85.9902 29.6709C86.0344 29.7485 86.0935 29.786 86.1769 29.786C86.2167 29.786 86.2533 29.779 86.2842 29.7607L86.9835 29.3528V30.3046C86.9835 30.4309 87.0789 30.5294 87.2021 30.5294C87.3252 30.5294 87.4246 30.4309 87.4246 30.3046V29.3685L88.1 29.7607C88.1309 29.779 88.1675 29.786 88.2033 29.786C88.2907 29.786 88.3551 29.7494 88.398 29.6709C88.4583 29.5611 88.4193 29.4234 88.3106 29.3607L87.4246 28.8499V27.1504L88.831 27.9879L88.8232 29.0582C88.8221 29.1855 88.9185 29.2909 89.0417 29.2909C89.1648 29.2909 89.2583 29.1933 89.2602 29.0669L89.2721 28.2451L90.0667 28.7236C90.0974 28.7419 90.1383 28.748 90.182 28.748C90.2654 28.748 90.3266 28.7122 90.3687 28.6416C90.4339 28.5327 90.3923 28.3924 90.2892 28.3313Z" fill="white"/>
<path fill-rule="evenodd" clip-rule="evenodd" d="M268.366 120.22C267.992 120.739 267.843 121.356 268.001 121.948C268.16 122.539 268.598 122.999 269.181 123.261L268.366 120.22ZM268.199 119.595C267.508 120.291 267.184 121.218 267.421 122.103C267.659 122.988 268.402 123.628 269.349 123.886C269.557 123.943 269.775 123.982 270 124L268.706 119.17C268.521 119.299 268.351 119.441 268.199 119.595Z" fill="white"/>
<path fill-rule="evenodd" clip-rule="evenodd" d="M273.78 122.366C273.261 121.992 272.644 121.842 272.052 122.001C271.461 122.159 271.001 122.597 270.739 123.181L273.78 122.366ZM274.406 122.198C273.709 121.508 272.782 121.184 271.897 121.421C271.012 121.658 270.372 122.402 270.114 123.348C270.057 123.557 270.018 123.775 270 124L274.83 122.706C274.701 122.52 274.559 122.35 274.406 122.198Z" fill="white"/>
<path fill-rule="evenodd" clip-rule="evenodd" d="M271.634 127.78C272.009 127.261 272.158 126.644 271.999 126.052C271.841 125.461 271.403 125.001 270.819 124.739L271.634 127.78ZM271.802 128.406C272.492 127.709 272.816 126.782 272.579 125.897C272.342 125.012 271.598 124.372 270.652 124.114C270.443 124.057 270.225 124.018 270 124L271.294 128.83C271.48 128.701 271.65 128.559 271.802 128.406Z" fill="white"/>
<path fill-rule="evenodd" clip-rule="evenodd" d="M266.22 125.634C266.739 126.008 267.356 126.158 267.948 125.999C268.539 125.841 268.999 125.403 269.261 124.819L266.22 125.634ZM265.594 125.802C266.291 126.492 267.218 126.816 268.103 126.579C268.988 126.342 269.628 125.598 269.886 124.652C269.943 124.443 269.982 124.225 270 124L265.17 125.294C265.299 125.48 265.441 125.65 265.594 125.802Z" fill="white"/>
<path d="M281 126H309" stroke="white" stroke-dasharray="2 2"/>
<path d="M281 122H309" stroke="white" stroke-dasharray="2 2"/>
<path d="M231 126H259" stroke="white" stroke-dasharray="2 2"/>
<path d="M231 122H259" stroke="white" stroke-dasharray="2 2"/>
<path fill-rule="evenodd" clip-rule="evenodd" d="M69 44.4568V48H73V43.3649L69 44.4568Z" fill="white"/>
<path fill-rule="evenodd" clip-rule="evenodd" d="M74 43.0919V48.0002H78V42L74 43.0919Z" fill="white"/>
<rect opacity="0.5" x="254.25" y="171.25" width="31.5" height="11.5" rx="0.75" stroke="white" stroke-width="0.5"/>
<g opacity="0.5">
<circle cx="209" cy="90" r="9.75" stroke="white" stroke-width="0.5"/>
<rect x="201" y="106" width="16" height="2" fill="white"/>
</g>
<g opacity="0.5">
<circle cx="209" cy="133" r="9.75" stroke="white" stroke-width="0.5"/>
<rect x="201" y="149" width="16" height="2" fill="white"/>
</g>
<g opacity="0.5">
<circle cx="331" cy="90" r="9.75" stroke="white" stroke-width="0.5"/>
<rect x="323" y="106" width="16" height="2" fill="white"/>
</g>
<g opacity="0.5">
<circle cx="272" cy="53" r="9.5" stroke="white"/>
<rect x="264" y="67" width="16" height="2" fill="white"/>
</g>
<g opacity="0.5">
<circle cx="331" cy="133" r="9.75" stroke="white" stroke-width="0.5"/>
<rect x="323" y="149" width="16" height="2" fill="white"/>
</g>
</g>
<defs>
<clipPath id="clip0_2234_10936">
<rect width="375" height="232" fill="white"/>
</clipPath>
</defs>
</svg>
