<svg width="91" height="91" viewBox="0 0 91 91" fill="none" xmlns="http://www.w3.org/2000/svg">
<path d="M24.5697 50.7028H17.1189V75.3102H24.5697V50.7028Z" fill="white"/>
<path d="M57.803 34.2377H33.1956V41.6884H57.803V34.2377Z" fill="white"/>
<path d="M57.803 83.5477H33.1956V90.9985H57.803V83.5477Z" fill="white"/>
<path d="M31.9887 83.5478H30.1966C27.1024 83.5478 24.5712 81.0167 24.5712 77.9225V76.5189H17.1189V89.097C17.1189 90.1437 17.9753 91.0002 19.022 91.0002H31.9887V83.5494V83.5478Z" fill="white"/>
<path d="M73.8797 50.7028H66.429V75.3102H73.8797V50.7028Z" fill="white"/>
<path d="M66.4289 76.5172V77.9207C66.4289 81.0149 63.8978 83.546 60.8036 83.546H59.0115V90.9968H71.9781C73.0249 90.9968 73.8813 90.1404 73.8813 89.0937V76.5156H66.4305L66.4289 76.5172Z" fill="white"/>
<path d="M24.5697 49.4944V47.3137C24.5697 44.2195 27.1008 41.6884 30.195 41.6884H31.9871V34.2376H19.022C17.9753 34.2376 17.1189 35.094 17.1189 36.1407V49.4944H24.5697Z" fill="white"/>
<path d="M71.9769 34.2377H59.0103V41.6884H60.8024C63.8965 41.6884 66.4277 44.2196 66.4277 47.3138V49.4944H73.8785V36.1408C73.8785 35.0941 73.0221 34.2377 71.9753 34.2377H71.9769ZM69.1619 41.7772C67.9629 41.7772 66.9923 40.8051 66.9923 39.6077C66.9923 38.4103 67.9645 37.4381 69.1619 37.4381C70.3593 37.4381 71.3314 38.4103 71.3314 39.6077C71.3314 40.8051 70.3593 41.7772 69.1619 41.7772Z" fill="white"/>
<path d="M48.6158 58.9023L49.829 57.689H41.165L42.3767 58.9023H48.6158Z" fill="white"/>
<path d="M35.5049 52.0288L36.7181 53.2421H54.2761L55.4878 52.0288H35.5049Z" fill="white"/>
<path d="M38.3342 54.8598L39.5475 56.0715H51.4452L52.6585 54.8598H38.3342Z" fill="white"/>
<path d="M28.0112 44.5353L28.2285 44.7526H62.764L62.9828 44.5338C62.1851 43.7408 61.0861 43.2491 59.8712 43.2491H31.1228C29.908 43.2491 28.809 43.7392 28.0112 44.5338V44.5353Z" fill="white"/>
<path d="M32.6753 49.1995L33.887 50.4128H57.1051L58.3168 49.1995H32.6753Z" fill="white"/>
<path d="M43.9944 60.5184L45.4963 62.0203L46.9982 60.5184H43.9944Z" fill="white"/>
<path d="M29.8462 46.3703L31.0579 47.5835H59.9347L61.1479 46.3703H29.8462Z" fill="white"/>
<path d="M42.3767 66.353L41.165 67.5663H49.829L48.6158 66.353H42.3767Z" fill="white"/>
<path d="M55.4875 73.225L54.2758 72.0133H36.7179L35.5046 73.225H55.4875Z" fill="white"/>
<path d="M52.6582 70.3957L51.445 69.1825H39.5472L38.334 70.3957H52.6582Z" fill="white"/>
<path d="M62.9827 80.72L62.7654 80.5027H28.2284L28.0095 80.7216C28.8073 81.5146 29.9063 82.0062 31.1211 82.0062H59.8695C61.0843 82.0062 62.1834 81.5162 62.9811 80.7216L62.9827 80.72Z" fill="white"/>
<path d="M58.3184 76.056L57.1051 74.8427H33.8885L32.6753 76.056H58.3184Z" fill="white"/>
<path d="M46.9997 64.7369L45.4963 63.2335L43.9944 64.7369H46.9997Z" fill="white"/>
<path d="M61.1479 78.8852L59.9347 77.6719H31.0579L29.8462 78.8852H61.1479Z" fill="white"/>
<path d="M49.0122 65.747L50.2239 66.9587V58.2947L49.0122 59.5079V65.747Z" fill="white"/>
<path d="M55.8841 52.636L54.6709 53.8476V71.4056L55.8841 72.6189V52.636Z" fill="white"/>
<path d="M53.0548 55.4655L51.8416 56.6787V68.5764L53.0548 69.7897V55.4655Z" fill="white"/>
<path d="M63.3779 45.1408L63.1606 45.3581V79.8936L63.3795 80.1124C64.1725 79.3147 64.6641 78.2156 64.6641 77.0008V48.2524C64.6641 47.0376 64.1741 45.9385 63.3795 45.1408H63.3779Z" fill="white"/>
<path d="M58.7136 49.8068L57.502 51.0184V74.235L58.7136 75.4483V49.8068Z" fill="white"/>
<path d="M47.3945 61.1241L45.8926 62.6276L47.3945 64.1295V61.1241Z" fill="white"/>
<path d="M61.543 46.9758L60.3313 48.189V77.0658L61.543 78.2775V46.9758Z" fill="white"/>
<path d="M41.828 59.5079L40.6147 58.2947V66.9603L41.828 65.747V59.5079Z" fill="white"/>
<path d="M34.9543 72.6189L36.1676 71.4056V53.8492L34.9543 52.636V72.6189Z" fill="white"/>
<path d="M37.7854 69.7897L38.9971 68.5764V56.6787L37.7854 55.4655V69.7897Z" fill="white"/>
<path d="M27.461 80.1125L27.6783 79.8952V45.3597L27.4594 45.1409C26.6664 45.9386 26.1748 47.0377 26.1748 48.2525V77.0009C26.1748 78.2157 26.6649 79.3147 27.4594 80.1125H27.461Z" fill="white"/>
<path d="M32.1252 75.4483L33.3385 74.2366V51.0184L32.1252 49.8068V75.4483Z" fill="white"/>
<path d="M43.4438 64.1294L44.9457 62.6276L43.4438 61.1257V64.1294Z" fill="white"/>
<path d="M29.2959 78.2775L30.5091 77.0658V48.189L29.2959 46.9758V78.2775Z" fill="white"/>
<path d="M90.159 2.74247V1.85217C90.159 0.8292 89.338 0 88.325 0H1.83402C0.821073 0 0 0.8292 0 1.85217V2.74247H90.159Z" fill="white"/>
<path d="M86.8142 3.17725L86.2749 4.43938H3.89794L3.34306 3.17725H0V17.0624C0 18.0854 0.821073 18.9146 1.83402 18.9146H88.3233C89.3362 18.9146 90.1573 18.0854 90.1573 17.0624V3.17725H86.8125H86.8142ZM1.61967 10.7151C1.26705 10.7151 0.981831 10.4271 0.981831 10.0709C0.981831 9.71483 1.26705 9.42679 1.61967 9.42679C1.9723 9.42679 2.25752 9.71483 2.25752 10.0709C2.25752 10.4271 1.9723 10.7151 1.61967 10.7151ZM86.2749 16.2908H3.89794L3.34306 15.0287H86.8142L86.2749 16.2908ZM86.2749 13.9202H3.89794L3.34306 12.6581H86.8142L86.2749 13.9202ZM86.2749 11.5495H3.89794L3.34306 10.2874H86.8142L86.2749 11.5495ZM86.2749 9.17891H3.89794L3.34306 7.91678H86.8142L86.2749 9.17891ZM86.2749 6.80827H3.89794L3.34306 5.54614H86.8142L86.2749 6.80827ZM88.4011 10.7151C88.0484 10.7151 87.7632 10.4271 87.7632 10.0709C87.7632 9.71483 88.0484 9.42679 88.4011 9.42679C88.7537 9.42679 89.0389 9.71483 89.0389 10.0709C89.0389 10.4271 88.7537 10.7151 88.4011 10.7151Z" fill="white"/>
</svg>
