<svg width="292" height="142" viewBox="0 0 292 142" fill="none" xmlns="http://www.w3.org/2000/svg">
<rect x="1" y="1" width="290" height="140" rx="6" stroke="white" stroke-width="2"/>
<path opacity="0.4" d="M27.883 17.1V29H26.846L19.196 19.344V29H17.938V17.1H18.975L26.642 26.756V17.1H27.883ZM39.2981 24.903H31.8181C31.8861 25.8323 32.2431 26.586 32.8891 27.164C33.5351 27.7307 34.3511 28.014 35.3371 28.014C35.8924 28.014 36.4024 27.9177 36.8671 27.725C37.3318 27.521 37.7341 27.2263 38.0741 26.841L38.7541 27.623C38.3574 28.099 37.8588 28.4617 37.2581 28.711C36.6688 28.9603 36.0171 29.085 35.3031 29.085C34.3851 29.085 33.5691 28.8923 32.8551 28.507C32.1524 28.1103 31.6028 27.5663 31.2061 26.875C30.8094 26.1837 30.6111 25.4017 30.6111 24.529C30.6111 23.6563 30.7981 22.8743 31.1721 22.183C31.5574 21.4917 32.0788 20.9533 32.7361 20.568C33.4048 20.1827 34.1528 19.99 34.9801 19.99C35.8074 19.99 36.5498 20.1827 37.2071 20.568C37.8644 20.9533 38.3801 21.4917 38.7541 22.183C39.1281 22.863 39.3151 23.645 39.3151 24.529L39.2981 24.903ZM34.9801 21.027C34.1188 21.027 33.3934 21.3047 32.8041 21.86C32.2261 22.404 31.8974 23.118 31.8181 24.002H38.1591C38.0798 23.118 37.7454 22.404 37.1561 21.86C36.5781 21.3047 35.8528 21.027 34.9801 21.027ZM46.4809 28.456C46.2542 28.66 45.9709 28.8187 45.6309 28.932C45.3022 29.034 44.9565 29.085 44.5939 29.085C43.7552 29.085 43.1092 28.8583 42.6559 28.405C42.2025 27.9517 41.9759 27.3113 41.9759 26.484V21.078H40.3779V20.058H41.9759V18.103H43.1829V20.058H45.9029V21.078H43.1829V26.416C43.1829 26.9487 43.3132 27.3567 43.5739 27.64C43.8459 27.912 44.2312 28.048 44.7299 28.048C44.9792 28.048 45.2172 28.0083 45.4439 27.929C45.6819 27.8497 45.8859 27.7363 46.0559 27.589L46.4809 28.456ZM61.6361 20.058L58.2531 29H57.1141L54.2921 21.673L51.4701 29H50.3311L46.9651 20.058H48.1211L50.9261 27.657L53.7991 20.058H54.8361L57.6921 27.657L60.5311 20.058H61.6361ZM66.8595 29.085C65.9982 29.085 65.2218 28.8923 64.5305 28.507C63.8392 28.1103 63.2952 27.5663 62.8985 26.875C62.5018 26.1837 62.3035 25.4017 62.3035 24.529C62.3035 23.6563 62.5018 22.8743 62.8985 22.183C63.2952 21.4917 63.8392 20.9533 64.5305 20.568C65.2218 20.1827 65.9982 19.99 66.8595 19.99C67.7208 19.99 68.4972 20.1827 69.1885 20.568C69.8798 20.9533 70.4182 21.4917 70.8035 22.183C71.2002 22.8743 71.3985 23.6563 71.3985 24.529C71.3985 25.4017 71.2002 26.1837 70.8035 26.875C70.4182 27.5663 69.8798 28.1103 69.1885 28.507C68.4972 28.8923 67.7208 29.085 66.8595 29.085ZM66.8595 28.014C67.4942 28.014 68.0608 27.8723 68.5595 27.589C69.0695 27.2943 69.4662 26.8807 69.7495 26.348C70.0328 25.8153 70.1745 25.209 70.1745 24.529C70.1745 23.849 70.0328 23.2427 69.7495 22.71C69.4662 22.1773 69.0695 21.7693 68.5595 21.486C68.0608 21.1913 67.4942 21.044 66.8595 21.044C66.2248 21.044 65.6525 21.1913 65.1425 21.486C64.6438 21.7693 64.2472 22.1773 63.9525 22.71C63.6692 23.2427 63.5275 23.849 63.5275 24.529C63.5275 25.209 63.6692 25.8153 63.9525 26.348C64.2472 26.8807 64.6438 27.2943 65.1425 27.589C65.6525 27.8723 66.2248 28.014 66.8595 28.014ZM75.0187 21.809C75.302 21.2083 75.7214 20.755 76.2767 20.449C76.8434 20.143 77.5404 19.99 78.3677 19.99V21.163L78.0787 21.146C77.138 21.146 76.4014 21.435 75.8687 22.013C75.336 22.591 75.0697 23.4013 75.0697 24.444V29H73.8627V20.058H75.0187V21.809ZM83.8681 24.512L81.7601 26.45V29H80.5531V16.386H81.7601V24.937L87.0981 20.058H88.5941L84.7691 23.713L88.9511 29H87.4721L83.8681 24.512ZM90.8821 21.843C90.6327 21.843 90.4174 21.7523 90.2361 21.571C90.0661 21.3897 89.9811 21.1687 89.9811 20.908C89.9811 20.6473 90.0661 20.432 90.2361 20.262C90.4174 20.0807 90.6327 19.99 90.8821 19.99C91.1314 19.99 91.3467 20.0807 91.5281 20.262C91.7094 20.432 91.8001 20.6473 91.8001 20.908C91.8001 21.1687 91.7094 21.3897 91.5281 21.571C91.3467 21.7523 91.1314 21.843 90.8821 21.843ZM90.8821 29.085C90.6327 29.085 90.4174 28.9943 90.2361 28.813C90.0661 28.6317 89.9811 28.4107 89.9811 28.15C89.9811 27.8893 90.0661 27.674 90.2361 27.504C90.4174 27.3227 90.6327 27.232 90.8821 27.232C91.1314 27.232 91.3467 27.3227 91.5281 27.504C91.7094 27.674 91.8001 27.8893 91.8001 28.15C91.8001 28.4107 91.7094 28.6317 91.5281 28.813C91.3467 28.9943 91.1314 29.085 90.8821 29.085ZM107.451 23.05H108.658V27.589C108.103 28.0763 107.445 28.4503 106.686 28.711C105.927 28.9717 105.128 29.102 104.289 29.102C103.099 29.102 102.028 28.8413 101.076 28.32C100.124 27.7987 99.3758 27.079 98.8318 26.161C98.2878 25.2317 98.0158 24.1947 98.0158 23.05C98.0158 21.9053 98.2878 20.874 98.8318 19.956C99.3758 19.0267 100.124 18.3013 101.076 17.78C102.028 17.2587 103.105 16.998 104.306 16.998C105.213 16.998 106.046 17.1453 106.805 17.44C107.564 17.7233 108.205 18.1483 108.726 18.715L107.944 19.514C107.003 18.5847 105.808 18.12 104.357 18.12C103.394 18.12 102.521 18.3353 101.739 18.766C100.968 19.1853 100.362 19.7747 99.9198 20.534C99.4778 21.282 99.2568 22.1207 99.2568 23.05C99.2568 23.9793 99.4778 24.818 99.9198 25.566C100.362 26.314 100.968 26.9033 101.739 27.334C102.51 27.7647 103.377 27.98 104.34 27.98C105.564 27.98 106.601 27.674 107.451 27.062V23.05ZM120.633 27.912V29H112.218V17.1H120.378V18.188H113.476V22.421H119.63V23.492H113.476V27.912H120.633ZM121.901 29H130.401V29.816H121.901V29ZM145.213 17.1V29H144.006V19.48L139.331 27.487H138.736L134.061 19.531V29H132.854V17.1H133.891L139.059 25.923L144.176 17.1H145.213ZM154.292 29.102C153.114 29.102 152.043 28.8413 151.079 28.32C150.127 27.7873 149.379 27.062 148.835 26.144C148.303 25.226 148.036 24.1947 148.036 23.05C148.036 21.9053 148.303 20.874 148.835 19.956C149.379 19.038 150.127 18.3183 151.079 17.797C152.043 17.2643 153.114 16.998 154.292 16.998C155.471 16.998 156.531 17.2587 157.471 17.78C158.423 18.3013 159.171 19.0267 159.715 19.956C160.259 20.874 160.531 21.9053 160.531 23.05C160.531 24.1947 160.259 25.2317 159.715 26.161C159.171 27.079 158.423 27.7987 157.471 28.32C156.531 28.8413 155.471 29.102 154.292 29.102ZM154.292 27.98C155.233 27.98 156.083 27.7703 156.842 27.351C157.602 26.9203 158.197 26.331 158.627 25.583C159.058 24.8237 159.273 23.9793 159.273 23.05C159.273 22.1207 159.058 21.282 158.627 20.534C158.197 19.7747 157.602 19.1853 156.842 18.766C156.083 18.3353 155.233 18.12 154.292 18.12C153.352 18.12 152.496 18.3353 151.725 18.766C150.966 19.1853 150.365 19.7747 149.923 20.534C149.493 21.282 149.277 22.1207 149.277 23.05C149.277 23.9793 149.493 24.8237 149.923 25.583C150.365 26.331 150.966 26.9203 151.725 27.351C152.496 27.7703 153.352 27.98 154.292 27.98ZM163.351 17.1H168.196C169.454 17.1 170.565 17.355 171.528 17.865C172.491 18.3637 173.239 19.0663 173.772 19.973C174.305 20.8683 174.571 21.894 174.571 23.05C174.571 24.206 174.305 25.2373 173.772 26.144C173.239 27.0393 172.491 27.742 171.528 28.252C170.565 28.7507 169.454 29 168.196 29H163.351V17.1ZM168.128 27.912C169.171 27.912 170.083 27.708 170.865 27.3C171.647 26.8807 172.253 26.3083 172.684 25.583C173.115 24.8463 173.33 24.002 173.33 23.05C173.33 22.098 173.115 21.2593 172.684 20.534C172.253 19.7973 171.647 19.225 170.865 18.817C170.083 18.3977 169.171 18.188 168.128 18.188H164.609V27.912H168.128ZM182.19 29.102C180.649 29.102 179.447 28.66 178.586 27.776C177.725 26.892 177.294 25.6057 177.294 23.917V17.1H178.552V23.866C178.552 25.2487 178.864 26.28 179.487 26.96C180.11 27.64 181.011 27.98 182.19 27.98C183.38 27.98 184.287 27.64 184.91 26.96C185.533 26.28 185.845 25.2487 185.845 23.866V17.1H187.069V23.917C187.069 25.6057 186.638 26.892 185.777 27.776C184.927 28.66 183.731 29.102 182.19 29.102ZM190.86 17.1H192.118V27.912H198.782V29H190.86V17.1ZM209.286 27.912V29H200.871V17.1H209.031V18.188H202.129V22.421H208.283V23.492H202.129V27.912H209.286ZM210.554 29H219.054V29.816H210.554V29ZM229.268 29L225.426 23.764L221.601 29H220.156L224.678 22.88L220.445 17.1H221.89L225.477 21.962L229.047 17.1H230.407L226.191 22.846L230.73 29H229.268ZM240.026 29L236.184 23.764L232.359 29H230.914L235.436 22.88L231.203 17.1H232.648L236.235 21.962L239.805 17.1H241.165L236.949 22.846L241.488 29H240.026ZM250.784 29L246.942 23.764L243.117 29H241.672L246.194 22.88L241.961 17.1H243.406L246.993 21.962L250.563 17.1H251.923L247.707 22.846L252.246 29H250.784ZM261.542 29L257.7 23.764L253.875 29H252.43L256.952 22.88L252.719 17.1H254.164L257.751 21.962L261.321 17.1H262.681L258.465 22.846L263.004 29H261.542Z" fill="white"/>
<path opacity="0.4" d="M30.297 60.1V72H29.09V62.48L24.415 70.487H23.82L19.145 62.531V72H17.938V60.1H18.975L24.143 68.923L29.26 60.1H30.297ZM41.6373 68.821H35.0073L33.5793 72H32.2703L37.7103 60.1H38.9513L44.3913 72H43.0653L41.6373 68.821ZM41.1783 67.801L38.3223 61.409L35.4663 67.801H41.1783ZM51.3619 72.102C50.1832 72.102 49.1179 71.8413 48.1659 71.32C47.2252 70.7987 46.4829 70.079 45.9389 69.161C45.4062 68.2317 45.1399 67.1947 45.1399 66.05C45.1399 64.9053 45.4062 63.874 45.9389 62.956C46.4829 62.0267 47.2309 61.3013 48.1829 60.78C49.1349 60.2587 50.2002 59.998 51.3789 59.998C52.2629 59.998 53.0789 60.1453 53.8269 60.44C54.5749 60.7347 55.2095 61.1653 55.7309 61.732L54.9319 62.531C54.0025 61.5903 52.8295 61.12 51.4129 61.12C50.4722 61.12 49.6165 61.3353 48.8459 61.766C48.0752 62.1967 47.4689 62.786 47.0269 63.534C46.5962 64.282 46.3809 65.1207 46.3809 66.05C46.3809 66.9793 46.5962 67.818 47.0269 68.566C47.4689 69.314 48.0752 69.9033 48.8459 70.334C49.6165 70.7647 50.4722 70.98 51.4129 70.98C52.8409 70.98 54.0139 70.504 54.9319 69.552L55.7309 70.351C55.2095 70.9177 54.5692 71.354 53.8099 71.66C53.0619 71.9547 52.2459 72.102 51.3619 72.102ZM58.177 64.843C57.9277 64.843 57.7123 64.7523 57.531 64.571C57.361 64.3897 57.276 64.1687 57.276 63.908C57.276 63.6473 57.361 63.432 57.531 63.262C57.7123 63.0807 57.9277 62.99 58.177 62.99C58.4263 62.99 58.6417 63.0807 58.823 63.262C59.0043 63.432 59.095 63.6473 59.095 63.908C59.095 64.1687 59.0043 64.3897 58.823 64.571C58.6417 64.7523 58.4263 64.843 58.177 64.843ZM58.177 72.085C57.9277 72.085 57.7123 71.9943 57.531 71.813C57.361 71.6317 57.276 71.4107 57.276 71.15C57.276 70.8893 57.361 70.674 57.531 70.504C57.7123 70.3227 57.9277 70.232 58.177 70.232C58.4263 70.232 58.6417 70.3227 58.823 70.504C59.0043 70.674 59.095 70.8893 59.095 71.15C59.095 71.4107 59.0043 71.6317 58.823 71.813C58.6417 71.9943 58.4263 72.085 58.177 72.085ZM73.8278 72L69.9858 66.764L66.1608 72H64.7158L69.2378 65.88L65.0048 60.1H66.4498L70.0368 64.962L73.6068 60.1H74.9668L70.7508 65.846L75.2898 72H73.8278ZM84.5856 72L80.7436 66.764L76.9186 72H75.4736L79.9956 65.88L75.7626 60.1H77.2076L80.7946 64.962L84.3646 60.1H85.7246L81.5086 65.846L86.0476 72H84.5856ZM100.191 72L96.349 66.764L92.524 72H91.079L95.601 65.88L91.368 60.1H92.813L96.4 64.962L99.97 60.1H101.33L97.114 65.846L101.653 72H100.191ZM110.949 72L107.107 66.764L103.282 72H101.837L106.359 65.88L102.126 60.1H103.571L107.158 64.962L110.728 60.1H112.088L107.872 65.846L112.411 72H110.949ZM126.554 72L122.712 66.764L118.887 72H117.442L121.964 65.88L117.731 60.1H119.176L122.763 64.962L126.333 60.1H127.693L123.477 65.846L128.016 72H126.554ZM137.312 72L133.47 66.764L129.645 72H128.2L132.722 65.88L128.489 60.1H129.934L133.521 64.962L137.091 60.1H138.451L134.235 65.846L138.774 72H137.312ZM152.918 72L149.076 66.764L145.251 72H143.806L148.328 65.88L144.095 60.1H145.54L149.127 64.962L152.697 60.1H154.057L149.841 65.846L154.38 72H152.918ZM163.675 72L159.833 66.764L156.008 72H154.563L159.085 65.88L154.852 60.1H156.297L159.884 64.962L163.454 60.1H164.814L160.598 65.846L165.137 72H163.675ZM179.281 72L175.439 66.764L171.614 72H170.169L174.691 65.88L170.458 60.1H171.903L175.49 64.962L179.06 60.1H180.42L176.204 65.846L180.743 72H179.281ZM190.039 72L186.197 66.764L182.372 72H180.927L185.449 65.88L181.216 60.1H182.661L186.248 64.962L189.818 60.1H191.178L186.962 65.846L191.501 72H190.039ZM205.644 72L201.802 66.764L197.977 72H196.532L201.054 65.88L196.821 60.1H198.266L201.853 64.962L205.423 60.1H206.783L202.567 65.846L207.106 72H205.644ZM216.402 72L212.56 66.764L208.735 72H207.29L211.812 65.88L207.579 60.1H209.024L212.611 64.962L216.181 60.1H217.541L213.325 65.846L217.864 72H216.402Z" fill="white"/>
<path d="M22.392 39.1C23.9107 39.1 25.1007 39.4627 25.962 40.188C26.8233 40.9133 27.254 41.9107 27.254 43.18C27.254 44.4493 26.8233 45.4467 25.962 46.172C25.1007 46.886 23.9107 47.243 22.392 47.243H19.196V51H17.938V39.1H22.392ZM22.358 46.138C23.5367 46.138 24.4377 45.883 25.061 45.373C25.6843 44.8517 25.996 44.1207 25.996 43.18C25.996 42.2167 25.6843 41.48 25.061 40.97C24.4377 40.4487 23.5367 40.188 22.358 40.188H19.196V46.138H22.358ZM32.7641 41.99C33.9315 41.99 34.8268 42.2847 35.4501 42.874C36.0735 43.452 36.3851 44.3133 36.3851 45.458V51H35.2291V49.606C34.9571 50.0707 34.5548 50.4333 34.0221 50.694C33.5008 50.9547 32.8775 51.085 32.1521 51.085C31.1548 51.085 30.3615 50.847 29.7721 50.371C29.1828 49.895 28.8881 49.266 28.8881 48.484C28.8881 47.7247 29.1601 47.1127 29.7041 46.648C30.2595 46.1833 31.1378 45.951 32.3391 45.951H35.1781V45.407C35.1781 44.6363 34.9628 44.0527 34.5321 43.656C34.1015 43.248 33.4725 43.044 32.6451 43.044C32.0785 43.044 31.5345 43.1403 31.0131 43.333C30.4918 43.5143 30.0441 43.7693 29.6701 44.098L29.1261 43.197C29.5795 42.8117 30.1235 42.517 30.7581 42.313C31.3928 42.0977 32.0615 41.99 32.7641 41.99ZM32.3391 50.133C33.0191 50.133 33.6028 49.98 34.0901 49.674C34.5775 49.3567 34.9401 48.9033 35.1781 48.314V46.852H32.3731C30.8431 46.852 30.0781 47.3847 30.0781 48.45C30.0781 48.9713 30.2765 49.385 30.6731 49.691C31.0698 49.9857 31.6251 50.133 32.3391 50.133ZM42.0605 51.085C41.3351 51.085 40.6381 50.983 39.9695 50.779C39.3121 50.5637 38.7965 50.2973 38.4225 49.98L38.9665 49.028C39.3405 49.3227 39.8108 49.5663 40.3775 49.759C40.9441 49.9403 41.5335 50.031 42.1455 50.031C42.9615 50.031 43.5621 49.9063 43.9475 49.657C44.3441 49.3963 44.5425 49.0337 44.5425 48.569C44.5425 48.2403 44.4348 47.9853 44.2195 47.804C44.0041 47.6113 43.7321 47.4697 43.4035 47.379C43.0748 47.277 42.6385 47.1807 42.0945 47.09C41.3691 46.954 40.7855 46.818 40.3435 46.682C39.9015 46.5347 39.5218 46.291 39.2045 45.951C38.8985 45.611 38.7455 45.1407 38.7455 44.54C38.7455 43.792 39.0571 43.18 39.6805 42.704C40.3038 42.228 41.1708 41.99 42.2815 41.99C42.8595 41.99 43.4375 42.0693 44.0155 42.228C44.5935 42.3753 45.0695 42.5737 45.4435 42.823L44.9165 43.792C44.1798 43.282 43.3015 43.027 42.2815 43.027C41.5108 43.027 40.9271 43.163 40.5305 43.435C40.1451 43.707 39.9525 44.064 39.9525 44.506C39.9525 44.846 40.0601 45.118 40.2755 45.322C40.5021 45.526 40.7798 45.679 41.1085 45.781C41.4371 45.8717 41.8905 45.968 42.4685 46.07C43.1825 46.206 43.7548 46.342 44.1855 46.478C44.6161 46.614 44.9845 46.8463 45.2905 47.175C45.5965 47.5037 45.7495 47.957 45.7495 48.535C45.7495 49.317 45.4208 49.9403 44.7635 50.405C44.1175 50.8583 43.2165 51.085 42.0605 51.085ZM50.3779 51.085C49.6525 51.085 48.9555 50.983 48.2869 50.779C47.6295 50.5637 47.1139 50.2973 46.7399 49.98L47.2839 49.028C47.6579 49.3227 48.1282 49.5663 48.6949 49.759C49.2615 49.9403 49.8509 50.031 50.4629 50.031C51.2789 50.031 51.8795 49.9063 52.2649 49.657C52.6615 49.3963 52.8599 49.0337 52.8599 48.569C52.8599 48.2403 52.7522 47.9853 52.5369 47.804C52.3215 47.6113 52.0495 47.4697 51.7209 47.379C51.3922 47.277 50.9559 47.1807 50.4119 47.09C49.6865 46.954 49.1029 46.818 48.6609 46.682C48.2189 46.5347 47.8392 46.291 47.5219 45.951C47.2159 45.611 47.0629 45.1407 47.0629 44.54C47.0629 43.792 47.3745 43.18 47.9979 42.704C48.6212 42.228 49.4882 41.99 50.5989 41.99C51.1769 41.99 51.7549 42.0693 52.3329 42.228C52.9109 42.3753 53.3869 42.5737 53.7609 42.823L53.2339 43.792C52.4972 43.282 51.6189 43.027 50.5989 43.027C49.8282 43.027 49.2445 43.163 48.8479 43.435C48.4625 43.707 48.2699 44.064 48.2699 44.506C48.2699 44.846 48.3775 45.118 48.5929 45.322C48.8195 45.526 49.0972 45.679 49.4259 45.781C49.7545 45.8717 50.2079 45.968 50.7859 46.07C51.4999 46.206 52.0722 46.342 52.5029 46.478C52.9335 46.614 53.3019 46.8463 53.6079 47.175C53.9139 47.5037 54.0669 47.957 54.0669 48.535C54.0669 49.317 53.7382 49.9403 53.0809 50.405C52.4349 50.8583 51.5339 51.085 50.3779 51.085ZM69.2562 42.058L65.8732 51H64.7342L61.9122 43.673L59.0902 51H57.9512L54.5852 42.058H55.7412L58.5462 49.657L61.4192 42.058H62.4562L65.3122 49.657L68.1512 42.058H69.2562ZM74.4796 51.085C73.6183 51.085 72.8419 50.8923 72.1506 50.507C71.4593 50.1103 70.9153 49.5663 70.5186 48.875C70.1219 48.1837 69.9236 47.4017 69.9236 46.529C69.9236 45.6563 70.1219 44.8743 70.5186 44.183C70.9153 43.4917 71.4593 42.9533 72.1506 42.568C72.8419 42.1827 73.6183 41.99 74.4796 41.99C75.3409 41.99 76.1173 42.1827 76.8086 42.568C77.4999 42.9533 78.0383 43.4917 78.4236 44.183C78.8203 44.8743 79.0186 45.6563 79.0186 46.529C79.0186 47.4017 78.8203 48.1837 78.4236 48.875C78.0383 49.5663 77.4999 50.1103 76.8086 50.507C76.1173 50.8923 75.3409 51.085 74.4796 51.085ZM74.4796 50.014C75.1143 50.014 75.6809 49.8723 76.1796 49.589C76.6896 49.2943 77.0863 48.8807 77.3696 48.348C77.6529 47.8153 77.7946 47.209 77.7946 46.529C77.7946 45.849 77.6529 45.2427 77.3696 44.71C77.0863 44.1773 76.6896 43.7693 76.1796 43.486C75.6809 43.1913 75.1143 43.044 74.4796 43.044C73.8449 43.044 73.2726 43.1913 72.7626 43.486C72.2639 43.7693 71.8673 44.1773 71.5726 44.71C71.2893 45.2427 71.1476 45.849 71.1476 46.529C71.1476 47.209 71.2893 47.8153 71.5726 48.348C71.8673 48.8807 72.2639 49.2943 72.7626 49.589C73.2726 49.8723 73.8449 50.014 74.4796 50.014ZM82.6388 43.809C82.9221 43.2083 83.3415 42.755 83.8968 42.449C84.4635 42.143 85.1605 41.99 85.9878 41.99V43.163L85.6988 43.146C84.7581 43.146 84.0215 43.435 83.4888 44.013C82.9561 44.591 82.6898 45.4013 82.6898 46.444V51H81.4828V42.058H82.6388V43.809ZM96.2502 38.386V51H95.0942V49.232C94.7316 49.8327 94.2499 50.2917 93.6492 50.609C93.0599 50.9263 92.3912 51.085 91.6432 51.085C90.8046 51.085 90.0452 50.8923 89.3652 50.507C88.6852 50.1217 88.1526 49.5833 87.7672 48.892C87.3819 48.2007 87.1892 47.413 87.1892 46.529C87.1892 45.645 87.3819 44.8573 87.7672 44.166C88.1526 43.4747 88.6852 42.942 89.3652 42.568C90.0452 42.1827 90.8046 41.99 91.6432 41.99C92.3686 41.99 93.0202 42.143 93.5982 42.449C94.1876 42.7437 94.6692 43.18 95.0432 43.758V38.386H96.2502ZM91.7452 50.014C92.3686 50.014 92.9296 49.8723 93.4282 49.589C93.9382 49.2943 94.3349 48.8807 94.6182 48.348C94.9129 47.8153 95.0602 47.209 95.0602 46.529C95.0602 45.849 94.9129 45.2427 94.6182 44.71C94.3349 44.1773 93.9382 43.7693 93.4282 43.486C92.9296 43.1913 92.3686 43.044 91.7452 43.044C91.1106 43.044 90.5382 43.1913 90.0282 43.486C89.5296 43.7693 89.1329 44.1773 88.8382 44.71C88.5549 45.2427 88.4132 45.849 88.4132 46.529C88.4132 47.209 88.5549 47.8153 88.8382 48.348C89.1329 48.8807 89.5296 49.2943 90.0282 49.589C90.5382 49.8723 91.1106 50.014 91.7452 50.014ZM99.7307 43.843C99.4814 43.843 99.266 43.7523 99.0847 43.571C98.9147 43.3897 98.8297 43.1687 98.8297 42.908C98.8297 42.6473 98.9147 42.432 99.0847 42.262C99.266 42.0807 99.4814 41.99 99.7307 41.99C99.98 41.99 100.195 42.0807 100.377 42.262C100.558 42.432 100.649 42.6473 100.649 42.908C100.649 43.1687 100.558 43.3897 100.377 43.571C100.195 43.7523 99.98 43.843 99.7307 43.843ZM99.7307 51.085C99.4814 51.085 99.266 50.9943 99.0847 50.813C98.9147 50.6317 98.8297 50.4107 98.8297 50.15C98.8297 49.8893 98.9147 49.674 99.0847 49.504C99.266 49.3227 99.4814 49.232 99.7307 49.232C99.98 49.232 100.195 49.3227 100.377 49.504C100.558 49.674 100.649 49.8893 100.649 50.15C100.649 50.4107 100.558 50.6317 100.377 50.813C100.195 50.9943 99.98 51.085 99.7307 51.085ZM115.381 51L111.539 45.764L107.714 51H106.269L110.791 44.88L106.558 39.1H108.003L111.59 43.962L115.16 39.1H116.52L112.304 44.846L116.843 51H115.381ZM126.139 51L122.297 45.764L118.472 51H117.027L121.549 44.88L117.316 39.1H118.761L122.348 43.962L125.918 39.1H127.278L123.062 44.846L127.601 51H126.139ZM136.897 51L133.055 45.764L129.23 51H127.785L132.307 44.88L128.074 39.1H129.519L133.106 43.962L136.676 39.1H138.036L133.82 44.846L138.359 51H136.897ZM147.655 51L143.813 45.764L139.988 51H138.543L143.065 44.88L138.832 39.1H140.277L143.864 43.962L147.434 39.1H148.794L144.578 44.846L149.117 51H147.655ZM158.413 51L154.571 45.764L150.746 51H149.301L153.823 44.88L149.59 39.1H151.035L154.622 43.962L158.192 39.1H159.552L155.336 44.846L159.875 51H158.413ZM169.171 51L165.329 45.764L161.504 51H160.059L164.581 44.88L160.348 39.1H161.793L165.38 43.962L168.95 39.1H170.31L166.094 44.846L170.633 51H169.171ZM179.928 51L176.086 45.764L172.261 51H170.816L175.338 44.88L171.105 39.1H172.55L176.137 43.962L179.707 39.1H181.067L176.851 44.846L181.39 51H179.928ZM190.686 51L186.844 45.764L183.019 51H181.574L186.096 44.88L181.863 39.1H183.308L186.895 43.962L190.465 39.1H191.825L187.609 44.846L192.148 51H190.686Z" fill="white"/>
<path opacity="0.4" d="M18.068 122.004V125.029H22.05V125.733H18.068V129H17.254V121.3H22.534V122.004H18.068ZM27.4623 129.066C26.6996 129.066 26.0103 128.897 25.3943 128.56C24.7856 128.223 24.3053 127.757 23.9533 127.163C23.6086 126.562 23.4363 125.891 23.4363 125.15C23.4363 124.409 23.6086 123.742 23.9533 123.148C24.3053 122.547 24.7893 122.077 25.4053 121.74C26.0213 121.403 26.7106 121.234 27.4733 121.234C28.0453 121.234 28.5733 121.329 29.0573 121.52C29.5413 121.711 29.9519 121.989 30.2893 122.356L29.7723 122.873C29.1709 122.264 28.4119 121.96 27.4953 121.96C26.8866 121.96 26.3329 122.099 25.8343 122.378C25.3356 122.657 24.9433 123.038 24.6573 123.522C24.3786 124.006 24.2393 124.549 24.2393 125.15C24.2393 125.751 24.3786 126.294 24.6573 126.778C24.9433 127.262 25.3356 127.643 25.8343 127.922C26.3329 128.201 26.8866 128.34 27.4953 128.34C28.4193 128.34 29.1783 128.032 29.7723 127.416L30.2893 127.933C29.9519 128.3 29.5376 128.582 29.0463 128.78C28.5623 128.971 28.0343 129.066 27.4623 129.066ZM35.2074 129.066C34.4447 129.066 33.7554 128.897 33.1394 128.56C32.5307 128.223 32.0504 127.757 31.6984 127.163C31.3537 126.562 31.1814 125.891 31.1814 125.15C31.1814 124.409 31.3537 123.742 31.6984 123.148C32.0504 122.547 32.5344 122.077 33.1504 121.74C33.7664 121.403 34.4557 121.234 35.2184 121.234C35.7904 121.234 36.3184 121.329 36.8024 121.52C37.2864 121.711 37.697 121.989 38.0344 122.356L37.5174 122.873C36.916 122.264 36.157 121.96 35.2404 121.96C34.6317 121.96 34.078 122.099 33.5794 122.378C33.0807 122.657 32.6884 123.038 32.4024 123.522C32.1237 124.006 31.9844 124.549 31.9844 125.15C31.9844 125.751 32.1237 126.294 32.4024 126.778C32.6884 127.262 33.0807 127.643 33.5794 127.922C34.078 128.201 34.6317 128.34 35.2404 128.34C36.1644 128.34 36.9234 128.032 37.5174 127.416L38.0344 127.933C37.697 128.3 37.2827 128.582 36.7914 128.78C36.3074 128.971 35.7794 129.066 35.2074 129.066ZM42.6485 121.3H43.4625V129H42.6485V121.3ZM45.9679 121.3H49.1029C49.9169 121.3 50.6355 121.465 51.2589 121.795C51.8822 122.118 52.3662 122.572 52.7109 123.159C53.0555 123.738 53.2279 124.402 53.2279 125.15C53.2279 125.898 53.0555 126.565 52.7109 127.152C52.3662 127.731 51.8822 128.186 51.2589 128.516C50.6355 128.839 49.9169 129 49.1029 129H45.9679V121.3ZM49.0589 128.296C49.7335 128.296 50.3239 128.164 50.8299 127.9C51.3359 127.629 51.7282 127.258 52.0069 126.789C52.2855 126.312 52.4249 125.766 52.4249 125.15C52.4249 124.534 52.2855 123.991 52.0069 123.522C51.7282 123.045 51.3359 122.675 50.8299 122.411C50.3239 122.14 49.7335 122.004 49.0589 122.004H46.7819V128.296H49.0589ZM54.9678 124.369C54.8064 124.369 54.6671 124.31 54.5498 124.193C54.4398 124.076 54.3848 123.933 54.3848 123.764C54.3848 123.595 54.4398 123.456 54.5498 123.346C54.6671 123.229 54.8064 123.17 54.9678 123.17C55.1291 123.17 55.2684 123.229 55.3858 123.346C55.5031 123.456 55.5618 123.595 55.5618 123.764C55.5618 123.933 55.5031 124.076 55.3858 124.193C55.2684 124.31 55.1291 124.369 54.9678 124.369ZM54.9678 129.055C54.8064 129.055 54.6671 128.996 54.5498 128.879C54.4398 128.762 54.3848 128.619 54.3848 128.45C54.3848 128.281 54.4398 128.142 54.5498 128.032C54.6671 127.915 54.8064 127.856 54.9678 127.856C55.1291 127.856 55.2684 127.915 55.3858 128.032C55.5031 128.142 55.5618 128.281 55.5618 128.45C55.5618 128.619 55.5031 128.762 55.3858 128.879C55.2684 128.996 55.1291 129.055 54.9678 129.055ZM65.0947 129L62.6087 125.612L60.1337 129H59.1987L62.1247 125.04L59.3857 121.3H60.3207L62.6417 124.446L64.9517 121.3H65.8317L63.1037 125.018L66.0407 129H65.0947ZM72.0557 129L69.5697 125.612L67.0947 129H66.1597L69.0857 125.04L66.3467 121.3H67.2817L69.6027 124.446L71.9127 121.3H72.7927L70.0647 125.018L73.0017 129H72.0557ZM79.0166 129L76.5306 125.612L74.0556 129H73.1206L76.0466 125.04L73.3076 121.3H74.2426L76.5636 124.446L78.8736 121.3H79.7536L77.0256 125.018L79.9626 129H79.0166ZM83.6913 125.678H86.5733V126.36H83.6913V125.678ZM96.1934 129L93.7074 125.612L91.2324 129H90.2974L93.2234 125.04L90.4844 121.3H91.4194L93.7404 124.446L96.0504 121.3H96.9304L94.2024 125.018L97.1394 129H96.1934ZM103.154 129L100.668 125.612L98.1933 129H97.2583L100.184 125.04L97.4453 121.3H98.3803L100.701 124.446L103.011 121.3H103.891L101.163 125.018L104.1 129H103.154ZM110.115 129L107.629 125.612L105.154 129H104.219L107.145 125.04L104.406 121.3H105.341L107.662 124.446L109.972 121.3H110.852L108.124 125.018L111.061 129H110.115ZM117.076 129L114.59 125.612L112.115 129H111.18L114.106 125.04L111.367 121.3H112.302L114.623 124.446L116.933 121.3H117.813L115.085 125.018L118.022 129H117.076ZM124.037 129L121.551 125.612L119.076 129H118.141L121.067 125.04L118.328 121.3H119.263L121.584 124.446L123.894 121.3H124.774L122.046 125.018L124.983 129H124.037ZM130.998 129L128.512 125.612L126.037 129H125.102L128.028 125.04L125.289 121.3H126.224L128.545 124.446L130.855 121.3H131.735L129.007 125.018L131.944 129H130.998ZM137.959 129L135.473 125.612L132.998 129H132.063L134.989 125.04L132.25 121.3H133.185L135.506 124.446L137.816 121.3H138.696L135.968 125.018L138.905 129H137.959ZM144.92 129L142.434 125.612L139.959 129H139.024L141.95 125.04L139.211 121.3H140.146L142.467 124.446L144.777 121.3H145.657L142.929 125.018L145.866 129H144.92Z" fill="white"/>
<path opacity="0.4" d="M155.254 121.3H156.068V129H155.254V121.3ZM161.917 129.066C161.155 129.066 160.465 128.897 159.849 128.56C159.241 128.223 158.76 127.757 158.408 127.163C158.064 126.562 157.891 125.891 157.891 125.15C157.891 124.409 158.064 123.742 158.408 123.148C158.76 122.547 159.244 122.077 159.86 121.74C160.476 121.403 161.166 121.234 161.928 121.234C162.5 121.234 163.028 121.329 163.512 121.52C163.996 121.711 164.407 121.989 164.744 122.356L164.227 122.873C163.626 122.264 162.867 121.96 161.95 121.96C161.342 121.96 160.788 122.099 160.289 122.378C159.791 122.657 159.398 123.038 159.112 123.522C158.834 124.006 158.694 124.549 158.694 125.15C158.694 125.751 158.834 126.294 159.112 126.778C159.398 127.262 159.791 127.643 160.289 127.922C160.788 128.201 161.342 128.34 161.95 128.34C162.874 128.34 163.633 128.032 164.227 127.416L164.744 127.933C164.407 128.3 163.993 128.582 163.501 128.78C163.017 128.971 162.489 129.066 161.917 129.066ZM166.327 124.369C166.166 124.369 166.026 124.31 165.909 124.193C165.799 124.076 165.744 123.933 165.744 123.764C165.744 123.595 165.799 123.456 165.909 123.346C166.026 123.229 166.166 123.17 166.327 123.17C166.488 123.17 166.628 123.229 166.745 123.346C166.862 123.456 166.921 123.595 166.921 123.764C166.921 123.933 166.862 124.076 166.745 124.193C166.628 124.31 166.488 124.369 166.327 124.369ZM166.327 129.055C166.166 129.055 166.026 128.996 165.909 128.879C165.799 128.762 165.744 128.619 165.744 128.45C165.744 128.281 165.799 128.142 165.909 128.032C166.026 127.915 166.166 127.856 166.327 127.856C166.488 127.856 166.628 127.915 166.745 128.032C166.862 128.142 166.921 128.281 166.921 128.45C166.921 128.619 166.862 128.762 166.745 128.879C166.628 128.996 166.488 129.055 166.327 129.055ZM176.454 129L173.968 125.612L171.493 129H170.558L173.484 125.04L170.745 121.3H171.68L174.001 124.446L176.311 121.3H177.191L174.463 125.018L177.4 129H176.454ZM183.415 129L180.929 125.612L178.454 129H177.519L180.445 125.04L177.706 121.3H178.641L180.962 124.446L183.272 121.3H184.152L181.424 125.018L184.361 129H183.415ZM190.376 129L187.89 125.612L185.415 129H184.48L187.406 125.04L184.667 121.3H185.602L187.923 124.446L190.233 121.3H191.113L188.385 125.018L191.322 129H190.376ZM197.337 129L194.851 125.612L192.376 129H191.441L194.367 125.04L191.628 121.3H192.563L194.884 124.446L197.194 121.3H198.074L195.346 125.018L198.283 129H197.337ZM204.298 129L201.812 125.612L199.337 129H198.402L201.328 125.04L198.589 121.3H199.524L201.845 124.446L204.155 121.3H205.035L202.307 125.018L205.244 129H204.298ZM211.259 129L208.773 125.612L206.298 129H205.363L208.289 125.04L205.55 121.3H206.485L208.806 124.446L211.116 121.3H211.996L209.268 125.018L212.205 129H211.259ZM215.933 125.678H218.815V126.36H215.933V125.678ZM228.436 129L225.95 125.612L223.475 129H222.54L225.466 125.04L222.727 121.3H223.662L225.983 124.446L228.293 121.3H229.173L226.445 125.018L229.382 129H228.436ZM235.396 129L232.91 125.612L230.435 129H229.5L232.426 125.04L229.687 121.3H230.622L232.943 124.446L235.253 121.3H236.133L233.405 125.018L236.342 129H235.396ZM242.357 129L239.871 125.612L237.396 129H236.461L239.387 125.04L236.648 121.3H237.583L239.904 124.446L242.214 121.3H243.094L240.366 125.018L243.303 129H242.357ZM249.318 129L246.832 125.612L244.357 129H243.422L246.348 125.04L243.609 121.3H244.544L246.865 124.446L249.175 121.3H250.055L247.327 125.018L250.264 129H249.318ZM256.279 129L253.793 125.612L251.318 129H250.383L253.309 125.04L250.57 121.3H251.505L253.826 124.446L256.136 121.3H257.016L254.288 125.018L257.225 129H256.279ZM263.24 129L260.754 125.612L258.279 129H257.344L260.27 125.04L257.531 121.3H258.466L260.787 124.446L263.097 121.3H263.977L261.249 125.018L264.186 129H263.24ZM270.201 129L267.715 125.612L265.24 129H264.305L267.231 125.04L264.492 121.3H265.427L267.748 124.446L270.058 121.3H270.938L268.21 125.018L271.147 129H270.201ZM277.162 129L274.676 125.612L272.201 129H271.266L274.192 125.04L271.453 121.3H272.388L274.709 124.446L277.019 121.3H277.899L275.171 125.018L278.108 129H277.162Z" fill="white"/>
<g opacity="0.4">
<path d="M18 80V115" stroke="white"/>
<path d="M57.459 80V115" stroke="white"/>
<path d="M53.4116 80V115" stroke="white"/>
<path d="M44.3057 80V115" stroke="white"/>
<path d="M241.6 80V115" stroke="white"/>
<path d="M237.553 80V115" stroke="white"/>
<path d="M47.3413 80V115" stroke="white"/>
<path d="M50.3765 80V115" stroke="white" stroke-width="2"/>
<path d="M28.1177 80V115" stroke="white" stroke-width="3"/>
<path d="M34.1885 80V115" stroke="white" stroke-width="3"/>
<path d="M228.447 80V115" stroke="white"/>
<path d="M39.2471 80V115" stroke="white" stroke-width="4"/>
<path d="M231.482 80V115" stroke="white"/>
<path d="M59.4824 80V115" stroke="white"/>
<path d="M269.929 80V115" stroke="white"/>
<path d="M21.0352 80V115" stroke="white"/>
<path d="M234.518 80V115" stroke="white" stroke-width="2"/>
<path d="M212.259 80V115" stroke="white" stroke-width="3"/>
<path d="M218.33 80V115" stroke="white" stroke-width="3"/>
<path d="M223.388 80V115" stroke="white" stroke-width="4"/>
<path d="M243.624 80V115" stroke="white"/>
<path d="M272.965 80V115" stroke="white"/>
<path d="M62.5176 80V115" stroke="white"/>
<path d="M24.0708 80V115" stroke="white" stroke-width="2"/>
<path d="M245.647 80V115" stroke="white"/>
<path d="M65.5527 80V115" stroke="white" stroke-width="2"/>
<path d="M248.682 80V115" stroke="white" stroke-width="2"/>
<path d="M276 80V115" stroke="white" stroke-width="2"/>
<path d="M252.729 80V115" stroke="white" stroke-width="3"/>
<path d="M259.812 80V115" stroke="white" stroke-width="3"/>
<path d="M264.871 80V115" stroke="white" stroke-width="4"/>
<path d="M98.9414 80V115" stroke="white"/>
<path d="M94.894 80V115" stroke="white"/>
<path d="M85.7881 80V115" stroke="white"/>
<path d="M88.8237 80V115" stroke="white"/>
<path d="M91.8589 80V115" stroke="white" stroke-width="2"/>
<path d="M69.6001 80V115" stroke="white" stroke-width="3"/>
<path d="M75.6704 80V115" stroke="white" stroke-width="3"/>
<path d="M80.7295 80V115" stroke="white" stroke-width="4"/>
<path d="M101.977 80V115" stroke="white"/>
<path d="M153.577 80V115" stroke="white"/>
<path d="M148.518 80V115" stroke="white"/>
<path d="M136.376 80V115" stroke="white"/>
<path d="M105.012 80V115" stroke="white"/>
<path d="M140.423 80V115" stroke="white"/>
<path d="M109.059 80V115" stroke="white" stroke-width="2"/>
<path d="M144.471 80V115" stroke="white" stroke-width="2"/>
<path d="M114.118 80V115" stroke="white" stroke-width="3"/>
<path d="M122.212 80V115" stroke="white" stroke-width="3"/>
<path d="M130.306 80V115" stroke="white" stroke-width="4"/>
<path d="M155.6 80V115" stroke="white"/>
<path d="M207.2 80V115" stroke="white"/>
<path d="M202.141 80V115" stroke="white"/>
<path d="M190 80V115" stroke="white"/>
<path d="M158.635 80V115" stroke="white"/>
<path d="M194.047 80V115" stroke="white"/>
<path d="M162.682 80V115" stroke="white" stroke-width="2"/>
<path d="M198.094 80V115" stroke="white" stroke-width="2"/>
<path d="M167.741 80V115" stroke="white" stroke-width="3"/>
<path d="M176.847 80V115" stroke="white" stroke-width="3"/>
<path d="M183.929 80V115" stroke="white" stroke-width="4"/>
</g>
<rect x="8" y="33" width="193" height="24" rx="5" stroke="#FDBA12" stroke-width="2"/>
</svg>
