<svg width="92" height="120" viewBox="0 0 92 120" fill="none" xmlns="http://www.w3.org/2000/svg">
<rect x="14" y="52.7586" width="64" height="46" rx="4" fill="white"/>
<path fill-rule="evenodd" clip-rule="evenodd" d="M61 65.3586C61 65.5795 61.1791 65.7586 61.4 65.7586H68.6C68.8209 65.7586 69 65.5795 69 65.3586V63.1586C69 62.9377 68.8209 62.7586 68.6 62.7586H65H61.4C61.1791 62.7586 61 62.9377 61 63.1586V65.3586Z" fill="#2F2F2F"/>
<rect x="18.5" y="59.2586" width="35" height="35" rx="1.5" stroke="#2F2F2F"/>
<rect x="57.5" y="59.2586" width="16" height="35" rx="1.5" stroke="#2F2F2F"/>
<path d="M22 97.7586H32V100.759C32 101.311 31.5523 101.759 31 101.759H23C22.4477 101.759 22 101.311 22 100.759V97.7586Z" fill="white"/>
<path d="M60 97.7586H70V100.759C70 101.311 69.5523 101.759 69 101.759H61C60.4477 101.759 60 101.311 60 100.759V97.7586Z" fill="white"/>
<path d="M51.5 76.7586C51.5 85.3186 44.56 92.2586 36 92.2586C27.4386 92.2586 20.5 85.3187 20.5 76.7586C20.5 68.1972 27.4386 61.2586 36 61.2586C44.5601 61.2586 51.5 68.1972 51.5 76.7586Z" fill="#2F2F2F" stroke="#2F2F2F"/>
<g clip-path="url(#clip0_2264_11567)">
<path d="M32.5274 77.7572C32.5274 77.7572 26.2252 77.8858 24.0386 75.6872C21.852 73.4887 23.3956 69.3505 26.0955 66.6359C28.7972 63.9194 33.2983 61.7227 34.8418 63.2729C36.5133 64.9534 34.714 67.7985 34.714 69.6095C34.714 71.4205 36 74.2656 36 74.2656L32.5274 77.7572Z" fill="white"/>
<path d="M36.4923 74.1311C36.4923 74.1311 39.532 68.609 42.5293 67.8146C45.5266 67.0202 48.3385 70.4261 49.3396 74.1216C50.3413 77.8196 49.9931 82.816 47.8788 83.3777C45.5877 83.9849 44.0234 81.0041 42.4551 80.0986C40.8867 79.1931 37.7798 78.8843 37.7798 78.8843L36.4923 74.1311Z" fill="white"/>
<path d="M38.5524 78.9292C38.5524 78.9292 41.8161 84.3221 40.9842 87.3272C40.1524 90.3323 35.757 91.0876 32.03 90.1218C28.3004 89.1554 24.1264 86.3679 24.712 84.2474C25.3479 81.9503 28.7388 82.0702 30.3246 81.1546C31.9104 80.2391 33.7587 77.687 33.7587 77.687L38.5524 78.9292Z" fill="white"/>
<path d="M41 76.7586C41 79.5192 38.7606 81.7586 36 81.7586C33.2378 81.7586 31 79.5192 31 76.7586C31 73.9964 33.2378 71.7586 36 71.7586C38.7606 71.7586 41 73.9964 41 76.7586Z" fill="#2F2F2F"/>
<path d="M39 76.7586C39 78.4159 37.6565 79.7586 36.0016 79.7586C34.3435 79.7586 33 78.4159 33 76.7586C33 75.1013 34.3435 73.7586 36.0016 73.7586C37.6565 73.7586 39 75.1013 39 76.7586Z" fill="white"/>
</g>
<rect x="12" y="22" width="68" height="23" rx="4" fill="white"/>
<rect x="12" y="38" width="68" height="1" fill="#2F2F2F"/>
<path d="M14 39V41C14 42.1046 14.8954 43 16 43H76C77.1046 43 78 42.1046 78 41V39L14 39Z" stroke="#2F2F2F"/>
<rect x="43" y="27" width="7" height="3" rx="1" fill="#2F2F2F"/>
<path d="M14 41H78C78 42.1046 77.1046 43 76 43H16C14.8954 43 14 42.1046 14 41Z" fill="#2F2F2F"/>
<defs>
<clipPath id="clip0_2264_11567">
<rect width="32" height="32" fill="white" transform="translate(23 62.7586)"/>
</clipPath>
</defs>
</svg>
