<svg width="375" height="232" viewBox="0 0 375 232" fill="none" xmlns="http://www.w3.org/2000/svg">
<path d="M182.167 105.292L178.999 118H176.479L173.797 108.172L171.115 118H168.595L165.427 105.292H167.677L169.873 115.624L172.663 105.292H174.931L177.721 115.624L179.917 105.292H182.167ZM183.717 105.202C183.717 104.854 183.837 104.566 184.077 104.338C184.317 104.11 184.635 103.996 185.031 103.996C185.427 103.996 185.745 104.11 185.985 104.338C186.237 104.566 186.363 104.854 186.363 105.202C186.363 105.55 186.237 105.832 185.985 106.048C185.745 106.264 185.427 106.372 185.031 106.372C184.635 106.372 184.317 106.264 184.077 106.048C183.837 105.832 183.717 105.55 183.717 105.202ZM186.057 108.082V118H184.005V108.082H186.057ZM196.046 105.292V106.948H190.592V110.89H195.092V112.474H190.592V118H188.54V105.292H196.046ZM197.586 105.202C197.586 104.854 197.706 104.566 197.946 104.338C198.186 104.11 198.504 103.996 198.9 103.996C199.296 103.996 199.614 104.11 199.854 104.338C200.106 104.566 200.232 104.854 200.232 105.202C200.232 105.55 200.106 105.832 199.854 106.048C199.614 106.264 199.296 106.372 198.9 106.372C198.504 106.372 198.186 106.264 197.946 106.048C197.706 105.832 197.586 105.55 197.586 105.202ZM199.926 108.082V118H197.874V108.082H199.926ZM150.906 125.166C152.466 125.166 153.762 125.562 154.794 126.354C155.826 127.146 156.522 128.22 156.882 129.576H154.704C154.404 128.808 153.924 128.202 153.264 127.758C152.616 127.302 151.818 127.074 150.87 127.074C150.114 127.074 149.436 127.26 148.836 127.632C148.248 128.004 147.78 128.538 147.432 129.234C147.096 129.918 146.928 130.722 146.928 131.646C146.928 132.558 147.096 133.362 147.432 134.058C147.78 134.742 148.248 135.27 148.836 135.642C149.436 136.014 150.114 136.2 150.87 136.2C151.818 136.2 152.616 135.978 153.264 135.534C153.924 135.078 154.404 134.472 154.704 133.716H156.882C156.522 135.072 155.826 136.146 154.794 136.938C153.762 137.718 152.466 138.108 150.906 138.108C149.706 138.108 148.644 137.838 147.72 137.298C146.796 136.746 146.082 135.984 145.578 135.012C145.074 134.028 144.822 132.906 144.822 131.646C144.822 130.386 145.074 129.27 145.578 128.298C146.082 127.314 146.796 126.546 147.72 125.994C148.644 125.442 149.706 125.166 150.906 125.166ZM163.466 127.956C164.426 127.956 165.29 128.16 166.058 128.568C166.826 128.976 167.426 129.564 167.857 130.332C168.29 131.1 168.506 132 168.506 133.032C168.506 134.076 168.29 134.982 167.857 135.75C167.426 136.518 166.826 137.106 166.058 137.514C165.29 137.922 164.426 138.126 163.466 138.126C162.506 138.126 161.642 137.922 160.874 137.514C160.118 137.106 159.518 136.518 159.074 135.75C158.642 134.97 158.426 134.064 158.426 133.032C158.426 132 158.642 131.1 159.074 130.332C159.518 129.564 160.118 128.976 160.874 128.568C161.642 128.16 162.506 127.956 163.466 127.956ZM163.466 129.738C162.938 129.738 162.452 129.858 162.008 130.098C161.564 130.338 161.204 130.71 160.928 131.214C160.664 131.706 160.532 132.312 160.532 133.032C160.532 133.764 160.664 134.376 160.928 134.868C161.204 135.36 161.564 135.726 162.008 135.966C162.452 136.206 162.938 136.326 163.466 136.326C163.994 136.326 164.48 136.206 164.924 135.966C165.368 135.726 165.722 135.36 165.986 134.868C166.262 134.376 166.4 133.764 166.4 133.032C166.4 132.312 166.262 131.706 165.986 131.214C165.722 130.71 165.368 130.338 164.924 130.098C164.48 129.858 163.994 129.738 163.466 129.738ZM176.022 127.92C177.174 127.92 178.098 128.292 178.794 129.036C179.49 129.78 179.838 130.842 179.838 132.222V138H177.786V132.438C177.786 131.55 177.558 130.866 177.102 130.386C176.646 129.894 176.022 129.648 175.23 129.648C174.414 129.648 173.76 129.912 173.268 130.44C172.776 130.956 172.53 131.718 172.53 132.726V138H170.478V128.082H172.53V130.26C172.794 129.516 173.238 128.94 173.862 128.532C174.486 128.124 175.206 127.92 176.022 127.92ZM187.782 127.92C188.934 127.92 189.858 128.292 190.554 129.036C191.25 129.78 191.598 130.842 191.598 132.222V138H189.546V132.438C189.546 131.55 189.318 130.866 188.862 130.386C188.406 129.894 187.782 129.648 186.99 129.648C186.174 129.648 185.52 129.912 185.028 130.44C184.536 130.956 184.29 131.718 184.29 132.726V138H182.238V128.082H184.29V130.26C184.554 129.516 184.998 128.94 185.622 128.532C186.246 128.124 186.966 127.92 187.782 127.92ZM203.214 132.564C203.214 132.9 203.19 133.194 203.142 133.446H195.51C195.546 134.466 195.828 135.222 196.356 135.714C196.884 136.206 197.538 136.452 198.318 136.452C199.002 136.452 199.578 136.278 200.046 135.93C200.526 135.582 200.82 135.12 200.928 134.544H203.124C202.992 135.24 202.716 135.858 202.296 136.398C201.876 136.938 201.33 137.364 200.658 137.676C199.986 137.976 199.236 138.126 198.408 138.126C197.448 138.126 196.596 137.922 195.852 137.514C195.12 137.106 194.544 136.518 194.124 135.75C193.704 134.982 193.494 134.076 193.494 133.032C193.494 132 193.704 131.1 194.124 130.332C194.544 129.564 195.12 128.976 195.852 128.568C196.596 128.16 197.448 127.956 198.408 127.956C199.38 127.956 200.226 128.16 200.946 128.568C201.678 128.964 202.236 129.516 202.62 130.224C203.016 130.92 203.214 131.7 203.214 132.564ZM201.144 132.51C201.168 131.862 201.054 131.322 200.802 130.89C200.562 130.446 200.226 130.122 199.794 129.918C199.374 129.702 198.912 129.594 198.408 129.594C197.604 129.594 196.932 129.84 196.392 130.332C195.852 130.824 195.558 131.55 195.51 132.51H201.144ZM209.605 127.956C210.889 127.956 211.951 128.298 212.791 128.982C213.631 129.654 214.153 130.572 214.357 131.736H212.179C212.059 131.112 211.765 130.626 211.297 130.278C210.841 129.918 210.265 129.738 209.569 129.738C208.777 129.738 208.117 130.02 207.589 130.584C207.061 131.136 206.797 131.952 206.797 133.032C206.797 134.112 207.061 134.934 207.589 135.498C208.117 136.062 208.777 136.344 209.569 136.344C210.265 136.344 210.841 136.164 211.297 135.804C211.765 135.444 212.059 134.952 212.179 134.328H214.357C214.153 135.492 213.631 136.416 212.791 137.1C211.951 137.784 210.889 138.126 209.605 138.126C208.645 138.126 207.793 137.922 207.049 137.514C206.317 137.106 205.741 136.518 205.321 135.75C204.901 134.982 204.691 134.076 204.691 133.032C204.691 132 204.901 131.1 205.321 130.332C205.741 129.564 206.317 128.976 207.049 128.568C207.793 128.16 208.645 127.956 209.605 127.956ZM221.326 136.218V138H220.066C219.01 138 218.206 137.748 217.654 137.244C217.114 136.728 216.844 135.876 216.844 134.688V129.828H215.422V128.082H216.844V125.616H218.914V128.082H221.308V129.828H218.914V134.724C218.914 135.288 219.016 135.678 219.22 135.894C219.436 136.11 219.808 136.218 220.336 136.218H221.326Z" fill="white"/>
<path d="M182.167 105.292L178.999 118H176.479L173.797 108.172L171.115 118H168.595L165.427 105.292H167.677L169.873 115.624L172.663 105.292H174.931L177.721 115.624L179.917 105.292H182.167ZM183.717 105.202C183.717 104.854 183.837 104.566 184.077 104.338C184.317 104.11 184.635 103.996 185.031 103.996C185.427 103.996 185.745 104.11 185.985 104.338C186.237 104.566 186.363 104.854 186.363 105.202C186.363 105.55 186.237 105.832 185.985 106.048C185.745 106.264 185.427 106.372 185.031 106.372C184.635 106.372 184.317 106.264 184.077 106.048C183.837 105.832 183.717 105.55 183.717 105.202ZM186.057 108.082V118H184.005V108.082H186.057ZM196.046 105.292V106.948H190.592V110.89H195.092V112.474H190.592V118H188.54V105.292H196.046ZM197.586 105.202C197.586 104.854 197.706 104.566 197.946 104.338C198.186 104.11 198.504 103.996 198.9 103.996C199.296 103.996 199.614 104.11 199.854 104.338C200.106 104.566 200.232 104.854 200.232 105.202C200.232 105.55 200.106 105.832 199.854 106.048C199.614 106.264 199.296 106.372 198.9 106.372C198.504 106.372 198.186 106.264 197.946 106.048C197.706 105.832 197.586 105.55 197.586 105.202ZM199.926 108.082V118H197.874V108.082H199.926Z" fill="white"/>
<line x1="31" y1="79" x2="342.687" y2="79" stroke="white" stroke-width="2"/>
<line x1="137.001" y1="146.333" x2="229.477" y2="146.5" stroke="white"/>
<line opacity="0.5" x1="39.9829" y1="146.417" x2="108.131" y2="146.417" stroke="white"/>
<line opacity="0.5" x1="255" y1="146.417" x2="323.148" y2="146.417" stroke="white"/>
<rect opacity="0.5" x="46.5" y="102.5" width="56" height="37" rx="2.5" stroke="white"/>
<rect opacity="0.5" x="261.5" y="102.5" width="56" height="37" rx="2.5" stroke="white"/>
</svg>
