<svg width="375" height="232" viewBox="0 0 375 232" fill="none" xmlns="http://www.w3.org/2000/svg">
<rect x="30" y="82" width="316" height="68" rx="2" stroke="white" stroke-width="2"/>
<rect x="149.5" y="95.5" width="77" height="41" rx="1.5" fill="#FDBA12" stroke="white"/>
<g opacity="0.199242">
<path fill-rule="evenodd" clip-rule="evenodd" d="M67 115.5C67 122.404 61.4038 128 54.5004 128C47.5962 128 42 122.404 42 115.5C42 108.596 47.5962 103 54.5004 103C61.4038 103 67 108.596 67 115.5Z" stroke="white"/>
<path fill-rule="evenodd" clip-rule="evenodd" d="M59.5 104.561V126.564C58.0294 127.548 56.3166 128 54.5 128C52.6834 128 50.9706 127.548 49.5 126.564V104.561C50.9706 103.577 52.6834 103 54.5 103C56.3166 103 58.0294 103.577 59.5 104.561Z" stroke="white"/>
</g>
<g opacity="0.199242">
<path fill-rule="evenodd" clip-rule="evenodd" d="M102 115.5C102 122.404 96.4038 128 89.5004 128C82.5962 128 77 122.404 77 115.5C77 108.596 82.5962 103 89.5004 103C96.4038 103 102 108.596 102 115.5Z" stroke="white"/>
<path fill-rule="evenodd" clip-rule="evenodd" d="M94.5 104.561V126.564C93.0294 127.548 91.3166 128 89.5 128C87.6834 128 85.9706 127.548 84.5 126.564V104.561C85.9706 103.577 87.6834 103 89.5 103C91.3166 103 93.0294 103.577 94.5 104.561Z" stroke="white"/>
</g>
<g opacity="0.199242">
<path fill-rule="evenodd" clip-rule="evenodd" d="M137 115.5C137 122.404 131.404 128 124.5 128C117.596 128 112 122.404 112 115.5C112 108.596 117.596 103 124.5 103C131.404 103 137 108.596 137 115.5Z" stroke="white"/>
<path fill-rule="evenodd" clip-rule="evenodd" d="M129.5 104.561V126.564C128.029 127.548 126.317 128 124.5 128C122.683 128 120.971 127.548 119.5 126.564V104.561C120.971 103.577 122.683 103 124.5 103C126.317 103 128.029 103.577 129.5 104.561Z" stroke="white"/>
</g>
<g opacity="0.199242">
<path fill-rule="evenodd" clip-rule="evenodd" d="M264 115.5C264 122.404 258.404 128 251.5 128C244.596 128 239 122.404 239 115.5C239 108.596 244.596 103 251.5 103C258.404 103 264 108.596 264 115.5Z" stroke="white"/>
<path fill-rule="evenodd" clip-rule="evenodd" d="M256.5 104.561V126.564C255.029 127.548 253.317 128 251.5 128C249.683 128 247.971 127.548 246.5 126.564V104.561C247.971 103.577 249.683 103 251.5 103C253.317 103 255.029 103.577 256.5 104.561Z" stroke="white"/>
</g>
<g opacity="0.199242">
<path fill-rule="evenodd" clip-rule="evenodd" d="M299 115.5C299 122.404 293.404 128 286.5 128C279.596 128 274 122.404 274 115.5C274 108.596 279.596 103 286.5 103C293.404 103 299 108.596 299 115.5Z" stroke="white"/>
<path fill-rule="evenodd" clip-rule="evenodd" d="M291.5 104.561V126.564C290.029 127.548 288.317 128 286.5 128C284.683 128 282.971 127.548 281.5 126.564V104.561C282.971 103.577 284.683 103 286.5 103C288.317 103 290.029 103.577 291.5 104.561Z" stroke="white"/>
</g>
<g opacity="0.199242">
<path fill-rule="evenodd" clip-rule="evenodd" d="M334 115.5C334 122.404 328.404 128 321.5 128C314.596 128 309 122.404 309 115.5C309 108.596 314.596 103 321.5 103C328.404 103 334 108.596 334 115.5Z" stroke="white"/>
<path fill-rule="evenodd" clip-rule="evenodd" d="M326.5 104.561V126.564C325.029 127.548 323.317 128 321.5 128C319.683 128 317.971 127.548 316.5 126.564V104.561C317.971 103.577 319.683 103 321.5 103C323.317 103 325.029 103.577 326.5 104.561Z" stroke="white"/>
</g>
</svg>
