<svg width="100" height="48" viewBox="0 0 100 48" fill="none" xmlns="http://www.w3.org/2000/svg">
<g clip-path="url(#clip0_6012_955)">
<path d="M27.6632 13.616C27.6632 14.24 27.5132 14.822 27.2132 15.362C26.9132 15.89 26.4572 16.316 25.8452 16.64C25.2332 16.964 24.4832 17.126 23.5952 17.126C22.7312 17.126 21.9572 16.976 21.2732 16.676C20.5892 16.364 20.0432 15.932 19.6352 15.38C19.2272 14.828 18.9932 14.192 18.9332 13.472H21.1292C21.1892 14.024 21.4232 14.498 21.8312 14.894C22.2512 15.29 22.8092 15.488 23.5052 15.488C24.1292 15.488 24.6092 15.32 24.9452 14.984C25.2932 14.648 25.4672 14.216 25.4672 13.688C25.4672 13.232 25.3412 12.86 25.0892 12.572C24.8372 12.272 24.5252 12.038 24.1532 11.87C23.7812 11.702 23.2712 11.51 22.6232 11.294C21.8312 11.042 21.1832 10.79 20.6792 10.538C20.1872 10.286 19.7672 9.92 19.4192 9.44C19.0712 8.96 18.8972 8.33 18.8972 7.55C18.8972 6.866 19.0652 6.266 19.4012 5.75C19.7372 5.234 20.2172 4.838 20.8412 4.562C21.4652 4.274 22.1852 4.13 23.0012 4.13C24.2972 4.13 25.3232 4.442 26.0792 5.066C26.8472 5.69 27.2852 6.506 27.3932 7.514H25.1792C25.0952 7.034 24.8672 6.626 24.4952 6.29C24.1352 5.942 23.6372 5.768 23.0012 5.768C22.4252 5.768 21.9632 5.918 21.6152 6.218C21.2672 6.506 21.0932 6.926 21.0932 7.478C21.0932 7.91 21.2132 8.27 21.4532 8.558C21.6932 8.834 21.9932 9.056 22.3532 9.224C22.7252 9.38 23.2292 9.566 23.8652 9.782C24.6692 10.034 25.3232 10.292 25.8272 10.556C26.3432 10.808 26.7752 11.18 27.1232 11.672C27.4832 12.164 27.6632 12.812 27.6632 13.616ZM38.9334 11.564C38.9334 11.9 38.9094 12.194 38.8614 12.446H31.2294C31.2654 13.466 31.5474 14.222 32.0754 14.714C32.6034 15.206 33.2574 15.452 34.0374 15.452C34.7214 15.452 35.2974 15.278 35.7654 14.93C36.2454 14.582 36.5394 14.12 36.6474 13.544H38.8434C38.7114 14.24 38.4354 14.858 38.0154 15.398C37.5954 15.938 37.0494 16.364 36.3774 16.676C35.7054 16.976 34.9554 17.126 34.1274 17.126C33.1674 17.126 32.3154 16.922 31.5714 16.514C30.8394 16.106 30.2634 15.518 29.8434 14.75C29.4234 13.982 29.2134 13.076 29.2134 12.032C29.2134 11 29.4234 10.1 29.8434 9.332C30.2634 8.564 30.8394 7.976 31.5714 7.568C32.3154 7.16 33.1674 6.956 34.1274 6.956C35.0994 6.956 35.9454 7.16 36.6654 7.568C37.3974 7.964 37.9554 8.516 38.3394 9.224C38.7354 9.92 38.9334 10.7 38.9334 11.564ZM36.8634 11.51C36.8874 10.862 36.7734 10.322 36.5214 9.89C36.2814 9.446 35.9454 9.122 35.5134 8.918C35.0934 8.702 34.6314 8.594 34.1274 8.594C33.3234 8.594 32.6514 8.84 32.1114 9.332C31.5714 9.824 31.2774 10.55 31.2294 11.51H36.8634ZM45.9007 15.218V17H44.6407C43.5847 17 42.7807 16.748 42.2287 16.244C41.6887 15.728 41.4187 14.876 41.4187 13.688V8.828H39.9967V7.082H41.4187V4.616H43.4887V7.082H45.8827V8.828H43.4887V13.724C43.4887 14.288 43.5907 14.678 43.7947 14.894C44.0107 15.11 44.3827 15.218 44.9107 15.218H45.9007ZM52.8089 15.218V17H51.5489C50.4929 17 49.6889 16.748 49.1369 16.244C48.5969 15.728 48.3269 14.876 48.3269 13.688V8.828H46.9049V7.082H48.3269V4.616H50.3969V7.082H52.7909V8.828H50.3969V13.724C50.3969 14.288 50.4989 14.678 50.7029 14.894C50.9189 15.11 51.2909 15.218 51.8189 15.218H52.8089ZM54.4431 4.202C54.4431 3.854 54.5631 3.566 54.8031 3.338C55.0431 3.11 55.3611 2.996 55.7571 2.996C56.1531 2.996 56.4711 3.11 56.7111 3.338C56.9631 3.566 57.0891 3.854 57.0891 4.202C57.0891 4.55 56.9631 4.832 56.7111 5.048C56.4711 5.264 56.1531 5.372 55.7571 5.372C55.3611 5.372 55.0431 5.264 54.8031 5.048C54.5631 4.832 54.4431 4.55 54.4431 4.202ZM56.7831 7.082V17H54.7311V7.082H56.7831ZM64.8103 6.92C65.9623 6.92 66.8863 7.292 67.5823 8.036C68.2783 8.78 68.6263 9.842 68.6263 11.222V17H66.5743V11.438C66.5743 10.55 66.3463 9.866 65.8903 9.386C65.4343 8.894 64.8103 8.648 64.0183 8.648C63.2023 8.648 62.5483 8.912 62.0563 9.44C61.5643 9.956 61.3183 10.718 61.3183 11.726V17H59.2663V7.082H61.3183V9.26C61.5823 8.516 62.0263 7.94 62.6503 7.532C63.2743 7.124 63.9943 6.92 64.8103 6.92ZM75.004 6.956C75.904 6.956 76.672 7.178 77.308 7.622C77.944 8.066 78.394 8.654 78.658 9.386V7.082H80.71V17.108C80.71 18.032 80.518 18.848 80.134 19.556C79.762 20.276 79.222 20.84 78.514 21.248C77.806 21.656 76.966 21.86 75.994 21.86C74.602 21.86 73.474 21.53 72.61 20.87C71.758 20.21 71.224 19.316 71.008 18.188H73.042C73.21 18.776 73.534 19.232 74.014 19.556C74.494 19.892 75.106 20.06 75.85 20.06C76.666 20.06 77.338 19.808 77.866 19.304C78.394 18.8 78.658 18.068 78.658 17.108V14.696C78.394 15.428 77.944 16.016 77.308 16.46C76.672 16.904 75.904 17.126 75.004 17.126C74.14 17.126 73.366 16.922 72.682 16.514C72.01 16.106 71.482 15.518 71.098 14.75C70.714 13.982 70.522 13.076 70.522 12.032C70.522 11 70.714 10.1 71.098 9.332C71.482 8.564 72.01 7.976 72.682 7.568C73.366 7.16 74.14 6.956 75.004 6.956ZM75.634 8.756C74.722 8.756 73.99 9.05 73.438 9.638C72.898 10.214 72.628 11.012 72.628 12.032C72.628 13.052 72.898 13.856 73.438 14.444C73.99 15.02 74.722 15.308 75.634 15.308C76.21 15.308 76.726 15.176 77.182 14.912C77.638 14.636 77.998 14.252 78.262 13.76C78.526 13.268 78.658 12.692 78.658 12.032C78.658 11.384 78.526 10.814 78.262 10.322C77.998 9.818 77.638 9.434 77.182 9.17C76.726 8.894 76.21 8.756 75.634 8.756Z" fill="white"/>
<rect x="13.3818" y="36.5" width="73.236" height="1" stroke="white"/>
</g>
<defs>
<clipPath id="clip0_6012_955">
<rect width="74.236" height="37" fill="white" transform="translate(12.8818 1)"/>
</clipPath>
</defs>
</svg>
