<svg width="269" height="162" viewBox="0 0 269 162" fill="none" xmlns="http://www.w3.org/2000/svg">
<path d="M267.874 162H1.12552C0.450209 162 0 161.551 0 160.877V1.12266C0 0.449064 0.450209 0 1.12552 0H267.874C268.55 0 269 0.449064 269 1.12266V160.877C269 161.439 268.437 162 267.874 162ZM2.25105 159.755H266.749V2.24532H2.25105V159.755Z" fill="white"/>
<path d="M81.0378 62.0832L74.0596 65.2266L73.6094 64.2162L81.2629 60.736H82.2759V98.1206H81.1504V62.0832H81.0378Z" fill="white"/>
<path d="M116.941 78.3617C116.941 77.3513 116.941 75.6673 116.829 73.8711C116.154 79.8212 110.639 83.975 104.561 83.975C97.1323 83.975 91.6172 79.2598 91.6172 72.4116V72.2993C91.6172 65.5634 97.2448 60.2869 104.448 60.2869C108.5 60.2869 111.539 61.8586 113.79 64.1039C116.716 67.0228 118.18 71.5135 118.18 78.3617V78.474C118.18 90.1497 112.777 98.7941 103.548 98.7941C99.6084 98.7941 95.6691 96.9979 92.7427 94.1912L93.5306 93.2931C96.3444 95.9875 99.9461 97.6715 103.548 97.6715C112.102 97.7838 116.941 89.2515 116.941 78.3617ZM116.041 72.5239C116.041 66.237 110.864 61.4095 104.336 61.4095C97.9201 61.4095 92.7427 66.4615 92.7427 72.2993V72.4116C92.8553 78.8108 97.9201 83.0769 104.673 83.0769C110.864 83.0769 116.041 78.3617 116.041 72.5239Z" fill="white"/>
<path d="M125.383 71.6257H127.296V74.4324H125.383V71.6257ZM125.383 95.4262H127.296V98.2328H125.383V95.4262Z" fill="white"/>
<path d="M131.35 92.1704L132.363 91.3846C135.064 95.0893 139.453 97.6715 144.856 97.6715C150.709 97.6715 155.661 93.8544 155.661 88.5779V88.4657C155.661 81.8419 150.033 79.2598 141.817 79.2598H140.579L140.241 78.474L154.76 61.9708H133.488V60.9604H156.224V61.8586L141.817 78.2494C151.046 78.2494 156.786 81.5052 156.786 88.4657V88.5779C156.786 94.528 151.271 98.7941 144.743 98.7941C138.891 98.7941 134.276 96.0997 131.35 92.1704Z" fill="white"/>
<path d="M163.088 79.5966C163.088 69.3804 168.603 60.2869 178.282 60.2869C187.962 60.2869 193.477 69.2682 193.477 79.4844V79.5966C193.477 89.7006 187.962 98.7941 178.282 98.7941C168.603 98.7941 163.088 89.8129 163.088 79.5966ZM192.351 79.7089C192.351 70.1663 187.287 61.4095 178.282 61.4095C169.278 61.4095 164.326 69.9418 164.326 79.4844V79.5966C164.326 89.027 169.391 97.7838 178.395 97.7838C187.399 97.7838 192.351 89.1393 192.351 79.7089Z" fill="white"/>
<path d="M24.9872 19.8711H11.2559V20.9938H24.9872V19.8711Z" fill="#F2A900"/>
<path d="M24.9872 14.9314H11.2559V16.0541H24.9872V14.9314Z" fill="#F2A900"/>
<path d="M24.9872 9.9917H11.2559V11.1144H24.9872V9.9917Z" fill="#F2A900"/>
</svg>
