<svg width="375" height="232" viewBox="0 0 375 232" fill="none" xmlns="http://www.w3.org/2000/svg">
<g opacity="0.25">
<path fill-rule="evenodd" clip-rule="evenodd" d="M346.5 103C346.5 133.376 321.877 158 291.502 158C261.123 158 236.5 133.376 236.5 103C236.5 72.6239 261.123 48 291.502 48C321.877 48 346.5 72.6239 346.5 103Z" stroke="white" stroke-width="2"/>
<path fill-rule="evenodd" clip-rule="evenodd" d="M274.868 60.0005V147C257.664 140.138 245.5 123.248 245.5 103.5C245.5 83.7519 257.664 66.8624 274.868 60.0005ZM338.5 103.5C338.5 123.249 326.335 140.139 309.132 147V59.9999C326.335 66.8615 338.5 83.7514 338.5 103.5Z" stroke="white"/>
<path fill-rule="evenodd" clip-rule="evenodd" d="M308.5 52.1844V153.451C303.5 157.956 294.395 158 291.5 158C288.605 158 279.5 157.956 274.5 153.451V52.1844C279.5 47.6786 289.561 48.0052 291.5 48.0052C293.439 48.0052 303.5 47.6786 308.5 52.1844Z" stroke="white" stroke-width="2"/>
</g>
<path d="M215 65H30C28.3431 65 27 66.3431 27 68V144C27 145.657 28.3431 147 30 147H215C216.657 147 218 145.657 218 144V68C218 66.3431 216.657 65 215 65Z" stroke="white" stroke-width="2"/>
<path opacity="0.25" d="M168.561 98.135C169.279 98.135 169.928 98.3037 170.508 98.641C171.094 98.9783 171.553 99.4513 171.883 100.06C172.22 100.661 172.389 101.343 172.389 102.106C172.389 102.869 172.22 103.554 171.883 104.163C171.553 104.764 171.094 105.237 170.508 105.582C169.928 105.919 169.279 106.088 168.561 106.088C167.835 106.088 167.178 105.919 166.592 105.582C166.012 105.237 165.554 104.764 165.217 104.163C164.879 103.554 164.711 102.869 164.711 102.106C164.711 101.343 164.879 100.661 165.217 100.06C165.554 99.4513 166.012 98.9783 166.592 98.641C167.178 98.3037 167.835 98.135 168.561 98.135ZM168.561 99.301C168.062 99.301 167.618 99.4147 167.23 99.642C166.841 99.8693 166.537 100.196 166.317 100.621C166.104 101.046 165.998 101.541 165.998 102.106C165.998 102.671 166.104 103.166 166.317 103.591C166.537 104.016 166.841 104.343 167.23 104.57C167.618 104.797 168.062 104.911 168.561 104.911C169.052 104.911 169.488 104.797 169.87 104.57C170.258 104.343 170.559 104.016 170.772 103.591C170.992 103.166 171.102 102.671 171.102 102.106C171.102 101.541 170.992 101.046 170.772 100.621C170.559 100.196 170.258 99.8693 169.87 99.642C169.488 99.4147 169.052 99.301 168.561 99.301ZM174.435 98.234L176.668 104.658L178.912 98.234H180.276L177.471 106H175.865L173.071 98.234H174.435ZM182.46 99.246V101.6H185.32V102.568H182.46V104.977H185.65V106H181.206V98.234H185.65V99.246H182.46ZM193.148 106H191.894L188.121 100.269V106H186.867V98.245H188.121L191.894 103.998V98.245H193.148V106Z" fill="white"/>
<path d="M75.8264 79.932C75.8264 80.3133 75.7347 80.669 75.5514 80.999C75.368 81.3217 75.0894 81.582 74.7154 81.78C74.3414 81.978 73.883 82.077 73.3404 82.077C72.8124 82.077 72.3394 81.9853 71.9214 81.802C71.5034 81.6113 71.1697 81.3473 70.9204 81.01C70.671 80.6727 70.528 80.284 70.4914 79.844H71.8334C71.87 80.1813 72.013 80.471 72.2624 80.713C72.519 80.955 72.86 81.076 73.2854 81.076C73.6667 81.076 73.96 80.9733 74.1654 80.768C74.378 80.5627 74.4844 80.2987 74.4844 79.976C74.4844 79.6973 74.4074 79.47 74.2534 79.294C74.0994 79.1107 73.9087 78.9677 73.6814 78.865C73.454 78.7623 73.1424 78.645 72.7464 78.513C72.2624 78.359 71.8664 78.205 71.5584 78.051C71.2577 77.897 71.001 77.6733 70.7884 77.38C70.5757 77.0867 70.4694 76.7017 70.4694 76.225C70.4694 75.807 70.572 75.4403 70.7774 75.125C70.9827 74.8097 71.276 74.5677 71.6574 74.399C72.0387 74.223 72.4787 74.135 72.9774 74.135C73.7694 74.135 74.3964 74.3257 74.8584 74.707C75.3277 75.0883 75.5954 75.587 75.6614 76.203H74.3084C74.257 75.9097 74.1177 75.6603 73.8904 75.455C73.6704 75.2423 73.366 75.136 72.9774 75.136C72.6254 75.136 72.343 75.2277 72.1304 75.411C71.9177 75.587 71.8114 75.8437 71.8114 76.181C71.8114 76.445 71.8847 76.665 72.0314 76.841C72.178 77.0097 72.3614 77.1453 72.5814 77.248C72.8087 77.3433 73.1167 77.457 73.5054 77.589C73.9967 77.743 74.3964 77.9007 74.7044 78.062C75.0197 78.216 75.2837 78.4433 75.4964 78.744C75.7164 79.0447 75.8264 79.4407 75.8264 79.932ZM78.3358 75.246V77.6H81.1958V78.568H78.3358V80.977H81.5258V82H77.0818V74.234H81.5258V75.246H78.3358ZM87.7369 74.234V75.246H85.5699V82H84.3049V75.246H82.1489V74.234H87.7369ZM93.6666 74.234V75.246H91.4996V82H90.2346V75.246H88.0786V74.234H93.6666ZM95.8563 74.234V82H94.6023V74.234H95.8563ZM103.655 82H102.401L98.6277 76.269V82H97.3737V74.245H98.6277L102.401 79.998V74.245H103.655V82ZM108.726 74.168C109.65 74.168 110.42 74.3953 111.036 74.85C111.652 75.3047 112.059 75.9243 112.257 76.709H110.937C110.768 76.291 110.489 75.9573 110.101 75.708C109.719 75.4587 109.265 75.334 108.737 75.334C108.253 75.334 107.816 75.4477 107.428 75.675C107.046 75.9023 106.746 76.225 106.526 76.643C106.313 77.061 106.207 77.5523 106.207 78.117C106.207 78.711 106.317 79.2207 106.537 79.646C106.757 80.0713 107.065 80.3977 107.461 80.625C107.864 80.845 108.33 80.955 108.858 80.955C109.503 80.955 110.057 80.757 110.519 80.361C110.981 79.9577 111.259 79.4077 111.355 78.711H108.506V77.787H112.411V78.986C112.323 79.558 112.117 80.0787 111.795 80.548C111.479 81.01 111.058 81.3803 110.53 81.659C110.009 81.9377 109.411 82.077 108.737 82.077C107.981 82.077 107.314 81.9083 106.735 81.571C106.155 81.2337 105.708 80.768 105.393 80.174C105.077 79.5727 104.92 78.887 104.92 78.117C104.92 77.347 105.077 76.665 105.393 76.071C105.708 75.4697 106.152 75.004 106.724 74.674C107.303 74.3367 107.97 74.168 108.726 74.168ZM118.784 79.932C118.784 80.3133 118.693 80.669 118.509 80.999C118.326 81.3217 118.047 81.582 117.673 81.78C117.299 81.978 116.841 82.077 116.298 82.077C115.77 82.077 115.297 81.9853 114.879 81.802C114.461 81.6113 114.128 81.3473 113.878 81.01C113.629 80.6727 113.486 80.284 113.449 79.844H114.791C114.828 80.1813 114.971 80.471 115.22 80.713C115.477 80.955 115.818 81.076 116.243 81.076C116.625 81.076 116.918 80.9733 117.123 80.768C117.336 80.5627 117.442 80.2987 117.442 79.976C117.442 79.6973 117.365 79.47 117.211 79.294C117.057 79.1107 116.867 78.9677 116.639 78.865C116.412 78.7623 116.1 78.645 115.704 78.513C115.22 78.359 114.824 78.205 114.516 78.051C114.216 77.897 113.959 77.6733 113.746 77.38C113.534 77.0867 113.427 76.7017 113.427 76.225C113.427 75.807 113.53 75.4403 113.735 75.125C113.941 74.8097 114.234 74.5677 114.615 74.399C114.997 74.223 115.437 74.135 115.935 74.135C116.727 74.135 117.354 74.3257 117.816 74.707C118.286 75.0883 118.553 75.587 118.619 76.203H117.266C117.215 75.9097 117.076 75.6603 116.848 75.455C116.628 75.2423 116.324 75.136 115.935 75.136C115.583 75.136 115.301 75.2277 115.088 75.411C114.876 75.587 114.769 75.8437 114.769 76.181C114.769 76.445 114.843 76.665 114.989 76.841C115.136 77.0097 115.319 77.1453 115.539 77.248C115.767 77.3433 116.075 77.457 116.463 77.589C116.955 77.743 117.354 77.9007 117.662 78.062C117.978 78.216 118.242 78.4433 118.454 78.744C118.674 79.0447 118.784 79.4407 118.784 79.932Z" fill="white"/>
<path opacity="0.25" d="M60.9 100.47H57.92L57.38 102H56.16L58.76 95.05H60.07L62.66 102H61.44L60.9 100.47ZM60.58 99.59L59.41 96.29L58.24 99.59H60.58ZM65.7164 96.42C66.2164 96.42 66.6431 96.5433 66.9964 96.79C67.3497 97.0367 67.5964 97.3633 67.7364 97.77V94.6H68.8864V102H67.7364V100.72C67.5964 101.127 67.3497 101.453 66.9964 101.7C66.6431 101.947 66.2164 102.07 65.7164 102.07C65.2364 102.07 64.8064 101.957 64.4264 101.73C64.0531 101.503 63.7597 101.177 63.5464 100.75C63.3331 100.323 63.2264 99.82 63.2264 99.24C63.2264 98.6667 63.3331 98.1667 63.5464 97.74C63.7597 97.3133 64.0531 96.9867 64.4264 96.76C64.8064 96.5333 65.2364 96.42 65.7164 96.42ZM66.0664 97.42C65.5597 97.42 65.1531 97.5833 64.8464 97.91C64.5464 98.23 64.3964 98.6733 64.3964 99.24C64.3964 99.8067 64.5464 100.253 64.8464 100.58C65.1531 100.9 65.5597 101.06 66.0664 101.06C66.3864 101.06 66.6731 100.987 66.9264 100.84C67.1797 100.687 67.3797 100.473 67.5264 100.2C67.6731 99.9267 67.7464 99.6067 67.7464 99.24C67.7464 98.88 67.6731 98.5633 67.5264 98.29C67.3797 98.01 67.1797 97.7967 66.9264 97.65C66.6731 97.4967 66.3864 97.42 66.0664 97.42ZM70.8745 95.54C70.6545 95.54 70.4745 95.48 70.3345 95.36C70.2011 95.24 70.1345 95.0833 70.1345 94.89C70.1345 94.6967 70.2011 94.5367 70.3345 94.41C70.4745 94.2833 70.6545 94.22 70.8745 94.22C71.0945 94.22 71.2711 94.2833 71.4045 94.41C71.5378 94.5367 71.6045 94.6967 71.6045 94.89C71.6045 95.0833 71.5378 95.24 71.4045 95.36C71.2711 95.48 71.0945 95.54 70.8745 95.54ZM69.2745 103.62H69.6645C69.8845 103.62 70.0445 103.57 70.1445 103.47C70.2511 103.377 70.3045 103.213 70.3045 102.98V96.49H71.4545V102.99C71.4545 104.077 70.9078 104.62 69.8145 104.62H69.2745V103.62ZM77.893 96.49V102H76.743V100.8C76.603 101.207 76.3597 101.523 76.013 101.75C75.6664 101.97 75.263 102.08 74.803 102.08C74.163 102.08 73.6497 101.873 73.263 101.46C72.8764 101.047 72.683 100.457 72.683 99.69V96.49H73.823V99.57C73.823 100.07 73.9497 100.457 74.203 100.73C74.4564 100.997 74.803 101.13 75.243 101.13C75.6964 101.13 76.0597 100.983 76.333 100.69C76.6064 100.397 76.743 99.97 76.743 99.41V96.49H77.893ZM81.0684 96.42C81.715 96.42 82.2317 96.5867 82.6184 96.92C83.0117 97.2467 83.2517 97.6867 83.3384 98.24H82.2584C82.2117 97.94 82.0817 97.7 81.8684 97.52C81.6617 97.3333 81.385 97.24 81.0384 97.24C80.7517 97.24 80.5284 97.31 80.3684 97.45C80.215 97.5833 80.1384 97.7667 80.1384 98C80.1384 98.1733 80.195 98.3133 80.3084 98.42C80.4217 98.5267 80.5617 98.61 80.7284 98.67C80.9017 98.73 81.145 98.7967 81.4584 98.87C81.8717 98.9633 82.205 99.06 82.4584 99.16C82.7184 99.26 82.9384 99.42 83.1184 99.64C83.305 99.8533 83.3984 100.147 83.3984 100.52C83.3984 100.98 83.2217 101.353 82.8684 101.64C82.5217 101.927 82.0517 102.07 81.4584 102.07C80.7717 102.07 80.215 101.91 79.7884 101.59C79.3684 101.27 79.115 100.823 79.0284 100.25H80.1384C80.1717 100.55 80.305 100.793 80.5384 100.98C80.7717 101.167 81.0784 101.26 81.4584 101.26C81.7317 101.26 81.945 101.19 82.0984 101.05C82.2584 100.903 82.3384 100.72 82.3384 100.5C82.3384 100.307 82.2784 100.153 82.1584 100.04C82.0384 99.9267 81.8884 99.84 81.7084 99.78C81.5284 99.7133 81.2817 99.6467 80.9684 99.58C80.5684 99.4867 80.2417 99.3933 79.9884 99.3C79.7417 99.2067 79.5284 99.0567 79.3484 98.85C79.175 98.6367 79.0884 98.35 79.0884 97.99C79.0884 97.5233 79.2617 97.1467 79.6084 96.86C79.9617 96.5667 80.4484 96.42 81.0684 96.42ZM87.3116 101.01V102H86.6116C86.0249 102 85.5782 101.86 85.2716 101.58C84.9716 101.293 84.8216 100.82 84.8216 100.16V97.46H84.0316V96.49H84.8216V95.12H85.9716V96.49H87.3016V97.46H85.9716V100.18C85.9716 100.493 86.0282 100.71 86.1416 100.83C86.2616 100.95 86.4682 101.01 86.7616 101.01H87.3116ZM95.2632 94.94V95.86H93.2932V102H92.1432V95.86H90.1832V94.94H95.2632ZM101.234 98.98C101.234 99.1667 101.22 99.33 101.194 99.47H96.9538C96.9738 100.037 97.1305 100.457 97.4238 100.73C97.7172 101.003 98.0805 101.14 98.5138 101.14C98.8938 101.14 99.2138 101.043 99.4738 100.85C99.7405 100.657 99.9038 100.4 99.9638 100.08H101.184C101.11 100.467 100.957 100.81 100.724 101.11C100.49 101.41 100.187 101.647 99.8138 101.82C99.4405 101.987 99.0238 102.07 98.5638 102.07C98.0305 102.07 97.5572 101.957 97.1438 101.73C96.7372 101.503 96.4172 101.177 96.1838 100.75C95.9505 100.323 95.8338 99.82 95.8338 99.24C95.8338 98.6667 95.9505 98.1667 96.1838 97.74C96.4172 97.3133 96.7372 96.9867 97.1438 96.76C97.5572 96.5333 98.0305 96.42 98.5638 96.42C99.1038 96.42 99.5738 96.5333 99.9738 96.76C100.38 96.98 100.69 97.2867 100.904 97.68C101.124 98.0667 101.234 98.5 101.234 98.98ZM100.084 98.95C100.097 98.59 100.034 98.29 99.8938 98.05C99.7605 97.8033 99.5738 97.6233 99.3338 97.51C99.1005 97.39 98.8438 97.33 98.5638 97.33C98.1172 97.33 97.7438 97.4667 97.4438 97.74C97.1438 98.0133 96.9805 98.4167 96.9538 98.95H100.084ZM109.225 96.4C109.878 96.4 110.398 96.6067 110.785 97.02C111.178 97.4333 111.375 98.0233 111.375 98.79V102H110.235V98.91C110.235 98.43 110.115 98.06 109.875 97.8C109.635 97.5333 109.305 97.4 108.885 97.4C108.438 97.4 108.081 97.5433 107.815 97.83C107.555 98.11 107.425 98.5233 107.425 99.07V102H106.285V98.91C106.285 98.43 106.165 98.06 105.925 97.8C105.685 97.5333 105.355 97.4 104.935 97.4C104.488 97.4 104.131 97.5433 103.865 97.83C103.605 98.11 103.475 98.5233 103.475 99.07V102H102.335V96.49H103.475V97.64C103.615 97.24 103.848 96.9333 104.175 96.72C104.501 96.5067 104.885 96.4 105.325 96.4C105.785 96.4 106.181 96.5133 106.515 96.74C106.855 96.9667 107.101 97.2933 107.255 97.72C107.415 97.3067 107.671 96.9833 108.025 96.75C108.378 96.5167 108.778 96.4 109.225 96.4ZM115.866 96.42C116.346 96.42 116.772 96.5333 117.146 96.76C117.526 96.9867 117.822 97.3133 118.036 97.74C118.249 98.1667 118.356 98.6667 118.356 99.24C118.356 99.82 118.249 100.323 118.036 100.75C117.822 101.177 117.526 101.503 117.146 101.73C116.772 101.957 116.346 102.07 115.866 102.07C115.366 102.07 114.939 101.947 114.586 101.7C114.232 101.453 113.986 101.127 113.846 100.72V104.62H112.706V96.49H113.846V97.77C113.986 97.3633 114.232 97.0367 114.586 96.79C114.939 96.5433 115.366 96.42 115.866 96.42ZM115.516 97.42C115.196 97.42 114.909 97.4967 114.656 97.65C114.402 97.7967 114.202 98.01 114.056 98.29C113.909 98.5633 113.836 98.88 113.836 99.24C113.836 99.6067 113.909 99.9267 114.056 100.2C114.202 100.473 114.402 100.687 114.656 100.84C114.909 100.987 115.196 101.06 115.516 101.06C116.022 101.06 116.429 100.9 116.736 100.58C117.042 100.253 117.196 99.8067 117.196 99.24C117.196 98.68 117.042 98.2367 116.736 97.91C116.429 97.5833 116.022 97.42 115.516 97.42Z" fill="white"/>
<path opacity="0.25" d="M61.33 117.12C61.33 117.467 61.2467 117.79 61.08 118.09C60.9133 118.383 60.66 118.62 60.32 118.8C59.98 118.98 59.5633 119.07 59.07 119.07C58.59 119.07 58.16 118.987 57.78 118.82C57.4 118.647 57.0967 118.407 56.87 118.1C56.6433 117.793 56.5133 117.44 56.48 117.04H57.7C57.7333 117.347 57.8633 117.61 58.09 117.83C58.3233 118.05 58.6333 118.16 59.02 118.16C59.3667 118.16 59.6333 118.067 59.82 117.88C60.0133 117.693 60.11 117.453 60.11 117.16C60.11 116.907 60.04 116.7 59.9 116.54C59.76 116.373 59.5867 116.243 59.38 116.15C59.1733 116.057 58.89 115.95 58.53 115.83C58.09 115.69 57.73 115.55 57.45 115.41C57.1767 115.27 56.9433 115.067 56.75 114.8C56.5567 114.533 56.46 114.183 56.46 113.75C56.46 113.37 56.5533 113.037 56.74 112.75C56.9267 112.463 57.1933 112.243 57.54 112.09C57.8867 111.93 58.2867 111.85 58.74 111.85C59.46 111.85 60.03 112.023 60.45 112.37C60.8767 112.717 61.12 113.17 61.18 113.73H59.95C59.9033 113.463 59.7767 113.237 59.57 113.05C59.37 112.857 59.0933 112.76 58.74 112.76C58.42 112.76 58.1633 112.843 57.97 113.01C57.7767 113.17 57.68 113.403 57.68 113.71C57.68 113.95 57.7467 114.15 57.88 114.31C58.0133 114.463 58.18 114.587 58.38 114.68C58.5867 114.767 58.8667 114.87 59.22 114.99C59.6667 115.13 60.03 115.273 60.31 115.42C60.5967 115.56 60.8367 115.767 61.03 116.04C61.23 116.313 61.33 116.673 61.33 117.12ZM64.6813 113.42C65.1813 113.42 65.6079 113.543 65.9613 113.79C66.3146 114.037 66.5646 114.363 66.7113 114.77V113.49H67.8513V119H66.7113V117.72C66.5646 118.127 66.3146 118.453 65.9613 118.7C65.6079 118.947 65.1813 119.07 64.6813 119.07C64.2013 119.07 63.7713 118.957 63.3913 118.73C63.0179 118.503 62.7246 118.177 62.5113 117.75C62.2979 117.323 62.1913 116.82 62.1913 116.24C62.1913 115.667 62.2979 115.167 62.5113 114.74C62.7246 114.313 63.0179 113.987 63.3913 113.76C63.7713 113.533 64.2013 113.42 64.6813 113.42ZM65.0313 114.42C64.5246 114.42 64.1179 114.583 63.8113 114.91C63.5113 115.23 63.3613 115.673 63.3613 116.24C63.3613 116.807 63.5113 117.253 63.8113 117.58C64.1179 117.9 64.5246 118.06 65.0313 118.06C65.3513 118.06 65.6379 117.987 65.8913 117.84C66.1446 117.687 66.3446 117.473 66.4913 117.2C66.6379 116.927 66.7113 116.607 66.7113 116.24C66.7113 115.88 66.6379 115.563 66.4913 115.29C66.3446 115.01 66.1446 114.797 65.8913 114.65C65.6379 114.497 65.3513 114.42 65.0313 114.42ZM72.3793 113.42C72.8593 113.42 73.286 113.533 73.6593 113.76C74.0393 113.987 74.336 114.313 74.5493 114.74C74.7626 115.167 74.8693 115.667 74.8693 116.24C74.8693 116.82 74.7626 117.323 74.5493 117.75C74.336 118.177 74.0393 118.503 73.6593 118.73C73.286 118.957 72.8593 119.07 72.3793 119.07C71.8793 119.07 71.4526 118.947 71.0993 118.7C70.746 118.453 70.4993 118.127 70.3593 117.72V119H69.2193V111.6H70.3593V114.77C70.4993 114.363 70.746 114.037 71.0993 113.79C71.4526 113.543 71.8793 113.42 72.3793 113.42ZM72.0293 114.42C71.7093 114.42 71.4226 114.497 71.1693 114.65C70.916 114.797 70.716 115.01 70.5693 115.29C70.4226 115.563 70.3493 115.88 70.3493 116.24C70.3493 116.607 70.4226 116.927 70.5693 117.2C70.716 117.473 70.916 117.687 71.1693 117.84C71.4226 117.987 71.7093 118.06 72.0293 118.06C72.536 118.06 72.9426 117.9 73.2493 117.58C73.556 117.253 73.7093 116.807 73.7093 116.24C73.7093 115.68 73.556 115.237 73.2493 114.91C72.9426 114.583 72.536 114.42 72.0293 114.42ZM79.1273 113.42C79.6073 113.42 80.034 113.533 80.4073 113.76C80.7873 113.987 81.084 114.313 81.2973 114.74C81.5107 115.167 81.6173 115.667 81.6173 116.24C81.6173 116.82 81.5107 117.323 81.2973 117.75C81.084 118.177 80.7873 118.503 80.4073 118.73C80.034 118.957 79.6073 119.07 79.1273 119.07C78.6273 119.07 78.2007 118.947 77.8473 118.7C77.494 118.453 77.2473 118.127 77.1073 117.72V119H75.9673V111.6H77.1073V114.77C77.2473 114.363 77.494 114.037 77.8473 113.79C78.2007 113.543 78.6273 113.42 79.1273 113.42ZM78.7773 114.42C78.4573 114.42 78.1707 114.497 77.9173 114.65C77.664 114.797 77.464 115.01 77.3173 115.29C77.1707 115.563 77.0973 115.88 77.0973 116.24C77.0973 116.607 77.1707 116.927 77.3173 117.2C77.464 117.473 77.664 117.687 77.9173 117.84C78.1707 117.987 78.4573 118.06 78.7773 118.06C79.284 118.06 79.6907 117.9 79.9973 117.58C80.304 117.253 80.4573 116.807 80.4573 116.24C80.4573 115.68 80.304 115.237 79.9973 114.91C79.6907 114.583 79.284 114.42 78.7773 114.42ZM84.9254 113.42C85.4254 113.42 85.8521 113.543 86.2054 113.79C86.5587 114.037 86.8087 114.363 86.9554 114.77V113.49H88.0954V119H86.9554V117.72C86.8087 118.127 86.5587 118.453 86.2054 118.7C85.8521 118.947 85.4254 119.07 84.9254 119.07C84.4454 119.07 84.0154 118.957 83.6354 118.73C83.2621 118.503 82.9687 118.177 82.7554 117.75C82.5421 117.323 82.4354 116.82 82.4354 116.24C82.4354 115.667 82.5421 115.167 82.7554 114.74C82.9687 114.313 83.2621 113.987 83.6354 113.76C84.0154 113.533 84.4454 113.42 84.9254 113.42ZM85.2754 114.42C84.7687 114.42 84.3621 114.583 84.0554 114.91C83.7554 115.23 83.6054 115.673 83.6054 116.24C83.6054 116.807 83.7554 117.253 84.0554 117.58C84.3621 117.9 84.7687 118.06 85.2754 118.06C85.5954 118.06 85.8821 117.987 86.1354 117.84C86.3887 117.687 86.5887 117.473 86.7354 117.2C86.8821 116.927 86.9554 116.607 86.9554 116.24C86.9554 115.88 86.8821 115.563 86.7354 115.29C86.5887 115.01 86.3887 114.797 86.1354 114.65C85.8821 114.497 85.5954 114.42 85.2754 114.42ZM92.2334 118.01V119H91.5334C90.9468 119 90.5001 118.86 90.1934 118.58C89.8934 118.293 89.7434 117.82 89.7434 117.16V114.46H88.9534V113.49H89.7434V112.12H90.8934V113.49H92.2234V114.46H90.8934V117.18C90.8934 117.493 90.9501 117.71 91.0634 117.83C91.1834 117.95 91.3901 118.01 91.6834 118.01H92.2334ZM96.3813 113.4C97.0213 113.4 97.5347 113.607 97.9213 114.02C98.308 114.433 98.5013 115.023 98.5013 115.79V119H97.3613V115.91C97.3613 115.417 97.2347 115.037 96.9813 114.77C96.728 114.497 96.3813 114.36 95.9413 114.36C95.488 114.36 95.1247 114.507 94.8513 114.8C94.578 115.087 94.4413 115.51 94.4413 116.07V119H93.3013V111.6H94.4413V114.7C94.588 114.287 94.8347 113.967 95.1813 113.74C95.528 113.513 95.928 113.4 96.3813 113.4Z" fill="white"/>
<path d="M65.63 128.94L63.87 136H62.47L60.98 130.54L59.49 136H58.09L56.33 128.94H57.58L58.8 134.68L60.35 128.94H61.61L63.16 134.68L64.38 128.94H65.63ZM66.4909 128.89C66.4909 128.697 66.5576 128.537 66.6909 128.41C66.8243 128.283 67.0009 128.22 67.2209 128.22C67.4409 128.22 67.6176 128.283 67.7509 128.41C67.8909 128.537 67.9609 128.697 67.9609 128.89C67.9609 129.083 67.8909 129.24 67.7509 129.36C67.6176 129.48 67.4409 129.54 67.2209 129.54C67.0009 129.54 66.8243 129.48 66.6909 129.36C66.5576 129.24 66.4909 129.083 66.4909 128.89ZM67.7909 130.49V136H66.6509V130.49H67.7909ZM72.5105 131.9V132.86H68.3905V131.9H72.5105ZM78.3991 128.94V129.86H75.3691V132.05H77.8691V132.93H75.3691V136H74.2291V128.94H78.3991ZM79.2546 128.89C79.2546 128.697 79.3213 128.537 79.4546 128.41C79.5879 128.283 79.7646 128.22 79.9846 128.22C80.2046 128.22 80.3813 128.283 80.5146 128.41C80.6546 128.537 80.7246 128.697 80.7246 128.89C80.7246 129.083 80.6546 129.24 80.5146 129.36C80.3813 129.48 80.2046 129.54 79.9846 129.54C79.7646 129.54 79.5879 129.48 79.4546 129.36C79.3213 129.24 79.2546 129.083 79.2546 128.89ZM80.5546 130.49V136H79.4146V130.49H80.5546Z" fill="white"/>
<path d="M48 130H44C43.4477 130 43 130.448 43 131V135C43 135.552 43.4477 136 44 136H48C48.5523 136 49 135.552 49 135V131C49 130.448 48.5523 130 48 130Z" fill="white"/>
<path opacity="0.25" d="M168.348 114.28C168.871 114.28 169.343 114.403 169.764 114.648C170.191 114.893 170.524 115.237 170.764 115.68C171.01 116.117 171.132 116.613 171.132 117.168C171.132 117.723 171.01 118.221 170.764 118.664C170.524 119.101 170.191 119.445 169.764 119.696C169.343 119.941 168.871 120.064 168.348 120.064C167.82 120.064 167.343 119.941 166.916 119.696C166.495 119.445 166.162 119.101 165.916 118.664C165.671 118.221 165.548 117.723 165.548 117.168C165.548 116.613 165.671 116.117 165.916 115.68C166.162 115.237 166.495 114.893 166.916 114.648C167.343 114.403 167.82 114.28 168.348 114.28ZM168.348 115.128C167.986 115.128 167.663 115.211 167.38 115.376C167.098 115.541 166.876 115.779 166.716 116.088C166.562 116.397 166.484 116.757 166.484 117.168C166.484 117.579 166.562 117.939 166.716 118.248C166.876 118.557 167.098 118.795 167.38 118.96C167.663 119.125 167.986 119.208 168.348 119.208C168.706 119.208 169.023 119.125 169.3 118.96C169.583 118.795 169.802 118.557 169.956 118.248C170.116 117.939 170.196 117.579 170.196 117.168C170.196 116.757 170.116 116.397 169.956 116.088C169.802 115.779 169.583 115.541 169.3 115.376C169.023 115.211 168.706 115.128 168.348 115.128ZM176.62 120H175.708L172.964 115.832V120H172.052V114.36H172.964L175.708 118.544V114.36H176.62V120ZM180.228 112.448L178.052 121.408H177.164L179.34 112.448H180.228ZM183.364 114.28C183.886 114.28 184.358 114.403 184.78 114.648C185.206 114.893 185.54 115.237 185.78 115.68C186.025 116.117 186.148 116.613 186.148 117.168C186.148 117.723 186.025 118.221 185.78 118.664C185.54 119.101 185.206 119.445 184.78 119.696C184.358 119.941 183.886 120.064 183.364 120.064C182.836 120.064 182.358 119.941 181.932 119.696C181.51 119.445 181.177 119.101 180.932 118.664C180.686 118.221 180.564 117.723 180.564 117.168C180.564 116.613 180.686 116.117 180.932 115.68C181.177 115.237 181.51 114.893 181.932 114.648C182.358 114.403 182.836 114.28 183.364 114.28ZM183.364 115.128C183.001 115.128 182.678 115.211 182.396 115.376C182.113 115.541 181.892 115.779 181.732 116.088C181.577 116.397 181.5 116.757 181.5 117.168C181.5 117.579 181.577 117.939 181.732 118.248C181.892 118.557 182.113 118.795 182.396 118.96C182.678 119.125 183.001 119.208 183.364 119.208C183.721 119.208 184.038 119.125 184.316 118.96C184.598 118.795 184.817 118.557 184.972 118.248C185.132 117.939 185.212 117.579 185.212 117.168C185.212 116.757 185.132 116.397 184.972 116.088C184.817 115.779 184.598 115.541 184.316 115.376C184.038 115.211 183.721 115.128 183.364 115.128ZM190.404 114.352V115.088H187.98V116.84H189.98V117.544H187.98V120H187.068V114.352H190.404ZM194.553 114.352V115.088H192.129V116.84H194.129V117.544H192.129V120H191.217V114.352H194.553Z" fill="white"/>
<path opacity="0.25" d="M52.5 183.5C59.1274 183.5 64.5 178.127 64.5 171.5C64.5 164.873 59.1274 159.5 52.5 159.5C45.8726 159.5 40.5 164.873 40.5 171.5C40.5 178.127 45.8726 183.5 52.5 183.5Z" stroke="white"/>
<path opacity="0.25" d="M52.4999 180.283C57.3504 180.283 61.2825 176.351 61.2825 171.5C61.2825 166.649 57.3504 162.717 52.4999 162.717C47.6494 162.717 43.7173 166.649 43.7173 171.5C43.7173 176.351 47.6494 180.283 52.4999 180.283Z" stroke="white" stroke-width="2"/>
<path opacity="0.25" d="M122.5 182.5C129.127 182.5 134.5 177.127 134.5 170.5C134.5 163.873 129.127 158.5 122.5 158.5C115.873 158.5 110.5 163.873 110.5 170.5C110.5 177.127 115.873 182.5 122.5 182.5Z" stroke="white"/>
<path opacity="0.25" d="M122.5 179.283C127.35 179.283 131.283 175.351 131.283 170.5C131.283 165.649 127.35 161.717 122.5 161.717C117.649 161.717 113.717 165.649 113.717 170.5C113.717 175.351 117.649 179.283 122.5 179.283Z" stroke="white" stroke-width="2"/>
<path d="M192.5 182.5C199.127 182.5 204.5 177.127 204.5 170.5C204.5 163.873 199.127 158.5 192.5 158.5C185.873 158.5 180.5 163.873 180.5 170.5C180.5 177.127 185.873 182.5 192.5 182.5Z" stroke="white"/>
<path d="M192.5 179.283C197.35 179.283 201.283 175.351 201.283 170.5C201.283 165.649 197.35 161.717 192.5 161.717C187.649 161.717 183.717 165.649 183.717 170.5C183.717 175.351 187.649 179.283 192.5 179.283Z" fill="#FDBA12" stroke="white" stroke-width="2"/>
</svg>
