<svg width="375" height="232" viewBox="0 0 375 232" fill="none" xmlns="http://www.w3.org/2000/svg">
<path d="M133.76 186.294C124.516 180.183 116.844 172.318 111.787 162.242C105.413 149.541 103.198 130.986 107.245 95.6605C109.016 80.2061 127.555 53.8459 150.322 44.3369C172.802 34.9475 196.274 34.6232 218.319 41.5706" stroke="white" stroke-width="2"/>
<path d="M265.447 106.237C270.858 112.611 274.756 127.824 273.315 141.393C271.026 162.954 262.006 176.045 246.629 188.465" stroke="white"/>
<path d="M105.793 138.527C105.793 98.7588 142.505 66.5249 187.793 66.5249C198.892 66.5249 209.476 68.4608 219.13 71.9691" stroke="white"/>
<path fill-rule="evenodd" clip-rule="evenodd" d="M218.744 41.782L219.775 72.4777L132.809 170.74L133.695 197.097C133.738 198.367 134.263 199.574 135.163 200.471C139.727 205.018 145.184 209.215 151.535 213.061C158.23 217.116 164.99 219.401 171.816 219.918C172.428 219.965 173.027 219.728 173.442 219.275L263.763 120.666C264.841 119.489 265.406 117.931 265.332 116.337L262.901 63.7773C262.842 62.5029 262.179 61.333 261.116 60.6281L226.094 37.4118C225.349 36.9185 224.368 36.9781 223.69 37.5579L218.744 41.782Z" stroke="white" stroke-width="2"/>
<path d="M224.579 37.0209L226.902 93.1205C226.956 94.4237 226.499 95.6963 225.628 96.667L133.76 199.032" stroke="white"/>
<path d="M226.683 94.5673L264.948 118.842" stroke="white"/>
<path d="M187 29V11" stroke="white" stroke-width="2"/>
<path d="M187.238 204.225C238.215 208.044 274.969 172.019 274.638 135.424C274.516 121.871 275.537 109.2 272.997 95.7075C271.59 88.2307 266.867 78.2106 263.496 73.238" stroke="white" stroke-width="2"/>
<mask id="mask0_23_4950" style="mask-type:alpha" maskUnits="userSpaceOnUse" x="172" y="42" width="12" height="12">
<path d="M172 42.1477H183.13V53.5717H172V42.1477Z" fill="white"/>
</mask>
<g mask="url(#mask0_23_4950)">
<path fill-rule="evenodd" clip-rule="evenodd" d="M179.559 48.8867C178.805 46.8497 178.455 46.0147 177.797 44.1287C177.037 46.1457 176.626 47.0417 175.756 49.1597C177.254 49.0287 178.016 48.9747 179.559 48.8867ZM180.085 50.2957C178.087 50.3917 177.1 50.4557 175.154 50.6167C174.737 51.6617 174.524 52.2117 174.08 53.4147C173.248 53.4727 172.832 53.5037 172 53.5717C174.32 48.1507 175.26 46.8927 176.894 42.3427C177.645 42.2557 178.032 42.2167 178.82 42.1477C180.371 46.4197 181.166 47.4587 183.13 53.0097C182.288 53.0267 181.867 53.0377 181.028 53.0647C180.635 51.8557 180.448 51.3147 180.085 50.2957Z" fill="white"/>
</g>
<path fill-rule="evenodd" clip-rule="evenodd" d="M190.539 44.9976C190.498 44.4176 190.275 43.9646 189.879 43.6426C189.482 43.3196 188.875 43.1426 188.055 43.1326C187.296 43.1226 186.917 43.1206 186.163 43.1236C186.245 44.6116 186.27 45.2826 186.326 46.7376C187.096 46.7316 187.483 46.7306 188.258 46.7356C189.854 46.7466 190.622 46.1756 190.539 44.9976ZM186.378 48.1466C186.441 49.8516 186.472 50.7436 186.582 52.9686C185.787 52.9706 185.391 52.9746 184.6 52.9846C184.375 47.2816 184.456 46.2396 184.214 41.6816C185.77 41.6446 186.563 41.6426 188.144 41.6686C189.482 41.6916 190.518 42.0526 191.251 42.6776C191.984 43.3016 192.404 44.1016 192.488 45.0706C192.572 46.0306 192.276 46.7706 191.596 47.3226C190.917 47.8736 189.889 48.1516 188.529 48.1436C187.666 48.1396 187.236 48.1396 186.378 48.1466Z" fill="white"/>
<path fill-rule="evenodd" clip-rule="evenodd" d="M199.881 44.1739C199.514 43.8175 198.925 43.5883 198.109 43.5069C197.354 43.4308 196.976 43.3957 196.225 43.333C196.177 44.8225 196.143 45.4931 196.072 46.9475C196.84 47.0086 197.225 47.0413 197.997 47.1139C199.586 47.2639 200.401 46.762 200.421 45.5813C200.431 44.9999 200.248 44.5292 199.881 44.1739ZM195.784 53.1771C194.992 53.1098 194.597 53.0792 193.808 53.0203C194.081 47.3194 194.253 46.2884 194.409 41.7266C195.962 41.8254 196.752 41.8925 198.325 42.0562C199.656 42.1957 200.657 42.6457 201.332 43.3322C202.008 44.0177 202.357 44.8512 202.356 45.8239C202.356 46.7875 201.997 47.4989 201.271 47.9896C200.547 48.4793 199.498 48.6666 198.144 48.5401C197.285 48.4609 196.857 48.4234 196.001 48.3556C195.915 50.0596 195.869 50.9509 195.784 53.1771Z" fill="white"/>
</svg>
