<svg width="100" height="48" viewBox="0 0 100 48" fill="none" xmlns="http://www.w3.org/2000/svg">
<g clip-path="url(#clip0_6012_966)">
<path d="M22.7812 16L19.6132 10.924H18.1552V16H16.1032V3.292H20.5852C22.0372 3.292 23.1352 3.646 23.8792 4.354C24.6352 5.062 25.0132 5.998 25.0132 7.162C25.0132 8.158 24.7312 8.974 24.1672 9.61C23.6152 10.246 22.8112 10.654 21.7552 10.834L25.0852 16H22.7812ZM18.1552 9.466H20.4232C22.0792 9.466 22.9072 8.734 22.9072 7.27C22.9072 6.574 22.7032 6.034 22.2952 5.65C21.8992 5.254 21.2752 5.056 20.4232 5.056H18.1552V9.466ZM36.077 10.564C36.077 10.9 36.053 11.194 36.005 11.446H28.373C28.409 12.466 28.691 13.222 29.219 13.714C29.747 14.206 30.401 14.452 31.181 14.452C31.865 14.452 32.441 14.278 32.909 13.93C33.389 13.582 33.683 13.12 33.791 12.544H35.987C35.855 13.24 35.579 13.858 35.159 14.398C34.739 14.938 34.193 15.364 33.521 15.676C32.849 15.976 32.099 16.126 31.271 16.126C30.311 16.126 29.459 15.922 28.715 15.514C27.983 15.106 27.407 14.518 26.987 13.75C26.567 12.982 26.357 12.076 26.357 11.032C26.357 10 26.567 9.1 26.987 8.332C27.407 7.564 27.983 6.976 28.715 6.568C29.459 6.16 30.311 5.956 31.271 5.956C32.243 5.956 33.089 6.16 33.809 6.568C34.541 6.964 35.099 7.516 35.483 8.224C35.879 8.92 36.077 9.7 36.077 10.564ZM34.007 10.51C34.031 9.862 33.917 9.322 33.665 8.89C33.425 8.446 33.089 8.122 32.657 7.918C32.237 7.702 31.775 7.594 31.271 7.594C30.467 7.594 29.795 7.84 29.255 8.332C28.715 8.824 28.421 9.55 28.373 10.51H34.007ZM50.4603 5.92C51.6363 5.92 52.5723 6.292 53.2683 7.036C53.9763 7.78 54.3303 8.842 54.3303 10.222V16H52.2783V10.438C52.2783 9.574 52.0623 8.908 51.6303 8.44C51.1983 7.96 50.6043 7.72 49.8483 7.72C49.0443 7.72 48.4023 7.978 47.9223 8.494C47.4543 8.998 47.2203 9.742 47.2203 10.726V16H45.1683V10.438C45.1683 9.574 44.9523 8.908 44.5203 8.44C44.0883 7.96 43.4943 7.72 42.7383 7.72C41.9343 7.72 41.2923 7.978 40.8123 8.494C40.3443 8.998 40.1103 9.742 40.1103 10.726V16H38.0583V6.082H40.1103V8.152C40.3623 7.432 40.7823 6.88 41.3703 6.496C41.9583 6.112 42.6483 5.92 43.4403 5.92C44.2683 5.92 44.9823 6.124 45.5823 6.532C46.1943 6.94 46.6383 7.528 46.9143 8.296C47.2023 7.552 47.6643 6.97 48.3003 6.55C48.9363 6.13 49.6563 5.92 50.4603 5.92ZM61.2622 5.956C62.2222 5.956 63.0862 6.16 63.8542 6.568C64.6222 6.976 65.2222 7.564 65.6542 8.332C66.0862 9.1 66.3022 10 66.3022 11.032C66.3022 12.076 66.0862 12.982 65.6542 13.75C65.2222 14.518 64.6222 15.106 63.8542 15.514C63.0862 15.922 62.2222 16.126 61.2622 16.126C60.3022 16.126 59.4382 15.922 58.6702 15.514C57.9142 15.106 57.3142 14.518 56.8702 13.75C56.4382 12.97 56.2222 12.064 56.2222 11.032C56.2222 10 56.4382 9.1 56.8702 8.332C57.3142 7.564 57.9142 6.976 58.6702 6.568C59.4382 6.16 60.3022 5.956 61.2622 5.956ZM61.2622 7.738C60.7342 7.738 60.2482 7.858 59.8042 8.098C59.3602 8.338 59.0002 8.71 58.7242 9.214C58.4602 9.706 58.3282 10.312 58.3282 11.032C58.3282 11.764 58.4602 12.376 58.7242 12.868C59.0002 13.36 59.3602 13.726 59.8042 13.966C60.2482 14.206 60.7342 14.326 61.2622 14.326C61.7902 14.326 62.2762 14.206 62.7202 13.966C63.1642 13.726 63.5182 13.36 63.7822 12.868C64.0582 12.376 64.1962 11.764 64.1962 11.032C64.1962 10.312 64.0582 9.706 63.7822 9.214C63.5182 8.71 63.1642 8.338 62.7202 8.098C62.2762 7.858 61.7902 7.738 61.2622 7.738ZM73.2611 14.218V16H72.0011C70.9451 16 70.1411 15.748 69.5891 15.244C69.0491 14.728 68.7791 13.876 68.7791 12.688V7.828H67.3571V6.082H68.7791V3.616H70.8491V6.082H73.2431V7.828H70.8491V12.724C70.8491 13.288 70.9511 13.678 71.1551 13.894C71.3711 14.11 71.7431 14.218 72.2711 14.218H73.2611ZM84.3993 10.564C84.3993 10.9 84.3753 11.194 84.3273 11.446H76.6953C76.7313 12.466 77.0133 13.222 77.5413 13.714C78.0693 14.206 78.7233 14.452 79.5033 14.452C80.1873 14.452 80.7633 14.278 81.2313 13.93C81.7113 13.582 82.0053 13.12 82.1133 12.544H84.3093C84.1773 13.24 83.9013 13.858 83.4813 14.398C83.0613 14.938 82.5153 15.364 81.8433 15.676C81.1713 15.976 80.4213 16.126 79.5933 16.126C78.6333 16.126 77.7813 15.922 77.0373 15.514C76.3053 15.106 75.7293 14.518 75.3093 13.75C74.8893 12.982 74.6793 12.076 74.6793 11.032C74.6793 10 74.8893 9.1 75.3093 8.332C75.7293 7.564 76.3053 6.976 77.0373 6.568C77.7813 6.16 78.6333 5.956 79.5933 5.956C80.5653 5.956 81.4113 6.16 82.1313 6.568C82.8633 6.964 83.4213 7.516 83.8053 8.224C84.2013 8.92 84.3993 9.7 84.3993 10.564ZM82.3293 10.51C82.3533 9.862 82.2393 9.322 81.9873 8.89C81.7473 8.446 81.4113 8.122 80.9793 7.918C80.5593 7.702 80.0973 7.594 79.5933 7.594C78.7893 7.594 78.1173 7.84 77.5773 8.332C77.0373 8.824 76.7433 9.55 76.6953 10.51H82.3293ZM22.7694 24.948V28.8H27.4494V30.384H22.7694V34.326H27.9894V36H20.7174V23.292H27.9894V24.948H22.7694ZM35.5251 25.92C36.6771 25.92 37.6011 26.292 38.2971 27.036C38.9931 27.78 39.3411 28.842 39.3411 30.222V36H37.2891V30.438C37.2891 29.55 37.0611 28.866 36.6051 28.386C36.1491 27.894 35.5251 27.648 34.7331 27.648C33.9171 27.648 33.2631 27.912 32.7711 28.44C32.2791 28.956 32.0331 29.718 32.0331 30.726V36H29.9811V26.082H32.0331V28.26C32.2971 27.516 32.7411 26.94 33.3651 26.532C33.9891 26.124 34.7091 25.92 35.5251 25.92ZM45.7189 25.956C46.6189 25.956 47.3869 26.178 48.0229 26.622C48.6589 27.066 49.1089 27.654 49.3729 28.386V26.082H51.4249V36H49.3729V33.696C49.1089 34.428 48.6589 35.016 48.0229 35.46C47.3869 35.904 46.6189 36.126 45.7189 36.126C44.8549 36.126 44.0809 35.922 43.3969 35.514C42.7249 35.106 42.1969 34.518 41.8129 33.75C41.4289 32.982 41.2369 32.076 41.2369 31.032C41.2369 30 41.4289 29.1 41.8129 28.332C42.1969 27.564 42.7249 26.976 43.3969 26.568C44.0809 26.16 44.8549 25.956 45.7189 25.956ZM46.3489 27.756C45.4369 27.756 44.7049 28.05 44.1529 28.638C43.6129 29.214 43.3429 30.012 43.3429 31.032C43.3429 32.052 43.6129 32.856 44.1529 33.444C44.7049 34.02 45.4369 34.308 46.3489 34.308C46.9249 34.308 47.4409 34.176 47.8969 33.912C48.3529 33.636 48.7129 33.252 48.9769 32.76C49.2409 32.268 49.3729 31.692 49.3729 31.032C49.3729 30.384 49.2409 29.814 48.9769 29.322C48.7129 28.818 48.3529 28.434 47.8969 28.17C47.4409 27.894 46.9249 27.756 46.3489 27.756ZM59.5754 25.956C60.4394 25.956 61.2074 26.16 61.8794 26.568C62.5634 26.976 63.0974 27.564 63.4814 28.332C63.8654 29.1 64.0574 30 64.0574 31.032C64.0574 32.076 63.8654 32.982 63.4814 33.75C63.0974 34.518 62.5634 35.106 61.8794 35.514C61.2074 35.922 60.4394 36.126 59.5754 36.126C58.6754 36.126 57.9074 35.904 57.2714 35.46C56.6354 35.016 56.1914 34.428 55.9394 33.696V36H53.8874V22.68H55.9394V28.386C56.1914 27.654 56.6354 27.066 57.2714 26.622C57.9074 26.178 58.6754 25.956 59.5754 25.956ZM58.9454 27.756C58.3694 27.756 57.8534 27.894 57.3974 28.17C56.9414 28.434 56.5814 28.818 56.3174 29.322C56.0534 29.814 55.9214 30.384 55.9214 31.032C55.9214 31.692 56.0534 32.268 56.3174 32.76C56.5814 33.252 56.9414 33.636 57.3974 33.912C57.8534 34.176 58.3694 34.308 58.9454 34.308C59.8574 34.308 60.5894 34.02 61.1414 33.444C61.6934 32.856 61.9694 32.052 61.9694 31.032C61.9694 30.024 61.6934 29.226 61.1414 28.638C60.5894 28.05 59.8574 27.756 58.9454 27.756ZM68.0858 22.68V36H66.0338V22.68H68.0858ZM79.785 30.564C79.785 30.9 79.761 31.194 79.713 31.446H72.081C72.117 32.466 72.399 33.222 72.927 33.714C73.455 34.206 74.109 34.452 74.889 34.452C75.573 34.452 76.149 34.278 76.617 33.93C77.097 33.582 77.391 33.12 77.499 32.544H79.695C79.563 33.24 79.287 33.858 78.867 34.398C78.447 34.938 77.901 35.364 77.229 35.676C76.557 35.976 75.807 36.126 74.979 36.126C74.019 36.126 73.167 35.922 72.423 35.514C71.691 35.106 71.115 34.518 70.695 33.75C70.275 32.982 70.065 32.076 70.065 31.032C70.065 30 70.275 29.1 70.695 28.332C71.115 27.564 71.691 26.976 72.423 26.568C73.167 26.16 74.019 25.956 74.979 25.956C75.951 25.956 76.797 26.16 77.517 26.568C78.249 26.964 78.807 27.516 79.191 28.224C79.587 28.92 79.785 29.7 79.785 30.564ZM77.715 30.51C77.739 29.862 77.625 29.322 77.373 28.89C77.133 28.446 76.797 28.122 76.365 27.918C75.945 27.702 75.483 27.594 74.979 27.594C74.175 27.594 73.503 27.84 72.963 28.332C72.423 28.824 72.129 29.55 72.081 30.51H77.715Z" fill="white"/>
<rect x="13.3818" y="46.5" width="73.236" height="1" stroke="white"/>
</g>
<defs>
<clipPath id="clip0_6012_966">
<rect width="74.236" height="48" fill="white" transform="translate(12.8818)"/>
</clipPath>
</defs>
</svg>
