<svg width="322" height="155" viewBox="0 0 322 155" fill="none" xmlns="http://www.w3.org/2000/svg">
<rect x="33" y="49" width="256" height="56" rx="2" stroke="white" stroke-width="2"/>
<g opacity="0.25">
<path fill-rule="evenodd" clip-rule="evenodd" d="M251 78C251 83.5229 246.523 88 241 88C235.477 88 231 83.5229 231 78C231 72.4771 235.477 68 241 68C246.523 68 251 72.4771 251 78Z" stroke="white"/>
<path fill-rule="evenodd" clip-rule="evenodd" d="M245 69.8092V86.2171C243.824 87.0041 242.453 87.4387 241 87.4387C239.547 87.4387 238.176 87.0041 237 86.2171V69.8092C238.176 69.0221 239.547 68.4387 241 68.4387C242.453 68.4387 243.824 69.0221 245 69.8092Z" stroke="white"/>
</g>
<path fill-rule="evenodd" clip-rule="evenodd" d="M201 78C201 83.5229 196.523 88 191 88C185.477 88 181 83.5229 181 78C181 72.4771 185.477 68 191 68C196.523 68 201 72.4771 201 78Z" stroke="white"/>
<path fill-rule="evenodd" clip-rule="evenodd" d="M195 69.8092V86.2171C193.824 87.0041 192.453 87.4387 191 87.4387C189.547 87.4387 188.176 87.0041 187 86.2171V69.8092C188.176 69.0221 189.547 68.4387 191 68.4387C192.453 68.4387 193.824 69.0221 195 69.8092Z" stroke="white"/>
<rect x="137.5" y="70.5" width="36" height="12" rx="0.5" stroke="white"/>
<circle cx="141" cy="90" r="2.5" stroke="white"/>
<circle cx="156" cy="90" r="2.5" stroke="white"/>
<circle cx="170" cy="90" r="2.5" stroke="white"/>
<g opacity="0.25">
<path fill-rule="evenodd" clip-rule="evenodd" d="M121 78C121 83.5229 116.523 88 111 88C105.477 88 101 83.5229 101 78C101 72.4771 105.477 68 111 68C116.523 68 121 72.4771 121 78Z" stroke="white"/>
<path fill-rule="evenodd" clip-rule="evenodd" d="M115 69.8092V86.2171C113.824 87.0041 112.453 87.4387 111 87.4387C109.547 87.4387 108.176 87.0041 107 86.2171V69.8092C108.176 69.0221 109.547 68.4387 111 68.4387C112.453 68.4387 113.824 69.0221 115 69.8092Z" stroke="white"/>
</g>
<g opacity="0.25">
<path fill-rule="evenodd" clip-rule="evenodd" d="M281 78C281 83.5229 276.523 88 271 88C265.477 88 261 83.5229 261 78C261 72.4771 265.477 68 271 68C276.523 68 281 72.4771 281 78Z" stroke="white"/>
<path fill-rule="evenodd" clip-rule="evenodd" d="M275 69.8092V86.2171C273.824 87.0041 272.453 87.4387 271 87.4387C269.547 87.4387 268.176 87.0041 267 86.2171V69.8092C268.176 69.0221 269.547 68.4387 271 68.4387C272.453 68.4387 273.824 69.0221 275 69.8092Z" stroke="white"/>
</g>
<g opacity="0.25">
<path fill-rule="evenodd" clip-rule="evenodd" d="M91 78C91 83.5229 86.5231 88 81.0003 88C75.4769 88 71 83.5229 71 78C71 72.4771 75.4769 68 81.0003 68C86.5231 68 91 72.4771 91 78Z" stroke="white"/>
<path fill-rule="evenodd" clip-rule="evenodd" d="M85 69.8092V86.2171C83.8235 87.0041 82.4533 87.4387 81 87.4387C79.5467 87.4387 78.1765 87.0041 77 86.2171V69.8092C78.1765 69.0221 79.5467 68.4387 81 68.4387C82.4533 68.4387 83.8235 69.0221 85 69.8092Z" stroke="white"/>
</g>
<g opacity="0.25">
<path fill-rule="evenodd" clip-rule="evenodd" d="M61 78C61 83.5229 56.5231 88 51.0003 88C45.4769 88 41 83.5229 41 78C41 72.4771 45.4769 68 51.0003 68C56.5231 68 61 72.4771 61 78Z" stroke="white"/>
<path fill-rule="evenodd" clip-rule="evenodd" d="M55 69.8092V86.2171C53.8235 87.0041 52.4533 87.4387 51 87.4387C49.5467 87.4387 48.1765 87.0041 47 86.2171V69.8092C48.1765 69.0221 49.5467 68.4387 51 68.4387C52.4533 68.4387 53.8235 69.0221 55 69.8092Z" stroke="white"/>
</g>
<rect x="32.25" y="56.25" width="257.5" height="0.5" stroke="white" stroke-width="0.5"/>
</svg>
