<svg width="375" height="232" viewBox="0 0 375 232" fill="none" xmlns="http://www.w3.org/2000/svg">
<path d="M165.663 115.616C165.663 116.24 165.513 116.822 165.213 117.362C164.913 117.89 164.457 118.316 163.845 118.64C163.233 118.964 162.483 119.126 161.595 119.126C160.731 119.126 159.957 118.976 159.273 118.676C158.589 118.364 158.043 117.932 157.635 117.38C157.227 116.828 156.993 116.192 156.933 115.472H159.129C159.189 116.024 159.423 116.498 159.831 116.894C160.251 117.29 160.809 117.488 161.505 117.488C162.129 117.488 162.609 117.32 162.945 116.984C163.293 116.648 163.467 116.216 163.467 115.688C163.467 115.232 163.341 114.86 163.089 114.572C162.837 114.272 162.525 114.038 162.153 113.87C161.781 113.702 161.271 113.51 160.623 113.294C159.831 113.042 159.183 112.79 158.679 112.538C158.187 112.286 157.767 111.92 157.419 111.44C157.071 110.96 156.897 110.33 156.897 109.55C156.897 108.866 157.065 108.266 157.401 107.75C157.737 107.234 158.217 106.838 158.841 106.562C159.465 106.274 160.185 106.13 161.001 106.13C162.297 106.13 163.323 106.442 164.079 107.066C164.847 107.69 165.285 108.506 165.393 109.514H163.179C163.095 109.034 162.867 108.626 162.495 108.29C162.135 107.942 161.637 107.768 161.001 107.768C160.425 107.768 159.963 107.918 159.615 108.218C159.267 108.506 159.093 108.926 159.093 109.478C159.093 109.91 159.213 110.27 159.453 110.558C159.693 110.834 159.993 111.056 160.353 111.224C160.725 111.38 161.229 111.566 161.865 111.782C162.669 112.034 163.323 112.292 163.827 112.556C164.343 112.808 164.775 113.18 165.123 113.672C165.483 114.164 165.663 114.812 165.663 115.616ZM176.934 113.564C176.934 113.9 176.91 114.194 176.862 114.446H169.23C169.266 115.466 169.548 116.222 170.076 116.714C170.604 117.206 171.258 117.452 172.038 117.452C172.722 117.452 173.298 117.278 173.766 116.93C174.246 116.582 174.54 116.12 174.648 115.544H176.844C176.712 116.24 176.436 116.858 176.016 117.398C175.596 117.938 175.05 118.364 174.378 118.676C173.706 118.976 172.956 119.126 172.128 119.126C171.168 119.126 170.316 118.922 169.572 118.514C168.84 118.106 168.264 117.518 167.844 116.75C167.424 115.982 167.214 115.076 167.214 114.032C167.214 113 167.424 112.1 167.844 111.332C168.264 110.564 168.84 109.976 169.572 109.568C170.316 109.16 171.168 108.956 172.128 108.956C173.1 108.956 173.946 109.16 174.666 109.568C175.398 109.964 175.956 110.516 176.34 111.224C176.736 111.92 176.934 112.7 176.934 113.564ZM174.864 113.51C174.888 112.862 174.774 112.322 174.522 111.89C174.282 111.446 173.946 111.122 173.514 110.918C173.094 110.702 172.632 110.594 172.128 110.594C171.324 110.594 170.652 110.84 170.112 111.332C169.572 111.824 169.278 112.55 169.23 113.51H174.864ZM183.901 117.218V119H182.641C181.585 119 180.781 118.748 180.229 118.244C179.689 117.728 179.419 116.876 179.419 115.688V110.828H177.997V109.082H179.419V106.616H181.489V109.082H183.883V110.828H181.489V115.724C181.489 116.288 181.591 116.678 181.795 116.894C182.011 117.11 182.383 117.218 182.911 117.218H183.901ZM190.809 117.218V119H189.549C188.493 119 187.689 118.748 187.137 118.244C186.597 117.728 186.327 116.876 186.327 115.688V110.828H184.905V109.082H186.327V106.616H188.397V109.082H190.791V110.828H188.397V115.724C188.397 116.288 188.499 116.678 188.703 116.894C188.919 117.11 189.291 117.218 189.819 117.218H190.809ZM192.443 106.202C192.443 105.854 192.563 105.566 192.803 105.338C193.043 105.11 193.361 104.996 193.757 104.996C194.153 104.996 194.471 105.11 194.711 105.338C194.963 105.566 195.089 105.854 195.089 106.202C195.089 106.55 194.963 106.832 194.711 107.048C194.471 107.264 194.153 107.372 193.757 107.372C193.361 107.372 193.043 107.264 192.803 107.048C192.563 106.832 192.443 106.55 192.443 106.202ZM194.783 109.082V119H192.731V109.082H194.783ZM202.81 108.92C203.962 108.92 204.886 109.292 205.582 110.036C206.278 110.78 206.626 111.842 206.626 113.222V119H204.574V113.438C204.574 112.55 204.346 111.866 203.89 111.386C203.434 110.894 202.81 110.648 202.018 110.648C201.202 110.648 200.548 110.912 200.056 111.44C199.564 111.956 199.318 112.718 199.318 113.726V119H197.266V109.082H199.318V111.26C199.582 110.516 200.026 109.94 200.65 109.532C201.274 109.124 201.994 108.92 202.81 108.92ZM213.004 108.956C213.904 108.956 214.672 109.178 215.308 109.622C215.944 110.066 216.394 110.654 216.658 111.386V109.082H218.71V119.108C218.71 120.032 218.518 120.848 218.134 121.556C217.762 122.276 217.222 122.84 216.514 123.248C215.806 123.656 214.966 123.86 213.994 123.86C212.602 123.86 211.474 123.53 210.61 122.87C209.758 122.21 209.224 121.316 209.008 120.188H211.042C211.21 120.776 211.534 121.232 212.014 121.556C212.494 121.892 213.106 122.06 213.85 122.06C214.666 122.06 215.338 121.808 215.866 121.304C216.394 120.8 216.658 120.068 216.658 119.108V116.696C216.394 117.428 215.944 118.016 215.308 118.46C214.672 118.904 213.904 119.126 213.004 119.126C212.14 119.126 211.366 118.922 210.682 118.514C210.01 118.106 209.482 117.518 209.098 116.75C208.714 115.982 208.522 115.076 208.522 114.032C208.522 113 208.714 112.1 209.098 111.332C209.482 110.564 210.01 109.976 210.682 109.568C211.366 109.16 212.14 108.956 213.004 108.956ZM213.634 110.756C212.722 110.756 211.99 111.05 211.438 111.638C210.898 112.214 210.628 113.012 210.628 114.032C210.628 115.052 210.898 115.856 211.438 116.444C211.99 117.02 212.722 117.308 213.634 117.308C214.21 117.308 214.726 117.176 215.182 116.912C215.638 116.636 215.998 116.252 216.262 115.76C216.526 115.268 216.658 114.692 216.658 114.032C216.658 113.384 216.526 112.814 216.262 112.322C215.998 111.818 215.638 111.434 215.182 111.17C214.726 110.894 214.21 110.756 213.634 110.756Z" fill="white"/>
<rect x="152.5" y="138.5" width="71" height="1" stroke="white"/>
<g opacity="0.25">
<rect x="152.5" y="50.5" width="71" height="1" stroke="white"/>
<rect x="152.5" y="4.5" width="71" height="39" rx="3.5" stroke="white"/>
</g>
<g opacity="0.25">
<rect x="268.5" y="138.5" width="71" height="1" stroke="white"/>
<rect x="268.5" y="92.5" width="71" height="39" rx="3.5" stroke="white"/>
</g>
<g opacity="0.25">
<rect x="36.5" y="138.5" width="71" height="1" stroke="white"/>
<rect x="36.5" y="92.5" width="71" height="39" rx="3.5" stroke="white"/>
</g>
<g opacity="0.25">
<rect x="152.5" y="226.5" width="71" height="1" stroke="white"/>
<rect x="152.5" y="180.5" width="71" height="39" rx="3.5" stroke="white"/>
</g>
</svg>
