<svg width="375" height="232" viewBox="0 0 375 232" fill="none" xmlns="http://www.w3.org/2000/svg">
<path fill-rule="evenodd" clip-rule="evenodd" d="M346.5 104C346.5 134.376 321.877 159 291.502 159C261.123 159 236.5 134.376 236.5 104C236.5 73.6239 261.123 49 291.502 49C321.877 49 346.5 73.6239 346.5 104Z" stroke="white" stroke-width="2"/>
<path fill-rule="evenodd" clip-rule="evenodd" d="M274.868 61.0005V148C257.664 141.138 245.5 124.248 245.5 104.5C245.5 84.7519 257.664 67.8624 274.868 61.0005ZM338.5 104.5C338.5 124.249 326.335 141.139 309.132 148V60.9999C326.335 67.8615 338.5 84.7514 338.5 104.5Z" stroke="white"/>
<path fill-rule="evenodd" clip-rule="evenodd" d="M308.5 53.1844V154.451C303.5 158.956 294.395 159 291.5 159C288.605 159 279.5 158.956 274.5 154.451V53.1844C279.5 48.6786 289.561 49.0052 291.5 49.0052C293.439 49.0052 303.5 48.6786 308.5 53.1844Z" stroke="white" stroke-width="2"/>
<path d="M216 65H31C29.3431 65 28 66.3431 28 68V144C28 145.657 29.3431 147 31 147H216C217.657 147 219 145.657 219 144V68C219 66.3431 217.657 65 216 65Z" stroke="white" stroke-width="2"/>
<path opacity="0.25" d="M168.561 99.135C169.279 99.135 169.928 99.3037 170.508 99.641C171.094 99.9783 171.553 100.451 171.883 101.06C172.22 101.661 172.389 102.343 172.389 103.106C172.389 103.869 172.22 104.554 171.883 105.163C171.553 105.764 171.094 106.237 170.508 106.582C169.928 106.919 169.279 107.088 168.561 107.088C167.835 107.088 167.178 106.919 166.592 106.582C166.012 106.237 165.554 105.764 165.217 105.163C164.879 104.554 164.711 103.869 164.711 103.106C164.711 102.343 164.879 101.661 165.217 101.06C165.554 100.451 166.012 99.9783 166.592 99.641C167.178 99.3037 167.835 99.135 168.561 99.135ZM168.561 100.301C168.062 100.301 167.618 100.415 167.23 100.642C166.841 100.869 166.537 101.196 166.317 101.621C166.104 102.046 165.998 102.541 165.998 103.106C165.998 103.671 166.104 104.166 166.317 104.591C166.537 105.016 166.841 105.343 167.23 105.57C167.618 105.797 168.062 105.911 168.561 105.911C169.052 105.911 169.488 105.797 169.87 105.57C170.258 105.343 170.559 105.016 170.772 104.591C170.992 104.166 171.102 103.671 171.102 103.106C171.102 102.541 170.992 102.046 170.772 101.621C170.559 101.196 170.258 100.869 169.87 100.642C169.488 100.415 169.052 100.301 168.561 100.301ZM174.435 99.234L176.668 105.658L178.912 99.234H180.276L177.471 107H175.865L173.071 99.234H174.435ZM182.46 100.246V102.6H185.32V103.568H182.46V105.977H185.65V107H181.206V99.234H185.65V100.246H182.46ZM193.148 107H191.894L188.121 101.269V107H186.867V99.245H188.121L191.894 104.998V99.245H193.148V107Z" fill="white"/>
<path d="M72.642 74.157C73.5953 74.157 74.3873 74.399 75.018 74.883C75.6486 75.367 76.074 76.0233 76.294 76.852H74.963C74.7796 76.3827 74.4863 76.0123 74.083 75.741C73.687 75.4623 73.1993 75.323 72.62 75.323C72.158 75.323 71.7436 75.4367 71.377 75.664C71.0176 75.8913 70.7316 76.2177 70.519 76.643C70.3136 77.061 70.211 77.5523 70.211 78.117C70.211 78.6743 70.3136 79.1657 70.519 79.591C70.7316 80.009 71.0176 80.3317 71.377 80.559C71.7436 80.7863 72.158 80.9 72.62 80.9C73.1993 80.9 73.687 80.7643 74.083 80.493C74.4863 80.2143 74.7796 79.844 74.963 79.382H76.294C76.074 80.2107 75.6486 80.867 75.018 81.351C74.3873 81.8277 73.5953 82.066 72.642 82.066C71.9086 82.066 71.2596 81.901 70.695 81.571C70.1303 81.2337 69.694 80.768 69.386 80.174C69.078 79.5727 68.924 78.887 68.924 78.117C68.924 77.347 69.078 76.665 69.386 76.071C69.694 75.4697 70.1303 75.0003 70.695 74.663C71.2596 74.3257 71.9086 74.157 72.642 74.157ZM81.1421 74.135C81.8608 74.135 82.5098 74.3037 83.0891 74.641C83.6758 74.9783 84.1341 75.4513 84.4641 76.06C84.8015 76.6613 84.9701 77.3433 84.9701 78.106C84.9701 78.8687 84.8015 79.5543 84.4641 80.163C84.1341 80.7643 83.6758 81.2373 83.0891 81.582C82.5098 81.9193 81.8608 82.088 81.1421 82.088C80.4161 82.088 79.7598 81.9193 79.1731 81.582C78.5938 81.2373 78.1355 80.7643 77.7981 80.163C77.4608 79.5543 77.2921 78.8687 77.2921 78.106C77.2921 77.3433 77.4608 76.6613 77.7981 76.06C78.1355 75.4513 78.5938 74.9783 79.1731 74.641C79.7598 74.3037 80.4161 74.135 81.1421 74.135ZM81.1421 75.301C80.6435 75.301 80.1998 75.4147 79.8111 75.642C79.4225 75.8693 79.1181 76.1957 78.8981 76.621C78.6855 77.0463 78.5791 77.5413 78.5791 78.106C78.5791 78.6707 78.6855 79.1657 78.8981 79.591C79.1181 80.0163 79.4225 80.3427 79.8111 80.57C80.1998 80.7973 80.6435 80.911 81.1421 80.911C81.6335 80.911 82.0698 80.7973 82.4511 80.57C82.8398 80.3427 83.1405 80.0163 83.3531 79.591C83.5731 79.1657 83.6831 78.6707 83.6831 78.106C83.6831 77.5413 83.5731 77.0463 83.3531 76.621C83.1405 76.1957 82.8398 75.8693 82.4511 75.642C82.0698 75.4147 81.6335 75.301 81.1421 75.301ZM92.5166 82H91.2626L87.4896 76.269V82H86.2356V74.245H87.4896L91.2626 79.998V74.245H92.5166V82ZM100.315 82H99.0614L95.2884 76.269V82H94.0344V74.245H95.2884L99.0614 79.998V74.245H100.315V82ZM103.087 75.246V77.6H105.947V78.568H103.087V80.977H106.277V82H101.833V74.234H106.277V75.246H103.087ZM110.959 74.157C111.913 74.157 112.705 74.399 113.335 74.883C113.966 75.367 114.391 76.0233 114.611 76.852H113.28C113.097 76.3827 112.804 76.0123 112.4 75.741C112.004 75.4623 111.517 75.323 110.937 75.323C110.475 75.323 110.061 75.4367 109.694 75.664C109.335 75.8913 109.049 76.2177 108.836 76.643C108.631 77.061 108.528 77.5523 108.528 78.117C108.528 78.6743 108.631 79.1657 108.836 79.591C109.049 80.009 109.335 80.3317 109.694 80.559C110.061 80.7863 110.475 80.9 110.937 80.9C111.517 80.9 112.004 80.7643 112.4 80.493C112.804 80.2143 113.097 79.844 113.28 79.382H114.611C114.391 80.2107 113.966 80.867 113.335 81.351C112.705 81.8277 111.913 82.066 110.959 82.066C110.226 82.066 109.577 81.901 109.012 81.571C108.448 81.2337 108.011 80.768 107.703 80.174C107.395 79.5727 107.241 78.887 107.241 78.117C107.241 77.347 107.395 76.665 107.703 76.071C108.011 75.4697 108.448 75.0003 109.012 74.663C109.577 74.3257 110.226 74.157 110.959 74.157ZM120.857 74.234V75.246H118.69V82H117.425V75.246H115.269V74.234H120.857Z" fill="white"/>
<path d="M50.797 95.308C50.797 95.62 50.722 95.911 50.572 96.181C50.422 96.445 50.194 96.658 49.888 96.82C49.582 96.982 49.207 97.063 48.763 97.063C48.331 97.063 47.944 96.988 47.602 96.838C47.26 96.682 46.987 96.466 46.783 96.19C46.579 95.914 46.462 95.596 46.432 95.236H47.53C47.56 95.512 47.677 95.749 47.881 95.947C48.091 96.145 48.37 96.244 48.718 96.244C49.03 96.244 49.27 96.16 49.438 95.992C49.612 95.824 49.699 95.608 49.699 95.344C49.699 95.116 49.636 94.93 49.51 94.786C49.384 94.636 49.228 94.519 49.042 94.435C48.856 94.351 48.601 94.255 48.277 94.147C47.881 94.021 47.557 93.895 47.305 93.769C47.059 93.643 46.849 93.46 46.675 93.22C46.501 92.98 46.414 92.665 46.414 92.275C46.414 91.933 46.498 91.633 46.666 91.375C46.834 91.117 47.074 90.919 47.386 90.781C47.698 90.637 48.058 90.565 48.466 90.565C49.114 90.565 49.627 90.721 50.005 91.033C50.389 91.345 50.608 91.753 50.662 92.257H49.555C49.513 92.017 49.399 91.813 49.213 91.645C49.033 91.471 48.784 91.384 48.466 91.384C48.178 91.384 47.947 91.459 47.773 91.609C47.599 91.753 47.512 91.963 47.512 92.239C47.512 92.455 47.572 92.635 47.692 92.779C47.812 92.917 47.962 93.028 48.142 93.112C48.328 93.19 48.58 93.283 48.898 93.391C49.3 93.517 49.627 93.646 49.879 93.778C50.137 93.904 50.353 94.09 50.527 94.336C50.707 94.582 50.797 94.906 50.797 95.308ZM56.0001 95.308C56.0001 95.62 55.9251 95.911 55.7751 96.181C55.6251 96.445 55.3971 96.658 55.0911 96.82C54.7851 96.982 54.4101 97.063 53.9661 97.063C53.5341 97.063 53.1471 96.988 52.8051 96.838C52.4631 96.682 52.1901 96.466 51.9861 96.19C51.7821 95.914 51.6651 95.596 51.6351 95.236H52.7331C52.7631 95.512 52.8801 95.749 53.0841 95.947C53.2941 96.145 53.5731 96.244 53.9211 96.244C54.2331 96.244 54.4731 96.16 54.6411 95.992C54.8151 95.824 54.9021 95.608 54.9021 95.344C54.9021 95.116 54.8391 94.93 54.7131 94.786C54.5871 94.636 54.4311 94.519 54.2451 94.435C54.0591 94.351 53.8041 94.255 53.4801 94.147C53.0841 94.021 52.7601 93.895 52.5081 93.769C52.2621 93.643 52.0521 93.46 51.8781 93.22C51.7041 92.98 51.6171 92.665 51.6171 92.275C51.6171 91.933 51.7011 91.633 51.8691 91.375C52.0371 91.117 52.2771 90.919 52.5891 90.781C52.9011 90.637 53.2611 90.565 53.6691 90.565C54.3171 90.565 54.8301 90.721 55.2081 91.033C55.5921 91.345 55.8111 91.753 55.8651 92.257H54.7581C54.7161 92.017 54.6021 91.813 54.4161 91.645C54.2361 91.471 53.9871 91.384 53.6691 91.384C53.3811 91.384 53.1501 91.459 52.9761 91.609C52.8021 91.753 52.7151 91.963 52.7151 92.239C52.7151 92.455 52.7751 92.635 52.8951 92.779C53.0151 92.917 53.1651 93.028 53.3451 93.112C53.5311 93.19 53.7831 93.283 54.1011 93.391C54.5031 93.517 54.8301 93.646 55.0821 93.778C55.3401 93.904 55.5561 94.09 55.7301 94.336C55.9101 94.582 56.0001 94.906 56.0001 95.308ZM58.0533 90.646V97H57.0273V90.646H58.0533ZM64.7488 93.814C64.7488 94.456 64.6168 95.017 64.3528 95.497C64.0948 95.971 63.7138 96.34 63.2098 96.604C62.7118 96.868 62.1148 97 61.4188 97H59.2948V90.646H61.4188C62.1148 90.646 62.7118 90.778 63.2098 91.042C63.7138 91.3 64.0948 91.666 64.3528 92.14C64.6168 92.614 64.7488 93.172 64.7488 93.814ZM61.3378 96.073C62.0998 96.073 62.6848 95.875 63.0928 95.479C63.5008 95.083 63.7048 94.528 63.7048 93.814C63.7048 93.1 63.5008 92.545 63.0928 92.149C62.6848 91.753 62.0998 91.555 61.3378 91.555H60.3208V96.073H61.3378Z" fill="white"/>
<path d="M48.537 101.592C49.275 101.592 49.893 101.775 50.391 102.141C50.895 102.507 51.234 103.005 51.408 103.635H50.544C50.394 103.251 50.142 102.942 49.788 102.708C49.44 102.474 49.026 102.357 48.546 102.357C48.114 102.357 47.727 102.459 47.385 102.663C47.043 102.861 46.773 103.146 46.575 103.518C46.383 103.89 46.287 104.328 46.287 104.832C46.287 105.348 46.386 105.795 46.584 106.173C46.782 106.545 47.055 106.833 47.403 107.037C47.757 107.235 48.162 107.334 48.618 107.334C49.008 107.334 49.365 107.25 49.689 107.082C50.013 106.914 50.277 106.671 50.481 106.353C50.691 106.029 50.817 105.651 50.859 105.219H48.366V104.607H51.552V105.363C51.498 105.867 51.342 106.323 51.084 106.731C50.826 107.139 50.478 107.463 50.04 107.703C49.602 107.943 49.104 108.063 48.546 108.063C47.934 108.063 47.394 107.928 46.926 107.658C46.458 107.382 46.092 107.001 45.828 106.515C45.57 106.023 45.441 105.462 45.441 104.832C45.441 104.202 45.57 103.644 45.828 103.158C46.092 102.666 46.458 102.282 46.926 102.006C47.394 101.73 47.931 101.592 48.537 101.592ZM53.4809 102.321V104.49H55.8929V105.12H53.4809V107.334H56.1629V108H52.6619V101.655H56.1629V102.321H53.4809ZM61.7326 108.306V109.107H56.9446V108.306H61.7326ZM69.1057 101.763V108H68.2867V103.023L66.2977 108H65.5687L63.5707 103.041V108H62.7517V101.763H63.7327L65.9467 107.001L68.1247 101.763H69.1057ZM73.3228 101.574C73.9108 101.574 74.4388 101.712 74.9068 101.988C75.3808 102.264 75.7528 102.651 76.0228 103.149C76.2928 103.641 76.4278 104.199 76.4278 104.823C76.4278 105.447 76.2928 106.008 76.0228 106.506C75.7528 106.998 75.3808 107.382 74.9068 107.658C74.4388 107.934 73.9108 108.072 73.3228 108.072C72.7348 108.072 72.2008 107.934 71.7208 107.658C71.2468 107.382 70.8748 106.998 70.6048 106.506C70.3348 106.008 70.1998 105.447 70.1998 104.823C70.1998 104.199 70.3348 103.641 70.6048 103.149C70.8748 102.651 71.2468 102.264 71.7208 101.988C72.2008 101.712 72.7348 101.574 73.3228 101.574ZM73.3228 102.339C72.8848 102.339 72.4918 102.441 72.1438 102.645C71.8018 102.843 71.5318 103.131 71.3338 103.509C71.1418 103.881 71.0458 104.319 71.0458 104.823C71.0458 105.321 71.1418 105.759 71.3338 106.137C71.5318 106.515 71.8018 106.806 72.1438 107.01C72.4918 107.208 72.8848 107.307 73.3228 107.307C73.7548 107.307 74.1418 107.205 74.4838 107.001C74.8318 106.797 75.1018 106.509 75.2938 106.137C75.4918 105.759 75.5908 105.321 75.5908 104.823C75.5908 104.319 75.4918 103.881 75.2938 103.509C75.1018 103.131 74.8318 102.843 74.4838 102.645C74.1418 102.441 73.7548 102.339 73.3228 102.339ZM82.8809 104.823C82.8809 105.465 82.7519 106.026 82.4939 106.506C82.2359 106.98 81.8549 107.349 81.3509 107.613C80.8529 107.871 80.2529 108 79.5509 108H77.5349V101.655H79.5509C80.2529 101.655 80.8529 101.784 81.3509 102.042C81.8549 102.294 82.2359 102.66 82.4939 103.14C82.7519 103.614 82.8809 104.175 82.8809 104.823ZM79.4879 107.262C80.3159 107.262 80.9489 107.049 81.3869 106.623C81.8249 106.197 82.0439 105.597 82.0439 104.823C82.0439 104.049 81.8249 103.449 81.3869 103.023C80.9549 102.591 80.3219 102.375 79.4879 102.375H78.3539V107.262H79.4879ZM84.7601 101.655V105.462C84.7601 106.086 84.8981 106.548 85.1741 106.848C85.4501 107.142 85.8311 107.289 86.3171 107.289C86.7971 107.289 87.1721 107.139 87.4421 106.839C87.7121 106.539 87.8471 106.08 87.8471 105.462V101.655H88.6661V105.462C88.6661 106.326 88.4501 106.977 88.0181 107.415C87.5921 107.847 87.0191 108.063 86.2991 108.063C85.5851 108.063 85.0121 107.847 84.5801 107.415C84.1541 106.977 83.9411 106.326 83.9411 105.462V101.655H84.7601ZM90.7553 107.361H93.0053V108H89.9363V101.655H90.7553V107.361ZM94.6576 102.321V104.49H97.0696V105.12H94.6576V107.334H97.3396V108H93.8386V101.655H97.3396V102.321H94.6576ZM102.909 108.306V109.107H98.1214V108.306H102.909ZM107.465 108L105.872 105.489L104.423 108H103.478L105.413 104.769L103.442 101.655H104.423L105.98 104.121L107.438 101.655H108.383L106.439 104.832L108.437 108H107.465ZM112.809 108L111.216 105.489L109.767 108H108.822L110.757 104.769L108.786 101.655H109.767L111.324 104.121L112.782 101.655H113.727L111.783 104.832L113.781 108H112.809ZM118.153 108L116.56 105.489L115.111 108H114.166L116.101 104.769L114.13 101.655H115.111L116.668 104.121L118.126 101.655H119.071L117.127 104.832L119.125 108H118.153ZM123.497 108L121.904 105.489L120.455 108H119.51L121.445 104.769L119.474 101.655H120.455L122.012 104.121L123.47 101.655H124.415L122.471 104.832L124.469 108H123.497Z" fill="white"/>
<path d="M46.647 122.534V125H45.621V118.646H47.781C48.513 118.646 49.062 118.82 49.428 119.168C49.8 119.516 49.986 119.993 49.986 120.599C49.986 121.199 49.797 121.673 49.419 122.021C49.041 122.363 48.495 122.534 47.781 122.534H46.647ZM47.673 121.697C48.519 121.697 48.942 121.331 48.942 120.599C48.942 120.239 48.84 119.966 48.636 119.78C48.438 119.588 48.117 119.492 47.673 119.492H46.647V121.697H47.673ZM54.6746 123.623H51.9926L51.5066 125H50.4086L52.7486 118.745H53.9276L56.2586 125H55.1606L54.6746 123.623ZM54.3866 122.831L53.3336 119.861L52.2806 122.831H54.3866ZM61.1964 123.308C61.1964 123.62 61.1214 123.911 60.9714 124.181C60.8214 124.445 60.5934 124.658 60.2874 124.82C59.9814 124.982 59.6064 125.063 59.1624 125.063C58.7304 125.063 58.3434 124.988 58.0014 124.838C57.6594 124.682 57.3864 124.466 57.1824 124.19C56.9784 123.914 56.8614 123.596 56.8314 123.236H57.9294C57.9594 123.512 58.0764 123.749 58.2804 123.947C58.4904 124.145 58.7694 124.244 59.1174 124.244C59.4294 124.244 59.6694 124.16 59.8374 123.992C60.0114 123.824 60.0984 123.608 60.0984 123.344C60.0984 123.116 60.0354 122.93 59.9094 122.786C59.7834 122.636 59.6274 122.519 59.4414 122.435C59.2554 122.351 59.0004 122.255 58.6764 122.147C58.2804 122.021 57.9564 121.895 57.7044 121.769C57.4584 121.643 57.2484 121.46 57.0744 121.22C56.9004 120.98 56.8134 120.665 56.8134 120.275C56.8134 119.933 56.8974 119.633 57.0654 119.375C57.2334 119.117 57.4734 118.919 57.7854 118.781C58.0974 118.637 58.4574 118.565 58.8654 118.565C59.5134 118.565 60.0264 118.721 60.4044 119.033C60.7884 119.345 61.0074 119.753 61.0614 120.257H59.9544C59.9124 120.017 59.7984 119.813 59.6124 119.645C59.4324 119.471 59.1834 119.384 58.8654 119.384C58.5774 119.384 58.3464 119.459 58.1724 119.609C57.9984 119.753 57.9114 119.963 57.9114 120.239C57.9114 120.455 57.9714 120.635 58.0914 120.779C58.2114 120.917 58.3614 121.028 58.5414 121.112C58.7274 121.19 58.9794 121.283 59.2974 121.391C59.6994 121.517 60.0264 121.646 60.2784 121.778C60.5364 121.904 60.7524 122.09 60.9264 122.336C61.1064 122.582 61.1964 122.906 61.1964 123.308ZM66.3995 123.308C66.3995 123.62 66.3245 123.911 66.1745 124.181C66.0245 124.445 65.7965 124.658 65.4905 124.82C65.1845 124.982 64.8095 125.063 64.3655 125.063C63.9335 125.063 63.5465 124.988 63.2045 124.838C62.8625 124.682 62.5895 124.466 62.3855 124.19C62.1815 123.914 62.0645 123.596 62.0345 123.236H63.1325C63.1625 123.512 63.2795 123.749 63.4835 123.947C63.6935 124.145 63.9725 124.244 64.3205 124.244C64.6325 124.244 64.8725 124.16 65.0405 123.992C65.2145 123.824 65.3015 123.608 65.3015 123.344C65.3015 123.116 65.2385 122.93 65.1125 122.786C64.9865 122.636 64.8305 122.519 64.6445 122.435C64.4585 122.351 64.2035 122.255 63.8795 122.147C63.4835 122.021 63.1595 121.895 62.9075 121.769C62.6615 121.643 62.4515 121.46 62.2775 121.22C62.1035 120.98 62.0165 120.665 62.0165 120.275C62.0165 119.933 62.1005 119.633 62.2685 119.375C62.4365 119.117 62.6765 118.919 62.9885 118.781C63.3005 118.637 63.6605 118.565 64.0685 118.565C64.7165 118.565 65.2295 118.721 65.6075 119.033C65.9915 119.345 66.2105 119.753 66.2645 120.257H65.1575C65.1155 120.017 65.0015 119.813 64.8155 119.645C64.6355 119.471 64.3865 119.384 64.0685 119.384C63.7805 119.384 63.5495 119.459 63.3755 119.609C63.2015 119.753 63.1145 119.963 63.1145 120.239C63.1145 120.455 63.1745 120.635 63.2945 120.779C63.4145 120.917 63.5645 121.028 63.7445 121.112C63.9305 121.19 64.1825 121.283 64.5005 121.391C64.9025 121.517 65.2295 121.646 65.4815 121.778C65.7395 121.904 65.9555 122.09 66.1295 122.336C66.3095 122.582 66.3995 122.906 66.3995 123.308ZM75.4727 118.646L73.8887 125H72.6287L71.2877 120.086L69.9467 125H68.6867L67.1027 118.646H68.2277L69.3257 123.812L70.7207 118.646H71.8547L73.2497 123.812L74.3477 118.646H75.4727ZM79.3345 118.565C79.9225 118.565 80.4535 118.703 80.9275 118.979C81.4075 119.255 81.7825 119.642 82.0525 120.14C82.3285 120.632 82.4665 121.19 82.4665 121.814C82.4665 122.438 82.3285 122.999 82.0525 123.497C81.7825 123.989 81.4075 124.376 80.9275 124.658C80.4535 124.934 79.9225 125.072 79.3345 125.072C78.7405 125.072 78.2035 124.934 77.7235 124.658C77.2495 124.376 76.8745 123.989 76.5985 123.497C76.3225 122.999 76.1845 122.438 76.1845 121.814C76.1845 121.19 76.3225 120.632 76.5985 120.14C76.8745 119.642 77.2495 119.255 77.7235 118.979C78.2035 118.703 78.7405 118.565 79.3345 118.565ZM79.3345 119.519C78.9265 119.519 78.5635 119.612 78.2455 119.798C77.9275 119.984 77.6785 120.251 77.4985 120.599C77.3245 120.947 77.2375 121.352 77.2375 121.814C77.2375 122.276 77.3245 122.681 77.4985 123.029C77.6785 123.377 77.9275 123.644 78.2455 123.83C78.5635 124.016 78.9265 124.109 79.3345 124.109C79.7365 124.109 80.0935 124.016 80.4055 123.83C80.7235 123.644 80.9695 123.377 81.1435 123.029C81.3235 122.681 81.4135 122.276 81.4135 121.814C81.4135 121.352 81.3235 120.947 81.1435 120.599C80.9695 120.251 80.7235 119.984 80.4055 119.798C80.0935 119.612 79.7365 119.519 79.3345 119.519ZM86.8409 125L85.2569 122.462H84.5279V125H83.5019V118.646H85.7429C86.4689 118.646 87.0179 118.823 87.3899 119.177C87.7679 119.531 87.9569 119.999 87.9569 120.581C87.9569 121.079 87.8159 121.487 87.5339 121.805C87.2579 122.123 86.8559 122.327 86.3279 122.417L87.9929 125H86.8409ZM84.5279 121.733H85.6619C86.4899 121.733 86.9039 121.367 86.9039 120.635C86.9039 120.287 86.8019 120.017 86.5979 119.825C86.3999 119.627 86.0879 119.528 85.6619 119.528H84.5279V121.733ZM94.3348 121.814C94.3348 122.456 94.2028 123.017 93.9388 123.497C93.6808 123.971 93.2998 124.34 92.7958 124.604C92.2978 124.868 91.7008 125 91.0048 125H88.8808V118.646H91.0048C91.7008 118.646 92.2978 118.778 92.7958 119.042C93.2998 119.3 93.6808 119.666 93.9388 120.14C94.2028 120.614 94.3348 121.172 94.3348 121.814ZM90.9238 124.073C91.6858 124.073 92.2708 123.875 92.6788 123.479C93.0868 123.083 93.2908 122.528 93.2908 121.814C93.2908 121.1 93.0868 120.545 92.6788 120.149C92.2708 119.753 91.6858 119.555 90.9238 119.555H89.9068V124.073H90.9238Z" fill="white"/>
<path d="M49.194 138L47.601 135.489L46.152 138H45.207L47.142 134.769L45.171 131.655H46.152L47.709 134.121L49.167 131.655H50.112L48.168 134.832L50.166 138H49.194ZM54.5378 138L52.9448 135.489L51.4958 138H50.5508L52.4858 134.769L50.5148 131.655H51.4958L53.0528 134.121L54.5108 131.655H55.4558L53.5118 134.832L55.5098 138H54.5378ZM59.8815 138L58.2885 135.489L56.8395 138H55.8945L57.8295 134.769L55.8585 131.655H56.8395L58.3965 134.121L59.8545 131.655H60.7995L58.8555 134.832L60.8535 138H59.8815ZM65.2253 138L63.6323 135.489L62.1833 138H61.2383L63.1733 134.769L61.2023 131.655H62.1833L63.7403 134.121L65.1983 131.655H66.1433L64.1993 134.832L66.1973 138H65.2253ZM70.569 138L68.976 135.489L67.527 138H66.582L68.517 134.769L66.546 131.655H67.527L69.084 134.121L70.542 131.655H71.487L69.543 134.832L71.541 138H70.569ZM75.9128 138L74.3198 135.489L72.8708 138H71.9258L73.8608 134.769L71.8898 131.655H72.8708L74.4278 134.121L75.8858 131.655H76.8308L74.8868 134.832L76.8848 138H75.9128ZM81.2565 138L79.6635 135.489L78.2145 138H77.2695L79.2045 134.769L77.2335 131.655H78.2145L79.7715 134.121L81.2295 131.655H82.1745L80.2305 134.832L82.2285 138H81.2565ZM86.6003 138L85.0073 135.489L83.5583 138H82.6133L84.5483 134.769L82.5773 131.655H83.5583L85.1153 134.121L86.5733 131.655H87.5183L85.5743 134.832L87.5723 138H86.6003Z" fill="white"/>
<path opacity="0.25" d="M167.348 113.28C167.871 113.28 168.343 113.403 168.764 113.648C169.191 113.893 169.524 114.237 169.764 114.68C170.009 115.117 170.132 115.613 170.132 116.168C170.132 116.723 170.009 117.221 169.764 117.664C169.524 118.101 169.191 118.445 168.764 118.696C168.343 118.941 167.871 119.064 167.348 119.064C166.82 119.064 166.343 118.941 165.916 118.696C165.495 118.445 165.161 118.101 164.916 117.664C164.671 117.221 164.548 116.723 164.548 116.168C164.548 115.613 164.671 115.117 164.916 114.68C165.161 114.237 165.495 113.893 165.916 113.648C166.343 113.403 166.82 113.28 167.348 113.28ZM167.348 114.128C166.985 114.128 166.663 114.211 166.38 114.376C166.097 114.541 165.876 114.779 165.716 115.088C165.561 115.397 165.484 115.757 165.484 116.168C165.484 116.579 165.561 116.939 165.716 117.248C165.876 117.557 166.097 117.795 166.38 117.96C166.663 118.125 166.985 118.208 167.348 118.208C167.705 118.208 168.023 118.125 168.3 117.96C168.583 117.795 168.801 117.557 168.956 117.248C169.116 116.939 169.196 116.579 169.196 116.168C169.196 115.757 169.116 115.397 168.956 115.088C168.801 114.779 168.583 114.541 168.3 114.376C168.023 114.211 167.705 114.128 167.348 114.128ZM175.62 119H174.708L171.964 114.832V119H171.052V113.36H171.964L174.708 117.544V113.36H175.62V119ZM179.228 111.448L177.052 120.408H176.164L178.34 111.448H179.228ZM182.364 113.28C182.886 113.28 183.358 113.403 183.78 113.648C184.206 113.893 184.54 114.237 184.78 114.68C185.025 115.117 185.148 115.613 185.148 116.168C185.148 116.723 185.025 117.221 184.78 117.664C184.54 118.101 184.206 118.445 183.78 118.696C183.358 118.941 182.886 119.064 182.364 119.064C181.836 119.064 181.358 118.941 180.932 118.696C180.51 118.445 180.177 118.101 179.932 117.664C179.686 117.221 179.564 116.723 179.564 116.168C179.564 115.613 179.686 115.117 179.932 114.68C180.177 114.237 180.51 113.893 180.932 113.648C181.358 113.403 181.836 113.28 182.364 113.28ZM182.364 114.128C182.001 114.128 181.678 114.211 181.396 114.376C181.113 114.541 180.892 114.779 180.732 115.088C180.577 115.397 180.5 115.757 180.5 116.168C180.5 116.579 180.577 116.939 180.732 117.248C180.892 117.557 181.113 117.795 181.396 117.96C181.678 118.125 182.001 118.208 182.364 118.208C182.721 118.208 183.038 118.125 183.316 117.96C183.598 117.795 183.817 117.557 183.972 117.248C184.132 116.939 184.212 116.579 184.212 116.168C184.212 115.757 184.132 115.397 183.972 115.088C183.817 114.779 183.598 114.541 183.316 114.376C183.038 114.211 182.721 114.128 182.364 114.128ZM189.404 113.352V114.088H186.98V115.84H188.98V116.544H186.98V119H186.068V113.352H189.404ZM193.552 113.352V114.088H191.128V115.84H193.128V116.544H191.128V119H190.216V113.352H193.552Z" fill="white"/>
<path d="M52.5 183.5C59.1274 183.5 64.5 178.127 64.5 171.5C64.5 164.873 59.1274 159.5 52.5 159.5C45.8726 159.5 40.5 164.873 40.5 171.5C40.5 178.127 45.8726 183.5 52.5 183.5Z" stroke="white"/>
<path d="M52.4999 180.283C57.3504 180.283 61.2825 176.351 61.2825 171.5C61.2825 166.649 57.3504 162.717 52.4999 162.717C47.6494 162.717 43.7173 166.649 43.7173 171.5C43.7173 176.351 47.6494 180.283 52.4999 180.283Z" stroke="white" stroke-width="2"/>
<path d="M122.5 182.5C129.127 182.5 134.5 177.127 134.5 170.5C134.5 163.873 129.127 158.5 122.5 158.5C115.873 158.5 110.5 163.873 110.5 170.5C110.5 177.127 115.873 182.5 122.5 182.5Z" stroke="white"/>
<path d="M122.5 179.283C127.35 179.283 131.283 175.351 131.283 170.5C131.283 165.649 127.35 161.717 122.5 161.717C117.649 161.717 113.717 165.649 113.717 170.5C113.717 175.351 117.649 179.283 122.5 179.283Z" stroke="white" stroke-width="2"/>
<path d="M192.5 182.5C199.127 182.5 204.5 177.127 204.5 170.5C204.5 163.873 199.127 158.5 192.5 158.5C185.873 158.5 180.5 163.873 180.5 170.5C180.5 177.127 185.873 182.5 192.5 182.5Z" stroke="white"/>
<path d="M192.5 179.283C197.35 179.283 201.283 175.351 201.283 170.5C201.283 165.649 197.35 161.717 192.5 161.717C187.649 161.717 183.717 165.649 183.717 170.5C183.717 175.351 187.649 179.283 192.5 179.283Z" stroke="white" stroke-width="2"/>
<path d="M104.5 113H43.5C41.2909 113 39.5 114.791 39.5 117V137C39.5 139.209 41.2909 141 43.5 141H104.5C106.709 141 108.5 139.209 108.5 137V117C108.5 114.791 106.709 113 104.5 113Z" stroke="#FDBA12" stroke-width="2"/>
</svg>
