<svg width="90" height="72" viewBox="0 0 90 72" fill="none" xmlns="http://www.w3.org/2000/svg">
<path d="M31.4596 9.628C31.4596 10.912 31.1956 12.034 30.6676 12.994C30.1516 13.942 29.3896 14.68 28.3816 15.208C27.3856 15.736 26.1916 16 24.7996 16H20.5516V3.292H24.7996C26.1916 3.292 27.3856 3.556 28.3816 4.084C29.3896 4.6 30.1516 5.332 30.6676 6.28C31.1956 7.228 31.4596 8.344 31.4596 9.628ZM24.6376 14.146C26.1616 14.146 27.3316 13.75 28.1476 12.958C28.9636 12.166 29.3716 11.056 29.3716 9.628C29.3716 8.2 28.9636 7.09 28.1476 6.298C27.3316 5.506 26.1616 5.11 24.6376 5.11H22.6036V14.146H24.6376ZM42.7402 10.564C42.7402 10.9 42.7162 11.194 42.6682 11.446H35.0362C35.0722 12.466 35.3542 13.222 35.8822 13.714C36.4102 14.206 37.0642 14.452 37.8442 14.452C38.5282 14.452 39.1042 14.278 39.5722 13.93C40.0522 13.582 40.3462 13.12 40.4542 12.544H42.6502C42.5182 13.24 42.2422 13.858 41.8222 14.398C41.4022 14.938 40.8562 15.364 40.1842 15.676C39.5122 15.976 38.7622 16.126 37.9342 16.126C36.9742 16.126 36.1222 15.922 35.3782 15.514C34.6462 15.106 34.0702 14.518 33.6502 13.75C33.2302 12.982 33.0202 12.076 33.0202 11.032C33.0202 10 33.2302 9.1 33.6502 8.332C34.0702 7.564 34.6462 6.976 35.3782 6.568C36.1222 6.16 36.9742 5.956 37.9342 5.956C38.9062 5.956 39.7522 6.16 40.4722 6.568C41.2042 6.964 41.7622 7.516 42.1462 8.224C42.5422 8.92 42.7402 9.7 42.7402 10.564ZM40.6702 10.51C40.6942 9.862 40.5802 9.322 40.3282 8.89C40.0882 8.446 39.7522 8.122 39.3202 7.918C38.9002 7.702 38.4382 7.594 37.9342 7.594C37.1302 7.594 36.4582 7.84 35.9182 8.332C35.3782 8.824 35.0842 9.55 35.0362 10.51H40.6702ZM46.7735 2.68V16H44.7215V2.68H46.7735ZM53.2346 5.956C54.1346 5.956 54.9026 6.178 55.5386 6.622C56.1746 7.066 56.6246 7.654 56.8886 8.386V6.082H58.9406V16H56.8886V13.696C56.6246 14.428 56.1746 15.016 55.5386 15.46C54.9026 15.904 54.1346 16.126 53.2346 16.126C52.3706 16.126 51.5966 15.922 50.9126 15.514C50.2406 15.106 49.7126 14.518 49.3286 13.75C48.9446 12.982 48.7526 12.076 48.7526 11.032C48.7526 10 48.9446 9.1 49.3286 8.332C49.7126 7.564 50.2406 6.976 50.9126 6.568C51.5966 6.16 52.3706 5.956 53.2346 5.956ZM53.8646 7.756C52.9526 7.756 52.2206 8.05 51.6686 8.638C51.1286 9.214 50.8586 10.012 50.8586 11.032C50.8586 12.052 51.1286 12.856 51.6686 13.444C52.2206 14.02 52.9526 14.308 53.8646 14.308C54.4406 14.308 54.9566 14.176 55.4126 13.912C55.8686 13.636 56.2286 13.252 56.4926 12.76C56.7566 12.268 56.8886 11.692 56.8886 11.032C56.8886 10.384 56.7566 9.814 56.4926 9.322C56.2286 8.818 55.8686 8.434 55.4126 8.17C54.9566 7.894 54.4406 7.756 53.8646 7.756ZM62.5731 6.082L65.5431 13.372L68.2971 6.082H70.5831L64.5891 20.716H62.3031L64.4451 15.766L60.2691 6.082H62.5731ZM32.3622 23.292V24.948H28.8162V36H26.7462V24.948H23.2182V23.292H32.3622ZM33.6054 23.202C33.6054 22.854 33.7254 22.566 33.9654 22.338C34.2054 22.11 34.5234 21.996 34.9194 21.996C35.3154 21.996 35.6334 22.11 35.8734 22.338C36.1254 22.566 36.2514 22.854 36.2514 23.202C36.2514 23.55 36.1254 23.832 35.8734 24.048C35.6334 24.264 35.3154 24.372 34.9194 24.372C34.5234 24.372 34.2054 24.264 33.9654 24.048C33.7254 23.832 33.6054 23.55 33.6054 23.202ZM35.9454 26.082V36H33.8934V26.082H35.9454ZM50.8305 25.92C52.0065 25.92 52.9425 26.292 53.6385 27.036C54.3465 27.78 54.7005 28.842 54.7005 30.222V36H52.6485V30.438C52.6485 29.574 52.4325 28.908 52.0005 28.44C51.5685 27.96 50.9745 27.72 50.2185 27.72C49.4145 27.72 48.7725 27.978 48.2925 28.494C47.8245 28.998 47.5905 29.742 47.5905 30.726V36H45.5385V30.438C45.5385 29.574 45.3225 28.908 44.8905 28.44C44.4585 27.96 43.8645 27.72 43.1085 27.72C42.3045 27.72 41.6625 27.978 41.1825 28.494C40.7145 28.998 40.4805 29.742 40.4805 30.726V36H38.4285V26.082H40.4805V28.152C40.7325 27.432 41.1525 26.88 41.7405 26.496C42.3285 26.112 43.0185 25.92 43.8105 25.92C44.6385 25.92 45.3525 26.124 45.9525 26.532C46.5645 26.94 47.0085 27.528 47.2845 28.296C47.5725 27.552 48.0345 26.97 48.6705 26.55C49.3065 26.13 50.0265 25.92 50.8305 25.92ZM66.3125 30.564C66.3125 30.9 66.2885 31.194 66.2405 31.446H58.6085C58.6445 32.466 58.9265 33.222 59.4545 33.714C59.9825 34.206 60.6365 34.452 61.4165 34.452C62.1005 34.452 62.6765 34.278 63.1445 33.93C63.6245 33.582 63.9185 33.12 64.0265 32.544H66.2225C66.0905 33.24 65.8145 33.858 65.3945 34.398C64.9745 34.938 64.4285 35.364 63.7565 35.676C63.0845 35.976 62.3345 36.126 61.5065 36.126C60.5465 36.126 59.6945 35.922 58.9505 35.514C58.2185 35.106 57.6425 34.518 57.2225 33.75C56.8025 32.982 56.5925 32.076 56.5925 31.032C56.5925 30 56.8025 29.1 57.2225 28.332C57.6425 27.564 58.2185 26.976 58.9505 26.568C59.6945 26.16 60.5465 25.956 61.5065 25.956C62.4785 25.956 63.3245 26.16 64.0445 26.568C64.7765 26.964 65.3345 27.516 65.7185 28.224C66.1145 28.92 66.3125 29.7 66.3125 30.564ZM64.2425 30.51C64.2665 29.862 64.1525 29.322 63.9005 28.89C63.6605 28.446 63.3245 28.122 62.8925 27.918C62.4725 27.702 62.0105 27.594 61.5065 27.594C60.7025 27.594 60.0305 27.84 59.4905 28.332C58.9505 28.824 58.6565 29.55 58.6085 30.51H64.2425Z" fill="white"/>
<path d="M16.7155 49.54L14.5675 58H13.2355L11.2795 51.088L9.32355 58H7.99155L5.83155 49.54H7.04355L8.66355 56.728L10.6675 49.54H11.8795L13.8835 56.704L15.5155 49.54H16.7155ZM17.8031 49.48C17.8031 49.28 17.8711 49.12 18.0071 49C18.1431 48.872 18.3231 48.808 18.5471 48.808C18.7711 48.808 18.9511 48.872 19.0871 49C19.2231 49.12 19.2911 49.28 19.2911 49.48C19.2911 49.68 19.2231 49.844 19.0871 49.972C18.9511 50.092 18.7711 50.152 18.5471 50.152C18.3231 50.152 18.1431 50.092 18.0071 49.972C17.8711 49.844 17.8031 49.68 17.8031 49.48ZM19.0871 51.412V58H17.9951V51.412H19.0871ZM25.6308 49.54V50.428H21.9348V53.356H25.0668V54.208H21.9348V58H20.8428V49.54H25.6308ZM26.7328 49.48C26.7328 49.28 26.8008 49.12 26.9368 49C27.0728 48.872 27.2528 48.808 27.4768 48.808C27.7008 48.808 27.8808 48.872 28.0168 49C28.1528 49.12 28.2208 49.28 28.2208 49.48C28.2208 49.68 28.1528 49.844 28.0168 49.972C27.8808 50.092 27.7008 50.152 27.4768 50.152C27.2528 50.152 27.0728 50.092 26.9368 49.972C26.8008 49.844 26.7328 49.68 26.7328 49.48ZM28.0168 51.412V58H26.9248V51.412H28.0168ZM36.4813 49.456C37.5133 49.456 38.3653 49.712 39.0373 50.224C39.7093 50.728 40.1733 51.42 40.4293 52.3H39.2773C39.0613 51.74 38.7133 51.296 38.2333 50.968C37.7533 50.632 37.1653 50.464 36.4693 50.464C35.9173 50.464 35.4213 50.6 34.9813 50.872C34.5493 51.136 34.2053 51.52 33.9493 52.024C33.7013 52.52 33.5773 53.104 33.5773 53.776C33.5773 54.44 33.7013 55.02 33.9493 55.516C34.2053 56.012 34.5493 56.396 34.9813 56.668C35.4213 56.932 35.9173 57.064 36.4693 57.064C37.1653 57.064 37.7533 56.9 38.2333 56.572C38.7133 56.236 39.0613 55.788 39.2773 55.228H40.4293C40.1733 56.108 39.7093 56.804 39.0373 57.316C38.3653 57.82 37.5133 58.072 36.4813 58.072C35.6893 58.072 34.9893 57.892 34.3813 57.532C33.7733 57.164 33.2973 56.656 32.9533 56.008C32.6173 55.352 32.4493 54.608 32.4493 53.776C32.4493 52.936 32.6173 52.188 32.9533 51.532C33.2973 50.876 33.7733 50.368 34.3813 50.008C34.9893 49.64 35.6893 49.456 36.4813 49.456ZM44.8777 51.328C45.5097 51.328 46.0737 51.464 46.5697 51.736C47.0737 52.008 47.4657 52.4 47.7457 52.912C48.0337 53.424 48.1777 54.024 48.1777 54.712C48.1777 55.4 48.0337 56 47.7457 56.512C47.4657 57.016 47.0737 57.404 46.5697 57.676C46.0737 57.948 45.5097 58.084 44.8777 58.084C44.2457 58.084 43.6777 57.948 43.1737 57.676C42.6777 57.404 42.2857 57.016 41.9977 56.512C41.7097 56 41.5657 55.4 41.5657 54.712C41.5657 54.024 41.7097 53.424 41.9977 52.912C42.2857 52.4 42.6777 52.008 43.1737 51.736C43.6777 51.464 44.2457 51.328 44.8777 51.328ZM44.8777 52.288C44.4857 52.288 44.1217 52.376 43.7857 52.552C43.4577 52.728 43.1897 53 42.9817 53.368C42.7817 53.728 42.6817 54.176 42.6817 54.712C42.6817 55.24 42.7817 55.688 42.9817 56.056C43.1897 56.416 43.4577 56.684 43.7857 56.86C44.1217 57.036 44.4857 57.124 44.8777 57.124C45.2697 57.124 45.6297 57.036 45.9577 56.86C46.2937 56.684 46.5617 56.416 46.7617 56.056C46.9697 55.688 47.0737 55.24 47.0737 54.712C47.0737 54.176 46.9697 53.728 46.7617 53.368C46.5617 53 46.2937 52.728 45.9577 52.552C45.6297 52.376 45.2697 52.288 44.8777 52.288ZM53.0686 51.304C53.8366 51.304 54.4566 51.552 54.9286 52.048C55.4006 52.536 55.6366 53.244 55.6366 54.172V58H54.5446V54.268C54.5446 53.612 54.3766 53.108 54.0406 52.756C53.7046 52.404 53.2486 52.228 52.6726 52.228C52.0726 52.228 51.5926 52.424 51.2326 52.816C50.8726 53.2 50.6926 53.764 50.6926 54.508V58H49.6006V51.412H50.6926V52.972C50.8606 52.436 51.1566 52.024 51.5806 51.736C52.0126 51.448 52.5086 51.304 53.0686 51.304ZM60.7795 51.304C61.5475 51.304 62.1675 51.552 62.6395 52.048C63.1115 52.536 63.3475 53.244 63.3475 54.172V58H62.2555V54.268C62.2555 53.612 62.0875 53.108 61.7515 52.756C61.4155 52.404 60.9595 52.228 60.3835 52.228C59.7835 52.228 59.3035 52.424 58.9435 52.816C58.5835 53.2 58.4035 53.764 58.4035 54.508V58H57.3115V51.412H58.4035V52.972C58.5715 52.436 58.8675 52.024 59.2915 51.736C59.7235 51.448 60.2195 51.304 60.7795 51.304ZM71.0825 54.34C71.0825 54.572 71.0665 54.772 71.0345 54.94H65.7665C65.7905 55.692 66.0025 56.256 66.4025 56.632C66.8105 57.008 67.3065 57.196 67.8905 57.196C68.4185 57.196 68.8585 57.064 69.2105 56.8C69.5705 56.528 69.7905 56.168 69.8705 55.72H71.0345C70.9545 56.176 70.7745 56.584 70.4945 56.944C70.2225 57.304 69.8665 57.584 69.4265 57.784C68.9865 57.984 68.4905 58.084 67.9385 58.084C67.3065 58.084 66.7465 57.948 66.2585 57.676C65.7705 57.404 65.3865 57.016 65.1065 56.512C64.8345 56 64.6985 55.4 64.6985 54.712C64.6985 54.024 64.8345 53.424 65.1065 52.912C65.3865 52.4 65.7705 52.008 66.2585 51.736C66.7465 51.464 67.3065 51.328 67.9385 51.328C68.5785 51.328 69.1345 51.464 69.6065 51.736C70.0865 52.008 70.4505 52.372 70.6985 52.828C70.9545 53.284 71.0825 53.788 71.0825 54.34ZM69.9785 54.412C70.0025 53.924 69.9225 53.516 69.7385 53.188C69.5545 52.86 69.3025 52.616 68.9825 52.456C68.6625 52.296 68.3145 52.216 67.9385 52.216C67.3385 52.216 66.8345 52.404 66.4265 52.78C66.0185 53.148 65.7985 53.692 65.7665 54.412H69.9785ZM75.4268 51.328C76.2668 51.328 76.9628 51.552 77.5148 52C78.0668 52.448 78.4068 53.048 78.5348 53.8H77.3828C77.3028 53.328 77.0828 52.96 76.7228 52.696C76.3708 52.424 75.9308 52.288 75.4028 52.288C75.0188 52.288 74.6668 52.376 74.3468 52.552C74.0348 52.728 73.7828 53 73.5908 53.368C73.3988 53.728 73.3028 54.176 73.3028 54.712C73.3028 55.248 73.3988 55.7 73.5908 56.068C73.7828 56.428 74.0348 56.696 74.3468 56.872C74.6668 57.048 75.0188 57.136 75.4028 57.136C75.9308 57.136 76.3708 57 76.7228 56.728C77.0828 56.456 77.3028 56.084 77.3828 55.612H78.5348C78.4068 56.372 78.0668 56.976 77.5148 57.424C76.9628 57.864 76.2668 58.084 75.4268 58.084C74.7948 58.084 74.2348 57.948 73.7468 57.676C73.2588 57.404 72.8748 57.016 72.5948 56.512C72.3228 56 72.1868 55.4 72.1868 54.712C72.1868 54.024 72.3228 53.424 72.5948 52.912C72.8748 52.4 73.2588 52.008 73.7468 51.736C74.2348 51.464 74.7948 51.328 75.4268 51.328ZM83.1079 57.04V58H82.2919C81.6199 58 81.1159 57.84 80.7799 57.52C80.4519 57.2 80.2879 56.664 80.2879 55.912V52.36H79.3039V51.412H80.2879V49.768H81.3919V51.412H83.0959V52.36H81.3919V55.936C81.3919 56.36 81.4679 56.652 81.6199 56.812C81.7799 56.964 82.0519 57.04 82.4359 57.04H83.1079ZM21.0477 61.54V70H19.9437V66.088H15.6477V70H14.5557V61.54H15.6477V65.2H19.9437V61.54H21.0477ZM25.782 63.328C26.414 63.328 26.978 63.464 27.474 63.736C27.978 64.008 28.37 64.4 28.65 64.912C28.938 65.424 29.082 66.024 29.082 66.712C29.082 67.4 28.938 68 28.65 68.512C28.37 69.016 27.978 69.404 27.474 69.676C26.978 69.948 26.414 70.084 25.782 70.084C25.15 70.084 24.582 69.948 24.078 69.676C23.582 69.404 23.19 69.016 22.902 68.512C22.614 68 22.47 67.4 22.47 66.712C22.47 66.024 22.614 65.424 22.902 64.912C23.19 64.4 23.582 64.008 24.078 63.736C24.582 63.464 25.15 63.328 25.782 63.328ZM25.782 64.288C25.39 64.288 25.026 64.376 24.69 64.552C24.362 64.728 24.094 65 23.886 65.368C23.686 65.728 23.586 66.176 23.586 66.712C23.586 67.24 23.686 67.688 23.886 68.056C24.094 68.416 24.362 68.684 24.69 68.86C25.026 69.036 25.39 69.124 25.782 69.124C26.174 69.124 26.534 69.036 26.862 68.86C27.198 68.684 27.466 68.416 27.666 68.056C27.874 67.688 27.978 67.24 27.978 66.712C27.978 66.176 27.874 65.728 27.666 65.368C27.466 65 27.198 64.728 26.862 64.552C26.534 64.376 26.174 64.288 25.782 64.288ZM31.5969 61.12V70H30.5049V61.12H31.5969ZM36.0526 63.328C36.6926 63.328 37.2326 63.488 37.6726 63.808C38.1206 64.128 38.4326 64.556 38.6086 65.092V61.12H39.7006V70H38.6086V68.32C38.4326 68.856 38.1206 69.284 37.6726 69.604C37.2326 69.924 36.6926 70.084 36.0526 70.084C35.4686 70.084 34.9486 69.948 34.4926 69.676C34.0366 69.404 33.6766 69.016 33.4126 68.512C33.1566 68 33.0286 67.4 33.0286 66.712C33.0286 66.024 33.1566 65.424 33.4126 64.912C33.6766 64.4 34.0366 64.008 34.4926 63.736C34.9486 63.464 35.4686 63.328 36.0526 63.328ZM36.3646 64.3C35.6926 64.3 35.1526 64.516 34.7446 64.948C34.3446 65.372 34.1446 65.96 34.1446 66.712C34.1446 67.464 34.3446 68.056 34.7446 68.488C35.1526 68.912 35.6926 69.124 36.3646 69.124C36.7966 69.124 37.1806 69.024 37.5166 68.824C37.8606 68.624 38.1286 68.344 38.3206 67.984C38.5126 67.616 38.6086 67.192 38.6086 66.712C38.6086 66.232 38.5126 65.808 38.3206 65.44C38.1286 65.072 37.8606 64.792 37.5166 64.6C37.1806 64.4 36.7966 64.3 36.3646 64.3ZM47.1153 61.312C47.6593 61.312 48.1273 61.408 48.5193 61.6C48.9113 61.792 49.2073 62.056 49.4073 62.392C49.6073 62.728 49.7073 63.108 49.7073 63.532C49.7073 64.06 49.5513 64.504 49.2393 64.864C48.9353 65.224 48.4873 65.44 47.8953 65.512V65.584C48.5113 65.744 48.9913 65.992 49.3353 66.328C49.6873 66.664 49.8633 67.128 49.8633 67.72C49.8633 68.416 49.6313 68.984 49.1673 69.424C48.7033 69.864 48.0353 70.084 47.1633 70.084C46.2913 70.084 45.5833 69.86 45.0393 69.412C44.5033 68.956 44.1873 68.292 44.0913 67.42H45.1713C45.2433 67.948 45.4433 68.368 45.7713 68.68C46.1073 68.992 46.5593 69.148 47.1273 69.148C47.6633 69.148 48.0753 69.012 48.3633 68.74C48.6513 68.46 48.7953 68.1 48.7953 67.66C48.7953 67.132 48.5873 66.732 48.1713 66.46C47.7633 66.18 47.1793 66.04 46.4193 66.04H46.1313V65.128H46.4193C47.8913 65.128 48.6273 64.636 48.6273 63.652C48.6273 63.22 48.4913 62.876 48.2193 62.62C47.9473 62.364 47.5713 62.236 47.0913 62.236C46.6113 62.236 46.2073 62.376 45.8793 62.656C45.5513 62.928 45.3593 63.332 45.3033 63.868H44.2353C44.2913 63.068 44.5673 62.444 45.0633 61.996C45.5673 61.54 46.2513 61.312 47.1153 61.312ZM59.7866 67.804C59.7866 68.204 59.6906 68.576 59.4986 68.92C59.3066 69.264 59.0146 69.544 58.6226 69.76C58.2306 69.976 57.7466 70.084 57.1706 70.084C56.6106 70.084 56.1106 69.984 55.6706 69.784C55.2386 69.576 54.8906 69.296 54.6266 68.944C54.3706 68.584 54.2226 68.176 54.1826 67.72H55.3466C55.3706 67.96 55.4506 68.196 55.5866 68.428C55.7306 68.652 55.9306 68.84 56.1866 68.992C56.4506 69.136 56.7666 69.208 57.1346 69.208C57.6146 69.208 57.9826 69.08 58.2386 68.824C58.4946 68.568 58.6226 68.24 58.6226 67.84C58.6226 67.496 58.5306 67.216 58.3466 67C58.1706 66.784 57.9506 66.616 57.6866 66.496C57.4226 66.368 57.0626 66.232 56.6066 66.088C56.0706 65.912 55.6386 65.748 55.3106 65.596C54.9906 65.436 54.7146 65.2 54.4826 64.888C54.2586 64.576 54.1466 64.164 54.1466 63.652C54.1466 63.212 54.2506 62.824 54.4586 62.488C54.6746 62.152 54.9786 61.892 55.3706 61.708C55.7706 61.524 56.2386 61.432 56.7746 61.432C57.6066 61.432 58.2666 61.636 58.7546 62.044C59.2426 62.444 59.5266 62.956 59.6066 63.58H58.4306C58.3666 63.244 58.1946 62.948 57.9146 62.692C57.6346 62.436 57.2546 62.308 56.7746 62.308C56.3346 62.308 55.9826 62.424 55.7186 62.656C55.4546 62.88 55.3226 63.2 55.3226 63.616C55.3226 63.944 55.4066 64.212 55.5746 64.42C55.7506 64.62 55.9666 64.78 56.2226 64.9C56.4786 65.012 56.8306 65.14 57.2786 65.284C57.8226 65.46 58.2586 65.628 58.5866 65.788C58.9226 65.948 59.2066 66.192 59.4386 66.52C59.6706 66.84 59.7866 67.268 59.7866 67.804ZM67.3149 66.34C67.3149 66.572 67.2989 66.772 67.2669 66.94H61.9989C62.0229 67.692 62.2349 68.256 62.6349 68.632C63.0429 69.008 63.5389 69.196 64.1229 69.196C64.6509 69.196 65.0909 69.064 65.4429 68.8C65.8029 68.528 66.0229 68.168 66.1029 67.72H67.2669C67.1869 68.176 67.0069 68.584 66.7269 68.944C66.4549 69.304 66.0989 69.584 65.6589 69.784C65.2189 69.984 64.7229 70.084 64.1709 70.084C63.5389 70.084 62.9789 69.948 62.4909 69.676C62.0029 69.404 61.6189 69.016 61.3389 68.512C61.0669 68 60.9309 67.4 60.9309 66.712C60.9309 66.024 61.0669 65.424 61.3389 64.912C61.6189 64.4 62.0029 64.008 62.4909 63.736C62.9789 63.464 63.5389 63.328 64.1709 63.328C64.8109 63.328 65.3669 63.464 65.8389 63.736C66.3189 64.008 66.6829 64.372 66.9309 64.828C67.1869 65.284 67.3149 65.788 67.3149 66.34ZM66.2109 66.412C66.2349 65.924 66.1549 65.516 65.9709 65.188C65.7869 64.86 65.5349 64.616 65.2149 64.456C64.8949 64.296 64.5469 64.216 64.1709 64.216C63.5709 64.216 63.0669 64.404 62.6589 64.78C62.2509 65.148 62.0309 65.692 61.9989 66.412H66.2109ZM71.6592 63.328C72.4992 63.328 73.1952 63.552 73.7472 64C74.2992 64.448 74.6392 65.048 74.7672 65.8H73.6152C73.5352 65.328 73.3152 64.96 72.9552 64.696C72.6032 64.424 72.1632 64.288 71.6352 64.288C71.2512 64.288 70.8992 64.376 70.5792 64.552C70.2672 64.728 70.0152 65 69.8232 65.368C69.6312 65.728 69.5352 66.176 69.5352 66.712C69.5352 67.248 69.6312 67.7 69.8232 68.068C70.0152 68.428 70.2672 68.696 70.5792 68.872C70.8992 69.048 71.2512 69.136 71.6352 69.136C72.1632 69.136 72.6032 69 72.9552 68.728C73.3152 68.456 73.5352 68.084 73.6152 67.612H74.7672C74.6392 68.372 74.2992 68.976 73.7472 69.424C73.1952 69.864 72.4992 70.084 71.6592 70.084C71.0272 70.084 70.4672 69.948 69.9792 69.676C69.4912 69.404 69.1072 69.016 68.8272 68.512C68.5552 68 68.4192 67.4 68.4192 66.712C68.4192 66.024 68.5552 65.424 68.8272 64.912C69.1072 64.4 69.4912 64.008 69.9792 63.736C70.4672 63.464 71.0272 63.328 71.6592 63.328Z" fill="white"/>
<rect x="9.5" y="44.5" width="71" height="1" stroke="white"/>
</svg>
