<svg width="375" height="232" viewBox="0 0 375 232" fill="none" xmlns="http://www.w3.org/2000/svg">
<path d="M173.46 93.628C173.46 94.912 173.196 96.034 172.668 96.994C172.152 97.942 171.39 98.68 170.382 99.208C169.386 99.736 168.192 100 166.8 100H162.552V87.292H166.8C168.192 87.292 169.386 87.556 170.382 88.084C171.39 88.6 172.152 89.332 172.668 90.28C173.196 91.228 173.46 92.344 173.46 93.628ZM166.638 98.146C168.162 98.146 169.332 97.75 170.148 96.958C170.964 96.166 171.372 95.056 171.372 93.628C171.372 92.2 170.964 91.09 170.148 90.298C169.332 89.506 168.162 89.11 166.638 89.11H164.604V98.146H166.638ZM184.74 94.564C184.74 94.9 184.716 95.194 184.668 95.446H177.036C177.072 96.466 177.354 97.222 177.882 97.714C178.41 98.206 179.064 98.452 179.844 98.452C180.528 98.452 181.104 98.278 181.572 97.93C182.052 97.582 182.346 97.12 182.454 96.544H184.65C184.518 97.24 184.242 97.858 183.822 98.398C183.402 98.938 182.856 99.364 182.184 99.676C181.512 99.976 180.762 100.126 179.934 100.126C178.974 100.126 178.122 99.922 177.378 99.514C176.646 99.106 176.07 98.518 175.65 97.75C175.23 96.982 175.02 96.076 175.02 95.032C175.02 94 175.23 93.1 175.65 92.332C176.07 91.564 176.646 90.976 177.378 90.568C178.122 90.16 178.974 89.956 179.934 89.956C180.906 89.956 181.752 90.16 182.472 90.568C183.204 90.964 183.762 91.516 184.146 92.224C184.542 92.92 184.74 93.7 184.74 94.564ZM182.67 94.51C182.694 93.862 182.58 93.322 182.328 92.89C182.088 92.446 181.752 92.122 181.32 91.918C180.9 91.702 180.438 91.594 179.934 91.594C179.13 91.594 178.458 91.84 177.918 92.332C177.378 92.824 177.084 93.55 177.036 94.51H182.67ZM188.773 86.68V100H186.721V86.68H188.773ZM195.235 89.956C196.135 89.956 196.903 90.178 197.539 90.622C198.175 91.066 198.625 91.654 198.889 92.386V90.082H200.941V100H198.889V97.696C198.625 98.428 198.175 99.016 197.539 99.46C196.903 99.904 196.135 100.126 195.235 100.126C194.371 100.126 193.597 99.922 192.913 99.514C192.241 99.106 191.713 98.518 191.329 97.75C190.945 96.982 190.753 96.076 190.753 95.032C190.753 94 190.945 93.1 191.329 92.332C191.713 91.564 192.241 90.976 192.913 90.568C193.597 90.16 194.371 89.956 195.235 89.956ZM195.865 91.756C194.953 91.756 194.221 92.05 193.669 92.638C193.129 93.214 192.859 94.012 192.859 95.032C192.859 96.052 193.129 96.856 193.669 97.444C194.221 98.02 194.953 98.308 195.865 98.308C196.441 98.308 196.957 98.176 197.413 97.912C197.869 97.636 198.229 97.252 198.493 96.76C198.757 96.268 198.889 95.692 198.889 95.032C198.889 94.384 198.757 93.814 198.493 93.322C198.229 92.818 197.869 92.434 197.413 92.17C196.957 91.894 196.441 91.756 195.865 91.756ZM204.573 90.082L207.543 97.372L210.297 90.082H212.583L206.589 104.716H204.303L206.445 99.766L202.269 90.082H204.573ZM174.362 107.292V108.948H170.816V120H168.746V108.948H165.218V107.292H174.362ZM175.605 107.202C175.605 106.854 175.725 106.566 175.965 106.338C176.205 106.11 176.523 105.996 176.919 105.996C177.315 105.996 177.633 106.11 177.873 106.338C178.125 106.566 178.251 106.854 178.251 107.202C178.251 107.55 178.125 107.832 177.873 108.048C177.633 108.264 177.315 108.372 176.919 108.372C176.523 108.372 176.205 108.264 175.965 108.048C175.725 107.832 175.605 107.55 175.605 107.202ZM177.945 110.082V120H175.893V110.082H177.945ZM192.831 109.92C194.007 109.92 194.943 110.292 195.639 111.036C196.347 111.78 196.701 112.842 196.701 114.222V120H194.649V114.438C194.649 113.574 194.433 112.908 194.001 112.44C193.569 111.96 192.975 111.72 192.219 111.72C191.415 111.72 190.773 111.978 190.293 112.494C189.825 112.998 189.591 113.742 189.591 114.726V120H187.539V114.438C187.539 113.574 187.323 112.908 186.891 112.44C186.459 111.96 185.865 111.72 185.109 111.72C184.305 111.72 183.663 111.978 183.183 112.494C182.715 112.998 182.481 113.742 182.481 114.726V120H180.429V110.082H182.481V112.152C182.733 111.432 183.153 110.88 183.741 110.496C184.329 110.112 185.019 109.92 185.811 109.92C186.639 109.92 187.353 110.124 187.953 110.532C188.565 110.94 189.009 111.528 189.285 112.296C189.573 111.552 190.035 110.97 190.671 110.55C191.307 110.13 192.027 109.92 192.831 109.92ZM208.312 114.564C208.312 114.9 208.288 115.194 208.24 115.446H200.608C200.644 116.466 200.926 117.222 201.454 117.714C201.982 118.206 202.636 118.452 203.416 118.452C204.1 118.452 204.676 118.278 205.144 117.93C205.624 117.582 205.918 117.12 206.026 116.544H208.222C208.09 117.24 207.814 117.858 207.394 118.398C206.974 118.938 206.428 119.364 205.756 119.676C205.084 119.976 204.334 120.126 203.506 120.126C202.546 120.126 201.694 119.922 200.95 119.514C200.218 119.106 199.642 118.518 199.222 117.75C198.802 116.982 198.592 116.076 198.592 115.032C198.592 114 198.802 113.1 199.222 112.332C199.642 111.564 200.218 110.976 200.95 110.568C201.694 110.16 202.546 109.956 203.506 109.956C204.478 109.956 205.324 110.16 206.044 110.568C206.776 110.964 207.334 111.516 207.718 112.224C208.114 112.92 208.312 113.7 208.312 114.564ZM206.242 114.51C206.266 113.862 206.152 113.322 205.9 112.89C205.66 112.446 205.324 112.122 204.892 111.918C204.472 111.702 204.01 111.594 203.506 111.594C202.702 111.594 202.03 111.84 201.49 112.332C200.95 112.824 200.656 113.55 200.608 114.51H206.242Z" fill="white"/>
<path d="M158.716 133.54L156.568 142H155.236L153.28 135.088L151.324 142H149.992L147.832 133.54H149.044L150.664 140.728L152.668 133.54H153.88L155.884 140.704L157.516 133.54H158.716ZM159.803 133.48C159.803 133.28 159.871 133.12 160.007 133C160.143 132.872 160.323 132.808 160.547 132.808C160.771 132.808 160.951 132.872 161.087 133C161.223 133.12 161.291 133.28 161.291 133.48C161.291 133.68 161.223 133.844 161.087 133.972C160.951 134.092 160.771 134.152 160.547 134.152C160.323 134.152 160.143 134.092 160.007 133.972C159.871 133.844 159.803 133.68 159.803 133.48ZM161.087 135.412V142H159.995V135.412H161.087ZM167.631 133.54V134.428H163.935V137.356H167.067V138.208H163.935V142H162.843V133.54H167.631ZM168.733 133.48C168.733 133.28 168.801 133.12 168.937 133C169.073 132.872 169.253 132.808 169.477 132.808C169.701 132.808 169.881 132.872 170.017 133C170.153 133.12 170.221 133.28 170.221 133.48C170.221 133.68 170.153 133.844 170.017 133.972C169.881 134.092 169.701 134.152 169.477 134.152C169.253 134.152 169.073 134.092 168.937 133.972C168.801 133.844 168.733 133.68 168.733 133.48ZM170.017 135.412V142H168.925V135.412H170.017ZM178.481 133.456C179.513 133.456 180.365 133.712 181.037 134.224C181.709 134.728 182.173 135.42 182.429 136.3H181.277C181.061 135.74 180.713 135.296 180.233 134.968C179.753 134.632 179.165 134.464 178.469 134.464C177.917 134.464 177.421 134.6 176.981 134.872C176.549 135.136 176.205 135.52 175.949 136.024C175.701 136.52 175.577 137.104 175.577 137.776C175.577 138.44 175.701 139.02 175.949 139.516C176.205 140.012 176.549 140.396 176.981 140.668C177.421 140.932 177.917 141.064 178.469 141.064C179.165 141.064 179.753 140.9 180.233 140.572C180.713 140.236 181.061 139.788 181.277 139.228H182.429C182.173 140.108 181.709 140.804 181.037 141.316C180.365 141.82 179.513 142.072 178.481 142.072C177.689 142.072 176.989 141.892 176.381 141.532C175.773 141.164 175.297 140.656 174.953 140.008C174.617 139.352 174.449 138.608 174.449 137.776C174.449 136.936 174.617 136.188 174.953 135.532C175.297 134.876 175.773 134.368 176.381 134.008C176.989 133.64 177.689 133.456 178.481 133.456ZM186.878 135.328C187.51 135.328 188.074 135.464 188.57 135.736C189.074 136.008 189.466 136.4 189.746 136.912C190.034 137.424 190.178 138.024 190.178 138.712C190.178 139.4 190.034 140 189.746 140.512C189.466 141.016 189.074 141.404 188.57 141.676C188.074 141.948 187.51 142.084 186.878 142.084C186.246 142.084 185.678 141.948 185.174 141.676C184.678 141.404 184.286 141.016 183.998 140.512C183.71 140 183.566 139.4 183.566 138.712C183.566 138.024 183.71 137.424 183.998 136.912C184.286 136.4 184.678 136.008 185.174 135.736C185.678 135.464 186.246 135.328 186.878 135.328ZM186.878 136.288C186.486 136.288 186.122 136.376 185.786 136.552C185.458 136.728 185.19 137 184.982 137.368C184.782 137.728 184.682 138.176 184.682 138.712C184.682 139.24 184.782 139.688 184.982 140.056C185.19 140.416 185.458 140.684 185.786 140.86C186.122 141.036 186.486 141.124 186.878 141.124C187.27 141.124 187.63 141.036 187.958 140.86C188.294 140.684 188.562 140.416 188.762 140.056C188.97 139.688 189.074 139.24 189.074 138.712C189.074 138.176 188.97 137.728 188.762 137.368C188.562 137 188.294 136.728 187.958 136.552C187.63 136.376 187.27 136.288 186.878 136.288ZM195.069 135.304C195.837 135.304 196.457 135.552 196.929 136.048C197.401 136.536 197.637 137.244 197.637 138.172V142H196.545V138.268C196.545 137.612 196.377 137.108 196.041 136.756C195.705 136.404 195.249 136.228 194.673 136.228C194.073 136.228 193.593 136.424 193.233 136.816C192.873 137.2 192.693 137.764 192.693 138.508V142H191.601V135.412H192.693V136.972C192.861 136.436 193.157 136.024 193.581 135.736C194.013 135.448 194.509 135.304 195.069 135.304ZM202.78 135.304C203.548 135.304 204.168 135.552 204.64 136.048C205.112 136.536 205.348 137.244 205.348 138.172V142H204.256V138.268C204.256 137.612 204.088 137.108 203.752 136.756C203.416 136.404 202.96 136.228 202.384 136.228C201.784 136.228 201.304 136.424 200.944 136.816C200.584 137.2 200.404 137.764 200.404 138.508V142H199.312V135.412H200.404V136.972C200.572 136.436 200.868 136.024 201.292 135.736C201.724 135.448 202.22 135.304 202.78 135.304ZM213.082 138.34C213.082 138.572 213.066 138.772 213.034 138.94H207.766C207.79 139.692 208.002 140.256 208.402 140.632C208.81 141.008 209.306 141.196 209.89 141.196C210.418 141.196 210.858 141.064 211.21 140.8C211.57 140.528 211.79 140.168 211.87 139.72H213.034C212.954 140.176 212.774 140.584 212.494 140.944C212.222 141.304 211.866 141.584 211.426 141.784C210.986 141.984 210.49 142.084 209.938 142.084C209.306 142.084 208.746 141.948 208.258 141.676C207.77 141.404 207.386 141.016 207.106 140.512C206.834 140 206.698 139.4 206.698 138.712C206.698 138.024 206.834 137.424 207.106 136.912C207.386 136.4 207.77 136.008 208.258 135.736C208.746 135.464 209.306 135.328 209.938 135.328C210.578 135.328 211.134 135.464 211.606 135.736C212.086 136.008 212.45 136.372 212.698 136.828C212.954 137.284 213.082 137.788 213.082 138.34ZM211.978 138.412C212.002 137.924 211.922 137.516 211.738 137.188C211.554 136.86 211.302 136.616 210.982 136.456C210.662 136.296 210.314 136.216 209.938 136.216C209.338 136.216 208.834 136.404 208.426 136.78C208.018 137.148 207.798 137.692 207.766 138.412H211.978ZM217.427 135.328C218.267 135.328 218.963 135.552 219.515 136C220.067 136.448 220.407 137.048 220.535 137.8H219.383C219.303 137.328 219.083 136.96 218.723 136.696C218.371 136.424 217.931 136.288 217.403 136.288C217.019 136.288 216.667 136.376 216.347 136.552C216.035 136.728 215.783 137 215.591 137.368C215.399 137.728 215.303 138.176 215.303 138.712C215.303 139.248 215.399 139.7 215.591 140.068C215.783 140.428 216.035 140.696 216.347 140.872C216.667 141.048 217.019 141.136 217.403 141.136C217.931 141.136 218.371 141 218.723 140.728C219.083 140.456 219.303 140.084 219.383 139.612H220.535C220.407 140.372 220.067 140.976 219.515 141.424C218.963 141.864 218.267 142.084 217.427 142.084C216.795 142.084 216.235 141.948 215.747 141.676C215.259 141.404 214.875 141.016 214.595 140.512C214.323 140 214.187 139.4 214.187 138.712C214.187 138.024 214.323 137.424 214.595 136.912C214.875 136.4 215.259 136.008 215.747 135.736C216.235 135.464 216.795 135.328 217.427 135.328ZM225.108 141.04V142H224.292C223.62 142 223.116 141.84 222.78 141.52C222.452 141.2 222.288 140.664 222.288 139.912V136.36H221.304V135.412H222.288V133.768H223.392V135.412H225.096V136.36H223.392V139.936C223.392 140.36 223.468 140.652 223.62 140.812C223.78 140.964 224.052 141.04 224.436 141.04H225.108ZM163.048 145.54V154H161.944V150.088H157.648V154H156.556V145.54H157.648V149.2H161.944V145.54H163.048ZM167.782 147.328C168.414 147.328 168.978 147.464 169.474 147.736C169.978 148.008 170.37 148.4 170.65 148.912C170.938 149.424 171.082 150.024 171.082 150.712C171.082 151.4 170.938 152 170.65 152.512C170.37 153.016 169.978 153.404 169.474 153.676C168.978 153.948 168.414 154.084 167.782 154.084C167.15 154.084 166.582 153.948 166.078 153.676C165.582 153.404 165.19 153.016 164.902 152.512C164.614 152 164.47 151.4 164.47 150.712C164.47 150.024 164.614 149.424 164.902 148.912C165.19 148.4 165.582 148.008 166.078 147.736C166.582 147.464 167.15 147.328 167.782 147.328ZM167.782 148.288C167.39 148.288 167.026 148.376 166.69 148.552C166.362 148.728 166.094 149 165.886 149.368C165.686 149.728 165.586 150.176 165.586 150.712C165.586 151.24 165.686 151.688 165.886 152.056C166.094 152.416 166.362 152.684 166.69 152.86C167.026 153.036 167.39 153.124 167.782 153.124C168.174 153.124 168.534 153.036 168.862 152.86C169.198 152.684 169.466 152.416 169.666 152.056C169.874 151.688 169.978 151.24 169.978 150.712C169.978 150.176 169.874 149.728 169.666 149.368C169.466 149 169.198 148.728 168.862 148.552C168.534 148.376 168.174 148.288 167.782 148.288ZM173.597 145.12V154H172.505V145.12H173.597ZM178.053 147.328C178.693 147.328 179.233 147.488 179.673 147.808C180.121 148.128 180.433 148.556 180.609 149.092V145.12H181.701V154H180.609V152.32C180.433 152.856 180.121 153.284 179.673 153.604C179.233 153.924 178.693 154.084 178.053 154.084C177.469 154.084 176.949 153.948 176.493 153.676C176.037 153.404 175.677 153.016 175.413 152.512C175.157 152 175.029 151.4 175.029 150.712C175.029 150.024 175.157 149.424 175.413 148.912C175.677 148.4 176.037 148.008 176.493 147.736C176.949 147.464 177.469 147.328 178.053 147.328ZM178.365 148.3C177.693 148.3 177.153 148.516 176.745 148.948C176.345 149.372 176.145 149.96 176.145 150.712C176.145 151.464 176.345 152.056 176.745 152.488C177.153 152.912 177.693 153.124 178.365 153.124C178.797 153.124 179.181 153.024 179.517 152.824C179.861 152.624 180.129 152.344 180.321 151.984C180.513 151.616 180.609 151.192 180.609 150.712C180.609 150.232 180.513 149.808 180.321 149.44C180.129 149.072 179.861 148.792 179.517 148.6C179.181 148.4 178.797 148.3 178.365 148.3ZM189.115 145.312C189.659 145.312 190.127 145.408 190.519 145.6C190.911 145.792 191.207 146.056 191.407 146.392C191.607 146.728 191.707 147.108 191.707 147.532C191.707 148.06 191.551 148.504 191.239 148.864C190.935 149.224 190.487 149.44 189.895 149.512V149.584C190.511 149.744 190.991 149.992 191.335 150.328C191.687 150.664 191.863 151.128 191.863 151.72C191.863 152.416 191.631 152.984 191.167 153.424C190.703 153.864 190.035 154.084 189.163 154.084C188.291 154.084 187.583 153.86 187.039 153.412C186.503 152.956 186.187 152.292 186.091 151.42H187.171C187.243 151.948 187.443 152.368 187.771 152.68C188.107 152.992 188.559 153.148 189.127 153.148C189.663 153.148 190.075 153.012 190.363 152.74C190.651 152.46 190.795 152.1 190.795 151.66C190.795 151.132 190.587 150.732 190.171 150.46C189.763 150.18 189.179 150.04 188.419 150.04H188.131V149.128H188.419C189.891 149.128 190.627 148.636 190.627 147.652C190.627 147.22 190.491 146.876 190.219 146.62C189.947 146.364 189.571 146.236 189.091 146.236C188.611 146.236 188.207 146.376 187.879 146.656C187.551 146.928 187.359 147.332 187.303 147.868H186.235C186.291 147.068 186.567 146.444 187.063 145.996C187.567 145.54 188.251 145.312 189.115 145.312ZM201.787 151.804C201.787 152.204 201.691 152.576 201.499 152.92C201.307 153.264 201.015 153.544 200.623 153.76C200.231 153.976 199.747 154.084 199.171 154.084C198.611 154.084 198.111 153.984 197.671 153.784C197.239 153.576 196.891 153.296 196.627 152.944C196.371 152.584 196.223 152.176 196.183 151.72H197.347C197.371 151.96 197.451 152.196 197.587 152.428C197.731 152.652 197.931 152.84 198.187 152.992C198.451 153.136 198.767 153.208 199.135 153.208C199.615 153.208 199.983 153.08 200.239 152.824C200.495 152.568 200.623 152.24 200.623 151.84C200.623 151.496 200.531 151.216 200.347 151C200.171 150.784 199.951 150.616 199.687 150.496C199.423 150.368 199.063 150.232 198.607 150.088C198.071 149.912 197.639 149.748 197.311 149.596C196.991 149.436 196.715 149.2 196.483 148.888C196.259 148.576 196.147 148.164 196.147 147.652C196.147 147.212 196.251 146.824 196.459 146.488C196.675 146.152 196.979 145.892 197.371 145.708C197.771 145.524 198.239 145.432 198.775 145.432C199.607 145.432 200.267 145.636 200.755 146.044C201.243 146.444 201.527 146.956 201.607 147.58H200.431C200.367 147.244 200.195 146.948 199.915 146.692C199.635 146.436 199.255 146.308 198.775 146.308C198.335 146.308 197.983 146.424 197.719 146.656C197.455 146.88 197.323 147.2 197.323 147.616C197.323 147.944 197.407 148.212 197.575 148.42C197.751 148.62 197.967 148.78 198.223 148.9C198.479 149.012 198.831 149.14 199.279 149.284C199.823 149.46 200.259 149.628 200.587 149.788C200.923 149.948 201.207 150.192 201.439 150.52C201.671 150.84 201.787 151.268 201.787 151.804ZM209.315 150.34C209.315 150.572 209.299 150.772 209.267 150.94H203.999C204.023 151.692 204.235 152.256 204.635 152.632C205.043 153.008 205.539 153.196 206.123 153.196C206.651 153.196 207.091 153.064 207.443 152.8C207.803 152.528 208.023 152.168 208.103 151.72H209.267C209.187 152.176 209.007 152.584 208.727 152.944C208.455 153.304 208.099 153.584 207.659 153.784C207.219 153.984 206.723 154.084 206.171 154.084C205.539 154.084 204.979 153.948 204.491 153.676C204.003 153.404 203.619 153.016 203.339 152.512C203.067 152 202.931 151.4 202.931 150.712C202.931 150.024 203.067 149.424 203.339 148.912C203.619 148.4 204.003 148.008 204.491 147.736C204.979 147.464 205.539 147.328 206.171 147.328C206.811 147.328 207.367 147.464 207.839 147.736C208.319 148.008 208.683 148.372 208.931 148.828C209.187 149.284 209.315 149.788 209.315 150.34ZM208.211 150.412C208.235 149.924 208.155 149.516 207.971 149.188C207.787 148.86 207.535 148.616 207.215 148.456C206.895 148.296 206.547 148.216 206.171 148.216C205.571 148.216 205.067 148.404 204.659 148.78C204.251 149.148 204.031 149.692 203.999 150.412H208.211ZM213.659 147.328C214.499 147.328 215.195 147.552 215.747 148C216.299 148.448 216.639 149.048 216.767 149.8H215.615C215.535 149.328 215.315 148.96 214.955 148.696C214.603 148.424 214.163 148.288 213.635 148.288C213.251 148.288 212.899 148.376 212.579 148.552C212.267 148.728 212.015 149 211.823 149.368C211.631 149.728 211.535 150.176 211.535 150.712C211.535 151.248 211.631 151.7 211.823 152.068C212.015 152.428 212.267 152.696 212.579 152.872C212.899 153.048 213.251 153.136 213.635 153.136C214.163 153.136 214.603 153 214.955 152.728C215.315 152.456 215.535 152.084 215.615 151.612H216.767C216.639 152.372 216.299 152.976 215.747 153.424C215.195 153.864 214.499 154.084 213.659 154.084C213.027 154.084 212.467 153.948 211.979 153.676C211.491 153.404 211.107 153.016 210.827 152.512C210.555 152 210.419 151.4 210.419 150.712C210.419 150.024 210.555 149.424 210.827 148.912C211.107 148.4 211.491 148.008 211.979 147.736C212.467 147.464 213.027 147.328 213.659 147.328Z" fill="white"/>
<rect x="151.5" y="128.5" width="71" height="1" stroke="white"/>
<g opacity="0.25">
<rect x="151.5" y="50.5" width="71" height="1" stroke="white"/>
<rect x="151.5" y="4.5" width="71" height="39" rx="3.5" stroke="white"/>
</g>
<g opacity="0.25">
<rect x="264.5" y="130.5" width="71" height="1" stroke="white"/>
<rect x="264.5" y="84.5" width="71" height="39" rx="3.5" stroke="white"/>
</g>
<g opacity="0.25">
<rect x="38.5" y="130.5" width="71" height="1" stroke="white"/>
<rect x="38.5" y="84.5" width="71" height="39" rx="3.5" stroke="white"/>
</g>
<g opacity="0.25">
<rect x="151.5" y="226.5" width="71" height="1" stroke="white"/>
<rect x="151.5" y="180.5" width="71" height="39" rx="3.5" stroke="white"/>
</g>
</svg>
