<svg width="322" height="155" viewBox="0 0 322 155" fill="none" xmlns="http://www.w3.org/2000/svg">
<rect x="33" y="49" width="256" height="56" rx="2" stroke="white" stroke-width="2"/>
<g opacity="0.2">
<path fill-rule="evenodd" clip-rule="evenodd" d="M237 80C237 85.5229 232.523 90 227 90C221.477 90 217 85.5229 217 80C217 74.4771 221.477 70 227 70C232.523 70 237 74.4771 237 80Z" stroke="white"/>
<path fill-rule="evenodd" clip-rule="evenodd" d="M231 71.8092V88.2171C229.824 89.0041 228.453 89.4387 227 89.4387C225.547 89.4387 224.176 89.0041 223 88.2171V71.8092C224.176 71.0221 225.547 70.4387 227 70.4387C228.453 70.4387 229.824 71.0221 231 71.8092Z" stroke="white"/>
</g>
<path fill-rule="evenodd" clip-rule="evenodd" d="M171 80C171 85.5229 166.523 90 161 90C155.477 90 151 85.5229 151 80C151 74.4771 155.477 70 161 70C166.523 70 171 74.4771 171 80Z" stroke="white"/>
<path fill-rule="evenodd" clip-rule="evenodd" d="M165 71.8092V88.2171C163.824 89.0041 162.453 89.4387 161 89.4387C159.547 89.4387 158.176 89.0041 157 88.2171V71.8092C158.176 71.0221 159.547 70.4387 161 70.4387C162.453 70.4387 163.824 71.0221 165 71.8092Z" stroke="white"/>
<g opacity="0.199242">
<path fill-rule="evenodd" clip-rule="evenodd" d="M273 80C273 85.5229 268.523 90 263 90C257.477 90 253 85.5229 253 80C253 74.4771 257.477 70 263 70C268.523 70 273 74.4771 273 80Z" stroke="white"/>
<path fill-rule="evenodd" clip-rule="evenodd" d="M267 71.8092V88.2171C265.824 89.0041 264.453 89.4387 263 89.4387C261.547 89.4387 260.176 89.0041 259 88.2171V71.8092C260.176 71.0221 261.547 70.4387 263 70.4387C264.453 70.4387 265.824 71.0221 267 71.8092Z" stroke="white"/>
</g>
<g opacity="0.2">
<path fill-rule="evenodd" clip-rule="evenodd" d="M104 80C104 85.5229 99.5231 90 94.0003 90C88.4769 90 84 85.5229 84 80C84 74.4771 88.4769 70 94.0003 70C99.5231 70 104 74.4771 104 80Z" stroke="white"/>
<path fill-rule="evenodd" clip-rule="evenodd" d="M98 71.8092V88.2171C96.8235 89.0041 95.4533 89.4387 94 89.4387C92.5467 89.4387 91.1765 89.0041 90 88.2171V71.8092C91.1765 71.0221 92.5467 70.4387 94 70.4387C95.4533 70.4387 96.8235 71.0221 98 71.8092Z" stroke="white"/>
</g>
<g opacity="0.199242">
<path fill-rule="evenodd" clip-rule="evenodd" d="M68 81C68 86.5229 63.5231 91 58.0003 91C52.4769 91 48 86.5229 48 81C48 75.4771 52.4769 71 58.0003 71C63.5231 71 68 75.4771 68 81Z" stroke="white"/>
<path fill-rule="evenodd" clip-rule="evenodd" d="M62 72.8092V89.2171C60.8235 90.0041 59.4533 90.4387 58 90.4387C56.5467 90.4387 55.1765 90.0041 54 89.2171V72.8092C55.1765 72.0221 56.5467 71.4387 58 71.4387C59.4533 71.4387 60.8235 72.0221 62 72.8092Z" stroke="white"/>
</g>
<rect x="32.25" y="62.25" width="257.5" height="0.5" stroke="white" stroke-width="0.5"/>
</svg>
