<svg width="118" height="133" viewBox="0 0 118 133" fill="none" xmlns="http://www.w3.org/2000/svg">
<circle cx="59" cy="74" r="56" fill="white"/>
<path d="M118 74C118 106.585 91.5848 133 59 133C26.4152 133 0 106.585 0 74C0 41.4152 26.4152 15 59 15C91.5848 15 118 41.4152 118 74ZM1.99045 74C1.99045 105.486 27.5145 131.01 59 131.01C90.4855 131.01 116.01 105.486 116.01 74C116.01 42.5145 90.4855 16.9904 59 16.9904C27.5145 16.9904 1.99045 42.5145 1.99045 74Z" fill="url(#paint0_linear_17006_9186)"/>
<path d="M118 74C118 106.585 91.5848 133 59 133C26.4152 133 0 106.585 0 74C0 41.4152 26.4152 15 59 15C91.5848 15 118 41.4152 118 74ZM4.12523 74C4.12523 104.306 28.6935 128.875 59 128.875C89.3065 128.875 113.875 104.306 113.875 74C113.875 43.6935 89.3065 19.1252 59 19.1252C28.6935 19.1252 4.12523 43.6935 4.12523 74Z" fill="url(#paint1_linear_17006_9186)"/>
<path d="M95 79L100 74.2632L95 69" stroke="#979797" stroke-width="2" stroke-linecap="round" stroke-linejoin="round"/>
<path d="M22 69L17 73.7368L22 79" stroke="#979797" stroke-width="2" stroke-linecap="round" stroke-linejoin="round"/>
<circle cx="59.5" cy="73.5" r="8.5" stroke="#979797" stroke-width="2"/>
<path opacity="0.5" d="M51.8889 111H52.4589V108.62L53.5239 111H53.9189L54.9789 108.62V111H55.5489V107.525H54.9389L53.7239 110.25L52.5039 107.525H51.8889V111ZM59.223 109.62C59.223 108.755 58.603 108.2 57.818 108.2C57.033 108.2 56.413 108.755 56.413 109.62C56.413 110.485 57.008 111.045 57.793 111.045C58.583 111.045 59.223 110.485 59.223 109.62ZM56.993 109.62C56.993 108.995 57.378 108.695 57.808 108.695C58.233 108.695 58.638 108.995 58.638 109.62C58.638 110.245 58.218 110.55 57.793 110.55C57.363 110.55 56.993 110.245 56.993 109.62ZM59.8965 109.61C59.8965 110.46 60.4715 111.045 61.1965 111.045C61.6465 111.045 61.9765 110.835 62.1515 110.585V111H62.7265V107.3H62.1515V108.63C61.9415 108.37 61.5615 108.2 61.2015 108.2C60.4715 108.2 59.8965 108.76 59.8965 109.61ZM62.1515 109.62C62.1515 110.215 61.7465 110.55 61.3165 110.55C60.8915 110.55 60.4815 110.205 60.4815 109.61C60.4815 109.015 60.8915 108.695 61.3165 108.695C61.7465 108.695 62.1515 109.03 62.1515 109.62ZM64.9352 108.68C65.3602 108.68 65.6952 108.95 65.7052 109.375H64.1802C64.2402 108.94 64.5502 108.68 64.9352 108.68ZM66.2252 110.18H65.6102C65.5052 110.395 65.3102 110.565 64.9602 110.565C64.5402 110.565 64.2152 110.29 64.1752 109.835H66.2802C66.2952 109.74 66.3002 109.65 66.3002 109.555C66.3002 108.745 65.7452 108.2 64.9602 108.2C64.1452 108.2 63.5852 108.755 63.5852 109.62C63.5852 110.485 64.1702 111.045 64.9602 111.045C65.6352 111.045 66.0702 110.66 66.2252 110.18ZM55.5993 115.525H53.3093V116.02H54.9193L53.3093 118.555V119H55.5993V118.505H53.9843L55.5993 115.97V115.525ZM57.6824 116.68C58.1074 116.68 58.4424 116.95 58.4524 117.375H56.9274C56.9874 116.94 57.2974 116.68 57.6824 116.68ZM58.9724 118.18H58.3574C58.2524 118.395 58.0574 118.565 57.7074 118.565C57.2874 118.565 56.9624 118.29 56.9224 117.835H59.0274C59.0424 117.74 59.0474 117.65 59.0474 117.555C59.0474 116.745 58.4924 116.2 57.7074 116.2C56.8924 116.2 56.3324 116.755 56.3324 117.62C56.3324 118.485 56.9174 119.045 57.7074 119.045C58.3824 119.045 58.8174 118.66 58.9724 118.18ZM60.4783 117.55C60.4783 116.965 60.7383 116.79 61.1583 116.79H61.3033V116.2C60.9133 116.2 60.6383 116.37 60.4783 116.645V116.245H59.9083V119H60.4783V117.55ZM64.7522 117.62C64.7522 116.755 64.1322 116.2 63.3472 116.2C62.5622 116.2 61.9422 116.755 61.9422 117.62C61.9422 118.485 62.5372 119.045 63.3222 119.045C64.1122 119.045 64.7522 118.485 64.7522 117.62ZM62.5222 117.62C62.5222 116.995 62.9072 116.695 63.3372 116.695C63.7622 116.695 64.1672 116.995 64.1672 117.62C64.1672 118.245 63.7472 118.55 63.3222 118.55C62.8922 118.55 62.5222 118.245 62.5222 117.62Z" fill="#979797"/>
<path d="M59 52L61.8868 47L56.1133 47L59 52ZM58.5 2.18557e-08L58.5 47.5L59.5 47.5L59.5 -2.18557e-08L58.5 2.18557e-08Z" fill="#A11F7F"/>
<defs>
<linearGradient id="paint0_linear_17006_9186" x1="4.72756" y1="55.2788" x2="118" y2="35.6122" gradientUnits="userSpaceOnUse">
<stop stop-color="#A11F7F"/>
<stop offset="0.385417" stop-color="#7544A9"/>
<stop offset="0.541667" stop-color="#7544A9"/>
<stop offset="1" stop-color="#2F80ED"/>
</linearGradient>
<linearGradient id="paint1_linear_17006_9186" x1="4.72756" y1="55.2788" x2="118" y2="35.6122" gradientUnits="userSpaceOnUse">
<stop stop-color="#A11F7F"/>
<stop offset="0.385417" stop-color="#7544A9"/>
<stop offset="0.541667" stop-color="#7544A9"/>
<stop offset="1" stop-color="#2F80ED"/>
</linearGradient>
</defs>
</svg>
