<svg width="16" height="16" viewBox="0 0 48 48" fill="none" stroke="#a11f7f" stroke-width="4" stroke-linecap="round" stroke-linejoin="round" xmlns="http://www.w3.org/2000/svg"><path d="m30.297 21.854s-3.2293 9.1023-4.7638 10.691c-1.5346 1.5891-4.0669 1.6333-5.656 0.0987-1.5892-1.5346-1.6334-4.0668-0.0988-5.656 1.5346-1.5891 10.519-5.1341 10.519-5.1341z" fill="none"></path><path d="m38.849 41.925c3.8003-3.8002 6.1508-9.0502 6.1508-14.849 0-11.598-9.402-21-21-21s-21 9.402-21 21c0 5.799 2.3505 11.049 6.1508 14.849"></path><path d="m24 7.0754v4"></path><path d="m38.845 14.218-3.1086 2.5172"></path><path d="m42.522 30.308-3.8975-0.8998"></path><path d="m5.4774 30.308 3.8975-0.8998"></path><path d="m9.1546 14.217 3.1086 2.5173"></path></svg>