<svg xmlns="http://www.w3.org/2000/svg" xmlns:xlink="http://www.w3.org/1999/xlink" width="375" height="232" viewBox="0 0 375 232">
    <defs>
        <path id="rvl6jmx7ka" d="M0 0.372L248.415 0.372 248.415 230.556 0 230.556z"/>
        <path id="eq9gz3uthc" d="M61.8.495L54.698 5.67c-.225.164-.36.426-.363.707l.016 9.153c-.005.495.396.9.89.9h4.016c.027-1.646 1.369-2.971 3.02-2.971 1.65 0 2.992 1.325 3.019 2.97h4.01c.488 0 .884-.393.89-.882l.02-9.16c.001-.285-.132-.555-.361-.723L62.86.495c-.158-.116-.344-.174-.53-.174-.186 0-.373.058-.53.174zm-5.617 9.387c1.623-1.474 3.862-2.505 6.142-2.505 2.235 0 4.429.989 6.041 2.414l-.661 1.416c-1.358-1.4-3.314-2.342-5.38-2.342-2.112 0-4.114.992-5.476 2.446l-.666-1.429zm1.348 2.9c1.118-1.383 2.898-2.27 4.794-2.27 1.845 0 3.58.841 4.7 2.158l-.746 1.596c-.757-1.4-2.245-2.262-3.955-2.262-1.772 0-3.303.925-4.032 2.414l-.76-1.635z"/>
        <path id="tnksnptgef" d="M180.136 17.206h-12.972c-.89 0-1.612-.72-1.612-1.608V2.649c0-.888.722-1.608 1.612-1.608h12.972c.89 0 1.611.72 1.611 1.608v12.949c0 .888-.721 1.608-1.61 1.608"/>
        <linearGradient id="twiy905pdd" x1="50%" x2="50%" y1="0%" y2="100%">
            <stop offset="0%" stop-color="#D73CAE"/>
            <stop offset="100%" stop-color="#A42081"/>
        </linearGradient>
        <filter id="rugaeplace" width="186.4%" height="186.6%" x="-55.6%" y="-30.9%" filterUnits="objectBoundingBox">
            <feOffset dx="-2" dy="2" in="SourceAlpha" result="shadowOffsetOuter1"/>
            <feGaussianBlur in="shadowOffsetOuter1" result="shadowBlurOuter1" stdDeviation="2"/>
            <feColorMatrix in="shadowBlurOuter1" values="0 0 0 0 0 0 0 0 0 0 0 0 0 0 0 0 0 0 0.5 0"/>
        </filter>
    </defs>
    <g fill="none" fill-rule="evenodd">
        <g>
            <g>
                <g>
                    <g>
                        <g transform="translate(0 -110) translate(0 110) translate(63) translate(0 .337)">
                            <mask id="y0t7fpescb" fill="#fff">
                                <use xlink:href="#rvl6jmx7ka"/>
                            </mask>
                            <path fill="#FFF" d="M248.415 230.556h-2.652V23.516c0-11.299-9.192-20.491-20.492-20.491H23.144c-11.299 0-20.492 9.192-20.492 20.49v207.04H0V23.516C0 10.754 10.382.372 23.144.372h202.127c12.761 0 23.144 10.382 23.144 23.143v207.04z" mask="url(#y0t7fpescb)"/>
                        </g>
                        <path fill="#FFF" d="M238.08 230.556h-1.326V53.637c0-1.785-1.452-3.237-3.238-3.237H14.898c-1.786 0-3.238 1.452-3.238 3.237v176.919h-1.326V53.637c0-2.515 2.048-4.563 4.564-4.563h218.618c2.517 0 4.565 2.048 4.565 4.563v176.919zM121.297 26.312c-.366 0-.664.298-.664.663v.67c0 .366.298.663.664.663h21.734c.365 0 .662-.297.662-.663v-.67c0-.365-.297-.663-.662-.663h-21.734zm21.734 3.322h-21.734c-1.097 0-1.99-.892-1.99-1.989v-.67c0-1.097.893-1.99 1.99-1.99h21.734c1.096 0 1.989.893 1.989 1.99v.67c0 1.097-.893 1.99-1.99 1.99zM107.417 24.71c-1.434 0-2.6 1.167-2.6 2.6 0 1.434 1.166 2.6 2.6 2.6 1.434 0 2.6-1.166 2.6-2.6 0-1.433-1.166-2.6-2.6-2.6m0 6.526c-2.165 0-3.926-1.761-3.926-3.926s1.76-3.926 3.926-3.926c2.165 0 3.927 1.76 3.927 3.926 0 2.165-1.762 3.926-3.927 3.926" transform="translate(0 -110) translate(0 110) translate(63) translate(0 .337)"/>
                    </g>
                </g>
                <g transform="translate(0 -110) translate(0 110) translate(74.335 74.438)">
                    <path fill="#A11F7F" d="M62.35 15.128c-.802 0-1.453.651-1.453 1.453 0 .8.651 1.45 1.452 1.45.8 0 1.452-.65 1.452-1.45 0-.802-.651-1.453-1.452-1.453"/>
                    <use fill="url(#twiy905pdd)" xlink:href="#eq9gz3uthc"/>
                    <path fill="#FFF" d="M66.078 156.688H.665V33.904c0-5.479 4.45-9.92 9.94-9.92h55.473v132.704z" opacity=".15"/>
                    <path fill="#A11F7F" d="M162.712 23.984H55.27c-5.495 0-9.95 4.445-9.95 9.93v122.774h107.453V33.904c0-5.479 4.45-9.92 9.939-9.92"/>
                    <path fill="#FFF" d="M225 156.688h-72.356V33.904c0-5.479 4.45-9.92 9.939-9.92H225v132.704z" opacity=".25"/>
                    <path fill="#FFF" d="M77.784 11.414c-.193-.087-.344-.208-.455-.362-.11-.154-.167-.331-.17-.534h.516c.018.173.09.32.216.439.125.118.31.177.551.177.23 0 .413-.057.546-.172.133-.115.2-.263.2-.444 0-.142-.04-.257-.118-.345-.078-.09-.176-.156-.292-.202-.118-.047-.276-.096-.475-.15-.244-.063-.44-.127-.588-.191-.147-.063-.273-.163-.378-.3-.105-.136-.158-.32-.158-.55 0-.202.053-.38.156-.537.102-.155.247-.276.434-.36.186-.086.4-.129.641-.129.348 0 .632.087.855.26.221.175.346.405.375.692h-.533c-.017-.142-.093-.266-.223-.375-.132-.108-.306-.162-.522-.162-.202 0-.368.052-.495.157-.127.104-.192.25-.192.439 0 .134.038.245.114.33.077.084.171.149.283.193.111.044.269.095.47.151.246.068.443.134.592.2.149.065.277.166.383.302.108.137.16.322.16.556 0 .18-.047.35-.143.51-.097.16-.239.289-.427.388-.188.1-.41.149-.665.149-.245 0-.465-.043-.658-.13M84.506 8.682c.178.094.318.234.422.423.102.187.154.416.154.685v1.717h-.48V9.859c0-.29-.071-.513-.215-.667-.144-.154-.339-.23-.583-.23-.252 0-.453.08-.602.24-.15.162-.224.395-.224.7v1.605H82.5V9.859c0-.29-.072-.513-.216-.667-.143-.154-.338-.23-.582-.23-.253 0-.454.08-.603.24-.149.162-.222.395-.222.7v1.605h-.486V8.594h.486v.42c.095-.152.223-.269.385-.35.162-.082.34-.123.535-.123.245 0 .462.055.65.164.188.11.329.272.42.484.083-.205.217-.365.405-.478.188-.113.398-.17.629-.17.227 0 .429.047.606.141M88.031 9.471c-.088-.163-.208-.287-.359-.374-.15-.087-.317-.13-.498-.13-.18 0-.346.042-.494.127-.15.085-.268.21-.358.371-.088.165-.133.354-.133.575 0 .223.045.417.133.582.09.164.208.29.358.377.148.087.313.13.494.13s.347-.043.498-.13c.15-.087.27-.213.36-.377.089-.165.133-.357.133-.577 0-.22-.044-.411-.134-.574m-2.156-.215c.12-.225.286-.4.498-.523.211-.124.447-.187.705-.187.257 0 .478.055.666.165.188.11.329.247.42.415v-.531h.49v2.912h-.49v-.543c-.095.171-.238.312-.428.423-.19.112-.41.167-.663.167-.26 0-.493-.063-.703-.19-.21-.128-.374-.307-.495-.538-.121-.23-.18-.492-.18-.786 0-.298.059-.558.18-.784M90.324 8.68c.158-.093.35-.139.577-.139v.5h-.128c-.543 0-.814.294-.814.882v1.584h-.485V8.594h.485v.473c.085-.167.206-.296.365-.388M92.051 8.993v1.717c0 .141.03.242.091.3.06.059.165.088.314.088h.357v.409h-.437c-.27 0-.472-.062-.606-.186-.136-.125-.204-.328-.204-.611V8.993h-.377v-.398h.377V7.86h.485v.735h.762v.398h-.762zM96.258 7.803L96.258 11.506 95.773 11.506 95.773 9.827 93.883 9.827 93.883 11.506 93.399 11.506 93.399 7.803 93.883 7.803 93.883 9.429 95.773 9.429 95.773 7.803zM97.576 10.428c.119.222.281.395.489.516.208.12.441.18.7.18.26 0 .493-.06.7-.18.208-.12.372-.294.49-.516.12-.223.179-.483.179-.777 0-.297-.06-.557-.178-.777-.119-.222-.282-.393-.488-.514-.205-.12-.44-.18-.702-.18-.263 0-.497.06-.703.18-.207.12-.368.292-.487.514-.12.22-.18.48-.18.777 0 .294.06.554.18.777zm2.483 1.78l-.74-.738c-.18.05-.366.073-.553.073-.345 0-.66-.08-.943-.241-.284-.16-.509-.387-.674-.675-.164-.289-.247-.614-.247-.976 0-.36.083-.685.247-.975.165-.288.39-.513.674-.674.284-.161.598-.242.943-.242.348 0 .663.08.948.242.283.16.507.385.67.672.163.287.246.613.246.977 0 .355-.08.674-.235.958-.156.283-.371.507-.644.67l.937.93h-.629z"/>
                    <g opacity=".25">
                        <use fill="#000" filter="url(#rugaeplace)" xlink:href="#tnksnptgef"/>
                        <use fill="#FFF" xlink:href="#tnksnptgef"/>
                    </g>
                </g>
            </g>
        </g>
    </g>
</svg>
