<svg xmlns="http://www.w3.org/2000/svg" xmlns:xlink="http://www.w3.org/1999/xlink" width="375" height="232" viewBox="0 0 375 232">
    <defs>
        <path id="4hiwx7e6da" d="M0 0.372L248.415 0.372 248.415 230.125 0 230.125z"/>
    </defs>
    <g fill="none" fill-rule="evenodd">
        <g>
            <g>
                <g>
                    <g transform="translate(0 -110) translate(0 110) translate(63)">
                        <mask id="gqdo52sl4b" fill="#fff">
                            <use xlink:href="#4hiwx7e6da"/>
                        </mask>
                        <path fill="#FFF" d="M225.27 230.125H23.144C10.382 230.125 0 219.763 0 207.025V.372h2.652v206.653c0 11.278 9.193 20.453 20.491 20.453h202.128c11.299 0 20.492-9.175 20.492-20.453V.372h2.652v206.653c0 12.738-10.383 23.1-23.144 23.1" mask="url(#gqdo52sl4b)"/>
                    </g>
                    <path fill="#FFF" d="M233.543 172.776H14.731c-2.519 0-4.568-2.043-4.568-4.554V.726h1.327v167.496c0 1.782 1.454 3.23 3.24 3.23h218.813c1.787 0 3.24-1.448 3.24-3.23V.726h1.328v167.496c0 2.51-2.05 4.554-4.568 4.554" transform="translate(0 -110) translate(0 110) translate(63)"/>
                    <path fill="#FDBA12" d="M143.012 199.636c0 10.424-8.451 18.874-18.875 18.874s-18.875-8.45-18.875-18.874c0-10.425 8.451-18.875 18.875-18.875s18.875 8.45 18.875 18.875" transform="translate(0 -110) translate(0 110) translate(63)"/>
                    <path fill="#FFF" d="M124.137 181.934c-9.735 0-17.654 7.778-17.654 17.338 0 9.561 7.92 17.34 17.654 17.34 9.735 0 17.654-7.779 17.654-17.34 0-9.56-7.92-17.338-17.654-17.338m0 37.302c-11.208 0-20.327-8.956-20.327-19.964 0-11.006 9.12-19.963 20.327-19.963 11.208 0 20.327 8.957 20.327 19.963 0 11.008-9.12 19.964-20.327 19.964" transform="translate(0 -110) translate(0 110) translate(63)"/>
                </g>
            </g>
        </g>
    </g>
</svg>
