<svg xmlns="http://www.w3.org/2000/svg" width="375" height="232" viewBox="0 0 375 232">
    <g fill="none" fill-rule="evenodd">
        <g>
            <g>
                <g>
                    <g fill="#FFF" opacity=".25">
                        <path d="M37.723 3.688h116.326c.901 0 1.632.732 1.632 1.637v9.868c0 .904-.731 1.637-1.632 1.637H37.723c-.902 0-1.633-.733-1.633-1.637V5.325c0-.905.731-1.637 1.633-1.637M1.728.592h16.017c.902 0 1.632.733 1.632 1.638v16.059c0 .905-.73 1.637-1.632 1.637H1.728c-.902 0-1.632-.732-1.632-1.637V2.229c0-.904.73-1.637 1.632-1.637M1.728 73.52h16.017c.902 0 1.632.733 1.632 1.637v16.06c0 .904-.73 1.637-1.632 1.637H1.728c-.902 0-1.632-.733-1.632-1.637v-16.06c0-.904.73-1.637 1.632-1.637M1.728 107.84h16.017c.902 0 1.632.733 1.632 1.637v16.06c0 .904-.73 1.637-1.632 1.637H1.728c-.902 0-1.632-.733-1.632-1.637v-16.06c0-.904.73-1.637 1.632-1.637M37.723 76.616h116.326c.901 0 1.632.733 1.632 1.637v9.869c0 .904-.731 1.636-1.632 1.636H37.723c-.902 0-1.633-.732-1.633-1.636v-9.869c0-.904.731-1.637 1.633-1.637M37.723 110.935h116.326c.901 0 1.632.733 1.632 1.638v9.868c0 .904-.731 1.637-1.632 1.637H37.723c-.902 0-1.633-.733-1.633-1.637v-9.868c0-.905.731-1.638 1.633-1.638" transform="translate(0 -110) translate(0 110) translate(62.832) translate(45.988 79.79)"/>
                    </g>
                    <path fill="#FDBA12" d="M97.204 119.279L93.998 130.37 92.379 130.37 89.809 121.442 87.142 130.37 85.539 130.385 82.444 119.279 83.984 119.279 86.396 128.683 89.062 119.279 90.681 119.279 93.22 128.651 95.648 119.279z" transform="translate(0 -110) translate(0 110) translate(62.832)"/>
                    <g>
                        <g fill="#FDBA12">
                            <path d="M10.822 17.586l.145.149.144-.15 2.062-2.553c-.597-.532-1.361-.866-2.206-.866-.846 0-1.611.334-2.208.866l2.063 2.554zm-5.08-6.288c1.46-1.293 3.289-2.003 5.225-2.003 1.934 0 3.764.71 5.224 2.003l1.33-1.647c-1.832-1.622-4.126-2.512-6.554-2.512-2.429 0-4.724.89-6.556 2.512l1.331 1.648zM0 4.192C3.063 1.482 6.904 0 10.967 0c4.062 0 7.903 1.481 10.966 4.192l-1.335 1.653c-2.691-2.382-6.062-3.689-9.631-3.689s-6.94 1.307-9.632 3.688L0 4.192z" transform="translate(0 -110) translate(0 110) translate(62.832) translate(0 .337) translate(45.321 115.296)"/>
                        </g>
                        <path fill="#FDBA12" d="M98.886 130.033h1.445v-8.72h-1.445v8.72zm.048-10.424c-.19-.19-.285-.422-.285-.698 0-.276.095-.511.285-.701.191-.19.423-.287.699-.287.264 0 .49.097.674.287.185.19.278.425.278.7 0 .277-.093.51-.278.7-.185.192-.41.287-.674.287-.276 0-.508-.095-.699-.288zM109.053 118.942L109.053 120.12 104.241 120.12 104.241 123.859 108.147 123.859 108.147 125.037 104.241 125.037 104.241 130.033 102.794 130.033 102.794 118.942zM110.8 130.033h1.445v-8.72H110.8v8.72zm.047-10.424c-.19-.19-.285-.422-.285-.698 0-.276.095-.511.285-.701.191-.19.423-.287.699-.287.264 0 .49.097.675.287.184.19.277.425.277.7 0 .277-.093.51-.277.7-.186.192-.41.287-.675.287-.276 0-.508-.095-.699-.288z" transform="translate(0 -110) translate(0 110) translate(62.832) translate(0 .337)"/>
                        <path fill="#FFF" d="M247.983 230.556h-2.647V23.516c0-11.299-9.177-20.491-20.456-20.491H23.103c-11.28 0-20.456 9.192-20.456 20.49v207.04H0V23.516C0 10.754 10.364.372 23.103.372H224.88c12.739 0 23.103 10.382 23.103 23.143v207.04z" transform="translate(0 -110) translate(0 110) translate(62.832) translate(0 .337)"/>
                        <path fill="#FFF" d="M237.667 230.556h-1.324V53.637c0-1.785-1.45-3.237-3.232-3.237H14.871c-1.783 0-3.232 1.452-3.232 3.237v176.919h-1.324V53.637c0-2.515 2.044-4.563 4.556-4.563h218.24c2.512 0 4.556 2.048 4.556 4.563v176.919zM121.088 26.312c-.365 0-.661.298-.661.663v.67c0 .366.296.663.661.663h21.677c.364 0 .66-.297.66-.663v-.67c0-.365-.296-.663-.66-.663h-21.677zm21.677 3.322h-21.677c-1.093 0-1.983-.892-1.983-1.989v-.67c0-1.097.89-1.99 1.983-1.99h21.677c1.093 0 1.983.893 1.983 1.99v.67c0 1.097-.89 1.99-1.983 1.99zM107.232 24.71c-1.43 0-2.594 1.167-2.594 2.6 0 1.434 1.164 2.6 2.594 2.6s2.593-1.166 2.593-2.6c0-1.433-1.164-2.6-2.593-2.6m0 6.526c-2.16 0-3.917-1.761-3.917-3.926s1.757-3.926 3.917-3.926c2.159 0 3.915 1.76 3.915 3.926 0 2.165-1.756 3.926-3.915 3.926" transform="translate(0 -110) translate(0 110) translate(62.832) translate(0 .337)"/>
                    </g>
                </g>
            </g>
        </g>
    </g>
</svg>
