<svg xmlns="http://www.w3.org/2000/svg" xmlns:xlink="http://www.w3.org/1999/xlink" width="375" height="232" viewBox="0 0 375 232">
    <defs>
        <path id="mz0lby0bya" d="M0 0.372L248.415 0.372 248.415 230.125 0 230.125z"/>
    </defs>
    <g fill="none" fill-rule="evenodd">
        <g>
            <g>
                <g>
                    <g transform="translate(0 -110) translate(0 110) translate(63)">
                        <mask id="yxu88izxyb" fill="#fff">
                            <use xlink:href="#mz0lby0bya"/>
                        </mask>
                        <path fill="#FFF" d="M248.415 230.125h-2.652V23.471c0-11.276-9.193-20.452-20.492-20.452H23.144c-11.3 0-20.492 9.176-20.492 20.452v206.654H0V23.471C0 10.734 10.382.371 23.144.371h202.127c12.762 0 23.144 10.363 23.144 23.1v206.654z" mask="url(#yxu88izxyb)"/>
                    </g>
                    <path fill="#FFF" d="M238.11 230.851h-1.327V53.927c0-1.785-1.453-3.237-3.24-3.237H14.731c-1.787 0-3.24 1.452-3.24 3.237v176.924h-1.328V53.927c0-2.515 2.05-4.563 4.568-4.563h218.812c2.519 0 4.568 2.048 4.568 4.563v176.924z" transform="translate(0 -110) translate(0 110) translate(63)"/>
                    <path fill="#FFF" fill-opacity=".25" d="M68.46 118.33H35.35c-1.482 0-2.682-1.2-2.682-2.682V82.537c0-1.482 1.2-2.683 2.681-2.683h33.112c1.481 0 2.682 1.2 2.682 2.683v33.11c0 1.482-1.2 2.682-2.682 2.682M116.373 118.33H83.262c-1.481 0-2.682-1.2-2.682-2.682V82.537c0-1.482 1.2-2.683 2.682-2.683h33.111c1.482 0 2.682 1.2 2.682 2.683v33.11c0 1.482-1.2 2.682-2.682 2.682M165.012 118.33H131.9c-1.48 0-2.681-1.2-2.681-2.682V82.537c0-1.482 1.2-2.683 2.681-2.683h33.112c1.481 0 2.682 1.2 2.682 2.683v33.11c0 1.482-1.2 2.682-2.682 2.682M68.46 195.28H35.35c-1.482 0-2.682-1.2-2.682-2.682v-33.111c0-1.481 1.2-2.682 2.681-2.682h33.112c1.481 0 2.682 1.201 2.682 2.682v33.11c0 1.482-1.2 2.683-2.682 2.683M116.373 195.28H83.262c-1.481 0-2.682-1.2-2.682-2.682v-33.111c0-1.481 1.2-2.682 2.682-2.682h33.111c1.482 0 2.682 1.201 2.682 2.682v33.11c0 1.482-1.2 2.683-2.682 2.683M165.012 195.28H131.9c-1.48 0-2.681-1.2-2.681-2.682v-33.111c0-1.481 1.2-2.682 2.681-2.682h33.112c1.481 0 2.682 1.201 2.682 2.682v33.11c0 1.482-1.2 2.683-2.682 2.683M213.65 118.33H180.54c-1.481 0-2.682-1.2-2.682-2.682V82.537c0-1.482 1.2-2.683 2.682-2.683h33.111c1.482 0 2.682 1.2 2.682 2.683v33.11c0 1.482-1.2 2.682-2.682 2.682" transform="translate(0 -110) translate(0 110) translate(63)"/>
                    <path fill="#FDBA12" d="M180.462 174.599c-.933 10.168 7.686 18.608 17.912 17.358 7.114-.869 12.877-6.582 13.818-13.687 1.39-10.49-7.49-19.378-17.974-17.995-7.29.961-13.084 7-13.756 14.324m5.882-17.068h20.05c4.687 0 8.486 3.8 8.486 8.486v20.05c0 4.688-3.8 8.487-8.486 8.487h-20.05c-4.687 0-8.487-3.8-8.487-8.486v-20.051c0-4.687 3.8-8.486 8.487-8.486" transform="translate(0 -110) translate(0 110) translate(63)"/>
                    <path fill="#FDBA12" d="M196.004 177c.337-.003.574-.243.573-.583 0-.327-.255-.583-.58-.581-.316.002-.583.271-.58.588.002.323.26.577.587.575zm-2.837 5.762c2.419.939 4.683.774 6.79-.683 1.67-1.156 2.614-2.78 2.907-4.816-.14-.012-.216-.024-.293-.025-1.597-.02-3.194-.062-4.79-.051-1 .006-1.773.486-2.286 1.345-.335.558-.63 1.138-.943 1.708l-1.385 2.522zm-1.331-.792c.054-.064.09-.097.114-.138.84-1.419 1.71-2.82 2.504-4.264.454-.828.414-1.724-.065-2.551-.769-1.334-1.567-2.65-2.354-3.974-.044-.074-.094-.144-.142-.216-1.432.967-2.983 3.115-2.827 5.927.119 2.157 1.07 3.877 2.77 5.216zm1.415-11.928c.047.1.074.163.106.223.747 1.367 1.481 2.742 2.248 4.099.506.895 1.32 1.356 2.336 1.364 1.538.012 3.076-.036 4.614-.045.263-.002.344-.104.28-.335-.166-.587-.282-1.196-.523-1.752-1.183-2.734-4.023-4.391-6.992-4.103-.707.069-1.397.223-2.07.55zm-1.115-2.06c-.023-.12-.041-.16-.035-.193.02-.104.05-.205.075-.307.082.056.186.096.241.172.134.183.23.393.37.57.061.077.193.099.292.147.043-.092.12-.184.12-.277.003-.186-.054-.371-.055-.558 0-.142.046-.286.07-.428.1.102.22.192.295.309.096.148.138.332.24.474.063.089.193.132.293.194.052-.097.14-.192.15-.294.02-.235-.007-.474.008-.71.005-.08.08-.154.121-.231.066.06.161.108.192.183.095.227.151.47.251.695.038.082.18.194.231.175.088-.033.181-.149.202-.245.047-.22.04-.453.077-.675.016-.092.094-.174.144-.26.062.074.154.14.18.225.066.216.087.447.158.66.032.097.14.169.212.252.083-.084.205-.155.24-.255.08-.232.106-.481.175-.717.02-.066.11-.111.167-.166.05.064.131.123.143.193.037.224.03.456.077.676.025.118.128.219.196.327.094-.085.22-.155.277-.26.083-.153.104-.34.178-.5.053-.11.152-.2.23-.3.044.115.113.228.125.346.019.195-.022.398.005.59.016.107.12.2.183.3.091-.064.213-.11.265-.196.122-.202.2-.43.316-.635.04-.07.143-.103.218-.152.033.082.1.167.095.246-.016.246-.076.49-.082.735-.002.095.093.194.143.29.09-.047.21-.073.266-.148.144-.187.25-.403.391-.591.053-.07.165-.097.249-.143.021.088.07.182.057.264-.036.203-.122.4-.147.603-.015.13.044.27.07.404.124-.057.273-.088.366-.178.162-.156.284-.353.436-.521.043-.047.134-.05.203-.074.022.077.08.165.06.229-.066.215-.179.418-.232.638-.03.124.02.268.035.402.123-.038.266-.05.364-.123.158-.116.276-.282.43-.406.078-.064.194-.08.293-.12-.004.106.021.222-.016.314-.073.181-.199.344-.263.528-.041.12-.01.265-.012.4.134-.031.286-.032.4-.099.186-.109.34-.27.52-.389.058-.038.156-.016.236-.022-.001.08.026.176-.01.236-.102.18-.248.335-.34.518-.064.128-.066.286-.095.43.153-.02.318-.009.456-.065.18-.073.334-.21.511-.294.07-.033.173.003.26.008-.016.08-.01.177-.055.235-.144.187-.324.348-.457.542-.062.088-.045.23-.065.348.11.011.232.055.33.026.179-.052.339-.164.517-.218.123-.04.262-.024.395-.033-.067.117-.115.25-.202.349-.116.133-.278.226-.388.363-.07.088-.084.222-.123.335.115.026.237.09.345.072.192-.032.374-.13.565-.168.117-.023.246.013.369.023-.071.103-.127.224-.218.305-.138.125-.316.205-.45.334-.08.077-.107.21-.158.318.11.041.225.121.332.113.234-.018.464-.094.697-.121.078-.008.164.059.246.092-.043.07-.069.165-.13.204-.217.137-.454.242-.665.384-.075.05-.15.188-.13.262.018.069.158.144.247.148.225.01.452-.03.679-.027.103.002.206.058.309.09-.077.083-.14.194-.235.247-.172.093-.374.135-.542.235-.102.06-.165.19-.245.29.103.058.2.152.31.17.242.036.491.025.736.051.06.007.152.078.159.128.007.052-.06.144-.116.169-.14.06-.292.093-.486.15 1.111.18 1.593-.198 1.808-1.188.052-.235.052-.5.002-.735-.321-1.53-.81-2.991-1.841-4.213-1.55-1.836-3.536-3.033-5.75-3.878-1.588-.606-3.219-.751-4.877-.31-.616.164-1.26.25-1.803.629-.762.533-.921 1.26-.381 2.078zm13.121 9.31c.053.022.093.028.12.05.074.062.142.13.213.195-.086.045-.168.115-.258.128-.194.03-.397.01-.589.047-.13.026-.246.114-.368.174.098.106.179.24.297.312.167.101.37.142.542.235.077.043.121.148.18.225-.092.035-.185.098-.277.099-.217.001-.434-.046-.65-.037-.109.005-.215.09-.323.139.061.101.1.236.19.3.183.131.4.213.588.34.072.047.103.158.152.24-.087.025-.176.08-.259.068-.224-.028-.443-.102-.667-.12-.11-.009-.225.067-.338.106.048.108.068.248.149.32.175.157.388.271.57.423.058.05.064.162.094.245-.08.014-.168.057-.24.038-.228-.058-.447-.158-.678-.205-.107-.022-.231.04-.348.063.036.114.042.255.115.336.155.177.351.317.516.486.052.053.057.15.083.228-.087.014-.185.063-.257.037-.213-.075-.41-.2-.625-.267-.111-.035-.25.013-.375.024.033.124.036.268.104.369.127.186.3.34.436.522.042.055.026.154.037.234-.08.002-.177.034-.24.001-.218-.114-.418-.264-.64-.37-.09-.044-.219-.014-.33-.017.005.119-.026.258.024.353.11.208.27.389.39.593.039.068.016.173.02.261-.087-.012-.192.001-.259-.044-.196-.132-.366-.304-.568-.425-.09-.054-.232-.023-.35-.03-.001.11-.034.234.005.33.083.209.215.398.302.607.035.083.004.193.004.29-.093-.031-.205-.04-.275-.098-.173-.146-.315-.329-.492-.469-.08-.064-.211-.061-.32-.088-.02.116-.079.24-.054.345.047.2.156.385.21.584.028.105-.004.227-.01.342-.102-.058-.223-.097-.3-.178-.145-.147-.25-.332-.398-.476-.073-.071-.201-.086-.305-.125-.036.112-.113.23-.099.335.033.233.123.458.165.69.015.08-.04.173-.064.26-.078-.042-.183-.064-.231-.129-.13-.173-.22-.376-.355-.544-.076-.097-.209-.148-.317-.22-.047.128-.13.253-.132.38-.004.216.055.431.064.647.003.082-.061.167-.095.25-.073-.053-.171-.091-.213-.162-.1-.17-.154-.366-.262-.53-.078-.117-.212-.197-.321-.294-.06.131-.152.258-.17.394-.03.203.007.415-.01.62-.007.078-.086.15-.131.225-.06-.055-.148-.098-.176-.166-.09-.22-.14-.456-.241-.668-.046-.097-.174-.156-.264-.231-.066.097-.165.188-.19.294-.045.192-.03.395-.07.587-.022.11-.105.205-.16.308-.062-.089-.148-.169-.18-.268-.056-.167-.055-.355-.12-.516-.053-.13-.17-.231-.258-.345-.084.117-.199.225-.247.357-.071.192-.084.405-.144.603-.02.067-.108.115-.166.171-.05-.064-.133-.121-.145-.192-.038-.223-.03-.454-.078-.675-.025-.117-.129-.217-.197-.325-.095.085-.225.153-.276.26-.102.211-.15.448-.242.666-.026.06-.126.09-.192.135-.036-.063-.1-.125-.102-.189-.009-.236.024-.475 0-.71-.013-.116-.114-.224-.175-.335-.102.077-.235.135-.3.235-.12.191-.19.412-.3.61-.036.063-.13.094-.198.14-.038-.08-.112-.162-.108-.24.014-.235.077-.468.082-.703.003-.11-.081-.22-.126-.33-.104.057-.237.09-.307.176-.136.168-.227.371-.356.545-.056.073-.16.111-.243.166-.023-.104-.066-.21-.063-.313.003-.109.05-.215.077-.323-.129.137-.215.29-.3.445-.333.612-.282 1.156.232 1.632.26.241.59.428.92.568.35.15.737.216 1.109.314 1.073.282 2.157.35 3.255.163 1.673-.286 3.165-1.013 4.595-1.891 2.397-1.471 4.063-3.48 4.624-6.296.068-.345.103-.707.078-1.056-.051-.7-.616-1.458-1.425-1.264zm-14.608 6.638c-.056.054-.105.121-.17.157-.084.046-.182.068-.274.1.003-.106-.023-.222.014-.313.082-.2.214-.38.29-.581.039-.101-.003-.233-.008-.351-.118.016-.257-.001-.35.057-.202.122-.373.292-.567.426-.06.04-.158.027-.237.039.001-.089-.024-.19.01-.262.064-.131.168-.244.245-.37.106-.175.36-.364.161-.564-.191-.192-.393.05-.576.145-.123.063-.231.157-.357.21-.076.031-.174.01-.263.013.016-.088.006-.195.053-.258.143-.188.324-.349.456-.543.06-.088.04-.23.057-.349-.111-.008-.234-.051-.33-.019-.223.077-.429.2-.65.282-.074.027-.172-.014-.26-.023.029-.085.035-.19.09-.25.125-.138.29-.241.407-.385.096-.119.235-.312.197-.407-.088-.215-.304-.097-.468-.051-.19.053-.373.131-.564.176-.068.014-.151-.04-.228-.061.03-.075.039-.175.094-.22.19-.154.408-.278.594-.44.075-.065.094-.196.139-.298-.102-.042-.206-.125-.302-.117-.245.02-.484.094-.728.122-.078.008-.163-.06-.245-.094.042-.07.07-.164.132-.203.2-.127.423-.218.615-.354.087-.063.122-.199.18-.302-.106-.052-.211-.142-.32-.147-.225-.01-.452.04-.678.04-.08 0-.161-.067-.242-.103.055-.071.095-.173.167-.208.212-.104.444-.166.652-.277.09-.047.139-.17.206-.259-.088-.065-.17-.171-.265-.188-.223-.035-.454-.014-.678-.043-.097-.013-.185-.095-.277-.146.074-.064.138-.155.223-.187.183-.07.388-.087.566-.165.12-.053.212-.173.317-.262-.12-.081-.23-.194-.363-.237-.175-.057-.372-.045-.551-.095-.096-.026-.172-.12-.257-.182.082-.055.158-.137.25-.16.19-.046.395-.04.58-.097.127-.038.23-.15.344-.227-.104-.09-.194-.21-.313-.263-.178-.08-.381-.101-.565-.171-.086-.032-.152-.12-.227-.184.09-.054.176-.142.272-.155.214-.03.436-.003.649-.04.106-.017.198-.12.297-.185-.068-.088-.117-.21-.206-.258-.208-.111-.439-.177-.65-.282-.072-.036-.111-.136-.165-.207.08-.039.16-.113.24-.112.236 0 .472.046.708.043.1-.002.198-.087.297-.134-.058-.104-.093-.239-.18-.304-.164-.123-.366-.194-.536-.312-.088-.062-.14-.176-.21-.266.115-.02.233-.066.344-.057.195.02.386.093.58.104.111.006.225-.067.337-.105-.046-.109-.064-.249-.145-.321-.174-.157-.386-.274-.569-.421-.057-.047-.072-.145-.105-.218.085-.025.177-.085.252-.067.239.057.467.16.707.212.096.02.211-.049.318-.077-.032-.107-.035-.238-.101-.313-.157-.175-.353-.316-.517-.487-.055-.058-.062-.163-.09-.248.088-.012.188-.055.262-.028.195.068.372.187.569.247.125.038.272.006.41.004-.034-.133-.039-.282-.107-.393-.097-.157-.252-.278-.36-.43-.058-.084-.072-.2-.107-.302.115.013.242-.004.341.043.186.087.35.226.536.311.093.043.218.014.329.017-.003-.119.03-.257-.018-.352-.102-.201-.26-.373-.37-.57-.043-.075-.022-.188-.03-.284.088.016.192.007.26.052.189.127.351.291.544.408.095.057.234.04.353.057.004-.118.043-.251.003-.352-.09-.228-.228-.437-.33-.661-.027-.057.008-.142.015-.215.078.01.167 0 .233.034.085.044.15.125.225.19-.447-1.057-1.238-1.31-2.201-.734-.218.13-.414.301-.602.473-.224.207-.43.435-.644.655-.924.95-1.583 2.06-1.972 3.33-.488 1.599-.572 3.24-.474 4.893.07 1.189.297 2.346.745 3.457.574 1.422 1.54 2.55 2.689 3.516.946.798 1.932.576 2.448-.507zm2.66-20.964c0-.208-.023-.418.01-.62.015-.1.116-.221.208-.257.052-.019.206.1.24.186.132.339.234.69.352 1.035.07.204.168.424.415.39.256-.034.303-.266.32-.499.025-.344.057-.689.113-1.03.017-.101.123-.19.188-.285.087.087.22.161.25.265.098.34.16.69.23 1.039.043.217.126.435.368.434.242 0 .326-.224.37-.436.07-.328.128-.66.205-.985.034-.145.053-.364.27-.304.098.027.2.198.22.317.057.35.078.705.109 1.059.019.214.097.436.32.42.136-.008.312-.19.378-.336.153-.34.238-.71.378-1.057.037-.095.17-.15.26-.222.068.102.19.202.195.307.018.355-.004.71-.012 1.066-.005.216.008.453.25.512.238.058.368-.133.46-.333.145-.313.279-.633.448-.933.059-.102.213-.15.323-.222.048.114.142.232.135.343-.026.364-.116.723-.128 1.086-.006.162.066.406.184.475.19.111.363-.051.476-.233.18-.294.36-.59.549-.879.081-.123.14-.306.357-.22.216.086.143.253.106.402-.085.344-.203.683-.255 1.031-.024.16.027.402.137.492.164.133.353-.007.479-.161.237-.29.458-.595.708-.873.072-.079.226-.085.342-.124.023.119.097.254.064.354-.111.347-.259.683-.394 1.021-.078.198-.104.409.084.54.196.137.375.006.522-.137.262-.255.51-.526.784-.765.081-.07.234-.058.353-.084.009.123.062.266.017.365-.15.332-.335.648-.506.97-.1.187-.158.427.03.533.125.07.383.007.528-.082.3-.186.564-.43.845-.647.12-.094.27-.2.38-.03.051.082.026.26-.031.356-.159.272-.35.526-.534.783-.142.198-.306.429-.116.64.21.232.454.053.665-.075.27-.164.53-.347.811-.49.096-.048.24-.001.363.003-.02.12 0 .27-.065.356-.223.288-.476.553-.718.827-.139.158-.258.366-.09.521.103.096.354.106.507.057.316-.102.61-.272.917-.408.147-.065.312-.193.448 0 .156.219-.06.316-.178.43-.235.224-.484.434-.724.655-.151.14-.29.31-.168.516.119.2.336.177.533.114.33-.102.655-.215.985-.32.148-.046.338-.131.395.083.026.096-.074.268-.167.345-.258.212-.542.394-.817.586-.189.132-.36.296-.252.537.104.23.347.194.552.157.33-.059.654-.151.985-.194.12-.016.251.071.378.113-.069.112-.112.265-.212.329-.299.192-.618.35-.93.518-.189.102-.342.252-.276.468.067.22.283.25.493.232.363-.031.726-.077 1.09-.081.106-.002.213.112.32.173-.07.093-.12.226-.214.27-.33.155-.686.255-1.006.426-.151.081-.342.276-.34.418.005.227.244.297.47.301.335.006.672-.001 1.005.035.13.015.325.106.359.206.072.212-.148.236-.294.28-.321.093-.646.178-.97.265-.212.057-.425.157-.405.399.02.25.248.325.48.356.331.044.666.08.991.156.116.026.208.158.31.242-.098.074-.187.192-.298.216-.346.076-.699.12-1.05.17-.21.031-.414.112-.435.334-.023.24.179.352.392.411.332.093.67.166.996.28.115.04.27.165.28.265.021.201-.175.192-.323.199-.345.015-.69.036-1.035.044-.226.004-.447.063-.487.295-.04.232.153.364.36.446.311.124.622.25.932.378.144.06.347.115.254.316-.04.089-.235.149-.359.148-.294-.002-.588-.05-.883-.077-.089-.008-.191-.04-.263-.006-.142.065-.332.143-.377.263-.036.095.082.308.191.385.264.187.562.327.846.486.069.038.156.061.203.118.072.087.117.197.174.297-.107.042-.22.13-.32.116-.312-.039-.62-.118-.929-.18-.241-.049-.53-.142-.662.136-.14.297.115.461.33.612.258.18.523.355.766.555.079.066.096.205.142.31-.11.03-.232.106-.329.082-.305-.076-.601-.19-.902-.285-.093-.03-.194-.088-.283-.074-.145.02-.351.052-.408.15-.055.099-.005.324.081.423.22.251.494.452.727.693.127.132.427.228.25.482-.16.23-.356.013-.523-.054-.265-.106-.522-.235-.78-.358-.2-.094-.42-.148-.57.042-.152.191-.047.391.1.559.233.267.477.527.693.808.067.088.058.237.083.357-.122-.005-.266.03-.365-.021-.313-.166-.61-.364-.913-.547-.189-.115-.402-.184-.569-.002-.156.171-.074.372.044.544.201.294.415.579.598.883.058.097.034.243.048.365-.122-.016-.27.005-.36-.057-.285-.194-.547-.42-.82-.633-.18-.14-.389-.262-.586-.087-.178.158-.115.382-.014.576.164.315.345.622.492.945.042.094-.005.227-.012.342-.112-.025-.255-.014-.331-.082-.273-.241-.525-.507-.783-.766-.16-.162-.38-.274-.544-.117-.105.1-.122.367-.078.532.093.351.265.68.375 1.028.031.097-.037.225-.06.338-.105-.042-.243-.057-.312-.133-.236-.265-.451-.548-.669-.83-.139-.18-.317-.305-.533-.207-.228.104-.213.333-.16.544.085.345.19.686.26 1.033.022.104-.046.227-.073.341-.11-.055-.259-.083-.323-.171-.206-.288-.384-.598-.57-.901-.117-.192-.277-.341-.505-.265-.223.074-.24.296-.216.5.042.363.11.723.138 1.086.007.11-.088.226-.136.338-.093-.069-.222-.117-.272-.21-.173-.32-.317-.657-.474-.987-.09-.194-.233-.35-.455-.303-.226.047-.284.25-.282.464.003.375.019.751.005 1.126-.003.097-.091.191-.14.287-.09-.07-.226-.122-.263-.213-.137-.338-.243-.689-.359-1.035-.07-.212-.193-.405-.43-.378-.235.028-.316.248-.337.465-.034.344-.043.691-.094 1.031-.017.114-.128.213-.197.318-.078-.096-.195-.182-.225-.292-.091-.333-.146-.675-.22-1.012-.047-.215-.144-.423-.388-.42-.24.004-.337.204-.381.425-.073.358-.142.717-.238 1.069-.024.09-.14.156-.214.232-.068-.08-.181-.154-.195-.244-.055-.35-.084-.705-.111-1.059-.019-.233-.08-.468-.325-.506-.266-.04-.385.18-.46.412-.11.339-.217.678-.35 1.007-.034.087-.16.135-.243.202-.055-.09-.155-.18-.159-.273-.014-.374 0-.75.005-1.125.004-.21-.034-.422-.26-.479-.238-.06-.38.109-.475.311-.156.33-.303.666-.475.988-.046.085-.169.129-.256.191-.052-.1-.153-.206-.146-.304.026-.363.083-.725.137-1.086.033-.223.01-.447-.21-.532-.224-.088-.389.073-.507.26-.184.293-.352.596-.554.875-.071.098-.221.137-.336.203-.025-.13-.092-.268-.068-.39.065-.338.164-.67.254-1.003.06-.22.047-.467-.17-.53-.14-.042-.38.075-.501.196-.256.256-.455.57-.697.842-.068.077-.209.088-.315.13-.021-.112-.087-.239-.056-.335.108-.338.25-.664.376-.997.076-.203.126-.435-.072-.57-.21-.142-.41-.022-.576.146-.235.24-.465.487-.72.704-.09.078-.246.08-.373.115.005-.132-.028-.281.023-.393.136-.305.306-.596.466-.89.107-.197.17-.411-.01-.574-.2-.179-.407-.06-.588.08-.28.218-.551.449-.843.65-.082.057-.22.03-.334.04.007-.115-.025-.253.029-.34.19-.312.408-.605.615-.906.119-.175.195-.377.04-.545-.167-.179-.38-.114-.57.002-.286.175-.57.353-.859.523-.132.079-.302.214-.407.024-.047-.085.037-.285.117-.39.202-.268.461-.493.646-.77.096-.141.16-.394.097-.53-.094-.197-.338-.151-.528-.066-.333.149-.659.317-.998.45-.095.038-.226-.013-.34-.023.032-.118.028-.272.103-.35.254-.261.534-.497.806-.74.162-.146.258-.336.147-.525-.113-.195-.327-.184-.531-.116-.336.113-.671.234-1.015.322-.108.028-.242-.038-.364-.062.05-.112.07-.258.153-.33.208-.18.445-.327.67-.487.08-.057.189-.099.234-.177.087-.15.138-.322.203-.485-.165-.06-.334-.18-.495-.17-.312.022-.619.115-.928.178-.077.016-.16.048-.232.034-.095-.017-.182-.072-.273-.11.043-.098.058-.232.132-.285.192-.136.41-.236.617-.35.138-.076.305-.126.407-.236.116-.123.175-.3.258-.453-.146-.077-.29-.217-.44-.22-.363-.011-.727.055-1.09.058-.123.002-.313-.059-.354-.147-.1-.21.116-.25.254-.309.318-.134.64-.26.96-.391.196-.08.386-.227.317-.432-.045-.132-.266-.261-.424-.286-.32-.052-.65-.026-.974-.043-.166-.008-.391.055-.431-.195-.043-.26.192-.255.352-.304.312-.092.626-.175.94-.262.206-.056.41-.178.364-.391-.029-.134-.236-.283-.391-.325-.35-.093-.718-.121-1.078-.18-.147-.024-.335-.052-.288-.25.023-.093.177-.197.288-.221.346-.073.708-.083 1.048-.175.165-.044.392-.194.422-.333.048-.225-.174-.343-.39-.4-.334-.089-.671-.167-.996-.283-.11-.04-.186-.178-.278-.272.113-.069.221-.182.342-.195.302-.033.61-.019.916-.027.088-.002.193.011.26-.03.124-.08.304-.184.315-.294.013-.114-.119-.298-.236-.36-.294-.158-.615-.265-.925-.392-.082-.033-.182-.05-.24-.109-.067-.064-.145-.179-.128-.25.016-.07.146-.164.225-.162.384.009.767.047 1.15.074.206.014.425.006.498-.22.077-.239-.094-.382-.289-.487-.303-.165-.608-.328-.908-.498-.125-.072-.311-.152-.196-.325.057-.087.247-.139.366-.124.332.043.658.127.985.198.226.049.466.057.565-.182.092-.225-.083-.385-.26-.51-.29-.207-.588-.4-.864-.623-.079-.063-.094-.205-.139-.31.118-.036.25-.123.352-.097.353.09.695.22 1.041.334.2.064.415.092.528-.116.105-.197-.002-.377-.165-.52-.274-.242-.551-.481-.808-.74-.07-.073-.07-.216-.102-.327.12-.021.258-.093.356-.056.331.126.647.292.97.439.197.09.424.159.565-.044.134-.192.026-.392-.126-.56-.22-.239-.433-.485-.644-.734-.098-.115-.251-.23-.108-.406.154-.19.303-.052.442.03.271.161.54.328.807.495.195.121.422.219.593.032.175-.19.047-.405-.084-.59-.2-.283-.395-.568-.59-.852-.084-.122-.148-.272.016-.355.085-.043.247-.02.331.037.268.182.516.397.772.597.187.147.392.346.627.152.248-.206.078-.448-.038-.666-.15-.279-.313-.55-.437-.84-.044-.1.01-.241.019-.364.12.024.272.01.352.08.275.24.508.527.79.757.125.104.358.195.488.146.218-.08.177-.33.112-.519-.123-.354-.279-.696-.395-1.052-.03-.096.034-.221.055-.333.117.033.274.029.344.105.246.27.442.584.697.843.12.122.362.25.49.207.212-.071.218-.313.151-.537-.097-.32-.175-.647-.257-.972-.036-.149-.118-.312.088-.41.232-.111.293.087.378.219.183.28.356.569.531.855.111.18.266.339.478.26.22-.08.25-.295.208-.524-.061-.34-.115-.683-.137-1.026-.008-.118.056-.302.146-.353.173-.1.252.072.317.21.152.32.302.642.453.963.091.192.24.38.444.293.124-.053.2-.285.24-.45.04-.168.009-.353.009-.531h-.015zM176.942 209.55c-.39-.166-.697-.397-.92-.692-.221-.296-.336-.636-.343-1.024h1.042c.036.333.181.613.435.84.254.228.625.342 1.112.342.465 0 .833-.11 1.101-.332.269-.22.403-.503.403-.85 0-.27-.078-.492-.236-.661-.157-.17-.354-.299-.59-.387-.238-.088-.556-.184-.957-.285-.494-.123-.89-.244-1.187-.368-.297-.12-.552-.313-.763-.574-.212-.262-.317-.612-.317-1.053 0-.388.104-.731.312-1.03.207-.297.499-.528.875-.692.376-.162.808-.245 1.295-.245.701 0 1.277.167 1.724.5.448.334.7.773.757 1.324h-1.074c-.036-.273-.186-.511-.452-.719-.264-.206-.615-.31-1.051-.31-.41 0-.742.1-1 .3-.258.2-.387.482-.387.84 0 .26.077.47.23.632.155.163.346.287.571.372.226.084.542.18.95.29.494.128.892.256 1.193.382.3.125.559.318.773.58.216.261.323.616.323 1.065 0 .345-.097.67-.29.976-.194.306-.48.553-.86.743-.38.19-.827.285-1.343.285-.494 0-.936-.083-1.326-.249M186.748 205.567c-.168-.257-.394-.453-.68-.586-.287-.133-.604-.2-.952-.2-.5 0-.926.151-1.278.451-.352.302-.553.72-.603 1.253h3.762c0-.356-.083-.662-.25-.918m1.24 1.677h-4.764c.037.553.238.987.604 1.298.366.311.81.467 1.333.467.428 0 .785-.094 1.07-.283.287-.187.489-.439.605-.753h1.065c-.16.54-.479.98-.957 1.317-.478.34-1.073.509-1.783.509-.566 0-1.071-.12-1.518-.359-.446-.24-.796-.58-1.049-1.022-.254-.44-.38-.952-.38-1.533 0-.582.122-1.091.37-1.529.245-.438.591-.775 1.037-1.01.446-.237.96-.355 1.54-.355.565 0 1.065.117 1.5.35.435.231.77.553 1.006.959.236.407.354.867.354 1.379 0 .178-.011.367-.033.565M190.288 204.794v3.418c0 .282.054.482.163.598.107.116.294.174.561.174h.638v.815h-.78c-.484 0-.845-.123-1.086-.37-.241-.247-.362-.653-.362-1.217v-3.418h-.676V204h.676v-1.462h.866v1.462h1.362v.793h-1.362zM193.918 204.794v3.418c0 .282.054.482.162.598.108.116.295.174.562.174h.638v.815h-.78c-.484 0-.845-.123-1.086-.37-.241-.247-.362-.653-.362-1.217v-3.418h-.676V204h.676v-1.462h.866v1.462h1.362v.793h-1.362zM196.91 209.799h1.084v-5.75h-1.083v5.75zm.037-6.873c-.144-.126-.215-.28-.215-.461 0-.183.071-.337.215-.464.141-.124.316-.188.522-.188.2 0 .367.064.506.188.139.127.209.281.209.464 0 .18-.07.335-.209.46-.139.127-.307.19-.506.19-.206 0-.38-.063-.522-.19zM204.076 204.62c.427.42.641 1.026.641 1.817v3.362h-.93v-3.227c0-.568-.143-1.004-.425-1.306-.283-.302-.67-.453-1.16-.453-.496 0-.891.156-1.184.469-.294.311-.44.766-.44 1.363v3.154h-.942v-5.704h.942v.812c.186-.292.44-.517.76-.678.321-.158.674-.238 1.061-.238.69 0 1.249.21 1.677.629M210.754 205.823c-.174-.322-.41-.57-.705-.741-.296-.173-.621-.259-.977-.259-.355 0-.679.085-.97.253-.293.169-.527.414-.7.737-.175.324-.262.702-.262 1.139 0 .441.087.826.261 1.152.174.327.408.577.7.749.292.172.616.257.971.257.356 0 .681-.085.977-.257.296-.172.531-.422.705-.75.174-.325.261-.706.261-1.142 0-.434-.087-.814-.26-1.138m-.57-1.505c.372.217.65.492.83.821v-1.053h.962v5.898c0 .527-.112.995-.335 1.406-.223.41-.541.732-.956.965-.414.231-.896.348-1.446.348-.752 0-1.38-.18-1.88-.538-.502-.358-.798-.846-.888-1.465h.94c.104.352.32.634.647.849.327.213.721.321 1.18.321.523 0 .95-.165 1.28-.494.33-.331.496-.795.496-1.392v-1.212c-.187.338-.466.619-.835.845-.37.223-.801.336-1.296.336-.508 0-.97-.127-1.384-.38-.414-.252-.74-.607-.976-1.064-.238-.456-.355-.976-.355-1.557 0-.59.117-1.108.355-1.554.237-.446.562-.793.976-1.038.415-.245.876-.369 1.384-.369.495 0 .929.11 1.3.327M214.569 209.579c-.343-.148-.613-.354-.812-.616-.199-.263-.308-.567-.328-.908h.965c.027.28.16.509.396.687.236.178.546.267.93.267.355 0 .636-.079.841-.236.206-.157.31-.355.31-.596 0-.245-.11-.428-.33-.548-.219-.12-.558-.238-1.017-.355-.418-.11-.758-.22-1.022-.333-.263-.113-.49-.28-.678-.502-.189-.223-.283-.515-.283-.878 0-.287.086-.55.257-.79.171-.238.414-.43.73-.57.314-.14.674-.21 1.078-.21.624 0 1.126.158 1.51.472.384.315.59.746.617 1.294h-.935c-.02-.295-.138-.53-.354-.71-.216-.176-.506-.265-.869-.265-.335 0-.603.071-.801.215-.199.144-.298.332-.298.564 0 .185.06.337.18.457s.27.216.452.287c.181.073.434.152.755.241.404.11.733.217.986.324.254.106.472.265.653.477.181.212.275.488.282.83 0 .309-.086.586-.257.832-.17.246-.412.44-.724.58-.312.14-.67.21-1.074.21-.43 0-.818-.074-1.16-.22" transform="translate(0 -110) translate(0 110) translate(63)"/>
                    <path fill="#FFF" d="M121.747 26.65c-.362 0-.655.28-.655.622v.628c0 .342.293.62.655.62h21.478c.36 0 .654-.278.654-.62v-.628c0-.342-.293-.622-.654-.622h-21.478zm21.478 3.114h-21.478c-1.084 0-1.966-.836-1.966-1.864v-.628c0-1.028.882-1.864 1.966-1.864h21.478c1.083 0 1.965.836 1.965 1.864v.628c0 1.028-.882 1.864-1.965 1.864zM107.078 25.305c-1.459 0-2.645 1.186-2.645 2.644 0 1.458 1.186 2.644 2.645 2.644 1.458 0 2.644-1.186 2.644-2.644 0-1.458-1.186-2.644-2.644-2.644m0 6.637c-2.202 0-3.993-1.792-3.993-3.993 0-2.202 1.791-3.993 3.993-3.993s3.992 1.79 3.992 3.993c0 2.201-1.79 3.993-3.992 3.993" transform="translate(0 -110) translate(0 110) translate(63)"/>
                </g>
            </g>
        </g>
    </g>
</svg>
