<svg xmlns="http://www.w3.org/2000/svg" xmlns:xlink="http://www.w3.org/1999/xlink" width="375" height="232" viewBox="0 0 375 232">
    <defs>
        <path id="3ksikl41da" d="M0 0.372L248.748 0.372 248.748 230.125 0 230.125z"/>
        <path id="8vlm74vbmc" d="M0 230.851L248.611 230.851 248.611 0.726 0 0.726z"/>
    </defs>
    <g fill="none" fill-rule="evenodd">
        <g>
            <g>
                <g transform="translate(0 -110) translate(0 110) translate(62.832)">
                    <g>
                        <mask id="0fq3d7e2nb" fill="#fff">
                            <use xlink:href="#3ksikl41da"/>
                        </mask>
                        <path fill="#FFF" d="M248.748 230.125h-2.655V23.471c0-11.277-9.205-20.452-20.52-20.452H23.176c-11.315 0-20.52 9.175-20.52 20.452v206.654H0V23.471C0 10.734 10.396.371 23.175.371h202.399c12.778 0 23.174 10.363 23.174 23.1v206.654z" mask="url(#0fq3d7e2nb)"/>
                    </g>
                    <path fill="#FFF" d="M231.235 230.125h-1.33V28.761c0-5.122-4.192-9.29-9.343-9.29h-38.31c-5.539 0-10.046 4.48-10.046 9.99 0 6.237-5.103 11.31-11.376 11.31H87.586c-6.272 0-11.376-5.073-11.376-11.31 0-5.51-4.507-9.99-10.047-9.99H28.05c-5.151 0-9.342 4.168-9.342 9.29v201.364h-1.33V28.761c0-5.852 4.787-10.612 10.672-10.612h38.114c6.273 0 11.377 5.074 11.377 11.311 0 5.508 4.507 9.989 10.046 9.989h73.244c5.54 0 10.047-4.481 10.047-9.989 0-6.237 5.103-11.311 11.375-11.311h38.31c5.885 0 10.673 4.76 10.673 10.612v201.364z"/>
                    <mask id="ww83dr7n7d" fill="#fff">
                        <use xlink:href="#8vlm74vbmc"/>
                    </mask>
                    <g mask="url(#ww83dr7n7d)">
                        <g>
                            <text font-family="Poppins-Medium, Poppins" font-size="12" font-weight="400" letter-spacing=".24" opacity=".5" transform="translate(29.685 85.936)">
                                <tspan x="0" y="13.367" fill="#FFF">NETWORK1</tspan>
                            </text>
                            <text font-family="Poppins-Medium, Poppins" font-size="12" font-weight="400" letter-spacing=".24" transform="translate(29.685 85.936)">
                                <tspan x="0" y="62.213" fill="#FDBA12">GE_MODULE_XXXX</tspan>
                            </text>
                            <text font-family="Poppins-Medium, Poppins" font-size="12" font-weight="400" letter-spacing=".24" opacity=".5" transform="translate(29.685 85.936)">
                                <tspan x="0" y="111.059" fill="#FFF">HomeWifi</tspan>
                            </text>
                            <g opacity=".5">
                                <path fill="#FFF" d="M6.837 10.53l.09.089.087-.09L8.28 9c-.366-.318-.835-.518-1.353-.518-.519 0-.988.2-1.354.518l1.265 1.53zM3.723 6.764c.894-.775 2.016-1.2 3.203-1.2 1.186 0 2.308.425 3.203 1.2l.816-.987c-1.124-.97-2.53-1.504-4.019-1.504-1.489 0-2.896.533-4.02 1.504l.817.987zM.203 2.51C2.08.887 4.434 0 6.925 0c2.49 0 4.846.887 6.723 2.51l-.818.99C11.18 2.073 9.114 1.29 6.926 1.29S2.671 2.073 1.021 3.5l-.819-.99z" transform="translate(29.685 85.936) translate(175.456 2.558)"/>
                            </g>
                            <g>
                                <path fill="#FDBA12" d="M6.837 10.53l.09.089.087-.09L8.28 9c-.366-.318-.835-.518-1.353-.518-.519 0-.988.2-1.354.518l1.265 1.53zM3.723 6.764c.894-.775 2.016-1.2 3.203-1.2 1.186 0 2.308.425 3.203 1.2l.816-.987c-1.124-.97-2.53-1.504-4.019-1.504-1.489 0-2.896.533-4.02 1.504l.817.987zM.203 2.51C2.08.887 4.434 0 6.925 0c2.49 0 4.846.887 6.723 2.51l-.818.99C11.18 2.073 9.114 1.29 6.926 1.29S2.671 2.073 1.021 3.5l-.819-.99z" transform="translate(29.685 85.936) translate(175.456 51.403)"/>
                            </g>
                            <g opacity=".5">
                                <path fill="#FFF" d="M6.837 10.53l.09.089.087-.09L8.28 9c-.366-.318-.835-.518-1.353-.518-.519 0-.988.2-1.354.518l1.265 1.53zM3.723 6.764c.894-.775 2.016-1.2 3.203-1.2 1.186 0 2.308.425 3.203 1.2l.816-.987c-1.124-.97-2.53-1.504-4.019-1.504-1.489 0-2.896.533-4.02 1.504l.817.987zM.203 2.51C2.08.887 4.434 0 6.925 0c2.49 0 4.846.887 6.723 2.51l-.818.99C11.18 2.073 9.114 1.29 6.926 1.29S2.671 2.073 1.021 3.5l-.819-.99z" transform="translate(29.685 85.936) translate(175.456 100.25)"/>
                            </g>
                            <g opacity=".5" transform="translate(29.685 85.936) translate(161.366 6.097)">
                                <rect width="4.246" height="2.832" y="1.416" fill="#FFF" rx="1"/>
                                <path stroke="#FFF" d="M.708 2.124C.692.708 1.15 0 2.08 0c.93 0 1.417.708 1.46 2.124"/>
                            </g>
                            <g opacity=".5" transform="translate(29.685 85.936) translate(161.366 103.789)">
                                <rect width="4.246" height="2.832" y="1.416" fill="#FFF" rx="1"/>
                                <path stroke="#FFF" d="M.708 2.124C.692.708 1.15 0 2.08 0c.93 0 1.417.708 1.46 2.124"/>
                            </g>
                            <path stroke="#FFF" stroke-linecap="square" d="M.323 82.552L189.495 82.552M.323 33.706L189.495 33.706" opacity=".25" transform="translate(29.685 85.936)"/>
                        </g>
                    </g>
                </g>
            </g>
        </g>
    </g>
</svg>
