<svg xmlns="http://www.w3.org/2000/svg" xmlns:xlink="http://www.w3.org/1999/xlink" width="375" height="232" viewBox="0 0 375 232">
    <defs>
        <path id="d8ypm2mana" d="M0 0.372L248.246 0.372 248.246 230.125 0 230.125z"/>
    </defs>
    <g fill="none" fill-rule="evenodd">
        <g>
            <g>
                <g>
                    <g transform="translate(-7705 -5399) translate(7705 5399) translate(62.832)">
                        <mask id="w6h5di8mwb" fill="#fff">
                            <use xlink:href="#d8ypm2mana"/>
                        </mask>
                        <path fill="#FFF" d="M248.246 230.125h-2.65V23.471c0-11.277-9.186-20.452-20.478-20.452H23.128C11.836 3.02 2.65 12.194 2.65 23.471v206.654H0V23.471C0 10.734 10.375.371 23.128.371h201.99c12.753 0 23.128 10.363 23.128 23.1v206.654z" mask="url(#w6h5di8mwb)"/>
                    </g>
                    <path fill="#FFF" d="M230.732 230.125h-1.327V28.761c0-5.122-4.182-9.29-9.321-9.29h-38.22c-5.526 0-10.022 4.48-10.022 9.99 0 6.237-5.091 11.31-11.349 11.31H87.421c-6.257 0-11.35-5.073-11.35-11.31 0-5.51-4.496-9.99-10.023-9.99H28.024c-5.14 0-9.32 4.168-9.32 9.29v201.364h-1.328V28.761c0-5.852 4.777-10.612 10.648-10.612h38.024c6.259 0 11.35 5.074 11.35 11.311 0 5.508 4.497 9.989 10.023 9.989h73.072c5.526 0 10.023-4.481 10.023-9.989 0-6.237 5.09-11.311 11.348-11.311h38.22c5.87 0 10.648 4.76 10.648 10.612v201.364z" transform="translate(-7705 -5399) translate(7705 5399) translate(62.832)"/>
                    <path fill="#FFF" d="M86.111 84.936h116.202c.9 0 1.63.728 1.63 1.627v9.813c0 .898-.73 1.627-1.63 1.627H86.11c-.9 0-1.63-.729-1.63-1.627v-9.813c0-.9.73-1.627 1.63-1.627M49.44 82.032H65.68c.914 0 1.655.743 1.655 1.66v16.28c0 .918-.741 1.66-1.655 1.66H49.44c-.914 0-1.656-.742-1.656-1.66v-16.28c0-.917.742-1.66 1.656-1.66M49.44 154.627H65.68c.914 0 1.655.743 1.655 1.66v16.281c0 .916-.741 1.66-1.655 1.66H49.44c-.914 0-1.656-.744-1.656-1.66v-16.281c0-.917.742-1.66 1.656-1.66M49.44 188.746H65.68c.914 0 1.655.743 1.655 1.66v16.281c0 .917-.741 1.66-1.655 1.66H49.44c-.914 0-1.656-.743-1.656-1.66v-16.281c0-.917.742-1.66 1.656-1.66M86.111 158.257h116.202c.9 0 1.63.728 1.63 1.628v9.812c0 .899-.73 1.627-1.63 1.627H86.11c-.9 0-1.63-.728-1.63-1.627v-9.812c0-.9.73-1.628 1.63-1.628M86.111 192.376h116.202c.9 0 1.63.729 1.63 1.628v9.812c0 .899-.73 1.627-1.63 1.627H86.11c-.9 0-1.63-.728-1.63-1.627v-9.812c0-.9.73-1.628 1.63-1.628" opacity=".25" transform="translate(-7705 -5399) translate(7705 5399) translate(62.832)"/>
                    <g fill="#FDBA12">
                        <path d="M11.075 17.996l.148.153.147-.154 2.11-2.612c-.61-.545-1.393-.886-2.257-.886-.866 0-1.649.341-2.26.886l2.112 2.613zm-5.199-6.434c1.493-1.324 3.365-2.05 5.347-2.05 1.98 0 3.851.726 5.345 2.05l1.362-1.686c-1.875-1.66-4.223-2.57-6.707-2.57-2.486 0-4.835.91-6.709 2.57l1.362 1.687v-.001zM0 4.289C3.134 1.516 7.065 0 11.223 0c4.156 0 8.087 1.516 11.222 4.29l-1.367 1.692c-2.754-2.439-6.203-3.775-9.855-3.775S4.12 3.543 1.366 5.98L0 4.289z" transform="translate(-7705 -5399) translate(7705 5399) translate(62.832) translate(46.337 117.603)"/>
                    </g>
                    <path fill="#FDBA12" d="M99.685 121.233L96.54 132.107 94.952 132.107 92.429 123.355 89.813 132.107 88.241 132.122 85.204 121.233 86.714 121.233 89.081 130.453 91.697 121.233 93.285 121.233 95.776 130.423 98.159 121.233zM113.707 132.122h1.621v-8.887h-1.621v8.887zm.054-10.622c-.214-.195-.32-.432-.32-.713 0-.281.106-.52.32-.714.213-.194.475-.292.783-.292.297 0 .549.098.757.292.207.194.312.433.312.714 0 .281-.105.518-.312.713-.208.195-.46.293-.757.293-.308 0-.57-.098-.783-.293zM111.993 121.233L111.993 122.39 106.982 122.39 106.982 126.061 111.05 126.061 111.05 127.218 106.982 127.218 106.982 132.122 105.477 132.122 105.477 121.233zM101.4 132.122h1.62v-8.887h-1.62v8.887zm.053-10.622c-.213-.195-.32-.432-.32-.713 0-.281.107-.52.32-.714.214-.194.475-.292.784-.292.296 0 .548.098.756.292.207.194.312.433.312.714 0 .281-.105.518-.312.713-.208.195-.46.293-.756.293-.31 0-.57-.098-.784-.293z" transform="translate(-7705 -5399) translate(7705 5399) translate(62.832)"/>
                </g>
            </g>
        </g>
    </g>
</svg>
