<svg xmlns="http://www.w3.org/2000/svg" xmlns:xlink="http://www.w3.org/1999/xlink" width="375" height="232" viewBox="0 0 375 232">
    <defs>
        <path id="wpeekku3ia" d="M7.779.612L.696 5.787c-.225.164-.36.426-.362.707l.015 9.153c-.004.495.396.9.889.9h4.005c.027-1.647 1.365-2.971 3.011-2.971 1.646 0 2.984 1.324 3.011 2.97h3.999c.487 0 .883-.393.889-.882l.019-9.16c.002-.285-.132-.555-.36-.723L8.837.612C8.679.496 8.494.438 8.308.438s-.372.058-.53.174zM2.177 10c1.618-1.475 3.851-2.505 6.126-2.505 2.228 0 4.416.989 6.024 2.413l-.66 1.417c-1.354-1.4-3.304-2.343-5.364-2.343-2.108 0-4.104.993-5.462 2.447L2.177 10zm1.344 2.9c1.115-1.383 2.89-2.27 4.782-2.27 1.84 0 3.569.841 4.687 2.158l-.744 1.596c-.755-1.4-2.24-2.262-3.945-2.262-1.767 0-3.294.925-4.02 2.414L3.52 12.9z"/>
        <path id="ze7z31vvbc" d="M0 0.372L247.754 0.372 247.754 230.125 0 230.125z"/>
        <path id="xijrluwq4f" d="M191.194 90.644H178.24c-.888 0-1.61-.72-1.61-1.608V76.087c0-.888.722-1.608 1.61-1.608h12.954c.889 0 1.609.72 1.609 1.608v12.949c0 .888-.72 1.608-1.609 1.608"/>
        <linearGradient id="jm1rwg3xfb" x1="50%" x2="50%" y1="0%" y2="100%">
            <stop offset="0%" stop-color="#D73CAE"/>
            <stop offset="100%" stop-color="#A42081"/>
        </linearGradient>
        <filter id="vq6cx6gcje" width="186.6%" height="186.6%" x="-55.7%" y="-30.9%" filterUnits="objectBoundingBox">
            <feOffset dx="-2" dy="2" in="SourceAlpha" result="shadowOffsetOuter1"/>
            <feGaussianBlur in="shadowOffsetOuter1" result="shadowBlurOuter1" stdDeviation="2"/>
            <feColorMatrix in="shadowBlurOuter1" values="0 0 0 0 0 0 0 0 0 0 0 0 0 0 0 0 0 0 0.5 0"/>
        </filter>
    </defs>
    <g fill="none" fill-rule="evenodd">
        <g>
            <g>
                <g>
                    <path fill="#A11F7F" d="M73.488 88.566c-.799 0-1.448.651-1.448 1.452 0 .8.65 1.451 1.448 1.451.798 0 1.448-.65 1.448-1.45 0-.802-.65-1.453-1.448-1.453" transform="translate(0 -110) translate(0 110) translate(62.832 1)"/>
                    <g transform="translate(0 -110) translate(0 110) translate(62.832 1) translate(65.162 73.32)">
                        <use fill="url(#jm1rwg3xfb)" xlink:href="#wpeekku3ia"/>
                    </g>
                    <g>
                        <g transform="translate(0 -110) translate(0 110) translate(62.832 1)">
                            <mask id="rg65s0s7qd" fill="#fff">
                                <use xlink:href="#ze7z31vvbc"/>
                            </mask>
                            <path fill="#FFF" d="M247.754 230.125h-2.645V23.471c0-11.277-9.168-20.452-20.437-20.452H23.082c-11.27 0-20.437 9.175-20.437 20.452v206.654H0V23.471C0 10.734 10.355.371 23.082.371h201.59c12.727 0 23.082 10.363 23.082 23.1v206.654z" mask="url(#rg65s0s7qd)"/>
                        </g>
                        <path fill="#FFF" d="M84.447 230.125H19.129V107.342c0-5.48 4.443-9.92 9.925-9.92h55.393v132.703z" opacity=".15" transform="translate(0 -110) translate(0 110) translate(62.832 1)"/>
                        <path fill="#A11F7F" d="M173.795 97.421H66.508c-5.487 0-9.935 4.446-9.935 9.93v122.774H163.87V107.342c0-5.48 4.444-9.92 9.925-9.92" transform="translate(0 -110) translate(0 110) translate(62.832 1)"/>
                        <path fill="#FFF" d="M229.06 230.125h-65.318V107.342c0-5.48 4.443-9.92 9.924-9.92h55.394v132.703z" opacity=".25" transform="translate(0 -110) translate(0 110) translate(62.832 1)"/>
                        <path fill="#FFF" d="M230.513 230.125h-1.324V28.532c0-5.129-4.175-9.301-9.306-9.301h-38.15c-5.516 0-10.004 4.486-10.004 10 0 6.245-5.082 11.324-11.33 11.324H87.462c-6.247 0-11.33-5.079-11.33-11.323 0-5.515-4.487-10.001-10.004-10.001H28.172c-5.13 0-9.305 4.172-9.305 9.3v201.594h-1.324V28.532c0-5.859 4.769-10.625 10.629-10.625h37.955c6.247 0 11.33 5.08 11.33 11.325 0 5.513 4.488 10 10.004 10H160.4c5.517 0 10.004-4.487 10.004-10 0-6.245 5.083-11.325 11.33-11.325h38.15c5.86 0 10.629 4.766 10.629 10.625v201.593z" transform="translate(0 -110) translate(0 110) translate(62.832 1)"/>
                        <path fill="#FFF" d="M88.99 84.852c-.192-.087-.344-.208-.455-.362-.11-.154-.166-.331-.17-.535h.516c.018.174.09.32.215.44.126.118.31.177.55.177.231 0 .413-.057.546-.173.133-.114.2-.262.2-.444 0-.141-.04-.257-.118-.345-.078-.089-.176-.155-.292-.201-.118-.047-.275-.097-.474-.15-.244-.063-.44-.127-.587-.192-.147-.062-.272-.162-.378-.3-.104-.136-.157-.32-.157-.55 0-.201.052-.38.155-.536.103-.156.247-.276.434-.361.185-.085.398-.128.64-.128.347 0 .631.087.854.26.22.174.345.405.374.691h-.532c-.017-.141-.092-.266-.223-.374-.132-.109-.305-.162-.521-.162-.202 0-.367.052-.495.157-.126.104-.19.25-.19.438 0 .135.037.245.113.33.077.084.17.15.282.193.111.045.269.095.47.152.246.067.442.134.59.2.15.065.278.166.384.302.107.137.16.321.16.556 0 .18-.048.35-.144.51-.096.159-.238.289-.426.388-.187.099-.41.148-.664.148-.244 0-.464-.043-.657-.13M95.703 82.12c.177.094.317.234.42.422.102.188.154.417.154.685v1.717h-.479v-1.647c0-.29-.071-.513-.215-.667-.143-.154-.338-.231-.582-.231-.252 0-.452.08-.601.241-.149.162-.223.395-.223.7v1.604h-.478v-1.647c0-.29-.073-.513-.217-.667-.143-.154-.337-.231-.581-.231-.252 0-.453.08-.602.241-.148.162-.222.395-.222.7v1.604h-.484v-2.912h.484v.42c.096-.152.223-.27.385-.35.161-.083.339-.123.535-.123.244 0 .46.055.648.164.187.11.328.272.42.484.082-.205.216-.365.404-.478.188-.114.397-.17.628-.17.227 0 .428.047.606.14M99.22 82.909c-.089-.163-.209-.288-.359-.375-.15-.086-.316-.13-.496-.13s-.346.043-.493.128c-.15.084-.268.209-.357.371-.088.164-.133.354-.133.574 0 .223.045.418.133.582.09.165.207.29.357.378.147.087.312.13.493.13.18 0 .346-.043.496-.13.15-.087.27-.213.358-.378.09-.164.133-.357.133-.576 0-.22-.043-.411-.133-.574m-2.15-.216c.12-.224.285-.399.496-.523.211-.124.446-.186.704-.186.256 0 .476.054.664.165.187.11.328.247.42.415v-.532h.488v2.912h-.489v-.543c-.095.172-.237.313-.427.424-.19.112-.41.167-.661.167-.259 0-.492-.064-.702-.191-.208-.128-.372-.307-.493-.537-.12-.23-.18-.493-.18-.787 0-.297.06-.558.18-.784M101.511 82.117c.158-.092.35-.138.577-.138v.5h-.128c-.542 0-.813.294-.813.882v1.583h-.484v-2.912h.484v.473c.085-.167.206-.296.364-.388M103.237 82.43v1.717c0 .142.03.242.09.3.06.06.165.088.313.088h.357v.41h-.436c-.27 0-.472-.062-.606-.187-.135-.124-.203-.327-.203-.61V82.43h-.377v-.398h.377v-.734h.485v.734h.76v.398h-.76zM107.437 81.24L107.437 84.944 106.953 84.944 106.953 83.265 105.065 83.265 105.065 84.944 104.582 84.944 104.582 81.24 105.065 81.24 105.065 82.867 106.953 82.867 106.953 81.24zM108.752 83.866c.119.222.28.395.488.515.207.12.44.18.7.18.257 0 .49-.06.697-.18.207-.12.37-.293.489-.515.118-.223.177-.483.177-.777 0-.297-.06-.557-.177-.778-.118-.221-.281-.393-.486-.514-.206-.12-.439-.18-.7-.18-.263 0-.497.06-.702.18-.206.121-.367.293-.486.514-.119.22-.178.48-.178.778 0 .294.06.554.178.777zm2.477 1.78l-.738-.739c-.18.05-.365.074-.552.074-.344 0-.657-.08-.94-.242-.284-.16-.507-.386-.672-.674-.164-.29-.246-.614-.246-.976 0-.36.082-.685.246-.975.165-.288.388-.513.672-.675.283-.16.596-.241.94-.241.347 0 .662.08.945.241.283.162.506.385.669.673.163.287.245.613.245.977 0 .355-.079.673-.234.957-.156.283-.37.507-.643.67l.936.93h-.628z" transform="translate(0 -110) translate(0 110) translate(62.832 1)"/>
                        <g opacity=".25" transform="translate(0 -110) translate(0 110) translate(62.832 1)">
                            <use fill="#000" filter="url(#vq6cx6gcje)" xlink:href="#xijrluwq4f"/>
                            <use fill="#FFF" xlink:href="#xijrluwq4f"/>
                        </g>
                    </g>
                </g>
            </g>
        </g>
    </g>
</svg>
