<svg xmlns="http://www.w3.org/2000/svg" xmlns:xlink="http://www.w3.org/1999/xlink" width="375" height="232" viewBox="0 0 375 232">
    <defs>
        <path id="i1dwq0xsga" d="M0 0.372L248.414 0.372 248.414 230.125 0 230.125z"/>
        <path id="9ktkdt7odc" d="M0 230.125L248.274 230.125 248.274 0 0 0z"/>
    </defs>
    <g fill="none" fill-rule="evenodd">
        <g>
            <g>
                <g transform="translate(0 -110) translate(0 110) translate(63 1)">
                    <g>
                        <mask id="h7p0arbz9b" fill="#fff">
                            <use xlink:href="#i1dwq0xsga"/>
                        </mask>
                        <path fill="#FFF" d="M248.414 230.125h-2.652V23.471c0-11.277-9.192-20.452-20.492-20.452H23.143c-11.299 0-20.491 9.175-20.491 20.452v206.654H0V23.471C0 10.734 10.382.371 23.143.371H225.27c12.762 0 23.144 10.363 23.144 23.1v206.654z" mask="url(#h7p0arbz9b)"/>
                    </g>
                    <path fill="#FFF" d="M69.913 110.344H36.8c-1.48 0-2.681-1.2-2.681-2.682V74.55c0-1.48 1.2-2.682 2.681-2.682h33.112c1.481 0 2.682 1.201 2.682 2.682v33.11c0 1.482-1.2 2.683-2.682 2.683M118.551 110.344H85.44c-1.481 0-2.682-1.2-2.682-2.682V74.55c0-1.48 1.2-2.682 2.682-2.682h33.111c1.482 0 2.682 1.201 2.682 2.682v33.11c0 1.482-1.2 2.683-2.682 2.683M166.464 110.344h-33.112c-1.48 0-2.681-1.2-2.681-2.682V74.55c0-1.48 1.2-2.682 2.681-2.682h33.112c1.481 0 2.682 1.201 2.682 2.682v33.11c0 1.482-1.2 2.683-2.682 2.683M69.913 187.294H36.8c-1.48 0-2.681-1.2-2.681-2.682v-33.111c0-1.481 1.2-2.682 2.681-2.682h33.112c1.481 0 2.682 1.2 2.682 2.682v33.111c0 1.483-1.2 2.682-2.682 2.682M118.551 187.294H85.44c-1.481 0-2.682-1.2-2.682-2.682v-33.111c0-1.481 1.2-2.682 2.682-2.682h33.111c1.482 0 2.682 1.2 2.682 2.682v33.111c0 1.483-1.2 2.682-2.682 2.682M166.464 187.294h-33.112c-1.48 0-2.681-1.2-2.681-2.682v-33.111c0-1.481 1.2-2.682 2.681-2.682h33.112c1.481 0 2.682 1.2 2.682 2.682v33.111c0 1.483-1.2 2.682-2.682 2.682M215.102 110.344h-33.111c-1.481 0-2.682-1.2-2.682-2.682V74.55c0-1.48 1.2-2.682 2.682-2.682h33.111c1.482 0 2.682 1.201 2.682 2.682v33.11c0 1.482-1.2 2.683-2.682 2.683" opacity=".25"/>
                    <path fill="#FDBA12" d="M181.605 167.068c-.933 10.168 7.685 18.607 17.912 17.358 7.113-.869 12.877-6.582 13.818-13.686 1.39-10.49-7.49-19.378-17.975-17.996-7.29.96-13.083 7.001-13.755 14.324M187.487 150h20.05c4.687 0 8.486 3.8 8.486 8.486v20.05c0 4.688-3.8 8.487-8.487 8.487h-20.05c-4.686 0-8.486-3.8-8.486-8.487v-20.05c0-4.687 3.8-8.486 8.487-8.486"/>
                    <path fill="#FDBA12" d="M197.517 169.113c.337-.002.574-.242.573-.581 0-.328-.255-.584-.579-.582-.317.002-.583.272-.581.589.002.323.26.576.587.574zm-2.837 5.762c2.419.94 4.683.775 6.79-.682 1.67-1.156 2.614-2.78 2.907-4.816-.14-.013-.216-.024-.293-.025-1.597-.02-3.194-.062-4.79-.05-1 .005-1.773.485-2.286 1.343-.335.558-.63 1.139-.943 1.71l-1.385 2.52zm-1.33-.79c.053-.066.09-.099.114-.14.839-1.418 1.71-2.82 2.503-4.263.454-.827.414-1.724-.064-2.551-.77-1.334-1.568-2.65-2.355-3.974-.044-.074-.095-.144-.142-.216-1.432.966-2.983 3.115-2.827 5.927.119 2.157 1.07 3.877 2.77 5.217zm1.414-11.929c.048.1.074.163.107.223.747 1.367 1.48 2.742 2.247 4.098.506.896 1.32 1.357 2.336 1.365 1.538.013 3.076-.036 4.614-.045.263-.002.344-.104.28-.336-.166-.587-.282-1.196-.522-1.751-1.183-2.734-4.024-4.39-6.993-4.103-.706.069-1.397.223-2.07.55zm-1.115-2.06c-.023-.12-.04-.16-.035-.194.02-.103.05-.204.075-.307.082.057.186.097.241.173.134.183.23.393.37.57.061.077.193.099.292.146.043-.092.12-.184.12-.276.003-.186-.054-.372-.055-.558 0-.142.046-.285.071-.428.1.102.218.192.294.31.096.147.138.33.24.473.063.09.193.131.293.195.052-.098.14-.193.149-.295.022-.235-.006-.473.009-.71.005-.08.08-.154.121-.23.066.06.161.107.192.181.095.228.151.471.251.696.038.082.18.194.231.175.088-.032.182-.148.202-.245.047-.22.04-.452.077-.675.016-.093.094-.173.144-.26.062.074.154.14.18.225.067.216.088.446.159.66.031.097.139.169.212.251.082-.083.205-.153.239-.253.079-.232.106-.482.175-.718.02-.066.11-.112.167-.166.05.064.131.123.143.194.037.223.03.455.077.675.026.117.128.22.196.327.094-.085.22-.154.277-.26.083-.153.104-.34.178-.5.053-.111.152-.2.23-.3.043.115.113.228.125.346.019.196-.022.398.005.59.016.108.12.2.184.3.09-.064.212-.109.264-.196.122-.202.2-.43.316-.635.04-.07.143-.103.218-.153.034.083.1.168.095.248-.016.246-.075.489-.082.733-.002.097.093.195.143.291.091-.048.21-.074.267-.148.143-.187.249-.403.39-.591.053-.071.165-.096.25-.143.02.088.07.182.055.264-.035.203-.121.399-.146.603-.015.13.044.269.07.404.124-.057.273-.089.366-.178.162-.156.284-.353.436-.52.043-.048.134-.05.203-.075.022.077.08.164.06.228-.065.217-.179.42-.232.638-.03.125.02.269.035.404.123-.04.266-.05.365-.124.157-.115.276-.282.429-.406.078-.064.194-.08.293-.119-.003.106.021.22-.016.313-.072.182-.199.344-.263.528-.041.12-.01.265-.012.4.134-.03.286-.032.4-.099.185-.108.34-.27.52-.39.058-.037.156-.015.236-.021-.001.08.026.176-.01.237-.102.179-.248.334-.34.517-.064.127-.066.286-.095.43.153-.02.318-.009.456-.065.18-.073.334-.21.511-.295.07-.033.173.005.26.01-.016.079-.01.177-.055.234-.144.186-.324.348-.457.542-.061.089-.045.23-.065.348.111.011.232.055.33.026.18-.051.34-.163.517-.219.123-.038.262-.024.395-.033-.067.118-.116.25-.202.35-.116.133-.277.227-.388.364-.07.087-.084.22-.123.334.116.027.237.09.345.072.193-.032.374-.13.565-.167.117-.024.246.012.369.021-.072.104-.126.225-.218.307-.138.123-.317.204-.45.333-.08.077-.107.21-.158.318.11.04.225.122.332.113.234-.018.464-.094.698-.121.077-.009.163.06.245.092-.043.07-.069.166-.13.204-.217.137-.454.241-.665.384-.075.05-.15.188-.13.261.018.07.158.145.247.15.225.01.452-.03.679-.027.103.001.206.057.309.088-.077.085-.14.195-.235.248-.172.094-.374.135-.542.234-.102.061-.165.19-.245.29.103.059.2.154.31.17.242.037.491.026.736.053.06.007.152.076.16.128.006.052-.06.144-.117.167-.14.062-.292.095-.486.152 1.111.179 1.593-.199 1.808-1.189.052-.235.052-.5.002-.736-.321-1.529-.81-2.99-1.841-4.211-1.551-1.836-3.536-3.034-5.75-3.879-1.588-.606-3.219-.752-4.877-.31-.616.165-1.26.25-1.803.63-.762.531-.921 1.259-.381 2.077zm13.121 9.31c.053.022.093.029.12.05.074.062.142.13.213.195-.086.044-.168.115-.258.128-.194.029-.397.01-.589.048-.129.024-.246.113-.368.173.098.106.179.24.297.312.167.1.369.142.542.235.078.042.121.148.18.224-.092.035-.185.1-.277.1-.217.001-.434-.046-.649-.037-.11.005-.216.09-.324.138.061.102.1.236.19.3.182.132.4.214.588.34.073.048.103.16.153.242-.087.025-.177.078-.26.068-.224-.03-.443-.103-.668-.122-.109-.008-.224.068-.337.106.048.11.068.249.149.321.175.158.388.272.57.423.058.05.064.161.094.245-.08.014-.168.057-.24.039-.228-.06-.447-.16-.677-.206-.108-.022-.232.04-.349.063.036.114.042.254.115.337.155.176.351.316.516.485.052.053.057.15.083.228-.087.015-.185.063-.257.037-.213-.075-.409-.2-.624-.268-.112-.033-.25.014-.376.025.033.124.036.268.105.369.127.186.3.34.436.521.04.056.025.156.036.234-.08.003-.177.035-.24.003-.218-.114-.418-.265-.639-.372-.092-.044-.22-.013-.331-.016.005.12-.026.258.024.353.11.208.27.389.39.593.04.068.016.173.02.262-.087-.013-.192 0-.259-.045-.196-.132-.366-.305-.568-.425-.09-.054-.232-.023-.35-.03 0 .11-.034.234.005.329.083.21.215.4.302.608.035.083.005.193.004.29-.094-.03-.205-.039-.275-.098-.172-.146-.315-.329-.492-.47-.08-.062-.211-.06-.32-.088-.02.116-.079.24-.054.346.047.2.156.385.21.583.028.106-.004.228-.01.343-.102-.058-.223-.097-.3-.177-.144-.149-.25-.334-.398-.477-.073-.072-.201-.086-.305-.125-.036.112-.113.23-.099.335.033.233.123.458.165.69.015.08-.04.172-.063.259-.08-.042-.184-.063-.232-.128-.13-.173-.22-.376-.355-.544-.076-.096-.209-.148-.317-.22-.047.127-.13.254-.132.381-.004.215.055.43.064.647.003.082-.061.166-.095.249-.073-.053-.171-.09-.213-.162-.1-.169-.154-.366-.262-.529-.078-.118-.212-.198-.321-.295-.06.13-.152.257-.17.394-.03.203.007.414-.01.62-.007.078-.085.15-.131.226-.06-.056-.148-.099-.176-.168-.09-.219-.14-.454-.241-.666-.046-.098-.174-.156-.263-.232-.066.097-.165.187-.19.295-.046.19-.03.394-.07.586-.023.11-.106.206-.161.308-.062-.089-.148-.169-.181-.267-.055-.168-.054-.356-.12-.518-.051-.128-.168-.23-.256-.345-.085.118-.2.226-.248.357-.071.194-.084.406-.144.604-.02.067-.108.115-.166.17-.05-.062-.133-.12-.145-.191-.037-.223-.03-.455-.077-.675-.026-.118-.13-.218-.198-.325-.095.085-.225.153-.276.26-.101.211-.15.448-.242.666-.026.061-.126.09-.192.134-.036-.062-.1-.123-.102-.187-.01-.237.024-.477 0-.71-.013-.117-.114-.224-.175-.337-.102.078-.236.135-.299.236-.12.19-.192.412-.301.61-.036.063-.13.094-.198.14-.038-.08-.112-.162-.108-.24.014-.235.077-.468.083-.703.002-.109-.082-.22-.127-.33-.104.057-.237.09-.307.176-.136.168-.227.37-.356.544-.056.075-.16.113-.242.167-.024-.104-.067-.209-.064-.312.002-.11.05-.217.078-.324-.13.138-.216.29-.3.445-.334.612-.282 1.156.231 1.632.26.242.59.429.92.568.35.149.737.216 1.109.314 1.073.282 2.157.35 3.255.162 1.673-.285 3.165-1.012 4.596-1.89 2.396-1.472 4.062-3.48 4.623-6.297.069-.344.103-.707.078-1.055-.05-.7-.616-1.458-1.425-1.264zm-14.608 6.638c-.056.053-.105.12-.17.157-.084.046-.182.068-.274.1.003-.105-.023-.222.014-.313.082-.2.214-.38.29-.58.039-.103-.003-.234-.008-.352-.118.016-.257 0-.35.056-.201.124-.373.293-.568.427-.059.04-.156.028-.236.038.002-.087-.024-.188.01-.261.064-.131.169-.243.244-.369.107-.176.361-.365.163-.564-.192-.193-.394.049-.578.144-.122.063-.23.157-.356.21-.076.03-.174.01-.263.013.016-.088.006-.195.054-.258.141-.189.323-.349.455-.543.06-.088.04-.231.056-.348-.11-.01-.233-.052-.329-.02-.222.077-.43.2-.65.282-.074.027-.172-.014-.26-.023.029-.086.035-.19.09-.25.125-.138.29-.242.407-.385.096-.119.235-.311.197-.407-.088-.215-.303-.098-.468-.05-.19.053-.373.13-.564.174-.068.016-.151-.038-.228-.06.03-.075.039-.176.094-.22.19-.155.408-.278.594-.44.075-.065.094-.197.139-.298-.101-.042-.206-.125-.303-.117-.244.02-.483.093-.727.121-.078.009-.163-.06-.246-.093.043-.07.072-.164.133-.203.2-.127.423-.218.615-.354.087-.063.122-.199.18-.302-.106-.052-.211-.143-.32-.147-.225-.009-.451.039-.678.04-.08 0-.161-.067-.242-.104.055-.07.095-.171.167-.207.212-.103.444-.167.653-.276.089-.048.138-.171.205-.26-.087-.066-.17-.172-.266-.188-.222-.036-.453-.013-.677-.043-.097-.013-.185-.095-.277-.146.074-.064.138-.155.223-.188.184-.068.388-.087.566-.164.12-.053.212-.172.317-.262-.12-.082-.23-.193-.362-.237-.176-.058-.373-.046-.552-.095-.096-.026-.172-.12-.257-.183.083-.054.158-.136.25-.16.19-.045.395-.038.581-.095.126-.04.229-.15.343-.229-.104-.09-.193-.21-.313-.262-.178-.08-.381-.101-.565-.171-.086-.033-.152-.12-.227-.184.09-.054.176-.142.272-.156.214-.03.436-.003.649-.038.106-.017.198-.121.297-.186-.068-.088-.117-.21-.206-.259-.208-.11-.44-.176-.65-.28-.072-.037-.111-.136-.165-.207.08-.04.16-.113.24-.113.237.001.472.047.708.042.1-.002.198-.087.297-.134-.059-.102-.093-.237-.18-.303-.164-.123-.367-.194-.536-.312-.088-.062-.14-.176-.209-.267.114-.02.232-.066.343-.055.195.018.386.093.58.103.111.006.225-.067.337-.105-.046-.11-.064-.25-.144-.32-.175-.158-.387-.274-.57-.422-.057-.047-.071-.145-.105-.218.085-.025.178-.085.252-.068.239.058.467.162.707.212.096.02.211-.048.318-.076-.032-.106-.035-.238-.101-.313-.157-.176-.353-.315-.517-.486-.055-.059-.062-.165-.09-.25.088-.01.188-.054.262-.028.195.07.372.189.569.248.126.038.272.005.41.005-.034-.133-.039-.283-.107-.394-.097-.157-.252-.278-.36-.43-.058-.084-.072-.2-.107-.302.115.012.242-.004.341.043.187.087.35.226.536.31.093.044.219.015.329.018-.003-.118.03-.257-.018-.352-.102-.201-.26-.373-.37-.57-.043-.075-.022-.189-.03-.283.088.015.192.007.26.052.188.125.352.29.545.406.094.057.233.041.352.058.004-.119.044-.252.004-.353-.091-.227-.23-.436-.332-.66-.026-.057.01-.142.016-.215.078.01.167-.001.233.034.085.044.15.125.224.19-.446-1.057-1.237-1.31-2.2-.735-.218.131-.414.302-.602.475-.224.206-.43.434-.643.654-.924.95-1.584 2.06-1.973 3.329-.488 1.6-.572 3.24-.474 4.894.07 1.188.297 2.347.745 3.457.574 1.422 1.54 2.549 2.689 3.516.946.797 1.932.576 2.448-.507zm2.66-20.964c0-.207-.022-.418.01-.621.015-.098.116-.22.208-.255.052-.02.206.1.24.185.133.34.234.69.352 1.035.07.204.167.424.415.39.256-.035.303-.267.32-.5.025-.343.057-.688.113-1.028.017-.103.123-.19.189-.286.086.087.22.162.25.265.097.34.16.69.23 1.04.043.216.125.434.367.433.242 0 .326-.224.37-.436.07-.328.128-.659.205-.985.034-.145.053-.363.271-.304.097.026.199.198.218.317.059.35.078.706.11 1.06.019.212.097.435.32.42.136-.009.312-.19.378-.337.153-.34.238-.71.378-1.058.037-.093.17-.148.26-.221.068.103.19.202.195.308.018.354-.004.71-.012 1.066-.005.215.009.452.25.511.238.059.368-.133.46-.333.145-.313.279-.634.449-.933.058-.102.212-.15.323-.223.047.115.141.234.134.345-.026.363-.115.723-.128 1.085-.006.162.067.407.184.475.19.112.364-.05.476-.234.181-.293.36-.59.549-.878.081-.123.14-.306.357-.22.216.086.143.252.106.402-.085.344-.203.682-.255 1.032-.023.16.027.402.137.49.165.134.353-.005.48-.16.236-.29.457-.595.708-.873.071-.08.225-.085.34-.124.025.12.098.254.065.355-.111.346-.259.681-.394 1.02-.077.198-.103.41.084.54.197.137.375.007.522-.137.262-.255.51-.526.785-.764.08-.071.233-.058.352-.084.01.122.062.264.017.364-.15.332-.335.647-.506.97-.1.187-.158.427.03.533.126.07.383.007.529-.082.3-.186.563-.43.844-.648.12-.092.27-.2.38-.03.051.083.026.261-.03.357-.16.272-.35.526-.534.783-.143.198-.307.43-.117.64.21.232.454.054.666-.076.27-.163.53-.346.81-.488.096-.049.24-.002.363.002-.02.12 0 .271-.065.356-.223.288-.476.553-.717.827-.14.158-.259.366-.091.522.103.095.354.105.507.056.317-.103.61-.273.918-.408.146-.065.311-.194.447 0 .156.218-.06.316-.178.43-.235.224-.484.434-.724.656-.151.139-.289.31-.167.515.117.201.335.177.532.115.33-.103.655-.215.984-.32.149-.047.34-.133.396.082.026.097-.074.268-.167.345-.258.212-.542.394-.817.586-.188.132-.361.296-.252.537.104.23.347.194.552.158.33-.06.654-.153.985-.196.12-.015.252.073.378.114-.069.112-.112.265-.212.328-.299.192-.618.35-.93.52-.189.1-.342.25-.276.468.067.22.283.248.493.23.363-.03.726-.076 1.09-.08.106-.002.213.113.32.174-.07.092-.12.225-.213.268-.33.156-.687.257-1.006.428-.152.08-.342.275-.34.416.004.227.243.298.469.302.335.006.672 0 1.005.036.13.014.325.105.359.205.072.211-.149.236-.294.279-.321.094-.646.178-.97.265-.212.059-.425.159-.405.4.02.25.249.326.48.356.332.043.667.08.992.156.115.027.207.158.31.242-.1.075-.188.192-.298.215-.347.076-.7.12-1.05.172-.211.03-.415.11-.436.333-.023.241.179.353.392.412.332.093.67.166.996.279.115.04.27.165.28.265.02.201-.175.192-.323.199-.345.015-.69.035-1.035.043-.226.005-.447.065-.487.296-.04.232.153.364.36.446.311.124.622.25.932.378.144.06.347.115.254.316-.04.088-.235.148-.359.148-.294-.003-.588-.05-.883-.076-.088-.009-.191-.04-.263-.007-.141.066-.332.143-.377.264-.036.094.083.306.191.384.264.187.562.327.846.486.07.038.156.061.203.118.073.087.118.197.174.297-.107.042-.22.13-.32.117-.312-.04-.619-.119-.929-.18-.241-.05-.529-.143-.662.136-.142.296.115.46.33.611.258.181.523.355.766.555.079.065.096.205.142.31-.11.03-.232.105-.328.082-.307-.076-.602-.19-.903-.286-.093-.03-.193-.087-.283-.074-.146.022-.351.052-.408.15-.055.1-.004.326.081.423.22.252.494.453.727.695.127.13.427.227.25.48-.16.231-.356.014-.523-.053-.265-.106-.522-.234-.78-.357-.201-.095-.42-.15-.57.04-.152.192-.047.392.1.56.233.267.477.527.693.808.067.089.058.236.084.357-.123-.005-.267.03-.366-.021-.313-.166-.609-.365-.913-.547-.189-.115-.402-.184-.569-.001-.155.17-.074.371.045.544.2.293.414.578.597.882.058.097.034.242.048.365-.122-.017-.27.005-.36-.057-.285-.194-.547-.42-.819-.634-.18-.14-.39-.262-.587-.086-.178.157-.115.382-.014.576.164.315.345.623.492.945.042.093-.005.227-.012.342-.112-.025-.255-.015-.331-.082-.273-.241-.525-.507-.783-.766-.16-.161-.38-.274-.544-.117-.105.1-.122.367-.078.532.093.35.265.681.376 1.028.03.096-.038.224-.06.338-.106-.043-.244-.057-.312-.133-.237-.265-.452-.548-.67-.83-.139-.179-.317-.305-.533-.208-.228.104-.213.334-.16.546.085.344.19.684.26 1.032.022.105-.046.227-.073.341-.11-.055-.259-.082-.323-.17-.206-.289-.384-.599-.57-.902-.116-.192-.277-.341-.505-.265-.223.074-.24.296-.216.5.042.363.111.723.137 1.086.008.11-.087.226-.135.338-.092-.068-.222-.117-.272-.21-.173-.32-.317-.657-.473-.987-.091-.193-.234-.35-.456-.303-.225.047-.284.251-.282.464.003.375.019.751.005 1.126-.003.097-.09.192-.14.287-.09-.07-.226-.121-.263-.213-.137-.338-.243-.688-.358-1.035-.071-.211-.195-.405-.43-.378-.237.027-.317.247-.338.466-.034.344-.043.69-.094 1.03-.017.114-.128.213-.196.318-.078-.096-.196-.182-.226-.293-.091-.331-.146-.673-.22-1.01-.047-.215-.144-.425-.388-.421-.24.004-.337.204-.382.425-.072.358-.14.717-.236 1.069-.025.09-.14.155-.215.232-.068-.08-.181-.154-.195-.243-.054-.35-.084-.706-.111-1.06-.019-.233-.079-.467-.325-.505-.266-.041-.385.179-.46.412-.11.338-.217.677-.35 1.007-.034.085-.16.135-.243.2-.055-.09-.155-.179-.158-.272-.015-.374 0-.75.004-1.125.004-.21-.034-.421-.26-.478-.238-.06-.38.107-.475.31-.156.33-.303.666-.475.988-.046.085-.168.129-.256.192-.051-.101-.153-.208-.146-.305.026-.364.083-.725.137-1.086.033-.223.01-.447-.21-.532-.224-.087-.389.072-.506.26-.184.293-.354.596-.555.875-.071.098-.221.137-.336.203-.025-.13-.092-.268-.068-.39.065-.337.164-.67.254-1.003.06-.221.047-.466-.17-.53-.14-.042-.38.076-.5.196-.257.257-.456.571-.698.842-.068.077-.209.089-.315.131-.021-.113-.087-.24-.056-.336.108-.337.25-.665.376-.997.076-.203.126-.434-.072-.57-.209-.142-.411-.022-.576.147-.235.24-.465.485-.72.703-.091.078-.246.079-.373.116.005-.133-.028-.282.023-.394.136-.305.306-.596.466-.891.107-.196.17-.41-.01-.573-.2-.178-.407-.06-.587.08-.281.218-.552.449-.844.65-.082.057-.22.03-.334.04.007-.114-.024-.253.029-.34.19-.312.409-.606.615-.906.119-.175.195-.377.04-.545-.166-.18-.38-.115-.57.001-.286.175-.57.353-.859.525-.132.078-.302.213-.407.024-.047-.085.037-.286.117-.392.202-.267.462-.492.646-.77.096-.14.161-.394.097-.528-.094-.199-.338-.152-.528-.067-.333.15-.66.317-.998.45-.096.039-.226-.013-.34-.023.032-.119.028-.272.103-.35.254-.26.534-.497.806-.74.162-.146.259-.335.148-.526-.115-.194-.328-.183-.532-.115-.336.113-.671.234-1.014.322-.11.027-.243-.039-.365-.062.05-.112.07-.258.153-.33.208-.18.445-.327.67-.487.08-.057.189-.1.234-.177.087-.15.138-.321.203-.484-.165-.06-.334-.18-.495-.17-.312.02-.619.115-.928.177-.077.016-.159.048-.232.035-.095-.018-.182-.073-.273-.111.043-.098.058-.232.133-.284.191-.137.409-.236.616-.352.138-.076.305-.125.407-.234.116-.124.175-.3.259-.454-.147-.078-.292-.216-.44-.22-.364-.012-.728.054-1.092.059-.122 0-.311-.06-.353-.147-.1-.211.116-.251.254-.31.318-.134.64-.26.96-.39.196-.08.386-.227.317-.432-.045-.132-.266-.262-.424-.288-.32-.05-.65-.024-.974-.042-.166-.008-.391.056-.431-.195-.043-.26.192-.255.352-.303.312-.092.626-.176.94-.262.206-.057.41-.179.364-.392-.029-.134-.236-.284-.391-.325-.35-.093-.718-.122-1.078-.18-.147-.024-.335-.052-.288-.249.023-.094.177-.199.288-.222.346-.074.708-.083 1.048-.175.165-.043.392-.195.422-.333.048-.225-.174-.343-.39-.4-.334-.088-.672-.167-.996-.282-.11-.04-.186-.18-.278-.273.113-.069.222-.183.342-.195.302-.033.61-.02.916-.026.088-.003.193.01.26-.031.125-.079.304-.184.316-.294.012-.114-.12-.297-.237-.36-.294-.159-.615-.265-.925-.393-.082-.033-.182-.05-.24-.107-.067-.066-.145-.18-.128-.251.016-.07.146-.164.225-.162.384.01.767.047 1.15.074.206.014.426.006.499-.22.076-.239-.095-.381-.29-.487-.303-.165-.608-.328-.907-.498-.125-.071-.312-.152-.197-.326.057-.087.247-.138.366-.123.332.043.658.128.985.198.227.05.466.058.565-.181.092-.227-.083-.386-.26-.512-.29-.205-.588-.4-.864-.622-.079-.063-.094-.205-.138-.31.118-.036.249-.123.351-.097.353.09.695.22 1.042.333.198.066.414.092.526-.116.106-.196-.002-.376-.164-.52-.274-.241-.551-.48-.808-.74-.07-.072-.07-.215-.102-.326.12-.022.258-.093.357-.056.33.127.646.292.97.44.196.088.423.157.564-.046.134-.192.026-.391-.126-.558-.22-.24-.433-.486-.644-.734-.098-.116-.251-.232-.108-.408.154-.189.303-.05.442.031.271.161.54.328.807.496.195.12.421.218.593.03.175-.188.047-.404-.084-.59-.2-.282-.395-.566-.59-.851-.084-.123-.148-.272.016-.355.085-.043.248-.02.331.037.268.183.515.397.772.597.187.146.392.346.627.152.248-.206.078-.448-.038-.666-.15-.278-.313-.55-.437-.84-.043-.1.01-.241.019-.364.12.024.272.01.352.08.275.24.508.528.79.758.125.103.358.194.488.145.218-.08.177-.33.112-.52-.123-.353-.279-.696-.395-1.051-.03-.095.034-.22.055-.333.117.033.275.03.344.106.246.268.442.584.697.842.12.122.362.25.491.207.211-.072.217-.313.15-.536-.097-.321-.175-.647-.257-.973-.036-.148-.118-.311.088-.41.232-.111.293.087.379.219.182.281.355.569.53.855.111.18.266.339.478.26.22-.081.25-.295.208-.525-.06-.34-.115-.681-.137-1.025-.007-.118.056-.302.146-.353.173-.1.252.073.317.21.152.32.302.643.454.964.09.19.239.38.443.292.125-.053.2-.285.24-.45.04-.168.009-.353.009-.53h-.015z"/>
                    <path fill="#FFF" d="M230.851 230.125h-1.327V28.761c0-5.122-4.183-9.29-9.324-9.29h-38.233c-5.528 0-10.026 4.48-10.026 9.99 0 6.237-5.093 11.31-11.352 11.31H87.492c-6.26 0-11.354-5.073-11.354-11.31 0-5.51-4.498-9.99-10.026-9.99H28.074c-5.141 0-9.324 4.168-9.324 9.29v201.364h-1.327V28.761c0-5.852 4.779-10.612 10.651-10.612h38.038c6.26 0 11.353 5.074 11.353 11.311 0 5.508 4.498 9.989 10.027 9.989h73.097c5.528 0 10.025-4.481 10.025-9.989 0-6.237 5.093-11.311 11.353-11.311H220.2c5.874 0 10.651 4.76 10.651 10.612v201.364z"/>
                    <path fill="#FDBA12" d="M179.12 200.84c-.39-.167-.697-.399-.92-.694-.221-.294-.336-.635-.343-1.023h1.042c.037.333.181.613.435.84.255.228.625.342 1.112.342.466 0 .832-.11 1.102-.331.268-.221.402-.504.402-.85 0-.272-.078-.493-.235-.662-.159-.17-.355-.299-.592-.387-.236-.088-.555-.184-.956-.286-.494-.122-.89-.243-1.187-.367-.297-.12-.552-.313-.763-.574-.212-.262-.317-.612-.317-1.054 0-.387.104-.73.312-1.028.207-.299.5-.53.875-.693.377-.163.808-.245 1.295-.245.701 0 1.276.167 1.724.5.448.333.7.773.757 1.323h-1.074c-.035-.272-.186-.51-.45-.718-.266-.206-.617-.31-1.053-.31-.41 0-.743.1-1 .3-.258.2-.387.481-.387.84 0 .259.077.468.231.632.154.163.344.287.57.372.226.084.542.18.95.289.494.13.893.257 1.193.383.3.125.558.318.774.578.215.263.322.618.322 1.066 0 .346-.096.671-.29.977-.194.306-.48.553-.86.743-.38.19-.827.284-1.343.284-.494 0-.936-.081-1.327-.247M188.2 197.581c-.168-.256-.394-.452-.68-.585-.287-.134-.604-.2-.952-.2-.5 0-.926.15-1.278.451-.352.301-.552.72-.603 1.252h3.762c0-.356-.083-.663-.25-.918m1.24 1.677h-4.763c.036.554.237.988.603 1.298.366.312.81.468 1.333.468.427 0 .785-.094 1.07-.283.288-.187.488-.44.605-.753h1.065c-.159.539-.478.98-.956 1.317-.48.34-1.074.508-1.784.508-.565 0-1.072-.12-1.518-.358-.446-.24-.796-.58-1.049-1.022-.254-.44-.38-.953-.38-1.534 0-.582.123-1.091.37-1.528.246-.438.591-.776 1.038-1.01.446-.238.96-.355 1.539-.355.566 0 1.065.116 1.501.35.435.231.77.551 1.005.958.236.407.354.867.354 1.38 0 .177-.011.367-.033.564M191.74 196.808v3.418c0 .283.055.482.162.598.108.116.296.174.562.174h.638v.815h-.78c-.483 0-.845-.123-1.086-.37-.241-.247-.362-.653-.362-1.217v-3.418h-.676v-.793h.676v-1.461h.867v1.461h1.361v.793h-1.361zM195.37 196.808v3.418c0 .283.054.482.162.598.108.116.296.174.562.174h.638v.815h-.78c-.484 0-.845-.123-1.086-.37-.241-.247-.362-.653-.362-1.217v-3.418h-.676v-.793h.676v-1.461h.866v1.461h1.362v.793h-1.362z"/>
                    <mask id="2jm5y9rnod" fill="#fff">
                        <use xlink:href="#9ktkdt7odc"/>
                    </mask>
                    <path fill="#FDBA12" d="M198.363 201.813h1.082v-5.75h-1.082v5.75zm.035-6.873c-.143-.126-.214-.28-.214-.462 0-.181.071-.335.214-.462.143-.125.316-.188.524-.188.198 0 .367.063.505.188.139.127.209.28.209.462s-.07.336-.209.462c-.138.127-.307.189-.505.189-.208 0-.381-.062-.524-.189zM205.527 196.634c.428.42.642 1.026.642 1.817v3.362h-.932v-3.227c0-.568-.14-1.004-.424-1.306-.283-.302-.67-.453-1.16-.453-.496 0-.891.157-1.184.47-.294.31-.44.766-.44 1.362v3.154h-.942v-5.703h.942v.811c.186-.292.44-.516.76-.677.322-.159.675-.238 1.061-.238.69 0 1.25.209 1.677.628M212.206 197.112c-.174-.323-.41-.57-.705-.742-.296-.172-.621-.258-.977-.258-.355 0-.678.084-.97.253-.293.169-.526.414-.7.736-.175.324-.262.703-.262 1.14 0 .44.087.825.261 1.152.175.326.408.576.7.748.293.173.616.257.971.257.356 0 .681-.084.977-.257.296-.172.531-.422.705-.748.175-.327.262-.708.262-1.143 0-.434-.087-.814-.262-1.138m-.57-1.506c.373.218.65.492.832.822v-1.053h.96v5.897c0 .527-.111.996-.334 1.407-.223.41-.541.732-.956.964-.414.232-.897.348-1.446.348-.753 0-1.38-.179-1.88-.538-.502-.357-.798-.846-.888-1.464h.94c.104.35.32.634.647.849.327.213.721.32 1.18.32.523 0 .95-.165 1.28-.494.33-.33.497-.795.497-1.392v-1.211c-.189.337-.467.618-.836.844-.37.224-.8.336-1.296.336-.508 0-.97-.126-1.384-.378-.414-.253-.74-.608-.976-1.065-.237-.457-.355-.976-.355-1.558 0-.59.118-1.108.355-1.554.237-.445.562-.792.976-1.037.415-.246.876-.37 1.384-.37.495 0 .929.11 1.3.327M216.02 201.593c-.342-.147-.613-.353-.811-.615-.199-.264-.308-.567-.329-.91h.966c.028.282.159.51.395.689.237.177.546.267.93.267.355 0 .636-.08.842-.236.206-.158.309-.356.309-.596 0-.246-.11-.429-.33-.549-.218-.12-.558-.237-1.016-.354-.418-.11-.758-.22-1.023-.333-.263-.114-.49-.281-.677-.503-.189-.223-.283-.514-.283-.877 0-.287.086-.55.257-.79.171-.239.414-.43.73-.57.314-.14.674-.21 1.078-.21.623 0 1.126.158 1.51.472.383.314.588.745.616 1.293h-.934c-.02-.295-.139-.53-.355-.708-.215-.178-.505-.267-.868-.267-.335 0-.602.072-.802.216-.198.144-.297.332-.297.564 0 .184.06.337.18.457s.27.215.452.287c.181.072.433.152.755.241.404.108.733.216.986.323.253.107.47.265.652.477.182.212.276.489.283.831 0 .307-.086.585-.257.832-.171.246-.413.44-.724.58-.312.14-.67.21-1.074.21-.43 0-.817-.074-1.16-.22" mask="url(#2jm5y9rnod)"/>
                </g>
            </g>
        </g>
    </g>
</svg>
