<svg width="375" height="232" viewBox="0 0 375 232" fill="none" xmlns="http://www.w3.org/2000/svg">
    <g clip-path="url(#clip0_3969_14108)">
        <path d="M247.504 121.603L249.424 121.588L251.749 113.698L253.939 121.588H255.874L258.964 111.163H257.134L254.959 119.608L252.784 111.163H250.864L248.524 119.653L246.364 111.163H244.549L247.504 121.603ZM260.735 121.588H262.445V113.323H260.735V121.588ZM261.605 112.228C262.205 112.228 262.685 111.748 262.685 111.133C262.685 110.518 262.205 110.038 261.605 110.038C260.99 110.038 260.51 110.518 260.51 111.133C260.51 111.748 260.99 112.228 261.605 112.228ZM265.26 121.588H266.985V114.718H268.515V113.323H266.985V112.738C266.985 111.793 267.345 111.433 268.395 111.433V110.008C266.235 110.008 265.26 110.833 265.26 112.738V113.323H264.285V114.718H265.26V121.588ZM270.39 121.588H272.1V113.323H270.39V121.588ZM271.26 112.228C271.86 112.228 272.34 111.748 272.34 111.133C272.34 110.518 271.86 110.038 271.26 110.038C270.645 110.038 270.165 110.518 270.165 111.133C270.165 111.748 270.645 112.228 271.26 112.228ZM225.976 131.353C225.976 134.488 228.361 136.678 231.301 136.678C233.476 136.678 235.351 135.598 236.146 133.558H234.091C233.536 134.668 232.546 135.193 231.301 135.193C229.231 135.193 227.731 133.708 227.731 131.353C227.731 128.998 229.231 127.528 231.301 127.528C232.546 127.528 233.536 128.053 234.091 129.163H236.146C235.351 127.123 233.476 126.028 231.301 126.028C228.361 126.028 225.976 128.233 225.976 131.353ZM246.383 132.448C246.383 129.853 244.523 128.188 242.168 128.188C239.813 128.188 237.953 129.853 237.953 132.448C237.953 135.043 239.738 136.723 242.093 136.723C244.463 136.723 246.383 135.043 246.383 132.448ZM239.693 132.448C239.693 130.573 240.848 129.673 242.138 129.673C243.413 129.673 244.628 130.573 244.628 132.448C244.628 134.323 243.368 135.238 242.093 135.238C240.803 135.238 239.693 134.323 239.693 132.448ZM254.298 136.588H255.993V131.713C255.993 129.403 254.538 128.188 252.603 128.188C251.613 128.188 250.698 128.593 250.143 129.268V128.323H248.433V136.588H250.143V131.968C250.143 130.453 250.968 129.673 252.228 129.673C253.473 129.673 254.298 130.453 254.298 131.968V136.588ZM264.399 136.588H266.094V131.713C266.094 129.403 264.639 128.188 262.704 128.188C261.714 128.188 260.799 128.593 260.244 129.268V128.323H258.534V136.588H260.244V131.968C260.244 130.453 261.069 129.673 262.329 129.673C263.574 129.673 264.399 130.453 264.399 131.968V136.588ZM272.115 129.628C273.39 129.628 274.395 130.438 274.425 131.713H269.85C270.03 130.408 270.96 129.628 272.115 129.628ZM275.985 134.128H274.14C273.825 134.773 273.24 135.283 272.19 135.283C270.93 135.283 269.955 134.458 269.835 133.093H276.15C276.195 132.808 276.21 132.538 276.21 132.253C276.21 129.823 274.545 128.188 272.19 128.188C269.745 128.188 268.065 129.853 268.065 132.448C268.065 135.043 269.82 136.723 272.19 136.723C274.215 136.723 275.52 135.568 275.985 134.128ZM277.683 132.448C277.683 135.043 279.363 136.723 281.733 136.723C283.758 136.723 285.078 135.598 285.543 133.978H283.698C283.383 134.833 282.753 135.283 281.733 135.283C280.353 135.283 279.438 134.263 279.438 132.448C279.438 130.648 280.353 129.628 281.733 129.628C282.753 129.628 283.413 130.138 283.698 130.933H285.543C285.078 129.193 283.758 128.188 281.733 128.188C279.363 128.188 277.683 129.868 277.683 132.448ZM287.877 134.293C287.877 135.973 288.792 136.588 290.262 136.588H291.612V135.163H290.562C289.842 135.163 289.602 134.908 289.602 134.293V129.718H291.612V128.323H289.602V126.268H287.877V128.323H286.902V129.718H287.877V134.293Z" fill="white"/>
        <path opacity="0.5" d="M74.6529 121.783C74.6529 122.818 74.0529 123.553 72.7179 123.553H70.8279V120.058H72.7179C74.0529 120.058 74.6529 120.733 74.6529 121.783ZM69.1179 118.663V129.088H70.8279V124.918H72.1329L74.5329 129.088H76.5729L73.9929 124.768C75.7479 124.333 76.4079 123.013 76.4079 121.783C76.4079 120.088 75.1929 118.663 72.7179 118.663H69.1179ZM82.4355 122.128C83.7105 122.128 84.7155 122.938 84.7455 124.213H80.1705C80.3505 122.908 81.2805 122.128 82.4355 122.128ZM86.3055 126.628H84.4605C84.1455 127.273 83.5605 127.783 82.5105 127.783C81.2505 127.783 80.2755 126.958 80.1555 125.593H86.4705C86.5155 125.308 86.5305 125.038 86.5305 124.753C86.5305 122.323 84.8655 120.688 82.5105 120.688C80.0655 120.688 78.3855 122.353 78.3855 124.948C78.3855 127.543 80.1405 129.223 82.5105 129.223C84.5355 129.223 85.8405 128.068 86.3055 126.628ZM88.0033 124.948C88.0033 127.543 89.6833 129.223 92.0533 129.223C94.0783 129.223 95.3983 128.098 95.8633 126.478H94.0183C93.7033 127.333 93.0733 127.783 92.0533 127.783C90.6733 127.783 89.7583 126.763 89.7583 124.948C89.7583 123.148 90.6733 122.128 92.0533 122.128C93.0733 122.128 93.7333 122.638 94.0183 123.433H95.8633C95.3983 121.693 94.0783 120.688 92.0533 120.688C89.6833 120.688 88.0033 122.368 88.0033 124.948ZM97.9274 129.088H99.6374V124.468C99.6374 122.953 100.462 122.173 101.722 122.173C102.967 122.173 103.792 122.953 103.792 124.468V129.088H105.487V124.213C105.487 121.903 104.047 120.688 102.202 120.688C101.137 120.688 100.207 121.093 99.6374 121.783V117.988H97.9274V129.088ZM107.459 124.918C107.459 127.468 109.184 129.223 111.329 129.223C112.709 129.223 113.699 128.563 114.224 127.858V129.088H115.949V120.823H114.224V122.023C113.714 121.348 112.754 120.688 111.359 120.688C109.184 120.688 107.459 122.368 107.459 124.918ZM114.224 124.948C114.224 126.733 113.009 127.738 111.719 127.738C110.444 127.738 109.214 126.703 109.214 124.918C109.214 123.133 110.444 122.173 111.719 122.173C113.009 122.173 114.224 123.178 114.224 124.948ZM120.265 124.738C120.265 122.983 121.045 122.458 122.305 122.458H122.74V120.688C121.57 120.688 120.745 121.198 120.265 122.023V120.823H118.555V129.088H120.265V124.738ZM124.101 124.918C124.101 127.468 125.826 129.223 128.001 129.223C129.351 129.223 130.341 128.548 130.866 127.843V129.223C130.866 130.873 129.876 131.683 128.556 131.683C127.371 131.683 126.456 131.098 126.201 130.243H124.506C124.716 132.073 126.351 133.168 128.556 133.168C131.136 133.168 132.591 131.473 132.591 129.223V120.823H130.866V122.023C130.356 121.318 129.351 120.688 128.001 120.688C125.826 120.688 124.101 122.368 124.101 124.918ZM130.866 124.948C130.866 126.733 129.651 127.738 128.361 127.738C127.086 127.738 125.856 126.703 125.856 124.918C125.856 123.133 127.086 122.173 128.361 122.173C129.651 122.173 130.866 123.178 130.866 124.948ZM138.677 122.128C139.952 122.128 140.957 122.938 140.987 124.213H136.412C136.592 122.908 137.522 122.128 138.677 122.128ZM142.547 126.628H140.702C140.387 127.273 139.802 127.783 138.752 127.783C137.492 127.783 136.517 126.958 136.397 125.593H142.712C142.757 125.308 142.772 125.038 142.772 124.753C142.772 122.323 141.107 120.688 138.752 120.688C136.307 120.688 134.627 122.353 134.627 124.948C134.627 127.543 136.382 129.223 138.752 129.223C140.777 129.223 142.082 128.068 142.547 126.628Z" fill="white"/>
        <path opacity="0.5" d="M54.1934 164.244H56.0534V170.264H57.1934V164.244H59.0434V163.314H54.1934V164.244ZM65.8079 167.504C65.8079 165.774 64.5679 164.664 62.9979 164.664C61.4279 164.664 60.1879 165.774 60.1879 167.504C60.1879 169.234 61.3779 170.354 62.9479 170.354C64.5279 170.354 65.8079 169.234 65.8079 167.504ZM61.3479 167.504C61.3479 166.254 62.1179 165.654 62.9779 165.654C63.8279 165.654 64.6379 166.254 64.6379 167.504C64.6379 168.754 63.7979 169.364 62.9479 169.364C62.0879 169.364 61.3479 168.754 61.3479 167.504ZM66.9149 167.484C66.9149 169.184 68.0649 170.354 69.5149 170.354C70.4149 170.354 71.0749 169.934 71.4249 169.434V170.264H72.5749V162.864H71.4249V165.524C71.0049 165.004 70.2449 164.664 69.5249 164.664C68.0649 164.664 66.9149 165.784 66.9149 167.484ZM71.4249 167.504C71.4249 168.694 70.6149 169.364 69.7549 169.364C68.9049 169.364 68.0849 168.674 68.0849 167.484C68.0849 166.294 68.9049 165.654 69.7549 165.654C70.6149 165.654 71.4249 166.324 71.4249 167.504ZM74.0522 167.484C74.0522 169.184 75.2022 170.354 76.6322 170.354C77.5522 170.354 78.2122 169.914 78.5622 169.444V170.264H79.7122V164.754H78.5622V165.554C78.2222 165.104 77.5822 164.664 76.6522 164.664C75.2022 164.664 74.0522 165.784 74.0522 167.484ZM78.5622 167.504C78.5622 168.694 77.7522 169.364 76.8922 169.364C76.0422 169.364 75.2222 168.674 75.2222 167.484C75.2222 166.294 76.0422 165.654 76.8922 165.654C77.7522 165.654 78.5622 166.324 78.5622 167.504ZM83.7396 168.954L82.1896 164.754H80.9196L83.0896 170.174L81.9696 172.854H83.1496L86.5296 164.754H85.3496L83.7396 168.954ZM87.6099 172.014H88.7299L91.4499 160.824H90.3199L87.6099 172.014ZM97.8166 163.304V168.484L94.3866 163.304H93.2466V170.264H94.3866V165.074L97.8166 170.264H98.9566V163.304H97.8166ZM106.064 167.504C106.064 165.774 104.824 164.664 103.254 164.664C101.684 164.664 100.444 165.774 100.444 167.504C100.444 169.234 101.634 170.354 103.204 170.354C104.784 170.354 106.064 169.234 106.064 167.504ZM101.604 167.504C101.604 166.254 102.374 165.654 103.234 165.654C104.084 165.654 104.894 166.254 104.894 167.504C104.894 168.754 104.054 169.364 103.204 169.364C102.344 169.364 101.604 168.754 101.604 167.504ZM108.621 170.264H109.821L110.931 166.194L112.041 170.264H113.241L114.951 164.754H113.831L112.691 169.164L111.571 164.754H110.381L109.211 169.184L108.061 164.754H106.901L108.621 170.264ZM116.023 172.014H117.143L119.863 160.824H118.733L116.023 172.014ZM121.279 166.774C121.279 168.864 122.869 170.324 124.829 170.324C126.279 170.324 127.529 169.604 128.059 168.244H126.689C126.319 168.984 125.659 169.334 124.829 169.334C123.449 169.334 122.449 168.344 122.449 166.774C122.449 165.204 123.449 164.224 124.829 164.224C125.659 164.224 126.319 164.574 126.689 165.314H128.059C127.529 163.954 126.279 163.224 124.829 163.224C122.869 163.224 121.279 164.694 121.279 166.774ZM129.374 167.484C129.374 169.184 130.524 170.354 131.954 170.354C132.874 170.354 133.534 169.914 133.884 169.444V170.264H135.034V164.754H133.884V165.554C133.544 165.104 132.904 164.664 131.974 164.664C130.524 164.664 129.374 165.784 129.374 167.484ZM133.884 167.504C133.884 168.694 133.074 169.364 132.214 169.364C131.364 169.364 130.544 168.674 130.544 167.484C130.544 166.294 131.364 165.654 132.214 165.654C133.074 165.654 133.884 166.324 133.884 167.504ZM140.801 170.264H141.931V167.014C141.931 165.474 140.961 164.664 139.671 164.664C139.011 164.664 138.401 164.934 138.031 165.384V164.754H136.891V170.264H138.031V167.184C138.031 166.174 138.581 165.654 139.421 165.654C140.251 165.654 140.801 166.174 140.801 167.184V170.264ZM143.365 167.504C143.365 169.234 144.485 170.354 146.065 170.354C147.415 170.354 148.295 169.604 148.605 168.524H147.375C147.165 169.094 146.745 169.394 146.065 169.394C145.145 169.394 144.535 168.714 144.535 167.504C144.535 166.304 145.145 165.624 146.065 165.624C146.745 165.624 147.185 165.964 147.375 166.494H148.605C148.295 165.334 147.415 164.664 146.065 164.664C144.485 164.664 143.365 165.784 143.365 167.504ZM152.421 165.624C153.271 165.624 153.941 166.164 153.961 167.014H150.911C151.031 166.144 151.651 165.624 152.421 165.624ZM155.001 168.624H153.771C153.561 169.054 153.171 169.394 152.471 169.394C151.631 169.394 150.981 168.844 150.901 167.934H155.111C155.141 167.744 155.151 167.564 155.151 167.374C155.151 165.754 154.041 164.664 152.471 164.664C150.841 164.664 149.721 165.774 149.721 167.504C149.721 169.234 150.891 170.354 152.471 170.354C153.821 170.354 154.691 169.584 155.001 168.624ZM156.633 170.264H157.773V162.864H156.633V170.264Z" fill="white"/>
        <rect x="210.986" y="92.7871" width="95.5136" height="61.6015" rx="5.5" stroke="white"/>
        <rect opacity="0.5" x="58.4048" y="92.7871" width="95.5136" height="61.6015" rx="5.5" stroke="white"/>
        <path opacity="0.8" d="M-11.2353 22.3682H328.559C339.328 22.3682 348.059 31.0986 348.059 41.8682V200.671V206.717C348.059 217.487 339.328 226.217 328.559 226.217H158.662H-11.2354C-22.0049 226.217 -30.7354 217.487 -30.7354 206.717V41.8681C-30.7354 31.0986 -22.0049 22.3682 -11.2353 22.3682Z" stroke="white"/>
        <rect x="0.5" y="-0.5" width="17.5463" height="6.13001" rx="3.065" transform="matrix(1 0 0 -1 249.469 94.8521)" fill="black" stroke="white"/>
        <rect width="19.6346" height="7.13001" rx="3.565" transform="matrix(1 0 0 -1 223.352 95.8521)" fill="black"/>
        <path fill-rule="evenodd" clip-rule="evenodd" d="M233.06 99.7484L233.17 99.8589L233.279 99.7476L234.845 97.8556C234.392 97.4613 233.811 97.2138 233.17 97.2138C232.528 97.2138 231.947 97.4613 231.494 97.8556L233.06 99.7484V99.7484ZM229.204 95.0879C230.311 94.1291 231.7 93.6033 233.17 93.6033C234.638 93.6033 236.027 94.1291 237.135 95.0879L238.145 93.867C236.754 92.6647 235.013 92.0052 233.17 92.0052C231.326 92.0052 229.584 92.6647 228.193 93.867L229.204 95.0886V95.0879ZM224.845 89.821C227.17 87.8123 230.086 86.7144 233.17 86.7144C236.253 86.7144 239.169 87.8123 241.494 89.821L240.481 91.0466C238.438 89.2806 235.879 88.3125 233.17 88.3125C230.461 88.3125 227.901 89.2806 225.858 91.0458L224.845 89.821Z" fill="white"/>
        <rect x="0.5" y="-0.5" width="40.3471" height="15.3545" rx="7.67724" transform="matrix(1 0 0 -1 279.078 64.6992)" stroke="white"/>
    </g>
    <defs>
        <clipPath id="clip0_3969_14108">
            <rect width="375" height="232" fill="white"/>
        </clipPath>
    </defs>
</svg>
