<svg width="375" height="232" viewBox="0 0 375 232" fill="none" xmlns="http://www.w3.org/2000/svg">
<rect x="18" y="34" width="340" height="164" rx="15" stroke="white" stroke-width="2"/>
<path d="M52.144 52.592C53.5307 52.592 54.6827 52.944 55.6 53.648C56.5173 54.352 57.136 55.3067 57.456 56.512H55.52C55.2533 55.8293 54.8267 55.2907 54.24 54.896C53.664 54.4907 52.9547 54.288 52.112 54.288C51.44 54.288 50.8373 54.4533 50.304 54.784C49.7813 55.1147 49.3653 55.5893 49.056 56.208C48.7573 56.816 48.608 57.5307 48.608 58.352C48.608 59.1627 48.7573 59.8773 49.056 60.496C49.3653 61.104 49.7813 61.5733 50.304 61.904C50.8373 62.2347 51.44 62.4 52.112 62.4C52.9547 62.4 53.664 62.2027 54.24 61.808C54.8267 61.4027 55.2533 60.864 55.52 60.192H57.456C57.136 61.3973 56.5173 62.352 55.6 63.056C54.6827 63.7493 53.5307 64.096 52.144 64.096C51.0773 64.096 50.1333 63.856 49.312 63.376C48.4907 62.8853 47.856 62.208 47.408 61.344C46.96 60.4693 46.736 59.472 46.736 58.352C46.736 57.232 46.96 56.24 47.408 55.376C47.856 54.5013 48.4907 53.8187 49.312 53.328C50.1333 52.8373 51.0773 52.592 52.144 52.592ZM63.6279 55.072C64.4812 55.072 65.2492 55.2533 65.9319 55.616C66.6145 55.9787 67.1479 56.5013 67.5319 57.184C67.9159 57.8667 68.1079 58.6667 68.1079 59.584C68.1079 60.512 67.9159 61.3173 67.5319 62C67.1479 62.6827 66.6145 63.2053 65.9319 63.568C65.2492 63.9307 64.4812 64.112 63.6279 64.112C62.7745 64.112 62.0065 63.9307 61.3239 63.568C60.6519 63.2053 60.1185 62.6827 59.7239 62C59.3399 61.3067 59.1479 60.5013 59.1479 59.584C59.1479 58.6667 59.3399 57.8667 59.7239 57.184C60.1185 56.5013 60.6519 55.9787 61.3239 55.616C62.0065 55.2533 62.7745 55.072 63.6279 55.072ZM63.6279 56.656C63.1585 56.656 62.7265 56.7627 62.3319 56.976C61.9372 57.1893 61.6172 57.52 61.3719 57.968C61.1372 58.4053 61.0199 58.944 61.0199 59.584C61.0199 60.2347 61.1372 60.7787 61.3719 61.216C61.6172 61.6533 61.9372 61.9787 62.3319 62.192C62.7265 62.4053 63.1585 62.512 63.6279 62.512C64.0972 62.512 64.5292 62.4053 64.9239 62.192C65.3185 61.9787 65.6332 61.6533 65.8679 61.216C66.1132 60.7787 66.2359 60.2347 66.2359 59.584C66.2359 58.944 66.1132 58.4053 65.8679 57.968C65.6332 57.52 65.3185 57.1893 64.9239 56.976C64.5292 56.7627 64.0972 56.656 63.6279 56.656ZM75.1095 55.04C76.1335 55.04 76.9548 55.3707 77.5735 56.032C78.1922 56.6933 78.5015 57.6373 78.5015 58.864V64H76.6775V59.056C76.6775 58.2667 76.4748 57.6587 76.0695 57.232C75.6642 56.7947 75.1095 56.576 74.4055 56.576C73.6802 56.576 73.0988 56.8107 72.6615 57.28C72.2242 57.7387 72.0055 58.416 72.0055 59.312V64H70.1815V55.184H72.0055V57.12C72.2402 56.4587 72.6348 55.9467 73.1895 55.584C73.7442 55.2213 74.3842 55.04 75.1095 55.04ZM85.8826 55.04C86.9066 55.04 87.728 55.3707 88.3466 56.032C88.9653 56.6933 89.2746 57.6373 89.2746 58.864V64H87.4506V59.056C87.4506 58.2667 87.248 57.6587 86.8426 57.232C86.4373 56.7947 85.8826 56.576 85.1786 56.576C84.4533 56.576 83.872 56.8107 83.4346 57.28C82.9973 57.7387 82.7786 58.416 82.7786 59.312V64H80.9546V55.184H82.7786V57.12C83.0133 56.4587 83.408 55.9467 83.9626 55.584C84.5173 55.2213 85.1573 55.04 85.8826 55.04ZM99.9197 59.168C99.9197 59.4667 99.8984 59.728 99.8557 59.952H93.0717C93.1037 60.8587 93.3544 61.5307 93.8237 61.968C94.2931 62.4053 94.8744 62.624 95.5677 62.624C96.1757 62.624 96.6877 62.4693 97.1037 62.16C97.5304 61.8507 97.7917 61.44 97.8877 60.928H99.8397C99.7224 61.5467 99.4771 62.096 99.1037 62.576C98.7304 63.056 98.2451 63.4347 97.6477 63.712C97.0504 63.9787 96.3837 64.112 95.6477 64.112C94.7944 64.112 94.0371 63.9307 93.3757 63.568C92.7251 63.2053 92.2131 62.6827 91.8397 62C91.4664 61.3173 91.2797 60.512 91.2797 59.584C91.2797 58.6667 91.4664 57.8667 91.8397 57.184C92.2131 56.5013 92.7251 55.9787 93.3757 55.616C94.0371 55.2533 94.7944 55.072 95.6477 55.072C96.5117 55.072 97.2637 55.2533 97.9037 55.616C98.5544 55.968 99.0504 56.4587 99.3917 57.088C99.7437 57.7067 99.9197 58.4 99.9197 59.168ZM98.0797 59.12C98.1011 58.544 97.9997 58.064 97.7757 57.68C97.5624 57.2853 97.2637 56.9973 96.8797 56.816C96.5064 56.624 96.0957 56.528 95.6477 56.528C94.9331 56.528 94.3357 56.7467 93.8557 57.184C93.3757 57.6213 93.1144 58.2667 93.0717 59.12H98.0797ZM105.921 55.072C107.062 55.072 108.006 55.376 108.753 55.984C109.5 56.5813 109.964 57.3973 110.145 58.432H108.209C108.102 57.8773 107.841 57.4453 107.425 57.136C107.02 56.816 106.508 56.656 105.889 56.656C105.185 56.656 104.598 56.9067 104.129 57.408C103.66 57.8987 103.425 58.624 103.425 59.584C103.425 60.544 103.66 61.2747 104.129 61.776C104.598 62.2773 105.185 62.528 105.889 62.528C106.508 62.528 107.02 62.368 107.425 62.048C107.841 61.728 108.102 61.2907 108.209 60.736H110.145C109.964 61.7707 109.5 62.592 108.753 63.2C108.006 63.808 107.062 64.112 105.921 64.112C105.068 64.112 104.31 63.9307 103.649 63.568C102.998 63.2053 102.486 62.6827 102.113 62C101.74 61.3173 101.553 60.512 101.553 59.584C101.553 58.6667 101.74 57.8667 102.113 57.184C102.486 56.5013 102.998 55.9787 103.649 55.616C104.31 55.2533 105.068 55.072 105.921 55.072ZM116.659 62.416V64H115.539C114.6 64 113.886 63.776 113.395 63.328C112.915 62.8693 112.675 62.112 112.675 61.056V56.736H111.411V55.184H112.675V52.992H114.515V55.184H116.643V56.736H114.515V61.088C114.515 61.5893 114.606 61.936 114.787 62.128C114.979 62.32 115.31 62.416 115.779 62.416H116.659ZM126.88 59.168C126.88 59.4667 126.858 59.728 126.816 59.952H120.032C120.064 60.8587 120.314 61.5307 120.784 61.968C121.253 62.4053 121.834 62.624 122.528 62.624C123.136 62.624 123.648 62.4693 124.064 62.16C124.49 61.8507 124.752 61.44 124.848 60.928H126.8C126.682 61.5467 126.437 62.096 126.064 62.576C125.69 63.056 125.205 63.4347 124.608 63.712C124.01 63.9787 123.344 64.112 122.608 64.112C121.754 64.112 120.997 63.9307 120.336 63.568C119.685 63.2053 119.173 62.6827 118.8 62C118.426 61.3173 118.24 60.512 118.24 59.584C118.24 58.6667 118.426 57.8667 118.8 57.184C119.173 56.5013 119.685 55.9787 120.336 55.616C120.997 55.2533 121.754 55.072 122.608 55.072C123.472 55.072 124.224 55.2533 124.864 55.616C125.514 55.968 126.01 56.4587 126.352 57.088C126.704 57.7067 126.88 58.4 126.88 59.168ZM125.04 59.12C125.061 58.544 124.96 58.064 124.736 57.68C124.522 57.2853 124.224 56.9973 123.84 56.816C123.466 56.624 123.056 56.528 122.608 56.528C121.893 56.528 121.296 56.7467 120.816 57.184C120.336 57.6213 120.074 58.2667 120.032 59.12H125.04ZM132.497 55.072C133.297 55.072 133.98 55.2693 134.545 55.664C135.11 56.0587 135.505 56.5813 135.729 57.232V52.16H137.569V64H135.729V61.952C135.505 62.6027 135.11 63.1253 134.545 63.52C133.98 63.9147 133.297 64.112 132.497 64.112C131.729 64.112 131.041 63.9307 130.433 63.568C129.836 63.2053 129.366 62.6827 129.025 62C128.684 61.3173 128.513 60.512 128.513 59.584C128.513 58.6667 128.684 57.8667 129.025 57.184C129.366 56.5013 129.836 55.9787 130.433 55.616C131.041 55.2533 131.729 55.072 132.497 55.072ZM133.057 56.672C132.246 56.672 131.596 56.9333 131.105 57.456C130.625 57.968 130.385 58.6773 130.385 59.584C130.385 60.4907 130.625 61.2053 131.105 61.728C131.596 62.24 132.246 62.496 133.057 62.496C133.569 62.496 134.028 62.3787 134.433 62.144C134.838 61.8987 135.158 61.5573 135.393 61.12C135.628 60.6827 135.745 60.1707 135.745 59.584C135.745 59.008 135.628 58.5013 135.393 58.064C135.158 57.616 134.838 57.2747 134.433 57.04C134.028 56.7947 133.569 56.672 133.057 56.672ZM150.884 61.552H146.116L145.252 64H143.3L147.46 52.88H149.556L153.7 64H151.748L150.884 61.552ZM150.372 60.144L148.5 54.864L146.628 60.144H150.372ZM160.43 55.072C161.198 55.072 161.881 55.2533 162.478 55.616C163.086 55.9787 163.561 56.5013 163.902 57.184C164.243 57.8667 164.414 58.6667 164.414 59.584C164.414 60.512 164.243 61.3173 163.902 62C163.561 62.6827 163.086 63.2053 162.478 63.568C161.881 63.9307 161.198 64.112 160.43 64.112C159.63 64.112 158.947 63.9147 158.382 63.52C157.817 63.1253 157.422 62.6027 157.198 61.952V68.192H155.374V55.184H157.198V57.232C157.422 56.5813 157.817 56.0587 158.382 55.664C158.947 55.2693 159.63 55.072 160.43 55.072ZM159.87 56.672C159.358 56.672 158.899 56.7947 158.494 57.04C158.089 57.2747 157.769 57.616 157.534 58.064C157.299 58.5013 157.182 59.008 157.182 59.584C157.182 60.1707 157.299 60.6827 157.534 61.12C157.769 61.5573 158.089 61.8987 158.494 62.144C158.899 62.3787 159.358 62.496 159.87 62.496C160.681 62.496 161.331 62.24 161.822 61.728C162.313 61.2053 162.558 60.4907 162.558 59.584C162.558 58.688 162.313 57.9787 161.822 57.456C161.331 56.9333 160.681 56.672 159.87 56.672ZM171.547 55.072C172.315 55.072 172.998 55.2533 173.595 55.616C174.203 55.9787 174.678 56.5013 175.019 57.184C175.36 57.8667 175.531 58.6667 175.531 59.584C175.531 60.512 175.36 61.3173 175.019 62C174.678 62.6827 174.203 63.2053 173.595 63.568C172.998 63.9307 172.315 64.112 171.547 64.112C170.747 64.112 170.064 63.9147 169.499 63.52C168.934 63.1253 168.539 62.6027 168.315 61.952V68.192H166.491V55.184H168.315V57.232C168.539 56.5813 168.934 56.0587 169.499 55.664C170.064 55.2693 170.747 55.072 171.547 55.072ZM170.987 56.672C170.475 56.672 170.016 56.7947 169.611 57.04C169.206 57.2747 168.886 57.616 168.651 58.064C168.416 58.5013 168.299 59.008 168.299 59.584C168.299 60.1707 168.416 60.6827 168.651 61.12C168.886 61.5573 169.206 61.8987 169.611 62.144C170.016 62.3787 170.475 62.496 170.987 62.496C171.798 62.496 172.448 62.24 172.939 61.728C173.43 61.2053 173.675 60.4907 173.675 59.584C173.675 58.688 173.43 57.9787 172.939 57.456C172.448 56.9333 171.798 56.672 170.987 56.672ZM179.432 52.16V64H177.608V52.16H179.432ZM181.703 52.624C181.703 52.3147 181.81 52.0587 182.023 51.856C182.236 51.6533 182.519 51.552 182.871 51.552C183.223 51.552 183.506 51.6533 183.719 51.856C183.943 52.0587 184.055 52.3147 184.055 52.624C184.055 52.9333 183.943 53.184 183.719 53.376C183.506 53.568 183.223 53.664 182.871 53.664C182.519 53.664 182.236 53.568 182.023 53.376C181.81 53.184 181.703 52.9333 181.703 52.624ZM183.783 55.184V64H181.959V55.184H183.783ZM189.846 55.072C190.646 55.072 191.329 55.2693 191.894 55.664C192.46 56.0587 192.86 56.5813 193.094 57.232V55.184H194.918V64H193.094V61.952C192.86 62.6027 192.46 63.1253 191.894 63.52C191.329 63.9147 190.646 64.112 189.846 64.112C189.078 64.112 188.39 63.9307 187.782 63.568C187.185 63.2053 186.716 62.6827 186.374 62C186.033 61.3173 185.862 60.512 185.862 59.584C185.862 58.6667 186.033 57.8667 186.374 57.184C186.716 56.5013 187.185 55.9787 187.782 55.616C188.39 55.2533 189.078 55.072 189.846 55.072ZM190.406 56.672C189.596 56.672 188.945 56.9333 188.454 57.456C187.974 57.968 187.734 58.6773 187.734 59.584C187.734 60.4907 187.974 61.2053 188.454 61.728C188.945 62.24 189.596 62.496 190.406 62.496C190.918 62.496 191.377 62.3787 191.782 62.144C192.188 61.8987 192.508 61.5573 192.742 61.12C192.977 60.6827 193.094 60.1707 193.094 59.584C193.094 59.008 192.977 58.5013 192.742 58.064C192.508 57.616 192.188 57.2747 191.782 57.04C191.377 56.7947 190.918 56.672 190.406 56.672ZM202.355 55.04C203.379 55.04 204.2 55.3707 204.819 56.032C205.438 56.6933 205.747 57.6373 205.747 58.864V64H203.923V59.056C203.923 58.2667 203.72 57.6587 203.315 57.232C202.91 56.7947 202.355 56.576 201.651 56.576C200.926 56.576 200.344 56.8107 199.907 57.28C199.47 57.7387 199.251 58.416 199.251 59.312V64H197.427V55.184H199.251V57.12C199.486 56.4587 199.88 55.9467 200.435 55.584C200.99 55.2213 201.63 55.04 202.355 55.04ZM212.12 55.072C213.262 55.072 214.206 55.376 214.952 55.984C215.699 56.5813 216.163 57.3973 216.344 58.432H214.408C214.302 57.8773 214.04 57.4453 213.624 57.136C213.219 56.816 212.707 56.656 212.088 56.656C211.384 56.656 210.798 56.9067 210.328 57.408C209.859 57.8987 209.624 58.624 209.624 59.584C209.624 60.544 209.859 61.2747 210.328 61.776C210.798 62.2773 211.384 62.528 212.088 62.528C212.707 62.528 213.219 62.368 213.624 62.048C214.04 61.728 214.302 61.2907 214.408 60.736H216.344C216.163 61.7707 215.699 62.592 214.952 63.2C214.206 63.808 213.262 64.112 212.12 64.112C211.267 64.112 210.51 63.9307 209.848 63.568C209.198 63.2053 208.686 62.6827 208.312 62C207.939 61.3173 207.752 60.512 207.752 59.584C207.752 58.6667 207.939 57.8667 208.312 57.184C208.686 56.5013 209.198 55.9787 209.848 55.616C210.51 55.2533 211.267 55.072 212.12 55.072ZM226.618 59.168C226.618 59.4667 226.597 59.728 226.554 59.952H219.77C219.802 60.8587 220.053 61.5307 220.522 61.968C220.992 62.4053 221.573 62.624 222.266 62.624C222.874 62.624 223.386 62.4693 223.802 62.16C224.229 61.8507 224.49 61.44 224.586 60.928H226.538C226.421 61.5467 226.176 62.096 225.802 62.576C225.429 63.056 224.944 63.4347 224.346 63.712C223.749 63.9787 223.082 64.112 222.346 64.112C221.493 64.112 220.736 63.9307 220.074 63.568C219.424 63.2053 218.912 62.6827 218.538 62C218.165 61.3173 217.978 60.512 217.978 59.584C217.978 58.6667 218.165 57.8667 218.538 57.184C218.912 56.5013 219.424 55.9787 220.074 55.616C220.736 55.2533 221.493 55.072 222.346 55.072C223.21 55.072 223.962 55.2533 224.602 55.616C225.253 55.968 225.749 56.4587 226.09 57.088C226.442 57.7067 226.618 58.4 226.618 59.168ZM224.778 59.12C224.8 58.544 224.698 58.064 224.474 57.68C224.261 57.2853 223.962 56.9973 223.578 56.816C223.205 56.624 222.794 56.528 222.346 56.528C221.632 56.528 221.034 56.7467 220.554 57.184C220.074 57.6213 219.813 58.2667 219.77 59.12H224.778ZM234.594 52.704V64H232.77V52.704H234.594ZM242.049 55.04C243.073 55.04 243.894 55.3707 244.513 56.032C245.132 56.6933 245.441 57.6373 245.441 58.864V64H243.617V59.056C243.617 58.2667 243.414 57.6587 243.009 57.232C242.604 56.7947 242.049 56.576 241.345 56.576C240.62 56.576 240.038 56.8107 239.601 57.28C239.164 57.7387 238.945 58.416 238.945 59.312V64H237.121V55.184H238.945V57.12C239.18 56.4587 239.574 55.9467 240.129 55.584C240.684 55.2213 241.324 55.04 242.049 55.04ZM252.006 53.36C251.291 53.328 250.79 53.4453 250.502 53.712C250.214 53.968 250.07 54.4107 250.07 55.04V55.184H252.006V56.752H250.07V64H248.23V56.752H247.03V55.184H248.23V54.896C248.23 53.8187 248.545 53.0133 249.174 52.48C249.803 51.936 250.747 51.696 252.006 51.76V53.36ZM257.824 55.072C258.677 55.072 259.445 55.2533 260.128 55.616C260.811 55.9787 261.344 56.5013 261.728 57.184C262.112 57.8667 262.304 58.6667 262.304 59.584C262.304 60.512 262.112 61.3173 261.728 62C261.344 62.6827 260.811 63.2053 260.128 63.568C259.445 63.9307 258.677 64.112 257.824 64.112C256.971 64.112 256.203 63.9307 255.52 63.568C254.848 63.2053 254.315 62.6827 253.92 62C253.536 61.3067 253.344 60.5013 253.344 59.584C253.344 58.6667 253.536 57.8667 253.92 57.184C254.315 56.5013 254.848 55.9787 255.52 55.616C256.203 55.2533 256.971 55.072 257.824 55.072ZM257.824 56.656C257.355 56.656 256.923 56.7627 256.528 56.976C256.133 57.1893 255.813 57.52 255.568 57.968C255.333 58.4053 255.216 58.944 255.216 59.584C255.216 60.2347 255.333 60.7787 255.568 61.216C255.813 61.6533 256.133 61.9787 256.528 62.192C256.923 62.4053 257.355 62.512 257.824 62.512C258.293 62.512 258.725 62.4053 259.12 62.192C259.515 61.9787 259.829 61.6533 260.064 61.216C260.309 60.7787 260.432 60.2347 260.432 59.584C260.432 58.944 260.309 58.4053 260.064 57.968C259.829 57.52 259.515 57.1893 259.12 56.976C258.725 56.7627 258.293 56.656 257.824 56.656ZM266.202 56.912C266.5 56.336 266.927 55.8827 267.482 55.552C268.036 55.2107 268.676 55.04 269.402 55.04V57.024H268.858C268.058 57.024 267.412 57.2213 266.922 57.616C266.442 58 266.202 58.64 266.202 59.536V64H264.378V55.184H266.202V56.912ZM282.112 55.04C283.158 55.04 283.99 55.3707 284.608 56.032C285.238 56.6933 285.552 57.6373 285.552 58.864V64H283.728V59.056C283.728 58.288 283.536 57.696 283.152 57.28C282.768 56.8533 282.24 56.64 281.568 56.64C280.854 56.64 280.283 56.8693 279.856 57.328C279.44 57.776 279.232 58.4373 279.232 59.312V64H277.408V59.056C277.408 58.288 277.216 57.696 276.832 57.28C276.448 56.8533 275.92 56.64 275.248 56.64C274.534 56.64 273.963 56.8693 273.536 57.328C273.12 57.776 272.912 58.4373 272.912 59.312V64H271.088V55.184H272.912V57.024C273.136 56.384 273.51 55.8933 274.032 55.552C274.555 55.2107 275.168 55.04 275.872 55.04C276.608 55.04 277.243 55.2213 277.776 55.584C278.32 55.9467 278.715 56.4693 278.96 57.152C279.216 56.4907 279.627 55.9733 280.192 55.6C280.758 55.2267 281.398 55.04 282.112 55.04ZM291.538 55.072C292.338 55.072 293.021 55.2693 293.586 55.664C294.151 56.0587 294.551 56.5813 294.786 57.232V55.184H296.61V64H294.786V61.952C294.551 62.6027 294.151 63.1253 293.586 63.52C293.021 63.9147 292.338 64.112 291.538 64.112C290.77 64.112 290.082 63.9307 289.474 63.568C288.877 63.2053 288.407 62.6827 288.066 62C287.725 61.3173 287.554 60.512 287.554 59.584C287.554 58.6667 287.725 57.8667 288.066 57.184C288.407 56.5013 288.877 55.9787 289.474 55.616C290.082 55.2533 290.77 55.072 291.538 55.072ZM292.098 56.672C291.287 56.672 290.637 56.9333 290.146 57.456C289.666 57.968 289.426 58.6773 289.426 59.584C289.426 60.4907 289.666 61.2053 290.146 61.728C290.637 62.24 291.287 62.496 292.098 62.496C292.61 62.496 293.069 62.3787 293.474 62.144C293.879 61.8987 294.199 61.5573 294.434 61.12C294.669 60.6827 294.786 60.1707 294.786 59.584C294.786 59.008 294.669 58.5013 294.434 58.064C294.199 57.616 293.879 57.2747 293.474 57.04C293.069 56.7947 292.61 56.672 292.098 56.672ZM303.551 62.416V64H302.431C301.492 64 300.778 63.776 300.287 63.328C299.807 62.8693 299.567 62.112 299.567 61.056V56.736H298.303V55.184H299.567V52.992H301.407V55.184H303.535V56.736H301.407V61.088C301.407 61.5893 301.498 61.936 301.679 62.128C301.871 62.32 302.202 62.416 302.671 62.416H303.551ZM305.324 52.624C305.324 52.3147 305.43 52.0587 305.644 51.856C305.857 51.6533 306.14 51.552 306.492 51.552C306.844 51.552 307.126 51.6533 307.34 51.856C307.564 52.0587 307.676 52.3147 307.676 52.624C307.676 52.9333 307.564 53.184 307.34 53.376C307.126 53.568 306.844 53.664 306.492 53.664C306.14 53.664 305.857 53.568 305.644 53.376C305.43 53.184 305.324 52.9333 305.324 52.624ZM307.404 55.184V64H305.58V55.184H307.404ZM313.963 55.072C314.816 55.072 315.584 55.2533 316.267 55.616C316.95 55.9787 317.483 56.5013 317.867 57.184C318.251 57.8667 318.443 58.6667 318.443 59.584C318.443 60.512 318.251 61.3173 317.867 62C317.483 62.6827 316.95 63.2053 316.267 63.568C315.584 63.9307 314.816 64.112 313.963 64.112C313.11 64.112 312.342 63.9307 311.659 63.568C310.987 63.2053 310.454 62.6827 310.059 62C309.675 61.3067 309.483 60.5013 309.483 59.584C309.483 58.6667 309.675 57.8667 310.059 57.184C310.454 56.5013 310.987 55.9787 311.659 55.616C312.342 55.2533 313.11 55.072 313.963 55.072ZM313.963 56.656C313.494 56.656 313.062 56.7627 312.667 56.976C312.272 57.1893 311.952 57.52 311.707 57.968C311.472 58.4053 311.355 58.944 311.355 59.584C311.355 60.2347 311.472 60.7787 311.707 61.216C311.952 61.6533 312.272 61.9787 312.667 62.192C313.062 62.4053 313.494 62.512 313.963 62.512C314.432 62.512 314.864 62.4053 315.259 62.192C315.654 61.9787 315.968 61.6533 316.203 61.216C316.448 60.7787 316.571 60.2347 316.571 59.584C316.571 58.944 316.448 58.4053 316.203 57.968C315.968 57.52 315.654 57.1893 315.259 56.976C314.864 56.7627 314.432 56.656 313.963 56.656ZM325.445 55.04C326.469 55.04 327.29 55.3707 327.909 56.032C328.527 56.6933 328.837 57.6373 328.837 58.864V64H327.013V59.056C327.013 58.2667 326.81 57.6587 326.405 57.232C325.999 56.7947 325.445 56.576 324.741 56.576C324.015 56.576 323.434 56.8107 322.997 57.28C322.559 57.7387 322.341 58.416 322.341 59.312V64H320.517V55.184H322.341V57.12C322.575 56.4587 322.97 55.9467 323.525 55.584C324.079 55.2213 324.719 55.04 325.445 55.04Z" fill="white"/>
<path d="M179.196 132.712V136H177.828V127.528H180.708C181.684 127.528 182.416 127.76 182.904 128.224C183.4 128.688 183.648 129.324 183.648 130.132C183.648 130.932 183.396 131.564 182.892 132.028C182.388 132.484 181.66 132.712 180.708 132.712H179.196ZM180.564 131.596C181.692 131.596 182.256 131.108 182.256 130.132C182.256 129.652 182.12 129.288 181.848 129.04C181.584 128.784 181.156 128.656 180.564 128.656H179.196V131.596H180.564ZM187.74 129.304C188.34 129.304 188.852 129.452 189.276 129.748C189.7 130.044 190 130.436 190.176 130.924V129.388H191.544V136H190.176V134.464C190 134.952 189.7 135.344 189.276 135.64C188.852 135.936 188.34 136.084 187.74 136.084C187.164 136.084 186.648 135.948 186.192 135.676C185.744 135.404 185.392 135.012 185.136 134.5C184.88 133.988 184.752 133.384 184.752 132.688C184.752 132 184.88 131.4 185.136 130.888C185.392 130.376 185.744 129.984 186.192 129.712C186.648 129.44 187.164 129.304 187.74 129.304ZM188.16 130.504C187.552 130.504 187.064 130.7 186.696 131.092C186.336 131.476 186.156 132.008 186.156 132.688C186.156 133.368 186.336 133.904 186.696 134.296C187.064 134.68 187.552 134.872 188.16 134.872C188.544 134.872 188.888 134.784 189.192 134.608C189.496 134.424 189.736 134.168 189.912 133.84C190.088 133.512 190.176 133.128 190.176 132.688C190.176 132.256 190.088 131.876 189.912 131.548C189.736 131.212 189.496 130.956 189.192 130.78C188.888 130.596 188.544 130.504 188.16 130.504ZM195.597 129.304C196.373 129.304 196.993 129.504 197.457 129.904C197.929 130.296 198.217 130.824 198.321 131.488H197.025C196.969 131.128 196.813 130.84 196.557 130.624C196.309 130.4 195.977 130.288 195.561 130.288C195.217 130.288 194.949 130.372 194.757 130.54C194.573 130.7 194.481 130.92 194.481 131.2C194.481 131.408 194.549 131.576 194.685 131.704C194.821 131.832 194.989 131.932 195.189 132.004C195.397 132.076 195.689 132.156 196.065 132.244C196.561 132.356 196.961 132.472 197.265 132.592C197.577 132.712 197.841 132.904 198.057 133.168C198.281 133.424 198.393 133.776 198.393 134.224C198.393 134.776 198.181 135.224 197.757 135.568C197.341 135.912 196.777 136.084 196.065 136.084C195.241 136.084 194.573 135.892 194.061 135.508C193.557 135.124 193.253 134.588 193.149 133.9H194.481C194.521 134.26 194.681 134.552 194.961 134.776C195.241 135 195.609 135.112 196.065 135.112C196.393 135.112 196.649 135.028 196.833 134.86C197.025 134.684 197.121 134.464 197.121 134.2C197.121 133.968 197.049 133.784 196.905 133.648C196.761 133.512 196.581 133.408 196.365 133.336C196.149 133.256 195.853 133.176 195.477 133.096C194.997 132.984 194.605 132.872 194.301 132.76C194.005 132.648 193.749 132.468 193.533 132.22C193.325 131.964 193.221 131.62 193.221 131.188C193.221 130.628 193.429 130.176 193.845 129.832C194.269 129.48 194.853 129.304 195.597 129.304ZM202.177 129.304C202.953 129.304 203.573 129.504 204.037 129.904C204.509 130.296 204.797 130.824 204.901 131.488H203.605C203.549 131.128 203.393 130.84 203.137 130.624C202.889 130.4 202.557 130.288 202.141 130.288C201.797 130.288 201.529 130.372 201.337 130.54C201.153 130.7 201.061 130.92 201.061 131.2C201.061 131.408 201.129 131.576 201.265 131.704C201.401 131.832 201.569 131.932 201.769 132.004C201.977 132.076 202.269 132.156 202.645 132.244C203.141 132.356 203.541 132.472 203.845 132.592C204.157 132.712 204.421 132.904 204.637 133.168C204.861 133.424 204.973 133.776 204.973 134.224C204.973 134.776 204.761 135.224 204.337 135.568C203.921 135.912 203.357 136.084 202.645 136.084C201.821 136.084 201.153 135.892 200.641 135.508C200.137 135.124 199.833 134.588 199.729 133.9H201.061C201.101 134.26 201.261 134.552 201.541 134.776C201.821 135 202.189 135.112 202.645 135.112C202.973 135.112 203.229 135.028 203.413 134.86C203.605 134.684 203.701 134.464 203.701 134.2C203.701 133.968 203.629 133.784 203.485 133.648C203.341 133.512 203.161 133.408 202.945 133.336C202.729 133.256 202.433 133.176 202.057 133.096C201.577 132.984 201.185 132.872 200.881 132.76C200.585 132.648 200.329 132.468 200.113 132.22C199.905 131.964 199.801 131.62 199.801 131.188C199.801 130.628 200.009 130.176 200.425 129.832C200.849 129.48 201.433 129.304 202.177 129.304ZM215.849 129.388L214.013 136H212.501L210.869 130.888L209.213 136H207.713L205.877 129.388H207.257L208.517 134.74L210.173 129.388H211.613L213.293 134.74L214.553 129.388H215.849ZM220.044 129.304C220.684 129.304 221.26 129.44 221.772 129.712C222.284 129.984 222.684 130.376 222.972 130.888C223.26 131.4 223.404 132 223.404 132.688C223.404 133.384 223.26 133.988 222.972 134.5C222.684 135.012 222.284 135.404 221.772 135.676C221.26 135.948 220.684 136.084 220.044 136.084C219.404 136.084 218.828 135.948 218.316 135.676C217.812 135.404 217.412 135.012 217.116 134.5C216.828 133.98 216.684 133.376 216.684 132.688C216.684 132 216.828 131.4 217.116 130.888C217.412 130.376 217.812 129.984 218.316 129.712C218.828 129.44 219.404 129.304 220.044 129.304ZM220.044 130.492C219.692 130.492 219.368 130.572 219.072 130.732C218.776 130.892 218.536 131.14 218.352 131.476C218.176 131.804 218.088 132.208 218.088 132.688C218.088 133.176 218.176 133.584 218.352 133.912C218.536 134.24 218.776 134.484 219.072 134.644C219.368 134.804 219.692 134.884 220.044 134.884C220.396 134.884 220.72 134.804 221.016 134.644C221.312 134.484 221.548 134.24 221.724 133.912C221.908 133.584 222 133.176 222 132.688C222 132.208 221.908 131.804 221.724 131.476C221.548 131.14 221.312 130.892 221.016 130.732C220.72 130.572 220.396 130.492 220.044 130.492ZM226.327 130.684C226.551 130.252 226.871 129.912 227.287 129.664C227.703 129.408 228.183 129.28 228.727 129.28V130.768H228.319C227.719 130.768 227.235 130.916 226.867 131.212C226.507 131.5 226.327 131.98 226.327 132.652V136H224.959V129.388H226.327V130.684ZM232.644 129.304C233.244 129.304 233.756 129.452 234.18 129.748C234.604 130.044 234.9 130.436 235.068 130.924V127.12H236.448V136H235.068V134.464C234.9 134.952 234.604 135.344 234.18 135.64C233.756 135.936 233.244 136.084 232.644 136.084C232.068 136.084 231.552 135.948 231.096 135.676C230.648 135.404 230.296 135.012 230.04 134.5C229.784 133.988 229.656 133.384 229.656 132.688C229.656 132 229.784 131.4 230.04 130.888C230.296 130.376 230.648 129.984 231.096 129.712C231.552 129.44 232.068 129.304 232.644 129.304ZM233.064 130.504C232.456 130.504 231.968 130.7 231.6 131.092C231.24 131.476 231.06 132.008 231.06 132.688C231.06 133.368 231.24 133.904 231.6 134.296C231.968 134.68 232.456 134.872 233.064 134.872C233.448 134.872 233.792 134.784 234.096 134.608C234.4 134.424 234.64 134.168 234.816 133.84C234.992 133.512 235.08 133.128 235.08 132.688C235.08 132.256 234.992 131.876 234.816 131.548C234.64 131.212 234.4 130.956 234.096 130.78C233.792 130.596 233.448 130.504 233.064 130.504ZM242.655 129.4V130.912H241.107V129.4H242.655ZM242.655 134.488V136H241.107V134.488H242.655ZM252.101 136L250.073 132.868L248.261 136H246.689L249.317 131.68L246.629 127.528H248.261L250.253 130.6L252.053 127.528H253.625L251.009 131.776L253.733 136H252.101ZM259.829 136L257.801 132.868L255.989 136H254.417L257.045 131.68L254.357 127.528H255.989L257.981 130.6L259.781 127.528H261.353L258.737 131.776L261.461 136H259.829ZM267.557 136L265.529 132.868L263.717 136H262.145L264.773 131.68L262.085 127.528H263.717L265.709 130.6L267.509 127.528H269.081L266.465 131.776L269.189 136H267.557ZM275.286 136L273.258 132.868L271.446 136H269.874L272.502 131.68L269.814 127.528H271.446L273.438 130.6L275.238 127.528H276.81L274.194 131.776L276.918 136H275.286ZM283.014 136L280.986 132.868L279.174 136H277.602L280.23 131.68L277.542 127.528H279.174L281.166 130.6L282.966 127.528H284.538L281.922 131.776L284.646 136H283.014ZM290.742 136L288.714 132.868L286.902 136H285.33L287.958 131.68L285.27 127.528H286.902L288.894 130.6L290.694 127.528H292.266L289.65 131.776L292.374 136H290.742ZM298.471 136L296.443 132.868L294.631 136H293.059L295.687 131.68L292.999 127.528H294.631L296.623 130.6L298.423 127.528H299.995L297.379 131.776L300.103 136H298.471ZM306.199 136L304.171 132.868L302.359 136H300.787L303.415 131.68L300.727 127.528H302.359L304.351 130.6L306.151 127.528H307.723L305.107 131.776L307.831 136H306.199Z" fill="white"/>
<path d="M43.832 127.528V128.632H40.196V131.26H43.196V132.316H40.196V136H38.828V127.528H43.832ZM49.0707 127.444C50.1107 127.444 50.9747 127.708 51.6627 128.236C52.3507 128.764 52.8147 129.48 53.0547 130.384H51.6027C51.4027 129.872 51.0827 129.468 50.6427 129.172C50.2107 128.868 49.6787 128.716 49.0467 128.716C48.5427 128.716 48.0907 128.84 47.6907 129.088C47.2987 129.336 46.9867 129.692 46.7547 130.156C46.5307 130.612 46.4187 131.148 46.4187 131.764C46.4187 132.372 46.5307 132.908 46.7547 133.372C46.9867 133.828 47.2987 134.18 47.6907 134.428C48.0907 134.676 48.5427 134.8 49.0467 134.8C49.6787 134.8 50.2107 134.652 50.6427 134.356C51.0827 134.052 51.4027 133.648 51.6027 133.144H53.0547C52.8147 134.048 52.3507 134.764 51.6627 135.292C50.9747 135.812 50.1107 136.072 49.0707 136.072C48.2707 136.072 47.5627 135.892 46.9467 135.532C46.3307 135.164 45.8547 134.656 45.5187 134.008C45.1827 133.352 45.0147 132.604 45.0147 131.764C45.0147 130.924 45.1827 130.18 45.5187 129.532C45.8547 128.876 46.3307 128.364 46.9467 127.996C47.5627 127.628 48.2707 127.444 49.0707 127.444ZM58.4396 127.444C59.4796 127.444 60.3436 127.708 61.0316 128.236C61.7196 128.764 62.1836 129.48 62.4236 130.384H60.9716C60.7716 129.872 60.4516 129.468 60.0116 129.172C59.5796 128.868 59.0476 128.716 58.4156 128.716C57.9116 128.716 57.4596 128.84 57.0596 129.088C56.6676 129.336 56.3556 129.692 56.1236 130.156C55.8996 130.612 55.7876 131.148 55.7876 131.764C55.7876 132.372 55.8996 132.908 56.1236 133.372C56.3556 133.828 56.6676 134.18 57.0596 134.428C57.4596 134.676 57.9116 134.8 58.4156 134.8C59.0476 134.8 59.5796 134.652 60.0116 134.356C60.4516 134.052 60.7716 133.648 60.9716 133.144H62.4236C62.1836 134.048 61.7196 134.764 61.0316 135.292C60.3436 135.812 59.4796 136.072 58.4396 136.072C57.6396 136.072 56.9316 135.892 56.3156 135.532C55.6996 135.164 55.2236 134.656 54.8876 134.008C54.5516 133.352 54.3836 132.604 54.3836 131.764C54.3836 130.924 54.5516 130.18 54.8876 129.532C55.2236 128.876 55.6996 128.364 56.3156 127.996C56.9316 127.628 57.6396 127.444 58.4396 127.444ZM65.3965 127.528V136H64.0285V127.528H65.3965ZM74.5639 131.752C74.5639 132.608 74.3879 133.356 74.0359 133.996C73.6919 134.628 73.1839 135.12 72.5119 135.472C71.8479 135.824 71.0519 136 70.1239 136H67.2919V127.528H70.1239C71.0519 127.528 71.8479 127.704 72.5119 128.056C73.1839 128.4 73.6919 128.888 74.0359 129.52C74.3879 130.152 74.5639 130.896 74.5639 131.752ZM70.0159 134.764C71.0319 134.764 71.8119 134.5 72.3559 133.972C72.8999 133.444 73.1719 132.704 73.1719 131.752C73.1719 130.8 72.8999 130.06 72.3559 129.532C71.8119 129.004 71.0319 128.74 70.0159 128.74H68.6599V134.764H70.0159ZM80.5048 129.4V130.912H78.9568V129.4H80.5048ZM80.5048 134.488V136H78.9568V134.488H80.5048ZM89.5672 136L87.4552 132.616H86.4832V136H85.1152V127.528H88.1032C89.0712 127.528 89.8032 127.764 90.2992 128.236C90.8032 128.708 91.0552 129.332 91.0552 130.108C91.0552 130.772 90.8672 131.316 90.4912 131.74C90.1232 132.164 89.5872 132.436 88.8832 132.556L91.1032 136H89.5672ZM86.4832 131.644H87.9952C89.0992 131.644 89.6512 131.156 89.6512 130.18C89.6512 129.716 89.5152 129.356 89.2432 129.1C88.9792 128.836 88.5632 128.704 87.9952 128.704H86.4832V131.644ZM97.9751 127.528V128.632H95.6111V136H94.2311V128.632H91.8791V127.528H97.9751ZM103.676 127.528V133.672C103.676 134.432 103.464 135.024 103.04 135.448C102.616 135.872 102.028 136.084 101.276 136.084C100.46 136.084 99.8198 135.848 99.3558 135.376C98.8918 134.904 98.6598 134.236 98.6598 133.372H100.016C100.016 133.836 100.112 134.196 100.304 134.452C100.504 134.708 100.808 134.836 101.216 134.836C101.592 134.836 101.868 134.728 102.044 134.512C102.22 134.296 102.308 134.016 102.308 133.672V127.528H103.676ZM109.519 131.08V132.232H104.575V131.08H109.519ZM117.269 127.528V128.632H114.905V136H113.525V128.632H111.173V127.528H117.269ZM125.262 127.528V136H123.882V132.196H119.898V136H118.53V127.528H119.898V131.08H123.882V127.528H125.262ZM132.213 134.164H128.637L127.989 136H126.525L129.645 127.66H131.217L134.325 136H132.861L132.213 134.164ZM131.829 133.108L130.425 129.148L129.021 133.108H131.829ZM140.02 129.808C139.876 128.864 139.384 128.392 138.544 128.392C137.936 128.392 137.48 128.636 137.176 129.124C136.872 129.604 136.72 130.36 136.72 131.392L136.732 131.8C136.852 131.368 137.112 131.024 137.512 130.768C137.912 130.512 138.384 130.384 138.928 130.384C139.76 130.384 140.412 130.632 140.884 131.128C141.356 131.624 141.592 132.324 141.592 133.228C141.592 133.772 141.484 134.26 141.268 134.692C141.052 135.116 140.728 135.456 140.296 135.712C139.864 135.96 139.332 136.084 138.7 136.084C137.476 136.084 136.636 135.704 136.18 134.944C135.724 134.184 135.496 133.14 135.496 131.812C135.496 130.292 135.74 129.156 136.228 128.404C136.716 127.652 137.516 127.276 138.628 127.276C139.46 127.276 140.096 127.512 140.536 127.984C140.984 128.456 141.244 129.064 141.316 129.808H140.02ZM136.852 133.072C136.852 133.592 137.004 134.028 137.308 134.38C137.612 134.724 138.06 134.896 138.652 134.896C139.156 134.896 139.556 134.748 139.852 134.452C140.156 134.156 140.308 133.744 140.308 133.216C140.308 132.648 140.156 132.212 139.852 131.908C139.548 131.604 139.136 131.452 138.616 131.452C138.144 131.452 137.732 131.592 137.38 131.872C137.028 132.152 136.852 132.552 136.852 133.072ZM148.961 128.608H144.773V131.128C144.965 130.88 145.237 130.684 145.589 130.54C145.941 130.388 146.329 130.312 146.753 130.312C147.345 130.312 147.837 130.44 148.229 130.696C148.621 130.944 148.909 131.276 149.093 131.692C149.285 132.108 149.381 132.568 149.381 133.072C149.381 133.96 149.133 134.68 148.637 135.232C148.141 135.776 147.421 136.048 146.477 136.048C145.589 136.048 144.873 135.812 144.329 135.34C143.785 134.868 143.489 134.24 143.441 133.456H144.785C144.857 133.888 145.033 134.228 145.313 134.476C145.601 134.724 145.965 134.848 146.405 134.848C146.949 134.848 147.357 134.684 147.629 134.356C147.901 134.028 148.037 133.592 148.037 133.048C148.037 132.536 147.897 132.136 147.617 131.848C147.337 131.552 146.937 131.404 146.417 131.404C146.049 131.404 145.725 131.484 145.445 131.644C145.173 131.804 144.973 132.016 144.845 132.28H143.513V127.396H148.961V128.608ZM155.969 128.512L152.813 136H151.373L154.577 128.668H150.377V127.48H155.969V128.512Z" fill="white"/>
<path d="M184.68 103H183.312L179.196 96.748V103H177.828V94.54H179.196L183.312 100.816V94.54H184.68V103ZM192.72 99.376C192.72 99.6 192.704 99.796 192.672 99.964H187.584C187.608 100.644 187.796 101.148 188.148 101.476C188.5 101.804 188.936 101.968 189.456 101.968C189.912 101.968 190.296 101.852 190.608 101.62C190.928 101.388 191.124 101.08 191.196 100.696H192.66C192.572 101.16 192.388 101.572 192.108 101.932C191.828 102.292 191.464 102.576 191.016 102.784C190.568 102.984 190.068 103.084 189.516 103.084C188.876 103.084 188.308 102.948 187.812 102.676C187.324 102.404 186.94 102.012 186.66 101.5C186.38 100.988 186.24 100.384 186.24 99.688C186.24 99 186.38 98.4 186.66 97.888C186.94 97.376 187.324 96.984 187.812 96.712C188.308 96.44 188.876 96.304 189.516 96.304C190.164 96.304 190.728 96.44 191.208 96.712C191.696 96.976 192.068 97.344 192.324 97.816C192.588 98.28 192.72 98.8 192.72 99.376ZM191.34 99.34C191.356 98.908 191.28 98.548 191.112 98.26C190.952 97.964 190.728 97.748 190.44 97.612C190.16 97.468 189.852 97.396 189.516 97.396C188.98 97.396 188.532 97.56 188.172 97.888C187.812 98.216 187.616 98.7 187.584 99.34H191.34ZM197.605 101.812V103H196.765C196.061 103 195.525 102.832 195.157 102.496C194.797 102.152 194.617 101.584 194.617 100.792V97.552H193.669V96.388H194.617V94.744H195.997V96.388H197.593V97.552H195.997V100.816C195.997 101.192 196.065 101.452 196.201 101.596C196.345 101.74 196.593 101.812 196.945 101.812H197.605ZM208.39 96.388L206.554 103H205.042L203.41 97.888L201.754 103H200.254L198.418 96.388H199.798L201.058 101.74L202.714 96.388H204.154L205.834 101.74L207.094 96.388H208.39ZM212.585 96.304C213.225 96.304 213.801 96.44 214.313 96.712C214.825 96.984 215.225 97.376 215.513 97.888C215.801 98.4 215.945 99 215.945 99.688C215.945 100.384 215.801 100.988 215.513 101.5C215.225 102.012 214.825 102.404 214.313 102.676C213.801 102.948 213.225 103.084 212.585 103.084C211.945 103.084 211.369 102.948 210.857 102.676C210.353 102.404 209.953 102.012 209.657 101.5C209.369 100.98 209.225 100.376 209.225 99.688C209.225 99 209.369 98.4 209.657 97.888C209.953 97.376 210.353 96.984 210.857 96.712C211.369 96.44 211.945 96.304 212.585 96.304ZM212.585 97.492C212.233 97.492 211.909 97.572 211.613 97.732C211.317 97.892 211.077 98.14 210.893 98.476C210.717 98.804 210.629 99.208 210.629 99.688C210.629 100.176 210.717 100.584 210.893 100.912C211.077 101.24 211.317 101.484 211.613 101.644C211.909 101.804 212.233 101.884 212.585 101.884C212.937 101.884 213.261 101.804 213.557 101.644C213.853 101.484 214.089 101.24 214.265 100.912C214.449 100.584 214.541 100.176 214.541 99.688C214.541 99.208 214.449 98.804 214.265 98.476C214.089 98.14 213.853 97.892 213.557 97.732C213.261 97.572 212.937 97.492 212.585 97.492ZM218.869 97.684C219.093 97.252 219.413 96.912 219.829 96.664C220.245 96.408 220.725 96.28 221.269 96.28V97.768H220.861C220.261 97.768 219.777 97.916 219.409 98.212C219.049 98.5 218.869 98.98 218.869 99.652V103H217.501V96.388H218.869V97.684ZM226.278 103L223.902 100.06V103H222.534V94.12H223.902V99.208L226.254 96.388H227.898L225.018 99.676L227.97 103H226.278ZM233.426 96.4V97.912H231.878V96.4H233.426ZM233.426 101.488V103H231.878V101.488H233.426ZM241.913 94.456C242.921 94.456 243.761 94.704 244.433 95.2C245.105 95.696 245.549 96.372 245.765 97.228H244.325C244.141 96.772 243.837 96.408 243.413 96.136C242.997 95.864 242.501 95.728 241.925 95.728C241.397 95.728 240.921 95.852 240.497 96.1C240.081 96.348 239.753 96.7 239.513 97.156C239.281 97.612 239.165 98.148 239.165 98.764C239.165 99.412 239.285 99.968 239.525 100.432C239.765 100.896 240.101 101.252 240.533 101.5C240.973 101.74 241.481 101.86 242.057 101.86C242.761 101.86 243.365 101.644 243.869 101.212C244.373 100.772 244.677 100.172 244.781 99.412H241.673V98.404H245.933V99.712C245.837 100.336 245.613 100.904 245.261 101.416C244.917 101.92 244.457 102.324 243.881 102.628C243.313 102.932 242.661 103.084 241.925 103.084C241.101 103.084 240.373 102.9 239.741 102.532C239.109 102.164 238.621 101.656 238.277 101.008C237.933 100.352 237.761 99.604 237.761 98.764C237.761 97.924 237.933 97.18 238.277 96.532C238.621 95.876 239.105 95.368 239.729 95.008C240.361 94.64 241.089 94.456 241.913 94.456ZM248.926 95.632V98.2H252.046V99.256H248.926V101.884H252.406V103H247.558V94.528H252.406V95.632H248.926ZM260.37 103.432V104.764H253.674V103.432H260.37ZM270.697 94.66V103H269.317V96.748L266.905 103H265.705L263.281 96.748V103H261.913V94.66H263.569L266.329 101.32L269.041 94.66H270.697ZM276.507 94.42C277.291 94.42 277.999 94.604 278.631 94.972C279.271 95.34 279.771 95.856 280.131 96.52C280.499 97.176 280.683 97.92 280.683 98.752C280.683 99.584 280.499 100.332 280.131 100.996C279.771 101.652 279.271 102.168 278.631 102.544C277.999 102.912 277.291 103.096 276.507 103.096C275.715 103.096 274.999 102.912 274.359 102.544C273.727 102.168 273.227 101.652 272.859 100.996C272.491 100.332 272.307 99.584 272.307 98.752C272.307 97.92 272.491 97.176 272.859 96.52C273.227 95.856 273.727 95.34 274.359 94.972C274.999 94.604 275.715 94.42 276.507 94.42ZM276.507 95.692C275.963 95.692 275.479 95.816 275.055 96.064C274.631 96.312 274.299 96.668 274.059 97.132C273.827 97.596 273.711 98.136 273.711 98.752C273.711 99.368 273.827 99.908 274.059 100.372C274.299 100.836 274.631 101.192 275.055 101.44C275.479 101.688 275.963 101.812 276.507 101.812C277.043 101.812 277.519 101.688 277.935 101.44C278.359 101.192 278.687 100.836 278.919 100.372C279.159 99.908 279.279 99.368 279.279 98.752C279.279 98.136 279.159 97.596 278.919 97.132C278.687 96.668 278.359 96.312 277.935 96.064C277.519 95.816 277.043 95.692 276.507 95.692ZM289.575 98.752C289.575 99.608 289.399 100.356 289.047 100.996C288.703 101.628 288.195 102.12 287.523 102.472C286.859 102.824 286.063 103 285.135 103H282.303V94.528H285.135C286.063 94.528 286.859 94.704 287.523 95.056C288.195 95.4 288.703 95.888 289.047 96.52C289.399 97.152 289.575 97.896 289.575 98.752ZM285.027 101.764C286.043 101.764 286.823 101.5 287.367 100.972C287.911 100.444 288.183 99.704 288.183 98.752C288.183 97.8 287.911 97.06 287.367 96.532C286.823 96.004 286.043 95.74 285.027 95.74H283.671V101.764H285.027ZM292.499 94.528V99.556C292.499 100.308 292.663 100.868 292.991 101.236C293.327 101.604 293.795 101.788 294.395 101.788C294.987 101.788 295.447 101.604 295.775 101.236C296.111 100.868 296.279 100.308 296.279 99.556V94.528H297.647V99.556C297.647 100.716 297.347 101.596 296.747 102.196C296.147 102.788 295.355 103.084 294.371 103.084C293.395 103.084 292.611 102.788 292.019 102.196C291.427 101.596 291.131 100.716 291.131 99.556V94.528H292.499ZM300.85 101.932H303.778V103H299.482V94.528H300.85V101.932ZM306.457 95.632V98.2H309.577V99.256H306.457V101.884H309.937V103H305.089V94.528H309.937V95.632H306.457ZM317.901 103.432V104.764H311.205V103.432H317.901ZM324.28 103L322.252 99.868L320.44 103H318.868L321.496 98.68L318.808 94.528H320.44L322.432 97.6L324.232 94.528H325.804L323.188 98.776L325.912 103H324.28ZM332.009 103L329.981 99.868L328.169 103H326.597L329.225 98.68L326.537 94.528H328.169L330.161 97.6L331.961 94.528H333.533L330.917 98.776L333.641 103H332.009ZM339.737 103L337.709 99.868L335.897 103H334.325L336.953 98.68L334.265 94.528H335.897L337.889 97.6L339.689 94.528H341.261L338.645 98.776L341.369 103H339.737ZM347.465 103L345.437 99.868L343.625 103H342.053L344.681 98.68L341.993 94.528H343.625L345.617 97.6L347.417 94.528H348.989L346.373 98.776L349.097 103H347.465Z" fill="white"/>
<path d="M48.612 94.66V103H47.232V96.748L44.82 103H43.62L41.196 96.748V103H39.828V94.66H41.484L44.244 101.32L46.956 94.66H48.612ZM55.5497 101.164H51.9737L51.3257 103H49.8617L52.9817 94.66H54.5537L57.6617 103H56.1977L55.5497 101.164ZM55.1657 100.108L53.7617 96.148L52.3577 100.108H55.1657ZM62.6974 94.444C63.7374 94.444 64.6014 94.708 65.2894 95.236C65.9774 95.764 66.4414 96.48 66.6814 97.384H65.2294C65.0294 96.872 64.7094 96.468 64.2694 96.172C63.8374 95.868 63.3054 95.716 62.6734 95.716C62.1694 95.716 61.7174 95.84 61.3174 96.088C60.9254 96.336 60.6134 96.692 60.3814 97.156C60.1574 97.612 60.0454 98.148 60.0454 98.764C60.0454 99.372 60.1574 99.908 60.3814 100.372C60.6134 100.828 60.9254 101.18 61.3174 101.428C61.7174 101.676 62.1694 101.8 62.6734 101.8C63.3054 101.8 63.8374 101.652 64.2694 101.356C64.7094 101.052 65.0294 100.648 65.2294 100.144H66.6814C66.4414 101.048 65.9774 101.764 65.2894 102.292C64.6014 102.812 63.7374 103.072 62.6974 103.072C61.8974 103.072 61.1894 102.892 60.5734 102.532C59.9574 102.164 59.4814 101.656 59.1454 101.008C58.8094 100.352 58.6414 99.604 58.6414 98.764C58.6414 97.924 58.8094 97.18 59.1454 96.532C59.4814 95.876 59.9574 95.364 60.5734 94.996C61.1894 94.628 61.8974 94.444 62.6974 94.444ZM72.6108 96.4V97.912H71.0628V96.4H72.6108ZM72.6108 101.488V103H71.0628V101.488H72.6108ZM79.2206 101.164H75.6446L74.9966 103H73.5326L76.6526 94.66H78.2246L81.3326 103H79.8686L79.2206 101.164ZM78.8366 100.108L77.4326 96.148L76.0286 100.108H78.8366ZM87.0283 96.808C86.8843 95.864 86.3923 95.392 85.5523 95.392C84.9443 95.392 84.4883 95.636 84.1843 96.124C83.8803 96.604 83.7283 97.36 83.7283 98.392L83.7403 98.8C83.8603 98.368 84.1203 98.024 84.5203 97.768C84.9203 97.512 85.3923 97.384 85.9363 97.384C86.7683 97.384 87.4203 97.632 87.8923 98.128C88.3643 98.624 88.6003 99.324 88.6003 100.228C88.6003 100.772 88.4923 101.26 88.2763 101.692C88.0603 102.116 87.7363 102.456 87.3043 102.712C86.8723 102.96 86.3403 103.084 85.7083 103.084C84.4843 103.084 83.6443 102.704 83.1883 101.944C82.7323 101.184 82.5043 100.14 82.5043 98.812C82.5043 97.292 82.7483 96.156 83.2363 95.404C83.7243 94.652 84.5243 94.276 85.6363 94.276C86.4683 94.276 87.1043 94.512 87.5443 94.984C87.9923 95.456 88.2523 96.064 88.3243 96.808H87.0283ZM83.8603 100.072C83.8603 100.592 84.0123 101.028 84.3163 101.38C84.6203 101.724 85.0683 101.896 85.6603 101.896C86.1643 101.896 86.5643 101.748 86.8603 101.452C87.1643 101.156 87.3163 100.744 87.3163 100.216C87.3163 99.648 87.1643 99.212 86.8603 98.908C86.5563 98.604 86.1443 98.452 85.6243 98.452C85.1523 98.452 84.7403 98.592 84.3883 98.872C84.0363 99.152 83.8603 99.552 83.8603 100.072ZM94.3129 98.08V99.232H89.3689V98.08H94.3129ZM103.887 98.752C103.887 99.608 103.711 100.356 103.359 100.996C103.015 101.628 102.507 102.12 101.835 102.472C101.171 102.824 100.375 103 99.4472 103H96.6152V94.528H99.4472C100.375 94.528 101.171 94.704 101.835 95.056C102.507 95.4 103.015 95.888 103.359 96.52C103.711 97.152 103.887 97.896 103.887 98.752ZM99.3392 101.764C100.355 101.764 101.135 101.5 101.679 100.972C102.223 100.444 102.495 99.704 102.495 98.752C102.495 97.8 102.223 97.06 101.679 96.532C101.135 96.004 100.355 95.74 99.3392 95.74H97.9832V101.764H99.3392ZM111.168 95.608H106.98V98.128C107.172 97.88 107.444 97.684 107.796 97.54C108.148 97.388 108.536 97.312 108.96 97.312C109.552 97.312 110.044 97.44 110.436 97.696C110.828 97.944 111.116 98.276 111.3 98.692C111.492 99.108 111.588 99.568 111.588 100.072C111.588 100.96 111.34 101.68 110.844 102.232C110.348 102.776 109.628 103.048 108.684 103.048C107.796 103.048 107.08 102.812 106.536 102.34C105.992 101.868 105.696 101.24 105.648 100.456H106.992C107.064 100.888 107.24 101.228 107.52 101.476C107.808 101.724 108.172 101.848 108.612 101.848C109.156 101.848 109.564 101.684 109.836 101.356C110.108 101.028 110.244 100.592 110.244 100.048C110.244 99.536 110.104 99.136 109.824 98.848C109.544 98.552 109.144 98.404 108.624 98.404C108.256 98.404 107.932 98.484 107.652 98.644C107.38 98.804 107.18 99.016 107.052 99.28H105.72V94.396H111.168V95.608ZM117.24 98.08V99.232H112.296V98.08H117.24ZM124.546 94.528V95.632H120.91V98.26H123.91V99.316H120.91V103H119.542V94.528H124.546ZM126.017 96.496C126.017 96.08 126.129 95.7 126.353 95.356C126.577 95.012 126.909 94.736 127.349 94.528C127.797 94.32 128.333 94.216 128.957 94.216C129.581 94.216 130.113 94.32 130.553 94.528C131.001 94.736 131.337 95.012 131.561 95.356C131.793 95.7 131.909 96.08 131.909 96.496C131.909 96.96 131.785 97.36 131.537 97.696C131.297 98.032 130.937 98.276 130.457 98.428C130.993 98.596 131.405 98.868 131.693 99.244C131.981 99.612 132.125 100.064 132.125 100.6C132.125 101.424 131.833 102.068 131.249 102.532C130.665 102.988 129.901 103.216 128.957 103.216C128.013 103.216 127.249 102.988 126.665 102.532C126.089 102.068 125.801 101.424 125.801 100.6C125.801 100.064 125.945 99.612 126.233 99.244C126.521 98.868 126.933 98.596 127.469 98.428C126.989 98.276 126.625 98.032 126.377 97.696C126.137 97.36 126.017 96.96 126.017 96.496ZM127.373 96.712C127.373 97.144 127.513 97.48 127.793 97.72C128.081 97.952 128.469 98.068 128.957 98.068C129.445 98.068 129.833 97.952 130.121 97.72C130.409 97.48 130.553 97.144 130.553 96.712C130.553 96.28 130.405 95.944 130.109 95.704C129.821 95.464 129.437 95.344 128.957 95.344C128.477 95.344 128.093 95.464 127.805 95.704C127.517 95.944 127.373 96.28 127.373 96.712ZM127.133 100.528C127.133 101.016 127.297 101.4 127.625 101.68C127.953 101.952 128.397 102.088 128.957 102.088C129.517 102.088 129.961 101.952 130.289 101.68C130.617 101.4 130.781 101.016 130.781 100.528C130.781 100.032 130.609 99.66 130.265 99.412C129.929 99.156 129.493 99.028 128.957 99.028C128.429 99.028 127.993 99.156 127.649 99.412C127.305 99.668 127.133 100.04 127.133 100.528ZM137.823 98.08V99.232H132.879V98.08H137.823ZM143.906 94.444C144.946 94.444 145.81 94.708 146.498 95.236C147.186 95.764 147.65 96.48 147.89 97.384H146.438C146.238 96.872 145.918 96.468 145.478 96.172C145.046 95.868 144.514 95.716 143.882 95.716C143.378 95.716 142.926 95.84 142.526 96.088C142.134 96.336 141.822 96.692 141.59 97.156C141.366 97.612 141.254 98.148 141.254 98.764C141.254 99.372 141.366 99.908 141.59 100.372C141.822 100.828 142.134 101.18 142.526 101.428C142.926 101.676 143.378 101.8 143.882 101.8C144.514 101.8 145.046 101.652 145.478 101.356C145.918 101.052 146.238 100.648 146.438 100.144H147.89C147.65 101.048 147.186 101.764 146.498 102.292C145.81 102.812 144.946 103.072 143.906 103.072C143.106 103.072 142.398 102.892 141.782 102.532C141.166 102.164 140.69 101.656 140.354 101.008C140.018 100.352 139.85 99.604 139.85 98.764C139.85 97.924 140.018 97.18 140.354 96.532C140.69 95.876 141.166 95.364 141.782 94.996C142.398 94.628 143.106 94.444 143.906 94.444ZM154.438 95.512L151.282 103H149.842L153.046 95.668H148.846V94.48H154.438V95.512Z" fill="white"/>
<path d="M179.196 164.712V168H177.828V159.528H180.708C181.684 159.528 182.416 159.76 182.904 160.224C183.4 160.688 183.648 161.324 183.648 162.132C183.648 162.932 183.396 163.564 182.892 164.028C182.388 164.484 181.66 164.712 180.708 164.712H179.196ZM180.564 163.596C181.692 163.596 182.256 163.108 182.256 162.132C182.256 161.652 182.12 161.288 181.848 161.04C181.584 160.784 181.156 160.656 180.564 160.656H179.196V163.596H180.564ZM190.536 159.528V160.632H188.172V168H186.792V160.632H184.44V159.528H190.536ZM192.876 166.488V168H191.328V166.488H192.876ZM204.226 168H202.858L198.742 161.748V168H197.374V159.54H198.742L202.858 165.816V159.54H204.226V168ZM209.146 161.304C209.786 161.304 210.362 161.44 210.874 161.712C211.386 161.984 211.786 162.376 212.074 162.888C212.362 163.4 212.506 164 212.506 164.688C212.506 165.384 212.362 165.988 212.074 166.5C211.786 167.012 211.386 167.404 210.874 167.676C210.362 167.948 209.786 168.084 209.146 168.084C208.506 168.084 207.93 167.948 207.418 167.676C206.914 167.404 206.514 167.012 206.218 166.5C205.93 165.98 205.786 165.376 205.786 164.688C205.786 164 205.93 163.4 206.218 162.888C206.514 162.376 206.914 161.984 207.418 161.712C207.93 161.44 208.506 161.304 209.146 161.304ZM209.146 162.492C208.794 162.492 208.47 162.572 208.174 162.732C207.878 162.892 207.638 163.14 207.454 163.476C207.278 163.804 207.19 164.208 207.19 164.688C207.19 165.176 207.278 165.584 207.454 165.912C207.638 166.24 207.878 166.484 208.174 166.644C208.47 166.804 208.794 166.884 209.146 166.884C209.498 166.884 209.822 166.804 210.118 166.644C210.414 166.484 210.65 166.24 210.826 165.912C211.01 165.584 211.102 165.176 211.102 164.688C211.102 164.208 211.01 163.804 210.826 163.476C210.65 163.14 210.414 162.892 210.118 162.732C209.822 162.572 209.498 162.492 209.146 162.492ZM216.705 166.176V165.024L220.917 159.456H222.381V164.976H223.569V166.176H222.381V168H221.001V166.176H216.705ZM221.097 161.088L218.121 164.976H221.097V161.088ZM230.635 160.608H226.447V163.128C226.639 162.88 226.911 162.684 227.263 162.54C227.615 162.388 228.003 162.312 228.427 162.312C229.019 162.312 229.511 162.44 229.903 162.696C230.295 162.944 230.583 163.276 230.767 163.692C230.959 164.108 231.055 164.568 231.055 165.072C231.055 165.96 230.807 166.68 230.311 167.232C229.815 167.776 229.095 168.048 228.151 168.048C227.263 168.048 226.547 167.812 226.003 167.34C225.459 166.868 225.163 166.24 225.115 165.456H226.459C226.531 165.888 226.707 166.228 226.987 166.476C227.275 166.724 227.639 166.848 228.079 166.848C228.623 166.848 229.031 166.684 229.303 166.356C229.575 166.028 229.711 165.592 229.711 165.048C229.711 164.536 229.571 164.136 229.291 163.848C229.011 163.552 228.611 163.404 228.091 163.404C227.723 163.404 227.399 163.484 227.119 163.644C226.847 163.804 226.647 164.016 226.519 164.28H225.187V159.396H230.635V160.608ZM235.471 159.264C236.031 159.264 236.511 159.364 236.911 159.564C237.311 159.756 237.611 160.024 237.811 160.368C238.019 160.712 238.123 161.096 238.123 161.52C238.123 162.056 237.971 162.504 237.667 162.864C237.371 163.216 236.951 163.428 236.407 163.5V163.56C236.991 163.728 237.447 163.98 237.775 164.316C238.111 164.644 238.279 165.1 238.279 165.684C238.279 166.396 238.043 166.976 237.571 167.424C237.099 167.864 236.423 168.084 235.543 168.084C234.639 168.084 233.911 167.856 233.359 167.4C232.807 166.936 232.491 166.252 232.411 165.348H233.767C233.815 165.828 233.987 166.212 234.283 166.5C234.579 166.78 234.979 166.92 235.483 166.92C235.955 166.92 236.315 166.796 236.563 166.548C236.819 166.3 236.947 165.98 236.947 165.588C236.947 165.116 236.763 164.756 236.395 164.508C236.035 164.26 235.511 164.136 234.823 164.136H234.499V163.008H234.823C236.127 163.024 236.779 162.58 236.779 161.676C236.779 161.284 236.659 160.976 236.419 160.752C236.179 160.528 235.851 160.416 235.435 160.416C235.019 160.416 234.671 160.544 234.391 160.8C234.111 161.048 233.943 161.412 233.887 161.892H232.543C232.599 161.06 232.879 160.416 233.383 159.96C233.887 159.496 234.583 159.264 235.471 159.264ZM245.008 160.512L241.852 168H240.412L243.616 160.668H239.416V159.48H245.008V160.512ZM246.038 166.932C247.334 166.044 248.37 165.176 249.146 164.328C249.93 163.472 250.322 162.68 250.322 161.952C250.322 161.52 250.214 161.176 249.998 160.92C249.79 160.664 249.45 160.536 248.978 160.536C248.49 160.536 248.122 160.696 247.874 161.016C247.626 161.328 247.486 161.776 247.454 162.36H246.122C246.178 161.392 246.474 160.652 247.01 160.14C247.554 159.628 248.246 159.372 249.086 159.372C249.91 159.372 250.554 159.592 251.018 160.032C251.49 160.464 251.726 161.064 251.726 161.832C251.726 162.448 251.534 163.072 251.15 163.704C250.774 164.336 250.294 164.92 249.71 165.456C249.126 165.984 248.522 166.44 247.898 166.824H251.918V167.94H246.038V166.932ZM254.731 165.552C254.795 166.008 254.951 166.36 255.199 166.608C255.455 166.856 255.799 166.98 256.231 166.98C256.839 166.98 257.291 166.74 257.587 166.26C257.891 165.772 258.043 165.008 258.043 163.968L258.031 163.56C257.903 163.992 257.635 164.34 257.227 164.604C256.827 164.86 256.359 164.988 255.823 164.988C254.991 164.988 254.339 164.74 253.867 164.244C253.395 163.74 253.159 163.04 253.159 162.144C253.159 161.6 253.267 161.112 253.483 160.68C253.699 160.248 254.023 159.908 254.455 159.66C254.887 159.404 255.419 159.276 256.051 159.276C257.275 159.276 258.115 159.652 258.571 160.404C259.035 161.148 259.267 162.18 259.267 163.5C259.267 164.996 259.031 166.136 258.559 166.92C258.095 167.704 257.319 168.096 256.231 168.096C255.391 168.096 254.731 167.86 254.251 167.388C253.779 166.908 253.507 166.296 253.435 165.552H254.731ZM257.899 162.288C257.899 161.768 257.747 161.336 257.443 160.992C257.147 160.64 256.699 160.464 256.099 160.464C255.603 160.464 255.203 160.612 254.899 160.908C254.603 161.204 254.455 161.62 254.455 162.156C254.455 162.724 254.603 163.16 254.899 163.464C255.203 163.768 255.615 163.92 256.135 163.92C256.439 163.92 256.723 163.86 256.987 163.74C257.259 163.612 257.479 163.428 257.647 163.188C257.815 162.94 257.899 162.64 257.899 162.288ZM260.604 166.932C261.9 166.044 262.936 165.176 263.712 164.328C264.496 163.472 264.888 162.68 264.888 161.952C264.888 161.52 264.78 161.176 264.564 160.92C264.356 160.664 264.016 160.536 263.544 160.536C263.056 160.536 262.688 160.696 262.44 161.016C262.192 161.328 262.052 161.776 262.02 162.36H260.688C260.744 161.392 261.04 160.652 261.576 160.14C262.12 159.628 262.812 159.372 263.652 159.372C264.476 159.372 265.12 159.592 265.584 160.032C266.056 160.464 266.292 161.064 266.292 161.832C266.292 162.448 266.1 163.072 265.716 163.704C265.34 164.336 264.86 164.92 264.276 165.456C263.692 165.984 263.088 166.44 262.464 166.824H266.484V167.94H260.604V166.932ZM267.329 160.812V159.528H270.041V168H268.601V160.812H267.329ZM271.248 160.812V159.528H273.96V168H272.52V160.812H271.248ZM278.612 159.264C279.172 159.264 279.652 159.364 280.052 159.564C280.452 159.756 280.752 160.024 280.952 160.368C281.16 160.712 281.264 161.096 281.264 161.52C281.264 162.056 281.112 162.504 280.808 162.864C280.512 163.216 280.092 163.428 279.548 163.5V163.56C280.132 163.728 280.588 163.98 280.916 164.316C281.252 164.644 281.42 165.1 281.42 165.684C281.42 166.396 281.184 166.976 280.712 167.424C280.24 167.864 279.564 168.084 278.684 168.084C277.78 168.084 277.052 167.856 276.5 167.4C275.948 166.936 275.632 166.252 275.552 165.348H276.908C276.956 165.828 277.128 166.212 277.424 166.5C277.72 166.78 278.12 166.92 278.624 166.92C279.096 166.92 279.456 166.796 279.704 166.548C279.96 166.3 280.088 165.98 280.088 165.588C280.088 165.116 279.904 164.756 279.536 164.508C279.176 164.26 278.652 164.136 277.964 164.136H277.64V163.008H277.964C279.268 163.024 279.92 162.58 279.92 161.676C279.92 161.284 279.8 160.976 279.56 160.752C279.32 160.528 278.992 160.416 278.576 160.416C278.16 160.416 277.812 160.544 277.532 160.8C277.252 161.048 277.084 161.412 277.028 161.892H275.684C275.74 161.06 276.02 160.416 276.524 159.96C277.028 159.496 277.724 159.264 278.612 159.264Z" fill="white"/>
<path d="M41.196 159.528V168H39.828V159.528H41.196ZM46.8714 159.444C47.9114 159.444 48.7754 159.708 49.4634 160.236C50.1514 160.764 50.6154 161.48 50.8554 162.384H49.4034C49.2034 161.872 48.8834 161.468 48.4434 161.172C48.0114 160.868 47.4794 160.716 46.8474 160.716C46.3434 160.716 45.8914 160.84 45.4914 161.088C45.0994 161.336 44.7874 161.692 44.5554 162.156C44.3314 162.612 44.2194 163.148 44.2194 163.764C44.2194 164.372 44.3314 164.908 44.5554 165.372C44.7874 165.828 45.0994 166.18 45.4914 166.428C45.8914 166.676 46.3434 166.8 46.8474 166.8C47.4794 166.8 48.0114 166.652 48.4434 166.356C48.8834 166.052 49.2034 165.648 49.4034 165.144H50.8554C50.6154 166.048 50.1514 166.764 49.4634 167.292C48.7754 167.812 47.9114 168.072 46.8714 168.072C46.0714 168.072 45.3634 167.892 44.7474 167.532C44.1314 167.164 43.6554 166.656 43.3194 166.008C42.9834 165.352 42.8154 164.604 42.8154 163.764C42.8154 162.924 42.9834 162.18 43.3194 161.532C43.6554 160.876 44.1314 160.364 44.7474 159.996C45.3634 159.628 46.0714 159.444 46.8714 159.444ZM53.7323 161.4V162.912H52.1843V161.4H53.7323ZM53.7323 166.488V168H52.1843V166.488H53.7323ZM62.7827 159.528V165.672C62.7827 166.432 62.5707 167.024 62.1467 167.448C61.7227 167.872 61.1347 168.084 60.3827 168.084C59.5667 168.084 58.9267 167.848 58.4627 167.376C57.9987 166.904 57.7667 166.236 57.7667 165.372H59.1227C59.1227 165.836 59.2187 166.196 59.4107 166.452C59.6107 166.708 59.9147 166.836 60.3227 166.836C60.6987 166.836 60.9747 166.728 61.1507 166.512C61.3267 166.296 61.4147 166.016 61.4147 165.672V159.528H62.7827ZM69.6218 159.528V160.632H65.9858V163.26H68.9858V164.316H65.9858V168H64.6178V159.528H69.6218ZM77.9325 168H76.5645L72.4485 161.748V168H71.0805V159.54H72.4485L76.5645 165.816V159.54H77.9325V168ZM85.3963 165.744C85.3963 166.16 85.2963 166.548 85.0963 166.908C84.8963 167.26 84.5923 167.544 84.1843 167.76C83.7763 167.976 83.2763 168.084 82.6843 168.084C82.1083 168.084 81.5923 167.984 81.1363 167.784C80.6803 167.576 80.3163 167.288 80.0443 166.92C79.7723 166.552 79.6163 166.128 79.5763 165.648H81.0403C81.0803 166.016 81.2363 166.332 81.5083 166.596C81.7883 166.86 82.1603 166.992 82.6243 166.992C83.0403 166.992 83.3603 166.88 83.5843 166.656C83.8163 166.432 83.9323 166.144 83.9323 165.792C83.9323 165.488 83.8483 165.24 83.6803 165.048C83.5123 164.848 83.3043 164.692 83.0563 164.58C82.8083 164.468 82.4683 164.34 82.0363 164.196C81.5083 164.028 81.0763 163.86 80.7403 163.692C80.4123 163.524 80.1323 163.28 79.9003 162.96C79.6683 162.64 79.5523 162.22 79.5523 161.7C79.5523 161.244 79.6643 160.844 79.8883 160.5C80.1123 160.156 80.4323 159.892 80.8483 159.708C81.2643 159.516 81.7443 159.42 82.2883 159.42C83.1523 159.42 83.8363 159.628 84.3403 160.044C84.8523 160.46 85.1443 161.004 85.2163 161.676H83.7403C83.6843 161.356 83.5323 161.084 83.2843 160.86C83.0443 160.628 82.7123 160.512 82.2883 160.512C81.9043 160.512 81.5963 160.612 81.3643 160.812C81.1323 161.004 81.0163 161.284 81.0163 161.652C81.0163 161.94 81.0963 162.18 81.2563 162.372C81.4163 162.556 81.6163 162.704 81.8563 162.816C82.1043 162.92 82.4403 163.044 82.8643 163.188C83.4003 163.356 83.8363 163.528 84.1723 163.704C84.5163 163.872 84.8043 164.12 85.0363 164.448C85.2763 164.776 85.3963 165.208 85.3963 165.744ZM93.7378 159.528V168H92.3578V164.196H88.3738V168H87.0058V159.528H88.3738V163.08H92.3578V159.528H93.7378ZM96.9324 165.552C96.9964 166.008 97.1524 166.36 97.4004 166.608C97.6564 166.856 98.0004 166.98 98.4324 166.98C99.0404 166.98 99.4924 166.74 99.7884 166.26C100.092 165.772 100.244 165.008 100.244 163.968L100.232 163.56C100.104 163.992 99.8364 164.34 99.4284 164.604C99.0284 164.86 98.5604 164.988 98.0244 164.988C97.1924 164.988 96.5404 164.74 96.0684 164.244C95.5964 163.74 95.3604 163.04 95.3604 162.144C95.3604 161.6 95.4684 161.112 95.6844 160.68C95.9004 160.248 96.2244 159.908 96.6564 159.66C97.0884 159.404 97.6204 159.276 98.2524 159.276C99.4764 159.276 100.316 159.652 100.772 160.404C101.236 161.148 101.468 162.18 101.468 163.5C101.468 164.996 101.232 166.136 100.76 166.92C100.296 167.704 99.5204 168.096 98.4324 168.096C97.5924 168.096 96.9324 167.86 96.4524 167.388C95.9804 166.908 95.7084 166.296 95.6364 165.552H96.9324ZM100.1 162.288C100.1 161.768 99.9484 161.336 99.6444 160.992C99.3484 160.64 98.9004 160.464 98.3004 160.464C97.8044 160.464 97.4044 160.612 97.1004 160.908C96.8044 161.204 96.6564 161.62 96.6564 162.156C96.6564 162.724 96.8044 163.16 97.1004 163.464C97.4044 163.768 97.8164 163.92 98.3364 163.92C98.6404 163.92 98.9244 163.86 99.1884 163.74C99.4604 163.612 99.6804 163.428 99.8484 163.188C100.016 162.94 100.1 162.64 100.1 162.288ZM104.522 160.632V163.2H107.642V164.256H104.522V166.884H108.002V168H103.154V159.528H108.002V160.632H104.522ZM109.222 166.932C110.518 166.044 111.554 165.176 112.33 164.328C113.114 163.472 113.506 162.68 113.506 161.952C113.506 161.52 113.398 161.176 113.182 160.92C112.974 160.664 112.634 160.536 112.162 160.536C111.674 160.536 111.306 160.696 111.058 161.016C110.81 161.328 110.67 161.776 110.638 162.36H109.306C109.362 161.392 109.658 160.652 110.194 160.14C110.738 159.628 111.43 159.372 112.27 159.372C113.094 159.372 113.738 159.592 114.202 160.032C114.674 160.464 114.91 161.064 114.91 161.832C114.91 162.448 114.718 163.072 114.334 163.704C113.958 164.336 113.478 164.92 112.894 165.456C112.31 165.984 111.706 166.44 111.082 166.824H115.102V167.94H109.222V166.932ZM121.058 161.808C120.914 160.864 120.422 160.392 119.582 160.392C118.974 160.392 118.518 160.636 118.214 161.124C117.91 161.604 117.758 162.36 117.758 163.392L117.77 163.8C117.89 163.368 118.15 163.024 118.55 162.768C118.95 162.512 119.422 162.384 119.966 162.384C120.798 162.384 121.45 162.632 121.922 163.128C122.394 163.624 122.63 164.324 122.63 165.228C122.63 165.772 122.522 166.26 122.306 166.692C122.09 167.116 121.766 167.456 121.334 167.712C120.902 167.96 120.37 168.084 119.738 168.084C118.514 168.084 117.674 167.704 117.218 166.944C116.762 166.184 116.534 165.14 116.534 163.812C116.534 162.292 116.778 161.156 117.266 160.404C117.754 159.652 118.554 159.276 119.666 159.276C120.498 159.276 121.134 159.512 121.574 159.984C122.022 160.456 122.282 161.064 122.354 161.808H121.058ZM117.89 165.072C117.89 165.592 118.042 166.028 118.346 166.38C118.65 166.724 119.098 166.896 119.69 166.896C120.194 166.896 120.594 166.748 120.89 166.452C121.194 166.156 121.346 165.744 121.346 165.216C121.346 164.648 121.194 164.212 120.89 163.908C120.586 163.604 120.174 163.452 119.654 163.452C119.182 163.452 118.77 163.592 118.418 163.872C118.066 164.152 117.89 164.552 117.89 165.072ZM123.987 166.932C125.283 166.044 126.319 165.176 127.095 164.328C127.879 163.472 128.271 162.68 128.271 161.952C128.271 161.52 128.163 161.176 127.947 160.92C127.739 160.664 127.399 160.536 126.927 160.536C126.439 160.536 126.071 160.696 125.823 161.016C125.575 161.328 125.435 161.776 125.403 162.36H124.071C124.127 161.392 124.423 160.652 124.959 160.14C125.503 159.628 126.195 159.372 127.035 159.372C127.859 159.372 128.503 159.592 128.967 160.032C129.439 160.464 129.675 161.064 129.675 161.832C129.675 162.448 129.483 163.072 129.099 163.704C128.723 164.336 128.243 164.92 127.659 165.456C127.075 165.984 126.471 166.44 125.847 166.824H129.867V167.94H123.987V166.932ZM131.395 161.496C131.395 161.08 131.507 160.7 131.731 160.356C131.955 160.012 132.287 159.736 132.727 159.528C133.175 159.32 133.711 159.216 134.335 159.216C134.959 159.216 135.491 159.32 135.931 159.528C136.379 159.736 136.715 160.012 136.939 160.356C137.171 160.7 137.287 161.08 137.287 161.496C137.287 161.96 137.163 162.36 136.915 162.696C136.675 163.032 136.315 163.276 135.835 163.428C136.371 163.596 136.783 163.868 137.071 164.244C137.359 164.612 137.503 165.064 137.503 165.6C137.503 166.424 137.211 167.068 136.627 167.532C136.043 167.988 135.279 168.216 134.335 168.216C133.391 168.216 132.627 167.988 132.043 167.532C131.467 167.068 131.179 166.424 131.179 165.6C131.179 165.064 131.323 164.612 131.611 164.244C131.899 163.868 132.311 163.596 132.847 163.428C132.367 163.276 132.003 163.032 131.755 162.696C131.515 162.36 131.395 161.96 131.395 161.496ZM132.751 161.712C132.751 162.144 132.891 162.48 133.171 162.72C133.459 162.952 133.847 163.068 134.335 163.068C134.823 163.068 135.211 162.952 135.499 162.72C135.787 162.48 135.931 162.144 135.931 161.712C135.931 161.28 135.783 160.944 135.487 160.704C135.199 160.464 134.815 160.344 134.335 160.344C133.855 160.344 133.471 160.464 133.183 160.704C132.895 160.944 132.751 161.28 132.751 161.712ZM132.511 165.528C132.511 166.016 132.675 166.4 133.003 166.68C133.331 166.952 133.775 167.088 134.335 167.088C134.895 167.088 135.339 166.952 135.667 166.68C135.995 166.4 136.159 166.016 136.159 165.528C136.159 165.032 135.987 164.66 135.643 164.412C135.307 164.156 134.871 164.028 134.335 164.028C133.807 164.028 133.371 164.156 133.027 164.412C132.683 164.668 132.511 165.04 132.511 165.528ZM145.926 159.528V168H144.546V164.196H140.562V168H139.194V159.528H140.562V163.08H144.546V159.528H145.926Z" fill="white"/>
</svg>
