<svg xmlns="http://www.w3.org/2000/svg" width="375" height="232" viewBox="0 0 375 232">
    <defs>
        <linearGradient id="vtjvyvoh3a" x1="42.051%" x2="42.051%" y1="0%" y2="87.153%">
            <stop offset="0%" stop-color="#DB3EB1"/>
            <stop offset="100%" stop-color="#A11F7F"/>
        </linearGradient>
    </defs>
    <g fill="none" fill-rule="evenodd">
        <g fill="url(#vtjvyvoh3a)" transform="translate(-8698 -1758)">
            <g>
                <path d="M318 180H58c.121-11.289 7.988-20.737 18.538-23.223-.14-1.378-.201-2.753-.201-4.15 0-5.32 1.008-10.418 2.864-15.07 5.971-15.114 20.677-25.793 37.883-25.793 0-33.019 26.668-59.764 59.59-59.764 27.373 0 50.45 18.511 57.41 43.76 2.36-.426 4.8-.648 7.282-.648 23.38 0 42.321 18.996 42.321 42.446 0 1.434-.08 2.85-.222 4.226C302.851 143.686 318 160.073 318 180z" transform="translate(8698 1758)"/>
            </g>
        </g>
    </g>
</svg>
