<svg xmlns="http://www.w3.org/2000/svg" width="375" height="232" viewBox="0 0 375 232">
    <g fill="none" fill-rule="evenodd">
        <g stroke="#FFF">
            <g>
                <g>
                    <path stroke-width="2" d="M49.97 157H22.332C10.083 157 .15 147.026.15 134.72V22.279C.151 9.974 10.083 0 22.333 0h27.636c12.25 0 22.182 9.974 22.182 22.278v112.443C72.151 147.026 62.22 157 49.97 157z" transform="translate(0 -110) translate(0 110) translate(151.849 31)"/>
                    <path d="M47.265 145H25.038c-6.566 0-11.887-5.278-11.887-11.787V23.787c0-6.51 5.321-11.787 11.887-11.787h22.227c6.565 0 11.886 5.277 11.886 11.787v109.426c0 6.51-5.321 11.787-11.886 11.787z" transform="translate(0 -110) translate(0 110) translate(151.849 31)"/>
                    <path stroke-width="2" d="M37.466 113h-2.63c-5.348 0-9.685-4.445-9.685-9.929V83.93c0-5.483 4.337-9.93 9.685-9.93h2.63c5.349 0 9.685 4.447 9.685 9.93v19.141c0 5.484-4.336 9.929-9.685 9.929z" transform="translate(0 -110) translate(0 110) translate(151.849 31)"/>
                    <path d="M41.151 62c0 2.762-2.238 5-5 5s-5-2.238-5-5c0-2.76 2.238-5 5-5s5 2.24 5 5z" transform="translate(0 -110) translate(0 110) translate(151.849 31)"/>
                    <path stroke-width=".5" d="M41.13 174h-8.959c-1.487 0-2.743-1.036-2.932-2.42L26.151 157h21l-3.088 14.58c-.19 1.384-1.445 2.42-2.932 2.42zM32.151 201L32.151 174 41.151 174 41.151 201" transform="translate(0 -110) translate(0 110) translate(151.849 31)"/>
                </g>
            </g>
        </g>
    </g>
</svg>
