<svg width="219" height="224" viewBox="0 0 219 224" fill="none" xmlns="http://www.w3.org/2000/svg">
<path fill-rule="evenodd" clip-rule="evenodd" d="M65.675 67.0049C53.4285 67.0049 43.5 76.9415 43.5 89.1999C43.5 101.458 53.4285 111.395 65.675 111.395C77.9215 111.395 87.8499 101.458 87.8499 89.1999C87.8499 76.9415 77.9215 67.0049 65.675 67.0049ZM42.5 89.1999C42.5 76.3901 52.8754 66.0049 65.675 66.0049C78.4746 66.0049 88.8499 76.3901 88.8499 89.1999C88.8499 102.01 78.4746 112.395 65.675 112.395C52.8754 112.395 42.5 102.01 42.5 89.1999Z" fill="white"/>
<path d="M58.9089 104.426H73.2601C73.8342 104.426 74.2647 103.995 74.2647 103.42V74.4053C74.2647 73.8307 73.8342 73.5435 73.2601 73.5435H58.9089C58.3348 73.5435 57.9043 73.9744 57.9043 74.4053V103.42C57.9043 103.995 58.3348 104.426 58.9089 104.426ZM72.6861 102.702H59.4829V101.553H72.6861V102.702ZM59.4829 76.4162V75.6981H72.6861V100.548H59.4829V76.4162Z" fill="white"/>
<path d="M60.918 87.4764H61.492H71.2509V76.9907H60.918V87.4764ZM62.0661 77.9962H70.1028V86.1837H62.0661V77.9962Z" fill="white"/>
<path d="M60.918 98.5365H61.492H71.2509V88.0508H60.918V98.5365ZM62.0661 89.1999H70.1028V97.3874H62.0661V89.1999Z" fill="white"/>
<path d="M153.675 111.895C166.198 111.895 176.35 101.734 176.35 89.1999C176.35 76.6658 166.198 66.5049 153.675 66.5049C141.152 66.5049 131 76.6658 131 89.1999C131 101.734 141.152 111.895 153.675 111.895Z" fill="#EBB64C"/>
<path d="M144.593 96.6691H150.477C150.907 98.1055 152.342 99.111 153.921 99.111C155.499 99.111 156.791 98.1055 157.365 96.6691H163.249C163.68 96.6691 163.967 96.5255 164.254 96.0946C164.397 95.9509 164.397 95.6637 164.397 95.52C164.397 95.3764 164.397 95.0891 164.254 94.9455C163.823 94.0836 163.393 93.3654 163.106 92.5036C162.388 90.9236 161.527 87.1889 161.383 85.178C161.24 83.0234 161.096 82.8797 160.953 82.0179C160.522 80.5815 159.231 79.1451 156.935 79.0015H154.064H151.194C149.041 79.0015 147.606 80.4379 147.176 81.8743C146.889 82.7361 146.889 83.0234 146.745 85.178C146.602 87.1889 145.741 90.9236 145.023 92.5036C144.593 93.3654 144.162 94.0836 143.875 94.8018C143.731 94.9455 143.731 95.2327 143.731 95.3764C143.731 95.52 143.731 95.8073 143.875 95.9509C143.875 96.5255 144.305 96.6691 144.593 96.6691ZM153.921 97.3873C153.06 97.3873 152.486 96.9564 152.199 96.2382H153.921H155.643C155.356 96.9564 154.638 97.3873 153.921 97.3873ZM146.458 93.3654C147.319 91.4981 148.037 87.6198 148.324 85.4652C148.467 83.4543 148.611 83.3107 148.754 82.5925C148.898 81.8743 149.759 81.0124 151.051 80.8688C152.055 80.8688 152.916 80.8688 153.777 80.8688C154.638 80.8688 155.643 80.8688 156.504 80.8688C157.939 80.8688 158.657 81.8743 158.8 82.4488C158.944 83.3107 159.087 83.3107 159.231 85.4652C159.374 87.7635 160.235 91.6418 161.096 93.3654C161.383 94.0836 161.67 94.5145 161.814 94.9455H153.634H145.454C145.884 94.5145 146.171 93.94 146.458 93.3654Z" fill="white"/>
<path d="M30.7119 43.0916C33.1516 40.6497 36.3089 39.3569 39.6097 39.3569C43.054 39.3569 46.2113 40.6497 48.651 43.0916L48.7945 43.2352L47.3594 44.8152L47.2159 44.528C45.2067 42.517 42.6235 41.3679 39.7532 41.3679C36.883 41.3679 34.2997 42.517 32.2906 44.528L32.147 44.6716L30.7119 43.0916Z" fill="#EBB64C"/>
<path d="M39.7528 48.9807C38.8917 48.9807 38.1742 49.268 37.6001 49.9862L37.4566 50.1298L36.0215 48.6934L36.165 48.5498C37.1696 47.5443 38.4612 46.9697 39.7528 46.9697C41.1879 46.9697 42.4795 47.5443 43.4841 48.6934L43.6276 48.837L42.1925 50.4171L42.049 50.2734C41.3314 49.268 40.6139 48.9807 39.7528 48.9807Z" fill="#EBB64C"/>
<path d="M41.1886 52.1405C41.1886 53.0023 40.6146 53.5769 39.7535 53.5769C38.8924 53.5769 38.3184 53.0023 38.3184 52.1405C38.3184 51.4223 38.8924 50.7041 39.7535 50.7041C40.6146 50.7041 41.1886 51.4223 41.1886 52.1405Z" fill="#EBB64C"/>
<path d="M39.753 45.1026C37.8873 45.1026 36.1652 45.8208 34.8736 47.1135L34.73 47.2572L33.2949 45.8208L33.4384 45.6772C35.1606 43.9535 37.3133 42.948 39.753 42.948C42.1927 42.948 44.4889 43.9535 46.211 45.6772L46.3546 45.8208L44.9194 47.4008L44.7759 47.2572C43.3408 45.8208 41.6186 45.1026 39.753 45.1026Z" fill="#EBB64C"/>
<path d="M2.87025 223.36V8.61837C2.87025 5.4583 5.45347 2.87279 8.61075 2.87279H210.389C213.547 2.87279 216.13 5.4583 216.13 8.61837V223.36H219V8.61837C219 3.87827 215.125 0 210.389 0H8.61075C3.87484 0 0 3.87827 0 8.61837V223.36H2.87025Z" fill="white"/>
<path fill-rule="evenodd" clip-rule="evenodd" d="M209 153H10V152.4H209V153Z" fill="white"/>
<rect x="29" y="124" width="71" height="9" fill="#636363"/>
<rect x="118" y="124" width="71" height="9" fill="#636363"/>
</svg>
