<svg xmlns="http://www.w3.org/2000/svg" width="375" height="232" viewBox="0 0 375 232">
    <g fill="none" fill-rule="evenodd">
        <g>
            <g>
                <g>
                    <path stroke="#FFF" stroke-width="2" d="M303.071 122.125l-29.821 1.325c-76.463 3.4-153.038 3.4-229.501 0l-29.821-1.325C6.236 122.125 0 115.883 0 108.18V13.945C0 6.242 6.236 0 13.928 0l29.82 1.326c76.464 3.4 153.039 3.4 229.502 0L303.071 0C310.764 0 317 6.242 317 13.945v94.235c0 7.703-6.236 13.945-13.929 13.945z" transform="translate(-4136 -1896) translate(4136 1896) translate(29 53)"/>
                    <path stroke="#FFF" stroke-width=".5" d="M61.769 36H41.23c-.68 0-1.231-.555-1.231-1.24v-4.52c0-.685.552-1.24 1.231-1.24H61.77c.68 0 1.231.555 1.231 1.24v4.52c0 .685-.552 1.24-1.231 1.24zM61.769 68H41.23c-.68 0-1.231-.555-1.231-1.24v-4.52c0-.685.552-1.24 1.231-1.24H61.77c.68 0 1.231.555 1.231 1.24v4.52c0 .685-.552 1.24-1.231 1.24zM273.769 36H253.23c-.68 0-1.231-.555-1.231-1.24v-4.52c0-.685.552-1.24 1.231-1.24h20.538c.68 0 1.231.555 1.231 1.24v4.52c0 .685-.552 1.24-1.231 1.24zM273.769 68H253.23c-.68 0-1.231-.555-1.231-1.24v-4.52c0-.685.552-1.24 1.231-1.24h20.538c.68 0 1.231.555 1.231 1.24v4.52c0 .685-.552 1.24-1.231 1.24z" opacity=".5" transform="translate(-4136 -1896) translate(4136 1896) translate(29 53)"/>
                    <path stroke="#FFF" d="M67.772 107H34.228c-.678 0-1.228-.556-1.228-1.244v-5.512c0-.687.55-1.244 1.228-1.244h33.544c.678 0 1.228.557 1.228 1.244v5.512c0 .688-.55 1.244-1.228 1.244z" opacity=".5" transform="translate(-4136 -1896) translate(4136 1896) translate(29 53)"/>
                    <path fill="#F2A900" stroke="#EDAE02" d="M121.772 107H88.228c-.678 0-1.228-.556-1.228-1.244v-5.512c0-.687.55-1.244 1.228-1.244h33.544c.678 0 1.228.557 1.228 1.244v5.512c0 .688-.55 1.244-1.228 1.244z" transform="translate(-4136 -1896) translate(4136 1896) translate(29 53)"/>
                    <path stroke="#FFF" d="M173.772 107h-33.544c-.678 0-1.228-.556-1.228-1.244v-5.512c0-.687.55-1.244 1.228-1.244h33.544c.678 0 1.228.557 1.228 1.244v5.512c0 .688-.55 1.244-1.228 1.244z" opacity=".5" transform="translate(-4136 -1896) translate(4136 1896) translate(29 53)"/>
                    <path fill="#F2A900" stroke="#EDAE02" d="M223.772 107h-33.544c-.678 0-1.228-.556-1.228-1.244v-5.512c0-.687.55-1.244 1.228-1.244h33.544c.678 0 1.228.557 1.228 1.244v5.512c0 .688-.55 1.244-1.228 1.244z" transform="translate(-4136 -1896) translate(4136 1896) translate(29 53)"/>
                    <path stroke="#FFF" d="M280.772 107h-33.544c-.678 0-1.228-.556-1.228-1.244v-5.512c0-.687.55-1.244 1.228-1.244h33.544c.678 0 1.228.557 1.228 1.244v5.512c0 .688-.55 1.244-1.228 1.244z" opacity=".5" transform="translate(-4136 -1896) translate(4136 1896) translate(29 53)"/>
                </g>
            </g>
        </g>
    </g>
</svg>
