<svg xmlns="http://www.w3.org/2000/svg" width="375" height="232" viewBox="0 0 375 232">
    <g fill="none" fill-rule="evenodd" stroke="#FFF">
        <path stroke-width="2" d="M304.2 121H10.8C4.836 121 0 116.175 0 110.224V9.08C0 6.741 1.849 4.82 4.19 4.724L81.193 1.57c51.316-2.103 102.697-2.093 154.012.028l75.609 3.125c2.34.096 4.186 2.018 4.186 4.355v101.146c0 5.951-4.834 10.776-10.8 10.776z" transform="translate(30 55)"/>
        <path fill="#F2A900" d="M209.847 78H103.153c-1.189 0-2.153-.969-2.153-2.166V17.167c0-1.197.964-2.167 2.153-2.167h106.694c1.189 0 2.153.97 2.153 2.167v58.667c0 1.197-.964 2.166-2.153 2.166z" transform="translate(30 55)"/>
        <path d="M88 31.5C88 37.299 83.3 42 77.5 42S67 37.298 67 31.5 71.7 21 77.5 21 88 25.702 88 31.5zM88 61.5C88 67.298 83.3 72 77.5 72S67 67.298 67 61.5C67 55.7 71.7 51 77.5 51S88 55.7 88 61.5zM248 31.5c0 5.798-4.7 10.5-10.5 10.5S227 37.298 227 31.5 231.7 21 237.5 21 248 25.702 248 31.5zM248 61.5c0 5.798-4.7 10.5-10.5 10.5S227 67.298 227 61.5c0-5.8 4.7-10.5 10.5-10.5S248 55.7 248 61.5zM122.407 90h-10.814c-3.452 0-6.849.884-9.881 2.574l-.712.395v15.062l.712.397c3.032 1.688 6.43 2.572 9.88 2.572h10.815c3.452 0 6.849-.884 9.881-2.572l.712-.397V92.97l-.712-.395c-3.032-1.69-6.43-2.574-9.88-2.574zM162.408 90h-10.816c-3.451 0-6.848.884-9.88 2.574l-.712.395v15.062l.712.397c3.032 1.688 6.429 2.572 9.88 2.572h10.816c3.451 0 6.848-.884 9.88-2.572l.712-.397V92.97l-.712-.395c-3.032-1.69-6.429-2.574-9.88-2.574zM202.408 90h-10.814c-3.453 0-6.85.884-9.882 2.574l-.712.395v15.062l.712.397c3.032 1.688 6.429 2.572 9.882 2.572h10.814c3.451 0 6.848-.884 9.88-2.572l.712-.397V92.97l-.712-.395c-3.032-1.69-6.429-2.574-9.88-2.574zM299 86.5c0 10.77-8.73 19.5-19.5 19.5S260 97.27 260 86.5 268.73 67 279.5 67 299 75.73 299 86.5z" transform="translate(30 55)"/>
        <path d="M294 85.5c0 5.335-2.895 10-7.193 12.514-2.15 1.264-4.652 1.986-7.307 1.986-2.655 0-5.158-.722-7.307-1.986C267.895 95.5 265 90.834 265 85.5c0-5.335 2.895-10 7.193-12.515C274.343 71.72 276.845 71 279.5 71c2.655 0 5.158.72 7.307 1.985C291.105 75.5 294 80.165 294 85.5z" transform="translate(30 55)"/>
        <path d="M287 72.984v25.031c-2.059 1.264-4.457 1.985-7 1.985s-4.941-.72-7-1.985V72.984c2.059-1.265 4.457-1.984 7-1.984s4.941.72 7 1.984z" transform="translate(30 55)"/>
    </g>
</svg>
