<svg xmlns="http://www.w3.org/2000/svg" width="322" height="155" viewBox="0 0 322 155">
    <g fill="none" fill-rule="evenodd" stroke="#FFF">
        <path stroke-width="2" d="M244.145 97.331H8.668C3.881 97.331 0 93.451 0 88.663V7.303C0 5.423 1.484 3.877 3.361 3.8l61.802-2.537c41.186-1.692 82.422-1.684 123.608.022L249.452 3.8c1.879.077 3.36 1.623 3.36 3.503v81.361c0 4.787-3.88 8.668-8.667 8.668z" transform="translate(35 28)"/>
        <path d="M168.97 62.616H83.208c-.956 0-1.731-.774-1.731-1.73V14.023c0-.956.775-1.73 1.73-1.73h85.763c.956 0 1.73.774 1.73 1.73v46.863c0 .956-.774 1.73-1.73 1.73zM70.263 25.347c0 4.604-3.733 8.338-8.338 8.338-4.605 0-8.338-3.734-8.338-8.338 0-4.605 3.733-8.34 8.338-8.34 4.605 0 8.338 3.735 8.338 8.34zM70.263 49.617c0 4.604-3.733 8.338-8.338 8.338-4.605 0-8.338-3.734-8.338-8.338 0-4.605 3.733-8.338 8.338-8.338 4.605 0 8.338 3.733 8.338 8.338zM199.41 25.347c0 4.604-3.734 8.338-8.339 8.338s-8.338-3.734-8.338-8.338c0-4.605 3.733-8.34 8.338-8.34 4.605 0 8.338 3.735 8.338 8.34zM199.41 49.617c0 4.604-3.734 8.338-8.339 8.338s-8.338-3.734-8.338-8.338c0-4.605 3.733-8.338 8.338-8.338 4.605 0 8.338 3.733 8.338 8.338zM98.675 72.16h-8.688c-2.773 0-5.502.694-7.938 2.02l-.572.31v11.823l.572.311c2.436 1.325 5.165 2.02 7.938 2.02h8.688c2.773 0 5.502-.695 7.938-2.02l.572-.31V74.49l-.572-.31c-2.436-1.326-5.165-2.02-7.938-2.02zM130.751 72.16h-8.689c-2.772 0-5.501.694-7.938 2.02l-.572.31v11.823l.572.311c2.437 1.325 5.166 2.02 7.939 2.02h8.688c2.773 0 5.502-.695 7.939-2.02l.572-.31V74.49l-.572-.31c-2.436-1.326-5.166-2.02-7.939-2.02zM162.857 72.16h-8.689c-2.774 0-5.502.694-7.939 2.02l-.572.31v11.823l.572.311c2.436 1.325 5.165 2.02 7.94 2.02h8.688c2.773 0 5.501-.695 7.938-2.02l.572-.31V74.49l-.572-.31c-2.436-1.326-5.165-2.02-7.938-2.02zM240.17 69.422c0 8.671-7.029 15.7-15.7 15.7-8.672 0-15.7-7.029-15.7-15.7s7.028-15.7 15.7-15.7c8.671 0 15.7 7.029 15.7 15.7z" transform="translate(35 28)"/>
        <path d="M236.143 68.937c0 4.22-2.29 7.91-5.69 9.899-1.7 1-3.68 1.57-5.78 1.57s-4.08-.57-5.78-1.57c-3.4-1.99-5.69-5.68-5.69-9.9 0-4.22 2.29-7.91 5.69-9.9 1.7-1 3.68-1.57 5.78-1.57s4.08.57 5.78 1.57c3.4 1.99 5.69 5.68 5.69 9.9z" transform="translate(35 28)"/>
        <path d="M230.453 59.036v19.8c-1.7 1-3.68 1.57-5.78 1.57s-4.08-.57-5.78-1.57v-19.8c1.7-1 3.68-1.569 5.78-1.569s4.08.57 5.78 1.57z" transform="translate(35 28)"/>
    </g>
</svg>
