<svg xmlns="http://www.w3.org/2000/svg" width="322" height="155" viewBox="0 0 322 155">
    <g fill="none" fill-rule="evenodd" stroke="#FFF">
        <path stroke-width="2" d="M246.067 99.04l-24.212 1.075c-62.081 2.757-124.253 2.757-186.334 0L11.309 99.04C5.064 99.04 0 93.978 0 87.73V11.31C0 5.062 5.064-.001 11.309-.001L35.52 1.076c62.08 2.757 124.253 2.757 186.334 0L246.067 0c6.246 0 11.309 5.062 11.309 11.309V87.73c0 6.247-5.063 11.309-11.31 11.309z" transform="translate(32 26)"/>
        <path stroke-width=".5" d="M49.824 29.476h-16.68c-.551 0-1-.448-1-1V24.83c0-.552.449-1 1-1h16.68c.552 0 1 .448 1 1v3.647c0 .552-.448 1-1 1zM49.824 55.54h-16.68c-.551 0-1-.448-1-1v-3.647c0-.552.449-1 1-1h16.68c.552 0 1 .448 1 1v3.647c0 .552-.448 1-1 1zM221.972 29.476h-16.679c-.552 0-1-.448-1-1V24.83c0-.552.448-1 1-1h16.68c.551 0 1 .448 1 1v3.647c0 .552-.449 1-1 1zM221.972 55.54h-16.679c-.552 0-1-.448-1-1v-3.647c0-.552.448-1 1-1h16.68c.551 0 1 .448 1 1v3.647c0 .552-.449 1-1 1z" transform="translate(32 26)"/>
        <path d="M55.138 86.99H27.83c-.552 0-1-.446-1-1v-4.432c0-.552.448-1 1-1h27.308c.552 0 1 .448 1 1v4.433c0 .553-.448 1-1 1zM99.011 86.99H71.703c-.552 0-1-.446-1-1v-4.432c0-.552.448-1 1-1h27.308c.552 0 1 .448 1 1v4.433c0 .553-.448 1-1 1zM140.93 86.99H113.62c-.552 0-1-.446-1-1v-4.432c0-.552.448-1 1-1h27.308c.552 0 1 .448 1 1v4.433c0 .553-.448 1-1 1zM181.328 86.99H154.02c-.552 0-1-.446-1-1v-4.432c0-.552.448-1 1-1h27.308c.552 0 1 .448 1 1v4.433c0 .553-.448 1-1 1zM228.241 86.99h-27.308c-.552 0-1-.446-1-1v-4.432c0-.552.448-1 1-1h27.308c.552 0 1 .448 1 1v4.433c0 .553-.448 1-1 1z" transform="translate(32 26)"/>
    </g>
</svg>
