<svg xmlns="http://www.w3.org/2000/svg" xmlns:xlink="http://www.w3.org/1999/xlink" width="322" height="155" viewBox="0 0 322 155">
    <defs>
        <path id="h33pygu3ha" d="M0 129L235.266 129 235.266 0.593 0 0.593z"/>
    </defs>
    <g fill="none" fill-rule="evenodd">
        <g transform="translate(43 12) translate(0 .407)">
            <path stroke="#FFF" stroke-width="2" d="M234.266 128H1V12.475C1 6.465 5.871 1.594 11.88 1.594h211.505c6.01 0 10.881 4.87 10.881 10.88V128z"/>
            <mask id="n7ejibs50b" fill="#fff">
                <use xlink:href="#h33pygu3ha"/>
            </mask>
            <path stroke="#FFF" stroke-width="2" d="M0.999 128L234.266 128 234.266 101.937 0.999 101.937z" mask="url(#n7ejibs50b)"/>
        </g>
        <text fill="#FFF" font-family="Helvetica-Bold, Helvetica" font-size="11" font-weight="bold" transform="translate(43 12)">
            <tspan x="97.565" y="120.135">AutoFill</tspan>
        </text>
        <path stroke="#FFF" d="M35.418 120.615h-2.076c-1.788 0-3.238-1.45-3.238-3.237v-2.076c0-1.79 1.45-3.24 3.238-3.24h2.076c1.789 0 3.238 1.45 3.238 3.24v2.075c0 1.788-1.45 3.239-3.238 3.239zM75.001 120.615h-2.076c-1.788 0-3.237-1.45-3.237-3.237v-2.076c0-1.79 1.45-3.24 3.237-3.24h2.076c1.79 0 3.238 1.45 3.238 3.24v2.075c0 1.788-1.449 3.239-3.238 3.239zM79.452 96.535H68.475c-1.788 0-3.238-1.45-3.238-3.238v-2.076c0-1.789 1.45-3.239 3.238-3.239h10.977c1.788 0 3.238 1.45 3.238 3.24v2.075c0 1.788-1.45 3.238-3.238 3.238zM161.58 120.615h-2.076c-1.788 0-3.238-1.45-3.238-3.237v-2.076c0-1.79 1.45-3.24 3.238-3.24h2.076c1.79 0 3.238 1.45 3.238 3.24v2.075c0 1.788-1.449 3.239-3.238 3.239zM201.327 120.615h-2.076c-1.788 0-3.238-1.45-3.238-3.237v-2.076c0-1.79 1.45-3.24 3.238-3.24h2.076c1.789 0 3.238 1.45 3.238 3.24v2.075c0 1.788-1.449 3.239-3.238 3.239z" transform="translate(43 12)"/>
    </g>
</svg>
