<svg width="18" height="20" viewBox="0 0 18 20" fill="none" xmlns="http://www.w3.org/2000/svg">
<path fill-rule="evenodd" clip-rule="evenodd" d="M8.99996 1.38462C11.6764 1.38462 13.8461 3.55431 13.8461 6.23077V6.92344H4.1538V6.23077C4.1538 3.55431 6.3235 1.38462 8.99996 1.38462ZM15.2307 6.23077V6.92344H15.9231C17.0701 6.92344 18 7.85331 18 9.00036V17.3081C18 18.4551 17.0701 19.385 15.9231 19.385H2.07692C0.929871 19.385 0 18.4551 0 17.3081V9.00036C0 7.85331 0.92987 6.92344 2.07692 6.92344H2.76919V6.23077C2.76919 2.78961 5.5588 0 8.99996 0C12.4411 0 15.2307 2.78961 15.2307 6.23077ZM15.9231 8.30805H2.07692C1.69457 8.30805 1.38462 8.61801 1.38462 9.00036V17.3081C1.38462 17.6904 1.69457 18.0004 2.07692 18.0004H15.9231C16.3054 18.0004 16.6154 17.6904 16.6154 17.3081V9.00036C16.6154 8.61801 16.3054 8.30805 15.9231 8.30805ZM9.00018 11.0774C8.61783 11.0774 8.30787 11.3873 8.30787 11.7697V14.5389C8.30787 14.9213 8.61783 15.2312 9.00018 15.2312C9.38253 15.2312 9.69249 14.9213 9.69249 14.5389V11.7697C9.69249 11.3873 9.38253 11.0774 9.00018 11.0774Z" fill="#F2A900"/>
</svg>
