<svg width="248" height="130" viewBox="0 0 248 130" fill="none" xmlns="http://www.w3.org/2000/svg">
<g clip-path="url(#clip0_3220_34900)">
<path d="M0 1H112.8" stroke="white" stroke-width="2" stroke-miterlimit="10"/>
<path d="M140.6 1H247.6" stroke="white" stroke-width="2" stroke-miterlimit="10"/>
<path d="M0 128.3H112.8" stroke="white" stroke-width="2" stroke-miterlimit="10"/>
<path d="M140.6 128.3H247.6" stroke="white" stroke-width="2" stroke-miterlimit="10"/>
<path d="M107.6 91.5996C106.5 91.5996 105.6 90.6996 105.6 89.5996C105.6 88.4996 106.5 87.5996 107.6 87.5996C108.7 87.5996 109.6 88.4996 109.6 89.5996C109.6 90.6996 108.7 91.5996 107.6 91.5996Z" fill="#303134"/>
<path d="M107.6 72.7998C106.5 72.7998 105.6 71.8998 105.6 70.7998C105.6 69.6998 106.5 68.7998 107.6 68.7998C108.7 68.7998 109.6 69.6998 109.6 70.7998C109.6 71.8998 108.7 72.7998 107.6 72.7998Z" fill="#303134"/>
<path d="M107.6 53.9004C106.5 53.9004 105.6 53.0004 105.6 51.9004C105.6 50.8004 106.5 49.9004 107.6 49.9004C108.7 49.9004 109.6 50.8004 109.6 51.9004C109.6 53.0004 108.7 53.9004 107.6 53.9004Z" fill="#303134"/>
<path d="M11.8996 74.0998H7.09961V67.2998H8.29961V72.9998H11.8996V74.0998Z" fill="white"/>
<path d="M9.99961 54.6002C8.19961 54.6002 7.09961 53.6002 7.09961 51.6002V47.7002H8.29961V51.6002C8.29961 52.9002 8.99961 53.5002 9.99961 53.5002C11.0996 53.5002 11.6996 52.9002 11.6996 51.6002V47.7002H12.8996V51.6002C12.8996 53.6002 11.7996 54.6002 9.99961 54.6002Z" fill="white"/>
<path d="M24.6996 74.1004H23.6996L22.4996 70.6004L21.3996 74.1004H20.2996L18.5996 68.9004H19.7996L20.8996 72.5004L21.9996 68.9004H22.9996L24.1996 72.5004L25.1996 68.9004H26.3996L24.6996 74.1004Z" fill="white"/>
<path d="M36.0996 70.0998C34.9996 70.0998 34.2996 70.7998 34.2996 72.0998V74.0998H33.0996V68.8998H34.2996V70.0998C34.5996 69.2998 35.1996 68.7998 36.0996 68.7998V70.0998Z" fill="white"/>
<path d="M36.5 50.5002C35.4 50.5002 34.7 51.2002 34.7 52.5002V54.5002H33.5V49.3002H34.7V50.5002C35 49.7002 35.6 49.2002 36.5 49.2002V50.5002Z" fill="white"/>
<path d="M17.4004 49.2002C16.6004 49.2002 16.0004 49.6002 15.6004 50.2002V49.3002H14.4004V56.0002H15.6004V53.6002C16.0004 54.1002 16.5004 54.5002 17.4004 54.5002C18.6004 54.5002 19.8004 53.5002 19.8004 51.8002C19.8004 50.2002 18.6004 49.2002 17.4004 49.2002ZM18.6004 51.9002C18.6004 52.9002 17.9004 53.6002 17.1004 53.6002C16.3004 53.6002 15.6004 52.9002 15.6004 51.9002C15.6004 50.9002 16.3004 50.2002 17.1004 50.2002C17.9004 50.2002 18.6004 50.9002 18.6004 51.9002Z" fill="white"/>
<path d="M23.9 49.2002C23.1 49.2002 22.5 49.6002 22.1 50.2002V49.3002H21V56.0002H22.2V53.6002C22.6 54.1002 23.1 54.5002 24 54.5002C25.2 54.5002 26.4 53.5002 26.4 51.8002C26.3 50.2002 25.2 49.2002 23.9 49.2002ZM25.1 51.9002C25.1 52.9002 24.4 53.6002 23.6 53.6002C22.8 53.6002 22.1 52.9002 22.1 51.9002C22.1 50.9002 22.8 50.2002 23.6 50.2002C24.5 50.2002 25.1 50.9002 25.1 51.9002Z" fill="white"/>
<path d="M32.2998 52.0002C32.2998 50.5002 31.4998 49.2002 29.7998 49.2002C28.2998 49.2002 27.2998 50.4002 27.2998 51.9002C27.2998 53.5002 28.4998 54.6002 29.8998 54.6002C30.7998 54.6002 31.4998 54.2002 31.9998 53.6002L31.2998 53.0002C30.8998 53.4002 30.4998 53.6002 29.8998 53.6002C29.0998 53.6002 28.4998 53.1002 28.3998 52.3002H32.1998C32.2998 52.2002 32.2998 52.1002 32.2998 52.0002ZM28.3998 51.5002C28.4998 50.7002 28.9998 50.1002 29.6998 50.1002C30.4998 50.1002 30.8998 50.7002 30.9998 51.5002H28.3998Z" fill="white"/>
<path d="M15.3996 68.7998C13.7996 68.7998 12.5996 69.9998 12.5996 71.4998C12.5996 72.9998 13.7996 74.1998 15.2996 74.1998C16.8996 74.1998 18.0996 72.9998 18.0996 71.4998C18.0996 69.9998 16.8996 68.7998 15.3996 68.7998ZM16.8996 71.4998C16.8996 72.3998 16.2996 73.0998 15.2996 73.0998C14.3996 73.0998 13.6996 72.2998 13.6996 71.3998C13.6996 70.4998 14.2996 69.7998 15.2996 69.7998C16.2996 69.8998 16.8996 70.5998 16.8996 71.4998Z" fill="white"/>
<path d="M31.9004 71.5998C31.9004 70.0998 31.1004 68.7998 29.4004 68.7998C27.9004 68.7998 26.9004 69.9998 26.9004 71.4998C26.9004 73.0998 28.1004 74.1998 29.5004 74.1998C30.4004 74.1998 31.1004 73.7998 31.6004 73.1998L31.0004 72.5998C30.6004 72.9998 30.2004 73.1998 29.6004 73.1998C28.8004 73.1998 28.2004 72.6998 28.1004 71.8998H31.9004C31.9004 71.7998 31.9004 71.6998 31.9004 71.5998ZM28.1004 71.0998C28.2004 70.2998 28.7004 69.6998 29.4004 69.6998C30.2004 69.6998 30.6004 70.2998 30.7004 71.0998H28.1004Z" fill="white"/>
<path d="M58.2002 86.4004H59.5002L61.6002 89.7004L63.7002 86.4004H65.0002V93.3004H63.8002V88.4004L61.6002 91.6004L59.4002 88.4004V93.3004H58.2002V86.4004Z" fill="white"/>
<path d="M66.2998 90.7C66.2998 89.2 67.4998 88 69.0998 88C70.6998 88 71.7998 89.2 71.7998 90.7C71.7998 92.2 70.5998 93.4 68.9998 93.4C67.4998 93.4 66.2998 92.2 66.2998 90.7ZM70.5998 90.7C70.5998 89.8 69.8998 89 68.9998 89C68.0998 89 67.3998 89.7 67.3998 90.6C67.3998 91.5 68.0998 92.3 68.9998 92.3C69.9998 92.4 70.5998 91.6 70.5998 90.7Z" fill="white"/>
<path d="M72.7002 90.6996C72.7002 88.9996 73.9002 87.9996 75.1002 87.9996C76.0002 87.9996 76.5002 88.3996 76.9002 88.8996V86.0996H78.1002V93.1996H76.9002V92.2996C76.5002 92.7996 76.0002 93.2996 75.1002 93.2996C73.9002 93.3996 72.7002 92.3996 72.7002 90.6996ZM76.9002 90.6996C76.9002 89.6996 76.2002 88.9996 75.4002 88.9996C74.6002 88.9996 73.9002 89.5996 73.9002 90.6996C73.9002 91.6996 74.6002 92.3996 75.4002 92.3996C76.2002 92.3996 76.9002 91.6996 76.9002 90.6996Z" fill="white"/>
<path d="M79.2998 90.7C79.2998 89.2 80.2998 88 81.7998 88C83.3998 88 84.2998 89.3 84.2998 90.8C84.2998 90.9 84.2998 91 84.2998 91.1H80.4998C80.5998 91.9 81.1998 92.4 81.9998 92.4C82.5998 92.4 82.9998 92.2 83.3998 91.8L84.0998 92.4C83.5998 93 82.8998 93.4 81.9998 93.4C80.3998 93.4 79.2998 92.3 79.2998 90.7ZM83.0998 90.3C82.9998 89.6 82.5998 89 81.7998 89C81.0998 89 80.5998 89.6 80.4998 90.4H83.0998V90.3Z" fill="white"/>
<path d="M72.032 70C71.7473 70 71.4626 69.8586 71.3203 69.7172C70.8932 69.2931 70.8932 68.7276 71.3203 68.3035L78.153 61.5177L71.3203 54.7318C70.8932 54.3077 70.8932 53.6008 71.3203 53.3181C71.7473 52.894 72.3167 52.894 72.7438 53.3181L81 61.5177L72.7438 69.7172C72.6014 70 72.3167 70 72.032 70Z" fill="#F2A900"/>
<path d="M64.9288 70C64.6726 70 64.4164 69.8586 64.2883 69.7172C63.9039 69.2931 63.9039 68.7276 64.2883 68.3035L70.4377 61.5177L64.2883 54.7318C63.9039 54.3077 63.9039 53.6008 64.2883 53.3181C64.6726 52.894 65.1851 52.894 65.5694 53.3181L73 61.5177L65.5694 69.7172C65.4413 70 65.1851 70 64.9288 70Z" fill="#F2A900"/>
<path d="M179.8 30C176.8 30 174.4 32.4 174.4 35.4C174.4 38.4 176.8 40.8 179.8 40.8C182.8 40.8 185.2 38.4 185.2 35.4C185.2 32.4 182.8 30 179.8 30ZM179.8 39.8C177.4 39.8 175.5 37.9 175.4 35.4C175.4 34.3 175.8 33.3 176.5 32.5C177 33 177.4 33.4 177.9 33.9H177.1C176.9 33.9 176.8 34 176.8 34.2V36.6C176.8 36.8 176.9 36.9 177.1 36.9H179.5C180 37.5 180.6 38.1 181.1 38.7C181.3 38.9 181.5 38.8 181.5 38.5V37.6C181.9 38 182.2 38.3 182.6 38.7C181.9 39.4 180.9 39.8 179.8 39.8ZM183.4 37.9C182.8 37.3 182.2 36.7 181.6 36.1V32.2C181.6 31.9 181.4 31.8 181.2 32C180.7 32.6 180.1 33.2 179.6 33.8C179.5 33.9 179.5 33.9 179.4 33.8C178.7 33.1 178 32.4 177.4 31.8C178.1 31.3 179 31 179.9 31C182.3 31 184.3 33 184.3 35.4C184.1 36.3 183.9 37.2 183.4 37.9Z" fill="#303134"/>
<path d="M154.7 86.2002H155.8L158.8 93.1002H157.5L156.8 91.4002H153.6L152.9 93.1002H151.7L154.7 86.2002ZM156.4 90.3002L155.2 87.6002L154 90.3002H156.4Z" fill="white"/>
<path d="M161.1 85.9004H159.9V93.0004H161.1V85.9004Z" fill="white"/>
<path d="M162.3 91.6004C162.3 90.5004 163.2 89.9004 164.4 89.9004C165 89.9004 165.4 90.0004 165.8 90.1004V90.0004C165.8 89.3004 165.4 88.9004 164.5 88.9004C163.9 88.9004 163.5 89.0004 163 89.2004L162.7 88.3004C163.3 88.0004 163.8 87.9004 164.6 87.9004C165.4 87.9004 165.9 88.1004 166.3 88.5004C166.7 88.9004 166.9 89.4004 166.9 90.1004V93.2004H165.7V92.6004C165.3 93.0004 164.8 93.4004 164 93.4004C163.2 93.2004 162.3 92.6004 162.3 91.6004ZM165.8 91.2004V90.8004C165.5 90.7004 165.1 90.6004 164.6 90.6004C163.8 90.6004 163.4 90.9004 163.4 91.5004C163.4 92.0004 163.8 92.3004 164.4 92.3004C165.3 92.3004 165.8 91.9004 165.8 91.2004Z" fill="white"/>
<path d="M168.4 87.8998H169.6V89.0998C169.9 88.2998 170.5 87.7998 171.4 87.7998V89.0998H171.3C170.3 89.0998 169.5 89.7998 169.5 91.0998V93.0998H168.3V87.8998H168.4Z" fill="white"/>
<path d="M172.4 87.8998H173.6V88.6998C173.9 88.1998 174.4 87.7998 175.2 87.7998C175.9 87.7998 176.5 88.1998 176.7 88.6998C177.1 88.1998 177.7 87.7998 178.4 87.7998C179.5 87.7998 180.2 88.4998 180.2 89.7998V93.0998H179V90.1998C179 89.3998 178.6 88.8998 178 88.8998C177.4 88.8998 176.9 89.3998 176.9 90.1998V93.0998H175.7V90.1998C175.7 89.3998 175.3 88.9998 174.7 88.9998C174 88.9998 173.6 89.4998 173.6 90.2998V93.1998H172.4V87.8998Z" fill="white"/>
<path d="M184.8 86.2002H186L188.1 89.5002L190.2 86.2002H191.5V93.1002H190.3V88.2002L188.1 91.4002L185.9 88.2002V93.1002H184.8V86.2002Z" fill="white"/>
<path d="M193 91.2004V87.9004H194.2V90.8004C194.2 91.6004 194.6 92.1004 195.3 92.1004C196 92.1004 196.5 91.6004 196.5 90.8004V87.9004H197.7V93.1004H196.5V92.3004C196.2 92.8004 195.7 93.2004 194.9 93.2004C193.7 93.2004 193 92.4004 193 91.2004Z" fill="white"/>
<path d="M199.4 91.6V88.9H198.7V87.9H199.4V86.5H200.6V87.9H202V88.9H200.6V91.4C200.6 91.9 200.8 92 201.2 92C201.5 92 201.7 91.9 201.9 91.8V92.8C201.6 93 201.3 93.1 200.8 93.1C200 93.2 199.4 92.8 199.4 91.6Z" fill="white"/>
<path d="M202.7 90.4998C202.7 88.9998 203.7 87.7998 205.2 87.7998C206.8 87.7998 207.7 89.0998 207.7 90.5998C207.7 90.6998 207.7 90.7998 207.7 90.8998H203.9C204 91.6998 204.6 92.1998 205.4 92.1998C206 92.1998 206.4 91.9998 206.8 91.5998L207.5 92.1998C207 92.7998 206.3 93.1998 205.4 93.1998C203.9 93.1998 202.7 92.0998 202.7 90.4998ZM206.6 90.0998C206.5 89.2998 206.1 88.6998 205.3 88.6998C204.6 88.6998 204.1 89.2998 204 90.0998H206.6Z" fill="white"/>
<path d="M188.828 65.2086C188.698 64.9496 188.437 64.5612 188.175 63.9137C187.522 62.4892 186.869 59.2518 186.608 57.4389C186.477 55.6259 186.347 55.3669 186.216 54.5899C185.824 53.295 184.518 52 182.559 52C181.645 52 178.38 52 177.465 52C175.375 52 174.069 53.4245 173.808 54.7194C173.678 55.4964 173.547 55.7554 173.416 57.5683C173.286 59.3813 172.502 62.6187 171.849 64.0432C171.588 64.6906 171.327 65.0791 171.196 65.3381C170.935 65.8561 170.935 66.5036 171.196 67.0216C171.457 67.5396 172.11 67.7986 172.633 67.7986H176.682C176.682 67.9281 176.682 67.9281 176.812 68.0576C176.812 68.0576 176.812 68.187 176.943 68.187C177.465 69.3525 178.641 70 179.947 70C181.384 70 182.559 69.0935 183.082 67.7986H187.13C187.784 67.7986 188.306 67.5396 188.567 67.0216C189.09 66.3741 189.09 65.7266 188.828 65.2086ZM180.077 68.187C179.424 68.187 178.771 67.7986 178.51 67.1511H180.077H181.645C181.384 67.7986 180.731 68.187 180.077 68.187ZM180.077 65.9856H172.894C173.024 65.5971 173.286 65.2086 173.547 64.5612C174.2 63.0072 174.984 59.5108 175.245 57.5683C175.375 55.7554 175.506 55.6259 175.637 55.1079C175.767 54.4604 176.42 53.6835 177.726 53.6835H182.69C183.865 53.6835 184.518 54.5899 184.779 55.1079C184.91 55.7554 185.041 55.8849 185.171 57.6978C185.302 59.6403 186.086 63.0072 186.869 64.6906C187.13 65.3381 187.392 65.7266 187.522 66.1151H180.077V65.9856Z" fill="#F2A900"/>
<path d="M126.7 31.2002V59.2002L130.8 62.1002L122.6 67.5002L126.7 70.2002V98.2002" stroke="white" stroke-miterlimit="10"/>
<path d="M126.7 128.3V98.2002" stroke="white" stroke-miterlimit="10"/>
<path d="M126.7 31.1V1" stroke="white" stroke-miterlimit="10"/>
<path d="M71 79C80.9411 79 89 70.9411 89 61C89 51.0589 80.9411 43 71 43C61.0589 43 53 51.0589 53 61C53 70.9411 61.0589 79 71 79Z" stroke="#F2A900" stroke-miterlimit="10"/>
</g>
<defs>
<clipPath id="clip0_3220_34900">
<rect width="247.6" height="129.3" fill="white"/>
</clipPath>
</defs>
</svg>
