<svg width="228" height="130" viewBox="0 0 228 130" fill="none" xmlns="http://www.w3.org/2000/svg">
<path d="M108.4 73.5998H103.6V66.7998H104.8V72.4998H108.4V73.5998Z" fill="white"/>
<path d="M106.5 54.1002C104.7 54.1002 103.6 53.1002 103.6 51.1002V47.2002H104.8V51.1002C104.8 52.4002 105.5 53.0002 106.5 53.0002C107.6 53.0002 108.2 52.4002 108.2 51.1002V47.2002H109.4V51.1002C109.4 53.1002 108.3 54.1002 106.5 54.1002Z" fill="white"/>
<path d="M121.3 73.7004H120.2L119 70.1004L117.9 73.7004H116.8L115.2 68.5004H116.4L117.4 72.0004L118.5 68.4004H119.6L120.7 72.0004L121.8 68.5004H122.9L121.3 73.7004Z" fill="white"/>
<path d="M132.7 69.5998C131.6 69.5998 130.9 70.2998 130.9 71.5998V73.5998H129.7V68.3998H130.9V69.5998C131.2 68.7998 131.8 68.2998 132.7 68.2998V69.5998Z" fill="white"/>
<path d="M133 50.0002C131.9 50.0002 131.2 50.7002 131.2 52.0002V54.0002H130V48.8002H131.2V50.0002C131.5 49.2002 132.1 48.7002 133 48.7002V50.0002Z" fill="white"/>
<path d="M113.9 48.7002C113.1 48.7002 112.5 49.1002 112.1 49.7002V48.8002H110.9V55.6002H112.1V53.2002C112.5 53.7002 113 54.1002 113.9 54.1002C115.1 54.1002 116.3 53.1002 116.3 51.4002C116.3 49.7002 115.1 48.7002 113.9 48.7002ZM115.1 51.4002C115.1 52.4002 114.4 53.1002 113.6 53.1002C112.8 53.1002 112.1 52.4002 112.1 51.4002C112.1 50.4002 112.8 49.7002 113.6 49.7002C114.4 49.8002 115.1 50.4002 115.1 51.4002Z" fill="white"/>
<path d="M120.5 48.7002C119.7 48.7002 119.1 49.1002 118.7 49.7002V48.8002H117.5V55.6002H118.7V53.2002C119.1 53.7002 119.6 54.1002 120.5 54.1002C121.7 54.1002 122.9 53.1002 122.9 51.4002C122.8 49.7002 121.7 48.7002 120.5 48.7002ZM121.6 51.4002C121.6 52.4002 120.9 53.1002 120.1 53.1002C119.3 53.1002 118.6 52.4002 118.6 51.4002C118.6 50.4002 119.3 49.7002 120.1 49.7002C121 49.8002 121.6 50.4002 121.6 51.4002Z" fill="white"/>
<path d="M128.8 51.5002C128.8 50.0002 128 48.7002 126.3 48.7002C124.8 48.7002 123.8 49.9002 123.8 51.4002C123.8 53.0002 125 54.1002 126.4 54.1002C127.3 54.1002 128 53.7002 128.5 53.1002L127.8 52.5002C127.4 52.9002 127 53.1002 126.4 53.1002C125.6 53.1002 125 52.6002 124.9 51.8002H128.7C128.8 51.7002 128.8 51.6002 128.8 51.5002ZM125 51.1002C125.1 50.3002 125.6 49.7002 126.3 49.7002C127.1 49.7002 127.5 50.3002 127.6 51.1002H125Z" fill="white"/>
<path d="M111.9 68.4004C110.3 68.4004 109.1 69.6004 109.1 71.1004C109.1 72.6004 110.3 73.8004 111.8 73.8004C113.4 73.8004 114.6 72.6004 114.6 71.1004C114.6 69.6004 113.5 68.4004 111.9 68.4004ZM113.4 71.1004C113.4 72.0004 112.8 72.7004 111.8 72.7004C110.9 72.7004 110.2 71.9004 110.2 71.0004C110.2 70.1004 110.8 69.4004 111.8 69.4004C112.8 69.4004 113.4 70.1004 113.4 71.1004Z" fill="white"/>
<path d="M128.5 71.0998C128.5 69.5998 127.7 68.2998 126 68.2998C124.5 68.2998 123.5 69.4998 123.5 70.9998C123.5 72.5998 124.7 73.6998 126.1 73.6998C127 73.6998 127.7 73.2998 128.2 72.6998L127.5 72.0998C127.1 72.4998 126.7 72.6998 126.1 72.6998C125.3 72.6998 124.7 72.1998 124.6 71.3998H128.4C128.4 71.2998 128.5 71.1998 128.5 71.0998ZM124.6 70.6998C124.7 69.8998 125.2 69.2998 125.9 69.2998C126.7 69.2998 127.1 69.8998 127.2 70.6998H124.6Z" fill="white"/>
<path d="M77.7 33.8H77.3V32.7C77.3 32 77 31.3 76.5 30.8C76 30.3 75.3 30 74.7 30C73.3 30 72.1 31.2 72.1 32.7V33.8H71.7C71.5 33.8 71.5 34 71.5 34.1V34.6V35.5V37.2C71.7 38.9 73.1 40.1 74.8 40.1C76.5 40.1 77.9 38.8 78.1 37.2V35.5V34.6V34.2C77.9 34 77.8 33.9 77.7 33.8ZM75.3 37.9V38V38.1C75.3 38.2 75.2 38.3 75.1 38.4C75 38.5 74.8 38.6 74.7 38.6C74.5 38.6 74.4 38.5 74.3 38.4C74.2 38.3 74.2 38.2 74.1 38.1V38V37.9L74.3 36.1C74.2 36 74.1 35.8 74.1 35.6C74.1 35.4 74.2 35.3 74.3 35.1C74.4 35 74.6 34.9 74.8 34.9C75 34.9 75.2 35 75.3 35.1C75.4 35.2 75.5 35.4 75.5 35.6C75.5 35.8 75.4 35.9 75.3 36.1V37.9ZM76.2 33.8H73V32.7C73 31.8 73.7 31 74.6 31C75 31 75.4 31.2 75.7 31.5C76 31.8 76.2 32.2 76.2 32.7V33.8Z" fill="#F2A900"/>
<path d="M41 89.3998C41 87.3998 42.5 85.7998 44.5 85.7998C45.8 85.7998 46.5 86.1998 47.2 86.8998L46.4 87.7998C45.9 87.2998 45.3 86.8998 44.5 86.8998C43.2 86.8998 42.2 87.9998 42.2 89.2998C42.2 90.5998 43.1 91.6998 44.5 91.6998C45.3 91.6998 45.9 91.3998 46.5 90.7998L47.3 91.5998C46.6 92.2998 45.8 92.7998 44.5 92.7998C42.5 92.8998 41 91.3998 41 89.3998Z" fill="white"/>
<path d="M48 90.2C48 88.7 49.2 87.5 50.8 87.5C52.4 87.5 53.5 88.7 53.5 90.2C53.5 91.7 52.3 92.9 50.7 92.9C49.2 92.9 48 91.7 48 90.2ZM52.3 90.2C52.3 89.3 51.6 88.5 50.7 88.5C49.8 88.5 49.1 89.2 49.1 90.1C49.1 91 49.8 91.8 50.7 91.8C51.7 91.9 52.3 91.1 52.3 90.2Z" fill="white"/>
<path d="M54.7002 87.6H55.9002V88.4C56.2002 87.9 56.7002 87.5 57.5002 87.5C58.2002 87.5 58.8002 87.9 59.0002 88.4C59.4002 87.9 60.0002 87.5 60.7002 87.5C61.8002 87.5 62.5002 88.2 62.5002 89.5V92.8H61.3002V89.9C61.3002 89.1 60.9002 88.6 60.3002 88.6C59.7002 88.6 59.2002 89.1 59.2002 89.9V92.8H58.0002V89.9C58.0002 89.1 57.6002 88.6 57.0002 88.6C56.3002 88.6 55.9002 89.1 55.9002 89.9V92.8H54.7002V87.6Z" fill="white"/>
<path d="M64 87.6H65.2V88.5C65.6 88 66.1 87.5 67 87.5C68.2 87.5 69.4 88.5 69.4 90.2C69.4 91.9 68.2 92.9 67 92.9C66.1 92.9 65.6 92.5 65.2 92V94.4H64V87.6ZM68.1 90.2C68.1 89.2 67.4 88.5 66.6 88.5C65.8 88.5 65.1 89.2 65.1 90.2C65.1 91.2 65.8 91.9 66.6 91.9C67.5 91.9 68.1 91.2 68.1 90.2Z" fill="white"/>
<path d="M70.2002 91.2996C70.2002 90.1996 71.1002 89.5996 72.3002 89.5996C72.9002 89.5996 73.3002 89.6996 73.7002 89.7996V89.6996C73.7002 88.9996 73.2002 88.5996 72.4002 88.5996C71.8002 88.5996 71.4002 88.6996 70.9002 88.8996L70.6002 87.9996C71.2002 87.6996 71.7002 87.5996 72.5002 87.5996C73.3002 87.5996 73.8002 87.7996 74.2002 88.1996C74.6002 88.5996 74.8002 89.0996 74.8002 89.7996V92.8996H73.6002V92.2996C73.2002 92.6996 72.7002 93.0996 71.9002 93.0996C71.1002 92.8996 70.2002 92.2996 70.2002 91.2996ZM73.7002 90.8996V90.5996C73.4002 90.4996 73.0002 90.3996 72.5002 90.3996C71.7002 90.3996 71.3002 90.6996 71.3002 91.2996C71.3002 91.7996 71.7002 92.0996 72.3002 92.0996C73.2002 91.9996 73.7002 91.5996 73.7002 90.8996Z" fill="white"/>
<path d="M76.2998 87.6H77.4998V88.8C77.7998 88 78.3998 87.5 79.2998 87.5V88.8H79.1998C78.1998 88.8 77.3998 89.5 77.3998 90.8V92.8H76.2998V87.6Z" fill="white"/>
<path d="M80.6004 91.3998V88.6998H79.9004V87.6998H80.6004V86.2998H81.8004V87.5998H83.2004V88.5998H81.8004V91.0998C81.8004 91.5998 82.0004 91.6998 82.4004 91.6998C82.7004 91.6998 82.9004 91.5998 83.1004 91.4998V92.4998C82.8004 92.6998 82.5004 92.7998 82.0004 92.7998C81.2004 92.8998 80.6004 92.4998 80.6004 91.3998Z" fill="white"/>
<path d="M84.2998 87.6H85.4998V88.4C85.7998 87.9 86.2998 87.5 87.0998 87.5C87.7998 87.5 88.3998 87.9 88.5998 88.4C88.9998 87.9 89.5998 87.5 90.2998 87.5C91.3998 87.5 92.0998 88.2 92.0998 89.5V92.8H90.8998V89.9C90.8998 89.1 90.4998 88.6 89.8998 88.6C89.2998 88.6 88.7998 89.1 88.7998 89.9V92.8H87.5998V89.9C87.5998 89.1 87.1998 88.6 86.5998 88.6C85.8998 88.6 85.4998 89.1 85.4998 89.9V92.8H84.2998V87.6Z" fill="white"/>
<path d="M93.2998 90.2C93.2998 88.7 94.2998 87.5 95.7998 87.5C97.3998 87.5 98.2998 88.8 98.2998 90.3C98.2998 90.4 98.2998 90.5 98.2998 90.6H94.4998C94.5998 91.4 95.1998 91.9 95.9998 91.9C96.5998 91.9 96.9998 91.7 97.3998 91.3L98.0998 91.9C97.5998 92.5 96.8998 92.9 95.9998 92.9C94.4998 92.9 93.2998 91.8 93.2998 90.2ZM97.1998 89.9C97.0998 89.1 96.6998 88.5 95.8998 88.5C95.1998 88.5 94.6998 89.1 94.5998 89.9H97.1998Z" fill="white"/>
<path d="M99.5004 87.6H100.7V88.4C101 87.9 101.5 87.5 102.3 87.5C103.5 87.5 104.1 88.3 104.1 89.5V92.8H102.9V89.9C102.9 89.1 102.5 88.6 101.8 88.6C101.1 88.6 100.6 89.1 100.6 89.9V92.8H99.4004V87.6H99.5004Z" fill="white"/>
<path d="M105.8 91.3998V88.6998H105.1V87.6998H105.8V86.2998H107V87.5998H108.4V88.5998H107V91.0998C107 91.5998 107.2 91.6998 107.6 91.6998C107.9 91.6998 108.1 91.5998 108.3 91.4998V92.4998C108 92.6998 107.7 92.7998 107.2 92.7998C106.4 92.8998 105.8 92.4998 105.8 91.3998Z" fill="white"/>
<path d="M154.8 86H156.1L158.1 89.2L160.2 86H161.5V92.8H160.3V87.9L158.1 91.1L156 87.9V92.8H154.8V86Z" fill="white"/>
<path d="M162.8 90.2996C162.8 88.7996 164 87.5996 165.6 87.5996C167.2 87.5996 168.3 88.7996 168.3 90.2996C168.3 91.7996 167.1 92.9996 165.5 92.9996C164 92.8996 162.8 91.6996 162.8 90.2996ZM167.2 90.2996C167.2 89.3996 166.5 88.5996 165.6 88.5996C164.7 88.5996 164 89.2996 164 90.1996C164 91.0996 164.7 91.8996 165.6 91.8996C166.5 91.8996 167.2 91.0996 167.2 90.2996Z" fill="white"/>
<path d="M169.3 90.1996C169.3 88.4996 170.5 87.4996 171.7 87.4996C172.6 87.4996 173.1 87.8996 173.5 88.3996V85.5996H174.7V92.6996H173.5V91.7996C173.1 92.2996 172.6 92.7996 171.7 92.7996C170.5 92.8996 169.3 91.8996 169.3 90.1996ZM173.4 90.1996C173.4 89.1996 172.7 88.4996 171.9 88.4996C171.1 88.4996 170.4 89.0996 170.4 90.1996C170.4 91.1996 171.1 91.8996 171.9 91.8996C172.7 91.8996 173.4 91.1996 173.4 90.1996Z" fill="white"/>
<path d="M175.8 90.2C175.8 88.7 176.8 87.5 178.3 87.5C179.9 87.5 180.8 88.8 180.8 90.3C180.8 90.4 180.8 90.5 180.8 90.6H177C177.1 91.4 177.7 91.9 178.5 91.9C179.1 91.9 179.5 91.7 179.9 91.3L180.6 91.9C180.1 92.5 179.4 92.9 178.5 92.9C177 92.9 175.8 91.8 175.8 90.2ZM179.6 89.9C179.5 89.1 179.1 88.5 178.3 88.5C177.6 88.5 177.1 89.1 177 89.9H179.6Z" fill="white"/>
<path d="M70.2002 70.3004H79.1002V51.4004H70.2002V70.3004ZM77.6002 62.0004H71.6002V52.8004H77.6002V62.0004ZM71.6002 63.3004H77.6002V68.8004H71.6002V63.3004Z" fill="#F2A900"/>
<path d="M0 1H227.5" stroke="white" stroke-width="2" stroke-miterlimit="10"/>
<path d="M0 128.3H227.5" stroke="white" stroke-width="2" stroke-miterlimit="10"/>
<path d="M168.125 67.5996C167.898 67.5996 167.67 67.4915 167.556 67.3834C167.214 67.0591 167.214 66.6266 167.556 66.3023L173.022 61.1131L167.556 55.9239C167.214 55.5996 167.214 55.0591 167.556 54.8429C167.898 54.5185 168.353 54.5185 168.695 54.8429L175.3 61.1131L168.695 67.3834C168.581 67.4915 168.353 67.5996 168.125 67.5996Z" fill="white"/>
<path d="M163.022 67.5996C162.823 67.5996 162.624 67.4915 162.524 67.3834C162.225 67.0591 162.225 66.6266 162.524 66.3023L167.307 61.1131L162.524 55.9239C162.225 55.5996 162.225 55.0591 162.524 54.8429C162.823 54.5185 163.222 54.5185 163.52 54.8429L169.3 61.1131L163.52 67.3834C163.421 67.4915 163.222 67.5996 163.022 67.5996Z" fill="white"/>
<path d="M168.1 76.1996C176.826 76.1996 183.9 69.1257 183.9 60.3996C183.9 51.6735 176.826 44.5996 168.1 44.5996C159.374 44.5996 152.3 51.6735 152.3 60.3996C152.3 69.1257 159.374 76.1996 168.1 76.1996Z" stroke="white" stroke-miterlimit="10"/>
</svg>
