<svg width="30" height="75" viewBox="0 0 30 75" fill="none" xmlns="http://www.w3.org/2000/svg">
<g clip-path="url(#clip0)">
<path d="M28.7 41.2H1V74H28.7V41.2Z" fill="#F1A91E"/>
<path d="M28.7 1H1V74H28.7V1Z" stroke="white" stroke-width="2" stroke-linejoin="round"/>
<path d="M28.7 41.6001H1V74.0001H28.7V41.6001Z" stroke="white" stroke-width="2" stroke-linejoin="round"/>
<path d="M14.8 50.5999C16.2359 50.5999 17.4 49.4358 17.4 47.9999C17.4 46.564 16.2359 45.3999 14.8 45.3999C13.364 45.3999 12.2 46.564 12.2 47.9999C12.2 49.4358 13.364 50.5999 14.8 50.5999Z" stroke="white" stroke-miterlimit="10"/>
<path d="M22.2999 50.5999C23.7359 50.5999 24.9 49.4358 24.9 47.9999C24.9 46.564 23.7359 45.3999 22.2999 45.3999C20.864 45.3999 19.7 46.564 19.7 47.9999C19.7 49.4358 20.864 50.5999 22.2999 50.5999Z" stroke="white" stroke-miterlimit="10"/>
<path d="M7.40005 50.5999C8.83599 50.5999 10 49.4358 10 47.9999C10 46.564 8.83599 45.3999 7.40005 45.3999C5.96411 45.3999 4.80005 46.564 4.80005 47.9999C4.80005 49.4358 5.96411 50.5999 7.40005 50.5999Z" stroke="white" stroke-miterlimit="10"/>
<path d="M14.8 60.2C16.2359 60.2 17.4 59.0359 17.4 57.6C17.4 56.1641 16.2359 55 14.8 55C13.364 55 12.2 56.1641 12.2 57.6C12.2 59.0359 13.364 60.2 14.8 60.2Z" stroke="white" stroke-miterlimit="10"/>
<path d="M22.2999 60.2C23.7359 60.2 24.9 59.0359 24.9 57.6C24.9 56.1641 23.7359 55 22.2999 55C20.864 55 19.7 56.1641 19.7 57.6C19.7 59.0359 20.864 60.2 22.2999 60.2Z" stroke="white" stroke-miterlimit="10"/>
<path d="M7.40005 60.2C8.83599 60.2 10 59.0359 10 57.6C10 56.1641 8.83599 55 7.40005 55C5.96411 55 4.80005 56.1641 4.80005 57.6C4.80005 59.0359 5.96411 60.2 7.40005 60.2Z" stroke="white" stroke-miterlimit="10"/>
<path d="M14.8 69.8001C16.2359 69.8001 17.4 68.636 17.4 67.2001C17.4 65.7642 16.2359 64.6001 14.8 64.6001C13.364 64.6001 12.2 65.7642 12.2 67.2001C12.2 68.636 13.364 69.8001 14.8 69.8001Z" stroke="white" stroke-miterlimit="10"/>
<path d="M22.2999 69.8001C23.7359 69.8001 24.9 68.636 24.9 67.2001C24.9 65.7642 23.7359 64.6001 22.2999 64.6001C20.864 64.6001 19.7 65.7642 19.7 67.2001C19.7 68.636 20.864 69.8001 22.2999 69.8001Z" stroke="white" stroke-miterlimit="10"/>
<path d="M7.40005 69.8001C8.83599 69.8001 10 68.636 10 67.2001C10 65.7642 8.83599 64.6001 7.40005 64.6001C5.96411 64.6001 4.80005 65.7642 4.80005 67.2001C4.80005 68.636 5.96411 69.8001 7.40005 69.8001Z" stroke="white" stroke-miterlimit="10"/>
<path d="M14.8 9.5999C16.2359 9.5999 17.4 8.43584 17.4 6.9999C17.4 5.56396 16.2359 4.3999 14.8 4.3999C13.364 4.3999 12.2 5.56396 12.2 6.9999C12.2 8.43584 13.364 9.5999 14.8 9.5999Z" stroke="white" stroke-miterlimit="10"/>
<path d="M22.2999 9.5999C23.7359 9.5999 24.9 8.43584 24.9 6.9999C24.9 5.56396 23.7359 4.3999 22.2999 4.3999C20.864 4.3999 19.7 5.56396 19.7 6.9999C19.7 8.43584 20.864 9.5999 22.2999 9.5999Z" stroke="white" stroke-miterlimit="10"/>
<path d="M7.40005 9.5999C8.83599 9.5999 10 8.43584 10 6.9999C10 5.56396 8.83599 4.3999 7.40005 4.3999C5.96411 4.3999 4.80005 5.56396 4.80005 6.9999C4.80005 8.43584 5.96411 9.5999 7.40005 9.5999Z" stroke="white" stroke-miterlimit="10"/>
<path d="M14.8 19.0999C16.2359 19.0999 17.4 17.9358 17.4 16.4999C17.4 15.064 16.2359 13.8999 14.8 13.8999C13.364 13.8999 12.2 15.064 12.2 16.4999C12.2 17.9358 13.364 19.0999 14.8 19.0999Z" stroke="white" stroke-miterlimit="10"/>
<path d="M22.2999 19.0999C23.7359 19.0999 24.9 17.9358 24.9 16.4999C24.9 15.064 23.7359 13.8999 22.2999 13.8999C20.864 13.8999 19.7 15.064 19.7 16.4999C19.7 17.9358 20.864 19.0999 22.2999 19.0999Z" stroke="white" stroke-miterlimit="10"/>
<path d="M7.40005 19.0999C8.83599 19.0999 10 17.9358 10 16.4999C10 15.064 8.83599 13.8999 7.40005 13.8999C5.96411 13.8999 4.80005 15.064 4.80005 16.4999C4.80005 17.9358 5.96411 19.0999 7.40005 19.0999Z" stroke="white" stroke-miterlimit="10"/>
<path d="M14.8 28.7C16.2359 28.7 17.4 27.5359 17.4 26.1C17.4 24.6641 16.2359 23.5 14.8 23.5C13.364 23.5 12.2 24.6641 12.2 26.1C12.2 27.5359 13.364 28.7 14.8 28.7Z" stroke="white" stroke-miterlimit="10"/>
<path d="M22.2999 28.7C23.7359 28.7 24.9 27.5359 24.9 26.1C24.9 24.6641 23.7359 23.5 22.2999 23.5C20.864 23.5 19.7 24.6641 19.7 26.1C19.7 27.5359 20.864 28.7 22.2999 28.7Z" stroke="white" stroke-miterlimit="10"/>
<path d="M7.40005 28.7C8.83599 28.7 10 27.5359 10 26.1C10 24.6641 8.83599 23.5 7.40005 23.5C5.96411 23.5 4.80005 24.6641 4.80005 26.1C4.80005 27.5359 5.96411 28.7 7.40005 28.7Z" stroke="white" stroke-miterlimit="10"/>
<path d="M14.8 38.3001C16.2359 38.3001 17.4 37.136 17.4 35.7001C17.4 34.2642 16.2359 33.1001 14.8 33.1001C13.364 33.1001 12.2 34.2642 12.2 35.7001C12.2 37.136 13.364 38.3001 14.8 38.3001Z" stroke="white" stroke-miterlimit="10"/>
<path d="M22.2999 38.3001C23.7359 38.3001 24.9 37.136 24.9 35.7001C24.9 34.2642 23.7359 33.1001 22.2999 33.1001C20.864 33.1001 19.7 34.2642 19.7 35.7001C19.7 37.136 20.864 38.3001 22.2999 38.3001Z" stroke="white" stroke-miterlimit="10"/>
<path d="M7.40005 38.3001C8.83599 38.3001 10 37.136 10 35.7001C10 34.2642 8.83599 33.1001 7.40005 33.1001C5.96411 33.1001 4.80005 34.2642 4.80005 35.7001C4.80005 37.136 5.96411 38.3001 7.40005 38.3001Z" stroke="white" stroke-miterlimit="10"/>
</g>
<defs>
<clipPath id="clip0">
<rect width="29.7" height="75" fill="white"/>
</clipPath>
</defs>
</svg>
