<svg width="339" height="94" viewBox="0 0 339 94" fill="none" xmlns="http://www.w3.org/2000/svg">
<path d="M336.52 94H2.36748C1.01463 94 0 92.8756 0 91.6388V2.36124C0 1.1244 1.12737 0 2.36748 0H336.52C337.873 0 338.887 1.1244 338.887 2.36124V91.5263C339 92.8756 337.873 94 336.52 94ZM2.36748 2.2488L2.25474 2.36124V91.5263C2.25474 91.6388 2.36748 91.6388 2.36748 91.6388H336.52C336.633 91.6388 336.633 91.5263 336.633 91.5263V2.36124C336.633 2.2488 336.52 2.2488 336.52 2.2488H2.36748Z" fill="white"/>
<path d="M12.8516 38.6794H14.3171C15.219 38.6794 15.7827 39.1292 15.7827 39.9163C15.7827 40.7034 15.1063 41.1531 14.2044 41.1531H13.3025V42.5024H12.8516V38.6794ZM14.2044 40.8158C14.8808 40.8158 15.219 40.4785 15.219 39.9163C15.219 39.3541 14.7681 39.1292 14.2044 39.1292H13.1898V40.8158H14.2044Z" fill="white"/>
<path d="M17.587 38.6794H18.0379L19.8417 42.6148H19.3908L18.8271 41.6029H16.6851L16.2342 42.6148H15.7832L17.587 38.6794ZM18.7144 41.1531L17.8125 39.1292L16.9106 41.1531H18.7144Z" fill="white"/>
<path d="M20.1797 42.0526L20.4052 41.7153C20.8561 42.0526 21.1943 42.2775 21.758 42.2775C22.3217 42.2775 22.6599 42.0526 22.6599 41.6029C22.6599 41.2656 22.4344 41.0407 21.6453 40.8158C20.7434 40.5909 20.2924 40.366 20.2924 39.6914C20.2924 39.1292 20.8561 38.6794 21.5325 38.6794C22.0962 38.6794 22.5472 38.7919 22.8854 39.1292L22.6599 39.4665C22.3217 39.1292 21.9835 39.0168 21.5325 39.0168C21.0816 39.0168 20.7434 39.2416 20.7434 39.6914C20.7434 40.0287 20.9688 40.2536 21.758 40.4785C22.6599 40.7034 22.9981 40.9282 22.9981 41.6029C22.9981 42.2775 22.4344 42.7273 21.6453 42.7273C21.1943 42.6148 20.6306 42.39 20.1797 42.0526Z" fill="white"/>
<path d="M23.6738 42.0526L23.8993 41.7153C24.3503 42.0526 24.6885 42.2775 25.2521 42.2775C25.8158 42.2775 26.154 42.0526 26.154 41.6029C26.154 41.2656 25.9286 41.0407 25.1394 40.8158C24.2375 40.5909 23.7866 40.366 23.7866 39.6914C23.7866 39.1292 24.3503 38.6794 25.0267 38.6794C25.5904 38.6794 26.0413 38.7919 26.3795 39.1292L26.154 39.4665C25.8158 39.1292 25.4776 39.0168 25.0267 39.0168C24.5757 39.0168 24.2375 39.2416 24.2375 39.6914C24.2375 40.0287 24.463 40.2536 25.2521 40.4785C26.154 40.7034 26.4923 40.9282 26.4923 41.6029C26.4923 42.2775 25.9286 42.7273 25.1394 42.7273C24.6885 42.6148 24.1248 42.39 23.6738 42.0526Z" fill="white"/>
<path d="M27.0566 38.6794H27.5076L28.635 41.9402L29.6496 38.6794H29.9878L31.0024 41.9402L32.1298 38.6794H32.6935L31.3406 42.6148H31.0024L29.9878 39.4665L28.9732 42.6148H28.635L27.0566 38.6794Z" fill="white"/>
<path d="M33.1445 40.7034C33.1445 39.579 33.9337 38.6794 35.1738 38.6794C36.3012 38.6794 37.2031 39.579 37.2031 40.7034C37.2031 41.7153 36.4139 42.7273 35.1738 42.7273C33.9337 42.6148 33.1445 41.7153 33.1445 40.7034ZM36.6394 40.7034C36.6394 39.8038 35.963 39.1292 35.0611 39.1292C34.1592 39.1292 33.5955 39.8038 33.5955 40.7034C33.5955 41.6029 34.2719 42.2775 35.1738 42.2775C36.0757 42.2775 36.6394 41.4904 36.6394 40.7034Z" fill="white"/>
<path d="M37.9922 38.6794H39.6832C40.1342 38.6794 40.5851 38.7919 40.8106 39.0168C41.0361 39.2416 41.1488 39.4665 41.1488 39.8038C41.1488 40.4785 40.6979 40.8158 40.1342 40.9282L41.3743 42.5024H40.8106L39.6832 41.0407H38.5559V42.5024H38.1049V38.6794H37.9922ZM39.6832 40.7034C40.2469 40.7034 40.6979 40.366 40.6979 39.9163C40.6979 39.4665 40.3597 39.1292 39.6832 39.1292H38.4431V40.7034H39.6832Z" fill="white"/>
<path d="M42.0508 38.6794H43.4036C44.6437 38.6794 45.4329 39.4665 45.4329 40.5909C45.4329 41.7153 44.6437 42.5024 43.4036 42.5024H42.0508V38.6794ZM42.5017 39.1292V42.1651H43.4036C44.4183 42.1651 44.9819 41.4904 44.9819 40.5909C44.9819 39.6914 44.3055 39.0168 43.4036 39.0168H42.5017V39.1292Z" fill="white"/>
<path d="M46.334 39.6914H46.8977V40.2536H46.334V39.6914ZM46.334 41.9402H46.8977V42.5024H46.334V41.9402Z" fill="white"/>
<path d="M139.117 38.6794H139.568L141.034 40.8158L142.499 38.6794H142.95V42.5024H142.499V39.3541L141.034 41.378L139.568 39.3541V42.5024H139.117V38.6794Z" fill="white"/>
<path d="M145.317 38.6794H145.768L147.572 42.6148H147.121L146.558 41.6029H144.416L143.965 42.6148H143.514L145.317 38.6794ZM146.445 41.1531L145.543 39.1292L144.641 41.1531H146.445Z" fill="white"/>
<path d="M147.911 40.7034C147.911 39.579 148.7 38.6794 149.828 38.6794C150.504 38.6794 150.955 38.9043 151.293 39.2416L150.955 39.579C150.617 39.2416 150.279 39.0168 149.715 39.0168C148.813 39.0168 148.249 39.6914 148.249 40.5909C148.249 41.4904 148.926 42.1651 149.715 42.1651C150.279 42.1651 150.617 41.9402 150.955 41.6029L151.293 41.9402C150.842 42.39 150.391 42.6148 149.715 42.6148C148.7 42.6148 147.911 41.7153 147.911 40.7034Z" fill="white"/>
<path d="M153.886 38.6794H154.337V42.5024H153.886V38.6794Z" fill="white"/>
<path d="M155.464 38.6794H156.817C158.057 38.6794 158.846 39.4665 158.846 40.5909C158.846 41.7153 158.057 42.5024 156.817 42.5024H155.464V38.6794ZM155.915 39.1292V42.1651H156.817C157.831 42.1651 158.395 41.4904 158.395 40.5909C158.395 39.6914 157.719 39.0168 156.817 39.0168H155.915V39.1292Z" fill="white"/>
<path d="M159.636 39.6914H160.199V40.2536H159.636V39.6914ZM159.636 41.9402H160.199V42.5024H159.636V41.9402Z" fill="white"/>
<path d="M21.8706 46.2129L17.8121 51.61L21.9834 57.232H20.5178L17.0229 52.5095L13.5281 57.232H12.0625L16.2338 51.61L12.1752 46.2129H13.6408L17.0229 50.7105L20.405 46.2129H21.8706Z" fill="white"/>
<path d="M33.2573 46.2129L29.1988 51.61L33.3701 57.232H31.9045L28.4096 52.5095L24.9148 57.232H23.4492L27.6205 51.61L23.6747 46.2129H25.1403L28.5224 50.7105L31.9045 46.2129H33.2573Z" fill="white"/>
<path d="M44.6431 46.2129L40.5845 51.61L44.7558 57.232H43.2902L39.7954 52.5095L36.3005 57.232H34.835L39.0062 51.61L34.9477 46.2129H36.4133L39.7954 50.7105L43.1775 46.2129H44.6431Z" fill="white"/>
<path d="M56.0298 46.2129L51.9713 51.61L56.1425 57.232H54.677L51.1821 52.5095L47.6873 57.232H46.2217L50.3929 51.61L46.3344 46.2129H47.8L51.1821 50.7105L54.5642 46.2129H56.0298Z" fill="white"/>
<path d="M67.4165 46.2129L63.358 51.61L67.5293 57.232H66.0637L62.5688 52.5095L59.074 57.232H57.6084L61.7797 51.61L57.7211 46.2129H59.1867L62.5688 50.7105L65.9509 46.2129H67.4165Z" fill="white"/>
<path d="M78.8032 46.2129L74.7447 51.61L78.916 57.232H77.4504L73.9555 52.5095L70.4607 57.232H68.9951L73.1664 51.61L69.1079 46.2129H70.5734L73.9555 50.7105L77.3377 46.2129H78.8032Z" fill="white"/>
<path d="M90.3023 46.2129L86.2437 51.61L90.415 57.232H88.9494L85.4546 52.5095L81.9597 57.232H80.4941L84.6654 51.61L80.6069 46.2129H82.0725L85.4546 50.7105L88.8367 46.2129H90.3023Z" fill="white"/>
<path d="M101.688 46.2129L97.6295 51.61L101.801 57.232H100.335L96.8403 52.5095L93.3455 57.232H91.8799L96.0511 51.61L91.9926 46.2129H93.4582L96.8403 50.7105L100.222 46.2129H101.688Z" fill="white"/>
<path d="M147.911 46.2129L143.852 51.61L148.023 57.232H146.558L143.063 52.5095L139.568 57.232H138.103L142.274 51.61L138.215 46.2129H139.681L143.063 50.7105L146.445 46.2129H147.911Z" fill="white"/>
<path d="M159.297 46.2129L155.239 51.61L159.41 57.232H157.945L154.45 52.5095L150.955 57.232H149.489L153.661 51.61L149.602 46.2129H151.068L154.45 50.7105L157.832 46.2129H159.297Z" fill="white"/>
<path d="M175.418 46.2129L171.36 51.61L175.531 57.232H174.066L170.571 52.5095L167.076 57.232H165.61L169.782 51.61L165.723 46.2129H167.189L170.571 50.7105L173.953 46.2129H175.418Z" fill="white"/>
<path d="M186.805 46.2129L182.747 51.61L186.918 57.232H185.452L181.957 52.5095L178.463 57.232H176.997L181.168 51.61L177.11 46.2129H178.575L181.957 50.7105L185.34 46.2129H186.805Z" fill="white"/>
<path d="M202.926 46.2129L198.868 51.61L203.039 57.232H201.573L198.079 52.5095L194.584 57.232H193.118L197.289 51.61L193.231 46.2129H194.696L198.079 50.7105L201.461 46.2129H202.926Z" fill="white"/>
<path d="M214.313 46.2129L210.254 51.61L214.426 57.232H212.96L209.465 52.5095L205.97 57.232H204.505L208.676 51.61L204.618 46.2129H206.083L209.465 50.7105L212.847 46.2129H214.313Z" fill="white"/>
<path d="M230.434 46.2129L226.376 51.61L230.547 57.232H229.081L225.586 52.5095L222.092 57.232H220.626L224.797 51.61L220.739 46.2129H222.204L225.586 50.7105L228.969 46.2129H230.434Z" fill="white"/>
<path d="M241.821 46.2129L237.762 51.61L241.934 57.232H240.468L236.973 52.5095L233.478 57.232H232.013L236.184 51.61L232.125 46.2129H233.591L236.973 50.7105L240.355 46.2129H241.821Z" fill="white"/>
<path d="M257.942 46.2129L253.883 51.61L258.055 57.232H256.589L253.094 52.5095L249.599 57.232H248.134L252.305 51.61L248.247 46.2129H249.712L253.094 50.7105L256.476 46.2129H257.942Z" fill="white"/>
<path d="M269.329 46.2129L265.27 51.61L269.441 57.232H267.976L264.481 52.5095L260.986 57.232H259.521L263.692 51.61L259.633 46.2129H261.099L264.481 50.7105L267.863 46.2129H269.329Z" fill="white"/>
<path d="M285.45 46.2129L281.391 51.61L285.562 57.232H284.097L280.602 52.5095L277.107 57.232H275.642L279.813 51.61L275.754 46.2129H277.22L280.602 50.7105L283.984 46.2129H285.45Z" fill="white"/>
<path d="M295.596 46.2129L291.538 51.61L295.709 57.232H294.243L290.749 52.5095L287.254 57.232H285.788L289.959 51.61L285.901 46.2129H287.366L290.749 50.7105L294.131 46.2129H295.596Z" fill="white"/>
<path d="M136.637 73.311C136.637 72.1866 137.426 71.2871 138.553 71.2871C139.23 71.2871 139.681 71.512 140.019 71.8493L139.681 72.1866C139.342 71.8493 139.004 71.6244 138.441 71.6244C137.539 71.6244 136.975 72.2991 136.975 73.1986C136.975 74.0981 137.651 74.7728 138.441 74.7728C139.004 74.7728 139.342 74.5479 139.681 74.2106L140.019 74.5479C139.568 74.9976 139.117 75.2225 138.441 75.2225C137.426 75.335 136.637 74.4354 136.637 73.311Z" fill="white"/>
<path d="M140.582 73.311C140.582 72.1866 141.371 71.2871 142.611 71.2871C143.851 71.2871 144.641 72.1866 144.641 73.311C144.641 74.323 143.851 75.335 142.611 75.335C141.371 75.335 140.582 74.323 140.582 73.311ZM144.077 73.311C144.077 72.4115 143.4 71.7369 142.499 71.7369C141.597 71.7369 141.033 72.4115 141.033 73.311C141.033 74.2105 141.709 74.8852 142.611 74.8852C143.513 74.8852 144.077 74.2105 144.077 73.311Z" fill="white"/>
<path d="M145.431 71.3997H145.882L148.362 74.548V71.3997H148.813V75.2226H148.475L145.994 72.0743V75.2226H145.431V71.3997Z" fill="white"/>
<path d="M150.841 71.7369H149.488V71.2871H152.532V71.7369H151.179V75.2225H150.728V71.7369H150.841Z" fill="white"/>
<path d="M154.449 71.2871H154.9L156.704 75.2225H156.253L155.802 74.2106H153.66L153.209 75.2225H152.758L154.449 71.2871ZM155.463 73.7608L154.562 71.7369L153.66 73.7608H155.463Z" fill="white"/>
<path d="M157.38 71.3997H157.831V75.2226H157.38V71.3997Z" fill="white"/>
<path d="M158.959 71.3997H159.41L161.89 74.548V71.3997H162.341V75.2226H162.003L159.523 72.0743V75.2226H158.959V71.3997Z" fill="white"/>
<path d="M163.13 74.6603L163.355 74.323C163.806 74.6603 164.145 74.8852 164.708 74.8852C165.272 74.8852 165.61 74.6603 165.61 74.2106C165.61 73.8732 165.385 73.6484 164.595 73.4235C163.694 73.1986 163.243 72.9737 163.243 72.2991C163.243 71.7369 163.806 71.2871 164.483 71.2871C165.046 71.2871 165.497 71.3995 165.836 71.7369L165.61 72.0742C165.272 71.7369 164.934 71.6244 164.483 71.6244C164.032 71.6244 163.694 71.8493 163.694 72.2991C163.694 72.6364 163.919 72.8613 164.708 73.0862C165.61 73.311 165.948 73.5359 165.948 74.2106C165.948 74.8852 165.385 75.335 164.595 75.335C164.032 75.335 163.581 75.1101 163.13 74.6603Z" fill="white"/>
<path d="M168.541 71.3997H168.992V75.2226H168.541V71.3997Z" fill="white"/>
<path d="M170.007 73.311C170.007 72.1866 170.796 71.2871 171.923 71.2871C172.6 71.2871 173.051 71.512 173.389 71.8493L173.051 72.1866C172.713 71.8493 172.374 71.6244 171.811 71.6244C170.909 71.6244 170.345 72.2991 170.345 73.1986C170.345 74.0981 171.021 74.7728 171.811 74.7728C172.374 74.7728 172.713 74.5479 173.051 74.2106L173.389 74.5479C172.938 74.9976 172.487 75.2225 171.811 75.2225C170.796 75.335 170.007 74.4354 170.007 73.311Z" fill="white"/>
<path d="M174.178 72.4116H174.741V72.9738H174.178V72.4116ZM174.178 74.6604H174.741V75.2226H174.178V74.6604Z" fill="white"/>
<path d="M140.02 77.9211L138.667 79.8326L140.02 81.8566H139.231L138.216 80.3948L137.201 81.8566H136.412L137.765 79.8326L136.412 77.9211H137.201L138.216 79.2704L139.231 77.9211H140.02Z" fill="white"/>
<path d="M144.078 77.9211L142.725 79.8326L144.078 81.8566H143.289L142.274 80.3948L141.26 81.8566H140.471L141.824 79.8326L140.471 77.9211H141.26L142.274 79.2704L143.289 77.9211H144.078Z" fill="white"/>
<path d="M148.137 77.9211L146.784 79.8326L148.137 81.8566H147.348L146.333 80.3948L145.318 81.8566H144.529L145.882 79.8326L144.529 77.9211H145.318L146.333 79.2704L147.348 77.9211H148.137Z" fill="white"/>
<path d="M152.195 77.9211L150.843 79.8326L152.195 81.8566H151.406L150.392 80.3948L149.377 81.8566H148.588L149.941 79.8326L148.588 77.9211H149.377L150.392 79.2704L151.406 77.9211H152.195Z" fill="white"/>
<path d="M156.141 77.9211L154.788 79.8326L156.141 81.8566H155.352L154.337 80.3948L153.322 81.8566H152.533L153.886 79.8326L152.533 77.9211H153.322L154.337 79.2704L155.352 77.9211H156.141Z" fill="white"/>
<path d="M160.2 77.9211L158.847 79.8326L160.2 81.8566H159.411L158.396 80.3948L157.382 81.8566H156.705L158.058 79.8326L156.705 77.9211H157.494L158.509 79.2704L159.523 77.9211H160.2Z" fill="white"/>
<path d="M162.454 79.7202H164.709V80.3949H162.454V79.7202Z" fill="white"/>
<path d="M170.571 77.9211L169.219 79.8326L170.571 81.8566H169.782L168.768 80.3948L167.753 81.8566H166.964L168.317 79.8326L166.964 77.9211H167.753L168.768 79.2704L169.782 77.9211H170.571Z" fill="white"/>
<path d="M174.404 77.9211L173.052 79.8326L174.404 81.8566H173.615L172.601 80.3948L171.586 81.8566H170.797L172.15 79.8326L170.797 77.9211H171.586L172.601 79.2704L173.615 77.9211H174.404Z" fill="white"/>
<path d="M178.237 77.9211L176.885 79.8326L178.237 81.8566H177.448L176.434 80.3948L175.419 81.8566H174.63L175.983 79.8326L174.63 77.9211H175.419L176.434 79.2704L177.448 77.9211H178.237Z" fill="white"/>
<path d="M181.733 77.9211L180.38 79.8326L181.733 81.8566H180.943L179.929 80.3948L178.914 81.8566H178.125L179.478 79.8326L178.125 77.9211H178.914L179.929 79.2704L180.943 77.9211H181.733Z" fill="white"/>
<path d="M185.227 77.9211L183.874 79.8326L185.227 81.8566H184.438L183.423 80.3948L182.408 81.8566H181.619L182.972 79.8326L181.619 77.9211H182.408L183.423 79.2704L184.438 77.9211H185.227Z" fill="white"/>
<path d="M188.835 77.9211L187.482 79.8326L188.835 81.8566H188.046L187.031 80.3948L186.017 81.8566H185.228L186.58 79.8326L185.228 77.9211H186.017L187.031 79.2704L188.046 77.9211H188.835Z" fill="white"/>
<path d="M192.894 77.9211L191.541 79.8326L192.894 81.8566H192.105L191.09 80.3948L190.075 81.8566H189.286L190.639 79.8326L189.286 77.9211H190.075L191.09 79.2704L192.105 77.9211H192.894Z" fill="white"/>
<path d="M196.952 77.9211L195.599 79.8326L196.952 81.8566H196.163L195.149 80.3948L194.134 81.8566H193.345L194.698 79.8326L193.345 77.9211H194.134L195.149 79.2704L196.163 77.9211H196.952Z" fill="white"/>
<path d="M75.5342 73.311C75.5342 72.1866 76.3233 71.2871 77.4507 71.2871C78.1271 71.2871 78.5781 71.512 78.9163 71.8493L78.5781 72.1866C78.2399 71.8493 77.9016 71.6244 77.338 71.6244C76.4361 71.6244 75.8724 72.2991 75.8724 73.1986C75.8724 74.0981 76.5488 74.7728 77.338 74.7728C77.9016 74.7728 78.2399 74.5479 78.5781 74.2106L78.9163 74.5479C78.4653 74.9976 78.0144 75.2225 77.338 75.2225C76.3233 75.335 75.5342 74.4354 75.5342 73.311Z" fill="white"/>
<path d="M79.4795 73.311C79.4795 72.1866 80.2687 71.2871 81.5088 71.2871C82.6361 71.2871 83.538 72.1866 83.538 73.311C83.538 74.323 82.7489 75.335 81.5088 75.335C80.2687 75.335 79.4795 74.323 79.4795 73.311ZM82.9743 73.311C82.9743 72.4115 82.2979 71.7369 81.396 71.7369C80.4941 71.7369 79.9304 72.4115 79.9304 73.311C79.9304 74.2105 80.6069 74.8852 81.5088 74.8852C82.2979 74.8852 82.9743 74.2105 82.9743 73.311Z" fill="white"/>
<path d="M84.3281 71.3997H84.7791L87.2593 74.548V71.3997H87.7102V75.2226H87.372L84.8918 72.0743V75.2226H84.4409V71.3997H84.3281Z" fill="white"/>
<path d="M89.7386 71.7369H88.3857V71.2871H91.4296V71.7369H90.1895V75.2225H89.7386V71.7369Z" fill="white"/>
<path d="M93.234 71.2871H93.685L95.4888 75.2225H95.0378L94.5869 74.2106H92.4449L91.9939 75.2225H91.543L93.234 71.2871ZM94.3614 73.7608L93.4595 71.7369L92.5576 73.7608H94.3614Z" fill="white"/>
<path d="M96.2773 71.3997H96.7283V75.2226H96.2773V71.3997Z" fill="white"/>
<path d="M97.8564 71.3997H98.3074L100.788 74.548V71.3997H101.239V75.2226H100.9L98.4201 72.0743V75.2226H97.9692V71.3997H97.8564Z" fill="white"/>
<path d="M101.915 74.6603L102.141 74.323C102.591 74.6603 102.93 74.8852 103.493 74.8852C104.057 74.8852 104.395 74.6603 104.395 74.2106C104.395 73.8732 104.17 73.6484 103.381 73.4235C102.479 73.1986 102.028 72.9737 102.028 72.2991C102.028 71.7369 102.591 71.2871 103.268 71.2871C103.832 71.2871 104.283 71.3995 104.621 71.7369L104.395 72.0742C104.057 71.7369 103.719 71.6244 103.268 71.6244C102.817 71.6244 102.479 71.8493 102.479 72.2991C102.479 72.6364 102.704 72.8613 103.493 73.0862C104.395 73.311 104.733 73.5359 104.733 74.2106C104.733 74.8852 104.17 75.335 103.381 75.335C102.93 75.335 102.479 75.1101 101.915 74.6603Z" fill="white"/>
<path d="M107.438 71.3997H110.257V71.8494H107.889V73.1987H110.031V73.6485H107.889V75.3351H107.438V71.3997Z" fill="white"/>
<path d="M110.821 73.311C110.821 72.1866 111.61 71.2871 112.738 71.2871C113.414 71.2871 113.865 71.512 114.203 71.8493L113.865 72.1866C113.527 71.8493 113.189 71.6244 112.625 71.6244C111.723 71.6244 111.159 72.2991 111.159 73.1986C111.159 74.0981 111.836 74.7728 112.625 74.7728C113.189 74.7728 113.527 74.5479 113.865 74.2106L114.203 74.5479C113.752 74.9976 113.302 75.2225 112.625 75.2225C111.61 75.335 110.821 74.4354 110.821 73.311Z" fill="white"/>
<path d="M114.767 73.311C114.767 72.1866 115.556 71.2871 116.683 71.2871C117.36 71.2871 117.811 71.512 118.149 71.8493L117.81 72.1866C117.472 71.8493 117.134 71.6244 116.57 71.6244C115.668 71.6244 115.105 72.2991 115.105 73.1986C115.105 74.0981 115.781 74.7728 116.57 74.7728C117.134 74.7728 117.472 74.5479 117.81 74.2106L118.149 74.5479C117.698 74.9976 117.247 75.2225 116.57 75.2225C115.668 75.335 114.767 74.4354 114.767 73.311Z" fill="white"/>
<path d="M119.163 71.3997H119.614V75.2226H119.163V71.3997Z" fill="white"/>
<path d="M120.629 71.3997H121.982C123.222 71.3997 124.011 72.1867 124.011 73.3111C124.011 74.4355 123.222 75.2226 121.982 75.2226H120.629V71.3997ZM121.08 71.737V74.7729H121.982C122.996 74.7729 123.56 74.0982 123.56 73.1987C123.56 72.2992 122.884 71.6245 121.982 71.6245H121.08V71.737Z" fill="white"/>
<path d="M124.913 72.4116H125.477V72.9738H124.913V72.4116ZM124.913 74.6604H125.477V75.2226H124.913V74.6604Z" fill="white"/>
<path d="M78.9162 77.9211L77.5633 79.8326L78.9162 81.8566H78.127L77.1124 80.3948L76.0977 81.8566H75.3086L76.6614 79.8326L75.3086 77.9211H76.0977L77.1124 79.2704L78.127 77.9211H78.9162Z" fill="white"/>
<path d="M82.9748 77.921L81.6219 79.8325L82.9748 81.8565H82.1856L81.171 80.2823L80.1563 81.744H79.3672L80.72 79.7201L79.3672 77.8086H80.1563L81.171 79.1579L82.1856 77.8086H82.9748V77.921Z" fill="white"/>
<path d="M87.0334 77.9211L85.6805 79.8326L87.0334 81.8566H86.2442L85.2296 80.3948L84.2149 81.8566H83.4258L84.7786 79.8326L83.4258 77.9211H84.2149L85.2296 79.2704L86.2442 77.9211H87.0334Z" fill="white"/>
<path d="M89.1748 79.7202H91.4296V80.3949H89.1748V79.7202Z" fill="white"/>
<path d="M97.2922 77.9211L95.9393 79.8326L97.2922 81.8566H96.503L95.4884 80.3948L94.4737 81.8566H93.6846L95.0374 79.8326L93.6846 77.9211H94.4737L95.4884 79.2704L96.503 77.9211H97.2922Z" fill="white"/>
<path d="M101.125 77.9211L99.7723 79.8326L101.125 81.8566H100.336L99.3214 80.3948L98.3067 81.8566H97.5176L98.8704 79.8326L97.5176 77.9211H98.3067L99.3214 79.2704L100.336 77.9211H101.125Z" fill="white"/>
<path d="M104.958 77.9211L103.605 79.8326L104.958 81.8566H104.169L103.154 80.3948L102.14 81.8566H101.351L102.703 79.8326L101.463 77.9211H102.252L103.267 79.2704L104.282 77.9211H104.958Z" fill="white"/>
<path d="M108.791 77.921L107.438 79.8325L108.791 81.8565H108.002L106.987 80.3947L105.973 81.744H105.184L106.536 79.7201L105.184 77.8086H105.973L106.987 79.1579L108.002 77.8086H108.791V77.921Z" fill="white"/>
<path d="M112.286 77.921L110.933 79.8325L112.286 81.8565H111.61L110.482 80.2823L109.468 81.744H108.679L110.032 79.7201L108.679 77.8086H109.468L110.482 79.1579L111.497 77.8086H112.286V77.921Z" fill="white"/>
<path d="M115.894 77.9211L114.541 79.8326L115.894 81.8566H115.105L114.09 80.3948L113.075 81.8566H112.286L113.639 79.8326L112.286 77.9211H113.075L114.09 79.2704L115.105 77.9211H115.894Z" fill="white"/>
<path d="M119.389 77.9211L118.036 79.8326L119.389 81.8566H118.6L117.585 80.3948L116.57 81.8566H115.781L117.247 79.8326L115.894 77.9211H116.683L117.698 79.2704L118.712 77.9211H119.389Z" fill="white"/>
<path d="M123.447 77.9211L122.095 79.8326L123.447 81.8566H122.658L121.644 80.3948L120.629 81.8566H119.84L121.193 79.8326L119.84 77.9211H120.629L121.644 79.2704L122.658 77.9211H123.447Z" fill="white"/>
<path d="M205.745 71.3997H207.211C208.113 71.3997 208.676 71.8494 208.676 72.6365C208.676 73.4236 208 73.8733 207.098 73.8733H206.196V75.2226H205.745V71.3997ZM207.211 73.4236C207.887 73.4236 208.225 73.0863 208.225 72.5241C208.225 71.9619 207.774 71.737 207.211 71.737H206.196V73.4236H207.211Z" fill="white"/>
<path d="M210.48 71.2871H210.931L212.735 75.2225H212.284L211.833 74.2106H209.691L209.24 75.2225H208.789L210.48 71.2871ZM211.607 73.7608L210.706 71.7369L209.804 73.7608H211.607Z" fill="white"/>
<path d="M213.411 71.3997H215.102C215.553 71.3997 216.004 71.5121 216.23 71.737C216.455 71.9619 216.568 72.1867 216.568 72.5241C216.568 73.1987 216.117 73.536 215.553 73.6485L216.793 75.2226H216.23L215.102 73.7609H213.975V75.2226H213.524V71.3997H213.411ZM215.102 73.3111C215.666 73.3111 216.117 72.9738 216.117 72.5241C216.117 72.0743 215.779 71.737 215.102 71.737H213.862V73.3111H215.102Z" fill="white"/>
<path d="M218.485 71.7369H217.132V71.2871H220.176V71.7369H218.823V75.2225H218.372V71.7369H218.485Z" fill="white"/>
<path d="M222.655 71.3997H223.106L225.586 74.548V71.3997H226.037V75.2226H225.699L223.219 72.0743V75.2226H222.768V71.3997H222.655Z" fill="white"/>
<path d="M226.939 73.311C226.939 72.1866 227.729 71.2871 228.969 71.2871C230.209 71.2871 230.998 72.1866 230.998 73.311C230.998 74.323 230.209 75.335 228.969 75.335C227.729 75.335 226.939 74.323 226.939 73.311ZM230.434 73.311C230.434 72.4115 229.758 71.7369 228.856 71.7369C227.954 71.7369 227.39 72.4115 227.39 73.311C227.39 74.2105 228.067 74.8852 228.969 74.8852C229.758 74.8852 230.434 74.2105 230.434 73.311Z" fill="white"/>
<path d="M231.675 72.4116H232.238V72.9738H231.675V72.4116ZM231.675 74.6604H232.238V75.2226H231.675V74.6604Z" fill="white"/>
<path d="M209.014 77.9211L207.661 79.8326L209.014 81.8566H208.225L207.21 80.3948L206.195 81.8566H205.406L206.759 79.8326L205.406 77.9211H206.195L207.21 79.2704L208.225 77.9211H209.014Z" fill="white"/>
<path d="M213.072 77.9211L211.72 79.8326L213.072 81.8566H212.283L211.269 80.3948L210.254 81.8566H209.465L210.818 79.8326L209.465 77.9211H210.254L211.269 79.2704L212.283 77.9211H213.072Z" fill="white"/>
<path d="M217.131 77.9211L215.778 79.8326L217.131 81.8566H216.342L215.327 80.3948L214.313 81.8566H213.523L214.876 79.8326L213.523 77.9211H214.313L215.327 79.2704L216.342 77.9211H217.131Z" fill="white"/>
<path d="M221.077 77.9211L219.724 79.8326L221.077 81.8566H220.288L219.273 80.3948L218.258 81.8566H217.582L218.935 79.8326L217.582 77.9211H218.371L219.386 79.2704L220.4 77.9211H221.077Z" fill="white"/>
<path d="M225.135 77.9211L223.782 79.8326L225.135 81.8566H224.346L223.331 80.3948L222.317 81.8566H221.527L222.88 79.8326L221.527 77.9211H222.317L223.331 79.2704L224.346 77.9211H225.135Z" fill="white"/>
<path d="M229.081 77.9211L227.728 79.8326L229.081 81.8566H228.292L227.277 80.3948L226.263 81.8566H225.474L226.826 79.8326L225.474 77.9211H226.263L227.277 79.2704L228.292 77.9211H229.081Z" fill="white"/>
<path d="M233.14 77.9211L231.787 79.8326L233.14 81.8566H232.351L231.336 80.3948L230.321 81.8566H229.532L230.885 79.8326L229.532 77.9211H230.321L231.336 79.2704L232.351 77.9211H233.14Z" fill="white"/>
<path d="M238.777 77.9211L237.424 79.8326L238.777 81.8566H237.987L236.973 80.3948L235.958 81.8566H235.169L236.522 79.8326L235.169 77.9211H235.958L236.973 79.2704L237.987 77.9211H238.777Z" fill="white"/>
<path d="M242.835 77.9211L241.482 79.8326L242.835 81.8566H242.046L241.031 80.3948L240.017 81.8566H239.228L240.58 79.8326L239.228 77.9211H240.017L241.031 79.2704L242.046 77.9211H242.835Z" fill="white"/>
<path d="M246.894 77.9211L245.541 79.8326L246.894 81.8566H246.105L245.09 80.3948L244.075 81.8566H243.286L244.639 79.8326L243.286 77.9211H244.075L245.09 79.2704L246.105 77.9211H246.894Z" fill="white"/>
<path d="M250.839 77.9211L249.486 79.8326L250.839 81.8566H250.05L249.035 80.3948L248.021 81.8566H247.231L248.584 79.8326L247.231 77.9211H248.021L249.035 79.2704L250.05 77.9211H250.839Z" fill="white"/>
<path d="M254.785 77.9211L253.432 79.8326L254.785 81.8566H253.996L252.982 80.3948L251.967 81.8566H251.178L252.531 79.8326L251.178 77.9211H251.967L252.982 79.2704L253.996 77.9211H254.785Z" fill="white"/>
<path d="M258.844 77.9211L257.491 79.8326L258.844 81.8566H258.055L257.04 80.3948L256.026 81.8566H255.236L256.589 79.8326L255.236 77.9211H256.026L257.04 79.2704L258.055 77.9211H258.844Z" fill="white"/>
<path d="M262.902 77.9211L261.55 79.8326L262.902 81.8566H262.113L261.099 80.3948L260.084 81.8566H259.295L260.648 79.8326L259.295 77.9211H260.084L261.099 79.2704L262.113 77.9211H262.902Z" fill="white"/>
<path d="M266.849 71.3997H267.3L268.765 73.536L270.231 71.3997H270.682V75.2226H270.231V72.0743L268.765 74.0982L267.3 72.0743V75.2226H266.849V71.3997Z" fill="white"/>
<path d="M271.471 73.311C271.471 72.1866 272.26 71.2871 273.5 71.2871C274.74 71.2871 275.529 72.1866 275.529 73.311C275.529 74.323 274.74 75.335 273.5 75.335C272.26 75.335 271.471 74.323 271.471 73.311ZM275.078 73.311C275.078 72.4115 274.402 71.7369 273.5 71.7369C272.598 71.7369 272.034 72.4115 272.034 73.311C272.034 74.2105 272.711 74.8852 273.613 74.8852C274.402 74.8852 275.078 74.2105 275.078 73.311Z" fill="white"/>
<path d="M276.432 71.3997H277.784C279.025 71.3997 279.814 72.1867 279.814 73.3111C279.814 74.4355 279.025 75.2226 277.784 75.2226H276.432V71.3997ZM276.883 71.737V74.7729H277.784C278.799 74.7729 279.363 74.0982 279.363 73.1987C279.363 72.2992 278.686 71.6245 277.784 71.6245H276.883V71.737Z" fill="white"/>
<path d="M280.715 71.3997H283.533V71.8494H281.166V73.0863H283.308V73.536H281.166V74.8853H283.533V75.3351H280.715V71.3997Z" fill="white"/>
<path d="M284.436 71.3997H284.886V74.8853H287.029V75.3351H284.436V71.3997Z" fill="white"/>
<path d="M289.509 71.3997H289.96L292.44 74.548V71.3997H292.891V75.2226H292.553L290.072 72.0743V75.2226H289.622V71.3997H289.509Z" fill="white"/>
<path d="M293.793 73.311C293.793 72.1866 294.582 71.2871 295.822 71.2871C297.062 71.2871 297.852 72.1866 297.852 73.311C297.852 74.323 297.062 75.335 295.822 75.335C294.582 75.335 293.793 74.323 293.793 73.311ZM297.288 73.311C297.288 72.4115 296.611 71.7369 295.709 71.7369C294.808 71.7369 294.244 72.4115 294.244 73.311C294.244 74.2105 294.92 74.8852 295.822 74.8852C296.611 74.8852 297.288 74.2105 297.288 73.311Z" fill="white"/>
<path d="M298.527 72.4116H299.091V72.9738H298.527V72.4116ZM298.527 74.6604H299.091V75.2226H298.527V74.6604Z" fill="white"/>
<path d="M270.117 77.9211L268.764 79.8326L270.117 81.8566H269.328L268.314 80.3948L267.299 81.8566H266.51L267.863 79.8326L266.51 77.9211H267.299L268.314 79.2704L269.328 77.9211H270.117Z" fill="white"/>
<path d="M274.176 77.9211L272.823 79.8326L274.176 81.8566H273.387L272.372 80.3948L271.358 81.8566H270.568L271.921 79.8326L270.568 77.9211H271.358L272.372 79.2704L273.387 77.9211H274.176Z" fill="white"/>
<path d="M278.235 77.9211L276.882 79.8326L278.235 81.8566H277.445L276.431 80.3948L275.416 81.8566H274.627L275.98 79.8326L274.627 77.9211H275.416L276.431 79.2704L277.445 77.9211H278.235Z" fill="white"/>
<path d="M282.293 77.9211L280.94 79.8326L282.293 81.8566H281.504L280.489 80.3948L279.475 81.8566H278.686L280.038 79.8326L278.686 77.9211H279.475L280.489 79.2704L281.504 77.9211H282.293Z" fill="white"/>
<path d="M286.238 77.9211L284.886 79.8326L286.238 81.8566H285.449L284.435 80.3948L283.42 81.8566H282.631L284.096 79.8326L282.744 77.9211H283.533L284.547 79.2704L285.562 77.9211H286.238Z" fill="white"/>
<path d="M290.297 77.9211L288.944 79.8326L290.297 81.8566H289.508L288.493 80.3948L287.479 81.8566H286.689L288.042 79.8326L286.689 77.9211H287.479L288.493 79.2704L289.508 77.9211H290.297Z" fill="white"/>
<path d="M294.356 77.9211L293.003 79.8326L294.356 81.8566H293.566L292.552 80.3948L291.537 81.8566H290.748L292.101 79.8326L290.748 77.9211H291.537L292.552 79.2704L293.566 77.9211H294.356Z" fill="white"/>
<path d="M298.414 77.9211L297.061 79.8326L298.414 81.8566H297.625L296.61 80.3948L295.596 81.8566H294.807L296.16 79.8326L294.807 77.9211H295.596L296.61 79.2704L297.625 77.9211H298.414Z" fill="white"/>
<path d="M302.473 77.9211L301.12 79.8326L302.473 81.8566H301.684L300.669 80.3948L299.654 81.8566H298.865L300.218 79.8326L298.865 77.9211H299.654L300.669 79.2704L301.684 77.9211H302.473Z" fill="white"/>
<path d="M306.531 77.9211L305.179 79.8326L306.531 81.8566H305.742L304.728 80.3948L303.713 81.8566H302.924L304.277 79.8326L302.924 77.9211H303.713L304.728 79.2704L305.742 77.9211H306.531Z" fill="white"/>
<path d="M310.59 77.9211L309.237 79.8326L310.59 81.8566H309.801L308.786 80.3948L307.772 81.8566H306.982L308.335 79.8326L306.982 77.9211H307.772L308.786 79.2704L309.801 77.9211H310.59Z" fill="white"/>
<path d="M11.9502 71.3997H12.4011L14.8814 74.548V71.3997H15.3323V75.2226H14.9941L12.4011 72.0743V75.2226H11.9502V71.3997Z" fill="white"/>
<path d="M16.3467 71.3997H19.1651V71.8494H16.7976V73.0863H18.9396V73.536H16.7976V74.8853H19.1651V75.3351H16.3467V71.3997Z" fill="white"/>
<path d="M21.0823 71.7369H19.7295V71.2871H22.7734V71.7369H21.4205V75.2225H20.9696V71.7369H21.0823Z" fill="white"/>
<path d="M23.3369 71.3997H23.7879L24.9152 74.6604L25.9299 71.3997H26.2681L27.2827 74.6604L28.4101 71.3997H28.861L27.5082 75.3351H27.17L26.1553 72.1867L25.1407 75.3351H24.8025L23.3369 71.3997Z" fill="white"/>
<path d="M29.4248 73.311C29.4248 72.1866 30.214 71.2871 31.4541 71.2871C32.6942 71.2871 33.4833 72.1866 33.4833 73.311C33.4833 74.323 32.6942 75.335 31.4541 75.335C30.214 75.335 29.4248 74.323 29.4248 73.311ZM32.9197 73.311C32.9197 72.4115 32.2432 71.7369 31.3413 71.7369C30.4394 71.7369 29.8758 72.4115 29.8758 73.311C29.8758 74.2105 30.5522 74.8852 31.4541 74.8852C32.2432 74.8852 32.9197 74.2105 32.9197 73.311Z" fill="white"/>
<path d="M34.2725 71.3997H35.9635C36.4145 71.3997 36.8654 71.5121 37.0909 71.737C37.3164 71.9619 37.4291 72.1867 37.4291 72.5241C37.4291 73.1987 36.9781 73.536 36.4145 73.6485L37.6546 75.2226H37.0909L35.9635 73.7609H34.8361V75.2226H34.3852V71.3997H34.2725ZM35.8508 73.3111C36.4145 73.3111 36.8654 72.9738 36.8654 72.5241C36.8654 72.0743 36.5272 71.737 35.8508 71.737H34.6107V73.3111H35.8508Z" fill="white"/>
<path d="M38.3311 71.3997H38.782V73.7609L41.0367 71.3997H41.6004L39.7966 73.0863L41.4877 75.2226H40.924L39.4584 73.3111L38.6693 74.2107V75.2226H38.3311V71.3997Z" fill="white"/>
<path d="M42.1641 72.4116H42.7277V72.9738H42.1641V72.4116ZM42.1641 74.6604H42.7277V75.2226H42.1641V74.6604Z" fill="white"/>
<path d="M11.7246 79.8325C11.7246 78.7081 12.5138 77.8086 13.7539 77.8086C14.4303 77.8086 14.8812 78.0335 15.2195 78.3708L14.7685 78.933C14.4303 78.7081 14.2048 78.4832 13.6411 78.4832C12.9647 78.4832 12.401 79.1579 12.401 79.8325C12.401 80.6196 12.9647 81.1818 13.7539 81.1818C14.0921 81.1818 14.4303 81.0694 14.6558 80.8445V80.1698H13.6411V79.6076H15.3322V81.1818C14.994 81.5191 14.4303 81.744 13.7539 81.744C12.5138 81.8564 11.7246 80.9569 11.7246 79.8325Z" fill="white"/>
<path d="M16.2344 77.9211H19.1655V78.4833H16.9108V79.4953H18.8273V80.0575H16.9108V81.0695H19.1655V81.6317H16.2344V77.9211Z" fill="white"/>
<path d="M19.3906 82.0813H22.7727V82.6435H19.3906V82.0813Z" fill="white"/>
<path d="M23.2236 77.9211H23.9001L25.0274 79.7202L26.1548 77.9211H27.0567V81.7441H26.3803V78.9331L25.1402 80.7321L23.9001 78.9331V81.7441H23.2236V77.9211Z" fill="white"/>
<path d="M27.959 79.8325C27.959 78.7081 28.7481 77.8086 29.9882 77.8086C31.2284 77.8086 32.0175 78.7081 32.0175 79.8325C32.0175 80.9569 31.2284 81.8565 29.9882 81.8565C28.7481 81.8565 27.959 80.9569 27.959 79.8325ZM31.2284 79.8325C31.2284 79.0454 30.6647 78.4832 29.8755 78.4832C29.0864 78.4832 28.5227 79.0454 28.5227 79.8325C28.5227 80.6196 29.0864 81.1818 29.8755 81.1818C30.6647 81.1818 31.2284 80.6196 31.2284 79.8325Z" fill="white"/>
<path d="M32.8066 77.9211H34.2722C35.5123 77.9211 36.3015 78.7082 36.3015 79.8326C36.3015 80.957 35.5123 81.7441 34.2722 81.7441H32.8066V77.9211ZM33.4831 78.4833V81.0695H34.2722C35.0614 81.0695 35.6251 80.5073 35.6251 79.7202C35.6251 78.9331 35.0614 78.3709 34.2722 78.3709H33.4831V78.4833Z" fill="white"/>
<path d="M37.0908 80.1699V77.9211H37.7672V80.1699C37.7672 80.8446 38.1055 81.2944 38.7819 81.2944C39.3456 81.2944 39.7965 80.957 39.7965 80.1699V77.9211H40.4729V80.1699C40.4729 81.2944 39.7965 81.8566 38.7819 81.8566C37.7672 81.8566 37.0908 81.2944 37.0908 80.1699Z" fill="white"/>
<path d="M41.374 77.9211H42.0504V81.1819H44.0797V81.8566H41.374V77.9211Z" fill="white"/>
<path d="M44.7568 77.9211H47.688V78.4833H45.546V79.4953H47.3498V80.0575H45.4333V81.0695H47.688V81.6317H44.7568V77.9211Z" fill="white"/>
<path d="M47.9131 82.0813H51.2952V82.6435H47.9131V82.0813Z" fill="white"/>
<path d="M55.1281 77.9211L53.7752 79.8326L55.1281 81.8566H54.3389L53.3243 80.3948L52.3097 81.8566H51.5205L52.8734 79.8326L51.5205 77.9211H52.3097L53.3243 79.2704L54.3389 77.9211H55.1281Z" fill="white"/>
<path d="M59.1867 77.921L57.8338 79.8325L59.1867 81.8565H58.3975L57.3829 80.3947L56.3683 81.744H55.5791L56.9319 79.7201L55.5791 77.8086H56.3683L57.3829 79.1579L58.3975 77.8086H59.1867V77.921Z" fill="white"/>
<path d="M63.133 77.9211L61.7801 79.8326L63.133 81.8566H62.3438L61.3292 80.3948L60.3146 81.8566H59.5254L60.8782 79.8326L59.5254 77.9211H60.3146L61.3292 79.2704L62.3438 77.9211H63.133Z" fill="white"/>
<path d="M67.1911 77.9211L65.8383 79.8326L67.1911 81.8566H66.5147L65.5001 80.3948L64.4854 81.8566H63.6963L65.0491 79.8326L63.6963 77.9211H64.4854L65.5001 79.2704L66.5147 77.9211H67.1911Z" fill="white"/>
<path d="M13.4156 17.7658L11.499 14.6174H12.8519L14.092 16.6414L15.3321 14.6174H16.5722L14.5429 17.7658V19.7897H13.4156V17.7658Z" fill="white"/>
<path d="M16.7979 17.2034C16.7979 15.7417 17.9252 14.5049 19.5035 14.5049C21.0819 14.5049 22.2092 15.7417 22.2092 17.2034C22.2092 18.6652 21.0819 19.902 19.5035 19.902C18.038 19.902 16.7979 18.6652 16.7979 17.2034ZM21.1946 17.2034C21.1946 16.3039 20.5182 15.5168 19.6163 15.5168C18.7144 15.5168 18.038 16.1915 18.038 17.091C18.038 17.9905 18.7144 18.6652 19.6163 18.6652C20.5182 18.8901 21.1946 18.103 21.1946 17.2034Z" fill="white"/>
<path d="M23.4492 17.5409V14.6174H24.5766V17.5409C24.5766 18.328 25.0275 18.7777 25.704 18.7777C26.3804 18.7777 26.8313 18.328 26.8313 17.5409V14.6174H27.9587V17.5409C27.9587 19.115 27.0568 19.9021 25.704 19.9021C24.3511 19.9021 23.4492 19.115 23.4492 17.5409Z" fill="white"/>
<path d="M29.4243 14.6174H31.7917C32.4682 14.6174 32.9191 14.8423 33.2573 15.1796C33.5955 15.517 33.7083 15.8543 33.7083 16.304C33.7083 17.0911 33.2573 17.6533 32.5809 17.8782L33.821 19.6772H32.4682L31.3408 17.9906H30.4389V19.6772H29.3115V14.6174H29.4243ZM31.679 17.2036C32.2427 17.2036 32.5809 16.8662 32.5809 16.5289C32.5809 16.0792 32.2427 15.7418 31.679 15.7418H30.5516V17.2036H31.679Z" fill="white"/>
<path d="M37.2031 17.2034C37.2031 15.7417 38.3305 14.5049 39.9088 14.5049C40.9234 14.5049 41.4871 14.8422 41.9381 15.292L41.2617 16.079C40.8107 15.7417 40.4725 15.5168 39.9088 15.5168C39.0069 15.5168 38.4432 16.1915 38.4432 17.091C38.4432 17.9905 39.0069 18.6652 39.9088 18.6652C40.4725 18.6652 40.8107 18.4403 41.2617 18.103L41.9381 18.7776C41.3744 19.3398 40.8107 19.6771 39.7961 19.6771C38.3305 19.902 37.2031 18.7776 37.2031 17.2034Z" fill="white"/>
<path d="M42.7275 17.2034C42.7275 15.7417 43.8549 14.5049 45.4332 14.5049C47.0115 14.5049 48.1389 15.7417 48.1389 17.2034C48.1389 18.6652 47.0115 19.902 45.4332 19.902C43.8549 19.902 42.7275 18.6652 42.7275 17.2034ZM47.0115 17.2034C47.0115 16.3039 46.3351 15.5168 45.4332 15.5168C44.5313 15.5168 43.8549 16.1915 43.8549 17.091C43.8549 17.9905 44.5313 18.6652 45.4332 18.6652C46.3351 18.8901 47.0115 18.103 47.0115 17.2034Z" fill="white"/>
<path d="M49.4912 14.6174H50.5058L52.9861 17.7658V14.6174H54.1134V19.7897H53.0988L50.6186 16.5289V19.7897H49.4912V14.6174Z" fill="white"/>
<path d="M55.4668 14.6174H56.4814L58.9616 17.7658V14.6174H60.089V19.7897H59.0744L56.5942 16.5289V19.7897H55.4668V14.6174Z" fill="white"/>
<path d="M61.5547 14.6174H65.5005V15.6294H62.6821V16.6414H65.1623V17.6533H62.6821V18.7777H65.5005V19.7897H61.5547V14.6174Z" fill="white"/>
<path d="M66.5146 17.2034C66.5146 15.7417 67.642 14.5049 69.2203 14.5049C70.235 14.5049 70.7987 14.8422 71.2496 15.292L70.5732 16.079C70.1222 15.7417 69.784 15.5168 69.2203 15.5168C68.3184 15.5168 67.7548 16.1915 67.7548 17.091C67.7548 17.9905 68.3184 18.6652 69.2203 18.6652C69.784 18.6652 70.1222 18.4403 70.5732 18.103L71.2496 18.7776C70.6859 19.3398 70.1222 19.6771 69.1076 19.6771C67.642 19.902 66.5146 18.7776 66.5146 17.2034Z" fill="white"/>
<path d="M73.6174 15.7418H72.0391V14.6174H76.3231V15.7418H74.7447V19.9021H73.6174V15.7418Z" fill="white"/>
<path d="M77.4502 14.6174H81.396V15.6294H78.5776V16.6414H81.0578V17.6533H78.5776V18.7777H81.396V19.7897H77.4502V14.6174Z" fill="white"/>
<path d="M82.6357 14.6174H84.665C86.2433 14.6174 87.3707 15.7418 87.3707 17.2036C87.3707 18.6653 86.2433 19.7897 84.665 19.7897H82.6357V14.6174ZM83.7631 15.6294V18.7777H84.665C85.5669 18.7777 86.2433 18.1031 86.2433 17.2036C86.2433 16.304 85.5669 15.6294 84.665 15.6294H83.7631Z" fill="white"/>
<path d="M92.7826 14.6174H93.7973L96.052 19.7897H94.8119L94.3609 18.6653H92.2189L91.768 19.7897H90.6406L92.7826 14.6174ZM94.0227 17.6533L93.3463 15.9667L92.6699 17.6533H94.0227Z" fill="white"/>
<path d="M97.0664 14.6174H99.2084C100.449 14.6174 101.238 15.2921 101.238 16.4165C101.238 17.6533 100.336 18.2155 99.0957 18.2155H98.1938V19.7897H97.0664V14.6174ZM99.0957 17.2036C99.6594 17.2036 99.9976 16.8662 99.9976 16.4165C99.9976 15.8543 99.6594 15.6294 99.0957 15.6294H98.1938V17.2036H99.0957Z" fill="white"/>
<path d="M102.252 14.6174H104.394C105.634 14.6174 106.423 15.2921 106.423 16.4165C106.423 17.6533 105.521 18.2155 104.281 18.2155H103.379V19.7897H102.252V14.6174ZM104.281 17.2036C104.845 17.2036 105.183 16.8662 105.183 16.4165C105.183 15.8543 104.845 15.6294 104.281 15.6294H103.379V17.2036H104.281Z" fill="white"/>
<path d="M107.438 14.6174H108.566V18.7777H111.159V19.7897H107.438V14.6174Z" fill="white"/>
<path d="M112.286 14.6174H113.414V19.7897H112.286V14.6174Z" fill="white"/>
<path d="M116.683 14.6174H117.698L119.952 19.7897H118.712L118.261 18.6653H116.119L115.668 19.7897H114.541L116.683 14.6174ZM117.923 17.6533L117.247 15.9667L116.57 17.6533H117.923Z" fill="white"/>
<path d="M120.967 14.6174H121.981L124.462 17.7658V14.6174H125.589V19.7897H124.574L122.094 16.5289V19.7897H120.967V14.6174Z" fill="white"/>
<path d="M126.829 17.2034C126.829 15.7417 127.956 14.5049 129.535 14.5049C130.549 14.5049 131.113 14.8422 131.564 15.292L130.888 16.079C130.437 15.7417 130.098 15.5168 129.535 15.5168C128.633 15.5168 128.069 16.1915 128.069 17.091C128.069 17.9905 128.633 18.6652 129.535 18.6652C130.098 18.6652 130.437 18.4403 130.888 18.103L131.564 18.7776C131 19.3398 130.437 19.6771 129.422 19.6771C127.956 19.902 126.829 18.7776 126.829 17.2034Z" fill="white"/>
<path d="M132.691 14.6174H136.637V15.6294H133.819V16.6414H136.299V17.6533H133.819V18.7777H136.637V19.7897H132.691V14.6174Z" fill="white"/>
<path d="M297.851 25.6362H11.3867V26.5358H297.851V25.6362Z" fill="white"/>
<path d="M317.468 26.1986C317.468 27.0981 316.679 27.8852 315.777 27.8852C314.875 27.8852 314.086 27.0981 314.086 26.1986C314.086 25.299 314.875 24.512 315.777 24.512C316.679 24.512 317.468 25.299 317.468 26.1986Z" fill="white"/>
<path d="M310.704 21.7008C310.591 21.7008 310.478 21.7008 310.478 21.5883C310.365 21.4759 310.365 21.251 310.478 21.1386C311.944 19.7893 313.747 19.0022 315.777 19.0022C317.806 19.0022 319.723 19.7893 321.075 21.1386C321.188 21.251 321.188 21.4759 321.075 21.5883C320.963 21.7008 320.737 21.7008 320.624 21.5883C319.384 20.3515 317.581 19.6768 315.777 19.6768C313.973 19.6768 312.282 20.3515 310.929 21.7008C310.816 21.7008 310.816 21.7008 310.704 21.7008Z" fill="white"/>
<path d="M307.546 18.5525C307.434 18.5525 307.321 18.5525 307.321 18.44C307.208 18.3276 307.208 18.1027 307.321 17.9903C309.576 15.7415 312.62 14.5046 315.776 14.5046C318.933 14.5046 321.977 15.7415 324.231 17.9903C324.344 18.1027 324.344 18.3276 324.231 18.44C324.119 18.5525 323.893 18.5525 323.78 18.44C321.638 16.3037 318.82 15.1793 315.776 15.1793C312.732 15.1793 309.914 16.3037 307.772 18.44C307.659 18.5525 307.546 18.5525 307.546 18.5525Z" fill="white"/>
<path d="M304.39 15.5166C304.277 15.5166 304.165 15.5166 304.165 15.4042C304.052 15.2918 304.052 15.0669 304.165 14.9544C307.321 11.8061 311.38 10.0071 315.777 10.0071C320.173 10.0071 324.345 11.8061 327.388 14.9544C327.501 15.0669 327.501 15.2918 327.388 15.4042C327.276 15.5166 327.05 15.5166 326.938 15.4042C324.006 12.3683 319.948 10.6817 315.777 10.6817C311.605 10.6817 307.547 12.3683 304.616 15.4042C304.503 15.5166 304.39 15.5166 304.39 15.5166Z" fill="white"/>
</svg>
