<svg width="202" height="303" viewBox="0 0 202 303" fill="none" xmlns="http://www.w3.org/2000/svg">
<path d="M89.474 282.066C90.277 282.066 90.8215 281.554 90.8215 280.845V280.834C90.8215 280.124 90.2715 279.827 89.6885 279.756L90.761 278.656V278.15H88.2145V278.738H89.881L88.8415 279.844L88.9515 280.267H89.265C89.804 280.267 90.1505 280.482 90.1505 280.861V280.872C90.1505 281.224 89.8645 281.455 89.485 281.455C89.056 281.455 88.748 281.274 88.473 280.949L88 281.389C88.3245 281.785 88.803 282.066 89.474 282.066Z" fill="#F2A900"/>
<path d="M93.0059 282.055C93.8144 282.055 94.3809 281.626 94.3809 280.905V280.894C94.3809 280.256 93.9629 279.965 93.1489 279.767C92.4064 279.591 92.2304 279.459 92.2304 279.162V279.151C92.2304 278.898 92.4614 278.694 92.8574 278.694C93.2094 278.694 93.5559 278.832 93.9024 279.09L94.2654 278.579C93.8749 278.265 93.4294 278.095 92.8684 278.095C92.1039 278.095 91.5539 278.551 91.5539 279.211V279.222C91.5539 279.932 92.0159 280.174 92.8354 280.372C93.5504 280.537 93.7044 280.685 93.7044 280.96V280.971C93.7044 281.257 93.4404 281.455 93.0224 281.455C92.5494 281.455 92.1754 281.274 91.8069 280.955L91.3999 281.439C91.8619 281.851 92.4174 282.055 93.0059 282.055Z" fill="#F2A900"/>
<path d="M96.4305 282.066C96.964 282.066 97.3435 281.851 97.6185 281.521L97.228 281.175C96.997 281.4 96.766 281.521 96.4415 281.521C96.0125 281.521 95.677 281.257 95.6055 280.784H97.7395C97.745 280.718 97.7505 280.658 97.7505 280.597C97.7505 279.761 97.283 279.035 96.359 279.035C95.5285 279.035 94.94 279.717 94.94 280.548V280.559C94.94 281.455 95.589 282.066 96.4305 282.066ZM95.6 280.344C95.6605 279.893 95.9465 279.58 96.3535 279.58C96.7935 279.58 97.0465 279.915 97.0905 280.344H95.6Z" fill="#F2A900"/>
<path d="M99.7608 282.066C100.327 282.066 100.663 281.84 100.949 281.521L100.547 281.125C100.338 281.34 100.107 281.483 99.7938 281.483C99.2823 281.483 98.9248 281.07 98.9248 280.553V280.542C98.9248 280.036 99.2823 279.618 99.7663 279.618C100.096 279.618 100.311 279.767 100.514 279.981L100.932 279.536C100.657 279.239 100.316 279.035 99.7718 279.035C98.8973 279.035 98.2593 279.728 98.2593 280.553V280.564C98.2593 281.389 98.8973 282.066 99.7608 282.066Z" fill="#F2A900"/>
<path d="M101.517 282H102.248V281.241H101.517V282Z" fill="#F2A900"/>
<path d="M104.764 282H107.464V281.384H105.44V278.15H104.764V282Z" fill="#F2A900"/>
<path d="M109.419 282.066C110.315 282.066 110.975 281.378 110.975 280.553V280.542C110.975 279.712 110.321 279.035 109.43 279.035C108.539 279.035 107.879 279.723 107.879 280.553V280.564C107.879 281.389 108.533 282.066 109.419 282.066ZM109.43 281.483C108.913 281.483 108.544 281.059 108.544 280.553V280.542C108.544 280.036 108.885 279.618 109.419 279.618C109.941 279.618 110.31 280.042 110.31 280.553V280.564C110.31 281.065 109.969 281.483 109.43 281.483Z" fill="#F2A900"/>
<path d="M112.995 282.066C113.562 282.066 113.897 281.84 114.183 281.521L113.782 281.125C113.573 281.34 113.342 281.483 113.028 281.483C112.517 281.483 112.159 281.07 112.159 280.553V280.542C112.159 280.036 112.517 279.618 113.001 279.618C113.331 279.618 113.545 279.767 113.749 279.981L114.167 279.536C113.892 279.239 113.551 279.035 113.006 279.035C112.132 279.035 111.494 279.728 111.494 280.553V280.564C111.494 281.389 112.132 282.066 112.995 282.066Z" fill="#F2A900"/>
<path d="M114.795 282H115.461V281.169L115.873 280.74L116.731 282H117.512L116.319 280.278L117.474 279.096H116.665L115.461 280.383V277.985H114.795V282Z" fill="#F2A900"/>
<path d="M95.4824 229.489C97.3992 227.619 99.8796 226.63 102.473 226.63C105.179 226.63 107.659 227.619 109.576 229.489L109.689 229.599L108.561 230.808L108.449 230.588C106.87 229.049 104.841 228.169 102.586 228.169C100.331 228.169 98.3011 229.049 96.7227 230.588L96.6099 230.698L95.4824 229.489Z" fill="white"/>
<path d="M102.53 234.429C101.868 234.429 101.316 234.708 100.874 235.404L100.764 235.544L99.6602 234.151L99.7705 234.012C100.543 233.037 101.536 232.479 102.53 232.479C103.634 232.479 104.627 233.037 105.399 234.151L105.51 234.29L104.406 235.822L104.296 235.683C103.744 234.708 103.192 234.429 102.53 234.429Z" fill="white"/>
<path d="M103.839 237.076C103.839 237.828 103.338 238.329 102.586 238.329C101.833 238.329 101.332 237.828 101.332 237.076C101.332 236.449 101.833 235.822 102.586 235.822C103.338 235.822 103.839 236.449 103.839 237.076Z" fill="white"/>
<path d="M102.525 231.159C100.974 231.159 99.5409 231.833 98.4665 233.046L98.3471 233.181L97.1533 231.833L97.2727 231.698C98.7053 230.081 100.496 229.137 102.525 229.137C104.555 229.137 106.465 230.081 107.898 231.698L108.017 231.833L106.823 233.316L106.704 233.181C105.51 231.833 104.077 231.159 102.525 231.159Z" fill="white"/>
<path d="M100.273 242.966L99.1533 246.681H98.206L97.4539 244.035L96.6674 246.681L95.7258 246.686L94.6465 242.966H95.5077L96.2138 245.85L97.0291 242.966H97.9247L98.694 245.835L99.4059 242.966H100.273Z" fill="white"/>
<path d="M101.205 243.381C101.064 243.381 100.945 243.34 100.849 243.258C100.757 243.173 100.712 243.068 100.712 242.944C100.712 242.82 100.757 242.717 100.849 242.636C100.945 242.55 101.064 242.508 101.205 242.508C101.347 242.508 101.464 242.55 101.556 242.636C101.651 242.717 101.699 242.82 101.699 242.944C101.699 243.068 101.651 243.173 101.556 243.258C101.464 243.34 101.347 243.381 101.205 243.381ZM101.601 243.732V246.681H100.798V243.732H101.601Z" fill="white"/>
<path d="M104.841 244.467V245.095H102.407V244.467H104.841Z" fill="white"/>
<path d="M108.217 242.966V243.567H106.546V244.52H107.827V245.111H106.546V246.681H105.743V242.966H108.217Z" fill="white"/>
<path d="M109.195 243.381C109.053 243.381 108.934 243.34 108.839 243.258C108.747 243.173 108.701 243.068 108.701 242.944C108.701 242.82 108.747 242.717 108.839 242.636C108.934 242.55 109.053 242.508 109.195 242.508C109.336 242.508 109.453 242.55 109.545 242.636C109.641 242.717 109.688 242.82 109.688 242.944C109.688 243.068 109.641 243.173 109.545 243.258C109.453 243.34 109.336 243.381 109.195 243.381ZM109.591 243.732V246.681H108.787V243.732H109.591Z" fill="white"/>
<path fill-rule="evenodd" clip-rule="evenodd" d="M114.814 277.935H115.579V280.256L116.712 279.046H117.661L116.452 280.284L117.676 282.05H116.773L115.935 280.82L115.579 281.19V282.05H114.814V277.935ZM114.914 278.035V281.95H115.479V281.149L115.948 280.662L116.826 281.95H117.485L116.323 280.273L117.423 279.146H116.755L115.479 280.51V278.035H114.914ZM91.5723 279.212C91.5723 278.516 92.153 278.045 92.9368 278.045C93.5094 278.045 93.9659 278.22 94.3651 278.54L94.4019 278.57L93.982 279.161L93.9409 279.131C93.6003 278.877 93.2641 278.745 92.9258 278.745C92.736 278.745 92.5908 278.793 92.4943 278.868C92.3986 278.941 92.3488 279.041 92.3488 279.151V279.162C92.3488 279.231 92.3591 279.287 92.3828 279.335C92.4062 279.383 92.4448 279.426 92.5076 279.468C92.6359 279.555 92.857 279.63 93.2289 279.718C93.6379 279.818 93.9557 279.943 94.1712 280.128C94.3897 280.316 94.4993 280.563 94.4993 280.895V280.906C94.4993 281.28 94.3515 281.582 94.0966 281.789C93.8428 281.996 93.4869 282.105 93.0743 282.105C92.4737 282.105 91.9063 281.897 91.435 281.476L91.3988 281.444L91.8697 280.884L91.9081 280.917C92.2703 281.231 92.6331 281.406 93.0908 281.406C93.2926 281.406 93.4519 281.358 93.5593 281.28C93.6655 281.204 93.7228 281.097 93.7228 280.972V280.961C93.7228 280.896 93.7138 280.843 93.6923 280.797C93.6708 280.751 93.6355 280.708 93.5772 280.666C93.4583 280.58 93.2499 280.503 92.8926 280.421C92.4824 280.322 92.1519 280.21 91.9246 280.028C91.6932 279.844 91.5723 279.59 91.5723 279.223V279.212ZM92.9368 278.145C92.1916 278.145 91.6723 278.587 91.6723 279.212V279.223C91.6723 279.564 91.7825 279.787 91.987 279.95C92.1955 280.116 92.5061 280.225 92.9153 280.323C93.2728 280.406 93.4989 280.486 93.6357 280.584C93.7054 280.635 93.7531 280.691 93.783 280.755C93.8126 280.819 93.8228 280.887 93.8228 280.961V280.972C93.8228 281.132 93.7481 281.267 93.6178 281.361C93.4888 281.454 93.3071 281.506 93.0908 281.506C92.6193 281.506 92.244 281.33 91.8812 281.026L91.5381 281.434C91.9835 281.816 92.5134 282.005 93.0743 282.005C93.4702 282.005 93.8019 281.9 94.0335 281.712C94.264 281.524 94.3993 281.251 94.3993 280.906V280.895C94.3993 280.588 94.3 280.371 94.106 280.204C93.909 280.034 93.6106 279.914 93.2057 279.816C92.8351 279.728 92.597 279.649 92.4517 279.551C92.3777 279.502 92.3258 279.446 92.2931 279.379C92.2605 279.313 92.2488 279.241 92.2488 279.162V279.151C92.2488 279.008 92.3146 278.88 92.4334 278.788C92.5514 278.698 92.7197 278.645 92.9258 278.645C93.2773 278.645 93.6205 278.777 93.9594 279.02L94.2655 278.589C93.8927 278.301 93.4686 278.145 92.9368 278.145ZM88.2329 278.1H90.8794V278.676L89.8613 279.721C90.124 279.765 90.3778 279.857 90.5737 280.017C90.7958 280.199 90.9399 280.464 90.9399 280.834V280.845C90.9399 281.213 90.7984 281.532 90.5511 281.758C90.3041 281.985 89.9546 282.116 89.5424 282.116C88.8555 282.116 88.3631 281.828 88.0298 281.421L88 281.385L88.5457 280.877L88.5796 280.917C88.8474 281.233 89.1424 281.406 89.5534 281.406C89.7333 281.406 89.8875 281.351 89.996 281.258C90.1038 281.166 90.1689 281.034 90.1689 280.873V280.862C90.1689 280.69 90.0916 280.556 89.9509 280.464C89.8079 280.37 89.5973 280.318 89.3334 280.318H88.9813L88.8546 279.83L89.8338 278.789H88.2329V278.1ZM88.3329 278.2V278.689H90.0651L88.9653 279.858L89.0586 280.218H89.3334C89.6086 280.218 89.8407 280.272 90.0057 280.38C90.173 280.49 90.2689 280.654 90.2689 280.862V280.873C90.2689 281.063 90.1911 281.223 90.061 281.334C89.9316 281.445 89.7531 281.506 89.5534 281.506C89.1245 281.506 88.8115 281.33 88.5376 281.021L88.1373 281.394C88.4521 281.76 88.908 282.016 89.5424 282.016C89.9333 282.016 90.2575 281.892 90.4835 281.685C90.7093 281.478 90.8399 281.186 90.8399 280.845V280.834C90.8399 280.494 90.709 280.257 90.5104 280.095C90.3099 279.931 90.0369 279.841 89.7508 279.806L89.6507 279.793L90.7794 278.636V278.2H88.3329ZM104.782 278.1H105.559V281.334H107.583V282.05H104.782V278.1ZM104.882 278.2V281.95H107.483V281.434H105.459V278.2H104.882ZM94.9584 280.548C94.9584 279.694 95.5652 278.986 96.4274 278.986C96.9039 278.986 97.2662 279.173 97.5085 279.472C97.7496 279.768 97.8689 280.171 97.8689 280.598C97.8689 280.656 97.864 280.713 97.859 280.773C97.8586 280.778 97.8582 280.783 97.8577 280.789L97.8539 280.835H95.7336C95.7745 281.033 95.8659 281.186 95.9903 281.292C96.1266 281.409 96.3058 281.472 96.5099 281.472C96.8184 281.472 97.0374 281.358 97.2615 281.139L97.2948 281.107L97.7563 281.516L97.7253 281.554C97.4414 281.894 97.0482 282.116 96.4989 282.116C95.6303 282.116 94.9584 281.484 94.9584 280.559V280.548ZM96.4274 279.086C95.6286 279.086 95.0584 279.741 95.0584 280.548V280.559C95.0584 281.427 95.6845 282.016 96.4989 282.016C96.9965 282.016 97.3537 281.825 97.617 281.526L97.2976 281.243C97.0703 281.455 96.8344 281.572 96.5099 281.572C96.285 281.572 96.0819 281.502 95.9254 281.368C95.7687 281.235 95.6618 281.039 95.6245 280.792L95.6158 280.735H97.7619C97.7658 280.686 97.7689 280.642 97.7689 280.598C97.7689 280.188 97.6544 279.81 97.4308 279.535C97.2083 279.261 96.8749 279.086 96.4274 279.086ZM98.2777 280.554C98.2777 279.702 98.9368 278.986 99.8402 278.986C100.401 278.986 100.754 279.196 101.037 279.502L101.069 279.536L100.583 280.054L100.546 280.016C100.348 279.807 100.146 279.669 99.8347 279.669C99.3835 279.669 99.0432 280.059 99.0432 280.543V280.554C99.0432 281.047 99.3825 281.433 99.8622 281.433C100.158 281.433 100.376 281.3 100.58 281.091L100.615 281.055L101.086 281.519L101.054 281.555C100.909 281.717 100.749 281.858 100.551 281.958C100.353 282.058 100.12 282.116 99.8292 282.116C98.9373 282.116 98.2777 281.416 98.2777 280.565V280.554ZM99.8402 279.086C98.9947 279.086 98.3777 279.755 98.3777 280.554V280.565C98.3777 281.363 98.9942 282.016 99.8292 282.016C100.105 282.016 100.323 281.961 100.506 281.869C100.675 281.783 100.817 281.665 100.948 281.523L100.616 281.196C100.41 281.397 100.176 281.533 99.8622 281.533C99.319 281.533 98.9432 281.094 98.9432 280.554V280.543C98.9432 280.014 99.318 279.569 99.8347 279.569C100.163 279.569 100.384 279.709 100.582 279.909L100.932 279.536C100.671 279.267 100.348 279.086 99.8402 279.086ZM107.897 280.554C107.897 279.695 108.58 278.986 109.498 278.986C110.417 278.986 111.094 279.684 111.094 280.543V280.554C111.094 281.407 110.411 282.116 109.487 282.116C108.575 282.116 107.897 281.418 107.897 280.565V280.554ZM109.498 279.086C108.635 279.086 107.997 279.751 107.997 280.554V280.565C107.997 281.362 108.629 282.016 109.487 282.016C110.357 282.016 110.994 281.351 110.994 280.554V280.543C110.994 279.74 110.362 279.086 109.498 279.086ZM111.512 280.554C111.512 279.702 112.171 278.986 113.075 278.986C113.635 278.986 113.989 279.196 114.272 279.502L114.303 279.536L113.817 280.054L113.781 280.016C113.582 279.807 113.38 279.669 113.069 279.669C112.618 279.669 112.278 280.059 112.278 280.543V280.554C112.278 281.047 112.617 281.433 113.097 281.433C113.392 281.433 113.611 281.3 113.814 281.091L113.849 281.055L114.321 281.519L114.289 281.555C114.143 281.717 113.983 281.858 113.785 281.958C113.587 282.058 113.354 282.116 113.064 282.116C112.172 282.116 111.512 281.416 111.512 280.565V280.554ZM113.075 279.086C112.229 279.086 111.612 279.755 111.612 280.554V280.565C111.612 281.363 112.229 282.016 113.064 282.016C113.34 282.016 113.558 281.961 113.74 281.869C113.909 281.783 114.051 281.665 114.182 281.523L113.85 281.196C113.644 281.397 113.41 281.533 113.097 281.533C112.553 281.533 112.178 281.094 112.178 280.554V280.543C112.178 280.014 112.552 279.569 113.069 279.569C113.398 279.569 113.618 279.709 113.817 279.909L114.166 279.536C113.905 279.267 113.582 279.086 113.075 279.086ZM95.7269 280.295H97.1022C97.0748 280.111 97.0064 279.951 96.9017 279.835C96.7876 279.708 96.6279 279.63 96.4219 279.63C96.0637 279.63 95.8003 279.892 95.7269 280.295ZM95.6188 280.338C95.6816 279.87 95.9827 279.53 96.4219 279.53C96.6559 279.53 96.8427 279.62 96.9761 279.768C97.1085 279.915 97.1858 280.117 97.2086 280.339L97.2143 280.395H95.6112L95.6188 280.338ZM109.487 279.669C108.986 279.669 108.663 280.059 108.663 280.543V280.554C108.663 281.036 109.012 281.433 109.498 281.433C110.006 281.433 110.328 281.042 110.328 280.565V280.554C110.328 280.066 109.979 279.669 109.487 279.669ZM108.563 280.543C108.563 280.014 108.922 279.569 109.487 279.569C110.041 279.569 110.428 280.018 110.428 280.554V280.565C110.428 281.088 110.069 281.533 109.498 281.533C108.95 281.533 108.563 281.084 108.563 280.554V280.543ZM101.535 281.191H102.367V282.05H101.535V281.191ZM101.635 281.291V281.95H102.267V281.291H101.635Z" fill="#F2A900"/>
<path fill-rule="evenodd" clip-rule="evenodd" d="M102.703 260.071C104.775 260.071 106.453 261.75 106.453 263.821V264.357H98.9535V263.821C98.9535 261.75 100.632 260.071 102.703 260.071ZM107.525 263.821V264.357H108.061C108.948 264.357 109.668 265.077 109.668 265.964V272.393C109.668 273.281 108.948 274 108.061 274H97.3464C96.4588 274 95.7393 273.281 95.7393 272.393V265.964C95.7393 265.077 96.4588 264.357 97.3464 264.357H97.882V263.821C97.882 261.159 100.041 259 102.703 259C105.366 259 107.525 261.159 107.525 263.821ZM108.061 265.429H97.3464C97.0505 265.429 96.8107 265.668 96.8107 265.964V272.393C96.8107 272.689 97.0505 272.929 97.3464 272.929H108.061C108.357 272.929 108.596 272.689 108.596 272.393V265.964C108.596 265.668 108.357 265.429 108.061 265.429ZM102.704 267.572C102.408 267.572 102.168 267.811 102.168 268.107V270.25C102.168 270.546 102.408 270.786 102.704 270.786C102.999 270.786 103.239 270.546 103.239 270.25V268.107C103.239 267.811 102.999 267.572 102.704 267.572Z" fill="#F2A900"/>
<path fill-rule="evenodd" clip-rule="evenodd" d="M87.5338 24.9774H85.5675C84.6988 24.9774 83.9945 25.6426 83.9945 26.4631V32.0342C83.9945 32.8547 84.6988 33.5198 85.5675 33.5198H87.5338C88.4026 33.5198 89.1068 32.8547 89.1068 32.0342V26.4631C89.1068 25.6426 88.4026 24.9774 87.5338 24.9774ZM85.5675 24.2346C84.2644 24.2346 83.208 25.2323 83.208 26.4631V32.0342C83.208 33.2649 84.2644 34.2626 85.5675 34.2626H87.5338C88.8369 34.2626 89.8933 33.2649 89.8933 32.0342V26.4631C89.8933 25.2323 88.8369 24.2346 87.5338 24.2346H85.5675Z" fill="white"/>
<path fill-rule="evenodd" clip-rule="evenodd" d="M103.706 24.9774H101.985C101.225 24.9774 100.609 25.6426 100.609 26.4631V32.0342C100.609 32.8547 101.225 33.5198 101.985 33.5198H103.706C104.466 33.5198 105.082 32.8547 105.082 32.0342V26.4631C105.082 25.6426 104.466 24.9774 103.706 24.9774ZM101.985 24.2346C100.845 24.2346 99.9209 25.2323 99.9209 26.4631V32.0342C99.9209 33.2649 100.845 34.2626 101.985 34.2626H103.706C104.846 34.2626 105.771 33.2649 105.771 32.0342V26.4631C105.771 25.2323 104.846 24.2346 103.706 24.2346H101.985Z" fill="white"/>
<path fill-rule="evenodd" clip-rule="evenodd" d="M117.957 73.4626H88.5711C87.861 73.4626 87.2854 74.0578 87.2854 74.792C87.2854 75.5263 87.861 76.1215 88.5711 76.1215H117.957C118.667 76.1215 119.243 75.5263 119.243 74.792C119.243 74.0578 118.667 73.4626 117.957 73.4626ZM88.5711 72.7029C87.4553 72.7029 86.5508 73.6382 86.5508 74.792C86.5508 75.9459 87.4553 76.8812 88.5711 76.8812H117.957C119.073 76.8812 119.977 75.9459 119.977 74.792C119.977 73.6382 119.073 72.7029 117.957 72.7029H88.5711Z" fill="white"/>
<path fill-rule="evenodd" clip-rule="evenodd" d="M114.656 131.959H90.1998C89.5046 131.959 88.941 132.555 88.941 133.289C88.941 134.023 89.5046 134.618 90.1998 134.618H114.656C115.351 134.618 115.915 134.023 115.915 133.289C115.915 132.555 115.351 131.959 114.656 131.959ZM90.1998 131.2C89.1073 131.2 88.2217 132.135 88.2217 133.289C88.2217 134.443 89.1073 135.378 90.1998 135.378H114.656C115.749 135.378 116.634 134.443 116.634 133.289C116.634 132.135 115.749 131.2 114.656 131.2H90.1998Z" fill="white"/>
<path fill-rule="evenodd" clip-rule="evenodd" d="M114.656 167.893H90.1998C89.5046 167.893 88.941 168.488 88.941 169.222C88.941 169.957 89.5046 170.552 90.1998 170.552H114.656C115.351 170.552 115.915 169.957 115.915 169.222C115.915 168.488 115.351 167.893 114.656 167.893ZM90.1998 167.133C89.1073 167.133 88.2217 168.069 88.2217 169.222C88.2217 170.376 89.1073 171.312 90.1998 171.312H114.656C115.749 171.312 116.634 170.376 116.634 169.222C116.634 168.069 115.749 167.133 114.656 167.133H90.1998Z" fill="white"/>
<path fill-rule="evenodd" clip-rule="evenodd" d="M110.461 202.991H95.2299C94.5289 202.991 93.9606 203.586 93.9606 204.321C93.9606 205.055 94.5289 205.65 95.2299 205.65H110.461C111.162 205.65 111.73 205.055 111.73 204.321C111.73 203.586 111.162 202.991 110.461 202.991ZM95.2299 202.231C94.1283 202.231 93.2354 203.167 93.2354 204.321C93.2354 205.474 94.1283 206.41 95.2299 206.41H110.461C111.563 206.41 112.456 205.474 112.456 204.321C112.456 203.167 111.563 202.231 110.461 202.231H95.2299Z" fill="white"/>
<path fill-rule="evenodd" clip-rule="evenodd" d="M119.584 24.9774H117.863C117.103 24.9774 116.487 25.6426 116.487 26.4631V32.0342C116.487 32.8547 117.103 33.5198 117.863 33.5198H119.584C120.344 33.5198 120.96 32.8547 120.96 32.0342V26.4631C120.96 25.6426 120.344 24.9774 119.584 24.9774ZM117.863 24.2346C116.723 24.2346 115.799 25.2323 115.799 26.4631V32.0342C115.799 33.2649 116.723 34.2626 117.863 34.2626H119.584C120.724 34.2626 121.648 33.2649 121.648 32.0342V26.4631C121.648 25.2323 120.724 24.2346 119.584 24.2346H117.863Z" fill="white"/>
<path fill-rule="evenodd" clip-rule="evenodd" d="M125.827 86.0737H79.8652V85.238H125.827V86.0737Z" fill="white"/>
<path fill-rule="evenodd" clip-rule="evenodd" d="M89.8931 96.1015H82.3721V95.2659H89.8931V96.1015Z" fill="white"/>
<path fill-rule="evenodd" clip-rule="evenodd" d="M123.32 96.1015H115.799V95.2659H123.32V96.1015Z" fill="white"/>
<path fill-rule="evenodd" clip-rule="evenodd" d="M119.977 91.9233L119.977 99.4443L119.142 99.4443L119.142 91.9233L119.977 91.9233Z" fill="white"/>
<path fill-rule="evenodd" clip-rule="evenodd" d="M125.827 216.438H79.8652V215.602H125.827V216.438Z" fill="white"/>
<path fill-rule="evenodd" clip-rule="evenodd" d="M102.429 198.185C105.732 198.185 108.41 195.507 108.41 192.203C108.41 188.9 105.732 186.222 102.429 186.222C99.1249 186.222 96.4469 188.9 96.4469 192.203C96.4469 195.507 99.1249 198.185 102.429 198.185ZM102.429 198.889C106.121 198.889 109.114 195.896 109.114 192.203C109.114 188.511 106.121 185.518 102.429 185.518C98.7363 185.518 95.7432 188.511 95.7432 192.203C95.7432 195.896 98.7363 198.889 102.429 198.889Z" fill="white"/>
<path fill-rule="evenodd" clip-rule="evenodd" d="M102.429 163.087C105.732 163.087 108.41 160.409 108.41 157.106C108.41 153.802 105.732 151.124 102.429 151.124C99.1249 151.124 96.4469 153.802 96.4469 157.106C96.4469 160.409 99.1249 163.087 102.429 163.087ZM102.429 163.791C106.121 163.791 109.114 160.798 109.114 157.106C109.114 153.413 106.121 150.42 102.429 150.42C98.7363 150.42 95.7432 153.413 95.7432 157.106C95.7432 160.798 98.7363 163.791 102.429 163.791Z" fill="white"/>
<path fill-rule="evenodd" clip-rule="evenodd" d="M102.429 127.945C105.732 127.945 108.41 125.1 108.41 121.589C108.41 118.079 105.732 115.234 102.429 115.234C99.1249 115.234 96.4469 118.079 96.4469 121.589C96.4469 125.1 99.1249 127.945 102.429 127.945ZM102.429 128.693C106.121 128.693 109.114 125.512 109.114 121.589C109.114 117.667 106.121 114.486 102.429 114.486C98.7363 114.486 95.7432 117.667 95.7432 121.589C95.7432 125.512 98.7363 128.693 102.429 128.693Z" fill="white"/>
<path d="M82.3721 50.8087C82.3721 50.4394 82.6802 50.1401 83.0603 50.1401H87.5335C87.9136 50.1401 88.2217 50.4394 88.2217 50.8087V51.1429C88.2217 51.5122 87.9136 51.8115 87.5335 51.8115H83.0603C82.6802 51.8115 82.3721 51.5122 82.3721 51.1429V50.8087Z" fill="white"/>
<path d="M92.4004 50.8087C92.4004 50.4394 92.7211 50.1401 93.1167 50.1401H99.2051C99.6007 50.1401 99.9214 50.4394 99.9214 50.8087V51.1429C99.9214 51.5122 99.6007 51.8115 99.2051 51.8115H93.1167C92.7211 51.8115 92.4004 51.5122 92.4004 51.1429V50.8087Z" fill="white"/>
<path d="M100.924 50.1401C100.37 50.1401 99.9209 49.8194 99.9209 49.4239L99.9209 43.3354C99.9209 42.9398 100.37 42.6191 100.924 42.6191L101.425 42.6191C101.979 42.6191 102.428 42.9398 102.428 43.3354L102.428 49.4239C102.428 49.8194 101.979 50.1401 101.425 50.1401L100.924 50.1401Z" fill="white"/>
<path d="M91.397 50.1401C91.0278 50.1401 90.7285 49.8194 90.7285 49.4239L90.7285 43.3354C90.7285 42.9398 91.0278 42.6191 91.397 42.6191L91.7313 42.6191C92.1005 42.6191 92.3998 42.9398 92.3998 43.3354L92.3999 49.4239C92.3999 49.8194 92.1005 50.1401 91.7313 50.1401L91.397 50.1401Z" fill="white"/>
<path d="M100.924 59.3323C100.37 59.3323 99.9209 59.0116 99.9209 58.616L99.9209 52.5276C99.9209 52.132 100.37 51.8113 100.924 51.8113L101.425 51.8113C101.979 51.8113 102.428 52.132 102.428 52.5276L102.428 58.616C102.428 59.0116 101.979 59.3323 101.425 59.3323L100.924 59.3323Z" fill="white"/>
<path d="M91.397 59.3323C91.0278 59.3323 90.7285 59.0116 90.7285 58.616L90.7285 52.5276C90.7285 52.132 91.0278 51.8113 91.397 51.8113L91.7313 51.8113C92.1005 51.8113 92.3998 52.132 92.3998 52.5276L92.3999 58.616C92.3999 59.0116 92.1005 59.3323 91.7313 59.3323L91.397 59.3323Z" fill="white"/>
<path d="M113.125 50.1401C112.755 50.1401 112.456 49.8194 112.456 49.4239L112.456 43.3354C112.456 42.9398 112.755 42.6191 113.125 42.6191L113.459 42.6191C113.828 42.6191 114.127 42.9398 114.127 43.3354L114.127 49.4239C114.127 49.8194 113.828 50.1401 113.459 50.1401L113.125 50.1401Z" fill="white"/>
<path d="M103.932 50.1401C103.563 50.1401 103.264 49.8194 103.264 49.4239L103.264 43.3354C103.264 42.9398 103.563 42.6191 103.932 42.6191L104.266 42.6191C104.636 42.6191 104.935 42.9398 104.935 43.3354L104.935 49.4239C104.935 49.8194 104.636 50.1401 104.266 50.1401L103.932 50.1401Z" fill="white"/>
<path d="M113.125 59.3323C112.755 59.3323 112.456 59.0116 112.456 58.616L112.456 52.5276C112.456 52.132 112.755 51.8113 113.125 51.8113L113.459 51.8113C113.828 51.8113 114.127 52.132 114.127 52.5276L114.127 58.616C114.127 59.0116 113.828 59.3323 113.459 59.3323L113.125 59.3323Z" fill="white"/>
<path d="M103.932 59.3323C103.563 59.3323 103.264 59.0116 103.264 58.616L103.264 52.5276C103.264 52.132 103.563 51.8113 103.932 51.8113L104.266 51.8113C104.636 51.8113 104.935 52.132 104.935 52.5276L104.935 58.616C104.935 59.0116 104.636 59.3323 104.266 59.3323L103.932 59.3323Z" fill="white"/>
<path d="M104.936 50.8087C104.936 50.4394 105.256 50.1401 105.652 50.1401H111.74C112.136 50.1401 112.457 50.4394 112.457 50.8087V51.1429C112.457 51.5122 112.136 51.8115 111.74 51.8115H105.652C105.256 51.8115 104.936 51.5122 104.936 51.1429V50.8087Z" fill="white"/>
<path d="M92.4004 41.6163C92.4004 41.2471 92.7211 40.9478 93.1167 40.9478H99.2051C99.6007 40.9478 99.9214 41.2471 99.9214 41.6163V41.9506C99.9214 42.3198 99.6007 42.6191 99.2051 42.6191H93.1167C92.7211 42.6191 92.4004 42.3198 92.4004 41.9506V41.6163Z" fill="white"/>
<path d="M104.936 41.6163C104.936 41.2471 105.256 40.9478 105.652 40.9478H111.74C112.136 40.9478 112.457 41.2471 112.457 41.6163V41.9506C112.457 42.3198 112.136 42.6191 111.74 42.6191H105.652C105.256 42.6191 104.936 42.3198 104.936 41.9506V41.6163Z" fill="white"/>
<path d="M92.4004 60.0008C92.4004 59.6316 92.7211 59.3323 93.1167 59.3323H99.2051C99.6007 59.3323 99.9214 59.6316 99.9214 60.0008V60.3351C99.9214 60.7043 99.6007 61.0036 99.2051 61.0036H93.1167C92.7211 61.0036 92.4004 60.7043 92.4004 60.3351V60.0008Z" fill="white"/>
<path d="M104.936 60.0008C104.936 59.6316 105.256 59.3323 105.652 59.3323H111.74C112.136 59.3323 112.457 59.6316 112.457 60.0008V60.3351C112.457 60.7043 112.136 61.0036 111.74 61.0036H105.652C105.256 61.0036 104.936 60.7043 104.936 60.3351V60.0008Z" fill="white"/>
<path fill-rule="evenodd" clip-rule="evenodd" d="M55.5031 1.45827H149.353C156.787 1.45827 162.813 7.49752 162.813 14.9473V303H164.268V14.9473C164.268 6.69214 157.59 0 149.353 0H55.5031C47.2662 0 40.5889 6.69214 40.5889 14.9473V303H42.0439V14.9473C42.0439 7.49752 48.0698 1.45827 55.5031 1.45827Z" fill="white"/>
<line y1="302.5" x2="201.056" y2="302.5" stroke="white"/>
</svg>
