<svg width="322" height="43" viewBox="0 0 322 43" fill="none" xmlns="http://www.w3.org/2000/svg">
<path d="M317.8 1H4C2.34315 1 1 2.34315 1 4V38.7C1 40.3569 2.34315 41.7 4 41.7H317.8C319.457 41.7 320.8 40.3569 320.8 38.7V4C320.8 2.34315 319.457 1 317.8 1Z" stroke="white" stroke-width="2" stroke-linejoin="round"/>
<path d="M175.2 6.69995H146.7V35.2H175.2V6.69995Z" stroke="white" stroke-linejoin="round"/>
<path d="M207.4 7.90002V33.2" stroke="white" stroke-linejoin="round"/>
<path d="M237.6 7.90002V33.2" stroke="white" stroke-linejoin="round"/>
<path d="M115.1 7.90002V33.2" stroke="white" stroke-linejoin="round"/>
<path d="M194.7 15.9L191.3 12.3L188 15.9" stroke="white"/>
<path d="M188 25.5L191.4 29.1L194.7 25.5" stroke="white"/>
<path d="M220.5 27.4L222.1 28.9L225.4 25.6" stroke="white"/>
<path d="M221.6 11.3L219.8 13L221.6 14.7" stroke="white"/>
<path d="M220.4 13.1H224.8C226.4 13.1 226.5 16.2 224.8 16.2L220.4 16.3" stroke="white"/>
<path d="M127.6 18.9H134.4" stroke="white"/>
<path d="M127.6 20.8H134.4" stroke="white"/>
<path d="M127.6 22.8H134.4" stroke="white"/>
</svg>
