<svg width="322" height="163" viewBox="0 0 322 163" fill="none" xmlns="http://www.w3.org/2000/svg">
<path d="M0 1H322M322 162H0" stroke="white" stroke-width="2" stroke-linejoin="round"/>
<path d="M205.981 23.4668H93.416V136.048H205.981V23.4668Z" stroke="white" stroke-linejoin="round"/>
<path d="M284.974 59.8087L271.545 45.5879L258.511 59.8087" stroke="white"/>
<path d="M258.904 97.7305L272.333 111.951L285.367 97.7305" stroke="white"/>
<path d="M17.9746 71.6592H44.8322" stroke="white"/>
<path d="M17.9746 79.165H44.8322" stroke="white"/>
<path d="M17.9746 87.0654H44.8322" stroke="white"/>
<path d="M152.658 68.1035C152.658 69.6836 151.078 71.2637 149.499 71.2637C147.919 71.2637 146.339 69.6836 146.339 68.1035C146.339 66.5234 147.919 64.9434 149.499 64.9434C151.473 64.9434 152.658 66.1284 152.658 68.1035Z" fill="white"/>
<path d="M141.601 61.388C141.206 61.388 140.811 61.388 140.811 60.993C140.416 60.5979 140.416 59.8079 140.811 59.4129C145.945 55.4626 153.055 55.4626 157.794 59.4129C158.189 59.8079 158.584 60.5979 158.189 60.993C157.794 61.388 157.004 61.783 156.609 61.388C152.265 58.2278 146.735 58.2278 142.391 61.388C142.391 61.388 141.996 61.388 141.601 61.388Z" fill="white"/>
<path d="M136.862 55.0679C136.467 55.0679 136.072 55.0679 136.072 54.6729C135.677 54.2779 135.677 53.4878 136.467 53.0928C140.417 49.9326 144.761 48.3525 149.896 48.3525C155.03 48.3525 159.375 49.9326 163.324 52.6978C163.719 53.0928 164.114 53.8829 163.719 54.2779C163.324 54.6729 162.535 55.0679 162.14 54.6729C155.03 49.5376 145.156 49.5376 138.442 54.6729C137.652 55.0679 137.257 55.0679 136.862 55.0679Z" fill="white"/>
<path d="M166.879 48.7472C166.484 48.7472 166.484 48.7472 166.089 48.3521C161.349 44.7969 155.425 42.8218 149.5 42.8218C143.576 42.8218 137.651 44.7969 132.912 48.3521C132.517 48.7472 131.727 48.7472 131.332 47.9571C130.937 47.5621 130.937 46.772 131.727 46.377C136.861 42.4268 143.181 40.0566 149.895 40.0566C156.61 40.0566 162.534 42.0318 168.064 46.377C168.458 46.772 168.853 47.5621 168.458 47.9571C167.669 48.7472 167.274 48.7472 166.879 48.7472Z" fill="white"/>
<path d="M100.524 95.3609C100.524 93.3858 102.104 91.8057 104.079 91.8057C105.264 91.8057 106.054 92.2007 106.449 92.5957L106.054 92.9907C105.659 92.5957 104.869 92.2007 104.079 92.2007C102.499 92.2007 101.314 93.3858 101.314 94.9658C101.314 96.5459 102.499 97.731 104.079 97.731C104.869 97.731 105.659 97.336 106.054 96.941V95.7559H104.079V94.9658H106.844V97.731C106.054 98.126 105.264 98.9161 104.079 98.9161C102.104 98.9161 100.524 97.336 100.524 95.3609Z" fill="white"/>
<path d="M108.817 91.8057H113.952V92.5957H109.607V94.9658H113.162V95.7559H109.607V98.126H113.952V98.9161H108.817V91.8057Z" fill="white"/>
<path d="M114.349 99.7061H120.273V100.496H114.349V99.7061Z" fill="white"/>
<path d="M121.063 91.8057H121.853L124.223 95.3609L126.593 91.8057H127.383V98.5211H126.593V92.9907L124.223 96.5459L121.853 92.9907V98.5211H121.063V91.8057Z" fill="white"/>
<path d="M129.356 95.3609C129.356 93.3858 130.936 91.8057 132.911 91.8057C134.886 91.8057 136.466 93.3858 136.466 95.3609C136.466 97.336 134.886 98.9161 132.911 98.9161C130.936 98.9161 129.356 96.941 129.356 95.3609ZM135.281 95.3609C135.281 93.7808 134.096 92.5957 132.516 92.5957C130.936 92.5957 129.751 93.7808 129.751 95.3609C129.751 96.941 130.936 98.126 132.516 98.126C134.491 98.126 135.281 96.941 135.281 95.3609Z" fill="white"/>
<path d="M138.046 91.8057H140.416C142.391 91.8057 143.97 93.3858 143.97 95.3609C143.97 97.336 142.391 98.9161 140.416 98.9161H138.046V91.8057ZM138.836 92.5957V98.126H140.416C141.996 98.126 143.18 96.941 143.18 95.3609C143.18 93.7808 141.996 92.5957 140.416 92.5957H138.836Z" fill="white"/>
<path d="M145.552 95.7559V91.8057H146.342V95.7559C146.342 97.336 147.132 98.126 148.316 98.126C149.501 98.126 150.291 97.336 150.291 95.7559V91.8057H151.081V95.7559C151.081 97.731 149.896 98.9161 148.316 98.9161C146.737 98.9161 145.552 97.731 145.552 95.7559Z" fill="white"/>
<path d="M153.055 91.8057H153.845V98.126H157.794V98.9161H153.055V91.8057Z" fill="white"/>
<path d="M158.979 91.8057H164.113V92.5957H159.768V94.9658H163.323V95.7559H159.768V98.126H164.113V98.9161H158.979V91.8057Z" fill="white"/>
<path d="M164.51 99.7061H170.434V100.496H164.51V99.7061Z" fill="white"/>
<path d="M177.149 91.8057L174.779 95.3609L177.544 98.9161H176.754L174.384 95.7559L172.015 98.9161H171.225L173.989 95.3609L171.62 91.8057H172.41L174.384 94.5708L176.359 91.8057H177.149Z" fill="white"/>
<path d="M184.257 91.8057L181.888 95.3609L184.652 98.9161H183.862L181.493 95.7559L179.123 98.9161H178.333L181.098 95.3609L178.728 91.8057H179.518L181.493 94.5708L183.468 91.8057H184.257Z" fill="white"/>
<path d="M191.367 91.8057L188.997 95.3609L191.762 98.9161H190.972L188.602 95.7559L186.232 98.9161H185.442L188.207 95.3609L185.442 91.8057H186.232L188.207 94.5708L190.182 91.8057H191.367Z" fill="white"/>
<path d="M198.475 91.8057L196.105 95.3609L198.87 98.9161H198.08L195.711 95.7559L193.341 98.9161H192.551L195.316 95.3609L192.946 91.8057H193.736L195.711 94.5708L197.29 91.8057H198.475Z" fill="white"/>
<path d="M127.778 111.161L125.408 114.716L128.173 118.272H127.383L125.013 115.111L122.643 118.272H121.854L124.618 114.716L122.249 111.161H123.038L125.013 113.926L126.988 111.161H127.778Z" fill="white"/>
<path d="M134.887 111.161L132.518 114.716L135.282 118.272H134.492L132.123 115.111L129.753 118.272H128.963L131.728 114.716L129.358 111.161H130.148L132.123 113.926L134.097 111.161H134.887Z" fill="white"/>
<path d="M141.996 111.161L139.626 114.716L142.391 118.272H141.601L139.231 115.111L136.861 118.272H136.071L138.836 114.716L136.466 111.161H137.256L139.231 113.926L141.206 111.161H141.996Z" fill="white"/>
<path d="M149.104 111.161L146.734 114.716L149.499 118.272H148.709L146.339 115.111L143.97 118.272H143.18L145.944 114.716L143.575 111.161H144.365L146.339 113.926L148.314 111.161H149.104Z" fill="white"/>
<path d="M155.82 111.161L153.45 114.716L156.215 118.272H155.425L153.055 115.111L150.685 118.272H149.896L152.66 114.716L150.29 111.161H151.08L153.055 113.926L155.03 111.161H155.82Z" fill="white"/>
<path d="M162.928 111.161L160.559 114.716L163.323 118.272H162.533L160.164 115.111L157.794 118.272H157.004L159.769 114.716L157.399 111.161H158.189L160.164 113.926L162.138 111.161H162.928Z" fill="white"/>
<path d="M170.037 111.161L167.667 114.716L170.432 118.272H169.642L167.272 115.111L164.902 118.272H164.112L166.877 114.716L164.507 111.161H165.297L167.272 113.926L169.247 111.161H170.037Z" fill="white"/>
<path d="M177.149 111.161L174.779 114.716L177.544 118.272H176.754L174.384 115.111L172.015 118.272H171.225L173.989 114.716L171.62 111.161H172.41L174.384 113.926L176.359 111.161H177.149Z" fill="white"/>
<rect x="101.5" y="105.5" width="95" height="19" rx="2.5" stroke="#F2A900"/>
</svg>
