<svg width="375" height="232" viewBox="0 0 375 232" fill="none" xmlns="http://www.w3.org/2000/svg">
<path fill-rule="evenodd" clip-rule="evenodd" d="M341.478 136.832H34.5221C31.4728 136.832 29 134.361 29 131.314V101.518C29 98.47 31.4728 96 34.5221 96H341.478C344.527 96 347 98.47 347 101.518V131.314C347 134.361 344.527 136.832 341.478 136.832Z" stroke="white" stroke-width="2"/>
<path fill-rule="evenodd" clip-rule="evenodd" d="M198.536 125.895H148.702C147.869 125.895 147.194 125.219 147.194 124.386V108.615C147.194 107.782 147.869 107.107 148.702 107.107H198.536C199.369 107.107 200.044 107.782 200.044 108.615V124.386C200.044 125.219 199.369 125.895 198.536 125.895Z" stroke="white"/>
<path fill-rule="evenodd" clip-rule="evenodd" d="M97.8438 119.672H85.7018C84.8688 119.672 84.1938 118.997 84.1938 118.164V112.447C84.1938 111.614 84.8688 110.939 85.7018 110.939H97.8438C98.6768 110.939 99.3528 111.614 99.3528 112.447V118.164C99.3528 118.997 98.6768 119.672 97.8438 119.672Z" stroke="white" stroke-width="0.5"/>
<path d="M84.1938 123.505H99.3528" stroke="white" stroke-linecap="round"/>
<path fill-rule="evenodd" clip-rule="evenodd" d="M130.253 119.672H118.111C117.278 119.672 116.603 118.997 116.603 118.164V112.447C116.603 111.614 117.278 110.939 118.111 110.939H130.253C131.086 110.939 131.761 111.614 131.761 112.447V118.164C131.761 118.997 131.086 119.672 130.253 119.672Z" stroke="white" stroke-width="0.5"/>
<path d="M116.603 123.505H131.761" stroke="white" stroke-linecap="round"/>
<path d="M213 123.505H228" stroke="white" stroke-linecap="round"/>
<path fill-rule="evenodd" clip-rule="evenodd" d="M259.57 119.672H247.428C246.595 119.672 245.92 118.997 245.92 118.164V112.447C245.92 111.614 246.595 110.939 247.428 110.939H259.57C260.403 110.939 261.078 111.614 261.078 112.447V118.164C261.078 118.997 260.403 119.672 259.57 119.672Z" stroke="white" stroke-width="0.5"/>
<path fill-rule="evenodd" clip-rule="evenodd" d="M226.508 119.733H214.492C213.668 119.733 213 119.058 213 118.225V112.508C213 111.675 213.668 111 214.492 111H226.508C227.332 111 228 111.675 228 112.508V118.225C228 119.058 227.332 119.733 226.508 119.733Z" fill="#F2A900"/>
<path d="M245.919 123.505H261.078" stroke="white" stroke-linecap="round"/>
<path fill-rule="evenodd" clip-rule="evenodd" d="M291.979 119.672H279.837C279.004 119.672 278.329 118.997 278.329 118.164V112.447C278.329 111.614 279.004 110.939 279.837 110.939H291.979C292.812 110.939 293.487 111.614 293.487 112.447V118.164C293.487 118.997 292.812 119.672 291.979 119.672Z" stroke="white" stroke-width="0.5"/>
<path d="M278.329 123.505H293.488" stroke="white" stroke-linecap="round"/>
</svg>
