<svg width="219" height="224" viewBox="0 0 219 224" fill="none" xmlns="http://www.w3.org/2000/svg">
<path d="M144.592 96.6687H150.476C150.906 98.1051 152.341 99.1105 153.92 99.1105C155.498 99.1105 156.79 98.1051 157.364 96.6687H163.248C163.679 96.6687 163.966 96.525 164.253 96.0941C164.396 95.9505 164.396 95.6632 164.396 95.5195C164.396 95.3759 164.396 95.0886 164.253 94.945C163.822 94.0831 163.392 93.3649 163.105 92.5031C162.387 90.9231 161.526 87.1884 161.382 85.1775C161.239 83.0229 161.095 82.8792 160.952 82.0174C160.521 80.581 159.23 79.1446 156.934 79.001H154.063H151.193C149.04 79.001 147.605 80.4374 147.175 81.8738C146.888 82.7356 146.888 83.0229 146.744 85.1775C146.601 87.1884 145.74 90.9231 145.022 92.5031C144.592 93.3649 144.161 94.0831 143.874 94.8013C143.73 94.945 143.73 95.2323 143.73 95.3759C143.73 95.5195 143.73 95.8068 143.874 95.9505C143.874 96.525 144.305 96.6687 144.592 96.6687ZM153.92 97.3869C153.059 97.3869 152.485 96.9559 152.198 96.2377H153.92H155.642C155.355 96.9559 154.637 97.3869 153.92 97.3869ZM146.457 93.3649C147.318 91.4976 148.036 87.6194 148.323 85.4648C148.466 83.4538 148.61 83.3102 148.753 82.592C148.897 81.8738 149.758 81.0119 151.05 80.8683C152.054 80.8683 152.915 80.8683 153.776 80.8683C154.637 80.8683 155.642 80.8683 156.503 80.8683C157.938 80.8683 158.656 81.8738 158.799 82.4483C158.943 83.3102 159.086 83.3102 159.23 85.4648C159.373 87.763 160.234 91.6413 161.095 93.3649C161.382 94.0831 161.67 94.5141 161.813 94.945H153.633H145.453C145.883 94.5141 146.17 93.9395 146.457 93.3649Z" fill="white"/>
<path fill-rule="evenodd" clip-rule="evenodd" d="M153.964 67.0049C141.718 67.0049 131.789 76.9415 131.789 89.1999C131.789 101.458 141.718 111.395 153.964 111.395C166.211 111.395 176.139 101.458 176.139 89.1999C176.139 76.9415 166.211 67.0049 153.964 67.0049ZM130.789 89.1999C130.789 76.3901 141.164 66.0049 153.964 66.0049C166.764 66.0049 177.139 76.3901 177.139 89.1999C177.139 102.01 166.764 112.395 153.964 112.395C141.164 112.395 130.789 102.01 130.789 89.1999Z" fill="white"/>
<path d="M88.0941 89.1999C88.0941 101.458 78.1656 111.395 65.9191 111.395C53.6726 111.395 43.7441 101.458 43.7441 89.1999C43.7441 76.9415 53.6726 67.0049 65.9191 67.0049C78.1656 67.0049 88.0941 76.9415 88.0941 89.1999Z" stroke="#F2A900"/>
<path d="M34 79C35.6569 79 37 80.3431 37 82C37 83.6569 35.6569 85 34 85C32.3431 85 31 83.6569 31 82C31 80.3431 32.3431 79 34 79Z" fill="#ED2024"/>
<path d="M34 93C35.6569 93 37 94.3431 37 96C37 97.6569 35.6569 99 34 99C32.3431 99 31 97.6569 31 96C31 94.3431 32.3431 93 34 93Z" fill="#ED2024"/>
<path d="M58.9089 104.426H73.2601C73.8342 104.426 74.2647 103.996 74.2647 103.421V74.4058C74.2647 73.8312 73.8342 73.5439 73.2601 73.5439H58.9089C58.3348 73.5439 57.9043 73.9749 57.9043 74.4058V103.421C57.9043 103.996 58.3348 104.426 58.9089 104.426ZM72.6861 102.703H59.4829V101.554H72.6861V102.703ZM59.4829 76.4167V75.6985H72.6861V100.548H59.4829V76.4167Z" fill="#F2A900"/>
<path d="M60.918 87.4769H61.492H71.2509V76.9912H60.918V87.4769ZM62.0661 77.9967H70.1028V86.1842H62.0661V77.9967Z" fill="#F2A900"/>
<path d="M60.918 98.5365H61.492H71.2509V88.0508H60.918V98.5365ZM62.0661 89.1999H70.1028V97.3874H62.0661V89.1999Z" fill="#F2A900"/>
<path d="M2.87025 223.36V8.61837C2.87025 5.4583 5.45347 2.87279 8.61075 2.87279H210.389C213.547 2.87279 216.13 5.4583 216.13 8.61837V223.36H219V8.61837C219 3.87827 215.125 0 210.389 0H8.61075C3.87484 0 0 3.87827 0 8.61837V223.36H2.87025Z" fill="white"/>
<path fill-rule="evenodd" clip-rule="evenodd" d="M209 153H10V152.4H209V153Z" fill="white"/>
<rect x="29" y="124" width="71" height="9" fill="#636363"/>
<rect x="118" y="124" width="71" height="9" fill="#636363"/>
</svg>
