<svg width="339" height="94" viewBox="0 0 339 94" fill="none" xmlns="http://www.w3.org/2000/svg">
<path d="M336.52 94H2.36748C1.01463 94 0 92.8756 0 91.6388V2.36124C0 1.1244 1.12737 0 2.36748 0H336.52C337.873 0 338.887 1.1244 338.887 2.36124V91.5263C339 92.8756 337.873 94 336.52 94ZM2.36748 2.2488L2.25474 2.36124V91.5263C2.25474 91.6388 2.36748 91.6388 2.36748 91.6388H336.52C336.633 91.6388 336.633 91.5263 336.633 91.5263V2.36124C336.633 2.2488 336.52 2.2488 336.52 2.2488H2.36748Z" fill="white"/>
<path d="M12.8521 38.6792H14.3176C15.2195 38.6792 15.7832 39.129 15.7832 39.916C15.7832 40.7031 15.1068 41.1529 14.2049 41.1529H13.303V42.5022H12.8521V38.6792ZM14.2049 40.8156C14.8813 40.8156 15.2195 40.4782 15.2195 39.916C15.2195 39.3538 14.7686 39.129 14.2049 39.129H13.1903V40.8156H14.2049Z" fill="white"/>
<path d="M17.587 38.6792H18.0379L19.8417 42.6146H19.3908L18.8271 41.6026H16.6851L16.2342 42.6146H15.7832L17.587 38.6792ZM18.7144 41.1529L17.8125 39.129L16.9106 41.1529H18.7144Z" fill="white"/>
<path d="M20.1799 42.0524L20.4054 41.7151C20.8564 42.0524 21.1946 42.2773 21.7582 42.2773C22.3219 42.2773 22.6601 42.0524 22.6601 41.6026C22.6601 41.2653 22.4347 41.0404 21.6455 40.8156C20.7436 40.5907 20.2927 40.3658 20.2927 39.6912C20.2927 39.129 20.8564 38.6792 21.5328 38.6792C22.0965 38.6792 22.5474 38.7916 22.8856 39.129L22.6601 39.4663C22.3219 39.129 21.9837 39.0165 21.5328 39.0165C21.0818 39.0165 20.7436 39.2414 20.7436 39.6912C20.7436 40.0285 20.9691 40.2534 21.7582 40.4782C22.6601 40.7031 22.9984 40.928 22.9984 41.6026C22.9984 42.2773 22.4347 42.727 21.6455 42.727C21.1946 42.6146 20.6309 42.3897 20.1799 42.0524Z" fill="white"/>
<path d="M23.6748 42.0524L23.9003 41.7151C24.3512 42.0524 24.6894 42.2773 25.2531 42.2773C25.8168 42.2773 26.155 42.0524 26.155 41.6026C26.155 41.2653 25.9295 41.0404 25.1404 40.8156C24.2385 40.5907 23.7875 40.3658 23.7875 39.6912C23.7875 39.129 24.3512 38.6792 25.0277 38.6792C25.5913 38.6792 26.0423 38.7916 26.3805 39.129L26.155 39.4663C25.8168 39.129 25.4786 39.0165 25.0277 39.0165C24.5767 39.0165 24.2385 39.2414 24.2385 39.6912C24.2385 40.0285 24.464 40.2534 25.2531 40.4782C26.155 40.7031 26.4932 40.928 26.4932 41.6026C26.4932 42.2773 25.9295 42.727 25.1404 42.727C24.6894 42.6146 24.1258 42.3897 23.6748 42.0524Z" fill="white"/>
<path d="M27.0569 38.6792H27.5078L28.6352 41.94L29.6498 38.6792H29.988L31.0027 41.94L32.13 38.6792H32.6937L31.3409 42.6146H31.0027L29.988 39.4663L28.9734 42.6146H28.6352L27.0569 38.6792Z" fill="white"/>
<path d="M33.1448 40.7031C33.1448 39.5787 33.9339 38.6792 35.174 38.6792C36.3014 38.6792 37.2033 39.5787 37.2033 40.7031C37.2033 41.7151 36.4141 42.727 35.174 42.727C33.9339 42.6146 33.1448 41.7151 33.1448 40.7031ZM36.6396 40.7031C36.6396 39.8036 35.9632 39.129 35.0613 39.129C34.1594 39.129 33.5957 39.8036 33.5957 40.7031C33.5957 41.6026 34.2721 42.2773 35.174 42.2773C36.0759 42.2773 36.6396 41.4902 36.6396 40.7031Z" fill="white"/>
<path d="M37.9924 38.6792H39.6835C40.1344 38.6792 40.5854 38.7916 40.8109 39.0165C41.0363 39.2414 41.1491 39.4663 41.1491 39.8036C41.1491 40.4782 40.6981 40.8156 40.1344 40.928L41.3745 42.5022H40.8109L39.6835 41.0404H38.5561V42.5022H38.1052V38.6792H37.9924ZM39.6835 40.7031C40.2472 40.7031 40.6981 40.3658 40.6981 39.916C40.6981 39.4663 40.3599 39.129 39.6835 39.129H38.4434V40.7031H39.6835Z" fill="white"/>
<path d="M42.051 38.6792H43.4039C44.644 38.6792 45.4331 39.4663 45.4331 40.5907C45.4331 41.7151 44.644 42.5022 43.4039 42.5022H42.051V38.6792ZM42.502 39.129V42.1648H43.4039C44.4185 42.1648 44.9822 41.4902 44.9822 40.5907C44.9822 39.6912 44.3058 39.0165 43.4039 39.0165H42.502V39.129Z" fill="white"/>
<path d="M46.335 39.6909H46.8986V40.2531H46.335V39.6909ZM46.335 41.9397H46.8986V42.5019H46.335V41.9397Z" fill="white"/>
<path d="M139.117 38.6792H139.568L141.034 40.8156L142.499 38.6792H142.95V42.5022H142.499V39.3538L141.034 41.3778L139.568 39.3538V42.5022H139.117V38.6792Z" fill="white"/>
<path d="M145.317 38.6792H145.768L147.572 42.6146H147.121L146.558 41.6026H144.416L143.965 42.6146H143.514L145.317 38.6792ZM146.445 41.1529L145.543 39.129L144.641 41.1529H146.445Z" fill="white"/>
<path d="M147.911 40.7031C147.911 39.5787 148.7 38.6792 149.827 38.6792C150.504 38.6792 150.955 38.9041 151.293 39.2414L150.955 39.5787C150.616 39.2414 150.278 39.0165 149.714 39.0165C148.813 39.0165 148.249 39.6912 148.249 40.5907C148.249 41.4902 148.925 42.1648 149.714 42.1648C150.278 42.1648 150.616 41.94 150.955 41.6026L151.293 41.94C150.842 42.3897 150.391 42.6146 149.714 42.6146C148.7 42.6146 147.911 41.7151 147.911 40.7031Z" fill="white"/>
<path d="M153.886 38.6792H154.337V42.5022H153.886V38.6792Z" fill="white"/>
<path d="M155.464 38.6792H156.817C158.057 38.6792 158.846 39.4663 158.846 40.5907C158.846 41.7151 158.057 42.5022 156.817 42.5022H155.464V38.6792ZM155.915 39.129V42.1648H156.817C157.831 42.1648 158.395 41.4902 158.395 40.5907C158.395 39.6912 157.719 39.0165 156.817 39.0165H155.915V39.129Z" fill="white"/>
<path d="M159.635 39.6909H160.199V40.2531H159.635V39.6909ZM159.635 41.9397H160.199V42.5019H159.635V41.9397Z" fill="white"/>
<path d="M21.8709 46.2129L17.8123 51.61L21.9836 57.232H20.518L17.0232 52.5095L13.5283 57.232H12.0627L16.234 51.61L12.1755 46.2129H13.6411L17.0232 50.7105L20.4053 46.2129H21.8709Z" fill="white"/>
<path d="M33.2573 46.2129L29.1988 51.61L33.3701 57.232H31.9045L28.4096 52.5095L24.9148 57.232H23.4492L27.6205 51.61L23.6747 46.2129H25.1403L28.5224 50.7105L31.9045 46.2129H33.2573Z" fill="white"/>
<path d="M44.6438 46.2129L40.5853 51.61L44.7565 57.232H43.291L39.7961 52.5095L36.3013 57.232H34.8357L39.007 51.61L34.9484 46.2129H36.414L39.7961 50.7105L43.1782 46.2129H44.6438Z" fill="white"/>
<path d="M56.03 46.2129L51.9715 51.61L56.1428 57.232H54.6772L51.1824 52.5095L47.6875 57.232H46.2219L50.3932 51.61L46.3347 46.2129H47.8002L51.1824 50.7105L54.5645 46.2129H56.03Z" fill="white"/>
<path d="M67.4165 46.2129L63.358 51.61L67.5293 57.232H66.0637L62.5688 52.5095L59.074 57.232H57.6084L61.7797 51.61L57.7211 46.2129H59.1867L62.5688 50.7105L65.9509 46.2129H67.4165Z" fill="white"/>
<path d="M78.803 46.2129L74.7445 51.61L78.9157 57.232H77.4501L73.9553 52.5095L70.4605 57.232H68.9949L73.1661 51.61L69.1076 46.2129H70.5732L73.9553 50.7105L77.3374 46.2129H78.803Z" fill="white"/>
<path d="M90.3023 46.2129L86.2437 51.61L90.415 57.232H88.9494L85.4546 52.5095L81.9597 57.232H80.4941L84.6654 51.61L80.6069 46.2129H82.0725L85.4546 50.7105L88.8367 46.2129H90.3023Z" fill="white"/>
<path d="M101.689 46.2129L97.6302 51.61L101.801 57.232H100.336L96.841 52.5095L93.3462 57.232H91.8806L96.0519 51.61L91.9934 46.2129H93.4589L96.841 50.7105L100.223 46.2129H101.689Z" fill="white"/>
<path d="M147.911 46.2129L143.852 51.61L148.023 57.232H146.558L143.063 52.5095L139.568 57.232H138.103L142.274 51.61L138.215 46.2129H139.681L143.063 50.7105L146.445 46.2129H147.911Z" fill="white"/>
<path d="M159.297 46.2129L155.238 51.61L159.41 57.232H157.944L154.449 52.5095L150.954 57.232H149.489L153.66 51.61L149.601 46.2129H151.067L154.449 50.7105L157.831 46.2129H159.297Z" fill="white"/>
<path d="M175.418 46.2129L171.36 51.61L175.531 57.232H174.066L170.571 52.5095L167.076 57.232H165.61L169.782 51.61L165.723 46.2129H167.189L170.571 50.7105L173.953 46.2129H175.418Z" fill="white"/>
<path d="M186.805 46.2129L182.746 51.61L186.917 57.232H185.452L181.957 52.5095L178.462 57.232H176.997L181.168 51.61L177.109 46.2129H178.575L181.957 50.7105L185.339 46.2129H186.805Z" fill="white"/>
<path d="M202.926 46.2129L198.868 51.61L203.039 57.232H201.573L198.079 52.5095L194.584 57.232H193.118L197.289 51.61L193.231 46.2129H194.696L198.079 50.7105L201.461 46.2129H202.926Z" fill="white"/>
<path d="M214.313 46.2129L210.254 51.61L214.425 57.232H212.96L209.465 52.5095L205.97 57.232H204.504L208.676 51.61L204.617 46.2129H206.083L209.465 50.7105L212.847 46.2129H214.313Z" fill="white"/>
<path d="M230.434 46.2129L226.376 51.61L230.547 57.232H229.081L225.586 52.5095L222.092 57.232H220.626L224.797 51.61L220.739 46.2129H222.204L225.586 50.7105L228.969 46.2129H230.434Z" fill="white"/>
<path d="M241.82 46.2129L237.762 51.61L241.933 57.232H240.467L236.973 52.5095L233.478 57.232H232.012L236.183 51.61L232.125 46.2129H233.591L236.973 50.7105L240.355 46.2129H241.82Z" fill="white"/>
<path d="M257.942 46.2129L253.883 51.61L258.055 57.232H256.589L253.094 52.5095L249.599 57.232H248.134L252.305 51.61L248.247 46.2129H249.712L253.094 50.7105L256.476 46.2129H257.942Z" fill="white"/>
<path d="M269.328 46.2129L265.27 51.61L269.441 57.232H267.975L264.48 52.5095L260.986 57.232H259.52L263.691 51.61L259.633 46.2129H261.098L264.48 50.7105L267.863 46.2129H269.328Z" fill="white"/>
<path d="M285.45 46.2129L281.391 51.61L285.562 57.232H284.097L280.602 52.5095L277.107 57.232H275.642L279.813 51.61L275.754 46.2129H277.22L280.602 50.7105L283.984 46.2129H285.45Z" fill="white"/>
<path d="M295.596 46.2129L291.538 51.61L295.709 57.232H294.243L290.749 52.5095L287.254 57.232H285.788L289.959 51.61L285.901 46.2129H287.366L290.749 50.7105L294.131 46.2129H295.596Z" fill="white"/>
<path d="M136.637 73.311C136.637 72.1866 137.426 71.2871 138.554 71.2871C139.23 71.2871 139.681 71.512 140.019 71.8493L139.681 72.1866C139.343 71.8493 139.005 71.6244 138.441 71.6244C137.539 71.6244 136.975 72.2991 136.975 73.1986C136.975 74.0981 137.652 74.7728 138.441 74.7728C139.005 74.7728 139.343 74.5479 139.681 74.2106L140.019 74.5479C139.568 74.9976 139.117 75.2225 138.441 75.2225C137.426 75.335 136.637 74.4354 136.637 73.311Z" fill="white"/>
<path d="M140.583 73.311C140.583 72.1866 141.372 71.2871 142.612 71.2871C143.852 71.2871 144.642 72.1866 144.642 73.311C144.642 74.323 143.852 75.335 142.612 75.335C141.372 75.335 140.583 74.323 140.583 73.311ZM144.078 73.311C144.078 72.4115 143.401 71.7369 142.5 71.7369C141.598 71.7369 141.034 72.4115 141.034 73.311C141.034 74.2105 141.71 74.8852 142.612 74.8852C143.514 74.8852 144.078 74.2105 144.078 73.311Z" fill="white"/>
<path d="M145.431 71.3994H145.882L148.362 74.5477V71.3994H148.813V75.2224H148.475L145.994 72.0741V75.2224H145.431V71.3994Z" fill="white"/>
<path d="M150.842 71.7369H149.489V71.2871H152.533V71.7369H151.18V75.2225H150.729V71.7369H150.842Z" fill="white"/>
<path d="M154.45 71.2871H154.901L156.705 75.2225H156.254L155.803 74.2106H153.661L153.21 75.2225H152.759L154.45 71.2871ZM155.464 73.7608L154.563 71.7369L153.661 73.7608H155.464Z" fill="white"/>
<path d="M157.381 71.3994H157.832V75.2224H157.381V71.3994Z" fill="white"/>
<path d="M158.959 71.3994H159.41L161.89 74.5477V71.3994H162.341V75.2224H162.003L159.523 72.0741V75.2224H158.959V71.3994Z" fill="white"/>
<path d="M163.13 74.6603L163.356 74.323C163.807 74.6603 164.145 74.8852 164.709 74.8852C165.272 74.8852 165.611 74.6603 165.611 74.2106C165.611 73.8732 165.385 73.6484 164.596 73.4235C163.694 73.1986 163.243 72.9737 163.243 72.2991C163.243 71.7369 163.807 71.2871 164.483 71.2871C165.047 71.2871 165.498 71.3995 165.836 71.7369L165.611 72.0742C165.272 71.7369 164.934 71.6244 164.483 71.6244C164.032 71.6244 163.694 71.8493 163.694 72.2991C163.694 72.6364 163.92 72.8613 164.709 73.0862C165.611 73.311 165.949 73.5359 165.949 74.2106C165.949 74.8852 165.385 75.335 164.596 75.335C164.032 75.335 163.581 75.1101 163.13 74.6603Z" fill="white"/>
<path d="M168.542 71.3994H168.993V75.2224H168.542V71.3994Z" fill="white"/>
<path d="M170.007 73.311C170.007 72.1866 170.796 71.2871 171.924 71.2871C172.6 71.2871 173.051 71.512 173.389 71.8493L173.051 72.1866C172.713 71.8493 172.375 71.6244 171.811 71.6244C170.909 71.6244 170.346 72.2991 170.346 73.1986C170.346 74.0981 171.022 74.7728 171.811 74.7728C172.375 74.7728 172.713 74.5479 173.051 74.2106L173.389 74.5479C172.938 74.9976 172.488 75.2225 171.811 75.2225C170.796 75.335 170.007 74.4354 170.007 73.311Z" fill="white"/>
<path d="M174.179 72.4116H174.742V72.9738H174.179V72.4116ZM174.179 74.6604H174.742V75.2226H174.179V74.6604Z" fill="white"/>
<path d="M140.019 77.9209L138.666 79.8324L140.019 81.8563H139.23L138.215 80.3946L137.201 81.8563H136.412L137.764 79.8324L136.412 77.9209H137.201L138.215 79.2702L139.23 77.9209H140.019Z" fill="white"/>
<path d="M144.078 77.9209L142.725 79.8324L144.078 81.8563H143.289L142.274 80.3946L141.259 81.8563H140.47L141.823 79.8324L140.47 77.9209H141.259L142.274 79.2702L143.289 77.9209H144.078Z" fill="white"/>
<path d="M148.136 77.9209L146.784 79.8324L148.136 81.8563H147.347L146.333 80.3946L145.318 81.8563H144.529L145.882 79.8324L144.529 77.9209H145.318L146.333 79.2702L147.347 77.9209H148.136Z" fill="white"/>
<path d="M152.195 77.9209L150.842 79.8324L152.195 81.8563H151.406L150.391 80.3946L149.377 81.8563H148.587L149.94 79.8324L148.587 77.9209H149.377L150.391 79.2702L151.406 77.9209H152.195Z" fill="white"/>
<path d="M156.141 77.9209L154.788 79.8324L156.141 81.8563H155.352L154.337 80.3946L153.322 81.8563H152.533L153.886 79.8324L152.533 77.9209H153.322L154.337 79.2702L155.352 77.9209H156.141Z" fill="white"/>
<path d="M160.199 77.9209L158.846 79.8324L160.199 81.8563H159.41L158.395 80.3946L157.381 81.8563H156.704L158.057 79.8324L156.704 77.9209H157.493L158.508 79.2702L159.523 77.9209H160.199Z" fill="white"/>
<path d="M162.454 79.7197H164.709V80.3944H162.454V79.7197Z" fill="white"/>
<path d="M170.571 77.9209L169.218 79.8324L170.571 81.8563H169.782L168.767 80.3946L167.753 81.8563H166.963L168.316 79.8324L166.963 77.9209H167.753L168.767 79.2702L169.782 77.9209H170.571Z" fill="white"/>
<path d="M174.404 77.9209L173.051 79.8324L174.404 81.8563H173.615L172.6 80.3946L171.586 81.8563H170.796L172.149 79.8324L170.796 77.9209H171.586L172.6 79.2702L173.615 77.9209H174.404Z" fill="white"/>
<path d="M178.237 77.9209L176.884 79.8324L178.237 81.8563H177.448L176.433 80.3946L175.419 81.8563H174.629L175.982 79.8324L174.629 77.9209H175.419L176.433 79.2702L177.448 77.9209H178.237Z" fill="white"/>
<path d="M181.732 77.9209L180.379 79.8324L181.732 81.8563H180.943L179.928 80.3946L178.914 81.8563H178.125L179.477 79.8324L178.125 77.9209H178.914L179.928 79.2702L180.943 77.9209H181.732Z" fill="white"/>
<path d="M185.227 77.9209L183.874 79.8324L185.227 81.8563H184.438L183.423 80.3946L182.408 81.8563H181.619L182.972 79.8324L181.619 77.9209H182.408L183.423 79.2702L184.438 77.9209H185.227Z" fill="white"/>
<path d="M188.834 77.9209L187.481 79.8324L188.834 81.8563H188.045L187.03 80.3946L186.016 81.8563H185.227L186.579 79.8324L185.227 77.9209H186.016L187.03 79.2702L188.045 77.9209H188.834Z" fill="white"/>
<path d="M192.893 77.9209L191.54 79.8324L192.893 81.8563H192.104L191.089 80.3946L190.074 81.8563H189.285L190.638 79.8324L189.285 77.9209H190.074L191.089 79.2702L192.104 77.9209H192.893Z" fill="white"/>
<path d="M196.951 77.9209L195.598 79.8324L196.951 81.8563H196.162L195.148 80.3946L194.133 81.8563H193.344L194.697 79.8324L193.344 77.9209H194.133L195.148 79.2702L196.162 77.9209H196.951Z" fill="white"/>
<path d="M75.5337 73.311C75.5337 72.1866 76.3228 71.2871 77.4502 71.2871C78.1266 71.2871 78.5776 71.512 78.9158 71.8493L78.5776 72.1866C78.2394 71.8493 77.9012 71.6244 77.3375 71.6244C76.4356 71.6244 75.8719 72.2991 75.8719 73.1986C75.8719 74.0981 76.5483 74.7728 77.3375 74.7728C77.9012 74.7728 78.2394 74.5479 78.5776 74.2106L78.9158 74.5479C78.4648 74.9976 78.0139 75.2225 77.3375 75.2225C76.3228 75.335 75.5337 74.4354 75.5337 73.311Z" fill="white"/>
<path d="M79.4795 73.311C79.4795 72.1866 80.2687 71.2871 81.5088 71.2871C82.6361 71.2871 83.538 72.1866 83.538 73.311C83.538 74.323 82.7489 75.335 81.5088 75.335C80.2687 75.335 79.4795 74.323 79.4795 73.311ZM82.9743 73.311C82.9743 72.4115 82.2979 71.7369 81.396 71.7369C80.4941 71.7369 79.9304 72.4115 79.9304 73.311C79.9304 74.2105 80.6069 74.8852 81.5088 74.8852C82.2979 74.8852 82.9743 74.2105 82.9743 73.311Z" fill="white"/>
<path d="M84.3271 71.3994H84.7781L87.2583 74.5477V71.3994H87.7093V75.2224H87.371L84.8908 72.0741V75.2224H84.4399V71.3994H84.3271Z" fill="white"/>
<path d="M89.7386 71.7369H88.3857V71.2871H91.4296V71.7369H90.1895V75.2225H89.7386V71.7369Z" fill="white"/>
<path d="M93.2333 71.2871H93.6842L95.488 75.2225H95.0371L94.5861 74.2106H92.4441L91.9932 75.2225H91.5422L93.2333 71.2871ZM94.3607 73.7608L93.4588 71.7369L92.5569 73.7608H94.3607Z" fill="white"/>
<path d="M96.2773 71.3994H96.7283V75.2224H96.2773V71.3994Z" fill="white"/>
<path d="M97.8557 71.3994H98.3067L100.787 74.5477V71.3994H101.238V75.2224H100.9L98.4194 72.0741V75.2224H97.9684V71.3994H97.8557Z" fill="white"/>
<path d="M101.914 74.6603L102.14 74.323C102.59 74.6603 102.929 74.8852 103.492 74.8852C104.056 74.8852 104.394 74.6603 104.394 74.2106C104.394 73.8732 104.169 73.6484 103.38 73.4235C102.478 73.1986 102.027 72.9737 102.027 72.2991C102.027 71.7369 102.59 71.2871 103.267 71.2871C103.831 71.2871 104.282 71.3995 104.62 71.7369L104.394 72.0742C104.056 71.7369 103.718 71.6244 103.267 71.6244C102.816 71.6244 102.478 71.8493 102.478 72.2991C102.478 72.6364 102.703 72.8613 103.492 73.0862C104.394 73.311 104.732 73.5359 104.732 74.2106C104.732 74.8852 104.169 75.335 103.38 75.335C102.929 75.335 102.478 75.1101 101.914 74.6603Z" fill="white"/>
<path d="M107.438 71.3994H110.257V71.8492H107.889V73.1985H110.031V73.6482H107.889V75.3348H107.438V71.3994Z" fill="white"/>
<path d="M110.82 73.311C110.82 72.1866 111.609 71.2871 112.737 71.2871C113.413 71.2871 113.864 71.512 114.202 71.8493L113.864 72.1866C113.526 71.8493 113.188 71.6244 112.624 71.6244C111.722 71.6244 111.159 72.2991 111.159 73.1986C111.159 74.0981 111.835 74.7728 112.624 74.7728C113.188 74.7728 113.526 74.5479 113.864 74.2106L114.202 74.5479C113.751 74.9976 113.301 75.2225 112.624 75.2225C111.609 75.335 110.82 74.4354 110.82 73.311Z" fill="white"/>
<path d="M114.766 73.311C114.766 72.1866 115.555 71.2871 116.683 71.2871C117.359 71.2871 117.81 71.512 118.148 71.8493L117.81 72.1866C117.472 71.8493 117.134 71.6244 116.57 71.6244C115.668 71.6244 115.104 72.2991 115.104 73.1986C115.104 74.0981 115.781 74.7728 116.57 74.7728C117.134 74.7728 117.472 74.5479 117.81 74.2106L118.148 74.5479C117.697 74.9976 117.246 75.2225 116.57 75.2225C115.668 75.335 114.766 74.4354 114.766 73.311Z" fill="white"/>
<path d="M119.163 71.3994H119.614V75.2224H119.163V71.3994Z" fill="white"/>
<path d="M120.628 71.3994H121.981C123.221 71.3994 124.011 72.1865 124.011 73.3109C124.011 74.4353 123.221 75.2224 121.981 75.2224H120.628V71.3994ZM121.079 71.7367V74.7726H121.981C122.996 74.7726 123.56 74.098 123.56 73.1985C123.56 72.2989 122.883 71.6243 121.981 71.6243H121.079V71.7367Z" fill="white"/>
<path d="M124.913 72.4116H125.476V72.9738H124.913V72.4116ZM124.913 74.6604H125.476V75.2226H124.913V74.6604Z" fill="white"/>
<path d="M78.9159 77.9209L77.5631 79.8324L78.9159 81.8563H78.1268L77.1121 80.3946L76.0975 81.8563H75.3083L76.6612 79.8324L75.3083 77.9209H76.0975L77.1121 79.2702L78.1268 77.9209H78.9159Z" fill="white"/>
<path d="M82.9745 77.921L81.6217 79.8325L82.9745 81.8565H82.1854L81.1707 80.2823L80.1561 81.744H79.3669L80.7198 79.7201L79.3669 77.8086H80.1561L81.1707 79.1579L82.1854 77.8086H82.9745V77.921Z" fill="white"/>
<path d="M87.0329 77.9209L85.68 79.8324L87.0329 81.8563H86.2437L85.2291 80.3946L84.2144 81.8563H83.4253L84.7781 79.8324L83.4253 77.9209H84.2144L85.2291 79.2702L86.2437 77.9209H87.0329Z" fill="white"/>
<path d="M89.175 79.7202H91.4298V80.3949H89.175V79.7202Z" fill="white"/>
<path d="M97.2922 77.9209L95.9393 79.8324L97.2922 81.8563H96.503L95.4884 80.3946L94.4737 81.8563H93.6846L95.0374 79.8324L93.6846 77.9209H94.4737L95.4884 79.2702L96.503 77.9209H97.2922Z" fill="white"/>
<path d="M101.125 77.9209L99.7723 79.8324L101.125 81.8563H100.336L99.3214 80.3946L98.3067 81.8563H97.5176L98.8704 79.8324L97.5176 77.9209H98.3067L99.3214 79.2702L100.336 77.9209H101.125Z" fill="white"/>
<path d="M104.958 77.9209L103.605 79.8324L104.958 81.8563H104.169L103.154 80.3946L102.14 81.8563H101.351L102.703 79.8324L101.463 77.9209H102.252L103.267 79.2702L104.282 77.9209H104.958Z" fill="white"/>
<path d="M108.791 77.921L107.438 79.8325L108.791 81.8565H108.002L106.987 80.3947L105.973 81.744H105.184L106.536 79.7201L105.184 77.8086H105.973L106.987 79.1579L108.002 77.8086H108.791V77.921Z" fill="white"/>
<path d="M112.286 77.921L110.933 79.8325L112.286 81.8565H111.61L110.482 80.2823L109.468 81.744H108.678L110.031 79.7201L108.678 77.8086H109.468L110.482 79.1579L111.497 77.8086H112.286V77.921Z" fill="white"/>
<path d="M115.894 77.9209L114.541 79.8324L115.894 81.8563H115.105L114.09 80.3946L113.075 81.8563H112.286L113.639 79.8324L112.286 77.9209H113.075L114.09 79.2702L115.105 77.9209H115.894Z" fill="white"/>
<path d="M119.388 77.9209L118.035 79.8324L119.388 81.8563H118.599L117.585 80.3946L116.57 81.8563H115.781L117.246 79.8324L115.894 77.9209H116.683L117.697 79.2702L118.712 77.9209H119.388Z" fill="white"/>
<path d="M123.447 77.9209L122.094 79.8324L123.447 81.8563H122.658L121.643 80.3946L120.629 81.8563H119.839L121.192 79.8324L119.839 77.9209H120.629L121.643 79.2702L122.658 77.9209H123.447Z" fill="white"/>
<path d="M205.745 71.3994H207.211C208.113 71.3994 208.676 71.8492 208.676 72.6363C208.676 73.4233 208 73.8731 207.098 73.8731H206.196V75.2224H205.745V71.3994ZM207.211 73.4233C207.887 73.4233 208.225 73.086 208.225 72.5238C208.225 71.9616 207.774 71.7367 207.211 71.7367H206.196V73.4233H207.211Z" fill="white"/>
<path d="M210.48 71.2871H210.931L212.735 75.2225H212.284L211.833 74.2106H209.691L209.24 75.2225H208.789L210.48 71.2871ZM211.607 73.7608L210.706 71.7369L209.804 73.7608H211.607Z" fill="white"/>
<path d="M213.411 71.3994H215.102C215.553 71.3994 216.004 71.5119 216.23 71.7367C216.455 71.9616 216.568 72.1865 216.568 72.5238C216.568 73.1985 216.117 73.5358 215.553 73.6482L216.793 75.2224H216.23L215.102 73.7607H213.975V75.2224H213.524V71.3994H213.411ZM215.102 73.3109C215.666 73.3109 216.117 72.9736 216.117 72.5238C216.117 72.0741 215.779 71.7367 215.102 71.7367H213.862V73.3109H215.102Z" fill="white"/>
<path d="M218.484 71.7369H217.131V71.2871H220.175V71.7369H218.822V75.2225H218.371V71.7369H218.484Z" fill="white"/>
<path d="M222.656 71.3994H223.107L225.587 74.5477V71.3994H226.038V75.2224H225.7L223.219 72.0741V75.2224H222.769V71.3994H222.656Z" fill="white"/>
<path d="M226.939 73.311C226.939 72.1866 227.729 71.2871 228.969 71.2871C230.209 71.2871 230.998 72.1866 230.998 73.311C230.998 74.323 230.209 75.335 228.969 75.335C227.729 75.335 226.939 74.323 226.939 73.311ZM230.434 73.311C230.434 72.4115 229.758 71.7369 228.856 71.7369C227.954 71.7369 227.39 72.4115 227.39 73.311C227.39 74.2105 228.067 74.8852 228.969 74.8852C229.758 74.8852 230.434 74.2105 230.434 73.311Z" fill="white"/>
<path d="M231.675 72.4116H232.238V72.9738H231.675V72.4116ZM231.675 74.6604H232.238V75.2226H231.675V74.6604Z" fill="white"/>
<path d="M209.014 77.9209L207.661 79.8324L209.014 81.8563H208.225L207.211 80.3946L206.196 81.8563H205.407L206.76 79.8324L205.407 77.9209H206.196L207.211 79.2702L208.225 77.9209H209.014Z" fill="white"/>
<path d="M213.073 77.9209L211.72 79.8324L213.073 81.8563H212.284L211.269 80.3946L210.254 81.8563H209.465L210.818 79.8324L209.465 77.9209H210.254L211.269 79.2702L212.284 77.9209H213.073Z" fill="white"/>
<path d="M217.132 77.9209L215.779 79.8324L217.132 81.8563H216.342L215.328 80.3946L214.313 81.8563H213.524L214.877 79.8324L213.524 77.9209H214.313L215.328 79.2702L216.342 77.9209H217.132Z" fill="white"/>
<path d="M221.077 77.9209L219.725 79.8324L221.077 81.8563H220.288L219.274 80.3946L218.259 81.8563H217.583L218.935 79.8324L217.583 77.9209H218.372L219.386 79.2702L220.401 77.9209H221.077Z" fill="white"/>
<path d="M225.136 77.9209L223.783 79.8324L225.136 81.8563H224.347L223.332 80.3946L222.317 81.8563H221.528L222.881 79.8324L221.528 77.9209H222.317L223.332 79.2702L224.347 77.9209H225.136Z" fill="white"/>
<path d="M229.082 77.9209L227.729 79.8324L229.082 81.8563H228.293L227.278 80.3946L226.263 81.8563H225.474L226.827 79.8324L225.474 77.9209H226.263L227.278 79.2702L228.293 77.9209H229.082Z" fill="white"/>
<path d="M233.14 77.9209L231.787 79.8324L233.14 81.8563H232.351L231.336 80.3946L230.321 81.8563H229.532L230.885 79.8324L229.532 77.9209H230.321L231.336 79.2702L232.351 77.9209H233.14Z" fill="white"/>
<path d="M238.777 77.9209L237.424 79.8324L238.777 81.8563H237.988L236.973 80.3946L235.959 81.8563H235.169L236.522 79.8324L235.169 77.9209H235.959L236.973 79.2702L237.988 77.9209H238.777Z" fill="white"/>
<path d="M242.836 77.9209L241.483 79.8324L242.836 81.8563H242.046L241.032 80.3946L240.017 81.8563H239.228L240.581 79.8324L239.228 77.9209H240.017L241.032 79.2702L242.046 77.9209H242.836Z" fill="white"/>
<path d="M246.894 77.9209L245.541 79.8324L246.894 81.8563H246.105L245.09 80.3946L244.075 81.8563H243.286L244.639 79.8324L243.286 77.9209H244.075L245.09 79.2702L246.105 77.9209H246.894Z" fill="white"/>
<path d="M250.84 77.9209L249.487 79.8324L250.84 81.8563H250.05L249.036 80.3946L248.021 81.8563H247.232L248.585 79.8324L247.232 77.9209H248.021L249.036 79.2702L250.05 77.9209H250.84Z" fill="white"/>
<path d="M254.785 77.9209L253.432 79.8324L254.785 81.8563H253.996L252.982 80.3946L251.967 81.8563H251.178L252.531 79.8324L251.178 77.9209H251.967L252.982 79.2702L253.996 77.9209H254.785Z" fill="white"/>
<path d="M258.844 77.9209L257.491 79.8324L258.844 81.8563H258.055L257.04 80.3946L256.026 81.8563H255.236L256.589 79.8324L255.236 77.9209H256.026L257.04 79.2702L258.055 77.9209H258.844Z" fill="white"/>
<path d="M262.902 77.9209L261.55 79.8324L262.902 81.8563H262.113L261.099 80.3946L260.084 81.8563H259.295L260.648 79.8324L259.295 77.9209H260.084L261.099 79.2702L262.113 77.9209H262.902Z" fill="white"/>
<path d="M266.848 71.3994H267.299L268.765 73.5358L270.23 71.3994H270.681V75.2224H270.23V72.0741L268.765 74.098L267.299 72.0741V75.2224H266.848V71.3994Z" fill="white"/>
<path d="M271.47 73.311C271.47 72.1866 272.259 71.2871 273.499 71.2871C274.74 71.2871 275.529 72.1866 275.529 73.311C275.529 74.323 274.74 75.335 273.499 75.335C272.259 75.335 271.47 74.323 271.47 73.311ZM275.078 73.311C275.078 72.4115 274.401 71.7369 273.499 71.7369C272.598 71.7369 272.034 72.4115 272.034 73.311C272.034 74.2105 272.71 74.8852 273.612 74.8852C274.401 74.8852 275.078 74.2105 275.078 73.311Z" fill="white"/>
<path d="M276.431 71.3994H277.784C279.024 71.3994 279.813 72.1865 279.813 73.3109C279.813 74.4353 279.024 75.2224 277.784 75.2224H276.431V71.3994ZM276.882 71.7367V74.7726H277.784C278.798 74.7726 279.362 74.098 279.362 73.1985C279.362 72.2989 278.685 71.6243 277.784 71.6243H276.882V71.7367Z" fill="white"/>
<path d="M280.715 71.3994H283.533V71.8492H281.166V73.086H283.308V73.5358H281.166V74.8851H283.533V75.3348H280.715V71.3994Z" fill="white"/>
<path d="M284.435 71.3994H284.886V74.8851H287.028V75.3348H284.435V71.3994Z" fill="white"/>
<path d="M289.508 71.3994H289.959L292.439 74.5477V71.3994H292.89V75.2224H292.552L290.072 72.0741V75.2224H289.621V71.3994H289.508Z" fill="white"/>
<path d="M293.792 73.311C293.792 72.1866 294.582 71.2871 295.822 71.2871C297.062 71.2871 297.851 72.1866 297.851 73.311C297.851 74.323 297.062 75.335 295.822 75.335C294.582 75.335 293.792 74.323 293.792 73.311ZM297.287 73.311C297.287 72.4115 296.611 71.7369 295.709 71.7369C294.807 71.7369 294.243 72.4115 294.243 73.311C294.243 74.2105 294.92 74.8852 295.822 74.8852C296.611 74.8852 297.287 74.2105 297.287 73.311Z" fill="white"/>
<path d="M298.527 72.4116H299.091V72.9738H298.527V72.4116ZM298.527 74.6604H299.091V75.2226H298.527V74.6604Z" fill="white"/>
<path d="M270.118 77.9209L268.765 79.8324L270.118 81.8563H269.329L268.314 80.3946L267.299 81.8563H266.51L267.863 79.8324L266.51 77.9209H267.299L268.314 79.2702L269.329 77.9209H270.118Z" fill="white"/>
<path d="M274.176 77.9209L272.824 79.8324L274.176 81.8563H273.387L272.373 80.3946L271.358 81.8563H270.569L271.922 79.8324L270.569 77.9209H271.358L272.373 79.2702L273.387 77.9209H274.176Z" fill="white"/>
<path d="M278.235 77.9209L276.882 79.8324L278.235 81.8563H277.446L276.431 80.3946L275.417 81.8563H274.627L275.98 79.8324L274.627 77.9209H275.417L276.431 79.2702L277.446 77.9209H278.235Z" fill="white"/>
<path d="M282.294 77.9209L280.941 79.8324L282.294 81.8563H281.504L280.49 80.3946L279.475 81.8563H278.686L280.039 79.8324L278.686 77.9209H279.475L280.49 79.2702L281.504 77.9209H282.294Z" fill="white"/>
<path d="M286.239 77.9209L284.887 79.8324L286.239 81.8563H285.45L284.436 80.3946L283.421 81.8563H282.632L284.097 79.8324L282.745 77.9209H283.534L284.548 79.2702L285.563 77.9209H286.239Z" fill="white"/>
<path d="M290.298 77.9209L288.945 79.8324L290.298 81.8563H289.509L288.494 80.3946L287.48 81.8563H286.69L288.043 79.8324L286.69 77.9209H287.48L288.494 79.2702L289.509 77.9209H290.298Z" fill="white"/>
<path d="M294.356 77.9209L293.003 79.8324L294.356 81.8563H293.567L292.552 80.3946L291.538 81.8563H290.749L292.101 79.8324L290.749 77.9209H291.538L292.552 79.2702L293.567 77.9209H294.356Z" fill="white"/>
<path d="M298.415 77.9209L297.062 79.8324L298.415 81.8563H297.626L296.611 80.3946L295.596 81.8563H294.807L296.16 79.8324L294.807 77.9209H295.596L296.611 79.2702L297.626 77.9209H298.415Z" fill="white"/>
<path d="M302.473 77.9209L301.12 79.8324L302.473 81.8563H301.684L300.67 80.3946L299.655 81.8563H298.866L300.219 79.8324L298.866 77.9209H299.655L300.67 79.2702L301.684 77.9209H302.473Z" fill="white"/>
<path d="M306.532 77.9209L305.179 79.8324L306.532 81.8563H305.743L304.728 80.3946L303.713 81.8563H302.924L304.277 79.8324L302.924 77.9209H303.713L304.728 79.2702L305.743 77.9209H306.532Z" fill="white"/>
<path d="M310.59 77.9209L309.238 79.8324L310.59 81.8563H309.801L308.787 80.3946L307.772 81.8563H306.983L308.336 79.8324L306.983 77.9209H307.772L308.787 79.2702L309.801 77.9209H310.59Z" fill="white"/>
<path d="M11.9502 71.3994H12.4011L14.8814 74.5477V71.3994H15.3323V75.2224H14.9941L12.4011 72.0741V75.2224H11.9502V71.3994Z" fill="white"/>
<path d="M16.3469 71.3994H19.1653V71.8492H16.7979V73.086H18.9399V73.5358H16.7979V74.8851H19.1653V75.3348H16.3469V71.3994Z" fill="white"/>
<path d="M21.0818 71.7369H19.729V71.2871H22.7729V71.7369H21.4201V75.2225H20.9691V71.7369H21.0818Z" fill="white"/>
<path d="M23.3367 71.3994H23.7876L24.915 74.6602L25.9296 71.3994H26.2678L27.2825 74.6602L28.4098 71.3994H28.8608L27.5079 75.3348H27.1697L26.1551 72.1865L25.1405 75.3348H24.8023L23.3367 71.3994Z" fill="white"/>
<path d="M29.4243 73.311C29.4243 72.1866 30.2135 71.2871 31.4536 71.2871C32.6937 71.2871 33.4828 72.1866 33.4828 73.311C33.4828 74.323 32.6937 75.335 31.4536 75.335C30.2135 75.335 29.4243 74.323 29.4243 73.311ZM32.9192 73.311C32.9192 72.4115 32.2427 71.7369 31.3408 71.7369C30.4389 71.7369 29.8753 72.4115 29.8753 73.311C29.8753 74.2105 30.5517 74.8852 31.4536 74.8852C32.2427 74.8852 32.9192 74.2105 32.9192 73.311Z" fill="white"/>
<path d="M34.2722 71.3994H35.9633C36.4142 71.3994 36.8652 71.5119 37.0906 71.7367C37.3161 71.9616 37.4289 72.1865 37.4289 72.5238C37.4289 73.1985 36.9779 73.5358 36.4142 73.6482L37.6543 75.2224H37.0906L35.9633 73.7607H34.8359V75.2224H34.385V71.3994H34.2722ZM35.8505 73.3109C36.4142 73.3109 36.8652 72.9736 36.8652 72.5238C36.8652 72.0741 36.527 71.7367 35.8505 71.7367H34.6104V73.3109H35.8505Z" fill="white"/>
<path d="M38.3306 71.3994H38.7815V73.7607L41.0363 71.3994H41.5999L39.7961 73.086L41.4872 75.2224H40.9235L39.4579 73.3109L38.6688 74.2104V75.2224H38.3306V71.3994Z" fill="white"/>
<path d="M42.1638 72.4116H42.7275V72.9738H42.1638V72.4116ZM42.1638 74.6604H42.7275V75.2226H42.1638V74.6604Z" fill="white"/>
<path d="M11.7246 79.8325C11.7246 78.7081 12.5138 77.8086 13.7539 77.8086C14.4303 77.8086 14.8812 78.0335 15.2195 78.3708L14.7685 78.933C14.4303 78.7081 14.2048 78.4832 13.6411 78.4832C12.9647 78.4832 12.401 79.1579 12.401 79.8325C12.401 80.6196 12.9647 81.1818 13.7539 81.1818C14.0921 81.1818 14.4303 81.0694 14.6558 80.8445V80.1698H13.6411V79.6076H15.3322V81.1818C14.994 81.5191 14.4303 81.744 13.7539 81.744C12.5138 81.8564 11.7246 80.9569 11.7246 79.8325Z" fill="white"/>
<path d="M16.2341 77.9209H19.1653V78.4831H16.9106V79.4951H18.8271V80.0573H16.9106V81.0692H19.1653V81.6314H16.2341V77.9209Z" fill="white"/>
<path d="M19.3906 82.0815H22.7727V82.6437H19.3906V82.0815Z" fill="white"/>
<path d="M23.2239 77.9209H23.9003L25.0277 79.7199L26.155 77.9209H27.0569V81.7439H26.3805V78.9329L25.1404 80.7319L23.9003 78.9329V81.7439H23.2239V77.9209Z" fill="white"/>
<path d="M27.9587 79.8325C27.9587 78.7081 28.7479 77.8086 29.988 77.8086C31.2281 77.8086 32.0173 78.7081 32.0173 79.8325C32.0173 80.9569 31.2281 81.8565 29.988 81.8565C28.7479 81.8565 27.9587 80.9569 27.9587 79.8325ZM31.2281 79.8325C31.2281 79.0454 30.6644 78.4832 29.8753 78.4832C29.0861 78.4832 28.5224 79.0454 28.5224 79.8325C28.5224 80.6196 29.0861 81.1818 29.8753 81.1818C30.6644 81.1818 31.2281 80.6196 31.2281 79.8325Z" fill="white"/>
<path d="M32.8064 77.9209H34.272C35.5121 77.9209 36.3012 78.708 36.3012 79.8324C36.3012 80.9568 35.5121 81.7439 34.272 81.7439H32.8064V77.9209ZM33.4828 78.4831V81.0692H34.272C35.0611 81.0692 35.6248 80.507 35.6248 79.7199C35.6248 78.9329 35.0611 78.3707 34.272 78.3707H33.4828V78.4831Z" fill="white"/>
<path d="M37.0903 80.1697V77.9209H37.7668V80.1697C37.7668 80.8443 38.105 81.2941 38.7814 81.2941C39.3451 81.2941 39.796 80.9568 39.796 80.1697V77.9209H40.4724V80.1697C40.4724 81.2941 39.796 81.8563 38.7814 81.8563C37.7668 81.8563 37.0903 81.2941 37.0903 80.1697Z" fill="white"/>
<path d="M41.3745 77.9209H42.0509V81.1817H44.0802V81.8563H41.3745V77.9209Z" fill="white"/>
<path d="M44.7566 77.9209H47.6878V78.4831H45.5458V79.4951H47.3495V80.0573H45.433V81.0692H47.6878V81.6314H44.7566V77.9209Z" fill="white"/>
<path d="M47.9131 82.0815H51.2952V82.6437H47.9131V82.0815Z" fill="white"/>
<path d="M55.1283 77.9209L53.7755 79.8324L55.1283 81.8563H54.3392L53.3245 80.3946L52.3099 81.8563H51.5208L52.8736 79.8324L51.5208 77.9209H52.3099L53.3245 79.2702L54.3392 77.9209H55.1283Z" fill="white"/>
<path d="M59.1869 77.921L57.8341 79.8325L59.1869 81.8565H58.3978L57.3831 80.3947L56.3685 81.744H55.5793L56.9322 79.7201L55.5793 77.8086H56.3685L57.3831 79.1579L58.3978 77.8086H59.1869V77.921Z" fill="white"/>
<path d="M63.1327 77.9209L61.7799 79.8324L63.1327 81.8563H62.3436L61.3289 80.3946L60.3143 81.8563H59.5251L60.878 79.8324L59.5251 77.9209H60.3143L61.3289 79.2702L62.3436 77.9209H63.1327Z" fill="white"/>
<path d="M67.1911 77.9209L65.8383 79.8324L67.1911 81.8563H66.5147L65.5001 80.3946L64.4854 81.8563H63.6963L65.0491 79.8324L63.6963 77.9209H64.4854L65.5001 79.2702L66.5147 77.9209H67.1911Z" fill="white"/>
<path d="M13.4158 17.7655L11.4993 14.6172H12.8521L14.0922 16.6411L15.3323 14.6172H16.5724L14.5432 17.7655V19.7894H13.4158V17.7655Z" fill="white"/>
<path d="M16.7979 17.2034C16.7979 15.7417 17.9252 14.5049 19.5035 14.5049C21.0819 14.5049 22.2092 15.7417 22.2092 17.2034C22.2092 18.6652 21.0819 19.902 19.5035 19.902C18.038 19.902 16.7979 18.6652 16.7979 17.2034ZM21.1946 17.2034C21.1946 16.3039 20.5182 15.5168 19.6163 15.5168C18.7144 15.5168 18.038 16.1915 18.038 17.091C18.038 17.9905 18.7144 18.6652 19.6163 18.6652C20.5182 18.8901 21.1946 18.103 21.1946 17.2034Z" fill="white"/>
<path d="M23.4495 17.5406V14.6172H24.5768V17.5406C24.5768 18.3277 25.0278 18.7775 25.7042 18.7775C26.3806 18.7775 26.8316 18.3277 26.8316 17.5406V14.6172H27.9589V17.5406C27.9589 19.1148 27.057 19.9019 25.7042 19.9019C24.3514 19.9019 23.4495 19.1148 23.4495 17.5406Z" fill="white"/>
<path d="M29.4245 14.6172H31.792C32.4684 14.6172 32.9193 14.8421 33.2576 15.1794C33.5958 15.5167 33.7085 15.854 33.7085 16.3038C33.7085 17.0909 33.2576 17.6531 32.5811 17.878L33.8212 19.677H32.4684L31.341 17.9904H30.4391V19.677H29.3118V14.6172H29.4245ZM31.6792 17.2033C32.2429 17.2033 32.5811 16.866 32.5811 16.5287C32.5811 16.0789 32.2429 15.7416 31.6792 15.7416H30.5519V17.2033H31.6792Z" fill="white"/>
<path d="M37.2034 17.2034C37.2034 15.7417 38.3307 14.5049 39.9091 14.5049C40.9237 14.5049 41.4874 14.8422 41.9383 15.292L41.2619 16.079C40.811 15.7417 40.4727 15.5168 39.9091 15.5168C39.0072 15.5168 38.4435 16.1915 38.4435 17.091C38.4435 17.9905 39.0072 18.6652 39.9091 18.6652C40.4727 18.6652 40.811 18.4403 41.2619 18.103L41.9383 18.7776C41.3746 19.3398 40.811 19.6771 39.7963 19.6771C38.3307 19.902 37.2034 18.7776 37.2034 17.2034Z" fill="white"/>
<path d="M42.7273 17.2034C42.7273 15.7417 43.8547 14.5049 45.433 14.5049C47.0113 14.5049 48.1387 15.7417 48.1387 17.2034C48.1387 18.6652 47.0113 19.902 45.433 19.902C43.8547 19.902 42.7273 18.6652 42.7273 17.2034ZM47.0113 17.2034C47.0113 16.3039 46.3349 15.5168 45.433 15.5168C44.5311 15.5168 43.8547 16.1915 43.8547 17.091C43.8547 17.9905 44.5311 18.6652 45.433 18.6652C46.3349 18.8901 47.0113 18.103 47.0113 17.2034Z" fill="white"/>
<path d="M49.4917 14.6172H50.5063L52.9865 17.7655V14.6172H54.1139V19.7894H53.0993L50.6191 16.5287V19.7894H49.4917V14.6172Z" fill="white"/>
<path d="M55.4668 14.6172H56.4814L58.9616 17.7655V14.6172H60.089V19.7894H59.0744L56.5942 16.5287V19.7894H55.4668V14.6172Z" fill="white"/>
<path d="M61.5544 14.6172H65.5002V15.6291H62.6818V16.6411H65.162V17.6531H62.6818V18.7775H65.5002V19.7894H61.5544V14.6172Z" fill="white"/>
<path d="M66.5149 17.2034C66.5149 15.7417 67.6423 14.5049 69.2206 14.5049C70.2352 14.5049 70.7989 14.8422 71.2498 15.292L70.5734 16.079C70.1225 15.7417 69.7843 15.5168 69.2206 15.5168C68.3187 15.5168 67.755 16.1915 67.755 17.091C67.755 17.9905 68.3187 18.6652 69.2206 18.6652C69.7843 18.6652 70.1225 18.4403 70.5734 18.103L71.2498 18.7776C70.6862 19.3398 70.1225 19.6771 69.1078 19.6771C67.6423 19.902 66.5149 18.7776 66.5149 17.2034Z" fill="white"/>
<path d="M73.6174 15.7416H72.0391V14.6172H76.3231V15.7416H74.7447V19.9019H73.6174V15.7416Z" fill="white"/>
<path d="M77.4504 14.6172H81.3962V15.6291H78.5778V16.6411H81.058V17.6531H78.5778V18.7775H81.3962V19.7894H77.4504V14.6172Z" fill="white"/>
<path d="M82.6362 14.6172H84.6655C86.2438 14.6172 87.3712 15.7416 87.3712 17.2033C87.3712 18.665 86.2438 19.7894 84.6655 19.7894H82.6362V14.6172ZM83.7636 15.6291V18.7775H84.6655C85.5674 18.7775 86.2438 18.1028 86.2438 17.2033C86.2438 16.3038 85.5674 15.6291 84.6655 15.6291H83.7636Z" fill="white"/>
<path d="M92.7826 14.6172H93.7973L96.052 19.7894H94.8119L94.3609 18.665H92.2189L91.768 19.7894H90.6406L92.7826 14.6172ZM94.0227 17.6531L93.3463 15.9665L92.6699 17.6531H94.0227Z" fill="white"/>
<path d="M97.0667 14.6172H99.2087C100.449 14.6172 101.238 15.2918 101.238 16.4162C101.238 17.6531 100.336 18.2153 99.0959 18.2153H98.194V19.7894H97.0667V14.6172ZM99.0959 17.2033C99.6596 17.2033 99.9978 16.866 99.9978 16.4162C99.9978 15.854 99.6596 15.6291 99.0959 15.6291H98.194V17.2033H99.0959Z" fill="white"/>
<path d="M102.252 14.6172H104.394C105.635 14.6172 106.424 15.2918 106.424 16.4162C106.424 17.6531 105.522 18.2153 104.282 18.2153H103.38V19.7894H102.252V14.6172ZM104.282 17.2033C104.845 17.2033 105.184 16.866 105.184 16.4162C105.184 15.854 104.845 15.6291 104.282 15.6291H103.38V17.2033H104.282Z" fill="white"/>
<path d="M107.438 14.6172H108.566V18.7775H111.159V19.7894H107.438V14.6172Z" fill="white"/>
<path d="M112.286 14.6172H113.414V19.7894H112.286V14.6172Z" fill="white"/>
<path d="M116.683 14.6172H117.698L119.952 19.7894H118.712L118.261 18.665H116.119L115.668 19.7894H114.541L116.683 14.6172ZM117.923 17.6531L117.247 15.9665L116.57 17.6531H117.923Z" fill="white"/>
<path d="M120.967 14.6172H121.981L124.462 17.7655V14.6172H125.589V19.7894H124.574L122.094 16.5287V19.7894H120.967V14.6172Z" fill="white"/>
<path d="M126.829 17.2034C126.829 15.7417 127.956 14.5049 129.535 14.5049C130.549 14.5049 131.113 14.8422 131.564 15.292L130.888 16.079C130.437 15.7417 130.098 15.5168 129.535 15.5168C128.633 15.5168 128.069 16.1915 128.069 17.091C128.069 17.9905 128.633 18.6652 129.535 18.6652C130.098 18.6652 130.437 18.4403 130.888 18.103L131.564 18.7776C131 19.3398 130.437 19.6771 129.422 19.6771C127.956 19.902 126.829 18.7776 126.829 17.2034Z" fill="white"/>
<path d="M132.691 14.6172H136.637V15.6291H133.819V16.6411H136.299V17.6531H133.819V18.7775H136.637V19.7894H132.691V14.6172Z" fill="white"/>
<path d="M297.851 25.6362H11.3865V26.5358H297.851V25.6362Z" fill="white"/>
<path d="M317.467 26.1988C317.467 27.0983 316.678 27.8854 315.776 27.8854C314.874 27.8854 314.085 27.0983 314.085 26.1988C314.085 25.2993 314.874 24.5122 315.776 24.5122C316.678 24.5122 317.467 25.2993 317.467 26.1988Z" fill="white"/>
<path d="M310.703 21.701C310.59 21.701 310.478 21.701 310.478 21.5886C310.365 21.4761 310.365 21.2512 310.478 21.1388C311.943 19.7895 313.747 19.0024 315.776 19.0024C317.806 19.0024 319.722 19.7895 321.075 21.1388C321.188 21.2512 321.188 21.4761 321.075 21.5886C320.962 21.701 320.737 21.701 320.624 21.5886C319.384 20.3517 317.58 19.6771 315.776 19.6771C313.972 19.6771 312.281 20.3517 310.929 21.701C310.816 21.701 310.816 21.701 310.703 21.701Z" fill="white"/>
<path d="M307.546 18.5527C307.434 18.5527 307.321 18.5527 307.321 18.4403C307.208 18.3278 307.208 18.103 307.321 17.9905C309.576 15.7417 312.62 14.5049 315.776 14.5049C318.933 14.5049 321.977 15.7417 324.231 17.9905C324.344 18.103 324.344 18.3278 324.231 18.4403C324.119 18.5527 323.893 18.5527 323.78 18.4403C321.638 16.3039 318.82 15.1795 315.776 15.1795C312.732 15.1795 309.914 16.3039 307.772 18.4403C307.659 18.5527 307.546 18.5527 307.546 18.5527Z" fill="white"/>
<path d="M304.39 15.5169C304.277 15.5169 304.164 15.5169 304.164 15.4045C304.051 15.292 304.051 15.0671 304.164 14.9547C307.321 11.8064 311.379 10.0073 315.776 10.0073C320.173 10.0073 324.344 11.8064 327.388 14.9547C327.501 15.0671 327.501 15.292 327.388 15.4045C327.275 15.5169 327.05 15.5169 326.937 15.4045C324.006 12.3686 319.947 10.682 315.776 10.682C311.605 10.682 307.546 12.3686 304.615 15.4045C304.502 15.5169 304.39 15.5169 304.39 15.5169Z" fill="white"/>
</svg>
