<svg xmlns="http://www.w3.org/2000/svg" width="22" height="22" viewBox="0 0 22 22">
    <g fill="none" fill-rule="evenodd">
        <g stroke="#FB0" stroke-width=".8">
            <g>
                <path d="M21.19 8.78l-1.78-.582c-.124-.041-.218-.135-.27-.26-.04-.124-.103-.26-.155-.384-.053-.115-.053-.26 0-.375l.842-1.674c.083-.167.051-.364-.083-.5l-2.62-2.62c-.126-.125-.334-.167-.5-.083l-1.674.842c-.116.053-.25.053-.376 0l-.373-.156c-.126-.042-.229-.146-.26-.26L13.347.95c-.062-.177-.229-.302-.416-.302H9.23c-.188 0-.355.125-.417.302L8.22 2.729c-.043.124-.126.217-.25.26-.135.051-.26.103-.385.155-.114.053-.25.053-.364 0l-1.684-.842c-.168-.084-.365-.042-.5.083l-2.62 2.62c-.126.136-.168.333-.084.5l.842 1.674c.053.115.053.26 0 .375-.052.124-.103.26-.155.384-.052.125-.147.219-.27.26l-1.779.583c-.166.062-.291.229-.291.417v3.712c0 .188.125.343.291.405l1.778.593c.124.042.219.135.27.26.053.125.104.26.156.385.053.114.053.25 0 .364l-.842 1.685c-.084.166-.042.364.084.498l2.62 2.622c.135.124.332.156.5.083l1.684-.843c.115-.063.25-.063.364-.01.124.062.25.114.384.166.125.042.208.136.25.26l.593 1.779c.062.177.229.291.417.291h3.702c.187 0 .354-.114.416-.291l.592-1.779c.032-.124.135-.218.26-.26.126-.052.25-.104.374-.166.126-.053.26-.053.376.01l1.673.843c.167.073.375.041.5-.083l2.621-2.622c.134-.134.166-.332.083-.498l-.842-1.685c-.053-.115-.053-.25 0-.364.052-.124.114-.26.155-.385.052-.125.146-.218.27-.26l1.78-.593c.166-.062.29-.217.29-.405V9.198c0-.188-.124-.355-.29-.417" transform="translate(-73 -530) translate(73 530)"/>
                <path d="M11.08 17.048c-3.317 0-6-2.683-6-6 0-3.309 2.683-6 6-6 3.318 0 6 2.691 6 6 0 3.317-2.682 6-6 6z" transform="translate(-73 -530) translate(73 530)"/>
                <path d="M11.08 15.048c-2.211 0-4-1.788-4-4 0-2.206 1.789-4 4-4 2.212 0 4 1.794 4 4 0 2.212-1.788 4-4 4z" transform="translate(-73 -530) translate(73 530)"/>
            </g>
        </g>
    </g>
</svg>
