<svg xmlns="http://www.w3.org/2000/svg" width="375" height="232" viewBox="0 0 375 232">
    <g fill="none" fill-rule="evenodd">
        <g>
            <g>
                <path fill="#F2A900" d="M171.711 142H204.247V162H171.711z" transform="translate(0 -110) translate(0 110)"/>
                <g stroke="#FFF" stroke-linejoin="round">
                    <path stroke-width="2" d="M54.516 200H5.77c-3.384 0-6.127-2.688-6.127-6.003V6.003C-.356 2.688 2.387 0 5.77 0h48.745c3.384 0 6.128 2.688 6.128 6.003v187.994c0 3.315-2.744 6.003-6.128 6.003z" transform="translate(0 -110) translate(0 110) translate(157.356 16)"/>
                    <path d="M43.197 98H19.09c-2.456 0-4.446-1.935-4.446-4.323V17.324c0-2.388 1.99-4.324 4.446-4.324h24.107c2.456 0 4.447 1.936 4.447 4.324v76.353c0 2.388-1.99 4.323-4.447 4.323zM43.197 186H19.09c-2.456 0-4.446-1.933-4.446-4.316v-69.368c0-2.383 1.99-4.316 4.446-4.316h24.107c2.456 0 4.447 1.933 4.447 4.316v69.368c0 2.383-1.99 4.316-4.447 4.316z" transform="translate(0 -110) translate(0 110) translate(157.356 16)"/>
                    <path stroke-width=".5" d="M19.087 121H18.2c-.307 0-.556-.234-.556-.523v-5.954c0-.289.249-.523.556-.523h.887c.307 0 .557.234.557.523v5.954c0 .289-.25.523-.557.523zM19.087 91H18.2c-.307 0-.556-.234-.556-.523v-5.954c0-.289.249-.523.556-.523h.887c.307 0 .557.234.557.523v5.954c0 .289-.25.523-.557.523zM19.087 26H18.2c-.307 0-.556-.234-.556-.523v-5.954c0-.289.249-.523.556-.523h.887c.307 0 .557.234.557.523v5.954c0 .289-.25.523-.557.523zM14.644 127.5L47.644 127.5M19.087 141H18.2c-.307 0-.556-.234-.556-.523v-5.954c0-.289.249-.523.556-.523h.887c.307 0 .557.234.557.523v5.954c0 .289-.25.523-.557.523zM14.644 147.5L47.644 147.5M19.087 161H18.2c-.307 0-.556-.234-.556-.523v-5.954c0-.289.249-.523.556-.523h.887c.307 0 .557.234.557.523v5.954c0 .289-.25.523-.557.523zM14.644 165.5L47.644 165.5M19.087 179H18.2c-.307 0-.556-.234-.556-.523v-5.954c0-.289.249-.523.556-.523h.887c.307 0 .557.234.557.523v5.954c0 .289-.25.523-.557.523zM14.644 31.5L47.644 31.5M14.644 79.5L47.644 79.5" transform="translate(0 -110) translate(0 110) translate(157.356 16)"/>
                </g>
            </g>
        </g>
    </g>
</svg>
