<svg width="322" height="155" viewBox="0 0 322 155" fill="none" xmlns="http://www.w3.org/2000/svg">
<path fill-rule="evenodd" clip-rule="evenodd" d="M314.478 97.8325H7.52185C4.47259 97.8325 1.99976 95.3615 1.99976 92.3145V62.5185C1.99976 59.4705 4.47259 57.0005 7.52185 57.0005H314.478C317.527 57.0005 320 59.4705 320 62.5185V92.3145C320 95.3615 317.527 97.8325 314.478 97.8325Z" stroke="white" stroke-width="2"/>
<path fill-rule="evenodd" clip-rule="evenodd" d="M171.536 86.8951H121.702C120.869 86.8951 120.194 86.2191 120.194 85.3861V69.6151C120.194 68.7821 120.869 68.1071 121.702 68.1071H171.536C172.369 68.1071 173.044 68.7821 173.044 69.6151V85.3861C173.044 86.2191 172.369 86.8951 171.536 86.8951Z" stroke="white"/>
<path fill-rule="evenodd" clip-rule="evenodd" d="M70.8438 80.6723H58.7018C57.8688 80.6723 57.1938 79.9973 57.1938 79.1643V73.4473C57.1938 72.6143 57.8688 71.9393 58.7018 71.9393H70.8438C71.6768 71.9393 72.3528 72.6143 72.3528 73.4473V79.1643C72.3528 79.9973 71.6768 80.6723 70.8438 80.6723Z" stroke="white" stroke-width="0.5"/>
<path d="M57.1941 84.5052H72.3531" stroke="white" stroke-linecap="round"/>
<path fill-rule="evenodd" clip-rule="evenodd" d="M103.253 80.6723H91.111C90.278 80.6723 89.603 79.9973 89.603 79.1643V73.4473C89.603 72.6143 90.278 71.9393 91.111 71.9393H103.253C104.086 71.9393 104.761 72.6143 104.761 73.4473V79.1643C104.761 79.9973 104.086 80.6723 103.253 80.6723Z" stroke="white" stroke-width="0.5"/>
<path d="M89.6033 84.5052H104.761" stroke="white" stroke-linecap="round"/>
<path d="M186 84.5054H201" stroke="white" stroke-linecap="round"/>
<path fill-rule="evenodd" clip-rule="evenodd" d="M232.57 80.6723H220.428C219.595 80.6723 218.92 79.9973 218.92 79.1643V73.4473C218.92 72.6143 219.595 71.9393 220.428 71.9393H232.57C233.403 71.9393 234.078 72.6143 234.078 73.4473V79.1643C234.078 79.9973 233.403 80.6723 232.57 80.6723Z" stroke="white" stroke-width="0.5"/>
<path fill-rule="evenodd" clip-rule="evenodd" d="M199.508 80.733H187.492C186.668 80.733 186 80.058 186 79.225V73.508C186 72.675 186.668 72 187.492 72H199.508C200.332 72 201 72.675 201 73.508V79.225C201 80.058 200.332 80.733 199.508 80.733Z" stroke="white" stroke-width="0.5"/>
<path d="M218.92 84.5052H234.079" stroke="white" stroke-linecap="round"/>
<path fill-rule="evenodd" clip-rule="evenodd" d="M264.979 80.6723H252.837C252.004 80.6723 251.329 79.9973 251.329 79.1643V73.4473C251.329 72.6143 252.004 71.9393 252.837 71.9393H264.979C265.812 71.9393 266.487 72.6143 266.487 73.4473V79.1643C266.487 79.9973 265.812 80.6723 264.979 80.6723Z" stroke="white" stroke-width="0.5"/>
<path d="M251.329 84.5052H266.488" stroke="white" stroke-linecap="round"/>
</svg>
