<svg xmlns="http://www.w3.org/2000/svg" width="375" height="232" viewBox="0 0 375 232">
    <g fill="none" fill-rule="evenodd">
        <path fill="#FFF" d="M188.375 39.874l.125.126.125-.127 1.787-2.16c-.518-.45-1.18-.732-1.912-.732s-1.395.283-1.913.733l1.788 2.16zm-4.4-5.318c1.263-1.094 2.848-1.694 4.525-1.694 1.676 0 3.26.6 4.526 1.694l1.153-1.393c-1.588-1.372-3.576-2.125-5.679-2.125s-4.092.753-5.679 2.125l1.153 1.394v-.001zM179 28.546c2.653-2.293 5.98-3.546 9.5-3.546 3.52 0 6.847 1.253 9.5 3.545l-1.157 1.399c-2.33-2.015-5.251-3.12-8.343-3.12-3.09 0-6.012 1.105-8.343 3.119L179 28.545z"/>
        <rect width="341" height="198" x="17" y="17" stroke="#FFF" stroke-width="2" rx="16"/>
        <text fill="#FFF" font-family="Poppins-Medium, Poppins" font-size="16" font-weight="400" letter-spacing=".32">
            <tspan x="129" y="62">WIFI CONNECT</tspan>
        </text>
        <path d="M45.5 79.5L333.5 79.5"/>
        <text fill="#FFF" font-family="Poppins-Medium, Poppins" font-size="12" font-weight="400" letter-spacing=".24">
            <tspan x="117" y="184">Password : Hd9026An5</tspan>
        </text>
        <text fill="#FFF" font-family="Poppins-Medium, Poppins" font-size="12" font-weight="400" letter-spacing=".24" opacity=".25">
            <tspan x="125" y="151">Network : GEA-AG45</tspan>
        </text>
        <text fill="#FFF" font-family="Poppins-Medium, Poppins" font-size="12" font-weight="400" letter-spacing=".24" opacity=".246">
            <tspan x="97.536" y="103">When prompted enter these </tspan> <tspan x="114.018" y="120">details into your phone</tspan>
        </text>
        <rect width="156" height="22" x="110" y="170" stroke="#F2A900" stroke-width="2" rx="5"/>
    </g>
</svg>
