<svg xmlns="http://www.w3.org/2000/svg" width="375" height="232" viewBox="0 0 375 232">
    <g fill="none" fill-rule="evenodd">
        <g stroke="#FFF">
            <g>
                <g>
                    <path stroke-linejoin="round" stroke-width="2" d="M258.438 162.772H3.182c-1.48 0-2.682-1.201-2.682-2.683v-45.12c0-1.481 1.201-2.682 2.682-2.682h255.256c1.481 0 2.683 1.2 2.683 2.682v45.12c0 1.482-1.202 2.683-2.683 2.683z" transform="translate(-8434 -2977) translate(8434 2977) translate(57 31)"/>
                    <path stroke-linecap="round" stroke-linejoin="round" stroke-width="2" d="M232.63 112.286L232.63 23.454M26.002 164.916L26.002 168.916M232.63 164.916L232.63 168.916M194.29 54.84c0-11.205 9.085-20.29 20.29-20.29M176.855 54.84c0-20.834 16.891-37.725 37.726-37.725M160.24 54.84C160.24 24.83 184.57.5 214.58.5" transform="translate(-8434 -2977) translate(8434 2977) translate(57 31)"/>
                    <path d="M56.91 142.976H27.806c-.996 0-1.804-.808-1.804-1.805v-7.156c0-.997.808-1.805 1.804-1.805H56.91c.997 0 1.805.808 1.805 1.805v7.156c0 .997-.808 1.805-1.805 1.805zM101.344 142.976H72.24c-.996 0-1.804-.808-1.804-1.805v-7.156c0-.997.808-1.805 1.804-1.805h29.104c.997 0 1.805.808 1.805 1.805v7.156c0 .997-.808 1.805-1.805 1.805zM145.78 142.976h-29.105c-.995 0-1.803-.808-1.803-1.805v-7.156c0-.997.808-1.805 1.803-1.805h29.105c.996 0 1.804.808 1.804 1.805v7.156c0 .997-.808 1.805-1.804 1.805z" transform="translate(-8434 -2977) translate(8434 2977) translate(57 31)"/>
                </g>
            </g>
        </g>
    </g>
</svg>
