<svg xmlns="http://www.w3.org/2000/svg" width="136" height="111" viewBox="0 0 136 111">
    <path fill="#FFF" fill-rule="evenodd" d="M67.105 109.575l.898.925.892-.932 12.788-15.833c-3.703-3.3-8.44-5.37-13.68-5.37-5.245 0-9.99 2.07-13.693 5.37l12.795 15.84zm-31.5-38.999c9.047-8.023 20.39-12.423 32.398-12.423 11.995 0 23.338 4.4 32.391 12.423l8.252-10.217c-11.363-10.061-25.59-15.58-40.643-15.58-15.06 0-29.293 5.519-40.65 15.58l8.253 10.224v-.007zM0 26.5C18.99 9.689 42.81.5 68.003.5 93.19.5 117.01 9.688 136 26.499l-8.278 10.256c-16.687-14.78-37.591-22.88-59.719-22.88-22.127 0-43.038 8.1-59.725 22.873L0 26.498z"/>
</svg>
