<svg width="452" height="452" viewBox="0 0 452 452" fill="none" xmlns="http://www.w3.org/2000/svg">
<path d="M437.875 242.479C437.09 264.599 436.305 285.542 435.516 306.485C435.487 307.264 435.723 308.308 435.316 308.78C419.489 327.113 432.624 346.033 434.276 364.666C434.667 369.071 437.828 373.51 437.337 377.652C436.436 385.26 432.912 390.925 423.289 390.912C293.45 390.733 163.61 390.81 33.7713 390.758C23.0466 390.754 19.0691 385.336 21.1644 374.044C23.9355 359.11 26.9716 344.223 29.5255 329.253C29.96 326.706 28.6989 323.802 27.9621 321.135C24.9741 310.317 19.4175 299.565 19.247 288.719C18.3594 232.247 18.7234 175.754 18.94 119.269C18.9767 109.685 19.8711 100.022 21.3383 90.5464C23.4447 76.9407 40.1523 65.738 50.4835 65.7596C168.946 66.0063 287.41 65.8966 405.874 65.9452C418.887 65.9505 432.358 76.305 435.196 89.0517C436.85 96.4836 437.72 104.24 437.761 111.856C437.997 155.004 437.875 198.153 437.875 242.479ZM373.101 308.396C380.555 308.396 388.009 308.433 395.462 308.387C407.648 308.312 411.963 303.967 411.968 291.59C411.993 230.786 411.993 169.982 411.97 109.178C411.964 93.7694 407.581 89.4671 391.936 89.4652C282.881 89.4522 173.826 89.4522 64.7713 89.4652C49.127 89.4671 44.7445 93.77 44.7386 109.179C44.7155 169.199 44.7272 229.218 44.7305 289.237C44.7314 304.97 48.0991 308.393 63.6017 308.394C165.988 308.398 268.374 308.396 373.101 308.396ZM250.719 334.292C185.295 334.292 119.871 334.292 54.4339 334.292C52.1915 345.76 50.1326 356.29 48.0467 366.958C168.919 366.958 288.886 366.958 408.883 366.958C406.597 355.976 404.371 345.277 402.085 334.292C351.841 334.292 302.457 334.292 250.719 334.292Z" fill="white"/>
<path d="M390.792 223.622C390.792 231.068 390.793 237.342 390.792 243.617C390.788 261.743 388.92 263.665 371.234 263.665C280.255 263.668 189.275 263.544 98.2965 263.73C64.2187 263.8 65.6699 265.104 65.8699 231.733C66.0791 196.832 65.8919 161.93 65.9313 127.029C65.9436 116.075 70.8132 110.73 81.9498 110.717C179.595 110.595 277.241 110.593 374.887 110.72C385.967 110.734 390.765 116.112 390.778 127.157C390.816 158.921 390.792 190.685 390.792 223.622ZM91.8125 226.896C91.8125 230.291 91.8125 233.686 91.8125 237.189C183.381 237.189 273.787 237.189 364.307 237.189C364.307 203.478 364.307 170.353 364.307 137.132C273.311 137.132 182.905 137.132 91.8125 137.132C91.8125 166.674 91.8125 195.631 91.8125 226.896Z" fill="white"/>
<path d="M270.646 298.979C236.15 298.979 202.816 299.054 169.483 298.926C161.23 298.895 152.708 298.989 152.932 286.702C153.143 275.201 159.832 272.949 169.592 273C208.807 273.202 248.024 273.203 287.239 272.999C297.064 272.948 303.626 275.415 303.765 286.826C303.915 299.104 295.322 298.681 287.101 298.948C282.009 299.114 276.906 298.979 270.646 298.979Z" fill="white"/>
</svg>
