<svg width="305" height="154" viewBox="0 0 305 154" fill="none" xmlns="http://www.w3.org/2000/svg">
    <path fill-rule="evenodd" clip-rule="evenodd" d="M0 4C0 1.79086 1.79086 0 4 0H305V8H4C1.79086 8 0 6.20914 0 4Z" fill="white" fill-opacity="0.2"/>
    <rect x="10" y="35" width="88" height="55" rx="27.5" fill="#F7B500" fill-opacity="0.2"/>
    <path d="M34.4098 64.015L35.9248 64L38.4448 55.585L40.8748 64H42.4048L45.4348 53.545H43.9648L41.6698 62.38L39.2698 53.545H37.7398L35.2198 62.41L32.9398 53.545H31.4848L34.4098 64.015ZM46.7186 59.86C46.7186 62.41 48.4136 64.135 50.6036 64.135C52.1186 64.135 53.1836 63.355 53.6786 62.47V64H55.0586V55.78H53.6786V57.28C53.1986 56.425 52.1486 55.645 50.6186 55.645C48.4136 55.645 46.7186 57.295 46.7186 59.86ZM53.6786 59.875C53.6786 61.81 52.3886 62.935 50.8886 62.935C49.3886 62.935 48.1136 61.795 48.1136 59.86C48.1136 57.925 49.3886 56.83 50.8886 56.83C52.3886 56.83 53.6786 57.97 53.6786 59.875ZM59.0304 59.53C59.0304 57.625 60.0204 57.04 61.3254 57.04H61.6854V55.63C60.3804 55.63 59.4954 56.2 59.0304 57.115V55.78H57.6654V64H59.0304V59.53ZM75.4261 64H76.7761V59.155C76.7761 56.8 75.3211 55.63 73.4461 55.63C72.1861 55.63 71.0161 56.275 70.5361 57.46C69.9961 56.23 68.8711 55.63 67.5211 55.63C66.4411 55.63 65.4661 56.095 64.9261 56.965V55.78H63.5611V64H64.9261V59.47C64.9261 57.7 65.8711 56.815 67.2511 56.815C68.6011 56.815 69.5011 57.67 69.5011 59.35V64H70.8511V59.47C70.8511 57.7 71.7961 56.815 73.1761 56.815C74.5261 56.815 75.4261 57.67 75.4261 59.35V64Z" fill="#FFBB00"/>
    <path d="M27 77H82" stroke="#FFBB00"/>
    <g opacity="0.4">
        <path d="M131.836 54.655H134.701V64H136.066V54.655H138.916V53.545H131.836V54.655ZM148.697 59.875C148.697 57.28 146.882 55.645 144.542 55.645C142.217 55.645 140.387 57.28 140.387 59.875C140.387 62.485 142.157 64.135 144.482 64.135C146.822 64.135 148.697 62.485 148.697 59.875ZM141.782 59.875C141.782 57.805 143.087 56.83 144.527 56.83C145.937 56.83 147.302 57.805 147.302 59.875C147.302 61.96 145.907 62.935 144.482 62.935C143.057 62.935 141.782 61.96 141.782 59.875ZM150.281 59.86C150.281 62.41 151.976 64.135 154.166 64.135C155.681 64.135 156.746 63.355 157.241 62.47V64H158.621V55.78H157.241V57.28C156.761 56.425 155.711 55.645 154.181 55.645C151.976 55.645 150.281 57.295 150.281 59.86ZM157.241 59.875C157.241 61.81 155.951 62.935 154.451 62.935C152.951 62.935 151.676 61.795 151.676 59.86C151.676 57.925 152.951 56.83 154.451 56.83C155.951 56.83 157.241 57.97 157.241 59.875ZM167.138 61.765C167.078 58.825 162.308 59.89 162.308 57.94C162.308 57.28 162.908 56.8 163.913 56.8C165.008 56.8 165.638 57.4 165.698 58.225H167.063C166.973 56.62 165.773 55.645 163.958 55.645C162.128 55.645 160.943 56.68 160.943 57.94C160.943 61 165.803 59.935 165.803 61.765C165.803 62.44 165.203 62.98 164.123 62.98C162.968 62.98 162.263 62.38 162.188 61.585H160.778C160.868 63.085 162.218 64.135 164.138 64.135C165.953 64.135 167.138 63.115 167.138 61.765ZM169.665 61.75C169.665 63.4 170.49 64 171.945 64H173.175V62.845H172.17C171.33 62.845 171.03 62.56 171.03 61.75V56.905H173.175V55.78H171.03V53.71H169.665V55.78H168.6V56.905H169.665V61.75Z" fill="white"/>
        <path d="M125 77H180" stroke="white"/>
    </g>
    <g opacity="0.4">
        <path d="M242.109 61.06C242.109 62.2 241.299 62.875 239.949 62.875H237.534V59.185H239.904C241.239 59.185 242.109 59.905 242.109 61.06ZM241.839 56.365C241.839 57.43 241.104 58.06 239.829 58.06H237.534V54.67H239.799C241.134 54.67 241.839 55.33 241.839 56.365ZM243.474 61.195C243.474 59.905 242.544 58.81 241.404 58.615C242.409 58.285 243.234 57.52 243.234 56.2C243.234 54.745 242.124 53.545 239.919 53.545H236.169V64H240.069C242.229 64 243.474 62.77 243.474 61.195ZM247.033 59.53C247.033 57.625 248.023 57.04 249.328 57.04H249.688V55.63C248.383 55.63 247.498 56.2 247.033 57.115V55.78H245.668V64H247.033V59.53ZM259.364 59.875C259.364 57.28 257.549 55.645 255.209 55.645C252.884 55.645 251.054 57.28 251.054 59.875C251.054 62.485 252.824 64.135 255.149 64.135C257.489 64.135 259.364 62.485 259.364 59.875ZM252.449 59.875C252.449 57.805 253.754 56.83 255.194 56.83C256.604 56.83 257.969 57.805 257.969 59.875C257.969 61.96 256.574 62.935 255.149 62.935C253.724 62.935 252.449 61.96 252.449 59.875ZM261.458 64H262.823V55.78H261.458V64ZM262.163 54.445C262.658 54.445 263.063 54.04 263.063 53.515C263.063 52.99 262.658 52.585 262.163 52.585C261.638 52.585 261.233 52.99 261.233 53.515C261.233 54.04 261.638 54.445 262.163 54.445ZM265.45 64H266.815V52.9H265.45V64Z" fill="white"/>
        <path d="M224 77H279" stroke="white"/>
    </g>
    <rect x="10" y="99" width="88" height="55" rx="27.5" fill="#F7B500" fill-opacity="0.2"/>
    <path d="M34.0376 121.62C34.0376 122.79 33.3626 123.63 31.8176 123.63H29.8076V119.67H31.8176C33.3776 119.67 34.0376 120.435 34.0376 121.62ZM28.4426 118.545V129H29.8076V124.725H31.4576L33.9476 129H35.5826L32.9576 124.62C34.7126 124.23 35.4476 122.955 35.4476 121.62C35.4476 119.91 34.2776 118.545 31.8176 118.545H28.4426ZM41.3636 121.8C42.7736 121.8 43.9736 122.685 43.9586 124.29H38.7686C38.9186 122.685 40.0286 121.8 41.3636 121.8ZM45.2036 126.465H43.7336C43.4336 127.35 42.6536 127.98 41.4236 127.98C40.0286 127.98 38.8586 127.065 38.7536 125.4H45.3236C45.3536 125.115 45.3686 124.875 45.3686 124.575C45.3686 122.325 43.8086 120.645 41.4236 120.645C39.0236 120.645 37.3586 122.28 37.3586 124.875C37.3586 127.485 39.0836 129.135 41.4236 129.135C43.4636 129.135 44.7836 127.965 45.2036 126.465ZM47.4703 129H48.8353V124.455C48.8353 122.685 49.7953 121.815 51.1903 121.815C52.5703 121.815 53.4853 122.67 53.4853 124.35V129H54.8353V124.155C54.8353 121.8 53.3803 120.63 51.5503 120.63C50.3953 120.63 49.3753 121.095 48.8353 121.965V117.9H47.4703V129ZM60.8601 121.8C62.2701 121.8 63.4701 122.685 63.4551 124.29H58.2651C58.4151 122.685 59.5251 121.8 60.8601 121.8ZM64.7001 126.465H63.2301C62.9301 127.35 62.1501 127.98 60.9201 127.98C59.5251 127.98 58.3551 127.065 58.2501 125.4H64.8201C64.8501 125.115 64.8651 124.875 64.8651 124.575C64.8651 122.325 63.3051 120.645 60.9201 120.645C58.5201 120.645 56.8551 122.28 56.8551 124.875C56.8551 127.485 58.5801 129.135 60.9201 129.135C62.9601 129.135 64.2801 127.965 64.7001 126.465ZM66.4568 124.86C66.4568 127.41 68.1518 129.135 70.3418 129.135C71.8568 129.135 72.9218 128.355 73.4168 127.47V129H74.7968V120.78H73.4168V122.28C72.9368 121.425 71.8868 120.645 70.3568 120.645C68.1518 120.645 66.4568 122.295 66.4568 124.86ZM73.4168 124.875C73.4168 126.81 72.1268 127.935 70.6268 127.935C69.1268 127.935 67.8518 126.795 67.8518 124.86C67.8518 122.925 69.1268 121.83 70.6268 121.83C72.1268 121.83 73.4168 122.97 73.4168 124.875ZM77.7035 126.75C77.7035 128.4 78.5285 129 79.9835 129H81.2135V127.845H80.2085C79.3685 127.845 79.0685 127.56 79.0685 126.75V121.905H81.2135V120.78H79.0685V118.71H77.7035V120.78H76.6385V121.905H77.7035V126.75Z" fill="#FFBB00"/>
    <path d="M27 142H82" stroke="#FFBB00"/>
    <g opacity="0.4">
        <path d="M137.262 126.06C137.262 127.2 136.452 127.875 135.102 127.875H132.687V124.185H135.057C136.392 124.185 137.262 124.905 137.262 126.06ZM136.992 121.365C136.992 122.43 136.257 123.06 134.982 123.06H132.687V119.67H134.952C136.287 119.67 136.992 120.33 136.992 121.365ZM138.627 126.195C138.627 124.905 137.697 123.81 136.557 123.615C137.562 123.285 138.387 122.52 138.387 121.2C138.387 119.745 137.277 118.545 135.072 118.545H131.322V129H135.222C137.382 129 138.627 127.77 138.627 126.195ZM140.311 124.86C140.311 127.41 142.006 129.135 144.196 129.135C145.711 129.135 146.776 128.355 147.271 127.47V129H148.651V120.78H147.271V122.28C146.791 121.425 145.741 120.645 144.211 120.645C142.006 120.645 140.311 122.295 140.311 124.86ZM147.271 124.875C147.271 126.81 145.981 127.935 144.481 127.935C142.981 127.935 141.706 126.795 141.706 124.86C141.706 122.925 142.981 121.83 144.481 121.83C145.981 121.83 147.271 122.97 147.271 124.875ZM150.748 124.86C150.748 127.41 152.443 129.135 154.648 129.135C156.148 129.135 157.213 128.34 157.708 127.455V129.18C157.708 130.935 156.613 131.865 155.158 131.865C153.808 131.865 152.833 131.19 152.533 130.2H151.183C151.453 131.955 152.998 133.05 155.158 133.05C157.573 133.05 159.088 131.445 159.088 129.18V120.78H157.708V122.28C157.228 121.395 156.148 120.645 154.648 120.645C152.443 120.645 150.748 122.295 150.748 124.86ZM157.708 124.875C157.708 126.81 156.418 127.935 154.918 127.935C153.418 127.935 152.143 126.795 152.143 124.86C152.143 122.925 153.418 121.83 154.918 121.83C156.418 121.83 157.708 122.97 157.708 124.875ZM165.19 121.8C166.6 121.8 167.8 122.685 167.785 124.29H162.595C162.745 122.685 163.855 121.8 165.19 121.8ZM169.03 126.465H167.56C167.26 127.35 166.48 127.98 165.25 127.98C163.855 127.98 162.685 127.065 162.58 125.4H169.15C169.18 125.115 169.195 124.875 169.195 124.575C169.195 122.325 167.635 120.645 165.25 120.645C162.85 120.645 161.185 122.28 161.185 124.875C161.185 127.485 162.91 129.135 165.25 129.135C167.29 129.135 168.61 127.965 169.03 126.465ZM171.297 129H172.662V117.9H171.297V129Z" fill="white"/>
        <path d="M125 142H180" stroke="white"/>
    </g>
    <g opacity="0.4">
        <path d="M236.071 121.62C236.071 122.79 235.396 123.63 233.851 123.63H231.841V119.67H233.851C235.411 119.67 236.071 120.435 236.071 121.62ZM230.476 118.545V129H231.841V124.725H233.491L235.981 129H237.616L234.991 124.62C236.746 124.23 237.481 122.955 237.481 121.62C237.481 119.91 236.311 118.545 233.851 118.545H230.476ZM247.702 124.875C247.702 122.28 245.887 120.645 243.547 120.645C241.222 120.645 239.392 122.28 239.392 124.875C239.392 127.485 241.162 129.135 243.487 129.135C245.827 129.135 247.702 127.485 247.702 124.875ZM240.787 124.875C240.787 122.805 242.092 121.83 243.532 121.83C244.942 121.83 246.307 122.805 246.307 124.875C246.307 126.96 244.912 127.935 243.487 127.935C242.062 127.935 240.787 126.96 240.787 124.875ZM249.287 124.86C249.287 127.41 250.982 129.135 253.172 129.135C254.687 129.135 255.752 128.355 256.247 127.47V129H257.627V120.78H256.247V122.28C255.767 121.425 254.717 120.645 253.187 120.645C250.982 120.645 249.287 122.295 249.287 124.86ZM256.247 124.875C256.247 126.81 254.957 127.935 253.457 127.935C251.957 127.935 250.682 126.795 250.682 124.86C250.682 122.925 251.957 121.83 253.457 121.83C254.957 121.83 256.247 122.97 256.247 124.875ZM266.143 126.765C266.083 123.825 261.313 124.89 261.313 122.94C261.313 122.28 261.913 121.8 262.918 121.8C264.013 121.8 264.643 122.4 264.703 123.225H266.068C265.978 121.62 264.778 120.645 262.963 120.645C261.133 120.645 259.948 121.68 259.948 122.94C259.948 126 264.808 124.935 264.808 126.765C264.808 127.44 264.208 127.98 263.128 127.98C261.973 127.98 261.268 127.38 261.193 126.585H259.783C259.873 128.085 261.223 129.135 263.143 129.135C264.958 129.135 266.143 128.115 266.143 126.765ZM268.67 126.75C268.67 128.4 269.495 129 270.95 129H272.18V127.845H271.175C270.335 127.845 270.035 127.56 270.035 126.75V121.905H272.18V120.78H270.035V118.71H268.67V120.78H267.605V121.905H268.67V126.75Z" fill="white"/>
        <path d="M224 142H279" stroke="white"/>
    </g>
</svg>