<svg width="80" height="80" viewBox="0 0 80 80" fill="none" xmlns="http://www.w3.org/2000/svg">
<path d="M72 67V66C71.4477 66 71 66.4477 71 67H72ZM62 67H63C63 66.4477 62.5523 66 62 66V67ZM18 67V66C17.4477 66 17 66.4477 17 67H18ZM8 67H9C9 66.4477 8.55228 66 8 66V67ZM7 12C5.34315 12 4 13.3431 4 15H6C6 14.4477 6.44771 14 7 14V12ZM73 12H7V14H73V12ZM76 15C76 13.3431 74.6569 12 73 12V14C73.5523 14 74 14.4477 74 15H76ZM76 65V15H74V65H76ZM73 68C74.6569 68 76 66.6569 76 65H74C74 65.5523 73.5523 66 73 66V68ZM72 68H73V66H72V68ZM71 67V68H73V67H71ZM71 68C71 68.5523 70.5523 69 70 69V71C71.6569 71 73 69.6569 73 68H71ZM70 69H64V71H70V69ZM64 69C63.4477 69 63 68.5523 63 68H61C61 69.6569 62.3431 71 64 71V69ZM63 68V67H61V68H63ZM18 68H62V66H18V68ZM19 68V67H17V68H19ZM16 71C17.6569 71 19 69.6569 19 68H17C17 68.5523 16.5523 69 16 69V71ZM10 71H16V69H10V71ZM7 68C7 69.6569 8.34315 71 10 71V69C9.44772 69 9 68.5523 9 68H7ZM7 67V68H9V67H7ZM7 68H8V66H7V68ZM4 65C4 66.6569 5.34315 68 7 68V66C6.44772 66 6 65.5523 6 65H4ZM4 15V65H6V15H4Z" fill="white"/>
<rect x="12" y="36" width="56" height="24" rx="2" stroke="white" stroke-width="2"/>
<rect x="32" y="19" width="16" height="6" fill="white" stroke="white" stroke-width="2" stroke-linecap="square" stroke-linejoin="round"/>
<circle cx="13" cy="22" r="2" fill="white"/>
<circle cx="21" cy="22" r="2" fill="white"/>
<circle cx="56.3711" cy="22" r="3" fill="white"/>
<circle cx="65.6289" cy="22" r="3" fill="white"/>
<path d="M11 31L69 31" stroke="white" stroke-width="2"/>
</svg>
