<svg width="338" height="190" viewBox="0 0 338 190" fill="none" xmlns="http://www.w3.org/2000/svg">
<g clip-path="url(#clip0_15647_90283)">
<path fill-rule="evenodd" clip-rule="evenodd" d="M299.602 23.7872L299.715 23.9012L299.828 23.7864L301.442 21.8351C300.975 21.4284 300.377 21.1733 299.715 21.1733C299.053 21.1733 298.454 21.4284 297.986 21.8351L299.602 23.7872ZM295.625 18.9812C296.767 17.9924 298.199 17.4502 299.715 17.4502C301.23 17.4502 302.662 17.9924 303.805 18.9812L304.847 17.7221C303.412 16.4821 301.616 15.8019 299.715 15.8019C297.814 15.8019 296.017 16.4821 294.583 17.7221L295.625 18.982V18.9812ZM291.129 13.5494C293.527 11.4778 296.534 10.3455 299.715 10.3455C302.895 10.3455 305.902 11.4778 308.3 13.5494L307.255 14.8133C305.148 12.992 302.509 11.9937 299.715 11.9937C296.921 11.9937 294.281 12.992 292.175 14.8125L291.129 13.5494Z" fill="#F2A900"/>
<path d="M275.611 121.836L273.942 121.539C272.407 121.254 271.474 120.375 271.474 118.914C271.474 117.02 272.775 116.066 274.973 116.066C277.171 116.066 278.46 117.032 278.46 118.951V119.125H276.852V118.951C276.852 117.973 276.189 117.466 274.973 117.466C273.758 117.466 273.119 117.899 273.119 118.803C273.119 119.496 273.61 119.917 274.335 120.053L276.017 120.35C277.625 120.648 278.484 121.527 278.484 122.963C278.484 124.907 277.146 125.86 274.961 125.86C272.775 125.86 271.437 124.894 271.437 122.975V122.802H273.045V122.975C273.045 123.953 273.745 124.449 274.961 124.449C276.176 124.449 276.839 124.04 276.839 123.087C276.839 122.381 276.348 121.972 275.624 121.836H275.611Z" fill="#F7B500"/>
<path d="M285.752 123.495C285.617 125.043 284.525 125.86 282.806 125.86C281.087 125.86 279.834 124.919 279.834 123.136V121.279C279.834 119.484 281.013 118.568 282.806 118.568C284.598 118.568 285.752 119.484 285.752 121.279V122.678H281.345V123.223C281.345 124.04 281.86 124.548 282.806 124.548C283.751 124.548 284.156 124.102 284.242 123.483H285.752V123.495ZM281.345 121.539H284.254V121.205C284.254 120.326 283.69 119.892 282.806 119.892C281.922 119.892 281.345 120.313 281.345 121.205V121.539Z" fill="#F7B500"/>
<path d="M289.167 123.273C289.167 124.436 289.559 124.647 291.106 124.486V125.737C288.258 126.195 287.656 125.142 287.656 123.186V120.029H286.441V118.716H287.656V116.599L289.154 116.153V118.716H291.094V120.029H289.154V123.273H289.167Z" fill="#F7B500"/>
<path d="M294.642 123.273C294.642 124.436 295.035 124.647 296.582 124.486V125.737C293.734 126.195 293.132 125.142 293.132 123.186V120.029H291.917V118.716H293.132V116.599L294.63 116.153V118.716H296.57V120.029H294.63V123.273H294.642Z" fill="#F7B500"/>
<path d="M297.994 115.782H299.492V117.528H297.994V115.782ZM297.994 118.729H299.492V125.749H297.994V118.729Z" fill="#F7B500"/>
<path d="M301.248 118.716H302.402L302.61 119.422C303.065 118.865 303.777 118.58 304.636 118.58C306.171 118.58 307.178 119.471 307.178 121.267V125.737H305.68V121.155C305.68 120.289 305.127 119.892 304.243 119.892C303.359 119.892 302.758 120.313 302.758 121.205V125.737H301.26V118.716H301.248Z" fill="#F7B500"/>
<path d="M308.688 121.292C308.688 119.521 309.682 118.58 311.242 118.58C312.101 118.58 312.813 118.865 313.255 119.434L313.452 118.716H314.606V125.873C314.606 127.656 313.452 128.597 311.635 128.597C309.818 128.597 308.688 127.668 308.688 125.959H310.198V126.058C310.198 126.863 310.738 127.297 311.635 127.297C312.531 127.297 313.108 126.851 313.108 125.984V124.82C312.666 125.278 312.028 125.526 311.254 125.526C309.682 125.526 308.688 124.585 308.688 122.814V121.292ZM310.198 122.914C310.198 123.768 310.751 124.226 311.635 124.226C312.519 124.226 313.108 123.768 313.108 122.889V121.23C313.108 120.363 312.531 119.892 311.635 119.892C310.738 119.892 310.198 120.338 310.198 121.205V122.926V122.914Z" fill="#F7B500"/>
<path d="M319.517 122.988L318.154 122.703C316.938 122.468 316.165 121.799 316.165 120.697C316.165 119.286 317.159 118.58 318.989 118.58C320.818 118.58 321.788 119.298 321.788 120.734V120.883H320.29V120.771C320.29 120.128 319.873 119.83 318.989 119.83C318.105 119.83 317.675 120.115 317.675 120.66C317.675 121.056 317.92 121.316 318.522 121.44L319.897 121.725C321.1 121.96 321.874 122.629 321.874 123.706C321.874 125.179 320.781 125.873 318.964 125.873C317.147 125.873 316.054 125.155 316.054 123.718V123.57H317.552V123.669C317.552 124.325 318.068 124.622 318.952 124.622C319.836 124.622 320.351 124.337 320.351 123.768C320.351 123.372 320.094 123.099 319.492 122.988H319.517Z" fill="#F7B500"/>
<path d="M322.513 129.562H269.522V130.8H322.513V129.562Z" fill="#F7B500"/>
<path d="M239.279 149.601H186.389C182.618 149.601 179.561 152.368 179.561 155.781V177.925C179.561 181.339 182.618 184.106 186.389 184.106H239.279C243.05 184.106 246.107 181.339 246.107 177.925V155.781C246.107 152.368 243.05 149.601 239.279 149.601Z" stroke="#3F4142" stroke-width="0.75" stroke-miterlimit="10"/>
<path d="M201.422 166.51V166.572C201.422 168.716 199.993 169.862 197.738 169.862C195.482 169.862 194.041 168.667 194.041 166.436V163.516C194.041 161.297 195.482 160.102 197.775 160.102C200.067 160.102 201.435 161.26 201.435 163.392V163.442H199.82V163.392C199.82 162.172 199.032 161.494 197.775 161.494C196.518 161.494 195.655 162.209 195.655 163.516V166.436C195.655 167.755 196.456 168.457 197.738 168.457C199.019 168.457 199.808 167.792 199.808 166.572V166.51H201.422Z" fill="#3F4142"/>
<path d="M205.045 165.574C205.859 165.574 206.524 165.783 206.968 166.19V165.081C206.968 164.292 206.462 163.861 205.661 163.861C204.774 163.861 204.367 164.169 204.367 164.92H202.864C202.864 163.405 203.85 162.628 205.661 162.628C207.374 162.628 208.471 163.479 208.471 165.167V169.751H207.313L207.103 169.061C206.672 169.603 205.933 169.887 205.021 169.887C203.505 169.887 202.531 169.184 202.531 167.73C202.531 166.276 203.505 165.586 205.045 165.586V165.574ZM205.477 168.568C206.376 168.568 206.968 168.272 206.968 167.669C206.968 167.065 206.376 166.757 205.477 166.757C204.577 166.757 204.035 167.028 204.035 167.669C204.035 168.309 204.589 168.568 205.477 168.568Z" fill="#3F4142"/>
<path d="M210.185 162.751H211.343L211.552 163.454C212.008 162.899 212.723 162.616 213.586 162.616C215.126 162.616 216.137 163.491 216.137 165.29V169.739H214.633V165.179C214.633 164.316 214.079 163.922 213.191 163.922C212.304 163.922 211.7 164.341 211.7 165.228V169.739H210.197V162.751H210.185Z" fill="#3F4142"/>
<path d="M223.568 167.225C223.568 168.95 222.409 169.874 220.61 169.874C218.811 169.874 217.628 168.938 217.628 167.163V165.327C217.628 163.552 218.799 162.616 220.623 162.616C222.446 162.616 223.568 163.54 223.568 165.241H222.064V165.142C222.064 164.341 221.522 163.91 220.623 163.91C219.723 163.91 219.144 164.353 219.144 165.216V167.249C219.144 168.112 219.698 168.568 220.61 168.568C221.522 168.568 222.064 168.137 222.064 167.336V167.225H223.568Z" fill="#3F4142"/>
<path d="M230.777 167.508C230.642 169.049 229.545 169.874 227.82 169.874C226.094 169.874 224.837 168.938 224.837 167.163V165.315C224.837 163.528 226.02 162.616 227.82 162.616C229.619 162.616 230.777 163.528 230.777 165.315V166.707H226.353V167.249C226.353 168.063 226.871 168.568 227.82 168.568C228.769 168.568 229.175 168.124 229.262 167.508H230.777ZM226.353 165.561H229.274V165.228C229.274 164.341 228.707 163.922 227.82 163.922C226.932 163.922 226.353 164.341 226.353 165.228V165.561Z" fill="#3F4142"/>
<path d="M232.354 159.707H233.857V169.739H232.354V159.707Z" fill="#3F4142"/>
<path d="M193.546 174.569H234.94" stroke="#3F4142" stroke-miterlimit="10"/>
<path d="M168.987 149.528H32.0978C28.722 149.528 25.9854 152.265 25.9854 155.641V177.54C25.9854 180.915 28.722 183.652 32.0978 183.652H168.987C172.363 183.652 175.099 180.915 175.099 177.54V155.641C175.099 152.265 172.363 149.528 168.987 149.528Z" stroke="white" stroke-width="0.75" stroke-miterlimit="10"/>
<path d="M155.617 155.184L164.625 166.584L155.617 177.983" stroke="#F7B500" stroke-miterlimit="10"/>
<path d="M45.4572 155.184L36.4487 166.584L45.4572 177.983" stroke="white" stroke-miterlimit="10"/>
<path d="M86.0255 165.857L84.3496 165.561C82.8091 165.278 81.8725 164.403 81.8725 162.949C81.8725 161.063 83.1788 160.114 85.3847 160.114C87.5906 160.114 88.8846 161.075 88.8846 162.986V163.158H87.2702V162.986C87.2702 162.012 86.6047 161.507 85.3847 161.507C84.1647 161.507 83.5239 161.938 83.5239 162.838C83.5239 163.528 84.0168 163.947 84.7439 164.082L86.4199 164.378C88.0343 164.674 88.8969 165.549 88.8969 166.978C88.8969 168.913 87.5537 169.862 85.3601 169.862C83.1665 169.862 81.8232 168.901 81.8232 166.991V166.818H83.4376V166.991C83.4376 167.964 84.1401 168.457 85.3601 168.457C86.5801 168.457 87.2456 168.05 87.2456 167.102C87.2456 166.399 86.7526 165.992 86.0255 165.857Z" fill="#F7B500"/>
<path d="M96.205 167.508C96.0695 169.049 94.9727 169.862 93.2474 169.862C91.5221 169.862 90.2651 168.925 90.2651 167.151V165.302C90.2651 163.515 91.4482 162.603 93.2474 162.603C95.0466 162.603 96.205 163.515 96.205 165.302V166.695H91.7809V167.237C91.7809 168.05 92.2985 168.556 93.2474 168.556C94.1963 168.556 94.603 168.112 94.6893 167.496H96.205V167.508ZM91.7809 165.561H94.7016V165.228C94.7016 164.353 94.1347 163.922 93.2474 163.922C92.3601 163.922 91.7809 164.341 91.7809 165.228V165.561Z" fill="#F7B500"/>
<path d="M97.7942 159.695H99.2976V169.726H97.7942V159.695Z" fill="#F7B500"/>
<path d="M106.815 167.508C106.679 169.049 105.583 169.862 103.857 169.862C102.132 169.862 100.875 168.925 100.875 167.151V165.302C100.875 163.515 102.058 162.603 103.857 162.603C105.657 162.603 106.815 163.515 106.815 165.302V166.695H102.391V167.237C102.391 168.05 102.908 168.556 103.857 168.556C104.806 168.556 105.213 168.112 105.299 167.496H106.815V167.508ZM102.391 165.561H105.311V165.228C105.311 164.353 104.745 163.922 103.857 163.922C102.97 163.922 102.391 164.341 102.391 165.228V165.561Z" fill="#F7B500"/>
<path d="M114.148 167.225C114.148 168.95 113.002 169.874 111.19 169.874C109.379 169.874 108.208 168.938 108.208 167.163V165.327C108.208 163.552 109.379 162.616 111.203 162.616C113.026 162.616 114.148 163.54 114.148 165.241H112.644V165.142C112.644 164.341 112.102 163.91 111.203 163.91C110.303 163.91 109.724 164.353 109.724 165.216V167.249C109.724 168.112 110.278 168.568 111.19 168.568C112.102 168.568 112.644 168.137 112.644 167.336V167.225H114.148Z" fill="#F7B500"/>
<path d="M117.438 167.274C117.438 168.433 117.833 168.642 119.386 168.482V169.726C116.527 170.182 115.923 169.135 115.923 167.188V164.045H114.703V162.739H115.923V160.632L117.426 160.188V162.739H119.373V164.045H117.426V167.274H117.438Z" fill="#F7B500"/>
<path d="M81.0718 174.569H120.002" stroke="#F7B500" stroke-miterlimit="10"/>
<g clip-path="url(#clip1_15647_90283)">
<path d="M277.729 35.4607C277.729 37.6789 276.275 38.862 273.983 38.862H270.409V29.3729H274.008C276.275 29.3729 277.717 30.556 277.717 32.7742V35.4607H277.729ZM276.115 32.7742C276.115 31.4679 275.302 30.7655 274.008 30.7655H272.011V37.4571H273.983C275.302 37.4571 276.115 36.767 276.115 35.4607V32.7742Z" fill="#3F4142"/>
<path d="M285.124 36.6438C284.988 38.1842 283.891 38.9975 282.166 38.9975C280.441 38.9975 279.184 38.0609 279.184 36.2864V34.4379C279.184 32.651 280.367 31.739 282.166 31.739C283.965 31.739 285.124 32.651 285.124 34.4379V35.8304H280.699V36.3726C280.699 37.186 281.217 37.6912 282.166 37.6912C283.115 37.6912 283.521 37.2476 283.608 36.6314H285.124V36.6438ZM280.699 34.6966H283.62V34.3639C283.62 33.4889 283.053 33.0576 282.166 33.0576C281.279 33.0576 280.699 33.4766 280.699 34.3639V34.6966Z" fill="#3F4142"/>
<path d="M286.713 28.8307H288.216V38.862H286.713V28.8307Z" fill="#3F4142"/>
<path d="M292.074 34.6967C292.887 34.6967 293.553 34.9061 293.996 35.3128V34.2037C293.996 33.415 293.491 32.9837 292.69 32.9837C291.815 32.9837 291.408 33.2918 291.408 34.0435H289.905C289.905 32.5277 290.891 31.7513 292.702 31.7513C294.415 31.7513 295.512 32.6017 295.512 34.29V38.8743H294.366L294.156 38.1842C293.725 38.7264 292.986 39.0099 292.074 39.0099C290.558 39.0099 289.584 38.3074 289.584 36.8533C289.584 35.3991 290.558 34.709 292.098 34.709L292.074 34.6967ZM292.505 37.6913C293.405 37.6913 293.996 37.3955 293.996 36.7916C293.996 36.1878 293.405 35.8797 292.505 35.8797C291.606 35.8797 291.063 36.1508 291.063 36.7916C291.063 37.4325 291.618 37.6913 292.505 37.6913Z" fill="#3F4142"/>
<path d="M298.075 41.5732L299.061 38.862H298.889L296.338 31.8746H297.952L299.838 37.1737L301.711 31.8746H303.227L299.69 41.5732H298.075Z" fill="#3F4142"/>
<path d="M308.304 29.3729H312.506C314.17 29.3729 315.217 30.2109 315.217 31.8992C315.217 32.9467 314.798 33.6738 314.083 34.0682C314.909 34.4379 315.39 35.2019 315.39 36.348C315.39 38.0117 314.355 38.8743 312.679 38.8743H308.316V29.3729H308.304ZM309.918 33.415H312.235C313.135 33.415 313.554 32.9467 313.554 32.0841C313.554 31.2214 313.135 30.7655 312.235 30.7655H309.918V33.415ZM309.918 37.4571H312.395C313.295 37.4571 313.726 37.0135 313.726 36.1508C313.726 35.2882 313.307 34.8076 312.395 34.8076H309.918V37.4571Z" fill="#3F4142"/>
<path d="M316.807 31.8869H317.953L318.187 32.7002C318.804 31.9362 319.802 31.6034 320.849 31.8376V33.1931C319.235 32.9467 318.311 33.4643 318.311 34.3639V38.8743H316.807V31.8869Z" fill="#3F4142"/>
<path d="M327.541 36.6438C327.405 38.1842 326.309 38.9975 324.583 38.9975C322.858 38.9975 321.601 38.0609 321.601 36.2864V34.4379C321.601 32.651 322.784 31.739 324.583 31.739C326.383 31.739 327.541 32.651 327.541 34.4379V35.8304H323.117V36.3726C323.117 37.186 323.634 37.6912 324.583 37.6912C325.532 37.6912 325.939 37.2476 326.025 36.6314H327.541V36.6438ZM323.117 34.6966H326.038V34.3639C326.038 33.4889 325.471 33.0576 324.583 33.0576C323.696 33.0576 323.117 33.4766 323.117 34.3639V34.6966Z" fill="#3F4142"/>
<path d="M330.289 38.862L328.243 31.8746H329.808L331.225 37.0135L332.63 31.8746H334.134L335.526 37.0135L336.968 31.8746H338.422L336.377 38.862H334.676L333.32 34.1422L331.989 38.862H330.289Z" fill="#3F4142"/>
<path d="M338.484 43.2368H269.522V44.4692H338.484V43.2368Z" fill="#3F4142"/>
</g>
<g clip-path="url(#clip2_15647_90283)">
<path d="M276.756 99.3702H273.774V102.007H273.083V96.1538H273.774V98.7664H276.756V96.1538H277.446V102.007H276.756V99.3702Z" fill="#3F4142"/>
<path d="M282.043 100.479C282.043 101.539 281.34 102.081 280.28 102.081C279.221 102.081 278.518 101.539 278.518 100.479V99.2469C278.518 98.1871 279.208 97.6449 280.28 97.6449C281.352 97.6449 282.043 98.1871 282.043 99.2469V100.479ZM281.389 99.21C281.389 98.5445 280.958 98.2118 280.28 98.2118C279.603 98.2118 279.159 98.5445 279.159 99.21V100.529C279.159 101.194 279.603 101.527 280.268 101.527C280.933 101.527 281.377 101.194 281.377 100.529V99.21H281.389Z" fill="#3F4142"/>
<path d="M283.115 95.8087H283.768V101.995H283.115V95.8087Z" fill="#3F4142"/>
<path d="M284.828 99.247C284.828 98.2118 285.444 97.6449 286.43 97.6449C286.972 97.6449 287.416 97.8174 287.699 98.1502V95.7964H288.352V101.983H287.847L287.761 101.478C287.49 101.86 287.021 102.069 286.43 102.069C285.456 102.069 284.828 101.502 284.828 100.467V99.2346V99.247ZM285.468 100.516C285.468 101.157 285.887 101.514 286.565 101.514C287.243 101.514 287.699 101.132 287.699 100.467V99.2346C287.699 98.5692 287.255 98.1995 286.565 98.1995C285.875 98.1995 285.481 98.5568 285.481 99.1977V100.516H285.468Z" fill="#3F4142"/>
<path d="M293.109 100.504C293.109 101.367 293.319 101.613 294.428 101.478V102.007C292.74 102.291 292.456 101.638 292.456 100.442V98.2981H291.618V97.7312H292.456V96.314L293.109 96.1168V97.7312H294.428V98.2981H293.109V100.504Z" fill="#3F4142"/>
<path d="M298.766 100.479C298.766 101.539 298.063 102.081 297.003 102.081C295.944 102.081 295.241 101.539 295.241 100.479V99.2469C295.241 98.1871 295.931 97.6449 297.003 97.6449C298.076 97.6449 298.766 98.1871 298.766 99.2469V100.479ZM298.113 99.21C298.113 98.5445 297.681 98.2118 297.003 98.2118C296.326 98.2118 295.882 98.5445 295.882 99.21V100.529C295.882 101.194 296.326 101.527 296.991 101.527C297.657 101.527 298.1 101.194 298.1 100.529V99.21H298.113Z" fill="#3F4142"/>
<path d="M304.878 99.4811L303.769 99.2716C302.857 99.0991 302.315 98.5938 302.315 97.7188C302.315 96.6344 303.066 96.0675 304.385 96.0675C305.704 96.0675 306.455 96.659 306.455 97.8298V97.9037H305.765V97.8298C305.765 97.0657 305.285 96.6714 304.373 96.6714C303.461 96.6714 303.005 97.0164 303.005 97.6696C303.005 98.2118 303.362 98.5199 303.917 98.6308L305.026 98.8403C305.962 99.0128 306.492 99.5058 306.492 100.393C306.492 101.527 305.704 102.094 304.373 102.094C303.042 102.094 302.253 101.502 302.253 100.331V100.257H302.943V100.331C302.943 101.095 303.461 101.49 304.36 101.49C305.26 101.49 305.777 101.145 305.777 100.43C305.777 99.8878 305.42 99.5797 304.866 99.4811H304.878Z" fill="#3F4142"/>
<path d="M308.92 99.5057C309.487 99.5057 309.931 99.6536 310.214 99.9371V99.1114C310.214 98.4952 309.82 98.1871 309.191 98.1871C308.526 98.1871 308.193 98.4336 308.193 99.0128H307.54C307.54 98.0885 308.132 97.6449 309.191 97.6449C310.251 97.6449 310.855 98.1378 310.855 99.1484V101.995H310.35L310.276 101.539C310.005 101.896 309.512 102.069 308.908 102.069C307.959 102.069 307.331 101.662 307.331 100.775C307.331 99.8878 307.947 99.4811 308.908 99.4811L308.92 99.5057ZM309.08 101.527C309.746 101.527 310.214 101.268 310.214 100.775C310.214 100.282 309.746 100.036 309.08 100.036C308.415 100.036 307.996 100.257 307.996 100.775C307.996 101.293 308.415 101.527 309.08 101.527Z" fill="#3F4142"/>
<path d="M313.184 102.007L311.521 97.7435H312.211L313.591 101.28L314.971 97.7435H315.624L313.961 102.007H313.184Z" fill="#3F4142"/>
<path d="M319.617 100.689C319.567 101.588 318.927 102.094 317.879 102.094C316.832 102.094 316.104 101.527 316.104 100.479V99.2593C316.104 98.1995 316.795 97.6572 317.867 97.6572C318.939 97.6572 319.629 98.1995 319.629 99.2593V100.06H316.745V100.516C316.745 101.145 317.152 101.527 317.879 101.527C318.606 101.527 318.939 101.169 318.976 100.676H319.617V100.689ZM316.745 99.5427H318.976V99.21C318.976 98.5445 318.545 98.2118 317.867 98.2118C317.189 98.2118 316.745 98.5445 316.745 99.21V99.5427Z" fill="#3F4142"/>
<path d="M277.199 80.0593L274.611 84.9394L272.024 80.0593V86.3813H270.409V76.8922H271.962L274.611 81.8832L277.249 76.8922H278.814V86.3813H277.199V80.0593Z" fill="#3F4142"/>
<path d="M281.562 89.0925L282.548 86.3813H282.375L279.824 79.3939H281.439L283.324 84.693L285.197 79.3939H286.713L283.176 89.0925H281.562Z" fill="#3F4142"/>
<path d="M291.791 76.8922H295.993C297.656 76.8922 298.704 77.7302 298.704 79.4185C298.704 80.466 298.285 81.1931 297.57 81.5875C298.396 81.9572 298.877 82.7212 298.877 83.8673C298.877 85.531 297.841 86.3936 296.165 86.3936H291.803V76.8922H291.791ZM293.405 80.9343H295.722C296.621 80.9343 297.04 80.466 297.04 79.6034C297.04 78.7407 296.621 78.2848 295.722 78.2848H293.405V80.9343ZM293.405 84.9764H295.882C296.782 84.9764 297.213 84.5328 297.213 83.6701C297.213 82.8075 296.794 82.3269 295.882 82.3269H293.405V84.9764Z" fill="#3F4142"/>
<path d="M300.293 79.4061H301.452L301.686 80.2195C302.29 79.4554 303.3 79.1227 304.348 79.3569V80.7124C302.734 80.466 301.809 80.9836 301.809 81.8832V86.3936H300.306V79.4061H300.293Z" fill="#3F4142"/>
<path d="M311.027 84.163C310.892 85.7035 309.795 86.5168 308.07 86.5168C306.344 86.5168 305.087 85.5802 305.087 83.8057V81.9571C305.087 80.1702 306.27 79.2583 308.07 79.2583C309.869 79.2583 311.027 80.1702 311.027 81.9571V83.3497H306.603V83.8919C306.603 84.7053 307.121 85.2105 308.07 85.2105C309.019 85.2105 309.425 84.7669 309.512 84.1507H311.027V84.163ZM306.603 82.2159H309.524V81.8832C309.524 81.0082 308.957 80.5769 308.07 80.5769C307.182 80.5769 306.603 80.9959 306.603 81.8832V82.2159Z" fill="#3F4142"/>
<path d="M313.788 86.3813L311.742 79.3939H313.307L314.737 84.5328L316.142 79.3939H317.645L319.038 84.5328L320.48 79.3939H321.934L319.888 86.3813H318.187L316.832 81.6614L315.501 86.3813H313.788Z" fill="#3F4142"/>
<path d="M322.71 90.6575H269.522V91.8898H322.71V90.6575Z" fill="#3F4142"/>
</g>
<path d="M8.76465 0.5H257.931V132.511C257.931 135.279 255.687 137.523 252.919 137.523H13.7763C11.0084 137.523 8.76465 135.279 8.76465 132.511V0.5Z" stroke="#808080"/>
<g clip-path="url(#clip3_15647_90283)">
<path d="M39.0471 25L35.5278 28.5774H29.7769L27.0736 25.8195L24.3703 28.5774H18.6195L15.1001 25H39.0471Z" fill="#0F0F0F"/>
<path d="M27.8643 44.5L29.6239 46.2952H35.4768L37.2365 44.5L35.4896 42.7048H29.6239L27.8643 44.5Z" fill="#0F0F0F"/>
<path d="M40.0674 26.0406L36.5608 29.631V41.6641L38.6648 43.8235H40.0802L40.0674 26.0406Z" fill="white"/>
<path d="M27.0736 43.1991L28.8333 41.4039V29.7611L27.0736 27.9659L25.3267 29.7481V41.4039L27.0736 43.1991Z" fill="#0F0F0F"/>
<path d="M35.1069 30.0474V37.5534L32.6714 41.2348H30.2742V37.3452L35.1069 30.0474Z" fill="#0F0F0F"/>
<path d="M26.2831 44.5L24.5362 46.2952H18.6706L16.9109 44.5L18.6706 42.7048H24.5362L26.2831 44.5Z" fill="#0F0F0F"/>
<path d="M14.0801 26.0406L17.5995 29.631V41.6641L15.4827 43.8235H14.0801V26.0406Z" fill="white"/>
<path d="M19.0403 30.0474V37.5534L21.4885 41.2348H23.873V37.3452L19.0403 30.0474Z" fill="#0F0F0F"/>
<path d="M40.0674 62.9592L36.5608 59.3819V47.3358L38.6648 45.1764H40.0802L40.0674 62.9592Z" fill="white"/>
<path d="M27.0736 45.8009L28.8333 47.5961V59.2519L27.0736 61.0341L25.3267 59.2519V47.5961L27.0736 45.8009Z" fill="white"/>
<path d="M35.1069 58.9526V51.4466L32.6714 47.7651H30.2742V51.6547L35.1069 58.9526Z" fill="#0F0F0F"/>
<path d="M14.0801 62.9592L17.5995 59.3819V47.3358L15.4827 45.1764H14.0801V62.9592Z" fill="white"/>
<path d="M19.0403 58.9567V51.4479L21.4885 47.7651H23.873V51.6562L19.0403 58.9567Z" fill="#0F0F0F"/>
<path d="M39.0471 64L35.5278 60.4226H29.7769L27.0736 63.1804L24.3703 60.4226H18.6195L15.1001 64H39.0471Z" fill="white"/>
</g>
<g clip-path="url(#clip4_15647_90283)">
<path d="M69.0471 25L65.5278 28.5774H59.7769L57.0736 25.8195L54.3703 28.5774H48.6195L45.1001 25H69.0471Z" fill="white"/>
<path d="M57.8643 44.5L59.6239 46.2952H65.4768L67.2365 44.5L65.4896 42.7048H59.6239L57.8643 44.5Z" fill="#0F0F0F"/>
<path d="M70.0674 26.0406L66.5608 29.631V41.6641L68.6648 43.8235H70.0802L70.0674 26.0406Z" fill="#0F0F0F"/>
<path d="M57.0736 43.1991L58.8333 41.4039V29.7611L57.0736 27.9659L55.3267 29.7481V41.4039L57.0736 43.1991Z" fill="white"/>
<path d="M65.1069 30.0474V37.5534L62.6714 41.2348H60.2742V37.3452L65.1069 30.0474Z" fill="#0F0F0F"/>
<path d="M56.2831 44.5L54.5362 46.2952H48.6706L46.9109 44.5L48.6706 42.7048H54.5362L56.2831 44.5Z" fill="#0F0F0F"/>
<path d="M44.0801 26.0406L47.5995 29.631V41.6641L45.4827 43.8235H44.0801V26.0406Z" fill="#0F0F0F"/>
<path d="M49.0403 30.0474V37.5534L51.4885 41.2348H53.873V37.3452L49.0403 30.0474Z" fill="#0F0F0F"/>
<path d="M70.0674 62.9592L66.5608 59.3819V47.3358L68.6648 45.1764H70.0802L70.0674 62.9592Z" fill="#0F0F0F"/>
<path d="M57.0736 45.8009L58.8333 47.5961V59.2519L57.0736 61.0341L55.3267 59.2519V47.5961L57.0736 45.8009Z" fill="white"/>
<path d="M65.1069 58.9526V51.4466L62.6714 47.7651H60.2742V51.6547L65.1069 58.9526Z" fill="#0F0F0F"/>
<path d="M44.0801 62.9592L47.5995 59.3819V47.3358L45.4827 45.1764H44.0801V62.9592Z" fill="#0F0F0F"/>
<path d="M49.0403 58.9567V51.4479L51.4885 47.7651H53.873V51.6562L49.0403 58.9567Z" fill="#0F0F0F"/>
<path d="M69.0471 64L65.5278 60.4226H59.7769L57.0736 63.1804L54.3703 60.4226H48.6195L45.1001 64H69.0471Z" fill="white"/>
</g>
<g clip-path="url(#clip5_15647_90283)">
<path d="M99.0471 25L95.5278 28.5774H89.7769L87.0736 25.8195L84.3703 28.5774H78.6195L75.1001 25H99.0471Z" fill="white"/>
<path d="M87.8643 44.5L89.6239 46.2952H95.4768L97.2365 44.5L95.4896 42.7048H89.6239L87.8643 44.5Z" fill="#0F0F0F"/>
<path d="M100.067 26.0406L96.5608 29.631V41.6641L98.6648 43.8235H100.08L100.067 26.0406Z" fill="#0F0F0F"/>
<path d="M87.0736 43.1991L88.8333 41.4039V29.7611L87.0736 27.9659L85.3267 29.7481V41.4039L87.0736 43.1991Z" fill="#0F0F0F"/>
<path d="M95.1069 30.0474V37.5534L92.6714 41.2348H90.2742V37.3452L95.1069 30.0474Z" fill="#0F0F0F"/>
<path d="M86.2831 44.5L84.5362 46.2952H78.6706L76.9109 44.5L78.6706 42.7048H84.5362L86.2831 44.5Z" fill="white"/>
<path d="M74.0801 26.0406L77.5995 29.631V41.6641L75.4827 43.8235H74.0801V26.0406Z" fill="white"/>
<path d="M79.0403 30.0474V37.5534L81.4885 41.2348H83.873V37.3452L79.0403 30.0474Z" fill="#0F0F0F"/>
<path d="M100.067 62.9592L96.5608 59.3819V47.3358L98.6648 45.1764H100.08L100.067 62.9592Z" fill="#0F0F0F"/>
<path d="M87.0736 45.8009L88.8333 47.5961V59.2519L87.0736 61.0341L85.3267 59.2519V47.5961L87.0736 45.8009Z" fill="#0F0F0F"/>
<path d="M95.1069 58.9526V51.4466L92.6714 47.7651H90.2742V51.6547L95.1069 58.9526Z" fill="#0F0F0F"/>
<path d="M74.0801 62.9592L77.5995 59.3819V47.3358L75.4827 45.1764H74.0801V62.9592Z" fill="white"/>
<path d="M79.0403 58.9567V51.4479L81.4885 47.7651H83.873V51.6562L79.0403 58.9567Z" fill="#0F0F0F"/>
<path d="M99.0471 64L95.5278 60.4226H89.7769L87.0736 63.1804L84.3703 60.4226H78.6195L75.1001 64H99.0471Z" fill="#0F0F0F"/>
</g>
<g clip-path="url(#clip6_15647_90283)">
<path d="M129.047 25L125.528 28.5774H119.777L117.074 25.8195L114.37 28.5774H108.619L105.1 25H129.047Z" fill="white"/>
<path d="M117.864 44.5L119.624 46.2952H125.477L127.237 44.5L125.49 42.7048H119.624L117.864 44.5Z" fill="#0F0F0F"/>
<path d="M130.067 26.0406L126.561 29.631V41.6641L128.665 43.8235H130.08L130.067 26.0406Z" fill="#0F0F0F"/>
<path d="M117.074 43.1991L118.833 41.4039V29.7611L117.074 27.9659L115.327 29.7481V41.4039L117.074 43.1991Z" fill="white"/>
<path d="M125.107 30.0474V37.5534L122.671 41.2348H120.274V37.3452L125.107 30.0474Z" fill="#0F0F0F"/>
<path d="M116.283 44.5L114.536 46.2952H108.671L106.911 44.5L108.671 42.7048H114.536L116.283 44.5Z" fill="#0F0F0F"/>
<path d="M104.08 26.0406L107.599 29.631V41.6641L105.483 43.8235H104.08V26.0406Z" fill="#0F0F0F"/>
<path d="M109.04 30.0474V37.5534L111.489 41.2348H113.873V37.3452L109.04 30.0474Z" fill="#0F0F0F"/>
<path d="M130.067 62.9592L126.561 59.3819V47.3358L128.665 45.1764H130.08L130.067 62.9592Z" fill="#0F0F0F"/>
<path d="M117.074 45.8009L118.833 47.5961V59.2519L117.074 61.0341L115.327 59.2519V47.5961L117.074 45.8009Z" fill="white"/>
<path d="M125.107 58.9526V51.4466L122.671 47.7651H120.274V51.6547L125.107 58.9526Z" fill="#0F0F0F"/>
<path d="M104.08 62.9592L107.599 59.3819V47.3358L105.483 45.1764H104.08V62.9592Z" fill="#0F0F0F"/>
<path d="M109.04 58.9567V51.4479L111.489 47.7651H113.873V51.6562L109.04 58.9567Z" fill="#0F0F0F"/>
<path d="M129.047 64L125.528 60.4226H119.777L117.074 63.1804L114.37 60.4226H108.619L105.1 64H129.047Z" fill="white"/>
</g>
<g clip-path="url(#clip7_15647_90283)">
<path d="M160.008 25L156.353 28.5774H150.381L147.574 25.8195L144.766 28.5774H138.794L135.14 25H160.008Z" fill="#0F0F0F"/>
<path d="M148.395 44.5L150.222 46.2952H156.3L158.127 44.5L156.313 42.7048H150.222L148.395 44.5Z" fill="#0F0F0F"/>
<path d="M161.067 26.0406L157.425 29.631V41.6641L159.61 43.8235H161.08L161.067 26.0406Z" fill="#0F0F0F"/>
<path d="M147.573 43.1991L149.401 41.4039V29.7611L147.573 27.9659L145.759 29.7481V41.4039L147.573 43.1991Z" fill="#0F0F0F"/>
<path d="M155.916 30.0474V37.5534L153.386 41.2348H150.897V37.3452L155.916 30.0474Z" fill="#0F0F0F"/>
<path d="M146.752 44.5L144.938 46.2952H138.847L137.02 44.5L138.847 42.7048H144.938L146.752 44.5Z" fill="#0F0F0F"/>
<path d="M134.08 26.0406L137.735 29.631V41.6641L135.537 43.8235H134.08V26.0406Z" fill="#0F0F0F"/>
<path d="M139.231 30.0474V37.5534L141.773 41.2348H144.25V37.3452L139.231 30.0474Z" fill="#0F0F0F"/>
<path d="M161.067 62.9592L157.425 59.3819V47.3358L159.61 45.1764H161.08L161.067 62.9592Z" fill="#0F0F0F"/>
<path d="M147.573 45.8009L149.401 47.5961V59.2519L147.573 61.0341L145.759 59.2519V47.5961L147.573 45.8009Z" fill="#0F0F0F"/>
<path d="M155.916 58.9526V51.4466L153.386 47.7651H150.897V51.6547L155.916 58.9526Z" fill="#0F0F0F"/>
<path d="M134.08 62.9592L137.735 59.3819V47.3358L135.537 45.1764H134.08V62.9592Z" fill="#0F0F0F"/>
<path d="M139.231 58.9567V51.4479L141.773 47.7651H144.25V51.6562L139.231 58.9567Z" fill="#0F0F0F"/>
<path d="M160.008 64L156.353 60.4226H150.381L147.574 63.1804L144.766 60.4226H138.794L135.14 64H160.008Z" fill="#0F0F0F"/>
</g>
<g clip-path="url(#clip8_15647_90283)">
<path d="M190.047 25L186.528 28.5774H180.777L178.074 25.8195L175.37 28.5774H169.619L166.1 25H190.047Z" fill="#0F0F0F"/>
<path d="M178.864 44.5L180.624 46.2952H186.477L188.237 44.5L186.49 42.7048H180.624L178.864 44.5Z" fill="#0F0F0F"/>
<path d="M191.067 26.0406L187.561 29.631V41.6641L189.665 43.8235H191.08L191.067 26.0406Z" fill="#0F0F0F"/>
<path d="M178.074 43.1991L179.833 41.4039V29.7611L178.074 27.9659L176.327 29.7481V41.4039L178.074 43.1991Z" fill="#0F0F0F"/>
<path d="M186.107 30.0474V37.5534L183.672 41.2348H181.274V37.3452L186.107 30.0474Z" fill="#0F0F0F"/>
<path d="M177.283 44.5L175.536 46.2952H169.67L167.911 44.5L169.67 42.7048H175.536L177.283 44.5Z" fill="#0F0F0F"/>
<path d="M165.08 26.0406L168.599 29.631V41.6641L166.483 43.8235H165.08V26.0406Z" fill="#0F0F0F"/>
<path d="M170.041 30.0474V37.5534L172.489 41.2348H174.873V37.3452L170.041 30.0474Z" fill="#0F0F0F"/>
<path d="M191.067 62.9592L187.561 59.3819V47.3358L189.665 45.1764H191.08L191.067 62.9592Z" fill="#0F0F0F"/>
<path d="M178.074 45.8009L179.833 47.5961V59.2519L178.074 61.0341L176.327 59.2519V47.5961L178.074 45.8009Z" fill="#0F0F0F"/>
<path d="M186.107 58.9526V51.4466L183.672 47.7651H181.274V51.6547L186.107 58.9526Z" fill="#0F0F0F"/>
<path d="M165.08 62.9592L168.599 59.3819V47.3358L166.483 45.1764H165.08V62.9592Z" fill="#0F0F0F"/>
<path d="M170.041 58.9567V51.4479L172.489 47.7651H174.873V51.6562L170.041 58.9567Z" fill="#0F0F0F"/>
<path d="M190.047 64L186.528 60.4226H180.777L178.074 63.1804L175.37 60.4226H169.619L166.1 64H190.047Z" fill="#0F0F0F"/>
</g>
<g clip-path="url(#clip9_15647_90283)">
<path d="M221.968 25L218.178 28.5774H211.984L209.073 25.8195L206.162 28.5774H199.969L196.179 25H221.968Z" fill="#0F0F0F"/>
<path d="M209.925 44.5L211.82 46.2952H218.123L220.018 44.5L218.137 42.7048H211.82L209.925 44.5Z" fill="#0F0F0F"/>
<path d="M223.066 26.0406L219.29 29.631V41.6641L221.556 43.8235H223.08L223.066 26.0406Z" fill="#0F0F0F"/>
<path d="M209.073 43.1991L210.968 41.4039V29.7611L209.073 27.9659L207.192 29.7481V41.4039L209.073 43.1991Z" fill="#0F0F0F"/>
<path d="M217.725 30.0474V37.5534L215.102 41.2348H212.52V37.3452L217.725 30.0474Z" fill="#0F0F0F"/>
<path d="M208.222 44.5L206.34 46.2952H200.023L198.128 44.5L200.023 42.7048H206.34L208.222 44.5Z" fill="#0F0F0F"/>
<path d="M195.08 26.0406L198.87 29.631V41.6641L196.591 43.8235H195.08V26.0406Z" fill="#0F0F0F"/>
<path d="M200.422 30.0474V37.5534L203.058 41.2348H205.626V37.3452L200.422 30.0474Z" fill="#0F0F0F"/>
<path d="M223.066 62.9592L219.29 59.3819V47.3358L221.556 45.1764H223.08L223.066 62.9592Z" fill="#0F0F0F"/>
<path d="M209.073 45.8009L210.968 47.5961V59.2519L209.073 61.0341L207.192 59.2519V47.5961L209.073 45.8009Z" fill="#0F0F0F"/>
<path d="M217.725 58.9526V51.4466L215.102 47.7651H212.52V51.6547L217.725 58.9526Z" fill="#0F0F0F"/>
<path d="M195.08 62.9592L198.87 59.3819V47.3358L196.591 45.1764H195.08V62.9592Z" fill="#0F0F0F"/>
<path d="M200.422 58.9567V51.4479L203.058 47.7651H205.626V51.6562L200.422 58.9567Z" fill="#0F0F0F"/>
<path d="M221.968 64L218.178 60.4226H211.984L209.073 63.1804L206.162 60.4226H199.969L196.179 64H221.968Z" fill="#0F0F0F"/>
</g>
<g clip-path="url(#clip10_15647_90283)">
<path d="M252.047 25L248.528 28.5774H242.777L240.074 25.8195L237.37 28.5774H231.619L228.1 25H252.047Z" fill="#0F0F0F"/>
<path d="M240.864 44.5L242.624 46.2952H248.477L250.237 44.5L248.49 42.7048H242.624L240.864 44.5Z" fill="#0F0F0F"/>
<path d="M253.067 26.0406L249.561 29.631V41.6641L251.665 43.8235H253.08L253.067 26.0406Z" fill="#0F0F0F"/>
<path d="M240.074 43.1991L241.833 41.4039V29.7611L240.074 27.9659L238.327 29.7481V41.4039L240.074 43.1991Z" fill="#0F0F0F"/>
<path d="M248.107 30.0474V37.5534L245.672 41.2348H243.274V37.3452L248.107 30.0474Z" fill="#0F0F0F"/>
<path d="M239.283 44.5L237.536 46.2952H231.67L229.911 44.5L231.67 42.7048H237.536L239.283 44.5Z" fill="#0F0F0F"/>
<path d="M227.08 26.0406L230.599 29.631V41.6641L228.483 43.8235H227.08V26.0406Z" fill="#0F0F0F"/>
<path d="M232.041 30.0474V37.5534L234.489 41.2348H236.873V37.3452L232.041 30.0474Z" fill="#0F0F0F"/>
<path d="M253.067 62.9592L249.561 59.3819V47.3358L251.665 45.1764H253.08L253.067 62.9592Z" fill="#0F0F0F"/>
<path d="M240.074 45.8009L241.833 47.5961V59.2519L240.074 61.0341L238.327 59.2519V47.5961L240.074 45.8009Z" fill="#0F0F0F"/>
<path d="M248.107 58.9526V51.4466L245.672 47.7651H243.274V51.6547L248.107 58.9526Z" fill="#0F0F0F"/>
<path d="M227.08 62.9592L230.599 59.3819V47.3358L228.483 45.1764H227.08V62.9592Z" fill="#0F0F0F"/>
<path d="M232.041 58.9567V51.4479L234.489 47.7651H236.873V51.6562L232.041 58.9567Z" fill="#0F0F0F"/>
<path d="M252.047 64L248.528 60.4226H242.777L240.074 63.1804L237.37 60.4226H231.619L228.1 64H252.047Z" fill="#0F0F0F"/>
</g>
</g>
<defs>
<clipPath id="clip0_15647_90283">
<rect width="338" height="190" fill="white"/>
</clipPath>
<clipPath id="clip1_15647_90283">
<rect width="68.9621" height="15.6385" fill="white" transform="translate(269.522 28.8307)"/>
</clipPath>
<clipPath id="clip2_15647_90283">
<rect width="53.1881" height="25.2015" fill="white" transform="translate(269.522 76.8922)"/>
</clipPath>
<clipPath id="clip3_15647_90283">
<rect width="26" height="39" fill="white" transform="translate(14.0801 25)"/>
</clipPath>
<clipPath id="clip4_15647_90283">
<rect width="26" height="39" fill="white" transform="translate(44.0801 25)"/>
</clipPath>
<clipPath id="clip5_15647_90283">
<rect width="26" height="39" fill="white" transform="translate(74.0801 25)"/>
</clipPath>
<clipPath id="clip6_15647_90283">
<rect width="26" height="39" fill="white" transform="translate(104.08 25)"/>
</clipPath>
<clipPath id="clip7_15647_90283">
<rect width="27" height="39" fill="white" transform="translate(134.08 25)"/>
</clipPath>
<clipPath id="clip8_15647_90283">
<rect width="26" height="39" fill="white" transform="translate(165.08 25)"/>
</clipPath>
<clipPath id="clip9_15647_90283">
<rect width="28" height="39" fill="white" transform="translate(195.08 25)"/>
</clipPath>
<clipPath id="clip10_15647_90283">
<rect width="26" height="39" fill="white" transform="translate(227.08 25)"/>
</clipPath>
</defs>
</svg>
