<svg width="342" height="193" viewBox="0 0 342 193" fill="none" xmlns="http://www.w3.org/2000/svg">
<path d="M4.08203 117L312.082 117" stroke="#808080" stroke-width="1.00313"/>
<path d="M18.6562 147.824L30.337 133.132L30.337 162.517L18.6562 147.824Z" fill="#808080"/>
<path d="M244.484 147.824L232.803 162.517L232.803 133.132L244.484 147.824Z" fill="#F7B500"/>
<path d="M80.7357 136.1C81.2635 136.194 81.7112 136.472 82.0788 136.934C82.4464 137.396 82.6302 137.919 82.6302 138.503C82.6302 139.003 82.4982 139.455 82.2343 139.86C81.9798 140.256 81.6076 140.572 81.1174 140.807C80.6273 141.034 80.0571 141.147 79.4068 141.147H75.4765V131.321H79.223C79.8922 131.321 80.4671 131.434 80.9478 131.66C81.4285 131.887 81.7913 132.193 82.0364 132.579C82.2814 132.956 82.404 133.38 82.404 133.852C82.404 134.417 82.2532 134.888 81.9516 135.265C81.65 135.642 81.2447 135.921 80.7357 136.1ZM77.0882 135.449H79.0816C79.6094 135.449 80.0194 135.331 80.3116 135.096C80.6132 134.851 80.764 134.502 80.764 134.05C80.764 133.607 80.6132 133.263 80.3116 133.018C80.0194 132.763 79.6094 132.636 79.0816 132.636H77.0882V135.449ZM79.2654 139.832C79.8121 139.832 80.2409 139.7 80.5519 139.436C80.863 139.172 81.0185 138.805 81.0185 138.333C81.0185 137.853 80.8535 137.471 80.5237 137.188C80.1938 136.905 79.7555 136.764 79.2089 136.764H77.0882V139.832H79.2654ZM86.276 134.488C86.5117 134.092 86.8227 133.786 87.2091 133.569C87.605 133.343 88.0715 133.23 88.6087 133.23V134.898H88.1987C87.5673 134.898 87.0866 135.058 86.7567 135.379C86.4363 135.699 86.276 136.255 86.276 137.047V141.147H84.6643V133.357H86.276V134.488ZM97.5125 137.061C97.5125 137.353 97.4936 137.617 97.4559 137.853H91.504C91.5511 138.475 91.782 138.974 92.1967 139.351C92.6114 139.728 93.1204 139.917 93.7236 139.917C94.5907 139.917 95.2033 139.554 95.5615 138.828H97.3004C97.0648 139.544 96.6359 140.134 96.0139 140.595C95.4012 141.048 94.6378 141.274 93.7236 141.274C92.979 141.274 92.3098 141.109 91.716 140.779C91.1317 140.44 90.6698 139.969 90.3305 139.365C90.0007 138.753 89.8357 138.046 89.8357 137.245C89.8357 136.444 89.996 135.741 90.3164 135.138C90.6463 134.526 91.1034 134.054 91.6878 133.724C92.2815 133.395 92.9601 133.23 93.7236 133.23C94.4587 133.23 95.1138 133.39 95.6887 133.71C96.2636 134.031 96.7113 134.483 97.0318 135.068C97.3522 135.642 97.5125 136.307 97.5125 137.061ZM95.8301 136.552C95.8207 135.958 95.6086 135.482 95.1939 135.124C94.7792 134.766 94.2655 134.587 93.6529 134.587C93.0968 134.587 92.6208 134.766 92.225 135.124C91.8291 135.473 91.5935 135.949 91.5181 136.552H95.8301ZM109.843 133.357L107.426 141.147H105.729L104.16 135.393L102.591 141.147H100.894L98.4623 133.357H100.102L101.728 139.62L103.382 133.357H105.065L106.648 139.592L108.26 133.357H109.843Z" fill="#3F4142"/>
<path d="M151.643 152.677C150.939 152.677 150.306 152.557 149.743 152.315C149.18 152.064 148.738 151.712 148.416 151.26C148.094 150.807 147.933 150.28 147.933 149.676H149.773C149.813 150.129 149.989 150.501 150.301 150.792C150.623 151.084 151.07 151.23 151.643 151.23C152.236 151.23 152.699 151.089 153.03 150.807C153.362 150.516 153.528 150.144 153.528 149.691C153.528 149.34 153.423 149.053 153.211 148.832C153.01 148.611 152.754 148.44 152.442 148.319C152.141 148.199 151.719 148.068 151.176 147.927C150.492 147.746 149.934 147.565 149.502 147.384C149.079 147.193 148.718 146.902 148.416 146.51C148.114 146.117 147.964 145.595 147.964 144.941C147.964 144.338 148.114 143.81 148.416 143.358C148.718 142.905 149.14 142.559 149.683 142.317C150.226 142.076 150.854 141.955 151.568 141.955C152.583 141.955 153.413 142.212 154.056 142.724C154.709 143.227 155.071 143.921 155.142 144.806H153.242C153.211 144.423 153.03 144.097 152.699 143.825C152.367 143.554 151.93 143.418 151.387 143.418C150.894 143.418 150.492 143.544 150.18 143.795C149.869 144.046 149.713 144.408 149.713 144.881C149.713 145.203 149.808 145.469 149.999 145.68C150.2 145.881 150.452 146.042 150.753 146.163C151.055 146.283 151.467 146.414 151.99 146.555C152.684 146.746 153.247 146.937 153.679 147.128C154.121 147.319 154.493 147.615 154.795 148.018C155.107 148.41 155.262 148.937 155.262 149.601C155.262 150.134 155.117 150.636 154.825 151.109C154.544 151.582 154.126 151.964 153.573 152.255C153.03 152.537 152.387 152.677 151.643 152.677ZM165.189 148.214C165.189 148.525 165.169 148.807 165.129 149.058H158.78C158.83 149.722 159.077 150.254 159.519 150.657C159.961 151.059 160.504 151.26 161.148 151.26C162.073 151.26 162.726 150.873 163.108 150.099H164.963C164.712 150.863 164.254 151.491 163.591 151.984C162.937 152.466 162.123 152.707 161.148 152.707C160.353 152.707 159.64 152.532 159.006 152.18C158.383 151.818 157.89 151.315 157.528 150.672C157.177 150.018 157.001 149.264 157.001 148.41C157.001 147.555 157.171 146.806 157.513 146.163C157.865 145.509 158.353 145.007 158.976 144.655C159.609 144.303 160.333 144.127 161.148 144.127C161.932 144.127 162.63 144.298 163.244 144.64C163.857 144.981 164.335 145.464 164.676 146.087C165.018 146.701 165.189 147.409 165.189 148.214ZM163.395 147.671C163.384 147.037 163.158 146.53 162.716 146.148C162.274 145.766 161.726 145.575 161.072 145.575C160.479 145.575 159.971 145.766 159.549 146.148C159.127 146.52 158.876 147.027 158.795 147.671H163.395ZM168.883 141.412V152.572H167.164V141.412H168.883ZM179.038 148.214C179.038 148.525 179.018 148.807 178.978 149.058H172.629C172.679 149.722 172.926 150.254 173.368 150.657C173.81 151.059 174.353 151.26 174.997 151.26C175.922 151.26 176.575 150.873 176.957 150.099H178.812C178.561 150.863 178.103 151.491 177.44 151.984C176.786 152.466 175.972 152.707 174.997 152.707C174.202 152.707 173.489 152.532 172.855 152.18C172.232 151.818 171.739 151.315 171.377 150.672C171.025 150.018 170.85 149.264 170.85 148.41C170.85 147.555 171.02 146.806 171.362 146.163C171.714 145.509 172.202 145.007 172.825 144.655C173.458 144.303 174.182 144.127 174.997 144.127C175.781 144.127 176.479 144.298 177.093 144.64C177.706 144.981 178.184 145.464 178.525 146.087C178.867 146.701 179.038 147.409 179.038 148.214ZM177.244 147.671C177.233 147.037 177.007 146.53 176.565 146.148C176.123 145.766 175.575 145.575 174.921 145.575C174.328 145.575 173.82 145.766 173.398 146.148C172.976 146.52 172.725 147.027 172.644 147.671H177.244ZM180.44 148.41C180.44 147.555 180.61 146.806 180.952 146.163C181.304 145.509 181.787 145.007 182.4 144.655C183.013 144.303 183.717 144.127 184.511 144.127C185.517 144.127 186.346 144.368 186.999 144.851C187.663 145.323 188.11 146.002 188.342 146.887H186.487C186.336 146.474 186.095 146.153 185.763 145.921C185.431 145.69 185.014 145.575 184.511 145.575C183.807 145.575 183.244 145.826 182.822 146.329C182.41 146.821 182.204 147.515 182.204 148.41C182.204 149.304 182.41 150.003 182.822 150.506C183.244 151.008 183.807 151.26 184.511 151.26C185.507 151.26 186.165 150.822 186.487 149.948H188.342C188.1 150.792 187.648 151.466 186.984 151.969C186.321 152.461 185.496 152.707 184.511 152.707C183.717 152.707 183.013 152.532 182.4 152.18C181.787 151.818 181.304 151.315 180.952 150.672C180.61 150.018 180.44 149.264 180.44 148.41ZM192.343 145.665V150.265C192.343 150.576 192.414 150.802 192.554 150.943C192.705 151.074 192.957 151.139 193.308 151.139H194.364V152.572H193.007C192.233 152.572 191.64 152.391 191.227 152.029C190.815 151.667 190.609 151.079 190.609 150.265V145.665H189.629V144.263H190.609V142.197H192.343V144.263H194.364V145.665H192.343Z" fill="#F7B500"/>
<path d="M74.0219 157.149C74.0219 156.444 74.1843 155.811 74.5092 155.251C74.8409 154.691 75.2867 154.256 75.8466 153.945C76.4134 153.627 77.032 153.468 77.7024 153.468C78.4696 153.468 79.1504 153.658 79.7448 154.038C80.3461 154.412 80.7816 154.944 81.0511 155.635H79.6308C79.4442 155.255 79.185 154.971 78.8532 154.785C78.5214 154.598 78.1378 154.505 77.7024 154.505C77.2255 154.505 76.8004 154.612 76.4272 154.826C76.0539 155.04 75.7602 155.348 75.5459 155.749C75.3386 156.15 75.2349 156.616 75.2349 157.149C75.2349 157.681 75.3386 158.147 75.5459 158.548C75.7602 158.949 76.0539 159.26 76.4272 159.481C76.8004 159.696 77.2255 159.803 77.7024 159.803C78.1378 159.803 78.5214 159.709 78.8532 159.523C79.185 159.336 79.4442 159.053 79.6308 158.673H81.0511C80.7816 159.364 80.3461 159.896 79.7448 160.269C79.1504 160.642 78.4696 160.829 77.7024 160.829C77.025 160.829 76.4064 160.674 75.8466 160.363C75.2867 160.045 74.8409 159.606 74.5092 159.046C74.1843 158.486 74.0219 157.854 74.0219 157.149ZM82.0406 157.885C82.0406 157.311 82.1581 156.803 82.3931 156.361C82.635 155.918 82.9598 155.576 83.3676 155.334C83.7823 155.085 84.2385 154.961 84.7362 154.961C85.1854 154.961 85.5759 155.051 85.9077 155.231C86.2464 155.403 86.5159 155.621 86.7164 155.884V155.054H87.9086V160.767H86.7164V159.917C86.5159 160.186 86.2429 160.411 85.8973 160.591C85.5517 160.77 85.1578 160.86 84.7154 160.86C84.2247 160.86 83.7754 160.736 83.3676 160.487C82.9598 160.231 82.635 159.879 82.3931 159.429C82.1581 158.973 82.0406 158.458 82.0406 157.885ZM86.7164 157.905C86.7164 157.511 86.6334 157.169 86.4676 156.879C86.3086 156.589 86.0978 156.368 85.8351 156.215C85.5725 156.063 85.2891 155.987 84.985 155.987C84.6809 155.987 84.3975 156.063 84.1348 156.215C83.8722 156.361 83.6579 156.578 83.4921 156.869C83.3331 157.152 83.2536 157.491 83.2536 157.885C83.2536 158.279 83.3331 158.624 83.4921 158.921C83.6579 159.219 83.8722 159.447 84.1348 159.606C84.4044 159.758 84.6878 159.834 84.985 159.834C85.2891 159.834 85.5725 159.758 85.8351 159.606C86.0978 159.454 86.3086 159.232 86.4676 158.942C86.6334 158.645 86.7164 158.299 86.7164 157.905ZM92.3432 154.961C92.7925 154.961 93.1934 155.054 93.5459 155.241C93.9053 155.428 94.1852 155.704 94.3856 156.07C94.5861 156.437 94.6863 156.879 94.6863 157.397V160.767H93.5148V157.574C93.5148 157.062 93.3869 156.672 93.1312 156.402C92.8754 156.126 92.5264 155.987 92.084 155.987C91.6417 155.987 91.2892 156.126 91.0265 156.402C90.7708 156.672 90.6429 157.062 90.6429 157.574V160.767H89.461V155.054H90.6429V155.707C90.8365 155.472 91.0818 155.289 91.379 155.158C91.6832 155.027 92.0046 154.961 92.3432 154.961ZM95.7999 157.905C95.7999 157.318 95.9174 156.803 96.1524 156.361C96.3943 155.911 96.7261 155.566 97.1477 155.324C97.5693 155.082 98.0532 154.961 98.5992 154.961C99.2904 154.961 99.8606 155.127 100.31 155.459C100.766 155.783 101.074 156.25 101.233 156.858H99.9573C99.8537 156.575 99.6878 156.354 99.4597 156.195C99.2316 156.036 98.9448 155.956 98.5992 155.956C98.1154 155.956 97.7283 156.129 97.438 156.475C97.1546 156.813 97.0129 157.29 97.0129 157.905C97.0129 158.521 97.1546 159.001 97.438 159.346C97.7283 159.692 98.1154 159.865 98.5992 159.865C99.2834 159.865 99.7362 159.564 99.9573 158.963H101.233C101.067 159.543 100.756 160.007 100.299 160.352C99.8433 160.691 99.2765 160.86 98.5992 160.86C98.0532 160.86 97.5693 160.739 97.1477 160.497C96.7261 160.248 96.3943 159.903 96.1524 159.461C95.9174 159.011 95.7999 158.493 95.7999 157.905ZM107.646 157.771C107.646 157.985 107.632 158.178 107.605 158.351H103.24C103.274 158.807 103.444 159.174 103.748 159.45C104.052 159.727 104.425 159.865 104.868 159.865C105.503 159.865 105.953 159.599 106.215 159.067H107.491C107.318 159.592 107.003 160.024 106.547 160.363C106.098 160.694 105.538 160.86 104.868 160.86C104.321 160.86 103.831 160.739 103.395 160.497C102.967 160.248 102.628 159.903 102.379 159.461C102.137 159.011 102.016 158.493 102.016 157.905C102.016 157.318 102.134 156.803 102.369 156.361C102.611 155.911 102.946 155.566 103.375 155.324C103.81 155.082 104.308 154.961 104.868 154.961C105.407 154.961 105.887 155.078 106.309 155.313C106.73 155.548 107.059 155.88 107.294 156.309C107.529 156.73 107.646 157.218 107.646 157.771ZM106.412 157.397C106.405 156.962 106.25 156.613 105.946 156.35C105.642 156.088 105.265 155.956 104.816 155.956C104.408 155.956 104.059 156.088 103.769 156.35C103.478 156.606 103.305 156.955 103.25 157.397H106.412ZM109.991 153.095V160.767H108.809V153.095H109.991Z" fill="#3F4142"/>
<path d="M202.226 14.07C201.759 14.07 201.339 13.99 200.966 13.83C200.592 13.6633 200.299 13.43 200.086 13.13C199.872 12.83 199.766 12.48 199.766 12.08H200.986C201.012 12.38 201.129 12.6267 201.336 12.82C201.549 13.0133 201.846 13.11 202.226 13.11C202.619 13.11 202.926 13.0167 203.146 12.83C203.366 12.6367 203.476 12.39 203.476 12.09C203.476 11.8567 203.406 11.6667 203.266 11.52C203.132 11.3733 202.962 11.26 202.756 11.18C202.556 11.1 202.276 11.0133 201.916 10.92C201.462 10.8 201.092 10.68 200.806 10.56C200.526 10.4333 200.286 10.24 200.086 9.98C199.886 9.72 199.786 9.37333 199.786 8.94C199.786 8.54 199.886 8.19 200.086 7.89C200.286 7.59 200.566 7.36 200.926 7.2C201.286 7.04 201.702 6.96 202.176 6.96C202.849 6.96 203.399 7.13 203.826 7.47C204.259 7.80333 204.499 8.26333 204.546 8.85H203.286C203.266 8.59667 203.146 8.38 202.926 8.2C202.706 8.02 202.416 7.93 202.056 7.93C201.729 7.93 201.462 8.01333 201.256 8.18C201.049 8.34667 200.946 8.58667 200.946 8.9C200.946 9.11333 201.009 9.29 201.136 9.43C201.269 9.56333 201.436 9.67 201.636 9.75C201.836 9.83 202.109 9.91667 202.456 10.01C202.916 10.1367 203.289 10.2633 203.576 10.39C203.869 10.5167 204.116 10.7133 204.316 10.98C204.522 11.24 204.626 11.59 204.626 12.03C204.626 12.3833 204.529 12.7167 204.336 13.03C204.149 13.3433 203.872 13.5967 203.506 13.79C203.146 13.9767 202.719 14.07 202.226 14.07ZM211.021 11.11C211.021 11.3167 211.007 11.5033 210.981 11.67H206.771C206.804 12.11 206.967 12.4633 207.261 12.73C207.554 12.9967 207.914 13.13 208.341 13.13C208.954 13.13 209.387 12.8733 209.641 12.36H210.871C210.704 12.8667 210.401 13.2833 209.961 13.61C209.527 13.93 208.987 14.09 208.341 14.09C207.814 14.09 207.341 13.9733 206.921 13.74C206.507 13.5 206.181 13.1667 205.941 12.74C205.707 12.3067 205.591 11.8067 205.591 11.24C205.591 10.6733 205.704 10.1767 205.931 9.75C206.164 9.31667 206.487 8.98333 206.901 8.75C207.321 8.51667 207.801 8.4 208.341 8.4C208.861 8.4 209.324 8.51333 209.731 8.74C210.137 8.96667 210.454 9.28667 210.681 9.7C210.907 10.1067 211.021 10.5767 211.021 11.11ZM209.831 10.75C209.824 10.33 209.674 9.99333 209.381 9.74C209.087 9.48667 208.724 9.36 208.291 9.36C207.897 9.36 207.561 9.48667 207.281 9.74C207.001 9.98667 206.834 10.3233 206.781 10.75H209.831ZM213.473 9.42V12.47C213.473 12.6767 213.519 12.8267 213.613 12.92C213.713 13.0067 213.879 13.05 214.113 13.05H214.813V14H213.913C213.399 14 213.006 13.88 212.733 13.64C212.459 13.4 212.323 13.01 212.323 12.47V9.42H211.673V8.49H212.323V7.12H213.473V8.49H214.813V9.42H213.473ZM217.193 9.42V12.47C217.193 12.6767 217.24 12.8267 217.333 12.92C217.433 13.0067 217.6 13.05 217.833 13.05H218.533V14H217.633C217.12 14 216.727 13.88 216.453 13.64C216.18 13.4 216.043 13.01 216.043 12.47V9.42H215.393V8.49H216.043V7.12H217.193V8.49H218.533V9.42H217.193ZM220.164 7.76C219.957 7.76 219.784 7.69 219.644 7.55C219.504 7.41 219.434 7.23667 219.434 7.03C219.434 6.82333 219.504 6.65 219.644 6.51C219.784 6.37 219.957 6.3 220.164 6.3C220.364 6.3 220.534 6.37 220.674 6.51C220.814 6.65 220.884 6.82333 220.884 7.03C220.884 7.23667 220.814 7.41 220.674 7.55C220.534 7.69 220.364 7.76 220.164 7.76ZM220.724 8.49V14H219.584V8.49H220.724ZM225.001 8.4C225.434 8.4 225.821 8.49 226.161 8.67C226.507 8.85 226.777 9.11667 226.971 9.47C227.164 9.82333 227.261 10.25 227.261 10.75V14H226.131V10.92C226.131 10.4267 226.007 10.05 225.761 9.79C225.514 9.52333 225.177 9.39 224.751 9.39C224.324 9.39 223.984 9.52333 223.731 9.79C223.484 10.05 223.361 10.4267 223.361 10.92V14H222.221V8.49H223.361V9.12C223.547 8.89333 223.784 8.71667 224.071 8.59C224.364 8.46333 224.674 8.4 225.001 8.4ZM230.935 8.4C231.362 8.4 231.738 8.48667 232.065 8.66C232.398 8.82667 232.658 9.03667 232.845 9.29V8.49H233.995V14.09C233.995 14.5967 233.888 15.0467 233.675 15.44C233.462 15.84 233.152 16.1533 232.745 16.38C232.345 16.6067 231.865 16.72 231.305 16.72C230.558 16.72 229.938 16.5433 229.445 16.19C228.952 15.8433 228.672 15.37 228.605 14.77H229.735C229.822 15.0567 230.005 15.2867 230.285 15.46C230.572 15.64 230.912 15.73 231.305 15.73C231.765 15.73 232.135 15.59 232.415 15.31C232.702 15.03 232.845 14.6233 232.845 14.09V13.17C232.652 13.43 232.388 13.65 232.055 13.83C231.728 14.0033 231.355 14.09 230.935 14.09C230.455 14.09 230.015 13.97 229.615 13.73C229.222 13.4833 228.908 13.1433 228.675 12.71C228.448 12.27 228.335 11.7733 228.335 11.22C228.335 10.6667 228.448 10.1767 228.675 9.75C228.908 9.32333 229.222 8.99333 229.615 8.76C230.015 8.52 230.455 8.4 230.935 8.4ZM232.845 11.24C232.845 10.86 232.765 10.53 232.605 10.25C232.452 9.97 232.248 9.75667 231.995 9.61C231.742 9.46333 231.468 9.39 231.175 9.39C230.882 9.39 230.608 9.46333 230.355 9.61C230.102 9.75 229.895 9.96 229.735 10.24C229.582 10.5133 229.505 10.84 229.505 11.22C229.505 11.6 229.582 11.9333 229.735 12.22C229.895 12.5067 230.102 12.7267 230.355 12.88C230.615 13.0267 230.888 13.1 231.175 13.1C231.468 13.1 231.742 13.0267 231.995 12.88C232.248 12.7333 232.452 12.52 232.605 12.24C232.765 11.9533 232.845 11.62 232.845 11.24ZM237.492 14.09C237.059 14.09 236.669 14.0133 236.322 13.86C235.982 13.7 235.712 13.4867 235.512 13.22C235.312 12.9467 235.206 12.6433 235.192 12.31H236.372C236.392 12.5433 236.502 12.74 236.702 12.9C236.909 13.0533 237.166 13.13 237.472 13.13C237.792 13.13 238.039 13.07 238.212 12.95C238.392 12.8233 238.482 12.6633 238.482 12.47C238.482 12.2633 238.382 12.11 238.182 12.01C237.989 11.91 237.679 11.8 237.252 11.68C236.839 11.5667 236.502 11.4567 236.242 11.35C235.982 11.2433 235.756 11.08 235.562 10.86C235.376 10.64 235.282 10.35 235.282 9.99C235.282 9.69667 235.369 9.43 235.542 9.19C235.716 8.94333 235.962 8.75 236.282 8.61C236.609 8.47 236.982 8.4 237.402 8.4C238.029 8.4 238.532 8.56 238.912 8.88C239.299 9.19333 239.506 9.62333 239.532 10.17H238.392C238.372 9.92333 238.272 9.72667 238.092 9.58C237.912 9.43333 237.669 9.36 237.362 9.36C237.062 9.36 236.832 9.41667 236.672 9.53C236.512 9.64333 236.432 9.79333 236.432 9.98C236.432 10.1267 236.486 10.25 236.592 10.35C236.699 10.45 236.829 10.53 236.982 10.59C237.136 10.6433 237.362 10.7133 237.662 10.8C238.062 10.9067 238.389 11.0167 238.642 11.13C238.902 11.2367 239.126 11.3967 239.312 11.61C239.499 11.8233 239.596 12.1067 239.602 12.46C239.602 12.7733 239.516 13.0533 239.342 13.3C239.169 13.5467 238.922 13.74 238.602 13.88C238.289 14.02 237.919 14.09 237.492 14.09Z" fill="#A6A6A6"/>
<path fill-rule="evenodd" clip-rule="evenodd" d="M287.533 135.191H285.679C284.485 135.191 283.516 136.246 283.516 137.547V137.614C283.034 137.849 282.578 138.136 282.156 138.47L282.103 138.436C281.068 137.786 279.745 138.172 279.148 139.299L278.221 141.048C277.624 142.175 277.978 143.616 279.013 144.266L279.066 144.3C279.04 144.582 279.026 144.867 279.026 145.155C279.026 145.444 279.04 145.729 279.066 146.011L279.013 146.045C277.978 146.695 277.624 148.136 278.221 149.263L279.148 151.012C279.745 152.139 281.068 152.525 282.103 151.875L282.156 151.841C282.579 152.174 283.034 152.462 283.516 152.697V152.764C283.516 154.065 284.485 155.12 285.679 155.12H287.533C288.728 155.12 289.696 154.065 289.696 152.764V152.697C290.179 152.462 290.634 152.174 291.056 151.841L291.11 151.874C292.145 152.525 293.467 152.139 294.065 151.012L294.992 149.263C295.589 148.136 295.234 146.695 294.2 146.045L294.146 146.011C294.173 145.729 294.186 145.444 294.186 145.155C294.186 144.867 294.173 144.582 294.146 144.3L294.2 144.266C295.234 143.616 295.589 142.175 294.992 141.048L294.065 139.299C293.467 138.172 292.145 137.786 291.11 138.436L291.056 138.47C290.634 138.136 290.179 137.849 289.696 137.614V137.547C289.696 136.246 288.728 135.191 287.533 135.191ZM285.247 137.547C285.247 137.287 285.44 137.076 285.679 137.076H287.533C287.772 137.076 287.966 137.287 287.966 137.547V138.584C287.966 138.802 288.104 138.99 288.296 139.053C289.172 139.341 289.962 139.846 290.612 140.512C290.758 140.661 290.976 140.697 291.149 140.588L291.975 140.069C292.182 139.939 292.447 140.016 292.566 140.241L293.493 141.99C293.612 142.216 293.542 142.504 293.335 142.634L292.51 143.152C292.337 143.261 292.256 143.485 292.302 143.698C292.403 144.166 292.456 144.654 292.456 145.155C292.456 145.657 292.403 146.145 292.302 146.613C292.256 146.826 292.337 147.05 292.51 147.159L293.335 147.677C293.542 147.807 293.612 148.095 293.493 148.321L292.566 150.07C292.447 150.295 292.182 150.372 291.975 150.242L291.149 149.723C290.976 149.614 290.758 149.65 290.612 149.799C289.962 150.465 289.172 150.97 288.296 151.258C288.104 151.321 287.966 151.509 287.966 151.727V152.764C287.966 153.024 287.772 153.235 287.533 153.235H285.679C285.44 153.235 285.247 153.024 285.247 152.764V151.727C285.247 151.509 285.109 151.321 284.917 151.258C284.04 150.97 283.251 150.465 282.601 149.799C282.455 149.65 282.236 149.614 282.063 149.723L281.237 150.242C281.03 150.372 280.766 150.295 280.646 150.07L279.719 148.321C279.6 148.095 279.671 147.807 279.878 147.677L280.702 147.159C280.876 147.05 280.956 146.826 280.91 146.613C280.81 146.145 280.757 145.657 280.757 145.155C280.757 144.654 280.81 144.166 280.91 143.698C280.956 143.485 280.876 143.261 280.702 143.152L279.878 142.634C279.671 142.504 279.6 142.216 279.719 141.99L280.646 140.241C280.766 140.016 281.03 139.939 281.237 140.069L282.063 140.588C282.236 140.697 282.455 140.661 282.6 140.512C283.251 139.846 284.04 139.341 284.917 139.053C285.109 138.99 285.247 138.802 285.247 138.584V137.547ZM289.237 145.155C289.237 146.643 288.13 147.849 286.764 147.849C285.399 147.849 284.292 146.643 284.292 145.155C284.292 143.668 285.399 142.462 286.764 142.462C288.13 142.462 289.237 143.668 289.237 145.155ZM290.967 145.155C290.967 147.684 289.086 149.734 286.764 149.734C284.443 149.734 282.561 147.684 282.561 145.155C282.561 142.627 284.443 140.577 286.764 140.577C289.086 140.577 290.967 142.627 290.967 145.155Z" fill="white"/>
<path d="M52.082 117V176" stroke="#808080" stroke-width="1.00313"/>
<path d="M132.082 117V176" stroke="#808080" stroke-width="1.00313"/>
<path d="M122.533 146.882L64.0976 146.882" stroke="#3F4142" stroke-width="0.942509"/>
<path d="M212.082 117V176" stroke="#808080" stroke-width="1.00313"/>
<path d="M312.082 60L262.082 60" stroke="#808080" stroke-width="1.00313"/>
<path d="M312.082 3L262.082 3" stroke="#808080" stroke-width="1.00313"/>
<path d="M4.08203 117V176" stroke="#808080" stroke-width="1.00313"/>
<path d="M262.082 3L262.082 176" stroke="#808080" stroke-width="1.00313"/>
<path d="M312.082 3V118" stroke="#808080" stroke-width="1.00313"/>
<path d="M4.08203 176.502H282.864V175.498H4.08203V176.502ZM312.584 146.782V118H311.58V146.782H312.584ZM282.864 176.502C299.278 176.502 312.584 163.196 312.584 146.782H311.58C311.58 162.642 298.724 175.498 282.864 175.498V176.502Z" fill="#808080"/>
<path fill-rule="evenodd" clip-rule="evenodd" d="M9.52526 31.9082L9.58249 31.9666L9.63931 31.9078L10.4543 30.9098C10.2183 30.7018 9.91635 30.5713 9.58249 30.5713C9.24822 30.5713 8.94588 30.7018 8.7099 30.9098L9.52526 31.9082ZM7.51789 29.4501C8.09437 28.9444 8.81725 28.6671 9.58243 28.6671C10.3468 28.6671 11.0697 28.9444 11.6466 29.4501L12.1724 28.8062C11.4483 28.172 10.5417 27.8241 9.58243 27.8241C8.62274 27.8241 7.71572 28.172 6.99201 28.8062L7.51789 29.4505V29.4501ZM5.24878 26.672C6.45897 25.6125 7.97689 25.0333 9.58232 25.0333C11.1873 25.0333 12.7053 25.6125 13.9154 26.672L13.3879 27.3185C12.3245 26.387 10.9924 25.8763 9.58232 25.8763C8.17223 25.8763 6.83969 26.387 5.77632 27.3181L5.24878 26.672Z" fill="black"/>
<path d="M13.8283 42.5883L12.5151 44.5L13.8283 46.4118H17.505L18.8182 44.5L17.505 42.5883H13.8283Z" fill="#0F0F0F"/>
<path d="M22.495 42.5883L21.1819 44.5L22.495 46.4118H26.1718L27.4849 44.5L26.1718 42.5883H22.495Z" fill="#0F0F0F"/>
<path d="M21.9697 41.3137L21.9697 31.3529C21.9697 30.8006 21.522 30.3529 20.9697 30.3529L19.0303 30.3529C18.478 30.3529 18.0303 30.8006 18.0303 31.3529L18.0303 41.3137L20 42.5882L21.9697 41.3137Z" fill="#0F0F0F"/>
<path d="M18.0303 47.6863L18.0303 57.6471C18.0303 58.1994 18.478 58.6471 19.0303 58.6471L20.9697 58.6471C21.522 58.6471 21.9697 58.1994 21.9697 57.6471L21.9697 47.6863L20 46.4118L18.0303 47.6863Z" fill="#0F0F0F"/>
<path d="M24.3333 54.8235V48.3235L27.0908 52.147V58.647L24.3333 54.8235Z" fill="white"/>
<path d="M16.0605 54.8235V48.3235L13.303 52.147V58.647L16.0605 54.8235Z" fill="white"/>
<path d="M24.3333 34.9412V41.4412L27.0908 37.6176V31.1176L24.3333 34.9412Z" fill="#0F0F0F"/>
<path d="M16.0605 34.9412V41.4412L13.303 37.6176V31.1176L16.0605 34.9412Z" fill="#0F0F0F"/>
<rect x="33" y="30.3529" width="13" height="3.93939" transform="rotate(90 33 30.3529)" fill="white"/>
<path d="M29.1765 25C31.2881 25 33 26.7119 33 28.8235L29.0606 28.8235L29.0606 25L29.1765 25Z" fill="white"/>
<path d="M7 28.8235C7 26.7119 8.71185 25 10.8235 25H10.9394V28.8235H7Z" fill="white"/>
<path d="M10.8235 64C8.71185 64 7 62.2881 7 60.1765L10.9394 60.1765L10.9394 64L10.8235 64Z" fill="white"/>
<path d="M33 60.1765C33 62.2881 31.2881 64 29.1765 64L29.0606 64L29.0606 60.1765L33 60.1765Z" fill="white"/>
<rect x="33" y="44.8823" width="13.7647" height="3.93939" transform="rotate(90 33 44.8823)" fill="white"/>
<rect x="10.9395" y="30.3529" width="13" height="3.93939" transform="rotate(90 10.9395 30.3529)" fill="white"/>
<rect x="10.9395" y="44.8823" width="13.7647" height="3.93939" transform="rotate(90 10.9395 44.8823)" fill="white"/>
<rect x="27.4849" y="28.8235" width="14.9697" height="3.82353" transform="rotate(-180 27.4849 28.8235)" fill="#0F0F0F"/>
<rect x="27.4849" y="64" width="14.9697" height="3.82353" transform="rotate(-180 27.4849 64)" fill="#0F0F0F"/>
<path d="M43.8283 42.5883L42.5151 44.5L43.8283 46.4118H47.505L48.8182 44.5L47.505 42.5883H43.8283Z" fill="#0F0F0F"/>
<path d="M52.495 42.5883L51.1819 44.5L52.495 46.4118H56.1718L57.4849 44.5L56.1718 42.5883H52.495Z" fill="#0F0F0F"/>
<path d="M51.9697 41.3137L51.9697 31.3529C51.9697 30.8006 51.522 30.3529 50.9697 30.3529L49.0303 30.3529C48.478 30.3529 48.0303 30.8006 48.0303 31.3529L48.0303 41.3137L50 42.5882L51.9697 41.3137Z" fill="white"/>
<path d="M48.0303 47.6863L48.0303 57.6471C48.0303 58.1994 48.478 58.6471 49.0303 58.6471L50.9697 58.6471C51.522 58.6471 51.9697 58.1994 51.9697 57.6471L51.9697 47.6863L50 46.4118L48.0303 47.6863Z" fill="white"/>
<path d="M54.3333 54.8235V48.3235L57.0908 52.147V58.647L54.3333 54.8235Z" fill="#0F0F0F"/>
<path d="M46.0605 54.8235V48.3235L43.303 52.147V58.647L46.0605 54.8235Z" fill="#0F0F0F"/>
<path d="M54.3333 34.9412V41.4412L57.0908 37.6176V31.1176L54.3333 34.9412Z" fill="#0F0F0F"/>
<path d="M46.0605 34.9412V41.4412L43.303 37.6176V31.1176L46.0605 34.9412Z" fill="#0F0F0F"/>
<rect x="63" y="30.3529" width="13" height="3.93939" transform="rotate(90 63 30.3529)" fill="#0F0F0F"/>
<path d="M59.1765 25C61.2881 25 63 26.7119 63 28.8235L59.0606 28.8235L59.0606 25L59.1765 25Z" fill="#0F0F0F"/>
<path d="M37 28.8235C37 26.7119 38.7119 25 40.8235 25H40.9394V28.8235H37Z" fill="#0F0F0F"/>
<path d="M40.8235 64C38.7119 64 37 62.2881 37 60.1765L40.9394 60.1765L40.9394 64L40.8235 64Z" fill="#0F0F0F"/>
<path d="M63 60.1765C63 62.2881 61.2881 64 59.1765 64L59.0606 64L59.0606 60.1765L63 60.1765Z" fill="#0F0F0F"/>
<rect x="63" y="44.8823" width="13.7647" height="3.93939" transform="rotate(90 63 44.8823)" fill="#0F0F0F"/>
<rect x="40.9395" y="30.3529" width="13" height="3.93939" transform="rotate(90 40.9395 30.3529)" fill="#0F0F0F"/>
<rect x="40.9395" y="44.8823" width="13.7647" height="3.93939" transform="rotate(90 40.9395 44.8823)" fill="#0F0F0F"/>
<rect x="57.4849" y="28.8235" width="14.9697" height="3.82353" transform="rotate(-180 57.4849 28.8235)" fill="white"/>
<rect x="57.4849" y="64" width="14.9697" height="3.82353" transform="rotate(-180 57.4849 64)" fill="white"/>
<path d="M73.8283 42.5883L72.5151 44.5L73.8283 46.4118H77.505L78.8182 44.5L77.505 42.5883H73.8283Z" fill="white"/>
<path d="M82.495 42.5883L81.1819 44.5L82.495 46.4118H86.1718L87.4849 44.5L86.1718 42.5883H82.495Z" fill="#0F0F0F"/>
<path d="M81.9697 41.3137L81.9697 31.3529C81.9697 30.8006 81.522 30.3529 80.9697 30.3529L79.0303 30.3529C78.478 30.3529 78.0303 30.8006 78.0303 31.3529L78.0303 41.3137L80 42.5882L81.9697 41.3137Z" fill="#0F0F0F"/>
<path d="M78.0303 47.6863L78.0303 57.6471C78.0303 58.1994 78.478 58.6471 79.0303 58.6471L80.9697 58.6471C81.522 58.6471 81.9697 58.1994 81.9697 57.6471L81.9697 47.6863L80 46.4118L78.0303 47.6863Z" fill="#0F0F0F"/>
<path d="M84.3333 54.8235V48.3235L87.0908 52.147V58.647L84.3333 54.8235Z" fill="#0F0F0F"/>
<path d="M76.0605 54.8235V48.3235L73.303 52.147V58.647L76.0605 54.8235Z" fill="#0F0F0F"/>
<path d="M84.3333 34.9412V41.4412L87.0908 37.6176V31.1176L84.3333 34.9412Z" fill="#0F0F0F"/>
<path d="M76.0605 34.9412V41.4412L73.303 37.6176V31.1176L76.0605 34.9412Z" fill="#0F0F0F"/>
<rect x="93" y="30.3529" width="13" height="3.93939" transform="rotate(90 93 30.3529)" fill="#0F0F0F"/>
<path d="M89.1765 25C91.2881 25 93 26.7119 93 28.8235L89.0606 28.8235L89.0606 25L89.1765 25Z" fill="white"/>
<path d="M67 28.8235C67 26.7119 68.7119 25 70.8235 25H70.9394V28.8235H67Z" fill="white"/>
<path d="M70.8235 64C68.7119 64 67 62.2881 67 60.1765L70.9394 60.1765L70.9394 64L70.8235 64Z" fill="white"/>
<path d="M93 60.1765C93 62.2881 91.2881 64 89.1765 64L89.0606 64L89.0606 60.1765L93 60.1765Z" fill="#0F0F0F"/>
<rect x="93" y="44.8823" width="13.7647" height="3.93939" transform="rotate(90 93 44.8823)" fill="#0F0F0F"/>
<rect x="70.9395" y="30.3529" width="13" height="3.93939" transform="rotate(90 70.9395 30.3529)" fill="white"/>
<rect x="70.9395" y="44.8823" width="13.7647" height="3.93939" transform="rotate(90 70.9395 44.8823)" fill="white"/>
<rect x="87.4849" y="28.8235" width="14.9697" height="3.82353" transform="rotate(-180 87.4849 28.8235)" fill="white"/>
<rect x="87.4849" y="64" width="14.9697" height="3.82353" transform="rotate(-180 87.4849 64)" fill="#0F0F0F"/>
<path d="M103.828 42.5883L102.515 44.5L103.828 46.4118H107.505L108.818 44.5L107.505 42.5883H103.828Z" fill="#0F0F0F"/>
<path d="M112.495 42.5883L111.182 44.5L112.495 46.4118H116.172L117.485 44.5L116.172 42.5883H112.495Z" fill="#0F0F0F"/>
<path d="M111.97 41.3137L111.97 31.3529C111.97 30.8006 111.522 30.3529 110.97 30.3529L109.03 30.3529C108.478 30.3529 108.03 30.8006 108.03 31.3529L108.03 41.3137L110 42.5882L111.97 41.3137Z" fill="white"/>
<path d="M108.03 47.6863L108.03 57.6471C108.03 58.1994 108.478 58.6471 109.03 58.6471L110.97 58.6471C111.522 58.6471 111.97 58.1994 111.97 57.6471L111.97 47.6863L110 46.4118L108.03 47.6863Z" fill="white"/>
<path d="M114.333 54.8235V48.3235L117.091 52.147V58.647L114.333 54.8235Z" fill="#0F0F0F"/>
<path d="M106.061 54.8235V48.3235L103.303 52.147V58.647L106.061 54.8235Z" fill="#0F0F0F"/>
<path d="M114.333 34.9412V41.4412L117.091 37.6176V31.1176L114.333 34.9412Z" fill="#0F0F0F"/>
<path d="M106.061 34.9412V41.4412L103.303 37.6176V31.1176L106.061 34.9412Z" fill="#0F0F0F"/>
<rect x="123" y="30.3529" width="13" height="3.93939" transform="rotate(90 123 30.3529)" fill="#0F0F0F"/>
<path d="M119.176 25C121.288 25 123 26.7119 123 28.8235L119.061 28.8235L119.061 25L119.176 25Z" fill="#0F0F0F"/>
<path d="M97 28.8235C97 26.7119 98.7119 25 100.824 25H100.939V28.8235H97Z" fill="#0F0F0F"/>
<path d="M100.824 64C98.7119 64 97 62.2881 97 60.1765L100.939 60.1765L100.939 64L100.824 64Z" fill="#0F0F0F"/>
<path d="M123 60.1765C123 62.2881 121.288 64 119.176 64L119.061 64L119.061 60.1765L123 60.1765Z" fill="#0F0F0F"/>
<rect x="123" y="44.8823" width="13.7647" height="3.93939" transform="rotate(90 123 44.8823)" fill="#0F0F0F"/>
<rect x="100.939" y="30.3529" width="13" height="3.93939" transform="rotate(90 100.939 30.3529)" fill="#0F0F0F"/>
<rect x="100.939" y="44.8823" width="13.7647" height="3.93939" transform="rotate(90 100.939 44.8823)" fill="#0F0F0F"/>
<rect x="117.485" y="28.8235" width="14.9697" height="3.82353" transform="rotate(-180 117.485 28.8235)" fill="white"/>
<rect x="117.485" y="64" width="14.9697" height="3.82353" transform="rotate(-180 117.485 64)" fill="white"/>
<path d="M133.828 42.5883L132.515 44.5L133.828 46.4118H137.505L138.818 44.5L137.505 42.5883H133.828Z" fill="#0F0F0F"/>
<path d="M142.495 42.5883L141.182 44.5L142.495 46.4118H146.172L147.485 44.5L146.172 42.5883H142.495Z" fill="#0F0F0F"/>
<path d="M141.97 41.3137L141.97 31.3529C141.97 30.8006 141.522 30.3529 140.97 30.3529L139.03 30.3529C138.478 30.3529 138.03 30.8006 138.03 31.3529L138.03 41.3137L140 42.5882L141.97 41.3137Z" fill="#0F0F0F"/>
<path d="M138.03 47.6863L138.03 57.6471C138.03 58.1994 138.478 58.6471 139.03 58.6471L140.97 58.6471C141.522 58.6471 141.97 58.1994 141.97 57.6471L141.97 47.6863L140 46.4118L138.03 47.6863Z" fill="#0F0F0F"/>
<path d="M144.333 54.8235V48.3235L147.091 52.147V58.647L144.333 54.8235Z" fill="#0F0F0F"/>
<path d="M136.061 54.8235V48.3235L133.303 52.147V58.647L136.061 54.8235Z" fill="#0F0F0F"/>
<path d="M144.333 34.9412V41.4412L147.091 37.6176V31.1176L144.333 34.9412Z" fill="#0F0F0F"/>
<path d="M136.061 34.9412V41.4412L133.303 37.6176V31.1176L136.061 34.9412Z" fill="#0F0F0F"/>
<rect x="153" y="30.3529" width="13" height="3.93939" transform="rotate(90 153 30.3529)" fill="#0F0F0F"/>
<path d="M149.176 25C151.288 25 153 26.7119 153 28.8235L149.061 28.8235L149.061 25L149.176 25Z" fill="#0F0F0F"/>
<path d="M127 28.8235C127 26.7119 128.712 25 130.824 25H130.939V28.8235H127Z" fill="#0F0F0F"/>
<path d="M130.824 64C128.712 64 127 62.2881 127 60.1765L130.939 60.1765L130.939 64L130.824 64Z" fill="#0F0F0F"/>
<path d="M153 60.1765C153 62.2881 151.288 64 149.176 64L149.061 64L149.061 60.1765L153 60.1765Z" fill="#0F0F0F"/>
<rect x="153" y="44.8823" width="13.7647" height="3.93939" transform="rotate(90 153 44.8823)" fill="#0F0F0F"/>
<rect x="130.939" y="30.3529" width="13" height="3.93939" transform="rotate(90 130.939 30.3529)" fill="#0F0F0F"/>
<rect x="130.939" y="44.8823" width="13.7647" height="3.93939" transform="rotate(90 130.939 44.8823)" fill="#0F0F0F"/>
<rect x="147.485" y="28.8235" width="14.9697" height="3.82353" transform="rotate(-180 147.485 28.8235)" fill="#0F0F0F"/>
<rect x="147.485" y="64" width="14.9697" height="3.82353" transform="rotate(-180 147.485 64)" fill="#0F0F0F"/>
<path d="M163.828 42.5883L162.515 44.5L163.828 46.4118H167.505L168.818 44.5L167.505 42.5883H163.828Z" fill="#0F0F0F"/>
<path d="M172.495 42.5883L171.182 44.5L172.495 46.4118H176.172L177.485 44.5L176.172 42.5883H172.495Z" fill="#0F0F0F"/>
<path d="M171.97 41.3137L171.97 31.3529C171.97 30.8006 171.522 30.3529 170.97 30.3529L169.03 30.3529C168.478 30.3529 168.03 30.8006 168.03 31.3529L168.03 41.3137L170 42.5882L171.97 41.3137Z" fill="#0F0F0F"/>
<path d="M168.03 47.6863L168.03 57.6471C168.03 58.1994 168.478 58.6471 169.03 58.6471L170.97 58.6471C171.522 58.6471 171.97 58.1994 171.97 57.6471L171.97 47.6863L170 46.4118L168.03 47.6863Z" fill="#0F0F0F"/>
<path d="M174.333 54.8235V48.3235L177.091 52.147V58.647L174.333 54.8235Z" fill="#0F0F0F"/>
<path d="M166.061 54.8235V48.3235L163.303 52.147V58.647L166.061 54.8235Z" fill="#0F0F0F"/>
<path d="M174.333 34.9412V41.4412L177.091 37.6176V31.1176L174.333 34.9412Z" fill="#0F0F0F"/>
<path d="M166.061 34.9412V41.4412L163.303 37.6176V31.1176L166.061 34.9412Z" fill="#0F0F0F"/>
<rect x="183" y="30.3529" width="13" height="3.93939" transform="rotate(90 183 30.3529)" fill="#0F0F0F"/>
<path d="M179.176 25C181.288 25 183 26.7119 183 28.8235L179.061 28.8235L179.061 25L179.176 25Z" fill="#0F0F0F"/>
<path d="M157 28.8235C157 26.7119 158.712 25 160.824 25H160.939V28.8235H157Z" fill="#0F0F0F"/>
<path d="M160.824 64C158.712 64 157 62.2881 157 60.1765L160.939 60.1765L160.939 64L160.824 64Z" fill="#0F0F0F"/>
<path d="M183 60.1765C183 62.2881 181.288 64 179.176 64L179.061 64L179.061 60.1765L183 60.1765Z" fill="#0F0F0F"/>
<rect x="183" y="44.8823" width="13.7647" height="3.93939" transform="rotate(90 183 44.8823)" fill="#0F0F0F"/>
<rect x="160.939" y="30.3529" width="13" height="3.93939" transform="rotate(90 160.939 30.3529)" fill="#0F0F0F"/>
<rect x="160.939" y="44.8823" width="13.7647" height="3.93939" transform="rotate(90 160.939 44.8823)" fill="#0F0F0F"/>
<rect x="177.485" y="28.8235" width="14.9697" height="3.82353" transform="rotate(-180 177.485 28.8235)" fill="#0F0F0F"/>
<rect x="177.485" y="64" width="14.9697" height="3.82353" transform="rotate(-180 177.485 64)" fill="#0F0F0F"/>
<path d="M193.828 42.5883L192.515 44.5L193.828 46.4118H197.505L198.818 44.5L197.505 42.5883H193.828Z" fill="#0F0F0F"/>
<path d="M202.495 42.5883L201.182 44.5L202.495 46.4118H206.172L207.485 44.5L206.172 42.5883H202.495Z" fill="#0F0F0F"/>
<path d="M201.97 41.3137L201.97 31.3529C201.97 30.8006 201.522 30.3529 200.97 30.3529L199.03 30.3529C198.478 30.3529 198.03 30.8006 198.03 31.3529L198.03 41.3137L200 42.5882L201.97 41.3137Z" fill="#0F0F0F"/>
<path d="M198.03 47.6863L198.03 57.6471C198.03 58.1994 198.478 58.6471 199.03 58.6471L200.97 58.6471C201.522 58.6471 201.97 58.1994 201.97 57.6471L201.97 47.6863L200 46.4118L198.03 47.6863Z" fill="#0F0F0F"/>
<path d="M204.333 54.8235V48.3235L207.091 52.147V58.647L204.333 54.8235Z" fill="#0F0F0F"/>
<path d="M196.061 54.8235V48.3235L193.303 52.147V58.647L196.061 54.8235Z" fill="#0F0F0F"/>
<path d="M204.333 34.9412V41.4412L207.091 37.6176V31.1176L204.333 34.9412Z" fill="#0F0F0F"/>
<path d="M196.061 34.9412V41.4412L193.303 37.6176V31.1176L196.061 34.9412Z" fill="#0F0F0F"/>
<rect x="213" y="30.3529" width="13" height="3.93939" transform="rotate(90 213 30.3529)" fill="#0F0F0F"/>
<path d="M209.176 25C211.288 25 213 26.7119 213 28.8235L209.061 28.8235L209.061 25L209.176 25Z" fill="#0F0F0F"/>
<path d="M187 28.8235C187 26.7119 188.712 25 190.824 25H190.939V28.8235H187Z" fill="#0F0F0F"/>
<path d="M190.824 64C188.712 64 187 62.2881 187 60.1765L190.939 60.1765L190.939 64L190.824 64Z" fill="#0F0F0F"/>
<path d="M213 60.1765C213 62.2881 211.288 64 209.176 64L209.061 64L209.061 60.1765L213 60.1765Z" fill="#0F0F0F"/>
<rect x="213" y="44.8823" width="13.7647" height="3.93939" transform="rotate(90 213 44.8823)" fill="#0F0F0F"/>
<rect x="190.939" y="30.3529" width="13" height="3.93939" transform="rotate(90 190.939 30.3529)" fill="#0F0F0F"/>
<rect x="190.939" y="44.8823" width="13.7647" height="3.93939" transform="rotate(90 190.939 44.8823)" fill="#0F0F0F"/>
<rect x="207.485" y="28.8235" width="14.9697" height="3.82353" transform="rotate(-180 207.485 28.8235)" fill="#0F0F0F"/>
<rect x="207.485" y="64" width="14.9697" height="3.82353" transform="rotate(-180 207.485 64)" fill="#0F0F0F"/>
<path d="M223.828 42.5883L222.515 44.5L223.828 46.4118H227.505L228.818 44.5L227.505 42.5883H223.828Z" fill="#0F0F0F"/>
<path d="M232.495 42.5883L231.182 44.5L232.495 46.4118H236.172L237.485 44.5L236.172 42.5883H232.495Z" fill="#0F0F0F"/>
<path d="M231.97 41.3137L231.97 31.3529C231.97 30.8006 231.522 30.3529 230.97 30.3529L229.03 30.3529C228.478 30.3529 228.03 30.8006 228.03 31.3529L228.03 41.3137L230 42.5882L231.97 41.3137Z" fill="#0F0F0F"/>
<path d="M228.03 47.6863L228.03 57.6471C228.03 58.1994 228.478 58.6471 229.03 58.6471L230.97 58.6471C231.522 58.6471 231.97 58.1994 231.97 57.6471L231.97 47.6863L230 46.4118L228.03 47.6863Z" fill="#0F0F0F"/>
<path d="M234.333 54.8235V48.3235L237.091 52.147V58.647L234.333 54.8235Z" fill="#0F0F0F"/>
<path d="M226.061 54.8235V48.3235L223.303 52.147V58.647L226.061 54.8235Z" fill="#0F0F0F"/>
<path d="M234.333 34.9412V41.4412L237.091 37.6176V31.1176L234.333 34.9412Z" fill="#0F0F0F"/>
<path d="M226.061 34.9412V41.4412L223.303 37.6176V31.1176L226.061 34.9412Z" fill="#0F0F0F"/>
<rect x="243" y="30.3529" width="13" height="3.93939" transform="rotate(90 243 30.3529)" fill="#0F0F0F"/>
<path d="M239.176 25C241.288 25 243 26.7119 243 28.8235L239.061 28.8235L239.061 25L239.176 25Z" fill="#0F0F0F"/>
<path d="M217 28.8235C217 26.7119 218.712 25 220.824 25H220.939V28.8235H217Z" fill="#0F0F0F"/>
<path d="M220.824 64C218.712 64 217 62.2881 217 60.1765L220.939 60.1765L220.939 64L220.824 64Z" fill="#0F0F0F"/>
<path d="M243 60.1765C243 62.2881 241.288 64 239.176 64L239.061 64L239.061 60.1765L243 60.1765Z" fill="#0F0F0F"/>
<rect x="243" y="44.8823" width="13.7647" height="3.93939" transform="rotate(90 243 44.8823)" fill="#0F0F0F"/>
<rect x="220.939" y="30.3529" width="13" height="3.93939" transform="rotate(90 220.939 30.3529)" fill="#0F0F0F"/>
<rect x="220.939" y="44.8823" width="13.7647" height="3.93939" transform="rotate(90 220.939 44.8823)" fill="#0F0F0F"/>
<rect x="237.485" y="28.8235" width="14.9697" height="3.82353" transform="rotate(-180 237.485 28.8235)" fill="#0F0F0F"/>
<rect x="237.485" y="64" width="14.9697" height="3.82353" transform="rotate(-180 237.485 64)" fill="#0F0F0F"/>
</svg>
