<svg width="375" height="232" viewBox="0 0 375 232" fill="none" xmlns="http://www.w3.org/2000/svg">
    <rect x="33" y="32" width="309" height="167" rx="1" stroke="white" stroke-width="2"/>
    <path opacity="0.25" d="M74.462 112.368C74.462 112.853 74.3453 113.306 74.112 113.726C73.8787 114.137 73.524 114.468 73.048 114.72C72.572 114.972 71.9887 115.098 71.298 115.098C70.626 115.098 70.024 114.981 69.492 114.748C68.96 114.505 68.5353 114.169 68.218 113.74C67.9007 113.311 67.7187 112.816 67.672 112.256H69.38C69.4267 112.685 69.6087 113.054 69.926 113.362C70.2527 113.67 70.6867 113.824 71.228 113.824C71.7133 113.824 72.0867 113.693 72.348 113.432C72.6187 113.171 72.754 112.835 72.754 112.424C72.754 112.069 72.656 111.78 72.46 111.556C72.264 111.323 72.0213 111.141 71.732 111.01C71.4427 110.879 71.046 110.73 70.542 110.562C69.926 110.366 69.422 110.17 69.03 109.974C68.6473 109.778 68.3207 109.493 68.05 109.12C67.7793 108.747 67.644 108.257 67.644 107.65C67.644 107.118 67.7747 106.651 68.036 106.25C68.2973 105.849 68.6707 105.541 69.156 105.326C69.6413 105.102 70.2013 104.99 70.836 104.99C71.844 104.99 72.642 105.233 73.23 105.718C73.8273 106.203 74.168 106.838 74.252 107.622H72.53C72.4647 107.249 72.2873 106.931 71.998 106.67C71.718 106.399 71.3307 106.264 70.836 106.264C70.388 106.264 70.0287 106.381 69.758 106.614C69.4873 106.838 69.352 107.165 69.352 107.594C69.352 107.93 69.4453 108.21 69.632 108.434C69.8187 108.649 70.052 108.821 70.332 108.952C70.6213 109.073 71.0133 109.218 71.508 109.386C72.1333 109.582 72.642 109.783 73.034 109.988C73.4353 110.184 73.7713 110.473 74.042 110.856C74.322 111.239 74.462 111.743 74.462 112.368ZM82.8358 112.368C82.8358 112.853 82.7191 113.306 82.4857 113.726C82.2524 114.137 81.8977 114.468 81.4217 114.72C80.9457 114.972 80.3624 115.098 79.6717 115.098C78.9997 115.098 78.3977 114.981 77.8657 114.748C77.3337 114.505 76.9091 114.169 76.5917 113.74C76.2744 113.311 76.0924 112.816 76.0457 112.256H77.7537C77.8004 112.685 77.9824 113.054 78.2997 113.362C78.6264 113.67 79.0604 113.824 79.6017 113.824C80.0871 113.824 80.4604 113.693 80.7218 113.432C80.9924 113.171 81.1277 112.835 81.1277 112.424C81.1277 112.069 81.0297 111.78 80.8337 111.556C80.6377 111.323 80.3951 111.141 80.1058 111.01C79.8164 110.879 79.4197 110.73 78.9158 110.562C78.2997 110.366 77.7957 110.17 77.4037 109.974C77.0211 109.778 76.6944 109.493 76.4237 109.12C76.1531 108.747 76.0177 108.257 76.0177 107.65C76.0177 107.118 76.1484 106.651 76.4097 106.25C76.6711 105.849 77.0444 105.541 77.5297 105.326C78.0151 105.102 78.5751 104.99 79.2097 104.99C80.2178 104.99 81.0158 105.233 81.6038 105.718C82.2011 106.203 82.5417 106.838 82.6257 107.622H80.9037C80.8384 107.249 80.6611 106.931 80.3718 106.67C80.0918 106.399 79.7044 106.264 79.2097 106.264C78.7617 106.264 78.4024 106.381 78.1317 106.614C77.8611 106.838 77.7257 107.165 77.7257 107.594C77.7257 107.93 77.8191 108.21 78.0057 108.434C78.1924 108.649 78.4257 108.821 78.7057 108.952C78.9951 109.073 79.3871 109.218 79.8818 109.386C80.5071 109.582 81.0158 109.783 81.4078 109.988C81.8091 110.184 82.1451 110.473 82.4158 110.856C82.6958 111.239 82.8358 111.743 82.8358 112.368ZM86.3095 105.116V115H84.7135V105.116H86.3095ZM97.0048 110.044C97.0048 111.043 96.7995 111.915 96.3888 112.662C95.9875 113.399 95.3948 113.973 94.6108 114.384C93.8362 114.795 92.9075 115 91.8248 115H88.5208V105.116H91.8248C92.9075 105.116 93.8362 105.321 94.6108 105.732C95.3948 106.133 95.9875 106.703 96.3888 107.44C96.7995 108.177 97.0048 109.045 97.0048 110.044ZM91.6988 113.558C92.8842 113.558 93.7942 113.25 94.4288 112.634C95.0635 112.018 95.3808 111.155 95.3808 110.044C95.3808 108.933 95.0635 108.07 94.4288 107.454C93.7942 106.838 92.8842 106.53 91.6988 106.53H90.1168V113.558H91.6988Z" fill="white"/>
    <path opacity="0.25" d="M171.488 105.032C172.664 105.032 173.644 105.321 174.428 105.9C175.212 106.479 175.73 107.267 175.982 108.266H174.302C174.087 107.734 173.733 107.309 173.238 106.992C172.753 106.675 172.174 106.516 171.502 106.516C170.886 106.516 170.331 106.661 169.836 106.95C169.351 107.239 168.968 107.65 168.688 108.182C168.417 108.714 168.282 109.339 168.282 110.058C168.282 110.814 168.422 111.463 168.702 112.004C168.982 112.545 169.374 112.961 169.878 113.25C170.391 113.53 170.984 113.67 171.656 113.67C172.477 113.67 173.182 113.418 173.77 112.914C174.358 112.401 174.713 111.701 174.834 110.814H171.208V109.638H176.178V111.164C176.066 111.892 175.805 112.555 175.394 113.152C174.993 113.74 174.456 114.211 173.784 114.566C173.121 114.921 172.361 115.098 171.502 115.098C170.541 115.098 169.691 114.883 168.954 114.454C168.217 114.025 167.647 113.432 167.246 112.676C166.845 111.911 166.644 111.038 166.644 110.058C166.644 109.078 166.845 108.21 167.246 107.454C167.647 106.689 168.212 106.096 168.94 105.676C169.677 105.247 170.527 105.032 171.488 105.032ZM179.67 106.404V109.4H183.31V110.632H179.67V113.698H183.73V115H178.074V105.116H183.73V106.404H179.67ZM193.021 115.504V117.058H185.209V115.504H193.021ZM205.07 105.27V115H203.46V107.706L200.646 115H199.246L196.418 107.706V115H194.822V105.27H196.754L199.974 113.04L203.138 105.27H205.07ZM211.848 104.99C212.762 104.99 213.588 105.205 214.326 105.634C215.072 106.063 215.656 106.665 216.076 107.44C216.505 108.205 216.72 109.073 216.72 110.044C216.72 111.015 216.505 111.887 216.076 112.662C215.656 113.427 215.072 114.029 214.326 114.468C213.588 114.897 212.762 115.112 211.848 115.112C210.924 115.112 210.088 114.897 209.342 114.468C208.604 114.029 208.021 113.427 207.592 112.662C207.162 111.887 206.948 111.015 206.948 110.044C206.948 109.073 207.162 108.205 207.592 107.44C208.021 106.665 208.604 106.063 209.342 105.634C210.088 105.205 210.924 104.99 211.848 104.99ZM211.848 106.474C211.213 106.474 210.648 106.619 210.154 106.908C209.659 107.197 209.272 107.613 208.992 108.154C208.721 108.695 208.586 109.325 208.586 110.044C208.586 110.763 208.721 111.393 208.992 111.934C209.272 112.475 209.659 112.891 210.154 113.18C210.648 113.469 211.213 113.614 211.848 113.614C212.473 113.614 213.028 113.469 213.514 113.18C214.008 112.891 214.391 112.475 214.662 111.934C214.942 111.393 215.082 110.763 215.082 110.044C215.082 109.325 214.942 108.695 214.662 108.154C214.391 107.613 214.008 107.197 213.514 106.908C213.028 106.619 212.473 106.474 211.848 106.474ZM227.094 110.044C227.094 111.043 226.889 111.915 226.478 112.662C226.077 113.399 225.484 113.973 224.7 114.384C223.925 114.795 222.997 115 221.914 115H218.61V105.116H221.914C222.997 105.116 223.925 105.321 224.7 105.732C225.484 106.133 226.077 106.703 226.478 107.44C226.889 108.177 227.094 109.045 227.094 110.044ZM221.788 113.558C222.973 113.558 223.883 113.25 224.518 112.634C225.153 112.018 225.47 111.155 225.47 110.044C225.47 108.933 225.153 108.07 224.518 107.454C223.883 106.838 222.973 106.53 221.788 106.53H220.206V113.558H221.788ZM230.506 105.116V110.982C230.506 111.859 230.697 112.513 231.08 112.942C231.472 113.371 232.018 113.586 232.718 113.586C233.409 113.586 233.945 113.371 234.328 112.942C234.72 112.513 234.916 111.859 234.916 110.982V105.116H236.512V110.982C236.512 112.335 236.162 113.362 235.462 114.062C234.762 114.753 233.838 115.098 232.69 115.098C231.551 115.098 230.637 114.753 229.946 114.062C229.255 113.362 228.91 112.335 228.91 110.982V105.116H230.506ZM240.249 113.754H243.665V115H238.653V105.116H240.249V113.754ZM246.79 106.404V109.4H250.43V110.632H246.79V113.698H250.85V115H245.194V105.116H250.85V106.404H246.79ZM260.141 115.504V117.058H252.329V115.504H260.141ZM267.584 115L265.218 111.346L263.104 115H261.27L264.336 109.96L261.2 105.116H263.104L265.428 108.7L267.528 105.116H269.362L266.31 110.072L269.488 115H267.584ZM276.6 115L274.234 111.346L272.12 115H270.286L273.352 109.96L270.216 105.116H272.12L274.444 108.7L276.544 105.116H278.378L275.326 110.072L278.504 115H276.6ZM285.616 115L283.25 111.346L281.136 115H279.302L282.368 109.96L279.232 105.116H281.136L283.46 108.7L285.56 105.116H287.394L284.342 110.072L287.52 115H285.616ZM294.633 115L292.267 111.346L290.153 115H288.319L291.385 109.96L288.249 105.116H290.153L292.477 108.7L294.577 105.116H296.411L293.359 110.072L296.537 115H294.633Z" fill="white"/>
    <path opacity="0.25" d="M80.482 77.116L78.018 87H76.058L73.972 79.356L71.886 87H69.926L67.462 77.116H69.212L70.92 85.152L73.09 77.116H74.854L77.024 85.152L78.732 77.116H80.482ZM83.7873 77.116V87H82.1913V77.116H83.7873ZM90.6747 81.26V82.604H84.9067V81.26H90.6747ZM99.1987 77.116V78.404H94.9567V81.47H98.4567V82.702H94.9567V87H93.3607V77.116H99.1987ZM102.496 77.116V87H100.9V77.116H102.496Z" fill="white"/>
    <path opacity="0.25" d="M171.544 76.99C172.459 76.99 173.285 77.2047 174.022 77.634C174.769 78.0633 175.352 78.6653 175.772 79.44C176.201 80.2053 176.416 81.0733 176.416 82.044C176.416 83.0147 176.201 83.8873 175.772 84.662C175.352 85.4273 174.769 86.0293 174.022 86.468C173.285 86.8973 172.459 87.112 171.544 87.112C170.62 87.112 169.785 86.8973 169.038 86.468C168.301 86.0293 167.717 85.4273 167.288 84.662C166.859 83.8873 166.644 83.0147 166.644 82.044C166.644 81.0733 166.859 80.2053 167.288 79.44C167.717 78.6653 168.301 78.0633 169.038 77.634C169.785 77.2047 170.62 76.99 171.544 76.99ZM171.544 78.474C170.909 78.474 170.345 78.6187 169.85 78.908C169.355 79.1973 168.968 79.6127 168.688 80.154C168.417 80.6953 168.282 81.3253 168.282 82.044C168.282 82.7627 168.417 83.3927 168.688 83.934C168.968 84.4753 169.355 84.8907 169.85 85.18C170.345 85.4693 170.909 85.614 171.544 85.614C172.169 85.614 172.725 85.4693 173.21 85.18C173.705 84.8907 174.087 84.4753 174.358 83.934C174.638 83.3927 174.778 82.7627 174.778 82.044C174.778 81.3253 174.638 80.6953 174.358 80.154C174.087 79.6127 173.705 79.1973 173.21 78.908C172.725 78.6187 172.169 78.474 171.544 78.474ZM186.301 87H184.705L179.903 79.706V87H178.307V77.13H179.903L184.705 84.452V77.13H186.301V87Z" fill="white"/>
    <g opacity="0.25">
        <circle cx="220" cy="82" r="5" fill="white"/>
        <path d="M206.5 82.5H221.5" stroke="white" stroke-width="2" stroke-linecap="round"/>
    </g>
    <path d="M152.654 43.116L150.19 53H148.23L146.144 45.356L144.058 53H142.098L139.634 43.116H141.384L143.092 51.152L145.262 43.116H147.026L149.196 51.152L150.904 43.116H152.654ZM155.959 43.116V53H154.363V43.116H155.959ZM162.846 47.26V48.604H157.078V47.26H162.846ZM171.37 43.116V44.404H167.128V47.47H170.628V48.702H167.128V53H165.532V43.116H171.37ZM174.668 43.116V53H173.072V43.116H174.668ZM186.937 50.368C186.937 50.8533 186.82 51.306 186.587 51.726C186.353 52.1367 185.999 52.468 185.523 52.72C185.047 52.972 184.463 53.098 183.773 53.098C183.101 53.098 182.499 52.9813 181.967 52.748C181.435 52.5053 181.01 52.1693 180.693 51.74C180.375 51.3107 180.193 50.816 180.147 50.256H181.855C181.901 50.6853 182.083 51.054 182.401 51.362C182.727 51.67 183.161 51.824 183.703 51.824C184.188 51.824 184.561 51.6933 184.823 51.432C185.093 51.1707 185.229 50.8347 185.229 50.424C185.229 50.0693 185.131 49.78 184.935 49.556C184.739 49.3227 184.496 49.1407 184.207 49.01C183.917 48.8793 183.521 48.73 183.017 48.562C182.401 48.366 181.897 48.17 181.505 47.974C181.122 47.778 180.795 47.4933 180.525 47.12C180.254 46.7467 180.119 46.2567 180.119 45.65C180.119 45.118 180.249 44.6513 180.511 44.25C180.772 43.8487 181.145 43.5407 181.631 43.326C182.116 43.102 182.676 42.99 183.311 42.99C184.319 42.99 185.117 43.2327 185.705 43.718C186.302 44.2033 186.643 44.838 186.727 45.622H185.005C184.939 45.2487 184.762 44.9313 184.473 44.67C184.193 44.3993 183.805 44.264 183.311 44.264C182.863 44.264 182.503 44.3807 182.233 44.614C181.962 44.838 181.827 45.1647 181.827 45.594C181.827 45.93 181.92 46.21 182.107 46.434C182.293 46.6487 182.527 46.8213 182.807 46.952C183.096 47.0733 183.488 47.218 183.983 47.386C184.608 47.582 185.117 47.7827 185.509 47.988C185.91 48.184 186.246 48.4733 186.517 48.856C186.797 49.2387 186.937 49.7427 186.937 50.368ZM190.41 44.404V47.4H194.05V48.632H190.41V51.698H194.47V53H188.814V43.116H194.47V44.404H190.41ZM202.655 43.116V44.404H199.897V53H198.287V44.404H195.543V43.116H202.655ZM210.482 43.116V44.404H207.724V53H206.114V44.404H203.37V43.116H210.482ZM213.549 43.116V53H211.953V43.116H213.549ZM223.755 53H222.159L217.357 45.706V53H215.761V43.13H217.357L222.159 50.452V43.13H223.755V53ZM230.488 43.032C231.664 43.032 232.644 43.3213 233.428 43.9C234.212 44.4787 234.73 45.2673 234.982 46.266H233.302C233.088 45.734 232.733 45.3093 232.238 44.992C231.753 44.6747 231.174 44.516 230.502 44.516C229.886 44.516 229.331 44.6607 228.836 44.95C228.351 45.2393 227.968 45.65 227.688 46.182C227.418 46.714 227.282 47.3393 227.282 48.058C227.282 48.814 227.422 49.4627 227.702 50.004C227.982 50.5453 228.374 50.9607 228.878 51.25C229.392 51.53 229.984 51.67 230.656 51.67C231.478 51.67 232.182 51.418 232.77 50.914C233.358 50.4007 233.713 49.7007 233.834 48.814H230.208V47.638H235.178V49.164C235.066 49.892 234.805 50.5547 234.394 51.152C233.993 51.74 233.456 52.2113 232.784 52.566C232.122 52.9207 231.361 53.098 230.502 53.098C229.541 53.098 228.692 52.8833 227.954 52.454C227.217 52.0247 226.648 51.432 226.246 50.676C225.845 49.9107 225.644 49.038 225.644 48.058C225.644 47.078 225.845 46.21 226.246 45.454C226.648 44.6887 227.212 44.096 227.94 43.676C228.678 43.2467 229.527 43.032 230.488 43.032Z" fill="white"/>
    <path d="M69.562 139.164V143H67.966V133.116H71.326C72.4647 133.116 73.3187 133.387 73.888 133.928C74.4667 134.469 74.756 135.211 74.756 136.154C74.756 137.087 74.462 137.825 73.874 138.366C73.286 138.898 72.4367 139.164 71.326 139.164H69.562ZM71.158 137.862C72.474 137.862 73.132 137.293 73.132 136.154C73.132 135.594 72.9733 135.169 72.656 134.88C72.348 134.581 71.8487 134.432 71.158 134.432H69.562V137.862H71.158ZM82.3295 140.858H78.1575L77.4015 143H75.6935L79.3335 133.27H81.1675L84.7935 143H83.0855L82.3295 140.858ZM81.8815 139.626L80.2435 135.006L78.6055 139.626H81.8815ZM92.7544 140.368C92.7544 140.853 92.6378 141.306 92.4044 141.726C92.1711 142.137 91.8164 142.468 91.3404 142.72C90.8644 142.972 90.2811 143.098 89.5904 143.098C88.9184 143.098 88.3164 142.981 87.7844 142.748C87.2524 142.505 86.8278 142.169 86.5104 141.74C86.1931 141.311 86.0111 140.816 85.9644 140.256H87.6724C87.7191 140.685 87.9011 141.054 88.2184 141.362C88.5451 141.67 88.9791 141.824 89.5204 141.824C90.0058 141.824 90.3791 141.693 90.6404 141.432C90.9111 141.171 91.0464 140.835 91.0464 140.424C91.0464 140.069 90.9484 139.78 90.7524 139.556C90.5564 139.323 90.3138 139.141 90.0244 139.01C89.7351 138.879 89.3384 138.73 88.8344 138.562C88.2184 138.366 87.7144 138.17 87.3224 137.974C86.9398 137.778 86.6131 137.493 86.3424 137.12C86.0718 136.747 85.9364 136.257 85.9364 135.65C85.9364 135.118 86.0671 134.651 86.3284 134.25C86.5898 133.849 86.9631 133.541 87.4484 133.326C87.9338 133.102 88.4938 132.99 89.1284 132.99C90.1364 132.99 90.9344 133.233 91.5224 133.718C92.1198 134.203 92.4604 134.838 92.5444 135.622H90.8224C90.7571 135.249 90.5798 134.931 90.2904 134.67C90.0104 134.399 89.6231 134.264 89.1284 134.264C88.6804 134.264 88.3211 134.381 88.0504 134.614C87.7798 134.838 87.6444 135.165 87.6444 135.594C87.6444 135.93 87.7378 136.21 87.9244 136.434C88.1111 136.649 88.3444 136.821 88.6244 136.952C88.9138 137.073 89.3058 137.218 89.8004 137.386C90.4258 137.582 90.9344 137.783 91.3264 137.988C91.7278 138.184 92.0638 138.473 92.3344 138.856C92.6144 139.239 92.7544 139.743 92.7544 140.368ZM101.128 140.368C101.128 140.853 101.012 141.306 100.778 141.726C100.545 142.137 100.19 142.468 99.7142 142.72C99.2382 142.972 98.6548 143.098 97.9642 143.098C97.2922 143.098 96.6902 142.981 96.1582 142.748C95.6262 142.505 95.2015 142.169 94.8842 141.74C94.5668 141.311 94.3848 140.816 94.3382 140.256H96.0462C96.0928 140.685 96.2748 141.054 96.5922 141.362C96.9188 141.67 97.3528 141.824 97.8942 141.824C98.3795 141.824 98.7528 141.693 99.0142 141.432C99.2848 141.171 99.4202 140.835 99.4202 140.424C99.4202 140.069 99.3222 139.78 99.1262 139.556C98.9302 139.323 98.6875 139.141 98.3982 139.01C98.1088 138.879 97.7122 138.73 97.2082 138.562C96.5922 138.366 96.0882 138.17 95.6962 137.974C95.3135 137.778 94.9868 137.493 94.7162 137.12C94.4455 136.747 94.3102 136.257 94.3102 135.65C94.3102 135.118 94.4408 134.651 94.7022 134.25C94.9635 133.849 95.3368 133.541 95.8222 133.326C96.3075 133.102 96.8675 132.99 97.5022 132.99C98.5102 132.99 99.3082 133.233 99.8962 133.718C100.494 134.203 100.834 134.838 100.918 135.622H99.1962C99.1308 135.249 98.9535 134.931 98.6642 134.67C98.3842 134.399 97.9968 134.264 97.5022 134.264C97.0542 134.264 96.6948 134.381 96.4242 134.614C96.1535 134.838 96.0182 135.165 96.0182 135.594C96.0182 135.93 96.1115 136.21 96.2982 136.434C96.4848 136.649 96.7182 136.821 96.9982 136.952C97.2875 137.073 97.6795 137.218 98.1742 137.386C98.7995 137.582 99.3082 137.783 99.7002 137.988C100.102 138.184 100.438 138.473 100.708 138.856C100.988 139.239 101.128 139.743 101.128 140.368ZM104.602 139.164V143H103.006V133.116H106.366C107.505 133.116 108.359 133.387 108.928 133.928C109.507 134.469 109.796 135.211 109.796 136.154C109.796 137.087 109.502 137.825 108.914 138.366C108.326 138.898 107.477 139.164 106.366 139.164H104.602ZM106.198 137.862C107.514 137.862 108.172 137.293 108.172 136.154C108.172 135.594 108.013 135.169 107.696 134.88C107.388 134.581 106.889 134.432 106.198 134.432H104.602V137.862H106.198ZM119.329 133.116V143H117.719V138.562H113.071V143H111.475V133.116H113.071V137.26H117.719V133.116H119.329ZM126.738 143L124.274 139.052H123.14V143H121.544V133.116H125.03C126.16 133.116 127.014 133.391 127.592 133.942C128.18 134.493 128.474 135.221 128.474 136.126C128.474 136.901 128.255 137.535 127.816 138.03C127.387 138.525 126.762 138.842 125.94 138.982L128.53 143H126.738ZM123.14 137.918H124.904C126.192 137.918 126.836 137.349 126.836 136.21C126.836 135.669 126.678 135.249 126.36 134.95C126.052 134.642 125.567 134.488 124.904 134.488H123.14V137.918ZM136.086 140.858H131.914L131.158 143H129.45L133.09 133.27H134.924L138.55 143H136.842L136.086 140.858ZM135.638 139.626L134 135.006L132.362 139.626H135.638ZM146.511 140.368C146.511 140.853 146.394 141.306 146.161 141.726C145.927 142.137 145.573 142.468 145.097 142.72C144.621 142.972 144.037 143.098 143.347 143.098C142.675 143.098 142.073 142.981 141.541 142.748C141.009 142.505 140.584 142.169 140.267 141.74C139.949 141.311 139.767 140.816 139.721 140.256H141.429C141.475 140.685 141.657 141.054 141.975 141.362C142.301 141.67 142.735 141.824 143.277 141.824C143.762 141.824 144.135 141.693 144.397 141.432C144.667 141.171 144.803 140.835 144.803 140.424C144.803 140.069 144.705 139.78 144.509 139.556C144.313 139.323 144.07 139.141 143.781 139.01C143.491 138.879 143.095 138.73 142.591 138.562C141.975 138.366 141.471 138.17 141.079 137.974C140.696 137.778 140.369 137.493 140.099 137.12C139.828 136.747 139.693 136.257 139.693 135.65C139.693 135.118 139.823 134.651 140.085 134.25C140.346 133.849 140.719 133.541 141.205 133.326C141.69 133.102 142.25 132.99 142.885 132.99C143.893 132.99 144.691 133.233 145.279 133.718C145.876 134.203 146.217 134.838 146.301 135.622H144.579C144.513 135.249 144.336 134.931 144.047 134.67C143.767 134.399 143.379 134.264 142.885 134.264C142.437 134.264 142.077 134.381 141.807 134.614C141.536 134.838 141.401 135.165 141.401 135.594C141.401 135.93 141.494 136.21 141.681 136.434C141.867 136.649 142.101 136.821 142.381 136.952C142.67 137.073 143.062 137.218 143.557 137.386C144.182 137.582 144.691 137.783 145.083 137.988C145.484 138.184 145.82 138.473 146.091 138.856C146.371 139.239 146.511 139.743 146.511 140.368ZM149.984 134.404V137.4H153.624V138.632H149.984V141.698H154.044V143H148.388V133.116H154.044V134.404H149.984Z" fill="white"/>
    <path d="M172.608 143L170.242 139.346L168.128 143H166.294L169.36 137.96L166.224 133.116H168.128L170.452 136.7L172.552 133.116H174.386L171.334 138.072L174.512 143H172.608ZM181.624 143L179.258 139.346L177.144 143H175.31L178.376 137.96L175.24 133.116H177.144L179.468 136.7L181.568 133.116H183.402L180.35 138.072L183.528 143H181.624ZM190.641 143L188.275 139.346L186.161 143H184.327L187.393 137.96L184.257 133.116H186.161L188.485 136.7L190.585 133.116H192.419L189.367 138.072L192.545 143H190.641ZM199.657 143L197.291 139.346L195.177 143H193.343L196.409 137.96L193.273 133.116H195.177L197.501 136.7L199.601 133.116H201.435L198.383 138.072L201.561 143H199.657ZM208.673 143L206.307 139.346L204.193 143H202.359L205.425 137.96L202.289 133.116H204.193L206.517 136.7L208.617 133.116H210.451L207.399 138.072L210.577 143H208.673ZM217.69 143L215.324 139.346L213.21 143H211.376L214.442 137.96L211.306 133.116H213.21L215.534 136.7L217.634 133.116H219.468L216.416 138.072L219.594 143H217.69ZM226.706 143L224.34 139.346L222.226 143H220.392L223.458 137.96L220.322 133.116H222.226L224.55 136.7L226.65 133.116H228.484L225.432 138.072L228.61 143H226.706ZM235.722 143L233.356 139.346L231.242 143H229.408L232.474 137.96L229.338 133.116H231.242L233.566 136.7L235.666 133.116H237.5L234.448 138.072L237.626 143H235.722Z" fill="white"/>
    <path opacity="0.25" d="M76.45 166.044C76.45 167.043 76.2447 167.915 75.834 168.662C75.4327 169.399 74.84 169.973 74.056 170.384C73.2813 170.795 72.3527 171 71.27 171H67.966V161.116H71.27C72.3527 161.116 73.2813 161.321 74.056 161.732C74.84 162.133 75.4327 162.703 75.834 163.44C76.2447 164.177 76.45 165.045 76.45 166.044ZM71.144 169.558C72.3293 169.558 73.2393 169.25 73.874 168.634C74.5087 168.018 74.826 167.155 74.826 166.044C74.826 164.933 74.5087 164.07 73.874 163.454C73.2393 162.838 72.3293 162.53 71.144 162.53H69.562V169.558H71.144ZM79.9318 161.116V171H78.3358V161.116H79.9318ZM88.6392 168.368C88.6392 168.853 88.5225 169.306 88.2892 169.726C88.0559 170.137 87.7012 170.468 87.2252 170.72C86.7492 170.972 86.1659 171.098 85.4752 171.098C84.8032 171.098 84.2012 170.981 83.6692 170.748C83.1372 170.505 82.7125 170.169 82.3952 169.74C82.0779 169.311 81.8959 168.816 81.8492 168.256H83.5572C83.6039 168.685 83.7859 169.054 84.1032 169.362C84.4299 169.67 84.8639 169.824 85.4052 169.824C85.8905 169.824 86.2639 169.693 86.5252 169.432C86.7959 169.171 86.9312 168.835 86.9312 168.424C86.9312 168.069 86.8332 167.78 86.6372 167.556C86.4412 167.323 86.1985 167.141 85.9092 167.01C85.6199 166.879 85.2232 166.73 84.7192 166.562C84.1032 166.366 83.5992 166.17 83.2072 165.974C82.8245 165.778 82.4979 165.493 82.2272 165.12C81.9565 164.747 81.8212 164.257 81.8212 163.65C81.8212 163.118 81.9519 162.651 82.2132 162.25C82.4745 161.849 82.8479 161.541 83.3332 161.326C83.8185 161.102 84.3785 160.99 85.0132 160.99C86.0212 160.99 86.8192 161.233 87.4072 161.718C88.0045 162.203 88.3452 162.838 88.4292 163.622H86.7072C86.6419 163.249 86.4645 162.931 86.1752 162.67C85.8952 162.399 85.5079 162.264 85.0132 162.264C84.5652 162.264 84.2059 162.381 83.9352 162.614C83.6645 162.838 83.5292 163.165 83.5292 163.594C83.5292 163.93 83.6225 164.21 83.8092 164.434C83.9959 164.649 84.2292 164.821 84.5092 164.952C84.7985 165.073 85.1905 165.218 85.6852 165.386C86.3105 165.582 86.8192 165.783 87.2112 165.988C87.6125 166.184 87.9485 166.473 88.2192 166.856C88.4992 167.239 88.6392 167.743 88.6392 168.368ZM96.4109 168.858H92.2389L91.4829 171H89.7749L93.4149 161.27H95.2489L98.8749 171H97.1669L96.4109 168.858ZM95.9629 167.626L94.3249 163.006L92.6869 167.626H95.9629ZM105.492 165.904C106.089 166.025 106.57 166.31 106.934 166.758C107.307 167.206 107.494 167.729 107.494 168.326C107.494 169.147 107.219 169.801 106.668 170.286C106.117 170.762 105.319 171 104.274 171H100.34V161.116H104.204C105.193 161.116 105.949 161.34 106.472 161.788C107.004 162.227 107.27 162.833 107.27 163.608C107.27 164.233 107.107 164.742 106.78 165.134C106.453 165.517 106.024 165.773 105.492 165.904ZM101.936 165.372H103.91C104.47 165.372 104.895 165.241 105.184 164.98C105.483 164.719 105.632 164.355 105.632 163.888C105.632 163.431 105.483 163.071 105.184 162.81C104.895 162.549 104.451 162.418 103.854 162.418H101.936V165.372ZM103.952 169.684C104.559 169.684 105.025 169.549 105.352 169.278C105.688 168.998 105.856 168.611 105.856 168.116C105.856 167.621 105.688 167.234 105.352 166.954C105.016 166.674 104.545 166.534 103.938 166.534H101.936V169.684H103.952ZM110.87 169.754H114.286V171H109.274V161.116H110.87V169.754ZM117.412 162.404V165.4H121.052V166.632H117.412V169.698H121.472V171H115.816V161.116H121.472V162.404H117.412ZM132.756 168.858H128.584L127.828 171H126.12L129.76 161.27H131.594L135.22 171H133.512L132.756 168.858ZM132.308 167.626L130.67 163.006L129.032 167.626H132.308ZM138.281 167.164V171H136.685V161.116H140.045C141.184 161.116 142.038 161.387 142.607 161.928C143.186 162.469 143.475 163.211 143.475 164.154C143.475 165.087 143.181 165.825 142.593 166.366C142.005 166.898 141.156 167.164 140.045 167.164H138.281ZM139.877 165.862C141.193 165.862 141.851 165.293 141.851 164.154C141.851 163.594 141.693 163.169 141.375 162.88C141.067 162.581 140.568 162.432 139.877 162.432H138.281V165.862H139.877ZM146.751 167.164V171H145.155V161.116H148.515C149.653 161.116 150.507 161.387 151.077 161.928C151.655 162.469 151.945 163.211 151.945 164.154C151.945 165.087 151.651 165.825 151.063 166.366C150.475 166.898 149.625 167.164 148.515 167.164H146.751ZM148.347 165.862C149.663 165.862 150.321 165.293 150.321 164.154C150.321 163.594 150.162 163.169 149.845 162.88C149.537 162.581 149.037 162.432 148.347 162.432H146.751V165.862H148.347ZM161.595 161.018C162.809 161.018 163.817 161.326 164.619 161.942C165.422 162.558 165.963 163.393 166.243 164.448H164.549C164.316 163.851 163.943 163.379 163.429 163.034C162.925 162.679 162.305 162.502 161.567 162.502C160.979 162.502 160.452 162.647 159.985 162.936C159.528 163.225 159.164 163.641 158.893 164.182C158.632 164.714 158.501 165.339 158.501 166.058C158.501 166.767 158.632 167.393 158.893 167.934C159.164 168.466 159.528 168.877 159.985 169.166C160.452 169.455 160.979 169.6 161.567 169.6C162.305 169.6 162.925 169.427 163.429 169.082C163.943 168.727 164.316 168.256 164.549 167.668H166.243C165.963 168.723 165.422 169.558 164.619 170.174C163.817 170.781 162.809 171.084 161.595 171.084C160.662 171.084 159.836 170.874 159.117 170.454C158.399 170.025 157.843 169.432 157.451 168.676C157.059 167.911 156.863 167.038 156.863 166.058C156.863 165.078 157.059 164.21 157.451 163.454C157.843 162.689 158.399 162.091 159.117 161.662C159.836 161.233 160.662 161.018 161.595 161.018ZM172.694 160.99C173.608 160.99 174.434 161.205 175.172 161.634C175.918 162.063 176.502 162.665 176.922 163.44C177.351 164.205 177.566 165.073 177.566 166.044C177.566 167.015 177.351 167.887 176.922 168.662C176.502 169.427 175.918 170.029 175.172 170.468C174.434 170.897 173.608 171.112 172.694 171.112C171.77 171.112 170.934 170.897 170.188 170.468C169.45 170.029 168.867 169.427 168.438 168.662C168.008 167.887 167.794 167.015 167.794 166.044C167.794 165.073 168.008 164.205 168.438 163.44C168.867 162.665 169.45 162.063 170.188 161.634C170.934 161.205 171.77 160.99 172.694 160.99ZM172.694 162.474C172.059 162.474 171.494 162.619 171 162.908C170.505 163.197 170.118 163.613 169.838 164.154C169.567 164.695 169.432 165.325 169.432 166.044C169.432 166.763 169.567 167.393 169.838 167.934C170.118 168.475 170.505 168.891 171 169.18C171.494 169.469 172.059 169.614 172.694 169.614C173.319 169.614 173.874 169.469 174.36 169.18C174.854 168.891 175.237 168.475 175.508 167.934C175.788 167.393 175.928 166.763 175.928 166.044C175.928 165.325 175.788 164.695 175.508 164.154C175.237 163.613 174.854 163.197 174.36 162.908C173.874 162.619 173.319 162.474 172.694 162.474ZM187.45 171H185.854L181.052 163.706V171H179.456V161.13H181.052L185.854 168.452V161.13H187.45V171ZM196.018 161.116V162.404H193.26V171H191.65V162.404H188.906V161.116H196.018ZM202.683 171L200.219 167.052H199.085V171H197.489V161.116H200.975C202.104 161.116 202.958 161.391 203.537 161.942C204.125 162.493 204.419 163.221 204.419 164.126C204.419 164.901 204.2 165.535 203.761 166.03C203.332 166.525 202.706 166.842 201.885 166.982L204.475 171H202.683ZM199.085 165.918H200.849C202.137 165.918 202.781 165.349 202.781 164.21C202.781 163.669 202.622 163.249 202.305 162.95C201.997 162.642 201.512 162.488 200.849 162.488H199.085V165.918ZM210.714 160.99C211.629 160.99 212.455 161.205 213.192 161.634C213.939 162.063 214.522 162.665 214.942 163.44C215.371 164.205 215.586 165.073 215.586 166.044C215.586 167.015 215.371 167.887 214.942 168.662C214.522 169.427 213.939 170.029 213.192 170.468C212.455 170.897 211.629 171.112 210.714 171.112C209.79 171.112 208.955 170.897 208.208 170.468C207.471 170.029 206.887 169.427 206.458 168.662C206.029 167.887 205.814 167.015 205.814 166.044C205.814 165.073 206.029 164.205 206.458 163.44C206.887 162.665 207.471 162.063 208.208 161.634C208.955 161.205 209.79 160.99 210.714 160.99ZM210.714 162.474C210.079 162.474 209.515 162.619 209.02 162.908C208.525 163.197 208.138 163.613 207.858 164.154C207.587 164.695 207.452 165.325 207.452 166.044C207.452 166.763 207.587 167.393 207.858 167.934C208.138 168.475 208.525 168.891 209.02 169.18C209.515 169.469 210.079 169.614 210.714 169.614C211.339 169.614 211.895 169.469 212.38 169.18C212.875 168.891 213.257 168.475 213.528 167.934C213.808 167.393 213.948 166.763 213.948 166.044C213.948 165.325 213.808 164.695 213.528 164.154C213.257 163.613 212.875 163.197 212.38 162.908C211.895 162.619 211.339 162.474 210.714 162.474ZM219.073 169.754H222.489V171H217.477V161.116H219.073V169.754Z" fill="white"/>
    <path d="M64.0765 41.4931L58.5432 47.6782L64.0765 53.8618" stroke="white" stroke-width="2" stroke-linecap="round" stroke-linejoin="round"/>
    <rect x="61" y="122" width="190" height="32" rx="4" stroke="#FDBA12" stroke-width="2"/>
</svg>