<svg width="375" height="232" viewBox="0 0 375 232" fill="none" xmlns="http://www.w3.org/2000/svg">
    <rect x="33" y="33" width="309" height="167" rx="1" stroke="white" stroke-width="2"/>
    <path d="M80.482 106.116L78.018 116H76.058L73.972 108.356L71.886 116H69.926L67.462 106.116H69.212L70.92 114.152L73.09 106.116H74.854L77.024 114.152L78.732 106.116H80.482ZM83.7873 106.116V116H82.1913V106.116H83.7873ZM90.6747 110.26V111.604H84.9067V110.26H90.6747ZM99.1987 106.116V107.404H94.9567V110.47H98.4567V111.702H94.9567V116H93.3607V106.116H99.1987ZM102.496 106.116V116H100.9V106.116H102.496Z" fill="white"/>
    <path opacity="0.25" d="M73.86 85.858H69.688L68.932 88H67.224L70.864 78.27H72.698L76.324 88H74.616L73.86 85.858ZM73.412 84.626L71.774 80.006L70.136 84.626H73.412ZM86.273 83.044C86.273 84.0427 86.0676 84.9153 85.657 85.662C85.2556 86.3993 84.663 86.9733 83.879 87.384C83.1043 87.7947 82.1756 88 81.093 88H77.789V78.116H81.093C82.1756 78.116 83.1043 78.3213 83.879 78.732C84.663 79.1333 85.2556 79.7027 85.657 80.44C86.0676 81.1773 86.273 82.0453 86.273 83.044ZM80.967 86.558C82.1523 86.558 83.0623 86.25 83.697 85.634C84.3316 85.018 84.649 84.1547 84.649 83.044C84.649 81.9333 84.3316 81.07 83.697 80.454C83.0623 79.838 82.1523 79.53 80.967 79.53H79.385V86.558H80.967ZM89.1528 78.116L91.9948 86.292L94.8508 78.116H96.5868L93.0168 88H90.9728L87.4168 78.116H89.1528ZM103.944 85.858H99.7721L99.0161 88H97.3081L100.948 78.27H102.782L106.408 88H104.7L103.944 85.858ZM103.496 84.626L101.858 80.006L100.22 84.626H103.496ZM115.867 88H114.271L109.469 80.706V88H107.873V78.13H109.469L114.271 85.452V78.13H115.867V88ZM122.489 78.018C123.702 78.018 124.71 78.326 125.513 78.942C126.316 79.558 126.857 80.3933 127.137 81.448H125.443C125.21 80.8507 124.836 80.3793 124.323 80.034C123.819 79.6793 123.198 79.502 122.461 79.502C121.873 79.502 121.346 79.6467 120.879 79.936C120.422 80.2253 120.058 80.6407 119.787 81.182C119.526 81.714 119.395 82.3393 119.395 83.058C119.395 83.7673 119.526 84.3927 119.787 84.934C120.058 85.466 120.422 85.8767 120.879 86.166C121.346 86.4553 121.873 86.6 122.461 86.6C123.198 86.6 123.819 86.4273 124.323 86.082C124.836 85.7273 125.21 85.256 125.443 84.668H127.137C126.857 85.7227 126.316 86.558 125.513 87.174C124.71 87.7807 123.702 88.084 122.489 88.084C121.556 88.084 120.73 87.874 120.011 87.454C119.292 87.0247 118.737 86.432 118.345 85.676C117.953 84.9107 117.757 84.038 117.757 83.058C117.757 82.078 117.953 81.21 118.345 80.454C118.737 79.6887 119.292 79.0913 120.011 78.662C120.73 78.2327 121.556 78.018 122.489 78.018ZM130.605 79.404V82.4H134.245V83.632H130.605V86.698H134.665V88H129.009V78.116H134.665V79.404H130.605ZM144.978 83.044C144.978 84.0427 144.773 84.9153 144.362 85.662C143.961 86.3993 143.368 86.9733 142.584 87.384C141.81 87.7947 140.881 88 139.798 88H136.494V78.116H139.798C140.881 78.116 141.81 78.3213 142.584 78.732C143.368 79.1333 143.961 79.7027 144.362 80.44C144.773 81.1773 144.978 82.0453 144.978 83.044ZM139.672 86.558C140.858 86.558 141.768 86.25 142.402 85.634C143.037 85.018 143.354 84.1547 143.354 83.044C143.354 81.9333 143.037 81.07 142.402 80.454C141.768 79.838 140.858 79.53 139.672 79.53H138.09V86.558H139.672Z" fill="white"/>
    <path d="M144.025 50.164V54H142.429V44.116H145.789C146.927 44.116 147.781 44.3867 148.351 44.928C148.929 45.4693 149.219 46.2113 149.219 47.154C149.219 48.0873 148.925 48.8247 148.337 49.366C147.749 49.898 146.899 50.164 145.789 50.164H144.025ZM145.621 48.862C146.937 48.862 147.595 48.2927 147.595 47.154C147.595 46.594 147.436 46.1693 147.119 45.88C146.811 45.5813 146.311 45.432 145.621 45.432H144.025V48.862H145.621ZM156.092 54L153.628 50.052H152.494V54H150.898V44.116H154.384C155.514 44.116 156.368 44.3913 156.946 44.942C157.534 45.4927 157.828 46.2207 157.828 47.126C157.828 47.9007 157.609 48.5353 157.17 49.03C156.741 49.5247 156.116 49.842 155.294 49.982L157.884 54H156.092ZM152.494 48.918H154.258C155.546 48.918 156.19 48.3487 156.19 47.21C156.19 46.6687 156.032 46.2487 155.714 45.95C155.406 45.642 154.921 45.488 154.258 45.488H152.494V48.918ZM161.141 45.404V48.4H164.781V49.632H161.141V52.698H165.201V54H159.545V44.116H165.201V45.404H161.141ZM172.868 44.116V45.404H168.626V48.47H172.126V49.702H168.626V54H167.03V44.116H172.868ZM176.166 45.404V48.4H179.806V49.632H176.166V52.698H180.226V54H174.57V44.116H180.226V45.404H176.166ZM187.249 54L184.785 50.052H183.651V54H182.055V44.116H185.541C186.671 44.116 187.525 44.3913 188.103 44.942C188.691 45.4927 188.985 46.2207 188.985 47.126C188.985 47.9007 188.766 48.5353 188.327 49.03C187.898 49.5247 187.273 49.842 186.451 49.982L189.041 54H187.249ZM183.651 48.918H185.415C186.703 48.918 187.347 48.3487 187.347 47.21C187.347 46.6687 187.189 46.2487 186.871 45.95C186.563 45.642 186.078 45.488 185.415 45.488H183.651V48.918ZM192.299 45.404V48.4H195.939V49.632H192.299V52.698H196.359V54H190.703V44.116H196.359V45.404H192.299ZM206.182 54H204.586L199.784 46.706V54H198.188V44.13H199.784L204.586 51.452V44.13H206.182V54ZM212.803 44.018C214.017 44.018 215.025 44.326 215.827 44.942C216.63 45.558 217.171 46.3933 217.451 47.448H215.757C215.524 46.8507 215.151 46.3793 214.637 46.034C214.133 45.6793 213.513 45.502 212.775 45.502C212.187 45.502 211.66 45.6467 211.193 45.936C210.736 46.2253 210.372 46.6407 210.101 47.182C209.84 47.714 209.709 48.3393 209.709 49.058C209.709 49.7673 209.84 50.3927 210.101 50.934C210.372 51.466 210.736 51.8767 211.193 52.166C211.66 52.4553 212.187 52.6 212.775 52.6C213.513 52.6 214.133 52.4273 214.637 52.082C215.151 51.7273 215.524 51.256 215.757 50.668H217.451C217.171 51.7227 216.63 52.558 215.827 53.174C215.025 53.7807 214.017 54.084 212.803 54.084C211.87 54.084 211.044 53.874 210.325 53.454C209.607 53.0247 209.051 52.432 208.659 51.676C208.267 50.9107 208.071 50.038 208.071 49.058C208.071 48.078 208.267 47.21 208.659 46.454C209.051 45.6887 209.607 45.0913 210.325 44.662C211.044 44.2327 211.87 44.018 212.803 44.018ZM220.92 45.404V48.4H224.56V49.632H220.92V52.698H224.98V54H219.324V44.116H224.98V45.404H220.92ZM233.305 51.368C233.305 51.8533 233.188 52.306 232.955 52.726C232.722 53.1367 232.367 53.468 231.891 53.72C231.415 53.972 230.832 54.098 230.141 54.098C229.469 54.098 228.867 53.9813 228.335 53.748C227.803 53.5053 227.378 53.1693 227.061 52.74C226.744 52.3107 226.562 51.816 226.515 51.256H228.223C228.27 51.6853 228.452 52.054 228.769 52.362C229.096 52.67 229.53 52.824 230.071 52.824C230.556 52.824 230.93 52.6933 231.191 52.432C231.462 52.1707 231.597 51.8347 231.597 51.424C231.597 51.0693 231.499 50.78 231.303 50.556C231.107 50.3227 230.864 50.1407 230.575 50.01C230.286 49.8793 229.889 49.73 229.385 49.562C228.769 49.366 228.265 49.17 227.873 48.974C227.49 48.778 227.164 48.4933 226.893 48.12C226.622 47.7467 226.487 47.2567 226.487 46.65C226.487 46.118 226.618 45.6513 226.879 45.25C227.14 44.8487 227.514 44.5407 227.999 44.326C228.484 44.102 229.044 43.99 229.679 43.99C230.687 43.99 231.485 44.2327 232.073 44.718C232.67 45.2033 233.011 45.838 233.095 46.622H231.373C231.308 46.2487 231.13 45.9313 230.841 45.67C230.561 45.3993 230.174 45.264 229.679 45.264C229.231 45.264 228.872 45.3807 228.601 45.614C228.33 45.838 228.195 46.1647 228.195 46.594C228.195 46.93 228.288 47.21 228.475 47.434C228.662 47.6487 228.895 47.8213 229.175 47.952C229.464 48.0733 229.856 48.218 230.351 48.386C230.976 48.582 231.485 48.7827 231.877 48.988C232.278 49.184 232.614 49.4733 232.885 49.856C233.165 50.2387 233.305 50.7427 233.305 51.368Z" fill="white"/>
    <path opacity="0.25" d="M73.16 144L70.696 140.052H69.562V144H67.966V134.116H71.452C72.5813 134.116 73.4353 134.391 74.014 134.942C74.602 135.493 74.896 136.221 74.896 137.126C74.896 137.901 74.6767 138.535 74.238 139.03C73.8087 139.525 73.1833 139.842 72.362 139.982L74.952 144H73.16ZM69.562 138.918H71.326C72.614 138.918 73.258 138.349 73.258 137.21C73.258 136.669 73.0993 136.249 72.782 135.95C72.474 135.642 71.9887 135.488 71.326 135.488H69.562V138.918ZM78.2092 135.404V138.4H81.8492V139.632H78.2092V142.698H82.2692V144H76.6132V134.116H82.2692V135.404H78.2092ZM90.5943 141.368C90.5943 141.853 90.4776 142.306 90.2443 142.726C90.0109 143.137 89.6563 143.468 89.1803 143.72C88.7043 143.972 88.1209 144.098 87.4303 144.098C86.7583 144.098 86.1563 143.981 85.6243 143.748C85.0923 143.505 84.6676 143.169 84.3503 142.74C84.0329 142.311 83.8509 141.816 83.8043 141.256H85.5123C85.5589 141.685 85.7409 142.054 86.0583 142.362C86.3849 142.67 86.8189 142.824 87.3603 142.824C87.8456 142.824 88.2189 142.693 88.4803 142.432C88.7509 142.171 88.8863 141.835 88.8863 141.424C88.8863 141.069 88.7883 140.78 88.5923 140.556C88.3963 140.323 88.1536 140.141 87.8643 140.01C87.5749 139.879 87.1783 139.73 86.6743 139.562C86.0583 139.366 85.5543 139.17 85.1623 138.974C84.7796 138.778 84.4529 138.493 84.1823 138.12C83.9116 137.747 83.7763 137.257 83.7763 136.65C83.7763 136.118 83.9069 135.651 84.1683 135.25C84.4296 134.849 84.8029 134.541 85.2883 134.326C85.7736 134.102 86.3336 133.99 86.9683 133.99C87.9763 133.99 88.7743 134.233 89.3623 134.718C89.9596 135.203 90.3003 135.838 90.3843 136.622H88.6623C88.5969 136.249 88.4196 135.931 88.1303 135.67C87.8503 135.399 87.4629 135.264 86.9683 135.264C86.5203 135.264 86.1609 135.381 85.8903 135.614C85.6196 135.838 85.4843 136.165 85.4843 136.594C85.4843 136.93 85.5776 137.21 85.7643 137.434C85.9509 137.649 86.1843 137.821 86.4643 137.952C86.7536 138.073 87.1456 138.218 87.6403 138.386C88.2656 138.582 88.7743 138.783 89.1663 138.988C89.5676 139.184 89.9036 139.473 90.1743 139.856C90.4543 140.239 90.5943 140.743 90.5943 141.368ZM94.068 135.404V138.4H97.708V139.632H94.068V142.698H98.128V144H92.472V134.116H98.128V135.404H94.068ZM106.313 134.116V135.404H103.555V144H101.945V135.404H99.2011V134.116H106.313ZM119.829 139.044C119.829 140.043 119.624 140.915 119.213 141.662C118.812 142.399 118.219 142.973 117.435 143.384C116.661 143.795 115.732 144 114.649 144H111.345V134.116H114.649C115.732 134.116 116.661 134.321 117.435 134.732C118.219 135.133 118.812 135.703 119.213 136.44C119.624 137.177 119.829 138.045 119.829 139.044ZM114.523 142.558C115.709 142.558 116.619 142.25 117.253 141.634C117.888 141.018 118.205 140.155 118.205 139.044C118.205 137.933 117.888 137.07 117.253 136.454C116.619 135.838 115.709 135.53 114.523 135.53H112.941V142.558H114.523ZM123.311 135.404V138.4H126.951V139.632H123.311V142.698H127.371V144H121.715V134.116H127.371V135.404H123.311ZM135.038 134.116V135.404H130.796V138.47H134.296V139.702H130.796V144H129.2V134.116H135.038ZM142.634 141.858H138.462L137.706 144H135.998L139.638 134.27H141.472L145.098 144H143.39L142.634 141.858ZM142.186 140.626L140.548 136.006L138.91 140.626H142.186ZM148.089 134.116V139.982C148.089 140.859 148.28 141.513 148.663 141.942C149.055 142.371 149.601 142.586 150.301 142.586C150.992 142.586 151.528 142.371 151.911 141.942C152.303 141.513 152.499 140.859 152.499 139.982V134.116H154.095V139.982C154.095 141.335 153.745 142.362 153.045 143.062C152.345 143.753 151.421 144.098 150.273 144.098C149.134 144.098 148.22 143.753 147.529 143.062C146.838 142.362 146.493 141.335 146.493 139.982V134.116H148.089ZM157.831 142.754H161.247V144H156.235V134.116H157.831V142.754ZM169.133 134.116V135.404H166.375V144H164.765V135.404H162.021V134.116H169.133ZM177.1 141.368C177.1 141.853 176.983 142.306 176.75 142.726C176.517 143.137 176.162 143.468 175.686 143.72C175.21 143.972 174.627 144.098 173.936 144.098C173.264 144.098 172.662 143.981 172.13 143.748C171.598 143.505 171.173 143.169 170.856 142.74C170.539 142.311 170.357 141.816 170.31 141.256H172.018C172.065 141.685 172.247 142.054 172.564 142.362C172.891 142.67 173.325 142.824 173.866 142.824C174.351 142.824 174.725 142.693 174.986 142.432C175.257 142.171 175.392 141.835 175.392 141.424C175.392 141.069 175.294 140.78 175.098 140.556C174.902 140.323 174.659 140.141 174.37 140.01C174.081 139.879 173.684 139.73 173.18 139.562C172.564 139.366 172.06 139.17 171.668 138.974C171.285 138.778 170.959 138.493 170.688 138.12C170.417 137.747 170.282 137.257 170.282 136.65C170.282 136.118 170.413 135.651 170.674 135.25C170.935 134.849 171.309 134.541 171.794 134.326C172.279 134.102 172.839 133.99 173.474 133.99C174.482 133.99 175.28 134.233 175.868 134.718C176.465 135.203 176.806 135.838 176.89 136.622H175.168C175.103 136.249 174.925 135.931 174.636 135.67C174.356 135.399 173.969 135.264 173.474 135.264C173.026 135.264 172.667 135.381 172.396 135.614C172.125 135.838 171.99 136.165 171.99 136.594C171.99 136.93 172.083 137.21 172.27 137.434C172.457 137.649 172.69 137.821 172.97 137.952C173.259 138.073 173.651 138.218 174.146 138.386C174.771 138.582 175.28 138.783 175.672 138.988C176.073 139.184 176.409 139.473 176.68 139.856C176.96 140.239 177.1 140.743 177.1 141.368Z" fill="white"/>
    <path opacity="0.25" d="M74.322 162.116V163.404H71.564V172H69.954V163.404H67.21V162.116H74.322ZM77.3889 163.404V166.4H81.0289V167.632H77.3889V170.698H81.4489V172H75.7929V162.116H81.4489V163.404H77.3889ZM93.526 162.27V172H91.916V164.706L89.102 172H87.702L84.874 164.706V172H83.278V162.27H85.21L88.43 170.04L91.594 162.27H93.526ZM97.3219 168.164V172H95.7259V162.116H99.0859C100.225 162.116 101.079 162.387 101.648 162.928C102.227 163.469 102.516 164.211 102.516 165.154C102.516 166.087 102.222 166.825 101.634 167.366C101.046 167.898 100.197 168.164 99.0859 168.164H97.3219ZM98.9179 166.862C100.234 166.862 100.892 166.293 100.892 165.154C100.892 164.594 100.733 164.169 100.416 163.88C100.108 163.581 99.6086 163.432 98.9179 163.432H97.3219V166.862H98.9179ZM105.791 163.404V166.4H109.431V167.632H105.791V170.698H109.851V172H104.195V162.116H109.851V163.404H105.791ZM116.874 172L114.41 168.052H113.276V172H111.68V162.116H115.166C116.296 162.116 117.15 162.391 117.728 162.942C118.316 163.493 118.61 164.221 118.61 165.126C118.61 165.901 118.391 166.535 117.952 167.03C117.523 167.525 116.898 167.842 116.076 167.982L118.666 172H116.874ZM113.276 166.918H115.04C116.328 166.918 116.972 166.349 116.972 165.21C116.972 164.669 116.814 164.249 116.496 163.95C116.188 163.642 115.703 163.488 115.04 163.488H113.276V166.918ZM126.222 169.858H122.05L121.294 172H119.586L123.226 162.27H125.06L128.686 172H126.978L126.222 169.858ZM125.774 168.626L124.136 164.006L122.498 168.626H125.774ZM136.507 162.116V163.404H133.749V172H132.139V163.404H129.395V162.116H136.507ZM139.503 162.116V167.982C139.503 168.859 139.695 169.513 140.077 169.942C140.469 170.371 141.015 170.586 141.715 170.586C142.406 170.586 142.943 170.371 143.325 169.942C143.717 169.513 143.913 168.859 143.913 167.982V162.116H145.509V167.982C145.509 169.335 145.159 170.362 144.459 171.062C143.759 171.753 142.835 172.098 141.687 172.098C140.549 172.098 139.634 171.753 138.943 171.062C138.253 170.362 137.907 169.335 137.907 167.982V162.116H139.503ZM152.844 172L150.38 168.052H149.246V172H147.65V162.116H151.136C152.265 162.116 153.119 162.391 153.698 162.942C154.286 163.493 154.58 164.221 154.58 165.126C154.58 165.901 154.361 166.535 153.922 167.03C153.493 167.525 152.867 167.842 152.046 167.982L154.636 172H152.844ZM149.246 166.918H151.01C152.298 166.918 152.942 166.349 152.942 165.21C152.942 164.669 152.783 164.249 152.466 163.95C152.158 163.642 151.673 163.488 151.01 163.488H149.246V166.918ZM157.893 163.404V166.4H161.533V167.632H157.893V170.698H161.953V172H156.297V162.116H161.953V163.404H157.893ZM168.87 162.116V167.982C168.87 168.859 169.061 169.513 169.444 169.942C169.836 170.371 170.382 170.586 171.082 170.586C171.772 170.586 172.309 170.371 172.692 169.942C173.084 169.513 173.28 168.859 173.28 167.982V162.116H174.876V167.982C174.876 169.335 174.526 170.362 173.826 171.062C173.126 171.753 172.202 172.098 171.054 172.098C169.915 172.098 169 171.753 168.31 171.062C167.619 170.362 167.274 169.335 167.274 167.982V162.116H168.87ZM185.01 172H183.414L178.612 164.706V172H177.016V162.13H178.612L183.414 169.452V162.13H185.01V172ZM188.818 162.116V172H187.222V162.116H188.818ZM197.385 162.116V163.404H194.627V172H193.017V163.404H190.273V162.116H197.385ZM205.352 169.368C205.352 169.853 205.235 170.306 205.002 170.726C204.769 171.137 204.414 171.468 203.938 171.72C203.462 171.972 202.879 172.098 202.188 172.098C201.516 172.098 200.914 171.981 200.382 171.748C199.85 171.505 199.425 171.169 199.108 170.74C198.791 170.311 198.609 169.816 198.562 169.256H200.27C200.317 169.685 200.499 170.054 200.816 170.362C201.143 170.67 201.577 170.824 202.118 170.824C202.603 170.824 202.977 170.693 203.238 170.432C203.509 170.171 203.644 169.835 203.644 169.424C203.644 169.069 203.546 168.78 203.35 168.556C203.154 168.323 202.911 168.141 202.622 168.01C202.333 167.879 201.936 167.73 201.432 167.562C200.816 167.366 200.312 167.17 199.92 166.974C199.537 166.778 199.211 166.493 198.94 166.12C198.669 165.747 198.534 165.257 198.534 164.65C198.534 164.118 198.665 163.651 198.926 163.25C199.187 162.849 199.561 162.541 200.046 162.326C200.531 162.102 201.091 161.99 201.726 161.99C202.734 161.99 203.532 162.233 204.12 162.718C204.717 163.203 205.058 163.838 205.142 164.622H203.42C203.355 164.249 203.177 163.931 202.888 163.67C202.608 163.399 202.221 163.264 201.726 163.264C201.278 163.264 200.919 163.381 200.648 163.614C200.377 163.838 200.242 164.165 200.242 164.594C200.242 164.93 200.335 165.21 200.522 165.434C200.709 165.649 200.942 165.821 201.222 165.952C201.511 166.073 201.903 166.218 202.398 166.386C203.023 166.582 203.532 166.783 203.924 166.988C204.325 167.184 204.661 167.473 204.932 167.856C205.212 168.239 205.352 168.743 205.352 169.368Z" fill="white"/>
    <path d="M64.0767 42.4931L58.5435 48.6782L64.0767 54.8618" stroke="white" stroke-width="2" stroke-linecap="round" stroke-linejoin="round"/>
    <rect x="61" y="96" width="63" height="30" rx="4" stroke="#FDBA12" stroke-width="2"/>
</svg>
