<svg width="375" height="232" viewBox="0 0 375 232" fill="none" xmlns="http://www.w3.org/2000/svg">
<rect width="375" height="232" fill="black"/>
<circle cx="188" cy="116" r="68" stroke="white" stroke-width="2"/>
<path d="M155.052 119H156.392L157.632 114.17L158.872 119H160.212L162.002 112H160.822L159.532 117.48L158.232 112H157.082L155.762 117.48L154.482 112H153.262L155.052 119ZM162.614 119H163.724V113.85H162.614V119ZM162.614 112.97H163.724V111.69H162.614V112.97ZM164.676 116.9H166.836V115.94H164.676V116.9ZM167.79 119H168.98V116.26H171.79V115.23H168.98V113.03H172.29V112H167.79V119ZM172.936 119H174.046V113.85H172.936V119ZM172.936 112.97H174.046V111.69H172.936V112.97Z" fill="white"/>
<path d="M177.821 159.996C177.821 160.521 177.462 160.746 176.78 160.746C176.105 160.746 175.716 160.476 175.716 159.937V159.839H174.824V159.937C174.824 160.993 175.566 161.525 176.78 161.525C177.994 161.525 178.735 161.001 178.735 159.929C178.735 159.135 178.256 158.655 177.364 158.49L176.435 158.325C176.03 158.251 175.761 158.018 175.761 157.636C175.761 157.142 176.105 156.902 176.787 156.902C177.462 156.902 177.829 157.179 177.829 157.718V157.816H178.72V157.718C178.72 156.662 178.001 156.13 176.787 156.13C175.566 156.13 174.846 156.654 174.846 157.696C174.846 158.505 175.363 158.985 176.218 159.142L177.147 159.307C177.551 159.382 177.821 159.607 177.821 159.996ZM179.598 161.45H183.12V160.671H180.489V159.21H182.745V158.438H180.489V156.977H183.12V156.205H179.598V161.45ZM183.908 161.45H187.43V160.671H184.8V156.205H183.908V161.45ZM188.064 161.45H191.586V160.671H188.956V159.21H191.212V158.438H188.956V156.977H191.586V156.205H188.064V161.45ZM195.492 159.667V159.704C195.492 160.379 195.057 160.746 194.345 160.746C193.633 160.746 193.191 160.356 193.191 159.629V158.018C193.191 157.299 193.633 156.902 194.36 156.902C195.057 156.902 195.492 157.276 195.492 157.951V157.981H196.383V157.951C196.383 156.767 195.597 156.13 194.36 156.13C193.094 156.13 192.3 156.789 192.3 158.018V159.629C192.3 160.866 193.094 161.525 194.345 161.525C195.597 161.525 196.383 160.888 196.383 159.704V159.667H195.492ZM196.799 156.977H198.403V161.45H199.294V156.977H200.898V156.205H196.799V156.977Z" fill="#F7B500"/>
<path d="M155.834 162.669L151.648 155.417L160.021 155.417L155.834 162.669Z" fill="#F7B500"/>
<path d="M219.166 155.417L223.352 162.669H214.979L219.166 155.417Z" fill="#F7B500"/>
<path d="M218.828 119.343L222.172 116L218.828 112.657" stroke="white"/>
<rect x="144.5" y="85.5" width="86" height="61" stroke="white"/>
</svg>
