<svg width="322" height="155" viewBox="0 0 322 155" fill="none" xmlns="http://www.w3.org/2000/svg">
<path d="M102.5 77H110.5" stroke="white" stroke-width="0.5" stroke-linecap="square"/>
<circle cx="160" cy="77" r="19.5" stroke="white"/>
<circle cx="160" cy="77" r="15.75" stroke="white" stroke-width="0.5"/>
<rect x="222.5" y="57.5" width="81" height="39" rx="2.5" stroke="white"/>
<path d="M96 52V103" stroke="white" stroke-width="2" stroke-linecap="square"/>
<rect x="288.2" y="74.2" width="10.6" height="4.6" rx="0.8" stroke="white" stroke-width="0.4"/>
<rect x="227.2" y="74.2" width="10.6" height="4.6" rx="0.8" stroke="white" stroke-width="0.4"/>
<rect x="288.2" y="67.2" width="10.6" height="4.6" rx="0.8" stroke="white" stroke-width="0.4"/>
<rect x="227.2" y="67.2" width="10.6" height="4.6" rx="0.8" stroke="white" stroke-width="0.4"/>
<rect x="288.2" y="60.2" width="10.6" height="4.6" rx="0.8" stroke="white" stroke-width="0.4"/>
<rect x="227.2" y="60.2" width="10.6" height="4.6" rx="0.8" stroke="white" stroke-width="0.4"/>
<rect x="288.2" y="88.2" width="10.6" height="4.6" rx="0.8" stroke="white" stroke-width="0.4"/>
<rect x="227.2" y="88.2" width="10.6" height="4.6" rx="0.8" stroke="white" stroke-width="0.4"/>
<rect x="242.2" y="88.2" width="10.6" height="4.6" rx="0.8" stroke="white" stroke-width="0.4"/>
<rect x="258.2" y="88.2" width="10.6" height="4.6" rx="0.8" stroke="white" stroke-width="0.4"/>
<rect x="273.2" y="88.2" width="10.6" height="4.6" rx="0.8" stroke="white" stroke-width="0.4"/>
<rect x="288.2" y="81.2" width="10.6" height="4.6" rx="0.8" stroke="white" stroke-width="0.4"/>
<rect x="227.2" y="81.2" width="10.6" height="4.6" rx="0.8" stroke="white" stroke-width="0.4"/>
<!-- <path d="M21.5 78C21.5 77.7239 21.7239 77.5 22 77.5H78C78.2761 77.5 78.5 77.7239 78.5 78V87C78.5 88.933 76.933 90.5 75 90.5H25C23.067 90.5 21.5 88.933 21.5 87V78Z" stroke="white"/> -->
<rect x="102.5" y="68.5" width="8" height="17" rx="1.5" stroke="white"/>
<rect x="4" y="51" width="314" height="52" rx="2" stroke="white" stroke-width="2"/>
</svg>
