<svg width="375" height="232" viewBox="0 0 375 232" fill="none" xmlns="http://www.w3.org/2000/svg">
    <rect width="375" height="232" fill="black"/>
    <rect x="81" y="153" width="8" height="22" fill="#E7AB3B"/>
    <g clip-path="url(#clip0_5807_18442)">
        <path d="M93.2699 114.5C93.4677 111.631 94.0014 108.795 94.8599 106.05C95.3945 104.341 95.3938 103.765 96.5 101C97.5 98.5 98.1899 97.48 99.7199 95.28C100.91 93.57 101.91 92.39 103.1 90.97C104.183 89.6196 105.349 88.3372 106.59 87.1299C107.912 85.9135 109.311 84.7845 110.78 83.75C112.534 82.406 114.363 81.1639 116.26 80.03C117.934 79.0021 119.686 78.1061 121.5 77.35C123.53 76.4978 125.631 75.8285 127.78 75.35C127.93 75.35 129.47 74.98 131.16 74.77C150.82 72.27 195.9 74.18 195.9 74.18C197.504 74.2384 199.1 74.4358 200.67 74.77C202.909 75.0631 205.113 75.579 207.25 76.31C212.86 78.31 211.77 77.85 213.34 78.58C216.046 79.9896 218.605 81.6645 220.98 83.58C222.865 85.0186 224.624 86.6143 226.24 88.35C228.085 90.2656 229.727 92.3668 231.14 94.62C232.742 96.733 234.129 99.0009 235.28 101.39C236.28 103.6 238.72 109.93 238.89 113.18C239.74 129.42 239.77 143.5 238.75 150.26C238.456 152.014 237.864 153.705 237 155.26C236.149 157.011 235.095 158.656 233.86 160.16C232.484 161.81 230.92 163.294 229.2 164.58C227.364 165.739 225.388 166.66 223.32 167.32C221.279 168.117 219.127 168.596 216.94 168.74C163.42 168.95 119.25 169.27 114.59 168.63C113.062 168.422 111.553 168.087 110.08 167.63C108.72 167.211 107.385 166.717 106.08 166.15C104.682 165.526 103.365 164.734 102.16 163.79C101.016 162.883 99.9522 161.879 98.9799 160.79C98.2191 160.02 97.5045 159.205 96.8399 158.35C95.9925 157.079 95.2977 155.713 94.7699 154.28C94.1039 152.484 93.543 150.651 93.0899 148.79C92.3499 145.37 92.1799 132.74 93.2699 114.5Z" stroke="white"/>
    </g>
    <g clip-path="url(#clip1_5807_18442)">
        <path d="M268 206L268 222" stroke="white" stroke-width="2"/>
        <path d="M66 221.79V50.5101C66.0053 48.6021 66.7656 46.7739 68.1147 45.4247C69.4638 44.0756 71.2921 43.3153 73.2 43.3101H260.37C264.37 43.3101 267.57 45.7901 267.57 48.8201V59.8201" stroke="white" stroke-width="2"/>
        <path d="M249.16 196.81H86.03C84.122 196.805 82.2937 196.045 80.9446 194.695C79.5955 193.346 78.8352 191.518 78.83 189.61V68.8101C78.8352 66.9022 79.5955 65.0739 80.9446 63.7248C82.2937 62.3756 84.122 61.6154 86.03 61.6101H251" stroke="white"/>
        <path d="M165.85 33.3399C170.528 33.3399 174.32 29.5478 174.32 24.8699C174.32 20.192 170.528 16.3999 165.85 16.3999C161.172 16.3999 157.38 20.192 157.38 24.8699C157.38 29.5478 161.172 33.3399 165.85 33.3399Z" stroke="white" stroke-width="0.75"/>
        <path d="M165.88 36.28C172.171 36.28 177.27 31.1805 177.27 24.89C177.27 18.5995 172.171 13.5 165.88 13.5C159.589 13.5 154.49 18.5995 154.49 24.89C154.49 31.1805 159.589 36.28 165.88 36.28Z" stroke="white" stroke-width="0.8"/>
        <path d="M127.13 20.82C128.87 20.82 130.28 19.4097 130.28 17.67C130.28 15.9303 128.87 14.52 127.13 14.52C125.39 14.52 123.98 15.9303 123.98 17.67C123.98 19.4097 125.39 20.82 127.13 20.82Z" stroke="white" stroke-width="0.75"/>
        <path d="M127.13 33.8601C128.87 33.8601 130.28 32.4498 130.28 30.7101C130.28 28.9704 128.87 27.5601 127.13 27.5601C125.39 27.5601 123.98 28.9704 123.98 30.7101C123.98 32.4498 125.39 33.8601 127.13 33.8601Z" stroke="white" stroke-width="0.75"/>
        <path d="M224.04 17.2H194.81C194.015 17.2 193.37 17.8447 193.37 18.64V30.88C193.37 31.6752 194.015 32.32 194.81 32.32H224.04C224.835 32.32 225.48 31.6752 225.48 30.88V18.64C225.48 17.8447 224.835 17.2 224.04 17.2Z" stroke="white" stroke-width="0.75"/>
        <path d="M89.93 152.68H81.98V174.72H89.93V152.68Z" fill="#E7AB3B"/>
        <path d="M246.99 189.68V175.8H196.98V189.68H246.99Z" fill="#E7AB3B"/>
    </g>
    <path d="M247 43C247 43 241.934 32.3808 240.092 26.7372C239.594 25.2117 239.035 23.1386 238.483 20.9254C236.594 13.3465 230.095 7.72722 222.289 7.43678C206.727 6.85768 181.197 6 166.5 6C151.858 6 125.715 6.85131 109.628 7.4303C101.534 7.72159 94.9121 13.7354 93.1626 21.6431C92.8503 23.0544 92.5312 24.381 92.2189 25.5073C90.5647 31.4726 86 43 86 43" stroke="white"/>
    <path d="M311.558 56.0071C277.888 59.0284 254.593 60.9585 253.581 61.0426C252.659 61.1193 249 62 249.076 64.1344C249.076 73.2688 248.996 182.731 249.006 194.282C248.965 195.016 249.047 195.751 249.247 196.458C249.363 196.88 249.562 197.275 249.831 197.621C250.1 197.967 250.435 198.256 250.816 198.472C252.155 199.272 253.566 199.946 255.03 200.486C266.987 205.693 266.575 205.391 311.558 227.033" stroke="white" stroke-width="2"/>
    <path d="M253.547 80.6309H248.861C248.855 80.6309 248.851 80.6354 248.851 80.6409V103.885C248.851 103.89 248.855 103.895 248.861 103.895H253.547C253.553 103.895 253.557 103.89 253.557 103.885V80.6409C253.557 80.6354 253.553 80.6309 253.547 80.6309Z" stroke="white"/>
    <path d="M253.547 159.92H248.861C248.855 159.92 248.851 159.924 248.851 159.93V183.174C248.851 183.179 248.855 183.184 248.861 183.184H253.547C253.553 183.184 253.557 183.179 253.557 183.174V159.93C253.557 159.924 253.553 159.92 253.547 159.92Z" stroke="white"/>
    <defs>
        <clipPath id="clip0_5807_18442">
            <rect width="148.03" height="96.49" fill="white" transform="translate(92 73)"/>
        </clipPath>
        <clipPath id="clip1_5807_18442">
            <rect width="203.57" height="208.79" fill="white" transform="translate(65 13)"/>
        </clipPath>
    </defs>
</svg>
