<svg width="322" height="155" viewBox="0 0 322 155" fill="none" xmlns="http://www.w3.org/2000/svg">
<path d="M57.5 70H67.5" stroke="white"/>
<circle cx="160" cy="68" r="17.75" stroke="white" stroke-width="0.5"/>
<circle cx="160" cy="68" r="12.5" stroke="white"/>
<path d="M31.4488 50.5924C34.1943 46.3164 38.8792 43.7365 43.9801 43.5762C66.7582 42.8601 129.185 41 163 41C196.606 41 257.894 42.6099 280.792 43.2458C286.077 43.3926 290.905 46.141 293.662 50.638C297.642 57.13 302.928 66.0639 304.965 70.889C306.696 74.9892 308.969 80.8495 310.812 85.6944C311.733 88.1148 312.546 90.2782 313.128 91.8364C313.292 92.2748 313.438 92.6652 313.562 93H11.4344C11.5842 92.5951 11.7647 92.1084 11.9714 91.553C12.6147 89.8246 13.5116 87.4322 14.5255 84.7762C16.5561 79.4574 19.0476 73.1051 20.9138 68.9061C23.1723 63.8245 27.8427 56.2087 31.4488 50.5924Z" stroke="white" stroke-width="2"/>
<path d="M36.0022 53.901C38.857 49.6049 43.6235 47.0371 48.7903 46.8807C70.8029 46.2141 130.567 44.5 162.98 44.5C195.184 44.5 253.837 45.9828 275.971 46.5748C281.331 46.7181 286.244 49.454 289.114 53.9741C292.908 59.9488 297.852 68.0238 299.787 72.4414C301.448 76.2333 303.381 81.6553 304.902 86.1409C305.661 88.3813 306.317 90.3838 306.782 91.8262C307.009 92.5301 307.191 93.1006 307.318 93.5H17.6848C17.6891 93.4867 17.6934 93.4732 17.6978 93.4595C17.8413 93.0134 18.0503 92.3671 18.3124 91.567C18.8368 89.9667 19.5734 87.7516 20.4226 85.2924C22.1232 80.3679 24.2678 74.4863 26.0606 70.5983C28.2014 65.9556 32.5691 59.0673 36.0022 53.901Z" stroke="white"/>
<rect x="207.5" y="54.5" width="66" height="31" rx="1.5" stroke="white"/>
<rect x="79.5" y="54.5" width="40" height="31" rx="1.5" stroke="white"/>
<rect x="57.5" y="60.5" width="10" height="19" rx="1.5" stroke="white"/>
</svg>
