<svg width="375" height="232" viewBox="0 0 375 232" fill="none" xmlns="http://www.w3.org/2000/svg">
<rect width="375" height="232" fill="black"/>
<path d="M84.5 109H94.5" stroke="white"/>
<circle cx="187" cy="107" r="17.75" stroke="white" stroke-width="0.5"/>
<circle cx="187" cy="107" r="12.5" stroke="white"/>
<path d="M58.4488 89.5924C61.1943 85.3164 65.8792 82.7365 70.9801 82.5762C93.7582 81.8601 156.185 80 190 80C223.606 80 284.894 81.6099 307.792 82.2458C313.077 82.3926 317.905 85.141 320.662 89.638C324.642 96.13 329.928 105.064 331.965 109.889C333.696 113.989 335.969 119.849 337.812 124.694C338.733 127.115 339.546 129.278 340.128 130.836C340.292 131.275 340.438 131.665 340.562 132H38.4344C38.5842 131.595 38.7647 131.108 38.9714 130.553C39.6147 128.825 40.5116 126.432 41.5255 123.776C43.5561 118.457 46.0476 112.105 47.9138 107.906C50.1723 102.825 54.8427 95.2087 58.4488 89.5924Z" stroke="white" stroke-width="2"/>
<path d="M63.0022 92.901C65.857 88.6049 70.6235 86.0371 75.7903 85.8807C97.8029 85.2141 157.567 83.5 189.98 83.5C222.184 83.5 280.837 84.9828 302.971 85.5748C308.331 85.7181 313.244 88.454 316.114 92.9741C319.908 98.9488 324.852 107.024 326.787 111.441C328.448 115.233 330.381 120.655 331.902 125.141C332.661 127.381 333.317 129.384 333.782 130.826C334.009 131.53 334.191 132.101 334.318 132.5H44.6848C44.6891 132.487 44.6934 132.473 44.6978 132.46C44.8413 132.013 45.0503 131.367 45.3124 130.567C45.8368 128.967 46.5734 126.752 47.4226 124.292C49.1232 119.368 51.2678 113.486 53.0606 109.598C55.2014 104.956 59.5691 98.0673 63.0022 92.901Z" stroke="white"/>
<rect x="234.5" y="93.5" width="66" height="31" rx="1.5" stroke="white"/>
<rect x="106.5" y="93.5" width="40" height="31" rx="1.5" stroke="white"/>
<rect x="84.5" y="99.5" width="10" height="19" rx="1.5" stroke="white"/>
<rect x="238" y="116" width="12" height="5" rx="1" fill="#F2A900"/>
</svg>
