<svg width="236" height="210" viewBox="0 0 236 210" fill="none" xmlns="http://www.w3.org/2000/svg">
<path d="M104.463 156.006C70.0832 156.006 42.2129 127.688 42.2129 92.7564C42.2129 57.8243 70.0832 29.5063 104.463 29.5063C138.843 29.5063 166.713 57.8243 166.713 92.7564C166.713 127.688 138.843 156.006 104.463 156.006Z" stroke="white" stroke-width="1.5"/>
<path d="M104.463 149.381C73.1898 149.381 47.8379 124.029 47.8379 92.7564C47.8379 61.4832 73.1898 36.1313 104.463 36.1313C135.736 36.1313 161.088 61.4832 161.088 92.7564C161.088 124.029 135.736 149.381 104.463 149.381Z" stroke="white" stroke-width="0.75"/>
<path d="M103.963 185C53.1527 185 11.9629 143.81 11.9629 93C11.9629 42.1898 53.1527 1 103.963 1C154.773 1 195.963 42.1898 195.963 93C195.963 143.81 154.773 185 103.963 185Z" stroke="white" stroke-width="2"/>
<path d="M206.463 0V204C206.463 206.761 204.224 209 201.463 209H6.46289C3.70147 209 1.46289 206.761 1.46289 204V0" stroke="white" stroke-width="2"/>
<path d="M176.963 66.5H186.963C188.067 66.5 188.963 67.3954 188.963 68.5V122.5C188.963 123.605 188.067 124.5 186.963 124.5H176.963C175.858 124.5 174.963 123.605 174.963 122.5V68.5C174.963 67.3954 175.858 66.5 176.963 66.5Z" stroke="white"/>
<path fill-rule="evenodd" clip-rule="evenodd" d="M234.998 185.696C202.989 174.855 179.463 138.58 179.463 95.5C179.463 52.4193 202.99 16.1437 235 5.30322" fill="black"/>
<path d="M234.998 185.696C202.989 174.855 179.463 138.58 179.463 95.5C179.463 52.4193 202.99 16.1437 235 5.30322" stroke="white" stroke-width="2"/>
<path fill-rule="evenodd" clip-rule="evenodd" d="M234.955 156.785C213.767 148.276 198.462 123.83 198.462 95C198.462 66.1956 213.74 41.7673 234.899 33.2373" fill="black"/>
<path d="M234.955 156.785C213.767 148.276 198.462 123.83 198.462 95C198.462 66.1956 213.74 41.7673 234.899 33.2373" stroke="white"/>
<path opacity="0.5" d="M103.963 93.75C101.063 93.75 98.7129 91.3995 98.7129 88.5C98.7129 85.6005 101.063 83.25 103.963 83.25C106.862 83.25 109.213 85.6005 109.213 88.5C109.213 91.3995 106.862 93.75 103.963 93.75Z" stroke="white" stroke-width="0.5"/>
<path d="M181.713 81.25H190.213C190.765 81.25 191.213 81.6977 191.213 82.25V85.75C191.213 86.3023 190.765 86.75 190.213 86.75H181.713C181.161 86.75 180.713 86.3023 180.713 85.75V82.25C180.713 81.6977 181.161 81.25 181.713 81.25Z" stroke="white" stroke-width="0.5"/>
<path d="M181.713 104.25H190.213C190.765 104.25 191.213 104.698 191.213 105.25V108.75C191.213 109.302 190.765 109.75 190.213 109.75H181.713C181.161 109.75 180.713 109.302 180.713 108.75V105.25C180.713 104.698 181.161 104.25 181.713 104.25Z" stroke="white" stroke-width="0.5"/>
<path d="M203.428 39.9916L209.665 43.1695C210.157 43.4203 210.352 44.0225 210.102 44.5145L197.844 68.5717C197.593 69.0638 196.991 69.2595 196.499 69.0087L190.262 65.8308C189.77 65.5801 189.574 64.9779 189.825 64.4858L202.083 40.4286C202.333 39.9365 202.936 39.7409 203.428 39.9916Z" fill="#FFBB00"/>
<path opacity="0.5" d="M110.105 36.4844C107.131 61.9933 108.282 78.5216 113.556 86.0693C118.829 93.6169 133.798 101.513 158.463 109.756" stroke="white" stroke-width="0.5"/>
<path opacity="0.5" d="M97.7872 36.4844C100.783 61.9933 99.6439 78.5216 94.37 86.0693C89.0961 93.6169 74.4058 101.422 50.299 109.484" stroke="white" stroke-width="0.5"/>
<path opacity="0.5" d="M56.8356 123.716C79.3171 105.776 95.3707 97.1339 104.996 97.7912C114.622 98.4485 129.777 107.77 150.463 125.757" stroke="white" stroke-width="0.5"/>
</svg>
