<svg width="318" height="56" viewBox="0 0 318 56" fill="none" xmlns="http://www.w3.org/2000/svg">
<path d="M317 56H1C0.4 56 0 55.6 0 55V1C0 0.4 0.4 0 1 0H317C317.6 0 318 0.4 318 1V55C318 55.6 317.6 56 317 56ZM2 54H316V2H2V54Z" fill="white"/>
<path d="M158 40C150.3 40 144 33.7 144 26C144 18.3 150.3 12 158 12C165.7 12 172 18.3 172 26C172 33.7 165.7 40 158 40ZM158 13C150.8 13 145 18.8 145 26C145 33.2 150.8 39 158 39C165.2 39 171 33.2 171 26C171 18.8 165.2 13 158 13Z" fill="white"/>
<path d="M121.5 20C119 20 117 18 117 15.5C117 13 119 11 121.5 11C124 11 126 13 126 15.5C126 18 124 20 121.5 20Z" fill="#F2A900"/>
<path d="M121.5 41C119 41 117 39 117 36.5C117 34 119 32 121.5 32C124 32 126 34 126 36.5C126 39 124 41 121.5 41ZM121.5 33C119.6 33 118 34.6 118 36.5C118 38.4 119.6 40 121.5 40C123.4 40 125 38.4 125 36.5C125 34.6 123.4 33 121.5 33Z" fill="white"/>
<path d="M257.5 41C255 41 253 39 253 36.5C253 34 255 32 257.5 32C260 32 262 34 262 36.5C262 39 260 41 257.5 41ZM257.5 33C255.6 33 254 34.6 254 36.5C254 38.4 255.6 40 257.5 40C259.4 40 261 38.4 261 36.5C261 34.6 259.4 33 257.5 33Z" fill="white"/>
<path d="M271.5 41C269 41 267 39 267 36.5C267 34 269 32 271.5 32C274 32 276 34 276 36.5C276 39 274 41 271.5 41ZM271.5 33C269.6 33 268 34.6 268 36.5C268 38.4 269.6 40 271.5 40C273.4 40 275 38.4 275 36.5C275 34.6 273.4 33 271.5 33Z" fill="white"/>
<path d="M302.5 41C300 41 298 39 298 36.5C298 34 300 32 302.5 32C305 32 307 34 307 36.5C307 39 305 41 302.5 41ZM302.5 33C300.6 33 299 34.6 299 36.5C299 38.4 300.6 40 302.5 40C304.4 40 306 38.4 306 36.5C306 34.6 304.4 33 302.5 33Z" fill="white"/>
<path d="M302.5 20C300 20 298 18 298 15.5C298 13 300 11 302.5 11C305 11 307 13 307 15.5C307 18 305 20 302.5 20ZM302.5 12C300.6 12 299 13.6 299 15.5C299 17.4 300.6 19 302.5 19C304.4 19 306 17.4 306 15.5C306 13.6 304.4 12 302.5 12Z" fill="white"/>
<path d="M212.4 40.0002C214.278 40.0002 215.8 38.478 215.8 36.6002C215.8 34.7224 214.278 33.2002 212.4 33.2002C210.522 33.2002 209 34.7224 209 36.6002C209 38.478 210.522 40.0002 212.4 40.0002Z" fill="white"/>
<path d="M227.1 27.5998C228.978 27.5998 230.5 26.0776 230.5 24.1998C230.5 22.322 228.978 20.7998 227.1 20.7998C225.222 20.7998 223.7 22.322 223.7 24.1998C223.7 26.0776 225.222 27.5998 227.1 27.5998Z" fill="white"/>
<path d="M227 42C229.761 42 232 39.7614 232 37C232 34.2386 229.761 32 227 32C224.239 32 222 34.2386 222 37C222 39.7614 224.239 42 227 42Z" fill="#F2A900"/>
<path d="M227.1 8.5C225.2 8.5 223.7 10 223.7 11.9C223.7 13.8 225.2 15.3 227.1 15.3C229 15.3 230.5 13.8 230.5 11.9C230.5 10 229 8.5 227.1 8.5Z" fill="white"/>
<path d="M189 5V48H235V5H189ZM197.2 41C194.8 41 192.8 39 192.8 36.6C192.8 34.2 194.8 32.2 197.2 32.2C199.6 32.2 201.6 34.2 201.6 36.6C201.6 39 199.6 41 197.2 41ZM212.4 41C210 41 208 39 208 36.6C208 34.2 210 32.2 212.4 32.2C214.8 32.2 216.8 34.2 216.8 36.6C216.8 39 214.9 41 212.4 41ZM218 28H191V8H218V28ZM227.1 41C224.7 41 222.7 39 222.7 36.6C222.7 34.2 224.7 32.2 227.1 32.2C229.5 32.2 231.5 34.2 231.5 36.6C231.5 39 229.5 41 227.1 41ZM227.1 28.6C224.7 28.6 222.7 26.6 222.7 24.2C222.7 21.8 224.7 19.8 227.1 19.8C229.5 19.8 231.5 21.8 231.5 24.2C231.5 26.6 229.5 28.6 227.1 28.6ZM227.1 16.3C224.7 16.3 222.7 14.3 222.7 11.9C222.7 9.5 224.7 7.5 227.1 7.5C229.5 7.5 231.5 9.5 231.5 11.9C231.5 14.3 229.5 16.3 227.1 16.3Z" fill="white"/>
<path d="M197.2 40.0002C199.078 40.0002 200.6 38.478 200.6 36.6002C200.6 34.7224 199.078 33.2002 197.2 33.2002C195.322 33.2002 193.8 34.7224 193.8 36.6002C193.8 38.478 195.322 40.0002 197.2 40.0002Z" fill="white"/>
<path d="M108 56H1C0.4 56 0 55.6 0 55V1C0 0.4 0.4 0 1 0H108C108.6 0 109 0.4 109 1V55C109 55.6 108.6 56 108 56ZM2 54H107V2H2V54Z" fill="white"/>
<path d="M82.5 48H24.5C22 48 20 46 20 43.5V30.5C20 30.2 20.2 30 20.5 30H86.5C86.8 30 87 30.2 87 30.5V43.5C87 46 85 48 82.5 48ZM21 31V43.5C21 45.4 22.6 47 24.5 47H82.5C84.4 47 86 45.4 86 43.5V31H21Z" fill="white"/>
<path d="M236 5V48H249V5H236ZM242.2 41C239.8 41 237.8 39 237.8 36.6C237.8 34.2 239.8 32.2 242.2 32.2C244.6 32.2 246.6 34.2 246.6 36.6C246.6 39 244.7 41 242.2 41Z" fill="white"/>
<path d="M242.2 33.2002C240.3 33.2002 238.8 34.7002 238.8 36.6002C238.8 38.5002 240.3 40.0002 242.2 40.0002C244.1 40.0002 245.6 38.5002 245.6 36.6002C245.6 34.7002 244.1 33.2002 242.2 33.2002Z" fill="white"/>
<path d="M158 43C148.6 43 141 35.4 141 26C141 16.6 148.6 9 158 9C167.4 9 175 16.6 175 26C175 35.4 167.4 43 158 43ZM158 10C149.2 10 142 17.2 142 26C142 34.8 149.2 42 158 42C166.8 42 174 34.8 174 26C174 17.2 166.8 10 158 10Z" fill="white"/>
<rect x="191" y="8" width="27" height="20" fill="#F2A900"/>
</svg>
