<svg width="19" height="15" viewBox="0 0 19 15" fill="none" xmlns="http://www.w3.org/2000/svg">
<path fill-rule="evenodd" clip-rule="evenodd" d="M9.37498 14.8738L9.50045 15L9.62502 14.8729L11.4116 12.7138C10.8943 12.2638 10.2324 11.9815 9.50045 11.9815C8.76762 11.9815 8.1048 12.2638 7.58745 12.7138L9.37498 14.8738ZM4.97435 9.55588C6.23817 8.46176 7.82294 7.86176 9.50045 7.86176C11.1761 7.86176 12.7609 8.46176 14.0257 9.55588L15.1785 8.16265C13.591 6.79059 11.6035 6.03794 9.50045 6.03794C7.39652 6.03794 5.40805 6.79059 3.82146 8.16265L4.97435 9.55676V9.55588ZM0 3.54529C2.65311 1.25294 5.98086 0 9.50045 0C13.0191 0 16.3469 1.25294 19 3.54529L17.8435 4.94382C15.5122 2.92853 12.5918 1.82382 9.50045 1.82382C6.4091 1.82382 3.48777 2.92853 1.15653 4.94294L0 3.54529Z" fill="#F2A900"/>
</svg>
