<svg width="318" height="56" viewBox="0 0 318 56" fill="none" xmlns="http://www.w3.org/2000/svg">
<path d="M317 56H1C0.4 56 0 55.6 0 55V1C0 0.4 0.4 0 1 0H317C317.6 0 318 0.4 318 1V55C318 55.6 317.6 56 317 56ZM2 54H316V2H2V54Z" fill="white"/>
<path d="M157.8 41.5C149.9 41.5 143.6 35.1 143.6 27.3C143.6 19.5 149.9 13 157.8 13C165.7 13 172 19.4 172 27.2C172 35 165.6 41.5 157.8 41.5ZM157.8 14C150.5 14 144.6 19.9 144.6 27.2C144.6 34.5 150.5 40.4 157.8 40.4C165.1 40.4 171 34.5 171 27.2C171 19.9 165.1 14 157.8 14Z" fill="white"/>
<path d="M121.5 20.6998C118.9 20.6998 116.8 18.5998 116.8 15.9998C116.8 13.3998 118.9 11.2998 121.5 11.2998C124.1 11.2998 126.2 13.3998 126.2 15.9998C126.2 18.5998 124 20.6998 121.5 20.6998ZM121.5 12.2998C119.5 12.2998 117.8 13.8998 117.8 15.9998C117.8 18.0998 119.4 19.6998 121.5 19.6998C123.6 19.6998 125.2 18.0998 125.2 15.9998C125.2 13.8998 123.5 12.2998 121.5 12.2998Z" fill="white"/>
<path d="M121.5 41.6999C119.1 41.6999 117.1 39.6999 117.1 37.2999C117.1 34.8999 119.1 32.8999 121.5 32.8999C123.9 32.8999 125.9 34.8999 125.9 37.2999C125.9 39.7999 123.9 41.6999 121.5 41.6999ZM121.5 33.8999C119.6 33.8999 118.1 35.3999 118.1 37.2999C118.1 39.1999 119.6 40.6999 121.5 40.6999C123.4 40.6999 124.9 39.1999 124.9 37.2999C124.9 35.3999 123.3 33.8999 121.5 33.8999Z" fill="white"/>
<path d="M221 5V48H234V5H221ZM227.5 41.8C225.1 41.8 223.1 39.8 223.1 37.4C223.1 35 225.1 33 227.5 33C229.9 33 231.9 35 231.9 37.4C231.9 39.8 229.9 41.8 227.5 41.8Z" fill="white"/>
<path d="M227.5 34C225.6 34 224.1 35.5 224.1 37.4C224.1 39.3 225.6 40.8 227.5 40.8C229.4 40.8 230.9 39.3 230.9 37.4C230.9 35.5 229.4 34 227.5 34Z" fill="white"/>
<path d="M242.1 41.6999C239.7 41.6999 237.7 39.6999 237.7 37.2999C237.7 34.8999 239.7 32.8999 242.1 32.8999C244.5 32.8999 246.5 34.8999 246.5 37.2999C246.5 39.7999 244.5 41.6999 242.1 41.6999ZM242.1 33.8999C240.2 33.8999 238.7 35.3999 238.7 37.2999C238.7 39.1999 240.2 40.6999 242.1 40.6999C244 40.6999 245.5 39.1999 245.5 37.2999C245.5 35.3999 244 33.8999 242.1 33.8999Z" fill="white"/>
<path d="M257 41.6999C254.6 41.6999 252.6 39.6999 252.6 37.2999C252.6 34.8999 254.6 32.8999 257 32.8999C259.4 32.8999 261.4 34.8999 261.4 37.2999C261.4 39.7999 259.5 41.6999 257 41.6999ZM257 33.8999C255.1 33.8999 253.6 35.3999 253.6 37.2999C253.6 39.1999 255.1 40.6999 257 40.6999C258.9 40.6999 260.4 39.1999 260.4 37.2999C260.4 35.3999 258.9 33.8999 257 33.8999Z" fill="white"/>
<path d="M271.4 41.8C269 41.8 267 39.8 267 37.4C267 35 269 33 271.4 33C273.8 33 275.8 35 275.8 37.4C275.8 39.9 273.8 41.8 271.4 41.8Z" fill="#F2A900"/>
<path d="M302.1 20.4001C299.7 20.4001 297.7 18.4001 297.7 16.0001C297.7 13.6001 299.7 11.6001 302.1 11.6001C304.5 11.6001 306.5 13.6001 306.5 16.0001C306.5 18.4001 304.5 20.4001 302.1 20.4001Z" fill="#F2A900"/>
<path d="M196.7 33.8999C194.8 33.8999 193.3 35.3999 193.3 37.2999C193.3 39.1999 194.8 40.6999 196.7 40.6999C198.6 40.6999 200.1 39.1999 200.1 37.2999C200.1 35.3999 198.6 33.8999 196.7 33.8999Z" fill="white"/>
<path d="M188 5V48H220V5H188ZM212.7 12C213.1 12 213.4 12.3 213.4 12.7C213.4 13.1 213.1 13.4 212.7 13.4C212.3 13.4 212 13.1 212 12.7C212 12.3 212.3 12 212.7 12ZM204.3 12C204.7 12 205 12.3 205 12.7C205 13.1 204.7 13.4 204.3 13.4C203.9 13.4 203.6 13.1 203.6 12.7C203.6 12.3 203.9 12 204.3 12ZM196.1 12C196.5 12 196.8 12.3 196.8 12.7C196.8 13.1 196.5 13.4 196.1 13.4C195.7 13.4 195.4 13.1 195.4 12.7C195.4 12.3 195.7 12 196.1 12ZM196.7 41.7C194.3 41.7 192.3 39.7 192.3 37.3C192.3 34.9 194.3 32.9 196.7 32.9C199.1 32.9 201.1 34.9 201.1 37.3C201.2 39.8 199.2 41.7 196.7 41.7ZM212 41.7C209.6 41.7 207.6 39.7 207.6 37.3C207.6 34.9 209.6 32.9 212 32.9C214.4 32.9 216.4 34.9 216.4 37.3C216.4 39.8 214.5 41.7 212 41.7ZM218 28H191V17H218V28Z" fill="white"/>
<path d="M212 33.8999C210.1 33.8999 208.6 35.3999 208.6 37.2999C208.6 39.1999 210.1 40.6999 212 40.6999C213.9 40.6999 215.4 39.1999 215.4 37.2999C215.4 35.3999 213.9 33.8999 212 33.8999Z" fill="white"/>
<path d="M108 56H1C0.5 56 0 55.6 0 55V1C0 0.4 0.4 0 1 0H108C108.5 0 109 0.4 109 1V55C109 55.6 108.6 56 108 56ZM2 54H107V2H2V54Z" fill="white"/>
<path d="M82.5 49H24.5C22 49 20 47 20 44.5V31.5C20 31.2 20.2 31 20.5 31H86.5C86.8 31 87 31.2 87 31.5V44.5C87 47 85 49 82.5 49ZM21 32V44.5C21 46.4 22.6 48 24.5 48H82.5C84.4 48 86 46.4 86 44.5V32H21Z" fill="white"/>
<path d="M157.8 44.2002C148.4 44.2002 140.8 36.6002 140.8 27.2002C140.8 17.8002 148.4 10.2002 157.8 10.2002C167.2 10.2002 174.8 17.8002 174.8 27.2002C174.8 36.6002 167.1 44.2002 157.8 44.2002ZM157.8 11.2002C149 11.2002 141.8 18.4002 141.8 27.2002C141.8 36.0002 149 43.2002 157.8 43.2002C166.6 43.2002 173.8 36.0002 173.8 27.2002C173.8 18.4002 166.6 11.2002 157.8 11.2002Z" fill="white"/>
</svg>
