<svg width="182" height="105" viewBox="0 0 182 105" fill="none" xmlns="http://www.w3.org/2000/svg">
<rect x="1.5" y="1.5" width="179" height="102" rx="18.5" stroke="#DBDBDB" stroke-width="3"/>
<path d="M61.768 43.76V46.736H55.848V66H52.2V46.736H46.248V43.76H61.768ZM81.6225 56.752C81.6225 57.4133 81.5798 58.0107 81.4945 58.544H68.0225C68.1292 59.952 68.6518 61.0827 69.5905 61.936C70.5292 62.7893 71.6812 63.216 73.0465 63.216C75.0092 63.216 76.3958 62.3947 77.2065 60.752H81.1425C80.6092 62.3733 79.6385 63.7067 78.2305 64.752C76.8438 65.776 75.1158 66.288 73.0465 66.288C71.3612 66.288 69.8465 65.9147 68.5025 65.168C67.1798 64.4 66.1345 63.3333 65.3665 61.968C64.6198 60.5813 64.2465 58.9813 64.2465 57.168C64.2465 55.3547 64.6092 53.7653 65.3345 52.4C66.0812 51.0133 67.1158 49.9467 68.4385 49.2C69.7825 48.4533 71.3185 48.08 73.0465 48.08C74.7105 48.08 76.1932 48.4427 77.4945 49.168C78.7958 49.8933 79.8092 50.9173 80.5345 52.24C81.2598 53.5413 81.6225 55.0453 81.6225 56.752ZM77.8145 55.6C77.7932 54.256 77.3132 53.1787 76.3745 52.368C75.4358 51.5573 74.2732 51.152 72.8865 51.152C71.6278 51.152 70.5505 51.5573 69.6545 52.368C68.7585 53.1573 68.2252 54.2347 68.0545 55.6H77.8145ZM106.557 48.08C107.943 48.08 109.181 48.368 110.269 48.944C111.378 49.52 112.242 50.3733 112.861 51.504C113.501 52.6347 113.821 54 113.821 55.6V66H110.205V56.144C110.205 54.5653 109.81 53.36 109.021 52.528C108.231 51.6747 107.154 51.248 105.789 51.248C104.423 51.248 103.335 51.6747 102.525 52.528C101.735 53.36 101.341 54.5653 101.341 56.144V66H97.7245V56.144C97.7245 54.5653 97.3298 53.36 96.5405 52.528C95.7512 51.6747 94.6738 51.248 93.3085 51.248C91.9432 51.248 90.8552 51.6747 90.0445 52.528C89.2552 53.36 88.8605 54.5653 88.8605 56.144V66H85.2125V48.368H88.8605V50.384C89.4578 49.6587 90.2152 49.0933 91.1325 48.688C92.0498 48.2827 93.0312 48.08 94.0765 48.08C95.4845 48.08 96.7432 48.3787 97.8525 48.976C98.9618 49.5733 99.8152 50.4373 100.413 51.568C100.946 50.5013 101.778 49.6587 102.909 49.04C104.039 48.4 105.255 48.08 106.557 48.08ZM122.111 50.96C122.729 50.1493 123.572 49.4667 124.639 48.912C125.705 48.3573 126.911 48.08 128.255 48.08C129.791 48.08 131.188 48.464 132.447 49.232C133.727 49.9787 134.729 51.0347 135.455 52.4C136.18 53.7653 136.543 55.3333 136.543 57.104C136.543 58.8747 136.18 60.464 135.455 61.872C134.729 63.2587 133.727 64.3467 132.447 65.136C131.188 65.904 129.791 66.288 128.255 66.288C126.911 66.288 125.716 66.0213 124.671 65.488C123.625 64.9333 122.772 64.2507 122.111 63.44V74.384H118.463V48.368H122.111V50.96ZM132.831 57.104C132.831 55.888 132.575 54.8427 132.062 53.968C131.572 53.072 130.911 52.4 130.079 51.952C129.268 51.4827 128.393 51.248 127.455 51.248C126.537 51.248 125.663 51.4827 124.831 51.952C124.02 52.4213 123.359 53.104 122.847 54C122.356 54.896 122.111 55.952 122.111 57.168C122.111 58.384 122.356 59.4507 122.847 60.368C123.359 61.264 124.02 61.9467 124.831 62.416C125.663 62.8853 126.537 63.12 127.455 63.12C128.393 63.12 129.268 62.8853 130.079 62.416C130.911 61.9253 131.572 61.2213 132.062 60.304C132.575 59.3867 132.831 58.32 132.831 57.104Z" fill="#DBDBDB"/>
<g filter="url(#filter0_d_522_132)">
<path d="M90.8015 26.3848C91.482 26.3848 92.0992 26.6612 92.5449 27.1069C92.9911 27.5531 93.267 28.1698 93.267 28.8506C93.267 29.5311 92.9911 30.1478 92.5449 30.594C92.0992 31.0397 91.482 31.3161 90.8015 31.3161C90.1213 31.3161 89.5043 31.0397 89.0586 30.594C88.6124 30.1478 88.3365 29.5311 88.3365 28.8506C88.3365 28.1696 88.6124 27.5529 89.0586 27.1069L89.09 27.078C89.5338 26.6491 90.1376 26.3848 90.8015 26.3848ZM84.6115 23.1827C86.343 21.523 88.5732 20.6917 90.8018 20.6917C93.0425 20.6917 95.2853 21.5308 97.02 23.2087L97.155 23.3382C97.4326 23.6223 97.5756 23.9935 97.5817 24.3668C97.5878 24.7529 97.4469 25.1421 97.1599 25.4399L96.9645 25.6418C96.6757 25.9408 96.2901 26.0946 95.903 26.1012C95.5184 26.1072 95.1282 25.9674 94.8299 25.6793L94.729 25.582C93.6349 24.5237 92.2185 23.9941 90.8018 23.9941C89.3856 23.9941 87.9692 24.523 86.8764 25.5806L86.7759 25.6779C86.4771 25.9671 86.0864 26.108 85.6979 26.1017C85.3098 26.0939 84.9264 25.9399 84.6391 25.6424L84.4401 25.4363C84.1549 25.1385 84.0163 24.7512 84.0223 24.3644C84.0301 23.9768 84.1841 23.5931 84.4817 23.3061L84.6115 23.1827ZM80.5506 19.1977C83.3956 16.3993 87.0989 15 90.8021 15C94.5047 15 98.2087 16.3994 101.053 19.1977L101.153 19.2952C101.449 19.5859 101.6 19.9728 101.603 20.3594C101.605 20.7462 101.462 21.1347 101.171 21.4303L100.941 21.6634C100.653 21.9378 100.28 22.077 99.9079 22.0799C99.5233 22.0828 99.135 21.939 98.8394 21.648L98.739 21.5493C96.5379 19.385 93.6695 18.3018 90.8018 18.3018C87.9334 18.3018 85.0651 19.385 82.864 21.5493L82.7302 21.6799C82.439 21.9492 82.0653 22.0828 81.695 22.0799C81.3094 22.077 80.9235 21.9278 80.6321 21.6337L80.4319 21.4303C80.1411 21.1337 79.9974 20.7452 80 20.3594C80.0034 19.9725 80.154 19.5862 80.4504 19.2952L80.5506 19.1977Z" fill="#F2A900"/>
</g>
<defs>
<filter id="filter0_d_522_132" x="75" y="10" width="31.603" height="26.3159" filterUnits="userSpaceOnUse" color-interpolation-filters="sRGB">
<feFlood flood-opacity="0" result="BackgroundImageFix"/>
<feColorMatrix in="SourceAlpha" type="matrix" values="0 0 0 0 0 0 0 0 0 0 0 0 0 0 0 0 0 0 127 0" result="hardAlpha"/>
<feOffset/>
<feGaussianBlur stdDeviation="2.5"/>
<feComposite in2="hardAlpha" operator="out"/>
<feColorMatrix type="matrix" values="0 0 0 0 0.94902 0 0 0 0 0.662745 0 0 0 0 0 0 0 0 1 0"/>
<feBlend mode="normal" in2="BackgroundImageFix" result="effect1_dropShadow_522_132"/>
<feBlend mode="normal" in="SourceGraphic" in2="effect1_dropShadow_522_132" result="shape"/>
</filter>
</defs>
</svg>
