<svg width="375" height="232" viewBox="0 0 375 232" fill="none" xmlns="http://www.w3.org/2000/svg">
<rect width="375" height="232" fill="black"/>
<path d="M201.537 168.006C235.917 168.006 263.787 139.688 263.787 104.756C263.787 69.8243 235.917 41.5063 201.537 41.5063C167.158 41.5063 139.287 69.8243 139.287 104.756C139.287 139.688 167.158 168.006 201.537 168.006Z" stroke="white" stroke-width="1.5"/>
<path d="M201.537 161.381C232.81 161.381 258.162 136.029 258.162 104.756C258.162 73.4832 232.81 48.1313 201.537 48.1313C170.264 48.1313 144.912 73.4832 144.912 104.756C144.912 136.029 170.264 161.381 201.537 161.381Z" stroke="white" stroke-width="0.75"/>
<path d="M202.037 197C252.847 197 294.037 155.81 294.037 105C294.037 54.1898 252.847 13 202.037 13C151.227 13 110.037 54.1898 110.037 105C110.037 155.81 151.227 197 202.037 197Z" stroke="white" stroke-width="2"/>
<path d="M99.5372 12V216C99.5372 218.761 101.776 221 104.537 221H299.537C302.299 221 304.537 218.761 304.537 216V12" stroke="white" stroke-width="2"/>
<path d="M129.037 78.5H119.037C117.933 78.5 117.037 79.3954 117.037 80.5V134.5C117.037 135.605 117.933 136.5 119.037 136.5H129.037C130.142 136.5 131.037 135.605 131.037 134.5V80.5C131.037 79.3954 130.142 78.5 129.037 78.5Z" stroke="white"/>
<path fill-rule="evenodd" clip-rule="evenodd" d="M71.0017 197.696C103.011 186.855 126.537 150.58 126.537 107.5C126.537 64.4193 103.01 28.1437 71 17.3032" fill="black"/>
<path d="M71.0017 197.696C103.011 186.855 126.537 150.58 126.537 107.5C126.537 64.4193 103.01 28.1437 71 17.3032" stroke="white" stroke-width="2"/>
<path fill-rule="evenodd" clip-rule="evenodd" d="M71.0446 168.785C92.233 160.276 107.537 135.83 107.537 107C107.537 78.1956 92.2601 53.7673 71.1009 45.2373" fill="black"/>
<path d="M71.0446 168.785C92.233 160.276 107.537 135.83 107.537 107C107.537 78.1956 92.2601 53.7673 71.1009 45.2373" stroke="white"/>
<path opacity="0.5" d="M202.037 105.75C204.937 105.75 207.287 103.399 207.287 100.5C207.287 97.6005 204.937 95.25 202.037 95.25C199.138 95.25 196.787 97.6005 196.787 100.5C196.787 103.399 199.138 105.75 202.037 105.75Z" stroke="white" stroke-width="0.5"/>
<path d="M124.287 93.25H115.787C115.235 93.25 114.787 93.6977 114.787 94.25V97.75C114.787 98.3023 115.235 98.75 115.787 98.75H124.287C124.84 98.75 125.287 98.3023 125.287 97.75V94.25C125.287 93.6977 124.84 93.25 124.287 93.25Z" stroke="white" stroke-width="0.5"/>
<path d="M124.287 116.25H115.787C115.235 116.25 114.787 116.698 114.787 117.25V120.75C114.787 121.302 115.235 121.75 115.787 121.75H124.287C124.84 121.75 125.287 121.302 125.287 120.75V117.25C125.287 116.698 124.84 116.25 124.287 116.25Z" stroke="white" stroke-width="0.5"/>
<path d="M102.573 51.9916L96.3358 55.1695C95.8437 55.4203 95.6481 56.0225 95.8988 56.5145L108.157 80.5717C108.407 81.0638 109.009 81.2595 109.502 81.0087L115.739 77.8308C116.231 77.5801 116.426 76.9779 116.176 76.4858L103.918 52.4286C103.667 51.9365 103.065 51.7409 102.573 51.9916Z" fill="#FFBB00"/>
<path opacity="0.5" d="M195.895 48.4844C198.869 73.9933 197.718 90.5216 192.445 98.0693C187.171 105.617 172.202 113.513 147.537 121.756" stroke="white" stroke-width="0.5"/>
<path opacity="0.5" d="M208.213 48.4844C205.217 73.9933 206.356 90.5216 211.63 98.0693C216.904 105.617 231.594 113.422 255.701 121.484" stroke="white" stroke-width="0.5"/>
<path opacity="0.5" d="M249.165 135.716C226.683 117.776 210.629 109.134 201.004 109.791C191.378 110.449 176.223 119.77 155.537 137.757" stroke="white" stroke-width="0.5"/>
</svg>
