<svg width="375" height="232" viewBox="0 0 375 232" fill="none" xmlns="http://www.w3.org/2000/svg">
<rect width="375" height="232" fill="black"/>
<rect x="18" y="34" width="340" height="164" rx="15" stroke="white" stroke-width="2"/>
<path fill-rule="evenodd" clip-rule="evenodd" d="M190.661 57.9199L190.786 58.0251L190.911 57.9191L192.697 56.1181C192.18 55.7427 191.518 55.5072 190.786 55.5072C190.053 55.5072 189.39 55.7427 188.873 56.1181L190.661 57.9199ZM186.26 53.4838C187.524 52.5711 189.109 52.0706 190.786 52.0706C192.462 52.0706 194.047 52.5711 195.311 53.4838L196.464 52.3216C194.877 51.1771 192.889 50.5492 190.786 50.5492C188.682 50.5492 186.694 51.1771 185.107 52.3216L186.26 53.4845V53.4838ZM181.286 48.47C183.939 46.5577 187.267 45.5126 190.786 45.5126C194.305 45.5126 197.633 46.5577 200.286 48.47L199.129 49.6366C196.798 47.9555 193.877 47.034 190.786 47.034C187.695 47.034 184.773 47.9555 182.442 49.6358L181.286 48.47Z" fill="white"/>
<path d="M147.123 67.1689L143.827 78.2889H141.763L139.427 69.8729L136.947 78.2889L134.899 78.3049L131.747 67.1689H133.683L135.987 76.2249L138.483 67.1689H140.531L142.851 76.1769L145.171 67.1689H147.123ZM150.772 67.1689V78.2889H148.948V67.1689H150.772ZM160.03 67.1689V68.6569H155.31V71.9369H158.99V73.4249H155.31V78.2889H153.486V67.1689H160.03ZM163.865 67.1689V78.2889H162.041V67.1689H163.865ZM170.448 72.7049C170.448 71.6169 170.698 70.6409 171.2 69.7769C171.712 68.9129 172.4 68.2409 173.264 67.7609C174.138 67.2703 175.093 67.0249 176.128 67.0249C177.312 67.0249 178.362 67.3183 179.28 67.9049C180.208 68.4809 180.88 69.3023 181.296 70.3689H179.104C178.816 69.7823 178.416 69.3449 177.904 69.0569C177.392 68.7689 176.8 68.6249 176.128 68.6249C175.392 68.6249 174.736 68.7903 174.16 69.1209C173.584 69.4516 173.13 69.9263 172.8 70.5449C172.48 71.1636 172.32 71.8836 172.32 72.7049C172.32 73.5263 172.48 74.2463 172.8 74.8649C173.13 75.4836 173.584 75.9636 174.16 76.3049C174.736 76.6356 175.392 76.8009 176.128 76.8009C176.8 76.8009 177.392 76.6569 177.904 76.3689C178.416 76.0809 178.816 75.6436 179.104 75.0569H181.296C180.88 76.1236 180.208 76.9449 179.28 77.5209C178.362 78.0969 177.312 78.3849 176.128 78.3849C175.082 78.3849 174.128 78.1449 173.264 77.6649C172.4 77.1743 171.712 76.4969 171.2 75.6329C170.698 74.7689 170.448 73.7929 170.448 72.7049ZM188.823 78.4009C187.788 78.4009 186.833 78.1609 185.959 77.6809C185.095 77.1903 184.407 76.5129 183.895 75.6489C183.393 74.7743 183.143 73.7929 183.143 72.7049C183.143 71.6169 183.393 70.6409 183.895 69.7769C184.407 68.9129 185.095 68.2409 185.959 67.7609C186.833 67.2703 187.788 67.0249 188.823 67.0249C189.868 67.0249 190.823 67.2703 191.687 67.7609C192.561 68.2409 193.249 68.9129 193.751 69.7769C194.252 70.6409 194.503 71.6169 194.503 72.7049C194.503 73.7929 194.252 74.7743 193.751 75.6489C193.249 76.5129 192.561 77.1903 191.687 77.6809C190.823 78.1609 189.868 78.4009 188.823 78.4009ZM188.823 76.8169C189.559 76.8169 190.215 76.6516 190.791 76.3209C191.367 75.9796 191.815 75.4996 192.135 74.8809C192.465 74.2516 192.631 73.5263 192.631 72.7049C192.631 71.8836 192.465 71.1636 192.135 70.5449C191.815 69.9263 191.367 69.4516 190.791 69.1209C190.215 68.7903 189.559 68.6249 188.823 68.6249C188.087 68.6249 187.431 68.7903 186.855 69.1209C186.279 69.4516 185.825 69.9263 185.495 70.5449C185.175 71.1636 185.015 71.8836 185.015 72.7049C185.015 73.5263 185.175 74.2516 185.495 74.8809C185.825 75.4996 186.279 75.9796 186.855 76.3209C187.431 76.6516 188.087 76.8169 188.823 76.8169ZM205.754 78.2889H203.93L198.442 69.9849V78.2889H196.618V67.1529H198.442L203.93 75.4409V67.1529H205.754V78.2889ZM217.605 78.2889H215.781L210.293 69.9849V78.2889H208.469V67.1529H210.293L215.781 75.4409V67.1529H217.605V78.2889ZM222.144 68.6409V71.9049H225.984V73.3929H222.144V76.8009H226.464V78.2889H220.32V67.1529H226.464V68.6409H222.144ZM228.423 72.7049C228.423 71.6169 228.673 70.6409 229.175 69.7769C229.687 68.9129 230.375 68.2409 231.239 67.7609C232.113 67.2703 233.068 67.0249 234.103 67.0249C235.287 67.0249 236.337 67.3183 237.255 67.9049C238.183 68.4809 238.855 69.3023 239.271 70.3689H237.079C236.791 69.7823 236.391 69.3449 235.879 69.0569C235.367 68.7689 234.775 68.6249 234.103 68.6249C233.367 68.6249 232.711 68.7903 232.135 69.1209C231.559 69.4516 231.105 69.9263 230.775 70.5449C230.455 71.1636 230.295 71.8836 230.295 72.7049C230.295 73.5263 230.455 74.2463 230.775 74.8649C231.105 75.4836 231.559 75.9636 232.135 76.3049C232.711 76.6356 233.367 76.8009 234.103 76.8009C234.775 76.8009 235.367 76.6569 235.879 76.3689C236.391 76.0809 236.791 75.6436 237.079 75.0569H239.271C238.855 76.1236 238.183 76.9449 237.255 77.5209C236.337 78.0969 235.287 78.3849 234.103 78.3849C233.057 78.3849 232.103 78.1449 231.239 77.6649C230.375 77.1743 229.687 76.4969 229.175 75.6329C228.673 74.7689 228.423 73.7929 228.423 72.7049ZM248.91 67.1689V68.6569H245.95V78.2889H244.126V68.6569H241.15V67.1689H248.91Z" fill="white"/>
<path opacity="0.25" d="M152.357 143.941C151.797 143.941 151.293 143.845 150.845 143.653C150.397 143.453 150.045 143.173 149.789 142.813C149.533 142.453 149.405 142.033 149.405 141.553H150.869C150.901 141.913 151.041 142.209 151.289 142.441C151.545 142.673 151.901 142.789 152.357 142.789C152.829 142.789 153.197 142.677 153.461 142.453C153.725 142.221 153.857 141.925 153.857 141.565C153.857 141.285 153.773 141.057 153.605 140.881C153.445 140.705 153.241 140.569 152.993 140.473C152.753 140.377 152.417 140.273 151.985 140.161C151.441 140.017 150.997 139.873 150.653 139.729C150.317 139.577 150.029 139.345 149.789 139.033C149.549 138.721 149.429 138.305 149.429 137.785C149.429 137.305 149.549 136.885 149.789 136.525C150.029 136.165 150.365 135.889 150.797 135.697C151.229 135.505 151.729 135.409 152.297 135.409C153.105 135.409 153.765 135.613 154.277 136.021C154.797 136.421 155.085 136.973 155.141 137.677H153.629C153.605 137.373 153.461 137.113 153.197 136.897C152.933 136.681 152.585 136.573 152.153 136.573C151.761 136.573 151.441 136.673 151.193 136.873C150.945 137.073 150.821 137.361 150.821 137.737C150.821 137.993 150.897 138.205 151.049 138.373C151.209 138.533 151.409 138.661 151.649 138.757C151.889 138.853 152.217 138.957 152.633 139.069C153.185 139.221 153.633 139.373 153.977 139.525C154.329 139.677 154.625 139.913 154.865 140.233C155.113 140.545 155.237 140.965 155.237 141.493C155.237 141.917 155.121 142.317 154.889 142.693C154.665 143.069 154.333 143.373 153.893 143.605C153.461 143.829 152.949 143.941 152.357 143.941ZM159.839 143.941C159.279 143.941 158.775 143.845 158.327 143.653C157.879 143.453 157.527 143.173 157.271 142.813C157.015 142.453 156.887 142.033 156.887 141.553H158.351C158.383 141.913 158.523 142.209 158.771 142.441C159.027 142.673 159.383 142.789 159.839 142.789C160.311 142.789 160.679 142.677 160.943 142.453C161.207 142.221 161.339 141.925 161.339 141.565C161.339 141.285 161.255 141.057 161.087 140.881C160.927 140.705 160.723 140.569 160.475 140.473C160.235 140.377 159.899 140.273 159.467 140.161C158.923 140.017 158.479 139.873 158.135 139.729C157.799 139.577 157.511 139.345 157.271 139.033C157.031 138.721 156.911 138.305 156.911 137.785C156.911 137.305 157.031 136.885 157.271 136.525C157.511 136.165 157.847 135.889 158.279 135.697C158.711 135.505 159.211 135.409 159.779 135.409C160.587 135.409 161.247 135.613 161.759 136.021C162.279 136.421 162.567 136.973 162.623 137.677H161.111C161.087 137.373 160.943 137.113 160.679 136.897C160.415 136.681 160.067 136.573 159.635 136.573C159.243 136.573 158.923 136.673 158.675 136.873C158.427 137.073 158.303 137.361 158.303 137.737C158.303 137.993 158.379 138.205 158.531 138.373C158.691 138.533 158.891 138.661 159.131 138.757C159.371 138.853 159.699 138.957 160.115 139.069C160.667 139.221 161.115 139.373 161.459 139.525C161.811 139.677 162.107 139.913 162.347 140.233C162.595 140.545 162.719 140.965 162.719 141.493C162.719 141.917 162.603 142.317 162.371 142.693C162.147 143.069 161.815 143.373 161.375 143.605C160.943 143.829 160.431 143.941 159.839 143.941ZM165.942 135.517V143.857H164.574V135.517H165.942ZM170.702 135.517C171.59 135.517 172.366 135.689 173.03 136.033C173.702 136.369 174.218 136.857 174.578 137.497C174.946 138.129 175.13 138.869 175.13 139.717C175.13 140.565 174.946 141.301 174.578 141.925C174.218 142.549 173.702 143.029 173.03 143.365C172.366 143.693 171.59 143.857 170.702 143.857H167.978V135.517H170.702ZM170.702 142.741C171.678 142.741 172.426 142.477 172.946 141.949C173.466 141.421 173.726 140.677 173.726 139.717C173.726 138.749 173.466 137.993 172.946 137.449C172.426 136.905 171.678 136.633 170.702 136.633H169.346V142.741H170.702ZM180.635 143.941C180.387 143.941 180.179 143.857 180.011 143.689C179.843 143.521 179.759 143.313 179.759 143.065C179.759 142.817 179.843 142.609 180.011 142.441C180.179 142.273 180.387 142.189 180.635 142.189C180.875 142.189 181.079 142.273 181.247 142.441C181.415 142.609 181.499 142.817 181.499 143.065C181.499 143.313 181.415 143.521 181.247 143.689C181.079 143.857 180.875 143.941 180.635 143.941ZM180.635 138.901C180.387 138.901 180.179 138.817 180.011 138.649C179.843 138.481 179.759 138.273 179.759 138.025C179.759 137.777 179.843 137.569 180.011 137.401C180.179 137.233 180.387 137.149 180.635 137.149C180.875 137.149 181.079 137.233 181.247 137.401C181.415 137.569 181.499 137.777 181.499 138.025C181.499 138.273 181.415 138.481 181.247 138.649C181.079 138.817 180.875 138.901 180.635 138.901ZM190.449 139.693L193.041 143.857H191.505L189.621 140.833L187.857 143.857H186.333L188.925 139.693L186.321 135.517H187.857L189.753 138.565L191.529 135.517H193.053L190.449 139.693ZM198.611 139.693L201.203 143.857H199.667L197.783 140.833L196.019 143.857H194.495L197.087 139.693L194.483 135.517H196.019L197.915 138.565L199.691 135.517H201.215L198.611 139.693ZM206.773 139.693L209.365 143.857H207.829L205.945 140.833L204.181 143.857H202.657L205.249 139.693L202.645 135.517H204.181L206.077 138.565L207.853 135.517H209.377L206.773 139.693ZM214.935 139.693L217.527 143.857H215.991L214.107 140.833L212.343 143.857H210.819L213.411 139.693L210.807 135.517H212.343L214.239 138.565L216.015 135.517H217.539L214.935 139.693ZM223.097 139.693L225.689 143.857H224.153L222.269 140.833L220.505 143.857H218.981L221.573 139.693L218.969 135.517H220.505L222.401 138.565L224.177 135.517H225.701L223.097 139.693Z" fill="white"/>
<path d="M122.999 167.197C122.999 167.621 122.899 168.021 122.699 168.397C122.499 168.773 122.179 169.081 121.739 169.321C121.299 169.553 120.735 169.669 120.047 169.669H118.535V173.053H117.167V164.713H120.047C120.687 164.713 121.227 164.825 121.667 165.049C122.115 165.265 122.447 165.561 122.663 165.937C122.887 166.313 122.999 166.733 122.999 167.197ZM120.047 168.553C120.567 168.553 120.955 168.437 121.211 168.205C121.467 167.965 121.595 167.629 121.595 167.197C121.595 166.285 121.079 165.829 120.047 165.829H118.535V168.553H120.047ZM124.088 169.717C124.088 169.053 124.224 168.465 124.496 167.953C124.776 167.441 125.152 167.045 125.624 166.765C126.104 166.477 126.632 166.333 127.208 166.333C127.728 166.333 128.18 166.437 128.564 166.645C128.956 166.845 129.268 167.097 129.5 167.401V166.441H130.88V173.053H129.5V172.069C129.268 172.381 128.952 172.641 128.552 172.849C128.152 173.057 127.696 173.161 127.184 173.161C126.616 173.161 126.096 173.017 125.624 172.729C125.152 172.433 124.776 172.025 124.496 171.505C124.224 170.977 124.088 170.381 124.088 169.717ZM129.5 169.741C129.5 169.285 129.404 168.889 129.212 168.553C129.028 168.217 128.784 167.961 128.48 167.785C128.176 167.609 127.848 167.521 127.496 167.521C127.144 167.521 126.816 167.609 126.512 167.785C126.208 167.953 125.96 168.205 125.768 168.541C125.584 168.869 125.492 169.261 125.492 169.717C125.492 170.173 125.584 170.573 125.768 170.917C125.96 171.261 126.208 171.525 126.512 171.709C126.824 171.885 127.152 171.973 127.496 171.973C127.848 171.973 128.176 171.885 128.48 171.709C128.784 171.533 129.028 171.277 129.212 170.941C129.404 170.597 129.5 170.197 129.5 169.741ZM135.316 173.161C134.796 173.161 134.328 173.069 133.912 172.885C133.504 172.693 133.18 172.437 132.94 172.117C132.7 171.789 132.572 171.425 132.556 171.025H133.972C133.996 171.305 134.128 171.541 134.368 171.733C134.616 171.917 134.924 172.009 135.292 172.009C135.676 172.009 135.972 171.937 136.18 171.793C136.396 171.641 136.504 171.449 136.504 171.217C136.504 170.969 136.384 170.785 136.144 170.665C135.912 170.545 135.54 170.413 135.028 170.269C134.532 170.133 134.128 170.001 133.816 169.873C133.504 169.745 133.232 169.549 133 169.285C132.776 169.021 132.664 168.673 132.664 168.241C132.664 167.889 132.768 167.569 132.976 167.281C133.184 166.985 133.48 166.753 133.864 166.585C134.256 166.417 134.704 166.333 135.208 166.333C135.96 166.333 136.564 166.525 137.02 166.909C137.484 167.285 137.732 167.801 137.764 168.457H136.396C136.372 168.161 136.252 167.925 136.036 167.749C135.82 167.573 135.528 167.485 135.16 167.485C134.8 167.485 134.524 167.553 134.332 167.689C134.14 167.825 134.044 168.005 134.044 168.229C134.044 168.405 134.108 168.553 134.236 168.673C134.364 168.793 134.52 168.889 134.704 168.961C134.888 169.025 135.16 169.109 135.52 169.213C136 169.341 136.392 169.473 136.696 169.609C137.008 169.737 137.276 169.929 137.5 170.185C137.724 170.441 137.84 170.781 137.848 171.205C137.848 171.581 137.744 171.917 137.536 172.213C137.328 172.509 137.032 172.741 136.648 172.909C136.272 173.077 135.828 173.161 135.316 173.161ZM141.967 173.161C141.447 173.161 140.979 173.069 140.563 172.885C140.155 172.693 139.831 172.437 139.591 172.117C139.351 171.789 139.223 171.425 139.207 171.025H140.623C140.647 171.305 140.779 171.541 141.019 171.733C141.267 171.917 141.575 172.009 141.943 172.009C142.327 172.009 142.623 171.937 142.831 171.793C143.047 171.641 143.155 171.449 143.155 171.217C143.155 170.969 143.035 170.785 142.795 170.665C142.563 170.545 142.191 170.413 141.679 170.269C141.183 170.133 140.779 170.001 140.467 169.873C140.155 169.745 139.883 169.549 139.651 169.285C139.427 169.021 139.315 168.673 139.315 168.241C139.315 167.889 139.419 167.569 139.627 167.281C139.835 166.985 140.131 166.753 140.515 166.585C140.907 166.417 141.355 166.333 141.859 166.333C142.611 166.333 143.215 166.525 143.671 166.909C144.135 167.285 144.383 167.801 144.415 168.457H143.047C143.023 168.161 142.903 167.925 142.687 167.749C142.471 167.573 142.179 167.485 141.811 167.485C141.451 167.485 141.175 167.553 140.983 167.689C140.791 167.825 140.695 168.005 140.695 168.229C140.695 168.405 140.759 168.553 140.887 168.673C141.015 168.793 141.171 168.889 141.355 168.961C141.539 169.025 141.811 169.109 142.171 169.213C142.651 169.341 143.043 169.473 143.347 169.609C143.659 169.737 143.927 169.929 144.151 170.185C144.375 170.441 144.491 170.781 144.499 171.205C144.499 171.581 144.395 171.917 144.187 172.213C143.979 172.509 143.683 172.741 143.299 172.909C142.923 173.077 142.479 173.161 141.967 173.161ZM155.097 166.441L153.045 173.053H151.605L150.273 168.169L148.941 173.053H147.501L145.437 166.441H146.829L148.209 171.757L149.613 166.441H151.041L152.385 171.733L153.753 166.441H155.097ZM159.227 173.161C158.603 173.161 158.039 173.021 157.535 172.741C157.031 172.453 156.635 172.053 156.347 171.541C156.059 171.021 155.915 170.421 155.915 169.741C155.915 169.069 156.063 168.473 156.359 167.953C156.655 167.433 157.059 167.033 157.571 166.753C158.083 166.473 158.655 166.333 159.287 166.333C159.919 166.333 160.491 166.473 161.003 166.753C161.515 167.033 161.919 167.433 162.215 167.953C162.511 168.473 162.659 169.069 162.659 169.741C162.659 170.413 162.507 171.009 162.203 171.529C161.899 172.049 161.483 172.453 160.955 172.741C160.435 173.021 159.859 173.161 159.227 173.161ZM159.227 171.973C159.579 171.973 159.907 171.889 160.211 171.721C160.523 171.553 160.775 171.301 160.967 170.965C161.159 170.629 161.255 170.221 161.255 169.741C161.255 169.261 161.163 168.857 160.979 168.529C160.795 168.193 160.551 167.941 160.247 167.773C159.943 167.605 159.615 167.521 159.263 167.521C158.911 167.521 158.583 167.605 158.279 167.773C157.983 167.941 157.747 168.193 157.571 168.529C157.395 168.857 157.307 169.261 157.307 169.741C157.307 170.453 157.487 171.005 157.847 171.397C158.215 171.781 158.675 171.973 159.227 171.973ZM165.619 167.401C165.819 167.065 166.083 166.805 166.411 166.621C166.747 166.429 167.143 166.333 167.599 166.333V167.749H167.251C166.715 167.749 166.307 167.885 166.027 168.157C165.755 168.429 165.619 168.901 165.619 169.573V173.053H164.251V166.441H165.619V167.401ZM168.641 169.717C168.641 169.053 168.777 168.465 169.049 167.953C169.329 167.441 169.705 167.045 170.177 166.765C170.657 166.477 171.189 166.333 171.773 166.333C172.205 166.333 172.629 166.429 173.045 166.621C173.469 166.805 173.805 167.053 174.053 167.365V164.173H175.433V173.053H174.053V172.057C173.829 172.377 173.517 172.641 173.117 172.849C172.725 173.057 172.273 173.161 171.761 173.161C171.185 173.161 170.657 173.017 170.177 172.729C169.705 172.433 169.329 172.025 169.049 171.505C168.777 170.977 168.641 170.381 168.641 169.717ZM174.053 169.741C174.053 169.285 173.957 168.889 173.765 168.553C173.581 168.217 173.337 167.961 173.033 167.785C172.729 167.609 172.401 167.521 172.049 167.521C171.697 167.521 171.369 167.609 171.065 167.785C170.761 167.953 170.513 168.205 170.321 168.541C170.137 168.869 170.045 169.261 170.045 169.717C170.045 170.173 170.137 170.573 170.321 170.917C170.513 171.261 170.761 171.525 171.065 171.709C171.377 171.885 171.705 171.973 172.049 171.973C172.401 171.973 172.729 171.885 173.033 171.709C173.337 171.533 173.581 171.277 173.765 170.941C173.957 170.597 174.053 170.197 174.053 169.741ZM181.379 173.137C181.131 173.137 180.923 173.053 180.755 172.885C180.587 172.717 180.503 172.509 180.503 172.261C180.503 172.013 180.587 171.805 180.755 171.637C180.923 171.469 181.131 171.385 181.379 171.385C181.619 171.385 181.823 171.469 181.991 171.637C182.159 171.805 182.243 172.013 182.243 172.261C182.243 172.509 182.159 172.717 181.991 172.885C181.823 173.053 181.619 173.137 181.379 173.137ZM181.379 168.097C181.131 168.097 180.923 168.013 180.755 167.845C180.587 167.677 180.503 167.469 180.503 167.221C180.503 166.973 180.587 166.765 180.755 166.597C180.923 166.429 181.131 166.345 181.379 166.345C181.619 166.345 181.823 166.429 181.991 166.597C182.159 166.765 182.243 166.973 182.243 167.221C182.243 167.469 182.159 167.677 181.991 167.845C181.823 168.013 181.619 168.097 181.379 168.097ZM194.025 164.713V173.053H192.657V169.405H188.733V173.053H187.365V164.713H188.733V168.289H192.657V164.713H194.025ZM195.61 169.717C195.61 169.053 195.746 168.465 196.018 167.953C196.298 167.441 196.674 167.045 197.146 166.765C197.626 166.477 198.158 166.333 198.742 166.333C199.174 166.333 199.598 166.429 200.014 166.621C200.438 166.805 200.774 167.053 201.022 167.365V164.173H202.402V173.053H201.022V172.057C200.798 172.377 200.486 172.641 200.086 172.849C199.694 173.057 199.242 173.161 198.73 173.161C198.154 173.161 197.626 173.017 197.146 172.729C196.674 172.433 196.298 172.025 196.018 171.505C195.746 170.977 195.61 170.381 195.61 169.717ZM201.022 169.741C201.022 169.285 200.926 168.889 200.734 168.553C200.55 168.217 200.306 167.961 200.002 167.785C199.698 167.609 199.37 167.521 199.018 167.521C198.666 167.521 198.338 167.609 198.034 167.785C197.73 167.953 197.482 168.205 197.29 168.541C197.106 168.869 197.014 169.261 197.014 169.717C197.014 170.173 197.106 170.573 197.29 170.917C197.482 171.261 197.73 171.525 198.034 171.709C198.346 171.885 198.674 171.973 199.018 171.973C199.37 171.973 199.698 171.885 200.002 171.709C200.306 171.533 200.55 171.277 200.734 170.941C200.926 170.597 201.022 170.197 201.022 169.741ZM205.963 170.677C206.043 171.077 206.215 171.381 206.479 171.589C206.743 171.797 207.099 171.901 207.547 171.901C208.115 171.901 208.531 171.677 208.795 171.229C209.059 170.781 209.191 170.017 209.191 168.937C208.999 169.209 208.727 169.421 208.375 169.573C208.031 169.717 207.655 169.789 207.247 169.789C206.727 169.789 206.255 169.685 205.831 169.477C205.407 169.261 205.071 168.945 204.823 168.529C204.583 168.105 204.463 167.593 204.463 166.993C204.463 166.113 204.719 165.413 205.231 164.893C205.751 164.365 206.463 164.101 207.367 164.101C208.455 164.101 209.227 164.465 209.683 165.193C210.147 165.913 210.379 167.021 210.379 168.517C210.379 169.549 210.291 170.393 210.115 171.049C209.947 171.705 209.651 172.201 209.227 172.537C208.803 172.873 208.215 173.041 207.463 173.041C206.607 173.041 205.947 172.817 205.483 172.369C205.019 171.921 204.759 171.357 204.703 170.677H205.963ZM207.487 168.637C207.967 168.637 208.343 168.489 208.615 168.193C208.895 167.889 209.035 167.489 209.035 166.993C209.035 166.441 208.887 166.013 208.591 165.709C208.303 165.397 207.907 165.241 207.403 165.241C206.899 165.241 206.499 165.401 206.203 165.721C205.915 166.033 205.771 166.445 205.771 166.957C205.771 167.445 205.911 167.849 206.191 168.169C206.479 168.481 206.911 168.637 207.487 168.637ZM212.116 168.565C212.116 167.181 212.348 166.101 212.812 165.325C213.284 164.541 214.092 164.149 215.236 164.149C216.38 164.149 217.184 164.541 217.648 165.325C218.12 166.101 218.356 167.181 218.356 168.565C218.356 169.965 218.12 171.061 217.648 171.853C217.184 172.637 216.38 173.029 215.236 173.029C214.092 173.029 213.284 172.637 212.812 171.853C212.348 171.061 212.116 169.965 212.116 168.565ZM217.012 168.565C217.012 167.917 216.968 167.369 216.88 166.921C216.8 166.473 216.632 166.109 216.376 165.829C216.12 165.541 215.74 165.397 215.236 165.397C214.732 165.397 214.352 165.541 214.096 165.829C213.84 166.109 213.668 166.473 213.58 166.921C213.5 167.369 213.46 167.917 213.46 168.565C213.46 169.237 213.5 169.801 213.58 170.257C213.66 170.713 213.828 171.081 214.084 171.361C214.348 171.641 214.732 171.781 215.236 171.781C215.74 171.781 216.12 171.641 216.376 171.361C216.64 171.081 216.812 170.713 216.892 170.257C216.972 169.801 217.012 169.237 217.012 168.565ZM220.8 171.193C221.568 170.529 222.172 169.985 222.612 169.561C223.06 169.129 223.432 168.681 223.728 168.217C224.024 167.753 224.172 167.289 224.172 166.825C224.172 166.345 224.056 165.969 223.824 165.697C223.6 165.425 223.244 165.289 222.756 165.289C222.284 165.289 221.916 165.441 221.652 165.745C221.396 166.041 221.26 166.441 221.244 166.945H219.924C219.948 166.033 220.22 165.337 220.74 164.857C221.268 164.369 221.936 164.125 222.744 164.125C223.616 164.125 224.296 164.365 224.784 164.845C225.28 165.325 225.528 165.965 225.528 166.765C225.528 167.341 225.38 167.897 225.084 168.433C224.796 168.961 224.448 169.437 224.04 169.861C223.64 170.277 223.128 170.761 222.504 171.313L221.964 171.793H225.768V172.933H219.936V171.937L220.8 171.193ZM231.914 166.333C231.826 165.965 231.666 165.689 231.434 165.505C231.202 165.321 230.878 165.229 230.462 165.229C229.83 165.229 229.358 165.473 229.046 165.961C228.734 166.441 228.57 167.241 228.554 168.361C228.762 168.009 229.066 167.737 229.466 167.545C229.866 167.353 230.298 167.257 230.762 167.257C231.29 167.257 231.754 167.373 232.154 167.605C232.562 167.829 232.878 168.157 233.102 168.589C233.334 169.021 233.45 169.537 233.45 170.137C233.45 170.697 233.338 171.197 233.114 171.637C232.898 172.077 232.574 172.425 232.142 172.681C231.71 172.929 231.19 173.053 230.582 173.053C229.758 173.053 229.11 172.873 228.638 172.513C228.174 172.145 227.846 171.629 227.654 170.965C227.47 170.301 227.378 169.473 227.378 168.481C227.378 165.553 228.41 164.089 230.474 164.089C231.274 164.089 231.902 164.305 232.358 164.737C232.822 165.169 233.094 165.701 233.174 166.333H231.914ZM230.462 168.409C229.974 168.409 229.558 168.557 229.214 168.853C228.878 169.141 228.71 169.561 228.71 170.113C228.71 170.665 228.866 171.105 229.178 171.433C229.498 171.753 229.942 171.913 230.51 171.913C231.014 171.913 231.41 171.757 231.698 171.445C231.994 171.133 232.142 170.717 232.142 170.197C232.142 169.653 231.998 169.221 231.71 168.901C231.43 168.573 231.014 168.409 230.462 168.409ZM240.357 171.349H236.865L236.265 173.053H234.837L237.825 164.701H239.409L242.397 173.053H240.957L240.357 171.349ZM239.973 170.233L238.617 166.357L237.249 170.233H239.973ZM247.272 166.333C247.792 166.333 248.256 166.441 248.664 166.657C249.08 166.873 249.404 167.193 249.636 167.617C249.868 168.041 249.984 168.553 249.984 169.153V173.053H248.628V169.357C248.628 168.765 248.48 168.313 248.184 168.001C247.888 167.681 247.484 167.521 246.972 167.521C246.46 167.521 246.052 167.681 245.748 168.001C245.452 168.313 245.304 168.765 245.304 169.357V173.053H243.936V166.441H245.304V167.197C245.528 166.925 245.812 166.713 246.156 166.561C246.508 166.409 246.88 166.333 247.272 166.333ZM257.429 165.481H253.409V167.869C253.577 167.645 253.825 167.457 254.153 167.305C254.489 167.153 254.845 167.077 255.221 167.077C255.893 167.077 256.437 167.221 256.853 167.509C257.277 167.797 257.577 168.161 257.753 168.601C257.937 169.041 258.029 169.505 258.029 169.993C258.029 170.585 257.913 171.113 257.681 171.577C257.457 172.033 257.117 172.393 256.661 172.657C256.213 172.921 255.661 173.053 255.005 173.053C254.133 173.053 253.433 172.837 252.905 172.405C252.377 171.973 252.061 171.401 251.957 170.689H253.289C253.377 171.065 253.573 171.365 253.877 171.589C254.181 171.805 254.561 171.913 255.017 171.913C255.585 171.913 256.009 171.741 256.289 171.397C256.577 171.053 256.721 170.597 256.721 170.029C256.721 169.453 256.577 169.013 256.289 168.709C256.001 168.397 255.577 168.241 255.017 168.241C254.625 168.241 254.293 168.341 254.021 168.541C253.757 168.733 253.565 168.997 253.445 169.333H252.149V164.281H257.429V165.481Z" fill="white"/>
<path opacity="0.25" d="M141.06 109.657V117.997H139.692V112.285L137.148 117.997H136.2L133.644 112.285V117.997H132.276V109.657H133.752L136.68 116.197L139.596 109.657H141.06ZM148.126 116.293H144.634L144.034 117.997H142.606L145.594 109.645H147.178L150.166 117.997H148.726L148.126 116.293ZM147.742 115.177L146.386 111.301L145.018 115.177H147.742ZM151.249 113.809C151.249 112.993 151.437 112.261 151.813 111.613C152.197 110.965 152.713 110.461 153.361 110.101C154.017 109.733 154.733 109.549 155.509 109.549C156.397 109.549 157.185 109.769 157.873 110.209C158.569 110.641 159.073 111.257 159.385 112.057H157.741C157.525 111.617 157.225 111.289 156.841 111.073C156.457 110.857 156.013 110.749 155.509 110.749C154.957 110.749 154.465 110.873 154.033 111.121C153.601 111.369 153.261 111.725 153.013 112.189C152.773 112.653 152.653 113.193 152.653 113.809C152.653 114.425 152.773 114.965 153.013 115.429C153.261 115.893 153.601 116.253 154.033 116.509C154.465 116.757 154.957 116.881 155.509 116.881C156.013 116.881 156.457 116.773 156.841 116.557C157.225 116.341 157.525 116.013 157.741 115.573H159.385C159.073 116.373 158.569 116.989 157.873 117.421C157.185 117.853 156.397 118.069 155.509 118.069C154.725 118.069 154.009 117.889 153.361 117.529C152.713 117.161 152.197 116.653 151.813 116.005C151.437 115.357 151.249 114.625 151.249 113.809ZM165.951 109.657V117.997H164.583V109.657H165.951ZM170.712 109.657C171.6 109.657 172.376 109.829 173.04 110.173C173.712 110.509 174.228 110.997 174.588 111.637C174.956 112.269 175.14 113.009 175.14 113.857C175.14 114.705 174.956 115.441 174.588 116.065C174.228 116.689 173.712 117.169 173.04 117.505C172.376 117.833 171.6 117.997 170.712 117.997H167.988V109.657H170.712ZM170.712 116.881C171.688 116.881 172.436 116.617 172.956 116.089C173.476 115.561 173.736 114.817 173.736 113.857C173.736 112.889 173.476 112.133 172.956 111.589C172.436 111.045 171.688 110.773 170.712 110.773H169.356V116.881H170.712ZM180.645 118.081C180.397 118.081 180.189 117.997 180.021 117.829C179.853 117.661 179.769 117.453 179.769 117.205C179.769 116.957 179.853 116.749 180.021 116.581C180.189 116.413 180.397 116.329 180.645 116.329C180.885 116.329 181.089 116.413 181.257 116.581C181.425 116.749 181.509 116.957 181.509 117.205C181.509 117.453 181.425 117.661 181.257 117.829C181.089 117.997 180.885 118.081 180.645 118.081ZM180.645 113.041C180.397 113.041 180.189 112.957 180.021 112.789C179.853 112.621 179.769 112.413 179.769 112.165C179.769 111.917 179.853 111.709 180.021 111.541C180.189 111.373 180.397 111.289 180.645 111.289C180.885 111.289 181.089 111.373 181.257 111.541C181.425 111.709 181.509 111.917 181.509 112.165C181.509 112.413 181.425 112.621 181.257 112.789C181.089 112.957 180.885 113.041 180.645 113.041ZM190.459 113.833L193.051 117.997H191.515L189.631 114.973L187.867 117.997H186.343L188.935 113.833L186.331 109.657H187.867L189.763 112.705L191.539 109.657H193.063L190.459 113.833ZM198.621 113.833L201.213 117.997H199.677L197.793 114.973L196.029 117.997H194.505L197.097 113.833L194.493 109.657H196.029L197.925 112.705L199.701 109.657H201.225L198.621 113.833ZM206.783 113.833L209.375 117.997H207.839L205.955 114.973L204.191 117.997H202.667L205.259 113.833L202.655 109.657H204.191L206.087 112.705L207.863 109.657H209.387L206.783 113.833ZM214.945 113.833L217.537 117.997H216.001L214.117 114.973L212.353 117.997H210.829L213.421 113.833L210.817 109.657H212.353L214.249 112.705L216.025 109.657H217.549L214.945 113.833ZM223.107 113.833L225.699 117.997H224.163L222.279 114.973L220.515 117.997H218.991L221.583 113.833L218.979 109.657H220.515L222.411 112.705L224.187 109.657H225.711L223.107 113.833ZM231.268 113.833L233.86 117.997H232.324L230.44 114.973L228.676 117.997H227.152L229.744 113.833L227.14 109.657H228.676L230.572 112.705L232.348 109.657H233.872L231.268 113.833ZM239.43 113.833L242.022 117.997H240.486L238.602 114.973L236.838 117.997H235.314L237.906 113.833L235.302 109.657H236.838L238.734 112.705L240.51 109.657H242.034L239.43 113.833Z" fill="white"/>
<rect x="110" y="159.126" width="156" height="18.8543" rx="3" stroke="#FFBB00" stroke-width="2"/>
</svg>
