<svg width="318" height="56" viewBox="0 0 318 56" fill="none" xmlns="http://www.w3.org/2000/svg">
<path d="M317 56H1C0.4 56 0 55.6 0 55V1C0 0.4 0.4 0 1 0H317C317.6 0 318 0.4 318 1V55C318 55.6 317.6 56 317 56ZM2 54H316V2H2V54Z" fill="white"/>
<path d="M246.9 42C239.2 42 232.9 35.7 232.9 28C232.9 20.3 239.2 14 246.9 14C254.6 14 260.9 20.3 260.9 28C260.9 35.7 254.6 42 246.9 42ZM246.9 15C239.7 15 233.9 20.8 233.9 28C233.9 35.2 239.7 41 246.9 41C254.1 41 259.9 35.2 259.9 28C259.9 20.8 254 15 246.9 15Z" fill="white"/>
<path d="M107.3 56H1C0.5 56 0 55.6 0 55V1C0 0.4 0.4 0 1 0H107.3C107.8 0 108.3 0.4 108.3 1V55C108.3 55.6 107.9 56 107.3 56ZM2 54H106.3V2H2V54Z" fill="white"/>
<path d="M82.5 48H24.5C22 48 20 46 20 43.5V30.5C20 30.2 20.2 30 20.5 30H86.5C86.8 30 87 30.2 87 30.5V43.5C87 46 85 48 82.5 48ZM21 31V43.5C21 45.4 22.6 47 24.5 47H82.5C84.4 47 86 45.4 86 43.5V31H21Z" fill="white"/>
<path d="M246.9 45C237.5 45 229.9 37.4 229.9 28C229.9 18.6 237.5 11 246.9 11C256.3 11 263.9 18.6 263.9 28C263.9 37.4 256.2 45 246.9 45ZM246.9 12C238.1 12 230.9 19.2 230.9 28C230.9 36.8 238.1 44 246.9 44C255.7 44 262.9 36.8 262.9 28C262.9 19.2 255.7 12 246.9 12Z" fill="white"/>
<path d="M297.1 31.7H282.2C281.076 31.7 280.2 30.8239 280.2 29.7V27C280.2 25.8761 281.076 25 282.2 25H297.1C298.224 25 299.1 25.8761 299.1 27V29.7C299.1 30.811 298.137 31.7 297.1 31.7Z" fill="#F2A900" stroke="white"/>
<path d="M178.5 24.5008H136.1C135.3 24.5008 134.6 23.8008 134.6 23.0008V11.3008C134.6 10.5008 135.3 9.80078 136.1 9.80078H178.5C179.3 9.80078 180 10.5008 180 11.3008V23.0008C180 23.8008 179.3 24.5008 178.5 24.5008ZM136.1 10.8008C135.8 10.8008 135.6 11.0008 135.6 11.3008V23.0008C135.6 23.3008 135.8 23.5008 136.1 23.5008H178.5C178.8 23.5008 179 23.3008 179 23.0008V11.3008C179 11.0008 178.8 10.8008 178.5 10.8008H136.1Z" fill="white"/>
<path d="M207.6 33.6992H109.4V34.6992H207.6V33.6992Z" fill="white"/>
<path d="M114.4 38.8008C114.1 38.8008 113.9 38.6008 113.9 38.3008V37.3008C113.9 37.0008 114.1 36.8008 114.4 36.8008C114.7 36.8008 114.9 37.0008 114.9 37.3008V38.3008C114.9 38.6008 114.7 38.8008 114.4 38.8008Z" fill="white"/>
<path d="M114.4 45.0996C114.1 45.0996 113.9 44.8996 113.9 44.5996V43.5996C113.9 43.2996 114.1 43.0996 114.4 43.0996C114.7 43.0996 114.9 43.2996 114.9 43.5996V44.5996C114.9 44.8996 114.7 45.0996 114.4 45.0996Z" fill="white"/>
<path d="M130.3 38.8008C130 38.8008 129.8 38.6008 129.8 38.3008V37.3008C129.8 37.0008 130 36.8008 130.3 36.8008C130.6 36.8008 130.8 37.0008 130.8 37.3008V38.3008C130.8 38.6008 130.5 38.8008 130.3 38.8008Z" fill="white"/>
<path d="M130.3 45.0996C130 45.0996 129.8 44.8996 129.8 44.5996V43.5996C129.8 43.2996 130 43.0996 130.3 43.0996C130.6 43.0996 130.8 43.2996 130.8 43.5996V44.5996C130.8 44.8996 130.5 45.0996 130.3 45.0996Z" fill="white"/>
<path d="M146.2 38.8008C145.9 38.8008 145.7 38.6008 145.7 38.3008V37.3008C145.7 37.0008 145.9 36.8008 146.2 36.8008C146.5 36.8008 146.7 37.0008 146.7 37.3008V38.3008C146.7 38.6008 146.5 38.8008 146.2 38.8008Z" fill="white"/>
<path d="M146.2 45.0996C145.9 45.0996 145.7 44.8996 145.7 44.5996V43.5996C145.7 43.2996 145.9 43.0996 146.2 43.0996C146.5 43.0996 146.7 43.2996 146.7 43.5996V44.5996C146.7 44.8996 146.5 45.0996 146.2 45.0996Z" fill="white"/>
<path d="M162.2 38.8008C161.9 38.8008 161.7 38.6008 161.7 38.3008V37.3008C161.7 37.0008 161.9 36.8008 162.2 36.8008C162.5 36.8008 162.7 37.0008 162.7 37.3008V38.3008C162.7 38.6008 162.5 38.8008 162.2 38.8008Z" fill="white"/>
<path d="M162.2 45.0996C161.9 45.0996 161.7 44.8996 161.7 44.5996V43.5996C161.7 43.2996 161.9 43.0996 162.2 43.0996C162.5 43.0996 162.7 43.2996 162.7 43.5996V44.5996C162.7 44.8996 162.5 45.0996 162.2 45.0996Z" fill="white"/>
<path d="M194.2 38.8008C193.9 38.8008 193.7 38.6008 193.7 38.3008V37.3008C193.7 37.0008 193.9 36.8008 194.2 36.8008C194.5 36.8008 194.7 37.0008 194.7 37.3008V38.3008C194.7 38.6008 194.5 38.8008 194.2 38.8008Z" fill="white"/>
<path d="M194.2 45.0996C193.9 45.0996 193.7 44.8996 193.7 44.5996V43.5996C193.7 43.2996 193.9 43.0996 194.2 43.0996C194.5 43.0996 194.7 43.2996 194.7 43.5996V44.5996C194.7 44.8996 194.5 45.0996 194.2 45.0996Z" fill="white"/>
<path d="M178.2 38.8008C177.9 38.8008 177.7 38.6008 177.7 38.3008V37.3008C177.7 37.0008 177.9 36.8008 178.2 36.8008C178.5 36.8008 178.7 37.0008 178.7 37.3008V38.3008C178.7 38.6008 178.4 38.8008 178.2 38.8008Z" fill="white"/>
<path d="M178.2 45.0996C177.9 45.0996 177.7 44.8996 177.7 44.5996V43.5996C177.7 43.2996 177.9 43.0996 178.2 43.0996C178.5 43.0996 178.7 43.2996 178.7 43.5996V44.5996C178.7 44.8996 178.4 45.0996 178.2 45.0996Z" fill="white"/>
</svg>
