<svg width="21" height="12" viewBox="0 0 21 12" fill="none" xmlns="http://www.w3.org/2000/svg">
<g clip-path="url(#clip0_5665_18650)">
<path d="M0 12V0L10.0435 6L0 12Z" fill="#F2A900"/>
<path d="M15.7152 11.7322C15.7152 11.9197 15.6184 12 15.3971 12H13.2527C13.0314 12 12.9346 11.9197 12.9346 11.7322V0.254468C12.9346 0.0803604 13.0314 0 13.2527 0H15.3971C15.6184 0 15.7152 0.0803604 15.7152 0.254468V11.7322Z" fill="#F2A900"/>
<path d="M21.0002 11.7322C21.0002 11.9197 20.9034 12 20.682 12H18.5377C18.3164 12 18.2334 11.9197 18.2334 11.7322V0.254468C18.2334 0.0803604 18.3164 0 18.5377 0H20.682C20.9034 0 21.0002 0.0803604 21.0002 0.254468V11.7322Z" fill="#F2A900"/>
</g>
<defs>
<clipPath id="clip0_5665_18650">
<rect width="21" height="12" fill="white"/>
</clipPath>
</defs>
</svg>
