<svg width="23" height="20" viewBox="0 0 23 20" fill="none" xmlns="http://www.w3.org/2000/svg">
<g clip-path="url(#clip0_5665_18646)">
<path d="M10.1899 0.54071C11.0456 0.540788 11.8994 0.62113 12.74 0.780701C11.9915 1.30874 11.1054 1.60754 10.1899 1.64069C9.27397 1.61044 8.38709 1.31137 7.63989 0.780701C8.48045 0.620661 9.33428 0.540314 10.1899 0.54071V0.54071ZM4.06006 8.21069L1.88989 7.01068L3.95996 3.7807L4.75 6.94067L4.06006 8.21069ZM12.5698 14.0607H6.03003V8.86072C5.54003 6.86072 5.03005 4.86072 4.55005 2.86072L7.25 2.32068C7.73605 2.6017 8.25732 2.81693 8.80005 2.96069C9.25319 3.08398 9.72033 3.14785 10.1899 3.1507C10.6595 3.14785 11.1267 3.08398 11.5798 2.96069C11.8729 2.8802 12.1604 2.77998 12.4399 2.66071C12.6767 2.56153 12.907 2.44796 13.1299 2.32068L15.8298 2.86072C15.3298 4.86072 14.8298 6.86072 14.3398 8.86072V12.9707H15.6899V10.1107L20.3999 7.51068L16.6599 1.68073L14 1.17072H13.9199C13.9218 1.14742 13.9218 1.124 13.9199 1.10071L13.46 0.410706C12.3909 0.136934 11.2934 -0.0107404 10.1899 -0.0292969C9.10551 -0.0277671 8.02496 0.0997595 6.96997 0.350708L6.51001 1.04071V1.11072H6.43994L3.78003 1.62073L0.0400391 7.45068L4.75 10.0507V14.8007C4.74948 14.877 4.76426 14.9525 4.79346 15.0229C4.82266 15.0934 4.86561 15.1572 4.91992 15.2107C5.02557 15.318 5.16927 15.3791 5.31982 15.3807H12.6199L12.5698 14.0607ZM16.3198 8.21069L15.6299 6.94067L16.4099 3.7807L18.49 7.01068L16.3198 8.21069Z" fill="#F2A900"/>
<path d="M17.29 16.1307H14.8899C14.6432 16.1307 14.4068 16.0327 14.2324 15.8583C14.058 15.6839 13.96 15.4473 13.96 15.2007C13.96 14.954 14.058 14.7175 14.2324 14.5431C14.4068 14.3687 14.6432 14.2707 14.8899 14.2707H17.29V11.9707C17.29 11.7055 17.3952 11.4511 17.5828 11.2636C17.7703 11.0761 18.0248 10.9707 18.29 10.9707C18.5553 10.9707 18.8095 11.0761 18.9971 11.2636C19.1846 11.4511 19.29 11.7055 19.29 11.9707V14.3207H21.6899C21.9366 14.3207 22.1732 14.4187 22.3477 14.5931C22.5221 14.7675 22.6199 15.0041 22.6199 15.2507C22.6199 15.4974 22.5221 15.7339 22.3477 15.9083C22.1732 16.0827 21.9366 16.1807 21.6899 16.1807H19.1899V18.5207C19.1899 18.7859 19.0845 19.0402 18.897 19.2278C18.7094 19.4153 18.4552 19.5207 18.1899 19.5207C17.9247 19.5207 17.6704 19.4153 17.4829 19.2278C17.2954 19.0402 17.1899 18.7859 17.1899 18.5207L17.29 16.1307Z" fill="#F2A900"/>
</g>
<defs>
<clipPath id="clip0_5665_18646">
<rect width="22.54" height="19.43" fill="white"/>
</clipPath>
</defs>
</svg>
