<svg width="325" height="67" viewBox="0 0 325 67" fill="none" xmlns="http://www.w3.org/2000/svg">
<path fill-rule="evenodd" clip-rule="evenodd" d="M249.562 49.2558C258.139 49.2558 265.093 42.3022 265.093 33.7246C265.093 25.147 258.139 18.1935 249.562 18.1935C240.984 18.1935 234.031 25.147 234.031 33.7246C234.031 42.3022 240.984 49.2558 249.562 49.2558ZM249.562 49.6995C258.384 49.6995 265.537 42.5473 265.537 33.7246C265.537 24.902 258.384 17.7498 249.562 17.7498C240.739 17.7498 233.587 24.902 233.587 33.7246C233.587 42.5473 240.739 49.6995 249.562 49.6995Z" fill="white"/>
<path d="M273.08 32.9637C273.08 32.4036 273.544 31.9495 274.115 31.9495H290.682C291.254 31.9495 291.717 32.4036 291.717 32.9637V38.0351C291.717 38.5953 291.254 39.0494 290.682 39.0494H274.115C273.544 39.0494 273.08 38.5953 273.08 38.0351V32.9637Z" fill="#F2A900"/>
<path fill-rule="evenodd" clip-rule="evenodd" d="M272.637 32.9639C272.637 32.1501 273.308 31.5059 274.116 31.5059H290.682C291.491 31.5059 292.162 32.1501 292.162 32.9639V38.0353C292.162 38.8491 291.491 39.4933 290.682 39.4933H274.116C273.308 39.4933 272.637 38.8491 272.637 38.0353V32.9639ZM274.116 32.3934C273.78 32.3934 273.524 32.6574 273.524 32.9639V38.0353C273.524 38.3418 273.78 38.6058 274.116 38.6058H290.682C291.018 38.6058 291.274 38.3418 291.274 38.0353V32.9639C291.274 32.6574 291.018 32.3934 290.682 32.3934H274.116Z" fill="white"/>
<path fill-rule="evenodd" clip-rule="evenodd" d="M211.4 33.1922H199.862C199.568 33.1922 199.33 33.4306 199.33 33.7247V37.2746C199.33 37.5687 199.568 37.8071 199.862 37.8071H211.4C211.694 37.8071 211.932 37.5687 211.932 37.2746V33.7247C211.932 33.4306 211.694 33.1922 211.4 33.1922ZM199.862 32.8372C199.372 32.8372 198.975 33.2345 198.975 33.7247V37.2746C198.975 37.7648 199.372 38.1621 199.862 38.1621H211.4C211.89 38.1621 212.287 37.7648 212.287 37.2746V33.7247C212.287 33.2345 211.89 32.8372 211.4 32.8372H199.862Z" fill="white"/>
<path fill-rule="evenodd" clip-rule="evenodd" d="M199.862 32.926C199.421 32.926 199.063 33.2836 199.063 33.7248V37.2748C199.063 37.7159 199.421 38.0735 199.862 38.0735H211.399C211.841 38.0735 212.198 37.7159 212.198 37.2748V33.7248C212.198 33.2836 211.841 32.926 211.399 32.926H199.862ZM198.886 33.7248C198.886 33.1856 199.323 32.7485 199.862 32.7485H211.399C211.939 32.7485 212.376 33.1856 212.376 33.7248V37.2748C212.376 37.8139 211.939 38.251 211.399 38.251H199.862C199.323 38.251 198.886 37.8139 198.886 37.2748V33.7248ZM199.862 33.281C199.617 33.281 199.418 33.4797 199.418 33.7248V37.2748C199.418 37.5198 199.617 37.7185 199.862 37.7185H211.399C211.644 37.7185 211.843 37.5198 211.843 37.2748V33.7248C211.843 33.4797 211.644 33.281 211.399 33.281H199.862ZM199.241 33.7248C199.241 33.3817 199.519 33.1035 199.862 33.1035H211.399C211.742 33.1035 212.021 33.3817 212.021 33.7248V37.2748C212.021 37.6179 211.742 37.896 211.399 37.896H199.862C199.519 37.896 199.241 37.6179 199.241 37.2748V33.7248Z" fill="white"/>
<path fill-rule="evenodd" clip-rule="evenodd" d="M196.313 33.1922H184.775C184.481 33.1922 184.243 33.4306 184.243 33.7247V37.2746C184.243 37.5687 184.481 37.8071 184.775 37.8071H196.313C196.607 37.8071 196.845 37.5687 196.845 37.2746V33.7247C196.845 33.4306 196.607 33.1922 196.313 33.1922ZM184.775 32.8372C184.285 32.8372 183.888 33.2345 183.888 33.7247V37.2746C183.888 37.7648 184.285 38.1621 184.775 38.1621H196.313C196.803 38.1621 197.2 37.7648 197.2 37.2746V33.7247C197.2 33.2345 196.803 32.8372 196.313 32.8372H184.775Z" fill="white"/>
<path fill-rule="evenodd" clip-rule="evenodd" d="M184.775 32.926C184.334 32.926 183.976 33.2836 183.976 33.7248V37.2748C183.976 37.7159 184.334 38.0735 184.775 38.0735H196.312C196.754 38.0735 197.111 37.7159 197.111 37.2748V33.7248C197.111 33.2836 196.754 32.926 196.312 32.926H184.775ZM183.799 33.7248C183.799 33.1856 184.236 32.7485 184.775 32.7485H196.312C196.852 32.7485 197.289 33.1856 197.289 33.7248V37.2748C197.289 37.8139 196.852 38.251 196.312 38.251H184.775C184.236 38.251 183.799 37.8139 183.799 37.2748V33.7248ZM184.775 33.281C184.53 33.281 184.331 33.4797 184.331 33.7248V37.2748C184.331 37.5198 184.53 37.7185 184.775 37.7185H196.312C196.558 37.7185 196.756 37.5198 196.756 37.2748V33.7248C196.756 33.4797 196.558 33.281 196.312 33.281H184.775ZM184.154 33.7248C184.154 33.3817 184.432 33.1035 184.775 33.1035H196.312C196.656 33.1035 196.934 33.3817 196.934 33.7248V37.2748C196.934 37.6179 196.656 37.896 196.312 37.896H184.775C184.432 37.896 184.154 37.6179 184.154 37.2748V33.7248Z" fill="white"/>
<path fill-rule="evenodd" clip-rule="evenodd" d="M181.225 33.1922H169.687C169.393 33.1922 169.155 33.4306 169.155 33.7247V37.2746C169.155 37.5687 169.393 37.8071 169.687 37.8071H181.225C181.519 37.8071 181.757 37.5687 181.757 37.2746V33.7247C181.757 33.4306 181.519 33.1922 181.225 33.1922ZM169.687 32.8372C169.197 32.8372 168.8 33.2345 168.8 33.7247V37.2746C168.8 37.7648 169.197 38.1621 169.687 38.1621H181.225C181.715 38.1621 182.112 37.7648 182.112 37.2746V33.7247C182.112 33.2345 181.715 32.8372 181.225 32.8372H169.687Z" fill="white"/>
<path fill-rule="evenodd" clip-rule="evenodd" d="M169.687 32.926C169.246 32.926 168.888 33.2836 168.888 33.7248V37.2748C168.888 37.7159 169.246 38.0735 169.687 38.0735H181.225C181.666 38.0735 182.023 37.7159 182.023 37.2748V33.7248C182.023 33.2836 181.666 32.926 181.225 32.926H169.687ZM168.711 33.7248C168.711 33.1856 169.148 32.7485 169.687 32.7485H181.225C181.764 32.7485 182.201 33.1856 182.201 33.7248V37.2748C182.201 37.8139 181.764 38.251 181.225 38.251H169.687C169.148 38.251 168.711 37.8139 168.711 37.2748V33.7248ZM169.687 33.281C169.442 33.281 169.243 33.4797 169.243 33.7248V37.2748C169.243 37.5198 169.442 37.7185 169.687 37.7185H181.225C181.47 37.7185 181.668 37.5198 181.668 37.2748V33.7248C181.668 33.4797 181.47 33.281 181.225 33.281H169.687ZM169.066 33.7248C169.066 33.3817 169.344 33.1035 169.687 33.1035H181.225C181.568 33.1035 181.846 33.3817 181.846 33.7248V37.2748C181.846 37.6179 181.568 37.896 181.225 37.896H169.687C169.344 37.896 169.066 37.6179 169.066 37.2748V33.7248Z" fill="white"/>
<path fill-rule="evenodd" clip-rule="evenodd" d="M226.486 33.1922H214.949C214.655 33.1922 214.417 33.4306 214.417 33.7247V37.2746C214.417 37.5687 214.655 37.8071 214.949 37.8071H226.486C226.781 37.8071 227.019 37.5687 227.019 37.2746V33.7247C227.019 33.4306 226.781 33.1922 226.486 33.1922ZM214.949 32.8372C214.459 32.8372 214.062 33.2345 214.062 33.7247V37.2746C214.062 37.7648 214.459 38.1621 214.949 38.1621H226.486C226.977 38.1621 227.374 37.7648 227.374 37.2746V33.7247C227.374 33.2345 226.977 32.8372 226.486 32.8372H214.949Z" fill="white"/>
<path fill-rule="evenodd" clip-rule="evenodd" d="M214.95 32.926C214.509 32.926 214.151 33.2836 214.151 33.7248V37.2748C214.151 37.7159 214.509 38.0735 214.95 38.0735H226.487C226.928 38.0735 227.286 37.7159 227.286 37.2748V33.7248C227.286 33.2836 226.928 32.926 226.487 32.926H214.95ZM213.974 33.7248C213.974 33.1856 214.411 32.7485 214.95 32.7485H226.487C227.026 32.7485 227.464 33.1856 227.464 33.7248V37.2748C227.464 37.8139 227.026 38.251 226.487 38.251H214.95C214.411 38.251 213.974 37.8139 213.974 37.2748V33.7248ZM214.95 33.281C214.705 33.281 214.506 33.4797 214.506 33.7248V37.2748C214.506 37.5198 214.705 37.7185 214.95 37.7185H226.487C226.732 37.7185 226.931 37.5198 226.931 37.2748V33.7248C226.931 33.4797 226.732 33.281 226.487 33.281H214.95ZM214.329 33.7248C214.329 33.3817 214.607 33.1035 214.95 33.1035H226.487C226.83 33.1035 227.109 33.3817 227.109 33.7248V37.2748C227.109 37.6179 226.83 37.896 226.487 37.896H214.95C214.607 37.896 214.329 37.6179 214.329 37.2748V33.7248Z" fill="white"/>
<path fill-rule="evenodd" clip-rule="evenodd" d="M120.875 33.1922H109.338C109.044 33.1922 108.805 33.4306 108.805 33.7247V37.2746C108.805 37.5687 109.044 37.8071 109.338 37.8071H120.875C121.169 37.8071 121.408 37.5687 121.408 37.2746V33.7247C121.408 33.4306 121.169 33.1922 120.875 33.1922ZM109.338 32.8372C108.848 32.8372 108.45 33.2345 108.45 33.7247V37.2746C108.45 37.7648 108.848 38.1621 109.338 38.1621H120.875C121.365 38.1621 121.763 37.7648 121.763 37.2746V33.7247C121.763 33.2345 121.365 32.8372 120.875 32.8372H109.338Z" fill="white"/>
<path fill-rule="evenodd" clip-rule="evenodd" d="M109.338 32.926C108.896 32.926 108.539 33.2836 108.539 33.7248V37.2748C108.539 37.7159 108.896 38.0735 109.338 38.0735H120.875C121.316 38.0735 121.674 37.7159 121.674 37.2748V33.7248C121.674 33.2836 121.316 32.926 120.875 32.926H109.338ZM108.361 33.7248C108.361 33.1856 108.798 32.7485 109.338 32.7485H120.875C121.414 32.7485 121.851 33.1856 121.851 33.7248V37.2748C121.851 37.8139 121.414 38.251 120.875 38.251H109.338C108.798 38.251 108.361 37.8139 108.361 37.2748V33.7248ZM109.338 33.281C109.092 33.281 108.894 33.4797 108.894 33.7248V37.2748C108.894 37.5198 109.092 37.7185 109.338 37.7185H120.875C121.12 37.7185 121.319 37.5198 121.319 37.2748V33.7248C121.319 33.4797 121.12 33.281 120.875 33.281H109.338ZM108.716 33.7248C108.716 33.3817 108.994 33.1035 109.338 33.1035H120.875C121.218 33.1035 121.496 33.3817 121.496 33.7248V37.2748C121.496 37.6179 121.218 37.896 120.875 37.896H109.338C108.994 37.896 108.716 37.6179 108.716 37.2748V33.7248Z" fill="white"/>
<path fill-rule="evenodd" clip-rule="evenodd" d="M105.788 33.1922H94.2508C93.9567 33.1922 93.7183 33.4306 93.7183 33.7247V37.2746C93.7183 37.5687 93.9567 37.8071 94.2508 37.8071H105.788C106.082 37.8071 106.321 37.5687 106.321 37.2746V33.7247C106.321 33.4306 106.082 33.1922 105.788 33.1922ZM94.2508 32.8372C93.7606 32.8372 93.3633 33.2345 93.3633 33.7247V37.2746C93.3633 37.7648 93.7606 38.1621 94.2508 38.1621H105.788C106.278 38.1621 106.676 37.7648 106.676 37.2746V33.7247C106.676 33.2345 106.278 32.8372 105.788 32.8372H94.2508Z" fill="white"/>
<path fill-rule="evenodd" clip-rule="evenodd" d="M94.2507 32.926C93.8095 32.926 93.4519 33.2836 93.4519 33.7248V37.2748C93.4519 37.7159 93.8095 38.0735 94.2507 38.0735H105.788C106.229 38.0735 106.587 37.7159 106.587 37.2748V33.7248C106.587 33.2836 106.229 32.926 105.788 32.926H94.2507ZM93.2744 33.7248C93.2744 33.1856 93.7115 32.7485 94.2507 32.7485H105.788C106.327 32.7485 106.764 33.1856 106.764 33.7248V37.2748C106.764 37.8139 106.327 38.251 105.788 38.251H94.2507C93.7115 38.251 93.2744 37.8139 93.2744 37.2748V33.7248ZM94.2507 33.281C94.0056 33.281 93.8069 33.4797 93.8069 33.7248V37.2748C93.8069 37.5198 94.0056 37.7185 94.2507 37.7185H105.788C106.033 37.7185 106.232 37.5198 106.232 37.2748V33.7248C106.232 33.4797 106.033 33.281 105.788 33.281H94.2507ZM93.6294 33.7248C93.6294 33.3817 93.9076 33.1035 94.2507 33.1035H105.788C106.131 33.1035 106.409 33.3817 106.409 33.7248V37.2748C106.409 37.6179 106.131 37.896 105.788 37.896H94.2507C93.9076 37.896 93.6294 37.6179 93.6294 37.2748V33.7248Z" fill="white"/>
<path fill-rule="evenodd" clip-rule="evenodd" d="M90.7003 33.1922H79.1629C78.8688 33.1922 78.6304 33.4306 78.6304 33.7247V37.2746C78.6304 37.5687 78.8688 37.8071 79.1629 37.8071H90.7003C90.9944 37.8071 91.2328 37.5687 91.2328 37.2746V33.7247C91.2328 33.4306 90.9944 33.1922 90.7003 33.1922ZM79.1629 32.8372C78.6727 32.8372 78.2754 33.2345 78.2754 33.7247V37.2746C78.2754 37.7648 78.6727 38.1621 79.1629 38.1621H90.7003C91.1904 38.1621 91.5878 37.7648 91.5878 37.2746V33.7247C91.5878 33.2345 91.1904 32.8372 90.7003 32.8372H79.1629Z" fill="white"/>
<path fill-rule="evenodd" clip-rule="evenodd" d="M79.1628 32.926C78.7216 32.926 78.364 33.2836 78.364 33.7248V37.2748C78.364 37.7159 78.7216 38.0735 79.1628 38.0735H90.7002C91.1413 38.0735 91.4989 37.7159 91.4989 37.2748V33.7248C91.4989 33.2836 91.1413 32.926 90.7002 32.926H79.1628ZM78.1865 33.7248C78.1865 33.1856 78.6236 32.7485 79.1628 32.7485H90.7002C91.2393 32.7485 91.6764 33.1856 91.6764 33.7248V37.2748C91.6764 37.8139 91.2393 38.251 90.7002 38.251H79.1628C78.6236 38.251 78.1865 37.8139 78.1865 37.2748V33.7248ZM79.1628 33.281C78.9177 33.281 78.719 33.4797 78.719 33.7248V37.2748C78.719 37.5198 78.9177 37.7185 79.1628 37.7185H90.7002C90.9453 37.7185 91.1439 37.5198 91.1439 37.2748V33.7248C91.1439 33.4797 90.9453 33.281 90.7002 33.281H79.1628ZM78.5415 33.7248C78.5415 33.3817 78.8197 33.1035 79.1628 33.1035H90.7002C91.0433 33.1035 91.3214 33.3817 91.3214 33.7248V37.2748C91.3214 37.6179 91.0433 37.896 90.7002 37.896H79.1628C78.8197 37.896 78.5415 37.6179 78.5415 37.2748V33.7248Z" fill="white"/>
<path fill-rule="evenodd" clip-rule="evenodd" d="M135.963 33.1922H124.426C124.131 33.1922 123.893 33.4306 123.893 33.7247V37.2746C123.893 37.5687 124.131 37.8071 124.426 37.8071H135.963C136.257 37.8071 136.495 37.5687 136.495 37.2746V33.7247C136.495 33.4306 136.257 33.1922 135.963 33.1922ZM124.426 32.8372C123.935 32.8372 123.538 33.2345 123.538 33.7247V37.2746C123.538 37.7648 123.935 38.1621 124.426 38.1621H135.963C136.453 38.1621 136.85 37.7648 136.85 37.2746V33.7247C136.85 33.2345 136.453 32.8372 135.963 32.8372H124.426Z" fill="white"/>
<path fill-rule="evenodd" clip-rule="evenodd" d="M124.425 32.926C123.984 32.926 123.627 33.2836 123.627 33.7248V37.2748C123.627 37.7159 123.984 38.0735 124.425 38.0735H135.963C136.404 38.0735 136.762 37.7159 136.762 37.2748V33.7248C136.762 33.2836 136.404 32.926 135.963 32.926H124.425ZM123.449 33.7248C123.449 33.1856 123.886 32.7485 124.425 32.7485H135.963C136.502 32.7485 136.939 33.1856 136.939 33.7248V37.2748C136.939 37.8139 136.502 38.251 135.963 38.251H124.425C123.886 38.251 123.449 37.8139 123.449 37.2748V33.7248ZM124.425 33.281C124.18 33.281 123.982 33.4797 123.982 33.7248V37.2748C123.982 37.5198 124.18 37.7185 124.425 37.7185H135.963C136.208 37.7185 136.407 37.5198 136.407 37.2748V33.7248C136.407 33.4797 136.208 33.281 135.963 33.281H124.425ZM123.804 33.7248C123.804 33.3817 124.082 33.1035 124.425 33.1035H135.963C136.306 33.1035 136.584 33.3817 136.584 33.7248V37.2748C136.584 37.6179 136.306 37.896 135.963 37.896H124.425C124.082 37.896 123.804 37.6179 123.804 37.2748V33.7248Z" fill="white"/>
<path fill-rule="evenodd" clip-rule="evenodd" d="M249.561 47.9247C257.403 47.9247 263.761 41.5672 263.761 33.7248C263.761 25.8825 257.403 19.5249 249.561 19.5249C241.719 19.5249 235.361 25.8825 235.361 33.7248C235.361 41.5672 241.719 47.9247 249.561 47.9247ZM249.561 48.8122C257.894 48.8122 264.648 42.0574 264.648 33.7248C264.648 25.3923 257.894 18.6375 249.561 18.6375C241.228 18.6375 234.474 25.3923 234.474 33.7248C234.474 42.0574 241.228 48.8122 249.561 48.8122Z" fill="white"/>
<path fill-rule="evenodd" clip-rule="evenodd" d="M159.926 1.77499C131.606 1.77499 55.1601 3.99043 24.8339 4.9043C18.3834 5.09868 13.0283 9.90824 11.9651 16.3335C10.7254 22.7369 8.24762 35.5205 8.24762 35.5205C8.24762 35.5205 5.46566 48.6326 4.32236 55.1581C3.7521 58.4129 3.26476 61.3337 2.91999 63.4407C2.83883 63.9367 2.76558 64.3876 2.70102 64.787H322.998C322.956 64.4438 322.907 64.0614 322.854 63.644C322.605 61.7041 322.243 59.0125 321.789 56.0062C320.876 49.965 319.607 42.7547 318.161 37.8031C316.916 31.8317 314.895 23.2422 313.144 15.8401C311.902 9.6516 306.642 5.11525 300.38 4.93376C269.511 4.03909 188.557 1.77499 159.926 1.77499ZM324.787 64.787C324.172 59.8168 322.282 45.585 319.865 37.3056C318.432 31.3264 316.411 22.7369 314.884 15.4909C313.484 8.51534 307.543 3.36563 300.432 3.15952C269.577 2.26528 188.589 0 159.926 0C131.572 0 55.0921 2.21668 24.7804 3.13011C17.4526 3.35094 11.4107 8.81094 10.2139 16.0437C8.70435 22.7369 7.63478 29.8106 6.52487 35.0931C4.66223 43.958 1.74849 59.5415 0.903063 64.787C0.721474 65.9137 0.620117 66.562 0.620117 66.562H325C325 66.562 324.926 65.9116 324.787 64.787Z" fill="white"/>
<path fill-rule="evenodd" clip-rule="evenodd" d="M227.146 42.3335L78.5041 42.3335L78.5041 41.9785L227.146 41.9785L227.146 42.3335Z" fill="#DBDBDB"/>
<path d="M226.931 41.7119H77.832V42.5994H226.931V41.7119Z" fill="white"/>
<path d="M82.2689 46.2381C82.0027 46.2381 81.8252 46.0606 81.8252 45.7944V44.9069C81.8252 44.6406 82.0027 44.4631 82.2689 44.4631C82.5352 44.4631 82.7127 44.6406 82.7127 44.9069V45.7944C82.7127 46.0606 82.5352 46.2381 82.2689 46.2381Z" fill="white"/>
<path d="M82.2689 51.8297C82.0027 51.8297 81.8252 51.6522 81.8252 51.3859V50.4984C81.8252 50.2322 82.0027 50.0547 82.2689 50.0547C82.5352 50.0547 82.7127 50.2322 82.7127 50.4984V51.3859C82.7127 51.6522 82.5352 51.8297 82.2689 51.8297Z" fill="white"/>
<path d="M79.1635 26.6248C78.8972 26.6248 78.7197 26.4473 78.7197 26.1811V25.2936C78.7197 25.0274 78.8972 24.8499 79.1635 24.8499C79.4297 24.8499 79.6072 25.0274 79.6072 25.2936V26.1811C79.6072 26.4473 79.4297 26.6248 79.1635 26.6248Z" fill="white"/>
<path d="M79.1635 23.075C78.8972 23.075 78.7197 22.8975 78.7197 22.6313V21.7438C78.7197 21.4775 78.8972 21.3 79.1635 21.3C79.4297 21.3 79.6072 21.4775 79.6072 21.7438V22.6313C79.6072 22.8975 79.4297 23.075 79.1635 23.075Z" fill="white"/>
<path d="M79.1635 19.5247C78.8972 19.5247 78.7197 19.3472 78.7197 19.081V18.1935C78.7197 17.9273 78.8972 17.7498 79.1635 17.7498C79.4297 17.7498 79.6072 17.9273 79.6072 18.1935V19.081C79.6072 19.3472 79.4297 19.5247 79.1635 19.5247Z" fill="white"/>
<path d="M79.1635 30.4412C78.8972 30.4412 78.7197 30.2637 78.7197 29.9975V29.11C78.7197 28.8438 78.8972 28.6663 79.1635 28.6663C79.4297 28.6663 79.6072 28.8438 79.6072 29.11V29.9975C79.6072 30.2637 79.4297 30.4412 79.1635 30.4412Z" fill="white"/>
<path d="M94.2504 26.6248C93.9841 26.6248 93.8066 26.4473 93.8066 26.1811V25.2936C93.8066 25.0274 93.9841 24.8499 94.2504 24.8499C94.5166 24.8499 94.6941 25.0274 94.6941 25.2936V26.1811C94.6941 26.4473 94.5166 26.6248 94.2504 26.6248Z" fill="white"/>
<path d="M94.2504 23.075C93.9841 23.075 93.8066 22.8975 93.8066 22.6313V21.7438C93.8066 21.4775 93.9841 21.3 94.2504 21.3C94.5166 21.3 94.6941 21.4775 94.6941 21.7438V22.6313C94.6941 22.8975 94.5166 23.075 94.2504 23.075Z" fill="white"/>
<path d="M94.2504 19.5247C93.9841 19.5247 93.8066 19.3472 93.8066 19.081V18.1935C93.8066 17.9273 93.9841 17.7498 94.2504 17.7498C94.5166 17.7498 94.6941 17.9273 94.6941 18.1935V19.081C94.6941 19.3472 94.5166 19.5247 94.2504 19.5247Z" fill="white"/>
<path d="M94.2504 30.4412C93.9841 30.4412 93.8066 30.2637 93.8066 29.9975V29.11C93.8066 28.8438 93.9841 28.6663 94.2504 28.6663C94.5166 28.6663 94.6941 28.8438 94.6941 29.11V29.9975C94.6941 30.2637 94.5166 30.4412 94.2504 30.4412Z" fill="white"/>
<path d="M109.338 26.6248C109.072 26.6248 108.895 26.4473 108.895 26.1811V25.2936C108.895 25.0274 109.072 24.8499 109.338 24.8499C109.605 24.8499 109.782 25.0274 109.782 25.2936V26.1811C109.782 26.4473 109.605 26.6248 109.338 26.6248Z" fill="white"/>
<path d="M109.338 23.075C109.072 23.075 108.895 22.8975 108.895 22.6313V21.7438C108.895 21.4775 109.072 21.3 109.338 21.3C109.605 21.3 109.782 21.4775 109.782 21.7438V22.6313C109.782 22.8975 109.605 23.075 109.338 23.075Z" fill="white"/>
<path d="M109.338 19.5247C109.072 19.5247 108.895 19.3472 108.895 19.081V18.1935C108.895 17.9273 109.072 17.7498 109.338 17.7498C109.605 17.7498 109.782 17.9273 109.782 18.1935V19.081C109.782 19.3472 109.605 19.5247 109.338 19.5247Z" fill="white"/>
<path d="M109.338 30.4412C109.072 30.4412 108.895 30.2637 108.895 29.9975V29.11C108.895 28.8438 109.072 28.6663 109.338 28.6663C109.605 28.6663 109.782 28.8438 109.782 29.11V29.9975C109.782 30.2637 109.605 30.4412 109.338 30.4412Z" fill="white"/>
<path d="M124.425 26.6248C124.159 26.6248 123.981 26.4473 123.981 26.1811V25.2936C123.981 25.0274 124.159 24.8499 124.425 24.8499C124.691 24.8499 124.869 25.0274 124.869 25.2936V26.1811C124.869 26.4473 124.691 26.6248 124.425 26.6248Z" fill="white"/>
<path d="M124.425 23.075C124.159 23.075 123.981 22.8975 123.981 22.6313V21.7438C123.981 21.4775 124.159 21.3 124.425 21.3C124.691 21.3 124.869 21.4775 124.869 21.7438V22.6313C124.869 22.8975 124.691 23.075 124.425 23.075Z" fill="white"/>
<path d="M124.425 19.5247C124.159 19.5247 123.981 19.3472 123.981 19.081V18.1935C123.981 17.9273 124.159 17.7498 124.425 17.7498C124.691 17.7498 124.869 17.9273 124.869 18.1935V19.081C124.869 19.3472 124.691 19.5247 124.425 19.5247Z" fill="white"/>
<path d="M124.425 30.4412C124.159 30.4412 123.981 30.2637 123.981 29.9975V29.11C123.981 28.8438 124.159 28.6663 124.425 28.6663C124.691 28.6663 124.869 28.8438 124.869 29.11V29.9975C124.869 30.2637 124.691 30.4412 124.425 30.4412Z" fill="white"/>
<path d="M170.575 26.6248C170.308 26.6248 170.131 26.4473 170.131 26.1811V25.2936C170.131 25.0274 170.308 24.8499 170.575 24.8499C170.841 24.8499 171.018 25.0274 171.018 25.2936V26.1811C171.018 26.4473 170.841 26.6248 170.575 26.6248Z" fill="white"/>
<path d="M170.575 23.075C170.308 23.075 170.131 22.8975 170.131 22.6313V21.7438C170.131 21.4775 170.308 21.3 170.575 21.3C170.841 21.3 171.018 21.4775 171.018 21.7438V22.6313C171.018 22.8975 170.841 23.075 170.575 23.075Z" fill="white"/>
<path d="M170.575 19.5247C170.308 19.5247 170.131 19.3472 170.131 19.081V18.1935C170.131 17.9273 170.308 17.7498 170.575 17.7498C170.841 17.7498 171.018 17.9273 171.018 18.1935V19.081C171.018 19.3472 170.841 19.5247 170.575 19.5247Z" fill="white"/>
<path d="M170.575 30.4412C170.308 30.4412 170.131 30.2637 170.131 29.9975V29.11C170.131 28.8438 170.308 28.6663 170.575 28.6663C170.841 28.6663 171.018 28.8438 171.018 29.11V29.9975C171.018 30.2637 170.841 30.4412 170.575 30.4412Z" fill="white"/>
<path d="M185.662 26.6248C185.396 26.6248 185.219 26.4473 185.219 26.1811V25.2936C185.219 25.0274 185.396 24.8499 185.662 24.8499C185.929 24.8499 186.106 25.0274 186.106 25.2936V26.1811C186.106 26.4473 185.929 26.6248 185.662 26.6248Z" fill="white"/>
<path d="M185.662 23.075C185.396 23.075 185.219 22.8975 185.219 22.6313V21.7438C185.219 21.4775 185.396 21.3 185.662 21.3C185.929 21.3 186.106 21.4775 186.106 21.7438V22.6313C186.106 22.8975 185.929 23.075 185.662 23.075Z" fill="white"/>
<path d="M185.662 19.5247C185.396 19.5247 185.219 19.3472 185.219 19.081V18.1935C185.219 17.9273 185.396 17.7498 185.662 17.7498C185.929 17.7498 186.106 17.9273 186.106 18.1935V19.081C186.106 19.3472 185.929 19.5247 185.662 19.5247Z" fill="white"/>
<path d="M185.662 30.4412C185.396 30.4412 185.219 30.2637 185.219 29.9975V29.11C185.219 28.8438 185.396 28.6663 185.662 28.6663C185.929 28.6663 186.106 28.8438 186.106 29.11V29.9975C186.106 30.2637 185.929 30.4412 185.662 30.4412Z" fill="white"/>
<path d="M199.863 30.4412C199.596 30.4412 199.419 30.2637 199.419 29.9975V29.11C199.419 28.8438 199.596 28.6663 199.863 28.6663C200.129 28.6663 200.306 28.8438 200.306 29.11V29.9975C200.306 30.2637 200.129 30.4412 199.863 30.4412Z" fill="white"/>
<path d="M108.451 46.2381C108.184 46.2381 108.007 46.0606 108.007 45.7944V44.9069C108.007 44.6406 108.184 44.4631 108.451 44.4631C108.717 44.4631 108.894 44.6406 108.894 44.9069V45.7944C108.894 46.0606 108.717 46.2381 108.451 46.2381Z" fill="white"/>
<path d="M108.451 51.8297C108.184 51.8297 108.007 51.6522 108.007 51.3859V50.4984C108.007 50.2322 108.184 50.0547 108.451 50.0547C108.717 50.0547 108.894 50.2322 108.894 50.4984V51.3859C108.894 51.6522 108.717 51.8297 108.451 51.8297Z" fill="white"/>
<path d="M135.076 46.2381C134.809 46.2381 134.632 46.0606 134.632 45.7944V44.9069C134.632 44.6406 134.809 44.4631 135.076 44.4631C135.342 44.4631 135.519 44.6406 135.519 44.9069V45.7944C135.519 46.0606 135.342 46.2381 135.076 46.2381Z" fill="white"/>
<path d="M135.076 51.8297C134.809 51.8297 134.632 51.6522 134.632 51.3859V50.4984C134.632 50.2322 134.809 50.0547 135.076 50.0547C135.342 50.0547 135.519 50.2322 135.519 50.4984V51.3859C135.519 51.6522 135.342 51.8297 135.076 51.8297Z" fill="white"/>
<path d="M162.587 46.2381C162.321 46.2381 162.144 46.0606 162.144 45.7944V44.9069C162.144 44.6406 162.321 44.4631 162.587 44.4631C162.854 44.4631 163.031 44.6406 163.031 44.9069V45.7944C163.031 46.0606 162.854 46.2381 162.587 46.2381Z" fill="white"/>
<path d="M162.587 51.8297C162.321 51.8297 162.144 51.6522 162.144 51.3859V50.4984C162.144 50.2322 162.321 50.0547 162.587 50.0547C162.854 50.0547 163.031 50.2322 163.031 50.4984V51.3859C163.031 51.6522 162.854 51.8297 162.587 51.8297Z" fill="white"/>
<path d="M189.212 46.2381C188.946 46.2381 188.769 46.0606 188.769 45.7944V44.9069C188.769 44.6406 188.946 44.4631 189.212 44.4631C189.479 44.4631 189.656 44.6406 189.656 44.9069V45.7944C189.656 46.0606 189.479 46.2381 189.212 46.2381Z" fill="white"/>
<path d="M189.212 51.8297C188.946 51.8297 188.769 51.6522 188.769 51.3859V50.4984C188.769 50.2322 188.946 50.0547 189.212 50.0547C189.479 50.0547 189.656 50.2322 189.656 50.4984V51.3859C189.656 51.6522 189.479 51.8297 189.212 51.8297Z" fill="white"/>
<path d="M215.837 46.2381C215.571 46.2381 215.394 46.0606 215.394 45.7944V44.9069C215.394 44.6406 215.571 44.4631 215.837 44.4631C216.104 44.4631 216.281 44.6406 216.281 44.9069V45.7944C216.281 46.0606 216.104 46.2381 215.837 46.2381Z" fill="white"/>
<path d="M215.837 51.8297C215.571 51.8297 215.394 51.6522 215.394 51.3859V50.4984C215.394 50.2322 215.571 50.0547 215.837 50.0547C216.104 50.0547 216.281 50.2322 216.281 50.4984V51.3859C216.281 51.6522 216.104 51.8297 215.837 51.8297Z" fill="white"/>
<path d="M164.511 22.8819C164.469 22.8913 164.425 22.8913 164.383 22.8819C164.234 22.7714 164.036 22.7097 163.83 22.7097C163.624 22.7097 163.426 22.7714 163.277 22.8819C163.244 22.9056 163.2 22.9188 163.155 22.9188C163.11 22.9188 163.066 22.9056 163.033 22.8819C163.014 22.8698 162.999 22.8546 162.988 22.8374C162.978 22.8202 162.973 22.8015 162.973 22.7825C162.973 22.7636 162.978 22.7448 162.988 22.7277C162.999 22.7105 163.014 22.6953 163.033 22.6832C163.247 22.52 163.536 22.4285 163.836 22.4285C164.137 22.4285 164.426 22.52 164.64 22.6832C164.671 22.7105 164.689 22.7459 164.689 22.7825C164.689 22.8192 164.671 22.8546 164.64 22.8819C164.598 22.8913 164.553 22.8913 164.511 22.8819Z" fill="#F7B500"/>
<path fill-rule="evenodd" clip-rule="evenodd" d="M163.124 22.7808C163.132 22.7837 163.143 22.7857 163.154 22.7857C163.175 22.7857 163.19 22.7798 163.198 22.7741C163.372 22.6452 163.599 22.5766 163.829 22.5766C164.049 22.5766 164.264 22.6386 164.434 22.7554C164.45 22.7566 164.466 22.7555 164.482 22.752L164.511 22.8819L164.535 22.772C164.349 22.639 164.1 22.5617 163.836 22.5617C163.566 22.5617 163.311 22.6424 163.124 22.7808ZM164.511 23.0173C164.563 23.0252 164.617 23.0234 164.668 23.0119L164.701 23.0046L164.726 22.9827C164.782 22.934 164.821 22.8636 164.821 22.7826C164.821 22.7016 164.782 22.6312 164.726 22.5825L164.726 22.5823L164.72 22.5774C164.48 22.3944 164.162 22.2954 163.836 22.2954C163.511 22.2954 163.195 22.3934 162.955 22.5745C162.923 22.5959 162.895 22.6241 162.874 22.6586C162.852 22.6956 162.839 22.7381 162.839 22.7826C162.839 22.8271 162.852 22.8696 162.874 22.9066C162.895 22.942 162.925 22.9706 162.958 22.9922C163.015 23.0325 163.086 23.052 163.154 23.052C163.224 23.052 163.296 23.0319 163.354 22.9903L163.354 22.9903L163.356 22.9887C163.479 22.8973 163.648 22.8429 163.829 22.8429C164.01 22.8429 164.18 22.8973 164.303 22.9887L164.325 23.0057L164.353 23.0119C164.404 23.0234 164.458 23.0252 164.511 23.0173Z" fill="#F7B500"/>
<path d="M162.406 22.3832C162.367 22.3983 162.323 22.3983 162.284 22.3832C162.254 22.3494 162.237 22.3056 162.237 22.2602C162.237 22.2148 162.254 22.171 162.284 22.1372C162.727 21.6969 163.325 21.4494 163.948 21.4483C164.257 21.4462 164.563 21.506 164.849 21.6243C165.135 21.7426 165.394 21.9169 165.612 22.1372C165.63 22.1522 165.645 22.171 165.655 22.1922C165.665 22.2135 165.67 22.2367 165.67 22.2602C165.67 22.2837 165.665 22.3069 165.655 22.3281C165.645 22.3494 165.63 22.3682 165.612 22.3832C165.581 22.4126 165.539 22.4289 165.496 22.4289C165.453 22.4289 165.411 22.4126 165.38 22.3832C164.998 22.0053 164.484 21.7933 163.948 21.7927C163.684 21.7919 163.423 21.8437 163.18 21.9451C162.936 22.0464 162.715 22.1953 162.529 22.3832C162.509 22.3913 162.489 22.3955 162.468 22.3955C162.447 22.3955 162.426 22.3913 162.406 22.3832Z" fill="#F7B500"/>
<path fill-rule="evenodd" clip-rule="evenodd" d="M164.799 21.7464C164.529 21.6349 164.241 21.5785 163.949 21.5805L163.949 21.5805C163.363 21.5816 162.8 21.8136 162.382 22.227C162.375 22.2359 162.371 22.2473 162.371 22.2593C162.371 22.2722 162.375 22.2845 162.384 22.2938L162.376 22.3011L162.407 22.3823L162.443 22.2967L162.434 22.2886C162.441 22.282 162.448 22.2754 162.454 22.2689L162.458 22.2595C162.46 22.2601 162.461 22.2605 162.462 22.2609C162.655 22.0736 162.881 21.9243 163.129 21.8213C163.389 21.7131 163.667 21.6579 163.949 21.6587L163.948 21.7918L163.949 21.6587C164.519 21.6593 165.065 21.8845 165.472 22.2856C165.479 22.2917 165.487 22.2949 165.496 22.2949C165.506 22.2949 165.515 22.2913 165.522 22.2847L165.527 22.28L165.527 22.2801C165.53 22.2777 165.533 22.2745 165.534 22.2709C165.536 22.2672 165.537 22.2633 165.537 22.2593C165.537 22.2553 165.536 22.2513 165.534 22.2476C165.533 22.244 165.53 22.2409 165.527 22.2384L165.522 22.2344L165.518 22.2299C165.312 22.0222 165.068 21.8579 164.799 21.7464ZM162.405 22.5209C162.349 22.5321 162.291 22.5273 162.237 22.5065L162.206 22.4949L162.185 22.4708C162.133 22.4124 162.104 22.3371 162.104 22.2593C162.104 22.1815 162.133 22.1061 162.185 22.0478L162.19 22.0416L162.19 22.0418C162.658 21.5769 163.29 21.3156 163.948 21.3143C164.275 21.3121 164.598 21.3753 164.9 21.5004C165.201 21.6248 165.474 21.8078 165.703 22.0388C165.734 22.0655 165.758 22.0983 165.776 22.135C165.794 22.1739 165.803 22.2163 165.803 22.2593C165.803 22.3023 165.794 22.3447 165.776 22.3835C165.758 22.4213 165.732 22.455 165.701 22.4822C165.645 22.5329 165.572 22.5611 165.496 22.5611C165.419 22.5611 165.346 22.532 165.289 22.4798L165.286 22.4769L165.286 22.4769C164.929 22.1236 164.449 21.9254 163.948 21.9249L163.948 21.9249C163.702 21.9242 163.458 21.9725 163.231 22.0671C163.004 22.1616 162.797 22.3006 162.624 22.476L162.605 22.4948L162.58 22.5051C162.545 22.52 162.507 22.5277 162.468 22.5277C162.447 22.5277 162.426 22.5254 162.405 22.5209ZM163.948 21.3143C163.948 21.3143 163.948 21.3143 163.948 21.3143L163.948 21.4474L163.948 21.3143C163.948 21.3143 163.948 21.3143 163.948 21.3143Z" fill="#F7B500"/>
<path d="M161.423 21.6308C161.403 21.6396 161.383 21.6441 161.362 21.6441C161.342 21.6441 161.321 21.6396 161.302 21.6308C161.272 21.5943 161.256 21.5469 161.256 21.4979C161.256 21.4489 161.272 21.4016 161.302 21.365C161.633 21.0002 162.026 20.7113 162.459 20.5151C162.892 20.3189 163.356 20.2194 163.824 20.2222C164.772 20.2231 165.682 20.6334 166.358 21.365C166.388 21.4016 166.404 21.4489 166.404 21.4979C166.404 21.5469 166.388 21.5943 166.358 21.6308C166.344 21.6503 166.325 21.666 166.304 21.6768C166.283 21.6876 166.261 21.6932 166.238 21.6932C166.215 21.6932 166.192 21.6876 166.171 21.6768C166.15 21.666 166.132 21.6503 166.117 21.6308C165.817 21.2987 165.459 21.036 165.065 20.858C164.672 20.68 164.25 20.5904 163.824 20.5943C163.4 20.5907 162.98 20.6805 162.588 20.8585C162.197 21.0365 161.841 21.2991 161.543 21.6308C161.504 21.6472 161.461 21.6472 161.423 21.6308Z" fill="#F7B500"/>
<path fill-rule="evenodd" clip-rule="evenodd" d="M163.824 20.3554C163.375 20.3527 162.93 20.448 162.514 20.6364C162.1 20.8242 161.722 21.1008 161.404 21.4511C161.395 21.4628 161.389 21.4793 161.389 21.498C161.389 21.5178 161.396 21.5352 161.406 21.5469L161.39 21.5595L161.423 21.6309L161.456 21.5522L161.445 21.5419C161.454 21.5311 161.464 21.5203 161.474 21.5097L161.475 21.5082C161.475 21.5083 161.475 21.5083 161.475 21.5084C161.779 21.1793 162.138 20.9172 162.534 20.7374C162.942 20.5516 163.381 20.4576 163.824 20.4612C164.269 20.4573 164.71 20.5511 165.121 20.7368C165.532 20.9226 165.904 21.1964 166.216 21.5416L166.224 21.5504L166.224 21.5507C166.227 21.5549 166.23 21.5573 166.232 21.5586C166.235 21.5598 166.237 21.5601 166.238 21.5601C166.239 21.5601 166.241 21.5599 166.243 21.5586C166.246 21.5573 166.249 21.5549 166.252 21.5507L166.255 21.5469L166.255 21.5469C166.265 21.5352 166.272 21.5178 166.272 21.498C166.272 21.4795 166.266 21.4632 166.257 21.4515C165.605 20.748 164.731 20.3562 163.824 20.3554L163.824 20.2223L163.824 20.3554ZM163.825 20.0892C163.337 20.0862 162.854 20.19 162.404 20.3939C161.954 20.5979 161.546 20.8978 161.204 21.2757L161.204 21.2756L161.199 21.2812C161.149 21.3425 161.123 21.4197 161.123 21.498C161.123 21.5762 161.149 21.6535 161.199 21.7148L161.219 21.7389L161.247 21.7519C161.283 21.7685 161.322 21.7773 161.363 21.7773C161.384 21.7773 161.404 21.7749 161.425 21.7702C161.481 21.7821 161.541 21.7765 161.595 21.7536L161.623 21.742L161.643 21.7199C161.929 21.4013 162.269 21.1499 162.644 20.9798C163.018 20.8096 163.419 20.724 163.823 20.7275L163.824 20.5944L163.826 20.7275C164.232 20.7237 164.635 20.8092 165.011 20.9794C165.386 21.1489 165.727 21.3992 166.015 21.7165C166.041 21.7489 166.073 21.7759 166.11 21.7951C166.15 21.8155 166.193 21.8264 166.238 21.8264C166.283 21.8264 166.326 21.8155 166.366 21.7951C166.404 21.7752 166.437 21.7469 166.463 21.713C166.512 21.652 166.538 21.5755 166.538 21.498C166.538 21.4197 166.512 21.3425 166.462 21.2812L166.462 21.281L166.456 21.2747C165.756 20.5175 164.812 20.0902 163.825 20.0892Z" fill="#F7B500"/>
<path d="M163.831 24.39C163.798 24.39 163.767 24.3741 163.744 24.3457C163.721 24.3173 163.708 24.2788 163.708 24.2386V23.806C163.708 23.7658 163.721 23.7273 163.744 23.6989C163.767 23.6705 163.798 23.6545 163.831 23.6545C163.863 23.6545 163.894 23.6705 163.917 23.6989C163.94 23.7273 163.953 23.7658 163.953 23.806V24.2386C163.953 24.2788 163.94 24.3173 163.917 24.3457C163.894 24.3741 163.863 24.39 163.831 24.39Z" fill="#F7B500"/>
<path fill-rule="evenodd" clip-rule="evenodd" d="M163.641 23.6152C163.686 23.5599 163.753 23.5215 163.831 23.5215C163.909 23.5215 163.976 23.56 164.021 23.6152C164.065 23.6697 164.087 23.7386 164.087 23.806V24.2387C164.087 24.3061 164.065 24.3751 164.021 24.4295C163.976 24.4847 163.909 24.5232 163.831 24.5232C163.753 24.5232 163.686 24.4848 163.641 24.4295C163.597 24.3751 163.575 24.3061 163.575 24.2387V23.806C163.575 23.7386 163.597 23.6697 163.641 23.6152Z" fill="#F7B500"/>
<g opacity="0.3">
<path d="M144.062 33.3639L143.675 33.0359H140.419L140.032 33.3639L140.419 33.6859H143.675L144.062 33.3639Z" fill="white"/>
<path d="M143.894 28.2261H140.206L139.513 29.0061H140.206H140.887H143.674L144.193 28.5583L143.894 28.2261Z" fill="white"/>
<path d="M143.894 38.496H140.206L139.513 37.7161H143.674L144.193 38.1566L143.894 38.496Z" fill="white"/>
<path d="M139.513 29.2661V33.166H139.663L140.157 32.6794L140.163 29.2661H139.513Z" fill="white"/>
<path d="M139.513 37.3263V33.5564H139.663L140.157 34.0268L140.163 37.3263H139.513Z" fill="white"/>
<path d="M144.467 28.8765L143.933 29.3048V32.6933L144.437 33.1664H144.583V29.0043L144.467 28.8765Z" fill="white"/>
<path d="M144.467 37.8463L143.933 37.4237V34.0238L144.437 33.5564H144.583V37.7246L144.467 37.8463Z" fill="white"/>
<path d="M150.432 33.3639L150.039 33.0359H146.789L146.402 33.3639L146.789 33.6859H150.039L150.432 33.3639Z" fill="white"/>
<path d="M150.257 28.2261H146.574L145.882 29.0061H150.037L150.562 28.5614L150.257 28.2261Z" fill="white"/>
<path d="M150.257 38.496H146.581L145.882 37.7161H146.581H147.261H150.037L150.562 38.1607L150.257 38.496Z" fill="white"/>
<path d="M145.882 29.2661V33.166H146.062L146.662 32.6794V29.2661H145.882Z" fill="white"/>
<path d="M145.882 37.3263V33.5564H146.062L146.662 34.0268V37.3263H145.882Z" fill="white"/>
<path d="M150.832 28.8765L150.303 29.3048V32.6933L150.802 33.1664H150.953V29.0043L150.832 28.8765Z" fill="white"/>
<path d="M150.832 37.8463L150.303 37.4237V34.0238L150.802 33.5564H150.953V37.7246L150.832 37.8463Z" fill="white"/>
<path d="M158.882 33.3639L158.496 33.0359H155.239L154.853 33.3639L155.239 33.6859H158.496L158.882 33.3639Z" fill="white"/>
<path d="M158.708 28.2261H155.031L154.332 29.0061H155.031H155.711H158.488L159.012 28.5583L158.708 28.2261Z" fill="white"/>
<path d="M158.708 38.496H155.031L154.332 37.7161H158.488L159.012 38.1566L158.708 38.496Z" fill="white"/>
<path d="M154.332 29.2661V33.166H154.507L155.112 32.6794V29.2661H154.332Z" fill="white"/>
<path d="M154.332 37.3263V33.5564H154.507L155.112 34.0268V37.3263H154.332Z" fill="white"/>
<path d="M159.282 28.8765L158.752 29.3048V32.6933L159.251 33.1664H159.402V29.0043L159.282 28.8765Z" fill="white"/>
<path d="M159.282 37.8463L158.752 37.4237V34.0238L159.251 33.5564H159.402V37.7246L159.282 37.8463Z" fill="white"/>
<path d="M165.382 33.3639L164.982 33.0359H161.621L161.222 33.3639L161.621 33.6859H164.982L165.382 33.3639Z" fill="white"/>
<path d="M165.084 28.2261H161.396C161.123 28.5249 160.702 29.0061 160.702 29.0061H164.857L165.382 28.5614L165.084 28.2261Z" fill="white"/>
<path d="M165.084 38.496H161.396L160.702 37.7161H161.402H162.076H164.863L165.382 38.1607L165.084 38.496Z" fill="white"/>
<path d="M160.702 29.2661V33.166H160.875L161.475 32.6794L161.482 29.2661H160.702Z" fill="white"/>
<path d="M160.702 37.3263V33.5564H160.875L161.475 34.0268L161.482 37.3263H160.702Z" fill="white"/>
<path d="M165.657 28.8765L165.122 29.3048V32.6933L165.62 33.1664H165.772V29.0043L165.657 28.8765Z" fill="white"/>
<path d="M165.657 37.8463L165.122 37.4237V34.0238L165.62 33.5564H165.772V37.7246L165.657 37.8463Z" fill="white"/>
<path d="M153.032 31.2161H152.382V32.516H153.032V31.2161Z" fill="white"/>
<path d="M153.032 34.2058H152.382V35.5058H153.032V34.2058Z" fill="white"/>
</g>
<path d="M150.432 33.3639L150.039 33.0359H146.789L146.402 33.3639L146.789 33.6859H150.039L150.432 33.3639Z" fill="white"/>
<path d="M150.258 28.2261H146.575L145.883 29.0061H150.038L150.563 28.5614L150.258 28.2261Z" fill="white"/>
<path d="M145.883 29.2661V33.166H146.063L146.663 32.6794V29.2661H145.883Z" fill="white"/>
<path d="M145.883 37.3263V33.5564H146.063L146.663 34.0268V37.3263H145.883Z" fill="white"/>
<path d="M150.832 28.8765L150.303 29.3048V32.6933L150.802 33.1664H150.953V29.0043L150.832 28.8765Z" fill="white"/>
<path d="M150.832 37.8463L150.303 37.4237V34.0238L150.802 33.5564H150.953V37.7246L150.832 37.8463Z" fill="white"/>
<path d="M158.882 33.3639L158.496 33.0359H155.239L154.853 33.3639L155.239 33.6859H158.496L158.882 33.3639Z" fill="white"/>
<path d="M158.709 28.2261H155.032L154.333 29.0061H155.032H155.712H158.489L159.013 28.5583L158.709 28.2261Z" fill="white"/>
<path d="M154.333 29.2661V33.166H154.508L155.113 32.6794V29.2661H154.333Z" fill="white"/>
<path d="M154.333 37.3263V33.5564H154.508L155.113 34.0268V37.3263H154.333Z" fill="white"/>
<path d="M159.283 28.8765L158.753 29.3048V32.6933L159.252 33.1664H159.403V29.0043L159.283 28.8765Z" fill="white"/>
<path d="M165.383 33.3639L164.983 33.0359H161.622L161.223 33.3639L161.622 33.6859H164.983L165.383 33.3639Z" fill="white"/>
<path d="M165.084 28.2261H161.396C161.123 28.5249 160.702 29.0061 160.702 29.0061H164.857L165.382 28.5614L165.084 28.2261Z" fill="white"/>
<path d="M160.702 29.2661V33.166H160.875L161.475 32.6794L161.482 29.2661H160.702Z" fill="white"/>
<path d="M160.702 37.3263V33.5564H160.875L161.475 34.0268L161.482 37.3263H160.702Z" fill="white"/>
<path d="M165.657 28.8765L165.122 29.3048V32.6933L165.62 33.1664H165.772V29.0043L165.657 28.8765Z" fill="white"/>
</svg>
