<svg width="312" height="205" viewBox="0 0 312 205" fill="none" xmlns="http://www.w3.org/2000/svg">
<path d="M229.109 40.7511C227.305 40.7693 225.855 40.2547 225.014 39.1726C224.389 38.369 224.157 37.327 224.345 36.16C224.788 33.3954 227.524 30.0181 231.488 27.3494C237.286 23.4474 243.265 22.5594 245.389 25.2873C246.014 26.091 246.246 27.133 246.058 28.3C245.615 31.0646 242.878 34.4419 238.915 37.107C235.415 39.462 231.851 40.7199 229.109 40.7476L229.109 40.7511ZM241.454 25.8173C239.076 25.8413 235.499 27.2201 232.683 29.1135C228.776 31.7425 226.737 34.715 226.456 36.4939C226.362 37.0739 226.445 37.5348 226.701 37.8662C228.136 39.7024 233.696 38.0513 237.717 35.3466C241.624 32.7176 243.662 29.7451 243.944 27.9661C244.038 27.3862 243.955 26.9252 243.698 26.5939C243.268 26.0441 242.47 25.807 241.454 25.8173Z" fill="white"/>
<path d="M226.737 37.9147L224.97 39.1163L228.829 44.7489L230.597 43.5473L226.737 37.9147Z" fill="white"/>
<path d="M245.734 25.8659L243.975 27.0792L247.761 32.5265L249.52 31.3133L245.734 25.8659Z" fill="white"/>
<path d="M228.872 44.8066C228.789 44.7009 228.716 44.5915 228.647 44.4785L230.447 43.3272L230.603 43.553L228.875 44.8101L228.872 44.8066Z" fill="white"/>
<path d="M232.967 46.3815C231.163 46.3997 229.714 45.8851 228.872 44.803L230.563 43.4965C231.994 45.3328 237.558 43.6817 241.579 40.9769C244.947 38.7086 247.382 35.8493 247.789 33.689C247.9 33.0946 247.835 32.6229 247.596 32.2807L249.353 31.0623C249.921 31.8771 250.109 32.9196 249.893 34.0798C249.382 36.8131 246.655 40.1335 242.777 42.7409C239.277 45.0959 235.713 46.3538 232.971 46.3815L232.967 46.3815Z" fill="white"/>
<path d="M148.13 204.09C148.03 204.091 147.951 204.013 147.95 203.914L147.034 113.139C147.033 113.039 147.111 112.96 147.211 112.959C147.31 112.958 147.39 113.036 147.391 113.135L148.307 203.91C148.308 204.01 148.23 204.089 148.13 204.09Z" fill="white" stroke="white"/>
<path d="M259.418 55.9496C259.368 55.9501 259.321 55.9293 259.285 55.8941C259.217 55.8238 259.223 55.71 259.294 55.6418L284.914 32.0486C284.988 31.9839 285.098 31.9864 285.167 32.0603C285.235 32.1306 285.229 32.2444 285.159 32.3126L259.539 55.9058C259.503 55.9381 259.461 55.9527 259.418 55.9532L259.418 55.9496Z" fill="white"/>
<path d="M310.101 168.432L306.891 168.419L307.405 63.4911L307.145 57.5544C307.011 54.4972 306.503 51.4865 305.632 48.6073C304.518 44.9207 302.819 40.153 299.546 35.9944L299.492 35.9203C297.324 32.8162 292.433 30.1055 286.409 28.6602L167.934 5.68383C167.58 5.62346 167.169 5.5388 166.73 5.45088C163.46 4.79474 158.99 3.89496 154 7.00024L122.422 28.777L122.152 28.8579L16.3439 59.8888L16.3048 59.8999C15.7889 60.0223 15.3053 60.1622 14.8611 60.3158C9.36349 62.2149 8.2669 64.8653 6.60993 68.8783C5.92421 70.5441 5.74574 74.4143 5.7344 75.7643L5.78542 159.973L2.57595 159.977L2.52118 75.7505C2.52607 75.175 2.59701 70.1905 3.63776 67.6615C5.33652 63.5486 6.9413 59.664 13.8071 57.2929C14.3366 57.1099 14.9127 56.9442 15.5139 56.7996L120.977 25.8681L152.194 4.35429L152.243 4.32538C158.339 0.498492 163.77 1.59105 167.365 2.31495C167.776 2.39961 168.165 2.47738 168.526 2.54123L287.094 25.5344L287.126 25.5412C290.376 26.3183 298.327 28.6997 302.101 34.0539C305.685 38.6215 307.512 43.736 308.707 47.6811C309.656 50.8153 310.209 54.0884 310.353 57.4119L310.617 63.4267L310.618 63.4658L310.104 168.432L310.101 168.432Z" fill="white"/>
<path d="M260.533 42.4267C260.426 42.4278 260.315 42.4182 260.208 42.3909L255.951 41.4463C255.183 41.2765 254.697 40.5176 254.868 39.7522C255.038 38.9867 255.804 38.503 256.569 38.6729L260.826 39.6175C261.594 39.7873 262.079 40.5461 261.909 41.3116C261.762 41.9702 261.182 42.4166 260.533 42.4231L260.533 42.4267Z" fill="white"/>
<path d="M212.979 36.8503C212.979 36.8503 212.951 36.8506 212.94 36.8471L149.196 22.7416C149.099 22.7212 149.038 22.6259 149.062 22.5298C149.082 22.4337 149.178 22.3723 149.274 22.3962L213.019 36.5018C213.115 36.5221 213.177 36.6174 213.153 36.7136C213.136 36.7954 213.061 36.853 212.979 36.8539L212.979 36.8503Z" fill="white"/>
<path d="M192.978 28.1111C192.949 28.1114 192.924 28.1117 192.896 28.1013L188.639 27.1568C188.446 27.1125 188.326 26.9255 188.367 26.7332C188.408 26.541 188.599 26.4218 188.792 26.4625L193.049 27.4071C193.242 27.4513 193.362 27.6384 193.321 27.8306C193.283 27.9944 193.138 28.106 192.978 28.1076L192.978 28.1111Z" fill="white"/>
<path d="M196.014 26.1339C195.986 26.1342 195.961 26.1345 195.932 26.1241L191.675 25.1795C191.482 25.1353 191.363 24.9482 191.404 24.756C191.444 24.5638 191.636 24.4446 191.829 24.4853L196.086 25.4299C196.279 25.4741 196.398 25.6611 196.357 25.8534C196.32 26.0172 196.175 26.1287 196.014 26.1304L196.014 26.1339Z" fill="white"/>
<path d="M207.253 28.4396C207.224 28.4399 207.199 28.4401 207.171 28.4297L202.914 27.4852C202.721 27.441 202.601 27.2539 202.642 27.0617C202.683 26.8694 202.874 26.7503 203.067 26.791L207.324 27.7355C207.517 27.7797 207.637 27.9668 207.596 28.159C207.558 28.3228 207.413 28.4344 207.253 28.436L207.253 28.4396Z" fill="white"/>
<path d="M169.801 22.7148C169.772 22.7151 169.747 22.7153 169.719 22.705L165.462 21.7604C165.269 21.7162 165.149 21.5291 165.19 21.3369C165.231 21.1446 165.422 21.0255 165.615 21.0662L169.872 22.0107C170.065 22.055 170.185 22.242 170.144 22.4342C170.106 22.598 169.961 22.7096 169.801 22.7112L169.801 22.7148Z" fill="white"/>
<path d="M181.228 25.3702C181.2 25.3705 181.175 25.3707 181.146 25.3604L176.889 24.4158C176.696 24.3716 176.577 24.1845 176.618 23.9923C176.659 23.8 176.854 23.6808 177.043 23.7216L181.3 24.6661C181.493 24.7103 181.612 24.8974 181.571 25.0896C181.534 25.2534 181.389 25.365 181.228 25.3666L181.228 25.3702Z" fill="white"/>
<path d="M184.268 23.3929C184.24 23.3932 184.215 23.3934 184.186 23.3831L179.929 22.4385C179.736 22.3943 179.617 22.2072 179.658 22.015C179.698 21.8227 179.89 21.7036 180.083 21.7443L184.34 22.6888C184.533 22.7331 184.652 22.9201 184.611 23.1123C184.574 23.2761 184.429 23.3877 184.268 23.3893L184.268 23.3929Z" fill="white"/>
<path d="M215.733 33.05C215.705 33.0503 215.68 33.0506 215.651 33.0402L211.394 32.0957C211.201 32.0514 211.082 31.8644 211.123 31.6721C211.163 31.4799 211.355 31.3607 211.548 31.4014L215.805 32.346C215.998 32.3902 216.117 32.5773 216.076 32.7695C216.039 32.9333 215.894 33.0449 215.733 33.0465L215.733 33.05Z" fill="white"/>
<path d="M218.77 31.0728C218.741 31.073 218.716 31.0733 218.687 31.0629L214.431 30.1184C214.238 30.0741 214.118 29.8871 214.159 29.6948C214.2 29.5026 214.391 29.3835 214.584 29.4241L218.841 30.3687C219.034 30.4129 219.153 30.6 219.113 30.7922C219.075 30.956 218.93 31.0676 218.77 31.0692L218.77 31.0728Z" fill="white"/>
<path d="M221.398 29.0143C221.37 29.0146 221.345 29.0149 221.316 29.0045L217.059 28.06C216.866 28.0157 216.747 27.8287 216.788 27.6364C216.829 27.4442 217.02 27.325 217.213 27.3657L221.47 28.3103C221.663 28.3545 221.782 28.5416 221.741 28.7338C221.704 28.8976 221.559 29.0092 221.398 29.0108L221.398 29.0143Z" fill="white"/>
<path d="M147.464 106.929C142.272 106.981 137.099 106.451 132.028 105.334C131.62 105.242 131.213 105.15 130.805 105.051L5.76569 70.8C5.76557 70.3506 4.85253 70.0703 5.00012 69.5005C5.15128 68.9306 5.73626 68.5908 6.3048 68.7414L131.323 102.989C131.695 103.078 132.091 103.17 132.488 103.254C144.972 106.006 158.118 105.077 170.504 100.565L306.949 50.846C307.503 50.6415 308.119 50.9266 308.321 51.4822C308.523 52.0343 308.24 52.6482 307.682 52.8492L171.238 102.569C163.496 105.389 155.458 106.852 147.46 106.933L147.464 106.929Z" fill="white"/>
<path d="M265.372 67.5208C262.438 61.2523 261.231 60.3231 255.83 58.019L121.544 28.015L121.854 26.6301L256.269 56.6611L256.33 56.6854C262.032 59.1144 263.552 60.2607 266.668 66.9181L265.376 67.5172L265.372 67.5208Z" fill="white"/>
<path d="M106.783 109.642C104.565 109.629 101.679 109.148 97.7301 108.084L36.7059 90.2285C29.8735 88.3216 28.879 83.8155 27.502 77.5809L27.3455 76.8767C27.2168 76.3005 27.5837 75.7342 28.1586 75.606C28.7334 75.4779 29.3055 75.8398 29.4342 76.416L29.5907 77.1202C30.9434 83.241 31.6875 86.6126 37.2951 88.1787L98.3087 106.031C109.354 109.006 110.733 107.213 113.485 103.641C114.078 102.87 114.753 101.996 115.575 101.095C115.973 100.66 116.651 100.629 117.087 101.025C117.523 101.422 117.555 102.097 117.157 102.532C116.393 103.366 115.778 104.165 115.182 104.94C112.987 107.794 111.243 109.667 106.783 109.642Z" fill="white"/>
<path d="M114.083 104.97C114.051 104.969 114.019 104.966 113.991 104.955L50.9818 87.4784C44.2018 85.7529 43.6077 84.2328 43.0741 81.4698C43.0464 81.3347 43.0257 81.2138 43.0191 81.1107C43.0087 81.061 42.9844 80.9507 42.9287 80.7053C42.887 80.5132 43.0057 80.3221 43.1985 80.2806C43.3913 80.239 43.5832 80.3573 43.6249 80.5494C43.6737 80.7592 43.7084 80.9193 43.722 81.0401C43.7219 81.0685 43.7392 81.1503 43.7738 81.3352C44.2416 83.7604 44.4979 85.0939 51.1639 86.7903L114.18 104.27C114.369 104.325 114.482 104.517 114.427 104.709C114.384 104.865 114.24 104.97 114.083 104.97Z" fill="white"/>
<path d="M148.208 136.824C140.498 136.902 132.919 136.037 125.843 134.226L4.92149 98.5517C4.35288 98.3941 4.01884 97.8042 4.18073 97.2378C4.33906 96.6714 4.92768 96.3386 5.49989 96.4998L126.4 132.167C140.265 135.718 156.147 135.529 171.096 131.638L307.528 97.2144C308.1 97.0701 308.681 97.4159 308.826 97.9863C308.971 98.5568 308.624 99.1357 308.051 99.2801L171.627 133.7C163.941 135.703 156.006 136.745 148.208 136.824Z" fill="white"/>
<path d="M216.994 114.475L186.13 122.381L186.177 111.156L217.037 103.25L216.994 114.475Z" fill="#FBB040"/>
<path d="M146.6 93.7696C139.761 93.8386 132.916 93.0339 126.256 91.3747L16.8288 62.1767C15.96 61.9616 15.5745 61.2125 15.5751 60.5695C15.5793 59.9265 15.9712 59.1837 16.8428 58.9724L120.743 28.5273C122.575 28.0897 124.501 28.0809 126.328 28.5029L253.005 56.946C253.849 57.14 254.423 57.8233 254.464 58.6861C254.504 59.5489 254.002 60.2822 253.184 60.5569L171.503 89.5611C163.445 92.2675 155.069 93.6841 146.6 93.7696ZM120.921 29.204L17.0173 59.6527C16.473 59.7825 16.2778 60.232 16.2777 60.5731C16.2775 60.9141 16.464 61.3669 17.0002 61.5L126.431 90.698C141.271 94.3953 156.781 93.7734 171.278 88.8991L252.96 59.8949C253.589 59.6825 253.787 59.1299 253.769 58.718C253.75 58.3061 253.495 57.7759 252.855 57.626L126.17 29.183C124.451 28.7847 122.636 28.7924 120.921 29.204Z" fill="white"/>
</svg>
