<svg width="375" height="232" viewBox="0 0 375 232" fill="none" xmlns="http://www.w3.org/2000/svg">
<g clip-path="url(#clip0_600_5979)">
<rect width="375" height="232" fill="black"/>
<path d="M212.808 67.5769L271.414 125.908C276.56 131.029 274.705 139.754 267.922 142.34L172.975 178.532C169.08 180.016 166.515 183.761 166.537 187.93L167.115 295" stroke="white" stroke-width="2" stroke-linecap="round"/>
<path d="M82.5 47L137.733 93.4759C143.513 98.3392 142.021 107.609 135.007 110.413L62.2877 139.486C58.4903 141.004 56 144.682 56 148.772V276" stroke="white" stroke-width="2" stroke-linecap="round"/>
<path d="M215.923 -164V58.6548C215.923 64.8479 210.351 69.5519 204.246 68.5131L86.1302 48.4161C81.3237 47.5983 77.8076 43.4334 77.8076 38.5578V-119.211" stroke="white" stroke-width="2" stroke-linecap="round"/>
<path d="M189.961 -106.885V-7.34839C189.961 -5.19153 189.264 -3.09249 187.973 -1.36442L174.057 17.2684C171.923 20.1258 168.428 21.6303 164.886 21.2171L101.054 13.7707C97.3056 13.3335 94.1228 10.8236 92.8237 7.28065L89.8417 -0.852135C89.4374 -1.95485 89.2305 -3.12018 89.2305 -4.29468V-88.0402" stroke="white" stroke-width="2" stroke-linecap="round"/>
<path d="M201.782 32.2954C201.974 38.2458 198.205 42.8392 193.776 42.982C189.347 43.1247 185.29 38.7836 185.098 32.8332C184.907 26.8828 188.676 22.2894 193.104 22.1466C197.533 22.0039 201.59 26.345 201.782 32.2954Z" stroke="white" stroke-width="2"/>
<path d="M182.642 50.0501C183.217 52.9665 181.506 55.6056 179.031 56.0935C176.557 56.5814 173.972 54.7894 173.397 51.873C172.822 48.9566 174.533 46.3175 177.008 45.8296C179.482 45.3417 182.067 47.1337 182.642 50.0501Z" stroke="white" stroke-width="2"/>
<path d="M57 146L170 180" stroke="white" stroke-width="2" stroke-linecap="round"/>
<path d="M142 104L273 135" stroke="white" stroke-width="2" stroke-linecap="round"/>
<path d="M181.654 187.724C181.654 186.878 182.186 186.124 182.982 185.84L216.367 173.934C217.669 173.469 219.038 174.435 219.038 175.817V184.933C219.038 185.764 218.525 186.508 217.748 186.803L184.363 199.472C183.055 199.968 181.654 199.002 181.654 197.602V187.724Z" fill="#F2A900"/>
<path d="M136.757 119.65C137.129 119.507 137.535 119.477 137.923 119.566L223.924 139.23C225.867 139.674 226.035 142.377 224.161 143.059L172.169 161.968C171.771 162.112 171.337 162.127 170.931 162.01L94.3023 139.909C92.4615 139.378 92.3485 136.812 94.1356 136.122L136.757 119.65L136.397 118.72L136.757 119.65Z" stroke="white" stroke-width="2"/>
<line x1="324" y1="-105.885" x2="324" y2="294" stroke="white" stroke-width="2" stroke-linecap="round"/>
</g>
<defs>
<clipPath id="clip0_600_5979">
<rect width="375" height="232" fill="white"/>
</clipPath>
</defs>
</svg>
