<svg width="375" height="232" viewBox="0 0 375 232" fill="none" xmlns="http://www.w3.org/2000/svg">
<g clip-path="url(#clip0_452_5962)">
<rect width="375" height="232" fill="black"/>
<path d="M80.606 99.4525L69.6022 88.4532C75.8063 82.2516 83.2982 77.9226 91.2582 75.4649L91.7261 91.7296C87.6294 93.6019 83.8835 96.1762 80.606 99.4525ZM90.79 61.5407L90.3221 45.7437C75.2218 48.7858 60.706 56.1578 49 67.8589L60.0038 78.8583C68.7833 70.0832 79.5523 64.3492 90.79 61.5407ZM122.279 61.5407C133.634 64.3492 144.286 70.0824 153.066 78.8583L164.07 67.8589C152.364 56.1578 137.848 48.7858 122.748 45.7437L122.279 61.5407ZM121.46 91.7298C125.558 93.6021 129.42 96.059 132.698 99.3351L143.702 88.3358C137.498 82.1342 130.006 77.8051 122.046 75.3475L121.46 91.7298ZM106.593 124.259C111.744 124.259 115.958 120.047 115.958 114.898C115.958 109.749 111.744 105.537 106.593 105.537C101.442 105.537 97.2283 109.749 97.2283 114.898C97.2283 120.047 101.442 124.259 106.593 124.259ZM102.847 97.8144H110.339C112.329 97.8144 113.851 96.293 113.967 94.3038L115.723 34.7448C115.84 32.7557 114.201 31 112.094 31H101.091C99.1006 31 97.4619 32.6381 97.4619 34.7448L99.2174 94.3038C99.3358 96.2929 100.857 97.8144 102.847 97.8144Z" fill="white"/>
<g opacity="0.2">
<path d="M131 286H243C258.915 286 274.175 279.68 285.427 268.427C296.679 257.174 303 241.915 303 226V114C303 98.085 296.68 82.825 285.427 71.5729C274.174 60.3207 258.915 54 243 54H131C115.085 54 99.825 60.3198 88.5729 71.5729C77.3207 82.8259 71 98.085 71 114V226C71 241.915 77.3198 257.175 88.5729 268.427C99.8259 279.679 115.085 286 131 286ZM94.9986 114C94.9986 104.452 98.7932 95.2943 105.543 88.5421C112.295 81.7927 121.452 77.9979 131.001 77.9979H243.001C252.549 77.9979 261.706 81.7925 268.459 88.5421C275.208 95.2944 279.003 104.451 279.003 114V226C279.003 235.548 275.208 244.706 268.459 251.458C261.706 258.207 252.549 262.002 243.001 262.002H131.001C121.453 262.002 112.295 258.207 105.543 251.458C98.7934 244.706 94.9986 235.549 94.9986 226V114Z" fill="white"/>
<path d="M158.999 148C158.999 155.732 152.73 162.002 144.998 162.002C137.266 162.002 131 155.732 131 148C131 140.268 137.266 134.002 144.998 134.002C152.73 134.002 158.999 140.268 158.999 148Z" fill="white"/>
<path d="M242.999 148C242.999 155.732 236.732 162.002 229 162.002C221.269 162.002 214.999 155.732 214.999 148C214.999 140.268 221.269 134.002 229 134.002C236.732 134.002 242.999 140.268 242.999 148Z" fill="white"/>
<path d="M157.478 226H216.518C218.137 222.205 218.979 218.126 218.999 214.002C218.999 202.568 212.899 192.004 202.997 186.287C193.098 180.573 180.899 180.573 170.999 186.287C161.097 192.004 154.998 202.568 154.998 214.002C155.018 218.126 155.86 222.205 157.478 226Z" fill="white"/>
</g>
</g>
<defs>
<clipPath id="clip0_452_5962">
<rect width="375" height="232" fill="white"/>
</clipPath>
</defs>
</svg>
