<svg width="318" height="56" viewBox="0 0 318 56" fill="none" xmlns="http://www.w3.org/2000/svg">
<path d="M317 56H1C0.4 56 0 55.6 0 55V1C0 0.4 0.4 0 1 0H317C317.6 0 318 0.4 318 1V55C318 55.6 317.6 56 317 56ZM2 54H316V2H2V54Z" fill="white"/>
<path d="M157.8 41.5C149.9 41.5 143.6 35.1 143.6 27.3C143.6 19.5 149.9 13 157.8 13C165.7 13 172 19.4 172 27.2C172 35 165.6 41.5 157.8 41.5ZM157.8 14C150.5 14 144.6 19.9 144.6 27.2C144.6 34.5 150.5 40.4 157.8 40.4C165.1 40.4 171 34.5 171 27.2C171 19.9 165.1 14 157.8 14Z" fill="white"/>
<path d="M121.5 20.7008C118.9 20.7008 116.8 18.6008 116.8 16.0008C116.8 13.4008 118.9 11.3008 121.5 11.3008C124.1 11.3008 126.2 13.4008 126.2 16.0008C126.2 18.6008 124 20.7008 121.5 20.7008ZM121.5 12.3008C119.5 12.3008 117.8 13.9008 117.8 16.0008C117.8 18.1008 119.4 19.7008 121.5 19.7008C123.6 19.7008 125.2 18.1008 125.2 16.0008C125.2 13.9008 123.5 12.3008 121.5 12.3008Z" fill="white"/>
<path d="M121.5 41.7004C119.1 41.7004 117.1 39.7004 117.1 37.3004C117.1 34.9004 119.1 32.9004 121.5 32.9004C123.9 32.9004 125.9 34.9004 125.9 37.3004C125.9 39.8004 123.9 41.7004 121.5 41.7004ZM121.5 33.9004C119.6 33.9004 118.1 35.4004 118.1 37.3004C118.1 39.2004 119.6 40.7004 121.5 40.7004C123.4 40.7004 124.9 39.2004 124.9 37.3004C124.9 35.4004 123.3 33.9004 121.5 33.9004Z" fill="white"/>
<path d="M221 5V48H234V5H221ZM227.5 41.8C225.1 41.8 223.1 39.8 223.1 37.4C223.1 35 225.1 33 227.5 33C229.9 33 231.9 35 231.9 37.4C231.9 39.8 229.9 41.8 227.5 41.8Z" fill="white"/>
<path d="M227.5 34C225.6 34 224.1 35.5 224.1 37.4C224.1 39.3 225.6 40.8 227.5 40.8C229.4 40.8 230.9 39.3 230.9 37.4C230.9 35.5 229.4 34 227.5 34Z" fill="white"/>
<path d="M242.1 41.7004C239.7 41.7004 237.7 39.7004 237.7 37.3004C237.7 34.9004 239.7 32.9004 242.1 32.9004C244.5 32.9004 246.5 34.9004 246.5 37.3004C246.5 39.8004 244.5 41.7004 242.1 41.7004ZM242.1 33.9004C240.2 33.9004 238.7 35.4004 238.7 37.3004C238.7 39.2004 240.2 40.7004 242.1 40.7004C244 40.7004 245.5 39.2004 245.5 37.3004C245.5 35.4004 244 33.9004 242.1 33.9004Z" fill="white"/>
<path d="M257 41.7004C254.6 41.7004 252.6 39.7004 252.6 37.3004C252.6 34.9004 254.6 32.9004 257 32.9004C259.4 32.9004 261.4 34.9004 261.4 37.3004C261.4 39.8004 259.5 41.7004 257 41.7004ZM257 33.9004C255.1 33.9004 253.6 35.4004 253.6 37.3004C253.6 39.2004 255.1 40.7004 257 40.7004C258.9 40.7004 260.4 39.2004 260.4 37.3004C260.4 35.4004 258.9 33.9004 257 33.9004Z" fill="white"/>
<path d="M271.7 41.7004C269.3 41.7004 267.3 39.7004 267.3 37.3004C267.3 34.9004 269.3 32.9004 271.7 32.9004C274.1 32.9004 276.1 34.9004 276.1 37.3004C276.1 39.8004 274.1 41.7004 271.7 41.7004ZM271.7 33.9004C269.8 33.9004 268.3 35.4004 268.3 37.3004C268.3 39.2004 269.8 40.7004 271.7 40.7004C273.6 40.7004 275.1 39.2004 275.1 37.3004C275.1 35.4004 273.6 33.9004 271.7 33.9004Z" fill="white"/>
<path d="M286.9 41.7004C284.5 41.7004 282.5 39.7004 282.5 37.3004C282.5 34.9004 284.5 32.9004 286.9 32.9004C289.3 32.9004 291.3 34.9004 291.3 37.3004C291.3 39.8004 289.3 41.7004 286.9 41.7004ZM286.9 33.9004C285 33.9004 283.5 35.4004 283.5 37.3004C283.5 39.2004 285 40.7004 286.9 40.7004C288.8 40.7004 290.3 39.2004 290.3 37.3004C290.3 35.4004 288.7 33.9004 286.9 33.9004Z" fill="white"/>
<path d="M302.1 41.7004C299.7 41.7004 297.7 39.7004 297.7 37.3004C297.7 34.9004 299.7 32.9004 302.1 32.9004C304.5 32.9004 306.5 34.9004 306.5 37.3004C306.5 39.8004 304.5 41.7004 302.1 41.7004Z" fill="#F2A900"/>
<path d="M302.1 20.3996C299.7 20.3996 297.7 18.3996 297.7 15.9996C297.7 13.5996 299.7 11.5996 302.1 11.5996C304.5 11.5996 306.5 13.5996 306.5 15.9996C306.5 18.3996 304.5 20.3996 302.1 20.3996Z" fill="#F2A900"/>
<path d="M196.7 33.9004C194.8 33.9004 193.3 35.4004 193.3 37.3004C193.3 39.2004 194.8 40.7004 196.7 40.7004C198.6 40.7004 200.1 39.2004 200.1 37.3004C200.1 35.4004 198.6 33.9004 196.7 33.9004Z" fill="white"/>
<path d="M188 5V48H220V5H188ZM212.7 12C213.1 12 213.4 12.3 213.4 12.7C213.4 13.1 213.1 13.4 212.7 13.4C212.3 13.4 212 13.1 212 12.7C212 12.3 212.3 12 212.7 12ZM204.3 12C204.7 12 205 12.3 205 12.7C205 13.1 204.7 13.4 204.3 13.4C203.9 13.4 203.6 13.1 203.6 12.7C203.6 12.3 203.9 12 204.3 12ZM196.1 12C196.5 12 196.8 12.3 196.8 12.7C196.8 13.1 196.5 13.4 196.1 13.4C195.7 13.4 195.4 13.1 195.4 12.7C195.4 12.3 195.7 12 196.1 12ZM196.7 41.7C194.3 41.7 192.3 39.7 192.3 37.3C192.3 34.9 194.3 32.9 196.7 32.9C199.1 32.9 201.1 34.9 201.1 37.3C201.2 39.8 199.2 41.7 196.7 41.7ZM212 41.7C209.6 41.7 207.6 39.7 207.6 37.3C207.6 34.9 209.6 32.9 212 32.9C214.4 32.9 216.4 34.9 216.4 37.3C216.4 39.8 214.5 41.7 212 41.7ZM218 28H191V17H218V28Z" fill="white"/>
<path d="M212 33.9004C210.1 33.9004 208.6 35.4004 208.6 37.3004C208.6 39.2004 210.1 40.7004 212 40.7004C213.9 40.7004 215.4 39.2004 215.4 37.3004C215.4 35.4004 213.9 33.9004 212 33.9004Z" fill="white"/>
<path d="M108 56H1C0.5 56 0 55.6 0 55V1C0 0.4 0.4 0 1 0H108C108.5 0 109 0.4 109 1V55C109 55.6 108.6 56 108 56ZM2 54H107V2H2V54Z" fill="white"/>
<path d="M82.5 49H24.5C22 49 20 47 20 44.5V31.5C20 31.2 20.2 31 20.5 31H86.5C86.8 31 87 31.2 87 31.5V44.5C87 47 85 49 82.5 49ZM21 32V44.5C21 46.4 22.6 48 24.5 48H82.5C84.4 48 86 46.4 86 44.5V32H21Z" fill="white"/>
<path d="M157.8 44.1992C148.4 44.1992 140.8 36.5992 140.8 27.1992C140.8 17.7992 148.4 10.1992 157.8 10.1992C167.2 10.1992 174.8 17.7992 174.8 27.1992C174.8 36.5992 167.1 44.1992 157.8 44.1992ZM157.8 11.1992C149 11.1992 141.8 18.3992 141.8 27.1992C141.8 35.9992 149 43.1992 157.8 43.1992C166.6 43.1992 173.8 35.9992 173.8 27.1992C173.8 18.3992 166.6 11.1992 157.8 11.1992Z" fill="white"/>
</svg>
