<svg width="269" height="259" viewBox="0 0 269 259" fill="none" xmlns="http://www.w3.org/2000/svg">
<circle cx="52.839" cy="192.828" r="19.4005" stroke="white"/>
<circle cx="139.304" cy="192.828" r="19.4005" stroke="white"/>
<circle cx="227.141" cy="192.828" r="18.9005" stroke="white" stroke-width="2"/>
<circle cx="227.141" cy="118.717" r="19.4005" stroke="white"/>
<circle cx="227.141" cy="45.9767" r="19.4005" stroke="white"/>
<rect x="1" y="1" width="267" height="256.02" rx="5" stroke="white" stroke-width="2"/>
<rect x="19.5" y="25.2031" width="152.714" height="112.913" rx="4.5" stroke="white"/>
<path d="M56.784 199.005C56.6329 199.006 56.4843 198.969 56.3545 198.897L45.6857 192.8C45.5653 192.731 45.4658 192.634 45.3968 192.52C45.3277 192.405 45.2913 192.276 45.291 192.144C45.2922 192.015 45.3291 191.887 45.3981 191.774C45.4672 191.662 45.5662 191.567 45.6857 191.499L56.3545 185.402C56.448 185.347 56.5524 185.31 56.6617 185.292C56.7709 185.275 56.8828 185.278 56.9909 185.301C57.0989 185.324 57.2009 185.367 57.291 185.427C57.381 185.486 57.4573 185.562 57.5154 185.65C57.5745 185.737 57.6141 185.834 57.6321 185.936C57.65 186.038 57.6459 186.141 57.62 186.242C57.594 186.342 57.5467 186.436 57.481 186.519C57.4152 186.602 57.3322 186.672 57.2368 186.725L47.6941 192.166L57.2252 197.618C57.3206 197.671 57.4036 197.741 57.4694 197.824C57.5352 197.907 57.5824 198.001 57.6084 198.101C57.6343 198.201 57.6384 198.305 57.6205 198.407C57.6025 198.508 57.5629 198.606 57.5038 198.693C57.4205 198.795 57.3113 198.877 57.1858 198.932C57.0604 198.986 56.9224 199.011 56.784 199.005V199.005Z" fill="white"/>
<path d="M136.615 199.001C136.49 199.002 136.367 198.969 136.259 198.905C136.15 198.841 136.06 198.748 135.997 198.636C135.941 198.551 135.903 198.455 135.884 198.353C135.866 198.251 135.868 198.147 135.89 198.046C135.913 197.946 135.955 197.851 136.014 197.768C136.073 197.685 136.147 197.615 136.233 197.564L144.689 192.126L136.244 186.73C136.159 186.678 136.085 186.608 136.027 186.525C135.969 186.441 135.927 186.347 135.905 186.247C135.883 186.146 135.881 186.043 135.898 185.941C135.916 185.84 135.953 185.744 136.007 185.658C136.056 185.568 136.123 185.49 136.203 185.429C136.282 185.367 136.374 185.324 136.47 185.3C136.567 185.277 136.667 185.275 136.765 185.294C136.862 185.313 136.955 185.353 137.037 185.411L146.502 191.493C146.608 191.559 146.697 191.654 146.758 191.767C146.819 191.879 146.852 192.007 146.852 192.136C146.852 192.266 146.819 192.393 146.758 192.506C146.697 192.619 146.608 192.713 146.502 192.78L136.996 198.937C136.877 198.994 136.745 199.016 136.615 199.001V199.001Z" fill="white"/>
<path d="M224.522 126.253C224.414 126.253 224.308 126.23 224.209 126.186C224.11 126.141 224.021 126.076 223.948 125.994C223.036 124.98 222.112 123.977 221.2 122.975C221.126 122.898 221.066 122.807 221.025 122.705C220.985 122.604 220.964 122.495 220.964 122.386C220.964 122.276 220.985 122.167 221.025 122.066C221.066 121.965 221.126 121.873 221.2 121.796C221.35 121.641 221.552 121.553 221.763 121.553C221.974 121.553 222.177 121.641 222.326 121.796C223.002 122.539 223.677 123.294 224.364 124.036L231.795 111.573C231.85 111.476 231.924 111.391 232.011 111.325C232.099 111.258 232.198 111.212 232.304 111.187C232.41 111.163 232.519 111.162 232.625 111.183C232.731 111.205 232.832 111.25 232.921 111.314C233.015 111.37 233.097 111.447 233.161 111.538C233.226 111.629 233.272 111.734 233.296 111.844C233.32 111.955 233.322 112.07 233.302 112.181C233.282 112.293 233.241 112.399 233.18 112.493C230.523 116.95 227.862 121.407 225.197 125.864C225.133 125.974 225.046 126.067 224.943 126.136C224.84 126.206 224.723 126.25 224.601 126.265L224.522 126.253Z" fill="white"/>
<path d="M229.923 40.9666H225.492V39.2714C225.491 39.1228 225.453 38.9769 225.379 38.8489C225.306 38.7209 225.201 38.6153 225.075 38.5432C224.951 38.4676 224.809 38.4277 224.665 38.4277C224.52 38.4277 224.378 38.4676 224.254 38.5432L219.997 41.074C219.872 41.1497 219.769 41.258 219.698 41.388C219.627 41.518 219.59 41.665 219.592 41.8143C219.592 41.9615 219.63 42.1061 219.701 42.2338C219.772 42.3614 219.874 42.4678 219.997 42.5425L224.254 45.0853C224.382 45.1556 224.525 45.1925 224.67 45.1927C224.812 45.1925 224.951 45.1556 225.075 45.0853C225.201 45.0102 225.306 44.9024 225.379 44.7725C225.452 44.6426 225.491 44.4953 225.492 44.3452V42.6022H229.899C230.734 42.6022 231.534 42.9443 232.124 43.5533C232.714 44.1622 233.046 44.9881 233.046 45.8493C233.046 46.2757 232.965 46.698 232.806 47.092C232.648 47.486 232.417 47.8439 232.124 48.1454C231.832 48.447 231.485 48.6862 231.104 48.8494C230.722 49.0126 230.313 49.0965 229.899 49.0965H222.854C222.747 49.0965 222.641 49.1185 222.542 49.1612C222.443 49.204 222.353 49.2666 222.277 49.3455C222.202 49.4244 222.143 49.5179 222.103 49.6206C222.063 49.7234 222.043 49.8334 222.044 49.9442C222.044 50.0539 222.065 50.1626 222.106 50.264C222.147 50.3654 222.206 50.4574 222.282 50.535C222.357 50.6126 222.446 50.6742 222.544 50.7162C222.643 50.7582 222.748 50.7798 222.854 50.7798H229.899C231.168 50.7798 232.384 50.2607 233.282 49.3364C234.18 48.4121 234.686 47.158 234.689 45.8493C234.674 44.553 234.165 43.3148 233.274 42.4014C232.382 41.4881 231.179 40.9728 229.923 40.9666Z" fill="white"/>
<path d="M233.816 199.005H220.465C220.233 199.005 220.011 198.933 219.847 198.804C219.684 198.676 219.592 198.501 219.592 198.319C219.592 198.137 219.684 197.962 219.847 197.834C220.011 197.705 220.233 197.633 220.465 197.633H233.816C234.047 197.633 234.269 197.705 234.433 197.834C234.597 197.962 234.689 198.137 234.689 198.319C234.689 198.501 234.597 198.676 234.433 198.804C234.269 198.933 234.047 199.005 233.816 199.005V199.005Z" fill="white"/>
<path d="M233.816 193.515H220.465C220.233 193.515 220.011 193.443 219.847 193.314C219.684 193.185 219.592 193.011 219.592 192.829C219.592 192.647 219.684 192.472 219.847 192.344C220.011 192.215 220.233 192.143 220.465 192.143H233.816C234.047 192.143 234.269 192.215 234.433 192.344C234.597 192.472 234.689 192.647 234.689 192.829C234.689 193.011 234.597 193.185 234.433 193.314C234.269 193.443 234.047 193.515 233.816 193.515Z" fill="white"/>
<path d="M233.816 188.025H220.465C220.233 188.025 220.011 187.953 219.848 187.824C219.684 187.695 219.592 187.521 219.592 187.339C219.59 187.248 219.612 187.158 219.655 187.075C219.698 186.991 219.763 186.915 219.844 186.851C219.925 186.787 220.022 186.736 220.129 186.702C220.236 186.668 220.35 186.651 220.465 186.652H233.816C233.931 186.651 234.045 186.668 234.152 186.702C234.258 186.736 234.355 186.787 234.436 186.851C234.518 186.915 234.582 186.991 234.625 187.075C234.669 187.158 234.69 187.248 234.689 187.339C234.689 187.521 234.597 187.695 234.433 187.824C234.269 187.953 234.047 188.025 233.816 188.025V188.025Z" fill="white"/>
<path d="M76.7792 51H75.4112L71.2952 44.772V51H69.9272V42.648H71.2952L75.4112 48.864V42.648H76.7792V51ZM84.8756 47.532C84.8756 47.78 84.8596 48.004 84.8276 48.204H79.7756C79.8156 48.732 80.0116 49.156 80.3636 49.476C80.7156 49.796 81.1476 49.956 81.6596 49.956C82.3956 49.956 82.9156 49.648 83.2196 49.032H84.6956C84.4956 49.64 84.1316 50.14 83.6036 50.532C83.0836 50.916 82.4356 51.108 81.6596 51.108C81.0276 51.108 80.4596 50.968 79.9556 50.688C79.4596 50.4 79.0676 50 78.7796 49.488C78.4996 48.968 78.3596 48.368 78.3596 47.688C78.3596 47.008 78.4956 46.412 78.7676 45.9C79.0476 45.38 79.4356 44.98 79.9316 44.7C80.4356 44.42 81.0116 44.28 81.6596 44.28C82.2836 44.28 82.8396 44.416 83.3276 44.688C83.8156 44.96 84.1956 45.344 84.4676 45.84C84.7396 46.328 84.8756 46.892 84.8756 47.532ZM83.4476 47.1C83.4396 46.596 83.2596 46.192 82.9076 45.888C82.5556 45.584 82.1196 45.432 81.5996 45.432C81.1276 45.432 80.7236 45.584 80.3876 45.888C80.0516 46.184 79.8516 46.588 79.7876 47.1H83.4476ZM88.0579 45.504V49.164C88.0579 49.412 88.1139 49.592 88.2259 49.704C88.3459 49.808 88.5459 49.86 88.8259 49.86H89.6659V51H88.5859C87.9699 51 87.4979 50.856 87.1699 50.568C86.8419 50.28 86.6779 49.812 86.6779 49.164V45.504H85.8979V44.388H86.6779V42.744H88.0579V44.388H89.6659V45.504H88.0579ZM100.047 44.388L97.9947 51H96.5547L95.2227 46.116L93.8907 51H92.4507L90.3867 44.388H91.7787L93.1587 49.704L94.5627 44.388H95.9907L97.3347 49.68L98.7027 44.388H100.047ZM104.177 51.108C103.553 51.108 102.989 50.968 102.485 50.688C101.981 50.4 101.585 50 101.297 49.488C101.009 48.968 100.865 48.368 100.865 47.688C100.865 47.016 101.013 46.42 101.309 45.9C101.605 45.38 102.009 44.98 102.521 44.7C103.033 44.42 103.605 44.28 104.237 44.28C104.869 44.28 105.441 44.42 105.953 44.7C106.465 44.98 106.869 45.38 107.165 45.9C107.461 46.42 107.609 47.016 107.609 47.688C107.609 48.36 107.457 48.956 107.153 49.476C106.849 49.996 106.433 50.4 105.905 50.688C105.385 50.968 104.809 51.108 104.177 51.108ZM104.177 49.92C104.529 49.92 104.857 49.836 105.161 49.668C105.473 49.5 105.725 49.248 105.917 48.912C106.109 48.576 106.205 48.168 106.205 47.688C106.205 47.208 106.113 46.804 105.929 46.476C105.745 46.14 105.501 45.888 105.197 45.72C104.893 45.552 104.565 45.468 104.213 45.468C103.861 45.468 103.533 45.552 103.229 45.72C102.933 45.888 102.697 46.14 102.521 46.476C102.345 46.804 102.257 47.208 102.257 47.688C102.257 48.4 102.437 48.952 102.797 49.344C103.165 49.728 103.625 49.92 104.177 49.92ZM110.569 45.348C110.769 45.012 111.033 44.752 111.361 44.568C111.697 44.376 112.093 44.28 112.549 44.28V45.696H112.201C111.665 45.696 111.257 45.832 110.977 46.104C110.705 46.376 110.569 46.848 110.569 47.52V51H109.201V44.388H110.569V45.348ZM116.663 47.7L119.711 51H117.863L115.415 48.156V51H114.047V42.12H115.415V47.28L117.815 44.388H119.711L116.663 47.7ZM121.483 51.084C121.235 51.084 121.027 51 120.859 50.832C120.691 50.664 120.607 50.456 120.607 50.208C120.607 49.96 120.691 49.752 120.859 49.584C121.027 49.416 121.235 49.332 121.483 49.332C121.723 49.332 121.927 49.416 122.095 49.584C122.263 49.752 122.347 49.96 122.347 50.208C122.347 50.456 122.263 50.664 122.095 50.832C121.927 51 121.723 51.084 121.483 51.084ZM121.483 46.044C121.235 46.044 121.027 45.96 120.859 45.792C120.691 45.624 120.607 45.416 120.607 45.168C120.607 44.92 120.691 44.712 120.859 44.544C121.027 44.376 121.235 44.292 121.483 44.292C121.723 44.292 121.927 44.376 122.095 44.544C122.263 44.712 122.347 44.92 122.347 45.168C122.347 45.416 122.263 45.624 122.095 45.792C121.927 45.96 121.723 46.044 121.483 46.044ZM43.9658 63.06C43.7498 62.644 43.4498 62.332 43.0658 62.124C42.6818 61.908 42.2378 61.8 41.7338 61.8C41.1818 61.8 40.6898 61.924 40.2578 62.172C39.8258 62.42 39.4858 62.772 39.2378 63.228C38.9978 63.684 38.8778 64.212 38.8778 64.812C38.8778 65.412 38.9978 65.944 39.2378 66.408C39.4858 66.864 39.8258 67.216 40.2578 67.464C40.6898 67.712 41.1818 67.836 41.7338 67.836C42.4778 67.836 43.0818 67.628 43.5458 67.212C44.0098 66.796 44.2938 66.232 44.3978 65.52H41.2658V64.428H45.8618V65.496C45.7738 66.144 45.5418 66.74 45.1658 67.284C44.7978 67.828 44.3138 68.264 43.7138 68.592C43.1218 68.912 42.4618 69.072 41.7338 69.072C40.9498 69.072 40.2338 68.892 39.5858 68.532C38.9378 68.164 38.4218 67.656 38.0378 67.008C37.6618 66.36 37.4738 65.628 37.4738 64.812C37.4738 63.996 37.6618 63.264 38.0378 62.616C38.4218 61.968 38.9378 61.464 39.5858 61.104C40.2418 60.736 40.9578 60.552 41.7338 60.552C42.6218 60.552 43.4098 60.772 44.0978 61.212C44.7938 61.644 45.2978 62.26 45.6098 63.06H43.9658ZM48.8191 61.764V64.212H51.6991V65.328H48.8191V67.884H52.0591V69H47.4511V60.648H52.0591V61.764H48.8191ZM61.2921 69.48V70.752H54.5961V69.48H61.2921ZM72.5823 60.66V69H71.2143V63.288L68.6703 69H67.7223L65.1663 63.288V69H63.7983V60.66H65.2743L68.2023 67.2L71.1183 60.66H72.5823ZM78.4243 69.084C77.6483 69.084 76.9323 68.904 76.2763 68.544C75.6283 68.176 75.1123 67.668 74.7283 67.02C74.3523 66.364 74.1643 65.628 74.1643 64.812C74.1643 63.996 74.3523 63.264 74.7283 62.616C75.1123 61.968 75.6283 61.464 76.2763 61.104C76.9323 60.736 77.6483 60.552 78.4243 60.552C79.2083 60.552 79.9243 60.736 80.5723 61.104C81.2283 61.464 81.7443 61.968 82.1203 62.616C82.4963 63.264 82.6843 63.996 82.6843 64.812C82.6843 65.628 82.4963 66.364 82.1203 67.02C81.7443 67.668 81.2283 68.176 80.5723 68.544C79.9243 68.904 79.2083 69.084 78.4243 69.084ZM78.4243 67.896C78.9763 67.896 79.4683 67.772 79.9003 67.524C80.3323 67.268 80.6683 66.908 80.9083 66.444C81.1563 65.972 81.2803 65.428 81.2803 64.812C81.2803 64.196 81.1563 63.656 80.9083 63.192C80.6683 62.728 80.3323 62.372 79.9003 62.124C79.4683 61.876 78.9763 61.752 78.4243 61.752C77.8723 61.752 77.3803 61.876 76.9483 62.124C76.5163 62.372 76.1763 62.728 75.9283 63.192C75.6883 63.656 75.5683 64.196 75.5683 64.812C75.5683 65.428 75.6883 65.972 75.9283 66.444C76.1763 66.908 76.5163 67.268 76.9483 67.524C77.3803 67.772 77.8723 67.896 78.4243 67.896ZM86.9945 60.66C87.8825 60.66 88.6585 60.832 89.3225 61.176C89.9945 61.512 90.5105 62 90.8705 62.64C91.2385 63.272 91.4225 64.012 91.4225 64.86C91.4225 65.708 91.2385 66.444 90.8705 67.068C90.5105 67.692 89.9945 68.172 89.3225 68.508C88.6585 68.836 87.8825 69 86.9945 69H84.2705V60.66H86.9945ZM86.9945 67.884C87.9705 67.884 88.7185 67.62 89.2385 67.092C89.7585 66.564 90.0185 65.82 90.0185 64.86C90.0185 63.892 89.7585 63.136 89.2385 62.592C88.7185 62.048 87.9705 61.776 86.9945 61.776H85.6385V67.884H86.9945ZM94.3743 60.66V65.976C94.3743 66.608 94.5383 67.084 94.8663 67.404C95.2023 67.724 95.6663 67.884 96.2583 67.884C96.8583 67.884 97.3223 67.724 97.6503 67.404C97.9863 67.084 98.1543 66.608 98.1543 65.976V60.66H99.5223V65.952C99.5223 66.632 99.3743 67.208 99.0783 67.68C98.7823 68.152 98.3863 68.504 97.8903 68.736C97.3943 68.968 96.8463 69.084 96.2463 69.084C95.6463 69.084 95.0983 68.968 94.6023 68.736C94.1143 68.504 93.7263 68.152 93.4383 67.68C93.1503 67.208 93.0063 66.632 93.0063 65.952V60.66H94.3743ZM102.911 67.896H105.731V69H101.543V60.66H102.911V67.896ZM108.483 61.764V64.212H111.363V65.328H108.483V67.884H111.723V69H107.115V60.648H111.723V61.764H108.483ZM120.956 69.48V70.752H114.26V69.48H120.956ZM127.291 64.836L129.883 69H128.347L126.463 65.976L124.699 69H123.175L125.767 64.836L123.163 60.66H124.699L126.595 63.708L128.371 60.66H129.895L127.291 64.836ZM135.453 64.836L138.045 69H136.509L134.625 65.976L132.861 69H131.337L133.929 64.836L131.325 60.66H132.861L134.757 63.708L136.533 60.66H138.057L135.453 64.836ZM143.614 64.836L146.206 69H144.67L142.786 65.976L141.022 69H139.498L142.09 64.836L139.486 60.66H141.022L142.918 63.708L144.694 60.66H146.218L143.614 64.836ZM151.776 64.836L154.368 69H152.832L150.948 65.976L149.184 69H147.66L150.252 64.836L147.648 60.66H149.184L151.08 63.708L152.856 60.66H154.38L151.776 64.836Z" fill="white"/>
<path d="M71.1099 94.144C71.1099 94.568 71.0099 94.968 70.8099 95.344C70.6099 95.72 70.2899 96.028 69.8499 96.268C69.4099 96.5 68.8459 96.616 68.1579 96.616H66.6459V100H65.2779V91.66H68.1579C68.7979 91.66 69.3379 91.772 69.7779 91.996C70.2259 92.212 70.5579 92.508 70.7739 92.884C70.9979 93.26 71.1099 93.68 71.1099 94.144ZM68.1579 95.5C68.6779 95.5 69.0659 95.384 69.3219 95.152C69.5779 94.912 69.7059 94.576 69.7059 94.144C69.7059 93.232 69.1899 92.776 68.1579 92.776H66.6459V95.5H68.1579ZM72.1986 96.664C72.1986 96 72.3346 95.412 72.6066 94.9C72.8866 94.388 73.2626 93.992 73.7346 93.712C74.2146 93.424 74.7426 93.28 75.3186 93.28C75.8386 93.28 76.2906 93.384 76.6746 93.592C77.0666 93.792 77.3786 94.044 77.6106 94.348V93.388H78.9906V100H77.6106V99.016C77.3786 99.328 77.0626 99.588 76.6626 99.796C76.2626 100.004 75.8066 100.108 75.2946 100.108C74.7266 100.108 74.2066 99.964 73.7346 99.676C73.2626 99.38 72.8866 98.972 72.6066 98.452C72.3346 97.924 72.1986 97.328 72.1986 96.664ZM77.6106 96.688C77.6106 96.232 77.5146 95.836 77.3226 95.5C77.1386 95.164 76.8946 94.908 76.5906 94.732C76.2866 94.556 75.9586 94.468 75.6066 94.468C75.2546 94.468 74.9266 94.556 74.6226 94.732C74.3186 94.9 74.0706 95.152 73.8786 95.488C73.6946 95.816 73.6026 96.208 73.6026 96.664C73.6026 97.12 73.6946 97.52 73.8786 97.864C74.0706 98.208 74.3186 98.472 74.6226 98.656C74.9346 98.832 75.2626 98.92 75.6066 98.92C75.9586 98.92 76.2866 98.832 76.5906 98.656C76.8946 98.48 77.1386 98.224 77.3226 97.888C77.5146 97.544 77.6106 97.144 77.6106 96.688ZM83.4274 100.108C82.9074 100.108 82.4394 100.016 82.0234 99.832C81.6154 99.64 81.2914 99.384 81.0514 99.064C80.8114 98.736 80.6834 98.372 80.6674 97.972H82.0834C82.1074 98.252 82.2394 98.488 82.4794 98.68C82.7274 98.864 83.0354 98.956 83.4034 98.956C83.7874 98.956 84.0834 98.884 84.2914 98.74C84.5074 98.588 84.6154 98.396 84.6154 98.164C84.6154 97.916 84.4954 97.732 84.2554 97.612C84.0234 97.492 83.6514 97.36 83.1394 97.216C82.6434 97.08 82.2394 96.948 81.9274 96.82C81.6154 96.692 81.3434 96.496 81.1114 96.232C80.8874 95.968 80.7754 95.62 80.7754 95.188C80.7754 94.836 80.8794 94.516 81.0874 94.228C81.2954 93.932 81.5914 93.7 81.9754 93.532C82.3674 93.364 82.8154 93.28 83.3194 93.28C84.0714 93.28 84.6754 93.472 85.1314 93.856C85.5954 94.232 85.8434 94.748 85.8754 95.404H84.5074C84.4834 95.108 84.3634 94.872 84.1474 94.696C83.9314 94.52 83.6394 94.432 83.2714 94.432C82.9114 94.432 82.6354 94.5 82.4434 94.636C82.2514 94.772 82.1554 94.952 82.1554 95.176C82.1554 95.352 82.2194 95.5 82.3474 95.62C82.4754 95.74 82.6314 95.836 82.8154 95.908C82.9994 95.972 83.2714 96.056 83.6314 96.16C84.1114 96.288 84.5034 96.42 84.8074 96.556C85.1194 96.684 85.3874 96.876 85.6114 97.132C85.8354 97.388 85.9514 97.728 85.9594 98.152C85.9594 98.528 85.8554 98.864 85.6474 99.16C85.4394 99.456 85.1434 99.688 84.7594 99.856C84.3834 100.024 83.9394 100.108 83.4274 100.108ZM90.0776 100.108C89.5576 100.108 89.0896 100.016 88.6736 99.832C88.2656 99.64 87.9416 99.384 87.7016 99.064C87.4616 98.736 87.3336 98.372 87.3176 97.972H88.7336C88.7576 98.252 88.8896 98.488 89.1296 98.68C89.3776 98.864 89.6856 98.956 90.0536 98.956C90.4376 98.956 90.7336 98.884 90.9416 98.74C91.1576 98.588 91.2656 98.396 91.2656 98.164C91.2656 97.916 91.1456 97.732 90.9056 97.612C90.6736 97.492 90.3016 97.36 89.7896 97.216C89.2936 97.08 88.8896 96.948 88.5776 96.82C88.2656 96.692 87.9936 96.496 87.7616 96.232C87.5376 95.968 87.4256 95.62 87.4256 95.188C87.4256 94.836 87.5296 94.516 87.7376 94.228C87.9456 93.932 88.2416 93.7 88.6256 93.532C89.0176 93.364 89.4656 93.28 89.9696 93.28C90.7216 93.28 91.3256 93.472 91.7816 93.856C92.2456 94.232 92.4936 94.748 92.5256 95.404H91.1576C91.1336 95.108 91.0136 94.872 90.7976 94.696C90.5816 94.52 90.2896 94.432 89.9216 94.432C89.5616 94.432 89.2856 94.5 89.0936 94.636C88.9016 94.772 88.8056 94.952 88.8056 95.176C88.8056 95.352 88.8696 95.5 88.9976 95.62C89.1256 95.74 89.2816 95.836 89.4656 95.908C89.6496 95.972 89.9216 96.056 90.2816 96.16C90.7616 96.288 91.1536 96.42 91.4576 96.556C91.7696 96.684 92.0376 96.876 92.2616 97.132C92.4856 97.388 92.6016 97.728 92.6096 98.152C92.6096 98.528 92.5056 98.864 92.2976 99.16C92.0896 99.456 91.7936 99.688 91.4096 99.856C91.0336 100.024 90.5896 100.108 90.0776 100.108ZM103.208 93.388L101.156 100H99.7157L98.3837 95.116L97.0517 100H95.6117L93.5477 93.388H94.9397L96.3197 98.704L97.7237 93.388H99.1517L100.496 98.68L101.864 93.388H103.208ZM107.338 100.108C106.714 100.108 106.15 99.968 105.646 99.688C105.142 99.4 104.746 99 104.458 98.488C104.17 97.968 104.026 97.368 104.026 96.688C104.026 96.016 104.174 95.42 104.47 94.9C104.766 94.38 105.17 93.98 105.682 93.7C106.194 93.42 106.766 93.28 107.398 93.28C108.03 93.28 108.602 93.42 109.114 93.7C109.626 93.98 110.03 94.38 110.326 94.9C110.622 95.42 110.77 96.016 110.77 96.688C110.77 97.36 110.618 97.956 110.314 98.476C110.01 98.996 109.594 99.4 109.066 99.688C108.546 99.968 107.97 100.108 107.338 100.108ZM107.338 98.92C107.69 98.92 108.018 98.836 108.322 98.668C108.634 98.5 108.886 98.248 109.078 97.912C109.27 97.576 109.366 97.168 109.366 96.688C109.366 96.208 109.274 95.804 109.09 95.476C108.906 95.14 108.662 94.888 108.358 94.72C108.054 94.552 107.726 94.468 107.374 94.468C107.022 94.468 106.694 94.552 106.39 94.72C106.094 94.888 105.858 95.14 105.682 95.476C105.506 95.804 105.418 96.208 105.418 96.688C105.418 97.4 105.598 97.952 105.958 98.344C106.326 98.728 106.786 98.92 107.338 98.92ZM113.73 94.348C113.93 94.012 114.194 93.752 114.522 93.568C114.858 93.376 115.254 93.28 115.71 93.28V94.696H115.362C114.826 94.696 114.418 94.832 114.138 95.104C113.866 95.376 113.73 95.848 113.73 96.52V100H112.362V93.388H113.73V94.348ZM116.752 96.664C116.752 96 116.888 95.412 117.16 94.9C117.44 94.388 117.816 93.992 118.288 93.712C118.768 93.424 119.3 93.28 119.884 93.28C120.316 93.28 120.74 93.376 121.156 93.568C121.58 93.752 121.916 94 122.164 94.312V91.12H123.544V100H122.164V99.004C121.94 99.324 121.628 99.588 121.228 99.796C120.836 100.004 120.384 100.108 119.872 100.108C119.296 100.108 118.768 99.964 118.288 99.676C117.816 99.38 117.44 98.972 117.16 98.452C116.888 97.924 116.752 97.328 116.752 96.664ZM122.164 96.688C122.164 96.232 122.068 95.836 121.876 95.5C121.692 95.164 121.448 94.908 121.144 94.732C120.84 94.556 120.512 94.468 120.16 94.468C119.808 94.468 119.48 94.556 119.176 94.732C118.872 94.9 118.624 95.152 118.432 95.488C118.248 95.816 118.156 96.208 118.156 96.664C118.156 97.12 118.248 97.52 118.432 97.864C118.624 98.208 118.872 98.472 119.176 98.656C119.488 98.832 119.816 98.92 120.16 98.92C120.512 98.92 120.84 98.832 121.144 98.656C121.448 98.48 121.692 98.224 121.876 97.888C122.068 97.544 122.164 97.144 122.164 96.688ZM126.133 100.084C125.885 100.084 125.677 100 125.509 99.832C125.341 99.664 125.257 99.456 125.257 99.208C125.257 98.96 125.341 98.752 125.509 98.584C125.677 98.416 125.885 98.332 126.133 98.332C126.373 98.332 126.577 98.416 126.745 98.584C126.913 98.752 126.997 98.96 126.997 99.208C126.997 99.456 126.913 99.664 126.745 99.832C126.577 100 126.373 100.084 126.133 100.084ZM126.133 95.044C125.885 95.044 125.677 94.96 125.509 94.792C125.341 94.624 125.257 94.416 125.257 94.168C125.257 93.92 125.341 93.712 125.509 93.544C125.677 93.376 125.885 93.292 126.133 93.292C126.373 93.292 126.577 93.376 126.745 93.544C126.913 93.712 126.997 93.92 126.997 94.168C126.997 94.416 126.913 94.624 126.745 94.792C126.577 94.96 126.373 95.044 126.133 95.044ZM68.2005 113.836L70.7925 118H69.2565L67.3725 114.976L65.6085 118H64.0845L66.6765 113.836L64.0725 109.66H65.6085L67.5045 112.708L69.2805 109.66H70.8045L68.2005 113.836ZM76.3624 113.836L78.9544 118H77.4184L75.5344 114.976L73.7704 118H72.2464L74.8384 113.836L72.2344 109.66H73.7704L75.6664 112.708L77.4424 109.66H78.9664L76.3624 113.836ZM84.5242 113.836L87.1162 118H85.5802L83.6962 114.976L81.9322 118H80.4082L83.0002 113.836L80.3962 109.66H81.9322L83.8282 112.708L85.6042 109.66H87.1282L84.5242 113.836ZM92.6861 113.836L95.2781 118H93.7421L91.8581 114.976L90.0941 118H88.5701L91.1621 113.836L88.5581 109.66H90.0941L91.9901 112.708L93.7661 109.66H95.2901L92.6861 113.836ZM100.848 113.836L103.44 118H101.904L100.02 114.976L98.256 118H96.732L99.324 113.836L96.72 109.66H98.256L100.152 112.708L101.928 109.66H103.452L100.848 113.836ZM109.01 113.836L111.602 118H110.066L108.182 114.976L106.418 118H104.894L107.486 113.836L104.882 109.66H106.418L108.314 112.708L110.09 109.66H111.614L109.01 113.836ZM117.172 113.836L119.764 118H118.228L116.344 114.976L114.58 118H113.056L115.648 113.836L113.044 109.66H114.58L116.476 112.708L118.252 109.66H119.776L117.172 113.836ZM125.334 113.836L127.926 118H126.39L124.506 114.976L122.742 118H121.218L123.81 113.836L121.206 109.66H122.742L124.638 112.708L126.414 109.66H127.938L125.334 113.836Z" fill="white"/>
<rect x="47" y="84" width="99" height="41" rx="3" stroke="#FFBB00" stroke-width="2"/>
</svg>
