<svg width="375" height="232" viewBox="0 0 375 232" fill="none" xmlns="http://www.w3.org/2000/svg">
<rect width="375" height="232" fill="black"/>
<path d="M250.409 143.869C248.825 144.854 246.996 145.376 245.13 145.376L123.197 145.376C121.275 145.376 119.394 144.822 117.778 143.78L91.4795 126.822C88.624 124.981 86.8988 121.815 86.8988 118.418L86.8988 55.468C86.8988 49.9451 91.376 45.468 96.8988 45.468L272.587 45.468C278.11 45.468 282.587 49.9451 282.587 55.468L282.587 118.31C282.587 121.766 280.802 124.978 277.866 126.803L250.409 143.869Z" stroke="#5F5F5F" stroke-width="4"/>
<path d="M304.052 181.549C302.705 182.502 301.119 183.109 299.482 183.309C212.877 193.898 162.963 193.897 75.5248 183.307C73.8833 183.109 72.2933 182.5 70.943 181.546L64.2276 176.799C61.5763 174.925 60 171.88 60 168.633L60 35.9999C60 30.4771 64.4772 25.9999 70 25.9999L305 26C310.523 26 315 30.4771 315 36L315 168.633C315 171.88 313.424 174.925 310.772 176.799L304.052 181.549Z" stroke="#5F5F5F" stroke-width="4"/>
<path d="M60 34C60 29.5817 63.5817 26 68 26H307C311.418 26 315 29.5817 315 34V177.168C315 177.875 314.906 178.579 314.721 179.262L309.072 200.094C308.126 203.58 304.963 206 301.351 206H73.2758C69.6167 206 66.424 203.517 65.5224 199.971L60.2467 179.22C60.0829 178.576 60 177.913 60 177.249V34Z" stroke="#5F5F5F" stroke-width="4"/>
<circle cx="88.1375" cy="157.477" r="15.7523" stroke="#5F5F5F" stroke-width="4"/>
<circle cx="129.009" cy="166.972" r="7.90826" stroke="#5F5F5F" stroke-width="4"/>
<circle cx="281.348" cy="157.477" r="15.7523" stroke="#5F5F5F" stroke-width="4"/>
<circle cx="240.477" cy="166.972" r="7.90826" stroke="#5F5F5F" stroke-width="4"/>
<line x1="81.5" y1="196.5" x2="91.5" y2="196.5" stroke="#7F7F7F" stroke-width="3" stroke-linecap="round"/>
<line x1="100.5" y1="196.5" x2="110.5" y2="196.5" stroke="#7F7F7F" stroke-width="3" stroke-linecap="round"/>
<rect x="79" y="192" width="15" height="6" rx="2" stroke="white" stroke-width="2"/>
<rect x="98" y="192" width="15" height="6" rx="2" stroke="white" stroke-width="2"/>
<rect x="69.5596" y="187.184" width="53.6697" height="15.6881" rx="5" stroke="#F2A900" stroke-width="4"/>
</svg>
