<svg width="375" height="232" viewBox="0 0 375 232" fill="none" xmlns="http://www.w3.org/2000/svg">
    <rect width="375" height="232" fill="black"/>
    <path fill-rule="evenodd" clip-rule="evenodd" d="M292.013 178C292.492 178 292.954 178.171 293.317 178.483L342.208 220.483C342.627 220.843 342.86 221.338 342.899 221.849C342.937 222.359 342.781 222.884 342.421 223.303C342.042 223.746 341.487 224 340.904 224H34.6748C34.1225 224 33.6225 223.776 33.2606 223.414C32.8987 223.052 32.6748 222.552 32.6748 222C32.6748 221.442 32.9082 220.909 33.3184 220.53L78.8298 178.53C79.1992 178.189 79.6835 178 80.1862 178H292.013Z" stroke="white" stroke-width="2"/>
    <path fill-rule="evenodd" clip-rule="evenodd" d="M79.0134 178L88.0005 121H285L293.125 178H79.0134Z" stroke="white" stroke-width="2"/>
    <path d="M188 168.75C197.804 168.75 205.75 160.803 205.75 151C205.75 141.197 197.804 133.25 188 133.25C178.197 133.25 170.25 141.197 170.25 151C170.25 160.803 178.197 168.75 188 168.75Z" stroke="white" stroke-width="0.5"/>
    <path d="M188 163.5C194.904 163.5 200.5 157.904 200.5 151C200.5 144.096 194.904 138.5 188 138.5C181.097 138.5 175.5 144.096 175.5 151C175.5 157.904 181.097 163.5 188 163.5Z" stroke="white"/>
    <path d="M139 147.625C141.555 147.625 143.625 145.554 143.625 143C143.625 140.446 141.555 138.375 139 138.375C136.446 138.375 134.375 140.446 134.375 143C134.375 145.554 136.446 147.625 139 147.625Z" stroke="white" stroke-width="0.75"/>
    <path d="M261.5 158.5H219.5V171.5H261.5V158.5Z" fill="#D8D8D8" stroke="#979797"/>
    <path d="M263.625 135.375H223.375C222.271 135.375 221.375 136.27 221.375 137.375V150.625C221.375 151.73 222.271 152.625 223.375 152.625H263.625C264.73 152.625 265.625 151.73 265.625 150.625V137.375C265.625 136.27 264.73 135.375 263.625 135.375Z" stroke="white" stroke-width="0.75"/>
    <path fill-rule="evenodd" clip-rule="evenodd" d="M280 7C281.105 7 282.105 7.44772 282.829 8.17157C283.501 8.84373 283.935 9.75398 283.994 10.765L284 11V174C284 175.105 283.553 176.105 282.829 176.828C282.157 177.501 281.247 177.935 280.236 177.993L280 178H93.0005C91.8959 178 90.8959 177.552 90.1721 176.828C89.4999 176.156 89.0659 175.246 89.0073 174.235L89.0005 174V11C89.0005 9.89543 89.4482 8.89543 90.1721 8.17157C90.8442 7.49942 91.7545 7.06537 92.7655 7.00679L93.0005 7H280ZM270 31H103L102.771 31.0065C101.781 31.0625 100.888 31.4786 100.216 32.1503C99.5186 32.848 99.0566 33.8266 99.0005 34.9741V143L99.007 143.23C99.063 144.219 99.4791 145.113 100.151 145.784C100.848 146.482 101.827 146.944 102.975 147H270L270.23 146.994C271.22 146.938 272.113 146.521 272.785 145.85C273.482 145.152 273.944 144.173 274 143.026V35L273.994 34.765C273.935 33.754 273.501 32.8437 272.829 32.1716C272.105 31.4477 271.105 31 270 31Z" fill="black" stroke="white" stroke-width="2"/>
    <path d="M270 155H246V170H270V155Z" fill="#F2A900"/>
    <path d="M128 155H104V170H128V155Z" fill="#F2A900"/>
    <path d="M186.5 206.5C195.337 206.5 202.5 205.157 202.5 203.5C202.5 201.843 195.337 200.5 186.5 200.5C177.664 200.5 170.5 201.843 170.5 203.5C170.5 205.157 177.664 206.5 186.5 206.5Z" stroke="white"/>
    <path d="M170.5 203.5V214.5" stroke="white" stroke-linecap="square"/>
    <path d="M202.426 203.5V214.5" stroke="white" stroke-linecap="square"/>
    <path fill-rule="evenodd" clip-rule="evenodd" d="M106.395 180.199C123.859 177.73 150.581 177.742 180.84 177.751C182.714 177.752 184.601 177.752 186.501 177.752L188.179 177.752C189.513 177.752 190.84 177.752 192.161 177.751C222.42 177.742 249.142 177.73 266.606 180.199C273.417 181.162 278.805 182.494 282.41 184.373C284.023 185.214 285.269 186.158 286.098 187.24C286.854 188.226 287.25 189.325 287.25 190.551C287.25 194.272 285.287 197.767 280.983 200.902C276.84 203.92 270.564 206.593 261.77 208.798C245.75 212.815 221.445 215.25 186.5 215.25C151.556 215.25 127.251 212.815 111.231 208.798C102.437 206.593 96.1615 203.92 92.0176 200.902C87.7141 197.767 85.7505 194.272 85.7505 190.551C85.7505 189.325 86.1469 188.226 86.9028 187.24C87.7317 186.158 88.978 185.214 90.5909 184.373C94.1965 182.494 99.5842 181.162 106.395 180.199Z" stroke="white" stroke-width="1.5"/>
</svg>
