<svg width="196" height="188" viewBox="0 0 196 188" fill="none" xmlns="http://www.w3.org/2000/svg">
<circle cx="38.5" cy="140.5" r="14" stroke="white"/>
<circle cx="101.5" cy="140.5" r="14" stroke="white"/>
<circle cx="165.5" cy="140.5" r="13.5" stroke="white" stroke-width="2"/>
<circle cx="165.5" cy="86.5" r="14" stroke="white"/>
<circle cx="165.5" cy="33.5" r="14" stroke="white"/>
<rect x="1" y="1" width="194" height="186" rx="5" stroke="white" stroke-width="2"/>
<rect x="14.5" y="18.5" width="111" height="82" rx="4.5" stroke="white"/>
<path d="M41.3741 144.999C41.264 145 41.1557 144.973 41.0611 144.921L33.2876 140.479C33.1998 140.428 33.1274 140.358 33.0771 140.274C33.0267 140.191 33.0002 140.096 33 140.001C33.0009 139.906 33.0277 139.813 33.078 139.731C33.1284 139.649 33.2005 139.58 33.2876 139.531L41.0611 135.088C41.1293 135.048 41.2053 135.021 41.2849 135.008C41.3645 134.995 41.4461 134.998 41.5248 135.014C41.6035 135.031 41.6779 135.062 41.7435 135.106C41.8091 135.15 41.8647 135.205 41.907 135.269C41.95 135.332 41.9789 135.403 41.992 135.477C42.0051 135.551 42.0021 135.627 41.9832 135.7C41.9643 135.773 41.9298 135.841 41.8819 135.902C41.834 135.962 41.7735 136.013 41.704 136.052L34.751 140.016L41.6955 143.989C41.765 144.027 41.8255 144.078 41.8734 144.139C41.9214 144.199 41.9558 144.268 41.9747 144.341C41.9936 144.414 41.9966 144.49 41.9835 144.564C41.9705 144.638 41.9416 144.709 41.8985 144.772C41.8378 144.847 41.7583 144.907 41.6669 144.946C41.5754 144.986 41.4749 145.004 41.3741 144.999Z" fill="white"/>
<path d="M99.541 144.997C99.4501 144.997 99.3607 144.973 99.2817 144.927C99.2026 144.88 99.1368 144.812 99.0907 144.731C99.0501 144.669 99.0223 144.598 99.009 144.524C98.9957 144.45 98.9972 144.374 99.0134 144.301C99.0296 144.228 99.0601 144.159 99.1031 144.098C99.1462 144.038 99.2007 143.987 99.2633 143.949L105.424 139.987L99.2708 136.056C99.209 136.017 99.1553 135.966 99.1129 135.906C99.0705 135.845 99.0404 135.776 99.0242 135.703C99.0081 135.63 99.0063 135.555 99.0191 135.481C99.0318 135.407 99.0587 135.337 99.0982 135.274C99.1343 135.209 99.1829 135.152 99.241 135.107C99.299 135.063 99.3654 135.031 99.4358 135.014C99.5062 134.997 99.5792 134.995 99.6503 135.009C99.7213 135.023 99.7889 135.052 99.8487 135.094L106.745 139.526C106.823 139.574 106.887 139.643 106.932 139.725C106.976 139.808 107 139.9 107 139.995C107 140.089 106.976 140.182 106.932 140.264C106.887 140.346 106.823 140.415 106.745 140.464L99.8186 144.95C99.7319 144.991 99.6359 145.008 99.541 144.997Z" fill="white"/>
<path d="M163.592 91.9914C163.514 91.9915 163.436 91.9747 163.364 91.9422C163.293 91.9097 163.228 91.8621 163.174 91.8024C162.51 91.0635 161.837 90.3333 161.172 89.603C161.118 89.547 161.074 89.4802 161.045 89.4064C161.015 89.3327 161 89.2535 161 89.1735C161 89.0934 161.015 89.0142 161.045 88.9405C161.074 88.8667 161.118 88.7999 161.172 88.7439C161.281 88.6306 161.429 88.567 161.583 88.567C161.736 88.567 161.884 88.6306 161.993 88.7439C162.485 89.2851 162.977 89.835 163.478 90.3762L168.892 81.2953C168.932 81.2243 168.986 81.1627 169.049 81.1143C169.113 81.0659 169.186 81.0318 169.263 81.0141C169.34 80.9963 169.419 80.9954 169.497 81.0112C169.574 81.0271 169.647 81.0594 169.712 81.1063C169.781 81.1476 169.84 81.2032 169.887 81.2697C169.934 81.3362 169.968 81.4122 169.985 81.4928C170.003 81.5734 170.005 81.657 169.99 81.7384C169.976 81.8197 169.945 81.897 169.901 81.9654C167.965 85.2129 166.026 88.4604 164.085 91.7079C164.038 91.7879 163.975 91.8557 163.899 91.9063C163.824 91.957 163.739 91.989 163.65 92L163.592 91.9914Z" fill="white"/>
<path d="M167.527 29.8499H164.299V28.6147C164.299 28.5064 164.27 28.4001 164.217 28.3069C164.164 28.2136 164.087 28.1367 163.995 28.0841C163.905 28.029 163.801 28 163.696 28C163.591 28 163.488 28.029 163.397 28.0841L160.295 29.9282C160.204 29.9833 160.129 30.0622 160.077 30.1569C160.026 30.2516 159.999 30.3588 160 30.4675C160 30.5748 160.028 30.6801 160.079 30.7732C160.131 30.8662 160.205 30.9437 160.295 30.9981L163.397 32.8509C163.49 32.9021 163.595 32.929 163.7 32.9291C163.804 32.929 163.905 32.9021 163.995 32.8509C164.087 32.7962 164.164 32.7176 164.217 32.623C164.27 32.5283 164.298 32.421 164.299 32.3116V31.0416H167.51C168.118 31.0416 168.702 31.2909 169.132 31.7346C169.562 32.1783 169.803 32.78 169.803 33.4075C169.803 33.7182 169.744 34.026 169.629 34.313C169.513 34.6001 169.344 34.8608 169.132 35.0805C168.919 35.3002 168.666 35.4746 168.388 35.5935C168.11 35.7124 167.811 35.7735 167.51 35.7735H162.377C162.299 35.7735 162.221 35.7895 162.149 35.8207C162.077 35.8518 162.012 35.8975 161.957 35.955C161.902 36.0124 161.859 36.0805 161.829 36.1554C161.8 36.2303 161.786 36.3105 161.787 36.3912C161.787 36.4711 161.802 36.5503 161.832 36.6242C161.862 36.698 161.905 36.7651 161.96 36.8217C162.015 36.8782 162.08 36.9231 162.151 36.9537C162.223 36.9843 162.3 37 162.377 37H167.51C168.434 37 169.321 36.6218 169.975 35.9483C170.629 35.2749 170.998 34.3611 171 33.4075C170.989 32.463 170.619 31.5608 169.969 30.8953C169.319 30.2298 168.443 29.8544 167.527 29.8499Z" fill="white"/>
<path d="M170.364 145H160.636C160.467 145 160.306 144.947 160.186 144.854C160.067 144.76 160 144.633 160 144.5C160 144.367 160.067 144.24 160.186 144.146C160.306 144.053 160.467 144 160.636 144H170.364C170.533 144 170.694 144.053 170.814 144.146C170.933 144.24 171 144.367 171 144.5C171 144.633 170.933 144.76 170.814 144.854C170.694 144.947 170.533 145 170.364 145Z" fill="white"/>
<path d="M170.364 141H160.636C160.467 141 160.306 140.947 160.186 140.854C160.067 140.76 160 140.633 160 140.5C160 140.367 160.067 140.24 160.186 140.146C160.306 140.053 160.467 140 160.636 140H170.364C170.533 140 170.694 140.053 170.814 140.146C170.933 140.24 171 140.367 171 140.5C171 140.633 170.933 140.76 170.814 140.854C170.694 140.947 170.533 141 170.364 141Z" fill="white"/>
<path d="M170.364 137H160.636C160.467 137 160.306 136.947 160.186 136.854C160.067 136.76 160 136.633 160 136.5C159.999 136.434 160.015 136.369 160.046 136.308C160.078 136.247 160.125 136.191 160.184 136.144C160.243 136.098 160.314 136.061 160.391 136.036C160.469 136.011 160.552 135.999 160.636 136H170.364C170.448 135.999 170.531 136.011 170.609 136.036C170.686 136.061 170.757 136.098 170.816 136.144C170.875 136.191 170.922 136.247 170.954 136.308C170.985 136.369 171.001 136.434 171 136.5C171 136.633 170.933 136.76 170.814 136.854C170.694 136.947 170.533 137 170.364 137Z" fill="white"/>
</svg>
