<svg width="100" height="90" viewBox="0 0 100 90" fill="none" xmlns="http://www.w3.org/2000/svg">
    <rect opacity="0.25" x="13.25" y="10.25" width="73.5" height="39.5" rx="3.75" stroke="white" stroke-width="0.5"/>
    <path d="M35.4619 23.292V24.948H31.9159V36H29.8459V24.948H26.3179V23.292H35.4619ZM39.045 23.292V36H36.993V23.292H39.045ZM54.7041 23.49V36H52.6341V26.622L49.0161 36H47.2161L43.5801 26.622V36H41.5281V23.49H44.0121L48.1521 33.48L52.2201 23.49H54.7041ZM59.2247 24.948V28.8H63.9047V30.384H59.2247V34.326H64.4447V36H57.1727V23.292H64.4447V24.948H59.2247ZM73.1143 36L69.9463 30.924H68.4883V36H66.4363V23.292H70.9183C72.3703 23.292 73.4683 23.646 74.2123 24.354C74.9683 25.062 75.3463 25.998 75.3463 27.162C75.3463 28.158 75.0643 28.974 74.5003 29.61C73.9483 30.246 73.1443 30.654 72.0883 30.834L75.4183 36H73.1143ZM68.4883 29.466H70.7563C72.4123 29.466 73.2403 28.734 73.2403 27.27C73.2403 26.574 73.0363 26.034 72.6283 25.65C72.2323 25.254 71.6083 25.056 70.7563 25.056H68.4883V29.466Z" fill="white"/>
    <path d="M27.5477 57.54V66H26.4437V62.088H22.1477V66H21.0557V57.54H22.1477V61.2H26.4437V57.54H27.5477ZM32.282 59.328C32.914 59.328 33.478 59.464 33.974 59.736C34.478 60.008 34.87 60.4 35.15 60.912C35.438 61.424 35.582 62.024 35.582 62.712C35.582 63.4 35.438 64 35.15 64.512C34.87 65.016 34.478 65.404 33.974 65.676C33.478 65.948 32.914 66.084 32.282 66.084C31.65 66.084 31.082 65.948 30.578 65.676C30.082 65.404 29.69 65.016 29.402 64.512C29.114 64 28.97 63.4 28.97 62.712C28.97 62.024 29.114 61.424 29.402 60.912C29.69 60.4 30.082 60.008 30.578 59.736C31.082 59.464 31.65 59.328 32.282 59.328ZM32.282 60.288C31.89 60.288 31.526 60.376 31.19 60.552C30.862 60.728 30.594 61 30.386 61.368C30.186 61.728 30.086 62.176 30.086 62.712C30.086 63.24 30.186 63.688 30.386 64.056C30.594 64.416 30.862 64.684 31.19 64.86C31.526 65.036 31.89 65.124 32.282 65.124C32.674 65.124 33.034 65.036 33.362 64.86C33.698 64.684 33.966 64.416 34.166 64.056C34.374 63.688 34.478 63.24 34.478 62.712C34.478 62.176 34.374 61.728 34.166 61.368C33.966 61 33.698 60.728 33.362 60.552C33.034 60.376 32.674 60.288 32.282 60.288ZM38.0969 57.12V66H37.0049V57.12H38.0969ZM42.5526 59.328C43.1926 59.328 43.7326 59.488 44.1726 59.808C44.6206 60.128 44.9326 60.556 45.1086 61.092V57.12H46.2006V66H45.1086V64.32C44.9326 64.856 44.6206 65.284 44.1726 65.604C43.7326 65.924 43.1926 66.084 42.5526 66.084C41.9686 66.084 41.4486 65.948 40.9926 65.676C40.5366 65.404 40.1766 65.016 39.9126 64.512C39.6566 64 39.5286 63.4 39.5286 62.712C39.5286 62.024 39.6566 61.424 39.9126 60.912C40.1766 60.4 40.5366 60.008 40.9926 59.736C41.4486 59.464 41.9686 59.328 42.5526 59.328ZM42.8646 60.3C42.1926 60.3 41.6526 60.516 41.2446 60.948C40.8446 61.372 40.6446 61.96 40.6446 62.712C40.6446 63.464 40.8446 64.056 41.2446 64.488C41.6526 64.912 42.1926 65.124 42.8646 65.124C43.2966 65.124 43.6806 65.024 44.0166 64.824C44.3606 64.624 44.6286 64.344 44.8206 63.984C45.0126 63.616 45.1086 63.192 45.1086 62.712C45.1086 62.232 45.0126 61.808 44.8206 61.44C44.6286 61.072 44.3606 60.792 44.0166 60.6C43.6806 60.4 43.2966 60.3 42.8646 60.3ZM53.6153 57.312C54.1593 57.312 54.6273 57.408 55.0193 57.6C55.4113 57.792 55.7073 58.056 55.9073 58.392C56.1073 58.728 56.2073 59.108 56.2073 59.532C56.2073 60.06 56.0513 60.504 55.7393 60.864C55.4353 61.224 54.9873 61.44 54.3953 61.512V61.584C55.0113 61.744 55.4913 61.992 55.8353 62.328C56.1873 62.664 56.3633 63.128 56.3633 63.72C56.3633 64.416 56.1313 64.984 55.6673 65.424C55.2033 65.864 54.5353 66.084 53.6633 66.084C52.7913 66.084 52.0833 65.86 51.5393 65.412C51.0033 64.956 50.6873 64.292 50.5913 63.42H51.6713C51.7433 63.948 51.9433 64.368 52.2713 64.68C52.6073 64.992 53.0593 65.148 53.6273 65.148C54.1633 65.148 54.5753 65.012 54.8633 64.74C55.1513 64.46 55.2953 64.1 55.2953 63.66C55.2953 63.132 55.0873 62.732 54.6713 62.46C54.2633 62.18 53.6793 62.04 52.9193 62.04H52.6313V61.128H52.9193C54.3913 61.128 55.1273 60.636 55.1273 59.652C55.1273 59.22 54.9913 58.876 54.7193 58.62C54.4473 58.364 54.0713 58.236 53.5913 58.236C53.1113 58.236 52.7073 58.376 52.3793 58.656C52.0513 58.928 51.8593 59.332 51.8033 59.868H50.7353C50.7913 59.068 51.0673 58.444 51.5633 57.996C52.0673 57.54 52.7513 57.312 53.6153 57.312ZM66.2866 63.804C66.2866 64.204 66.1906 64.576 65.9986 64.92C65.8066 65.264 65.5146 65.544 65.1226 65.76C64.7306 65.976 64.2466 66.084 63.6706 66.084C63.1106 66.084 62.6106 65.984 62.1706 65.784C61.7386 65.576 61.3906 65.296 61.1266 64.944C60.8706 64.584 60.7226 64.176 60.6826 63.72H61.8466C61.8706 63.96 61.9506 64.196 62.0866 64.428C62.2306 64.652 62.4306 64.84 62.6866 64.992C62.9506 65.136 63.2666 65.208 63.6346 65.208C64.1146 65.208 64.4826 65.08 64.7386 64.824C64.9946 64.568 65.1226 64.24 65.1226 63.84C65.1226 63.496 65.0306 63.216 64.8466 63C64.6706 62.784 64.4506 62.616 64.1866 62.496C63.9226 62.368 63.5626 62.232 63.1066 62.088C62.5706 61.912 62.1386 61.748 61.8106 61.596C61.4906 61.436 61.2146 61.2 60.9826 60.888C60.7586 60.576 60.6466 60.164 60.6466 59.652C60.6466 59.212 60.7506 58.824 60.9586 58.488C61.1746 58.152 61.4786 57.892 61.8706 57.708C62.2706 57.524 62.7386 57.432 63.2746 57.432C64.1066 57.432 64.7666 57.636 65.2546 58.044C65.7426 58.444 66.0266 58.956 66.1066 59.58H64.9306C64.8666 59.244 64.6946 58.948 64.4146 58.692C64.1346 58.436 63.7546 58.308 63.2746 58.308C62.8346 58.308 62.4826 58.424 62.2186 58.656C61.9546 58.88 61.8226 59.2 61.8226 59.616C61.8226 59.944 61.9066 60.212 62.0746 60.42C62.2506 60.62 62.4666 60.78 62.7226 60.9C62.9786 61.012 63.3306 61.14 63.7786 61.284C64.3226 61.46 64.7586 61.628 65.0866 61.788C65.4226 61.948 65.7066 62.192 65.9386 62.52C66.1706 62.84 66.2866 63.268 66.2866 63.804ZM73.8149 62.34C73.8149 62.572 73.7989 62.772 73.7669 62.94H68.4989C68.5229 63.692 68.7349 64.256 69.1349 64.632C69.5429 65.008 70.0389 65.196 70.6229 65.196C71.1509 65.196 71.5909 65.064 71.9429 64.8C72.3029 64.528 72.5229 64.168 72.6029 63.72H73.7669C73.6869 64.176 73.5069 64.584 73.2269 64.944C72.9549 65.304 72.5989 65.584 72.1589 65.784C71.7189 65.984 71.2229 66.084 70.6709 66.084C70.0389 66.084 69.4789 65.948 68.9909 65.676C68.5029 65.404 68.1189 65.016 67.8389 64.512C67.5669 64 67.4309 63.4 67.4309 62.712C67.4309 62.024 67.5669 61.424 67.8389 60.912C68.1189 60.4 68.5029 60.008 68.9909 59.736C69.4789 59.464 70.0389 59.328 70.6709 59.328C71.3109 59.328 71.8669 59.464 72.3389 59.736C72.8189 60.008 73.1829 60.372 73.4309 60.828C73.6869 61.284 73.8149 61.788 73.8149 62.34ZM72.7109 62.412C72.7349 61.924 72.6549 61.516 72.4709 61.188C72.2869 60.86 72.0349 60.616 71.7149 60.456C71.3949 60.296 71.0469 60.216 70.6709 60.216C70.0709 60.216 69.5669 60.404 69.1589 60.78C68.7509 61.148 68.5309 61.692 68.4989 62.412H72.7109ZM78.1592 59.328C78.9992 59.328 79.6952 59.552 80.2472 60C80.7992 60.448 81.1392 61.048 81.2672 61.8H80.1152C80.0352 61.328 79.8152 60.96 79.4552 60.696C79.1032 60.424 78.6632 60.288 78.1352 60.288C77.7512 60.288 77.3992 60.376 77.0792 60.552C76.7672 60.728 76.5152 61 76.3232 61.368C76.1312 61.728 76.0352 62.176 76.0352 62.712C76.0352 63.248 76.1312 63.7 76.3232 64.068C76.5152 64.428 76.7672 64.696 77.0792 64.872C77.3992 65.048 77.7512 65.136 78.1352 65.136C78.6632 65.136 79.1032 65 79.4552 64.728C79.8152 64.456 80.0352 64.084 80.1152 63.612H81.2672C81.1392 64.372 80.7992 64.976 80.2472 65.424C79.6952 65.864 78.9992 66.084 78.1592 66.084C77.5272 66.084 76.9672 65.948 76.4792 65.676C75.9912 65.404 75.6072 65.016 75.3272 64.512C75.0552 64 74.9192 63.4 74.9192 62.712C74.9192 62.024 75.0552 61.424 75.3272 60.912C75.6072 60.4 75.9912 60.008 76.4792 59.736C76.9672 59.464 77.5272 59.328 78.1592 59.328ZM34.2519 69.54V70.428H30.5559V73.356H33.6879V74.208H30.5559V78H29.4639V69.54H34.2519ZM38.5339 71.328C39.1659 71.328 39.7299 71.464 40.2259 71.736C40.7299 72.008 41.1219 72.4 41.4019 72.912C41.6899 73.424 41.8339 74.024 41.8339 74.712C41.8339 75.4 41.6899 76 41.4019 76.512C41.1219 77.016 40.7299 77.404 40.2259 77.676C39.7299 77.948 39.1659 78.084 38.5339 78.084C37.9019 78.084 37.3339 77.948 36.8299 77.676C36.3339 77.404 35.9419 77.016 35.6539 76.512C35.3659 76 35.2219 75.4 35.2219 74.712C35.2219 74.024 35.3659 73.424 35.6539 72.912C35.9419 72.4 36.3339 72.008 36.8299 71.736C37.3339 71.464 37.9019 71.328 38.5339 71.328ZM38.5339 72.288C38.1419 72.288 37.7779 72.376 37.4419 72.552C37.1139 72.728 36.8459 73 36.6379 73.368C36.4379 73.728 36.3379 74.176 36.3379 74.712C36.3379 75.24 36.4379 75.688 36.6379 76.056C36.8459 76.416 37.1139 76.684 37.4419 76.86C37.7779 77.036 38.1419 77.124 38.5339 77.124C38.9259 77.124 39.2859 77.036 39.6139 76.86C39.9499 76.684 40.2179 76.416 40.4179 76.056C40.6259 75.688 40.7299 75.24 40.7299 74.712C40.7299 74.176 40.6259 73.728 40.4179 73.368C40.2179 73 39.9499 72.728 39.6139 72.552C39.2859 72.376 38.9259 72.288 38.5339 72.288ZM44.3489 72.744C44.5649 72.288 44.8809 71.936 45.2969 71.688C45.7129 71.432 46.2089 71.304 46.7849 71.304V72.492H46.4489C45.8329 72.492 45.3289 72.652 44.9369 72.972C44.5449 73.284 44.3489 73.804 44.3489 74.532V78H43.2569V71.412H44.3489V72.744ZM61.2312 69.54L59.0832 78H57.7512L55.7952 71.088L53.8392 78H52.5072L50.3472 69.54H51.5592L53.1792 76.728L55.1832 69.54H56.3952L58.3992 76.704L60.0312 69.54H61.2312ZM62.3188 69.48C62.3188 69.28 62.3868 69.12 62.5228 69C62.6588 68.872 62.8388 68.808 63.0628 68.808C63.2868 68.808 63.4668 68.872 63.6028 69C63.7388 69.12 63.8068 69.28 63.8068 69.48C63.8068 69.68 63.7388 69.844 63.6028 69.972C63.4668 70.092 63.2868 70.152 63.0628 70.152C62.8388 70.152 62.6588 70.092 62.5228 69.972C62.3868 69.844 62.3188 69.68 62.3188 69.48ZM63.6028 71.412V78H62.5108V71.412H63.6028ZM70.1464 69.54V70.428H66.4504V73.356H69.5824V74.208H66.4504V78H65.3584V69.54H70.1464ZM71.2485 69.48C71.2485 69.28 71.3165 69.12 71.4525 69C71.5885 68.872 71.7685 68.808 71.9925 68.808C72.2165 68.808 72.3965 68.872 72.5325 69C72.6685 69.12 72.7365 69.28 72.7365 69.48C72.7365 69.68 72.6685 69.844 72.5325 69.972C72.3965 70.092 72.2165 70.152 71.9925 70.152C71.7685 70.152 71.5885 70.092 71.4525 69.972C71.3165 69.844 71.2485 69.68 71.2485 69.48ZM72.5325 71.412V78H71.4405V71.412H72.5325Z" fill="white"/>
</svg>
