<svg width="375" height="232" viewBox="0 0 375 232" fill="none" xmlns="http://www.w3.org/2000/svg">
<rect x="17" y="50" width="341" height="133" rx="5" stroke="white" stroke-width="2"/>
<path d="M131.196 87.712V91H129.828V82.528H132.708C133.684 82.528 134.416 82.76 134.904 83.224C135.4 83.688 135.648 84.324 135.648 85.132C135.648 85.932 135.396 86.564 134.892 87.028C134.388 87.484 133.66 87.712 132.708 87.712H131.196ZM132.564 86.596C133.692 86.596 134.256 86.108 134.256 85.132C134.256 84.652 134.12 84.288 133.848 84.04C133.584 83.784 133.156 83.656 132.564 83.656H131.196V86.596H132.564ZM139.74 84.304C140.34 84.304 140.852 84.452 141.276 84.748C141.7 85.044 142 85.436 142.176 85.924V84.388H143.544V91H142.176V89.464C142 89.952 141.7 90.344 141.276 90.64C140.852 90.936 140.34 91.084 139.74 91.084C139.164 91.084 138.648 90.948 138.192 90.676C137.744 90.404 137.392 90.012 137.136 89.5C136.88 88.988 136.752 88.384 136.752 87.688C136.752 87 136.88 86.4 137.136 85.888C137.392 85.376 137.744 84.984 138.192 84.712C138.648 84.44 139.164 84.304 139.74 84.304ZM140.16 85.504C139.552 85.504 139.064 85.7 138.696 86.092C138.336 86.476 138.156 87.008 138.156 87.688C138.156 88.368 138.336 88.904 138.696 89.296C139.064 89.68 139.552 89.872 140.16 89.872C140.544 89.872 140.888 89.784 141.192 89.608C141.496 89.424 141.736 89.168 141.912 88.84C142.088 88.512 142.176 88.128 142.176 87.688C142.176 87.256 142.088 86.876 141.912 86.548C141.736 86.212 141.496 85.956 141.192 85.78C140.888 85.596 140.544 85.504 140.16 85.504ZM147.597 84.304C148.373 84.304 148.993 84.504 149.457 84.904C149.929 85.296 150.217 85.824 150.321 86.488H149.025C148.969 86.128 148.813 85.84 148.557 85.624C148.309 85.4 147.977 85.288 147.561 85.288C147.217 85.288 146.949 85.372 146.757 85.54C146.573 85.7 146.481 85.92 146.481 86.2C146.481 86.408 146.549 86.576 146.685 86.704C146.821 86.832 146.989 86.932 147.189 87.004C147.397 87.076 147.689 87.156 148.065 87.244C148.561 87.356 148.961 87.472 149.265 87.592C149.577 87.712 149.841 87.904 150.057 88.168C150.281 88.424 150.393 88.776 150.393 89.224C150.393 89.776 150.181 90.224 149.757 90.568C149.341 90.912 148.777 91.084 148.065 91.084C147.241 91.084 146.573 90.892 146.061 90.508C145.557 90.124 145.253 89.588 145.149 88.9H146.481C146.521 89.26 146.681 89.552 146.961 89.776C147.241 90 147.609 90.112 148.065 90.112C148.393 90.112 148.649 90.028 148.833 89.86C149.025 89.684 149.121 89.464 149.121 89.2C149.121 88.968 149.049 88.784 148.905 88.648C148.761 88.512 148.581 88.408 148.365 88.336C148.149 88.256 147.853 88.176 147.477 88.096C146.997 87.984 146.605 87.872 146.301 87.76C146.005 87.648 145.749 87.468 145.533 87.22C145.325 86.964 145.221 86.62 145.221 86.188C145.221 85.628 145.429 85.176 145.845 84.832C146.269 84.48 146.853 84.304 147.597 84.304ZM154.177 84.304C154.953 84.304 155.573 84.504 156.037 84.904C156.509 85.296 156.797 85.824 156.901 86.488H155.605C155.549 86.128 155.393 85.84 155.137 85.624C154.889 85.4 154.557 85.288 154.141 85.288C153.797 85.288 153.529 85.372 153.337 85.54C153.153 85.7 153.061 85.92 153.061 86.2C153.061 86.408 153.129 86.576 153.265 86.704C153.401 86.832 153.569 86.932 153.769 87.004C153.977 87.076 154.269 87.156 154.645 87.244C155.141 87.356 155.541 87.472 155.845 87.592C156.157 87.712 156.421 87.904 156.637 88.168C156.861 88.424 156.973 88.776 156.973 89.224C156.973 89.776 156.761 90.224 156.337 90.568C155.921 90.912 155.357 91.084 154.645 91.084C153.821 91.084 153.153 90.892 152.641 90.508C152.137 90.124 151.833 89.588 151.729 88.9H153.061C153.101 89.26 153.261 89.552 153.541 89.776C153.821 90 154.189 90.112 154.645 90.112C154.973 90.112 155.229 90.028 155.413 89.86C155.605 89.684 155.701 89.464 155.701 89.2C155.701 88.968 155.629 88.784 155.485 88.648C155.341 88.512 155.161 88.408 154.945 88.336C154.729 88.256 154.433 88.176 154.057 88.096C153.577 87.984 153.185 87.872 152.881 87.76C152.585 87.648 152.329 87.468 152.113 87.22C151.905 86.964 151.801 86.62 151.801 86.188C151.801 85.628 152.009 85.176 152.425 84.832C152.849 84.48 153.433 84.304 154.177 84.304ZM167.849 84.388L166.013 91H164.501L162.869 85.888L161.213 91H159.713L157.877 84.388H159.257L160.517 89.74L162.173 84.388H163.613L165.293 89.74L166.553 84.388H167.849ZM172.044 84.304C172.684 84.304 173.26 84.44 173.772 84.712C174.284 84.984 174.684 85.376 174.972 85.888C175.26 86.4 175.404 87 175.404 87.688C175.404 88.384 175.26 88.988 174.972 89.5C174.684 90.012 174.284 90.404 173.772 90.676C173.26 90.948 172.684 91.084 172.044 91.084C171.404 91.084 170.828 90.948 170.316 90.676C169.812 90.404 169.412 90.012 169.116 89.5C168.828 88.98 168.684 88.376 168.684 87.688C168.684 87 168.828 86.4 169.116 85.888C169.412 85.376 169.812 84.984 170.316 84.712C170.828 84.44 171.404 84.304 172.044 84.304ZM172.044 85.492C171.692 85.492 171.368 85.572 171.072 85.732C170.776 85.892 170.536 86.14 170.352 86.476C170.176 86.804 170.088 87.208 170.088 87.688C170.088 88.176 170.176 88.584 170.352 88.912C170.536 89.24 170.776 89.484 171.072 89.644C171.368 89.804 171.692 89.884 172.044 89.884C172.396 89.884 172.72 89.804 173.016 89.644C173.312 89.484 173.548 89.24 173.724 88.912C173.908 88.584 174 88.176 174 87.688C174 87.208 173.908 86.804 173.724 86.476C173.548 86.14 173.312 85.892 173.016 85.732C172.72 85.572 172.396 85.492 172.044 85.492ZM178.327 85.684C178.551 85.252 178.871 84.912 179.287 84.664C179.703 84.408 180.183 84.28 180.727 84.28V85.768H180.319C179.719 85.768 179.235 85.916 178.867 86.212C178.507 86.5 178.327 86.98 178.327 87.652V91H176.959V84.388H178.327V85.684ZM184.644 84.304C185.244 84.304 185.756 84.452 186.18 84.748C186.604 85.044 186.9 85.436 187.068 85.924V82.12H188.448V91H187.068V89.464C186.9 89.952 186.604 90.344 186.18 90.64C185.756 90.936 185.244 91.084 184.644 91.084C184.068 91.084 183.552 90.948 183.096 90.676C182.648 90.404 182.296 90.012 182.04 89.5C181.784 88.988 181.656 88.384 181.656 87.688C181.656 87 181.784 86.4 182.04 85.888C182.296 85.376 182.648 84.984 183.096 84.712C183.552 84.44 184.068 84.304 184.644 84.304ZM185.064 85.504C184.456 85.504 183.968 85.7 183.6 86.092C183.24 86.476 183.06 87.008 183.06 87.688C183.06 88.368 183.24 88.904 183.6 89.296C183.968 89.68 184.456 89.872 185.064 89.872C185.448 89.872 185.792 89.784 186.096 89.608C186.4 89.424 186.64 89.168 186.816 88.84C186.992 88.512 187.08 88.128 187.08 87.688C187.08 87.256 186.992 86.876 186.816 86.548C186.64 86.212 186.4 85.956 186.096 85.78C185.792 85.596 185.448 85.504 185.064 85.504ZM191.602 84.4V85.912H190.054V84.4H191.602ZM191.602 89.488V91H190.054V89.488H191.602ZM201.048 91L199.02 87.868L197.208 91H195.636L198.264 86.68L195.576 82.528H197.208L199.2 85.6L201 82.528H202.572L199.956 86.776L202.68 91H201.048ZM208.777 91L206.749 87.868L204.937 91H203.365L205.993 86.68L203.305 82.528H204.937L206.929 85.6L208.729 82.528H210.301L207.685 86.776L210.409 91H208.777ZM216.505 91L214.477 87.868L212.665 91H211.093L213.721 86.68L211.033 82.528H212.665L214.657 85.6L216.457 82.528H218.029L215.413 86.776L218.137 91H216.505ZM224.233 91L222.205 87.868L220.393 91H218.821L221.449 86.68L218.761 82.528H220.393L222.385 85.6L224.185 82.528H225.757L223.141 86.776L225.865 91H224.233ZM231.962 91L229.934 87.868L228.122 91H226.55L229.178 86.68L226.49 82.528H228.122L230.114 85.6L231.914 82.528H233.486L230.87 86.776L233.594 91H231.962ZM239.69 91L237.662 87.868L235.85 91H234.278L236.906 86.68L234.218 82.528H235.85L237.842 85.6L239.642 82.528H241.214L238.598 86.776L241.322 91H239.69ZM247.418 91L245.39 87.868L243.578 91H242.006L244.634 86.68L241.946 82.528H243.578L245.57 85.6L247.37 82.528H248.942L246.326 86.776L249.05 91H247.418ZM255.146 91L253.118 87.868L251.306 91H249.734L252.362 86.68L249.674 82.528H251.306L253.298 85.6L255.098 82.528H256.67L254.054 86.776L256.778 91H255.146Z" fill="white"/>
<path opacity="0.25" d="M136.68 67H135.312L131.196 60.748V67H129.828V58.54H131.196L135.312 64.816V58.54H136.68V67ZM144.72 63.376C144.72 63.6 144.704 63.796 144.672 63.964H139.584C139.608 64.644 139.796 65.148 140.148 65.476C140.5 65.804 140.936 65.968 141.456 65.968C141.912 65.968 142.296 65.852 142.608 65.62C142.928 65.388 143.124 65.08 143.196 64.696H144.66C144.572 65.16 144.388 65.572 144.108 65.932C143.828 66.292 143.464 66.576 143.016 66.784C142.568 66.984 142.068 67.084 141.516 67.084C140.876 67.084 140.308 66.948 139.812 66.676C139.324 66.404 138.94 66.012 138.66 65.5C138.38 64.988 138.24 64.384 138.24 63.688C138.24 63 138.38 62.4 138.66 61.888C138.94 61.376 139.324 60.984 139.812 60.712C140.308 60.44 140.876 60.304 141.516 60.304C142.164 60.304 142.728 60.44 143.208 60.712C143.696 60.976 144.068 61.344 144.324 61.816C144.588 62.28 144.72 62.8 144.72 63.376ZM143.34 63.34C143.356 62.908 143.28 62.548 143.112 62.26C142.952 61.964 142.728 61.748 142.44 61.612C142.16 61.468 141.852 61.396 141.516 61.396C140.98 61.396 140.532 61.56 140.172 61.888C139.812 62.216 139.616 62.7 139.584 63.34H143.34ZM149.605 65.812V67H148.765C148.061 67 147.525 66.832 147.157 66.496C146.797 66.152 146.617 65.584 146.617 64.792V61.552H145.669V60.388H146.617V58.744H147.997V60.388H149.593V61.552H147.997V64.816C147.997 65.192 148.065 65.452 148.201 65.596C148.345 65.74 148.593 65.812 148.945 65.812H149.605ZM160.39 60.388L158.554 67H157.042L155.41 61.888L153.754 67H152.254L150.418 60.388H151.798L153.058 65.74L154.714 60.388H156.154L157.834 65.74L159.094 60.388H160.39ZM164.585 60.304C165.225 60.304 165.801 60.44 166.313 60.712C166.825 60.984 167.225 61.376 167.513 61.888C167.801 62.4 167.945 63 167.945 63.688C167.945 64.384 167.801 64.988 167.513 65.5C167.225 66.012 166.825 66.404 166.313 66.676C165.801 66.948 165.225 67.084 164.585 67.084C163.945 67.084 163.369 66.948 162.857 66.676C162.353 66.404 161.953 66.012 161.657 65.5C161.369 64.98 161.225 64.376 161.225 63.688C161.225 63 161.369 62.4 161.657 61.888C161.953 61.376 162.353 60.984 162.857 60.712C163.369 60.44 163.945 60.304 164.585 60.304ZM164.585 61.492C164.233 61.492 163.909 61.572 163.613 61.732C163.317 61.892 163.077 62.14 162.893 62.476C162.717 62.804 162.629 63.208 162.629 63.688C162.629 64.176 162.717 64.584 162.893 64.912C163.077 65.24 163.317 65.484 163.613 65.644C163.909 65.804 164.233 65.884 164.585 65.884C164.937 65.884 165.261 65.804 165.557 65.644C165.853 65.484 166.089 65.24 166.265 64.912C166.449 64.584 166.541 64.176 166.541 63.688C166.541 63.208 166.449 62.804 166.265 62.476C166.089 62.14 165.853 61.892 165.557 61.732C165.261 61.572 164.937 61.492 164.585 61.492ZM170.869 61.684C171.093 61.252 171.413 60.912 171.829 60.664C172.245 60.408 172.725 60.28 173.269 60.28V61.768H172.861C172.261 61.768 171.777 61.916 171.409 62.212C171.049 62.5 170.869 62.98 170.869 63.652V67H169.501V60.388H170.869V61.684ZM178.278 67L175.902 64.06V67H174.534V58.12H175.902V63.208L178.254 60.388H179.898L177.018 63.676L179.97 67H178.278ZM185.426 60.4V61.912H183.878V60.4H185.426ZM185.426 65.488V67H183.878V65.488H185.426ZM193.913 58.456C194.921 58.456 195.761 58.704 196.433 59.2C197.105 59.696 197.549 60.372 197.765 61.228H196.325C196.141 60.772 195.837 60.408 195.413 60.136C194.997 59.864 194.501 59.728 193.925 59.728C193.397 59.728 192.921 59.852 192.497 60.1C192.081 60.348 191.753 60.7 191.513 61.156C191.281 61.612 191.165 62.148 191.165 62.764C191.165 63.412 191.285 63.968 191.525 64.432C191.765 64.896 192.101 65.252 192.533 65.5C192.973 65.74 193.481 65.86 194.057 65.86C194.761 65.86 195.365 65.644 195.869 65.212C196.373 64.772 196.677 64.172 196.781 63.412H193.673V62.404H197.933V63.712C197.837 64.336 197.613 64.904 197.261 65.416C196.917 65.92 196.457 66.324 195.881 66.628C195.313 66.932 194.661 67.084 193.925 67.084C193.101 67.084 192.373 66.9 191.741 66.532C191.109 66.164 190.621 65.656 190.277 65.008C189.933 64.352 189.761 63.604 189.761 62.764C189.761 61.924 189.933 61.18 190.277 60.532C190.621 59.876 191.105 59.368 191.729 59.008C192.361 58.64 193.089 58.456 193.913 58.456ZM200.926 59.632V62.2H204.046V63.256H200.926V65.884H204.406V67H199.558V58.528H204.406V59.632H200.926ZM212.37 67.432V68.764H205.674V67.432H212.37ZM222.697 58.66V67H221.317V60.748L218.905 67H217.705L215.281 60.748V67H213.913V58.66H215.569L218.329 65.32L221.041 58.66H222.697ZM228.507 58.42C229.291 58.42 229.999 58.604 230.631 58.972C231.271 59.34 231.771 59.856 232.131 60.52C232.499 61.176 232.683 61.92 232.683 62.752C232.683 63.584 232.499 64.332 232.131 64.996C231.771 65.652 231.271 66.168 230.631 66.544C229.999 66.912 229.291 67.096 228.507 67.096C227.715 67.096 226.999 66.912 226.359 66.544C225.727 66.168 225.227 65.652 224.859 64.996C224.491 64.332 224.307 63.584 224.307 62.752C224.307 61.92 224.491 61.176 224.859 60.52C225.227 59.856 225.727 59.34 226.359 58.972C226.999 58.604 227.715 58.42 228.507 58.42ZM228.507 59.692C227.963 59.692 227.479 59.816 227.055 60.064C226.631 60.312 226.299 60.668 226.059 61.132C225.827 61.596 225.711 62.136 225.711 62.752C225.711 63.368 225.827 63.908 226.059 64.372C226.299 64.836 226.631 65.192 227.055 65.44C227.479 65.688 227.963 65.812 228.507 65.812C229.043 65.812 229.519 65.688 229.935 65.44C230.359 65.192 230.687 64.836 230.919 64.372C231.159 63.908 231.279 63.368 231.279 62.752C231.279 62.136 231.159 61.596 230.919 61.132C230.687 60.668 230.359 60.312 229.935 60.064C229.519 59.816 229.043 59.692 228.507 59.692ZM241.575 62.752C241.575 63.608 241.399 64.356 241.047 64.996C240.703 65.628 240.195 66.12 239.523 66.472C238.859 66.824 238.063 67 237.135 67H234.303V58.528H237.135C238.063 58.528 238.859 58.704 239.523 59.056C240.195 59.4 240.703 59.888 241.047 60.52C241.399 61.152 241.575 61.896 241.575 62.752ZM237.027 65.764C238.043 65.764 238.823 65.5 239.367 64.972C239.911 64.444 240.183 63.704 240.183 62.752C240.183 61.8 239.911 61.06 239.367 60.532C238.823 60.004 238.043 59.74 237.027 59.74H235.671V65.764H237.027ZM244.499 58.528V63.556C244.499 64.308 244.663 64.868 244.991 65.236C245.327 65.604 245.795 65.788 246.395 65.788C246.987 65.788 247.447 65.604 247.775 65.236C248.111 64.868 248.279 64.308 248.279 63.556V58.528H249.647V63.556C249.647 64.716 249.347 65.596 248.747 66.196C248.147 66.788 247.355 67.084 246.371 67.084C245.395 67.084 244.611 66.788 244.019 66.196C243.427 65.596 243.131 64.716 243.131 63.556V58.528H244.499ZM252.85 65.932H255.778V67H251.482V58.528H252.85V65.932ZM258.457 59.632V62.2H261.577V63.256H258.457V65.884H261.937V67H257.089V58.528H261.937V59.632H258.457ZM269.901 67.432V68.764H263.205V67.432H269.901ZM276.28 67L274.252 63.868L272.44 67H270.868L273.496 62.68L270.808 58.528H272.44L274.432 61.6L276.232 58.528H277.804L275.188 62.776L277.912 67H276.28ZM284.009 67L281.981 63.868L280.169 67H278.597L281.225 62.68L278.537 58.528H280.169L282.161 61.6L283.961 58.528H285.533L282.917 62.776L285.641 67H284.009ZM291.737 67L289.709 63.868L287.897 67H286.325L288.953 62.68L286.265 58.528H287.897L289.889 61.6L291.689 58.528H293.261L290.645 62.776L293.369 67H291.737ZM299.465 67L297.437 63.868L295.625 67H294.053L296.681 62.68L293.993 58.528H295.625L297.617 61.6L299.417 58.528H300.989L298.373 62.776L301.097 67H299.465Z" fill="white"/>
<path opacity="0.25" d="M138.612 106.66V115H137.232V108.748L134.82 115H133.62L131.196 108.748V115H129.828V106.66H131.484L134.244 113.32L136.956 106.66H138.612ZM144.75 113.164H141.174L140.526 115H139.062L142.182 106.66H143.754L146.862 115H145.398L144.75 113.164ZM144.366 112.108L142.962 108.148L141.558 112.108H144.366ZM151.097 106.444C152.137 106.444 153.001 106.708 153.689 107.236C154.377 107.764 154.841 108.48 155.081 109.384H153.629C153.429 108.872 153.109 108.468 152.669 108.172C152.237 107.868 151.705 107.716 151.073 107.716C150.569 107.716 150.117 107.84 149.717 108.088C149.325 108.336 149.013 108.692 148.781 109.156C148.557 109.612 148.445 110.148 148.445 110.764C148.445 111.372 148.557 111.908 148.781 112.372C149.013 112.828 149.325 113.18 149.717 113.428C150.117 113.676 150.569 113.8 151.073 113.8C151.705 113.8 152.237 113.652 152.669 113.356C153.109 113.052 153.429 112.648 153.629 112.144H155.081C154.841 113.048 154.377 113.764 153.689 114.292C153.001 114.812 152.137 115.072 151.097 115.072C150.297 115.072 149.589 114.892 148.973 114.532C148.357 114.164 147.881 113.656 147.545 113.008C147.209 112.352 147.041 111.604 147.041 110.764C147.041 109.924 147.209 109.18 147.545 108.532C147.881 107.876 148.357 107.364 148.973 106.996C149.589 106.628 150.297 106.444 151.097 106.444ZM157.158 108.4V109.912H155.61V108.4H157.158ZM157.158 113.488V115H155.61V113.488H157.158ZM165.005 115L162.977 111.868L161.165 115H159.593L162.221 110.68L159.533 106.528H161.165L163.157 109.6L164.957 106.528H166.529L163.913 110.776L166.637 115H165.005ZM171.933 115L169.905 111.868L168.093 115H166.521L169.149 110.68L166.461 106.528H168.093L170.085 109.6L171.885 106.528H173.457L170.841 110.776L173.565 115H171.933ZM178.033 110.08V111.232H173.089V110.08H178.033ZM184.372 115L182.344 111.868L180.532 115H178.96L181.588 110.68L178.9 106.528H180.532L182.524 109.6L184.324 106.528H185.896L183.28 110.776L186.004 115H184.372ZM191.3 115L189.272 111.868L187.46 115H185.888L188.516 110.68L185.828 106.528H187.46L189.452 109.6L191.252 106.528H192.824L190.208 110.776L192.932 115H191.3ZM197.4 110.08V111.232H192.456V110.08H197.4ZM203.738 115L201.71 111.868L199.898 115H198.326L200.954 110.68L198.266 106.528H199.898L201.89 109.6L203.69 106.528H205.262L202.646 110.776L205.37 115H203.738ZM210.667 115L208.639 111.868L206.827 115H205.255L207.883 110.68L205.195 106.528H206.827L208.819 109.6L210.619 106.528H212.191L209.575 110.776L212.299 115H210.667ZM216.767 110.08V111.232H211.823V110.08H216.767ZM223.105 115L221.077 111.868L219.265 115H217.693L220.321 110.68L217.633 106.528H219.265L221.257 109.6L223.057 106.528H224.629L222.013 110.776L224.737 115H223.105ZM230.034 115L228.006 111.868L226.194 115H224.622L227.25 110.68L224.562 106.528H226.194L228.186 109.6L229.986 106.528H231.558L228.942 110.776L231.666 115H230.034ZM236.134 110.08V111.232H231.19V110.08H236.134ZM242.472 115L240.444 111.868L238.632 115H237.06L239.688 110.68L237 106.528H238.632L240.624 109.6L242.424 106.528H243.996L241.38 110.776L244.104 115H242.472ZM249.4 115L247.372 111.868L245.56 115H243.988L246.616 110.68L243.928 106.528H245.56L247.552 109.6L249.352 106.528H250.924L248.308 110.776L251.032 115H249.4ZM255.501 110.08V111.232H250.557V110.08H255.501ZM261.839 115L259.811 111.868L257.999 115H256.427L259.055 110.68L256.367 106.528H257.999L259.991 109.6L261.791 106.528H263.363L260.747 110.776L263.471 115H261.839ZM268.767 115L266.739 111.868L264.927 115H263.355L265.983 110.68L263.295 106.528H264.927L266.919 109.6L268.719 106.528H270.291L267.675 110.776L270.399 115H268.767Z" fill="white"/>
<path opacity="0.25" d="M37.5336 126.5H163.466" stroke="white" stroke-linecap="square"/>
<path opacity="0.25" d="M211.534 126.5H337.466" stroke="white" stroke-linecap="square"/>
<rect opacity="0.25" x="37.5" y="58.5" width="57" height="57" rx="1.5" fill="white" stroke="white"/>
<rect opacity="0.25" x="121.5" y="137.5" width="135" height="33" rx="1.5" fill="white" stroke="white"/>
<path d="M124.5 80.5C124.5 77.7386 126.739 75.5 129.5 75.5H269.5C272.261 75.5 274.5 77.7386 274.5 80.5V94.5C274.5 97.2614 272.261 99.5 269.5 99.5H129.5C126.739 99.5 124.5 97.2614 124.5 94.5V80.5Z" stroke="#FDBA12" stroke-width="2"/>
</svg>
