<svg width="375" height="232" viewBox="0 0 375 232" fill="none" xmlns="http://www.w3.org/2000/svg">
<rect opacity="0.5" x="152.25" y="120.25" width="73.5" height="39.5" rx="3.75" stroke="white" stroke-width="0.5"/>
<path d="M174.462 133.292V134.948H170.916V146H168.846V134.948H165.318V133.292H174.462ZM178.045 133.292V146H175.993V133.292H178.045ZM193.704 133.49V146H191.634V136.622L188.016 146H186.216L182.58 136.622V146H180.528V133.49H183.012L187.152 143.48L191.22 133.49H193.704ZM198.225 134.948V138.8H202.905V140.384H198.225V144.326H203.445V146H196.173V133.292H203.445V134.948H198.225ZM212.114 146L208.946 140.924H207.488V146H205.436V133.292H209.918C211.37 133.292 212.468 133.646 213.212 134.354C213.968 135.062 214.346 135.998 214.346 137.162C214.346 138.158 214.064 138.974 213.5 139.61C212.948 140.246 212.144 140.654 211.088 140.834L214.418 146H212.114ZM207.488 139.466H209.756C211.412 139.466 212.24 138.734 212.24 137.27C212.24 136.574 212.036 136.034 211.628 135.65C211.232 135.254 210.608 135.056 209.756 135.056H207.488V139.466Z" fill="white"/>
<path d="M166.548 167.54V176H165.444V172.088H161.148V176H160.056V167.54H161.148V171.2H165.444V167.54H166.548ZM171.282 169.328C171.914 169.328 172.478 169.464 172.974 169.736C173.478 170.008 173.87 170.4 174.15 170.912C174.438 171.424 174.582 172.024 174.582 172.712C174.582 173.4 174.438 174 174.15 174.512C173.87 175.016 173.478 175.404 172.974 175.676C172.478 175.948 171.914 176.084 171.282 176.084C170.65 176.084 170.082 175.948 169.578 175.676C169.082 175.404 168.69 175.016 168.402 174.512C168.114 174 167.97 173.4 167.97 172.712C167.97 172.024 168.114 171.424 168.402 170.912C168.69 170.4 169.082 170.008 169.578 169.736C170.082 169.464 170.65 169.328 171.282 169.328ZM171.282 170.288C170.89 170.288 170.526 170.376 170.19 170.552C169.862 170.728 169.594 171 169.386 171.368C169.186 171.728 169.086 172.176 169.086 172.712C169.086 173.24 169.186 173.688 169.386 174.056C169.594 174.416 169.862 174.684 170.19 174.86C170.526 175.036 170.89 175.124 171.282 175.124C171.674 175.124 172.034 175.036 172.362 174.86C172.698 174.684 172.966 174.416 173.166 174.056C173.374 173.688 173.478 173.24 173.478 172.712C173.478 172.176 173.374 171.728 173.166 171.368C172.966 171 172.698 170.728 172.362 170.552C172.034 170.376 171.674 170.288 171.282 170.288ZM177.097 167.12V176H176.005V167.12H177.097ZM181.553 169.328C182.193 169.328 182.733 169.488 183.173 169.808C183.621 170.128 183.933 170.556 184.109 171.092V167.12H185.201V176H184.109V174.32C183.933 174.856 183.621 175.284 183.173 175.604C182.733 175.924 182.193 176.084 181.553 176.084C180.969 176.084 180.449 175.948 179.993 175.676C179.537 175.404 179.177 175.016 178.913 174.512C178.657 174 178.529 173.4 178.529 172.712C178.529 172.024 178.657 171.424 178.913 170.912C179.177 170.4 179.537 170.008 179.993 169.736C180.449 169.464 180.969 169.328 181.553 169.328ZM181.865 170.3C181.193 170.3 180.653 170.516 180.245 170.948C179.845 171.372 179.645 171.96 179.645 172.712C179.645 173.464 179.845 174.056 180.245 174.488C180.653 174.912 181.193 175.124 181.865 175.124C182.297 175.124 182.681 175.024 183.017 174.824C183.361 174.624 183.629 174.344 183.821 173.984C184.013 173.616 184.109 173.192 184.109 172.712C184.109 172.232 184.013 171.808 183.821 171.44C183.629 171.072 183.361 170.792 183.017 170.6C182.681 170.4 182.297 170.3 181.865 170.3ZM192.615 167.312C193.159 167.312 193.627 167.408 194.019 167.6C194.411 167.792 194.707 168.056 194.907 168.392C195.107 168.728 195.207 169.108 195.207 169.532C195.207 170.06 195.051 170.504 194.739 170.864C194.435 171.224 193.987 171.44 193.395 171.512V171.584C194.011 171.744 194.491 171.992 194.835 172.328C195.187 172.664 195.363 173.128 195.363 173.72C195.363 174.416 195.131 174.984 194.667 175.424C194.203 175.864 193.535 176.084 192.663 176.084C191.791 176.084 191.083 175.86 190.539 175.412C190.003 174.956 189.687 174.292 189.591 173.42H190.671C190.743 173.948 190.943 174.368 191.271 174.68C191.607 174.992 192.059 175.148 192.627 175.148C193.163 175.148 193.575 175.012 193.863 174.74C194.151 174.46 194.295 174.1 194.295 173.66C194.295 173.132 194.087 172.732 193.671 172.46C193.263 172.18 192.679 172.04 191.919 172.04H191.631V171.128H191.919C193.391 171.128 194.127 170.636 194.127 169.652C194.127 169.22 193.991 168.876 193.719 168.62C193.447 168.364 193.071 168.236 192.591 168.236C192.111 168.236 191.707 168.376 191.379 168.656C191.051 168.928 190.859 169.332 190.803 169.868H189.735C189.791 169.068 190.067 168.444 190.563 167.996C191.067 167.54 191.751 167.312 192.615 167.312ZM205.287 173.804C205.287 174.204 205.191 174.576 204.999 174.92C204.807 175.264 204.515 175.544 204.123 175.76C203.731 175.976 203.247 176.084 202.671 176.084C202.111 176.084 201.611 175.984 201.171 175.784C200.739 175.576 200.391 175.296 200.127 174.944C199.871 174.584 199.723 174.176 199.683 173.72H200.847C200.871 173.96 200.951 174.196 201.087 174.428C201.231 174.652 201.431 174.84 201.687 174.992C201.951 175.136 202.267 175.208 202.635 175.208C203.115 175.208 203.483 175.08 203.739 174.824C203.995 174.568 204.123 174.24 204.123 173.84C204.123 173.496 204.031 173.216 203.847 173C203.671 172.784 203.451 172.616 203.187 172.496C202.923 172.368 202.563 172.232 202.107 172.088C201.571 171.912 201.139 171.748 200.811 171.596C200.491 171.436 200.215 171.2 199.983 170.888C199.759 170.576 199.647 170.164 199.647 169.652C199.647 169.212 199.751 168.824 199.959 168.488C200.175 168.152 200.479 167.892 200.871 167.708C201.271 167.524 201.739 167.432 202.275 167.432C203.107 167.432 203.767 167.636 204.255 168.044C204.743 168.444 205.027 168.956 205.107 169.58H203.931C203.867 169.244 203.695 168.948 203.415 168.692C203.135 168.436 202.755 168.308 202.275 168.308C201.835 168.308 201.483 168.424 201.219 168.656C200.955 168.88 200.823 169.2 200.823 169.616C200.823 169.944 200.907 170.212 201.075 170.42C201.251 170.62 201.467 170.78 201.723 170.9C201.979 171.012 202.331 171.14 202.779 171.284C203.323 171.46 203.759 171.628 204.087 171.788C204.423 171.948 204.707 172.192 204.939 172.52C205.171 172.84 205.287 173.268 205.287 173.804ZM212.815 172.34C212.815 172.572 212.799 172.772 212.767 172.94H207.499C207.523 173.692 207.735 174.256 208.135 174.632C208.543 175.008 209.039 175.196 209.623 175.196C210.151 175.196 210.591 175.064 210.943 174.8C211.303 174.528 211.523 174.168 211.603 173.72H212.767C212.687 174.176 212.507 174.584 212.227 174.944C211.955 175.304 211.599 175.584 211.159 175.784C210.719 175.984 210.223 176.084 209.671 176.084C209.039 176.084 208.479 175.948 207.991 175.676C207.503 175.404 207.119 175.016 206.839 174.512C206.567 174 206.431 173.4 206.431 172.712C206.431 172.024 206.567 171.424 206.839 170.912C207.119 170.4 207.503 170.008 207.991 169.736C208.479 169.464 209.039 169.328 209.671 169.328C210.311 169.328 210.867 169.464 211.339 169.736C211.819 170.008 212.183 170.372 212.431 170.828C212.687 171.284 212.815 171.788 212.815 172.34ZM211.711 172.412C211.735 171.924 211.655 171.516 211.471 171.188C211.287 170.86 211.035 170.616 210.715 170.456C210.395 170.296 210.047 170.216 209.671 170.216C209.071 170.216 208.567 170.404 208.159 170.78C207.751 171.148 207.531 171.692 207.499 172.412H211.711ZM217.159 169.328C217.999 169.328 218.695 169.552 219.247 170C219.799 170.448 220.139 171.048 220.267 171.8H219.115C219.035 171.328 218.815 170.96 218.455 170.696C218.103 170.424 217.663 170.288 217.135 170.288C216.751 170.288 216.399 170.376 216.079 170.552C215.767 170.728 215.515 171 215.323 171.368C215.131 171.728 215.035 172.176 215.035 172.712C215.035 173.248 215.131 173.7 215.323 174.068C215.515 174.428 215.767 174.696 216.079 174.872C216.399 175.048 216.751 175.136 217.135 175.136C217.663 175.136 218.103 175 218.455 174.728C218.815 174.456 219.035 174.084 219.115 173.612H220.267C220.139 174.372 219.799 174.976 219.247 175.424C218.695 175.864 217.999 176.084 217.159 176.084C216.527 176.084 215.967 175.948 215.479 175.676C214.991 175.404 214.607 175.016 214.327 174.512C214.055 174 213.919 173.4 213.919 172.712C213.919 172.024 214.055 171.424 214.327 170.912C214.607 170.4 214.991 170.008 215.479 169.736C215.967 169.464 216.527 169.328 217.159 169.328ZM173.252 179.54V180.428H169.556V183.356H172.688V184.208H169.556V188H168.464V179.54H173.252ZM177.534 181.328C178.166 181.328 178.73 181.464 179.226 181.736C179.73 182.008 180.122 182.4 180.402 182.912C180.69 183.424 180.834 184.024 180.834 184.712C180.834 185.4 180.69 186 180.402 186.512C180.122 187.016 179.73 187.404 179.226 187.676C178.73 187.948 178.166 188.084 177.534 188.084C176.902 188.084 176.334 187.948 175.83 187.676C175.334 187.404 174.942 187.016 174.654 186.512C174.366 186 174.222 185.4 174.222 184.712C174.222 184.024 174.366 183.424 174.654 182.912C174.942 182.4 175.334 182.008 175.83 181.736C176.334 181.464 176.902 181.328 177.534 181.328ZM177.534 182.288C177.142 182.288 176.778 182.376 176.442 182.552C176.114 182.728 175.846 183 175.638 183.368C175.438 183.728 175.338 184.176 175.338 184.712C175.338 185.24 175.438 185.688 175.638 186.056C175.846 186.416 176.114 186.684 176.442 186.86C176.778 187.036 177.142 187.124 177.534 187.124C177.926 187.124 178.286 187.036 178.614 186.86C178.95 186.684 179.218 186.416 179.418 186.056C179.626 185.688 179.73 185.24 179.73 184.712C179.73 184.176 179.626 183.728 179.418 183.368C179.218 183 178.95 182.728 178.614 182.552C178.286 182.376 177.926 182.288 177.534 182.288ZM183.349 182.744C183.565 182.288 183.881 181.936 184.297 181.688C184.713 181.432 185.209 181.304 185.785 181.304V182.492H185.449C184.833 182.492 184.329 182.652 183.937 182.972C183.545 183.284 183.349 183.804 183.349 184.532V188H182.257V181.412H183.349V182.744ZM200.231 179.54L198.083 188H196.751L194.795 181.088L192.839 188H191.507L189.347 179.54H190.559L192.179 186.728L194.183 179.54H195.395L197.399 186.704L199.031 179.54H200.231ZM201.319 179.48C201.319 179.28 201.387 179.12 201.523 179C201.659 178.872 201.839 178.808 202.063 178.808C202.287 178.808 202.467 178.872 202.603 179C202.739 179.12 202.807 179.28 202.807 179.48C202.807 179.68 202.739 179.844 202.603 179.972C202.467 180.092 202.287 180.152 202.063 180.152C201.839 180.152 201.659 180.092 201.523 179.972C201.387 179.844 201.319 179.68 201.319 179.48ZM202.603 181.412V188H201.511V181.412H202.603ZM209.146 179.54V180.428H205.45V183.356H208.582V184.208H205.45V188H204.358V179.54H209.146ZM210.248 179.48C210.248 179.28 210.316 179.12 210.452 179C210.588 178.872 210.768 178.808 210.992 178.808C211.216 178.808 211.396 178.872 211.532 179C211.668 179.12 211.736 179.28 211.736 179.48C211.736 179.68 211.668 179.844 211.532 179.972C211.396 180.092 211.216 180.152 210.992 180.152C210.768 180.152 210.588 180.092 210.452 179.972C210.316 179.844 210.248 179.68 210.248 179.48ZM211.532 181.412V188H210.44V181.412H211.532Z" fill="white"/>
<rect opacity="0.5" x="256.25" y="120.25" width="73.5" height="39.5" rx="3.75" stroke="white" stroke-width="0.5"/>
<rect opacity="0.5" x="44.25" y="120.25" width="73.5" height="39.5" rx="3.75" stroke="white" stroke-width="0.5"/>
<rect x="171" y="85" width="10" height="10" rx="2" fill="white"/>
<rect x="171" y="34" width="10" height="10" rx="2" fill="white"/>
<path d="M144.474 34.13L141.968 44H140.414L138.132 35.936L135.85 44H134.296L131.776 34.13H133.19L135.08 42.516L137.418 34.13H138.832L141.17 42.488L143.074 34.13H144.474ZM145.743 34.06C145.743 33.8267 145.823 33.64 145.981 33.5C146.14 33.3507 146.35 33.276 146.611 33.276C146.873 33.276 147.083 33.3507 147.241 33.5C147.4 33.64 147.479 33.8267 147.479 34.06C147.479 34.2933 147.4 34.4847 147.241 34.634C147.083 34.774 146.873 34.844 146.611 34.844C146.35 34.844 146.14 34.774 145.981 34.634C145.823 34.4847 145.743 34.2933 145.743 34.06ZM147.241 36.314V44H145.967V36.314H147.241ZM154.876 34.13V35.166H150.564V38.582H154.218V39.576H150.564V44H149.29V34.13H154.876ZM156.161 34.06C156.161 33.8267 156.241 33.64 156.399 33.5C156.558 33.3507 156.768 33.276 157.029 33.276C157.291 33.276 157.501 33.3507 157.659 33.5C157.818 33.64 157.897 33.8267 157.897 34.06C157.897 34.2933 157.818 34.4847 157.659 34.634C157.501 34.774 157.291 34.844 157.029 34.844C156.768 34.844 156.558 34.774 156.399 34.634C156.241 34.4847 156.161 34.2933 156.161 34.06ZM157.659 36.314V44H156.385V36.314H157.659Z" fill="white"/>
</svg>
