<svg width="375" height="232" viewBox="0 0 375 232" fill="none" xmlns="http://www.w3.org/2000/svg">
<g clip-path="url(#clip0_592:268)">
<path d="M263.555 215.426L248.003 220.926C236.737 224.91 224.713 226.287 212.838 224.952L112.962 213.726C107.324 213.092 103.093 208.273 103.193 202.6L107.367 -33.4542C107.441 -37.6779 109.919 -41.4812 113.772 -43.1528C117.581 -44.8054 121.818 -46.5487 123.743 -47.0299C125.877 -47.5636 129.002 -48.3802 131.455 -49.0265C133.896 -49.6699 136.409 -50 138.931 -50H260.605C264.435 -50 267.554 -46.9222 267.605 -43.0926L270.886 204.91C270.949 209.624 268 213.854 263.555 215.426Z" stroke="white" stroke-width="2"/>
<path d="M271.5 184L244.158 190.494C235.774 192.485 227.124 193.108 218.541 192.34L103 182" stroke="white" stroke-width="2"/>
<path d="M232 -36.5L231 225.5" stroke="white" stroke-width="0.5"/>
<path d="M242 81.8828C242 81.3785 242.376 80.9531 242.876 80.8905L260.876 78.6405C261.473 78.5659 262 79.0313 262 79.6328V89.1388C262 89.6338 261.638 90.0543 261.148 90.1277L243.148 92.8277C242.544 92.9184 242 92.4502 242 91.8388V81.8828Z" fill="#FDBA12"/>
</g>
<defs>
<clipPath id="clip0_592:268">
<rect width="375" height="232" fill="white"/>
</clipPath>
</defs>
</svg>
