<svg width="343" height="200" viewBox="0 0 343 200" fill="none" xmlns="http://www.w3.org/2000/svg">
    <rect x="1" y="1" width="341" height="198" rx="5" stroke="white" stroke-width="2"/>
    <rect x="103" y="125" width="121" height="42" rx="5" stroke="#FDBA12" stroke-width="2"/>
    <rect opacity="0.25" x="13.5" y="86.5" width="67" height="67" rx="1.5" fill="white" stroke="white"/>
    <path d="M114.196 138.712V142H112.828V133.528H115.708C116.684 133.528 117.416 133.76 117.904 134.224C118.4 134.688 118.648 135.324 118.648 136.132C118.648 136.932 118.396 137.564 117.892 138.028C117.388 138.484 116.66 138.712 115.708 138.712H114.196ZM115.564 137.596C116.692 137.596 117.256 137.108 117.256 136.132C117.256 135.652 117.12 135.288 116.848 135.04C116.584 134.784 116.156 134.656 115.564 134.656H114.196V137.596H115.564ZM125.14 140.164H121.564L120.916 142H119.452L122.572 133.66H124.144L127.252 142H125.788L125.14 140.164ZM124.756 139.108L123.352 135.148L121.948 139.108H124.756ZM134.075 139.744C134.075 140.16 133.975 140.548 133.775 140.908C133.575 141.26 133.271 141.544 132.863 141.76C132.455 141.976 131.955 142.084 131.363 142.084C130.787 142.084 130.271 141.984 129.815 141.784C129.359 141.576 128.995 141.288 128.723 140.92C128.451 140.552 128.295 140.128 128.255 139.648H129.719C129.759 140.016 129.915 140.332 130.187 140.596C130.467 140.86 130.839 140.992 131.303 140.992C131.719 140.992 132.039 140.88 132.263 140.656C132.495 140.432 132.611 140.144 132.611 139.792C132.611 139.488 132.527 139.24 132.359 139.048C132.191 138.848 131.983 138.692 131.735 138.58C131.487 138.468 131.147 138.34 130.715 138.196C130.187 138.028 129.755 137.86 129.419 137.692C129.091 137.524 128.811 137.28 128.579 136.96C128.347 136.64 128.231 136.22 128.231 135.7C128.231 135.244 128.343 134.844 128.567 134.5C128.791 134.156 129.111 133.892 129.527 133.708C129.943 133.516 130.423 133.42 130.967 133.42C131.831 133.42 132.515 133.628 133.019 134.044C133.531 134.46 133.823 135.004 133.895 135.676H132.419C132.363 135.356 132.211 135.084 131.963 134.86C131.723 134.628 131.391 134.512 130.967 134.512C130.583 134.512 130.275 134.612 130.043 134.812C129.811 135.004 129.695 135.284 129.695 135.652C129.695 135.94 129.775 136.18 129.935 136.372C130.095 136.556 130.295 136.704 130.535 136.816C130.783 136.92 131.119 137.044 131.543 137.188C132.079 137.356 132.515 137.528 132.851 137.704C133.195 137.872 133.483 138.12 133.715 138.448C133.955 138.776 134.075 139.208 134.075 139.744ZM141.253 139.744C141.253 140.16 141.153 140.548 140.953 140.908C140.753 141.26 140.449 141.544 140.041 141.76C139.633 141.976 139.133 142.084 138.541 142.084C137.965 142.084 137.449 141.984 136.993 141.784C136.537 141.576 136.173 141.288 135.901 140.92C135.629 140.552 135.473 140.128 135.433 139.648H136.897C136.937 140.016 137.093 140.332 137.365 140.596C137.645 140.86 138.017 140.992 138.481 140.992C138.897 140.992 139.217 140.88 139.441 140.656C139.673 140.432 139.789 140.144 139.789 139.792C139.789 139.488 139.705 139.24 139.537 139.048C139.369 138.848 139.161 138.692 138.913 138.58C138.665 138.468 138.325 138.34 137.893 138.196C137.365 138.028 136.933 137.86 136.597 137.692C136.269 137.524 135.989 137.28 135.757 136.96C135.525 136.64 135.409 136.22 135.409 135.7C135.409 135.244 135.521 134.844 135.745 134.5C135.969 134.156 136.289 133.892 136.705 133.708C137.121 133.516 137.601 133.42 138.145 133.42C139.009 133.42 139.693 133.628 140.197 134.044C140.709 134.46 141.001 135.004 141.073 135.676H139.597C139.541 135.356 139.389 135.084 139.141 134.86C138.901 134.628 138.569 134.512 138.145 134.512C137.761 134.512 137.453 134.612 137.221 134.812C136.989 135.004 136.873 135.284 136.873 135.652C136.873 135.94 136.953 136.18 137.113 136.372C137.273 136.556 137.473 136.704 137.713 136.816C137.961 136.92 138.297 137.044 138.721 137.188C139.257 137.356 139.693 137.528 140.029 137.704C140.373 137.872 140.661 138.12 140.893 138.448C141.133 138.776 141.253 139.208 141.253 139.744ZM153.59 133.528L151.478 142H149.798L148.01 135.448L146.222 142H144.542L142.43 133.528H143.93L145.394 140.416L147.254 133.528H148.766L150.626 140.416L152.09 133.528H153.59ZM158.979 133.42C159.763 133.42 160.471 133.604 161.103 133.972C161.743 134.34 162.243 134.856 162.603 135.52C162.971 136.176 163.155 136.92 163.155 137.752C163.155 138.584 162.971 139.332 162.603 139.996C162.243 140.652 161.743 141.168 161.103 141.544C160.471 141.912 159.763 142.096 158.979 142.096C158.187 142.096 157.471 141.912 156.831 141.544C156.199 141.168 155.699 140.652 155.331 139.996C154.963 139.332 154.779 138.584 154.779 137.752C154.779 136.92 154.963 136.176 155.331 135.52C155.699 134.856 156.199 134.34 156.831 133.972C157.471 133.604 158.187 133.42 158.979 133.42ZM158.979 134.692C158.435 134.692 157.951 134.816 157.527 135.064C157.103 135.312 156.771 135.668 156.531 136.132C156.299 136.596 156.183 137.136 156.183 137.752C156.183 138.368 156.299 138.908 156.531 139.372C156.771 139.836 157.103 140.192 157.527 140.44C157.951 140.688 158.435 140.812 158.979 140.812C159.515 140.812 159.991 140.688 160.407 140.44C160.831 140.192 161.159 139.836 161.391 139.372C161.631 138.908 161.751 138.368 161.751 137.752C161.751 137.136 161.631 136.596 161.391 136.132C161.159 135.668 160.831 135.312 160.407 135.064C159.991 134.816 159.515 134.692 158.979 134.692ZM169.228 142L167.116 138.616H166.144V142H164.776V133.528H167.764C168.732 133.528 169.464 133.764 169.96 134.236C170.464 134.708 170.716 135.332 170.716 136.108C170.716 136.772 170.528 137.316 170.152 137.74C169.784 138.164 169.248 138.436 168.544 138.556L170.764 142H169.228ZM166.144 137.644H167.656C168.76 137.644 169.312 137.156 169.312 136.18C169.312 135.716 169.176 135.356 168.904 135.1C168.64 134.836 168.224 134.704 167.656 134.704H166.144V137.644ZM179.46 137.752C179.46 138.608 179.284 139.356 178.932 139.996C178.588 140.628 178.08 141.12 177.408 141.472C176.744 141.824 175.948 142 175.02 142H172.188V133.528H175.02C175.948 133.528 176.744 133.704 177.408 134.056C178.08 134.4 178.588 134.888 178.932 135.52C179.284 136.152 179.46 136.896 179.46 137.752ZM174.912 140.764C175.928 140.764 176.708 140.5 177.252 139.972C177.796 139.444 178.068 138.704 178.068 137.752C178.068 136.8 177.796 136.06 177.252 135.532C176.708 135.004 175.928 134.74 174.912 134.74H173.556V140.764H174.912Z" fill="white"/>
    <path opacity="0.25" d="M118.396 85.744C118.396 86.16 118.296 86.548 118.096 86.908C117.896 87.26 117.592 87.544 117.184 87.76C116.776 87.976 116.276 88.084 115.684 88.084C115.108 88.084 114.592 87.984 114.136 87.784C113.68 87.576 113.316 87.288 113.044 86.92C112.772 86.552 112.616 86.128 112.576 85.648H114.04C114.08 86.016 114.236 86.332 114.508 86.596C114.788 86.86 115.16 86.992 115.624 86.992C116.04 86.992 116.36 86.88 116.584 86.656C116.816 86.432 116.932 86.144 116.932 85.792C116.932 85.488 116.848 85.24 116.68 85.048C116.512 84.848 116.304 84.692 116.056 84.58C115.808 84.468 115.468 84.34 115.036 84.196C114.508 84.028 114.076 83.86 113.74 83.692C113.412 83.524 113.132 83.28 112.9 82.96C112.668 82.64 112.552 82.22 112.552 81.7C112.552 81.244 112.664 80.844 112.888 80.5C113.112 80.156 113.432 79.892 113.848 79.708C114.264 79.516 114.744 79.42 115.288 79.42C116.152 79.42 116.836 79.628 117.34 80.044C117.852 80.46 118.144 81.004 118.216 81.676H116.74C116.684 81.356 116.532 81.084 116.284 80.86C116.044 80.628 115.712 80.512 115.288 80.512C114.904 80.512 114.596 80.612 114.364 80.812C114.132 81.004 114.016 81.284 114.016 81.652C114.016 81.94 114.096 82.18 114.256 82.372C114.416 82.556 114.616 82.704 114.856 82.816C115.104 82.92 115.44 83.044 115.864 83.188C116.4 83.356 116.836 83.528 117.172 83.704C117.516 83.872 117.804 84.12 118.036 84.448C118.276 84.776 118.396 85.208 118.396 85.744ZM125.574 85.744C125.574 86.16 125.474 86.548 125.273 86.908C125.073 87.26 124.769 87.544 124.361 87.76C123.953 87.976 123.453 88.084 122.861 88.084C122.285 88.084 121.769 87.984 121.313 87.784C120.857 87.576 120.493 87.288 120.221 86.92C119.949 86.552 119.793 86.128 119.753 85.648H121.217C121.257 86.016 121.413 86.332 121.685 86.596C121.965 86.86 122.337 86.992 122.801 86.992C123.217 86.992 123.537 86.88 123.762 86.656C123.993 86.432 124.109 86.144 124.109 85.792C124.109 85.488 124.025 85.24 123.857 85.048C123.689 84.848 123.482 84.692 123.234 84.58C122.985 84.468 122.645 84.34 122.214 84.196C121.685 84.028 121.253 83.86 120.917 83.692C120.589 83.524 120.309 83.28 120.077 82.96C119.845 82.64 119.729 82.22 119.729 81.7C119.729 81.244 119.841 80.844 120.065 80.5C120.289 80.156 120.609 79.892 121.025 79.708C121.441 79.516 121.921 79.42 122.465 79.42C123.33 79.42 124.014 79.628 124.518 80.044C125.029 80.46 125.321 81.004 125.393 81.676H123.917C123.861 81.356 123.709 81.084 123.462 80.86C123.222 80.628 122.89 80.512 122.465 80.512C122.081 80.512 121.773 80.612 121.541 80.812C121.309 81.004 121.193 81.284 121.193 81.652C121.193 81.94 121.273 82.18 121.433 82.372C121.593 82.556 121.793 82.704 122.033 82.816C122.281 82.92 122.618 83.044 123.042 83.188C123.578 83.356 124.014 83.528 124.35 83.704C124.694 83.872 124.982 84.12 125.214 84.448C125.454 84.776 125.574 85.208 125.574 85.744ZM128.551 79.528V88H127.183V79.528H128.551ZM137.718 83.752C137.718 84.608 137.542 85.356 137.19 85.996C136.846 86.628 136.338 87.12 135.666 87.472C135.002 87.824 134.206 88 133.278 88H130.446V79.528H133.278C134.206 79.528 135.002 79.704 135.666 80.056C136.338 80.4 136.846 80.888 137.19 81.52C137.542 82.152 137.718 82.896 137.718 83.752ZM133.17 86.764C134.186 86.764 134.966 86.5 135.51 85.972C136.054 85.444 136.326 84.704 136.326 83.752C136.326 82.8 136.054 82.06 135.51 81.532C134.966 81.004 134.186 80.74 133.17 80.74H131.814V86.764H133.17Z" fill="white"/>
    <path opacity="0.25" d="M116.704 96.456C117.712 96.456 118.552 96.704 119.224 97.2C119.896 97.696 120.34 98.372 120.556 99.228H119.116C118.932 98.772 118.628 98.408 118.204 98.136C117.788 97.864 117.292 97.728 116.716 97.728C116.188 97.728 115.712 97.852 115.288 98.1C114.872 98.348 114.544 98.7 114.304 99.156C114.072 99.612 113.956 100.148 113.956 100.764C113.956 101.412 114.076 101.968 114.316 102.432C114.556 102.896 114.892 103.252 115.324 103.5C115.764 103.74 116.272 103.86 116.848 103.86C117.552 103.86 118.156 103.644 118.66 103.212C119.164 102.772 119.468 102.172 119.572 101.412H116.464V100.404H120.724V101.712C120.628 102.336 120.404 102.904 120.052 103.416C119.708 103.92 119.248 104.324 118.672 104.628C118.104 104.932 117.452 105.084 116.716 105.084C115.892 105.084 115.164 104.9 114.532 104.532C113.9 104.164 113.412 103.656 113.068 103.008C112.724 102.352 112.552 101.604 112.552 100.764C112.552 99.924 112.724 99.18 113.068 98.532C113.412 97.876 113.896 97.368 114.52 97.008C115.152 96.64 115.88 96.456 116.704 96.456ZM123.717 97.632V100.2H126.837V101.256H123.717V103.884H127.197V105H122.349V96.528H127.197V97.632H123.717ZM135.161 105.432V106.764H128.465V105.432H135.161ZM145.488 96.66V105H144.108V98.748L141.696 105H140.496L138.072 98.748V105H136.704V96.66H138.36L141.12 103.32L143.832 96.66H145.488ZM151.298 96.42C152.082 96.42 152.79 96.604 153.422 96.972C154.062 97.34 154.562 97.856 154.922 98.52C155.29 99.176 155.474 99.92 155.474 100.752C155.474 101.584 155.29 102.332 154.922 102.996C154.562 103.652 154.062 104.168 153.422 104.544C152.79 104.912 152.082 105.096 151.298 105.096C150.506 105.096 149.79 104.912 149.15 104.544C148.518 104.168 148.018 103.652 147.65 102.996C147.282 102.332 147.098 101.584 147.098 100.752C147.098 99.92 147.282 99.176 147.65 98.52C148.018 97.856 148.518 97.34 149.15 96.972C149.79 96.604 150.506 96.42 151.298 96.42ZM151.298 97.692C150.754 97.692 150.27 97.816 149.846 98.064C149.422 98.312 149.09 98.668 148.85 99.132C148.618 99.596 148.502 100.136 148.502 100.752C148.502 101.368 148.618 101.908 148.85 102.372C149.09 102.836 149.422 103.192 149.846 103.44C150.27 103.688 150.754 103.812 151.298 103.812C151.834 103.812 152.31 103.688 152.726 103.44C153.15 103.192 153.478 102.836 153.71 102.372C153.95 101.908 154.07 101.368 154.07 100.752C154.07 100.136 153.95 99.596 153.71 99.132C153.478 98.668 153.15 98.312 152.726 98.064C152.31 97.816 151.834 97.692 151.298 97.692ZM164.366 100.752C164.366 101.608 164.19 102.356 163.838 102.996C163.494 103.628 162.986 104.12 162.314 104.472C161.65 104.824 160.854 105 159.926 105H157.094V96.528H159.926C160.854 96.528 161.65 96.704 162.314 97.056C162.986 97.4 163.494 97.888 163.838 98.52C164.19 99.152 164.366 99.896 164.366 100.752ZM159.818 103.764C160.834 103.764 161.614 103.5 162.158 102.972C162.702 102.444 162.974 101.704 162.974 100.752C162.974 99.8 162.702 99.06 162.158 98.532C161.614 98.004 160.834 97.74 159.818 97.74H158.462V103.764H159.818ZM167.291 96.528V101.556C167.291 102.308 167.455 102.868 167.783 103.236C168.119 103.604 168.587 103.788 169.187 103.788C169.779 103.788 170.239 103.604 170.567 103.236C170.903 102.868 171.071 102.308 171.071 101.556V96.528H172.439V101.556C172.439 102.716 172.139 103.596 171.539 104.196C170.939 104.788 170.147 105.084 169.163 105.084C168.187 105.084 167.403 104.788 166.811 104.196C166.219 103.596 165.923 102.716 165.923 101.556V96.528H167.291ZM175.642 103.932H178.57V105H174.274V96.528H175.642V103.932ZM181.249 97.632V100.2H184.369V101.256H181.249V103.884H184.729V105H179.881V96.528H184.729V97.632H181.249ZM192.693 105.432V106.764H185.997V105.432H192.693ZM199.072 105L197.044 101.868L195.232 105H193.66L196.288 100.68L193.6 96.528H195.232L197.224 99.6L199.024 96.528H200.596L197.98 100.776L200.704 105H199.072ZM206.8 105L204.772 101.868L202.96 105H201.388L204.016 100.68L201.328 96.528H202.96L204.952 99.6L206.752 96.528H208.324L205.708 100.776L208.432 105H206.8ZM214.528 105L212.5 101.868L210.688 105H209.116L211.744 100.68L209.056 96.528H210.688L212.68 99.6L214.48 96.528H216.052L213.436 100.776L216.16 105H214.528ZM222.257 105L220.229 101.868L218.417 105H216.845L219.473 100.68L216.785 96.528H218.417L220.409 99.6L222.209 96.528H223.781L221.165 100.776L223.889 105H222.257Z" fill="white"/>
    <path opacity="0.25" d="M249.136 79.528V84.556C249.136 85.308 249.3 85.868 249.628 86.236C249.964 86.604 250.432 86.788 251.032 86.788C251.624 86.788 252.084 86.604 252.412 86.236C252.748 85.868 252.916 85.308 252.916 84.556V79.528H254.284V84.556C254.284 85.716 253.984 86.596 253.384 87.196C252.784 87.788 251.992 88.084 251.008 88.084C250.032 88.084 249.248 87.788 248.656 87.196C248.064 86.596 247.768 85.716 247.768 84.556V79.528H249.136ZM257.487 84.712V88H256.119V79.528H258.999C259.975 79.528 260.707 79.76 261.195 80.224C261.691 80.688 261.939 81.324 261.939 82.132C261.939 82.932 261.687 83.564 261.183 84.028C260.679 84.484 259.951 84.712 258.999 84.712H257.487ZM258.855 83.596C259.983 83.596 260.547 83.108 260.547 82.132C260.547 81.652 260.411 81.288 260.139 81.04C259.875 80.784 259.447 80.656 258.855 80.656H257.487V83.596H258.855ZM270.65 83.752C270.65 84.608 270.474 85.356 270.122 85.996C269.778 86.628 269.27 87.12 268.598 87.472C267.934 87.824 267.138 88 266.21 88H263.378V79.528H266.21C267.138 79.528 267.934 79.704 268.598 80.056C269.27 80.4 269.778 80.888 270.122 81.52C270.474 82.152 270.65 82.896 270.65 83.752ZM266.102 86.764C267.118 86.764 267.898 86.5 268.442 85.972C268.986 85.444 269.258 84.704 269.258 83.752C269.258 82.8 268.986 82.06 268.442 81.532C267.898 81.004 267.118 80.74 266.102 80.74H264.746V86.764H266.102Z" fill="white"/>
    <path opacity="0.25" d="M256.612 133.66V142H255.232V135.748L252.82 142H251.62L249.196 135.748V142H247.828V133.66H249.484L252.244 140.32L254.956 133.66H256.612ZM263.55 140.164H259.974L259.326 142H257.862L260.982 133.66H262.554L265.662 142H264.198L263.55 140.164ZM263.166 139.108L261.762 135.148L260.358 139.108H263.166ZM270.697 133.444C271.737 133.444 272.601 133.708 273.289 134.236C273.977 134.764 274.441 135.48 274.681 136.384H273.229C273.029 135.872 272.709 135.468 272.269 135.172C271.837 134.868 271.305 134.716 270.673 134.716C270.169 134.716 269.717 134.84 269.317 135.088C268.925 135.336 268.613 135.692 268.381 136.156C268.157 136.612 268.045 137.148 268.045 137.764C268.045 138.372 268.157 138.908 268.381 139.372C268.613 139.828 268.925 140.18 269.317 140.428C269.717 140.676 270.169 140.8 270.673 140.8C271.305 140.8 271.837 140.652 272.269 140.356C272.709 140.052 273.029 139.648 273.229 139.144H274.681C274.441 140.048 273.977 140.764 273.289 141.292C272.601 141.812 271.737 142.072 270.697 142.072C269.897 142.072 269.189 141.892 268.573 141.532C267.957 141.164 267.481 140.656 267.145 140.008C266.809 139.352 266.641 138.604 266.641 137.764C266.641 136.924 266.809 136.18 267.145 135.532C267.481 134.876 267.957 134.364 268.573 133.996C269.189 133.628 269.897 133.444 270.697 133.444ZM280.707 133.528V142H279.339V133.528H280.707ZM289.874 137.752C289.874 138.608 289.698 139.356 289.346 139.996C289.002 140.628 288.494 141.12 287.822 141.472C287.158 141.824 286.362 142 285.434 142H282.602V133.528H285.434C286.362 133.528 287.158 133.704 287.822 134.056C288.494 134.4 289.002 134.888 289.346 135.52C289.698 136.152 289.874 136.896 289.874 137.752ZM285.326 140.764C286.342 140.764 287.122 140.5 287.666 139.972C288.21 139.444 288.482 138.704 288.482 137.752C288.482 136.8 288.21 136.06 287.666 135.532C287.122 135.004 286.342 134.74 285.326 134.74H283.97V140.764H285.326Z" fill="white"/>
    <path opacity="0.25" d="M21.67 56.47C21.67 57.1833 21.5267 57.8067 21.24 58.34C20.9533 58.8667 20.53 59.2767 19.97 59.57C19.4167 59.8567 18.75 60 17.97 60H15.73V52.95H17.97C18.75 52.95 19.4167 53.0933 19.97 53.38C20.53 53.66 20.9533 54.0667 21.24 54.6C21.5267 55.1267 21.67 55.75 21.67 56.47ZM17.9 59.18C18.82 59.18 19.5233 58.9433 20.01 58.47C20.4967 57.9967 20.74 57.33 20.74 56.47C20.74 55.61 20.4967 54.9433 20.01 54.47C19.53 53.99 18.8267 53.75 17.9 53.75H16.64V59.18H17.9ZM25.388 54.44C25.9146 54.44 26.3846 54.5533 26.798 54.78C27.218 55.0067 27.5446 55.3333 27.778 55.76C28.018 56.1867 28.138 56.6867 28.138 57.26C28.138 57.8333 28.018 58.3333 27.778 58.76C27.5446 59.18 27.218 59.5033 26.798 59.73C26.3846 59.9567 25.9146 60.07 25.388 60.07C24.8613 60.07 24.388 59.9567 23.968 59.73C23.5546 59.5033 23.228 59.18 22.988 58.76C22.748 58.3333 22.628 57.8333 22.628 57.26C22.628 56.6867 22.748 56.1867 22.988 55.76C23.228 55.3333 23.5546 55.0067 23.968 54.78C24.388 54.5533 24.8613 54.44 25.388 54.44ZM25.388 55.24C25.0613 55.24 24.758 55.3133 24.478 55.46C24.2046 55.6067 23.9813 55.8333 23.808 56.14C23.6413 56.44 23.558 56.8133 23.558 57.26C23.558 57.7 23.6413 58.0733 23.808 58.38C23.9813 58.68 24.2046 58.9033 24.478 59.05C24.758 59.1967 25.0613 59.27 25.388 59.27C25.7146 59.27 26.0146 59.1967 26.288 59.05C26.568 58.9033 26.7913 58.68 26.958 58.38C27.1313 58.0733 27.218 57.7 27.218 57.26C27.218 56.8133 27.1313 56.44 26.958 56.14C26.7913 55.8333 26.568 55.6067 26.288 55.46C26.0146 55.3133 25.7146 55.24 25.388 55.24ZM36.8638 54.51L35.2838 60H34.3038L32.7938 55.53L31.2738 60H30.2838L28.7238 54.51H29.6438L30.8138 59.13L32.3338 54.51H33.2838L34.8138 59.12L35.9938 54.51H36.8638ZM40.6024 54.42C41.2424 54.42 41.7591 54.6267 42.1524 55.04C42.5458 55.4467 42.7424 56.0367 42.7424 56.81V60H41.8324V56.89C41.8324 56.3433 41.6924 55.9233 41.4124 55.63C41.1324 55.3367 40.7524 55.19 40.2724 55.19C39.7724 55.19 39.3724 55.3533 39.0724 55.68C38.7724 56 38.6224 56.47 38.6224 57.09V60H37.7124V54.51H38.6224V55.81C38.7624 55.3633 39.0091 55.02 39.3624 54.78C39.7224 54.54 40.1358 54.42 40.6024 54.42ZM45.0482 52.6V60H44.1382V52.6H45.0482ZM49.0013 54.44C49.5279 54.44 49.9979 54.5533 50.4113 54.78C50.8313 55.0067 51.1579 55.3333 51.3913 55.76C51.6313 56.1867 51.7513 56.6867 51.7513 57.26C51.7513 57.8333 51.6313 58.3333 51.3913 58.76C51.1579 59.18 50.8313 59.5033 50.4113 59.73C49.9979 59.9567 49.5279 60.07 49.0013 60.07C48.4746 60.07 48.0013 59.9567 47.5813 59.73C47.1679 59.5033 46.8413 59.18 46.6013 58.76C46.3613 58.3333 46.2413 57.8333 46.2413 57.26C46.2413 56.6867 46.3613 56.1867 46.6013 55.76C46.8413 55.3333 47.1679 55.0067 47.5813 54.78C48.0013 54.5533 48.4746 54.44 49.0013 54.44ZM49.0013 55.24C48.6746 55.24 48.3713 55.3133 48.0913 55.46C47.8179 55.6067 47.5946 55.8333 47.4213 56.14C47.2546 56.44 47.1713 56.8133 47.1713 57.26C47.1713 57.7 47.2546 58.0733 47.4213 58.38C47.5946 58.68 47.8179 58.9033 48.0913 59.05C48.3713 59.1967 48.6746 59.27 49.0013 59.27C49.3279 59.27 49.6279 59.1967 49.9013 59.05C50.1813 58.9033 50.4046 58.68 50.5713 58.38C50.7446 58.0733 50.8312 57.7 50.8312 57.26C50.8312 56.8133 50.7446 56.44 50.5713 56.14C50.4046 55.8333 50.1813 55.6067 49.9013 55.46C49.6279 55.3133 49.3279 55.24 49.0013 55.24ZM55.187 54.44C55.7204 54.44 56.1704 54.5733 56.537 54.84C56.9104 55.1067 57.1704 55.4633 57.317 55.91V54.51H58.227V60H57.317V58.6C57.1704 59.0467 56.9104 59.4033 56.537 59.67C56.1704 59.9367 55.7204 60.07 55.187 60.07C54.7004 60.07 54.267 59.9567 53.887 59.73C53.507 59.5033 53.207 59.18 52.987 58.76C52.7737 58.3333 52.667 57.8333 52.667 57.26C52.667 56.6867 52.7737 56.1867 52.987 55.76C53.207 55.3333 53.507 55.0067 53.887 54.78C54.267 54.5533 54.7004 54.44 55.187 54.44ZM55.447 55.25C54.887 55.25 54.437 55.43 54.097 55.79C53.7637 56.1433 53.597 56.6333 53.597 57.26C53.597 57.8867 53.7637 58.38 54.097 58.74C54.437 59.0933 54.887 59.27 55.447 59.27C55.807 59.27 56.127 59.1867 56.407 59.02C56.6937 58.8533 56.917 58.62 57.077 58.32C57.237 58.0133 57.317 57.66 57.317 57.26C57.317 56.86 57.237 56.5067 57.077 56.2C56.917 55.8933 56.6937 55.66 56.407 55.5C56.127 55.3333 55.807 55.25 55.447 55.25ZM61.9253 54.44C62.4586 54.44 62.9086 54.5733 63.2753 54.84C63.6486 55.1067 63.9086 55.4633 64.0553 55.91V52.6H64.9653V60H64.0553V58.6C63.9086 59.0467 63.6486 59.4033 63.2753 59.67C62.9086 59.9367 62.4586 60.07 61.9253 60.07C61.4386 60.07 61.0053 59.9567 60.6253 59.73C60.2453 59.5033 59.9453 59.18 59.7253 58.76C59.512 58.3333 59.4053 57.8333 59.4053 57.26C59.4053 56.6867 59.512 56.1867 59.7253 55.76C59.9453 55.3333 60.2453 55.0067 60.6253 54.78C61.0053 54.5533 61.4386 54.44 61.9253 54.44ZM62.1853 55.25C61.6253 55.25 61.1753 55.43 60.8353 55.79C60.502 56.1433 60.3353 56.6333 60.3353 57.26C60.3353 57.8867 60.502 58.38 60.8353 58.74C61.1753 59.0933 61.6253 59.27 62.1853 59.27C62.5453 59.27 62.8653 59.1867 63.1453 59.02C63.432 58.8533 63.6553 58.62 63.8153 58.32C63.9753 58.0133 64.0553 57.66 64.0553 57.26C64.0553 56.86 63.9753 56.5067 63.8153 56.2C63.6553 55.8933 63.432 55.66 63.1453 55.5C62.8653 55.3333 62.5453 55.25 62.1853 55.25ZM71.5043 59.2V60H70.8243C70.2643 60 69.8443 59.8667 69.5643 59.6C69.291 59.3333 69.1543 58.8867 69.1543 58.26V55.3H68.3343V54.51H69.1543V53.14H70.0743V54.51H71.4943V55.3H70.0743V58.28C70.0743 58.6333 70.1376 58.8767 70.2643 59.01C70.3976 59.1367 70.6243 59.2 70.9443 59.2H71.5043ZM75.1048 54.44C75.6314 54.44 76.1014 54.5533 76.5148 54.78C76.9348 55.0067 77.2614 55.3333 77.4948 55.76C77.7348 56.1867 77.8548 56.6867 77.8548 57.26C77.8548 57.8333 77.7348 58.3333 77.4948 58.76C77.2614 59.18 76.9348 59.5033 76.5148 59.73C76.1014 59.9567 75.6314 60.07 75.1048 60.07C74.5781 60.07 74.1048 59.9567 73.6848 59.73C73.2714 59.5033 72.9448 59.18 72.7048 58.76C72.4648 58.3333 72.3448 57.8333 72.3448 57.26C72.3448 56.6867 72.4648 56.1867 72.7048 55.76C72.9448 55.3333 73.2714 55.0067 73.6848 54.78C74.1048 54.5533 74.5781 54.44 75.1048 54.44ZM75.1048 55.24C74.7781 55.24 74.4748 55.3133 74.1948 55.46C73.9214 55.6067 73.6981 55.8333 73.5248 56.14C73.3581 56.44 73.2748 56.8133 73.2748 57.26C73.2748 57.7 73.3581 58.0733 73.5248 58.38C73.6981 58.68 73.9214 58.9033 74.1948 59.05C74.4748 59.1967 74.7781 59.27 75.1048 59.27C75.4314 59.27 75.7314 59.1967 76.0048 59.05C76.2848 58.9033 76.5081 58.68 76.6748 58.38C76.8481 58.0733 76.9348 57.7 76.9348 57.26C76.9348 56.8133 76.8481 56.44 76.6748 56.14C76.5081 55.8333 76.2848 55.6067 76.0048 55.46C75.7314 55.3133 75.4314 55.24 75.1048 55.24ZM84.0013 54.44C84.5279 54.44 84.9979 54.5533 85.4113 54.78C85.8313 55.0067 86.1579 55.3333 86.3913 55.76C86.6313 56.1867 86.7513 56.6867 86.7513 57.26C86.7513 57.8333 86.6313 58.3333 86.3913 58.76C86.1579 59.18 85.8313 59.5033 85.4113 59.73C84.9979 59.9567 84.5279 60.07 84.0013 60.07C83.4746 60.07 83.0013 59.9567 82.5813 59.73C82.1679 59.5033 81.8413 59.18 81.6013 58.76C81.3613 58.3333 81.2413 57.8333 81.2413 57.26C81.2413 56.6867 81.3613 56.1867 81.6013 55.76C81.8413 55.3333 82.1679 55.0067 82.5813 54.78C83.0013 54.5533 83.4746 54.44 84.0013 54.44ZM84.0013 55.24C83.6746 55.24 83.3713 55.3133 83.0913 55.46C82.8179 55.6067 82.5946 55.8333 82.4213 56.14C82.2546 56.44 82.1713 56.8133 82.1713 57.26C82.1713 57.7 82.2546 58.0733 82.4213 58.38C82.5946 58.68 82.8179 58.9033 83.0913 59.05C83.3713 59.1967 83.6746 59.27 84.0013 59.27C84.3279 59.27 84.6279 59.1967 84.9013 59.05C85.1813 58.9033 85.4046 58.68 85.5713 58.38C85.7446 58.0733 85.8312 57.7 85.8312 57.26C85.8312 56.8133 85.7446 56.44 85.5713 56.14C85.4046 55.8333 85.1813 55.6067 84.9013 55.46C84.6279 55.3133 84.3279 55.24 84.0013 55.24ZM90.967 54.44C91.4537 54.44 91.887 54.5533 92.267 54.78C92.647 55.0067 92.9437 55.3333 93.157 55.76C93.377 56.1867 93.487 56.6867 93.487 57.26C93.487 57.8333 93.377 58.3333 93.157 58.76C92.9437 59.18 92.647 59.5033 92.267 59.73C91.887 59.9567 91.4537 60.07 90.967 60.07C90.4337 60.07 89.9804 59.9367 89.607 59.67C89.2404 59.3967 88.987 59.04 88.847 58.6V62.6H87.937V54.51H88.847V55.91C88.987 55.47 89.2404 55.1167 89.607 54.85C89.9804 54.5767 90.4337 54.44 90.967 54.44ZM90.707 55.25C90.3537 55.25 90.0337 55.3333 89.747 55.5C89.4604 55.66 89.237 55.8933 89.077 56.2C88.917 56.5067 88.837 56.86 88.837 57.26C88.837 57.66 88.917 58.0133 89.077 58.32C89.237 58.62 89.4604 58.8533 89.747 59.02C90.0337 59.1867 90.3537 59.27 90.707 59.27C91.2737 59.27 91.7237 59.0933 92.057 58.74C92.397 58.38 92.567 57.8867 92.567 57.26C92.567 56.6333 92.397 56.1433 92.057 55.79C91.7237 55.43 91.2737 55.25 90.707 55.25ZM99.7253 56.95C99.7253 57.1433 99.712 57.31 99.6853 57.45H95.2953C95.3153 58.0767 95.492 58.5467 95.8253 58.86C96.1653 59.1733 96.5786 59.33 97.0653 59.33C97.5053 59.33 97.872 59.22 98.1653 59C98.4653 58.7733 98.6486 58.4733 98.7153 58.1H99.6853C99.6186 58.48 99.4686 58.82 99.2353 59.12C99.0086 59.42 98.712 59.6533 98.3453 59.82C97.9786 59.9867 97.5653 60.07 97.1053 60.07C96.5786 60.07 96.112 59.9567 95.7053 59.73C95.2986 59.5033 94.9786 59.18 94.7453 58.76C94.5186 58.3333 94.4053 57.8333 94.4053 57.26C94.4053 56.6867 94.5186 56.1867 94.7453 55.76C94.9786 55.3333 95.2986 55.0067 95.7053 54.78C96.112 54.5533 96.5786 54.44 97.1053 54.44C97.6386 54.44 98.102 54.5533 98.4953 54.78C98.8953 55.0067 99.1986 55.31 99.4053 55.69C99.6186 56.07 99.7253 56.49 99.7253 56.95ZM98.8053 57.01C98.8253 56.6033 98.7586 56.2633 98.6053 55.99C98.452 55.7167 98.242 55.5133 97.9753 55.38C97.7086 55.2467 97.4186 55.18 97.1053 55.18C96.6053 55.18 96.1853 55.3367 95.8453 55.65C95.5053 55.9567 95.322 56.41 95.2953 57.01H98.8053ZM103.806 54.42C104.446 54.42 104.962 54.6267 105.356 55.04C105.749 55.4467 105.946 56.0367 105.946 56.81V60H105.036V56.89C105.036 56.3433 104.896 55.9233 104.616 55.63C104.336 55.3367 103.956 55.19 103.476 55.19C102.976 55.19 102.576 55.3533 102.276 55.68C101.976 56 101.826 56.47 101.826 57.09V60H100.916V54.51H101.826V55.81C101.966 55.3633 102.212 55.02 102.566 54.78C102.926 54.54 103.339 54.42 103.806 54.42ZM112.432 59.2V60H111.752C111.192 60 110.772 59.8667 110.492 59.6C110.219 59.3333 110.082 58.8867 110.082 58.26V55.3H109.262V54.51H110.082V53.14H111.002V54.51H112.422V55.3H111.002V58.28C111.002 58.6333 111.065 58.8767 111.192 59.01C111.325 59.1367 111.552 59.2 111.872 59.2H112.432ZM116.433 54.42C117.073 54.42 117.589 54.6267 117.983 55.04C118.376 55.4467 118.573 56.0367 118.573 56.81V60H117.663V56.89C117.663 56.3433 117.523 55.9233 117.243 55.63C116.963 55.3367 116.583 55.19 116.103 55.19C115.603 55.19 115.203 55.3533 114.903 55.68C114.603 56 114.453 56.47 114.453 57.09V60H113.543V52.6H114.453V55.81C114.593 55.3633 114.839 55.02 115.193 54.78C115.553 54.54 115.966 54.42 116.433 54.42ZM125.018 56.95C125.018 57.1433 125.005 57.31 124.978 57.45H120.588C120.608 58.0767 120.785 58.5467 121.118 58.86C121.458 59.1733 121.872 59.33 122.358 59.33C122.798 59.33 123.165 59.22 123.458 59C123.758 58.7733 123.942 58.4733 124.008 58.1H124.978C124.912 58.48 124.762 58.82 124.528 59.12C124.302 59.42 124.005 59.6533 123.638 59.82C123.272 59.9867 122.858 60.07 122.398 60.07C121.872 60.07 121.405 59.9567 120.998 59.73C120.592 59.5033 120.272 59.18 120.038 58.76C119.812 58.3333 119.698 57.8333 119.698 57.26C119.698 56.6867 119.812 56.1867 120.038 55.76C120.272 55.3333 120.592 55.0067 120.998 54.78C121.405 54.5533 121.872 54.44 122.398 54.44C122.932 54.44 123.395 54.5533 123.788 54.78C124.188 55.0067 124.492 55.31 124.698 55.69C124.912 56.07 125.018 56.49 125.018 56.95ZM124.098 57.01C124.118 56.6033 124.052 56.2633 123.898 55.99C123.745 55.7167 123.535 55.5133 123.268 55.38C123.002 55.2467 122.712 55.18 122.398 55.18C121.898 55.18 121.478 55.3367 121.138 55.65C120.798 55.9567 120.615 56.41 120.588 57.01H124.098ZM133.139 58.17C133.139 58.5033 133.059 58.8133 132.899 59.1C132.739 59.3867 132.496 59.62 132.169 59.8C131.843 59.98 131.439 60.07 130.959 60.07C130.493 60.07 130.076 59.9867 129.709 59.82C129.349 59.6467 129.059 59.4133 128.839 59.12C128.626 58.82 128.503 58.48 128.469 58.1H129.439C129.459 58.3 129.526 58.4967 129.639 58.69C129.759 58.8767 129.926 59.0333 130.139 59.16C130.359 59.28 130.623 59.34 130.929 59.34C131.329 59.34 131.636 59.2333 131.849 59.02C132.063 58.8067 132.169 58.5333 132.169 58.2C132.169 57.9133 132.093 57.68 131.939 57.5C131.793 57.32 131.609 57.18 131.389 57.08C131.169 56.9733 130.869 56.86 130.489 56.74C130.043 56.5933 129.683 56.4567 129.409 56.33C129.143 56.1967 128.913 56 128.719 55.74C128.533 55.48 128.439 55.1367 128.439 54.71C128.439 54.3433 128.526 54.02 128.699 53.74C128.879 53.46 129.133 53.2433 129.459 53.09C129.793 52.9367 130.183 52.86 130.629 52.86C131.323 52.86 131.873 53.03 132.279 53.37C132.686 53.7033 132.923 54.13 132.989 54.65H132.009C131.956 54.37 131.813 54.1233 131.579 53.91C131.346 53.6967 131.029 53.59 130.629 53.59C130.263 53.59 129.969 53.6867 129.749 53.88C129.529 54.0667 129.419 54.3333 129.419 54.68C129.419 54.9533 129.489 55.1767 129.629 55.35C129.776 55.5167 129.956 55.65 130.169 55.75C130.383 55.8433 130.676 55.95 131.049 56.07C131.503 56.2167 131.866 56.3567 132.139 56.49C132.419 56.6233 132.656 56.8267 132.849 57.1C133.043 57.3667 133.139 57.7233 133.139 58.17ZM141.113 54.42C141.753 54.42 142.266 54.6267 142.653 55.04C143.046 55.4467 143.243 56.0367 143.243 56.81V60H142.333V56.89C142.333 56.35 142.199 55.9367 141.933 55.65C141.673 55.3633 141.313 55.22 140.853 55.22C140.373 55.22 139.986 55.38 139.693 55.7C139.406 56.0133 139.263 56.4767 139.263 57.09V60H138.353V56.89C138.353 56.35 138.219 55.9367 137.953 55.65C137.686 55.3633 137.326 55.22 136.873 55.22C136.386 55.22 135.996 55.38 135.703 55.7C135.416 56.0133 135.273 56.4767 135.273 57.09V60H134.363V54.51H135.273V55.76C135.406 55.3267 135.643 54.9967 135.983 54.77C136.329 54.5367 136.726 54.42 137.173 54.42C137.639 54.42 138.043 54.54 138.383 54.78C138.729 55.0133 138.976 55.36 139.123 55.82C139.276 55.3733 139.533 55.03 139.893 54.79C140.253 54.5433 140.659 54.42 141.113 54.42ZM146.906 54.44C147.439 54.44 147.889 54.5733 148.256 54.84C148.629 55.1067 148.889 55.4633 149.036 55.91V54.51H149.946V60H149.036V58.6C148.889 59.0467 148.629 59.4033 148.256 59.67C147.889 59.9367 147.439 60.07 146.906 60.07C146.419 60.07 145.986 59.9567 145.606 59.73C145.226 59.5033 144.926 59.18 144.706 58.76C144.492 58.3333 144.386 57.8333 144.386 57.26C144.386 56.6867 144.492 56.1867 144.706 55.76C144.926 55.3333 145.226 55.0067 145.606 54.78C145.986 54.5533 146.419 54.44 146.906 54.44ZM147.166 55.25C146.606 55.25 146.156 55.43 145.816 55.79C145.482 56.1433 145.316 56.6333 145.316 57.26C145.316 57.8867 145.482 58.38 145.816 58.74C146.156 59.0933 146.606 59.27 147.166 59.27C147.526 59.27 147.846 59.1867 148.126 59.02C148.412 58.8533 148.636 58.62 148.796 58.32C148.956 58.0133 149.036 57.66 149.036 57.26C149.036 56.86 148.956 56.5067 148.796 56.2C148.636 55.8933 148.412 55.66 148.126 55.5C147.846 55.3333 147.526 55.25 147.166 55.25ZM152.304 55.62C152.484 55.24 152.747 54.9467 153.094 54.74C153.441 54.5267 153.854 54.42 154.334 54.42V55.41H154.054C153.541 55.41 153.121 55.5433 152.794 55.81C152.467 56.07 152.304 56.5033 152.304 57.11V60H151.394V54.51H152.304V55.62ZM157.852 59.2V60H157.172C156.612 60 156.192 59.8667 155.912 59.6C155.639 59.3333 155.502 58.8867 155.502 58.26V55.3H154.682V54.51H155.502V53.14H156.422V54.51H157.842V55.3H156.422V58.28C156.422 58.6333 156.485 58.8767 156.612 59.01C156.745 59.1367 156.972 59.2 157.292 59.2H157.852ZM164.372 52.95V60H163.452V56.74H159.872V60H158.962V52.95H159.872V56H163.452V52.95H164.372ZM171.498 61.37L170.078 59.94C169.744 60.0333 169.404 60.08 169.058 60.08C168.404 60.08 167.811 59.9267 167.278 59.62C166.751 59.3133 166.338 58.8867 166.038 58.34C165.738 57.7867 165.588 57.1633 165.588 56.47C165.588 55.7767 165.738 55.1567 166.038 54.61C166.338 54.0567 166.751 53.6267 167.278 53.32C167.811 53.0133 168.404 52.86 169.058 52.86C169.711 52.86 170.298 53.0133 170.818 53.32C171.344 53.6267 171.758 54.0567 172.058 54.61C172.358 55.1567 172.508 55.7767 172.508 56.47C172.508 57.17 172.358 57.7967 172.058 58.35C171.758 58.8967 171.344 59.32 170.818 59.62L172.648 61.37H171.498ZM166.528 56.47C166.528 57.0233 166.634 57.51 166.848 57.93C167.068 58.35 167.368 58.6733 167.748 58.9C168.134 59.12 168.571 59.23 169.058 59.23C169.538 59.23 169.968 59.1167 170.348 58.89C170.734 58.6633 171.034 58.3433 171.248 57.93C171.468 57.51 171.578 57.0233 171.578 56.47C171.578 55.91 171.468 55.4233 171.248 55.01C171.034 54.59 170.734 54.27 170.348 54.05C169.968 53.8233 169.538 53.71 169.058 53.71C168.571 53.71 168.134 53.8233 167.748 54.05C167.368 54.27 167.068 54.59 166.848 55.01C166.634 55.4233 166.528 55.91 166.528 56.47ZM178.459 54.44C178.992 54.44 179.442 54.5733 179.809 54.84C180.182 55.1067 180.442 55.4633 180.589 55.91V54.51H181.499V60H180.589V58.6C180.442 59.0467 180.182 59.4033 179.809 59.67C179.442 59.9367 178.992 60.07 178.459 60.07C177.972 60.07 177.539 59.9567 177.159 59.73C176.779 59.5033 176.479 59.18 176.259 58.76C176.045 58.3333 175.939 57.8333 175.939 57.26C175.939 56.6867 176.045 56.1867 176.259 55.76C176.479 55.3333 176.779 55.0067 177.159 54.78C177.539 54.5533 177.972 54.44 178.459 54.44ZM178.719 55.25C178.159 55.25 177.709 55.43 177.369 55.79C177.035 56.1433 176.869 56.6333 176.869 57.26C176.869 57.8867 177.035 58.38 177.369 58.74C177.709 59.0933 178.159 59.27 178.719 59.27C179.079 59.27 179.399 59.1867 179.679 59.02C179.965 58.8533 180.189 58.62 180.349 58.32C180.509 58.0133 180.589 57.66 180.589 57.26C180.589 56.86 180.509 56.5067 180.349 56.2C180.189 55.8933 179.965 55.66 179.679 55.5C179.399 55.3333 179.079 55.25 178.719 55.25ZM185.977 54.44C186.463 54.44 186.897 54.5533 187.277 54.78C187.657 55.0067 187.953 55.3333 188.167 55.76C188.387 56.1867 188.497 56.6867 188.497 57.26C188.497 57.8333 188.387 58.3333 188.167 58.76C187.953 59.18 187.657 59.5033 187.277 59.73C186.897 59.9567 186.463 60.07 185.977 60.07C185.443 60.07 184.99 59.9367 184.617 59.67C184.25 59.3967 183.997 59.04 183.857 58.6V62.6H182.947V54.51H183.857V55.91C183.997 55.47 184.25 55.1167 184.617 54.85C184.99 54.5767 185.443 54.44 185.977 54.44ZM185.717 55.25C185.363 55.25 185.043 55.3333 184.757 55.5C184.47 55.66 184.247 55.8933 184.087 56.2C183.927 56.5067 183.847 56.86 183.847 57.26C183.847 57.66 183.927 58.0133 184.087 58.32C184.247 58.62 184.47 58.8533 184.757 59.02C185.043 59.1867 185.363 59.27 185.717 59.27C186.283 59.27 186.733 59.0933 187.067 58.74C187.407 58.38 187.577 57.8867 187.577 57.26C187.577 56.6333 187.407 56.1433 187.067 55.79C186.733 55.43 186.283 55.25 185.717 55.25ZM192.715 54.44C193.202 54.44 193.635 54.5533 194.015 54.78C194.395 55.0067 194.692 55.3333 194.905 55.76C195.125 56.1867 195.235 56.6867 195.235 57.26C195.235 57.8333 195.125 58.3333 194.905 58.76C194.692 59.18 194.395 59.5033 194.015 59.73C193.635 59.9567 193.202 60.07 192.715 60.07C192.182 60.07 191.728 59.9367 191.355 59.67C190.988 59.3967 190.735 59.04 190.595 58.6V62.6H189.685V54.51H190.595V55.91C190.735 55.47 190.988 55.1167 191.355 54.85C191.728 54.5767 192.182 54.44 192.715 54.44ZM192.455 55.25C192.102 55.25 191.782 55.3333 191.495 55.5C191.208 55.66 190.985 55.8933 190.825 56.2C190.665 56.5067 190.585 56.86 190.585 57.26C190.585 57.66 190.665 58.0133 190.825 58.32C190.985 58.62 191.208 58.8533 191.495 59.02C191.782 59.1867 192.102 59.27 192.455 59.27C193.022 59.27 193.472 59.0933 193.805 58.74C194.145 58.38 194.315 57.8867 194.315 57.26C194.315 56.6333 194.145 56.1433 193.805 55.79C193.472 55.43 193.022 55.25 192.455 55.25ZM201.144 54.44C201.677 54.44 202.127 54.5733 202.494 54.84C202.867 55.1067 203.127 55.4633 203.274 55.91V54.51H204.184V60H203.274V58.6C203.127 59.0467 202.867 59.4033 202.494 59.67C202.127 59.9367 201.677 60.07 201.144 60.07C200.657 60.07 200.224 59.9567 199.844 59.73C199.464 59.5033 199.164 59.18 198.944 58.76C198.731 58.3333 198.624 57.8333 198.624 57.26C198.624 56.6867 198.731 56.1867 198.944 55.76C199.164 55.3333 199.464 55.0067 199.844 54.78C200.224 54.5533 200.657 54.44 201.144 54.44ZM201.404 55.25C200.844 55.25 200.394 55.43 200.054 55.79C199.721 56.1433 199.554 56.6333 199.554 57.26C199.554 57.8867 199.721 58.38 200.054 58.74C200.394 59.0933 200.844 59.27 201.404 59.27C201.764 59.27 202.084 59.1867 202.364 59.02C202.651 58.8533 202.874 58.62 203.034 58.32C203.194 58.0133 203.274 57.66 203.274 57.26C203.274 56.86 203.194 56.5067 203.034 56.2C202.874 55.8933 202.651 55.66 202.364 55.5C202.084 55.3333 201.764 55.25 201.404 55.25ZM208.522 54.42C209.162 54.42 209.679 54.6267 210.072 55.04C210.466 55.4467 210.662 56.0367 210.662 56.81V60H209.752V56.89C209.752 56.3433 209.612 55.9233 209.332 55.63C209.052 55.3367 208.672 55.19 208.192 55.19C207.692 55.19 207.292 55.3533 206.992 55.68C206.692 56 206.542 56.47 206.542 57.09V60H205.632V54.51H206.542V55.81C206.682 55.3633 206.929 55.02 207.282 54.78C207.642 54.54 208.056 54.42 208.522 54.42ZM214.308 54.44C214.841 54.44 215.291 54.5733 215.658 54.84C216.031 55.1067 216.291 55.4633 216.438 55.91V52.6H217.348V60H216.438V58.6C216.291 59.0467 216.031 59.4033 215.658 59.67C215.291 59.9367 214.841 60.07 214.308 60.07C213.821 60.07 213.388 59.9567 213.008 59.73C212.628 59.5033 212.328 59.18 212.108 58.76C211.895 58.3333 211.788 57.8333 211.788 57.26C211.788 56.6867 211.895 56.1867 212.108 55.76C212.328 55.3333 212.628 55.0067 213.008 54.78C213.388 54.5533 213.821 54.44 214.308 54.44ZM214.568 55.25C214.008 55.25 213.558 55.43 213.218 55.79C212.885 56.1433 212.718 56.6333 212.718 57.26C212.718 57.8867 212.885 58.38 213.218 58.74C213.558 59.0933 214.008 59.27 214.568 59.27C214.928 59.27 215.248 59.1867 215.528 59.02C215.815 58.8533 216.038 58.62 216.198 58.32C216.358 58.0133 216.438 57.66 216.438 57.26C216.438 56.86 216.358 56.5067 216.198 56.2C216.038 55.8933 215.815 55.66 215.528 55.5C215.248 55.3333 214.928 55.25 214.568 55.25ZM223.517 54.44C224.05 54.44 224.5 54.5733 224.867 54.84C225.24 55.1067 225.5 55.4633 225.647 55.91V54.51H226.557V60H225.647V58.6C225.5 59.0467 225.24 59.4033 224.867 59.67C224.5 59.9367 224.05 60.07 223.517 60.07C223.03 60.07 222.597 59.9567 222.217 59.73C221.837 59.5033 221.537 59.18 221.317 58.76C221.104 58.3333 220.997 57.8333 220.997 57.26C220.997 56.6867 221.104 56.1867 221.317 55.76C221.537 55.3333 221.837 55.0067 222.217 54.78C222.597 54.5533 223.03 54.44 223.517 54.44ZM223.777 55.25C223.217 55.25 222.767 55.43 222.427 55.79C222.094 56.1433 221.927 56.6333 221.927 57.26C221.927 57.8867 222.094 58.38 222.427 58.74C222.767 59.0933 223.217 59.27 223.777 59.27C224.137 59.27 224.457 59.1867 224.737 59.02C225.024 58.8533 225.247 58.62 225.407 58.32C225.567 58.0133 225.647 57.66 225.647 57.26C225.647 56.86 225.567 56.5067 225.407 56.2C225.247 55.8933 225.024 55.66 224.737 55.5C224.457 55.3333 224.137 55.25 223.777 55.25ZM230.255 54.44C230.789 54.44 231.239 54.5733 231.605 54.84C231.979 55.1067 232.239 55.4633 232.385 55.91V52.6H233.295V60H232.385V58.6C232.239 59.0467 231.979 59.4033 231.605 59.67C231.239 59.9367 230.789 60.07 230.255 60.07C229.769 60.07 229.335 59.9567 228.955 59.73C228.575 59.5033 228.275 59.18 228.055 58.76C227.842 58.3333 227.735 57.8333 227.735 57.26C227.735 56.6867 227.842 56.1867 228.055 55.76C228.275 55.3333 228.575 55.0067 228.955 54.78C229.335 54.5533 229.769 54.44 230.255 54.44ZM230.515 55.25C229.955 55.25 229.505 55.43 229.165 55.79C228.832 56.1433 228.665 56.6333 228.665 57.26C228.665 57.8867 228.832 58.38 229.165 58.74C229.505 59.0933 229.955 59.27 230.515 59.27C230.875 59.27 231.195 59.1867 231.475 59.02C231.762 58.8533 231.985 58.62 232.145 58.32C232.305 58.0133 232.385 57.66 232.385 57.26C232.385 56.86 232.305 56.5067 232.145 56.2C231.985 55.8933 231.762 55.66 231.475 55.5C231.195 55.3333 230.875 55.25 230.515 55.25ZM236.994 54.44C237.527 54.44 237.977 54.5733 238.344 54.84C238.717 55.1067 238.977 55.4633 239.124 55.91V52.6H240.034V60H239.124V58.6C238.977 59.0467 238.717 59.4033 238.344 59.67C237.977 59.9367 237.527 60.07 236.994 60.07C236.507 60.07 236.074 59.9567 235.694 59.73C235.314 59.5033 235.014 59.18 234.794 58.76C234.58 58.3333 234.474 57.8333 234.474 57.26C234.474 56.6867 234.58 56.1867 234.794 55.76C235.014 55.3333 235.314 55.0067 235.694 54.78C236.074 54.5533 236.507 54.44 236.994 54.44ZM237.254 55.25C236.694 55.25 236.244 55.43 235.904 55.79C235.57 56.1433 235.404 56.6333 235.404 57.26C235.404 57.8867 235.57 58.38 235.904 58.74C236.244 59.0933 236.694 59.27 237.254 59.27C237.614 59.27 237.934 59.1867 238.214 59.02C238.5 58.8533 238.724 58.62 238.884 58.32C239.044 58.0133 239.124 57.66 239.124 57.26C239.124 56.86 239.044 56.5067 238.884 56.2C238.724 55.8933 238.5 55.66 238.214 55.5C237.934 55.3333 237.614 55.25 237.254 55.25ZM244.333 54.51L246.113 58.83L247.763 54.51H248.773L245.513 62.6H244.483L245.623 59.91L243.313 54.51H244.333ZM252.097 54.44C252.624 54.44 253.094 54.5533 253.507 54.78C253.927 55.0067 254.254 55.3333 254.487 55.76C254.727 56.1867 254.847 56.6867 254.847 57.26C254.847 57.8333 254.727 58.3333 254.487 58.76C254.254 59.18 253.927 59.5033 253.507 59.73C253.094 59.9567 252.624 60.07 252.097 60.07C251.57 60.07 251.097 59.9567 250.677 59.73C250.264 59.5033 249.937 59.18 249.697 58.76C249.457 58.3333 249.337 57.8333 249.337 57.26C249.337 56.6867 249.457 56.1867 249.697 55.76C249.937 55.3333 250.264 55.0067 250.677 54.78C251.097 54.5533 251.57 54.44 252.097 54.44ZM252.097 55.24C251.77 55.24 251.467 55.3133 251.187 55.46C250.914 55.6067 250.69 55.8333 250.517 56.14C250.35 56.44 250.267 56.8133 250.267 57.26C250.267 57.7 250.35 58.0733 250.517 58.38C250.69 58.68 250.914 58.9033 251.187 59.05C251.467 59.1967 251.77 59.27 252.097 59.27C252.424 59.27 252.724 59.1967 252.997 59.05C253.277 58.9033 253.5 58.68 253.667 58.38C253.84 58.0733 253.927 57.7 253.927 57.26C253.927 56.8133 253.84 56.44 253.667 56.14C253.5 55.8333 253.277 55.6067 252.997 55.46C252.724 55.3133 252.424 55.24 252.097 55.24ZM260.913 54.51V60H260.003V58.71C259.863 59.1567 259.613 59.5 259.253 59.74C258.899 59.9733 258.486 60.09 258.013 60.09C257.379 60.09 256.866 59.8867 256.473 59.48C256.079 59.0667 255.883 58.4767 255.883 57.71V54.51H256.793V57.62C256.793 58.1667 256.933 58.59 257.213 58.89C257.493 59.1833 257.873 59.33 258.353 59.33C258.853 59.33 259.253 59.17 259.553 58.85C259.853 58.5233 260.003 58.05 260.003 57.43V54.51H260.913ZM263.281 55.62C263.461 55.24 263.724 54.9467 264.071 54.74C264.417 54.5267 264.831 54.42 265.311 54.42V55.41H265.031C264.517 55.41 264.097 55.5433 263.771 55.81C263.444 56.07 263.281 56.5033 263.281 57.11V60H262.371V54.51H263.281V55.62ZM270.929 54.44C271.463 54.44 271.913 54.5733 272.279 54.84C272.653 55.1067 272.913 55.4633 273.059 55.91V54.51H273.969V60H273.059V58.6C272.913 59.0467 272.653 59.4033 272.279 59.67C271.913 59.9367 271.463 60.07 270.929 60.07C270.443 60.07 270.009 59.9567 269.629 59.73C269.249 59.5033 268.949 59.18 268.729 58.76C268.516 58.3333 268.409 57.8333 268.409 57.26C268.409 56.6867 268.516 56.1867 268.729 55.76C268.949 55.3333 269.249 55.0067 269.629 54.78C270.009 54.5533 270.443 54.44 270.929 54.44ZM271.189 55.25C270.629 55.25 270.179 55.43 269.839 55.79C269.506 56.1433 269.339 56.6333 269.339 57.26C269.339 57.8867 269.506 58.38 269.839 58.74C270.179 59.0933 270.629 59.27 271.189 59.27C271.549 59.27 271.869 59.1867 272.149 59.02C272.436 58.8533 272.659 58.62 272.819 58.32C272.979 58.0133 273.059 57.66 273.059 57.26C273.059 56.86 272.979 56.5067 272.819 56.2C272.659 55.8933 272.436 55.66 272.149 55.5C271.869 55.3333 271.549 55.25 271.189 55.25ZM278.448 54.44C278.934 54.44 279.368 54.5533 279.748 54.78C280.128 55.0067 280.424 55.3333 280.638 55.76C280.858 56.1867 280.968 56.6867 280.968 57.26C280.968 57.8333 280.858 58.3333 280.638 58.76C280.424 59.18 280.128 59.5033 279.748 59.73C279.368 59.9567 278.934 60.07 278.448 60.07C277.914 60.07 277.461 59.9367 277.088 59.67C276.721 59.3967 276.468 59.04 276.328 58.6V62.6H275.418V54.51H276.328V55.91C276.468 55.47 276.721 55.1167 277.088 54.85C277.461 54.5767 277.914 54.44 278.448 54.44ZM278.188 55.25C277.834 55.25 277.514 55.3333 277.228 55.5C276.941 55.66 276.718 55.8933 276.558 56.2C276.398 56.5067 276.318 56.86 276.318 57.26C276.318 57.66 276.398 58.0133 276.558 58.32C276.718 58.62 276.941 58.8533 277.228 59.02C277.514 59.1867 277.834 59.27 278.188 59.27C278.754 59.27 279.204 59.0933 279.538 58.74C279.878 58.38 280.048 57.8867 280.048 57.26C280.048 56.6333 279.878 56.1433 279.538 55.79C279.204 55.43 278.754 55.25 278.188 55.25ZM285.186 54.44C285.672 54.44 286.106 54.5533 286.486 54.78C286.866 55.0067 287.162 55.3333 287.376 55.76C287.596 56.1867 287.706 56.6867 287.706 57.26C287.706 57.8333 287.596 58.3333 287.376 58.76C287.162 59.18 286.866 59.5033 286.486 59.73C286.106 59.9567 285.672 60.07 285.186 60.07C284.652 60.07 284.199 59.9367 283.826 59.67C283.459 59.3967 283.206 59.04 283.066 58.6V62.6H282.156V54.51H283.066V55.91C283.206 55.47 283.459 55.1167 283.826 54.85C284.199 54.5767 284.652 54.44 285.186 54.44ZM284.926 55.25C284.572 55.25 284.252 55.3333 283.966 55.5C283.679 55.66 283.456 55.8933 283.296 56.2C283.136 56.5067 283.056 56.86 283.056 57.26C283.056 57.66 283.136 58.0133 283.296 58.32C283.456 58.62 283.679 58.8533 283.966 59.02C284.252 59.1867 284.572 59.27 284.926 59.27C285.492 59.27 285.942 59.0933 286.276 58.74C286.616 58.38 286.786 57.8867 286.786 57.26C286.786 56.6333 286.616 56.1433 286.276 55.79C285.942 55.43 285.492 55.25 284.926 55.25ZM289.804 52.6V60H288.894V52.6H289.804ZM291.107 52.9C291.107 52.7333 291.164 52.6 291.277 52.5C291.39 52.3933 291.54 52.34 291.727 52.34C291.914 52.34 292.064 52.3933 292.177 52.5C292.29 52.6 292.347 52.7333 292.347 52.9C292.347 53.0667 292.29 53.2033 292.177 53.31C292.064 53.41 291.914 53.46 291.727 53.46C291.54 53.46 291.39 53.41 291.277 53.31C291.164 53.2033 291.107 53.0667 291.107 52.9ZM292.177 54.51V60H291.267V54.51H292.177ZM295.89 54.44C296.423 54.44 296.873 54.5733 297.24 54.84C297.613 55.1067 297.873 55.4633 298.02 55.91V54.51H298.93V60H298.02V58.6C297.873 59.0467 297.613 59.4033 297.24 59.67C296.873 59.9367 296.423 60.07 295.89 60.07C295.403 60.07 294.97 59.9567 294.59 59.73C294.21 59.5033 293.91 59.18 293.69 58.76C293.477 58.3333 293.37 57.8333 293.37 57.26C293.37 56.6867 293.477 56.1867 293.69 55.76C293.91 55.3333 294.21 55.0067 294.59 54.78C294.97 54.5533 295.403 54.44 295.89 54.44ZM296.15 55.25C295.59 55.25 295.14 55.43 294.8 55.79C294.467 56.1433 294.3 56.6333 294.3 57.26C294.3 57.8867 294.467 58.38 294.8 58.74C295.14 59.0933 295.59 59.27 296.15 59.27C296.51 59.27 296.83 59.1867 297.11 59.02C297.397 58.8533 297.62 58.62 297.78 58.32C297.94 58.0133 298.02 57.66 298.02 57.26C298.02 56.86 297.94 56.5067 297.78 56.2C297.62 55.8933 297.397 55.66 297.11 55.5C296.83 55.3333 296.51 55.25 296.15 55.25ZM303.268 54.42C303.908 54.42 304.425 54.6267 304.818 55.04C305.212 55.4467 305.408 56.0367 305.408 56.81V60H304.498V56.89C304.498 56.3433 304.358 55.9233 304.078 55.63C303.798 55.3367 303.418 55.19 302.938 55.19C302.438 55.19 302.038 55.3533 301.738 55.68C301.438 56 301.288 56.47 301.288 57.09V60H300.378V54.51H301.288V55.81C301.428 55.3633 301.675 55.02 302.028 54.78C302.388 54.54 302.802 54.42 303.268 54.42ZM309.234 54.44C309.934 54.44 310.514 54.6267 310.974 55C311.434 55.3733 311.718 55.8733 311.824 56.5H310.864C310.798 56.1067 310.614 55.8 310.314 55.58C310.021 55.3533 309.654 55.24 309.214 55.24C308.894 55.24 308.601 55.3133 308.334 55.46C308.074 55.6067 307.864 55.8333 307.704 56.14C307.544 56.44 307.464 56.8133 307.464 57.26C307.464 57.7067 307.544 58.0833 307.704 58.39C307.864 58.69 308.074 58.9133 308.334 59.06C308.601 59.2067 308.894 59.28 309.214 59.28C309.654 59.28 310.021 59.1667 310.314 58.94C310.614 58.7133 310.798 58.4033 310.864 58.01H311.824C311.718 58.6433 311.434 59.1467 310.974 59.52C310.514 59.8867 309.934 60.07 309.234 60.07C308.708 60.07 308.241 59.9567 307.834 59.73C307.428 59.5033 307.108 59.18 306.874 58.76C306.648 58.3333 306.534 57.8333 306.534 57.26C306.534 56.6867 306.648 56.1867 306.874 55.76C307.108 55.3333 307.428 55.0067 307.834 54.78C308.241 54.5533 308.708 54.44 309.234 54.44ZM318.065 56.95C318.065 57.1433 318.052 57.31 318.025 57.45H313.635C313.655 58.0767 313.832 58.5467 314.165 58.86C314.505 59.1733 314.918 59.33 315.405 59.33C315.845 59.33 316.212 59.22 316.505 59C316.805 58.7733 316.988 58.4733 317.055 58.1H318.025C317.958 58.48 317.808 58.82 317.575 59.12C317.348 59.42 317.052 59.6533 316.685 59.82C316.318 59.9867 315.905 60.07 315.445 60.07C314.918 60.07 314.452 59.9567 314.045 59.73C313.638 59.5033 313.318 59.18 313.085 58.76C312.858 58.3333 312.745 57.8333 312.745 57.26C312.745 56.6867 312.858 56.1867 313.085 55.76C313.318 55.3333 313.638 55.0067 314.045 54.78C314.452 54.5533 314.918 54.44 315.445 54.44C315.978 54.44 316.442 54.5533 316.835 54.78C317.235 55.0067 317.538 55.31 317.745 55.69C317.958 56.07 318.065 56.49 318.065 56.95ZM317.145 57.01C317.165 56.6033 317.098 56.2633 316.945 55.99C316.792 55.7167 316.582 55.5133 316.315 55.38C316.048 55.2467 315.758 55.18 315.445 55.18C314.945 55.18 314.525 55.3367 314.185 55.65C313.845 55.9567 313.662 56.41 313.635 57.01H317.145ZM319.925 58.93V60H318.825V58.93H319.925Z" fill="white"/>
    <path d="M137.652 26.528L135.54 35H133.86L132.072 28.448L130.284 35H128.604L126.492 26.528H127.992L129.456 33.416L131.316 26.528H132.828L134.688 33.416L136.152 26.528H137.652ZM140.437 26.528V35H139.069V26.528H140.437ZM146.293 30.08V31.232H141.349V30.08H146.293ZM153.551 26.528V27.632H149.915V30.26H152.915V31.316H149.915V35H148.547V26.528H153.551ZM156.33 26.528V35H154.962V26.528H156.33ZM164.962 26.444C166.002 26.444 166.866 26.708 167.554 27.236C168.242 27.764 168.706 28.48 168.946 29.384H167.494C167.294 28.872 166.974 28.468 166.534 28.172C166.102 27.868 165.57 27.716 164.938 27.716C164.434 27.716 163.982 27.84 163.582 28.088C163.19 28.336 162.878 28.692 162.646 29.156C162.422 29.612 162.31 30.148 162.31 30.764C162.31 31.372 162.422 31.908 162.646 32.372C162.878 32.828 163.19 33.18 163.582 33.428C163.982 33.676 164.434 33.8 164.938 33.8C165.57 33.8 166.102 33.652 166.534 33.356C166.974 33.052 167.294 32.648 167.494 32.144H168.946C168.706 33.048 168.242 33.764 167.554 34.292C166.866 34.812 166.002 35.072 164.962 35.072C164.162 35.072 163.454 34.892 162.838 34.532C162.222 34.164 161.746 33.656 161.41 33.008C161.074 32.352 160.906 31.604 160.906 30.764C160.906 29.924 161.074 29.18 161.41 28.532C161.746 27.876 162.222 27.364 162.838 26.996C163.454 26.628 164.162 26.444 164.962 26.444ZM174.426 26.42C175.21 26.42 175.918 26.604 176.55 26.972C177.19 27.34 177.69 27.856 178.05 28.52C178.418 29.176 178.602 29.92 178.602 30.752C178.602 31.584 178.418 32.332 178.05 32.996C177.69 33.652 177.19 34.168 176.55 34.544C175.918 34.912 175.21 35.096 174.426 35.096C173.634 35.096 172.918 34.912 172.278 34.544C171.646 34.168 171.146 33.652 170.778 32.996C170.41 32.332 170.226 31.584 170.226 30.752C170.226 29.92 170.41 29.176 170.778 28.52C171.146 27.856 171.646 27.34 172.278 26.972C172.918 26.604 173.634 26.42 174.426 26.42ZM174.426 27.692C173.882 27.692 173.398 27.816 172.974 28.064C172.55 28.312 172.218 28.668 171.978 29.132C171.746 29.596 171.63 30.136 171.63 30.752C171.63 31.368 171.746 31.908 171.978 32.372C172.218 32.836 172.55 33.192 172.974 33.44C173.398 33.688 173.882 33.812 174.426 33.812C174.962 33.812 175.438 33.688 175.854 33.44C176.278 33.192 176.606 32.836 176.838 32.372C177.078 31.908 177.198 31.368 177.198 30.752C177.198 30.136 177.078 29.596 176.838 29.132C176.606 28.668 176.278 28.312 175.854 28.064C175.438 27.816 174.962 27.692 174.426 27.692ZM187.027 35H185.659L181.543 28.748V35H180.175V26.54H181.543L185.659 32.816V26.54H187.027V35ZM195.727 35H194.359L190.243 28.748V35H188.875V26.54H190.243L194.359 32.816V26.54H195.727V35ZM198.943 27.632V30.2H202.063V31.256H198.943V33.884H202.423V35H197.575V26.528H202.423V27.632H198.943ZM207.722 26.444C208.762 26.444 209.626 26.708 210.314 27.236C211.002 27.764 211.466 28.48 211.706 29.384H210.254C210.054 28.872 209.734 28.468 209.294 28.172C208.862 27.868 208.33 27.716 207.698 27.716C207.194 27.716 206.742 27.84 206.342 28.088C205.95 28.336 205.638 28.692 205.406 29.156C205.182 29.612 205.07 30.148 205.07 30.764C205.07 31.372 205.182 31.908 205.406 32.372C205.638 32.828 205.95 33.18 206.342 33.428C206.742 33.676 207.194 33.8 207.698 33.8C208.33 33.8 208.862 33.652 209.294 33.356C209.734 33.052 210.054 32.648 210.254 32.144H211.706C211.466 33.048 211.002 33.764 210.314 34.292C209.626 34.812 208.762 35.072 207.722 35.072C206.922 35.072 206.214 34.892 205.598 34.532C204.982 34.164 204.506 33.656 204.17 33.008C203.834 32.352 203.666 31.604 203.666 30.764C203.666 29.924 203.834 29.18 204.17 28.532C204.506 27.876 204.982 27.364 205.598 26.996C206.214 26.628 206.922 26.444 207.722 26.444ZM218.711 26.528V27.632H216.347V35H214.967V27.632H212.615V26.528H218.711Z" fill="white"/>
    <path d="M117.664 159L115.636 155.868L113.824 159H112.252L114.88 154.68L112.192 150.528H113.824L115.816 153.6L117.616 150.528H119.188L116.572 154.776L119.296 159H117.664ZM125.392 159L123.364 155.868L121.552 159H119.98L122.608 154.68L119.92 150.528H121.552L123.544 153.6L125.344 150.528H126.916L124.3 154.776L127.024 159H125.392ZM133.121 159L131.093 155.868L129.281 159H127.709L130.337 154.68L127.649 150.528H129.281L131.273 153.6L133.073 150.528H134.645L132.029 154.776L134.753 159H133.121ZM140.849 159L138.821 155.868L137.009 159H135.437L138.065 154.68L135.377 150.528H137.009L139.001 153.6L140.801 150.528H142.373L139.757 154.776L142.481 159H140.849ZM148.577 159L146.549 155.868L144.737 159H143.165L145.793 154.68L143.105 150.528H144.737L146.729 153.6L148.529 150.528H150.101L147.485 154.776L150.209 159H148.577ZM156.305 159L154.277 155.868L152.465 159H150.893L153.521 154.68L150.833 150.528H152.465L154.457 153.6L156.257 150.528H157.829L155.213 154.776L157.937 159H156.305ZM164.034 159L162.006 155.868L160.194 159H158.622L161.25 154.68L158.562 150.528H160.194L162.186 153.6L163.986 150.528H165.558L162.942 154.776L165.666 159H164.034ZM171.762 159L169.734 155.868L167.922 159H166.35L168.978 154.68L166.29 150.528H167.922L169.914 153.6L171.714 150.528H173.286L170.67 154.776L173.394 159H171.762Z" fill="white"/>
    <path opacity="0.25" d="M252.664 105L250.636 101.868L248.824 105H247.252L249.88 100.68L247.192 96.528H248.824L250.816 99.6L252.616 96.528H254.188L251.572 100.776L254.296 105H252.664ZM260.392 105L258.364 101.868L256.552 105H254.98L257.608 100.68L254.92 96.528H256.552L258.544 99.6L260.344 96.528H261.916L259.3 100.776L262.024 105H260.392ZM268.121 105L266.093 101.868L264.281 105H262.709L265.337 100.68L262.649 96.528H264.281L266.273 99.6L268.073 96.528H269.645L267.029 100.776L269.753 105H268.121ZM275.849 105L273.821 101.868L272.009 105H270.437L273.065 100.68L270.377 96.528H272.009L274.001 99.6L275.801 96.528H277.373L274.757 100.776L277.481 105H275.849ZM283.577 105L281.549 101.868L279.737 105H278.165L280.793 100.68L278.105 96.528H279.737L281.729 99.6L283.529 96.528H285.101L282.485 100.776L285.209 105H283.577ZM291.305 105L289.277 101.868L287.465 105H285.893L288.521 100.68L285.833 96.528H287.465L289.457 99.6L291.257 96.528H292.829L290.213 100.776L292.937 105H291.305ZM299.034 105L297.006 101.868L295.194 105H293.622L296.25 100.68L293.562 96.528H295.194L297.186 99.6L298.986 96.528H300.558L297.942 100.776L300.666 105H299.034ZM306.762 105L304.734 101.868L302.922 105H301.35L303.978 100.68L301.29 96.528H302.922L304.914 99.6L306.714 96.528H308.286L305.67 100.776L308.394 105H306.762Z" fill="white"/>
    <path opacity="0.25" d="M252.664 159L250.636 155.868L248.824 159H247.252L249.88 154.68L247.192 150.528H248.824L250.816 153.6L252.616 150.528H254.188L251.572 154.776L254.296 159H252.664ZM260.392 159L258.364 155.868L256.552 159H254.98L257.608 154.68L254.92 150.528H256.552L258.544 153.6L260.344 150.528H261.916L259.3 154.776L262.024 159H260.392ZM268.121 159L266.093 155.868L264.281 159H262.709L265.337 154.68L262.649 150.528H264.281L266.273 153.6L268.073 150.528H269.645L267.029 154.776L269.753 159H268.121ZM275.849 159L273.821 155.868L272.009 159H270.437L273.065 154.68L270.377 150.528H272.009L274.001 153.6L275.801 150.528H277.373L274.757 154.776L277.481 159H275.849ZM283.577 159L281.549 155.868L279.737 159H278.165L280.793 154.68L278.105 150.528H279.737L281.729 153.6L283.529 150.528H285.101L282.485 154.776L285.209 159H283.577ZM291.305 159L289.277 155.868L287.465 159H285.893L288.521 154.68L285.833 150.528H287.465L289.457 153.6L291.257 150.528H292.829L290.213 154.776L292.937 159H291.305ZM299.034 159L297.006 155.868L295.194 159H293.622L296.25 154.68L293.562 150.528H295.194L297.186 153.6L298.986 150.528H300.558L297.942 154.776L300.666 159H299.034ZM306.762 159L304.734 155.868L302.922 159H301.35L303.978 154.68L301.29 150.528H302.922L304.914 153.6L306.714 150.528H308.286L305.67 154.776L308.394 159H306.762Z" fill="white"/>
</svg>
