<svg width="24" height="24" viewBox="0 0 24 24" fill="none" xmlns="http://www.w3.org/2000/svg">
<mask id="mask0_4896_3452" style="mask-type:alpha" maskUnits="userSpaceOnUse" x="6" y="3" width="16" height="16">
<path fill-rule="evenodd" clip-rule="evenodd" d="M6.0625 3H21.0605V18.077H6.0625V3Z" fill="white"/>
</mask>
<g mask="url(#mask0_4896_3452)">
<path d="M9.55517 18.0702C9.45417 18.0902 9.36717 18.0692 9.31017 18.0122L6.12617 14.8182C6.00917 14.7002 6.05817 14.4612 6.23417 14.2842L17.3402 3.17221C17.4193 3.09149 17.5194 3.03436 17.6292 3.00721H17.6322C17.7342 2.98721 17.8222 3.00921 17.8772 3.06821L20.9972 6.33721C21.0552 6.39621 21.0752 6.49021 21.0492 6.59321C21.0182 6.70678 20.9554 6.80912 20.8682 6.88821C20.8135 6.93713 20.7602 6.98748 20.7082 7.03921C17.3222 10.4222 13.6712 14.0712 9.91817 17.8262L9.86717 17.8812C9.78849 17.9709 9.68523 18.0356 9.57017 18.0672L9.55517 18.0702Z" fill="#AFAFAF"/>
</g>
<path d="M3.30183 20.9996C3.20691 21.0041 3.1158 20.9618 3.05796 20.8864C3.00012 20.811 2.98289 20.7121 3.01183 20.6216L4.04783 16.9406C4.08885 16.7998 4.21439 16.7003 4.36083 16.6926C4.44162 16.6897 4.52006 16.72 4.57783 16.7766L7.28783 19.4846C7.36574 19.5659 7.39229 19.6837 7.35683 19.7906C7.32032 19.9017 7.22997 19.9868 7.11683 20.0166L3.37083 20.9896C3.34826 20.9954 3.32512 20.9988 3.30183 20.9996Z" fill="#AFAFAF"/>
</svg>
