<svg width="375" height="232" viewBox="0 0 375 232" fill="none" xmlns="http://www.w3.org/2000/svg">
<rect x="195.921" y="26.9214" width="139.157" height="138.157" rx="35.1237" stroke="white" stroke-width="1.84278"/>
<rect x="255.29" y="41.3799" width="20.067" height="15.4368" rx="1.90568" stroke="white" stroke-width="1.84278"/>
<rect x="43.9432" y="26.9432" width="99.6318" height="138.114" rx="36.0725" stroke="white" stroke-width="1.88649"/>
<rect x="81.6923" y="41.9696" width="23.768" height="18.2706" rx="2.35519" stroke="white" stroke-width="1.88649"/>
<path d="M57.3049 183.7V182.425H60.3349V193H58.8949V183.7H57.3049ZM63.5165 191.395V193H61.8665V191.395H63.5165ZM69.875 182.32C71.105 182.32 72.135 182.625 72.965 183.235C73.805 183.845 74.37 184.675 74.66 185.725H73.22C72.97 185.085 72.55 184.57 71.96 184.18C71.38 183.79 70.69 183.595 69.89 183.595C69.17 183.595 68.525 183.765 67.955 184.105C67.385 184.435 66.935 184.91 66.605 185.53C66.285 186.15 66.125 186.88 66.125 187.72C66.125 188.58 66.29 189.325 66.62 189.955C66.95 190.575 67.405 191.055 67.985 191.395C68.575 191.725 69.25 191.89 70.01 191.89C70.66 191.89 71.255 191.75 71.795 191.47C72.335 191.19 72.775 190.785 73.115 190.255C73.465 189.715 73.675 189.085 73.745 188.365H69.59V187.345H74.9V188.605C74.81 189.445 74.55 190.205 74.12 190.885C73.69 191.565 73.11 192.105 72.38 192.505C71.65 192.905 70.82 193.105 69.89 193.105C68.87 193.105 67.97 192.88 67.19 192.43C66.41 191.97 65.8 191.335 65.36 190.525C64.93 189.705 64.715 188.77 64.715 187.72C64.715 186.67 64.93 185.74 65.36 184.93C65.8 184.11 66.41 183.47 67.19 183.01C67.97 182.55 68.865 182.32 69.875 182.32ZM80.1248 184.66C80.9248 184.66 81.5998 184.86 82.1498 185.26C82.7098 185.66 83.0998 186.195 83.3198 186.865V184.765H84.6848V193H83.3198V190.9C83.0998 191.57 82.7098 192.105 82.1498 192.505C81.5998 192.905 80.9248 193.105 80.1248 193.105C79.3948 193.105 78.7448 192.935 78.1748 192.595C77.6048 192.255 77.1548 191.77 76.8248 191.14C76.5048 190.5 76.3448 189.75 76.3448 188.89C76.3448 188.03 76.5048 187.28 76.8248 186.64C77.1548 186 77.6048 185.51 78.1748 185.17C78.7448 184.83 79.3948 184.66 80.1248 184.66ZM80.5148 185.875C79.6748 185.875 78.9998 186.145 78.4898 186.685C77.9898 187.215 77.7398 187.95 77.7398 188.89C77.7398 189.83 77.9898 190.57 78.4898 191.11C78.9998 191.64 79.6748 191.905 80.5148 191.905C81.0548 191.905 81.5348 191.78 81.9548 191.53C82.3848 191.28 82.7198 190.93 82.9598 190.48C83.1998 190.02 83.3198 189.49 83.3198 188.89C83.3198 188.29 83.1998 187.76 82.9598 187.3C82.7198 186.84 82.3848 186.49 81.9548 186.25C81.5348 186 81.0548 185.875 80.5148 185.875ZM90.7872 191.8V193H89.7672C88.9272 193 88.2972 192.8 87.8772 192.4C87.4672 192 87.2622 191.33 87.2622 190.39V185.95H86.0322V184.765H87.2622V182.71H88.6422V184.765H90.7722V185.95H88.6422V190.42C88.6422 190.95 88.7372 191.315 88.9272 191.515C89.1272 191.705 89.4672 191.8 89.9472 191.8H90.7872ZM100.028 188.425C100.028 188.715 100.008 188.965 99.9679 189.175H93.3829C93.4129 190.115 93.6779 190.82 94.1779 191.29C94.6879 191.76 95.3079 191.995 96.0379 191.995C96.6979 191.995 97.2479 191.83 97.6879 191.5C98.1379 191.16 98.4129 190.71 98.5129 190.15H99.9679C99.8679 190.72 99.6429 191.23 99.2929 191.68C98.9529 192.13 98.5079 192.48 97.9579 192.73C97.4079 192.98 96.7879 193.105 96.0979 193.105C95.3079 193.105 94.6079 192.935 93.9979 192.595C93.3879 192.255 92.9079 191.77 92.5579 191.14C92.2179 190.5 92.0479 189.75 92.0479 188.89C92.0479 188.03 92.2179 187.28 92.5579 186.64C92.9079 186 93.3879 185.51 93.9979 185.17C94.6079 184.83 95.3079 184.66 96.0979 184.66C96.8979 184.66 97.5929 184.83 98.1829 185.17C98.7829 185.51 99.2379 185.965 99.5479 186.535C99.8679 187.105 100.028 187.735 100.028 188.425ZM98.6479 188.515C98.6779 187.905 98.5779 187.395 98.3479 186.985C98.1179 186.575 97.8029 186.27 97.4029 186.07C97.0029 185.87 96.5679 185.77 96.0979 185.77C95.3479 185.77 94.7179 186.005 94.2079 186.475C93.6979 186.935 93.4229 187.615 93.3829 188.515H98.6479ZM113.123 184.765L110.753 193H109.283L107.018 186.295L104.738 193H103.253L100.913 184.765H102.293L104.048 191.695L106.328 184.765H107.753L110.048 191.68L111.818 184.765H113.123ZM117.771 184.66C118.571 184.66 119.246 184.86 119.796 185.26C120.356 185.66 120.746 186.195 120.966 186.865V184.765H122.331V193H120.966V190.9C120.746 191.57 120.356 192.105 119.796 192.505C119.246 192.905 118.571 193.105 117.771 193.105C117.041 193.105 116.391 192.935 115.821 192.595C115.251 192.255 114.801 191.77 114.471 191.14C114.151 190.5 113.991 189.75 113.991 188.89C113.991 188.03 114.151 187.28 114.471 186.64C114.801 186 115.251 185.51 115.821 185.17C116.391 184.83 117.041 184.66 117.771 184.66ZM118.161 185.875C117.321 185.875 116.646 186.145 116.136 186.685C115.636 187.215 115.386 187.95 115.386 188.89C115.386 189.83 115.636 190.57 116.136 191.11C116.646 191.64 117.321 191.905 118.161 191.905C118.701 191.905 119.181 191.78 119.601 191.53C120.031 191.28 120.366 190.93 120.606 190.48C120.846 190.02 120.966 189.49 120.966 188.89C120.966 188.29 120.846 187.76 120.606 187.3C120.366 186.84 120.031 186.49 119.601 186.25C119.181 186 118.701 185.875 118.161 185.875ZM125.074 184.765L127.744 191.245L130.219 184.765H131.734L126.844 196.9H125.299L127.009 192.865L123.544 184.765H125.074Z" fill="white"/>
<path d="M231.884 191.95C233.584 190.81 234.944 189.68 235.964 188.56C236.984 187.43 237.494 186.38 237.494 185.41C237.494 184.81 237.339 184.33 237.029 183.97C236.729 183.6 236.239 183.415 235.559 183.415C234.859 183.415 234.329 183.64 233.969 184.09C233.609 184.53 233.409 185.14 233.369 185.92H232.019C232.089 184.74 232.454 183.835 233.114 183.205C233.774 182.565 234.624 182.245 235.664 182.245C236.654 182.245 237.439 182.51 238.019 183.04C238.599 183.57 238.889 184.32 238.889 185.29C238.889 186.09 238.629 186.905 238.109 187.735C237.599 188.555 236.954 189.32 236.174 190.03C235.404 190.73 234.609 191.325 233.789 191.815H239.159V192.94H231.884V191.95ZM241.865 191.395V193H240.215V191.395H241.865ZM250.113 190.255C250.113 190.755 249.993 191.22 249.753 191.65C249.513 192.08 249.148 192.43 248.658 192.7C248.168 192.97 247.563 193.105 246.843 193.105C246.143 193.105 245.518 192.98 244.968 192.73C244.428 192.47 243.993 192.12 243.663 191.68C243.343 191.23 243.158 190.72 243.108 190.15H244.563C244.593 190.45 244.693 190.745 244.863 191.035C245.043 191.315 245.293 191.55 245.613 191.74C245.943 191.92 246.338 192.01 246.798 192.01C247.398 192.01 247.858 191.85 248.178 191.53C248.498 191.21 248.658 190.8 248.658 190.3C248.658 189.87 248.543 189.52 248.313 189.25C248.093 188.98 247.818 188.77 247.488 188.62C247.158 188.46 246.708 188.29 246.138 188.11C245.468 187.89 244.928 187.685 244.518 187.495C244.118 187.295 243.773 187 243.483 186.61C243.203 186.22 243.063 185.705 243.063 185.065C243.063 184.515 243.193 184.03 243.453 183.61C243.723 183.19 244.103 182.865 244.593 182.635C245.093 182.405 245.678 182.29 246.348 182.29C247.388 182.29 248.213 182.545 248.823 183.055C249.433 183.555 249.788 184.195 249.888 184.975H248.418C248.338 184.555 248.123 184.185 247.773 183.865C247.423 183.545 246.948 183.385 246.348 183.385C245.798 183.385 245.358 183.53 245.028 183.82C244.698 184.1 244.533 184.5 244.533 185.02C244.533 185.43 244.638 185.765 244.848 186.025C245.068 186.275 245.338 186.475 245.658 186.625C245.978 186.765 246.418 186.925 246.978 187.105C247.658 187.325 248.203 187.535 248.613 187.735C249.033 187.935 249.388 188.24 249.678 188.65C249.968 189.05 250.113 189.585 250.113 190.255ZM259.524 188.425C259.524 188.715 259.504 188.965 259.464 189.175H252.879C252.909 190.115 253.174 190.82 253.674 191.29C254.184 191.76 254.804 191.995 255.534 191.995C256.194 191.995 256.744 191.83 257.184 191.5C257.634 191.16 257.909 190.71 258.009 190.15H259.464C259.364 190.72 259.139 191.23 258.789 191.68C258.449 192.13 258.004 192.48 257.454 192.73C256.904 192.98 256.284 193.105 255.594 193.105C254.804 193.105 254.104 192.935 253.494 192.595C252.884 192.255 252.404 191.77 252.054 191.14C251.714 190.5 251.544 189.75 251.544 188.89C251.544 188.03 251.714 187.28 252.054 186.64C252.404 186 252.884 185.51 253.494 185.17C254.104 184.83 254.804 184.66 255.594 184.66C256.394 184.66 257.089 184.83 257.679 185.17C258.279 185.51 258.734 185.965 259.044 186.535C259.364 187.105 259.524 187.735 259.524 188.425ZM258.144 188.515C258.174 187.905 258.074 187.395 257.844 186.985C257.614 186.575 257.299 186.27 256.899 186.07C256.499 185.87 256.064 185.77 255.594 185.77C254.844 185.77 254.214 186.005 253.704 186.475C253.194 186.935 252.919 187.615 252.879 188.515H258.144ZM265.644 184.63C266.604 184.63 267.379 184.94 267.969 185.56C268.559 186.17 268.854 187.055 268.854 188.215V193H267.489V188.335C267.489 187.515 267.279 186.885 266.859 186.445C266.439 186.005 265.869 185.785 265.149 185.785C264.399 185.785 263.799 186.03 263.349 186.52C262.899 187 262.674 187.705 262.674 188.635V193H261.309V184.765H262.674V186.715C262.884 186.045 263.254 185.53 263.784 185.17C264.324 184.81 264.944 184.63 265.644 184.63ZM273.528 184.66C274.458 184.66 275.203 184.905 275.763 185.395C276.333 185.875 276.678 186.525 276.798 187.345H275.493C275.433 186.855 275.228 186.455 274.878 186.145C274.538 185.825 274.078 185.665 273.498 185.665C273.008 185.665 272.623 185.785 272.343 186.025C272.073 186.255 271.938 186.57 271.938 186.97C271.938 187.27 272.028 187.515 272.208 187.705C272.398 187.885 272.628 188.025 272.898 188.125C273.178 188.215 273.558 188.315 274.038 188.425C274.648 188.565 275.138 188.71 275.508 188.86C275.888 189 276.208 189.23 276.468 189.55C276.738 189.87 276.873 190.3 276.873 190.84C276.873 191.51 276.618 192.055 276.108 192.475C275.608 192.895 274.938 193.105 274.098 193.105C273.118 193.105 272.318 192.87 271.698 192.4C271.078 191.93 270.713 191.275 270.603 190.435H271.923C271.973 190.935 272.188 191.34 272.568 191.65C272.958 191.96 273.468 192.115 274.098 192.115C274.568 192.115 274.933 191.995 275.193 191.755C275.463 191.515 275.598 191.2 275.598 190.81C275.598 190.49 275.503 190.235 275.313 190.045C275.123 189.855 274.888 189.71 274.608 189.61C274.328 189.51 273.943 189.405 273.453 189.295C272.843 189.155 272.353 189.015 271.983 188.875C271.623 188.735 271.313 188.515 271.053 188.215C270.803 187.905 270.678 187.49 270.678 186.97C270.678 186.28 270.933 185.725 271.443 185.305C271.953 184.875 272.648 184.66 273.528 184.66ZM282.432 184.66C283.222 184.66 283.927 184.83 284.547 185.17C285.177 185.51 285.667 186 286.017 186.64C286.377 187.28 286.557 188.03 286.557 188.89C286.557 189.75 286.377 190.5 286.017 191.14C285.667 191.77 285.177 192.255 284.547 192.595C283.927 192.935 283.222 193.105 282.432 193.105C281.642 193.105 280.932 192.935 280.302 192.595C279.682 192.255 279.192 191.77 278.832 191.14C278.472 190.5 278.292 189.75 278.292 188.89C278.292 188.03 278.472 187.28 278.832 186.64C279.192 186 279.682 185.51 280.302 185.17C280.932 184.83 281.642 184.66 282.432 184.66ZM282.432 185.86C281.942 185.86 281.487 185.97 281.067 186.19C280.657 186.41 280.322 186.75 280.062 187.21C279.812 187.66 279.687 188.22 279.687 188.89C279.687 189.55 279.812 190.11 280.062 190.57C280.322 191.02 280.657 191.355 281.067 191.575C281.487 191.795 281.942 191.905 282.432 191.905C282.922 191.905 283.372 191.795 283.782 191.575C284.202 191.355 284.537 191.02 284.787 190.57C285.047 190.11 285.177 189.55 285.177 188.89C285.177 188.22 285.047 187.66 284.787 187.21C284.537 186.75 284.202 186.41 283.782 186.19C283.372 185.97 282.922 185.86 282.432 185.86ZM289.7 186.43C289.97 185.86 290.365 185.42 290.885 185.11C291.405 184.79 292.025 184.63 292.745 184.63V186.115H292.325C291.555 186.115 290.925 186.315 290.435 186.715C289.945 187.105 289.7 187.755 289.7 188.665V193H288.335V184.765H289.7V186.43ZM296.672 184.66C297.602 184.66 298.347 184.905 298.907 185.395C299.477 185.875 299.822 186.525 299.942 187.345H298.637C298.577 186.855 298.372 186.455 298.022 186.145C297.682 185.825 297.222 185.665 296.642 185.665C296.152 185.665 295.767 185.785 295.487 186.025C295.217 186.255 295.082 186.57 295.082 186.97C295.082 187.27 295.172 187.515 295.352 187.705C295.542 187.885 295.772 188.025 296.042 188.125C296.322 188.215 296.702 188.315 297.182 188.425C297.792 188.565 298.282 188.71 298.652 188.86C299.032 189 299.352 189.23 299.612 189.55C299.882 189.87 300.017 190.3 300.017 190.84C300.017 191.51 299.762 192.055 299.252 192.475C298.752 192.895 298.082 193.105 297.242 193.105C296.262 193.105 295.462 192.87 294.842 192.4C294.222 191.93 293.857 191.275 293.747 190.435H295.067C295.117 190.935 295.332 191.34 295.712 191.65C296.102 191.96 296.612 192.115 297.242 192.115C297.712 192.115 298.077 191.995 298.337 191.755C298.607 191.515 298.742 191.2 298.742 190.81C298.742 190.49 298.647 190.235 298.457 190.045C298.267 189.855 298.032 189.71 297.752 189.61C297.472 189.51 297.087 189.405 296.597 189.295C295.987 189.155 295.497 189.015 295.127 188.875C294.767 188.735 294.457 188.515 294.197 188.215C293.947 187.905 293.822 187.49 293.822 186.97C293.822 186.28 294.077 185.725 294.587 185.305C295.097 184.875 295.792 184.66 296.672 184.66Z" fill="white"/>
</svg>
