<svg width="238" height="224" viewBox="0 0 238 224" fill="none" xmlns="http://www.w3.org/2000/svg">
<g clip-path="url(#clip0_12665_40301)">
<path d="M224.863 35.542C227.4 42.3048 229.483 49.2264 231.099 56.2615C232.254 61.3461 232.972 66.0239 233.075 66.6594C233.075 66.6594 233.563 69.939 233.922 73.3202C239.054 122.132 235.333 184.85 235.333 184.85" stroke="white" stroke-miterlimit="10"/>
<path d="M13.1406 35.542C10.5684 42.3024 8.45074 49.224 6.80173 56.2615C5.64689 61.3461 4.92842 66.0239 4.82577 66.6594C4.82577 66.6594 4.33813 69.939 3.97884 73.3202C-1.1538 122.132 2.5674 184.85 2.5674 184.85" stroke="white" stroke-miterlimit="10"/>
<path d="M118.384 73.2688C60.7552 73.2688 14.0378 57.1516 14.0378 37.2701C14.0378 17.3886 60.7552 1.27148 118.384 1.27148C176.013 1.27148 222.73 17.3886 222.73 37.2701C222.73 57.1516 176.013 73.2688 118.384 73.2688Z" stroke="white" stroke-width="0.4" stroke-miterlimit="10"/>
<path d="M118.846 78.0482C59.9559 78.0482 12.2158 60.8612 12.2158 39.6599C12.2158 18.4585 59.9559 1.27148 118.846 1.27148C177.737 1.27148 225.477 18.4585 225.477 39.6599C225.477 60.8612 177.737 78.0482 118.846 78.0482Z" stroke="white" stroke-miterlimit="10"/>
<path d="M102.603 36.3298C102.603 38.7449 108.659 40.7279 116.153 40.7279C123.647 40.7279 129.703 38.7449 129.703 36.3298C129.703 33.9146 123.621 31.957 116.153 31.957C108.685 31.957 102.603 33.9146 102.603 36.3298Z" stroke="white" stroke-miterlimit="10"/>
<path d="M193.729 35.542L201.941 37.2707L194.217 38.0843" stroke="white" stroke-linecap="round" stroke-linejoin="round"/>
<path d="M38.7773 35.542L30.5651 37.2707L38.2641 38.0843" stroke="white" stroke-linecap="round" stroke-linejoin="round"/>
<g filter="url(#filter0_f_12665_40301)">
<path d="M119.633 21.6181C116.72 19.9495 113.537 20.064 110.9 21.9328C108.565 23.5881 106.775 26.484 105.861 30.0878C103.83 38.0974 106.698 46.923 112.39 50.186C118.081 53.4455 124.131 49.7256 126.162 41.7163C127.076 38.1126 127.023 34.1609 126.012 30.589C125.059 27.2198 123.28 24.3836 121.021 22.5683C120.57 22.2065 120.102 21.8859 119.633 21.6181Z" fill="#DB3EB1"/>
<ellipse rx="7.28342" ry="7.2836" transform="matrix(-1.00231 0.000189226 -0.000258133 0.997686 116.44 37.1959)" fill="url(#paint0_radial_12665_40301)"/>
</g>
<path d="M185.09 72.5C184.341 73.6601 184.032 75.0894 184.226 76.4913C184.572 77.8839 185.327 79.1156 186.375 79.9996C187.373 80.8857 188.445 81.6687 189.577 82.3384L191.259 83.3299C191.77 83.5642 192.225 83.9205 192.591 84.3722C193.035 89.0245 193.9 95.6596 194.18 100.236C194.18 100.49 193.503 100.719 192.895 100.922L191.096 101.456L187.404 102.371L183.665 103.235C183.11 103.427 182.525 103.485 181.948 103.406C181.371 103.327 180.816 103.113 180.323 102.778C178.164 101.31 175.794 100.245 173.313 99.6255C170.775 99.3207 168.217 99.2696 165.671 99.473C168.196 99.4686 170.715 99.724 173.196 100.236C175.62 100.954 177.918 102.105 179.996 103.642C180.576 104.056 181.228 104.333 181.912 104.456C182.6 104.548 183.298 104.496 183.968 104.303L187.707 103.515L191.446 102.625C192.077 102.473 192.685 102.295 193.316 102.091L194.274 101.761C194.706 101.585 195.069 101.253 195.302 100.82C195.487 100.393 195.544 99.9125 195.466 99.4475L195.325 98.4307L195.092 96.3968L194.601 92.3294L194.11 88.2363L193.853 86.2026C193.83 85.8641 193.83 85.5242 193.853 85.1856C193.889 84.732 193.791 84.2778 193.573 83.8892C193.114 83.2837 192.518 82.8192 191.844 82.5418L190.138 81.6266C189.013 81.033 187.941 80.3266 186.936 79.5166C185.911 78.7665 185.134 77.6798 184.716 76.415C184.378 75.1059 184.512 73.7056 185.09 72.5Z" fill="white"/>
<path d="M159.5 78.5044L164.186 79.2322C165.724 79.4289 167.25 79.7222 168.757 80.1106C171.663 81.3243 174.384 83.0168 176.826 85.1298L178.723 86.6104C179.386 87.1374 179.958 87.6143 180.026 88.2166C180.278 89.7475 180.415 91.6046 180.666 93.2358C181.1 96.6739 181.557 100.112 182.129 103.5C182.129 100.037 181.786 96.5986 181.535 93.1605C181.535 91.4038 181.283 89.7976 181.055 87.9154C180.923 87.3882 180.662 86.9108 180.3 86.5351C179.98 86.2089 179.66 85.9328 179.363 85.6568L177.443 84.1008C176.117 83.1221 174.792 82.1685 173.397 81.3152C172.708 80.8592 171.99 80.4566 171.249 80.1106C170.903 79.9195 170.544 79.76 170.175 79.6338L168.963 79.2322C165.832 78.7069 162.667 78.4634 159.5 78.5044Z" fill="white"/>
<path fill-rule="evenodd" clip-rule="evenodd" d="M5.50098 61C4.83432 73.6667 41.999 97.5 106 99C127.861 99.5124 145.947 98.5546 160.908 96.619L172.5 100L176.912 100.902C159.64 104.134 137.001 105.8 107 105C32 103 5.66667 79.8333 4 68L5.50098 61ZM194.246 96.6347L194.014 89.4315C221.639 80.2392 229.414 66.8526 231.5 60L233 68.5C226.913 78.4612 217.295 89.3307 194.246 96.6347Z" fill="white"/>
<path d="M179.275 110.873V130.769C179.266 130.895 179.29 131.021 179.346 131.134C179.401 131.247 179.485 131.343 179.59 131.411C179.694 131.48 179.815 131.518 179.939 131.523C180.063 131.527 180.186 131.498 180.295 131.437L192.677 126.86C192.96 126.743 193.206 126.548 193.386 126.297C193.566 126.047 193.674 125.75 193.697 125.44V105.544C193.703 105.42 193.676 105.296 193.62 105.185C193.563 105.075 193.479 104.982 193.375 104.915C193.271 104.849 193.152 104.812 193.029 104.808C192.906 104.804 192.785 104.833 192.677 104.893L180.295 109.47C180.014 109.586 179.77 109.778 179.591 110.026C179.411 110.273 179.302 110.567 179.275 110.873ZM187.596 127.061C187.305 127.418 186.924 127.689 186.494 127.846C186.32 127.92 186.133 127.958 185.943 127.958C185.754 127.958 185.567 127.92 185.393 127.846C185.161 127.756 184.965 127.591 184.834 127.377C184.703 127.162 184.645 126.911 184.669 126.66C184.706 126.107 184.898 125.576 185.221 125.129C185.544 124.683 185.986 124.339 186.494 124.137C186.687 124.03 186.905 123.976 187.125 123.983C187.345 123.99 187.56 124.056 187.746 124.176C187.932 124.295 188.084 124.463 188.185 124.662C188.286 124.861 188.332 125.083 188.32 125.307C188.3 125.962 188.042 126.587 187.596 127.061ZM192.052 121.013L180.92 125.14V110.907L192.052 106.78V121.013Z" fill="white"/>
<path d="M156.676 102.912C156.676 120.581 156.676 133.419 156.522 135.199C156.493 135.885 156.327 136.559 156.034 137.182C155.652 137.911 155.129 138.559 154.494 139.089C151.415 141.631 118.848 142.089 118.848 142.089C118.848 142.089 91.4914 142.521 83.4845 139.343C82.9132 139.099 82.3916 138.755 81.9447 138.326C81.1252 137.349 80.688 136.113 80.713 134.843C80.713 132.301 80.7128 120.098 80.8925 103.293" stroke="white" stroke-miterlimit="10"/>
</g>
<defs>
<filter id="filter0_f_12665_40301" x="84.2109" y="-0.555664" width="63.6016" height="72.9199" filterUnits="userSpaceOnUse" color-interpolation-filters="sRGB">
<feFlood flood-opacity="0" result="BackgroundImageFix"/>
<feBlend mode="normal" in="SourceGraphic" in2="BackgroundImageFix" result="shape"/>
<feGaussianBlur stdDeviation="10.5" result="effect1_foregroundBlur_12665_40301"/>
</filter>
<radialGradient id="paint0_radial_12665_40301" cx="0" cy="0" r="1" gradientUnits="userSpaceOnUse" gradientTransform="translate(7.28342 7.2836) rotate(90) scale(7.2836)">
<stop stop-color="white"/>
<stop offset="1" stop-color="white" stop-opacity="0"/>
</radialGradient>
<clipPath id="clip0_12665_40301">
<rect width="238" height="224" fill="white" transform="matrix(-1 0 0 1 238 0)"/>
</clipPath>
</defs>
</svg>
