<svg width="69" height="66" viewBox="0 0 69 66" fill="none" xmlns="http://www.w3.org/2000/svg">
<rect x="2" y="2" width="62" height="62" rx="1" stroke="white" stroke-width="2"/>
<rect x="8" y="29" width="50" height="26" stroke="white" stroke-width="2" stroke-linejoin="round"/>
<path d="M2 17L64 17" stroke="white" stroke-width="2" stroke-miterlimit="10"/>
<path d="M39 7H27V12H39V7Z" fill="white" stroke="white" stroke-width="2" stroke-linejoin="round"/>
<path d="M47 11C48.1046 11 49 10.1046 49 9C49 7.89543 48.1046 7 47 7C45.8954 7 45 7.89543 45 9C45 10.1046 45.8954 11 47 11Z" fill="white"/>
<path d="M55 11C56.1046 11 57 10.1046 57 9C57 7.89543 56.1046 7 55 7C53.8954 7 53 7.89543 53 9C53 10.1046 53.8954 11 55 11Z" fill="white"/>
<path d="M11 11C12.1046 11 13 10.1046 13 9C13 7.89543 12.1046 7 11 7C9.89543 7 9 7.89543 9 9C9 10.1046 9.89543 11 11 11Z" fill="white"/>
<path d="M19 11C20.1046 11 21 10.1046 21 9C21 7.89543 20.1046 7 19 7C17.8954 7 17 7.89543 17 9C17 10.1046 17.8954 11 19 11Z" fill="white"/>
<line x1="7" y1="24" x2="59" y2="24" stroke="white" stroke-width="2"/>
</svg>
