<svg width="258" height="58" viewBox="0 0 258 58" fill="none" xmlns="http://www.w3.org/2000/svg">
<rect x="1" y="1" width="256" height="56" rx="2" stroke="white" stroke-width="2"/>
<rect x="98.0117" y="8.78564" width="61.9764" height="40.4286" rx="1.5" stroke="white"/>
<g opacity="0.2">
<path fill-rule="evenodd" clip-rule="evenodd" d="M219.401 30.0356C219.401 35.7558 214.853 40.3928 209.244 40.3928C203.633 40.3928 199.086 35.7558 199.086 30.0356C199.086 24.3154 203.633 19.6785 209.244 19.6785C214.853 19.6785 219.401 24.3154 219.401 30.0356Z" stroke="white"/>
<path fill-rule="evenodd" clip-rule="evenodd" d="M213.306 21.552V38.5459C212.111 39.361 210.719 39.8111 209.243 39.8111C207.767 39.8111 206.375 39.361 205.18 38.5459V21.552C206.375 20.7368 207.767 20.1326 209.243 20.1326C210.719 20.1326 212.111 20.7368 213.306 21.552Z" stroke="white"/>
</g>
<g opacity="0.2">
<path fill-rule="evenodd" clip-rule="evenodd" d="M190.959 30.0356C190.959 35.7558 186.412 40.3928 180.802 40.3928C175.192 40.3928 170.645 35.7558 170.645 30.0356C170.645 24.3154 175.192 19.6785 180.802 19.6785C186.412 19.6785 190.959 24.3154 190.959 30.0356Z" stroke="white"/>
<path fill-rule="evenodd" clip-rule="evenodd" d="M184.864 21.552V38.5459C183.669 39.361 182.277 39.8111 180.801 39.8111C179.325 39.8111 177.933 39.361 176.738 38.5459V21.552C177.933 20.7368 179.325 20.1326 180.801 20.1326C182.277 20.1326 183.669 20.7368 184.864 21.552Z" stroke="white"/>
</g>
<g opacity="0.199242">
<path fill-rule="evenodd" clip-rule="evenodd" d="M247.842 30.0356C247.842 35.7558 243.295 40.3928 237.685 40.3928C232.075 40.3928 227.527 35.7558 227.527 30.0356C227.527 24.3154 232.075 19.6785 237.685 19.6785C243.295 19.6785 247.842 24.3154 247.842 30.0356Z" stroke="white"/>
<path fill-rule="evenodd" clip-rule="evenodd" d="M241.747 21.552V38.5459C240.552 39.361 239.16 39.8111 237.684 39.8111C236.208 39.8111 234.816 39.361 233.621 38.5459V21.552C234.816 20.7368 236.208 20.1326 237.684 20.1326C239.16 20.1326 240.552 20.7368 241.747 21.552Z" stroke="white"/>
</g>
<g opacity="0.2">
<path fill-rule="evenodd" clip-rule="evenodd" d="M58.9126 30.0356C58.9126 35.7558 54.3652 40.3928 48.7555 40.3928C43.1451 40.3928 38.5977 35.7558 38.5977 30.0356C38.5977 24.3154 43.1451 19.6785 48.7555 19.6785C54.3652 19.6785 58.9126 24.3154 58.9126 30.0356Z" stroke="white"/>
<path fill-rule="evenodd" clip-rule="evenodd" d="M52.8174 21.552V38.5459C51.6224 39.361 50.2306 39.8111 48.7544 39.8111C47.2782 39.8111 45.8864 39.361 44.6914 38.5459V21.552C45.8864 20.7368 47.2782 20.1326 48.7544 20.1326C50.2306 20.1326 51.6224 20.7368 52.8174 21.552Z" stroke="white"/>
</g>
<g opacity="0.2">
<path fill-rule="evenodd" clip-rule="evenodd" d="M87.354 30.0356C87.354 35.7558 82.8066 40.3928 77.1969 40.3928C71.5865 40.3928 67.0391 35.7558 67.0391 30.0356C67.0391 24.3154 71.5865 19.6785 77.1969 19.6785C82.8066 19.6785 87.354 24.3154 87.354 30.0356Z" stroke="white"/>
<path fill-rule="evenodd" clip-rule="evenodd" d="M81.2588 21.552V38.5459C80.0638 39.361 78.672 39.8111 77.1958 39.8111C75.7196 39.8111 74.3278 39.361 73.1328 38.5459V21.552C74.3278 20.7368 75.7196 20.1326 77.1958 20.1326C78.672 20.1326 80.0638 20.7368 81.2588 21.552Z" stroke="white"/>
</g>
<g opacity="0.199242">
<path fill-rule="evenodd" clip-rule="evenodd" d="M30.4712 30.0356C30.4712 35.7558 25.9238 40.3928 20.3141 40.3928C14.7037 40.3928 10.1562 35.7558 10.1562 30.0356C10.1562 24.3154 14.7037 19.6785 20.3141 19.6785C25.9238 19.6785 30.4712 24.3154 30.4712 30.0356Z" stroke="white"/>
<path fill-rule="evenodd" clip-rule="evenodd" d="M24.376 21.552V38.5459C23.181 39.361 21.7892 39.8111 20.313 39.8111C18.8368 39.8111 17.445 39.361 16.25 38.5459V21.552C17.445 20.7368 18.8368 20.1326 20.313 20.1326C21.7892 20.1326 23.181 20.7368 24.376 21.552Z" stroke="white"/>
</g>
</svg>
