<svg width="80" height="80" viewBox="0 0 80 80" fill="none" xmlns="http://www.w3.org/2000/svg">
<path d="M70 71H10C9.44772 71 9 70.5523 9 70V10C9 9.44772 9.44772 9 10 9H70C70.5523 9 71 9.44772 71 10V70C71 70.5523 70.5523 71 70 71Z" stroke="white" stroke-width="2"/>
<path d="M19 19C20.6569 19 22 17.6569 22 16C22 14.3431 20.6569 13 19 13C17.3431 13 16 14.3431 16 16C16 17.6569 17.3431 19 19 19Z" fill="white"/>
<path d="M35.5 16C35.5 17.3807 34.3807 18.5 33 18.5C31.6193 18.5 30.5 17.3807 30.5 16C30.5 14.6193 31.6193 13.5 33 13.5C34.3807 13.5 35.5 14.6193 35.5 16Z" fill="white" stroke="white"/>
<path d="M47 19C48.6569 19 50 17.6569 50 16C50 14.3431 48.6569 13 47 13C45.3431 13 44 14.3431 44 16C44 17.6569 45.3431 19 47 19Z" fill="white"/>
<path d="M61 19C62.6569 19 64 17.6569 64 16C64 14.3431 62.6569 13 61 13C59.3431 13 58 14.3431 58 16C58 17.6569 59.3431 19 61 19Z" fill="white"/>
<path d="M9 23L71 23" stroke="white" stroke-width="2" stroke-miterlimit="10"/>
<rect x="15" y="36" width="50" height="29" rx="2" stroke="white" stroke-width="2"/>
<line x1="14" y1="30" x2="66" y2="30" stroke="white" stroke-width="2"/>
<rect x="48" y="5" width="19" height="4" stroke="white" stroke-width="2" stroke-linejoin="round"/>
<rect x="13" y="5" width="19" height="4" stroke="white" stroke-width="2" stroke-linejoin="round"/>
</svg>
