<svg width="343" height="126" viewBox="0 0 343 126" fill="none" xmlns="http://www.w3.org/2000/svg">
    <rect x="1" y="1" width="341" height="124" rx="5" stroke="white" stroke-width="2"/>
    <rect x="0.5" y="-0.5" width="19" height="1" transform="matrix(1 0 0 -1 61 103)" stroke="white"/>
    <rect x="0.5" y="-0.5" width="19" height="1" transform="matrix(1 0 0 -1 262 103)" stroke="white"/>
    <rect x="0.5" y="-0.5" width="19" height="1" transform="matrix(1 0 0 -1 94.5 103)" stroke="white"/>
    <rect x="0.5" y="-0.5" width="19" height="1" transform="matrix(1 0 0 -1 128 103)" stroke="white"/>
    <rect x="0.5" y="-0.5" width="19" height="1" transform="matrix(1 0 0 -1 161.5 103)" stroke="white"/>
    <rect x="0.5" y="-0.5" width="19" height="1" transform="matrix(1 0 0 -1 195 103)" stroke="white"/>
    <rect x="0.5" y="-0.5" width="19" height="1" transform="matrix(1 0 0 -1 228.5 103)" stroke="white"/>
    <rect x="65.5" y="23.5" width="212" height="54" rx="5.5" stroke="white"/>
    <path d="M145.211 30C146.703 30 147.922 31.4 147.996 33.1605L148 33.332V36H146.713V33.332C146.713 32.3842 146.098 31.608 145.318 31.5423L145.211 31.5378H141V30H145.211Z" fill="white"/>
    <path d="M141.126 39C139.453 39 138.088 37.6812 138.004 36.0227L138 35.8612V33H139.443V35.8612C139.443 36.7541 140.132 37.4852 141.005 37.5471L141.126 37.5513H146V39H141.126Z" fill="white"/>
    <path fill-rule="evenodd" clip-rule="evenodd" d="M138.5 29C137.672 29 137 29.6716 137 30.5C137 31.3284 137.672 32 138.5 32C139.328 32 140 31.3284 140 30.5C140 29.6716 139.328 29 138.5 29Z" fill="white"/>
    <path fill-rule="evenodd" clip-rule="evenodd" d="M148.5 37C147.672 37 147 37.6716 147 38.5C147 39.3284 147.672 40 148.5 40C149.328 40 150 39.3284 150 38.5C150 37.6716 149.328 37 148.5 37Z" fill="white"/>
    <circle cx="315.5" cy="56.5" r="9" stroke="white"/>
    <circle cx="315.5" cy="56.5" r="7.5" fill="#FDBA12"/>
    <path d="M305.774 14.26V17H304.634V9.94H307.034C307.848 9.94 308.458 10.1333 308.864 10.52C309.278 10.9067 309.484 11.4367 309.484 12.11C309.484 12.7767 309.274 13.3033 308.854 13.69C308.434 14.07 307.828 14.26 307.034 14.26H305.774ZM306.914 13.33C307.854 13.33 308.324 12.9233 308.324 12.11C308.324 11.71 308.211 11.4067 307.984 11.2C307.764 10.9867 307.408 10.88 306.914 10.88H305.774V13.33H306.914ZM315.564 11.49V17H314.414V15.8C314.274 16.2067 314.031 16.5233 313.684 16.75C313.337 16.97 312.934 17.08 312.474 17.08C311.834 17.08 311.321 16.8733 310.934 16.46C310.547 16.0467 310.354 15.4567 310.354 14.69V11.49H311.494V14.57C311.494 15.07 311.621 15.4567 311.874 15.73C312.127 15.9967 312.474 16.13 312.914 16.13C313.367 16.13 313.731 15.9833 314.004 15.69C314.277 15.3967 314.414 14.97 314.414 14.41V11.49H315.564ZM318.739 11.42C319.386 11.42 319.903 11.5867 320.289 11.92C320.683 12.2467 320.923 12.6867 321.009 13.24H319.929C319.883 12.94 319.753 12.7 319.539 12.52C319.333 12.3333 319.056 12.24 318.709 12.24C318.423 12.24 318.199 12.31 318.039 12.45C317.886 12.5833 317.809 12.7667 317.809 13C317.809 13.1733 317.866 13.3133 317.979 13.42C318.093 13.5267 318.233 13.61 318.399 13.67C318.573 13.73 318.816 13.7967 319.129 13.87C319.543 13.9633 319.876 14.06 320.129 14.16C320.389 14.26 320.609 14.42 320.789 14.64C320.976 14.8533 321.069 15.1467 321.069 15.52C321.069 15.98 320.893 16.3533 320.539 16.64C320.193 16.9267 319.723 17.07 319.129 17.07C318.443 17.07 317.886 16.91 317.459 16.59C317.039 16.27 316.786 15.8233 316.699 15.25H317.809C317.843 15.55 317.976 15.7933 318.209 15.98C318.443 16.1667 318.749 16.26 319.129 16.26C319.403 16.26 319.616 16.19 319.769 16.05C319.929 15.9033 320.009 15.72 320.009 15.5C320.009 15.3067 319.949 15.1533 319.829 15.04C319.709 14.9267 319.559 14.84 319.379 14.78C319.199 14.7133 318.953 14.6467 318.639 14.58C318.239 14.4867 317.913 14.3933 317.659 14.3C317.413 14.2067 317.199 14.0567 317.019 13.85C316.846 13.6367 316.759 13.35 316.759 12.99C316.759 12.5233 316.933 12.1467 317.279 11.86C317.633 11.5667 318.119 11.42 318.739 11.42ZM325.292 11.4C325.932 11.4 326.446 11.6067 326.832 12.02C327.219 12.4333 327.412 13.0233 327.412 13.79V17H326.272V13.91C326.272 13.4167 326.146 13.0367 325.892 12.77C325.639 12.4967 325.292 12.36 324.852 12.36C324.399 12.36 324.036 12.5067 323.762 12.8C323.489 13.0867 323.352 13.51 323.352 14.07V17H322.212V9.6H323.352V12.7C323.499 12.2867 323.746 11.9667 324.092 11.74C324.439 11.5133 324.839 11.4 325.292 11.4ZM314.333 26.01V27H313.633C313.046 27 312.6 26.86 312.293 26.58C311.993 26.2933 311.843 25.82 311.843 25.16V22.46H311.053V21.49H311.843V20.12H312.993V21.49H314.323V22.46H312.993V25.18C312.993 25.4933 313.05 25.71 313.163 25.83C313.283 25.95 313.49 26.01 313.783 26.01H314.333ZM317.921 21.42C318.454 21.42 318.934 21.5333 319.361 21.76C319.788 21.9867 320.121 22.3133 320.361 22.74C320.601 23.1667 320.721 23.6667 320.721 24.24C320.721 24.82 320.601 25.3233 320.361 25.75C320.121 26.1767 319.788 26.5033 319.361 26.73C318.934 26.9567 318.454 27.07 317.921 27.07C317.388 27.07 316.908 26.9567 316.481 26.73C316.061 26.5033 315.728 26.1767 315.481 25.75C315.241 25.3167 315.121 24.8133 315.121 24.24C315.121 23.6667 315.241 23.1667 315.481 22.74C315.728 22.3133 316.061 21.9867 316.481 21.76C316.908 21.5333 317.388 21.42 317.921 21.42ZM317.921 22.41C317.628 22.41 317.358 22.4767 317.111 22.61C316.864 22.7433 316.664 22.95 316.511 23.23C316.364 23.5033 316.291 23.84 316.291 24.24C316.291 24.6467 316.364 24.9867 316.511 25.26C316.664 25.5333 316.864 25.7367 317.111 25.87C317.358 26.0033 317.628 26.07 317.921 26.07C318.214 26.07 318.484 26.0033 318.731 25.87C318.978 25.7367 319.174 25.5333 319.321 25.26C319.474 24.9867 319.551 24.6467 319.551 24.24C319.551 23.84 319.474 23.5033 319.321 23.23C319.174 22.95 318.978 22.7433 318.731 22.61C318.484 22.4767 318.214 22.41 317.921 22.41ZM304.964 30.86V33H307.564V33.88H304.964V36.07H307.864V37H303.824V29.94H307.864V30.86H304.964ZM312.05 31.4C312.69 31.4 313.204 31.6067 313.59 32.02C313.977 32.4333 314.17 33.0233 314.17 33.79V37H313.03V33.91C313.03 33.4167 312.904 33.0367 312.65 32.77C312.397 32.4967 312.05 32.36 311.61 32.36C311.157 32.36 310.794 32.5067 310.52 32.8C310.247 33.0867 310.11 33.51 310.11 34.07V37H308.97V31.49H310.11V32.7C310.257 32.2867 310.504 31.9667 310.85 31.74C311.197 31.5133 311.597 31.4 312.05 31.4ZM318.273 36.01V37H317.573C316.987 37 316.54 36.86 316.233 36.58C315.933 36.2933 315.783 35.82 315.783 35.16V32.46H314.993V31.49H315.783V30.12H316.933V31.49H318.263V32.46H316.933V35.18C316.933 35.4933 316.99 35.71 317.103 35.83C317.223 35.95 317.43 36.01 317.723 36.01H318.273ZM324.461 33.98C324.461 34.1667 324.448 34.33 324.421 34.47H320.181C320.201 35.0367 320.358 35.4567 320.651 35.73C320.945 36.0033 321.308 36.14 321.741 36.14C322.121 36.14 322.441 36.0433 322.701 35.85C322.968 35.6567 323.131 35.4 323.191 35.08H324.411C324.338 35.4667 324.185 35.81 323.951 36.11C323.718 36.41 323.415 36.6467 323.041 36.82C322.668 36.9867 322.251 37.07 321.791 37.07C321.258 37.07 320.785 36.9567 320.371 36.73C319.965 36.5033 319.645 36.1767 319.411 35.75C319.178 35.3233 319.061 34.82 319.061 34.24C319.061 33.6667 319.178 33.1667 319.411 32.74C319.645 32.3133 319.965 31.9867 320.371 31.76C320.785 31.5333 321.258 31.42 321.791 31.42C322.331 31.42 322.801 31.5333 323.201 31.76C323.608 31.98 323.918 32.2867 324.131 32.68C324.351 33.0667 324.461 33.5 324.461 33.98ZM323.311 33.95C323.325 33.59 323.261 33.29 323.121 33.05C322.988 32.8033 322.801 32.6233 322.561 32.51C322.328 32.39 322.071 32.33 321.791 32.33C321.345 32.33 320.971 32.4667 320.671 32.74C320.371 33.0133 320.208 33.4167 320.181 33.95H323.311ZM326.702 32.57C326.889 32.21 327.155 31.9267 327.502 31.72C327.849 31.5067 328.249 31.4 328.702 31.4V32.64H328.362C327.862 32.64 327.459 32.7633 327.152 33.01C326.852 33.25 326.702 33.65 326.702 34.21V37H325.562V31.49H326.702V32.57Z" fill="white"/>
    <path d="M157.774 37L156.014 34.18H155.204V37H154.064V29.94H156.554C157.361 29.94 157.971 30.1367 158.384 30.53C158.804 30.9233 159.014 31.4433 159.014 32.09C159.014 32.6433 158.857 33.0967 158.544 33.45C158.237 33.8033 157.791 34.03 157.204 34.13L159.054 37H157.774ZM155.204 33.37H156.464C157.384 33.37 157.844 32.9633 157.844 32.15C157.844 31.7633 157.731 31.4633 157.504 31.25C157.284 31.03 156.937 30.92 156.464 30.92H155.204V33.37ZM161.181 30.86V33H163.781V33.88H161.181V36.07H164.081V37H160.041V29.94H164.081V30.86H161.181ZM172.507 30.05V37H171.357V31.79L169.347 37H168.347L166.327 31.79V37H165.187V30.05H166.567L168.867 35.6L171.127 30.05H172.507ZM177.148 29.85C177.802 29.85 178.392 30.0033 178.918 30.31C179.452 30.6167 179.868 31.0467 180.168 31.6C180.475 32.1467 180.628 32.7667 180.628 33.46C180.628 34.1533 180.475 34.7767 180.168 35.33C179.868 35.8767 179.452 36.3067 178.918 36.62C178.392 36.9267 177.802 37.08 177.148 37.08C176.488 37.08 175.892 36.9267 175.358 36.62C174.832 36.3067 174.415 35.8767 174.108 35.33C173.802 34.7767 173.648 34.1533 173.648 33.46C173.648 32.7667 173.802 32.1467 174.108 31.6C174.415 31.0467 174.832 30.6167 175.358 30.31C175.892 30.0033 176.488 29.85 177.148 29.85ZM177.148 30.91C176.695 30.91 176.292 31.0133 175.938 31.22C175.585 31.4267 175.308 31.7233 175.108 32.11C174.915 32.4967 174.818 32.9467 174.818 33.46C174.818 33.9733 174.915 34.4233 175.108 34.81C175.308 35.1967 175.585 35.4933 175.938 35.7C176.292 35.9067 176.695 36.01 177.148 36.01C177.595 36.01 177.992 35.9067 178.338 35.7C178.692 35.4933 178.965 35.1967 179.158 34.81C179.358 34.4233 179.458 33.9733 179.458 33.46C179.458 32.9467 179.358 32.4967 179.158 32.11C178.965 31.7233 178.692 31.4267 178.338 31.22C177.992 31.0133 177.595 30.91 177.148 30.91ZM186.319 29.94V30.86H184.349V37H183.199V30.86H181.239V29.94H186.319ZM188.309 30.86V33H190.909V33.88H188.309V36.07H191.209V37H187.169V29.94H191.209V30.86H188.309Z" fill="white"/>
    <path d="M153.512 47V53.88C153.512 54.12 153.732 54.34 153.972 54.34H154.412C154.632 54.34 154.852 54.12 154.852 53.88V47.44C154.852 47.22 154.632 47 154.412 47H153.512ZM153.512 63V55.88C153.512 55.66 153.732 55.44 153.972 55.44H154.412C154.632 55.44 154.852 55.66 154.852 55.88V62.56C154.852 62.78 154.632 63 154.412 63H153.512ZM158.844 47H164.844V47.88C164.844 48.12 164.624 48.34 164.404 48.34H159.284C159.064 48.34 158.844 48.12 158.844 47.88V47ZM165.504 47V53.88C165.504 54.12 165.724 54.34 165.964 54.34H166.404C166.624 54.34 166.844 54.12 166.844 53.88V47.44C166.844 47.22 166.624 47 166.404 47H165.504ZM164.404 54.34C164.624 54.34 164.844 54.56 164.844 54.78V55.22C164.844 55.44 164.624 55.66 164.404 55.66H159.284C159.064 55.66 158.844 55.44 158.844 55.22V54.78C158.844 54.56 159.064 54.34 159.284 54.34H164.404ZM158.184 63V55.88C158.184 55.66 157.964 55.44 157.724 55.44H157.284C157.064 55.44 156.844 55.66 156.844 55.88V62.56C156.844 62.78 157.064 63 157.284 63H158.184ZM158.844 63H164.844V61.88C164.844 61.66 164.624 61.44 164.404 61.44H159.284C159.064 61.44 158.844 61.66 158.844 61.88V63ZM171.033 63V61.0762H172.957V63H171.033ZM171.033 54.3281V52.3945H172.957V54.3281H171.033ZM183.824 47V53.88C183.824 54.12 184.044 54.34 184.284 54.34H184.724C184.944 54.34 185.164 54.12 185.164 53.88V47.44C185.164 47.22 184.944 47 184.724 47H183.824ZM183.824 63V55.88C183.824 55.66 184.044 55.44 184.284 55.44H184.724C184.944 55.44 185.164 55.66 185.164 55.88V62.56C185.164 62.78 184.944 63 184.724 63H183.824ZM195.816 47V53.88C195.816 54.12 196.036 54.34 196.276 54.34H196.716C196.936 54.34 197.156 54.12 197.156 53.88V47.44C197.156 47.22 196.936 47 196.716 47H195.816ZM195.816 63V55.88C195.816 55.66 196.036 55.44 196.276 55.44H196.716C196.936 55.44 197.156 55.66 197.156 55.88V62.56C197.156 62.78 196.936 63 196.716 63H195.816Z" fill="white"/>
</svg>
