<svg width="293" height="207" viewBox="0 0 293 207" fill="none" xmlns="http://www.w3.org/2000/svg">
    <path opacity="0.25" d="M143.142 25.9238C144.798 25.9238 146.142 24.5807 146.142 22.9238C146.142 21.267 144.798 19.9238 143.142 19.9238C141.485 19.9238 140.142 21.267 140.142 22.9238C140.142 24.5807 141.485 25.9238 143.142 25.9238Z" fill="white"/>
    <path opacity="0.25" d="M211.142 75.3293C211.654 76.9051 213.347 77.7675 214.922 77.2555C216.498 76.7435 217.36 75.051 216.848 73.4752C216.336 71.8995 214.644 71.0371 213.068 71.5491C211.492 72.0611 210.63 73.7536 211.142 75.3293Z" fill="white"/>
    <path opacity="0.25" d="M211.142 119.519C210.63 121.094 211.493 122.787 213.069 123.299C214.644 123.811 216.337 122.948 216.849 121.373C217.361 119.797 216.498 118.104 214.923 117.592C213.347 117.08 211.654 117.943 211.142 119.519Z" fill="white"/>
    <path opacity="0.25" d="M185.168 155.269C183.828 156.243 183.531 158.119 184.505 159.459C185.478 160.799 187.355 161.097 188.695 160.123C190.035 159.149 190.333 157.273 189.359 155.932C188.385 154.592 186.509 154.295 185.168 155.269Z" fill="white"/>
    <path opacity="0.25" d="M143.142 168.924C141.485 168.924 140.142 170.267 140.142 171.924C140.142 173.581 141.485 174.924 143.142 174.924C144.798 174.924 146.142 173.581 146.142 171.924C146.142 170.267 144.798 168.924 143.142 168.924Z" fill="white"/>
    <path opacity="0.25" d="M101.115 155.269C99.7749 154.295 97.8988 154.592 96.9249 155.932C95.951 157.273 96.2482 159.149 97.5886 160.123C98.929 161.097 100.805 160.8 101.779 159.459C102.753 158.119 102.456 156.243 101.115 155.269Z" fill="white"/>
    <path opacity="0.25" d="M75.1411 119.518C74.6291 117.943 72.9366 117.08 71.3609 117.592C69.7851 118.104 68.9228 119.797 69.4348 121.372C69.9468 122.948 71.6392 123.811 73.215 123.299C74.7907 122.787 75.6531 121.094 75.1411 119.518Z" fill="white"/>
    <path opacity="0.25" d="M75.1412 75.3291C75.6532 73.7533 74.7908 72.0608 73.2151 71.5488C71.6393 71.0368 69.9469 71.8992 69.4349 73.475C68.9229 75.0507 69.7852 76.7432 71.361 77.2552C72.9367 77.7672 74.6292 76.9048 75.1412 75.3291Z" fill="white"/>
    <path opacity="0.25" d="M101.115 39.579C102.455 38.6052 102.752 36.729 101.779 35.3886C100.805 34.0482 98.9286 33.7511 97.5882 34.7249C96.2478 35.6988 95.9506 37.5749 96.9245 38.9153C97.8984 40.2558 99.7745 40.5529 101.115 39.579Z" fill="white"/>
    <path d="M185.168 39.5789C186.509 40.5528 188.385 40.2556 189.359 38.9152C190.333 37.5748 190.036 35.6987 188.695 34.7248C187.355 33.7509 185.479 34.0481 184.505 35.3885C183.531 36.7289 183.828 38.605 185.168 39.5789Z" fill="white"/>
    <path fill-rule="evenodd" clip-rule="evenodd" d="M180.925 47.0308C186.857 51.3409 191.546 57.362 194.993 65.0939C195.575 66.3997 195.416 67.9169 194.575 69.0735L193.082 71.1302C203.8 90.126 203.185 114.422 189.527 133.222C175.868 152.021 152.951 160.114 131.573 155.79L130.599 157.129C129.73 158.325 128.271 158.944 126.807 158.739C118.628 157.589 111.588 154.871 105.688 150.585C99.7882 146.298 95.028 140.443 91.4075 133.019C90.7591 131.69 90.8973 130.111 91.7666 128.915L92.805 127.486C82.2211 108.524 82.8867 84.3492 96.4897 65.6263C110.093 46.9034 132.879 38.7999 154.183 43.0062L155.742 40.8598C156.583 39.7032 157.977 39.083 159.398 39.233C167.817 40.1214 174.992 42.7206 180.925 47.0308Z" stroke="white" stroke-width="2"/>
    <path fill-rule="evenodd" clip-rule="evenodd" d="M159.398 39.2329C167.817 40.1213 174.992 42.7205 180.925 47.0307C186.857 51.3408 191.546 57.3618 194.993 65.0938C195.575 66.3996 195.416 67.9168 194.575 69.0734L130.6 157.129C129.73 158.325 128.272 158.944 126.807 158.738C118.628 157.589 111.588 154.871 105.688 150.585C99.7883 146.298 95.0281 140.443 91.4076 133.019C90.7593 131.69 90.8974 130.111 91.7668 128.915L155.743 40.8597C156.583 39.7031 157.977 39.0829 159.398 39.2329Z" stroke="white" stroke-width="2"/>
    <path d="M174.271 57.2442L172.653 56.0686C171.76 55.4194 170.509 55.6175 169.86 56.5111L163.982 64.6013C163.332 65.4949 163.531 66.7456 164.424 67.3949L166.042 68.5704C166.936 69.2197 168.187 69.0216 168.836 68.128L174.714 60.0378C175.363 59.1442 175.165 57.8935 174.271 57.2442Z" fill="white"/>
    <path d="M205.28 34L203.168 30.616H202.196V34H200.828V25.528H203.816C204.784 25.528 205.516 25.764 206.012 26.236C206.516 26.708 206.768 27.332 206.768 28.108C206.768 28.772 206.58 29.316 206.204 29.74C205.836 30.164 205.3 30.436 204.596 30.556L206.816 34H205.28ZM202.196 29.644H203.708C204.812 29.644 205.364 29.156 205.364 28.18C205.364 27.716 205.228 27.356 204.956 27.1C204.692 26.836 204.276 26.704 203.708 26.704H202.196V29.644ZM209.368 26.632V29.2H212.488V30.256H209.368V32.884H212.848V34H208V25.528H212.848V26.632H209.368ZM222.96 25.66V34H221.58V27.748L219.168 34H217.968L215.544 27.748V34H214.176V25.66H215.832L218.592 32.32L221.304 25.66H222.96ZM228.529 25.42C229.313 25.42 230.021 25.604 230.653 25.972C231.293 26.34 231.793 26.856 232.153 27.52C232.521 28.176 232.705 28.92 232.705 29.752C232.705 30.584 232.521 31.332 232.153 31.996C231.793 32.652 231.293 33.168 230.653 33.544C230.021 33.912 229.313 34.096 228.529 34.096C227.737 34.096 227.021 33.912 226.381 33.544C225.749 33.168 225.249 32.652 224.881 31.996C224.513 31.332 224.329 30.584 224.329 29.752C224.329 28.92 224.513 28.176 224.881 27.52C225.249 26.856 225.749 26.34 226.381 25.972C227.021 25.604 227.737 25.42 228.529 25.42ZM228.529 26.692C227.985 26.692 227.501 26.816 227.077 27.064C226.653 27.312 226.321 27.668 226.081 28.132C225.849 28.596 225.733 29.136 225.733 29.752C225.733 30.368 225.849 30.908 226.081 31.372C226.321 31.836 226.653 32.192 227.077 32.44C227.501 32.688 227.985 32.812 228.529 32.812C229.065 32.812 229.541 32.688 229.957 32.44C230.381 32.192 230.709 31.836 230.941 31.372C231.181 30.908 231.301 30.368 231.301 29.752C231.301 29.136 231.181 28.596 230.941 28.132C230.709 27.668 230.381 27.312 229.957 27.064C229.541 26.816 229.065 26.692 228.529 26.692ZM239.534 25.528V26.632H237.17V34H235.79V26.632H233.438V25.528H239.534ZM241.923 26.632V29.2H245.043V30.256H241.923V32.884H245.403V34H240.555V25.528H245.403V26.632H241.923ZM202.196 40.632V43.2H205.316V44.256H202.196V46.884H205.676V48H200.828V39.528H205.676V40.632H202.196ZM213.856 48H212.488L208.372 41.748V48H207.004V39.54H208.372L212.488 45.816V39.54H213.856V48ZM220.564 46.164H216.988L216.34 48H214.876L217.996 39.66H219.568L222.676 48H221.212L220.564 46.164ZM220.18 45.108L218.776 41.148L217.372 45.108H220.18ZM228.107 43.632C228.619 43.736 229.031 43.98 229.343 44.364C229.663 44.748 229.823 45.196 229.823 45.708C229.823 46.412 229.587 46.972 229.115 47.388C228.643 47.796 227.959 48 227.063 48H223.691V39.528H227.003C227.851 39.528 228.499 39.72 228.947 40.104C229.403 40.48 229.631 41 229.631 41.664C229.631 42.2 229.491 42.636 229.211 42.972C228.931 43.3 228.563 43.52 228.107 43.632ZM225.059 43.176H226.751C227.231 43.176 227.595 43.064 227.843 42.84C228.099 42.616 228.227 42.304 228.227 41.904C228.227 41.512 228.099 41.204 227.843 40.98C227.595 40.756 227.215 40.644 226.703 40.644H225.059V43.176ZM226.787 46.872C227.307 46.872 227.707 46.756 227.987 46.524C228.275 46.284 228.419 45.952 228.419 45.528C228.419 45.104 228.275 44.772 227.987 44.532C227.699 44.292 227.295 44.172 226.775 44.172H225.059V46.872H226.787ZM232.477 46.932H235.405V48H231.109V39.528H232.477V46.932ZM237.844 40.632V43.2H240.964V44.256H237.844V46.884H241.324V48H236.476V39.528H241.324V40.632H237.844Z" fill="white"/>
    <path opacity="0.25" d="M228.752 75.5558C229.264 75.6598 229.676 75.9038 229.988 76.2878C230.308 76.6718 230.468 77.1198 230.468 77.6318C230.468 78.3358 230.232 78.8958 229.76 79.3118C229.288 79.7198 228.604 79.9238 227.708 79.9238H224.336V71.4518H227.648C228.496 71.4518 229.144 71.6438 229.592 72.0278C230.048 72.4038 230.276 72.9238 230.276 73.5878C230.276 74.1238 230.136 74.5598 229.856 74.8958C229.576 75.2238 229.208 75.4438 228.752 75.5558ZM225.704 75.0998H227.396C227.876 75.0998 228.24 74.9878 228.488 74.7638C228.744 74.5398 228.872 74.2278 228.872 73.8278C228.872 73.4358 228.744 73.1278 228.488 72.9038C228.24 72.6798 227.86 72.5678 227.348 72.5678H225.704V75.0998ZM227.432 78.7958C227.952 78.7958 228.352 78.6798 228.632 78.4478C228.92 78.2078 229.064 77.8758 229.064 77.4518C229.064 77.0278 228.92 76.6958 228.632 76.4558C228.344 76.2158 227.94 76.0958 227.42 76.0958H225.704V78.7958H227.432ZM236.806 78.0878H233.23L232.582 79.9238H231.118L234.238 71.5838H235.81L238.918 79.9238H237.454L236.806 78.0878ZM236.422 77.0318L235.018 73.0718L233.614 77.0318H236.422ZM242.585 75.6398L246.317 79.9238H244.649L241.301 75.9998V79.9238H239.933V71.4518H241.301V75.3278L244.661 71.4518H246.317L242.585 75.6398ZM248.708 72.5558V75.1238H251.828V76.1798H248.708V78.8078H252.188V79.9238H247.34V71.4518H252.188V72.5558H248.708Z" fill="white"/>
    <path opacity="0.25" d="M228.608 108.444C229.648 108.444 230.512 108.708 231.2 109.236C231.888 109.764 232.352 110.48 232.592 111.384H231.14C230.94 110.872 230.62 110.468 230.18 110.172C229.748 109.868 229.216 109.716 228.584 109.716C228.08 109.716 227.628 109.84 227.228 110.088C226.836 110.336 226.524 110.692 226.292 111.156C226.068 111.612 225.956 112.148 225.956 112.764C225.956 113.372 226.068 113.908 226.292 114.372C226.524 114.828 226.836 115.18 227.228 115.428C227.628 115.676 228.08 115.8 228.584 115.8C229.216 115.8 229.748 115.652 230.18 115.356C230.62 115.052 230.94 114.648 231.14 114.144H232.592C232.352 115.048 231.888 115.764 231.2 116.292C230.512 116.812 229.648 117.072 228.608 117.072C227.808 117.072 227.1 116.892 226.484 116.532C225.868 116.164 225.392 115.656 225.056 115.008C224.72 114.352 224.552 113.604 224.552 112.764C224.552 111.924 224.72 111.18 225.056 110.532C225.392 109.876 225.868 109.364 226.484 108.996C227.1 108.628 227.808 108.444 228.608 108.444ZM237.881 108.42C238.665 108.42 239.373 108.604 240.005 108.972C240.645 109.34 241.145 109.856 241.505 110.52C241.873 111.176 242.057 111.92 242.057 112.752C242.057 113.584 241.873 114.332 241.505 114.996C241.145 115.652 240.645 116.168 240.005 116.544C239.373 116.912 238.665 117.096 237.881 117.096C237.089 117.096 236.373 116.912 235.733 116.544C235.101 116.168 234.601 115.652 234.233 114.996C233.865 114.332 233.681 113.584 233.681 112.752C233.681 111.92 233.865 111.176 234.233 110.52C234.601 109.856 235.101 109.34 235.733 108.972C236.373 108.604 237.089 108.42 237.881 108.42ZM237.881 109.692C237.337 109.692 236.853 109.816 236.429 110.064C236.005 110.312 235.673 110.668 235.433 111.132C235.201 111.596 235.085 112.136 235.085 112.752C235.085 113.368 235.201 113.908 235.433 114.372C235.673 114.836 236.005 115.192 236.429 115.44C236.853 115.688 237.337 115.812 237.881 115.812C238.417 115.812 238.893 115.688 239.309 115.44C239.733 115.192 240.061 114.836 240.293 114.372C240.533 113.908 240.653 113.368 240.653 112.752C240.653 112.136 240.533 111.596 240.293 111.132C240.061 110.668 239.733 110.312 239.309 110.064C238.893 109.816 238.417 109.692 237.881 109.692ZM250.289 117H248.921L244.805 110.748V117H243.437V108.54H244.805L248.921 114.816V108.54H250.289V117ZM252.797 108.528L255.233 115.536L257.681 108.528H259.169L256.109 117H254.357L251.309 108.528H252.797ZM267.412 112.632C267.924 112.736 268.336 112.98 268.648 113.364C268.968 113.748 269.128 114.196 269.128 114.708C269.128 115.412 268.892 115.972 268.42 116.388C267.948 116.796 267.264 117 266.368 117H262.996V108.528H266.308C267.156 108.528 267.804 108.72 268.252 109.104C268.708 109.48 268.936 110 268.936 110.664C268.936 111.2 268.796 111.636 268.516 111.972C268.236 112.3 267.868 112.52 267.412 112.632ZM264.364 112.176H266.056C266.536 112.176 266.9 112.064 267.148 111.84C267.404 111.616 267.532 111.304 267.532 110.904C267.532 110.512 267.404 110.204 267.148 109.98C266.9 109.756 266.52 109.644 266.008 109.644H264.364V112.176ZM266.092 115.872C266.612 115.872 267.012 115.756 267.292 115.524C267.58 115.284 267.724 114.952 267.724 114.528C267.724 114.104 267.58 113.772 267.292 113.532C267.004 113.292 266.6 113.172 266.08 113.172H264.364V115.872H266.092ZM275.466 115.164H271.89L271.242 117H269.778L272.898 108.66H274.47L277.578 117H276.114L275.466 115.164ZM275.082 114.108L273.678 110.148L272.274 114.108H275.082ZM281.246 112.716L284.978 117H283.31L279.962 113.076V117H278.594V108.528H279.962V112.404L283.322 108.528H284.978L281.246 112.716ZM287.368 109.632V112.2H290.488V113.256H287.368V115.884H290.848V117H286V108.528H290.848V109.632H287.368ZM224.156 123.812V122.528H226.868V131H225.428V123.812H224.156ZM235.772 131L233.66 127.616H232.688V131H231.32V122.528H234.308C235.276 122.528 236.008 122.764 236.504 123.236C237.008 123.708 237.26 124.332 237.26 125.108C237.26 125.772 237.072 126.316 236.696 126.74C236.328 127.164 235.792 127.436 235.088 127.556L237.308 131H235.772ZM232.688 126.644H234.2C235.304 126.644 235.856 126.156 235.856 125.18C235.856 124.716 235.72 124.356 235.448 124.1C235.184 123.836 234.768 123.704 234.2 123.704H232.688V126.644ZM243.544 129.164H239.968L239.32 131H237.856L240.976 122.66H242.548L245.656 131H244.192L243.544 129.164ZM243.16 128.108L241.756 124.148L240.352 128.108H243.16ZM250.452 122.444C251.492 122.444 252.356 122.708 253.044 123.236C253.732 123.764 254.196 124.48 254.436 125.384H252.984C252.784 124.872 252.464 124.468 252.024 124.172C251.592 123.868 251.06 123.716 250.428 123.716C249.924 123.716 249.472 123.84 249.072 124.088C248.68 124.336 248.368 124.692 248.136 125.156C247.912 125.612 247.8 126.148 247.8 126.764C247.8 127.372 247.912 127.908 248.136 128.372C248.368 128.828 248.68 129.18 249.072 129.428C249.472 129.676 249.924 129.8 250.428 129.8C251.06 129.8 251.592 129.652 252.024 129.356C252.464 129.052 252.784 128.648 252.984 128.144H254.436C254.196 129.048 253.732 129.764 253.044 130.292C252.356 130.812 251.492 131.072 250.452 131.072C249.652 131.072 248.944 130.892 248.328 130.532C247.712 130.164 247.236 129.656 246.9 129.008C246.564 128.352 246.396 127.604 246.396 126.764C246.396 125.924 246.564 125.18 246.9 124.532C247.236 123.876 247.712 123.364 248.328 122.996C248.944 122.628 249.652 122.444 250.452 122.444ZM258.453 126.716L262.185 131H260.517L257.169 127.076V131H255.801V122.528H257.169V126.404L260.529 122.528H262.185L258.453 126.716Z" fill="white"/>
    <path opacity="0.25" d="M207.608 153.444C208.648 153.444 209.512 153.708 210.2 154.236C210.888 154.764 211.352 155.48 211.592 156.384H210.14C209.94 155.872 209.62 155.468 209.18 155.172C208.748 154.868 208.216 154.716 207.584 154.716C207.08 154.716 206.628 154.84 206.228 155.088C205.836 155.336 205.524 155.692 205.292 156.156C205.068 156.612 204.956 157.148 204.956 157.764C204.956 158.372 205.068 158.908 205.292 159.372C205.524 159.828 205.836 160.18 206.228 160.428C206.628 160.676 207.08 160.8 207.584 160.8C208.216 160.8 208.748 160.652 209.18 160.356C209.62 160.052 209.94 159.648 210.14 159.144H211.592C211.352 160.048 210.888 160.764 210.2 161.292C209.512 161.812 208.648 162.072 207.608 162.072C206.808 162.072 206.1 161.892 205.484 161.532C204.868 161.164 204.392 160.656 204.056 160.008C203.72 159.352 203.552 158.604 203.552 157.764C203.552 156.924 203.72 156.18 204.056 155.532C204.392 154.876 204.868 154.364 205.484 153.996C206.1 153.628 206.808 153.444 207.608 153.444ZM216.881 153.42C217.665 153.42 218.373 153.604 219.005 153.972C219.645 154.34 220.145 154.856 220.505 155.52C220.873 156.176 221.057 156.92 221.057 157.752C221.057 158.584 220.873 159.332 220.505 159.996C220.145 160.652 219.645 161.168 219.005 161.544C218.373 161.912 217.665 162.096 216.881 162.096C216.089 162.096 215.373 161.912 214.733 161.544C214.101 161.168 213.601 160.652 213.233 159.996C212.865 159.332 212.681 158.584 212.681 157.752C212.681 156.92 212.865 156.176 213.233 155.52C213.601 154.856 214.101 154.34 214.733 153.972C215.373 153.604 216.089 153.42 216.881 153.42ZM216.881 154.692C216.337 154.692 215.853 154.816 215.429 155.064C215.005 155.312 214.673 155.668 214.433 156.132C214.201 156.596 214.085 157.136 214.085 157.752C214.085 158.368 214.201 158.908 214.433 159.372C214.673 159.836 215.005 160.192 215.429 160.44C215.853 160.688 216.337 160.812 216.881 160.812C217.417 160.812 217.893 160.688 218.309 160.44C218.733 160.192 219.061 159.836 219.293 159.372C219.533 158.908 219.653 158.368 219.653 157.752C219.653 157.136 219.533 156.596 219.293 156.132C219.061 155.668 218.733 155.312 218.309 155.064C217.893 154.816 217.417 154.692 216.881 154.692ZM229.289 162H227.921L223.805 155.748V162H222.437V153.54H223.805L227.921 159.816V153.54H229.289V162ZM231.797 153.528L234.233 160.536L236.681 153.528H238.169L235.109 162H233.357L230.309 153.528H231.797ZM246.412 157.632C246.924 157.736 247.336 157.98 247.648 158.364C247.968 158.748 248.128 159.196 248.128 159.708C248.128 160.412 247.892 160.972 247.42 161.388C246.948 161.796 246.264 162 245.368 162H241.996V153.528H245.308C246.156 153.528 246.804 153.72 247.252 154.104C247.708 154.48 247.936 155 247.936 155.664C247.936 156.2 247.796 156.636 247.516 156.972C247.236 157.3 246.868 157.52 246.412 157.632ZM243.364 157.176H245.056C245.536 157.176 245.9 157.064 246.148 156.84C246.404 156.616 246.532 156.304 246.532 155.904C246.532 155.512 246.404 155.204 246.148 154.98C245.9 154.756 245.52 154.644 245.008 154.644H243.364V157.176ZM245.092 160.872C245.612 160.872 246.012 160.756 246.292 160.524C246.58 160.284 246.724 159.952 246.724 159.528C246.724 159.104 246.58 158.772 246.292 158.532C246.004 158.292 245.6 158.172 245.08 158.172H243.364V160.872H245.092ZM254.466 160.164H250.89L250.242 162H248.778L251.898 153.66H253.47L256.578 162H255.114L254.466 160.164ZM254.082 159.108L252.678 155.148L251.274 159.108H254.082ZM260.246 157.716L263.978 162H262.31L258.962 158.076V162H257.594V153.528H258.962V157.404L262.322 153.528H263.978L260.246 157.716ZM266.368 154.632V157.2H269.488V158.256H266.368V160.884H269.848V162H265V153.528H269.848V154.632H266.368ZM212.612 167.66V176H211.232V169.748L208.82 176H207.62L205.196 169.748V176H203.828V167.66H205.484L208.244 174.32L210.956 167.66H212.612ZM215.566 167.528V172.556C215.566 173.308 215.73 173.868 216.058 174.236C216.394 174.604 216.862 174.788 217.462 174.788C218.054 174.788 218.514 174.604 218.842 174.236C219.178 173.868 219.346 173.308 219.346 172.556V167.528H220.714V172.556C220.714 173.716 220.414 174.596 219.814 175.196C219.214 175.788 218.422 176.084 217.438 176.084C216.462 176.084 215.678 175.788 215.086 175.196C214.494 174.596 214.198 173.716 214.198 172.556V167.528H215.566ZM223.676 174.932H226.604V176H222.308V167.528H223.676V174.932ZM233.124 167.528V168.632H230.76V176H229.38V168.632H227.028V167.528H233.124ZM235.512 167.528V176H234.144V167.528H235.512Z" fill="white"/>
    <path opacity="0.25" d="M109.038 181.444C110.078 181.444 110.942 181.708 111.63 182.236C112.318 182.764 112.782 183.48 113.022 184.384H111.57C111.37 183.872 111.05 183.468 110.61 183.172C110.178 182.868 109.646 182.716 109.014 182.716C108.51 182.716 108.058 182.84 107.658 183.088C107.266 183.336 106.954 183.692 106.722 184.156C106.498 184.612 106.386 185.148 106.386 185.764C106.386 186.372 106.498 186.908 106.722 187.372C106.954 187.828 107.266 188.18 107.658 188.428C108.058 188.676 108.51 188.8 109.014 188.8C109.646 188.8 110.178 188.652 110.61 188.356C111.05 188.052 111.37 187.648 111.57 187.144H113.022C112.782 188.048 112.318 188.764 111.63 189.292C110.942 189.812 110.078 190.072 109.038 190.072C108.238 190.072 107.53 189.892 106.914 189.532C106.298 189.164 105.822 188.656 105.486 188.008C105.15 187.352 104.982 186.604 104.982 185.764C104.982 184.924 105.15 184.18 105.486 183.532C105.822 182.876 106.298 182.364 106.914 181.996C107.53 181.628 108.238 181.444 109.038 181.444ZM118.311 181.42C119.095 181.42 119.803 181.604 120.435 181.972C121.075 182.34 121.575 182.856 121.935 183.52C122.303 184.176 122.487 184.92 122.487 185.752C122.487 186.584 122.303 187.332 121.935 187.996C121.575 188.652 121.075 189.168 120.435 189.544C119.803 189.912 119.095 190.096 118.311 190.096C117.519 190.096 116.803 189.912 116.163 189.544C115.531 189.168 115.031 188.652 114.663 187.996C114.295 187.332 114.111 186.584 114.111 185.752C114.111 184.92 114.295 184.176 114.663 183.52C115.031 182.856 115.531 182.34 116.163 181.972C116.803 181.604 117.519 181.42 118.311 181.42ZM118.311 182.692C117.767 182.692 117.283 182.816 116.859 183.064C116.435 183.312 116.103 183.668 115.863 184.132C115.631 184.596 115.515 185.136 115.515 185.752C115.515 186.368 115.631 186.908 115.863 187.372C116.103 187.836 116.435 188.192 116.859 188.44C117.283 188.688 117.767 188.812 118.311 188.812C118.847 188.812 119.323 188.688 119.739 188.44C120.163 188.192 120.491 187.836 120.723 187.372C120.963 186.908 121.083 186.368 121.083 185.752C121.083 185.136 120.963 184.596 120.723 184.132C120.491 183.668 120.163 183.312 119.739 183.064C119.323 182.816 118.847 182.692 118.311 182.692ZM130.719 190H129.351L125.235 183.748V190H123.867V181.54H125.235L129.351 187.816V181.54H130.719V190ZM133.227 181.528L135.663 188.536L138.111 181.528H139.599L136.539 190H134.787L131.739 181.528H133.227ZM141.981 182.632V185.2H145.101V186.256H141.981V188.884H145.461V190H140.613V181.528H145.461V182.632H141.981ZM150.569 181.444C151.609 181.444 152.473 181.708 153.161 182.236C153.849 182.764 154.313 183.48 154.553 184.384H153.101C152.901 183.872 152.581 183.468 152.141 183.172C151.709 182.868 151.177 182.716 150.545 182.716C150.041 182.716 149.589 182.84 149.189 183.088C148.797 183.336 148.485 183.692 148.253 184.156C148.029 184.612 147.917 185.148 147.917 185.764C147.917 186.372 148.029 186.908 148.253 187.372C148.485 187.828 148.797 188.18 149.189 188.428C149.589 188.676 150.041 188.8 150.545 188.8C151.177 188.8 151.709 188.652 152.141 188.356C152.581 188.052 152.901 187.648 153.101 187.144H154.553C154.313 188.048 153.849 188.764 153.161 189.292C152.473 189.812 151.609 190.072 150.569 190.072C149.769 190.072 149.061 189.892 148.445 189.532C147.829 189.164 147.353 188.656 147.017 188.008C146.681 187.352 146.513 186.604 146.513 185.764C146.513 184.924 146.681 184.18 147.017 183.532C147.353 182.876 147.829 182.364 148.445 181.996C149.061 181.628 149.769 181.444 150.569 181.444ZM161.366 181.528V182.632H159.002V190H157.622V182.632H155.27V181.528H161.366ZM163.755 181.528V190H162.387V181.528H163.755ZM169.334 181.42C170.118 181.42 170.826 181.604 171.458 181.972C172.098 182.34 172.598 182.856 172.958 183.52C173.326 184.176 173.51 184.92 173.51 185.752C173.51 186.584 173.326 187.332 172.958 187.996C172.598 188.652 172.098 189.168 171.458 189.544C170.826 189.912 170.118 190.096 169.334 190.096C168.542 190.096 167.826 189.912 167.186 189.544C166.554 189.168 166.054 188.652 165.686 187.996C165.318 187.332 165.134 186.584 165.134 185.752C165.134 184.92 165.318 184.176 165.686 183.52C166.054 182.856 166.554 182.34 167.186 181.972C167.826 181.604 168.542 181.42 169.334 181.42ZM169.334 182.692C168.79 182.692 168.306 182.816 167.882 183.064C167.458 183.312 167.126 183.668 166.886 184.132C166.654 184.596 166.538 185.136 166.538 185.752C166.538 186.368 166.654 186.908 166.886 187.372C167.126 187.836 167.458 188.192 167.882 188.44C168.306 188.688 168.79 188.812 169.334 188.812C169.87 188.812 170.346 188.688 170.762 188.44C171.186 188.192 171.514 187.836 171.746 187.372C171.986 186.908 172.106 186.368 172.106 185.752C172.106 185.136 171.986 184.596 171.746 184.132C171.514 183.668 171.186 183.312 170.762 183.064C170.346 182.816 169.87 182.692 169.334 182.692ZM181.743 190H180.375L176.259 183.748V190H174.891V181.54H176.259L180.375 187.816V181.54H181.743V190ZM129.661 204L127.549 200.616H126.577V204H125.209V195.528H128.197C129.165 195.528 129.897 195.764 130.393 196.236C130.897 196.708 131.149 197.332 131.149 198.108C131.149 198.772 130.961 199.316 130.585 199.74C130.217 200.164 129.681 200.436 128.977 200.556L131.197 204H129.661ZM126.577 199.644H128.089C129.193 199.644 129.745 199.156 129.745 198.18C129.745 197.716 129.609 197.356 129.337 197.1C129.073 196.836 128.657 196.704 128.089 196.704H126.577V199.644ZM136.305 195.42C137.089 195.42 137.797 195.604 138.429 195.972C139.069 196.34 139.569 196.856 139.929 197.52C140.297 198.176 140.481 198.92 140.481 199.752C140.481 200.584 140.297 201.332 139.929 201.996C139.569 202.652 139.069 203.168 138.429 203.544C137.797 203.912 137.089 204.096 136.305 204.096C135.513 204.096 134.797 203.912 134.157 203.544C133.525 203.168 133.025 202.652 132.657 201.996C132.289 201.332 132.105 200.584 132.105 199.752C132.105 198.92 132.289 198.176 132.657 197.52C133.025 196.856 133.525 196.34 134.157 195.972C134.797 195.604 135.513 195.42 136.305 195.42ZM136.305 196.692C135.761 196.692 135.277 196.816 134.853 197.064C134.429 197.312 134.097 197.668 133.857 198.132C133.625 198.596 133.509 199.136 133.509 199.752C133.509 200.368 133.625 200.908 133.857 201.372C134.097 201.836 134.429 202.192 134.853 202.44C135.277 202.688 135.761 202.812 136.305 202.812C136.841 202.812 137.317 202.688 137.733 202.44C138.157 202.192 138.485 201.836 138.717 201.372C138.957 200.908 139.077 200.368 139.077 199.752C139.077 199.136 138.957 198.596 138.717 198.132C138.485 197.668 138.157 197.312 137.733 197.064C137.317 196.816 136.841 196.692 136.305 196.692ZM146.913 202.164H143.337L142.689 204H141.225L144.345 195.66H145.917L149.025 204H147.561L146.913 202.164ZM146.529 201.108L145.125 197.148L143.721 201.108H146.529ZM155.609 201.744C155.609 202.16 155.509 202.548 155.309 202.908C155.109 203.26 154.805 203.544 154.397 203.76C153.989 203.976 153.489 204.084 152.897 204.084C152.321 204.084 151.805 203.984 151.349 203.784C150.893 203.576 150.529 203.288 150.257 202.92C149.985 202.552 149.829 202.128 149.789 201.648H151.253C151.293 202.016 151.449 202.332 151.721 202.596C152.001 202.86 152.373 202.992 152.837 202.992C153.253 202.992 153.573 202.88 153.797 202.656C154.029 202.432 154.145 202.144 154.145 201.792C154.145 201.488 154.061 201.24 153.893 201.048C153.725 200.848 153.517 200.692 153.269 200.58C153.021 200.468 152.681 200.34 152.249 200.196C151.721 200.028 151.289 199.86 150.953 199.692C150.625 199.524 150.345 199.28 150.113 198.96C149.881 198.64 149.765 198.22 149.765 197.7C149.765 197.244 149.877 196.844 150.101 196.5C150.325 196.156 150.645 195.892 151.061 195.708C151.477 195.516 151.957 195.42 152.501 195.42C153.365 195.42 154.049 195.628 154.553 196.044C155.065 196.46 155.357 197.004 155.429 197.676H153.953C153.897 197.356 153.745 197.084 153.497 196.86C153.257 196.628 152.925 196.512 152.501 196.512C152.117 196.512 151.809 196.612 151.577 196.812C151.345 197.004 151.229 197.284 151.229 197.652C151.229 197.94 151.309 198.18 151.469 198.372C151.629 198.556 151.829 198.704 152.069 198.816C152.317 198.92 152.653 199.044 153.077 199.188C153.613 199.356 154.049 199.528 154.385 199.704C154.729 199.872 155.017 200.12 155.249 200.448C155.489 200.776 155.609 201.208 155.609 201.744ZM162.426 195.528V196.632H160.062V204H158.682V196.632H156.33V195.528H162.426Z" fill="white"/>
    <path opacity="0.25" d="M14.4674 153.444C15.5074 153.444 16.3714 153.708 17.0594 154.236C17.7474 154.764 18.2114 155.48 18.4514 156.384H16.9994C16.7994 155.872 16.4794 155.468 16.0394 155.172C15.6074 154.868 15.0754 154.716 14.4434 154.716C13.9394 154.716 13.4874 154.84 13.0874 155.088C12.6954 155.336 12.3834 155.692 12.1514 156.156C11.9274 156.612 11.8154 157.148 11.8154 157.764C11.8154 158.372 11.9274 158.908 12.1514 159.372C12.3834 159.828 12.6954 160.18 13.0874 160.428C13.4874 160.676 13.9394 160.8 14.4434 160.8C15.0754 160.8 15.6074 160.652 16.0394 160.356C16.4794 160.052 16.7994 159.648 16.9994 159.144H18.4514C18.2114 160.048 17.7474 160.764 17.0594 161.292C16.3714 161.812 15.5074 162.072 14.4674 162.072C13.6674 162.072 12.9594 161.892 12.3434 161.532C11.7274 161.164 11.2514 160.656 10.9154 160.008C10.5794 159.352 10.4114 158.604 10.4114 157.764C10.4114 156.924 10.5794 156.18 10.9154 155.532C11.2514 154.876 11.7274 154.364 12.3434 153.996C12.9594 153.628 13.6674 153.444 14.4674 153.444ZM23.7403 153.42C24.5243 153.42 25.2323 153.604 25.8643 153.972C26.5043 154.34 27.0043 154.856 27.3643 155.52C27.7323 156.176 27.9163 156.92 27.9163 157.752C27.9163 158.584 27.7323 159.332 27.3643 159.996C27.0043 160.652 26.5043 161.168 25.8643 161.544C25.2323 161.912 24.5243 162.096 23.7403 162.096C22.9483 162.096 22.2323 161.912 21.5923 161.544C20.9603 161.168 20.4603 160.652 20.0923 159.996C19.7243 159.332 19.5403 158.584 19.5403 157.752C19.5403 156.92 19.7243 156.176 20.0923 155.52C20.4603 154.856 20.9603 154.34 21.5923 153.972C22.2323 153.604 22.9483 153.42 23.7403 153.42ZM23.7403 154.692C23.1963 154.692 22.7123 154.816 22.2883 155.064C21.8643 155.312 21.5323 155.668 21.2923 156.132C21.0603 156.596 20.9443 157.136 20.9443 157.752C20.9443 158.368 21.0603 158.908 21.2923 159.372C21.5323 159.836 21.8643 160.192 22.2883 160.44C22.7123 160.688 23.1963 160.812 23.7403 160.812C24.2763 160.812 24.7523 160.688 25.1683 160.44C25.5923 160.192 25.9203 159.836 26.1523 159.372C26.3923 158.908 26.5123 158.368 26.5123 157.752C26.5123 157.136 26.3923 156.596 26.1523 156.132C25.9203 155.668 25.5923 155.312 25.1683 155.064C24.7523 154.816 24.2763 154.692 23.7403 154.692ZM36.1488 162H34.7808L30.6648 155.748V162H29.2968V153.54H30.6648L34.7808 159.816V153.54H36.1488V162ZM38.6566 153.528L41.0926 160.536L43.5406 153.528H45.0286L41.9686 162H40.2166L37.1686 153.528H38.6566ZM47.4108 154.632V157.2H50.5308V158.256H47.4108V160.884H50.8908V162H46.0428V153.528H50.8908V154.632H47.4108ZM55.9986 153.444C57.0386 153.444 57.9026 153.708 58.5906 154.236C59.2786 154.764 59.7426 155.48 59.9826 156.384H58.5306C58.3306 155.872 58.0106 155.468 57.5706 155.172C57.1386 154.868 56.6066 154.716 55.9746 154.716C55.4706 154.716 55.0186 154.84 54.6186 155.088C54.2266 155.336 53.9146 155.692 53.6826 156.156C53.4586 156.612 53.3466 157.148 53.3466 157.764C53.3466 158.372 53.4586 158.908 53.6826 159.372C53.9146 159.828 54.2266 160.18 54.6186 160.428C55.0186 160.676 55.4706 160.8 55.9746 160.8C56.6066 160.8 57.1386 160.652 57.5706 160.356C58.0106 160.052 58.3306 159.648 58.5306 159.144H59.9826C59.7426 160.048 59.2786 160.764 58.5906 161.292C57.9026 161.812 57.0386 162.072 55.9986 162.072C55.1986 162.072 54.4906 161.892 53.8746 161.532C53.2586 161.164 52.7826 160.656 52.4466 160.008C52.1106 159.352 51.9426 158.604 51.9426 157.764C51.9426 156.924 52.1106 156.18 52.4466 155.532C52.7826 154.876 53.2586 154.364 53.8746 153.996C54.4906 153.628 55.1986 153.444 55.9986 153.444ZM66.7955 153.528V154.632H64.4315V162H63.0515V154.632H60.6995V153.528H66.7955ZM69.1843 153.528V162H67.8163V153.528H69.1843ZM74.7637 153.42C75.5477 153.42 76.2557 153.604 76.8877 153.972C77.5277 154.34 78.0277 154.856 78.3877 155.52C78.7557 156.176 78.9397 156.92 78.9397 157.752C78.9397 158.584 78.7557 159.332 78.3877 159.996C78.0277 160.652 77.5277 161.168 76.8877 161.544C76.2557 161.912 75.5477 162.096 74.7637 162.096C73.9717 162.096 73.2557 161.912 72.6157 161.544C71.9837 161.168 71.4837 160.652 71.1157 159.996C70.7477 159.332 70.5637 158.584 70.5637 157.752C70.5637 156.92 70.7477 156.176 71.1157 155.52C71.4837 154.856 71.9837 154.34 72.6157 153.972C73.2557 153.604 73.9717 153.42 74.7637 153.42ZM74.7637 154.692C74.2197 154.692 73.7357 154.816 73.3117 155.064C72.8877 155.312 72.5557 155.668 72.3157 156.132C72.0837 156.596 71.9677 157.136 71.9677 157.752C71.9677 158.368 72.0837 158.908 72.3157 159.372C72.5557 159.836 72.8877 160.192 73.3117 160.44C73.7357 160.688 74.2197 160.812 74.7637 160.812C75.2997 160.812 75.7757 160.688 76.1917 160.44C76.6157 160.192 76.9437 159.836 77.1757 159.372C77.4157 158.908 77.5357 158.368 77.5357 157.752C77.5357 157.136 77.4157 156.596 77.1757 156.132C76.9437 155.668 76.6157 155.312 76.1917 155.064C75.7757 154.816 75.2997 154.692 74.7637 154.692ZM87.1722 162H85.8042L81.6882 155.748V162H80.3202V153.54H81.6882L85.8042 159.816V153.54H87.1722V162ZM60.7831 171.632C61.2951 171.736 61.7071 171.98 62.0191 172.364C62.3391 172.748 62.4991 173.196 62.4991 173.708C62.4991 174.412 62.2631 174.972 61.7911 175.388C61.3191 175.796 60.6351 176 59.7391 176H56.3671V167.528H59.6791C60.5271 167.528 61.1751 167.72 61.6231 168.104C62.0791 168.48 62.3071 169 62.3071 169.664C62.3071 170.2 62.1671 170.636 61.8871 170.972C61.6071 171.3 61.2391 171.52 60.7831 171.632ZM57.7351 171.176H59.4271C59.9071 171.176 60.2711 171.064 60.5191 170.84C60.7751 170.616 60.9031 170.304 60.9031 169.904C60.9031 169.512 60.7751 169.204 60.5191 168.98C60.2711 168.756 59.8911 168.644 59.3791 168.644H57.7351V171.176ZM59.4631 174.872C59.9831 174.872 60.3831 174.756 60.6631 174.524C60.9511 174.284 61.0951 173.952 61.0951 173.528C61.0951 173.104 60.9511 172.772 60.6631 172.532C60.3751 172.292 59.9711 172.172 59.4511 172.172H57.7351V174.872H59.4631ZM68.237 176L66.125 172.616H65.153V176H63.785V167.528H66.773C67.741 167.528 68.473 167.764 68.969 168.236C69.473 168.708 69.725 169.332 69.725 170.108C69.725 170.772 69.537 171.316 69.161 171.74C68.793 172.164 68.257 172.436 67.553 172.556L69.773 176H68.237ZM65.153 171.644H66.665C67.769 171.644 68.321 171.156 68.321 170.18C68.321 169.716 68.185 169.356 67.913 169.1C67.649 168.836 67.233 168.704 66.665 168.704H65.153V171.644ZM74.8809 167.42C75.6649 167.42 76.3729 167.604 77.0049 167.972C77.6449 168.34 78.1449 168.856 78.5049 169.52C78.8729 170.176 79.0569 170.92 79.0569 171.752C79.0569 172.584 78.8729 173.332 78.5049 173.996C78.1449 174.652 77.6449 175.168 77.0049 175.544C76.3729 175.912 75.6649 176.096 74.8809 176.096C74.0889 176.096 73.3729 175.912 72.7329 175.544C72.1009 175.168 71.6009 174.652 71.2329 173.996C70.8649 173.332 70.6809 172.584 70.6809 171.752C70.6809 170.92 70.8649 170.176 71.2329 169.52C71.6009 168.856 72.1009 168.34 72.7329 167.972C73.3729 167.604 74.0889 167.42 74.8809 167.42ZM74.8809 168.692C74.3369 168.692 73.8529 168.816 73.4289 169.064C73.0049 169.312 72.6729 169.668 72.4329 170.132C72.2009 170.596 72.0849 171.136 72.0849 171.752C72.0849 172.368 72.2009 172.908 72.4329 173.372C72.6729 173.836 73.0049 174.192 73.4289 174.44C73.8529 174.688 74.3369 174.812 74.8809 174.812C75.4169 174.812 75.8929 174.688 76.3089 174.44C76.7329 174.192 77.0609 173.836 77.2929 173.372C77.5329 172.908 77.6529 172.368 77.6529 171.752C77.6529 171.136 77.5329 170.596 77.2929 170.132C77.0609 169.668 76.7329 169.312 76.3089 169.064C75.8929 168.816 75.4169 168.692 74.8809 168.692ZM81.8054 167.528V176H80.4374V167.528H81.8054ZM84.8288 174.932H87.7568V176H83.4608V167.528H84.8288V174.932Z" fill="white"/>
    <path opacity="0.25" d="M3.12178 115.932H6.04978V117H1.75378V108.528H3.12178V115.932ZM11.045 108.42C11.829 108.42 12.537 108.604 13.169 108.972C13.809 109.34 14.309 109.856 14.669 110.52C15.037 111.176 15.221 111.92 15.221 112.752C15.221 113.584 15.037 114.332 14.669 114.996C14.309 115.652 13.809 116.168 13.169 116.544C12.537 116.912 11.829 117.096 11.045 117.096C10.253 117.096 9.53697 116.912 8.89697 116.544C8.26497 116.168 7.76497 115.652 7.39697 114.996C7.02897 114.332 6.84497 113.584 6.84497 112.752C6.84497 111.92 7.02897 111.176 7.39697 110.52C7.76497 109.856 8.26497 109.34 8.89697 108.972C9.53697 108.604 10.253 108.42 11.045 108.42ZM11.045 109.692C10.501 109.692 10.017 109.816 9.59297 110.064C9.16897 110.312 8.83697 110.668 8.59697 111.132C8.36497 111.596 8.24897 112.136 8.24897 112.752C8.24897 113.368 8.36497 113.908 8.59697 114.372C8.83697 114.836 9.16897 115.192 9.59297 115.44C10.017 115.688 10.501 115.812 11.045 115.812C11.581 115.812 12.057 115.688 12.473 115.44C12.897 115.192 13.225 114.836 13.457 114.372C13.697 113.908 13.817 113.368 13.817 112.752C13.817 112.136 13.697 111.596 13.457 111.132C13.225 110.668 12.897 110.312 12.473 110.064C12.057 109.816 11.581 109.692 11.045 109.692ZM27.3294 108.528L25.2174 117H23.5374L21.7494 110.448L19.9614 117H18.2814L16.1694 108.528H17.6694L19.1334 115.416L20.9934 108.528H22.5054L24.3654 115.416L25.8294 108.528H27.3294ZM35.7831 112.632C36.2951 112.736 36.7071 112.98 37.0191 113.364C37.3391 113.748 37.4991 114.196 37.4991 114.708C37.4991 115.412 37.2631 115.972 36.7911 116.388C36.3191 116.796 35.6351 117 34.7391 117H31.3671V108.528H34.6791C35.5271 108.528 36.1751 108.72 36.6231 109.104C37.0791 109.48 37.3071 110 37.3071 110.664C37.3071 111.2 37.1671 111.636 36.8871 111.972C36.6071 112.3 36.2391 112.52 35.7831 112.632ZM32.7351 112.176H34.4271C34.9071 112.176 35.2711 112.064 35.5191 111.84C35.7751 111.616 35.9031 111.304 35.9031 110.904C35.9031 110.512 35.7751 110.204 35.5191 109.98C35.2711 109.756 34.8911 109.644 34.3791 109.644H32.7351V112.176ZM34.4631 115.872C34.9831 115.872 35.3831 115.756 35.6631 115.524C35.9511 115.284 36.0951 114.952 36.0951 114.528C36.0951 114.104 35.9511 113.772 35.6631 113.532C35.3751 113.292 34.9711 113.172 34.4511 113.172H32.7351V115.872H34.4631ZM43.237 117L41.125 113.616H40.153V117H38.785V108.528H41.773C42.741 108.528 43.473 108.764 43.969 109.236C44.473 109.708 44.725 110.332 44.725 111.108C44.725 111.772 44.537 112.316 44.161 112.74C43.793 113.164 43.257 113.436 42.553 113.556L44.773 117H43.237ZM40.153 112.644H41.665C42.769 112.644 43.321 112.156 43.321 111.18C43.321 110.716 43.185 110.356 42.913 110.1C42.649 109.836 42.233 109.704 41.665 109.704H40.153V112.644ZM49.8809 108.42C50.6649 108.42 51.3729 108.604 52.0049 108.972C52.6449 109.34 53.1449 109.856 53.5049 110.52C53.8729 111.176 54.0569 111.92 54.0569 112.752C54.0569 113.584 53.8729 114.332 53.5049 114.996C53.1449 115.652 52.6449 116.168 52.0049 116.544C51.3729 116.912 50.6649 117.096 49.8809 117.096C49.0889 117.096 48.3729 116.912 47.7329 116.544C47.1009 116.168 46.6009 115.652 46.2329 114.996C45.8649 114.332 45.6809 113.584 45.6809 112.752C45.6809 111.92 45.8649 111.176 46.2329 110.52C46.6009 109.856 47.1009 109.34 47.7329 108.972C48.3729 108.604 49.0889 108.42 49.8809 108.42ZM49.8809 109.692C49.3369 109.692 48.8529 109.816 48.4289 110.064C48.0049 110.312 47.6729 110.668 47.4329 111.132C47.2009 111.596 47.0849 112.136 47.0849 112.752C47.0849 113.368 47.2009 113.908 47.4329 114.372C47.6729 114.836 48.0049 115.192 48.4289 115.44C48.8529 115.688 49.3369 115.812 49.8809 115.812C50.4169 115.812 50.8929 115.688 51.3089 115.44C51.7329 115.192 52.0609 114.836 52.2929 114.372C52.5329 113.908 52.6529 113.368 52.6529 112.752C52.6529 112.136 52.5329 111.596 52.2929 111.132C52.0609 110.668 51.7329 110.312 51.3089 110.064C50.8929 109.816 50.4169 109.692 49.8809 109.692ZM56.8054 108.528V117H55.4374V108.528H56.8054ZM59.8288 115.932H62.7568V117H58.4608V108.528H59.8288V115.932ZM34.3268 122.444C35.3668 122.444 36.2308 122.708 36.9188 123.236C37.6068 123.764 38.0708 124.48 38.3108 125.384H36.8588C36.6588 124.872 36.3388 124.468 35.8988 124.172C35.4668 123.868 34.9348 123.716 34.3028 123.716C33.7988 123.716 33.3468 123.84 32.9468 124.088C32.5548 124.336 32.2428 124.692 32.0108 125.156C31.7868 125.612 31.6748 126.148 31.6748 126.764C31.6748 127.372 31.7868 127.908 32.0108 128.372C32.2428 128.828 32.5548 129.18 32.9468 129.428C33.3468 129.676 33.7988 129.8 34.3028 129.8C34.9348 129.8 35.4668 129.652 35.8988 129.356C36.3388 129.052 36.6588 128.648 36.8588 128.144H38.3108C38.0708 129.048 37.6068 129.764 36.9188 130.292C36.2308 130.812 35.3668 131.072 34.3268 131.072C33.5268 131.072 32.8188 130.892 32.2028 130.532C31.5868 130.164 31.1108 129.656 30.7748 129.008C30.4388 128.352 30.2708 127.604 30.2708 126.764C30.2708 125.924 30.4388 125.18 30.7748 124.532C31.1108 123.876 31.5868 123.364 32.2028 122.996C32.8188 122.628 33.5268 122.444 34.3268 122.444ZM44.1277 131L42.0157 127.616H41.0437V131H39.6757V122.528H42.6637C43.6317 122.528 44.3637 122.764 44.8597 123.236C45.3637 123.708 45.6157 124.332 45.6157 125.108C45.6157 125.772 45.4277 126.316 45.0517 126.74C44.6837 127.164 44.1477 127.436 43.4437 127.556L45.6637 131H44.1277ZM41.0437 126.644H42.5557C43.6597 126.644 44.2117 126.156 44.2117 125.18C44.2117 124.716 44.0757 124.356 43.8037 124.1C43.5397 123.836 43.1237 123.704 42.5557 123.704H41.0437V126.644ZM48.2155 122.528V131H46.8475V122.528H48.2155ZM55.439 128.744C55.439 129.16 55.339 129.548 55.139 129.908C54.939 130.26 54.635 130.544 54.227 130.76C53.819 130.976 53.319 131.084 52.727 131.084C52.151 131.084 51.635 130.984 51.179 130.784C50.723 130.576 50.359 130.288 50.087 129.92C49.815 129.552 49.659 129.128 49.619 128.648H51.083C51.123 129.016 51.279 129.332 51.551 129.596C51.831 129.86 52.203 129.992 52.667 129.992C53.083 129.992 53.403 129.88 53.627 129.656C53.859 129.432 53.975 129.144 53.975 128.792C53.975 128.488 53.891 128.24 53.723 128.048C53.555 127.848 53.347 127.692 53.099 127.58C52.851 127.468 52.511 127.34 52.079 127.196C51.551 127.028 51.119 126.86 50.783 126.692C50.455 126.524 50.175 126.28 49.943 125.96C49.711 125.64 49.595 125.22 49.595 124.7C49.595 124.244 49.707 123.844 49.931 123.5C50.155 123.156 50.475 122.892 50.891 122.708C51.307 122.516 51.787 122.42 52.331 122.42C53.195 122.42 53.879 122.628 54.383 123.044C54.895 123.46 55.187 124.004 55.259 124.676H53.783C53.727 124.356 53.575 124.084 53.327 123.86C53.087 123.628 52.755 123.512 52.331 123.512C51.947 123.512 51.639 123.612 51.407 123.812C51.175 124.004 51.059 124.284 51.059 124.652C51.059 124.94 51.139 125.18 51.299 125.372C51.459 125.556 51.659 125.704 51.899 125.816C52.147 125.92 52.483 126.044 52.907 126.188C53.443 126.356 53.879 126.528 54.215 126.704C54.559 126.872 54.847 127.12 55.079 127.448C55.319 127.776 55.439 128.208 55.439 128.744ZM58.1765 127.712V131H56.8085V122.528H59.6885C60.6645 122.528 61.3965 122.76 61.8845 123.224C62.3805 123.688 62.6285 124.324 62.6285 125.132C62.6285 125.932 62.3765 126.564 61.8725 127.028C61.3685 127.484 60.6405 127.712 59.6885 127.712H58.1765ZM59.5445 126.596C60.6725 126.596 61.2365 126.108 61.2365 125.132C61.2365 124.652 61.1005 124.288 60.8285 124.04C60.5645 123.784 60.1365 123.656 59.5445 123.656H58.1765V126.596H59.5445Z" fill="white"/>
    <path opacity="0.25" d="M10.1381 62.528V71H8.75813V67.196H4.77413V71H3.40613V62.528H4.77413V66.08H8.75813V62.528H10.1381ZM13.1648 62.528V71H11.7968V62.528H13.1648ZM18.6962 62.456C19.7042 62.456 20.5442 62.704 21.2162 63.2C21.8882 63.696 22.3322 64.372 22.5482 65.228H21.1082C20.9242 64.772 20.6202 64.408 20.1962 64.136C19.7802 63.864 19.2842 63.728 18.7082 63.728C18.1802 63.728 17.7042 63.852 17.2802 64.1C16.8642 64.348 16.5362 64.7 16.2962 65.156C16.0642 65.612 15.9482 66.148 15.9482 66.764C15.9482 67.412 16.0682 67.968 16.3082 68.432C16.5482 68.896 16.8842 69.252 17.3162 69.5C17.7562 69.74 18.2642 69.86 18.8402 69.86C19.5442 69.86 20.1482 69.644 20.6522 69.212C21.1562 68.772 21.4602 68.172 21.5642 67.412H18.4562V66.404H22.7162V67.712C22.6202 68.336 22.3962 68.904 22.0442 69.416C21.7002 69.92 21.2402 70.324 20.6642 70.628C20.0962 70.932 19.4442 71.084 18.7082 71.084C17.8842 71.084 17.1562 70.9 16.5242 70.532C15.8922 70.164 15.4042 69.656 15.0602 69.008C14.7162 68.352 14.5442 67.604 14.5442 66.764C14.5442 65.924 14.7162 65.18 15.0602 64.532C15.4042 63.876 15.8882 63.368 16.5122 63.008C17.1442 62.64 17.8722 62.456 18.6962 62.456ZM30.8334 62.528V71H29.4534V67.196H25.4694V71H24.1014V62.528H25.4694V66.08H29.4534V62.528H30.8334ZM36.2481 59.672L32.9841 73.112H31.6521L34.9161 59.672H36.2481ZM38.3952 69.932H41.3232V71H37.0272V62.528H38.3952V69.932ZM46.3184 62.42C47.1024 62.42 47.8104 62.604 48.4424 62.972C49.0824 63.34 49.5824 63.856 49.9424 64.52C50.3104 65.176 50.4944 65.92 50.4944 66.752C50.4944 67.584 50.3104 68.332 49.9424 68.996C49.5824 69.652 49.0824 70.168 48.4424 70.544C47.8104 70.912 47.1024 71.096 46.3184 71.096C45.5264 71.096 44.8104 70.912 44.1704 70.544C43.5384 70.168 43.0384 69.652 42.6704 68.996C42.3024 68.332 42.1184 67.584 42.1184 66.752C42.1184 65.92 42.3024 65.176 42.6704 64.52C43.0384 63.856 43.5384 63.34 44.1704 62.972C44.8104 62.604 45.5264 62.42 46.3184 62.42ZM46.3184 63.692C45.7744 63.692 45.2904 63.816 44.8664 64.064C44.4424 64.312 44.1104 64.668 43.8704 65.132C43.6384 65.596 43.5224 66.136 43.5224 66.752C43.5224 67.368 43.6384 67.908 43.8704 68.372C44.1104 68.836 44.4424 69.192 44.8664 69.44C45.2904 69.688 45.7744 69.812 46.3184 69.812C46.8544 69.812 47.3304 69.688 47.7464 69.44C48.1704 69.192 48.4984 68.836 48.7304 68.372C48.9704 67.908 49.0904 67.368 49.0904 66.752C49.0904 66.136 48.9704 65.596 48.7304 65.132C48.4984 64.668 48.1704 64.312 47.7464 64.064C47.3304 63.816 46.8544 63.692 46.3184 63.692ZM62.6029 62.528L60.4909 71H58.8109L57.0229 64.448L55.2349 71H53.5549L51.4429 62.528H52.9429L54.4069 69.416L56.2669 62.528H57.7789L59.6389 69.416L61.1029 62.528H62.6029ZM35.7831 80.632C36.2951 80.736 36.7071 80.98 37.0191 81.364C37.3391 81.748 37.4991 82.196 37.4991 82.708C37.4991 83.412 37.2631 83.972 36.7911 84.388C36.3191 84.796 35.6351 85 34.7391 85H31.3671V76.528H34.6791C35.5271 76.528 36.1751 76.72 36.6231 77.104C37.0791 77.48 37.3071 78 37.3071 78.664C37.3071 79.2 37.1671 79.636 36.8871 79.972C36.6071 80.3 36.2391 80.52 35.7831 80.632ZM32.7351 80.176H34.4271C34.9071 80.176 35.2711 80.064 35.5191 79.84C35.7751 79.616 35.9031 79.304 35.9031 78.904C35.9031 78.512 35.7751 78.204 35.5191 77.98C35.2711 77.756 34.8911 77.644 34.3791 77.644H32.7351V80.176ZM34.4631 83.872C34.9831 83.872 35.3831 83.756 35.6631 83.524C35.9511 83.284 36.0951 82.952 36.0951 82.528C36.0951 82.104 35.9511 81.772 35.6631 81.532C35.3751 81.292 34.9711 81.172 34.4511 81.172H32.7351V83.872H34.4631ZM43.237 85L41.125 81.616H40.153V85H38.785V76.528H41.773C42.741 76.528 43.473 76.764 43.969 77.236C44.473 77.708 44.725 78.332 44.725 79.108C44.725 79.772 44.537 80.316 44.161 80.74C43.793 81.164 43.257 81.436 42.553 81.556L44.773 85H43.237ZM40.153 80.644H41.665C42.769 80.644 43.321 80.156 43.321 79.18C43.321 78.716 43.185 78.356 42.913 78.1C42.649 77.836 42.233 77.704 41.665 77.704H40.153V80.644ZM49.8809 76.42C50.6649 76.42 51.3729 76.604 52.0049 76.972C52.6449 77.34 53.1449 77.856 53.5049 78.52C53.8729 79.176 54.0569 79.92 54.0569 80.752C54.0569 81.584 53.8729 82.332 53.5049 82.996C53.1449 83.652 52.6449 84.168 52.0049 84.544C51.3729 84.912 50.6649 85.096 49.8809 85.096C49.0889 85.096 48.3729 84.912 47.7329 84.544C47.1009 84.168 46.6009 83.652 46.2329 82.996C45.8649 82.332 45.6809 81.584 45.6809 80.752C45.6809 79.92 45.8649 79.176 46.2329 78.52C46.6009 77.856 47.1009 77.34 47.7329 76.972C48.3729 76.604 49.0889 76.42 49.8809 76.42ZM49.8809 77.692C49.3369 77.692 48.8529 77.816 48.4289 78.064C48.0049 78.312 47.6729 78.668 47.4329 79.132C47.2009 79.596 47.0849 80.136 47.0849 80.752C47.0849 81.368 47.2009 81.908 47.4329 82.372C47.6729 82.836 48.0049 83.192 48.4289 83.44C48.8529 83.688 49.3369 83.812 49.8809 83.812C50.4169 83.812 50.8929 83.688 51.3089 83.44C51.7329 83.192 52.0609 82.836 52.2929 82.372C52.5329 81.908 52.6529 81.368 52.6529 80.752C52.6529 80.136 52.5329 79.596 52.2929 79.132C52.0609 78.668 51.7329 78.312 51.3089 78.064C50.8929 77.816 50.4169 77.692 49.8809 77.692ZM56.8054 76.528V85H55.4374V76.528H56.8054ZM59.8288 83.932H62.7568V85H58.4608V76.528H59.8288V83.932Z" fill="white"/>
    <path opacity="0.25" d="M57.608 25.444C58.648 25.444 59.512 25.708 60.2 26.236C60.888 26.764 61.352 27.48 61.592 28.384H60.14C59.94 27.872 59.62 27.468 59.18 27.172C58.748 26.868 58.216 26.716 57.584 26.716C57.08 26.716 56.628 26.84 56.228 27.088C55.836 27.336 55.524 27.692 55.292 28.156C55.068 28.612 54.956 29.148 54.956 29.764C54.956 30.372 55.068 30.908 55.292 31.372C55.524 31.828 55.836 32.18 56.228 32.428C56.628 32.676 57.08 32.8 57.584 32.8C58.216 32.8 58.748 32.652 59.18 32.356C59.62 32.052 59.94 31.648 60.14 31.144H61.592C61.352 32.048 60.888 32.764 60.2 33.292C59.512 33.812 58.648 34.072 57.608 34.072C56.808 34.072 56.1 33.892 55.484 33.532C54.868 33.164 54.392 32.656 54.056 32.008C53.72 31.352 53.552 30.604 53.552 29.764C53.552 28.924 53.72 28.18 54.056 27.532C54.392 26.876 54.868 26.364 55.484 25.996C56.1 25.628 56.808 25.444 57.608 25.444ZM64.3249 32.932H67.2529V34H62.9569V25.528H64.3249V32.932ZM69.6921 26.632V29.2H72.8121V30.256H69.6921V32.884H73.1721V34H68.3241V25.528H73.1721V26.632H69.6921ZM79.5519 32.164H75.9759L75.3279 34H73.8639L76.9839 25.66H78.5559L81.6639 34H80.1999L79.5519 32.164ZM79.1679 31.108L77.7639 27.148L76.3599 31.108H79.1679ZM89.5316 34H88.1636L84.0476 27.748V34H82.6796V25.54H84.0476L88.1636 31.816V25.54H89.5316V34Z" fill="white"/>
    <path opacity="0.25" d="M136.789 4.42C137.573 4.42 138.281 4.604 138.913 4.972C139.553 5.34 140.053 5.856 140.413 6.52C140.781 7.176 140.965 7.92 140.965 8.752C140.965 9.584 140.781 10.332 140.413 10.996C140.053 11.652 139.553 12.168 138.913 12.544C138.281 12.912 137.573 13.096 136.789 13.096C135.997 13.096 135.281 12.912 134.641 12.544C134.009 12.168 133.509 11.652 133.141 10.996C132.773 10.332 132.589 9.584 132.589 8.752C132.589 7.92 132.773 7.176 133.141 6.52C133.509 5.856 134.009 5.34 134.641 4.972C135.281 4.604 135.997 4.42 136.789 4.42ZM136.789 5.692C136.245 5.692 135.761 5.816 135.337 6.064C134.913 6.312 134.581 6.668 134.341 7.132C134.109 7.596 133.993 8.136 133.993 8.752C133.993 9.368 134.109 9.908 134.341 10.372C134.581 10.836 134.913 11.192 135.337 11.44C135.761 11.688 136.245 11.812 136.789 11.812C137.325 11.812 137.801 11.688 138.217 11.44C138.641 11.192 138.969 10.836 139.201 10.372C139.441 9.908 139.561 9.368 139.561 8.752C139.561 8.136 139.441 7.596 139.201 7.132C138.969 6.668 138.641 6.312 138.217 6.064C137.801 5.816 137.325 5.692 136.789 5.692ZM147.35 4.528V5.632H143.714V8.26H146.714V9.316H143.714V13H142.346V4.528H147.35ZM153.572 4.528V5.632H149.936V8.26H152.936V9.316H149.936V13H148.568V4.528H153.572Z" fill="white"/>
</svg>
