<svg width="321" height="187" viewBox="0 0 321 187" fill="none" xmlns="http://www.w3.org/2000/svg">
    <rect x="1.39062" y="1.09766" width="318.219" height="185.133" rx="5.5" stroke="white"/>
    <rect opacity="0.25" x="22.5" y="47.5" width="62" height="114" rx="1.5" fill="white" stroke="white"/>
    <path d="M110.735 139.12C110.735 139.474 110.652 139.807 110.485 140.12C110.319 140.434 110.052 140.69 109.685 140.89C109.319 141.084 108.849 141.18 108.275 141.18H107.015V144H105.875V137.05H108.275C108.809 137.05 109.259 137.144 109.625 137.33C109.999 137.51 110.275 137.757 110.455 138.07C110.642 138.384 110.735 138.734 110.735 139.12ZM108.275 140.25C108.709 140.25 109.032 140.154 109.245 139.96C109.459 139.76 109.565 139.48 109.565 139.12C109.565 138.36 109.135 137.98 108.275 137.98H107.015V140.25H108.275ZM116.253 142.58H113.343L112.843 144H111.653L114.143 137.04H115.463L117.953 144H116.753L116.253 142.58ZM115.933 141.65L114.803 138.42L113.663 141.65H115.933ZM121.565 144.07C121.099 144.07 120.679 143.99 120.305 143.83C119.932 143.664 119.639 143.43 119.425 143.13C119.212 142.83 119.105 142.48 119.105 142.08H120.325C120.352 142.38 120.469 142.627 120.675 142.82C120.889 143.014 121.185 143.11 121.565 143.11C121.959 143.11 122.265 143.017 122.485 142.83C122.705 142.637 122.815 142.39 122.815 142.09C122.815 141.857 122.745 141.667 122.605 141.52C122.472 141.374 122.302 141.26 122.095 141.18C121.895 141.1 121.615 141.014 121.255 140.92C120.802 140.8 120.432 140.68 120.145 140.56C119.865 140.434 119.625 140.24 119.425 139.98C119.225 139.72 119.125 139.374 119.125 138.94C119.125 138.54 119.225 138.19 119.425 137.89C119.625 137.59 119.905 137.36 120.265 137.2C120.625 137.04 121.042 136.96 121.515 136.96C122.189 136.96 122.739 137.13 123.165 137.47C123.599 137.804 123.839 138.264 123.885 138.85H122.625C122.605 138.597 122.485 138.38 122.265 138.2C122.045 138.02 121.755 137.93 121.395 137.93C121.069 137.93 120.802 138.014 120.595 138.18C120.389 138.347 120.285 138.587 120.285 138.9C120.285 139.114 120.349 139.29 120.475 139.43C120.609 139.564 120.775 139.67 120.975 139.75C121.175 139.83 121.449 139.917 121.795 140.01C122.255 140.137 122.629 140.264 122.915 140.39C123.209 140.517 123.455 140.714 123.655 140.98C123.862 141.24 123.965 141.59 123.965 142.03C123.965 142.384 123.869 142.717 123.675 143.03C123.489 143.344 123.212 143.597 122.845 143.79C122.485 143.977 122.059 144.07 121.565 144.07ZM127.841 144.07C127.374 144.07 126.954 143.99 126.581 143.83C126.207 143.664 125.914 143.43 125.701 143.13C125.487 142.83 125.381 142.48 125.381 142.08H126.601C126.627 142.38 126.744 142.627 126.951 142.82C127.164 143.014 127.461 143.11 127.841 143.11C128.234 143.11 128.541 143.017 128.761 142.83C128.981 142.637 129.091 142.39 129.091 142.09C129.091 141.857 129.021 141.667 128.881 141.52C128.747 141.374 128.577 141.26 128.371 141.18C128.171 141.1 127.891 141.014 127.531 140.92C127.077 140.8 126.707 140.68 126.421 140.56C126.141 140.434 125.901 140.24 125.701 139.98C125.501 139.72 125.401 139.374 125.401 138.94C125.401 138.54 125.501 138.19 125.701 137.89C125.901 137.59 126.181 137.36 126.541 137.2C126.901 137.04 127.317 136.96 127.791 136.96C128.464 136.96 129.014 137.13 129.441 137.47C129.874 137.804 130.114 138.264 130.161 138.85H128.901C128.881 138.597 128.761 138.38 128.541 138.2C128.321 138.02 128.031 137.93 127.671 137.93C127.344 137.93 127.077 138.014 126.871 138.18C126.664 138.347 126.561 138.587 126.561 138.9C126.561 139.114 126.624 139.29 126.751 139.43C126.884 139.564 127.051 139.67 127.251 139.75C127.451 139.83 127.724 139.917 128.071 140.01C128.531 140.137 128.904 140.264 129.191 140.39C129.484 140.517 129.731 140.714 129.931 140.98C130.137 141.24 130.241 141.59 130.241 142.03C130.241 142.384 130.144 142.717 129.951 143.03C129.764 143.344 129.487 143.597 129.121 143.79C128.761 143.977 128.334 144.07 127.841 144.07ZM140.876 137.05L138.816 144H137.526L136.066 138.74L134.516 144L133.236 144.01L131.266 137.05H132.476L133.916 142.71L135.476 137.05H136.756L138.206 142.68L139.656 137.05H140.876ZM145.226 144.07C144.579 144.07 143.983 143.92 143.436 143.62C142.896 143.314 142.466 142.89 142.146 142.35C141.833 141.804 141.676 141.19 141.676 140.51C141.676 139.83 141.833 139.22 142.146 138.68C142.466 138.14 142.896 137.72 143.436 137.42C143.983 137.114 144.579 136.96 145.226 136.96C145.879 136.96 146.476 137.114 147.016 137.42C147.563 137.72 147.993 138.14 148.306 138.68C148.619 139.22 148.776 139.83 148.776 140.51C148.776 141.19 148.619 141.804 148.306 142.35C147.993 142.89 147.563 143.314 147.016 143.62C146.476 143.92 145.879 144.07 145.226 144.07ZM145.226 143.08C145.686 143.08 146.096 142.977 146.456 142.77C146.816 142.557 147.096 142.257 147.296 141.87C147.503 141.477 147.606 141.024 147.606 140.51C147.606 139.997 147.503 139.547 147.296 139.16C147.096 138.774 146.816 138.477 146.456 138.27C146.096 138.064 145.686 137.96 145.226 137.96C144.766 137.96 144.356 138.064 143.996 138.27C143.636 138.477 143.353 138.774 143.146 139.16C142.946 139.547 142.846 139.997 142.846 140.51C142.846 141.024 142.946 141.477 143.146 141.87C143.353 142.257 143.636 142.557 143.996 142.77C144.356 142.977 144.766 143.08 145.226 143.08ZM153.748 144L152.148 141.22H151.278V144H150.138V137.05H152.538C153.071 137.05 153.521 137.144 153.888 137.33C154.261 137.517 154.538 137.767 154.718 138.08C154.904 138.394 154.998 138.744 154.998 139.13C154.998 139.584 154.864 139.997 154.598 140.37C154.338 140.737 153.934 140.987 153.388 141.12L155.108 144H153.748ZM151.278 140.31H152.538C152.964 140.31 153.284 140.204 153.498 139.99C153.718 139.777 153.828 139.49 153.828 139.13C153.828 138.77 153.721 138.49 153.508 138.29C153.294 138.084 152.971 137.98 152.538 137.98H151.278V140.31ZM158.966 137.05C159.706 137.05 160.353 137.194 160.906 137.48C161.466 137.76 161.896 138.167 162.196 138.7C162.503 139.227 162.656 139.844 162.656 140.55C162.656 141.257 162.503 141.87 162.196 142.39C161.896 142.91 161.466 143.31 160.906 143.59C160.353 143.864 159.706 144 158.966 144H156.696V137.05H158.966ZM158.966 143.07C159.779 143.07 160.403 142.85 160.836 142.41C161.269 141.97 161.486 141.35 161.486 140.55C161.486 139.744 161.269 139.114 160.836 138.66C160.403 138.207 159.779 137.98 158.966 137.98H157.836V143.07H158.966Z" fill="white"/>
    <path opacity="0.25" d="M108.04 99.0705C107.573 99.0705 107.153 98.9905 106.78 98.8305C106.407 98.6638 106.113 98.4305 105.9 98.1305C105.687 97.8305 105.58 97.4805 105.58 97.0805H106.8C106.827 97.3805 106.943 97.6272 107.15 97.8205C107.363 98.0138 107.66 98.1105 108.04 98.1105C108.433 98.1105 108.74 98.0172 108.96 97.8305C109.18 97.6372 109.29 97.3905 109.29 97.0905C109.29 96.8572 109.22 96.6672 109.08 96.5205C108.947 96.3738 108.777 96.2605 108.57 96.1805C108.37 96.1005 108.09 96.0138 107.73 95.9205C107.277 95.8005 106.907 95.6805 106.62 95.5605C106.34 95.4338 106.1 95.2405 105.9 94.9805C105.7 94.7205 105.6 94.3738 105.6 93.9405C105.6 93.5405 105.7 93.1905 105.9 92.8905C106.1 92.5905 106.38 92.3605 106.74 92.2005C107.1 92.0405 107.517 91.9605 107.99 91.9605C108.663 91.9605 109.213 92.1305 109.64 92.4705C110.073 92.8038 110.313 93.2638 110.36 93.8505H109.1C109.08 93.5972 108.96 93.3805 108.74 93.2005C108.52 93.0205 108.23 92.9305 107.87 92.9305C107.543 92.9305 107.277 93.0138 107.07 93.1805C106.863 93.3472 106.76 93.5872 106.76 93.9005C106.76 94.1138 106.823 94.2905 106.95 94.4305C107.083 94.5638 107.25 94.6705 107.45 94.7505C107.65 94.8305 107.923 94.9172 108.27 95.0105C108.73 95.1372 109.103 95.2638 109.39 95.3905C109.683 95.5172 109.93 95.7138 110.13 95.9805C110.337 96.2405 110.44 96.5905 110.44 97.0305C110.44 97.3838 110.343 97.7172 110.15 98.0305C109.963 98.3438 109.687 98.5972 109.32 98.7905C108.96 98.9772 108.533 99.0705 108.04 99.0705ZM114.315 99.0705C113.848 99.0705 113.428 98.9905 113.055 98.8305C112.682 98.6638 112.388 98.4305 112.175 98.1305C111.962 97.8305 111.855 97.4805 111.855 97.0805H113.075C113.102 97.3805 113.218 97.6272 113.425 97.8205C113.638 98.0138 113.935 98.1105 114.315 98.1105C114.708 98.1105 115.015 98.0172 115.235 97.8305C115.455 97.6372 115.565 97.3905 115.565 97.0905C115.565 96.8572 115.495 96.6672 115.355 96.5205C115.222 96.3738 115.052 96.2605 114.845 96.1805C114.645 96.1005 114.365 96.0138 114.005 95.9205C113.552 95.8005 113.182 95.6805 112.895 95.5605C112.615 95.4338 112.375 95.2405 112.175 94.9805C111.975 94.7205 111.875 94.3738 111.875 93.9405C111.875 93.5405 111.975 93.1905 112.175 92.8905C112.375 92.5905 112.655 92.3605 113.015 92.2005C113.375 92.0405 113.792 91.9605 114.265 91.9605C114.938 91.9605 115.488 92.1305 115.915 92.4705C116.348 92.8038 116.588 93.2638 116.635 93.8505H115.375C115.355 93.5972 115.235 93.3805 115.015 93.2005C114.795 93.0205 114.505 92.9305 114.145 92.9305C113.818 92.9305 113.552 93.0138 113.345 93.1805C113.138 93.3472 113.035 93.5872 113.035 93.9005C113.035 94.1138 113.098 94.2905 113.225 94.4305C113.358 94.5638 113.525 94.6705 113.725 94.7505C113.925 94.8305 114.198 94.9172 114.545 95.0105C115.005 95.1372 115.378 95.2638 115.665 95.3905C115.958 95.5172 116.205 95.7138 116.405 95.9805C116.612 96.2405 116.715 96.5905 116.715 97.0305C116.715 97.3838 116.618 97.7172 116.425 98.0305C116.238 98.3438 115.962 98.5972 115.595 98.7905C115.235 98.9772 114.808 99.0705 114.315 99.0705ZM119.44 92.0505V99.0005H118.3V92.0505H119.44ZM123.447 92.0505C124.187 92.0505 124.834 92.1938 125.387 92.4805C125.947 92.7605 126.377 93.1672 126.677 93.7005C126.984 94.2272 127.137 94.8438 127.137 95.5505C127.137 96.2572 126.984 96.8705 126.677 97.3905C126.377 97.9105 125.947 98.3105 125.387 98.5905C124.834 98.8638 124.187 99.0005 123.447 99.0005H121.177V92.0505H123.447ZM123.447 98.0705C124.26 98.0705 124.884 97.8505 125.317 97.4105C125.75 96.9705 125.967 96.3505 125.967 95.5505C125.967 94.7438 125.75 94.1138 125.317 93.6605C124.884 93.2072 124.26 92.9805 123.447 92.9805H122.317V98.0705H123.447Z" fill="white"/>
    <path opacity="0.25" d="M110.905 110.269C110.725 109.923 110.475 109.663 110.155 109.489C109.835 109.309 109.465 109.219 109.045 109.219C108.585 109.219 108.175 109.323 107.815 109.529C107.455 109.736 107.172 110.029 106.965 110.409C106.765 110.789 106.665 111.229 106.665 111.729C106.665 112.229 106.765 112.673 106.965 113.059C107.172 113.439 107.455 113.733 107.815 113.939C108.175 114.146 108.585 114.249 109.045 114.249C109.665 114.249 110.169 114.076 110.555 113.729C110.942 113.383 111.179 112.913 111.265 112.319H108.655V111.409H112.485V112.299C112.412 112.839 112.219 113.336 111.905 113.789C111.599 114.243 111.195 114.606 110.695 114.879C110.202 115.146 109.652 115.279 109.045 115.279C108.392 115.279 107.795 115.129 107.255 114.829C106.715 114.523 106.285 114.099 105.965 113.559C105.652 113.019 105.495 112.409 105.495 111.729C105.495 111.049 105.652 110.439 105.965 109.899C106.285 109.359 106.715 108.939 107.255 108.639C107.802 108.333 108.399 108.179 109.045 108.179C109.785 108.179 110.442 108.363 111.015 108.729C111.595 109.089 112.015 109.603 112.275 110.269H110.905ZM114.99 109.189V111.229H117.39V112.159H114.99V114.289H117.69V115.219H113.85V108.259H117.69V109.189H114.99ZM125.424 115.619V116.679H119.844V115.619H125.424ZM134.873 108.269V115.219H133.733V110.459L131.613 115.219H130.823L128.693 110.459V115.219H127.553V108.269H128.783L131.223 113.719L133.653 108.269H134.873ZM139.781 115.289C139.134 115.289 138.538 115.139 137.991 114.839C137.451 114.533 137.021 114.109 136.701 113.569C136.388 113.023 136.231 112.409 136.231 111.729C136.231 111.049 136.388 110.439 136.701 109.899C137.021 109.359 137.451 108.939 137.991 108.639C138.538 108.333 139.134 108.179 139.781 108.179C140.434 108.179 141.031 108.333 141.571 108.639C142.118 108.939 142.548 109.359 142.861 109.899C143.174 110.439 143.331 111.049 143.331 111.729C143.331 112.409 143.174 113.023 142.861 113.569C142.548 114.109 142.118 114.533 141.571 114.839C141.031 115.139 140.434 115.289 139.781 115.289ZM139.781 114.299C140.241 114.299 140.651 114.196 141.011 113.989C141.371 113.776 141.651 113.476 141.851 113.089C142.058 112.696 142.161 112.243 142.161 111.729C142.161 111.216 142.058 110.766 141.851 110.379C141.651 109.993 141.371 109.696 141.011 109.489C140.651 109.283 140.241 109.179 139.781 109.179C139.321 109.179 138.911 109.283 138.551 109.489C138.191 109.696 137.908 109.993 137.701 110.379C137.501 110.766 137.401 111.216 137.401 111.729C137.401 112.243 137.501 112.696 137.701 113.089C137.908 113.476 138.191 113.776 138.551 113.989C138.911 114.196 139.321 114.299 139.781 114.299ZM146.963 108.269C147.703 108.269 148.349 108.413 148.903 108.699C149.463 108.979 149.893 109.386 150.193 109.919C150.499 110.446 150.653 111.063 150.653 111.769C150.653 112.476 150.499 113.089 150.193 113.609C149.893 114.129 149.463 114.529 148.903 114.809C148.349 115.083 147.703 115.219 146.963 115.219H144.693V108.269H146.963ZM146.963 114.289C147.776 114.289 148.399 114.069 148.833 113.629C149.266 113.189 149.483 112.569 149.483 111.769C149.483 110.963 149.266 110.333 148.833 109.879C148.399 109.426 147.776 109.199 146.963 109.199H145.833V114.289H146.963ZM153.153 108.269V112.699C153.153 113.226 153.289 113.623 153.563 113.889C153.843 114.156 154.229 114.289 154.723 114.289C155.223 114.289 155.609 114.156 155.883 113.889C156.163 113.623 156.303 113.226 156.303 112.699V108.269H157.443V112.679C157.443 113.246 157.319 113.726 157.073 114.119C156.826 114.513 156.496 114.806 156.083 114.999C155.669 115.193 155.213 115.289 154.713 115.289C154.213 115.289 153.756 115.193 153.343 114.999C152.936 114.806 152.613 114.513 152.373 114.119C152.133 113.726 152.013 113.246 152.013 112.679V108.269H153.153ZM160.307 114.299H162.657V115.219H159.167V108.269H160.307V114.299ZM164.99 109.189V111.229H167.39V112.159H164.99V114.289H167.69V115.219H163.85V108.259H167.69V109.189H164.99ZM175.424 115.619V116.679H169.844V115.619H175.424ZM180.743 111.749L182.903 115.219H181.623L180.053 112.699L178.583 115.219H177.313L179.473 111.749L177.303 108.269H178.583L180.163 110.809L181.643 108.269H182.913L180.743 111.749ZM187.584 111.749L189.744 115.219H188.464L186.894 112.699L185.424 115.219H184.154L186.314 111.749L184.144 108.269H185.424L187.004 110.809L188.484 108.269H189.754L187.584 111.749ZM194.426 111.749L196.586 115.219H195.306L193.736 112.699L192.266 115.219H190.996L193.156 111.749L190.986 108.269H192.266L193.846 110.809L195.326 108.269H196.596L194.426 111.749ZM201.268 111.749L203.428 115.219H202.148L200.578 112.699L199.108 115.219H197.838L199.998 111.749L197.828 108.269H199.108L200.688 110.809L202.168 108.269H203.438L201.268 111.749Z" fill="white"/>
    <path opacity="0.25" d="M232.88 92.0505V96.4805C232.88 97.0072 233.017 97.4038 233.29 97.6705C233.57 97.9372 233.957 98.0705 234.45 98.0705C234.95 98.0705 235.337 97.9372 235.61 97.6705C235.89 97.4038 236.03 97.0072 236.03 96.4805V92.0505H237.17V96.4605C237.17 97.0272 237.047 97.5072 236.8 97.9005C236.553 98.2938 236.223 98.5872 235.81 98.7805C235.397 98.9738 234.94 99.0705 234.44 99.0705C233.94 99.0705 233.483 98.9738 233.07 98.7805C232.663 98.5872 232.34 98.2938 232.1 97.9005C231.86 97.5072 231.74 97.0272 231.74 96.4605V92.0505H232.88ZM243.754 94.1205C243.754 94.4738 243.671 94.8072 243.504 95.1205C243.338 95.4338 243.071 95.6905 242.704 95.8905C242.338 96.0838 241.868 96.1805 241.294 96.1805H240.034V99.0005H238.894V92.0505H241.294C241.828 92.0505 242.278 92.1438 242.644 92.3305C243.018 92.5105 243.294 92.7572 243.474 93.0705C243.661 93.3838 243.754 93.7338 243.754 94.1205ZM241.294 95.2505C241.728 95.2505 242.051 95.1538 242.264 94.9605C242.478 94.7605 242.584 94.4805 242.584 94.1205C242.584 93.3605 242.154 92.9805 241.294 92.9805H240.034V95.2505H241.294ZM247.352 92.0505C248.092 92.0505 248.738 92.1938 249.292 92.4805C249.852 92.7605 250.282 93.1672 250.582 93.7005C250.888 94.2272 251.042 94.8438 251.042 95.5505C251.042 96.2572 250.888 96.8705 250.582 97.3905C250.282 97.9105 249.852 98.3105 249.292 98.5905C248.738 98.8638 248.092 99.0005 247.352 99.0005H245.082V92.0505H247.352ZM247.352 98.0705C248.165 98.0705 248.788 97.8505 249.222 97.4105C249.655 96.9705 249.872 96.3505 249.872 95.5505C249.872 94.7438 249.655 94.1138 249.222 93.6605C248.788 93.2072 248.165 92.9805 247.352 92.9805H246.222V98.0705H247.352Z" fill="white"/>
    <path opacity="0.25" d="M238.835 137.05V144H237.695V139.24L235.575 144H234.785L232.655 139.24V144H231.515V137.05H232.745L235.185 142.5L237.615 137.05H238.835ZM244.763 142.58H241.853L241.353 144H240.163L242.653 137.04H243.973L246.463 144H245.263L244.763 142.58ZM244.443 141.65L243.313 138.42L242.173 141.65H244.443ZM247.406 140.51C247.406 139.83 247.563 139.22 247.876 138.68C248.196 138.14 248.626 137.72 249.166 137.42C249.713 137.114 250.309 136.96 250.956 136.96C251.696 136.96 252.353 137.144 252.926 137.51C253.506 137.87 253.926 138.384 254.186 139.05H252.816C252.636 138.684 252.386 138.41 252.066 138.23C251.746 138.05 251.376 137.96 250.956 137.96C250.496 137.96 250.086 138.064 249.726 138.27C249.366 138.477 249.083 138.774 248.876 139.16C248.676 139.547 248.576 139.997 248.576 140.51C248.576 141.024 248.676 141.474 248.876 141.86C249.083 142.247 249.366 142.547 249.726 142.76C250.086 142.967 250.496 143.07 250.956 143.07C251.376 143.07 251.746 142.98 252.066 142.8C252.386 142.62 252.636 142.347 252.816 141.98H254.186C253.926 142.647 253.506 143.16 252.926 143.52C252.353 143.88 251.696 144.06 250.956 144.06C250.303 144.06 249.706 143.91 249.166 143.61C248.626 143.304 248.196 142.88 247.876 142.34C247.563 141.8 247.406 141.19 247.406 140.51ZM259.738 137.05V144H258.598V137.05H259.738ZM263.745 137.05C264.485 137.05 265.132 137.194 265.685 137.48C266.245 137.76 266.675 138.167 266.975 138.7C267.282 139.227 267.435 139.844 267.435 140.55C267.435 141.257 267.282 141.87 266.975 142.39C266.675 142.91 266.245 143.31 265.685 143.59C265.132 143.864 264.485 144 263.745 144H261.475V137.05H263.745ZM263.745 143.07C264.558 143.07 265.182 142.85 265.615 142.41C266.048 141.97 266.265 141.35 266.265 140.55C266.265 139.744 266.048 139.114 265.615 138.66C265.182 138.207 264.558 137.98 263.745 137.98H262.615V143.07H263.745Z" fill="white"/>
    <path opacity="0.25" d="M107.646 49.727C108.33 49.727 108.921 49.856 109.419 50.114C109.923 50.366 110.307 50.729 110.571 51.203C110.841 51.677 110.976 52.235 110.976 52.877C110.976 53.519 110.841 54.077 110.571 54.551C110.307 55.019 109.923 55.379 109.419 55.631C108.921 55.877 108.33 56 107.646 56H105.693V49.727H107.646ZM107.646 55.325C108.456 55.325 109.074 55.112 109.5 54.686C109.926 54.254 110.139 53.651 110.139 52.877C110.139 52.097 109.923 51.488 109.491 51.05C109.065 50.612 108.45 50.393 107.646 50.393H106.512V55.325H107.646ZM114.207 56.081C113.745 56.081 113.325 55.976 112.947 55.766C112.575 55.556 112.281 55.259 112.065 54.875C111.855 54.485 111.75 54.035 111.75 53.525C111.75 53.021 111.858 52.577 112.074 52.193C112.296 51.803 112.596 51.506 112.974 51.302C113.352 51.092 113.775 50.987 114.243 50.987C114.711 50.987 115.134 51.092 115.512 51.302C115.89 51.506 116.187 51.8 116.403 52.184C116.625 52.568 116.736 53.015 116.736 53.525C116.736 54.035 116.622 54.485 116.394 54.875C116.172 55.259 115.869 55.556 115.485 55.766C115.101 55.976 114.675 56.081 114.207 56.081ZM114.207 55.361C114.501 55.361 114.777 55.292 115.035 55.154C115.293 55.016 115.5 54.809 115.656 54.533C115.818 54.257 115.899 53.921 115.899 53.525C115.899 53.129 115.821 52.793 115.665 52.517C115.509 52.241 115.305 52.037 115.053 51.905C114.801 51.767 114.528 51.698 114.234 51.698C113.934 51.698 113.658 51.767 113.406 51.905C113.16 52.037 112.962 52.241 112.812 52.517C112.662 52.793 112.587 53.129 112.587 53.525C112.587 53.927 112.659 54.266 112.803 54.542C112.953 54.818 113.151 55.025 113.397 55.163C113.643 55.295 113.913 55.361 114.207 55.361ZM124.383 51.068L122.844 56H121.998L120.81 52.085L119.622 56H118.776L117.228 51.068H118.065L119.199 55.208L120.423 51.068H121.26L122.457 55.217L123.573 51.068H124.383ZM127.599 50.978C128.199 50.978 128.685 51.161 129.057 51.527C129.429 51.887 129.615 52.409 129.615 53.093V56H128.805V53.21C128.805 52.718 128.682 52.343 128.436 52.085C128.19 51.821 127.854 51.689 127.428 51.689C126.996 51.689 126.651 51.824 126.393 52.094C126.141 52.364 126.015 52.757 126.015 53.273V56H125.196V51.068H126.015V51.77C126.177 51.518 126.396 51.323 126.672 51.185C126.954 51.047 127.263 50.978 127.599 50.978ZM131.772 49.34V56H130.953V49.34H131.772ZM135.319 56.081C134.857 56.081 134.437 55.976 134.059 55.766C133.687 55.556 133.393 55.259 133.177 54.875C132.967 54.485 132.862 54.035 132.862 53.525C132.862 53.021 132.97 52.577 133.186 52.193C133.408 51.803 133.708 51.506 134.086 51.302C134.464 51.092 134.887 50.987 135.355 50.987C135.823 50.987 136.246 51.092 136.624 51.302C137.002 51.506 137.299 51.8 137.515 52.184C137.737 52.568 137.848 53.015 137.848 53.525C137.848 54.035 137.734 54.485 137.506 54.875C137.284 55.259 136.981 55.556 136.597 55.766C136.213 55.976 135.787 56.081 135.319 56.081ZM135.319 55.361C135.613 55.361 135.889 55.292 136.147 55.154C136.405 55.016 136.612 54.809 136.768 54.533C136.93 54.257 137.011 53.921 137.011 53.525C137.011 53.129 136.933 52.793 136.777 52.517C136.621 52.241 136.417 52.037 136.165 51.905C135.913 51.767 135.64 51.698 135.346 51.698C135.046 51.698 134.77 51.767 134.518 51.905C134.272 52.037 134.074 52.241 133.924 52.517C133.774 52.793 133.699 53.129 133.699 53.525C133.699 53.927 133.771 54.266 133.915 54.542C134.065 54.818 134.263 55.025 134.509 55.163C134.755 55.295 135.025 55.361 135.319 55.361ZM138.618 53.516C138.618 53.012 138.72 52.571 138.924 52.193C139.128 51.809 139.407 51.512 139.761 51.302C140.121 51.092 140.52 50.987 140.958 50.987C141.39 50.987 141.765 51.08 142.083 51.266C142.401 51.452 142.638 51.686 142.794 51.968V51.068H143.622V56H142.794V55.082C142.632 55.37 142.389 55.61 142.065 55.802C141.747 55.988 141.375 56.081 140.949 56.081C140.511 56.081 140.115 55.973 139.761 55.757C139.407 55.541 139.128 55.238 138.924 54.848C138.72 54.458 138.618 54.014 138.618 53.516ZM142.794 53.525C142.794 53.153 142.719 52.829 142.569 52.553C142.419 52.277 142.215 52.067 141.957 51.923C141.705 51.773 141.426 51.698 141.12 51.698C140.814 51.698 140.535 51.77 140.283 51.914C140.031 52.058 139.83 52.268 139.68 52.544C139.53 52.82 139.455 53.144 139.455 53.516C139.455 53.894 139.53 54.224 139.68 54.506C139.83 54.782 140.031 54.995 140.283 55.145C140.535 55.289 140.814 55.361 141.12 55.361C141.426 55.361 141.705 55.289 141.957 55.145C142.215 54.995 142.419 54.782 142.569 54.506C142.719 54.224 142.794 53.897 142.794 53.525ZM144.7 53.516C144.7 53.012 144.802 52.571 145.006 52.193C145.21 51.809 145.489 51.512 145.843 51.302C146.203 51.092 146.605 50.987 147.049 50.987C147.433 50.987 147.79 51.077 148.12 51.257C148.45 51.431 148.702 51.662 148.876 51.95V49.34H149.704V56H148.876V55.073C148.714 55.367 148.474 55.61 148.156 55.802C147.838 55.988 147.466 56.081 147.04 56.081C146.602 56.081 146.203 55.973 145.843 55.757C145.489 55.541 145.21 55.238 145.006 54.848C144.802 54.458 144.7 54.014 144.7 53.516ZM148.876 53.525C148.876 53.153 148.801 52.829 148.651 52.553C148.501 52.277 148.297 52.067 148.039 51.923C147.787 51.773 147.508 51.698 147.202 51.698C146.896 51.698 146.617 51.77 146.365 51.914C146.113 52.058 145.912 52.268 145.762 52.544C145.612 52.82 145.537 53.144 145.537 53.516C145.537 53.894 145.612 54.224 145.762 54.506C145.912 54.782 146.113 54.995 146.365 55.145C146.617 55.289 146.896 55.361 147.202 55.361C147.508 55.361 147.787 55.289 148.039 55.145C148.297 54.995 148.501 54.782 148.651 54.506C148.801 54.224 148.876 53.897 148.876 53.525ZM155.639 56.081C155.177 56.081 154.757 55.976 154.379 55.766C154.007 55.556 153.713 55.259 153.497 54.875C153.287 54.485 153.182 54.035 153.182 53.525C153.182 53.021 153.29 52.577 153.506 52.193C153.728 51.803 154.028 51.506 154.406 51.302C154.784 51.092 155.207 50.987 155.675 50.987C156.143 50.987 156.566 51.092 156.944 51.302C157.322 51.506 157.619 51.8 157.835 52.184C158.057 52.568 158.168 53.015 158.168 53.525C158.168 54.035 158.054 54.485 157.826 54.875C157.604 55.259 157.301 55.556 156.917 55.766C156.533 55.976 156.107 56.081 155.639 56.081ZM155.639 55.361C155.933 55.361 156.209 55.292 156.467 55.154C156.725 55.016 156.932 54.809 157.088 54.533C157.25 54.257 157.331 53.921 157.331 53.525C157.331 53.129 157.253 52.793 157.097 52.517C156.941 52.241 156.737 52.037 156.485 51.905C156.233 51.767 155.96 51.698 155.666 51.698C155.366 51.698 155.09 51.767 154.838 51.905C154.592 52.037 154.394 52.241 154.244 52.517C154.094 52.793 154.019 53.129 154.019 53.525C154.019 53.927 154.091 54.266 154.235 54.542C154.385 54.818 154.583 55.025 154.829 55.163C155.075 55.295 155.345 55.361 155.639 55.361ZM160.064 51.869C160.208 51.587 160.412 51.368 160.676 51.212C160.946 51.056 161.273 50.978 161.657 50.978V51.824H161.441C160.523 51.824 160.064 52.322 160.064 53.318V56H159.245V51.068H160.064V51.869ZM167.153 56.081C166.691 56.081 166.271 55.976 165.893 55.766C165.521 55.556 165.227 55.259 165.011 54.875C164.801 54.485 164.696 54.035 164.696 53.525C164.696 53.021 164.804 52.577 165.02 52.193C165.242 51.803 165.542 51.506 165.92 51.302C166.298 51.092 166.721 50.987 167.189 50.987C167.657 50.987 168.08 51.092 168.458 51.302C168.836 51.506 169.133 51.8 169.349 52.184C169.571 52.568 169.682 53.015 169.682 53.525C169.682 54.035 169.568 54.485 169.34 54.875C169.118 55.259 168.815 55.556 168.431 55.766C168.047 55.976 167.621 56.081 167.153 56.081ZM167.153 55.361C167.447 55.361 167.723 55.292 167.981 55.154C168.239 55.016 168.446 54.809 168.602 54.533C168.764 54.257 168.845 53.921 168.845 53.525C168.845 53.129 168.767 52.793 168.611 52.517C168.455 52.241 168.251 52.037 167.999 51.905C167.747 51.767 167.474 51.698 167.18 51.698C166.88 51.698 166.604 51.767 166.352 51.905C166.106 52.037 165.908 52.241 165.758 52.517C165.608 52.793 165.533 53.129 165.533 53.525C165.533 53.927 165.605 54.266 165.749 54.542C165.899 54.818 166.097 55.025 166.343 55.163C166.589 55.295 166.859 55.361 167.153 55.361ZM171.577 51.977C171.739 51.695 171.979 51.461 172.297 51.275C172.621 51.083 172.996 50.987 173.422 50.987C173.86 50.987 174.256 51.092 174.61 51.302C174.97 51.512 175.252 51.809 175.456 52.193C175.66 52.571 175.762 53.012 175.762 53.516C175.762 54.014 175.66 54.458 175.456 54.848C175.252 55.238 174.97 55.541 174.61 55.757C174.256 55.973 173.86 56.081 173.422 56.081C173.002 56.081 172.63 55.988 172.306 55.802C171.988 55.61 171.745 55.373 171.577 55.091V58.34H170.758V51.068H171.577V51.977ZM174.925 53.516C174.925 53.144 174.85 52.82 174.7 52.544C174.55 52.268 174.346 52.058 174.088 51.914C173.836 51.77 173.557 51.698 173.251 51.698C172.951 51.698 172.672 51.773 172.414 51.923C172.162 52.067 171.958 52.28 171.802 52.562C171.652 52.838 171.577 53.159 171.577 53.525C171.577 53.897 171.652 54.224 171.802 54.506C171.958 54.782 172.162 54.995 172.414 55.145C172.672 55.289 172.951 55.361 173.251 55.361C173.557 55.361 173.836 55.289 174.088 55.145C174.346 54.995 174.55 54.782 174.7 54.506C174.85 54.224 174.925 53.894 174.925 53.516ZM181.34 53.345C181.34 53.501 181.331 53.666 181.313 53.84H177.371C177.401 54.326 177.566 54.707 177.866 54.983C178.172 55.253 178.541 55.388 178.973 55.388C179.327 55.388 179.621 55.307 179.855 55.145C180.095 54.977 180.263 54.755 180.359 54.479H181.241C181.109 54.953 180.845 55.34 180.449 55.64C180.053 55.934 179.561 56.081 178.973 56.081C178.505 56.081 178.085 55.976 177.713 55.766C177.347 55.556 177.059 55.259 176.849 54.875C176.639 54.485 176.534 54.035 176.534 53.525C176.534 53.015 176.636 52.568 176.84 52.184C177.044 51.8 177.329 51.506 177.695 51.302C178.067 51.092 178.493 50.987 178.973 50.987C179.441 50.987 179.855 51.089 180.215 51.293C180.575 51.497 180.851 51.779 181.043 52.139C181.241 52.493 181.34 52.895 181.34 53.345ZM180.494 53.174C180.494 52.862 180.425 52.595 180.287 52.373C180.149 52.145 179.96 51.974 179.72 51.86C179.486 51.74 179.225 51.68 178.937 51.68C178.523 51.68 178.169 51.812 177.875 52.076C177.587 52.34 177.422 52.706 177.38 53.174H180.494ZM184.825 50.978C185.425 50.978 185.911 51.161 186.283 51.527C186.655 51.887 186.841 52.409 186.841 53.093V56H186.031V53.21C186.031 52.718 185.908 52.343 185.662 52.085C185.416 51.821 185.08 51.689 184.654 51.689C184.222 51.689 183.877 51.824 183.619 52.094C183.367 52.364 183.241 52.757 183.241 53.273V56H182.422V51.068H183.241V51.77C183.403 51.518 183.622 51.323 183.898 51.185C184.18 51.047 184.489 50.978 184.825 50.978ZM191.577 51.743V54.65C191.577 54.89 191.628 55.061 191.73 55.163C191.832 55.259 192.009 55.307 192.261 55.307H192.864V56H192.126C191.67 56 191.328 55.895 191.1 55.685C190.872 55.475 190.758 55.13 190.758 54.65V51.743H190.119V51.068H190.758V49.826H191.577V51.068H192.864V51.743H191.577ZM196.304 50.978C196.676 50.978 197.012 51.059 197.312 51.221C197.612 51.377 197.846 51.614 198.014 51.932C198.188 52.25 198.275 52.637 198.275 53.093V56H197.465V53.21C197.465 52.718 197.342 52.343 197.096 52.085C196.85 51.821 196.514 51.689 196.088 51.689C195.656 51.689 195.311 51.824 195.053 52.094C194.801 52.364 194.675 52.757 194.675 53.273V56H193.856V49.34H194.675V51.77C194.837 51.518 195.059 51.323 195.341 51.185C195.629 51.047 195.95 50.978 196.304 50.978ZM204.113 53.345C204.113 53.501 204.104 53.666 204.086 53.84H200.144C200.174 54.326 200.339 54.707 200.639 54.983C200.945 55.253 201.314 55.388 201.746 55.388C202.1 55.388 202.394 55.307 202.628 55.145C202.868 54.977 203.036 54.755 203.132 54.479H204.014C203.882 54.953 203.618 55.34 203.222 55.64C202.826 55.934 202.334 56.081 201.746 56.081C201.278 56.081 200.858 55.976 200.486 55.766C200.12 55.556 199.832 55.259 199.622 54.875C199.412 54.485 199.307 54.035 199.307 53.525C199.307 53.015 199.409 52.568 199.613 52.184C199.817 51.8 200.102 51.506 200.468 51.302C200.84 51.092 201.266 50.987 201.746 50.987C202.214 50.987 202.628 51.089 202.988 51.293C203.348 51.497 203.624 51.779 203.816 52.139C204.014 52.493 204.113 52.895 204.113 53.345ZM203.267 53.174C203.267 52.862 203.198 52.595 203.06 52.373C202.922 52.145 202.733 51.974 202.493 51.86C202.259 51.74 201.998 51.68 201.71 51.68C201.296 51.68 200.942 51.812 200.648 52.076C200.36 52.34 200.195 52.706 200.153 53.174H203.267ZM209.582 56.063C209.168 56.063 208.796 55.991 208.466 55.847C208.142 55.697 207.887 55.493 207.701 55.235C207.515 54.971 207.419 54.668 207.413 54.326H208.286C208.316 54.62 208.436 54.869 208.646 55.073C208.862 55.271 209.174 55.37 209.582 55.37C209.972 55.37 210.278 55.274 210.5 55.082C210.728 54.884 210.842 54.632 210.842 54.326C210.842 54.086 210.776 53.891 210.644 53.741C210.512 53.591 210.347 53.477 210.149 53.399C209.951 53.321 209.684 53.237 209.348 53.147C208.934 53.039 208.601 52.931 208.349 52.823C208.103 52.715 207.89 52.547 207.71 52.319C207.536 52.085 207.449 51.773 207.449 51.383C207.449 51.041 207.536 50.738 207.71 50.474C207.884 50.21 208.127 50.006 208.439 49.862C208.757 49.718 209.12 49.646 209.528 49.646C210.116 49.646 210.596 49.793 210.968 50.087C211.346 50.381 211.559 50.771 211.607 51.257H210.707C210.677 51.017 210.551 50.807 210.329 50.627C210.107 50.441 209.813 50.348 209.447 50.348C209.105 50.348 208.826 50.438 208.61 50.618C208.394 50.792 208.286 51.038 208.286 51.356C208.286 51.584 208.349 51.77 208.475 51.914C208.607 52.058 208.766 52.169 208.952 52.247C209.144 52.319 209.411 52.403 209.753 52.499C210.167 52.613 210.5 52.727 210.752 52.841C211.004 52.949 211.22 53.12 211.4 53.354C211.58 53.582 211.67 53.894 211.67 54.29C211.67 54.596 211.589 54.884 211.427 55.154C211.265 55.424 211.025 55.643 210.707 55.811C210.389 55.979 210.014 56.063 209.582 56.063ZM218.807 50.978C219.191 50.978 219.533 51.059 219.833 51.221C220.133 51.377 220.37 51.614 220.544 51.932C220.718 52.25 220.805 52.637 220.805 53.093V56H219.995V53.21C219.995 52.718 219.872 52.343 219.626 52.085C219.386 51.821 219.059 51.689 218.645 51.689C218.219 51.689 217.88 51.827 217.628 52.103C217.376 52.373 217.25 52.766 217.25 53.282V56H216.44V53.21C216.44 52.718 216.317 52.343 216.071 52.085C215.831 51.821 215.504 51.689 215.09 51.689C214.664 51.689 214.325 51.827 214.073 52.103C213.821 52.373 213.695 52.766 213.695 53.282V56H212.876V51.068H213.695V51.779C213.857 51.521 214.073 51.323 214.343 51.185C214.619 51.047 214.922 50.978 215.252 50.978C215.666 50.978 216.032 51.071 216.35 51.257C216.668 51.443 216.905 51.716 217.061 52.076C217.199 51.728 217.427 51.458 217.745 51.266C218.063 51.074 218.417 50.978 218.807 50.978ZM221.842 53.516C221.842 53.012 221.944 52.571 222.148 52.193C222.352 51.809 222.631 51.512 222.985 51.302C223.345 51.092 223.744 50.987 224.182 50.987C224.614 50.987 224.989 51.08 225.307 51.266C225.625 51.452 225.862 51.686 226.018 51.968V51.068H226.846V56H226.018V55.082C225.856 55.37 225.613 55.61 225.289 55.802C224.971 55.988 224.599 56.081 224.173 56.081C223.735 56.081 223.339 55.973 222.985 55.757C222.631 55.541 222.352 55.238 222.148 54.848C221.944 54.458 221.842 54.014 221.842 53.516ZM226.018 53.525C226.018 53.153 225.943 52.829 225.793 52.553C225.643 52.277 225.439 52.067 225.181 51.923C224.929 51.773 224.65 51.698 224.344 51.698C224.038 51.698 223.759 51.77 223.507 51.914C223.255 52.058 223.054 52.268 222.904 52.544C222.754 52.82 222.679 53.144 222.679 53.516C222.679 53.894 222.754 54.224 222.904 54.506C223.054 54.782 223.255 54.995 223.507 55.145C223.759 55.289 224.038 55.361 224.344 55.361C224.65 55.361 224.929 55.289 225.181 55.145C225.439 54.995 225.643 54.782 225.793 54.506C225.943 54.224 226.018 53.897 226.018 53.525ZM229.049 51.869C229.193 51.587 229.397 51.368 229.661 51.212C229.931 51.056 230.258 50.978 230.642 50.978V51.824H230.426C229.508 51.824 229.049 52.322 229.049 53.318V56H228.23V51.068H229.049V51.869ZM232.587 51.743V54.65C232.587 54.89 232.638 55.061 232.74 55.163C232.842 55.259 233.019 55.307 233.271 55.307H233.874V56H233.136C232.68 56 232.338 55.895 232.11 55.685C231.882 55.475 231.768 55.13 231.768 54.65V51.743H231.129V51.068H231.768V49.826H232.587V51.068H233.874V51.743H232.587ZM239.699 49.727V56H238.88V53.156H235.685V56H234.866V49.727H235.685V52.481H238.88V49.727H239.699ZM246.128 57.188L244.877 55.937C244.571 56.021 244.259 56.063 243.941 56.063C243.359 56.063 242.828 55.928 242.348 55.658C241.868 55.382 241.487 55.001 241.205 54.515C240.929 54.023 240.791 53.471 240.791 52.859C240.791 52.247 240.929 51.698 241.205 51.212C241.487 50.72 241.868 50.339 242.348 50.069C242.828 49.793 243.359 49.655 243.941 49.655C244.529 49.655 245.063 49.793 245.543 50.069C246.023 50.339 246.401 50.717 246.677 51.203C246.953 51.689 247.091 52.241 247.091 52.859C247.091 53.459 246.959 53.999 246.695 54.479C246.431 54.959 246.068 55.337 245.606 55.613L247.19 57.188H246.128ZM241.628 52.859C241.628 53.357 241.727 53.795 241.925 54.173C242.129 54.551 242.405 54.842 242.753 55.046C243.107 55.25 243.503 55.352 243.941 55.352C244.379 55.352 244.772 55.25 245.12 55.046C245.474 54.842 245.75 54.551 245.948 54.173C246.152 53.795 246.254 53.357 246.254 52.859C246.254 52.355 246.152 51.917 245.948 51.545C245.75 51.167 245.477 50.876 245.129 50.672C244.781 50.468 244.385 50.366 243.941 50.366C243.497 50.366 243.101 50.468 242.753 50.672C242.405 50.876 242.129 51.167 241.925 51.545C241.727 51.917 241.628 52.355 241.628 52.859ZM250.283 53.516C250.283 53.012 250.385 52.571 250.589 52.193C250.793 51.809 251.072 51.512 251.426 51.302C251.786 51.092 252.185 50.987 252.623 50.987C253.055 50.987 253.43 51.08 253.748 51.266C254.066 51.452 254.303 51.686 254.459 51.968V51.068H255.287V56H254.459V55.082C254.297 55.37 254.054 55.61 253.73 55.802C253.412 55.988 253.04 56.081 252.614 56.081C252.176 56.081 251.78 55.973 251.426 55.757C251.072 55.541 250.793 55.238 250.589 54.848C250.385 54.458 250.283 54.014 250.283 53.516ZM254.459 53.525C254.459 53.153 254.384 52.829 254.234 52.553C254.084 52.277 253.88 52.067 253.622 51.923C253.37 51.773 253.091 51.698 252.785 51.698C252.479 51.698 252.2 51.77 251.948 51.914C251.696 52.058 251.495 52.268 251.345 52.544C251.195 52.82 251.12 53.144 251.12 53.516C251.12 53.894 251.195 54.224 251.345 54.506C251.495 54.782 251.696 54.995 251.948 55.145C252.2 55.289 252.479 55.361 252.785 55.361C253.091 55.361 253.37 55.289 253.622 55.145C253.88 54.995 254.084 54.782 254.234 54.506C254.384 54.224 254.459 53.897 254.459 53.525ZM257.491 51.977C257.653 51.695 257.893 51.461 258.211 51.275C258.535 51.083 258.91 50.987 259.336 50.987C259.774 50.987 260.17 51.092 260.524 51.302C260.884 51.512 261.166 51.809 261.37 52.193C261.574 52.571 261.676 53.012 261.676 53.516C261.676 54.014 261.574 54.458 261.37 54.848C261.166 55.238 260.884 55.541 260.524 55.757C260.17 55.973 259.774 56.081 259.336 56.081C258.916 56.081 258.544 55.988 258.22 55.802C257.902 55.61 257.659 55.373 257.491 55.091V58.34H256.672V51.068H257.491V51.977ZM260.839 53.516C260.839 53.144 260.764 52.82 260.614 52.544C260.464 52.268 260.26 52.058 260.002 51.914C259.75 51.77 259.471 51.698 259.165 51.698C258.865 51.698 258.586 51.773 258.328 51.923C258.076 52.067 257.872 52.28 257.716 52.562C257.566 52.838 257.491 53.159 257.491 53.525C257.491 53.897 257.566 54.224 257.716 54.506C257.872 54.782 258.076 54.995 258.328 55.145C258.586 55.289 258.865 55.361 259.165 55.361C259.471 55.361 259.75 55.289 260.002 55.145C260.26 54.995 260.464 54.782 260.614 54.506C260.764 54.224 260.839 53.894 260.839 53.516ZM263.573 51.977C263.735 51.695 263.975 51.461 264.293 51.275C264.617 51.083 264.992 50.987 265.418 50.987C265.856 50.987 266.252 51.092 266.606 51.302C266.966 51.512 267.248 51.809 267.452 52.193C267.656 52.571 267.758 53.012 267.758 53.516C267.758 54.014 267.656 54.458 267.452 54.848C267.248 55.238 266.966 55.541 266.606 55.757C266.252 55.973 265.856 56.081 265.418 56.081C264.998 56.081 264.626 55.988 264.302 55.802C263.984 55.61 263.741 55.373 263.573 55.091V58.34H262.754V51.068H263.573V51.977ZM266.921 53.516C266.921 53.144 266.846 52.82 266.696 52.544C266.546 52.268 266.342 52.058 266.084 51.914C265.832 51.77 265.553 51.698 265.247 51.698C264.947 51.698 264.668 51.773 264.41 51.923C264.158 52.067 263.954 52.28 263.798 52.562C263.648 52.838 263.573 53.159 263.573 53.525C263.573 53.897 263.648 54.224 263.798 54.506C263.954 54.782 264.158 54.995 264.41 55.145C264.668 55.289 264.947 55.361 265.247 55.361C265.553 55.361 265.832 55.289 266.084 55.145C266.342 54.995 266.546 54.782 266.696 54.506C266.846 54.224 266.921 53.894 266.921 53.516ZM270.929 53.516C270.929 53.012 271.031 52.571 271.235 52.193C271.439 51.809 271.718 51.512 272.072 51.302C272.432 51.092 272.831 50.987 273.269 50.987C273.701 50.987 274.076 51.08 274.394 51.266C274.712 51.452 274.949 51.686 275.105 51.968V51.068H275.933V56H275.105V55.082C274.943 55.37 274.7 55.61 274.376 55.802C274.058 55.988 273.686 56.081 273.26 56.081C272.822 56.081 272.426 55.973 272.072 55.757C271.718 55.541 271.439 55.238 271.235 54.848C271.031 54.458 270.929 54.014 270.929 53.516ZM275.105 53.525C275.105 53.153 275.03 52.829 274.88 52.553C274.73 52.277 274.526 52.067 274.268 51.923C274.016 51.773 273.737 51.698 273.431 51.698C273.125 51.698 272.846 51.77 272.594 51.914C272.342 52.058 272.141 52.268 271.991 52.544C271.841 52.82 271.766 53.144 271.766 53.516C271.766 53.894 271.841 54.224 271.991 54.506C272.141 54.782 272.342 54.995 272.594 55.145C272.846 55.289 273.125 55.361 273.431 55.361C273.737 55.361 274.016 55.289 274.268 55.145C274.526 54.995 274.73 54.782 274.88 54.506C275.03 54.224 275.105 53.897 275.105 53.525ZM279.72 50.978C280.32 50.978 280.806 51.161 281.178 51.527C281.55 51.887 281.736 52.409 281.736 53.093V56H280.926V53.21C280.926 52.718 280.803 52.343 280.557 52.085C280.311 51.821 279.975 51.689 279.549 51.689C279.117 51.689 278.772 51.824 278.514 52.094C278.262 52.364 278.136 52.757 278.136 53.273V56H277.317V51.068H278.136V51.77C278.298 51.518 278.517 51.323 278.793 51.185C279.075 51.047 279.384 50.978 279.72 50.978ZM282.768 53.516C282.768 53.012 282.87 52.571 283.074 52.193C283.278 51.809 283.557 51.512 283.911 51.302C284.271 51.092 284.673 50.987 285.117 50.987C285.501 50.987 285.858 51.077 286.188 51.257C286.518 51.431 286.77 51.662 286.944 51.95V49.34H287.772V56H286.944V55.073C286.782 55.367 286.542 55.61 286.224 55.802C285.906 55.988 285.534 56.081 285.108 56.081C284.67 56.081 284.271 55.973 283.911 55.757C283.557 55.541 283.278 55.238 283.074 54.848C282.87 54.458 282.768 54.014 282.768 53.516ZM286.944 53.525C286.944 53.153 286.869 52.829 286.719 52.553C286.569 52.277 286.365 52.067 286.107 51.923C285.855 51.773 285.576 51.698 285.27 51.698C284.964 51.698 284.685 51.77 284.433 51.914C284.181 52.058 283.98 52.268 283.83 52.544C283.68 52.82 283.605 53.144 283.605 53.516C283.605 53.894 283.68 54.224 283.83 54.506C283.98 54.782 284.181 54.995 284.433 55.145C284.685 55.289 284.964 55.361 285.27 55.361C285.576 55.361 285.855 55.289 286.107 55.145C286.365 54.995 286.569 54.782 286.719 54.506C286.869 54.224 286.944 53.897 286.944 53.525ZM107.7 65.743H106.665V70H105.846V65.743H105.207V65.068H105.846V64.717C105.846 64.165 105.987 63.763 106.269 63.511C106.557 63.253 107.016 63.124 107.646 63.124V63.808C107.286 63.808 107.031 63.88 106.881 64.024C106.737 64.162 106.665 64.393 106.665 64.717V65.068H107.7V65.743ZM110.806 70.081C110.344 70.081 109.924 69.976 109.546 69.766C109.174 69.556 108.88 69.259 108.664 68.875C108.454 68.485 108.349 68.035 108.349 67.525C108.349 67.021 108.457 66.577 108.673 66.193C108.895 65.803 109.195 65.506 109.573 65.302C109.951 65.092 110.374 64.987 110.842 64.987C111.31 64.987 111.733 65.092 112.111 65.302C112.489 65.506 112.786 65.8 113.002 66.184C113.224 66.568 113.335 67.015 113.335 67.525C113.335 68.035 113.221 68.485 112.993 68.875C112.771 69.259 112.468 69.556 112.084 69.766C111.7 69.976 111.274 70.081 110.806 70.081ZM110.806 69.361C111.1 69.361 111.376 69.292 111.634 69.154C111.892 69.016 112.099 68.809 112.255 68.533C112.417 68.257 112.498 67.921 112.498 67.525C112.498 67.129 112.42 66.793 112.264 66.517C112.108 66.241 111.904 66.037 111.652 65.905C111.4 65.767 111.127 65.698 110.833 65.698C110.533 65.698 110.257 65.767 110.005 65.905C109.759 66.037 109.561 66.241 109.411 66.517C109.261 66.793 109.186 67.129 109.186 67.525C109.186 67.927 109.258 68.266 109.402 68.542C109.552 68.818 109.75 69.025 109.996 69.163C110.242 69.295 110.512 69.361 110.806 69.361ZM115.231 63.34V70H114.412V63.34H115.231ZM117.446 63.34V70H116.627V63.34H117.446ZM120.992 70.081C120.53 70.081 120.11 69.976 119.732 69.766C119.36 69.556 119.066 69.259 118.85 68.875C118.64 68.485 118.535 68.035 118.535 67.525C118.535 67.021 118.643 66.577 118.859 66.193C119.081 65.803 119.381 65.506 119.759 65.302C120.137 65.092 120.56 64.987 121.028 64.987C121.496 64.987 121.919 65.092 122.297 65.302C122.675 65.506 122.972 65.8 123.188 66.184C123.41 66.568 123.521 67.015 123.521 67.525C123.521 68.035 123.407 68.485 123.179 68.875C122.957 69.259 122.654 69.556 122.27 69.766C121.886 69.976 121.46 70.081 120.992 70.081ZM120.992 69.361C121.286 69.361 121.562 69.292 121.82 69.154C122.078 69.016 122.285 68.809 122.441 68.533C122.603 68.257 122.684 67.921 122.684 67.525C122.684 67.129 122.606 66.793 122.45 66.517C122.294 66.241 122.09 66.037 121.838 65.905C121.586 65.767 121.313 65.698 121.019 65.698C120.719 65.698 120.443 65.767 120.191 65.905C119.945 66.037 119.747 66.241 119.597 66.517C119.447 66.793 119.372 67.129 119.372 67.525C119.372 67.927 119.444 68.266 119.588 68.542C119.738 68.818 119.936 69.025 120.182 69.163C120.428 69.295 120.698 69.361 120.992 69.361ZM131.168 65.068L129.629 70H128.783L127.595 66.085L126.407 70H125.561L124.013 65.068H124.85L125.984 69.208L127.208 65.068H128.045L129.242 69.217L130.358 65.068H131.168ZM134.804 64.267C134.648 64.267 134.516 64.213 134.408 64.105C134.3 63.997 134.246 63.865 134.246 63.709C134.246 63.553 134.3 63.421 134.408 63.313C134.516 63.205 134.648 63.151 134.804 63.151C134.954 63.151 135.08 63.205 135.182 63.313C135.29 63.421 135.344 63.553 135.344 63.709C135.344 63.865 135.29 63.997 135.182 64.105C135.08 64.213 134.954 64.267 134.804 64.267ZM135.2 65.068V70H134.381V65.068H135.2ZM138.998 64.978C139.598 64.978 140.084 65.161 140.456 65.527C140.828 65.887 141.014 66.409 141.014 67.093V70H140.204V67.21C140.204 66.718 140.081 66.343 139.835 66.085C139.589 65.821 139.253 65.689 138.827 65.689C138.395 65.689 138.05 65.824 137.792 66.094C137.54 66.364 137.414 66.757 137.414 67.273V70H136.595V65.068H137.414V65.77C137.576 65.518 137.795 65.323 138.071 65.185C138.353 65.047 138.662 64.978 138.998 64.978ZM144.098 70.081C143.72 70.081 143.381 70.018 143.081 69.892C142.781 69.76 142.544 69.58 142.37 69.352C142.196 69.118 142.1 68.851 142.082 68.551H142.928C142.952 68.797 143.066 68.998 143.27 69.154C143.48 69.31 143.753 69.388 144.089 69.388C144.401 69.388 144.647 69.319 144.827 69.181C145.007 69.043 145.097 68.869 145.097 68.659C145.097 68.443 145.001 68.284 144.809 68.182C144.617 68.074 144.32 67.969 143.918 67.867C143.552 67.771 143.252 67.675 143.018 67.579C142.79 67.477 142.592 67.33 142.424 67.138C142.262 66.94 142.181 66.682 142.181 66.364C142.181 66.112 142.256 65.881 142.406 65.671C142.556 65.461 142.769 65.296 143.045 65.176C143.321 65.05 143.636 64.987 143.99 64.987C144.536 64.987 144.977 65.125 145.313 65.401C145.649 65.677 145.829 66.055 145.853 66.535H145.034C145.016 66.277 144.911 66.07 144.719 65.914C144.533 65.758 144.281 65.68 143.963 65.68C143.669 65.68 143.435 65.743 143.261 65.869C143.087 65.995 143 66.16 143 66.364C143 66.526 143.051 66.661 143.153 66.769C143.261 66.871 143.393 66.955 143.549 67.021C143.711 67.081 143.933 67.15 144.215 67.228C144.569 67.324 144.857 67.42 145.079 67.516C145.301 67.606 145.49 67.744 145.646 67.93C145.808 68.116 145.892 68.359 145.898 68.659C145.898 68.929 145.823 69.172 145.673 69.388C145.523 69.604 145.31 69.775 145.034 69.901C144.764 70.021 144.452 70.081 144.098 70.081ZM148.053 65.743V68.65C148.053 68.89 148.104 69.061 148.206 69.163C148.308 69.259 148.485 69.307 148.737 69.307H149.34V70H148.602C148.146 70 147.804 69.895 147.576 69.685C147.348 69.475 147.234 69.13 147.234 68.65V65.743H146.595V65.068H147.234V63.826H148.053V65.068H149.34V65.743H148.053ZM151.152 65.869C151.296 65.587 151.5 65.368 151.764 65.212C152.034 65.056 152.361 64.978 152.745 64.978V65.824H152.529C151.611 65.824 151.152 66.322 151.152 67.318V70H150.333V65.068H151.152V65.869ZM158.064 65.068V70H157.245V69.271C157.089 69.523 156.87 69.721 156.588 69.865C156.312 70.003 156.006 70.072 155.67 70.072C155.286 70.072 154.941 69.994 154.635 69.838C154.329 69.676 154.086 69.436 153.906 69.118C153.732 68.8 153.645 68.413 153.645 67.957V65.068H154.455V67.849C154.455 68.335 154.578 68.71 154.824 68.974C155.07 69.232 155.406 69.361 155.832 69.361C156.27 69.361 156.615 69.226 156.867 68.956C157.119 68.686 157.245 68.293 157.245 67.777V65.068H158.064ZM159.141 67.525C159.141 67.015 159.243 66.571 159.447 66.193C159.651 65.809 159.933 65.512 160.293 65.302C160.659 65.092 161.076 64.987 161.544 64.987C162.15 64.987 162.648 65.134 163.038 65.428C163.434 65.722 163.695 66.13 163.821 66.652H162.939C162.855 66.352 162.69 66.115 162.444 65.941C162.204 65.767 161.904 65.68 161.544 65.68C161.076 65.68 160.698 65.842 160.41 66.166C160.122 66.484 159.978 66.937 159.978 67.525C159.978 68.119 160.122 68.578 160.41 68.902C160.698 69.226 161.076 69.388 161.544 69.388C161.904 69.388 162.204 69.304 162.444 69.136C162.684 68.968 162.849 68.728 162.939 68.416H163.821C163.689 68.92 163.425 69.325 163.029 69.631C162.633 69.931 162.138 70.081 161.544 70.081C161.076 70.081 160.659 69.976 160.293 69.766C159.933 69.556 159.651 69.259 159.447 68.875C159.243 68.491 159.141 68.041 159.141 67.525ZM165.913 65.743V68.65C165.913 68.89 165.964 69.061 166.066 69.163C166.168 69.259 166.345 69.307 166.597 69.307H167.2V70H166.462C166.006 70 165.664 69.895 165.436 69.685C165.208 69.475 165.094 69.13 165.094 68.65V65.743H164.455V65.068H165.094V63.826H165.913V65.068H167.2V65.743H165.913ZM168.615 64.267C168.459 64.267 168.327 64.213 168.219 64.105C168.111 63.997 168.057 63.865 168.057 63.709C168.057 63.553 168.111 63.421 168.219 63.313C168.327 63.205 168.459 63.151 168.615 63.151C168.765 63.151 168.891 63.205 168.993 63.313C169.101 63.421 169.155 63.553 169.155 63.709C169.155 63.865 169.101 63.997 168.993 64.105C168.891 64.213 168.765 64.267 168.615 64.267ZM169.011 65.068V70H168.192V65.068H169.011ZM172.558 70.081C172.096 70.081 171.676 69.976 171.298 69.766C170.926 69.556 170.632 69.259 170.416 68.875C170.206 68.485 170.101 68.035 170.101 67.525C170.101 67.021 170.209 66.577 170.425 66.193C170.647 65.803 170.947 65.506 171.325 65.302C171.703 65.092 172.126 64.987 172.594 64.987C173.062 64.987 173.485 65.092 173.863 65.302C174.241 65.506 174.538 65.8 174.754 66.184C174.976 66.568 175.087 67.015 175.087 67.525C175.087 68.035 174.973 68.485 174.745 68.875C174.523 69.259 174.22 69.556 173.836 69.766C173.452 69.976 173.026 70.081 172.558 70.081ZM172.558 69.361C172.852 69.361 173.128 69.292 173.386 69.154C173.644 69.016 173.851 68.809 174.007 68.533C174.169 68.257 174.25 67.921 174.25 67.525C174.25 67.129 174.172 66.793 174.016 66.517C173.86 66.241 173.656 66.037 173.404 65.905C173.152 65.767 172.879 65.698 172.585 65.698C172.285 65.698 172.009 65.767 171.757 65.905C171.511 66.037 171.313 66.241 171.163 66.517C171.013 66.793 170.938 67.129 170.938 67.525C170.938 67.927 171.01 68.266 171.154 68.542C171.304 68.818 171.502 69.025 171.748 69.163C171.994 69.295 172.264 69.361 172.558 69.361ZM178.567 64.978C179.167 64.978 179.653 65.161 180.025 65.527C180.397 65.887 180.583 66.409 180.583 67.093V70H179.773V67.21C179.773 66.718 179.65 66.343 179.404 66.085C179.158 65.821 178.822 65.689 178.396 65.689C177.964 65.689 177.619 65.824 177.361 66.094C177.109 66.364 176.983 66.757 176.983 67.273V70H176.164V65.068H176.983V65.77C177.145 65.518 177.364 65.323 177.64 65.185C177.922 65.047 178.231 64.978 178.567 64.978ZM183.667 70.081C183.289 70.081 182.95 70.018 182.65 69.892C182.35 69.76 182.113 69.58 181.939 69.352C181.765 69.118 181.669 68.851 181.651 68.551H182.497C182.521 68.797 182.635 68.998 182.839 69.154C183.049 69.31 183.322 69.388 183.658 69.388C183.97 69.388 184.216 69.319 184.396 69.181C184.576 69.043 184.666 68.869 184.666 68.659C184.666 68.443 184.57 68.284 184.378 68.182C184.186 68.074 183.889 67.969 183.487 67.867C183.121 67.771 182.821 67.675 182.587 67.579C182.359 67.477 182.161 67.33 181.993 67.138C181.831 66.94 181.75 66.682 181.75 66.364C181.75 66.112 181.825 65.881 181.975 65.671C182.125 65.461 182.338 65.296 182.614 65.176C182.89 65.05 183.205 64.987 183.559 64.987C184.105 64.987 184.546 65.125 184.882 65.401C185.218 65.677 185.398 66.055 185.422 66.535H184.603C184.585 66.277 184.48 66.07 184.288 65.914C184.102 65.758 183.85 65.68 183.532 65.68C183.238 65.68 183.004 65.743 182.83 65.869C182.656 65.995 182.569 66.16 182.569 66.364C182.569 66.526 182.62 66.661 182.722 66.769C182.83 66.871 182.962 66.955 183.118 67.021C183.28 67.081 183.502 67.15 183.784 67.228C184.138 67.324 184.426 67.42 184.648 67.516C184.87 67.606 185.059 67.744 185.215 67.93C185.377 68.116 185.461 68.359 185.467 68.659C185.467 68.929 185.392 69.172 185.242 69.388C185.092 69.604 184.879 69.775 184.603 69.901C184.333 70.021 184.021 70.081 183.667 70.081Z" fill="white"/>
    <path d="M133.626 25.66L131.154 34H129.606L127.854 27.688L125.994 34L124.458 34.012L122.094 25.66H123.546L125.274 32.452L127.146 25.66H128.682L130.422 32.416L132.162 25.66H133.626ZM136.314 25.66V34H134.946V25.66H136.314ZM143.378 29.08V30.232H138.446V29.08H143.378ZM150.421 25.66V26.776H146.881V29.236H149.641V30.352H146.881V34H145.513V25.66H150.421ZM153.249 25.66V34H151.881V25.66H153.249ZM158.09 29.812C158.09 28.996 158.278 28.264 158.654 27.616C159.038 26.968 159.554 26.464 160.202 26.104C160.858 25.736 161.574 25.552 162.35 25.552C163.238 25.552 164.026 25.772 164.714 26.212C165.41 26.644 165.914 27.26 166.226 28.06H164.582C164.366 27.62 164.066 27.292 163.682 27.076C163.298 26.86 162.854 26.752 162.35 26.752C161.798 26.752 161.306 26.876 160.874 27.124C160.442 27.372 160.102 27.728 159.854 28.192C159.614 28.656 159.494 29.196 159.494 29.812C159.494 30.428 159.614 30.968 159.854 31.432C160.102 31.896 160.442 32.256 160.874 32.512C161.306 32.76 161.798 32.884 162.35 32.884C162.854 32.884 163.298 32.776 163.682 32.56C164.066 32.344 164.366 32.016 164.582 31.576H166.226C165.914 32.376 165.41 32.992 164.714 33.424C164.026 33.856 163.238 34.072 162.35 34.072C161.566 34.072 160.85 33.892 160.202 33.532C159.554 33.164 159.038 32.656 158.654 32.008C158.278 31.36 158.09 30.628 158.09 29.812ZM171.824 34.084C171.048 34.084 170.332 33.904 169.676 33.544C169.028 33.176 168.512 32.668 168.128 32.02C167.752 31.364 167.564 30.628 167.564 29.812C167.564 28.996 167.752 28.264 168.128 27.616C168.512 26.968 169.028 26.464 169.676 26.104C170.332 25.736 171.048 25.552 171.824 25.552C172.608 25.552 173.324 25.736 173.972 26.104C174.628 26.464 175.144 26.968 175.52 27.616C175.896 28.264 176.084 28.996 176.084 29.812C176.084 30.628 175.896 31.364 175.52 32.02C175.144 32.668 174.628 33.176 173.972 33.544C173.324 33.904 172.608 34.084 171.824 34.084ZM171.824 32.896C172.376 32.896 172.868 32.772 173.3 32.524C173.732 32.268 174.068 31.908 174.308 31.444C174.556 30.972 174.68 30.428 174.68 29.812C174.68 29.196 174.556 28.656 174.308 28.192C174.068 27.728 173.732 27.372 173.3 27.124C172.868 26.876 172.376 26.752 171.824 26.752C171.272 26.752 170.78 26.876 170.348 27.124C169.916 27.372 169.576 27.728 169.328 28.192C169.088 28.656 168.968 29.196 168.968 29.812C168.968 30.428 169.088 30.972 169.328 31.444C169.576 31.908 169.916 32.268 170.348 32.524C170.78 32.772 171.272 32.896 171.824 32.896ZM184.474 34H183.106L178.99 27.772V34H177.622V25.648H178.99L183.106 31.864V25.648H184.474V34ZM193.314 34H191.946L187.83 27.772V34H186.462V25.648H187.83L191.946 31.864V25.648H193.314V34ZM196.671 26.764V29.212H199.551V30.328H196.671V32.884H199.911V34H195.303V25.648H199.911V26.764H196.671ZM201.332 29.812C201.332 28.996 201.52 28.264 201.896 27.616C202.28 26.968 202.796 26.464 203.444 26.104C204.1 25.736 204.816 25.552 205.592 25.552C206.48 25.552 207.268 25.772 207.956 26.212C208.652 26.644 209.156 27.26 209.468 28.06H207.824C207.608 27.62 207.308 27.292 206.924 27.076C206.54 26.86 206.096 26.752 205.592 26.752C205.04 26.752 204.548 26.876 204.116 27.124C203.684 27.372 203.344 27.728 203.096 28.192C202.856 28.656 202.736 29.196 202.736 29.812C202.736 30.428 202.856 30.968 203.096 31.432C203.344 31.896 203.684 32.256 204.116 32.512C204.548 32.76 205.04 32.884 205.592 32.884C206.096 32.884 206.54 32.776 206.924 32.56C207.308 32.344 207.608 32.016 207.824 31.576H209.468C209.156 32.376 208.652 32.992 207.956 33.424C207.268 33.856 206.48 34.072 205.592 34.072C204.808 34.072 204.092 33.892 203.444 33.532C202.796 33.164 202.28 32.656 201.896 32.008C201.52 31.36 201.332 30.628 201.332 29.812ZM216.649 25.66V26.776H214.429V34H213.061V26.776H210.829V25.66H216.649Z" fill="white"/>
    <path d="M109.065 156.352L111.225 159.822H109.945L108.375 157.302L106.905 159.822H105.635L107.795 156.352L105.625 152.872H106.905L108.485 155.412L109.965 152.872H111.235L109.065 156.352ZM115.907 156.352L118.067 159.822H116.787L115.217 157.302L113.747 159.822H112.477L114.637 156.352L112.467 152.872H113.747L115.327 155.412L116.807 152.872H118.077L115.907 156.352ZM122.749 156.352L124.909 159.822H123.629L122.059 157.302L120.589 159.822H119.319L121.479 156.352L119.309 152.872H120.589L122.169 155.412L123.649 152.872H124.919L122.749 156.352ZM129.59 156.352L131.75 159.822H130.47L128.9 157.302L127.43 159.822H126.16L128.32 156.352L126.15 152.872H127.43L129.01 155.412L130.49 152.872H131.76L129.59 156.352ZM136.432 156.352L138.592 159.822H137.312L135.742 157.302L134.272 159.822H133.002L135.162 156.352L132.992 152.872H134.272L135.852 155.412L137.332 152.872H138.602L136.432 156.352ZM143.273 156.352L145.433 159.822H144.153L142.583 157.302L141.113 159.822H139.843L142.003 156.352L139.833 152.872H141.113L142.693 155.412L144.173 152.872H145.443L143.273 156.352ZM150.115 156.352L152.275 159.822H150.995L149.425 157.302L147.955 159.822H146.685L148.845 156.352L146.675 152.872H147.955L149.535 155.412L151.015 152.872H152.285L150.115 156.352ZM156.956 156.352L159.116 159.822H157.836L156.266 157.302L154.796 159.822H153.526L155.686 156.352L153.516 152.872H154.796L156.376 155.412L157.856 152.872H159.126L156.956 156.352Z" fill="white"/>
    <path opacity="0.25" d="M234.705 111.749L236.865 115.219H235.585L234.015 112.699L232.545 115.219H231.275L233.435 111.749L231.265 108.269H232.545L234.125 110.809L235.605 108.269H236.875L234.705 111.749ZM241.547 111.749L243.707 115.219H242.427L240.857 112.699L239.387 115.219H238.117L240.277 111.749L238.107 108.269H239.387L240.967 110.809L242.447 108.269H243.717L241.547 111.749ZM248.388 111.749L250.548 115.219H249.268L247.698 112.699L246.228 115.219H244.958L247.118 111.749L244.948 108.269H246.228L247.808 110.809L249.288 108.269H250.558L248.388 111.749ZM255.23 111.749L257.39 115.219H256.11L254.54 112.699L253.07 115.219H251.8L253.96 111.749L251.79 108.269H253.07L254.65 110.809L256.13 108.269H257.4L255.23 111.749ZM262.071 111.749L264.231 115.219H262.951L261.381 112.699L259.911 115.219H258.641L260.801 111.749L258.631 108.269H259.911L261.491 110.809L262.971 108.269H264.241L262.071 111.749ZM268.913 111.749L271.073 115.219H269.793L268.223 112.699L266.753 115.219H265.483L267.643 111.749L265.473 108.269H266.753L268.333 110.809L269.813 108.269H271.083L268.913 111.749ZM275.755 111.749L277.915 115.219H276.635L275.065 112.699L273.595 115.219H272.325L274.485 111.749L272.315 108.269H273.595L275.175 110.809L276.655 108.269H277.925L275.755 111.749ZM282.596 111.749L284.756 115.219H283.476L281.906 112.699L280.436 115.219H279.166L281.326 111.749L279.156 108.269H280.436L282.016 110.809L283.496 108.269H284.766L282.596 111.749Z" fill="white"/>
    <path opacity="0.25" d="M234.705 156.352L236.865 159.822H235.585L234.015 157.302L232.545 159.822H231.275L233.435 156.352L231.265 152.872H232.545L234.125 155.412L235.605 152.872H236.875L234.705 156.352ZM241.547 156.352L243.707 159.822H242.427L240.857 157.302L239.387 159.822H238.117L240.277 156.352L238.107 152.872H239.387L240.967 155.412L242.447 152.872H243.717L241.547 156.352ZM248.388 156.352L250.548 159.822H249.268L247.698 157.302L246.228 159.822H244.958L247.118 156.352L244.948 152.872H246.228L247.808 155.412L249.288 152.872H250.558L248.388 156.352ZM255.23 156.352L257.39 159.822H256.11L254.54 157.302L253.07 159.822H251.8L253.96 156.352L251.79 152.872H253.07L254.65 155.412L256.13 152.872H257.4L255.23 156.352ZM262.071 156.352L264.231 159.822H262.951L261.381 157.302L259.911 159.822H258.641L260.801 156.352L258.631 152.872H259.911L261.491 155.412L262.971 152.872H264.241L262.071 156.352ZM268.913 156.352L271.073 159.822H269.793L268.223 157.302L266.753 159.822H265.483L267.643 156.352L265.473 152.872H266.753L268.333 155.412L269.813 152.872H271.083L268.913 156.352ZM275.755 156.352L277.915 159.822H276.635L275.065 157.302L273.595 159.822H272.325L274.485 156.352L272.315 152.872H273.595L275.175 155.412L276.655 152.872H277.925L275.755 156.352ZM282.596 156.352L284.756 159.822H283.476L281.906 157.302L280.436 159.822H279.166L281.326 156.352L279.156 152.872H280.436L282.016 155.412L283.496 152.872H284.766L282.596 156.352Z" fill="white"/>
</svg>
