<svg width="375" height="232" viewBox="0 0 375 232" fill="none" xmlns="http://www.w3.org/2000/svg">
    <path d="M160.781 108L157.613 102.924H156.155V108H154.103V95.292H158.585C160.037 95.292 161.135 95.646 161.879 96.354C162.635 97.062 163.013 97.998 163.013 99.162C163.013 100.158 162.731 100.974 162.167 101.61C161.615 102.246 160.811 102.654 159.755 102.834L163.085 108H160.781ZM156.155 101.466H158.423C160.079 101.466 160.907 100.734 160.907 99.27C160.907 98.574 160.703 98.034 160.295 97.65C159.899 97.254 159.275 97.056 158.423 97.056H156.155V101.466ZM174.077 102.564C174.077 102.9 174.053 103.194 174.005 103.446H166.373C166.409 104.466 166.691 105.222 167.219 105.714C167.747 106.206 168.401 106.452 169.181 106.452C169.865 106.452 170.441 106.278 170.909 105.93C171.389 105.582 171.683 105.12 171.791 104.544H173.987C173.855 105.24 173.579 105.858 173.159 106.398C172.739 106.938 172.193 107.364 171.521 107.676C170.849 107.976 170.099 108.126 169.271 108.126C168.311 108.126 167.459 107.922 166.715 107.514C165.983 107.106 165.407 106.518 164.987 105.75C164.567 104.982 164.357 104.076 164.357 103.032C164.357 102 164.567 101.1 164.987 100.332C165.407 99.564 165.983 98.976 166.715 98.568C167.459 98.16 168.311 97.956 169.271 97.956C170.243 97.956 171.089 98.16 171.809 98.568C172.541 98.964 173.099 99.516 173.483 100.224C173.879 100.92 174.077 101.7 174.077 102.564ZM172.007 102.51C172.031 101.862 171.917 101.322 171.665 100.89C171.425 100.446 171.089 100.122 170.657 99.918C170.237 99.702 169.775 99.594 169.271 99.594C168.467 99.594 167.795 99.84 167.255 100.332C166.715 100.824 166.421 101.55 166.373 102.51H172.007ZM188.46 97.92C189.636 97.92 190.572 98.292 191.268 99.036C191.976 99.78 192.33 100.842 192.33 102.222V108H190.278V102.438C190.278 101.574 190.062 100.908 189.63 100.44C189.198 99.96 188.604 99.72 187.848 99.72C187.044 99.72 186.402 99.978 185.922 100.494C185.454 100.998 185.22 101.742 185.22 102.726V108H183.168V102.438C183.168 101.574 182.952 100.908 182.52 100.44C182.088 99.96 181.494 99.72 180.738 99.72C179.934 99.72 179.292 99.978 178.812 100.494C178.344 100.998 178.11 101.742 178.11 102.726V108H176.058V98.082H178.11V100.152C178.362 99.432 178.782 98.88 179.37 98.496C179.958 98.112 180.648 97.92 181.44 97.92C182.268 97.92 182.982 98.124 183.582 98.532C184.194 98.94 184.638 99.528 184.914 100.296C185.202 99.552 185.664 98.97 186.3 98.55C186.936 98.13 187.656 97.92 188.46 97.92ZM199.262 97.956C200.222 97.956 201.086 98.16 201.854 98.568C202.622 98.976 203.222 99.564 203.654 100.332C204.086 101.1 204.302 102 204.302 103.032C204.302 104.076 204.086 104.982 203.654 105.75C203.222 106.518 202.622 107.106 201.854 107.514C201.086 107.922 200.222 108.126 199.262 108.126C198.302 108.126 197.438 107.922 196.67 107.514C195.914 107.106 195.314 106.518 194.87 105.75C194.438 104.97 194.222 104.064 194.222 103.032C194.222 102 194.438 101.1 194.87 100.332C195.314 99.564 195.914 98.976 196.67 98.568C197.438 98.16 198.302 97.956 199.262 97.956ZM199.262 99.738C198.734 99.738 198.248 99.858 197.804 100.098C197.36 100.338 197 100.71 196.724 101.214C196.46 101.706 196.328 102.312 196.328 103.032C196.328 103.764 196.46 104.376 196.724 104.868C197 105.36 197.36 105.726 197.804 105.966C198.248 106.206 198.734 106.326 199.262 106.326C199.79 106.326 200.276 106.206 200.72 105.966C201.164 105.726 201.518 105.36 201.782 104.868C202.058 104.376 202.196 103.764 202.196 103.032C202.196 102.312 202.058 101.706 201.782 101.214C201.518 100.71 201.164 100.338 200.72 100.098C200.276 99.858 199.79 99.738 199.262 99.738ZM211.261 106.218V108H210.001C208.945 108 208.141 107.748 207.589 107.244C207.049 106.728 206.779 105.876 206.779 104.688V99.828H205.357V98.082H206.779V95.616H208.849V98.082H211.243V99.828H208.849V104.724C208.849 105.288 208.951 105.678 209.155 105.894C209.371 106.11 209.743 106.218 210.271 106.218H211.261ZM222.399 102.564C222.399 102.9 222.375 103.194 222.327 103.446H214.695C214.731 104.466 215.013 105.222 215.541 105.714C216.069 106.206 216.723 106.452 217.503 106.452C218.187 106.452 218.763 106.278 219.231 105.93C219.711 105.582 220.005 105.12 220.113 104.544H222.309C222.177 105.24 221.901 105.858 221.481 106.398C221.061 106.938 220.515 107.364 219.843 107.676C219.171 107.976 218.421 108.126 217.593 108.126C216.633 108.126 215.781 107.922 215.037 107.514C214.305 107.106 213.729 106.518 213.309 105.75C212.889 104.982 212.679 104.076 212.679 103.032C212.679 102 212.889 101.1 213.309 100.332C213.729 99.564 214.305 98.976 215.037 98.568C215.781 98.16 216.633 97.956 217.593 97.956C218.565 97.956 219.411 98.16 220.131 98.568C220.863 98.964 221.421 99.516 221.805 100.224C222.201 100.92 222.399 101.7 222.399 102.564ZM220.329 102.51C220.353 101.862 220.239 101.322 219.987 100.89C219.747 100.446 219.411 100.122 218.979 99.918C218.559 99.702 218.097 99.594 217.593 99.594C216.789 99.594 216.117 99.84 215.577 100.332C215.037 100.824 214.743 101.55 214.695 102.51H220.329ZM160.77 116.948V120.8H165.45V122.384H160.77V126.326H165.99V128H158.718V115.292H165.99V116.948H160.77ZM173.525 117.92C174.677 117.92 175.601 118.292 176.297 119.036C176.993 119.78 177.341 120.842 177.341 122.222V128H175.289V122.438C175.289 121.55 175.061 120.866 174.605 120.386C174.149 119.894 173.525 119.648 172.733 119.648C171.917 119.648 171.263 119.912 170.771 120.44C170.279 120.956 170.033 121.718 170.033 122.726V128H167.981V118.082H170.033V120.26C170.297 119.516 170.741 118.94 171.365 118.532C171.989 118.124 172.709 117.92 173.525 117.92ZM183.719 117.956C184.619 117.956 185.387 118.178 186.023 118.622C186.659 119.066 187.109 119.654 187.373 120.386V118.082H189.425V128H187.373V125.696C187.109 126.428 186.659 127.016 186.023 127.46C185.387 127.904 184.619 128.126 183.719 128.126C182.855 128.126 182.081 127.922 181.397 127.514C180.725 127.106 180.197 126.518 179.813 125.75C179.429 124.982 179.237 124.076 179.237 123.032C179.237 122 179.429 121.1 179.813 120.332C180.197 119.564 180.725 118.976 181.397 118.568C182.081 118.16 182.855 117.956 183.719 117.956ZM184.349 119.756C183.437 119.756 182.705 120.05 182.153 120.638C181.613 121.214 181.343 122.012 181.343 123.032C181.343 124.052 181.613 124.856 182.153 125.444C182.705 126.02 183.437 126.308 184.349 126.308C184.925 126.308 185.441 126.176 185.897 125.912C186.353 125.636 186.713 125.252 186.977 124.76C187.241 124.268 187.373 123.692 187.373 123.032C187.373 122.384 187.241 121.814 186.977 121.322C186.713 120.818 186.353 120.434 185.897 120.17C185.441 119.894 184.925 119.756 184.349 119.756ZM197.576 117.956C198.44 117.956 199.208 118.16 199.88 118.568C200.564 118.976 201.098 119.564 201.482 120.332C201.866 121.1 202.058 122 202.058 123.032C202.058 124.076 201.866 124.982 201.482 125.75C201.098 126.518 200.564 127.106 199.88 127.514C199.208 127.922 198.44 128.126 197.576 128.126C196.676 128.126 195.908 127.904 195.272 127.46C194.636 127.016 194.192 126.428 193.94 125.696V128H191.888V114.68H193.94V120.386C194.192 119.654 194.636 119.066 195.272 118.622C195.908 118.178 196.676 117.956 197.576 117.956ZM196.946 119.756C196.37 119.756 195.854 119.894 195.398 120.17C194.942 120.434 194.582 120.818 194.318 121.322C194.054 121.814 193.922 122.384 193.922 123.032C193.922 123.692 194.054 124.268 194.318 124.76C194.582 125.252 194.942 125.636 195.398 125.912C195.854 126.176 196.37 126.308 196.946 126.308C197.858 126.308 198.59 126.02 199.142 125.444C199.694 124.856 199.97 124.052 199.97 123.032C199.97 122.024 199.694 121.226 199.142 120.638C198.59 120.05 197.858 119.756 196.946 119.756ZM206.086 114.68V128H204.034V114.68H206.086ZM217.785 122.564C217.785 122.9 217.761 123.194 217.713 123.446H210.081C210.117 124.466 210.399 125.222 210.927 125.714C211.455 126.206 212.109 126.452 212.889 126.452C213.573 126.452 214.149 126.278 214.617 125.93C215.097 125.582 215.391 125.12 215.499 124.544H217.695C217.563 125.24 217.287 125.858 216.867 126.398C216.447 126.938 215.901 127.364 215.229 127.676C214.557 127.976 213.807 128.126 212.979 128.126C212.019 128.126 211.167 127.922 210.423 127.514C209.691 127.106 209.115 126.518 208.695 125.75C208.275 124.982 208.065 124.076 208.065 123.032C208.065 122 208.275 121.1 208.695 120.332C209.115 119.564 209.691 118.976 210.423 118.568C211.167 118.16 212.019 117.956 212.979 117.956C213.951 117.956 214.797 118.16 215.517 118.568C216.249 118.964 216.807 119.516 217.191 120.224C217.587 120.92 217.785 121.7 217.785 122.564ZM215.715 122.51C215.739 121.862 215.625 121.322 215.373 120.89C215.133 120.446 214.797 120.122 214.365 119.918C213.945 119.702 213.483 119.594 212.979 119.594C212.175 119.594 211.503 119.84 210.963 120.332C210.423 120.824 210.129 121.55 210.081 122.51H215.715Z" fill="white"/>
    <rect x="152.5" y="138.5" width="71" height="1" stroke="white"/>
    <g opacity="0.25">
        <rect x="152.5" y="50.5" width="71" height="1" stroke="white"/>
        <rect x="152.5" y="4.5" width="71" height="39" rx="3.5" stroke="white"/>
    </g>
    <g opacity="0.25">
        <rect x="36.5" y="138.5" width="71" height="1" stroke="white"/>
        <rect x="36.5" y="92.5" width="71" height="39" rx="3.5" stroke="white"/>
    </g>
    <g opacity="0.25">
        <rect x="268.5" y="138.5" width="71" height="1" stroke="white"/>
        <rect x="268.5" y="92.5" width="71" height="39" rx="3.5" stroke="white"/>
    </g>
    <g opacity="0.25">
        <rect x="152.5" y="226.5" width="71" height="1" stroke="white"/>
        <rect x="152.5" y="180.5" width="71" height="39" rx="3.5" stroke="white"/>
    </g>
</svg>
