<svg width="321" height="187" viewBox="0 0 321 187" fill="none" xmlns="http://www.w3.org/2000/svg">
    <rect x="1.39062" y="1.09717" width="318.219" height="185.133" rx="5.5" stroke="white"/>
    <circle cx="184" cy="63" r="7" fill="#6C6C6C"/>
    <circle cx="184" cy="94" r="7" fill="#6C6C6C"/>
    <circle cx="184" cy="125" r="7" fill="#6C6C6C"/>
    <rect x="214" y="155" width="82" height="16" fill="#FDBA12"/>
    <rect x="23" y="25" width="111" height="16" fill="white"/>
    <rect x="201" y="59" width="95" height="8" fill="#343434"/>
    <rect x="23" y="101" width="95" height="8" fill="#343434"/>
    <rect x="201" y="90" width="95" height="8" fill="#343434"/>
    <rect x="23" y="113" width="95" height="8" fill="#343434"/>
    <rect x="23" y="125" width="56" height="8" fill="#343434"/>
    <rect x="23" y="163" width="56" height="8" fill="#343434"/>
    <rect x="201" y="121" width="95" height="8" fill="#343434"/>
    <rect x="23" y="48" width="111" height="16" fill="white"/>
    <rect x="23" y="71" width="72" height="16" fill="white"/>
</svg>
