<svg width="343" height="164" viewBox="0 0 343 164" fill="none" xmlns="http://www.w3.org/2000/svg">
    <rect x="1" y="1" width="341" height="162" rx="15" stroke="white" stroke-width="2"/>
    <rect x="154" y="89.5" width="141" height="19.0909" rx="4" stroke="#FFBB00" stroke-width="2"/>
    <path d="M36.144 21.592C37.5307 21.592 38.6827 21.944 39.6 22.648C40.5173 23.352 41.136 24.3067 41.456 25.512H39.52C39.2533 24.8293 38.8267 24.2907 38.24 23.896C37.664 23.4907 36.9547 23.288 36.112 23.288C35.44 23.288 34.8373 23.4533 34.304 23.784C33.7813 24.1147 33.3653 24.5893 33.056 25.208C32.7573 25.816 32.608 26.5307 32.608 27.352C32.608 28.1627 32.7573 28.8773 33.056 29.496C33.3653 30.104 33.7813 30.5733 34.304 30.904C34.8373 31.2347 35.44 31.4 36.112 31.4C36.9547 31.4 37.664 31.2027 38.24 30.808C38.8267 30.4027 39.2533 29.864 39.52 29.192H41.456C41.136 30.3973 40.5173 31.352 39.6 32.056C38.6827 32.7493 37.5307 33.096 36.144 33.096C35.0773 33.096 34.1333 32.856 33.312 32.376C32.4907 31.8853 31.856 31.208 31.408 30.344C30.96 29.4693 30.736 28.472 30.736 27.352C30.736 26.232 30.96 25.24 31.408 24.376C31.856 23.5013 32.4907 22.8187 33.312 22.328C34.1333 21.8373 35.0773 21.592 36.144 21.592ZM47.6279 24.072C48.4812 24.072 49.2492 24.2533 49.9319 24.616C50.6145 24.9787 51.1479 25.5013 51.5319 26.184C51.9159 26.8667 52.1079 27.6667 52.1079 28.584C52.1079 29.512 51.9159 30.3173 51.5319 31C51.1479 31.6827 50.6145 32.2053 49.9319 32.568C49.2492 32.9307 48.4812 33.112 47.6279 33.112C46.7745 33.112 46.0065 32.9307 45.3239 32.568C44.6519 32.2053 44.1185 31.6827 43.7239 31C43.3399 30.3067 43.1479 29.5013 43.1479 28.584C43.1479 27.6667 43.3399 26.8667 43.7239 26.184C44.1185 25.5013 44.6519 24.9787 45.3239 24.616C46.0065 24.2533 46.7745 24.072 47.6279 24.072ZM47.6279 25.656C47.1585 25.656 46.7265 25.7627 46.3319 25.976C45.9372 26.1893 45.6172 26.52 45.3719 26.968C45.1372 27.4053 45.0199 27.944 45.0199 28.584C45.0199 29.2347 45.1372 29.7787 45.3719 30.216C45.6172 30.6533 45.9372 30.9787 46.3319 31.192C46.7265 31.4053 47.1585 31.512 47.6279 31.512C48.0972 31.512 48.5292 31.4053 48.9239 31.192C49.3185 30.9787 49.6332 30.6533 49.8679 30.216C50.1132 29.7787 50.2359 29.2347 50.2359 28.584C50.2359 27.944 50.1132 27.4053 49.8679 26.968C49.6332 26.52 49.3185 26.1893 48.9239 25.976C48.5292 25.7627 48.0972 25.656 47.6279 25.656ZM59.1095 24.04C60.1335 24.04 60.9548 24.3707 61.5735 25.032C62.1922 25.6933 62.5015 26.6373 62.5015 27.864V33H60.6775V28.056C60.6775 27.2667 60.4748 26.6587 60.0695 26.232C59.6642 25.7947 59.1095 25.576 58.4055 25.576C57.6802 25.576 57.0988 25.8107 56.6615 26.28C56.2242 26.7387 56.0055 27.416 56.0055 28.312V33H54.1815V24.184H56.0055V26.12C56.2402 25.4587 56.6348 24.9467 57.1895 24.584C57.7442 24.2213 58.3842 24.04 59.1095 24.04ZM69.8826 24.04C70.9066 24.04 71.728 24.3707 72.3466 25.032C72.9653 25.6933 73.2746 26.6373 73.2746 27.864V33H71.4506V28.056C71.4506 27.2667 71.248 26.6587 70.8426 26.232C70.4373 25.7947 69.8826 25.576 69.1786 25.576C68.4533 25.576 67.872 25.8107 67.4346 26.28C66.9973 26.7387 66.7786 27.416 66.7786 28.312V33H64.9546V24.184H66.7786V26.12C67.0133 25.4587 67.408 24.9467 67.9626 24.584C68.5173 24.2213 69.1573 24.04 69.8826 24.04ZM83.9197 28.168C83.9197 28.4667 83.8984 28.728 83.8557 28.952H77.0717C77.1037 29.8587 77.3544 30.5307 77.8237 30.968C78.2931 31.4053 78.8744 31.624 79.5677 31.624C80.1757 31.624 80.6877 31.4693 81.1037 31.16C81.5304 30.8507 81.7917 30.44 81.8877 29.928H83.8397C83.7224 30.5467 83.4771 31.096 83.1037 31.576C82.7304 32.056 82.2451 32.4347 81.6477 32.712C81.0504 32.9787 80.3837 33.112 79.6477 33.112C78.7944 33.112 78.0371 32.9307 77.3757 32.568C76.7251 32.2053 76.2131 31.6827 75.8397 31C75.4664 30.3173 75.2797 29.512 75.2797 28.584C75.2797 27.6667 75.4664 26.8667 75.8397 26.184C76.2131 25.5013 76.7251 24.9787 77.3757 24.616C78.0371 24.2533 78.7944 24.072 79.6477 24.072C80.5117 24.072 81.2637 24.2533 81.9037 24.616C82.5544 24.968 83.0504 25.4587 83.3917 26.088C83.7437 26.7067 83.9197 27.4 83.9197 28.168ZM82.0797 28.12C82.1011 27.544 81.9997 27.064 81.7757 26.68C81.5624 26.2853 81.2637 25.9973 80.8797 25.816C80.5064 25.624 80.0957 25.528 79.6477 25.528C78.9331 25.528 78.3357 25.7467 77.8557 26.184C77.3757 26.6213 77.1144 27.2667 77.0717 28.12H82.0797ZM89.9209 24.072C91.0622 24.072 92.0062 24.376 92.7529 24.984C93.4995 25.5813 93.9635 26.3973 94.1449 27.432H92.2089C92.1022 26.8773 91.8409 26.4453 91.4249 26.136C91.0195 25.816 90.5075 25.656 89.8889 25.656C89.1849 25.656 88.5982 25.9067 88.1289 26.408C87.6595 26.8987 87.4249 27.624 87.4249 28.584C87.4249 29.544 87.6595 30.2747 88.1289 30.776C88.5982 31.2773 89.1849 31.528 89.8889 31.528C90.5075 31.528 91.0195 31.368 91.4249 31.048C91.8409 30.728 92.1022 30.2907 92.2089 29.736H94.1449C93.9635 30.7707 93.4995 31.592 92.7529 32.2C92.0062 32.808 91.0622 33.112 89.9209 33.112C89.0675 33.112 88.3102 32.9307 87.6489 32.568C86.9982 32.2053 86.4862 31.6827 86.1129 31C85.7395 30.3173 85.5529 29.512 85.5529 28.584C85.5529 27.6667 85.7395 26.8667 86.1129 26.184C86.4862 25.5013 86.9982 24.9787 87.6489 24.616C88.3102 24.2533 89.0675 24.072 89.9209 24.072ZM100.659 31.416V33H99.5391C98.6005 33 97.8858 32.776 97.3951 32.328C96.9151 31.8693 96.6751 31.112 96.6751 30.056V25.736H95.4111V24.184H96.6751V21.992H98.5151V24.184H100.643V25.736H98.5151V30.088C98.5151 30.5893 98.6058 30.936 98.7871 31.128C98.9791 31.32 99.3098 31.416 99.7791 31.416H100.659ZM110.88 28.168C110.88 28.4667 110.858 28.728 110.816 28.952H104.032C104.064 29.8587 104.314 30.5307 104.784 30.968C105.253 31.4053 105.834 31.624 106.528 31.624C107.136 31.624 107.648 31.4693 108.064 31.16C108.49 30.8507 108.752 30.44 108.848 29.928H110.8C110.682 30.5467 110.437 31.096 110.064 31.576C109.69 32.056 109.205 32.4347 108.608 32.712C108.01 32.9787 107.344 33.112 106.608 33.112C105.754 33.112 104.997 32.9307 104.336 32.568C103.685 32.2053 103.173 31.6827 102.8 31C102.426 30.3173 102.24 29.512 102.24 28.584C102.24 27.6667 102.426 26.8667 102.8 26.184C103.173 25.5013 103.685 24.9787 104.336 24.616C104.997 24.2533 105.754 24.072 106.608 24.072C107.472 24.072 108.224 24.2533 108.864 24.616C109.514 24.968 110.01 25.4587 110.352 26.088C110.704 26.7067 110.88 27.4 110.88 28.168ZM109.04 28.12C109.061 27.544 108.96 27.064 108.736 26.68C108.522 26.2853 108.224 25.9973 107.84 25.816C107.466 25.624 107.056 25.528 106.608 25.528C105.893 25.528 105.296 25.7467 104.816 26.184C104.336 26.6213 104.074 27.2667 104.032 28.12H109.04ZM116.497 24.072C117.297 24.072 117.98 24.2693 118.545 24.664C119.11 25.0587 119.505 25.5813 119.729 26.232V21.16H121.569V33H119.729V30.952C119.505 31.6027 119.11 32.1253 118.545 32.52C117.98 32.9147 117.297 33.112 116.497 33.112C115.729 33.112 115.041 32.9307 114.433 32.568C113.836 32.2053 113.366 31.6827 113.025 31C112.684 30.3173 112.513 29.512 112.513 28.584C112.513 27.6667 112.684 26.8667 113.025 26.184C113.366 25.5013 113.836 24.9787 114.433 24.616C115.041 24.2533 115.729 24.072 116.497 24.072ZM117.057 25.672C116.246 25.672 115.596 25.9333 115.105 26.456C114.625 26.968 114.385 27.6773 114.385 28.584C114.385 29.4907 114.625 30.2053 115.105 30.728C115.596 31.24 116.246 31.496 117.057 31.496C117.569 31.496 118.028 31.3787 118.433 31.144C118.838 30.8987 119.158 30.5573 119.393 30.12C119.628 29.6827 119.745 29.1707 119.745 28.584C119.745 28.008 119.628 27.5013 119.393 27.064C119.158 26.616 118.838 26.2747 118.433 26.04C118.028 25.7947 117.569 25.672 117.057 25.672ZM134.884 30.552H130.116L129.252 33H127.3L131.46 21.88H133.556L137.7 33H135.748L134.884 30.552ZM134.372 29.144L132.5 23.864L130.628 29.144H134.372ZM144.43 24.072C145.198 24.072 145.881 24.2533 146.478 24.616C147.086 24.9787 147.561 25.5013 147.902 26.184C148.243 26.8667 148.414 27.6667 148.414 28.584C148.414 29.512 148.243 30.3173 147.902 31C147.561 31.6827 147.086 32.2053 146.478 32.568C145.881 32.9307 145.198 33.112 144.43 33.112C143.63 33.112 142.947 32.9147 142.382 32.52C141.817 32.1253 141.422 31.6027 141.198 30.952V37.192H139.374V24.184H141.198V26.232C141.422 25.5813 141.817 25.0587 142.382 24.664C142.947 24.2693 143.63 24.072 144.43 24.072ZM143.87 25.672C143.358 25.672 142.899 25.7947 142.494 26.04C142.089 26.2747 141.769 26.616 141.534 27.064C141.299 27.5013 141.182 28.008 141.182 28.584C141.182 29.1707 141.299 29.6827 141.534 30.12C141.769 30.5573 142.089 30.8987 142.494 31.144C142.899 31.3787 143.358 31.496 143.87 31.496C144.681 31.496 145.331 31.24 145.822 30.728C146.313 30.2053 146.558 29.4907 146.558 28.584C146.558 27.688 146.313 26.9787 145.822 26.456C145.331 25.9333 144.681 25.672 143.87 25.672ZM155.547 24.072C156.315 24.072 156.998 24.2533 157.595 24.616C158.203 24.9787 158.678 25.5013 159.019 26.184C159.36 26.8667 159.531 27.6667 159.531 28.584C159.531 29.512 159.36 30.3173 159.019 31C158.678 31.6827 158.203 32.2053 157.595 32.568C156.998 32.9307 156.315 33.112 155.547 33.112C154.747 33.112 154.064 32.9147 153.499 32.52C152.934 32.1253 152.539 31.6027 152.315 30.952V37.192H150.491V24.184H152.315V26.232C152.539 25.5813 152.934 25.0587 153.499 24.664C154.064 24.2693 154.747 24.072 155.547 24.072ZM154.987 25.672C154.475 25.672 154.016 25.7947 153.611 26.04C153.206 26.2747 152.886 26.616 152.651 27.064C152.416 27.5013 152.299 28.008 152.299 28.584C152.299 29.1707 152.416 29.6827 152.651 30.12C152.886 30.5573 153.206 30.8987 153.611 31.144C154.016 31.3787 154.475 31.496 154.987 31.496C155.798 31.496 156.448 31.24 156.939 30.728C157.43 30.2053 157.675 29.4907 157.675 28.584C157.675 27.688 157.43 26.9787 156.939 26.456C156.448 25.9333 155.798 25.672 154.987 25.672ZM163.432 21.16V33H161.608V21.16H163.432ZM165.703 21.624C165.703 21.3147 165.81 21.0587 166.023 20.856C166.236 20.6533 166.519 20.552 166.871 20.552C167.223 20.552 167.506 20.6533 167.719 20.856C167.943 21.0587 168.055 21.3147 168.055 21.624C168.055 21.9333 167.943 22.184 167.719 22.376C167.506 22.568 167.223 22.664 166.871 22.664C166.519 22.664 166.236 22.568 166.023 22.376C165.81 22.184 165.703 21.9333 165.703 21.624ZM167.783 24.184V33H165.959V24.184H167.783ZM173.846 24.072C174.646 24.072 175.329 24.2693 175.894 24.664C176.46 25.0587 176.86 25.5813 177.094 26.232V24.184H178.918V33H177.094V30.952C176.86 31.6027 176.46 32.1253 175.894 32.52C175.329 32.9147 174.646 33.112 173.846 33.112C173.078 33.112 172.39 32.9307 171.782 32.568C171.185 32.2053 170.716 31.6827 170.374 31C170.033 30.3173 169.862 29.512 169.862 28.584C169.862 27.6667 170.033 26.8667 170.374 26.184C170.716 25.5013 171.185 24.9787 171.782 24.616C172.39 24.2533 173.078 24.072 173.846 24.072ZM174.406 25.672C173.596 25.672 172.945 25.9333 172.454 26.456C171.974 26.968 171.734 27.6773 171.734 28.584C171.734 29.4907 171.974 30.2053 172.454 30.728C172.945 31.24 173.596 31.496 174.406 31.496C174.918 31.496 175.377 31.3787 175.782 31.144C176.188 30.8987 176.508 30.5573 176.742 30.12C176.977 29.6827 177.094 29.1707 177.094 28.584C177.094 28.008 176.977 27.5013 176.742 27.064C176.508 26.616 176.188 26.2747 175.782 26.04C175.377 25.7947 174.918 25.672 174.406 25.672ZM186.355 24.04C187.379 24.04 188.2 24.3707 188.819 25.032C189.438 25.6933 189.747 26.6373 189.747 27.864V33H187.923V28.056C187.923 27.2667 187.72 26.6587 187.315 26.232C186.91 25.7947 186.355 25.576 185.651 25.576C184.926 25.576 184.344 25.8107 183.907 26.28C183.47 26.7387 183.251 27.416 183.251 28.312V33H181.427V24.184H183.251V26.12C183.486 25.4587 183.88 24.9467 184.435 24.584C184.99 24.2213 185.63 24.04 186.355 24.04ZM196.12 24.072C197.262 24.072 198.206 24.376 198.952 24.984C199.699 25.5813 200.163 26.3973 200.344 27.432H198.408C198.302 26.8773 198.04 26.4453 197.624 26.136C197.219 25.816 196.707 25.656 196.088 25.656C195.384 25.656 194.798 25.9067 194.328 26.408C193.859 26.8987 193.624 27.624 193.624 28.584C193.624 29.544 193.859 30.2747 194.328 30.776C194.798 31.2773 195.384 31.528 196.088 31.528C196.707 31.528 197.219 31.368 197.624 31.048C198.04 30.728 198.302 30.2907 198.408 29.736H200.344C200.163 30.7707 199.699 31.592 198.952 32.2C198.206 32.808 197.262 33.112 196.12 33.112C195.267 33.112 194.51 32.9307 193.848 32.568C193.198 32.2053 192.686 31.6827 192.312 31C191.939 30.3173 191.752 29.512 191.752 28.584C191.752 27.6667 191.939 26.8667 192.312 26.184C192.686 25.5013 193.198 24.9787 193.848 24.616C194.51 24.2533 195.267 24.072 196.12 24.072ZM210.618 28.168C210.618 28.4667 210.597 28.728 210.554 28.952H203.77C203.802 29.8587 204.053 30.5307 204.522 30.968C204.992 31.4053 205.573 31.624 206.266 31.624C206.874 31.624 207.386 31.4693 207.802 31.16C208.229 30.8507 208.49 30.44 208.586 29.928H210.538C210.421 30.5467 210.176 31.096 209.802 31.576C209.429 32.056 208.944 32.4347 208.346 32.712C207.749 32.9787 207.082 33.112 206.346 33.112C205.493 33.112 204.736 32.9307 204.074 32.568C203.424 32.2053 202.912 31.6827 202.538 31C202.165 30.3173 201.978 29.512 201.978 28.584C201.978 27.6667 202.165 26.8667 202.538 26.184C202.912 25.5013 203.424 24.9787 204.074 24.616C204.736 24.2533 205.493 24.072 206.346 24.072C207.21 24.072 207.962 24.2533 208.602 24.616C209.253 24.968 209.749 25.4587 210.09 26.088C210.442 26.7067 210.618 27.4 210.618 28.168ZM208.778 28.12C208.8 27.544 208.698 27.064 208.474 26.68C208.261 26.2853 207.962 25.9973 207.578 25.816C207.205 25.624 206.794 25.528 206.346 25.528C205.632 25.528 205.034 25.7467 204.554 26.184C204.074 26.6213 203.813 27.2667 203.77 28.12H208.778ZM218.594 21.704V33H216.77V21.704H218.594ZM226.049 24.04C227.073 24.04 227.894 24.3707 228.513 25.032C229.132 25.6933 229.441 26.6373 229.441 27.864V33H227.617V28.056C227.617 27.2667 227.414 26.6587 227.009 26.232C226.604 25.7947 226.049 25.576 225.345 25.576C224.62 25.576 224.038 25.8107 223.601 26.28C223.164 26.7387 222.945 27.416 222.945 28.312V33H221.121V24.184H222.945V26.12C223.18 25.4587 223.574 24.9467 224.129 24.584C224.684 24.2213 225.324 24.04 226.049 24.04ZM236.006 22.36C235.291 22.328 234.79 22.4453 234.502 22.712C234.214 22.968 234.07 23.4107 234.07 24.04V24.184H236.006V25.752H234.07V33H232.23V25.752H231.03V24.184H232.23V23.896C232.23 22.8187 232.545 22.0133 233.174 21.48C233.803 20.936 234.747 20.696 236.006 20.76V22.36ZM241.824 24.072C242.677 24.072 243.445 24.2533 244.128 24.616C244.811 24.9787 245.344 25.5013 245.728 26.184C246.112 26.8667 246.304 27.6667 246.304 28.584C246.304 29.512 246.112 30.3173 245.728 31C245.344 31.6827 244.811 32.2053 244.128 32.568C243.445 32.9307 242.677 33.112 241.824 33.112C240.971 33.112 240.203 32.9307 239.52 32.568C238.848 32.2053 238.315 31.6827 237.92 31C237.536 30.3067 237.344 29.5013 237.344 28.584C237.344 27.6667 237.536 26.8667 237.92 26.184C238.315 25.5013 238.848 24.9787 239.52 24.616C240.203 24.2533 240.971 24.072 241.824 24.072ZM241.824 25.656C241.355 25.656 240.923 25.7627 240.528 25.976C240.133 26.1893 239.813 26.52 239.568 26.968C239.333 27.4053 239.216 27.944 239.216 28.584C239.216 29.2347 239.333 29.7787 239.568 30.216C239.813 30.6533 240.133 30.9787 240.528 31.192C240.923 31.4053 241.355 31.512 241.824 31.512C242.293 31.512 242.725 31.4053 243.12 31.192C243.515 30.9787 243.829 30.6533 244.064 30.216C244.309 29.7787 244.432 29.2347 244.432 28.584C244.432 27.944 244.309 27.4053 244.064 26.968C243.829 26.52 243.515 26.1893 243.12 25.976C242.725 25.7627 242.293 25.656 241.824 25.656ZM250.202 25.912C250.5 25.336 250.927 24.8827 251.482 24.552C252.036 24.2107 252.676 24.04 253.402 24.04V26.024H252.858C252.058 26.024 251.412 26.2213 250.922 26.616C250.442 27 250.202 27.64 250.202 28.536V33H248.378V24.184H250.202V25.912ZM266.112 24.04C267.158 24.04 267.99 24.3707 268.608 25.032C269.238 25.6933 269.552 26.6373 269.552 27.864V33H267.728V28.056C267.728 27.288 267.536 26.696 267.152 26.28C266.768 25.8533 266.24 25.64 265.568 25.64C264.854 25.64 264.283 25.8693 263.856 26.328C263.44 26.776 263.232 27.4373 263.232 28.312V33H261.408V28.056C261.408 27.288 261.216 26.696 260.832 26.28C260.448 25.8533 259.92 25.64 259.248 25.64C258.534 25.64 257.963 25.8693 257.536 26.328C257.12 26.776 256.912 27.4373 256.912 28.312V33H255.088V24.184H256.912V26.024C257.136 25.384 257.51 24.8933 258.032 24.552C258.555 24.2107 259.168 24.04 259.872 24.04C260.608 24.04 261.243 24.2213 261.776 24.584C262.32 24.9467 262.715 25.4693 262.96 26.152C263.216 25.4907 263.627 24.9733 264.192 24.6C264.758 24.2267 265.398 24.04 266.112 24.04ZM275.538 24.072C276.338 24.072 277.021 24.2693 277.586 24.664C278.151 25.0587 278.551 25.5813 278.786 26.232V24.184H280.61V33H278.786V30.952C278.551 31.6027 278.151 32.1253 277.586 32.52C277.021 32.9147 276.338 33.112 275.538 33.112C274.77 33.112 274.082 32.9307 273.474 32.568C272.877 32.2053 272.407 31.6827 272.066 31C271.725 30.3173 271.554 29.512 271.554 28.584C271.554 27.6667 271.725 26.8667 272.066 26.184C272.407 25.5013 272.877 24.9787 273.474 24.616C274.082 24.2533 274.77 24.072 275.538 24.072ZM276.098 25.672C275.287 25.672 274.637 25.9333 274.146 26.456C273.666 26.968 273.426 27.6773 273.426 28.584C273.426 29.4907 273.666 30.2053 274.146 30.728C274.637 31.24 275.287 31.496 276.098 31.496C276.61 31.496 277.069 31.3787 277.474 31.144C277.879 30.8987 278.199 30.5573 278.434 30.12C278.669 29.6827 278.786 29.1707 278.786 28.584C278.786 28.008 278.669 27.5013 278.434 27.064C278.199 26.616 277.879 26.2747 277.474 26.04C277.069 25.7947 276.61 25.672 276.098 25.672ZM287.551 31.416V33H286.431C285.492 33 284.778 32.776 284.287 32.328C283.807 31.8693 283.567 31.112 283.567 30.056V25.736H282.303V24.184H283.567V21.992H285.407V24.184H287.535V25.736H285.407V30.088C285.407 30.5893 285.498 30.936 285.679 31.128C285.871 31.32 286.202 31.416 286.671 31.416H287.551ZM289.324 21.624C289.324 21.3147 289.43 21.0587 289.644 20.856C289.857 20.6533 290.14 20.552 290.492 20.552C290.844 20.552 291.126 20.6533 291.34 20.856C291.564 21.0587 291.676 21.3147 291.676 21.624C291.676 21.9333 291.564 22.184 291.34 22.376C291.126 22.568 290.844 22.664 290.492 22.664C290.14 22.664 289.857 22.568 289.644 22.376C289.43 22.184 289.324 21.9333 289.324 21.624ZM291.404 24.184V33H289.58V24.184H291.404ZM297.963 24.072C298.816 24.072 299.584 24.2533 300.267 24.616C300.95 24.9787 301.483 25.5013 301.867 26.184C302.251 26.8667 302.443 27.6667 302.443 28.584C302.443 29.512 302.251 30.3173 301.867 31C301.483 31.6827 300.95 32.2053 300.267 32.568C299.584 32.9307 298.816 33.112 297.963 33.112C297.11 33.112 296.342 32.9307 295.659 32.568C294.987 32.2053 294.454 31.6827 294.059 31C293.675 30.3067 293.483 29.5013 293.483 28.584C293.483 27.6667 293.675 26.8667 294.059 26.184C294.454 25.5013 294.987 24.9787 295.659 24.616C296.342 24.2533 297.11 24.072 297.963 24.072ZM297.963 25.656C297.494 25.656 297.062 25.7627 296.667 25.976C296.272 26.1893 295.952 26.52 295.707 26.968C295.472 27.4053 295.355 27.944 295.355 28.584C295.355 29.2347 295.472 29.7787 295.707 30.216C295.952 30.6533 296.272 30.9787 296.667 31.192C297.062 31.4053 297.494 31.512 297.963 31.512C298.432 31.512 298.864 31.4053 299.259 31.192C299.654 30.9787 299.968 30.6533 300.203 30.216C300.448 29.7787 300.571 29.2347 300.571 28.584C300.571 27.944 300.448 27.4053 300.203 26.968C299.968 26.52 299.654 26.1893 299.259 25.976C298.864 25.7627 298.432 25.656 297.963 25.656ZM309.445 24.04C310.469 24.04 311.29 24.3707 311.909 25.032C312.527 25.6933 312.837 26.6373 312.837 27.864V33H311.013V28.056C311.013 27.2667 310.81 26.6587 310.405 26.232C309.999 25.7947 309.445 25.576 308.741 25.576C308.015 25.576 307.434 25.8107 306.997 26.28C306.559 26.7387 306.341 27.416 306.341 28.312V33H304.517V24.184H306.341V26.12C306.575 25.4587 306.97 24.9467 307.525 24.584C308.079 24.2213 308.719 24.04 309.445 24.04Z" fill="white"/>
    <path d="M163.196 99.712V103H161.828V94.528H164.708C165.684 94.528 166.416 94.76 166.904 95.224C167.4 95.688 167.648 96.324 167.648 97.132C167.648 97.932 167.396 98.564 166.892 99.028C166.388 99.484 165.66 99.712 164.708 99.712H163.196ZM164.564 98.596C165.692 98.596 166.256 98.108 166.256 97.132C166.256 96.652 166.12 96.288 165.848 96.04C165.584 95.784 165.156 95.656 164.564 95.656H163.196V98.596H164.564ZM171.74 96.304C172.34 96.304 172.852 96.452 173.276 96.748C173.7 97.044 174 97.436 174.176 97.924V96.388H175.544V103H174.176V101.464C174 101.952 173.7 102.344 173.276 102.64C172.852 102.936 172.34 103.084 171.74 103.084C171.164 103.084 170.648 102.948 170.192 102.676C169.744 102.404 169.392 102.012 169.136 101.5C168.88 100.988 168.752 100.384 168.752 99.688C168.752 99 168.88 98.4 169.136 97.888C169.392 97.376 169.744 96.984 170.192 96.712C170.648 96.44 171.164 96.304 171.74 96.304ZM172.16 97.504C171.552 97.504 171.064 97.7 170.696 98.092C170.336 98.476 170.156 99.008 170.156 99.688C170.156 100.368 170.336 100.904 170.696 101.296C171.064 101.68 171.552 101.872 172.16 101.872C172.544 101.872 172.888 101.784 173.192 101.608C173.496 101.424 173.736 101.168 173.912 100.84C174.088 100.512 174.176 100.128 174.176 99.688C174.176 99.256 174.088 98.876 173.912 98.548C173.736 98.212 173.496 97.956 173.192 97.78C172.888 97.596 172.544 97.504 172.16 97.504ZM179.597 96.304C180.373 96.304 180.993 96.504 181.457 96.904C181.929 97.296 182.217 97.824 182.321 98.488H181.025C180.969 98.128 180.813 97.84 180.557 97.624C180.309 97.4 179.977 97.288 179.561 97.288C179.217 97.288 178.949 97.372 178.757 97.54C178.573 97.7 178.481 97.92 178.481 98.2C178.481 98.408 178.549 98.576 178.685 98.704C178.821 98.832 178.989 98.932 179.189 99.004C179.397 99.076 179.689 99.156 180.065 99.244C180.561 99.356 180.961 99.472 181.265 99.592C181.577 99.712 181.841 99.904 182.057 100.168C182.281 100.424 182.393 100.776 182.393 101.224C182.393 101.776 182.181 102.224 181.757 102.568C181.341 102.912 180.777 103.084 180.065 103.084C179.241 103.084 178.573 102.892 178.061 102.508C177.557 102.124 177.253 101.588 177.149 100.9H178.481C178.521 101.26 178.681 101.552 178.961 101.776C179.241 102 179.609 102.112 180.065 102.112C180.393 102.112 180.649 102.028 180.833 101.86C181.025 101.684 181.121 101.464 181.121 101.2C181.121 100.968 181.049 100.784 180.905 100.648C180.761 100.512 180.581 100.408 180.365 100.336C180.149 100.256 179.853 100.176 179.477 100.096C178.997 99.984 178.605 99.872 178.301 99.76C178.005 99.648 177.749 99.468 177.533 99.22C177.325 98.964 177.221 98.62 177.221 98.188C177.221 97.628 177.429 97.176 177.845 96.832C178.269 96.48 178.853 96.304 179.597 96.304ZM186.177 96.304C186.953 96.304 187.573 96.504 188.037 96.904C188.509 97.296 188.797 97.824 188.901 98.488H187.605C187.549 98.128 187.393 97.84 187.137 97.624C186.889 97.4 186.557 97.288 186.141 97.288C185.797 97.288 185.529 97.372 185.337 97.54C185.153 97.7 185.061 97.92 185.061 98.2C185.061 98.408 185.129 98.576 185.265 98.704C185.401 98.832 185.569 98.932 185.769 99.004C185.977 99.076 186.269 99.156 186.645 99.244C187.141 99.356 187.541 99.472 187.845 99.592C188.157 99.712 188.421 99.904 188.637 100.168C188.861 100.424 188.973 100.776 188.973 101.224C188.973 101.776 188.761 102.224 188.337 102.568C187.921 102.912 187.357 103.084 186.645 103.084C185.821 103.084 185.153 102.892 184.641 102.508C184.137 102.124 183.833 101.588 183.729 100.9H185.061C185.101 101.26 185.261 101.552 185.541 101.776C185.821 102 186.189 102.112 186.645 102.112C186.973 102.112 187.229 102.028 187.413 101.86C187.605 101.684 187.701 101.464 187.701 101.2C187.701 100.968 187.629 100.784 187.485 100.648C187.341 100.512 187.161 100.408 186.945 100.336C186.729 100.256 186.433 100.176 186.057 100.096C185.577 99.984 185.185 99.872 184.881 99.76C184.585 99.648 184.329 99.468 184.113 99.22C183.905 98.964 183.801 98.62 183.801 98.188C183.801 97.628 184.009 97.176 184.425 96.832C184.849 96.48 185.433 96.304 186.177 96.304ZM199.849 96.388L198.013 103H196.501L194.869 97.888L193.213 103H191.713L189.877 96.388H191.257L192.517 101.74L194.173 96.388H195.613L197.293 101.74L198.553 96.388H199.849ZM204.044 96.304C204.684 96.304 205.26 96.44 205.772 96.712C206.284 96.984 206.684 97.376 206.972 97.888C207.26 98.4 207.404 99 207.404 99.688C207.404 100.384 207.26 100.988 206.972 101.5C206.684 102.012 206.284 102.404 205.772 102.676C205.26 102.948 204.684 103.084 204.044 103.084C203.404 103.084 202.828 102.948 202.316 102.676C201.812 102.404 201.412 102.012 201.116 101.5C200.828 100.98 200.684 100.376 200.684 99.688C200.684 99 200.828 98.4 201.116 97.888C201.412 97.376 201.812 96.984 202.316 96.712C202.828 96.44 203.404 96.304 204.044 96.304ZM204.044 97.492C203.692 97.492 203.368 97.572 203.072 97.732C202.776 97.892 202.536 98.14 202.352 98.476C202.176 98.804 202.088 99.208 202.088 99.688C202.088 100.176 202.176 100.584 202.352 100.912C202.536 101.24 202.776 101.484 203.072 101.644C203.368 101.804 203.692 101.884 204.044 101.884C204.396 101.884 204.72 101.804 205.016 101.644C205.312 101.484 205.548 101.24 205.724 100.912C205.908 100.584 206 100.176 206 99.688C206 99.208 205.908 98.804 205.724 98.476C205.548 98.14 205.312 97.892 205.016 97.732C204.72 97.572 204.396 97.492 204.044 97.492ZM210.327 97.684C210.551 97.252 210.871 96.912 211.287 96.664C211.703 96.408 212.183 96.28 212.727 96.28V97.768H212.319C211.719 97.768 211.235 97.916 210.867 98.212C210.507 98.5 210.327 98.98 210.327 99.652V103H208.959V96.388H210.327V97.684ZM216.644 96.304C217.244 96.304 217.756 96.452 218.18 96.748C218.604 97.044 218.9 97.436 219.068 97.924V94.12H220.448V103H219.068V101.464C218.9 101.952 218.604 102.344 218.18 102.64C217.756 102.936 217.244 103.084 216.644 103.084C216.068 103.084 215.552 102.948 215.096 102.676C214.648 102.404 214.296 102.012 214.04 101.5C213.784 100.988 213.656 100.384 213.656 99.688C213.656 99 213.784 98.4 214.04 97.888C214.296 97.376 214.648 96.984 215.096 96.712C215.552 96.44 216.068 96.304 216.644 96.304ZM217.064 97.504C216.456 97.504 215.968 97.7 215.6 98.092C215.24 98.476 215.06 99.008 215.06 99.688C215.06 100.368 215.24 100.904 215.6 101.296C215.968 101.68 216.456 101.872 217.064 101.872C217.448 101.872 217.792 101.784 218.096 101.608C218.4 101.424 218.64 101.168 218.816 100.84C218.992 100.512 219.08 100.128 219.08 99.688C219.08 99.256 218.992 98.876 218.816 98.548C218.64 98.212 218.4 97.956 218.096 97.78C217.792 97.596 217.448 97.504 217.064 97.504ZM223.602 96.4V97.912H222.054V96.4H223.602ZM223.602 101.488V103H222.054V101.488H223.602ZM233.048 103L231.02 99.868L229.208 103H227.636L230.264 98.68L227.576 94.528H229.208L231.2 97.6L233 94.528H234.572L231.956 98.776L234.68 103H233.048ZM240.777 103L238.749 99.868L236.937 103H235.365L237.993 98.68L235.305 94.528H236.937L238.929 97.6L240.729 94.528H242.301L239.685 98.776L242.409 103H240.777ZM248.505 103L246.477 99.868L244.665 103H243.093L245.721 98.68L243.033 94.528H244.665L246.657 97.6L248.457 94.528H250.029L247.413 98.776L250.137 103H248.505ZM256.233 103L254.205 99.868L252.393 103H250.821L253.449 98.68L250.761 94.528H252.393L254.385 97.6L256.185 94.528H257.757L255.141 98.776L257.865 103H256.233ZM263.962 103L261.934 99.868L260.122 103H258.55L261.178 98.68L258.49 94.528H260.122L262.114 97.6L263.914 94.528H265.486L262.87 98.776L265.594 103H263.962ZM271.69 103L269.662 99.868L267.85 103H266.278L268.906 98.68L266.218 94.528H267.85L269.842 97.6L271.642 94.528H273.214L270.598 98.776L273.322 103H271.69ZM279.418 103L277.39 99.868L275.578 103H274.006L276.634 98.68L273.946 94.528H275.578L277.57 97.6L279.37 94.528H280.942L278.326 98.776L281.05 103H279.418ZM287.146 103L285.118 99.868L283.306 103H281.734L284.362 98.68L281.674 94.528H283.306L285.298 97.6L287.098 94.528H288.67L286.054 98.776L288.778 103H287.146Z" fill="white"/>
    <path opacity="0.249186" d="M18.196 94.528V103H16.828V94.528H18.196ZM23.8714 94.444C24.9114 94.444 25.7754 94.708 26.4634 95.236C27.1514 95.764 27.6154 96.48 27.8554 97.384H26.4034C26.2034 96.872 25.8834 96.468 25.4434 96.172C25.0114 95.868 24.4794 95.716 23.8474 95.716C23.3434 95.716 22.8914 95.84 22.4914 96.088C22.0994 96.336 21.7874 96.692 21.5554 97.156C21.3314 97.612 21.2194 98.148 21.2194 98.764C21.2194 99.372 21.3314 99.908 21.5554 100.372C21.7874 100.828 22.0994 101.18 22.4914 101.428C22.8914 101.676 23.3434 101.8 23.8474 101.8C24.4794 101.8 25.0114 101.652 25.4434 101.356C25.8834 101.052 26.2034 100.648 26.4034 100.144H27.8554C27.6154 101.048 27.1514 101.764 26.4634 102.292C25.7754 102.812 24.9114 103.072 23.8714 103.072C23.0714 103.072 22.3634 102.892 21.7474 102.532C21.1314 102.164 20.6554 101.656 20.3194 101.008C19.9834 100.352 19.8154 99.604 19.8154 98.764C19.8154 97.924 19.9834 97.18 20.3194 96.532C20.6554 95.876 21.1314 95.364 21.7474 94.996C22.3634 94.628 23.0714 94.444 23.8714 94.444ZM30.7323 96.4V97.912H29.1843V96.4H30.7323ZM30.7323 101.488V103H29.1843V101.488H30.7323ZM34.6707 95.812V94.528H37.3827V103H35.9427V95.812H34.6707ZM39.0584 98.704C39.0584 100.056 39.2984 101.116 39.7784 101.884C40.2584 102.644 41.0584 103.024 42.1784 103.024C43.2984 103.024 44.0984 102.64 44.5784 101.872C45.0584 101.104 45.2984 100.048 45.2984 98.704C45.2984 97.368 45.0584 96.32 44.5784 95.56C44.0984 94.792 43.2984 94.408 42.1784 94.408C41.0584 94.408 40.2584 94.788 39.7784 95.548C39.2984 96.308 39.0584 97.36 39.0584 98.704ZM43.9304 98.704C43.9304 99.68 43.8104 100.428 43.5704 100.948C43.3304 101.468 42.8664 101.728 42.1784 101.728C41.4824 101.728 41.0144 101.468 40.7744 100.948C40.5344 100.428 40.4144 99.68 40.4144 98.704C40.4144 97.736 40.5344 96.996 40.7744 96.484C41.0144 95.972 41.4824 95.716 42.1784 95.716C42.8664 95.716 43.3304 95.976 43.5704 96.496C43.8104 97.008 43.9304 97.744 43.9304 98.704ZM46.6309 101.932C47.9269 101.044 48.9629 100.176 49.7389 99.328C50.5229 98.472 50.9149 97.68 50.9149 96.952C50.9149 96.52 50.8069 96.176 50.5909 95.92C50.3829 95.664 50.0429 95.536 49.5709 95.536C49.0829 95.536 48.7149 95.696 48.4669 96.016C48.2189 96.328 48.0789 96.776 48.0469 97.36H46.7149C46.7709 96.392 47.0669 95.652 47.6029 95.14C48.1469 94.628 48.8389 94.372 49.6789 94.372C50.5029 94.372 51.1469 94.592 51.6109 95.032C52.0829 95.464 52.3189 96.064 52.3189 96.832C52.3189 97.448 52.1269 98.072 51.7429 98.704C51.3669 99.336 50.8869 99.92 50.3029 100.456C49.7189 100.984 49.1149 101.44 48.4909 101.824H52.5109V102.94H46.6309V101.932ZM53.6795 101.932C54.9755 101.044 56.0115 100.176 56.7875 99.328C57.5715 98.472 57.9635 97.68 57.9635 96.952C57.9635 96.52 57.8555 96.176 57.6395 95.92C57.4315 95.664 57.0915 95.536 56.6195 95.536C56.1315 95.536 55.7635 95.696 55.5155 96.016C55.2675 96.328 55.1275 96.776 55.0955 97.36H53.7635C53.8195 96.392 54.1155 95.652 54.6515 95.14C55.1955 94.628 55.8875 94.372 56.7275 94.372C57.5515 94.372 58.1955 94.592 58.6595 95.032C59.1315 95.464 59.3675 96.064 59.3675 96.832C59.3675 97.448 59.1755 98.072 58.7915 98.704C58.4155 99.336 57.9355 99.92 57.3515 100.456C56.7675 100.984 56.1635 101.44 55.5395 101.824H59.5595V102.94H53.6795V101.932ZM62.3721 100.552C62.4361 101.008 62.5921 101.36 62.8401 101.608C63.0961 101.856 63.4401 101.98 63.8721 101.98C64.4801 101.98 64.9321 101.74 65.2281 101.26C65.5321 100.772 65.6841 100.008 65.6841 98.968L65.6721 98.56C65.5441 98.992 65.2761 99.34 64.8681 99.604C64.4681 99.86 64.0001 99.988 63.4641 99.988C62.6321 99.988 61.9801 99.74 61.5081 99.244C61.0361 98.74 60.8001 98.04 60.8001 97.144C60.8001 96.6 60.9081 96.112 61.1241 95.68C61.3401 95.248 61.6641 94.908 62.0961 94.66C62.5281 94.404 63.0601 94.276 63.6921 94.276C64.9161 94.276 65.7561 94.652 66.2121 95.404C66.6761 96.148 66.9081 97.18 66.9081 98.5C66.9081 99.996 66.6721 101.136 66.2001 101.92C65.7361 102.704 64.9601 103.096 63.8721 103.096C63.0321 103.096 62.3721 102.86 61.8921 102.388C61.4201 101.908 61.1481 101.296 61.0761 100.552H62.3721ZM65.5401 97.288C65.5401 96.768 65.3881 96.336 65.0841 95.992C64.7881 95.64 64.3401 95.464 63.7401 95.464C63.2441 95.464 62.8441 95.612 62.5401 95.908C62.2441 96.204 62.0961 96.62 62.0961 97.156C62.0961 97.724 62.2441 98.16 62.5401 98.464C62.8441 98.768 63.2561 98.92 63.7761 98.92C64.0801 98.92 64.3641 98.86 64.6281 98.74C64.9001 98.612 65.1201 98.428 65.2881 98.188C65.4561 97.94 65.5401 97.64 65.5401 97.288ZM73.6455 101.164H70.0695L69.4215 103H67.9575L71.0775 94.66H72.6495L75.7575 103H74.2935L73.6455 101.164ZM73.2615 100.108L71.8575 96.148L70.4535 100.108H73.2615ZM81.0212 98.08V99.232H76.0772V98.08H81.0212ZM94.0515 94.528L91.9395 103H90.2595L88.4715 96.448L86.6835 103H85.0035L82.8915 94.528H84.3915L85.8555 101.416L87.7155 94.528H89.2275L91.0875 101.416L92.5515 94.528H94.0515ZM99.2966 94.444C100.337 94.444 101.201 94.708 101.889 95.236C102.577 95.764 103.041 96.48 103.281 97.384H101.829C101.629 96.872 101.309 96.468 100.869 96.172C100.437 95.868 99.9046 95.716 99.2726 95.716C98.7686 95.716 98.3166 95.84 97.9166 96.088C97.5246 96.336 97.2126 96.692 96.9806 97.156C96.7566 97.612 96.6446 98.148 96.6446 98.764C96.6446 99.372 96.7566 99.908 96.9806 100.372C97.2126 100.828 97.5246 101.18 97.9166 101.428C98.3166 101.676 98.7686 101.8 99.2726 101.8C99.9046 101.8 100.437 101.652 100.869 101.356C101.309 101.052 101.629 100.648 101.829 100.144H103.281C103.041 101.048 102.577 101.764 101.889 102.292C101.201 102.812 100.337 103.072 99.2966 103.072C98.4966 103.072 97.7886 102.892 97.1726 102.532C96.5566 102.164 96.0806 101.656 95.7446 101.008C95.4086 100.352 95.2406 99.604 95.2406 98.764C95.2406 97.924 95.4086 97.18 95.7446 96.532C96.0806 95.876 96.5566 95.364 97.1726 94.996C97.7886 94.628 98.4966 94.444 99.2966 94.444ZM109.938 101.164H106.362L105.714 103H104.25L107.37 94.66H108.942L112.05 103H110.586L109.938 101.164ZM109.554 100.108L108.15 96.148L106.746 100.108H109.554ZM118.753 94.528V95.632H116.389V103H115.009V95.632H112.657V94.528H118.753ZM125.066 101.164H121.49L120.842 103H119.378L122.498 94.66H124.07L127.178 103H125.714L125.066 101.164ZM124.682 100.108L123.278 96.148L121.874 100.108H124.682ZM128.23 98.704C128.23 100.056 128.47 101.116 128.95 101.884C129.43 102.644 130.23 103.024 131.35 103.024C132.47 103.024 133.27 102.64 133.75 101.872C134.23 101.104 134.47 100.048 134.47 98.704C134.47 97.368 134.23 96.32 133.75 95.56C133.27 94.792 132.47 94.408 131.35 94.408C130.23 94.408 129.43 94.788 128.95 95.548C128.47 96.308 128.23 97.36 128.23 98.704ZM133.102 98.704C133.102 99.68 132.982 100.428 132.742 100.948C132.502 101.468 132.038 101.728 131.35 101.728C130.654 101.728 130.186 101.468 129.946 100.948C129.706 100.428 129.586 99.68 129.586 98.704C129.586 97.736 129.706 96.996 129.946 96.484C130.186 95.972 130.654 95.716 131.35 95.716C132.038 95.716 132.502 95.976 132.742 96.496C132.982 97.008 133.102 97.744 133.102 98.704ZM135.946 98.704C135.946 100.056 136.186 101.116 136.666 101.884C137.146 102.644 137.946 103.024 139.066 103.024C140.186 103.024 140.986 102.64 141.466 101.872C141.946 101.104 142.186 100.048 142.186 98.704C142.186 97.368 141.946 96.32 141.466 95.56C140.986 94.792 140.186 94.408 139.066 94.408C137.946 94.408 137.146 94.788 136.666 95.548C136.186 96.308 135.946 97.36 135.946 98.704ZM140.818 98.704C140.818 99.68 140.698 100.428 140.458 100.948C140.218 101.468 139.754 101.728 139.066 101.728C138.37 101.728 137.902 101.468 137.662 100.948C137.422 100.428 137.302 99.68 137.302 98.704C137.302 97.736 137.422 96.996 137.662 96.484C137.902 95.972 138.37 95.716 139.066 95.716C139.754 95.716 140.218 95.976 140.458 96.496C140.698 97.008 140.818 97.744 140.818 98.704ZM143.195 95.812V94.528H145.907V103H144.467V95.812H143.195Z" fill="white"/>
    <path opacity="0.249186" d="M168.68 71H167.312L163.196 64.748V71H161.828V62.54H163.196L167.312 68.816V62.54H168.68V71ZM176.72 67.376C176.72 67.6 176.704 67.796 176.672 67.964H171.584C171.608 68.644 171.796 69.148 172.148 69.476C172.5 69.804 172.936 69.968 173.456 69.968C173.912 69.968 174.296 69.852 174.608 69.62C174.928 69.388 175.124 69.08 175.196 68.696H176.66C176.572 69.16 176.388 69.572 176.108 69.932C175.828 70.292 175.464 70.576 175.016 70.784C174.568 70.984 174.068 71.084 173.516 71.084C172.876 71.084 172.308 70.948 171.812 70.676C171.324 70.404 170.94 70.012 170.66 69.5C170.38 68.988 170.24 68.384 170.24 67.688C170.24 67 170.38 66.4 170.66 65.888C170.94 65.376 171.324 64.984 171.812 64.712C172.308 64.44 172.876 64.304 173.516 64.304C174.164 64.304 174.728 64.44 175.208 64.712C175.696 64.976 176.068 65.344 176.324 65.816C176.588 66.28 176.72 66.8 176.72 67.376ZM175.34 67.34C175.356 66.908 175.28 66.548 175.112 66.26C174.952 65.964 174.728 65.748 174.44 65.612C174.16 65.468 173.852 65.396 173.516 65.396C172.98 65.396 172.532 65.56 172.172 65.888C171.812 66.216 171.616 66.7 171.584 67.34H175.34ZM181.605 69.812V71H180.765C180.061 71 179.525 70.832 179.157 70.496C178.797 70.152 178.617 69.584 178.617 68.792V65.552H177.669V64.388H178.617V62.744H179.997V64.388H181.593V65.552H179.997V68.816C179.997 69.192 180.065 69.452 180.201 69.596C180.345 69.74 180.593 69.812 180.945 69.812H181.605ZM192.39 64.388L190.554 71H189.042L187.41 65.888L185.754 71H184.254L182.418 64.388H183.798L185.058 69.74L186.714 64.388H188.154L189.834 69.74L191.094 64.388H192.39ZM196.585 64.304C197.225 64.304 197.801 64.44 198.313 64.712C198.825 64.984 199.225 65.376 199.513 65.888C199.801 66.4 199.945 67 199.945 67.688C199.945 68.384 199.801 68.988 199.513 69.5C199.225 70.012 198.825 70.404 198.313 70.676C197.801 70.948 197.225 71.084 196.585 71.084C195.945 71.084 195.369 70.948 194.857 70.676C194.353 70.404 193.953 70.012 193.657 69.5C193.369 68.98 193.225 68.376 193.225 67.688C193.225 67 193.369 66.4 193.657 65.888C193.953 65.376 194.353 64.984 194.857 64.712C195.369 64.44 195.945 64.304 196.585 64.304ZM196.585 65.492C196.233 65.492 195.909 65.572 195.613 65.732C195.317 65.892 195.077 66.14 194.893 66.476C194.717 66.804 194.629 67.208 194.629 67.688C194.629 68.176 194.717 68.584 194.893 68.912C195.077 69.24 195.317 69.484 195.613 69.644C195.909 69.804 196.233 69.884 196.585 69.884C196.937 69.884 197.261 69.804 197.557 69.644C197.853 69.484 198.089 69.24 198.265 68.912C198.449 68.584 198.541 68.176 198.541 67.688C198.541 67.208 198.449 66.804 198.265 66.476C198.089 66.14 197.853 65.892 197.557 65.732C197.261 65.572 196.937 65.492 196.585 65.492ZM202.869 65.684C203.093 65.252 203.413 64.912 203.829 64.664C204.245 64.408 204.725 64.28 205.269 64.28V65.768H204.861C204.261 65.768 203.777 65.916 203.409 66.212C203.049 66.5 202.869 66.98 202.869 67.652V71H201.501V64.388H202.869V65.684ZM210.278 71L207.902 68.06V71H206.534V62.12H207.902V67.208L210.254 64.388H211.898L209.018 67.676L211.97 71H210.278ZM217.426 64.4V65.912H215.878V64.4H217.426ZM217.426 69.488V71H215.878V69.488H217.426ZM225.913 62.456C226.921 62.456 227.761 62.704 228.433 63.2C229.105 63.696 229.549 64.372 229.765 65.228H228.325C228.141 64.772 227.837 64.408 227.413 64.136C226.997 63.864 226.501 63.728 225.925 63.728C225.397 63.728 224.921 63.852 224.497 64.1C224.081 64.348 223.753 64.7 223.513 65.156C223.281 65.612 223.165 66.148 223.165 66.764C223.165 67.412 223.285 67.968 223.525 68.432C223.765 68.896 224.101 69.252 224.533 69.5C224.973 69.74 225.481 69.86 226.057 69.86C226.761 69.86 227.365 69.644 227.869 69.212C228.373 68.772 228.677 68.172 228.781 67.412H225.673V66.404H229.933V67.712C229.837 68.336 229.613 68.904 229.261 69.416C228.917 69.92 228.457 70.324 227.881 70.628C227.313 70.932 226.661 71.084 225.925 71.084C225.101 71.084 224.373 70.9 223.741 70.532C223.109 70.164 222.621 69.656 222.277 69.008C221.933 68.352 221.761 67.604 221.761 66.764C221.761 65.924 221.933 65.18 222.277 64.532C222.621 63.876 223.105 63.368 223.729 63.008C224.361 62.64 225.089 62.456 225.913 62.456ZM232.926 63.632V66.2H236.046V67.256H232.926V69.884H236.406V71H231.558V62.528H236.406V63.632H232.926ZM244.37 71.432V72.764H237.674V71.432H244.37ZM254.697 62.66V71H253.317V64.748L250.905 71H249.705L247.281 64.748V71H245.913V62.66H247.569L250.329 69.32L253.041 62.66H254.697ZM260.507 62.42C261.291 62.42 261.999 62.604 262.631 62.972C263.271 63.34 263.771 63.856 264.131 64.52C264.499 65.176 264.683 65.92 264.683 66.752C264.683 67.584 264.499 68.332 264.131 68.996C263.771 69.652 263.271 70.168 262.631 70.544C261.999 70.912 261.291 71.096 260.507 71.096C259.715 71.096 258.999 70.912 258.359 70.544C257.727 70.168 257.227 69.652 256.859 68.996C256.491 68.332 256.307 67.584 256.307 66.752C256.307 65.92 256.491 65.176 256.859 64.52C257.227 63.856 257.727 63.34 258.359 62.972C258.999 62.604 259.715 62.42 260.507 62.42ZM260.507 63.692C259.963 63.692 259.479 63.816 259.055 64.064C258.631 64.312 258.299 64.668 258.059 65.132C257.827 65.596 257.711 66.136 257.711 66.752C257.711 67.368 257.827 67.908 258.059 68.372C258.299 68.836 258.631 69.192 259.055 69.44C259.479 69.688 259.963 69.812 260.507 69.812C261.043 69.812 261.519 69.688 261.935 69.44C262.359 69.192 262.687 68.836 262.919 68.372C263.159 67.908 263.279 67.368 263.279 66.752C263.279 66.136 263.159 65.596 262.919 65.132C262.687 64.668 262.359 64.312 261.935 64.064C261.519 63.816 261.043 63.692 260.507 63.692ZM273.575 66.752C273.575 67.608 273.399 68.356 273.047 68.996C272.703 69.628 272.195 70.12 271.523 70.472C270.859 70.824 270.063 71 269.135 71H266.303V62.528H269.135C270.063 62.528 270.859 62.704 271.523 63.056C272.195 63.4 272.703 63.888 273.047 64.52C273.399 65.152 273.575 65.896 273.575 66.752ZM269.027 69.764C270.043 69.764 270.823 69.5 271.367 68.972C271.911 68.444 272.183 67.704 272.183 66.752C272.183 65.8 271.911 65.06 271.367 64.532C270.823 64.004 270.043 63.74 269.027 63.74H267.671V69.764H269.027ZM276.499 62.528V67.556C276.499 68.308 276.663 68.868 276.991 69.236C277.327 69.604 277.795 69.788 278.395 69.788C278.987 69.788 279.447 69.604 279.775 69.236C280.111 68.868 280.279 68.308 280.279 67.556V62.528H281.647V67.556C281.647 68.716 281.347 69.596 280.747 70.196C280.147 70.788 279.355 71.084 278.371 71.084C277.395 71.084 276.611 70.788 276.019 70.196C275.427 69.596 275.131 68.716 275.131 67.556V62.528H276.499ZM284.85 69.932H287.778V71H283.482V62.528H284.85V69.932ZM290.457 63.632V66.2H293.577V67.256H290.457V69.884H293.937V71H289.089V62.528H293.937V63.632H290.457ZM301.901 71.432V72.764H295.205V71.432H301.901ZM308.28 71L306.252 67.868L304.44 71H302.868L305.496 66.68L302.808 62.528H304.44L306.432 65.6L308.232 62.528H309.804L307.188 66.776L309.912 71H308.28ZM316.009 71L313.981 67.868L312.169 71H310.597L313.225 66.68L310.537 62.528H312.169L314.161 65.6L315.961 62.528H317.533L314.917 66.776L317.641 71H316.009ZM323.737 71L321.709 67.868L319.897 71H318.325L320.953 66.68L318.265 62.528H319.897L321.889 65.6L323.689 62.528H325.261L322.645 66.776L325.369 71H323.737ZM331.465 71L329.437 67.868L327.625 71H326.053L328.681 66.68L325.993 62.528H327.625L329.617 65.6L331.417 62.528H332.989L330.373 66.776L333.097 71H331.465Z" fill="white"/>
    <path opacity="0.249186" d="M22.832 62.528V63.632H19.196V66.26H22.196V67.316H19.196V71H17.828V62.528H22.832ZM28.0707 62.444C29.1107 62.444 29.9747 62.708 30.6627 63.236C31.3507 63.764 31.8147 64.48 32.0547 65.384H30.6027C30.4027 64.872 30.0827 64.468 29.6427 64.172C29.2107 63.868 28.6787 63.716 28.0467 63.716C27.5427 63.716 27.0907 63.84 26.6907 64.088C26.2987 64.336 25.9867 64.692 25.7547 65.156C25.5307 65.612 25.4187 66.148 25.4187 66.764C25.4187 67.372 25.5307 67.908 25.7547 68.372C25.9867 68.828 26.2987 69.18 26.6907 69.428C27.0907 69.676 27.5427 69.8 28.0467 69.8C28.6787 69.8 29.2107 69.652 29.6427 69.356C30.0827 69.052 30.4027 68.648 30.6027 68.144H32.0547C31.8147 69.048 31.3507 69.764 30.6627 70.292C29.9747 70.812 29.1107 71.072 28.0707 71.072C27.2707 71.072 26.5627 70.892 25.9467 70.532C25.3307 70.164 24.8547 69.656 24.5187 69.008C24.1827 68.352 24.0147 67.604 24.0147 66.764C24.0147 65.924 24.1827 65.18 24.5187 64.532C24.8547 63.876 25.3307 63.364 25.9467 62.996C26.5627 62.628 27.2707 62.444 28.0707 62.444ZM37.4396 62.444C38.4796 62.444 39.3436 62.708 40.0316 63.236C40.7196 63.764 41.1836 64.48 41.4236 65.384H39.9716C39.7716 64.872 39.4516 64.468 39.0116 64.172C38.5796 63.868 38.0476 63.716 37.4156 63.716C36.9116 63.716 36.4596 63.84 36.0596 64.088C35.6676 64.336 35.3556 64.692 35.1236 65.156C34.8996 65.612 34.7876 66.148 34.7876 66.764C34.7876 67.372 34.8996 67.908 35.1236 68.372C35.3556 68.828 35.6676 69.18 36.0596 69.428C36.4596 69.676 36.9116 69.8 37.4156 69.8C38.0476 69.8 38.5796 69.652 39.0116 69.356C39.4516 69.052 39.7716 68.648 39.9716 68.144H41.4236C41.1836 69.048 40.7196 69.764 40.0316 70.292C39.3436 70.812 38.4796 71.072 37.4396 71.072C36.6396 71.072 35.9316 70.892 35.3156 70.532C34.6996 70.164 34.2236 69.656 33.8876 69.008C33.5516 68.352 33.3836 67.604 33.3836 66.764C33.3836 65.924 33.5516 65.18 33.8876 64.532C34.2236 63.876 34.6996 63.364 35.3156 62.996C35.9316 62.628 36.6396 62.444 37.4396 62.444ZM44.3005 64.4V65.912H42.7525V64.4H44.3005ZM44.3005 69.488V71H42.7525V69.488H44.3005ZM50.1108 69.884H54.2268V71H48.5868V69.932L52.6188 63.644H48.6708V62.528H54.1668V63.596L50.1108 69.884ZM58.4473 66.716L62.1793 71H60.5113L57.1633 67.076V71H55.7953V62.528H57.1633V66.404L60.5233 62.528H62.1793L58.4473 66.716ZM67.8816 62.528V68.672C67.8816 69.432 67.6696 70.024 67.2456 70.448C66.8216 70.872 66.2336 71.084 65.4816 71.084C64.6656 71.084 64.0256 70.848 63.5616 70.376C63.0976 69.904 62.8656 69.236 62.8656 68.372H64.2216C64.2216 68.836 64.3176 69.196 64.5096 69.452C64.7096 69.708 65.0136 69.836 65.4216 69.836C65.7976 69.836 66.0736 69.728 66.2496 69.512C66.4256 69.296 66.5136 69.016 66.5136 68.672V62.528H67.8816ZM73.7247 66.08V67.232H68.7807V66.08H73.7247ZM86.7551 62.528L84.6431 71H82.9631L81.1751 64.448L79.3871 71H77.7071L75.5951 62.528H77.0951L78.5591 69.416L80.4191 62.528H81.9311L83.7911 69.416L85.2551 62.528H86.7551ZM92.0002 62.444C93.0402 62.444 93.9042 62.708 94.5922 63.236C95.2802 63.764 95.7442 64.48 95.9842 65.384H94.5322C94.3322 64.872 94.0122 64.468 93.5722 64.172C93.1402 63.868 92.6082 63.716 91.9762 63.716C91.4722 63.716 91.0202 63.84 90.6202 64.088C90.2282 64.336 89.9162 64.692 89.6842 65.156C89.4602 65.612 89.3482 66.148 89.3482 66.764C89.3482 67.372 89.4602 67.908 89.6842 68.372C89.9162 68.828 90.2282 69.18 90.6202 69.428C91.0202 69.676 91.4722 69.8 91.9762 69.8C92.6082 69.8 93.1402 69.652 93.5722 69.356C94.0122 69.052 94.3322 68.648 94.5322 68.144H95.9842C95.7442 69.048 95.2802 69.764 94.5922 70.292C93.9042 70.812 93.0402 71.072 92.0002 71.072C91.2002 71.072 90.4922 70.892 89.8762 70.532C89.2602 70.164 88.7842 69.656 88.4482 69.008C88.1122 68.352 87.9442 67.604 87.9442 66.764C87.9442 65.924 88.1122 65.18 88.4482 64.532C88.7842 63.876 89.2602 63.364 89.8762 62.996C90.4922 62.628 91.2002 62.444 92.0002 62.444ZM102.641 69.164H99.0651L98.4171 71H96.9531L100.073 62.66H101.645L104.753 71H103.289L102.641 69.164ZM102.257 68.108L100.853 64.148L99.4491 68.108H102.257ZM111.457 62.528V63.632H109.093V71H107.713V63.632H105.361V62.528H111.457ZM117.77 69.164H114.194L113.546 71H112.082L115.202 62.66H116.774L119.882 71H118.418L117.77 69.164ZM117.386 68.108L115.982 64.148L114.578 68.108H117.386ZM120.933 66.704C120.933 68.056 121.173 69.116 121.653 69.884C122.133 70.644 122.933 71.024 124.053 71.024C125.173 71.024 125.973 70.64 126.453 69.872C126.933 69.104 127.173 68.048 127.173 66.704C127.173 65.368 126.933 64.32 126.453 63.56C125.973 62.792 125.173 62.408 124.053 62.408C122.933 62.408 122.133 62.788 121.653 63.548C121.173 64.308 120.933 65.36 120.933 66.704ZM125.805 66.704C125.805 67.68 125.685 68.428 125.445 68.948C125.205 69.468 124.741 69.728 124.053 69.728C123.357 69.728 122.889 69.468 122.649 68.948C122.409 68.428 122.289 67.68 122.289 66.704C122.289 65.736 122.409 64.996 122.649 64.484C122.889 63.972 123.357 63.716 124.053 63.716C124.741 63.716 125.205 63.976 125.445 64.496C125.685 65.008 125.805 65.744 125.805 66.704ZM128.65 66.704C128.65 68.056 128.89 69.116 129.37 69.884C129.85 70.644 130.65 71.024 131.77 71.024C132.89 71.024 133.69 70.64 134.17 69.872C134.65 69.104 134.89 68.048 134.89 66.704C134.89 65.368 134.65 64.32 134.17 63.56C133.69 62.792 132.89 62.408 131.77 62.408C130.65 62.408 129.85 62.788 129.37 63.548C128.89 64.308 128.65 65.36 128.65 66.704ZM133.522 66.704C133.522 67.68 133.402 68.428 133.162 68.948C132.922 69.468 132.458 69.728 131.77 69.728C131.074 69.728 130.606 69.468 130.366 68.948C130.126 68.428 130.006 67.68 130.006 66.704C130.006 65.736 130.126 64.996 130.366 64.484C130.606 63.972 131.074 63.716 131.77 63.716C132.458 63.716 132.922 63.976 133.162 64.496C133.402 65.008 133.522 65.744 133.522 66.704ZM135.898 63.812V62.528H138.61V71H137.17V63.812H135.898Z" fill="white"/>
    <path opacity="0.249186" d="M163.196 131.712V135H161.828V126.528H164.708C165.684 126.528 166.416 126.76 166.904 127.224C167.4 127.688 167.648 128.324 167.648 129.132C167.648 129.932 167.396 130.564 166.892 131.028C166.388 131.484 165.66 131.712 164.708 131.712H163.196ZM164.564 130.596C165.692 130.596 166.256 130.108 166.256 129.132C166.256 128.652 166.12 128.288 165.848 128.04C165.584 127.784 165.156 127.656 164.564 127.656H163.196V130.596H164.564ZM174.536 126.528V127.632H172.172V135H170.792V127.632H168.44V126.528H174.536ZM176.876 133.488V135H175.328V133.488H176.876ZM188.226 135H186.858L182.742 128.748V135H181.374V126.54H182.742L186.858 132.816V126.54H188.226V135ZM194.046 126.42C194.83 126.42 195.538 126.604 196.17 126.972C196.81 127.34 197.31 127.856 197.67 128.52C198.038 129.176 198.222 129.92 198.222 130.752C198.222 131.584 198.038 132.332 197.67 132.996C197.31 133.652 196.81 134.168 196.17 134.544C195.538 134.912 194.83 135.096 194.046 135.096C193.254 135.096 192.538 134.912 191.898 134.544C191.266 134.168 190.766 133.652 190.398 132.996C190.03 132.332 189.846 131.584 189.846 130.752C189.846 129.92 190.03 129.176 190.398 128.52C190.766 127.856 191.266 127.34 191.898 126.972C192.538 126.604 193.254 126.42 194.046 126.42ZM194.046 127.692C193.502 127.692 193.018 127.816 192.594 128.064C192.17 128.312 191.838 128.668 191.598 129.132C191.366 129.596 191.25 130.136 191.25 130.752C191.25 131.368 191.366 131.908 191.598 132.372C191.838 132.836 192.17 133.192 192.594 133.44C193.018 133.688 193.502 133.812 194.046 133.812C194.582 133.812 195.058 133.688 195.474 133.44C195.898 133.192 196.226 132.836 196.458 132.372C196.698 131.908 196.818 131.368 196.818 130.752C196.818 130.136 196.698 129.596 196.458 129.132C196.226 128.668 195.898 128.312 195.474 128.064C195.058 127.816 194.582 127.692 194.046 127.692ZM200.922 133.488V135H199.374V133.488H200.922ZM205.072 133.932C206.368 133.044 207.404 132.176 208.18 131.328C208.964 130.472 209.356 129.68 209.356 128.952C209.356 128.52 209.248 128.176 209.032 127.92C208.824 127.664 208.484 127.536 208.012 127.536C207.524 127.536 207.156 127.696 206.908 128.016C206.66 128.328 206.52 128.776 206.488 129.36H205.156C205.212 128.392 205.508 127.652 206.044 127.14C206.588 126.628 207.28 126.372 208.12 126.372C208.944 126.372 209.588 126.592 210.052 127.032C210.524 127.464 210.76 128.064 210.76 128.832C210.76 129.448 210.568 130.072 210.184 130.704C209.808 131.336 209.328 131.92 208.744 132.456C208.16 132.984 207.556 133.44 206.932 133.824H210.952V134.94H205.072V133.932ZM212.12 133.932C213.416 133.044 214.452 132.176 215.228 131.328C216.012 130.472 216.404 129.68 216.404 128.952C216.404 128.52 216.296 128.176 216.08 127.92C215.872 127.664 215.532 127.536 215.06 127.536C214.572 127.536 214.204 127.696 213.956 128.016C213.708 128.328 213.568 128.776 213.536 129.36H212.204C212.26 128.392 212.556 127.652 213.092 127.14C213.636 126.628 214.328 126.372 215.168 126.372C215.992 126.372 216.636 126.592 217.1 127.032C217.572 127.464 217.808 128.064 217.808 128.832C217.808 129.448 217.616 130.072 217.232 130.704C216.856 131.336 216.376 131.92 215.792 132.456C215.208 132.984 214.604 133.44 213.98 133.824H218V134.94H212.12V133.932ZM220.813 132.552C220.877 133.008 221.033 133.36 221.281 133.608C221.537 133.856 221.881 133.98 222.313 133.98C222.921 133.98 223.373 133.74 223.669 133.26C223.973 132.772 224.125 132.008 224.125 130.968L224.113 130.56C223.985 130.992 223.717 131.34 223.309 131.604C222.909 131.86 222.441 131.988 221.905 131.988C221.073 131.988 220.421 131.74 219.949 131.244C219.477 130.74 219.241 130.04 219.241 129.144C219.241 128.6 219.349 128.112 219.565 127.68C219.781 127.248 220.105 126.908 220.537 126.66C220.969 126.404 221.501 126.276 222.133 126.276C223.357 126.276 224.197 126.652 224.653 127.404C225.117 128.148 225.349 129.18 225.349 130.5C225.349 131.996 225.113 133.136 224.641 133.92C224.177 134.704 223.401 135.096 222.313 135.096C221.473 135.096 220.813 134.86 220.333 134.388C219.861 133.908 219.589 133.296 219.517 132.552H220.813ZM223.981 129.288C223.981 128.768 223.829 128.336 223.525 127.992C223.229 127.64 222.781 127.464 222.181 127.464C221.685 127.464 221.285 127.612 220.981 127.908C220.685 128.204 220.537 128.62 220.537 129.156C220.537 129.724 220.685 130.16 220.981 130.464C221.285 130.768 221.697 130.92 222.217 130.92C222.521 130.92 222.805 130.86 223.069 130.74C223.341 130.612 223.561 130.428 223.729 130.188C223.897 129.94 223.981 129.64 223.981 129.288ZM230.814 126.444C231.854 126.444 232.718 126.708 233.406 127.236C234.094 127.764 234.558 128.48 234.798 129.384H233.346C233.146 128.872 232.826 128.468 232.386 128.172C231.954 127.868 231.422 127.716 230.79 127.716C230.286 127.716 229.834 127.84 229.434 128.088C229.042 128.336 228.73 128.692 228.498 129.156C228.274 129.612 228.162 130.148 228.162 130.764C228.162 131.372 228.274 131.908 228.498 132.372C228.73 132.828 229.042 133.18 229.434 133.428C229.834 133.676 230.286 133.8 230.79 133.8C231.422 133.8 231.954 133.652 232.386 133.356C232.826 133.052 233.146 132.648 233.346 132.144H234.798C234.558 133.048 234.094 133.764 233.406 134.292C232.718 134.812 231.854 135.072 230.814 135.072C230.014 135.072 229.306 134.892 228.69 134.532C228.074 134.164 227.598 133.656 227.262 133.008C226.926 132.352 226.758 131.604 226.758 130.764C226.758 129.924 226.926 129.18 227.262 128.532C227.598 127.876 228.074 127.364 228.69 126.996C229.306 126.628 230.014 126.444 230.814 126.444ZM240.843 128.808C240.699 127.864 240.207 127.392 239.367 127.392C238.759 127.392 238.303 127.636 237.999 128.124C237.695 128.604 237.543 129.36 237.543 130.392L237.555 130.8C237.675 130.368 237.935 130.024 238.335 129.768C238.735 129.512 239.207 129.384 239.751 129.384C240.583 129.384 241.235 129.632 241.707 130.128C242.179 130.624 242.415 131.324 242.415 132.228C242.415 132.772 242.307 133.26 242.091 133.692C241.875 134.116 241.551 134.456 241.119 134.712C240.687 134.96 240.155 135.084 239.523 135.084C238.299 135.084 237.459 134.704 237.003 133.944C236.547 133.184 236.319 132.14 236.319 130.812C236.319 129.292 236.563 128.156 237.051 127.404C237.539 126.652 238.339 126.276 239.451 126.276C240.283 126.276 240.919 126.512 241.359 126.984C241.807 127.456 242.067 128.064 242.139 128.808H240.843ZM237.675 132.072C237.675 132.592 237.827 133.028 238.131 133.38C238.435 133.724 238.883 133.896 239.475 133.896C239.979 133.896 240.379 133.748 240.675 133.452C240.979 133.156 241.131 132.744 241.131 132.216C241.131 131.648 240.979 131.212 240.675 130.908C240.371 130.604 239.959 130.452 239.439 130.452C238.967 130.452 238.555 130.592 238.203 130.872C237.851 131.152 237.675 131.552 237.675 132.072ZM243.772 133.932C245.068 133.044 246.104 132.176 246.88 131.328C247.664 130.472 248.056 129.68 248.056 128.952C248.056 128.52 247.948 128.176 247.732 127.92C247.524 127.664 247.184 127.536 246.712 127.536C246.224 127.536 245.856 127.696 245.608 128.016C245.36 128.328 245.22 128.776 245.188 129.36H243.856C243.912 128.392 244.208 127.652 244.744 127.14C245.288 126.628 245.98 126.372 246.82 126.372C247.644 126.372 248.288 126.592 248.752 127.032C249.224 127.464 249.46 128.064 249.46 128.832C249.46 129.448 249.268 130.072 248.884 130.704C248.508 131.336 248.028 131.92 247.444 132.456C246.86 132.984 246.256 133.44 245.632 133.824H249.652V134.94H243.772V133.932ZM256.112 127.512L252.956 135H251.516L254.72 127.668H250.52V126.48H256.112V127.512ZM257.142 133.932C258.438 133.044 259.474 132.176 260.25 131.328C261.034 130.472 261.426 129.68 261.426 128.952C261.426 128.52 261.318 128.176 261.102 127.92C260.894 127.664 260.554 127.536 260.082 127.536C259.594 127.536 259.226 127.696 258.978 128.016C258.73 128.328 258.59 128.776 258.558 129.36H257.226C257.282 128.392 257.578 127.652 258.114 127.14C258.658 126.628 259.35 126.372 260.19 126.372C261.014 126.372 261.658 126.592 262.122 127.032C262.594 127.464 262.83 128.064 262.83 128.832C262.83 129.448 262.638 130.072 262.254 130.704C261.878 131.336 261.398 131.92 260.814 132.456C260.23 132.984 259.626 133.44 259.002 133.824H263.022V134.94H257.142V133.932ZM268.415 126.456C269.423 126.456 270.263 126.704 270.935 127.2C271.607 127.696 272.051 128.372 272.267 129.228H270.827C270.643 128.772 270.339 128.408 269.915 128.136C269.499 127.864 269.003 127.728 268.427 127.728C267.899 127.728 267.423 127.852 266.999 128.1C266.583 128.348 266.255 128.7 266.015 129.156C265.783 129.612 265.667 130.148 265.667 130.764C265.667 131.412 265.787 131.968 266.027 132.432C266.267 132.896 266.603 133.252 267.035 133.5C267.475 133.74 267.983 133.86 268.559 133.86C269.263 133.86 269.867 133.644 270.371 133.212C270.875 132.772 271.179 132.172 271.283 131.412H268.175V130.404H272.435V131.712C272.339 132.336 272.115 132.904 271.763 133.416C271.419 133.92 270.959 134.324 270.383 134.628C269.815 134.932 269.163 135.084 268.427 135.084C267.603 135.084 266.875 134.9 266.243 134.532C265.611 134.164 265.123 133.656 264.779 133.008C264.435 132.352 264.263 131.604 264.263 130.764C264.263 129.924 264.435 129.18 264.779 128.532C265.123 127.876 265.607 127.368 266.231 127.008C266.863 126.64 267.591 126.456 268.415 126.456ZM273.856 130.704C273.856 132.056 274.096 133.116 274.576 133.884C275.056 134.644 275.856 135.024 276.976 135.024C278.096 135.024 278.896 134.64 279.376 133.872C279.856 133.104 280.096 132.048 280.096 130.704C280.096 129.368 279.856 128.32 279.376 127.56C278.896 126.792 278.096 126.408 276.976 126.408C275.856 126.408 275.056 126.788 274.576 127.548C274.096 128.308 273.856 129.36 273.856 130.704ZM278.728 130.704C278.728 131.68 278.608 132.428 278.368 132.948C278.128 133.468 277.664 133.728 276.976 133.728C276.28 133.728 275.812 133.468 275.572 132.948C275.332 132.428 275.212 131.68 275.212 130.704C275.212 129.736 275.332 128.996 275.572 128.484C275.812 127.972 276.28 127.716 276.976 127.716C277.664 127.716 278.128 127.976 278.368 128.496C278.608 129.008 278.728 129.744 278.728 130.704ZM281.573 130.704C281.573 132.056 281.813 133.116 282.293 133.884C282.773 134.644 283.573 135.024 284.693 135.024C285.813 135.024 286.613 134.64 287.093 133.872C287.573 133.104 287.813 132.048 287.813 130.704C287.813 129.368 287.573 128.32 287.093 127.56C286.613 126.792 285.813 126.408 284.693 126.408C283.573 126.408 282.773 126.788 282.293 127.548C281.813 128.308 281.573 129.36 281.573 130.704ZM286.445 130.704C286.445 131.68 286.325 132.428 286.085 132.948C285.845 133.468 285.381 133.728 284.693 133.728C283.997 133.728 283.529 133.468 283.289 132.948C283.049 132.428 282.929 131.68 282.929 130.704C282.929 129.736 283.049 128.996 283.289 128.484C283.529 127.972 283.997 127.716 284.693 127.716C285.381 127.716 285.845 127.976 286.085 128.496C286.325 129.008 286.445 129.744 286.445 130.704ZM288.821 127.812V126.528H291.533V135H290.093V127.812H288.821ZM297.421 130.08V131.232H292.477V130.08H297.421ZM299.519 130.704C299.519 132.056 299.759 133.116 300.239 133.884C300.719 134.644 301.519 135.024 302.639 135.024C303.759 135.024 304.559 134.64 305.039 133.872C305.519 133.104 305.759 132.048 305.759 130.704C305.759 129.368 305.519 128.32 305.039 127.56C304.559 126.792 303.759 126.408 302.639 126.408C301.519 126.408 300.719 126.788 300.239 127.548C299.759 128.308 299.519 129.36 299.519 130.704ZM304.391 130.704C304.391 131.68 304.271 132.428 304.031 132.948C303.791 133.468 303.327 133.728 302.639 133.728C301.943 133.728 301.475 133.468 301.235 132.948C300.995 132.428 300.875 131.68 300.875 130.704C300.875 129.736 300.995 128.996 301.235 128.484C301.475 127.972 301.943 127.716 302.639 127.716C303.327 127.716 303.791 127.976 304.031 128.496C304.271 129.008 304.391 129.744 304.391 130.704Z" fill="white"/>
    <path opacity="0.249186" d="M26.612 126.66V135H25.232V128.748L22.82 135H21.62L19.196 128.748V135H17.828V126.66H19.484L22.244 133.32L24.956 126.66H26.612ZM32.7497 133.164H29.1737L28.5257 135H27.0617L30.1817 126.66H31.7537L34.8617 135H33.3977L32.7497 133.164ZM32.3657 132.108L30.9617 128.148L29.5577 132.108H32.3657ZM39.0974 126.444C40.1374 126.444 41.0014 126.708 41.6894 127.236C42.3774 127.764 42.8414 128.48 43.0814 129.384H41.6294C41.4294 128.872 41.1094 128.468 40.6694 128.172C40.2374 127.868 39.7054 127.716 39.0734 127.716C38.5694 127.716 38.1174 127.84 37.7174 128.088C37.3254 128.336 37.0134 128.692 36.7814 129.156C36.5574 129.612 36.4454 130.148 36.4454 130.764C36.4454 131.372 36.5574 131.908 36.7814 132.372C37.0134 132.828 37.3254 133.18 37.7174 133.428C38.1174 133.676 38.5694 133.8 39.0734 133.8C39.7054 133.8 40.2374 133.652 40.6694 133.356C41.1094 133.052 41.4294 132.648 41.6294 132.144H43.0814C42.8414 133.048 42.3774 133.764 41.6894 134.292C41.0014 134.812 40.1374 135.072 39.0974 135.072C38.2974 135.072 37.5894 134.892 36.9734 134.532C36.3574 134.164 35.8814 133.656 35.5454 133.008C35.2094 132.352 35.0414 131.604 35.0414 130.764C35.0414 129.924 35.2094 129.18 35.5454 128.532C35.8814 127.876 36.3574 127.364 36.9734 126.996C37.5894 126.628 38.2974 126.444 39.0974 126.444ZM47.5068 126.528V135H46.1388V126.528H47.5068ZM55.8742 130.752C55.8742 131.608 55.6982 132.356 55.3462 132.996C55.0022 133.628 54.4942 134.12 53.8222 134.472C53.1582 134.824 52.3622 135 51.4342 135H48.6022V126.528H51.4342C52.3622 126.528 53.1582 126.704 53.8222 127.056C54.4942 127.4 55.0022 127.888 55.3462 128.52C55.6982 129.152 55.8742 129.896 55.8742 130.752ZM51.3262 133.764C52.3422 133.764 53.1222 133.5 53.6662 132.972C54.2102 132.444 54.4822 131.704 54.4822 130.752C54.4822 129.8 54.2102 129.06 53.6662 128.532C53.1222 128.004 52.3422 127.74 51.3262 127.74H49.9702V133.764H51.3262ZM57.9627 128.4V129.912H56.4147V128.4H57.9627ZM57.9627 133.488V135H56.4147V133.488H57.9627ZM65.809 135L63.781 131.868L61.969 135H60.397L63.025 130.68L60.337 126.528H61.969L63.961 129.6L65.761 126.528H67.333L64.717 130.776L67.441 135H65.809ZM72.7373 135L70.7093 131.868L68.8973 135H67.3253L69.9533 130.68L67.2653 126.528H68.8973L70.8893 129.6L72.6893 126.528H74.2613L71.6453 130.776L74.3693 135H72.7373ZM78.8376 130.08V131.232H73.8936V130.08H78.8376ZM85.1759 135L83.1479 131.868L81.3359 135H79.7639L82.3919 130.68L79.7039 126.528H81.3359L83.3279 129.6L85.1279 126.528H86.6999L84.0839 130.776L86.8079 135H85.1759ZM92.1042 135L90.0762 131.868L88.2642 135H86.6922L89.3202 130.68L86.6322 126.528H88.2642L90.2562 129.6L92.0562 126.528H93.6282L91.0122 130.776L93.7362 135H92.1042ZM98.2044 130.08V131.232H93.2604V130.08H98.2044ZM104.543 135L102.515 131.868L100.703 135H99.1308L101.759 130.68L99.0708 126.528H100.703L102.695 129.6L104.495 126.528H106.067L103.451 130.776L106.175 135H104.543ZM111.471 135L109.443 131.868L107.631 135H106.059L108.687 130.68L105.999 126.528H107.631L109.623 129.6L111.423 126.528H112.995L110.379 130.776L113.103 135H111.471ZM117.571 130.08V131.232H112.627V130.08H117.571ZM123.91 135L121.882 131.868L120.07 135H118.498L121.126 130.68L118.438 126.528H120.07L122.062 129.6L123.862 126.528H125.434L122.818 130.776L125.542 135H123.91ZM130.838 135L128.81 131.868L126.998 135H125.426L128.054 130.68L125.366 126.528H126.998L128.99 129.6L130.79 126.528H132.362L129.746 130.776L132.47 135H130.838Z" fill="white"/>
</svg>
