<svg width="213" height="93" viewBox="0 0 213 93" fill="none" xmlns="http://www.w3.org/2000/svg">
<path d="M106.942 50.688C107.091 48.7253 107.849 47.1893 109.214 46.08C110.579 44.9707 112.35 44.416 114.526 44.416C115.977 44.416 117.225 44.6827 118.27 45.216C119.337 45.728 120.137 46.432 120.67 47.328C121.225 48.224 121.502 49.2373 121.502 50.368C121.502 51.6907 121.118 52.832 120.35 53.792C119.603 54.752 118.622 55.3707 117.406 55.648V55.808C118.793 56.1493 119.891 56.8213 120.702 57.824C121.513 58.8267 121.918 60.1387 121.918 61.76C121.918 62.976 121.641 64.0747 121.086 65.056C120.531 66.016 119.699 66.7733 118.59 67.328C117.481 67.8827 116.147 68.16 114.59 68.16C112.329 68.16 110.473 67.5733 109.022 66.4C107.571 65.2053 106.761 63.52 106.59 61.344H109.406C109.555 62.624 110.078 63.6693 110.974 64.48C111.87 65.2907 113.065 65.696 114.558 65.696C116.051 65.696 117.182 65.312 117.95 64.544C118.739 63.7547 119.134 62.7413 119.134 61.504C119.134 59.904 118.601 58.752 117.534 58.048C116.467 57.344 114.857 56.992 112.702 56.992H111.966V54.56H112.734C114.697 54.5387 116.179 54.2187 117.182 53.6C118.185 52.96 118.686 51.9787 118.686 50.656C118.686 49.5253 118.313 48.6187 117.566 47.936C116.841 47.2533 115.795 46.912 114.43 46.912C113.107 46.912 112.041 47.2533 111.23 47.936C110.419 48.6187 109.939 49.536 109.79 50.688H106.942ZM142.653 68.224C141.181 68.224 139.858 67.968 138.685 67.456C137.533 66.9227 136.626 66.1973 135.965 65.28C135.304 64.3413 134.962 63.264 134.941 62.048H138.045C138.152 63.0933 138.578 63.9787 139.325 64.704C140.093 65.408 141.202 65.76 142.653 65.76C144.04 65.76 145.128 65.4187 145.917 64.736C146.728 64.032 147.133 63.136 147.133 62.048C147.133 61.1947 146.898 60.5013 146.429 59.968C145.96 59.4347 145.373 59.0293 144.669 58.752C143.965 58.4747 143.016 58.176 141.821 57.856C140.349 57.472 139.165 57.088 138.269 56.704C137.394 56.32 136.637 55.7227 135.997 54.912C135.378 54.08 135.069 52.9707 135.069 51.584C135.069 50.368 135.378 49.2907 135.997 48.352C136.616 47.4133 137.48 46.688 138.589 46.176C139.72 45.664 141.01 45.408 142.461 45.408C144.552 45.408 146.258 45.9307 147.581 46.976C148.925 48.0213 149.682 49.408 149.853 51.136H146.653C146.546 50.2827 146.098 49.536 145.309 48.896C144.52 48.2347 143.474 47.904 142.173 47.904C140.957 47.904 139.965 48.224 139.197 48.864C138.429 49.4827 138.045 50.3573 138.045 51.488C138.045 52.2987 138.269 52.96 138.717 53.472C139.186 53.984 139.752 54.3787 140.413 54.656C141.096 54.912 142.045 55.2107 143.261 55.552C144.733 55.9573 145.917 56.3627 146.813 56.768C147.709 57.152 148.477 57.76 149.117 58.592C149.757 59.4027 150.077 60.512 150.077 61.92C150.077 63.008 149.789 64.032 149.213 64.992C148.637 65.952 147.784 66.7307 146.653 67.328C145.522 67.9253 144.189 68.224 142.653 68.224ZM170.722 58.56C170.722 59.1147 170.69 59.7013 170.626 60.32H156.61C156.717 62.048 157.303 63.4027 158.37 64.384C159.458 65.344 160.77 65.824 162.306 65.824C163.565 65.824 164.61 65.536 165.442 64.96C166.295 64.3627 166.893 63.5733 167.234 62.592H170.37C169.901 64.2773 168.962 65.6533 167.554 66.72C166.146 67.7653 164.397 68.288 162.306 68.288C160.642 68.288 159.149 67.9147 157.826 67.168C156.525 66.4213 155.501 65.3653 154.754 64C154.007 62.6133 153.634 61.0133 153.634 59.2C153.634 57.3867 153.997 55.7973 154.722 54.432C155.447 53.0667 156.461 52.0213 157.762 51.296C159.085 50.5493 160.599 50.176 162.306 50.176C163.97 50.176 165.442 50.5387 166.722 51.264C168.002 51.9893 168.983 52.992 169.666 54.272C170.37 55.5307 170.722 56.96 170.722 58.56ZM167.714 57.952C167.714 56.8427 167.469 55.8933 166.978 55.104C166.487 54.2933 165.815 53.6853 164.962 53.28C164.13 52.8533 163.202 52.64 162.178 52.64C160.706 52.64 159.447 53.1093 158.402 54.048C157.378 54.9867 156.791 56.288 156.642 57.952H167.714ZM173.838 59.2C173.838 57.3867 174.201 55.808 174.926 54.464C175.651 53.0987 176.654 52.0427 177.934 51.296C179.235 50.5493 180.718 50.176 182.382 50.176C184.537 50.176 186.307 50.6987 187.694 51.744C189.102 52.7893 190.03 54.24 190.478 56.096H187.342C187.043 55.0293 186.457 54.1867 185.582 53.568C184.729 52.9493 183.662 52.64 182.382 52.64C180.718 52.64 179.374 53.216 178.35 54.368C177.326 55.4987 176.814 57.1093 176.814 59.2C176.814 61.312 177.326 62.944 178.35 64.096C179.374 65.248 180.718 65.824 182.382 65.824C183.662 65.824 184.729 65.5253 185.582 64.928C186.435 64.3307 187.022 63.4773 187.342 62.368H190.478C190.009 64.16 189.07 65.6 187.662 66.688C186.254 67.7547 184.494 68.288 182.382 68.288C180.718 68.288 179.235 67.9147 177.934 67.168C176.654 66.4213 175.651 65.3653 174.926 64C174.201 62.6347 173.838 61.0347 173.838 59.2ZM195.651 68.192C195.097 68.192 194.627 68 194.243 67.616C193.859 67.232 193.667 66.7627 193.667 66.208C193.667 65.6533 193.859 65.184 194.243 64.8C194.627 64.416 195.097 64.224 195.651 64.224C196.185 64.224 196.633 64.416 196.995 64.8C197.379 65.184 197.571 65.6533 197.571 66.208C197.571 66.7627 197.379 67.232 196.995 67.616C196.633 68 196.185 68.192 195.651 68.192Z" fill="#979797"/>
<g clip-path="url(#clip0_428_2583)">
<path d="M35.3956 92.7018C33.9665 92.4933 32.5376 92.3196 31.1086 92.0416C23.7461 90.6835 16.9552 87.1728 11.5991 81.9561C6.24302 76.7394 2.5638 70.0523 1.02948 62.7452C-0.214387 57.2027 -0.163482 51.4493 1.17818 45.9295C2.51985 40.4098 5.11645 35.2715 8.7672 30.9119C12.8381 25.8703 18.1784 21.9967 24.2424 19.6869C25.0795 19.3085 26.0325 19.2752 26.8941 19.5941C27.7558 19.913 28.4562 20.5584 28.843 21.3897C29.0092 21.8228 29.0868 22.2847 29.0712 22.7481C29.0557 23.2115 28.9475 23.6671 28.7526 24.0881C28.5577 24.5091 28.2801 24.887 27.9365 25.1995C27.5929 25.5119 27.1902 25.7528 26.7518 25.9076C21.8024 27.8922 17.4425 31.1026 14.084 35.2352C10.7256 39.3679 8.47956 44.2864 7.55846 49.5256C6.63735 54.7648 7.07158 60.1516 8.81996 65.1769C10.5683 70.2022 13.5731 74.6999 17.5503 78.2448C21.9384 82.2725 27.4629 84.8567 33.3742 85.647C37.5408 86.2612 41.7887 86.0324 45.8648 84.9742C49.9408 83.9161 53.7615 82.0503 57.0987 79.4881C60.436 76.926 63.2216 73.7199 65.2894 70.0612C67.3572 66.4025 68.6648 62.3661 69.1343 58.1926C69.8552 51.4747 68.3602 44.7056 64.8758 38.911C61.3915 33.1165 56.1077 28.6125 49.8252 26.0813C49.2035 25.9072 48.6354 25.5806 48.1727 25.1314C47.71 24.6822 47.3675 24.1247 47.1763 23.5097C46.9818 22.8926 46.9775 22.2315 47.1639 21.6119C47.3503 20.9923 47.7188 20.4429 48.2218 20.0344C48.7006 19.6408 49.2761 19.3816 49.8888 19.2839C50.5015 19.1861 51.1292 19.2533 51.7073 19.4784C56.6788 21.3746 61.1839 24.3137 64.9171 28.0969C70.6648 33.7687 74.3454 41.194 75.3733 49.1917C76.4017 55.5021 75.7701 61.9705 73.5402 67.9645C71.3103 73.9585 67.5584 79.273 62.6515 83.3881C57.2586 88.1416 50.5774 91.2004 43.4469 92.1805C42.5058 92.3543 41.5301 92.4586 40.589 92.5629L35.3956 92.7018Z" fill="#F2A900"/>
<path d="M41.4605 28.5215V51.7708C41.4677 52.6193 41.1632 53.4412 40.6046 54.0814C40.046 54.7215 39.2718 55.1358 38.4279 55.2461C37.6364 55.271 36.8601 55.0265 36.2266 54.5528C35.5931 54.079 35.1401 53.4043 34.9425 52.6396C34.908 52.3278 34.908 52.0132 34.9425 51.7014V5.20251C34.8021 4.6871 34.7826 4.14639 34.8857 3.62227C34.9888 3.09815 35.2118 2.60475 35.5371 2.18044C35.8625 1.75613 36.2814 1.41231 36.7616 1.17566C37.2418 0.939007 37.7704 0.815918 38.3061 0.815918C38.8417 0.815918 39.3703 0.939007 39.8505 1.17566C40.3307 1.41231 40.7496 1.75613 41.075 2.18044C41.4003 2.60475 41.6233 3.09815 41.7264 3.62227C41.8295 4.14639 41.81 4.6871 41.6696 5.20251L41.4605 28.5215Z" fill="#F2A900"/>
</g>
<defs>
<clipPath id="clip0_428_2583">
<rect width="75.8425" height="92.6154" fill="white" transform="translate(0.158203 0.0864258)"/>
</clipPath>
</defs>
</svg>
