<svg width="322" height="189" viewBox="0 0 322 189" fill="none" xmlns="http://www.w3.org/2000/svg">
<path d="M305.883 25.1481H289.549C289.232 25.1481 288.973 24.8889 288.973 24.572C288.973 24.2551 289.232 23.9958 289.549 23.9958H305.883C306.199 23.9958 306.459 24.2551 306.459 24.572C306.459 24.8889 306.199 25.1481 305.883 25.1481Z" fill="white"/>
<path d="M305.883 17.5H289.549C289.232 17.5 288.973 17.2408 288.973 16.9239C288.973 16.607 289.232 16.3478 289.549 16.3478H305.883C306.199 16.3478 306.459 16.607 306.459 16.9239C306.459 17.2408 306.199 17.5 305.883 17.5Z" fill="white"/>
<path d="M305.883 33.8333H289.549C289.232 33.8333 288.973 33.574 288.973 33.2572C288.973 32.9403 289.232 32.681 289.549 32.681H305.883C306.199 32.681 306.459 32.9403 306.459 33.2572C306.459 33.574 306.199 33.8333 305.883 33.8333Z" fill="white"/>
<g opacity="0.5">
<path d="M301.936 169.82H295.743C295.34 169.82 295.023 169.497 295.023 169.085C295.023 168.674 295.34 168.35 295.743 168.35H301.936C304.414 168.35 306.43 166.293 306.43 163.765C306.43 161.237 304.414 159.179 301.936 159.179H284.091C283.687 159.179 283.37 158.856 283.37 158.444C283.37 158.033 283.687 157.709 284.091 157.709H301.936C305.206 157.709 307.87 160.428 307.87 163.765C307.87 167.101 305.206 169.82 301.936 169.82Z" fill="white"/>
<path d="M292.07 164.309C291.94 164.309 291.825 164.279 291.71 164.206L283.097 159.091C282.881 158.959 282.737 158.724 282.737 158.459C282.737 158.195 282.866 157.96 283.097 157.827L291.71 152.713C292.055 152.507 292.487 152.624 292.689 152.977C292.891 153.33 292.776 153.771 292.43 153.977L284.883 158.459L292.43 162.942C292.776 163.148 292.891 163.603 292.689 163.941C292.559 164.176 292.315 164.309 292.07 164.309Z" fill="white"/>
</g>
<path d="M85.8569 22.815H87.2001L90.2223 31.5012L93.0766 22.6479H94.084L96.9383 31.5012L99.9605 22.815H101.136L97.442 33.3386H96.4346L93.5803 24.8195L90.726 33.3386H89.7186L85.8569 22.815Z" fill="white"/>
<path d="M103.32 22.8149H104.495V33.3386H103.32V22.8149Z" fill="white"/>
<path d="M107.684 22.8149H115.24V23.9842H108.859V27.6591H114.568V28.6614H108.859V33.1715H107.684V22.8149Z" fill="white"/>
<path d="M117.591 22.8149H118.767V33.3386H117.591V22.8149Z" fill="white"/>
<path d="M125.984 28.1603C125.984 25.1536 128.166 22.6479 131.356 22.6479C133.203 22.6479 134.379 23.3161 135.554 24.3184L134.714 25.1536C133.875 24.3184 132.867 23.6502 131.356 23.6502C129.006 23.6502 127.327 25.4877 127.327 27.9933C127.327 30.4989 129.174 32.3364 131.356 32.3364C132.867 32.3364 133.707 31.8352 134.714 30.833L135.554 31.6682C134.379 32.8375 133.203 33.5057 131.356 33.5057C128.166 33.5057 125.984 31.1671 125.984 28.1603Z" fill="white"/>
<path d="M136.898 28.1603C136.898 25.1536 139.081 22.6479 142.271 22.6479C145.461 22.6479 147.644 25.1536 147.644 27.9933C147.644 30.833 145.461 33.5057 142.271 33.5057C139.081 33.5057 136.898 31 136.898 28.1603ZM146.301 28.1603C146.301 25.8217 144.622 23.8172 142.103 23.8172C139.752 23.8172 137.906 25.8217 137.906 28.1603C137.906 30.4989 139.585 32.5034 142.103 32.5034C144.622 32.3364 146.301 30.4989 146.301 28.1603Z" fill="white"/>
<path d="M150.162 22.8149H151.338L158.054 31.167V22.8149H159.229V33.3386H158.222L151.338 24.6524V33.3386H150.162V22.8149Z" fill="white"/>
<path d="M162.082 22.8149H163.258L169.974 31.167V22.8149H171.149V33.3386H170.141L163.258 24.6524V33.3386H162.082V22.8149Z" fill="white"/>
<path d="M174.004 22.8149H181.559V23.8172H175.179V27.4921H180.888V28.4944H175.179V32.1693H181.727V33.1715H174.004V22.8149Z" fill="white"/>
<path d="M183.574 28.1603C183.574 25.1536 185.756 22.6479 188.947 22.6479C190.793 22.6479 191.969 23.3161 193.144 24.3184L192.305 25.1536C191.465 24.3184 190.458 23.6502 188.947 23.6502C186.596 23.6502 184.917 25.4877 184.917 27.9933C184.917 30.4989 186.764 32.3364 188.947 32.3364C190.458 32.3364 191.297 31.8352 192.305 30.833L193.144 31.6682C191.969 32.8375 190.793 33.5057 188.947 33.5057C185.756 33.5057 183.574 31.1671 183.574 28.1603Z" fill="white"/>
<path d="M198.014 23.9842H194.488V22.8149H202.715V23.9842H199.189V33.3386H198.014V23.9842Z" fill="white"/>
<rect x="27.5" y="4.5" width="234.776" height="176" rx="1.5" stroke="white" stroke-width="3"/>
<mask id="mask0_757_4876" style="mask-type:alpha" maskUnits="userSpaceOnUse" x="119" y="66" width="56" height="44">
<path d="M147 109.667C149.301 109.667 151.167 107.801 151.167 105.5C151.167 103.199 149.301 101.333 147 101.333C144.699 101.333 142.833 103.199 142.833 105.5C142.833 107.801 144.699 109.667 147 109.667Z" fill="white"/>
<path d="M134.787 93.8016C137.913 90.7133 142.233 88.8016 147.005 88.8016C151.775 88.8016 156.093 90.71 159.218 93.7966" stroke="white" stroke-miterlimit="10" stroke-linecap="round" stroke-linejoin="round"/>
<path d="M127.112 86.2866C132.202 81.1966 139.235 78.0449 147.003 78.0449C154.768 78.0449 161.802 81.1933 166.893 86.2816" stroke="white" stroke-miterlimit="10" stroke-linecap="round" stroke-linejoin="round"/>
<path d="M119.5 78.8333C126.54 71.625 136.263 67.1666 147.003 67.1666C157.74 67.1666 167.46 71.6233 174.5 78.8283" stroke="white" stroke-miterlimit="10" stroke-linecap="round" stroke-linejoin="round"/>
</mask>
<g mask="url(#mask0_757_4876)">
<rect x="117" y="58" width="60" height="60" fill="white"/>
</g>
<path d="M74.0883 145L71.3523 141.16C72.9843 140.632 73.9123 139.4 73.9123 137.64C73.9123 135.24 72.1843 133.8 69.3363 133.8H65.1443V145H66.3283V141.448H69.3363C69.6563 141.448 69.9443 141.432 70.2323 141.4L72.7923 145H74.0883ZM69.3043 140.44H66.3283V134.824H69.3043C71.5443 134.824 72.7283 135.848 72.7283 137.64C72.7283 139.4 71.5443 140.44 69.3043 140.44ZM77.8908 143.976V139.816H83.6828V138.808H77.8908V134.824H84.3868V133.8H76.7068V145H84.6268V143.976H77.8908ZM95.7779 145H97.0259L91.9059 133.8H90.7379L85.6179 145H86.8499L88.1939 142.008H94.4339L95.7779 145ZM88.6259 141.048L91.3139 135.032L94.0019 141.048H88.6259ZM98.8787 145H103.439C107.023 145 109.439 142.696 109.439 139.4C109.439 136.104 107.023 133.8 103.439 133.8H98.8787V145ZM100.063 143.976V134.824H103.375C106.351 134.824 108.271 136.712 108.271 139.4C108.271 142.088 106.351 143.976 103.375 143.976H100.063ZM119.933 133.8H118.749L114.909 140.088L111.069 133.8H109.805L114.285 141.128V145H115.453V141.128L119.933 133.8ZM128.133 145H129.317V134.824H133.253V133.8H124.197V134.824H128.133V145ZM139.884 145.096C143.244 145.096 145.756 142.68 145.756 139.4C145.756 136.12 143.244 133.704 139.884 133.704C136.492 133.704 133.996 136.136 133.996 139.4C133.996 142.664 136.492 145.096 139.884 145.096ZM139.884 144.04C137.18 144.04 135.164 142.072 135.164 139.4C135.164 136.728 137.18 134.76 139.884 134.76C142.572 134.76 144.572 136.728 144.572 139.4C144.572 142.072 142.572 144.04 139.884 144.04ZM157.461 145.096C159.109 145.096 160.581 144.536 161.573 143.448L160.821 142.696C159.909 143.64 158.789 144.04 157.509 144.04C154.805 144.04 152.773 142.056 152.773 139.4C152.773 136.744 154.805 134.76 157.509 134.76C158.789 134.76 159.909 135.16 160.821 136.088L161.573 135.336C160.581 134.248 159.109 133.704 157.477 133.704C154.101 133.704 151.605 136.12 151.605 139.4C151.605 142.68 154.101 145.096 157.461 145.096ZM168.759 145.096C172.119 145.096 174.631 142.68 174.631 139.4C174.631 136.12 172.119 133.704 168.759 133.704C165.367 133.704 162.871 136.136 162.871 139.4C162.871 142.664 165.367 145.096 168.759 145.096ZM168.759 144.04C166.055 144.04 164.039 142.072 164.039 139.4C164.039 136.728 166.055 134.76 168.759 134.76C171.447 134.76 173.447 136.728 173.447 139.4C173.447 142.072 171.447 144.04 168.759 144.04ZM185.477 133.8V142.888L178.261 133.8H177.285V145H178.469V135.912L185.669 145H186.645V133.8H185.477ZM198.493 133.8V142.888L191.277 133.8H190.301V145H191.485V135.912L198.685 145H199.661V133.8H198.493ZM204.5 143.976V139.816H210.292V138.808H204.5V134.824H210.996V133.8H203.316V145H211.236V143.976H204.5ZM218.821 145.096C220.469 145.096 221.941 144.536 222.933 143.448L222.181 142.696C221.269 143.64 220.149 144.04 218.869 144.04C216.165 144.04 214.133 142.056 214.133 139.4C214.133 136.744 216.165 134.76 218.869 134.76C220.149 134.76 221.269 135.16 222.181 136.088L222.933 135.336C221.941 134.248 220.469 133.704 218.837 133.704C215.461 133.704 212.965 136.12 212.965 139.4C212.965 142.68 215.461 145.096 218.821 145.096ZM227.492 145H228.676V134.824H232.612V133.8H223.556V134.824H227.492V145Z" fill="white"/>
</svg>
