<svg width="270" height="162" viewBox="0 0 270 162" fill="none" xmlns="http://www.w3.org/2000/svg">
<g clip-path="url(#clip0_5741_23763)">
<path d="M268.565 162H1.12842C0.451369 162 0 161.551 0 160.877V1.12266C0 0.449064 0.451369 0 1.12842 0H268.565C269.242 0 269.693 0.449064 269.693 1.12266V160.877C269.693 161.439 269.129 162 268.565 162ZM2.25685 159.755H267.436V2.24532H2.25685V159.755Z" fill="white"/>
<path d="M237.758 156.275H31.9336V133.821H237.645V156.275H237.758ZM33.062 155.152H236.517V134.944H33.062V155.152Z" fill="white"/>
<path d="M95.5781 11.4511H96.4809L98.512 17.289L100.43 11.3389H101.107L103.026 17.289L105.057 11.4511H105.847L103.364 18.5239H102.687L100.769 12.7983L98.8506 18.5239H98.1735L95.5781 11.4511Z" fill="white"/>
<path d="M107.314 11.4512H108.104V18.5239H107.314V11.4512Z" fill="white"/>
<path d="M110.248 11.4512H115.326V12.237H111.038V14.7069H114.875V15.3805H111.038V18.4117H110.248V11.4512Z" fill="white"/>
<path d="M116.906 11.4512H117.696V18.5239H116.906V11.4512Z" fill="white"/>
<path d="M122.547 15.0436C122.547 13.0229 124.014 11.3389 126.158 11.3389C127.399 11.3389 128.189 11.7879 128.979 12.4615L128.415 13.0229C127.85 12.4615 127.173 12.0125 126.158 12.0125C124.578 12.0125 123.45 13.2474 123.45 14.9314C123.45 16.6154 124.691 17.8503 126.158 17.8503C127.173 17.8503 127.738 17.5135 128.415 16.8399L128.979 17.4012C128.189 18.1871 127.399 18.6362 126.158 18.6362C124.014 18.6362 122.547 17.0644 122.547 15.0436Z" fill="white"/>
<path d="M129.883 15.0436C129.883 13.0229 131.35 11.3389 133.494 11.3389C135.638 11.3389 137.105 13.0229 137.105 14.9314C137.105 16.8399 135.638 18.6362 133.494 18.6362C131.35 18.6362 129.883 16.9522 129.883 15.0436ZM136.202 15.0436C136.202 13.4719 135.074 12.1247 133.381 12.1247C131.801 12.1247 130.56 13.4719 130.56 15.0436C130.56 16.6154 131.688 17.9626 133.381 17.9626C135.074 17.8503 136.202 16.6154 136.202 15.0436Z" fill="white"/>
<path d="M138.797 11.4512H139.587L144.1 17.0645V11.4512H144.89V18.5239H144.213L139.587 12.6861V18.5239H138.797V11.4512Z" fill="white"/>
<path d="M146.809 11.4512H147.598L152.112 17.0645V11.4512H152.902V18.5239H152.225L147.598 12.6861V18.5239H146.809V11.4512Z" fill="white"/>
<path d="M154.82 11.4512H159.898V12.1248H155.61V14.5946H159.447V15.2682H155.61V17.7381H160.011V18.4117H154.82V11.4512Z" fill="white"/>
<path d="M161.252 15.0436C161.252 13.0229 162.719 11.3389 164.863 11.3389C166.104 11.3389 166.894 11.7879 167.684 12.4615L167.12 13.0229C166.556 12.4615 165.879 12.0125 164.863 12.0125C163.283 12.0125 162.155 13.2474 162.155 14.9314C162.155 16.6154 163.396 17.8503 164.863 17.8503C165.879 17.8503 166.443 17.5135 167.12 16.8399L167.684 17.4012C166.894 18.1871 166.104 18.6362 164.863 18.6362C162.719 18.6362 161.252 17.0644 161.252 15.0436Z" fill="white"/>
<path d="M170.958 12.237H168.588V11.4512H174.117V12.237H171.747V18.5239H170.958V12.237Z" fill="white"/>
<path d="M116.68 144.935C116.68 143.251 117.921 141.792 119.726 141.792C120.855 141.792 121.532 142.129 122.096 142.69L121.645 143.139C121.081 142.69 120.516 142.353 119.726 142.353C118.372 142.353 117.357 143.476 117.357 144.823C117.357 146.17 118.372 147.293 119.726 147.293C120.516 147.293 121.081 146.956 121.645 146.395L122.096 146.844C121.419 147.518 120.742 147.854 119.726 147.854C118.034 148.079 116.68 146.732 116.68 144.935Z" fill="white"/>
<path d="M125.593 141.904H126.27L128.979 147.967H128.302L127.625 146.395H124.352L123.675 147.967H122.998L125.593 141.904ZM127.286 145.721L125.932 142.69L124.578 145.721H127.286Z" fill="white"/>
<path d="M130.107 141.904H130.784L134.621 146.732V141.904H135.298V147.967H134.734L130.784 143.027V147.967H130.107V141.904Z" fill="white"/>
<path d="M136.652 144.935C136.652 143.251 137.894 141.792 139.699 141.792C140.828 141.792 141.505 142.129 142.069 142.69L141.617 143.139C141.053 142.69 140.489 142.353 139.699 142.353C138.345 142.353 137.329 143.476 137.329 144.823C137.329 146.17 138.345 147.293 139.699 147.293C140.489 147.293 141.053 146.956 141.617 146.395L142.069 146.844C141.392 147.518 140.715 147.854 139.699 147.854C138.006 148.079 136.652 146.732 136.652 144.935Z" fill="white"/>
<path d="M143.311 141.904H147.711V142.466H143.988V144.486H147.26V145.16H143.988V147.293H147.711V147.854H143.311V141.904Z" fill="white"/>
<path d="M149.066 141.904H149.743V147.293H153.129V147.967H149.066V141.904Z" fill="white"/>
<path d="M73.3477 59.9502L73.799 59.3889C74.4761 59.9502 75.1531 60.287 76.0559 60.287C76.9586 60.287 77.5228 59.8379 77.5228 59.1643C77.5228 58.603 77.1843 58.2662 75.8302 57.9294C74.3632 57.5926 73.6862 57.1435 73.6862 56.0209C73.6862 55.0105 74.5889 54.2246 75.8302 54.2246C76.7329 54.2246 77.41 54.4491 78.087 55.0105L77.6357 55.5718C77.0715 55.1227 76.3944 54.8982 75.7174 54.8982C74.8146 54.8982 74.3632 55.3473 74.3632 55.9086C74.3632 56.4699 74.7018 56.8067 76.1687 57.1435C77.6357 57.4803 78.3127 58.0417 78.3127 58.9398C78.3127 60.0624 77.41 60.736 76.0559 60.736C74.9275 60.9606 74.1376 60.6238 73.3477 59.9502Z" fill="white"/>
<path d="M79.2148 59.9502L79.6662 59.3889C80.3433 59.9502 81.0203 60.287 81.9231 60.287C82.8258 60.287 83.39 59.8379 83.39 59.1643C83.39 58.603 83.0515 58.2662 81.6974 57.9294C80.2304 57.5926 79.5534 57.1435 79.5534 56.0209C79.5534 55.0105 80.4561 54.2246 81.6974 54.2246C82.6001 54.2246 83.2772 54.4491 83.9542 55.0105L83.5029 55.6841C82.9386 55.235 82.2616 55.0105 81.5845 55.0105C80.6818 55.0105 80.2304 55.4595 80.2304 56.0209C80.2304 56.5822 80.5689 56.919 82.0359 57.2558C83.5028 57.5926 84.1799 58.1539 84.1799 59.0521C84.1799 60.1747 83.2772 60.8483 81.9231 60.8483C80.7946 60.9606 80.0047 60.6238 79.2148 59.9502Z" fill="white"/>
<path d="M85.6465 54.4492H86.4364V60.9606H85.6465V54.4492Z" fill="white"/>
<path d="M88.3555 54.4492H90.6123C92.6435 54.4492 94.1104 55.7964 94.1104 57.7049C94.1104 59.5012 92.6435 60.9606 90.6123 60.9606H88.3555V54.4492ZM89.0325 55.1228V60.287H90.6123C92.305 60.287 93.3205 59.1644 93.3205 57.7049C93.3205 56.2455 92.305 55.1228 90.6123 55.1228H89.0325Z" fill="white"/>
<path d="M95.4648 56.1333H96.3676V57.1437H95.4648V56.1333ZM95.4648 59.9503H96.3676V60.9607H95.4648V59.9503Z" fill="white"/>
<path d="M103.25 57.7049C103.25 55.9086 104.604 54.3369 106.522 54.3369C107.651 54.3369 108.328 54.6737 109.005 55.235L108.554 55.7964C108.102 55.3473 107.538 55.0105 106.522 55.0105C105.055 55.0105 104.04 56.2454 104.04 57.7049C104.04 59.2766 105.055 60.3993 106.635 60.3993C107.425 60.3993 108.102 60.0625 108.554 59.7257V58.154H106.522V57.4804H109.231V60.0625C108.666 60.6238 107.764 61.0729 106.635 61.0729C104.604 60.9606 103.25 59.5012 103.25 57.7049Z" fill="white"/>
<path d="M110.924 54.4492H115.663V55.1228H111.714V57.3681H115.325V58.0417H111.714V60.287H115.776V60.9606H111.037V54.4492H110.924Z" fill="white"/>
<path d="M116.229 61.7466H121.871V62.3079H116.229V61.7466Z" fill="white"/>
<path d="M122.773 54.4492H123.563L125.933 58.0417L128.303 54.4492H129.093V60.9606H128.303V55.6841L125.933 59.1644L123.563 55.6841V60.9606H122.886V54.4492H122.773Z" fill="white"/>
<path d="M130.559 57.7049C130.559 55.9086 131.913 54.3369 133.944 54.3369C135.975 54.3369 137.216 55.9086 137.216 57.7049C137.216 59.5012 135.862 61.0729 133.831 61.0729C131.913 60.9606 130.559 59.5012 130.559 57.7049ZM136.426 57.7049C136.426 56.2454 135.298 55.0105 133.831 55.0105C132.364 55.0105 131.236 56.2454 131.236 57.7049C131.236 59.1644 132.364 60.3993 133.831 60.3993C135.298 60.287 136.426 59.1644 136.426 57.7049Z" fill="white"/>
<path d="M138.797 54.4492H141.054C143.085 54.4492 144.552 55.7964 144.552 57.7049C144.552 59.5012 143.085 60.9606 141.054 60.9606H138.797V54.4492ZM139.474 55.1228V60.287H141.054C142.746 60.287 143.762 59.1644 143.762 57.7049C143.762 56.2455 142.746 55.1228 141.054 55.1228H139.474Z" fill="white"/>
<path d="M145.904 58.1539V54.3369H146.694V58.0417C146.694 59.3889 147.484 60.1747 148.725 60.1747C149.967 60.1747 150.644 59.5011 150.644 58.0417V54.2246H151.434V57.9294C151.434 59.8379 150.305 60.8483 148.725 60.8483C147.033 60.9606 145.904 60.0625 145.904 58.1539Z" fill="white"/>
<path d="M153.127 54.4492H153.917V60.287H157.641V60.9606H153.24V54.4492H153.127Z" fill="white"/>
<path d="M158.883 54.4492H163.622V55.1228H159.673V57.3681H163.284V58.0417H159.673V60.287H163.735V60.9606H158.996V54.4492H158.883Z" fill="white"/>
<path d="M164.186 61.7466H169.828V62.3079H164.186V61.7466Z" fill="white"/>
<path d="M176.034 54.4492L173.665 57.5927L176.147 60.8484H175.244L173.213 58.0417L171.182 60.8484H170.279L172.762 57.5927L170.392 54.4492H171.295L173.326 57.1436L175.357 54.4492H176.034Z" fill="white"/>
<path d="M182.804 54.4492L180.434 57.5927L182.917 60.8484H182.014L179.983 58.0417L177.952 60.8484H177.049L179.531 57.5927L177.162 54.4492H178.064L180.096 57.1436L182.127 54.4492H182.804Z" fill="white"/>
<path d="M189.575 54.4492L187.206 57.5927L189.688 60.8484H188.785L186.754 58.0417L184.723 60.8484H183.82L186.303 57.5927L183.933 54.4492H184.836L186.867 57.1436L188.898 54.4492H189.575Z" fill="white"/>
<path d="M196.345 54.4492L193.975 57.5927L196.458 60.8484H195.555L193.524 58.0417L191.493 60.8484H190.59L193.072 57.5927L190.703 54.4492H191.605L193.637 57.1436L195.668 54.4492H196.345Z" fill="white"/>
<path d="M77.9746 76.6777H80.4571C81.9241 76.6777 82.9397 77.4636 82.9397 78.6985C82.9397 80.0457 81.8113 80.8316 80.3443 80.8316H78.7645V83.0769H77.9746V76.6777ZM80.3443 80.158C81.4727 80.158 82.1498 79.5966 82.1498 78.6985C82.1498 77.8004 81.4727 77.2391 80.3443 77.2391H78.6517V80.0457H80.3443V80.158Z" fill="white"/>
<path d="M85.9862 76.5654H86.6633L89.5972 83.0769H88.8073L88.0174 81.3929H84.5192L83.7293 83.0769H82.9395L85.9862 76.5654ZM87.7917 80.7193L86.3247 77.4636L84.8578 80.7193H87.7917Z" fill="white"/>
<path d="M90.3867 82.1787L90.8381 81.6174C91.5151 82.1787 92.1922 82.5155 93.0949 82.5155C93.9977 82.5155 94.5619 82.0664 94.5619 81.3928C94.5619 80.8315 94.2234 80.4947 92.8693 80.1579C91.4023 79.8211 90.7252 79.372 90.7252 78.2494C90.7252 77.239 91.628 76.4531 92.8693 76.4531C93.772 76.4531 94.449 76.6777 95.1261 77.239L94.6747 77.8003C94.1105 77.3513 93.4335 77.1267 92.7564 77.1267C91.8537 77.1267 91.4023 77.5758 91.4023 78.1371C91.4023 78.6984 91.7408 79.1475 93.2078 79.372C94.6747 79.7088 95.3518 80.2702 95.3518 81.1683C95.3518 82.291 94.449 82.9646 93.0949 82.9646C91.9665 83.1891 91.1766 82.8523 90.3867 82.1787Z" fill="white"/>
<path d="M96.2539 82.1787L96.7053 81.6174C97.3823 82.1787 98.0594 82.5155 98.9621 82.5155C99.8649 82.5155 100.429 82.0664 100.429 81.3928C100.429 80.8315 100.091 80.4947 98.7364 80.1579C97.2695 79.8211 96.5924 79.372 96.5924 78.2494C96.5924 77.239 97.4952 76.4531 98.7364 76.4531C99.6392 76.4531 100.316 76.6777 100.993 77.239L100.429 77.9126C99.8649 77.4635 99.1878 77.239 98.5108 77.239C97.608 77.239 97.1566 77.6881 97.1566 78.2494C97.1566 78.8107 97.4952 79.2598 98.9621 79.4843C100.429 79.8211 101.106 80.3824 101.106 81.2806C101.106 82.4032 100.203 83.0768 98.8493 83.0768C97.8337 83.1891 97.0438 82.8523 96.2539 82.1787Z" fill="white"/>
<path d="M101.896 76.6777H102.686L104.605 82.0665L106.41 76.6777H106.974L108.78 82.0665L110.698 76.6777H111.488L109.118 83.1892H108.441L106.636 77.9127L104.83 83.1892H104.266L101.896 76.6777Z" fill="white"/>
<path d="M112.053 79.9334C112.053 78.1372 113.407 76.5654 115.438 76.5654C117.469 76.5654 118.71 78.1372 118.71 79.9334C118.71 81.7297 117.356 83.3014 115.325 83.3014C113.407 83.3014 112.053 81.7297 112.053 79.9334ZM117.921 79.9334C117.921 78.474 116.792 77.239 115.325 77.239C113.858 77.239 112.73 78.474 112.73 79.9334C112.73 81.3929 113.858 82.6278 115.325 82.6278C116.905 82.6278 117.921 81.3929 117.921 79.9334Z" fill="white"/>
<path d="M120.29 76.6777H123.111C123.901 76.6777 124.578 76.9023 124.917 77.3513C125.255 77.6881 125.368 78.1372 125.368 78.5863C125.368 79.7089 124.578 80.2702 123.563 80.4948L125.594 83.1892H124.691L122.773 80.7193H120.854V83.1892H120.064V76.6777H120.29ZM122.998 79.9334C124.014 79.9334 124.691 79.4844 124.691 78.5863C124.691 77.8004 124.127 77.3513 122.998 77.3513H120.967V79.9334H122.998Z" fill="white"/>
<path d="M127.061 76.6777H129.317C131.349 76.6777 132.816 78.0249 132.816 79.9334C132.816 81.7297 131.349 83.1892 129.317 83.1892H127.061V76.6777ZM127.738 77.3513V82.5156H129.317C131.01 82.5156 132.026 81.3929 132.026 79.9334C132.026 78.474 131.01 77.3513 129.317 77.3513H127.738Z" fill="white"/>
<path d="M134.17 78.3618H135.073V79.3722H134.17V78.3618ZM134.17 82.1789H135.073V83.1893H134.17V82.1789Z" fill="white"/>
<path d="M144.776 76.6777L142.407 79.8212L144.889 83.0769H143.987L141.955 80.2702L139.924 83.0769H139.021L141.504 79.8212L139.134 76.6777H140.037L142.068 79.3721L144.099 76.6777H144.776Z" fill="white"/>
<path d="M151.548 76.6777L149.178 79.8212L151.661 83.0769H150.758L148.727 80.2702L146.696 83.0769H145.793L148.275 79.8212L145.906 76.6777H146.809L148.84 79.3721L150.871 76.6777H151.548Z" fill="white"/>
<path d="M158.317 76.6777L155.948 79.8212L158.43 83.0769H157.528L155.496 80.2702L153.465 83.0769H152.562L155.045 79.8212L152.675 76.6777H153.578L155.609 79.3721L157.64 76.6777H158.317Z" fill="white"/>
<path d="M165.089 76.6777L162.719 79.8212L165.202 83.0769H164.299L162.268 80.2702L160.237 83.0769H159.334L161.817 79.8212L159.447 76.6777H160.35L162.381 79.3721L164.412 76.6777H165.089Z" fill="white"/>
<path d="M171.858 76.6777L169.489 79.8212L171.971 83.0769H171.069L169.037 80.2702L167.006 83.0769H166.104L168.586 79.8212L166.216 76.6777H167.119L169.15 79.3721L171.181 76.6777H171.858Z" fill="white"/>
<path d="M178.63 76.6777L176.26 79.8212L178.743 83.0769H177.84L175.809 80.2702L173.778 83.0769H172.875L175.358 79.8212L172.988 76.6777H173.891L175.922 79.3721L177.953 76.6777H178.63Z" fill="white"/>
<path d="M185.399 76.6777L183.03 79.8212L185.512 83.0769H184.61L182.578 80.2702L180.547 83.0769H179.645L182.127 79.8212L179.757 76.6777H180.66L182.691 79.3721L184.722 76.6777H185.399Z" fill="white"/>
<path d="M192.058 76.6777L189.688 79.8212L192.171 83.0769H191.268L189.237 80.2702L187.205 83.0769H186.303L188.785 79.8212L186.416 76.6777H187.318L189.349 79.3721L191.381 76.6777H192.058Z" fill="white"/>
<path d="M252.202 17.1769C252.202 17.626 251.751 18.0751 251.299 18.0751C250.848 18.0751 250.396 17.626 250.396 17.1769C250.396 16.7279 250.848 16.2788 251.299 16.2788C251.863 16.2788 252.202 16.7279 252.202 17.1769Z" fill="white"/>
<path d="M248.818 15.4929C248.705 15.4929 248.479 15.4929 248.367 15.3807C248.141 15.1561 248.141 14.8193 248.367 14.5948C249.946 13.0231 252.767 13.0231 254.347 14.5948C254.573 14.8193 254.573 15.1561 254.347 15.3807C254.121 15.6052 253.783 15.6052 253.557 15.3807C252.429 14.258 250.398 14.258 249.269 15.3807C249.044 15.3807 248.931 15.4929 248.818 15.4929Z" fill="white"/>
<path d="M247.238 13.584C247.125 13.584 246.899 13.584 246.786 13.4717C246.561 13.2472 246.561 12.9104 246.786 12.6859C248.028 11.4509 249.608 10.7773 251.413 10.7773C253.218 10.7773 254.798 11.4509 256.04 12.6859C256.265 12.9104 256.265 13.2472 256.04 13.4717C255.814 13.6963 255.475 13.6963 255.25 13.4717C254.234 12.4613 252.88 11.9 251.413 11.9C249.946 11.9 248.592 12.4613 247.576 13.4717C247.464 13.4717 247.351 13.584 247.238 13.584Z" fill="white"/>
<path d="M245.544 11.9002C245.432 11.9002 245.206 11.9002 245.093 11.7879C244.867 11.5634 244.867 11.2266 245.093 11.002C246.786 9.31805 248.93 8.41992 251.299 8.41992C253.669 8.41992 255.813 9.31805 257.506 11.002C257.731 11.2266 257.731 11.5634 257.506 11.7879C257.28 12.0124 256.942 12.0124 256.716 11.7879C255.249 10.3284 253.331 9.54258 251.299 9.54258C249.268 9.54258 247.35 10.3284 245.883 11.7879C245.883 11.7879 245.77 11.9002 245.544 11.9002Z" fill="white"/>
<rect x="59.1777" y="66.7368" width="153.594" height="25.9439" rx="2.5" stroke="#FDBA12"/>
</g>
<defs>
<clipPath id="clip0_5741_23763">
<rect width="269.693" height="162" fill="white"/>
</clipPath>
</defs>
</svg>
