<svg width="269" height="162" viewBox="0 0 269 162" fill="none" xmlns="http://www.w3.org/2000/svg">
<path d="M267.874 162H1.12552C0.450209 162 0 161.551 0 160.877V1.12266C0 0.449064 0.450209 0 1.12552 0H267.874C268.55 0 269 0.449064 269 1.12266V160.877C269 161.439 268.437 162 267.874 162ZM2.25105 159.755H266.749V2.24532H2.25105V159.755Z" fill="white"/>
<path d="M81.0378 62.0835L74.0596 65.227L73.6094 64.2166L81.2629 60.7363H82.2759V98.1209H81.1504V62.0835H81.0378Z" fill="white"/>
<path d="M116.941 78.362C116.941 77.3516 116.941 75.6676 116.829 73.8713C116.154 79.8214 110.639 83.9753 104.561 83.9753C97.1323 83.9753 91.6172 79.2601 91.6172 72.4119V72.2996C91.6172 65.5636 97.2448 60.2871 104.448 60.2871C108.5 60.2871 111.539 61.8588 113.79 64.1042C116.716 67.0231 118.18 71.5137 118.18 78.362V78.4742C118.18 90.1499 112.777 98.7944 103.548 98.7944C99.6084 98.7944 95.6691 96.9981 92.7427 94.1915L93.5306 93.2934C96.3444 95.9877 99.9461 97.6717 103.548 97.6717C112.102 97.784 116.941 89.2518 116.941 78.362ZM116.041 72.5241C116.041 66.2372 110.864 61.4098 104.336 61.4098C97.9201 61.4098 92.7427 66.4617 92.7427 72.2996V72.4119C92.8553 78.811 97.9201 83.0771 104.673 83.0771C110.864 83.0771 116.041 78.362 116.041 72.5241Z" fill="white"/>
<path d="M125.383 71.626H127.296V74.4326H125.383V71.626ZM125.383 95.4264H127.296V98.233H125.383V95.4264Z" fill="white"/>
<path d="M131.35 92.1704L132.363 91.3846C135.064 95.0893 139.453 97.6715 144.856 97.6715C150.709 97.6715 155.661 93.8544 155.661 88.5779V88.4657C155.661 81.8419 150.033 79.2598 141.817 79.2598H140.579L140.241 78.474L154.76 61.9708H133.488V60.9604H156.224V61.8586L141.817 78.2494C151.046 78.2494 156.786 81.5052 156.786 88.4657V88.5779C156.786 94.528 151.271 98.7941 144.743 98.7941C138.891 98.7941 134.276 96.0997 131.35 92.1704Z" fill="white"/>
<path d="M163.088 79.5969C163.088 69.3807 168.603 60.2871 178.282 60.2871C187.962 60.2871 193.477 69.2684 193.477 79.4846V79.5969C193.477 89.7008 187.962 98.7944 178.282 98.7944C168.603 98.7944 163.088 89.8131 163.088 79.5969ZM192.351 79.7092C192.351 70.1665 187.287 61.4098 178.282 61.4098C169.278 61.4098 164.326 69.942 164.326 79.4846V79.5969C164.326 89.0272 169.391 97.784 178.395 97.784C187.399 97.784 192.351 89.1395 192.351 79.7092Z" fill="white"/>
<path d="M24.9872 19.8711H11.2559V20.9938H24.9872V19.8711Z" fill="#F2A900"/>
<path d="M24.9872 14.9312H11.2559V16.0538H24.9872V14.9312Z" fill="#F2A900"/>
<path d="M24.9872 9.9917H11.2559V11.1144H24.9872V9.9917Z" fill="#F2A900"/>
</svg>
