<svg width="296" height="190" viewBox="0 0 296 190" fill="none" xmlns="http://www.w3.org/2000/svg">
<path d="M279.883 25.6481H263.549C263.232 25.6481 262.973 25.3889 262.973 25.072C262.973 24.7551 263.232 24.4958 263.549 24.4958H279.883C280.199 24.4958 280.459 24.7551 280.459 25.072C280.459 25.3889 280.199 25.6481 279.883 25.6481Z" fill="white"/>
<path d="M279.883 18H263.549C263.232 18 262.973 17.7408 262.973 17.4239C262.973 17.107 263.232 16.8478 263.549 16.8478H279.883C280.199 16.8478 280.459 17.107 280.459 17.4239C280.459 17.7408 280.199 18 279.883 18Z" fill="white"/>
<path d="M279.883 34.3333H263.549C263.232 34.3333 262.973 34.074 262.973 33.7572C262.973 33.4403 263.232 33.181 263.549 33.181H279.883C280.199 33.181 280.459 33.4403 280.459 33.7572C280.459 34.074 280.199 34.3333 279.883 34.3333Z" fill="white"/>
<g opacity="0.5">
<path d="M275.936 170.32H269.743C269.339 170.32 269.023 169.997 269.023 169.585C269.023 169.174 269.339 168.85 269.743 168.85H275.936C278.413 168.85 280.43 166.793 280.43 164.265C280.43 161.737 278.413 159.679 275.936 159.679H258.09C257.687 159.679 257.37 159.356 257.37 158.944C257.37 158.533 257.687 158.209 258.09 158.209H275.936C279.206 158.209 281.87 160.928 281.87 164.265C281.87 167.601 279.206 170.32 275.936 170.32Z" fill="white"/>
<path d="M266.07 164.809C265.94 164.809 265.825 164.779 265.71 164.706L257.097 159.591C256.881 159.459 256.737 159.224 256.737 158.959C256.737 158.695 256.866 158.46 257.097 158.327L265.71 153.213C266.056 153.007 266.488 153.124 266.689 153.477C266.891 153.83 266.776 154.271 266.43 154.477L258.883 158.959L266.43 163.442C266.776 163.648 266.891 164.103 266.689 164.441C266.56 164.676 266.315 164.809 266.07 164.809Z" fill="white"/>
</g>
<path d="M59.8571 23.315H61.2003L64.2224 32.0012L67.0767 23.1479H68.0841L70.9384 32.0012L73.9606 23.315H75.1359L71.4421 33.8386H70.4347L67.5804 25.3195L64.7261 33.8386H63.7187L59.8571 23.315Z" fill="white"/>
<path d="M77.3201 23.3149H78.4954V33.8386H77.3201V23.3149Z" fill="white"/>
<path d="M81.6842 23.3149H89.2397V24.4842H82.8595V28.1591H88.5681V29.1614H82.8595V33.6715H81.6842V23.3149Z" fill="white"/>
<path d="M91.5916 23.3149H92.7669V33.8386H91.5916V23.3149Z" fill="white"/>
<path d="M99.9839 28.6603C99.9839 25.6536 102.167 23.1479 105.357 23.1479C107.204 23.1479 108.379 23.8161 109.554 24.8184L108.715 25.6536C107.875 24.8184 106.868 24.1502 105.357 24.1502C103.006 24.1502 101.327 25.9877 101.327 28.4933C101.327 30.9989 103.174 32.8364 105.357 32.8364C106.868 32.8364 107.707 32.3352 108.715 31.333L109.554 32.1682C108.379 33.3375 107.204 34.0057 105.357 34.0057C102.167 34.0057 99.9839 31.6671 99.9839 28.6603Z" fill="white"/>
<path d="M110.898 28.6603C110.898 25.6536 113.081 23.1479 116.271 23.1479C119.461 23.1479 121.644 25.6536 121.644 28.4933C121.644 31.333 119.461 34.0057 116.271 34.0057C113.081 34.0057 110.898 31.5 110.898 28.6603ZM120.301 28.6603C120.301 26.3217 118.622 24.3172 116.103 24.3172C113.753 24.3172 111.906 26.3217 111.906 28.6603C111.906 30.9989 113.585 33.0034 116.103 33.0034C118.622 32.8364 120.301 30.9989 120.301 28.6603Z" fill="white"/>
<path d="M124.163 23.3149H125.338L132.054 31.667V23.3149H133.229V33.8386H132.222L125.338 25.1524V33.8386H124.163V23.3149Z" fill="white"/>
<path d="M136.082 23.3149H137.258L143.974 31.667V23.3149H145.149V33.8386H144.141L137.258 25.1524V33.8386H136.082V23.3149Z" fill="white"/>
<path d="M148.004 23.3149H155.559V24.3172H149.179V27.9921H154.888V28.9944H149.179V32.6693H155.727V33.6715H148.004V23.3149Z" fill="white"/>
<path d="M157.574 28.6603C157.574 25.6536 159.756 23.1479 162.947 23.1479C164.793 23.1479 165.969 23.8161 167.144 24.8184L166.305 25.6536C165.465 24.8184 164.458 24.1502 162.947 24.1502C160.596 24.1502 158.917 25.9877 158.917 28.4933C158.917 30.9989 160.764 32.8364 162.947 32.8364C164.458 32.8364 165.297 32.3352 166.305 31.333L167.144 32.1682C165.969 33.3375 164.793 34.0057 162.947 34.0057C159.756 34.0057 157.574 31.6671 157.574 28.6603Z" fill="white"/>
<path d="M172.014 24.4842H168.488V23.3149H176.715V24.4842H173.189V33.8386H172.014V24.4842Z" fill="white"/>
<rect x="1.5" y="5" width="234.776" height="176" rx="1.5" stroke="white" stroke-width="3"/>
<rect x="24.5" y="57" width="144" height="104" stroke="white"/>
<path d="M24 56.5V55.5H23V56.5H24ZM169 56.5H170V55.5H169V56.5ZM169 161.5V162.5H170V161.5H169ZM24 161.5H23V162.5H24V161.5ZM24 57.5H169V55.5H24V57.5ZM168 56.5V161.5H170V56.5H168ZM169 160.5H24V162.5H169V160.5ZM25 161.5V56.5H23V161.5H25Z" fill="white"/>
<path d="M36.1272 134.261L32.3334 124.029H33.6385L36.6736 132.49L39.5872 124H40.5736L43.4873 132.49L46.5224 124.029H47.782L43.9881 134.261H42.9714L40.0577 126.017L37.1288 134.261H36.1272Z" fill="white"/>
<path d="M50.0647 134.188V124.029H51.2636V134.188H50.0647Z" fill="white"/>
<path d="M54.3748 134.188V124.029H62.008V125.088H55.5736V128.717H61.3251V129.762H55.5736V134.188H54.3748Z" fill="white"/>
<path d="M64.4399 134.188V124.029H65.6387V134.188H64.4399Z" fill="white"/>
<path d="M36.795 151.485C35.1661 151.485 33.7194 150.944 32.4548 149.86L33.1984 149.018C33.7649 149.512 34.3315 149.875 34.898 150.107C35.4747 150.339 36.1222 150.455 36.8405 150.455C37.5487 150.455 38.1203 150.295 38.5553 149.976C38.9903 149.647 39.2078 149.231 39.2078 148.728V148.699C39.2078 148.205 39.0156 147.814 38.6312 147.523C38.2467 147.233 37.5183 146.982 36.4459 146.769C35.1914 146.507 34.2809 146.159 33.7143 145.724C33.1579 145.279 32.8797 144.65 32.8797 143.837V143.808C32.8797 143.005 33.2085 142.342 33.8661 141.82C34.5237 141.297 35.3583 141.036 36.37 141.036C37.7763 141.036 39.0207 141.452 40.1032 142.284L39.4051 143.169C38.4643 142.434 37.4424 142.066 36.3397 142.066C35.6619 142.066 35.1155 142.226 34.7007 142.545C34.2859 142.855 34.0785 143.242 34.0785 143.706V143.735C34.0785 144.239 34.2758 144.635 34.6704 144.925C35.0751 145.216 35.8389 145.477 36.9619 145.709C38.1658 145.961 39.0409 146.314 39.5872 146.769C40.1437 147.214 40.4219 147.818 40.4219 148.583V148.612C40.4219 149.473 40.083 150.17 39.4051 150.702C38.7273 151.224 37.8572 151.485 36.795 151.485Z" fill="white"/>
<path d="M42.8598 151.34V141.181H50.5386V142.226H44.0587V145.695H49.8557V146.74H44.0587V150.295H50.6144V151.34H42.8598Z" fill="white"/>
<path d="M55.8336 151.34V142.241H52.2674V141.181H60.6139V142.241H57.0476V151.34H55.8336Z" fill="white"/>
<path d="M67.1156 151.5C65.7701 151.5 64.6977 151.118 63.8984 150.353C63.0992 149.579 62.6996 148.491 62.6996 147.088V141.181H63.8984V147.015C63.8984 148.099 64.1867 148.941 64.7634 149.541C65.3401 150.141 66.1343 150.441 67.146 150.441C68.1475 150.441 68.9316 150.155 69.4981 149.584C70.0647 149.013 70.348 148.181 70.348 147.088V141.181H71.5468V147.001C71.5468 148.452 71.1472 149.565 70.348 150.339C69.5487 151.113 68.4713 151.5 67.1156 151.5Z" fill="white"/>
<path d="M74.3814 151.34V141.181H78.3574C79.5613 141.181 80.5224 141.471 81.2407 142.052C81.9692 142.623 82.3334 143.406 82.3334 144.403V144.432C82.3334 145.487 81.9338 146.304 81.1345 146.885C80.3454 147.465 79.3539 147.756 78.1601 147.756H75.5803V151.34H74.3814ZM75.5803 146.711H78.2057C79.0858 146.711 79.789 146.507 80.315 146.101C80.8512 145.685 81.1193 145.143 81.1193 144.476V144.447C81.1193 143.74 80.8614 143.198 80.3454 142.821C79.8395 142.434 79.1465 142.241 78.2664 142.241H75.5803V146.711Z" fill="white"/>
<g opacity="0.3">
<rect x="177.5" y="57" width="59" height="104" stroke="#D8D8D8"/>
</g>
<g opacity="0.3">
<path d="M190.918 134.266L187.333 124.029H189.287L191.74 131.565L194.267 124H195.795L198.322 131.565L200.775 124.029H202.67L199.1 134.266H197.528L195.002 126.962L192.475 134.266H190.918Z" fill="white"/>
<path d="M204.894 134.194V124.029H206.701V134.194H204.894Z" fill="white"/>
<path d="M209.721 134.194V124.029H217.374V125.655H211.528V128.429H216.713V130.055H211.528V134.194H209.721Z" fill="white"/>
<path d="M219.731 134.194V124.029H221.538V134.194H219.731Z" fill="white"/>
<path d="M188.127 151.355V141.19H192.71C193.983 141.19 194.972 141.529 195.677 142.207C196.246 142.787 196.53 143.518 196.53 144.399V144.428C196.53 145.232 196.309 145.895 195.868 146.418C195.428 146.931 194.835 147.294 194.091 147.507L196.867 151.355H194.723L192.196 147.812H189.934V151.355H188.127ZM189.934 146.229H192.578C193.224 146.229 193.738 146.074 194.12 145.764C194.502 145.454 194.693 145.043 194.693 144.53V144.501C194.693 143.959 194.507 143.543 194.135 143.252C193.763 142.962 193.239 142.816 192.563 142.816H189.934V146.229Z" fill="white"/>
<path d="M199.01 151.355V141.19H206.634V142.787H200.817V145.43H205.973V147.028H200.817V149.757H206.708V151.355H199.01Z" fill="white"/>
<path d="M212.717 151.5C211.082 151.5 209.652 150.958 208.428 149.874L209.515 148.596C210.543 149.477 211.625 149.917 212.761 149.917C213.32 149.917 213.76 149.801 214.084 149.569C214.417 149.327 214.583 149.017 214.583 148.639V148.61C214.583 148.233 214.426 147.933 214.113 147.71C213.8 147.487 213.183 147.27 212.262 147.057C211.674 146.911 211.185 146.766 210.793 146.621C210.401 146.476 210.049 146.287 209.735 146.055C209.422 145.822 209.192 145.542 209.045 145.212C208.908 144.874 208.839 144.477 208.839 144.022V143.993C208.839 143.121 209.167 142.415 209.823 141.873C210.48 141.321 211.322 141.045 212.35 141.045C213.76 141.045 215.004 141.471 216.081 142.323L215.112 143.673C214.162 142.976 213.232 142.628 212.321 142.628C211.811 142.628 211.405 142.744 211.101 142.976C210.798 143.199 210.646 143.484 210.646 143.833V143.862C210.646 144.259 210.808 144.569 211.131 144.791C211.464 145.004 212.12 145.227 213.099 145.459C214.235 145.73 215.068 146.093 215.597 146.548C216.126 146.994 216.39 147.623 216.39 148.436V148.465C216.39 149.404 216.052 150.145 215.376 150.687C214.701 151.229 213.814 151.5 212.717 151.5Z" fill="white"/>
<path d="M218.782 151.355V141.19H226.406V142.787H220.589V145.43H225.745V147.028H220.589V149.757H226.48V151.355H218.782Z" fill="white"/>
<path d="M231.417 151.355V142.846H228.156V141.19H236.5V142.846H233.239V151.355H231.417Z" fill="white"/>
</g>
</svg>
