<svg width="296" height="190" viewBox="0 0 296 190" fill="none" xmlns="http://www.w3.org/2000/svg">
<path d="M279.883 25.6481H263.549C263.232 25.6481 262.973 25.3889 262.973 25.072C262.973 24.7551 263.232 24.4958 263.549 24.4958H279.883C280.199 24.4958 280.459 24.7551 280.459 25.072C280.459 25.3889 280.199 25.6481 279.883 25.6481Z" fill="white"/>
<path d="M279.883 18H263.549C263.232 18 262.973 17.7408 262.973 17.4239C262.973 17.107 263.232 16.8478 263.549 16.8478H279.883C280.199 16.8478 280.459 17.107 280.459 17.4239C280.459 17.7408 280.199 18 279.883 18Z" fill="white"/>
<path d="M279.883 34.3333H263.549C263.232 34.3333 262.973 34.074 262.973 33.7572C262.973 33.4403 263.232 33.181 263.549 33.181H279.883C280.199 33.181 280.459 33.4403 280.459 33.7572C280.459 34.074 280.199 34.3333 279.883 34.3333Z" fill="white"/>
<g opacity="0.5">
<path d="M275.936 170.32H269.743C269.34 170.32 269.023 169.997 269.023 169.585C269.023 169.174 269.34 168.85 269.743 168.85H275.936C278.414 168.85 280.43 166.793 280.43 164.265C280.43 161.737 278.414 159.679 275.936 159.679H258.091C257.687 159.679 257.37 159.356 257.37 158.944C257.37 158.533 257.687 158.209 258.091 158.209H275.936C279.206 158.209 281.87 160.928 281.87 164.265C281.87 167.601 279.206 170.32 275.936 170.32Z" fill="white"/>
<path d="M266.07 164.809C265.94 164.809 265.825 164.779 265.71 164.706L257.097 159.591C256.881 159.459 256.737 159.224 256.737 158.959C256.737 158.695 256.866 158.46 257.097 158.327L265.71 153.213C266.055 153.007 266.487 153.124 266.689 153.477C266.891 153.83 266.776 154.271 266.43 154.477L258.883 158.959L266.43 163.442C266.776 163.648 266.891 164.103 266.689 164.441C266.559 164.676 266.315 164.809 266.07 164.809Z" fill="white"/>
</g>
<path d="M59.8569 23.315H61.2001L64.2223 32.0012L67.0766 23.1479H68.084L70.9383 32.0012L73.9605 23.315H75.1358L71.442 33.8386H70.4346L67.5803 25.3195L64.726 33.8386H63.7186L59.8569 23.315Z" fill="white"/>
<path d="M77.3201 23.3149H78.4954V33.8386H77.3201V23.3149Z" fill="white"/>
<path d="M81.6841 23.3149H89.2395V24.4842H82.8594V28.1591H88.5679V29.1614H82.8594V33.6715H81.6841V23.3149Z" fill="white"/>
<path d="M91.5913 23.3149H92.7666V33.8386H91.5913V23.3149Z" fill="white"/>
<path d="M99.9836 28.6603C99.9836 25.6536 102.166 23.1479 105.356 23.1479C107.203 23.1479 108.379 23.8161 109.554 24.8184L108.714 25.6536C107.875 24.8184 106.867 24.1502 105.356 24.1502C103.006 24.1502 101.327 25.9877 101.327 28.4933C101.327 30.9989 103.174 32.8364 105.356 32.8364C106.867 32.8364 107.707 32.3352 108.714 31.333L109.554 32.1682C108.379 33.3375 107.203 34.0057 105.356 34.0057C102.166 34.0057 99.9836 31.6671 99.9836 28.6603Z" fill="white"/>
<path d="M110.898 28.6603C110.898 25.6536 113.081 23.1479 116.271 23.1479C119.461 23.1479 121.644 25.6536 121.644 28.4933C121.644 31.333 119.461 34.0057 116.271 34.0057C113.081 34.0057 110.898 31.5 110.898 28.6603ZM120.301 28.6603C120.301 26.3217 118.622 24.3172 116.103 24.3172C113.752 24.3172 111.906 26.3217 111.906 28.6603C111.906 30.9989 113.585 33.0034 116.103 33.0034C118.622 32.8364 120.301 30.9989 120.301 28.6603Z" fill="white"/>
<path d="M124.162 23.3149H125.338L132.054 31.667V23.3149H133.229V33.8386H132.222L125.338 25.1524V33.8386H124.162V23.3149Z" fill="white"/>
<path d="M136.082 23.3149H137.258L143.974 31.667V23.3149H145.149V33.8386H144.141L137.258 25.1524V33.8386H136.082V23.3149Z" fill="white"/>
<path d="M148.004 23.3149H155.559V24.3172H149.179V27.9921H154.888V28.9944H149.179V32.6693H155.727V33.6715H148.004V23.3149Z" fill="white"/>
<path d="M157.574 28.6603C157.574 25.6536 159.756 23.1479 162.947 23.1479C164.793 23.1479 165.969 23.8161 167.144 24.8184L166.305 25.6536C165.465 24.8184 164.458 24.1502 162.947 24.1502C160.596 24.1502 158.917 25.9877 158.917 28.4933C158.917 30.9989 160.764 32.8364 162.947 32.8364C164.458 32.8364 165.297 32.3352 166.305 31.333L167.144 32.1682C165.969 33.3375 164.793 34.0057 162.947 34.0057C159.756 34.0057 157.574 31.6671 157.574 28.6603Z" fill="white"/>
<path d="M172.014 24.4842H168.488V23.3149H176.715V24.4842H173.189V33.8386H172.014V24.4842V24.4842Z" fill="white"/>
<rect x="1.5" y="5" width="234.776" height="176" rx="1.5" stroke="white" stroke-width="3"/>
<rect x="76.5" y="57" width="144" height="104" stroke="white"/>
<path d="M76 56.5V55.5H75V56.5H76ZM221 56.5H222V55.5H221V56.5ZM221 161.5V162.5H222V161.5H221ZM76 161.5H75V162.5H76V161.5ZM76 57.5H221V55.5H76V57.5ZM220 56.5V161.5H222V56.5H220ZM221 160.5H76V162.5H221V160.5ZM77 161.5V56.5H75V161.5H77Z" fill="white"/>
<g opacity="0.3">
<rect x="2.5" y="57" width="59" height="104" stroke="#D8D8D8"/>
</g>
<path d="M86 146C86 144.942 86.2421 143.997 86.7264 143.165C87.2107 142.323 87.8725 141.671 88.712 141.209C89.5514 140.736 90.4877 140.5 91.5208 140.5C92.7799 140.5 93.8561 140.788 94.7493 141.363C95.6533 141.928 96.3098 142.729 96.7187 143.766H95.395C95.0722 143.037 94.5771 142.467 93.9099 142.056C93.2534 141.645 92.4571 141.44 91.5208 141.44C90.6921 141.44 89.9442 141.625 89.277 141.994C88.6205 142.364 88.1039 142.898 87.7273 143.597C87.3506 144.285 87.1623 145.086 87.1623 146C87.1623 146.914 87.3506 147.715 87.7273 148.403C88.1039 149.092 88.6205 149.62 89.277 149.99C89.9442 150.36 90.6921 150.545 91.5208 150.545C92.4571 150.545 93.2534 150.345 93.9099 149.944C94.5771 149.533 95.0722 148.968 95.395 148.249H96.7187C96.3098 149.276 95.6533 150.072 94.7493 150.637C93.8453 151.202 92.7692 151.485 91.5208 151.485C90.4877 151.485 89.5514 151.254 88.712 150.791C87.8725 150.319 87.2107 149.667 86.7264 148.835C86.2421 148.003 86 147.058 86 146Z" fill="white"/>
<path d="M104.039 151.5C102.995 151.5 102.048 151.269 101.198 150.807C100.348 150.334 99.6753 149.682 99.1802 148.85C98.6959 148.008 98.4538 147.058 98.4538 146C98.4538 144.942 98.6959 143.997 99.1802 143.165C99.6753 142.323 100.348 141.671 101.198 141.209C102.048 140.736 102.995 140.5 104.039 140.5C105.094 140.5 106.046 140.736 106.896 141.209C107.747 141.671 108.414 142.323 108.898 143.165C109.382 143.997 109.625 144.942 109.625 146C109.625 147.058 109.382 148.008 108.898 148.85C108.414 149.682 107.747 150.334 106.896 150.807C106.046 151.269 105.094 151.5 104.039 151.5ZM104.039 150.56C104.879 150.56 105.632 150.375 106.299 150.006C106.966 149.636 107.494 149.107 107.881 148.419C108.269 147.72 108.462 146.914 108.462 146C108.462 145.086 108.269 144.285 107.881 143.597C107.494 142.908 106.966 142.38 106.299 142.01C105.632 141.64 104.879 141.455 104.039 141.455C103.2 141.455 102.446 141.64 101.779 142.01C101.112 142.38 100.585 142.908 100.197 143.597C99.8098 144.285 99.6161 145.086 99.6161 146C99.6161 146.914 99.8098 147.72 100.197 148.419C100.585 149.107 101.112 149.636 101.779 150.006C102.446 150.375 103.2 150.56 104.039 150.56Z" fill="white"/>
<path d="M120.199 151.392H119.069L112.822 142.333V151.392H111.692V140.623H112.822L119.069 149.667V140.623H120.199V151.392Z" fill="white"/>
<path d="M131.266 151.392H130.136L123.889 142.333V151.392H122.759V140.623H123.889L130.136 149.667V140.623H131.266V151.392Z" fill="white"/>
<path d="M134.955 141.501V145.522H139.233V146.416H134.955V150.499H139.717V151.392H133.825V140.608H139.717V141.501H134.955Z" fill="white"/>
<path d="M141.427 146C141.427 144.942 141.669 143.997 142.154 143.165C142.638 142.323 143.3 141.671 144.139 141.209C144.979 140.736 145.915 140.5 146.948 140.5C148.207 140.5 149.283 140.788 150.177 141.363C151.081 141.928 151.737 142.729 152.146 143.766H150.822C150.499 143.037 150.004 142.467 149.337 142.056C148.681 141.645 147.884 141.44 146.948 141.44C146.119 141.44 145.371 141.625 144.704 141.994C144.048 142.364 143.531 142.898 143.155 143.597C142.778 144.285 142.59 145.086 142.59 146C142.59 146.914 142.778 147.715 143.155 148.403C143.531 149.092 144.048 149.62 144.704 149.99C145.371 150.36 146.119 150.545 146.948 150.545C147.884 150.545 148.681 150.345 149.337 149.944C150.004 149.533 150.499 148.968 150.822 148.249H152.146C151.737 149.276 151.081 150.072 150.177 150.637C149.273 151.202 148.196 151.485 146.948 151.485C145.915 151.485 144.979 151.254 144.139 150.791C143.3 150.319 142.638 149.667 142.154 148.835C141.669 148.003 141.427 147.058 141.427 146Z" fill="white"/>
<path d="M161 140.623V141.517H157.868V151.392H156.738V141.517H153.591V140.623H161Z" fill="white"/>
<path d="M4.11681 141.501V145.522H8.90945V146.416H4.11681V150.498H9.45201V151.392H2.85083V140.607H9.45201V141.501H4.11681Z" fill="#414141"/>
<path d="M24.234 148.834H18.4829L17.3796 151.392H16.0413L20.6531 140.761H22.0819L26.6756 151.392H25.3372L24.234 148.834ZM23.8542 147.941L21.3584 142.117L18.8627 147.941H23.8542Z" fill="#414141"/>
<path d="M36.7915 143.719C36.7915 144.644 36.4359 145.388 35.7245 145.953C35.0131 146.518 33.9461 146.801 32.5234 146.801H29.9733V151.392H28.7073V140.623H32.5234C33.934 140.623 34.9951 140.905 35.7064 141.47C36.4298 142.035 36.7915 142.785 36.7915 143.719ZM32.5234 145.876C34.5007 145.876 35.4894 145.157 35.4894 143.719C35.4894 143.001 35.2543 142.456 34.7841 142.086C34.3138 141.717 33.5603 141.532 32.5234 141.532H29.9733V145.876H32.5234Z" fill="#414141"/>
<path d="M46.9999 143.719C46.9999 144.644 46.6442 145.388 45.9329 145.953C45.2215 146.518 44.1545 146.801 42.7318 146.801H40.1817V151.392H38.9157V140.623H42.7318C44.1424 140.623 45.2034 140.905 45.9148 141.47C46.6382 142.035 46.9999 142.785 46.9999 143.719ZM42.7318 145.876C44.7091 145.876 45.6978 145.157 45.6978 143.719C45.6978 143.001 45.4627 142.456 44.9924 142.086C44.5222 141.717 43.7687 141.532 42.7318 141.532H40.1817V145.876H42.7318Z" fill="#414141"/>
</svg>
