<svg width="328" height="70" viewBox="0 0 328 70" fill="none" xmlns="http://www.w3.org/2000/svg">
<g clip-path="url(#clip0_402_2774)">
<path d="M303.061 39.3659C302.894 39.3415 302.727 39.3212 302.56 39.2887C301.698 39.1297 300.903 38.7189 300.277 38.1084C299.65 37.4979 299.219 36.7154 299.04 35.8602C298.894 35.2116 298.9 34.5383 299.057 33.8924C299.214 33.2464 299.518 32.6451 299.945 32.1349C300.422 31.5449 301.046 31.0916 301.756 30.8213C301.854 30.777 301.966 30.7731 302.066 30.8105C302.167 30.8478 302.249 30.9233 302.295 31.0206C302.314 31.0713 302.323 31.1253 302.321 31.1796C302.319 31.2338 302.307 31.2871 302.284 31.3364C302.261 31.3856 302.229 31.4299 302.188 31.4664C302.148 31.503 302.101 31.5312 302.05 31.5493C301.471 31.7816 300.96 32.1572 300.567 32.6409C300.174 33.1245 299.911 33.7001 299.804 34.3132C299.696 34.9263 299.747 35.5567 299.951 36.1448C300.156 36.7329 300.508 37.2593 300.973 37.6741C301.487 38.1454 302.133 38.4479 302.825 38.5403C303.312 38.6122 303.81 38.5854 304.287 38.4616C304.764 38.3378 305.211 38.1194 305.601 37.8196C305.992 37.5198 306.318 37.1446 306.56 36.7164C306.802 36.2882 306.955 35.8159 307.01 35.3275C307.094 34.5413 306.919 33.7491 306.511 33.071C306.104 32.3929 305.485 31.8658 304.75 31.5696C304.677 31.5492 304.611 31.511 304.557 31.4585C304.502 31.4059 304.462 31.3407 304.44 31.2687C304.417 31.1965 304.417 31.1191 304.439 31.0466C304.46 30.9741 304.503 30.9098 304.562 30.862C304.618 30.8159 304.686 30.7856 304.757 30.7741C304.829 30.7627 304.903 30.7706 304.97 30.7969C305.552 31.0188 306.079 31.3628 306.516 31.8055C307.189 32.4692 307.619 33.3382 307.74 34.2741C307.86 35.0126 307.786 35.7696 307.525 36.471C307.264 37.1725 306.825 37.7944 306.251 38.276C305.62 38.8323 304.838 39.1902 304.004 39.3049C303.893 39.3253 303.779 39.3375 303.669 39.3497L303.061 39.3659Z" fill="#F2A900"/>
<path d="M303.771 31.8551V34.5758C303.772 34.6751 303.736 34.7713 303.671 34.8462C303.606 34.9211 303.515 34.9696 303.416 34.9825C303.324 34.9854 303.233 34.9568 303.159 34.9014C303.084 34.8459 303.031 34.767 303.008 34.6775C303.004 34.641 303.004 34.6042 303.008 34.5677V29.1261C302.992 29.0658 302.99 29.0025 303.002 28.9412C303.014 28.8799 303.04 28.8221 303.078 28.7725C303.116 28.7228 303.165 28.6826 303.221 28.6549C303.277 28.6272 303.339 28.6128 303.402 28.6128C303.465 28.6128 303.526 28.6272 303.583 28.6549C303.639 28.6826 303.688 28.7228 303.726 28.7725C303.764 28.8221 303.79 28.8799 303.802 28.9412C303.814 29.0025 303.812 29.0658 303.796 29.1261L303.771 31.8551Z" fill="#F2A900"/>
</g>
<path d="M128.494 56.3354C128.494 56.2718 128.513 56.2109 128.548 56.1659C128.583 56.121 128.629 56.0957 128.678 56.0957L135.262 56.0957C135.311 56.0957 135.357 56.121 135.392 56.1659C135.427 56.2109 135.446 56.2718 135.446 56.3354C135.446 56.399 135.427 56.46 135.392 56.505C135.357 56.5499 135.311 56.5752 135.262 56.5752L128.684 56.5752C128.635 56.5752 128.589 56.5499 128.554 56.505C128.519 56.46 128.5 56.399 128.5 56.3354" fill="white"/>
<path fill-rule="evenodd" clip-rule="evenodd" d="M128.373 56.3357C128.373 56.249 128.399 56.1615 128.452 56.0931C128.505 56.024 128.585 55.9761 128.677 55.9761L135.26 55.9761C135.353 55.9761 135.433 56.024 135.486 56.0931C135.538 56.1615 135.565 56.249 135.565 56.3357C135.565 56.4223 135.538 56.5098 135.486 56.5783C135.433 56.6474 135.353 56.6953 135.26 56.6953L128.683 56.6953C128.591 56.6953 128.511 56.6474 128.458 56.5783C128.405 56.5098 128.379 56.4223 128.379 56.3357L128.373 56.3357ZM128.547 56.1662C128.512 56.2111 128.493 56.2721 128.493 56.3357L128.499 56.3357C128.499 56.3992 128.518 56.4602 128.553 56.5052C128.587 56.5502 128.634 56.5754 128.683 56.5754L135.26 56.5754C135.309 56.5754 135.356 56.5502 135.391 56.5052C135.425 56.4602 135.445 56.3992 135.445 56.3357C135.445 56.2721 135.425 56.2111 135.391 56.1662C135.356 56.1212 135.309 56.0959 135.26 56.0959L128.677 56.0959C128.628 56.0959 128.581 56.1212 128.547 56.1662Z" fill="white"/>
<path d="M185.548 56.3354C185.548 56.2718 185.567 56.2109 185.602 56.1659C185.637 56.121 185.683 56.0957 185.732 56.0957L192.316 56.0957C192.365 56.0957 192.411 56.121 192.446 56.1659C192.481 56.2109 192.5 56.2718 192.5 56.3354C192.5 56.399 192.481 56.46 192.446 56.505C192.411 56.5499 192.365 56.5752 192.316 56.5752L185.738 56.5752C185.689 56.5752 185.642 56.5499 185.608 56.505C185.573 56.46 185.554 56.399 185.554 56.3354" fill="white"/>
<path fill-rule="evenodd" clip-rule="evenodd" d="M185.429 56.3357C185.429 56.249 185.455 56.1615 185.508 56.0931C185.561 56.024 185.641 55.9761 185.733 55.9761L192.316 55.9761C192.409 55.9761 192.489 56.024 192.542 56.0931C192.594 56.1615 192.621 56.249 192.621 56.3357C192.621 56.4223 192.594 56.5098 192.542 56.5783C192.489 56.6474 192.409 56.6953 192.316 56.6953L185.739 56.6953C185.647 56.6953 185.567 56.6474 185.514 56.5783C185.461 56.5098 185.435 56.4223 185.435 56.3357L185.429 56.3357ZM185.603 56.1662C185.568 56.2111 185.549 56.2721 185.549 56.3357L185.555 56.3357C185.555 56.3992 185.574 56.4602 185.609 56.5052C185.643 56.5502 185.69 56.5754 185.739 56.5754L192.316 56.5754C192.365 56.5754 192.412 56.5502 192.447 56.5052C192.481 56.4602 192.501 56.3992 192.501 56.3357C192.501 56.2721 192.481 56.2111 192.447 56.1662C192.412 56.1212 192.365 56.0959 192.316 56.0959L185.733 56.0959C185.684 56.0959 185.637 56.1212 185.603 56.1662Z" fill="white"/>
<path d="M189.143 59.9315C189.079 59.9315 189.018 59.9121 188.973 59.8775C188.928 59.843 188.903 59.7961 188.903 59.7472V53.1638C188.903 53.115 188.928 53.0681 188.973 53.0335C189.018 52.9989 189.079 52.9795 189.143 52.9795C189.206 52.9795 189.267 52.9989 189.312 53.0335C189.357 53.0681 189.383 53.115 189.383 53.1638V59.7412C189.383 59.7901 189.357 59.837 189.312 59.8716C189.267 59.9062 189.206 59.9256 189.143 59.9256" fill="white"/>
<path fill-rule="evenodd" clip-rule="evenodd" d="M189.144 60.0516C189.057 60.0516 188.97 60.0254 188.901 59.9728C188.832 59.9197 188.784 59.8398 188.784 59.7474V53.1641C188.784 53.0717 188.832 52.9918 188.901 52.9387C188.97 52.8861 189.057 52.8599 189.144 52.8599C189.231 52.8599 189.318 52.8861 189.387 52.9387C189.456 52.9919 189.504 53.0718 189.504 53.1641V59.7415C189.504 59.8338 189.456 59.9137 189.387 59.9669C189.318 60.0195 189.231 60.0457 189.144 60.0457V60.0516ZM188.975 59.8778C189.019 59.9124 189.08 59.9318 189.144 59.9318V59.9258C189.208 59.9258 189.269 59.9064 189.314 59.8718C189.359 59.8373 189.384 59.7904 189.384 59.7415V53.1641C189.384 53.1152 189.359 53.0683 189.314 53.0337C189.269 52.9991 189.208 52.9797 189.144 52.9797C189.08 52.9797 189.019 52.9991 188.975 53.0337C188.93 53.0683 188.904 53.1152 188.904 53.1641V59.7474C188.904 59.7963 188.93 59.8432 188.975 59.8778Z" fill="white"/>
<path d="M269.957 53.2136C269.923 53.2214 269.888 53.2214 269.854 53.2136C269.807 53.1936 269.766 53.1611 269.737 53.12C269.708 53.0789 269.693 53.0309 269.693 52.9818V44.118C269.694 44.069 269.71 44.0215 269.738 43.9805C269.767 43.9396 269.807 43.9069 269.854 43.8862C269.903 43.8693 269.956 43.8657 270.008 43.8755C270.059 43.8854 270.106 43.9085 270.144 43.9421L274.861 48.37C274.886 48.3931 274.905 48.4205 274.919 48.4506C274.932 48.4808 274.939 48.5132 274.939 48.5459C274.939 48.5786 274.932 48.6109 274.919 48.6411C274.905 48.6713 274.886 48.6987 274.861 48.7217L270.144 53.1416C270.119 53.1646 270.09 53.1828 270.058 53.1951C270.026 53.2075 269.991 53.2138 269.957 53.2136ZM270.221 44.7174V52.3664L274.299 48.5459L270.221 44.7174Z" fill="white"/>
<path fill-rule="evenodd" clip-rule="evenodd" d="M269.817 53.3278L269.808 53.324C269.739 53.2955 269.68 53.2488 269.638 53.1884C269.596 53.1278 269.573 53.0563 269.572 52.9825L269.572 52.9815L269.572 44.116L269.572 44.1143C269.574 44.0415 269.598 43.9714 269.639 43.9117C269.681 43.8521 269.739 43.8055 269.805 43.7762L269.81 43.7742L269.815 43.7726C269.884 43.7489 269.958 43.7438 270.03 43.7576C270.101 43.7714 270.168 43.8039 270.223 43.8522L270.224 43.8533L274.942 48.2821C274.942 48.2822 274.942 48.2822 274.942 48.2823C274.978 48.3161 275.007 48.3566 275.027 48.4018C275.047 48.4471 275.058 48.4961 275.058 48.5456C275.058 48.5952 275.047 48.6441 275.027 48.6895C275.007 48.7346 274.978 48.7752 274.942 48.809C274.942 48.809 274.942 48.8091 274.942 48.8092L270.225 53.2291C270.189 53.2627 270.146 53.289 270.1 53.3068C270.058 53.3229 270.014 53.3317 269.969 53.333C269.922 53.3419 269.873 53.3409 269.827 53.3301L269.817 53.3278ZM269.956 53.2133C269.991 53.2135 270.025 53.2072 270.057 53.1949C270.089 53.1825 270.118 53.1644 270.143 53.1414L274.86 48.7215C274.885 48.6984 274.904 48.671 274.918 48.6409C274.931 48.6107 274.938 48.5783 274.938 48.5456C274.938 48.5129 274.931 48.4806 274.918 48.4504C274.904 48.4202 274.885 48.3928 274.86 48.3698L270.143 43.9419C270.105 43.9082 270.058 43.8852 270.007 43.8753C269.956 43.8654 269.903 43.8691 269.854 43.8859C269.806 43.9067 269.766 43.9393 269.738 43.9803C269.709 44.0212 269.693 44.0688 269.692 44.1177V52.9815C269.692 53.0307 269.708 53.0787 269.736 53.1198C269.765 53.1609 269.806 53.1934 269.854 53.2133C269.887 53.2211 269.922 53.2211 269.956 53.2133ZM270.22 52.3661L274.298 48.5456L270.22 44.7172V52.3661ZM270.34 44.9941V52.0896L274.123 48.5455L270.34 44.9941Z" fill="white"/>
<path d="M276.362 53.2135C276.292 53.2135 276.225 53.1874 276.176 53.1409C276.126 53.0945 276.098 53.0314 276.098 52.9657V44.1179C276.098 44.0522 276.126 43.9891 276.176 43.9427C276.225 43.8962 276.292 43.8701 276.362 43.8701C276.432 43.8701 276.499 43.8962 276.549 43.9427C276.598 43.9891 276.626 44.0522 276.626 44.1179V52.9577C276.626 53.0235 276.598 53.0865 276.549 53.1329C276.499 53.1794 276.432 53.2055 276.362 53.2055" fill="white"/>
<path fill-rule="evenodd" clip-rule="evenodd" d="M276.361 53.3331C276.262 53.3331 276.165 53.2961 276.093 53.2281C276.02 53.1598 275.978 53.0655 275.978 52.9655V44.1176C275.978 44.0176 276.02 43.9233 276.093 43.855C276.165 43.787 276.262 43.75 276.361 43.75C276.461 43.75 276.558 43.787 276.63 43.855C276.703 43.9233 276.745 44.0176 276.745 44.1176V52.9575C276.745 53.0575 276.703 53.1518 276.63 53.2201C276.558 53.2881 276.461 53.3251 276.361 53.3251V53.3331ZM276.175 53.1407C276.224 53.1871 276.291 53.2133 276.361 53.2133V53.2053C276.431 53.2053 276.499 53.1792 276.548 53.1327C276.598 53.0862 276.625 53.0232 276.625 52.9575V44.1176C276.625 44.0519 276.598 43.9889 276.548 43.9424C276.499 43.896 276.431 43.8699 276.361 43.8699C276.291 43.8699 276.224 43.896 276.175 43.9424C276.125 43.9889 276.098 44.0519 276.098 44.1176V52.9655C276.098 53.0312 276.125 53.0942 276.175 53.1407Z" fill="white"/>
<path d="M279.384 53.2135C279.314 53.2135 279.247 53.1874 279.198 53.1409C279.148 53.0945 279.12 53.0314 279.12 52.9657V44.1179C279.12 44.0522 279.148 43.9891 279.198 43.9427C279.247 43.8962 279.314 43.8701 279.384 43.8701C279.454 43.8701 279.521 43.8962 279.571 43.9427C279.62 43.9891 279.648 44.0522 279.648 44.1179V52.9577C279.648 53.0235 279.62 53.0865 279.571 53.1329C279.521 53.1794 279.454 53.2055 279.384 53.2055" fill="white"/>
<path fill-rule="evenodd" clip-rule="evenodd" d="M279.383 53.3331C279.284 53.3331 279.187 53.2961 279.115 53.2281C279.042 53.1598 279 53.0655 279 52.9655V44.1176C279 44.0176 279.042 43.9233 279.115 43.855C279.187 43.787 279.284 43.75 279.383 43.75C279.483 43.75 279.58 43.787 279.652 43.855C279.725 43.9233 279.767 44.0176 279.767 44.1176V52.9575C279.767 53.0575 279.725 53.1518 279.652 53.2201C279.58 53.2881 279.483 53.3251 279.383 53.3251V53.3331ZM279.197 53.1407C279.246 53.1871 279.313 53.2133 279.383 53.2133V53.2053C279.453 53.2053 279.521 53.1792 279.57 53.1327C279.62 53.0862 279.647 53.0232 279.647 52.9575V44.1176C279.647 44.0519 279.62 43.9889 279.57 43.9424C279.521 43.896 279.453 43.8699 279.383 43.8699C279.313 43.8699 279.246 43.896 279.197 43.9424C279.147 43.9889 279.119 44.0519 279.119 44.1176V52.9655C279.119 53.0312 279.147 53.0942 279.197 53.1407Z" fill="white"/>
<path d="M177.907 23.8975L176.943 24.5701V29.891L177.841 30.6339H178.115V24.0982L177.907 23.8975Z" fill="white"/>
<path d="M177.907 37.9427L176.943 37.2801V31.9492L177.841 31.2163H178.115V37.7519L177.907 37.9427Z" fill="white"/>
<path d="M141.239 30.9249L140.582 30.3828H135.047L134.39 30.9249L135.047 31.457H140.582L141.239 30.9249Z" fill="white"/>
<path d="M140.935 23.0142H134.7L133.527 24.0984H134.7H135.85H140.563L141.44 23.476L140.935 23.0142Z" fill="white"/>
<path d="M140.935 38.8362H134.7L133.527 37.752H140.563L141.44 38.3644L140.935 38.8362Z" fill="white"/>
<path d="M133.527 24.6807V30.634H133.801L134.7 29.8911L134.711 24.6807H133.527Z" fill="white"/>
<path d="M133.527 37.1697V31.2163H133.801L134.7 31.9592L134.711 37.1697H133.527Z" fill="white"/>
<path d="M141.896 23.8975L140.932 24.5701V29.891L141.842 30.6339H142.105V24.0982L141.896 23.8975Z" fill="white"/>
<path d="M141.896 37.9427L140.932 37.2801V31.9492L141.842 31.2163H142.105V37.7519L141.896 37.9427Z" fill="white"/>
<path d="M152.1 30.9249L151.432 30.3828H145.908L145.251 30.9249L145.908 31.457H151.432L152.1 30.9249Z" fill="white"/>
<path d="M151.784 23.0244H145.549L144.376 24.0986H151.412L152.3 23.4862L151.784 23.0244Z" fill="white"/>
<path d="M151.784 38.8262H145.56L144.376 37.752H145.56H146.71H151.412L152.3 38.3644L151.784 38.8262Z" fill="white"/>
<path d="M144.376 24.6807V30.634H144.65L145.56 29.8911V24.6807H144.376Z" fill="white"/>
<path d="M144.376 37.1697V31.2163H144.65L145.56 31.9592V37.1697H144.376Z" fill="white"/>
<path d="M152.749 23.8975L151.785 24.5701V29.891L152.695 30.6339H152.969V24.0982L152.749 23.8975Z" fill="white"/>
<path d="M152.749 37.9427L151.785 37.2801V31.9492L152.695 31.2163H152.969V37.7519L152.749 37.9427Z" fill="white"/>
<path d="M166.403 30.9249L165.746 30.3828H160.211L159.554 30.9249L160.211 31.457H165.746L166.403 30.9249Z" fill="white"/>
<path d="M166.084 23.0142H159.859L158.675 24.0984H159.859H161.01H165.711L166.599 23.476L166.084 23.0142Z" fill="white"/>
<path d="M166.084 38.8362H159.859L158.675 37.752H165.711L166.599 38.3644L166.084 38.8362Z" fill="white"/>
<path d="M158.685 24.6807V30.634H158.948L159.858 29.8911V24.6807H158.685Z" fill="white"/>
<path d="M158.685 37.1697V31.2163H158.948L159.858 31.9592V37.1697H158.685Z" fill="white"/>
<path d="M167.047 23.8975L166.082 24.5701V29.891L166.992 30.6339H167.266V24.0982L167.047 23.8975Z" fill="white"/>
<path d="M167.047 37.9427L166.082 37.2801V31.9492L166.992 31.2163H167.266V37.7519L167.047 37.9427Z" fill="white"/>
<path d="M177.254 30.9249L176.597 30.3828H171.063L170.405 30.9249L171.063 31.457H176.597L177.254 30.9249Z" fill="white"/>
<path d="M176.945 23.0244H170.709C170.249 23.436 169.536 24.0986 169.536 24.0986H176.561L177.449 23.4862L176.945 23.0244Z" fill="white"/>
<path d="M176.945 38.8262H170.709L169.536 37.752H170.72H171.86H176.572L177.449 38.3644L176.945 38.8262Z" fill="white"/>
<path d="M169.536 24.6807V30.634H169.799L170.709 29.8911L170.72 24.6807H169.536Z" fill="white"/>
<path d="M169.536 37.1697V31.2163H169.799L170.709 31.9592L170.72 37.1697H169.536Z" fill="white"/>
<path d="M156.412 27.6221H155.239V29.5898H156.412V27.6221Z" fill="white"/>
<path d="M156.412 32.25H155.239V34.2278H156.412V32.25Z" fill="white"/>
<g clip-path="url(#clip1_402_2774)">
<path d="M177.748 13.1573C176.685 12.1037 175.251 11.511 173.756 11.5068H173.581C173.449 11.5068 173.314 11.5068 173.176 11.5345C172.215 11.636 171.296 11.9862 170.511 12.5507C170.323 12.6831 170.148 12.834 169.98 12.9787L169.909 13.0403C169.855 13.0829 169.817 13.1436 169.804 13.2114C169.79 13.2792 169.802 13.3495 169.835 13.4098C169.867 13.4701 169.919 13.518 169.981 13.5459C170.043 13.5738 170.113 13.5801 170.179 13.5638C170.244 13.5321 170.303 13.4882 170.351 13.4345C170.896 12.941 171.542 12.5722 172.243 12.3537C172.945 12.1352 173.685 12.0721 174.413 12.1689C175.272 12.2756 176.087 12.6069 176.778 13.1296C176.919 13.2343 177.054 13.3544 177.183 13.4714L177.343 13.6131C177.408 13.6698 177.49 13.7025 177.576 13.7054C177.601 13.7099 177.627 13.7099 177.653 13.7054C177.699 13.6928 177.742 13.6688 177.777 13.6354C177.812 13.6021 177.838 13.5605 177.852 13.5145C177.873 13.4514 177.874 13.3835 177.855 13.3197C177.837 13.256 177.799 13.1994 177.748 13.1573Z" fill="#F2A900"/>
<path d="M173.898 13.1726C173.074 13.1341 172.261 13.3642 171.579 13.8285C171.403 13.9516 171.233 14.0853 171.073 14.2288L171.02 14.275C170.986 14.301 170.958 14.3339 170.938 14.3716C170.917 14.4092 170.904 14.4508 170.901 14.4936C170.899 14.534 170.905 14.5744 170.919 14.6124C170.932 14.6505 170.953 14.6854 170.981 14.7153C171.008 14.7459 171.041 14.7707 171.078 14.7882C171.115 14.8057 171.155 14.8156 171.196 14.8173C171.237 14.819 171.278 14.8125 171.316 14.7982C171.355 14.7839 171.39 14.762 171.42 14.7338L171.487 14.6722C172.052 14.1323 172.79 13.8123 173.569 13.77C174.429 13.732 175.274 14.0065 175.949 14.5429C176.01 14.5921 176.068 14.6507 176.127 14.7061C176.185 14.7615 176.203 14.7831 176.243 14.8169C176.305 14.8761 176.386 14.9101 176.471 14.9124C176.492 14.9154 176.514 14.9154 176.535 14.9124C176.584 14.9 176.63 14.8754 176.667 14.841C176.705 14.8066 176.733 14.7634 176.75 14.7153C176.772 14.6537 176.773 14.5868 176.754 14.5243C176.736 14.4617 176.698 14.4068 176.646 14.3674C175.917 13.6289 174.933 13.2009 173.898 13.1726Z" fill="#F2A900"/>
<path d="M173.075 14.8231C172.691 14.9282 172.342 15.132 172.061 15.4143C172.005 15.4719 171.974 15.5493 171.974 15.6299C171.974 15.7105 172.005 15.7879 172.061 15.8454C172.119 15.9019 172.196 15.9335 172.276 15.9335C172.357 15.9335 172.434 15.9019 172.491 15.8454C172.506 15.8358 172.519 15.8245 172.531 15.8116L172.556 15.7869C172.862 15.5059 173.258 15.3432 173.673 15.3281C173.938 15.3126 174.203 15.3555 174.449 15.454C174.695 15.5524 174.917 15.7039 175.098 15.8978C175.139 15.9334 175.184 15.9634 175.233 15.9871L175.289 16.0148L175.313 16.0302H175.341C175.401 16.0224 175.458 15.9987 175.506 15.9613C175.554 15.9239 175.591 15.8744 175.614 15.8177C175.64 15.7588 175.646 15.693 175.63 15.6305C175.614 15.568 175.579 15.5126 175.528 15.4728C175.219 15.1471 174.826 14.9138 174.393 14.7991C173.96 14.6843 173.503 14.6927 173.075 14.8231Z" fill="#F2A900"/>
<path d="M173.805 16.5137C173.713 16.5145 173.625 16.5518 173.56 16.6176C173.495 16.6833 173.458 16.7721 173.458 16.8647V17.6253C173.459 17.7173 173.496 17.8054 173.561 17.8704C173.626 17.9355 173.714 17.9724 173.805 17.9732C173.897 17.9732 173.986 17.9366 174.051 17.8713C174.116 17.8061 174.152 17.7176 174.152 17.6253V16.8647C174.153 16.8188 174.144 16.7732 174.127 16.7306C174.11 16.688 174.084 16.6493 174.052 16.6167C174.02 16.584 173.981 16.5581 173.939 16.5404C173.897 16.5228 173.851 16.5137 173.805 16.5137Z" fill="#F2A900"/>
</g>
<g clip-path="url(#clip2_402_2774)">
<path d="M305.81 45.1368C305.148 44.4812 304.256 44.1125 303.326 44.1099H303.217C303.135 44.1099 303.051 44.1099 302.965 44.1271C302.367 44.1903 301.796 44.4081 301.307 44.7594C301.19 44.8418 301.081 44.9357 300.976 45.0257L300.932 45.064C300.899 45.0905 300.875 45.1283 300.867 45.1705C300.859 45.2126 300.866 45.2564 300.887 45.2939C300.907 45.3315 300.938 45.3613 300.977 45.3786C301.016 45.3959 301.059 45.3999 301.1 45.3897C301.141 45.37 301.177 45.3427 301.207 45.3093C301.547 45.0022 301.949 44.7728 302.385 44.6368C302.821 44.5008 303.282 44.4616 303.735 44.5218C304.269 44.5882 304.777 44.7944 305.206 45.1196C305.294 45.1847 305.378 45.2595 305.458 45.3323L305.558 45.4204C305.598 45.4557 305.649 45.476 305.703 45.4779C305.719 45.4806 305.735 45.4806 305.751 45.4779C305.78 45.47 305.806 45.4551 305.828 45.4343C305.85 45.4136 305.866 45.3877 305.875 45.3591C305.888 45.3198 305.888 45.2775 305.877 45.2379C305.865 45.1982 305.842 45.163 305.81 45.1368Z" fill="white"/>
<path d="M303.414 45.1466C302.902 45.1227 302.396 45.2659 301.972 45.5547C301.862 45.6313 301.756 45.7145 301.656 45.8038L301.624 45.8325C301.603 45.8488 301.585 45.8692 301.572 45.8927C301.559 45.9161 301.552 45.9419 301.549 45.9686C301.548 45.9937 301.552 46.0188 301.561 46.0425C301.569 46.0662 301.582 46.0879 301.599 46.1065C301.616 46.1256 301.637 46.141 301.66 46.1519C301.683 46.1628 301.708 46.1689 301.733 46.17C301.759 46.1711 301.784 46.167 301.808 46.1581C301.832 46.1492 301.854 46.1356 301.872 46.118L301.914 46.0797C302.266 45.7438 302.725 45.5447 303.21 45.5183C303.745 45.4947 304.271 45.6655 304.69 45.9992C304.729 46.0299 304.765 46.0663 304.801 46.1008C304.837 46.1353 304.849 46.1487 304.874 46.1698C304.912 46.2065 304.962 46.2277 305.015 46.2292C305.028 46.231 305.042 46.231 305.055 46.2292C305.086 46.2214 305.114 46.2062 305.138 46.1848C305.161 46.1634 305.179 46.1365 305.189 46.1065C305.202 46.0682 305.203 46.0266 305.192 45.9876C305.18 45.9487 305.156 45.9145 305.124 45.89C304.671 45.4305 304.058 45.1642 303.414 45.1466Z" fill="white"/>
<path d="M302.902 46.1733C302.663 46.2387 302.446 46.3655 302.272 46.5412C302.237 46.577 302.217 46.6252 302.217 46.6753C302.217 46.7255 302.237 46.7736 302.272 46.8094C302.307 46.8446 302.355 46.8642 302.405 46.8642C302.455 46.8642 302.503 46.8446 302.539 46.8094C302.548 46.8035 302.556 46.7964 302.564 46.7884L302.579 46.773C302.77 46.5982 303.016 46.497 303.275 46.4876C303.439 46.4779 303.604 46.5046 303.757 46.5659C303.91 46.6271 304.048 46.7214 304.161 46.842C304.187 46.8642 304.215 46.8829 304.245 46.8976L304.28 46.9148L304.295 46.9244H304.312C304.35 46.9196 304.385 46.9048 304.415 46.8815C304.445 46.8583 304.468 46.8274 304.482 46.7922C304.498 46.7556 304.502 46.7146 304.492 46.6757C304.482 46.6368 304.46 46.6023 304.429 46.5776C304.236 46.3749 303.992 46.2298 303.722 46.1584C303.453 46.087 303.169 46.0922 302.902 46.1733Z" fill="white"/>
<path d="M303.357 47.2251C303.299 47.2256 303.244 47.2488 303.204 47.2897C303.164 47.3307 303.141 47.3859 303.141 47.4435V47.9168C303.141 47.974 303.164 48.0288 303.205 48.0693C303.245 48.1098 303.3 48.1328 303.357 48.1333C303.414 48.1333 303.469 48.1105 303.509 48.0699C303.55 48.0293 303.573 47.9742 303.573 47.9168V47.4435C303.573 47.4149 303.568 47.3866 303.557 47.3601C303.546 47.3336 303.53 47.3095 303.51 47.2892C303.49 47.2689 303.466 47.2528 303.44 47.2418C303.414 47.2308 303.385 47.2251 303.357 47.2251Z" fill="white"/>
</g>
<g clip-path="url(#clip3_402_2774)">
<path d="M188.062 12.8174C187.917 12.5289 187.731 12.2632 187.51 12.0286C187.477 11.9904 187.434 11.9623 187.386 11.9476C187.338 11.9329 187.286 11.9322 187.238 11.9456C187.198 11.9581 187.162 11.9817 187.135 12.0137C187.108 12.0457 187.09 12.0848 187.084 12.1265C187.081 12.1721 187.088 12.2178 187.104 12.2607C187.12 12.3036 187.144 12.3427 187.176 12.3756C187.567 12.8072 187.822 13.345 187.91 13.9215C187.997 14.498 187.914 15.0876 187.669 15.6167C187.539 15.8921 187.367 16.1461 187.161 16.3699C187.13 16.3991 187.106 16.4353 187.091 16.4754C187.076 16.5156 187.071 16.5586 187.075 16.6012C187.082 16.6378 187.097 16.6723 187.12 16.7017C187.142 16.7311 187.172 16.7546 187.205 16.7702C187.239 16.7914 187.278 16.8027 187.318 16.8029C187.358 16.7993 187.397 16.7875 187.433 16.7681C187.468 16.7487 187.5 16.7222 187.524 16.6902C188.097 16.0734 188.42 15.2645 188.429 14.4217C188.432 13.8657 188.307 13.3165 188.062 12.8174Z" fill="white"/>
<path d="M187.418 14.3922C187.429 14.0202 187.344 13.6517 187.173 13.3217C187.07 13.145 186.953 12.9764 186.824 12.8176L186.794 12.779C186.777 12.7544 186.754 12.7339 186.727 12.7191C186.701 12.7042 186.671 12.6954 186.641 12.693C186.607 12.6906 186.573 12.6951 186.541 12.7063C186.509 12.7175 186.48 12.7352 186.455 12.7583C186.407 12.8005 186.379 12.8597 186.375 12.923C186.371 12.9864 186.392 13.0487 186.434 13.0963L186.481 13.1497C186.761 13.4643 186.922 13.8667 186.938 14.2878C186.953 14.7088 186.822 15.1222 186.567 15.4568C186.547 15.4838 186.525 15.5095 186.502 15.5339L186.416 15.6406C186.383 15.6838 186.366 15.7377 186.369 15.7922C186.373 15.8468 186.396 15.8983 186.434 15.9372C186.456 15.9634 186.483 15.9847 186.513 15.9996C186.544 16.0144 186.577 16.0225 186.611 16.0232C186.647 16.0227 186.682 16.0146 186.715 15.9994C186.763 15.9712 186.806 15.9352 186.842 15.8927C187.215 15.4809 187.426 14.946 187.433 14.3892L187.418 14.3922Z" fill="white"/>
<path d="M185.754 15.1895C185.797 15.2304 185.854 15.2537 185.914 15.2548H185.931C185.999 15.2469 186.062 15.2129 186.106 15.1599C186.3 14.9425 186.405 14.6599 186.401 14.3681C186.406 14.0761 186.301 13.7931 186.106 13.5764C186.086 13.5506 186.062 13.5291 186.033 13.5133C186.005 13.4974 185.974 13.4875 185.942 13.4842C185.91 13.4808 185.877 13.4841 185.847 13.4939C185.816 13.5036 185.787 13.5196 185.763 13.5408C185.737 13.561 185.715 13.5866 185.7 13.6159C185.684 13.6451 185.675 13.6773 185.673 13.7104C185.67 13.7435 185.675 13.7767 185.687 13.8077C185.698 13.8388 185.716 13.8671 185.739 13.8907C185.863 14.0191 185.933 14.1908 185.933 14.3696C185.933 14.5484 185.863 14.7202 185.739 14.8485C185.717 14.8714 185.7 14.8986 185.688 14.9285C185.677 14.9584 185.672 14.9903 185.673 15.0222C185.674 15.0542 185.682 15.0855 185.696 15.1143C185.71 15.1431 185.73 15.1687 185.754 15.1895Z" fill="white"/>
<path d="M183.611 16.4976C183.552 16.4976 183.496 16.521 183.454 16.5627C183.413 16.6044 183.39 16.661 183.39 16.72C183.39 16.7789 183.413 16.8355 183.454 16.8772C183.496 16.9189 183.552 16.9424 183.611 16.9424H184.344C184.403 16.9416 184.459 16.9179 184.5 16.8764C184.542 16.8348 184.565 16.7787 184.566 16.72C184.565 16.6612 184.542 16.6051 184.5 16.5635C184.459 16.522 184.403 16.4983 184.344 16.4976H183.611Z" fill="white"/>
<path d="M185.914 15.4862C185.855 15.487 185.799 15.5107 185.758 15.5522C185.716 15.5938 185.693 15.6499 185.692 15.7086V17.2151C185.692 17.2451 185.687 17.275 185.675 17.3029C185.664 17.3308 185.647 17.3561 185.626 17.3774C185.605 17.3987 185.58 17.4155 185.552 17.4268C185.524 17.4382 185.494 17.4438 185.464 17.4434H182.385C182.324 17.4434 182.266 17.4193 182.224 17.3765C182.181 17.3337 182.157 17.2756 182.157 17.2151V12.0286C182.157 11.9986 182.163 11.9689 182.174 11.9412C182.186 11.9135 182.203 11.8884 182.224 11.8672C182.245 11.846 182.27 11.8291 182.297 11.8177C182.325 11.8062 182.355 11.8003 182.385 11.8003H185.464C185.494 11.7999 185.524 11.8055 185.552 11.8168C185.58 11.8282 185.605 11.845 185.626 11.8663C185.647 11.8875 185.664 11.9129 185.675 11.9408C185.687 11.9686 185.692 11.9985 185.692 12.0286V12.9805C185.693 13.0392 185.716 13.0954 185.758 13.1369C185.799 13.1785 185.855 13.2021 185.914 13.2029C185.972 13.2029 186.029 13.1795 186.07 13.1378C186.112 13.096 186.135 13.0395 186.135 12.9805V12.0286C186.135 11.9402 186.118 11.8527 186.084 11.771C186.051 11.6893 186.001 11.6151 185.939 11.5526C185.876 11.4901 185.803 11.4405 185.721 11.4067C185.64 11.3729 185.552 11.3555 185.464 11.3555H182.385C182.296 11.3555 182.209 11.3729 182.128 11.4067C182.046 11.4405 181.972 11.4901 181.91 11.5526C181.848 11.6151 181.798 11.6893 181.765 11.771C181.731 11.8527 181.714 11.9402 181.714 12.0286V17.2151C181.714 17.3936 181.784 17.5648 181.91 17.691C182.036 17.8173 182.207 17.8882 182.385 17.8882H185.464C185.642 17.8882 185.813 17.8173 185.939 17.691C186.065 17.5648 186.135 17.3936 186.135 17.2151V15.7086C186.135 15.6497 186.112 15.5931 186.07 15.5514C186.029 15.5097 185.972 15.4862 185.914 15.4862Z" fill="white"/>
</g>
<path fill-rule="evenodd" clip-rule="evenodd" d="M192.501 8.15086H128.494V40.9933H192.501V8.15086ZM128.254 7.91113V41.2331H192.741V7.91113H128.254Z" fill="white"/>
<path fill-rule="evenodd" clip-rule="evenodd" d="M327.226 0.719178H0.719178L0.719175 69.2808H327.226V0.719178ZM0.719178 0C0.321987 0 0 0.321988 0 0.71918V69.2808C0 69.678 0.321984 70 0.719175 70H327.226C327.623 70 327.945 69.678 327.945 69.2808V0.719178C327.945 0.321987 327.623 0 327.226 0H0.719178Z" fill="white"/>
<path fill-rule="evenodd" clip-rule="evenodd" d="M22.2943 14.8632H13.4245C13.2921 14.8632 13.1848 14.9706 13.1848 15.1029V24.2125C13.1848 24.3449 13.2921 24.4523 13.4245 24.4523H22.2943C22.4267 24.4523 22.5341 24.3449 22.5341 24.2125V15.1029C22.5341 14.9706 22.4267 14.8632 22.2943 14.8632ZM13.4245 14.144C12.8949 14.144 12.4656 14.5734 12.4656 15.1029V24.2125C12.4656 24.7421 12.8949 25.1714 13.4245 25.1714H22.2943C22.8239 25.1714 23.2532 24.7421 23.2532 24.2125V15.1029C23.2532 14.5734 22.8239 14.144 22.2943 14.144H13.4245Z" fill="white"/>
<path fill-rule="evenodd" clip-rule="evenodd" d="M22.2943 43.6303H13.4245C13.2921 43.6303 13.1848 43.7376 13.1848 43.87V52.9796C13.1848 53.112 13.2921 53.2194 13.4245 53.2194H22.2943C22.4267 53.2194 22.5341 53.112 22.5341 52.9796V43.87C22.5341 43.7376 22.4267 43.6303 22.2943 43.6303ZM13.4245 42.9111C12.8949 42.9111 12.4656 43.3404 12.4656 43.87V52.9796C12.4656 53.5092 12.8949 53.9385 13.4245 53.9385H22.2943C22.8239 53.9385 23.2532 53.5092 23.2532 52.9796V43.87C23.2532 43.3404 22.8239 42.9111 22.2943 42.9111H13.4245Z" fill="white"/>
<path fill-rule="evenodd" clip-rule="evenodd" d="M50.8223 14.8632H41.9524C41.82 14.8632 41.7127 14.9706 41.7127 15.1029V24.2125C41.7127 24.3449 41.82 24.4523 41.9524 24.4523H50.8223C50.9547 24.4523 51.062 24.3449 51.062 24.2125V15.1029C51.062 14.9706 50.9547 14.8632 50.8223 14.8632ZM41.9524 14.144C41.4228 14.144 40.9935 14.5734 40.9935 15.1029V24.2125C40.9935 24.7421 41.4228 25.1714 41.9524 25.1714H50.8223C51.3519 25.1714 51.7812 24.7421 51.7812 24.2125V15.1029C51.7812 14.5734 51.3519 14.144 50.8223 14.144H41.9524Z" fill="white"/>
<path fill-rule="evenodd" clip-rule="evenodd" d="M50.8223 43.6303H41.9524C41.82 43.6303 41.7127 43.7376 41.7127 43.87V52.9796C41.7127 53.112 41.82 53.2194 41.9524 53.2194H50.8223C50.9547 53.2194 51.062 53.112 51.062 52.9796V43.87C51.062 43.7376 50.9547 43.6303 50.8223 43.6303ZM41.9524 42.9111C41.4228 42.9111 40.9935 43.3404 40.9935 43.87V52.9796C40.9935 53.5092 41.4228 53.9385 41.9524 53.9385H50.8223C51.3519 53.9385 51.7812 53.5092 51.7812 52.9796V43.87C51.7812 43.3404 51.3519 42.9111 50.8223 42.9111H41.9524Z" fill="white"/>
<path fill-rule="evenodd" clip-rule="evenodd" d="M79.3483 14.8632H70.4784C70.346 14.8632 70.2387 14.9706 70.2387 15.1029V24.2125C70.2387 24.3449 70.346 24.4523 70.4784 24.4523H79.3483C79.4807 24.4523 79.588 24.3449 79.588 24.2125V15.1029C79.588 14.9706 79.4807 14.8632 79.3483 14.8632ZM70.4784 14.144C69.9488 14.144 69.5195 14.5734 69.5195 15.1029V24.2125C69.5195 24.7421 69.9488 25.1714 70.4784 25.1714H79.3483C79.8779 25.1714 80.3072 24.7421 80.3072 24.2125V15.1029C80.3072 14.5734 79.8779 14.144 79.3483 14.144H70.4784Z" fill="white"/>
<path fill-rule="evenodd" clip-rule="evenodd" d="M79.3483 43.6303H70.4784C70.346 43.6303 70.2387 43.7376 70.2387 43.87V52.9796C70.2387 53.112 70.346 53.2194 70.4784 53.2194H79.3483C79.4807 53.2194 79.588 53.112 79.588 52.9796V43.87C79.588 43.7376 79.4807 43.6303 79.3483 43.6303ZM70.4784 42.9111C69.9488 42.9111 69.5195 43.3404 69.5195 43.87V52.9796C69.5195 53.5092 69.9488 53.9385 70.4784 53.9385H79.3483C79.8779 53.9385 80.3072 53.5092 80.3072 52.9796V43.87C80.3072 43.3404 79.8779 42.9111 79.3483 42.9111H70.4784Z" fill="white"/>
<path fill-rule="evenodd" clip-rule="evenodd" d="M107.637 14.8632H98.7671C98.6347 14.8632 98.5274 14.9706 98.5274 15.1029V24.2125C98.5274 24.3449 98.6347 24.4523 98.7671 24.4523H107.637C107.769 24.4523 107.877 24.3449 107.877 24.2125V15.1029C107.877 14.9706 107.769 14.8632 107.637 14.8632ZM98.7671 14.144C98.2375 14.144 97.8082 14.5734 97.8082 15.1029V24.2125C97.8082 24.7421 98.2375 25.1714 98.7671 25.1714H107.637C108.167 25.1714 108.596 24.7421 108.596 24.2125V15.1029C108.596 14.5734 108.167 14.144 107.637 14.144H98.7671Z" fill="white"/>
<path fill-rule="evenodd" clip-rule="evenodd" d="M107.637 43.6303H98.7671C98.6347 43.6303 98.5274 43.7376 98.5274 43.87V52.9796C98.5274 53.112 98.6347 53.2194 98.7671 53.2194H107.637C107.769 53.2194 107.877 53.112 107.877 52.9796V43.87C107.877 43.7376 107.769 43.6303 107.637 43.6303ZM98.7671 42.9111C98.2375 42.9111 97.8082 43.3404 97.8082 43.87V52.9796C97.8082 53.5092 98.2375 53.9385 98.7671 53.9385H107.637C108.167 53.9385 108.596 53.5092 108.596 52.9796V43.87C108.596 43.3404 108.167 42.9111 107.637 42.9111H98.7671Z" fill="white"/>
<path fill-rule="evenodd" clip-rule="evenodd" d="M222.227 14.8632H213.357C213.225 14.8632 213.118 14.9706 213.118 15.1029V24.2125C213.118 24.3449 213.225 24.4523 213.357 24.4523H222.227C222.36 24.4523 222.467 24.3449 222.467 24.2125V15.1029C222.467 14.9706 222.36 14.8632 222.227 14.8632ZM213.357 14.144C212.828 14.144 212.399 14.5734 212.399 15.1029V24.2125C212.399 24.7421 212.828 25.1714 213.357 25.1714H222.227C222.757 25.1714 223.186 24.7421 223.186 24.2125V15.1029C223.186 14.5734 222.757 14.144 222.227 14.144H213.357Z" fill="white"/>
<path fill-rule="evenodd" clip-rule="evenodd" d="M222.227 43.6303H213.357C213.225 43.6303 213.118 43.7376 213.118 43.87V52.9796C213.118 53.112 213.225 53.2194 213.357 53.2194H222.227C222.36 53.2194 222.467 53.112 222.467 52.9796V43.87C222.467 43.7376 222.36 43.6303 222.227 43.6303ZM213.357 42.9111C212.828 42.9111 212.399 43.3404 212.399 43.87V52.9796C212.399 53.5092 212.828 53.9385 213.357 53.9385H222.227C222.757 53.9385 223.186 53.5092 223.186 52.9796V43.87C223.186 43.3404 222.757 42.9111 222.227 42.9111H213.357Z" fill="white"/>
<path fill-rule="evenodd" clip-rule="evenodd" d="M165.651 53.6987H155.343C155.21 53.6987 155.103 53.806 155.103 53.9384V58.9726C155.103 59.105 155.21 59.2124 155.343 59.2124H165.651C165.783 59.2124 165.891 59.105 165.891 58.9726V53.9384C165.891 53.806 165.783 53.6987 165.651 53.6987ZM155.343 52.9795C154.813 52.9795 154.384 53.4088 154.384 53.9384V58.9726C154.384 59.5022 154.813 59.9315 155.343 59.9315H165.651C166.18 59.9315 166.61 59.5022 166.61 58.9726V53.9384C166.61 53.4088 166.18 52.9795 165.651 52.9795H155.343Z" fill="white"/>
<path fill-rule="evenodd" clip-rule="evenodd" d="M250.753 14.8632H241.883C241.751 14.8632 241.644 14.9706 241.644 15.1029V24.2125C241.644 24.3449 241.751 24.4523 241.883 24.4523H250.753C250.886 24.4523 250.993 24.3449 250.993 24.2125V15.1029C250.993 14.9706 250.886 14.8632 250.753 14.8632ZM241.883 14.144C241.354 14.144 240.925 14.5734 240.925 15.1029V24.2125C240.925 24.7421 241.354 25.1714 241.883 25.1714H250.753C251.283 25.1714 251.712 24.7421 251.712 24.2125V15.1029C251.712 14.5734 251.283 14.144 250.753 14.144H241.883Z" fill="white"/>
<path fill-rule="evenodd" clip-rule="evenodd" d="M250.753 43.6303H241.883C241.751 43.6303 241.644 43.7376 241.644 43.87V52.9796C241.644 53.112 241.751 53.2194 241.883 53.2194H250.753C250.886 53.2194 250.993 53.112 250.993 52.9796V43.87C250.993 43.7376 250.886 43.6303 250.753 43.6303ZM241.883 42.9111C241.354 42.9111 240.925 43.3404 240.925 43.87V52.9796C240.925 53.5092 241.354 53.9385 241.883 53.9385H250.753C251.283 53.9385 251.712 53.5092 251.712 52.9796V43.87C251.712 43.3404 251.283 42.9111 250.753 42.9111H241.883Z" fill="white"/>
<path fill-rule="evenodd" clip-rule="evenodd" d="M279.279 14.8632H270.409C270.277 14.8632 270.17 14.9706 270.17 15.1029V24.2125C270.17 24.3449 270.277 24.4523 270.409 24.4523H279.279C279.412 24.4523 279.519 24.3449 279.519 24.2125V15.1029C279.519 14.9706 279.412 14.8632 279.279 14.8632ZM270.409 14.144C269.88 14.144 269.451 14.5734 269.451 15.1029V24.2125C269.451 24.7421 269.88 25.1714 270.409 25.1714H279.279C279.809 25.1714 280.238 24.7421 280.238 24.2125V15.1029C280.238 14.5734 279.809 14.144 279.279 14.144H270.409Z" fill="white"/>
<defs>
<clipPath id="clip0_402_2774">
<rect width="8.87553" height="10.8384" fill="white" transform="translate(298.938 28.5273)"/>
</clipPath>
<clipPath id="clip1_402_2774">
<rect width="8.09077" height="6.47261" fill="white" transform="translate(169.786 11.5068)"/>
</clipPath>
<clipPath id="clip2_402_2774">
<rect width="5.03425" height="4.0274" fill="white" transform="translate(300.856 44.1099)"/>
</clipPath>
<clipPath id="clip3_402_2774">
<rect width="6.71233" height="6.53569" fill="white" transform="translate(181.714 11.3555)"/>
</clipPath>
</defs>
</svg>
