<svg width="296" height="190" viewBox="0 0 296 190" fill="none" xmlns="http://www.w3.org/2000/svg">
<path d="M67.4284 73.2963L60.4502 76.4397L60 75.4293L67.6535 71.9491H68.6665V109.334H67.541V73.2963H67.4284Z" fill="white"/>
<path d="M103.333 89.5749C103.333 88.5645 103.333 86.8805 103.22 85.0842C102.545 91.0343 97.0296 95.1882 90.9518 95.1882C83.5234 95.1882 78.0083 90.473 78.0083 83.6247V83.5125C78.0083 76.7765 83.6359 71.5 90.8393 71.5C94.8911 71.5 97.9301 73.0717 100.181 75.317C103.107 78.236 104.571 82.7266 104.571 89.5749V89.6871C104.571 101.363 99.1681 110.007 89.9388 110.007C85.9995 110.007 82.0602 108.211 79.1338 105.404L79.9217 104.506C82.7355 107.201 86.3372 108.885 89.9388 108.885C98.4928 108.997 103.333 100.465 103.333 89.5749ZM102.432 83.737C102.432 77.4501 97.2547 72.6227 90.7267 72.6227C84.3112 72.6227 79.1338 77.6746 79.1338 83.5125V83.6247C79.2464 90.0239 84.3112 94.29 91.0644 94.29C97.2547 94.29 102.432 89.5748 102.432 83.737Z" fill="white"/>
<path d="M111.774 82.8389H113.687V85.6455H111.774V82.8389ZM111.774 106.639H113.687V109.446H111.774V106.639Z" fill="white"/>
<path d="M117.739 103.384L118.752 102.598C121.453 106.302 125.843 108.885 131.246 108.885C137.098 108.885 142.051 105.068 142.051 99.791V99.6788C142.051 93.0551 136.423 90.473 128.207 90.473H126.969L126.631 89.6871L141.15 73.184H119.878V72.1736H142.613V73.0717L128.207 89.4626C137.436 89.4626 143.176 92.7183 143.176 99.6788V99.791C143.176 105.741 137.661 110.007 131.133 110.007C125.28 110.007 120.666 107.313 117.739 103.384Z" fill="white"/>
<path d="M149.479 90.8098C149.479 80.5936 154.994 71.5 164.674 71.5C174.353 71.5 179.868 80.4813 179.868 90.6975V90.8098C179.868 100.914 174.353 110.007 164.674 110.007C154.994 110.007 149.479 101.026 149.479 90.8098ZM178.743 90.922C178.743 81.3794 173.678 72.6227 164.674 72.6227C155.67 72.6227 150.717 81.1549 150.717 90.6975V90.8098C150.717 100.24 155.782 108.997 164.786 108.997C173.79 108.997 178.743 100.352 178.743 90.922Z" fill="white"/>
<mask id="path-6-inside-1_439_2583" fill="white">
<path d="M279.883 25.6481H263.549C263.232 25.6481 262.973 25.3889 262.973 25.072C262.973 24.7551 263.232 24.4958 263.549 24.4958H279.883C280.199 24.4958 280.459 24.7551 280.459 25.072C280.459 25.3889 280.199 25.6481 279.883 25.6481Z"/>
</mask>
<path d="M279.883 25.6481H263.549C263.232 25.6481 262.973 25.3889 262.973 25.072C262.973 24.7551 263.232 24.4958 263.549 24.4958H279.883C280.199 24.4958 280.459 24.7551 280.459 25.072C280.459 25.3889 280.199 25.6481 279.883 25.6481Z" fill="#F2A900"/>
<path d="M279.883 22.6481H263.549V28.6481H279.883V22.6481ZM263.549 22.6481C264.889 22.6481 265.973 23.7318 265.973 25.072H259.973C259.973 27.0459 261.576 28.6481 263.549 28.6481V22.6481ZM265.973 25.072C265.973 26.4122 264.889 27.4958 263.549 27.4958V21.4958C261.576 21.4958 259.973 23.098 259.973 25.072H265.973ZM263.549 27.4958H279.883V21.4958H263.549V27.4958ZM279.883 27.4958C278.543 27.4958 277.459 26.4122 277.459 25.072H283.459C283.459 23.098 281.856 21.4958 279.883 21.4958V27.4958ZM277.459 25.072C277.459 23.7318 278.543 22.6481 279.883 22.6481V28.6481C281.856 28.6481 283.459 27.0459 283.459 25.072H277.459Z" fill="#FFB200" mask="url(#path-6-inside-1_439_2583)"/>
<mask id="path-8-inside-2_439_2583" fill="white">
<path d="M279.883 18H263.549C263.232 18 262.973 17.7408 262.973 17.4239C262.973 17.107 263.232 16.8478 263.549 16.8478H279.883C280.199 16.8478 280.459 17.107 280.459 17.4239C280.459 17.7408 280.199 18 279.883 18Z"/>
</mask>
<path d="M279.883 18H263.549C263.232 18 262.973 17.7408 262.973 17.4239C262.973 17.107 263.232 16.8478 263.549 16.8478H279.883C280.199 16.8478 280.459 17.107 280.459 17.4239C280.459 17.7408 280.199 18 279.883 18Z" fill="#F2A900"/>
<path d="M279.883 15H263.549V21H279.883V15ZM263.549 15C264.889 15 265.973 16.0836 265.973 17.4239H259.973C259.973 19.3979 261.576 21 263.549 21V15ZM265.973 17.4239C265.973 18.7641 264.889 19.8478 263.549 19.8478V13.8478C261.576 13.8478 259.973 15.45 259.973 17.4239H265.973ZM263.549 19.8478H279.883V13.8478H263.549V19.8478ZM279.883 19.8478C278.543 19.8478 277.459 18.7641 277.459 17.4239H283.459C283.459 15.45 281.856 13.8478 279.883 13.8478V19.8478ZM277.459 17.4239C277.459 16.0836 278.543 15 279.883 15V21C281.856 21 283.459 19.3979 283.459 17.4239H277.459Z" fill="#FFB200" mask="url(#path-8-inside-2_439_2583)"/>
<mask id="path-10-inside-3_439_2583" fill="white">
<path d="M279.883 34.3333H263.549C263.232 34.3333 262.973 34.074 262.973 33.7572C262.973 33.4403 263.232 33.181 263.549 33.181H279.883C280.199 33.181 280.459 33.4403 280.459 33.7572C280.459 34.074 280.199 34.3333 279.883 34.3333Z"/>
</mask>
<path d="M279.883 34.3333H263.549C263.232 34.3333 262.973 34.074 262.973 33.7572C262.973 33.4403 263.232 33.181 263.549 33.181H279.883C280.199 33.181 280.459 33.4403 280.459 33.7572C280.459 34.074 280.199 34.3333 279.883 34.3333Z" fill="#F2A900"/>
<path d="M279.883 31.3333H263.549V37.3333H279.883V31.3333ZM263.549 31.3333C264.889 31.3333 265.973 32.417 265.973 33.7572H259.973C259.973 35.7311 261.576 37.3333 263.549 37.3333V31.3333ZM265.973 33.7572C265.973 35.0974 264.889 36.181 263.549 36.181V30.181C261.576 30.181 259.973 31.7832 259.973 33.7572H265.973ZM263.549 36.181H279.883V30.181H263.549V36.181ZM279.883 36.181C278.543 36.181 277.459 35.0974 277.459 33.7572H283.459C283.459 31.7832 281.856 30.181 279.883 30.181V36.181ZM277.459 33.7572C277.459 32.417 278.543 31.3333 279.883 31.3333V37.3333C281.856 37.3333 283.459 35.7311 283.459 33.7572H277.459Z" fill="#FFB200" mask="url(#path-10-inside-3_439_2583)"/>
<g opacity="0.5">
<path d="M275.936 170.32H269.743C269.339 170.32 269.023 169.997 269.023 169.585C269.023 169.174 269.339 168.85 269.743 168.85H275.936C278.413 168.85 280.43 166.793 280.43 164.265C280.43 161.737 278.413 159.679 275.936 159.679H258.09C257.687 159.679 257.37 159.356 257.37 158.944C257.37 158.533 257.687 158.209 258.09 158.209H275.936C279.206 158.209 281.87 160.928 281.87 164.265C281.87 167.601 279.206 170.32 275.936 170.32Z" fill="white"/>
<path d="M266.07 164.809C265.94 164.809 265.825 164.779 265.71 164.706L257.097 159.591C256.881 159.459 256.737 159.224 256.737 158.959C256.737 158.695 256.866 158.46 257.097 158.327L265.71 153.213C266.056 153.007 266.488 153.124 266.689 153.477C266.891 153.83 266.776 154.271 266.43 154.477L258.883 158.959L266.43 163.442C266.776 163.648 266.891 164.103 266.689 164.441C266.56 164.676 266.315 164.809 266.07 164.809Z" fill="white"/>
</g>
<rect x="1.5" y="5" width="234.776" height="176" rx="1.5" stroke="white" stroke-width="3"/>
</svg>
