<svg width="269" height="139" viewBox="0 0 269 139" fill="none" xmlns="http://www.w3.org/2000/svg">
<path d="M207.132 66.6846L203.109 69.4904V91.686L206.858 94.785H208.001V67.5221L207.132 66.6846Z" fill="white"/>
<path d="M207.132 125.273L203.109 122.509V100.272L206.858 97.2148H208.001V124.478L207.132 125.273Z" fill="white"/>
<path d="M54.1735 95.9997L51.4307 93.7383H28.3445L25.6016 95.9997L28.3445 98.2193H51.4307L54.1735 95.9997Z" fill="white"/>
<path d="M52.9033 63H26.8915L22 67.5229H26.8915H31.6916H51.3491L55.0063 64.9264L52.9033 63Z" fill="white"/>
<path d="M52.9035 129H26.8916L22 124.477H51.349L55.0062 127.032L52.9035 129Z" fill="white"/>
<path d="M22 69.9507V94.7846H23.1429L26.8915 91.6856L26.9372 69.9507H22Z" fill="white"/>
<path d="M22 122.049V97.2148H23.1429L26.8915 100.314L26.9372 122.049H22Z" fill="white"/>
<path d="M56.9136 66.6846L52.8906 69.4904V91.686L56.685 94.785H57.7822V67.5221L56.9136 66.6846Z" fill="white"/>
<path d="M56.9136 125.273L52.8906 122.509V100.272L56.685 97.2148H57.7822V124.478L56.9136 125.273Z" fill="white"/>
<path d="M99.4782 95.9997L96.6896 93.7383H73.6492L70.9062 95.9997L73.6492 98.2193H96.6896L99.4782 95.9997Z" fill="white"/>
<path d="M98.1574 63.0415H72.1455L67.2539 67.5225H96.6032L100.306 64.9679L98.1574 63.0415Z" fill="white"/>
<path d="M98.1574 128.958H72.1911L67.2539 124.477H72.1911H76.9912H96.603L100.306 127.032L98.1574 128.958Z" fill="white"/>
<path d="M67.2539 69.9507V94.7846H68.3968L72.1912 91.6856V69.9507H67.2539Z" fill="white"/>
<path d="M67.2539 122.049V97.2148H68.3968L72.1912 100.314V122.049H67.2539Z" fill="white"/>
<path d="M102.183 66.6846L98.1602 69.4904V91.686L101.954 94.785H103.097V67.5221L102.183 66.6846Z" fill="white"/>
<path d="M102.183 125.273L98.1602 122.509V100.272L101.954 97.2148H103.097V124.478L102.183 125.273Z" fill="white"/>
<path d="M159.134 95.9997L156.392 93.7383H133.305L130.562 95.9997L133.305 98.2193H156.392L159.134 95.9997Z" fill="white"/>
<path d="M157.814 63H131.847L126.91 67.5229H131.847H136.647H156.259L159.962 64.9264L157.814 63Z" fill="white"/>
<path d="M157.814 129H131.847L126.91 124.477H156.259L159.962 127.032L157.814 129Z" fill="white"/>
<path d="M126.949 69.9507V94.7846H128.046L131.841 91.6856V69.9507H126.949Z" fill="white"/>
<path d="M126.949 122.049V97.2148H128.046L131.841 100.314V122.049H126.949Z" fill="white"/>
<path d="M161.824 66.6846L157.801 69.4904V91.686L161.595 94.785H162.738V67.5221L161.824 66.6846Z" fill="white"/>
<path d="M161.824 125.273L157.801 122.509V100.272L161.595 97.2148H162.738V124.478L161.824 125.273Z" fill="white"/>
<path d="M204.404 95.9997L201.661 93.7383H178.575L175.832 95.9997L178.575 98.2193H201.661L204.404 95.9997Z" fill="white"/>
<path d="M203.118 63.0415H177.106C175.186 64.7585 172.215 67.5225 172.215 67.5225H201.518L205.221 64.9679L203.118 63.0415Z" fill="white"/>
<path d="M203.118 128.958H177.106L172.215 124.477H177.152H181.906H201.564L205.221 127.032L203.118 128.958Z" fill="white"/>
<path d="M172.215 69.9507V94.7846H173.312L177.106 91.6856L177.152 69.9507H172.215Z" fill="white"/>
<path d="M172.215 122.049V97.2148H173.312L177.106 100.314L177.152 122.049H172.215Z" fill="white"/>
<path d="M117.454 82.2212H112.562V90.4294H117.454V82.2212Z" fill="white"/>
<path d="M117.454 101.527H112.562V109.777H117.454V101.527Z" fill="white"/>
<g clip-path="url(#clip0_402_2922)">
<path d="M206.462 21.8849C202.026 17.4898 196.047 15.0174 189.811 15H189.081C188.53 15 187.967 15 187.39 15.1156C183.381 15.539 179.55 16.9996 176.273 19.3544C175.491 19.9068 174.761 20.5362 174.057 21.1399L173.762 21.3968C173.536 21.5746 173.381 21.8277 173.324 22.1104C173.268 22.3931 173.314 22.6867 173.455 22.9382C173.589 23.1898 173.803 23.3895 174.062 23.5058C174.322 23.622 174.613 23.6483 174.889 23.5804C175.161 23.4483 175.404 23.2651 175.607 23.0409C177.881 20.9824 180.575 19.4442 183.501 18.5326C186.426 17.6211 189.515 17.358 192.552 17.7617C196.133 18.2069 199.535 19.589 202.415 21.7693C203.004 22.206 203.567 22.707 204.105 23.1951L204.771 23.7859C205.042 24.0228 205.386 24.1589 205.745 24.1713C205.851 24.1897 205.959 24.1897 206.065 24.1713C206.259 24.1188 206.437 24.0184 206.582 23.8793C206.728 23.7402 206.836 23.5668 206.897 23.3749C206.983 23.1115 206.987 22.8282 206.91 22.5623C206.832 22.2964 206.676 22.0603 206.462 21.8849Z" fill="#F2A900"/>
<path d="M190.401 21.949C186.967 21.7884 183.574 22.7483 180.73 24.6849C179.993 25.1985 179.287 25.7561 178.617 26.3548L178.399 26.5474C178.257 26.6561 178.139 26.7934 178.053 26.9504C177.967 27.1075 177.915 27.2809 177.9 27.4594C177.892 27.628 177.917 27.7964 177.974 27.9551C178.031 28.1138 178.119 28.2596 178.233 28.3843C178.347 28.5118 178.485 28.6151 178.64 28.6882C178.794 28.7612 178.962 28.8026 179.132 28.8098C179.303 28.8169 179.473 28.7898 179.633 28.73C179.793 28.6701 179.94 28.5788 180.064 28.4613L180.346 28.2044C182.701 25.9522 185.781 24.6175 189.03 24.4409C192.618 24.2826 196.142 25.4273 198.957 27.6649C199.213 27.8705 199.456 28.1145 199.699 28.3457C199.943 28.5769 200.02 28.6669 200.186 28.8081C200.442 29.0547 200.78 29.1968 201.134 29.2063C201.223 29.2188 201.314 29.2188 201.403 29.2063C201.609 29.1544 201.798 29.0522 201.955 28.9087C202.111 28.7652 202.23 28.585 202.3 28.3843C202.39 28.1273 202.396 27.8482 202.318 27.5872C202.24 27.3263 202.081 27.0971 201.864 26.9328C198.826 23.8524 194.719 22.067 190.401 21.949Z" fill="#F2A900"/>
<path d="M186.968 28.8338C185.368 29.2721 183.911 30.1223 182.741 31.3001C182.506 31.5402 182.375 31.863 182.375 32.1992C182.375 32.5354 182.506 32.8582 182.741 33.0983C182.98 33.3337 183.302 33.4655 183.637 33.4655C183.973 33.4655 184.295 33.3337 184.534 33.0983C184.595 33.0583 184.651 33.0109 184.701 32.9571L184.803 32.8543C186.081 31.6818 187.734 31.0034 189.465 30.9404C190.569 30.8756 191.673 31.0548 192.7 31.4654C193.727 31.8761 194.652 32.5081 195.408 33.3167C195.579 33.4653 195.769 33.5905 195.972 33.6892L196.202 33.8048L196.305 33.869H196.42C196.672 33.8367 196.91 33.7375 197.111 33.5816C197.311 33.4258 197.466 33.219 197.56 32.9827C197.668 32.7371 197.692 32.4623 197.627 32.2017C197.562 31.9412 197.412 31.7098 197.202 31.5441C195.914 30.1852 194.275 29.2121 192.468 28.7335C190.661 28.2549 188.756 28.2896 186.968 28.8338Z" fill="#F2A900"/>
<path d="M190.016 35.8857C189.631 35.8891 189.263 36.0449 188.992 36.3191C188.721 36.5934 188.569 36.9639 188.569 37.3501V40.5228C188.572 40.9067 188.726 41.2739 188.996 41.5454C189.267 41.8169 189.633 41.9709 190.016 41.9742C190.4 41.9742 190.768 41.8213 191.04 41.5491C191.311 41.2769 191.464 40.9077 191.464 40.5228V37.3501C191.465 37.1584 191.429 36.9682 191.357 36.7907C191.285 36.6131 191.179 36.4515 191.044 36.3154C190.91 36.1793 190.749 36.0712 190.573 35.9974C190.397 35.9237 190.207 35.8857 190.016 35.8857Z" fill="#F2A900"/>
</g>
<g clip-path="url(#clip1_402_2922)">
<path d="M249.484 20.4666C248.879 19.2631 248.102 18.1546 247.178 17.1762C247.041 17.0168 246.862 16.8996 246.661 16.8383C246.46 16.777 246.246 16.774 246.044 16.8298C245.877 16.8819 245.728 16.9804 245.614 17.114C245.501 17.2475 245.427 17.4107 245.403 17.5844C245.391 17.7747 245.419 17.9654 245.485 18.1443C245.55 18.3232 245.653 18.4864 245.785 18.6235C247.415 20.4242 248.48 22.6673 248.846 25.0721C249.212 27.4769 248.864 29.9367 247.844 32.1437C247.299 33.2927 246.584 34.3521 245.723 35.2857C245.593 35.4076 245.493 35.5582 245.431 35.7257C245.369 35.8932 245.346 36.0729 245.366 36.2505C245.393 36.4031 245.456 36.5469 245.551 36.6696C245.645 36.7923 245.768 36.8904 245.908 36.9556C246.048 37.0439 246.211 37.0911 246.377 37.0917C246.545 37.0768 246.708 37.0274 246.857 36.9466C247.005 36.8657 247.136 36.7551 247.24 36.6216C249.628 34.0488 250.973 30.6743 251.012 27.1587C251.025 24.8394 250.502 22.5487 249.484 20.4666Z" fill="white"/>
<path d="M246.796 27.035C246.84 25.4833 246.487 23.9461 245.772 22.5695C245.342 21.8323 244.855 21.1293 244.317 20.4666L244.194 20.3058C244.12 20.203 244.024 20.1177 243.913 20.0557C243.802 19.9938 243.679 19.9567 243.553 19.9471C243.412 19.9368 243.27 19.9556 243.137 20.0024C243.003 20.0492 242.88 20.123 242.776 20.2192C242.579 20.3951 242.459 20.6422 242.443 20.9064C242.427 21.1706 242.516 21.4305 242.69 21.6294L242.887 21.852C244.053 23.1642 244.726 24.8429 244.792 26.5994C244.857 28.3558 244.31 30.0802 243.245 31.4758C243.161 31.5885 243.071 31.6959 242.974 31.7974L242.616 32.2427C242.477 32.4228 242.408 32.6476 242.421 32.8752C242.435 33.1027 242.53 33.3175 242.69 33.4797C242.78 33.5893 242.893 33.6781 243.021 33.74C243.149 33.8019 243.288 33.8355 243.43 33.8384C243.579 33.8366 243.726 33.8029 243.861 33.7395C244.062 33.6219 244.241 33.4713 244.391 33.2941C245.95 31.5764 246.827 29.3453 246.857 27.0226L246.796 27.035Z" fill="white"/>
<path d="M239.854 30.3622C240.035 30.5327 240.272 30.6297 240.52 30.6344H240.594C240.878 30.6015 241.139 30.4597 241.321 30.2385C242.131 29.3319 242.571 28.153 242.554 26.9358C242.576 25.7178 242.135 24.5371 241.321 23.633C241.24 23.5255 241.137 23.4359 241.02 23.3698C240.902 23.3036 240.772 23.2623 240.638 23.2484C240.504 23.2345 240.369 23.2483 240.24 23.2889C240.112 23.3295 239.993 23.3961 239.891 23.4846C239.782 23.5691 239.692 23.6758 239.627 23.7978C239.562 23.9198 239.524 24.0542 239.514 24.1922C239.505 24.3301 239.525 24.4685 239.573 24.5982C239.621 24.7278 239.696 24.8458 239.793 24.9442C240.31 25.4797 240.599 26.1962 240.599 26.942C240.599 27.6878 240.31 28.4043 239.793 28.9397C239.7 29.0352 239.627 29.1488 239.58 29.2734C239.533 29.398 239.511 29.5311 239.517 29.6643C239.523 29.7976 239.556 29.9283 239.614 30.0483C239.672 30.1683 239.753 30.2752 239.854 30.3622Z" fill="white"/>
<path d="M230.915 35.8174C230.67 35.8174 230.435 35.9151 230.262 36.0891C230.088 36.2631 229.991 36.4991 229.991 36.7451C229.991 36.9912 230.088 37.2271 230.262 37.4011C230.435 37.5751 230.67 37.6729 230.915 37.6729H233.973C234.217 37.6697 234.451 37.5709 234.623 37.3976C234.796 37.2243 234.895 36.9902 234.898 36.7451C234.895 36.5001 234.796 36.266 234.623 36.0927C234.451 35.9194 234.217 35.8206 233.973 35.8174H230.915Z" fill="white"/>
<path d="M240.52 31.5994C240.276 31.6026 240.042 31.7013 239.87 31.8746C239.697 32.0479 239.599 32.2821 239.595 32.5271V38.811C239.597 38.9365 239.574 39.0611 239.526 39.1774C239.479 39.2938 239.409 39.3994 239.321 39.4882C239.232 39.577 239.127 39.6471 239.011 39.6944C238.895 39.7416 238.771 39.7651 238.646 39.7635H225.799C225.547 39.7635 225.306 39.6631 225.127 39.4845C224.949 39.3059 224.849 39.0636 224.849 38.811V17.1761C224.849 17.051 224.874 16.9272 224.922 16.8116C224.969 16.6961 225.039 16.5911 225.127 16.5026C225.216 16.4142 225.32 16.344 225.435 16.2961C225.551 16.2483 225.674 16.2236 225.799 16.2236H238.646C238.771 16.222 238.895 16.2455 239.011 16.2928C239.127 16.34 239.232 16.4101 239.321 16.4989C239.409 16.5877 239.479 16.6934 239.526 16.8097C239.574 16.926 239.597 17.0506 239.595 17.1761V21.1468C239.599 21.3919 239.697 21.626 239.87 21.7993C240.042 21.9726 240.276 22.0714 240.52 22.0746C240.765 22.0746 241 21.9768 241.174 21.8029C241.347 21.6289 241.445 21.3929 241.445 21.1468V17.1761C241.445 16.8074 241.372 16.4422 241.232 16.1016C241.091 15.7609 240.885 15.4513 240.625 15.1906C240.365 14.9299 240.057 14.723 239.717 14.5819C239.377 14.4408 239.014 14.3682 238.646 14.3682H225.799C225.431 14.3682 225.067 14.4408 224.728 14.5819C224.388 14.723 224.08 14.9299 223.82 15.1906C223.56 15.4513 223.354 15.7609 223.213 16.1016C223.072 16.4422 223 16.8074 223 17.1761V38.811C223 39.5557 223.295 40.2699 223.82 40.7965C224.345 41.3231 225.056 41.6189 225.799 41.6189H238.646C239.388 41.6189 240.1 41.3231 240.625 40.7965C241.15 40.2699 241.445 39.5557 241.445 38.811V32.5271C241.445 32.2811 241.347 32.0451 241.174 31.8711C241 31.6971 240.765 31.5994 240.52 31.5994Z" fill="white"/>
</g>
<path fill-rule="evenodd" clip-rule="evenodd" d="M268 1H1V138H268V1ZM0 0V139H269V0H0Z" fill="white"/>
<defs>
<clipPath id="clip0_402_2922">
<rect width="33.7501" height="27" fill="white" transform="translate(173.25 15)"/>
</clipPath>
<clipPath id="clip1_402_2922">
<rect width="28" height="27.2632" fill="white" transform="translate(223 14.3682)"/>
</clipPath>
</defs>
</svg>
