<svg width="322" height="155" viewBox="0 0 322 155" fill="none" xmlns="http://www.w3.org/2000/svg">
    <rect x="33" y="49" width="256" height="56" rx="2" stroke="white" stroke-width="2"/>
    <rect x="120.5" y="58.5" width="81" height="37" rx="1.5" stroke="white"/>
    <rect x="128.25" y="65.25" width="65.5" height="13.5" rx="0.75" stroke="white" stroke-width="0.5"/>
    <path fill-rule="evenodd" clip-rule="evenodd" d="M237 78C237 83.5229 232.523 88 227 88C221.477 88 217 83.5229 217 78C217 72.4771 221.477 68 227 68C232.523 68 237 72.4771 237 78Z" stroke="white"/>
    <path fill-rule="evenodd" clip-rule="evenodd" d="M231 69.8089V86.2168C229.824 87.0039 228.453 87.4385 227 87.4385C225.547 87.4385 224.176 87.0039 223 86.2168V69.8089C224.176 69.0219 225.547 68.4385 227 68.4385C228.453 68.4385 229.824 69.0219 231 69.8089Z" stroke="white"/>
    <g opacity="0.199242">
        <path fill-rule="evenodd" clip-rule="evenodd" d="M273 78C273 83.5229 268.523 88 263 88C257.477 88 253 83.5229 253 78C253 72.4771 257.477 68 263 68C268.523 68 273 72.4771 273 78Z" stroke="white"/>
        <path fill-rule="evenodd" clip-rule="evenodd" d="M267 69.8089V86.2168C265.824 87.0039 264.453 87.4385 263 87.4385C261.547 87.4385 260.176 87.0039 259 86.2168V69.8089C260.176 69.0219 261.547 68.4385 263 68.4385C264.453 68.4385 265.824 69.0219 267 69.8089Z" stroke="white"/>
    </g>
    <path fill-rule="evenodd" clip-rule="evenodd" d="M104 78C104 83.5229 99.5231 88 94.0003 88C88.4769 88 84 83.5229 84 78C84 72.4771 88.4769 68 94.0003 68C99.5231 68 104 72.4771 104 78Z" stroke="white"/>
    <path fill-rule="evenodd" clip-rule="evenodd" d="M98 69.8089V86.2168C96.8235 87.0039 95.4533 87.4385 94 87.4385C92.5467 87.4385 91.1765 87.0039 90 86.2168V69.8089C91.1765 69.0219 92.5467 68.4385 94 68.4385C95.4533 68.4385 96.8235 69.0219 98 69.8089Z" stroke="white"/>
    <g opacity="0.199242">
        <path fill-rule="evenodd" clip-rule="evenodd" d="M68 79C68 84.5229 63.5231 89 58.0003 89C52.4769 89 48 84.5229 48 79C48 73.4771 52.4769 69 58.0003 69C63.5231 69 68 73.4771 68 79Z" stroke="white"/>
        <path fill-rule="evenodd" clip-rule="evenodd" d="M62 70.8089V87.2168C60.8235 88.0039 59.4533 88.4385 58 88.4385C56.5467 88.4385 55.1765 88.0039 54 87.2168V70.8089C55.1765 70.0219 56.5467 69.4385 58 69.4385C59.4533 69.4385 60.8235 70.0219 62 70.8089Z" stroke="white"/>
    </g>
</svg>
