<svg width="74" height="63" viewBox="0 0 74 63" fill="none" xmlns="http://www.w3.org/2000/svg">
    <path d="M6.83985 3.72961H17.9138C18.4263 3.72961 18.9149 3.52483 19.3419 3.24156C20.7754 2.29068 23.8762 1 28.603 1C33.0296 1 35.6963 2.13193 36.9642 3.05668C37.4698 3.42541 38.0566 3.72961 38.6823 3.72961H44.4348C44.711 3.72961 44.9348 3.95347 44.9348 4.22961V7.84764C44.9348 8.39993 45.3826 8.84764 45.9348 8.84764H63.2937C64.2588 8.84764 65.0862 9.53681 65.2607 10.486L72.2335 48.4096C72.2786 48.6554 72.0899 48.882 71.84 48.882H65.909C64.9556 48.882 64.1362 48.2156 63.9482 47.281C61.7842 36.5234 57.8673 17.5855 57.4837 16.6953C56.9646 15.4908 55.8351 15.4821 55.2984 15.4442H50.5731C49.3523 15.4442 48.5445 16.7133 49.032 17.8326C51.4529 23.3916 56.1969 37.4487 56.4652 59.9593C56.4784 61.0638 55.5817 61.9614 54.4771 61.9614H3C1.89543 61.9614 0.999084 61.0607 1.00837 59.9562C1.21506 35.3695 5.20055 23.1492 7.44071 17.8326C7.66627 17.2973 9.1659 13.397 9.39593 12.6009C9.55031 12.0665 7.50284 8.07934 5.95648 5.21952C5.59382 4.54884 6.07739 3.72961 6.83985 3.72961Z" stroke="white" stroke-width="2"/>
    <path d="M49.969 18.9886L6.99621 18.9886" stroke="white"/>
    <path d="M1 54H56" stroke="white"/>
</svg>
