<svg width="72" height="91" viewBox="0 0 72 91" fill="none" xmlns="http://www.w3.org/2000/svg">
    <path d="M58.351 73.0305C59.7304 73.0305 61.6683 72.932 63.1388 72.421C64.6092 71.91 65.9715 71.0046 67.1297 69.7685C68.2878 68.5324 69.2136 66.9957 69.8417 65.2668C70.4698 63.538 70.7851 61.659 70.7651 59.7624C70.7452 57.8657 70.3906 55.9976 69.7263 54.2897C69.0621 52.5818 68.1043 51.0757 66.9206 49.8776C65.7369 48.6795 64.356 47.8185 62.8754 47.3553C61.3947 46.8922 60.3512 46.9628 58.9717 46.9628" stroke="white" stroke-width="2" stroke-linecap="round" stroke-linejoin="round"/>
    <path d="M1.07075 41.7317C1.05125 41.1662 1.50436 40.6972 2.07015 40.6972H57.5221C58.0879 40.6972 58.541 41.1662 58.5215 41.7317L57.4395 73.1118C57.1238 82.2671 49.6104 89.5259 40.4496 89.5259H19.1427C9.9819 89.5259 2.46852 82.2672 2.15282 73.1118L1.07075 41.7317Z" stroke="white" stroke-width="2" stroke-linejoin="round"/>
    <path d="M1.99323 72.8936H56.8119" stroke="white" stroke-width="1.3"/>
    <path d="M22.0737 15.1055L22.0737 15.1056C21.4438 16.2514 21.0822 17.5677 21.0822 18.9728C21.0822 23.415 24.7055 27.0264 29.1931 27.0264C33.6757 27.0264 37.2994 23.4153 37.2994 18.9728C37.2994 17.5657 36.9416 16.2511 36.3076 15.1092L36.3074 15.1089C36.2981 15.0922 36.2893 15.0752 36.281 15.058C36.2775 15.0517 36.2735 15.0444 36.2691 15.0363C36.2572 15.0151 36.2442 14.9925 36.2281 14.9646C36.2144 14.9409 36.1982 14.9129 36.1815 14.8834C36.1742 14.8715 36.1679 14.8609 36.1628 14.8522C36.153 14.8353 36.1441 14.8195 36.1399 14.8119L36.1393 14.8108L36.1357 14.8044C36.1291 14.7937 36.1226 14.7828 36.1163 14.7719C35.6599 13.9749 34.4095 11.8316 32.6291 8.88156L32.629 8.88133C31.3208 6.7123 30.1182 4.32379 29.3138 2.64395C29.31 2.63618 29.3089 2.63555 29.3048 2.63326L29.3044 2.63298C29.2949 2.62767 29.2721 2.61911 29.2385 2.61968C29.2049 2.62026 29.18 2.62968 29.1673 2.63734C29.1591 2.6423 29.1556 2.6458 29.151 2.65598C28.3639 4.39439 27.134 6.88109 25.6425 9.1034L22.0737 15.1055ZM22.0737 15.1055C22.0922 15.0719 22.1087 15.0373 22.1232 15.002M22.0737 15.1055L22.1232 15.002M22.1232 15.002C22.2981 14.642 23.3514 12.5191 25.6424 9.10363L22.1232 15.002ZM22.1986 14.6195C22.1986 14.6209 22.1986 14.624 22.1985 14.6284C22.1985 14.6253 22.1986 14.6223 22.1986 14.6192V14.6195Z" stroke="white" stroke-width="2" stroke-linejoin="round"/>
    <path d="M24.8637 19.1259C24.8637 19.1259 24.8637 22.2484 28.6889 22.9511" stroke="white" stroke-width="1.2" stroke-linecap="round" stroke-linejoin="round"/>
</svg>
