<?xml version="1.0" encoding="UTF-8"?>
<svg xmlns="http://www.w3.org/2000/svg" xmlns:xlink="http://www.w3.org/1999/xlink" width="150px" height="150px" viewBox="0 0 75 75" version="1.1">
<g id="surface1">
<path style=" stroke:none;fill-rule:evenodd;fill:rgb(100%,100%,100%);fill-opacity:1;" d="M 21.320312 7.5 L 21.320312 18.265625 L 23.820312 18.265625 L 23.820312 7.5 Z M 11.804688 25.625 C 11.117188 25.625 10.554688 26.183594 10.554688 26.875 L 10.554688 49.488281 C 10.554688 54.335938 14.484375 58.265625 19.332031 58.265625 L 47.335938 58.265625 C 52.183594 58.265625 56.109375 54.335938 56.109375 49.488281 L 56.109375 47.808594 L 56.5 47.808594 C 62.625 47.808594 67.59375 42.84375 67.59375 36.714844 C 67.59375 30.589844 62.625 25.625 56.5 25.625 Z M 56.5 45.308594 L 56.109375 45.308594 L 56.109375 28.125 L 56.5 28.125 C 61.246094 28.125 65.09375 31.972656 65.09375 36.714844 C 65.09375 41.460938 61.246094 45.308594 56.5 45.308594 Z M 13.054688 49.488281 L 13.054688 28.125 L 53.609375 28.125 L 53.609375 49.488281 C 53.609375 52.953125 50.800781 55.765625 47.335938 55.765625 L 19.332031 55.765625 C 15.863281 55.765625 13.054688 52.953125 13.054688 49.488281 Z M 7.5 66.875 L 59.167969 66.875 L 59.167969 64.375 L 7.5 64.375 Z M 32.082031 18.265625 L 32.082031 7.5 L 34.582031 7.5 L 34.582031 18.265625 Z M 42.847656 7.5 L 42.847656 18.265625 L 45.347656 18.265625 L 45.347656 7.5 Z M 42.847656 7.5 "/>
</g>
</svg>
