<svg width="64" height="61" viewBox="0 0 64 61" fill="none" xmlns="http://www.w3.org/2000/svg">
    <path d="M1.25836 0.62088L4.68841 55.6281C4.81988 57.7365 6.56818 59.3791 8.68065 59.3791H55.1875C57.3005 59.3791 59.049 57.7357 59.1798 55.6268L62.5925 0.62088" stroke="white" stroke-width="2"/>
    <rect width="8.88152" height="17.9631" rx="2" transform="matrix(0.998217 0.0596959 -0.0746852 0.997207 47.7335 37.6791)" stroke="white" stroke-width="2"/>
    <path d="M53.1934 40.8975L50.7228 40.7256C50.4473 40.7065 50.2084 40.9142 50.1893 41.1897L50.0174 43.6603" stroke="white" stroke-width="1.5" stroke-linecap="round"/>
    <rect width="8.88152" height="13.5023" rx="2" transform="matrix(0.581712 -0.813395 0.804564 0.593866 42.6479 26.8003)" stroke="white" stroke-width="2"/>
    <path d="M48.2654 23.9302L46.8365 25.8876C46.6737 26.1107 46.7225 26.4235 46.9455 26.5863L48.903 28.0152" stroke="white" stroke-width="1.5" stroke-linecap="round"/>
    <rect width="8.88152" height="17.8445" rx="2" transform="matrix(0.450453 -0.8928 0.885933 0.463814 21.832 30.4515)" stroke="white" stroke-width="2"/>
    <path d="M26.9542 26.6937L25.8049 28.9175C25.6781 29.1628 25.7742 29.4644 26.0195 29.5912L28.2433 30.7405" stroke="white" stroke-width="1.5" stroke-linecap="round"/>
    <rect width="8.88152" height="17.9631" rx="2" transform="matrix(0.910475 -0.413565 0.39984 0.916585 4.83862 22.8181)" stroke="white" stroke-width="2"/>
    <path d="M11.2032 23.0823L8.88583 24.1079C8.63331 24.2196 8.5192 24.5149 8.63095 24.7674L9.65649 27.0848" stroke="white" stroke-width="1.5" stroke-linecap="round"/>
    <rect width="8.88152" height="11.5424" rx="2" transform="matrix(0.979672 0.200608 -0.215303 0.976547 7.8606 3.25027)" stroke="white" stroke-width="2"/>
    <path d="M12.8383 7.20697L10.3806 6.67873C10.1107 6.62071 9.84477 6.79253 9.78674 7.0625L9.2585 9.52018" stroke="white" stroke-width="1.5" stroke-linecap="round"/>
    <rect width="8.88152" height="13.056" rx="2" transform="matrix(0.980262 0.197705 -0.212409 0.977181 20.8553 5.97818)" stroke="white" stroke-width="2"/>
    <path d="M25.7576 9.92996L23.4069 9.43199C23.1367 9.37476 22.8713 9.54737 22.8141 9.81751L22.3161 12.1683" stroke="white" stroke-width="1.5" stroke-linecap="round"/>
    <rect width="8.88152" height="13.056" rx="2" transform="matrix(0.935533 -0.353239 0.339145 0.940734 46.335 7.31177)" stroke="white" stroke-width="2"/>
    <path d="M52.7369 7.93655L50.2539 8.84657C49.9947 8.94159 49.8615 9.22881 49.9565 9.48809L50.8666 11.9711" stroke="white" stroke-width="1.5" stroke-linecap="round"/>
    <rect width="8.88152" height="17.3087" rx="2" transform="matrix(0.988848 0.148931 -0.16377 0.986499 34.8785 4.58603)" stroke="white" stroke-width="2"/>
    <path d="M40.2381 8.2464L37.5268 7.81102C37.2542 7.76724 36.9976 7.95277 36.9539 8.22542L36.5185 10.9367" stroke="white" stroke-width="1.5" stroke-linecap="round"/>
    <rect width="8.88152" height="17.9631" rx="2" transform="matrix(0.994395 -0.105731 0.0907803 0.995871 19.4922 37.9079)" stroke="white" stroke-width="2"/>
    <path d="M25.573 40.1086L22.8807 40.3684C22.6058 40.3949 22.4045 40.6392 22.431 40.9141L22.6908 43.6064" stroke="white" stroke-width="1.5" stroke-linecap="round"/>
    <rect width="8.88152" height="13.4813" rx="2" transform="matrix(0.965225 -0.261421 0.246891 0.969043 31.9988 42.7709)" stroke="white" stroke-width="2"/>
    <path d="M38.3748 43.9682L35.7222 44.659C35.455 44.7286 35.2948 45.0017 35.3644 45.2689L36.0551 47.9215" stroke="white" stroke-width="1.5" stroke-linecap="round"/>
    <rect width="8.88152" height="12.8958" rx="2" transform="matrix(0.965225 -0.261421 0.246891 0.969043 6.74072 43.4751)" stroke="white" stroke-width="2"/>
    <path d="M13.1202 44.6702L10.4625 45.3623C10.1952 45.4319 10.035 45.7049 10.1046 45.9722L10.7967 48.63" stroke="white" stroke-width="1.5" stroke-linecap="round"/>
</svg>
