<svg width="90" height="90" viewBox="0 0 90 90" fill="none" xmlns="http://www.w3.org/2000/svg">
<path d="M18.5042 78.75L22.5312 30.3039C22.6313 29.0992 21.6805 28.0661 20.4716 28.0661H19.3672C18.2258 28.0661 17.3006 27.1408 17.3006 25.9994V13.4698C17.3006 12.3284 18.2258 11.4031 19.3672 11.4031H48.0047C48.787 11.4031 49.5022 10.9614 49.8525 10.262L49.9131 10.1411C50.2634 9.44168 50.9786 9 51.7609 9H66.8184C67.8158 9 68.6709 9.71235 68.8511 10.6933L69.4474 13.9398C69.6191 14.8749 70.4342 15.554 71.3849 15.554V15.554C72.4729 15.554 73.3549 16.4359 73.3549 17.5239V21.9714C73.3549 23.034 72.4935 23.8954 71.4309 23.8954V23.8954C70.4655 23.8954 69.6495 24.6108 69.5234 25.568L68.7768 31.2345C68.6414 32.2626 67.7649 33.0312 66.7279 33.0312H52.1101C51.1563 33.0312 50.3264 32.3784 50.1017 31.4514L49.6639 29.6458C49.4392 28.7188 48.6093 28.0661 47.6554 28.0661H38.0245C36.8831 28.0661 35.9579 28.9913 35.9579 30.1327V78.75M79.893 78.75H8.98047" stroke="white" stroke-width="2.06667" stroke-linejoin="round"/>
<path d="M36 50.625H57.1931C57.6841 50.625 58.158 50.8057 58.5245 51.1325L63 55.125" stroke="white" stroke-width="2" stroke-linejoin="round"/>
<path d="M42.75 51.5172V44.75C42.75 43.6454 43.6454 42.75 44.75 42.75H74.5C75.6046 42.75 76.5 43.6454 76.5 44.75V58.75C76.5 64.8251 71.5751 69.75 65.5 69.75H53.75C47.6749 69.75 42.75 64.8251 42.75 58.75V57.3435" stroke="white" stroke-width="2" stroke-linejoin="round"/>
</svg>
