<svg width="72" height="59" viewBox="0 0 72 59" fill="none" xmlns="http://www.w3.org/2000/svg">
    <path d="M68 55V54C67.4477 54 67 54.4477 67 55H68ZM58 55H59C59 54.4477 58.5523 54 58 54V55ZM14 55V54C13.4477 54 13 54.4477 13 55H14ZM4 55H5C5 54.4477 4.55228 54 4 54V55ZM3 0C1.34315 0 0 1.34314 0 3H2C2 2.44771 2.44771 2 3 2V0ZM69 0H3V2H69V0ZM72 3C72 1.34315 70.6569 0 69 0V2C69.5523 2 70 2.44772 70 3H72ZM72 53V3H70V53H72ZM69 56C70.6569 56 72 54.6569 72 53H70C70 53.5523 69.5523 54 69 54V56ZM68 56H69V54H68V56ZM67 55V56H69V55H67ZM67 56C67 56.5523 66.5523 57 66 57V59C67.6569 59 69 57.6569 69 56H67ZM66 57H60V59H66V57ZM60 57C59.4477 57 59 56.5523 59 56H57C57 57.6569 58.3431 59 60 59V57ZM59 56V55H57V56H59ZM14 56H58V54H14V56ZM15 56V55H13V56H15ZM12 59C13.6569 59 15 57.6569 15 56H13C13 56.5523 12.5523 57 12 57V59ZM6 59H12V57H6V59ZM3 56C3 57.6569 4.34315 59 6 59V57C5.44772 57 5 56.5523 5 56H3ZM3 55V56H5V55H3ZM3 56H4V54H3V56ZM0 53C0 54.6569 1.34315 56 3 56V54C2.44772 54 2 53.5523 2 53H0ZM0 3V53H2V3H0Z" fill="white"/>
    <rect x="8" y="24" width="56" height="24" rx="2" stroke="white" stroke-width="2"/>
    <rect x="28" y="7" width="16" height="6" fill="white" stroke="white" stroke-width="2" stroke-linecap="square" stroke-linejoin="round"/>
    <circle cx="9" cy="10" r="2" fill="white"/>
    <circle cx="17" cy="10" r="2" fill="white"/>
    <circle cx="52.3711" cy="10" r="3" fill="white"/>
    <circle cx="61.6289" cy="10" r="3" fill="white"/>
    <path d="M7 19L65 19" stroke="white" stroke-width="2"/>
</svg>
