<svg width="375" height="232" viewBox="0 0 375 232" fill="none" xmlns="http://www.w3.org/2000/svg">
<path d="M186.167 97.292L182.999 110H180.479L177.797 100.172L175.115 110H172.595L169.427 97.292H171.677L173.873 107.624L176.663 97.292H178.931L181.721 107.624L183.917 97.292H186.167ZM187.717 97.202C187.717 96.854 187.837 96.566 188.077 96.338C188.317 96.11 188.635 95.996 189.031 95.996C189.427 95.996 189.745 96.11 189.985 96.338C190.237 96.566 190.363 96.854 190.363 97.202C190.363 97.55 190.237 97.832 189.985 98.048C189.745 98.264 189.427 98.372 189.031 98.372C188.635 98.372 188.317 98.264 188.077 98.048C187.837 97.832 187.717 97.55 187.717 97.202ZM190.057 100.082V110H188.005V100.082H190.057ZM200.046 97.292V98.948H194.592V102.89H199.092V104.474H194.592V110H192.54V97.292H200.046ZM201.586 97.202C201.586 96.854 201.706 96.566 201.946 96.338C202.186 96.11 202.504 95.996 202.9 95.996C203.296 95.996 203.614 96.11 203.854 96.338C204.106 96.566 204.232 96.854 204.232 97.202C204.232 97.55 204.106 97.832 203.854 98.048C203.614 98.264 203.296 98.372 202.9 98.372C202.504 98.372 202.186 98.264 201.946 98.048C201.706 97.832 201.586 97.55 201.586 97.202ZM203.926 100.082V110H201.874V100.082H203.926ZM154.906 117.166C156.466 117.166 157.762 117.562 158.794 118.354C159.826 119.146 160.522 120.22 160.882 121.576H158.704C158.404 120.808 157.924 120.202 157.264 119.758C156.616 119.302 155.818 119.074 154.87 119.074C154.114 119.074 153.436 119.26 152.836 119.632C152.248 120.004 151.78 120.538 151.432 121.234C151.096 121.918 150.928 122.722 150.928 123.646C150.928 124.558 151.096 125.362 151.432 126.058C151.78 126.742 152.248 127.27 152.836 127.642C153.436 128.014 154.114 128.2 154.87 128.2C155.818 128.2 156.616 127.978 157.264 127.534C157.924 127.078 158.404 126.472 158.704 125.716H160.882C160.522 127.072 159.826 128.146 158.794 128.938C157.762 129.718 156.466 130.108 154.906 130.108C153.706 130.108 152.644 129.838 151.72 129.298C150.796 128.746 150.082 127.984 149.578 127.012C149.074 126.028 148.822 124.906 148.822 123.646C148.822 122.386 149.074 121.27 149.578 120.298C150.082 119.314 150.796 118.546 151.72 117.994C152.644 117.442 153.706 117.166 154.906 117.166ZM167.466 119.956C168.426 119.956 169.29 120.16 170.058 120.568C170.826 120.976 171.426 121.564 171.857 122.332C172.29 123.1 172.506 124 172.506 125.032C172.506 126.076 172.29 126.982 171.857 127.75C171.426 128.518 170.826 129.106 170.058 129.514C169.29 129.922 168.426 130.126 167.466 130.126C166.506 130.126 165.642 129.922 164.874 129.514C164.118 129.106 163.518 128.518 163.074 127.75C162.642 126.97 162.426 126.064 162.426 125.032C162.426 124 162.642 123.1 163.074 122.332C163.518 121.564 164.118 120.976 164.874 120.568C165.642 120.16 166.506 119.956 167.466 119.956ZM167.466 121.738C166.938 121.738 166.452 121.858 166.008 122.098C165.564 122.338 165.204 122.71 164.928 123.214C164.664 123.706 164.532 124.312 164.532 125.032C164.532 125.764 164.664 126.376 164.928 126.868C165.204 127.36 165.564 127.726 166.008 127.966C166.452 128.206 166.938 128.326 167.466 128.326C167.994 128.326 168.48 128.206 168.924 127.966C169.368 127.726 169.722 127.36 169.986 126.868C170.262 126.376 170.4 125.764 170.4 125.032C170.4 124.312 170.262 123.706 169.986 123.214C169.722 122.71 169.368 122.338 168.924 122.098C168.48 121.858 167.994 121.738 167.466 121.738ZM180.022 119.92C181.174 119.92 182.098 120.292 182.794 121.036C183.49 121.78 183.838 122.842 183.838 124.222V130H181.786V124.438C181.786 123.55 181.558 122.866 181.102 122.386C180.646 121.894 180.022 121.648 179.23 121.648C178.414 121.648 177.76 121.912 177.268 122.44C176.776 122.956 176.53 123.718 176.53 124.726V130H174.478V120.082H176.53V122.26C176.794 121.516 177.238 120.94 177.862 120.532C178.486 120.124 179.206 119.92 180.022 119.92ZM191.782 119.92C192.934 119.92 193.858 120.292 194.554 121.036C195.25 121.78 195.598 122.842 195.598 124.222V130H193.546V124.438C193.546 123.55 193.318 122.866 192.862 122.386C192.406 121.894 191.782 121.648 190.99 121.648C190.174 121.648 189.52 121.912 189.028 122.44C188.536 122.956 188.29 123.718 188.29 124.726V130H186.238V120.082H188.29V122.26C188.554 121.516 188.998 120.94 189.622 120.532C190.246 120.124 190.966 119.92 191.782 119.92ZM207.214 124.564C207.214 124.9 207.19 125.194 207.142 125.446H199.51C199.546 126.466 199.828 127.222 200.356 127.714C200.884 128.206 201.538 128.452 202.318 128.452C203.002 128.452 203.578 128.278 204.046 127.93C204.526 127.582 204.82 127.12 204.928 126.544H207.124C206.992 127.24 206.716 127.858 206.296 128.398C205.876 128.938 205.33 129.364 204.658 129.676C203.986 129.976 203.236 130.126 202.408 130.126C201.448 130.126 200.596 129.922 199.852 129.514C199.12 129.106 198.544 128.518 198.124 127.75C197.704 126.982 197.494 126.076 197.494 125.032C197.494 124 197.704 123.1 198.124 122.332C198.544 121.564 199.12 120.976 199.852 120.568C200.596 120.16 201.448 119.956 202.408 119.956C203.38 119.956 204.226 120.16 204.946 120.568C205.678 120.964 206.236 121.516 206.62 122.224C207.016 122.92 207.214 123.7 207.214 124.564ZM205.144 124.51C205.168 123.862 205.054 123.322 204.802 122.89C204.562 122.446 204.226 122.122 203.794 121.918C203.374 121.702 202.912 121.594 202.408 121.594C201.604 121.594 200.932 121.84 200.392 122.332C199.852 122.824 199.558 123.55 199.51 124.51H205.144ZM213.605 119.956C214.889 119.956 215.951 120.298 216.791 120.982C217.631 121.654 218.153 122.572 218.357 123.736H216.179C216.059 123.112 215.765 122.626 215.297 122.278C214.841 121.918 214.265 121.738 213.569 121.738C212.777 121.738 212.117 122.02 211.589 122.584C211.061 123.136 210.797 123.952 210.797 125.032C210.797 126.112 211.061 126.934 211.589 127.498C212.117 128.062 212.777 128.344 213.569 128.344C214.265 128.344 214.841 128.164 215.297 127.804C215.765 127.444 216.059 126.952 216.179 126.328H218.357C218.153 127.492 217.631 128.416 216.791 129.1C215.951 129.784 214.889 130.126 213.605 130.126C212.645 130.126 211.793 129.922 211.049 129.514C210.317 129.106 209.741 128.518 209.321 127.75C208.901 126.982 208.691 126.076 208.691 125.032C208.691 124 208.901 123.1 209.321 122.332C209.741 121.564 210.317 120.976 211.049 120.568C211.793 120.16 212.645 119.956 213.605 119.956ZM225.326 128.218V130H224.066C223.01 130 222.206 129.748 221.654 129.244C221.114 128.728 220.844 127.876 220.844 126.688V121.828H219.422V120.082H220.844V117.616H222.914V120.082H225.308V121.828H222.914V126.724C222.914 127.288 223.016 127.678 223.22 127.894C223.436 128.11 223.808 128.218 224.336 128.218H225.326Z" fill="white"/>
<path d="M163.048 143.54V152H161.944V148.088H157.648V152H156.556V143.54H157.648V147.2H161.944V143.54H163.048ZM167.782 145.328C168.414 145.328 168.978 145.464 169.474 145.736C169.978 146.008 170.37 146.4 170.65 146.912C170.938 147.424 171.082 148.024 171.082 148.712C171.082 149.4 170.938 150 170.65 150.512C170.37 151.016 169.978 151.404 169.474 151.676C168.978 151.948 168.414 152.084 167.782 152.084C167.15 152.084 166.582 151.948 166.078 151.676C165.582 151.404 165.19 151.016 164.902 150.512C164.614 150 164.47 149.4 164.47 148.712C164.47 148.024 164.614 147.424 164.902 146.912C165.19 146.4 165.582 146.008 166.078 145.736C166.582 145.464 167.15 145.328 167.782 145.328ZM167.782 146.288C167.39 146.288 167.026 146.376 166.69 146.552C166.362 146.728 166.094 147 165.886 147.368C165.686 147.728 165.586 148.176 165.586 148.712C165.586 149.24 165.686 149.688 165.886 150.056C166.094 150.416 166.362 150.684 166.69 150.86C167.026 151.036 167.39 151.124 167.782 151.124C168.174 151.124 168.534 151.036 168.862 150.86C169.198 150.684 169.466 150.416 169.666 150.056C169.874 149.688 169.978 149.24 169.978 148.712C169.978 148.176 169.874 147.728 169.666 147.368C169.466 147 169.198 146.728 168.862 146.552C168.534 146.376 168.174 146.288 167.782 146.288ZM173.597 143.12V152H172.505V143.12H173.597ZM178.053 145.328C178.693 145.328 179.233 145.488 179.673 145.808C180.121 146.128 180.433 146.556 180.609 147.092V143.12H181.701V152H180.609V150.32C180.433 150.856 180.121 151.284 179.673 151.604C179.233 151.924 178.693 152.084 178.053 152.084C177.469 152.084 176.949 151.948 176.493 151.676C176.037 151.404 175.677 151.016 175.413 150.512C175.157 150 175.029 149.4 175.029 148.712C175.029 148.024 175.157 147.424 175.413 146.912C175.677 146.4 176.037 146.008 176.493 145.736C176.949 145.464 177.469 145.328 178.053 145.328ZM178.365 146.3C177.693 146.3 177.153 146.516 176.745 146.948C176.345 147.372 176.145 147.96 176.145 148.712C176.145 149.464 176.345 150.056 176.745 150.488C177.153 150.912 177.693 151.124 178.365 151.124C178.797 151.124 179.181 151.024 179.517 150.824C179.861 150.624 180.129 150.344 180.321 149.984C180.513 149.616 180.609 149.192 180.609 148.712C180.609 148.232 180.513 147.808 180.321 147.44C180.129 147.072 179.861 146.792 179.517 146.6C179.181 146.4 178.797 146.3 178.365 146.3ZM189.115 143.312C189.659 143.312 190.127 143.408 190.519 143.6C190.911 143.792 191.207 144.056 191.407 144.392C191.607 144.728 191.707 145.108 191.707 145.532C191.707 146.06 191.551 146.504 191.239 146.864C190.935 147.224 190.487 147.44 189.895 147.512V147.584C190.511 147.744 190.991 147.992 191.335 148.328C191.687 148.664 191.863 149.128 191.863 149.72C191.863 150.416 191.631 150.984 191.167 151.424C190.703 151.864 190.035 152.084 189.163 152.084C188.291 152.084 187.583 151.86 187.039 151.412C186.503 150.956 186.187 150.292 186.091 149.42H187.171C187.243 149.948 187.443 150.368 187.771 150.68C188.107 150.992 188.559 151.148 189.127 151.148C189.663 151.148 190.075 151.012 190.363 150.74C190.651 150.46 190.795 150.1 190.795 149.66C190.795 149.132 190.587 148.732 190.171 148.46C189.763 148.18 189.179 148.04 188.419 148.04H188.131V147.128H188.419C189.891 147.128 190.627 146.636 190.627 145.652C190.627 145.22 190.491 144.876 190.219 144.62C189.947 144.364 189.571 144.236 189.091 144.236C188.611 144.236 188.207 144.376 187.879 144.656C187.551 144.928 187.359 145.332 187.303 145.868H186.235C186.291 145.068 186.567 144.444 187.063 143.996C187.567 143.54 188.251 143.312 189.115 143.312ZM201.787 149.804C201.787 150.204 201.691 150.576 201.499 150.92C201.307 151.264 201.015 151.544 200.623 151.76C200.231 151.976 199.747 152.084 199.171 152.084C198.611 152.084 198.111 151.984 197.671 151.784C197.239 151.576 196.891 151.296 196.627 150.944C196.371 150.584 196.223 150.176 196.183 149.72H197.347C197.371 149.96 197.451 150.196 197.587 150.428C197.731 150.652 197.931 150.84 198.187 150.992C198.451 151.136 198.767 151.208 199.135 151.208C199.615 151.208 199.983 151.08 200.239 150.824C200.495 150.568 200.623 150.24 200.623 149.84C200.623 149.496 200.531 149.216 200.347 149C200.171 148.784 199.951 148.616 199.687 148.496C199.423 148.368 199.063 148.232 198.607 148.088C198.071 147.912 197.639 147.748 197.311 147.596C196.991 147.436 196.715 147.2 196.483 146.888C196.259 146.576 196.147 146.164 196.147 145.652C196.147 145.212 196.251 144.824 196.459 144.488C196.675 144.152 196.979 143.892 197.371 143.708C197.771 143.524 198.239 143.432 198.775 143.432C199.607 143.432 200.267 143.636 200.755 144.044C201.243 144.444 201.527 144.956 201.607 145.58H200.431C200.367 145.244 200.195 144.948 199.915 144.692C199.635 144.436 199.255 144.308 198.775 144.308C198.335 144.308 197.983 144.424 197.719 144.656C197.455 144.88 197.323 145.2 197.323 145.616C197.323 145.944 197.407 146.212 197.575 146.42C197.751 146.62 197.967 146.78 198.223 146.9C198.479 147.012 198.831 147.14 199.279 147.284C199.823 147.46 200.259 147.628 200.587 147.788C200.923 147.948 201.207 148.192 201.439 148.52C201.671 148.84 201.787 149.268 201.787 149.804ZM209.315 148.34C209.315 148.572 209.299 148.772 209.267 148.94H203.999C204.023 149.692 204.235 150.256 204.635 150.632C205.043 151.008 205.539 151.196 206.123 151.196C206.651 151.196 207.091 151.064 207.443 150.8C207.803 150.528 208.023 150.168 208.103 149.72H209.267C209.187 150.176 209.007 150.584 208.727 150.944C208.455 151.304 208.099 151.584 207.659 151.784C207.219 151.984 206.723 152.084 206.171 152.084C205.539 152.084 204.979 151.948 204.491 151.676C204.003 151.404 203.619 151.016 203.339 150.512C203.067 150 202.931 149.4 202.931 148.712C202.931 148.024 203.067 147.424 203.339 146.912C203.619 146.4 204.003 146.008 204.491 145.736C204.979 145.464 205.539 145.328 206.171 145.328C206.811 145.328 207.367 145.464 207.839 145.736C208.319 146.008 208.683 146.372 208.931 146.828C209.187 147.284 209.315 147.788 209.315 148.34ZM208.211 148.412C208.235 147.924 208.155 147.516 207.971 147.188C207.787 146.86 207.535 146.616 207.215 146.456C206.895 146.296 206.547 146.216 206.171 146.216C205.571 146.216 205.067 146.404 204.659 146.78C204.251 147.148 204.031 147.692 203.999 148.412H208.211ZM213.659 145.328C214.499 145.328 215.195 145.552 215.747 146C216.299 146.448 216.639 147.048 216.767 147.8H215.615C215.535 147.328 215.315 146.96 214.955 146.696C214.603 146.424 214.163 146.288 213.635 146.288C213.251 146.288 212.899 146.376 212.579 146.552C212.267 146.728 212.015 147 211.823 147.368C211.631 147.728 211.535 148.176 211.535 148.712C211.535 149.248 211.631 149.7 211.823 150.068C212.015 150.428 212.267 150.696 212.579 150.872C212.899 151.048 213.251 151.136 213.635 151.136C214.163 151.136 214.603 151 214.955 150.728C215.315 150.456 215.535 150.084 215.615 149.612H216.767C216.639 150.372 216.299 150.976 215.747 151.424C215.195 151.864 214.499 152.084 213.659 152.084C213.027 152.084 212.467 151.948 211.979 151.676C211.491 151.404 211.107 151.016 210.827 150.512C210.555 150 210.419 149.4 210.419 148.712C210.419 148.024 210.555 147.424 210.827 146.912C211.107 146.4 211.491 146.008 211.979 145.736C212.467 145.464 213.027 145.328 213.659 145.328Z" fill="white"/>
<rect x="151.5" y="138.5" width="71" height="1" stroke="white"/>
<g opacity="0.25">
<rect x="151.5" y="50.5" width="71" height="1" stroke="white"/>
<rect x="151.5" y="4.5" width="71" height="39" rx="3.5" stroke="white"/>
</g>
<g opacity="0.25">
<rect x="264.5" y="138.5" width="71" height="1" stroke="white"/>
<rect x="264.5" y="92.5" width="71" height="39" rx="3.5" stroke="white"/>
</g>
<g opacity="0.25">
<rect x="38.5" y="138.5" width="71" height="1" stroke="white"/>
<rect x="38.5" y="92.5" width="71" height="39" rx="3.5" stroke="white"/>
</g>
<g opacity="0.25">
<rect x="151.5" y="226.5" width="71" height="1" stroke="white"/>
<rect x="151.5" y="180.5" width="71" height="39" rx="3.5" stroke="white"/>
</g>
</svg>
