<svg width="375" height="232" viewBox="0 0 375 232" fill="none" xmlns="http://www.w3.org/2000/svg">
<rect x="17" y="57" width="341" height="117" rx="5" stroke="white" stroke-width="2"/>
<path d="M108.196 109.712V113H106.828V104.528H109.708C110.684 104.528 111.416 104.76 111.904 105.224C112.4 105.688 112.648 106.324 112.648 107.132C112.648 107.932 112.396 108.564 111.892 109.028C111.388 109.484 110.66 109.712 109.708 109.712H108.196ZM109.564 108.596C110.692 108.596 111.256 108.108 111.256 107.132C111.256 106.652 111.12 106.288 110.848 106.04C110.584 105.784 110.156 105.656 109.564 105.656H108.196V108.596H109.564ZM116.74 106.304C117.34 106.304 117.852 106.452 118.276 106.748C118.7 107.044 119 107.436 119.176 107.924V106.388H120.544V113H119.176V111.464C119 111.952 118.7 112.344 118.276 112.64C117.852 112.936 117.34 113.084 116.74 113.084C116.164 113.084 115.648 112.948 115.192 112.676C114.744 112.404 114.392 112.012 114.136 111.5C113.88 110.988 113.752 110.384 113.752 109.688C113.752 109 113.88 108.4 114.136 107.888C114.392 107.376 114.744 106.984 115.192 106.712C115.648 106.44 116.164 106.304 116.74 106.304ZM117.16 107.504C116.552 107.504 116.064 107.7 115.696 108.092C115.336 108.476 115.156 109.008 115.156 109.688C115.156 110.368 115.336 110.904 115.696 111.296C116.064 111.68 116.552 111.872 117.16 111.872C117.544 111.872 117.888 111.784 118.192 111.608C118.496 111.424 118.736 111.168 118.912 110.84C119.088 110.512 119.176 110.128 119.176 109.688C119.176 109.256 119.088 108.876 118.912 108.548C118.736 108.212 118.496 107.956 118.192 107.78C117.888 107.596 117.544 107.504 117.16 107.504ZM124.597 106.304C125.373 106.304 125.993 106.504 126.457 106.904C126.929 107.296 127.217 107.824 127.321 108.488H126.025C125.969 108.128 125.813 107.84 125.557 107.624C125.309 107.4 124.977 107.288 124.561 107.288C124.217 107.288 123.949 107.372 123.757 107.54C123.573 107.7 123.481 107.92 123.481 108.2C123.481 108.408 123.549 108.576 123.685 108.704C123.821 108.832 123.989 108.932 124.189 109.004C124.397 109.076 124.689 109.156 125.065 109.244C125.561 109.356 125.961 109.472 126.265 109.592C126.577 109.712 126.841 109.904 127.057 110.168C127.281 110.424 127.393 110.776 127.393 111.224C127.393 111.776 127.181 112.224 126.757 112.568C126.341 112.912 125.777 113.084 125.065 113.084C124.241 113.084 123.573 112.892 123.061 112.508C122.557 112.124 122.253 111.588 122.149 110.9H123.481C123.521 111.26 123.681 111.552 123.961 111.776C124.241 112 124.609 112.112 125.065 112.112C125.393 112.112 125.649 112.028 125.833 111.86C126.025 111.684 126.121 111.464 126.121 111.2C126.121 110.968 126.049 110.784 125.905 110.648C125.761 110.512 125.581 110.408 125.365 110.336C125.149 110.256 124.853 110.176 124.477 110.096C123.997 109.984 123.605 109.872 123.301 109.76C123.005 109.648 122.749 109.468 122.533 109.22C122.325 108.964 122.221 108.62 122.221 108.188C122.221 107.628 122.429 107.176 122.845 106.832C123.269 106.48 123.853 106.304 124.597 106.304ZM131.177 106.304C131.953 106.304 132.573 106.504 133.037 106.904C133.509 107.296 133.797 107.824 133.901 108.488H132.605C132.549 108.128 132.393 107.84 132.137 107.624C131.889 107.4 131.557 107.288 131.141 107.288C130.797 107.288 130.529 107.372 130.337 107.54C130.153 107.7 130.061 107.92 130.061 108.2C130.061 108.408 130.129 108.576 130.265 108.704C130.401 108.832 130.569 108.932 130.769 109.004C130.977 109.076 131.269 109.156 131.645 109.244C132.141 109.356 132.541 109.472 132.845 109.592C133.157 109.712 133.421 109.904 133.637 110.168C133.861 110.424 133.973 110.776 133.973 111.224C133.973 111.776 133.761 112.224 133.337 112.568C132.921 112.912 132.357 113.084 131.645 113.084C130.821 113.084 130.153 112.892 129.641 112.508C129.137 112.124 128.833 111.588 128.729 110.9H130.061C130.101 111.26 130.261 111.552 130.541 111.776C130.821 112 131.189 112.112 131.645 112.112C131.973 112.112 132.229 112.028 132.413 111.86C132.605 111.684 132.701 111.464 132.701 111.2C132.701 110.968 132.629 110.784 132.485 110.648C132.341 110.512 132.161 110.408 131.945 110.336C131.729 110.256 131.433 110.176 131.057 110.096C130.577 109.984 130.185 109.872 129.881 109.76C129.585 109.648 129.329 109.468 129.113 109.22C128.905 108.964 128.801 108.62 128.801 108.188C128.801 107.628 129.009 107.176 129.425 106.832C129.849 106.48 130.433 106.304 131.177 106.304ZM144.849 106.388L143.013 113H141.501L139.869 107.888L138.213 113H136.713L134.877 106.388H136.257L137.517 111.74L139.173 106.388H140.613L142.293 111.74L143.553 106.388H144.849ZM149.044 106.304C149.684 106.304 150.26 106.44 150.772 106.712C151.284 106.984 151.684 107.376 151.972 107.888C152.26 108.4 152.404 109 152.404 109.688C152.404 110.384 152.26 110.988 151.972 111.5C151.684 112.012 151.284 112.404 150.772 112.676C150.26 112.948 149.684 113.084 149.044 113.084C148.404 113.084 147.828 112.948 147.316 112.676C146.812 112.404 146.412 112.012 146.116 111.5C145.828 110.98 145.684 110.376 145.684 109.688C145.684 109 145.828 108.4 146.116 107.888C146.412 107.376 146.812 106.984 147.316 106.712C147.828 106.44 148.404 106.304 149.044 106.304ZM149.044 107.492C148.692 107.492 148.368 107.572 148.072 107.732C147.776 107.892 147.536 108.14 147.352 108.476C147.176 108.804 147.088 109.208 147.088 109.688C147.088 110.176 147.176 110.584 147.352 110.912C147.536 111.24 147.776 111.484 148.072 111.644C148.368 111.804 148.692 111.884 149.044 111.884C149.396 111.884 149.72 111.804 150.016 111.644C150.312 111.484 150.548 111.24 150.724 110.912C150.908 110.584 151 110.176 151 109.688C151 109.208 150.908 108.804 150.724 108.476C150.548 108.14 150.312 107.892 150.016 107.732C149.72 107.572 149.396 107.492 149.044 107.492ZM155.327 107.684C155.551 107.252 155.871 106.912 156.287 106.664C156.703 106.408 157.183 106.28 157.727 106.28V107.768H157.319C156.719 107.768 156.235 107.916 155.867 108.212C155.507 108.5 155.327 108.98 155.327 109.652V113H153.959V106.388H155.327V107.684ZM161.644 106.304C162.244 106.304 162.756 106.452 163.18 106.748C163.604 107.044 163.9 107.436 164.068 107.924V104.12H165.448V113H164.068V111.464C163.9 111.952 163.604 112.344 163.18 112.64C162.756 112.936 162.244 113.084 161.644 113.084C161.068 113.084 160.552 112.948 160.096 112.676C159.648 112.404 159.296 112.012 159.04 111.5C158.784 110.988 158.656 110.384 158.656 109.688C158.656 109 158.784 108.4 159.04 107.888C159.296 107.376 159.648 106.984 160.096 106.712C160.552 106.44 161.068 106.304 161.644 106.304ZM162.064 107.504C161.456 107.504 160.968 107.7 160.6 108.092C160.24 108.476 160.06 109.008 160.06 109.688C160.06 110.368 160.24 110.904 160.6 111.296C160.968 111.68 161.456 111.872 162.064 111.872C162.448 111.872 162.792 111.784 163.096 111.608C163.4 111.424 163.64 111.168 163.816 110.84C163.992 110.512 164.08 110.128 164.08 109.688C164.08 109.256 163.992 108.876 163.816 108.548C163.64 108.212 163.4 107.956 163.096 107.78C162.792 107.596 162.448 107.504 162.064 107.504ZM168.602 106.4V107.912H167.054V106.4H168.602ZM168.602 111.488V113H167.054V111.488H168.602ZM178.048 113L176.02 109.868L174.208 113H172.636L175.264 108.68L172.576 104.528H174.208L176.2 107.6L178 104.528H179.572L176.956 108.776L179.68 113H178.048ZM185.777 113L183.749 109.868L181.937 113H180.365L182.993 108.68L180.305 104.528H181.937L183.929 107.6L185.729 104.528H187.301L184.685 108.776L187.409 113H185.777ZM193.505 113L191.477 109.868L189.665 113H188.093L190.721 108.68L188.033 104.528H189.665L191.657 107.6L193.457 104.528H195.029L192.413 108.776L195.137 113H193.505ZM201.233 113L199.205 109.868L197.393 113H195.821L198.449 108.68L195.761 104.528H197.393L199.385 107.6L201.185 104.528H202.757L200.141 108.776L202.865 113H201.233ZM208.962 113L206.934 109.868L205.122 113H203.55L206.178 108.68L203.49 104.528H205.122L207.114 107.6L208.914 104.528H210.486L207.87 108.776L210.594 113H208.962ZM216.69 113L214.662 109.868L212.85 113H211.278L213.906 108.68L211.218 104.528H212.85L214.842 107.6L216.642 104.528H218.214L215.598 108.776L218.322 113H216.69ZM224.418 113L222.39 109.868L220.578 113H219.006L221.634 108.68L218.946 104.528H220.578L222.57 107.6L224.37 104.528H225.942L223.326 108.776L226.05 113H224.418ZM232.146 113L230.118 109.868L228.306 113H226.734L229.362 108.68L226.674 104.528H228.306L230.298 107.6L232.098 104.528H233.67L231.054 108.776L233.778 113H232.146Z" fill="white"/>
<path opacity="0.25" d="M113.68 86H112.312L108.196 79.748V86H106.828V77.54H108.196L112.312 83.816V77.54H113.68V86ZM121.72 82.376C121.72 82.6 121.704 82.796 121.672 82.964H116.584C116.608 83.644 116.796 84.148 117.148 84.476C117.5 84.804 117.936 84.968 118.456 84.968C118.912 84.968 119.296 84.852 119.608 84.62C119.928 84.388 120.124 84.08 120.196 83.696H121.66C121.572 84.16 121.388 84.572 121.108 84.932C120.828 85.292 120.464 85.576 120.016 85.784C119.568 85.984 119.068 86.084 118.516 86.084C117.876 86.084 117.308 85.948 116.812 85.676C116.324 85.404 115.94 85.012 115.66 84.5C115.38 83.988 115.24 83.384 115.24 82.688C115.24 82 115.38 81.4 115.66 80.888C115.94 80.376 116.324 79.984 116.812 79.712C117.308 79.44 117.876 79.304 118.516 79.304C119.164 79.304 119.728 79.44 120.208 79.712C120.696 79.976 121.068 80.344 121.324 80.816C121.588 81.28 121.72 81.8 121.72 82.376ZM120.34 82.34C120.356 81.908 120.28 81.548 120.112 81.26C119.952 80.964 119.728 80.748 119.44 80.612C119.16 80.468 118.852 80.396 118.516 80.396C117.98 80.396 117.532 80.56 117.172 80.888C116.812 81.216 116.616 81.7 116.584 82.34H120.34ZM126.605 84.812V86H125.765C125.061 86 124.525 85.832 124.157 85.496C123.797 85.152 123.617 84.584 123.617 83.792V80.552H122.669V79.388H123.617V77.744H124.997V79.388H126.593V80.552H124.997V83.816C124.997 84.192 125.065 84.452 125.201 84.596C125.345 84.74 125.593 84.812 125.945 84.812H126.605ZM137.39 79.388L135.554 86H134.042L132.41 80.888L130.754 86H129.254L127.418 79.388H128.798L130.058 84.74L131.714 79.388H133.154L134.834 84.74L136.094 79.388H137.39ZM141.585 79.304C142.225 79.304 142.801 79.44 143.313 79.712C143.825 79.984 144.225 80.376 144.513 80.888C144.801 81.4 144.945 82 144.945 82.688C144.945 83.384 144.801 83.988 144.513 84.5C144.225 85.012 143.825 85.404 143.313 85.676C142.801 85.948 142.225 86.084 141.585 86.084C140.945 86.084 140.369 85.948 139.857 85.676C139.353 85.404 138.953 85.012 138.657 84.5C138.369 83.98 138.225 83.376 138.225 82.688C138.225 82 138.369 81.4 138.657 80.888C138.953 80.376 139.353 79.984 139.857 79.712C140.369 79.44 140.945 79.304 141.585 79.304ZM141.585 80.492C141.233 80.492 140.909 80.572 140.613 80.732C140.317 80.892 140.077 81.14 139.893 81.476C139.717 81.804 139.629 82.208 139.629 82.688C139.629 83.176 139.717 83.584 139.893 83.912C140.077 84.24 140.317 84.484 140.613 84.644C140.909 84.804 141.233 84.884 141.585 84.884C141.937 84.884 142.261 84.804 142.557 84.644C142.853 84.484 143.089 84.24 143.265 83.912C143.449 83.584 143.541 83.176 143.541 82.688C143.541 82.208 143.449 81.804 143.265 81.476C143.089 81.14 142.853 80.892 142.557 80.732C142.261 80.572 141.937 80.492 141.585 80.492ZM147.869 80.684C148.093 80.252 148.413 79.912 148.829 79.664C149.245 79.408 149.725 79.28 150.269 79.28V80.768H149.861C149.261 80.768 148.777 80.916 148.409 81.212C148.049 81.5 147.869 81.98 147.869 82.652V86H146.501V79.388H147.869V80.684ZM155.278 86L152.902 83.06V86H151.534V77.12H152.902V82.208L155.254 79.388H156.898L154.018 82.676L156.97 86H155.278ZM162.426 79.4V80.912H160.878V79.4H162.426ZM162.426 84.488V86H160.878V84.488H162.426ZM170.913 77.456C171.921 77.456 172.761 77.704 173.433 78.2C174.105 78.696 174.549 79.372 174.765 80.228H173.325C173.141 79.772 172.837 79.408 172.413 79.136C171.997 78.864 171.501 78.728 170.925 78.728C170.397 78.728 169.921 78.852 169.497 79.1C169.081 79.348 168.753 79.7 168.513 80.156C168.281 80.612 168.165 81.148 168.165 81.764C168.165 82.412 168.285 82.968 168.525 83.432C168.765 83.896 169.101 84.252 169.533 84.5C169.973 84.74 170.481 84.86 171.057 84.86C171.761 84.86 172.365 84.644 172.869 84.212C173.373 83.772 173.677 83.172 173.781 82.412H170.673V81.404H174.933V82.712C174.837 83.336 174.613 83.904 174.261 84.416C173.917 84.92 173.457 85.324 172.881 85.628C172.313 85.932 171.661 86.084 170.925 86.084C170.101 86.084 169.373 85.9 168.741 85.532C168.109 85.164 167.621 84.656 167.277 84.008C166.933 83.352 166.761 82.604 166.761 81.764C166.761 80.924 166.933 80.18 167.277 79.532C167.621 78.876 168.105 78.368 168.729 78.008C169.361 77.64 170.089 77.456 170.913 77.456ZM177.926 78.632V81.2H181.046V82.256H177.926V84.884H181.406V86H176.558V77.528H181.406V78.632H177.926ZM189.37 86.432V87.764H182.674V86.432H189.37ZM199.697 77.66V86H198.317V79.748L195.905 86H194.705L192.281 79.748V86H190.913V77.66H192.569L195.329 84.32L198.041 77.66H199.697ZM205.507 77.42C206.291 77.42 206.999 77.604 207.631 77.972C208.271 78.34 208.771 78.856 209.131 79.52C209.499 80.176 209.683 80.92 209.683 81.752C209.683 82.584 209.499 83.332 209.131 83.996C208.771 84.652 208.271 85.168 207.631 85.544C206.999 85.912 206.291 86.096 205.507 86.096C204.715 86.096 203.999 85.912 203.359 85.544C202.727 85.168 202.227 84.652 201.859 83.996C201.491 83.332 201.307 82.584 201.307 81.752C201.307 80.92 201.491 80.176 201.859 79.52C202.227 78.856 202.727 78.34 203.359 77.972C203.999 77.604 204.715 77.42 205.507 77.42ZM205.507 78.692C204.963 78.692 204.479 78.816 204.055 79.064C203.631 79.312 203.299 79.668 203.059 80.132C202.827 80.596 202.711 81.136 202.711 81.752C202.711 82.368 202.827 82.908 203.059 83.372C203.299 83.836 203.631 84.192 204.055 84.44C204.479 84.688 204.963 84.812 205.507 84.812C206.043 84.812 206.519 84.688 206.935 84.44C207.359 84.192 207.687 83.836 207.919 83.372C208.159 82.908 208.279 82.368 208.279 81.752C208.279 81.136 208.159 80.596 207.919 80.132C207.687 79.668 207.359 79.312 206.935 79.064C206.519 78.816 206.043 78.692 205.507 78.692ZM218.575 81.752C218.575 82.608 218.399 83.356 218.047 83.996C217.703 84.628 217.195 85.12 216.523 85.472C215.859 85.824 215.063 86 214.135 86H211.303V77.528H214.135C215.063 77.528 215.859 77.704 216.523 78.056C217.195 78.4 217.703 78.888 218.047 79.52C218.399 80.152 218.575 80.896 218.575 81.752ZM214.027 84.764C215.043 84.764 215.823 84.5 216.367 83.972C216.911 83.444 217.183 82.704 217.183 81.752C217.183 80.8 216.911 80.06 216.367 79.532C215.823 79.004 215.043 78.74 214.027 78.74H212.671V84.764H214.027ZM221.499 77.528V82.556C221.499 83.308 221.663 83.868 221.991 84.236C222.327 84.604 222.795 84.788 223.395 84.788C223.987 84.788 224.447 84.604 224.775 84.236C225.111 83.868 225.279 83.308 225.279 82.556V77.528H226.647V82.556C226.647 83.716 226.347 84.596 225.747 85.196C225.147 85.788 224.355 86.084 223.371 86.084C222.395 86.084 221.611 85.788 221.019 85.196C220.427 84.596 220.131 83.716 220.131 82.556V77.528H221.499ZM229.85 84.932H232.778V86H228.482V77.528H229.85V84.932ZM235.457 78.632V81.2H238.577V82.256H235.457V84.884H238.937V86H234.089V77.528H238.937V78.632H235.457ZM246.901 86.432V87.764H240.205V86.432H246.901ZM253.28 86L251.252 82.868L249.44 86H247.868L250.496 81.68L247.808 77.528H249.44L251.432 80.6L253.232 77.528H254.804L252.188 81.776L254.912 86H253.28ZM261.009 86L258.981 82.868L257.169 86H255.597L258.225 81.68L255.537 77.528H257.169L259.161 80.6L260.961 77.528H262.533L259.917 81.776L262.641 86H261.009ZM268.737 86L266.709 82.868L264.897 86H263.325L265.953 81.68L263.265 77.528H264.897L266.889 80.6L268.689 77.528H270.261L267.645 81.776L270.369 86H268.737ZM276.465 86L274.437 82.868L272.625 86H271.053L273.681 81.68L270.993 77.528H272.625L274.617 80.6L276.417 77.528H277.989L275.373 81.776L278.097 86H276.465Z" fill="white"/>
<path opacity="0.25" d="M115.612 131.66V140H114.232V133.748L111.82 140H110.62L108.196 133.748V140H106.828V131.66H108.484L111.244 138.32L113.956 131.66H115.612ZM121.75 138.164H118.174L117.526 140H116.062L119.182 131.66H120.754L123.862 140H122.398L121.75 138.164ZM121.366 137.108L119.962 133.148L118.558 137.108H121.366ZM128.097 131.444C129.137 131.444 130.001 131.708 130.689 132.236C131.377 132.764 131.841 133.48 132.081 134.384H130.629C130.429 133.872 130.109 133.468 129.669 133.172C129.237 132.868 128.705 132.716 128.073 132.716C127.569 132.716 127.117 132.84 126.717 133.088C126.325 133.336 126.013 133.692 125.781 134.156C125.557 134.612 125.445 135.148 125.445 135.764C125.445 136.372 125.557 136.908 125.781 137.372C126.013 137.828 126.325 138.18 126.717 138.428C127.117 138.676 127.569 138.8 128.073 138.8C128.705 138.8 129.237 138.652 129.669 138.356C130.109 138.052 130.429 137.648 130.629 137.144H132.081C131.841 138.048 131.377 138.764 130.689 139.292C130.001 139.812 129.137 140.072 128.097 140.072C127.297 140.072 126.589 139.892 125.973 139.532C125.357 139.164 124.881 138.656 124.545 138.008C124.209 137.352 124.041 136.604 124.041 135.764C124.041 134.924 124.209 134.18 124.545 133.532C124.881 132.876 125.357 132.364 125.973 131.996C126.589 131.628 127.297 131.444 128.097 131.444ZM134.158 133.4V134.912H132.61V133.4H134.158ZM134.158 138.488V140H132.61V138.488H134.158ZM142.005 140L139.977 136.868L138.165 140H136.593L139.221 135.68L136.533 131.528H138.165L140.157 134.6L141.957 131.528H143.529L140.913 135.776L143.637 140H142.005ZM148.933 140L146.905 136.868L145.093 140H143.521L146.149 135.68L143.461 131.528H145.093L147.085 134.6L148.885 131.528H150.457L147.841 135.776L150.565 140H148.933ZM155.033 135.08V136.232H150.089V135.08H155.033ZM161.372 140L159.344 136.868L157.532 140H155.96L158.588 135.68L155.9 131.528H157.532L159.524 134.6L161.324 131.528H162.896L160.28 135.776L163.004 140H161.372ZM168.3 140L166.272 136.868L164.46 140H162.888L165.516 135.68L162.828 131.528H164.46L166.452 134.6L168.252 131.528H169.824L167.208 135.776L169.932 140H168.3ZM174.4 135.08V136.232H169.456V135.08H174.4ZM180.738 140L178.71 136.868L176.898 140H175.326L177.954 135.68L175.266 131.528H176.898L178.89 134.6L180.69 131.528H182.262L179.646 135.776L182.37 140H180.738ZM187.667 140L185.639 136.868L183.827 140H182.255L184.883 135.68L182.195 131.528H183.827L185.819 134.6L187.619 131.528H189.191L186.575 135.776L189.299 140H187.667ZM193.767 135.08V136.232H188.823V135.08H193.767ZM200.105 140L198.077 136.868L196.265 140H194.693L197.321 135.68L194.633 131.528H196.265L198.257 134.6L200.057 131.528H201.629L199.013 135.776L201.737 140H200.105ZM207.034 140L205.006 136.868L203.194 140H201.622L204.25 135.68L201.562 131.528H203.194L205.186 134.6L206.986 131.528H208.558L205.942 135.776L208.666 140H207.034ZM213.134 135.08V136.232H208.19V135.08H213.134ZM219.472 140L217.444 136.868L215.632 140H214.06L216.688 135.68L214 131.528H215.632L217.624 134.6L219.424 131.528H220.996L218.38 135.776L221.104 140H219.472ZM226.4 140L224.372 136.868L222.56 140H220.988L223.616 135.68L220.928 131.528H222.56L224.552 134.6L226.352 131.528H227.924L225.308 135.776L228.032 140H226.4ZM232.501 135.08V136.232H227.557V135.08H232.501ZM238.839 140L236.811 136.868L234.999 140H233.427L236.055 135.68L233.367 131.528H234.999L236.991 134.6L238.791 131.528H240.363L237.747 135.776L240.471 140H238.839ZM245.767 140L243.739 136.868L241.927 140H240.355L242.983 135.68L240.295 131.528H241.927L243.919 134.6L245.719 131.528H247.291L244.675 135.776L247.399 140H245.767Z" fill="white"/>
<path opacity="0.25" d="M39 158H157" stroke="white" stroke-linecap="square"/>
<path opacity="0.25" d="M219 158H337" stroke="white" stroke-linecap="square"/>
<rect opacity="0.25" x="285.5" y="84.5" width="51" height="51" rx="1.5" fill="white" stroke="white"/>
<rect opacity="0.25" x="39.5" y="84.5" width="51" height="51" rx="1.5" fill="white" stroke="white"/>
</svg>
