<svg width="375" height="232" viewBox="0 0 375 232" fill="none" xmlns="http://www.w3.org/2000/svg">
<path d="M112 47H352C353.105 47 354 47.8954 354 49V180C354 181.105 353.105 182 352 182H112V47Z" stroke="white" stroke-width="2"/>
<path d="M112 182.395V46.7691L38.8154 27.3373C38.6547 27.2946 38.4859 27.2927 38.3242 27.3317L23.7654 30.8445C23.3164 30.9528 23 31.3547 23 31.8166V218.132C23 218.636 23.3745 219.061 23.874 219.124L38.0847 220.929C38.2876 220.955 38.4936 220.917 38.6748 220.822L112 182.395Z" stroke="white" stroke-width="2"/>
<rect x="129" y="66" width="160" height="97" rx="3" stroke="white" stroke-width="2"/>
<path d="M38.5 27.5V221.5" stroke="white"/>
<path opacity="0.25" d="M308 46V183" stroke="white"/>
<rect opacity="0.25" x="314.5" y="52.5" width="34" height="117" rx="1.5" stroke="white"/>
<rect x="246.25" y="51.25" width="43.5" height="10.5" rx="0.75" fill="#FDBA12" stroke="white" stroke-width="0.5"/>
<path d="M44.6606 39.2422C44.6606 38.7634 45.1031 38.4072 45.5708 38.5095L64.1601 42.5723C64.5045 42.6476 64.75 42.9525 64.75 43.305L64.75 52.8437C64.75 53.301 64.3443 53.6518 63.8919 53.5859L45.3025 50.8773C44.934 50.8236 44.6606 50.5076 44.6606 50.1351L44.6606 39.2422Z" fill="#FDBA12" stroke="white" stroke-width="0.5"/>
</svg>
