<svg width="343" height="135" viewBox="0 0 343 135" fill="none" xmlns="http://www.w3.org/2000/svg">
    <rect x="1" y="1" width="341" height="133" rx="5" stroke="white" stroke-width="2"/>
    <path d="M115.196 38.712V42H113.828V33.528H116.708C117.684 33.528 118.416 33.76 118.904 34.224C119.4 34.688 119.648 35.324 119.648 36.132C119.648 36.932 119.396 37.564 118.892 38.028C118.388 38.484 117.66 38.712 116.708 38.712H115.196ZM116.564 37.596C117.692 37.596 118.256 37.108 118.256 36.132C118.256 35.652 118.12 35.288 117.848 35.04C117.584 34.784 117.156 34.656 116.564 34.656H115.196V37.596H116.564ZM123.74 35.304C124.34 35.304 124.852 35.452 125.276 35.748C125.7 36.044 126 36.436 126.176 36.924V35.388H127.544V42H126.176V40.464C126 40.952 125.7 41.344 125.276 41.64C124.852 41.936 124.34 42.084 123.74 42.084C123.164 42.084 122.648 41.948 122.192 41.676C121.744 41.404 121.392 41.012 121.136 40.5C120.88 39.988 120.752 39.384 120.752 38.688C120.752 38 120.88 37.4 121.136 36.888C121.392 36.376 121.744 35.984 122.192 35.712C122.648 35.44 123.164 35.304 123.74 35.304ZM124.16 36.504C123.552 36.504 123.064 36.7 122.696 37.092C122.336 37.476 122.156 38.008 122.156 38.688C122.156 39.368 122.336 39.904 122.696 40.296C123.064 40.68 123.552 40.872 124.16 40.872C124.544 40.872 124.888 40.784 125.192 40.608C125.496 40.424 125.736 40.168 125.912 39.84C126.088 39.512 126.176 39.128 126.176 38.688C126.176 38.256 126.088 37.876 125.912 37.548C125.736 37.212 125.496 36.956 125.192 36.78C124.888 36.596 124.544 36.504 124.16 36.504ZM131.597 35.304C132.373 35.304 132.993 35.504 133.457 35.904C133.929 36.296 134.217 36.824 134.321 37.488H133.025C132.969 37.128 132.813 36.84 132.557 36.624C132.309 36.4 131.977 36.288 131.561 36.288C131.217 36.288 130.949 36.372 130.757 36.54C130.573 36.7 130.481 36.92 130.481 37.2C130.481 37.408 130.549 37.576 130.685 37.704C130.821 37.832 130.989 37.932 131.189 38.004C131.397 38.076 131.689 38.156 132.065 38.244C132.561 38.356 132.961 38.472 133.265 38.592C133.577 38.712 133.841 38.904 134.057 39.168C134.281 39.424 134.393 39.776 134.393 40.224C134.393 40.776 134.181 41.224 133.757 41.568C133.341 41.912 132.777 42.084 132.065 42.084C131.241 42.084 130.573 41.892 130.061 41.508C129.557 41.124 129.253 40.588 129.149 39.9H130.481C130.521 40.26 130.681 40.552 130.961 40.776C131.241 41 131.609 41.112 132.065 41.112C132.393 41.112 132.649 41.028 132.833 40.86C133.025 40.684 133.121 40.464 133.121 40.2C133.121 39.968 133.049 39.784 132.905 39.648C132.761 39.512 132.581 39.408 132.365 39.336C132.149 39.256 131.853 39.176 131.477 39.096C130.997 38.984 130.605 38.872 130.301 38.76C130.005 38.648 129.749 38.468 129.533 38.22C129.325 37.964 129.221 37.62 129.221 37.188C129.221 36.628 129.429 36.176 129.845 35.832C130.269 35.48 130.853 35.304 131.597 35.304ZM138.177 35.304C138.953 35.304 139.573 35.504 140.037 35.904C140.509 36.296 140.797 36.824 140.901 37.488H139.605C139.549 37.128 139.393 36.84 139.137 36.624C138.889 36.4 138.557 36.288 138.141 36.288C137.797 36.288 137.529 36.372 137.337 36.54C137.153 36.7 137.061 36.92 137.061 37.2C137.061 37.408 137.129 37.576 137.265 37.704C137.401 37.832 137.569 37.932 137.769 38.004C137.977 38.076 138.269 38.156 138.645 38.244C139.141 38.356 139.541 38.472 139.845 38.592C140.157 38.712 140.421 38.904 140.637 39.168C140.861 39.424 140.973 39.776 140.973 40.224C140.973 40.776 140.761 41.224 140.337 41.568C139.921 41.912 139.357 42.084 138.645 42.084C137.821 42.084 137.153 41.892 136.641 41.508C136.137 41.124 135.833 40.588 135.729 39.9H137.061C137.101 40.26 137.261 40.552 137.541 40.776C137.821 41 138.189 41.112 138.645 41.112C138.973 41.112 139.229 41.028 139.413 40.86C139.605 40.684 139.701 40.464 139.701 40.2C139.701 39.968 139.629 39.784 139.485 39.648C139.341 39.512 139.161 39.408 138.945 39.336C138.729 39.256 138.433 39.176 138.057 39.096C137.577 38.984 137.185 38.872 136.881 38.76C136.585 38.648 136.329 38.468 136.113 38.22C135.905 37.964 135.801 37.62 135.801 37.188C135.801 36.628 136.009 36.176 136.425 35.832C136.849 35.48 137.433 35.304 138.177 35.304ZM151.849 35.388L150.013 42H148.501L146.869 36.888L145.213 42H143.713L141.877 35.388H143.257L144.517 40.74L146.173 35.388H147.613L149.293 40.74L150.553 35.388H151.849ZM156.044 35.304C156.684 35.304 157.26 35.44 157.772 35.712C158.284 35.984 158.684 36.376 158.972 36.888C159.26 37.4 159.404 38 159.404 38.688C159.404 39.384 159.26 39.988 158.972 40.5C158.684 41.012 158.284 41.404 157.772 41.676C157.26 41.948 156.684 42.084 156.044 42.084C155.404 42.084 154.828 41.948 154.316 41.676C153.812 41.404 153.412 41.012 153.116 40.5C152.828 39.98 152.684 39.376 152.684 38.688C152.684 38 152.828 37.4 153.116 36.888C153.412 36.376 153.812 35.984 154.316 35.712C154.828 35.44 155.404 35.304 156.044 35.304ZM156.044 36.492C155.692 36.492 155.368 36.572 155.072 36.732C154.776 36.892 154.536 37.14 154.352 37.476C154.176 37.804 154.088 38.208 154.088 38.688C154.088 39.176 154.176 39.584 154.352 39.912C154.536 40.24 154.776 40.484 155.072 40.644C155.368 40.804 155.692 40.884 156.044 40.884C156.396 40.884 156.72 40.804 157.016 40.644C157.312 40.484 157.548 40.24 157.724 39.912C157.908 39.584 158 39.176 158 38.688C158 38.208 157.908 37.804 157.724 37.476C157.548 37.14 157.312 36.892 157.016 36.732C156.72 36.572 156.396 36.492 156.044 36.492ZM162.327 36.684C162.551 36.252 162.871 35.912 163.287 35.664C163.703 35.408 164.183 35.28 164.727 35.28V36.768H164.319C163.719 36.768 163.235 36.916 162.867 37.212C162.507 37.5 162.327 37.98 162.327 38.652V42H160.959V35.388H162.327V36.684ZM168.644 35.304C169.244 35.304 169.756 35.452 170.18 35.748C170.604 36.044 170.9 36.436 171.068 36.924V33.12H172.448V42H171.068V40.464C170.9 40.952 170.604 41.344 170.18 41.64C169.756 41.936 169.244 42.084 168.644 42.084C168.068 42.084 167.552 41.948 167.096 41.676C166.648 41.404 166.296 41.012 166.04 40.5C165.784 39.988 165.656 39.384 165.656 38.688C165.656 38 165.784 37.4 166.04 36.888C166.296 36.376 166.648 35.984 167.096 35.712C167.552 35.44 168.068 35.304 168.644 35.304ZM169.064 36.504C168.456 36.504 167.968 36.7 167.6 37.092C167.24 37.476 167.06 38.008 167.06 38.688C167.06 39.368 167.24 39.904 167.6 40.296C167.968 40.68 168.456 40.872 169.064 40.872C169.448 40.872 169.792 40.784 170.096 40.608C170.4 40.424 170.64 40.168 170.816 39.84C170.992 39.512 171.08 39.128 171.08 38.688C171.08 38.256 170.992 37.876 170.816 37.548C170.64 37.212 170.4 36.956 170.096 36.78C169.792 36.596 169.448 36.504 169.064 36.504ZM175.602 35.4V36.912H174.054V35.4H175.602ZM175.602 40.488V42H174.054V40.488H175.602ZM185.048 42L183.02 38.868L181.208 42H179.636L182.264 37.68L179.576 33.528H181.208L183.2 36.6L185 33.528H186.572L183.956 37.776L186.68 42H185.048ZM192.777 42L190.749 38.868L188.937 42H187.365L189.993 37.68L187.305 33.528H188.937L190.929 36.6L192.729 33.528H194.301L191.685 37.776L194.409 42H192.777ZM200.505 42L198.477 38.868L196.665 42H195.093L197.721 37.68L195.033 33.528H196.665L198.657 36.6L200.457 33.528H202.029L199.413 37.776L202.137 42H200.505ZM208.233 42L206.205 38.868L204.393 42H202.821L205.449 37.68L202.761 33.528H204.393L206.385 36.6L208.185 33.528H209.757L207.141 37.776L209.865 42H208.233ZM215.962 42L213.934 38.868L212.122 42H210.55L213.178 37.68L210.49 33.528H212.122L214.114 36.6L215.914 33.528H217.486L214.87 37.776L217.594 42H215.962ZM223.69 42L221.662 38.868L219.85 42H218.278L220.906 37.68L218.218 33.528H219.85L221.842 36.6L223.642 33.528H225.214L222.598 37.776L225.322 42H223.69ZM231.418 42L229.39 38.868L227.578 42H226.006L228.634 37.68L225.946 33.528H227.578L229.57 36.6L231.37 33.528H232.942L230.326 37.776L233.05 42H231.418ZM239.146 42L237.118 38.868L235.306 42H233.734L236.362 37.68L233.674 33.528H235.306L237.298 36.6L239.098 33.528H240.67L238.054 37.776L240.778 42H239.146Z" fill="white"/>
    <path opacity="0.25" d="M120.68 18H119.312L115.196 11.748V18H113.828V9.54H115.196L119.312 15.816V9.54H120.68V18ZM128.72 14.376C128.72 14.6 128.704 14.796 128.672 14.964H123.584C123.608 15.644 123.796 16.148 124.148 16.476C124.5 16.804 124.936 16.968 125.456 16.968C125.912 16.968 126.296 16.852 126.608 16.62C126.928 16.388 127.124 16.08 127.196 15.696H128.66C128.572 16.16 128.388 16.572 128.108 16.932C127.828 17.292 127.464 17.576 127.016 17.784C126.568 17.984 126.068 18.084 125.516 18.084C124.876 18.084 124.308 17.948 123.812 17.676C123.324 17.404 122.94 17.012 122.66 16.5C122.38 15.988 122.24 15.384 122.24 14.688C122.24 14 122.38 13.4 122.66 12.888C122.94 12.376 123.324 11.984 123.812 11.712C124.308 11.44 124.876 11.304 125.516 11.304C126.164 11.304 126.728 11.44 127.208 11.712C127.696 11.976 128.068 12.344 128.324 12.816C128.588 13.28 128.72 13.8 128.72 14.376ZM127.34 14.34C127.356 13.908 127.28 13.548 127.112 13.26C126.952 12.964 126.728 12.748 126.44 12.612C126.16 12.468 125.852 12.396 125.516 12.396C124.98 12.396 124.532 12.56 124.172 12.888C123.812 13.216 123.616 13.7 123.584 14.34H127.34ZM133.605 16.812V18H132.765C132.061 18 131.525 17.832 131.157 17.496C130.797 17.152 130.617 16.584 130.617 15.792V12.552H129.669V11.388H130.617V9.744H131.997V11.388H133.593V12.552H131.997V15.816C131.997 16.192 132.065 16.452 132.201 16.596C132.345 16.74 132.593 16.812 132.945 16.812H133.605ZM144.39 11.388L142.554 18H141.042L139.41 12.888L137.754 18H136.254L134.418 11.388H135.798L137.058 16.74L138.714 11.388H140.154L141.834 16.74L143.094 11.388H144.39ZM148.585 11.304C149.225 11.304 149.801 11.44 150.313 11.712C150.825 11.984 151.225 12.376 151.513 12.888C151.801 13.4 151.945 14 151.945 14.688C151.945 15.384 151.801 15.988 151.513 16.5C151.225 17.012 150.825 17.404 150.313 17.676C149.801 17.948 149.225 18.084 148.585 18.084C147.945 18.084 147.369 17.948 146.857 17.676C146.353 17.404 145.953 17.012 145.657 16.5C145.369 15.98 145.225 15.376 145.225 14.688C145.225 14 145.369 13.4 145.657 12.888C145.953 12.376 146.353 11.984 146.857 11.712C147.369 11.44 147.945 11.304 148.585 11.304ZM148.585 12.492C148.233 12.492 147.909 12.572 147.613 12.732C147.317 12.892 147.077 13.14 146.893 13.476C146.717 13.804 146.629 14.208 146.629 14.688C146.629 15.176 146.717 15.584 146.893 15.912C147.077 16.24 147.317 16.484 147.613 16.644C147.909 16.804 148.233 16.884 148.585 16.884C148.937 16.884 149.261 16.804 149.557 16.644C149.853 16.484 150.089 16.24 150.265 15.912C150.449 15.584 150.541 15.176 150.541 14.688C150.541 14.208 150.449 13.804 150.265 13.476C150.089 13.14 149.853 12.892 149.557 12.732C149.261 12.572 148.937 12.492 148.585 12.492ZM154.869 12.684C155.093 12.252 155.413 11.912 155.829 11.664C156.245 11.408 156.725 11.28 157.269 11.28V12.768H156.861C156.261 12.768 155.777 12.916 155.409 13.212C155.049 13.5 154.869 13.98 154.869 14.652V18H153.501V11.388H154.869V12.684ZM162.278 18L159.902 15.06V18H158.534V9.12H159.902V14.208L162.254 11.388H163.898L161.018 14.676L163.97 18H162.278ZM169.426 11.4V12.912H167.878V11.4H169.426ZM169.426 16.488V18H167.878V16.488H169.426ZM177.913 9.456C178.921 9.456 179.761 9.704 180.433 10.2C181.105 10.696 181.549 11.372 181.765 12.228H180.325C180.141 11.772 179.837 11.408 179.413 11.136C178.997 10.864 178.501 10.728 177.925 10.728C177.397 10.728 176.921 10.852 176.497 11.1C176.081 11.348 175.753 11.7 175.513 12.156C175.281 12.612 175.165 13.148 175.165 13.764C175.165 14.412 175.285 14.968 175.525 15.432C175.765 15.896 176.101 16.252 176.533 16.5C176.973 16.74 177.481 16.86 178.057 16.86C178.761 16.86 179.365 16.644 179.869 16.212C180.373 15.772 180.677 15.172 180.781 14.412H177.673V13.404H181.933V14.712C181.837 15.336 181.613 15.904 181.261 16.416C180.917 16.92 180.457 17.324 179.881 17.628C179.313 17.932 178.661 18.084 177.925 18.084C177.101 18.084 176.373 17.9 175.741 17.532C175.109 17.164 174.621 16.656 174.277 16.008C173.933 15.352 173.761 14.604 173.761 13.764C173.761 12.924 173.933 12.18 174.277 11.532C174.621 10.876 175.105 10.368 175.729 10.008C176.361 9.64 177.089 9.456 177.913 9.456ZM184.926 10.632V13.2H188.046V14.256H184.926V16.884H188.406V18H183.558V9.528H188.406V10.632H184.926ZM196.37 18.432V19.764H189.674V18.432H196.37ZM206.697 9.66V18H205.317V11.748L202.905 18H201.705L199.281 11.748V18H197.913V9.66H199.569L202.329 16.32L205.041 9.66H206.697ZM212.507 9.42C213.291 9.42 213.999 9.604 214.631 9.972C215.271 10.34 215.771 10.856 216.131 11.52C216.499 12.176 216.683 12.92 216.683 13.752C216.683 14.584 216.499 15.332 216.131 15.996C215.771 16.652 215.271 17.168 214.631 17.544C213.999 17.912 213.291 18.096 212.507 18.096C211.715 18.096 210.999 17.912 210.359 17.544C209.727 17.168 209.227 16.652 208.859 15.996C208.491 15.332 208.307 14.584 208.307 13.752C208.307 12.92 208.491 12.176 208.859 11.52C209.227 10.856 209.727 10.34 210.359 9.972C210.999 9.604 211.715 9.42 212.507 9.42ZM212.507 10.692C211.963 10.692 211.479 10.816 211.055 11.064C210.631 11.312 210.299 11.668 210.059 12.132C209.827 12.596 209.711 13.136 209.711 13.752C209.711 14.368 209.827 14.908 210.059 15.372C210.299 15.836 210.631 16.192 211.055 16.44C211.479 16.688 211.963 16.812 212.507 16.812C213.043 16.812 213.519 16.688 213.935 16.44C214.359 16.192 214.687 15.836 214.919 15.372C215.159 14.908 215.279 14.368 215.279 13.752C215.279 13.136 215.159 12.596 214.919 12.132C214.687 11.668 214.359 11.312 213.935 11.064C213.519 10.816 213.043 10.692 212.507 10.692ZM225.575 13.752C225.575 14.608 225.399 15.356 225.047 15.996C224.703 16.628 224.195 17.12 223.523 17.472C222.859 17.824 222.063 18 221.135 18H218.303V9.528H221.135C222.063 9.528 222.859 9.704 223.523 10.056C224.195 10.4 224.703 10.888 225.047 11.52C225.399 12.152 225.575 12.896 225.575 13.752ZM221.027 16.764C222.043 16.764 222.823 16.5 223.367 15.972C223.911 15.444 224.183 14.704 224.183 13.752C224.183 12.8 223.911 12.06 223.367 11.532C222.823 11.004 222.043 10.74 221.027 10.74H219.671V16.764H221.027ZM228.499 9.528V14.556C228.499 15.308 228.663 15.868 228.991 16.236C229.327 16.604 229.795 16.788 230.395 16.788C230.987 16.788 231.447 16.604 231.775 16.236C232.111 15.868 232.279 15.308 232.279 14.556V9.528H233.647V14.556C233.647 15.716 233.347 16.596 232.747 17.196C232.147 17.788 231.355 18.084 230.371 18.084C229.395 18.084 228.611 17.788 228.019 17.196C227.427 16.596 227.131 15.716 227.131 14.556V9.528H228.499ZM236.85 16.932H239.778V18H235.482V9.528H236.85V16.932ZM242.457 10.632V13.2H245.577V14.256H242.457V16.884H245.937V18H241.089V9.528H245.937V10.632H242.457ZM253.901 18.432V19.764H247.205V18.432H253.901ZM260.28 18L258.252 14.868L256.44 18H254.868L257.496 13.68L254.808 9.528H256.44L258.432 12.6L260.232 9.528H261.804L259.188 13.776L261.912 18H260.28ZM268.009 18L265.981 14.868L264.169 18H262.597L265.225 13.68L262.537 9.528H264.169L266.161 12.6L267.961 9.528H269.533L266.917 13.776L269.641 18H268.009ZM275.737 18L273.709 14.868L271.897 18H270.325L272.953 13.68L270.265 9.528H271.897L273.889 12.6L275.689 9.528H277.261L274.645 13.776L277.369 18H275.737ZM283.465 18L281.437 14.868L279.625 18H278.053L280.681 13.68L277.993 9.528H279.625L281.617 12.6L283.417 9.528H284.989L282.373 13.776L285.097 18H283.465Z" fill="white"/>
    <path opacity="0.25" d="M122.612 57.66V66H121.232V59.748L118.82 66H117.62L115.196 59.748V66H113.828V57.66H115.484L118.244 64.32L120.956 57.66H122.612ZM128.75 64.164H125.174L124.526 66H123.062L126.182 57.66H127.754L130.862 66H129.398L128.75 64.164ZM128.366 63.108L126.962 59.148L125.558 63.108H128.366ZM135.097 57.444C136.137 57.444 137.001 57.708 137.689 58.236C138.377 58.764 138.841 59.48 139.081 60.384H137.629C137.429 59.872 137.109 59.468 136.669 59.172C136.237 58.868 135.705 58.716 135.073 58.716C134.569 58.716 134.117 58.84 133.717 59.088C133.325 59.336 133.013 59.692 132.781 60.156C132.557 60.612 132.445 61.148 132.445 61.764C132.445 62.372 132.557 62.908 132.781 63.372C133.013 63.828 133.325 64.18 133.717 64.428C134.117 64.676 134.569 64.8 135.073 64.8C135.705 64.8 136.237 64.652 136.669 64.356C137.109 64.052 137.429 63.648 137.629 63.144H139.081C138.841 64.048 138.377 64.764 137.689 65.292C137.001 65.812 136.137 66.072 135.097 66.072C134.297 66.072 133.589 65.892 132.973 65.532C132.357 65.164 131.881 64.656 131.545 64.008C131.209 63.352 131.041 62.604 131.041 61.764C131.041 60.924 131.209 60.18 131.545 59.532C131.881 58.876 132.357 58.364 132.973 57.996C133.589 57.628 134.297 57.444 135.097 57.444ZM141.158 59.4V60.912H139.61V59.4H141.158ZM141.158 64.488V66H139.61V64.488H141.158ZM149.005 66L146.977 62.868L145.165 66H143.593L146.221 61.68L143.533 57.528H145.165L147.157 60.6L148.957 57.528H150.529L147.913 61.776L150.637 66H149.005ZM155.933 66L153.905 62.868L152.093 66H150.521L153.149 61.68L150.461 57.528H152.093L154.085 60.6L155.885 57.528H157.457L154.841 61.776L157.565 66H155.933ZM162.033 61.08V62.232H157.089V61.08H162.033ZM168.372 66L166.344 62.868L164.532 66H162.96L165.588 61.68L162.9 57.528H164.532L166.524 60.6L168.324 57.528H169.896L167.28 61.776L170.004 66H168.372ZM175.3 66L173.272 62.868L171.46 66H169.888L172.516 61.68L169.828 57.528H171.46L173.452 60.6L175.252 57.528H176.824L174.208 61.776L176.932 66H175.3ZM181.4 61.08V62.232H176.456V61.08H181.4ZM187.738 66L185.71 62.868L183.898 66H182.326L184.954 61.68L182.266 57.528H183.898L185.89 60.6L187.69 57.528H189.262L186.646 61.776L189.37 66H187.738ZM194.667 66L192.639 62.868L190.827 66H189.255L191.883 61.68L189.195 57.528H190.827L192.819 60.6L194.619 57.528H196.191L193.575 61.776L196.299 66H194.667ZM200.767 61.08V62.232H195.823V61.08H200.767ZM207.105 66L205.077 62.868L203.265 66H201.693L204.321 61.68L201.633 57.528H203.265L205.257 60.6L207.057 57.528H208.629L206.013 61.776L208.737 66H207.105ZM214.034 66L212.006 62.868L210.194 66H208.622L211.25 61.68L208.562 57.528H210.194L212.186 60.6L213.986 57.528H215.558L212.942 61.776L215.666 66H214.034ZM220.134 61.08V62.232H215.19V61.08H220.134ZM226.472 66L224.444 62.868L222.632 66H221.06L223.688 61.68L221 57.528H222.632L224.624 60.6L226.424 57.528H227.996L225.38 61.776L228.104 66H226.472ZM233.4 66L231.372 62.868L229.56 66H227.988L230.616 61.68L227.928 57.528H229.56L231.552 60.6L233.352 57.528H234.924L232.308 61.776L235.032 66H233.4ZM239.501 61.08V62.232H234.557V61.08H239.501ZM245.839 66L243.811 62.868L241.999 66H240.427L243.055 61.68L240.367 57.528H241.999L243.991 60.6L245.791 57.528H247.363L244.747 61.776L247.471 66H245.839ZM252.767 66L250.739 62.868L248.927 66H247.355L249.983 61.68L247.295 57.528H248.927L250.919 60.6L252.719 57.528H254.291L251.675 61.776L254.399 66H252.767Z" fill="white"/>
    <path opacity="0.25" d="M21.5336 77.5H147.466" stroke="white" stroke-linecap="square"/>
    <path opacity="0.25" d="M195.534 77.5H321.466" stroke="white" stroke-linecap="square"/>
    <rect opacity="0.25" x="21.5" y="9.5" width="57" height="57" rx="1.5" fill="white" stroke="white"/>
    <rect opacity="0.25" x="105.5" y="88.5" width="135" height="33" rx="1.5" fill="white" stroke="white"/>
</svg>
