<svg width="375" height="232" viewBox="0 0 375 232" fill="none" xmlns="http://www.w3.org/2000/svg">
<mask id="path-1-inside-1_521:1501" fill="white">
<rect x="19" y="79" width="336" height="74" rx="1"/>
</mask>
<rect x="19" y="79" width="336" height="74" rx="1" stroke="white" stroke-width="4" mask="url(#path-1-inside-1_521:1501)"/>
<path d="M51.0046 107.932H53.9326V109H49.6366V100.528H51.0046V107.932ZM58.9278 100.42C59.7118 100.42 60.4198 100.604 61.0518 100.972C61.6918 101.34 62.1918 101.856 62.5518 102.52C62.9198 103.176 63.1038 103.92 63.1038 104.752C63.1038 105.584 62.9198 106.332 62.5518 106.996C62.1918 107.652 61.6918 108.168 61.0518 108.544C60.4198 108.912 59.7118 109.096 58.9278 109.096C58.1358 109.096 57.4198 108.912 56.7798 108.544C56.1478 108.168 55.6478 107.652 55.2798 106.996C54.9118 106.332 54.7278 105.584 54.7278 104.752C54.7278 103.92 54.9118 103.176 55.2798 102.52C55.6478 101.856 56.1478 101.34 56.7798 100.972C57.4198 100.604 58.1358 100.42 58.9278 100.42ZM58.9278 101.692C58.3838 101.692 57.8998 101.816 57.4758 102.064C57.0518 102.312 56.7198 102.668 56.4798 103.132C56.2478 103.596 56.1318 104.136 56.1318 104.752C56.1318 105.368 56.2478 105.908 56.4798 106.372C56.7198 106.836 57.0518 107.192 57.4758 107.44C57.8998 107.688 58.3838 107.812 58.9278 107.812C59.4638 107.812 59.9398 107.688 60.3558 107.44C60.7798 107.192 61.1078 106.836 61.3398 106.372C61.5798 105.908 61.6998 105.368 61.6998 104.752C61.6998 104.136 61.5798 103.596 61.3398 103.132C61.1078 102.668 60.7798 102.312 60.3558 102.064C59.9398 101.816 59.4638 101.692 58.9278 101.692ZM68.2643 100.444C69.3043 100.444 70.1683 100.708 70.8563 101.236C71.5443 101.764 72.0083 102.48 72.2483 103.384H70.7963C70.5963 102.872 70.2763 102.468 69.8363 102.172C69.4043 101.868 68.8723 101.716 68.2403 101.716C67.7363 101.716 67.2843 101.84 66.8843 102.088C66.4923 102.336 66.1803 102.692 65.9483 103.156C65.7243 103.612 65.6123 104.148 65.6123 104.764C65.6123 105.372 65.7243 105.908 65.9483 106.372C66.1803 106.828 66.4923 107.18 66.8843 107.428C67.2843 107.676 67.7363 107.8 68.2403 107.8C68.8723 107.8 69.4043 107.652 69.8363 107.356C70.2763 107.052 70.5963 106.648 70.7963 106.144H72.2483C72.0083 107.048 71.5443 107.764 70.8563 108.292C70.1683 108.812 69.3043 109.072 68.2643 109.072C67.4643 109.072 66.7563 108.892 66.1403 108.532C65.5243 108.164 65.0483 107.656 64.7123 107.008C64.3763 106.352 64.2083 105.604 64.2083 104.764C64.2083 103.924 64.3763 103.18 64.7123 102.532C65.0483 101.876 65.5243 101.364 66.1403 100.996C66.7563 100.628 67.4643 100.444 68.2643 100.444ZM76.2652 104.716L79.9972 109H78.3292L74.9812 105.076V109H73.6132V100.528H74.9812V104.404L78.3412 100.528H79.9972L76.2652 104.716ZM41.3053 112.444C42.3453 112.444 43.2093 112.708 43.8973 113.236C44.5853 113.764 45.0493 114.48 45.2893 115.384H43.8373C43.6373 114.872 43.3173 114.468 42.8773 114.172C42.4453 113.868 41.9133 113.716 41.2813 113.716C40.7773 113.716 40.3253 113.84 39.9253 114.088C39.5333 114.336 39.2213 114.692 38.9893 115.156C38.7653 115.612 38.6533 116.148 38.6533 116.764C38.6533 117.372 38.7653 117.908 38.9893 118.372C39.2213 118.828 39.5333 119.18 39.9253 119.428C40.3253 119.676 40.7773 119.8 41.2813 119.8C41.9133 119.8 42.4453 119.652 42.8773 119.356C43.3173 119.052 43.6373 118.648 43.8373 118.144H45.2893C45.0493 119.048 44.5853 119.764 43.8973 120.292C43.2093 120.812 42.3453 121.072 41.3053 121.072C40.5053 121.072 39.7973 120.892 39.1813 120.532C38.5653 120.164 38.0893 119.656 37.7533 119.008C37.4173 118.352 37.2493 117.604 37.2493 116.764C37.2493 115.924 37.4173 115.18 37.7533 114.532C38.0893 113.876 38.5653 113.364 39.1813 112.996C39.7973 112.628 40.5053 112.444 41.3053 112.444ZM50.5782 112.42C51.3622 112.42 52.0702 112.604 52.7022 112.972C53.3422 113.34 53.8422 113.856 54.2022 114.52C54.5702 115.176 54.7542 115.92 54.7542 116.752C54.7542 117.584 54.5702 118.332 54.2022 118.996C53.8422 119.652 53.3422 120.168 52.7022 120.544C52.0702 120.912 51.3622 121.096 50.5782 121.096C49.7862 121.096 49.0702 120.912 48.4302 120.544C47.7982 120.168 47.2982 119.652 46.9302 118.996C46.5622 118.332 46.3782 117.584 46.3782 116.752C46.3782 115.92 46.5622 115.176 46.9302 114.52C47.2982 113.856 47.7982 113.34 48.4302 112.972C49.0702 112.604 49.7862 112.42 50.5782 112.42ZM50.5782 113.692C50.0342 113.692 49.5502 113.816 49.1262 114.064C48.7022 114.312 48.3702 114.668 48.1302 115.132C47.8982 115.596 47.7822 116.136 47.7822 116.752C47.7822 117.368 47.8982 117.908 48.1302 118.372C48.3702 118.836 48.7022 119.192 49.1262 119.44C49.5502 119.688 50.0342 119.812 50.5782 119.812C51.1142 119.812 51.5902 119.688 52.0062 119.44C52.4302 119.192 52.7582 118.836 52.9902 118.372C53.2302 117.908 53.3502 117.368 53.3502 116.752C53.3502 116.136 53.2302 115.596 52.9902 115.132C52.7582 114.668 52.4302 114.312 52.0062 114.064C51.5902 113.816 51.1142 113.692 50.5782 113.692ZM62.9866 121H61.6186L57.5026 114.748V121H56.1346V112.54H57.5026L61.6186 118.816V112.54H62.9866V121ZM70.0905 112.528V113.632H67.7265V121H66.3465V113.632H63.9945V112.528H70.0905ZM75.5632 121L73.4512 117.616H72.4792V121H71.1112V112.528H74.0992C75.0672 112.528 75.7992 112.764 76.2952 113.236C76.7992 113.708 77.0512 114.332 77.0512 115.108C77.0512 115.772 76.8632 116.316 76.4872 116.74C76.1192 117.164 75.5832 117.436 74.8792 117.556L77.0992 121H75.5632ZM72.4792 116.644H73.9912C75.0952 116.644 75.6472 116.156 75.6472 115.18C75.6472 114.716 75.5112 114.356 75.2392 114.1C74.9752 113.836 74.5592 113.704 73.9912 113.704H72.4792V116.644ZM82.2071 112.42C82.9911 112.42 83.6991 112.604 84.3311 112.972C84.9711 113.34 85.4711 113.856 85.8311 114.52C86.1991 115.176 86.3831 115.92 86.3831 116.752C86.3831 117.584 86.1991 118.332 85.8311 118.996C85.4711 119.652 84.9711 120.168 84.3311 120.544C83.6991 120.912 82.9911 121.096 82.2071 121.096C81.4151 121.096 80.6991 120.912 80.0591 120.544C79.4271 120.168 78.9271 119.652 78.5591 118.996C78.1911 118.332 78.0071 117.584 78.0071 116.752C78.0071 115.92 78.1911 115.176 78.5591 114.52C78.9271 113.856 79.4271 113.34 80.0591 112.972C80.6991 112.604 81.4151 112.42 82.2071 112.42ZM82.2071 113.692C81.6631 113.692 81.1791 113.816 80.7551 114.064C80.3311 114.312 79.9991 114.668 79.7591 115.132C79.5271 115.596 79.4111 116.136 79.4111 116.752C79.4111 117.368 79.5271 117.908 79.7591 118.372C79.9991 118.836 80.3311 119.192 80.7551 119.44C81.1791 119.688 81.6631 119.812 82.2071 119.812C82.7431 119.812 83.2191 119.688 83.6351 119.44C84.0591 119.192 84.3871 118.836 84.6191 118.372C84.8591 117.908 84.9791 117.368 84.9791 116.752C84.9791 116.136 84.8591 115.596 84.6191 115.132C84.3871 114.668 84.0591 114.312 83.6351 114.064C83.2191 113.816 82.7431 113.692 82.2071 113.692ZM89.1315 119.932H92.0595V121H87.7635V112.528H89.1315V119.932Z" fill="white"/>
<path d="M42.9338 133.94V141H41.7838V137.83H38.4638V141H37.3238V133.94H38.4638V136.9H41.7838V133.94H42.9338ZM47.586 133.85C48.2393 133.85 48.8293 134.003 49.356 134.31C49.8893 134.617 50.306 135.047 50.606 135.6C50.9126 136.147 51.066 136.767 51.066 137.46C51.066 138.153 50.9126 138.777 50.606 139.33C50.306 139.877 49.8893 140.307 49.356 140.62C48.8293 140.927 48.2393 141.08 47.586 141.08C46.926 141.08 46.3293 140.927 45.796 140.62C45.2693 140.307 44.8526 139.877 44.546 139.33C44.2393 138.777 44.086 138.153 44.086 137.46C44.086 136.767 44.2393 136.147 44.546 135.6C44.8526 135.047 45.2693 134.617 45.796 134.31C46.3293 134.003 46.926 133.85 47.586 133.85ZM47.586 134.91C47.1326 134.91 46.7293 135.013 46.376 135.22C46.0226 135.427 45.746 135.723 45.546 136.11C45.3526 136.497 45.256 136.947 45.256 137.46C45.256 137.973 45.3526 138.423 45.546 138.81C45.746 139.197 46.0226 139.493 46.376 139.7C46.7293 139.907 47.1326 140.01 47.586 140.01C48.0326 140.01 48.4293 139.907 48.776 139.7C49.1293 139.493 49.4026 139.197 49.596 138.81C49.796 138.423 49.896 137.973 49.896 137.46C49.896 136.947 49.796 136.497 49.596 136.11C49.4026 135.723 49.1293 135.427 48.776 135.22C48.4293 135.013 48.0326 134.91 47.586 134.91ZM53.3564 140.11H55.7964V141H52.2164V133.94H53.3564V140.11ZM62.749 137.46C62.749 138.173 62.6024 138.797 62.309 139.33C62.0224 139.857 61.599 140.267 61.039 140.56C60.4857 140.853 59.8224 141 59.049 141H56.689V133.94H59.049C59.8224 133.94 60.4857 134.087 61.039 134.38C61.599 134.667 62.0224 135.073 62.309 135.6C62.6024 136.127 62.749 136.747 62.749 137.46ZM58.959 139.97C59.8057 139.97 60.4557 139.75 60.909 139.31C61.3624 138.87 61.589 138.253 61.589 137.46C61.589 136.667 61.3624 136.05 60.909 135.61C60.4557 135.17 59.8057 134.95 58.959 134.95H57.829V139.97H58.959ZM68.5498 133.72C69.0165 133.72 69.4165 133.803 69.7498 133.97C70.0831 134.13 70.3331 134.353 70.4998 134.64C70.6731 134.927 70.7598 135.247 70.7598 135.6C70.7598 136.047 70.6331 136.42 70.3798 136.72C70.1331 137.013 69.7831 137.19 69.3298 137.25V137.3C69.8165 137.44 70.1965 137.65 70.4698 137.93C70.7498 138.203 70.8898 138.583 70.8898 139.07C70.8898 139.663 70.6931 140.147 70.2998 140.52C69.9065 140.887 69.3431 141.07 68.6098 141.07C67.8565 141.07 67.2498 140.88 66.7898 140.5C66.3298 140.113 66.0665 139.543 65.9998 138.79H67.1298C67.1698 139.19 67.3131 139.51 67.5598 139.75C67.8065 139.983 68.1398 140.1 68.5598 140.1C68.9531 140.1 69.2531 139.997 69.4598 139.79C69.6731 139.583 69.7798 139.317 69.7798 138.99C69.7798 138.597 69.6265 138.297 69.3198 138.09C69.0198 137.883 68.5831 137.78 68.0098 137.78H67.7398V136.84H68.0098C69.0965 136.853 69.6398 136.483 69.6398 135.73C69.6398 135.403 69.5398 135.147 69.3398 134.96C69.1398 134.773 68.8665 134.68 68.5198 134.68C68.1731 134.68 67.8831 134.787 67.6498 135C67.4165 135.207 67.2765 135.51 67.2298 135.91H66.1098C66.1565 135.217 66.3898 134.68 66.8098 134.3C67.2298 133.913 67.8098 133.72 68.5498 133.72ZM79.1611 139.12C79.1611 139.467 79.0777 139.79 78.9111 140.09C78.7444 140.383 78.4911 140.62 78.1511 140.8C77.8111 140.98 77.3944 141.07 76.9011 141.07C76.4211 141.07 75.9911 140.987 75.6111 140.82C75.2311 140.647 74.9277 140.407 74.7011 140.1C74.4744 139.793 74.3444 139.44 74.3111 139.04H75.5311C75.5644 139.347 75.6944 139.61 75.9211 139.83C76.1544 140.05 76.4644 140.16 76.8511 140.16C77.1977 140.16 77.4644 140.067 77.6511 139.88C77.8444 139.693 77.9411 139.453 77.9411 139.16C77.9411 138.907 77.8711 138.7 77.7311 138.54C77.5911 138.373 77.4177 138.243 77.2111 138.15C77.0044 138.057 76.7211 137.95 76.3611 137.83C75.9211 137.69 75.5611 137.55 75.2811 137.41C75.0077 137.27 74.7744 137.067 74.5811 136.8C74.3877 136.533 74.2911 136.183 74.2911 135.75C74.2911 135.37 74.3844 135.037 74.5711 134.75C74.7577 134.463 75.0244 134.243 75.3711 134.09C75.7177 133.93 76.1177 133.85 76.5711 133.85C77.2911 133.85 77.8611 134.023 78.2811 134.37C78.7077 134.717 78.9511 135.17 79.0111 135.73H77.7811C77.7344 135.463 77.6077 135.237 77.4011 135.05C77.2011 134.857 76.9244 134.76 76.5711 134.76C76.2511 134.76 75.9944 134.843 75.8011 135.01C75.6077 135.17 75.5111 135.403 75.5111 135.71C75.5111 135.95 75.5777 136.15 75.7111 136.31C75.8444 136.463 76.0111 136.587 76.2111 136.68C76.4177 136.767 76.6977 136.87 77.0511 136.99C77.4977 137.13 77.8611 137.273 78.1411 137.42C78.4277 137.56 78.6677 137.767 78.8611 138.04C79.0611 138.313 79.1611 138.673 79.1611 139.12ZM81.4423 134.86V137H84.0423V137.88H81.4423V140.07H84.3423V141H80.3023V133.94H84.3423V134.86H81.4423ZM88.5988 133.87C89.4655 133.87 90.1855 134.09 90.7588 134.53C91.3321 134.97 91.7188 135.567 91.9188 136.32H90.7088C90.5421 135.893 90.2755 135.557 89.9088 135.31C89.5488 135.057 89.1055 134.93 88.5788 134.93C88.1588 134.93 87.7821 135.033 87.4488 135.24C87.1221 135.447 86.8621 135.743 86.6688 136.13C86.4821 136.51 86.3888 136.957 86.3888 137.47C86.3888 137.977 86.4821 138.423 86.6688 138.81C86.8621 139.19 87.1221 139.483 87.4488 139.69C87.7821 139.897 88.1588 140 88.5788 140C89.1055 140 89.5488 139.877 89.9088 139.63C90.2755 139.377 90.5421 139.04 90.7088 138.62H91.9188C91.7188 139.373 91.3321 139.97 90.7588 140.41C90.1855 140.843 89.4655 141.06 88.5988 141.06C87.9321 141.06 87.3421 140.91 86.8288 140.61C86.3155 140.303 85.9188 139.88 85.6388 139.34C85.3588 138.793 85.2188 138.17 85.2188 137.47C85.2188 136.77 85.3588 136.15 85.6388 135.61C85.9188 135.063 86.3155 134.637 86.8288 134.33C87.3421 134.023 87.9321 133.87 88.5988 133.87Z" fill="white"/>
<path d="M304.641 100.528V101.632H302.277V109H300.897V101.632H298.545V100.528H304.641ZM307.03 100.528V109H305.662V100.528H307.03ZM317.469 100.66V109H316.089V102.748L313.677 109H312.477L310.053 102.748V109H308.685V100.66H310.341L313.101 107.32L315.813 100.66H317.469ZM320.483 101.632V104.2H323.603V105.256H320.483V107.884H323.963V109H319.115V100.528H323.963V101.632H320.483ZM329.743 109L327.631 105.616H326.659V109H325.291V100.528H328.279C329.247 100.528 329.979 100.764 330.475 101.236C330.979 101.708 331.231 102.332 331.231 103.108C331.231 103.772 331.043 104.316 330.667 104.74C330.299 105.164 329.763 105.436 329.059 105.556L331.279 109H329.743ZM326.659 104.644H328.171C329.275 104.644 329.827 104.156 329.827 103.18C329.827 102.716 329.691 102.356 329.419 102.1C329.155 101.836 328.739 101.704 328.171 101.704H326.659V104.644Z" fill="white"/>
<path d="M290.052 123.744C290.052 124.16 289.952 124.548 289.752 124.908C289.552 125.26 289.248 125.544 288.84 125.76C288.432 125.976 287.932 126.084 287.34 126.084C286.764 126.084 286.248 125.984 285.792 125.784C285.336 125.576 284.972 125.288 284.7 124.92C284.428 124.552 284.272 124.128 284.232 123.648H285.696C285.736 124.016 285.892 124.332 286.164 124.596C286.444 124.86 286.816 124.992 287.28 124.992C287.696 124.992 288.016 124.88 288.24 124.656C288.472 124.432 288.588 124.144 288.588 123.792C288.588 123.488 288.504 123.24 288.336 123.048C288.168 122.848 287.96 122.692 287.712 122.58C287.464 122.468 287.124 122.34 286.692 122.196C286.164 122.028 285.732 121.86 285.396 121.692C285.068 121.524 284.788 121.28 284.556 120.96C284.324 120.64 284.208 120.22 284.208 119.7C284.208 119.244 284.32 118.844 284.544 118.5C284.768 118.156 285.088 117.892 285.504 117.708C285.92 117.516 286.4 117.42 286.944 117.42C287.808 117.42 288.492 117.628 288.996 118.044C289.508 118.46 289.8 119.004 289.872 119.676H288.396C288.34 119.356 288.188 119.084 287.94 118.86C287.7 118.628 287.368 118.512 286.944 118.512C286.56 118.512 286.252 118.612 286.02 118.812C285.788 119.004 285.672 119.284 285.672 119.652C285.672 119.94 285.752 120.18 285.912 120.372C286.072 120.556 286.272 120.704 286.512 120.816C286.76 120.92 287.096 121.044 287.52 121.188C288.056 121.356 288.492 121.528 288.828 121.704C289.172 121.872 289.46 122.12 289.692 122.448C289.932 122.776 290.052 123.208 290.052 123.744ZM296.87 117.528V118.632H294.506V126H293.126V118.632H290.774V117.528H296.87ZM302.943 124.164H299.367L298.719 126H297.255L300.375 117.66H301.947L305.055 126H303.591L302.943 124.164ZM302.559 123.108L301.155 119.148L299.751 123.108H302.559ZM310.522 126L308.41 122.616H307.438V126H306.07V117.528H309.058C310.026 117.528 310.758 117.764 311.254 118.236C311.758 118.708 312.01 119.332 312.01 120.108C312.01 120.772 311.822 121.316 311.446 121.74C311.078 122.164 310.542 122.436 309.838 122.556L312.058 126H310.522ZM307.438 121.644H308.95C310.054 121.644 310.606 121.156 310.606 120.18C310.606 119.716 310.47 119.356 310.198 119.1C309.934 118.836 309.518 118.704 308.95 118.704H307.438V121.644ZM318.69 117.528V118.632H316.326V126H314.946V118.632H312.594V117.528H318.69ZM323.467 114.672L320.203 128.112H318.871L322.135 114.672H323.467ZM328.17 117.42C328.954 117.42 329.662 117.604 330.294 117.972C330.934 118.34 331.434 118.856 331.794 119.52C332.162 120.176 332.346 120.92 332.346 121.752C332.346 122.584 332.162 123.332 331.794 123.996C331.434 124.652 330.934 125.168 330.294 125.544C329.662 125.912 328.954 126.096 328.17 126.096C327.378 126.096 326.662 125.912 326.022 125.544C325.39 125.168 324.89 124.652 324.522 123.996C324.154 123.332 323.97 122.584 323.97 121.752C323.97 120.92 324.154 120.176 324.522 119.52C324.89 118.856 325.39 118.34 326.022 117.972C326.662 117.604 327.378 117.42 328.17 117.42ZM328.17 118.692C327.626 118.692 327.142 118.816 326.718 119.064C326.294 119.312 325.962 119.668 325.722 120.132C325.49 120.596 325.374 121.136 325.374 121.752C325.374 122.368 325.49 122.908 325.722 123.372C325.962 123.836 326.294 124.192 326.718 124.44C327.142 124.688 327.626 124.812 328.17 124.812C328.706 124.812 329.182 124.688 329.598 124.44C330.022 124.192 330.35 123.836 330.582 123.372C330.822 122.908 330.942 122.368 330.942 121.752C330.942 121.136 330.822 120.596 330.582 120.132C330.35 119.668 330.022 119.312 329.598 119.064C329.182 118.816 328.706 118.692 328.17 118.692ZM338.73 117.528V118.632H335.094V121.26H338.094V122.316H335.094V126H333.726V117.528H338.73ZM344.953 117.528V118.632H341.317V121.26H344.317V122.316H341.317V126H339.949V117.528H344.953Z" fill="white"/>
<path d="M31 94.5H94" stroke="white" stroke-linejoin="round"/>
<path d="M31 130.5H94" stroke="white" stroke-linejoin="round"/>
<path d="M282 95.5H347" stroke="white" stroke-linejoin="round"/>
<path d="M297 113.5H335" stroke="white" stroke-linejoin="round"/>
<path d="M282 131.5H347" stroke="white" stroke-linejoin="round"/>
</svg>
