<svg width="375" height="232" viewBox="0 0 375 232" fill="none" xmlns="http://www.w3.org/2000/svg">
<mask id="path-1-inside-1_521:1500" fill="white">
<rect x="19" y="79" width="336" height="74" rx="1"/>
</mask>
<rect x="19" y="79" width="336" height="74" rx="1" stroke="white" stroke-width="4" mask="url(#path-1-inside-1_521:1500)"/>
<g opacity="0.25">
<path d="M51.1045 108.496H54.0325V109.564H49.7365V101.092H51.1045V108.496ZM59.0277 100.984C59.8117 100.984 60.5197 101.168 61.1517 101.536C61.7917 101.904 62.2917 102.42 62.6517 103.084C63.0197 103.74 63.2037 104.484 63.2037 105.316C63.2037 106.148 63.0197 106.896 62.6517 107.56C62.2917 108.216 61.7917 108.732 61.1517 109.108C60.5197 109.476 59.8117 109.66 59.0277 109.66C58.2357 109.66 57.5197 109.476 56.8797 109.108C56.2477 108.732 55.7477 108.216 55.3797 107.56C55.0117 106.896 54.8277 106.148 54.8277 105.316C54.8277 104.484 55.0117 103.74 55.3797 103.084C55.7477 102.42 56.2477 101.904 56.8797 101.536C57.5197 101.168 58.2357 100.984 59.0277 100.984ZM59.0277 102.256C58.4837 102.256 57.9997 102.38 57.5757 102.628C57.1517 102.876 56.8197 103.232 56.5797 103.696C56.3477 104.16 56.2317 104.7 56.2317 105.316C56.2317 105.932 56.3477 106.472 56.5797 106.936C56.8197 107.4 57.1517 107.756 57.5757 108.004C57.9997 108.252 58.4837 108.376 59.0277 108.376C59.5637 108.376 60.0397 108.252 60.4557 108.004C60.8797 107.756 61.2077 107.4 61.4397 106.936C61.6797 106.472 61.7997 105.932 61.7997 105.316C61.7997 104.7 61.6797 104.16 61.4397 103.696C61.2077 103.232 60.8797 102.876 60.4557 102.628C60.0397 102.38 59.5637 102.256 59.0277 102.256ZM68.3642 101.008C69.4042 101.008 70.2682 101.272 70.9562 101.8C71.6442 102.328 72.1082 103.044 72.3482 103.948H70.8962C70.6962 103.436 70.3762 103.032 69.9362 102.736C69.5042 102.432 68.9722 102.28 68.3402 102.28C67.8362 102.28 67.3842 102.404 66.9842 102.652C66.5922 102.9 66.2802 103.256 66.0482 103.72C65.8242 104.176 65.7122 104.712 65.7122 105.328C65.7122 105.936 65.8242 106.472 66.0482 106.936C66.2802 107.392 66.5922 107.744 66.9842 107.992C67.3842 108.24 67.8362 108.364 68.3402 108.364C68.9722 108.364 69.5042 108.216 69.9362 107.92C70.3762 107.616 70.6962 107.212 70.8962 106.708H72.3482C72.1082 107.612 71.6442 108.328 70.9562 108.856C70.2682 109.376 69.4042 109.636 68.3642 109.636C67.5642 109.636 66.8562 109.456 66.2402 109.096C65.6242 108.728 65.1482 108.22 64.8122 107.572C64.4762 106.916 64.3082 106.168 64.3082 105.328C64.3082 104.488 64.4762 103.744 64.8122 103.096C65.1482 102.44 65.6242 101.928 66.2402 101.56C66.8562 101.192 67.5642 101.008 68.3642 101.008ZM76.3651 105.28L80.0971 109.564H78.4291L75.0811 105.64V109.564H73.7131V101.092H75.0811V104.968L78.4411 101.092H80.0971L76.3651 105.28ZM41.4052 113.008C42.4452 113.008 43.3092 113.272 43.9972 113.8C44.6852 114.328 45.1492 115.044 45.3892 115.948H43.9372C43.7372 115.436 43.4172 115.032 42.9772 114.736C42.5452 114.432 42.0132 114.28 41.3812 114.28C40.8772 114.28 40.4252 114.404 40.0252 114.652C39.6332 114.9 39.3212 115.256 39.0892 115.72C38.8652 116.176 38.7532 116.712 38.7532 117.328C38.7532 117.936 38.8652 118.472 39.0892 118.936C39.3212 119.392 39.6332 119.744 40.0252 119.992C40.4252 120.24 40.8772 120.364 41.3812 120.364C42.0132 120.364 42.5452 120.216 42.9772 119.92C43.4172 119.616 43.7372 119.212 43.9372 118.708H45.3892C45.1492 119.612 44.6852 120.328 43.9972 120.856C43.3092 121.376 42.4452 121.636 41.4052 121.636C40.6052 121.636 39.8972 121.456 39.2812 121.096C38.6652 120.728 38.1892 120.22 37.8532 119.572C37.5172 118.916 37.3492 118.168 37.3492 117.328C37.3492 116.488 37.5172 115.744 37.8532 115.096C38.1892 114.44 38.6652 113.928 39.2812 113.56C39.8972 113.192 40.6052 113.008 41.4052 113.008ZM50.6781 112.984C51.4621 112.984 52.1701 113.168 52.8021 113.536C53.4421 113.904 53.9421 114.42 54.3021 115.084C54.6701 115.74 54.8541 116.484 54.8541 117.316C54.8541 118.148 54.6701 118.896 54.3021 119.56C53.9421 120.216 53.4421 120.732 52.8021 121.108C52.1701 121.476 51.4621 121.66 50.6781 121.66C49.8861 121.66 49.1701 121.476 48.5301 121.108C47.8981 120.732 47.3981 120.216 47.0301 119.56C46.6621 118.896 46.4781 118.148 46.4781 117.316C46.4781 116.484 46.6621 115.74 47.0301 115.084C47.3981 114.42 47.8981 113.904 48.5301 113.536C49.1701 113.168 49.8861 112.984 50.6781 112.984ZM50.6781 114.256C50.1341 114.256 49.6501 114.38 49.2261 114.628C48.8021 114.876 48.4701 115.232 48.2301 115.696C47.9981 116.16 47.8821 116.7 47.8821 117.316C47.8821 117.932 47.9981 118.472 48.2301 118.936C48.4701 119.4 48.8021 119.756 49.2261 120.004C49.6501 120.252 50.1341 120.376 50.6781 120.376C51.2141 120.376 51.6901 120.252 52.1061 120.004C52.5301 119.756 52.8581 119.4 53.0901 118.936C53.3301 118.472 53.4501 117.932 53.4501 117.316C53.4501 116.7 53.3301 116.16 53.0901 115.696C52.8581 115.232 52.5301 114.876 52.1061 114.628C51.6901 114.38 51.2141 114.256 50.6781 114.256ZM63.0866 121.564H61.7186L57.6026 115.312V121.564H56.2346V113.104H57.6026L61.7186 119.38V113.104H63.0866V121.564ZM70.1904 113.092V114.196H67.8264V121.564H66.4464V114.196H64.0944V113.092H70.1904ZM75.6632 121.564L73.5512 118.18H72.5792V121.564H71.2112V113.092H74.1992C75.1672 113.092 75.8992 113.328 76.3952 113.8C76.8992 114.272 77.1512 114.896 77.1512 115.672C77.1512 116.336 76.9632 116.88 76.5872 117.304C76.2192 117.728 75.6832 118 74.9792 118.12L77.1992 121.564H75.6632ZM72.5792 117.208H74.0912C75.1952 117.208 75.7472 116.72 75.7472 115.744C75.7472 115.28 75.6112 114.92 75.3392 114.664C75.0752 114.4 74.6592 114.268 74.0912 114.268H72.5792V117.208ZM82.307 112.984C83.091 112.984 83.799 113.168 84.431 113.536C85.071 113.904 85.571 114.42 85.931 115.084C86.299 115.74 86.483 116.484 86.483 117.316C86.483 118.148 86.299 118.896 85.931 119.56C85.571 120.216 85.071 120.732 84.431 121.108C83.799 121.476 83.091 121.66 82.307 121.66C81.515 121.66 80.799 121.476 80.159 121.108C79.527 120.732 79.027 120.216 78.659 119.56C78.291 118.896 78.107 118.148 78.107 117.316C78.107 116.484 78.291 115.74 78.659 115.084C79.027 114.42 79.527 113.904 80.159 113.536C80.799 113.168 81.515 112.984 82.307 112.984ZM82.307 114.256C81.763 114.256 81.279 114.38 80.855 114.628C80.431 114.876 80.099 115.232 79.859 115.696C79.627 116.16 79.511 116.7 79.511 117.316C79.511 117.932 79.627 118.472 79.859 118.936C80.099 119.4 80.431 119.756 80.855 120.004C81.279 120.252 81.763 120.376 82.307 120.376C82.843 120.376 83.319 120.252 83.735 120.004C84.159 119.756 84.487 119.4 84.719 118.936C84.959 118.472 85.079 117.932 85.079 117.316C85.079 116.7 84.959 116.16 84.719 115.696C84.487 115.232 84.159 114.876 83.735 114.628C83.319 114.38 82.843 114.256 82.307 114.256ZM89.2315 120.496H92.1595V121.564H87.8635V113.092H89.2315V120.496Z" fill="white"/>
<path d="M43.0337 133.964V141.024H41.8837V137.854H38.5637V141.024H37.4237V133.964H38.5637V136.924H41.8837V133.964H43.0337ZM47.6859 133.874C48.3393 133.874 48.9293 134.027 49.4559 134.334C49.9893 134.641 50.4059 135.071 50.7059 135.624C51.0126 136.171 51.1659 136.791 51.1659 137.484C51.1659 138.177 51.0126 138.801 50.7059 139.354C50.4059 139.901 49.9893 140.331 49.4559 140.644C48.9293 140.951 48.3393 141.104 47.6859 141.104C47.0259 141.104 46.4293 140.951 45.8959 140.644C45.3693 140.331 44.9526 139.901 44.6459 139.354C44.3393 138.801 44.1859 138.177 44.1859 137.484C44.1859 136.791 44.3393 136.171 44.6459 135.624C44.9526 135.071 45.3693 134.641 45.8959 134.334C46.4293 134.027 47.0259 133.874 47.6859 133.874ZM47.6859 134.934C47.2326 134.934 46.8293 135.037 46.4759 135.244C46.1226 135.451 45.8459 135.747 45.6459 136.134C45.4526 136.521 45.3559 136.971 45.3559 137.484C45.3559 137.997 45.4526 138.447 45.6459 138.834C45.8459 139.221 46.1226 139.517 46.4759 139.724C46.8293 139.931 47.2326 140.034 47.6859 140.034C48.1326 140.034 48.5293 139.931 48.8759 139.724C49.2293 139.517 49.5026 139.221 49.6959 138.834C49.8959 138.447 49.9959 137.997 49.9959 137.484C49.9959 136.971 49.8959 136.521 49.6959 136.134C49.5026 135.747 49.2293 135.451 48.8759 135.244C48.5293 135.037 48.1326 134.934 47.6859 134.934ZM53.4563 140.134H55.8963V141.024H52.3163V133.964H53.4563V140.134ZM62.849 137.484C62.849 138.197 62.7023 138.821 62.409 139.354C62.1223 139.881 61.699 140.291 61.139 140.584C60.5856 140.877 59.9223 141.024 59.149 141.024H56.789V133.964H59.149C59.9223 133.964 60.5856 134.111 61.139 134.404C61.699 134.691 62.1223 135.097 62.409 135.624C62.7023 136.151 62.849 136.771 62.849 137.484ZM59.059 139.994C59.9056 139.994 60.5556 139.774 61.009 139.334C61.4623 138.894 61.689 138.277 61.689 137.484C61.689 136.691 61.4623 136.074 61.009 135.634C60.5556 135.194 59.9056 134.974 59.059 134.974H57.929V139.994H59.059ZM68.6498 133.744C69.1164 133.744 69.5164 133.827 69.8498 133.994C70.1831 134.154 70.4331 134.377 70.5998 134.664C70.7731 134.951 70.8598 135.271 70.8598 135.624C70.8598 136.071 70.7331 136.444 70.4798 136.744C70.2331 137.037 69.8831 137.214 69.4298 137.274V137.324C69.9164 137.464 70.2964 137.674 70.5698 137.954C70.8498 138.227 70.9898 138.607 70.9898 139.094C70.9898 139.687 70.7931 140.171 70.3998 140.544C70.0064 140.911 69.4431 141.094 68.7098 141.094C67.9564 141.094 67.3498 140.904 66.8898 140.524C66.4298 140.137 66.1664 139.567 66.0998 138.814H67.2298C67.2698 139.214 67.4131 139.534 67.6598 139.774C67.9064 140.007 68.2398 140.124 68.6598 140.124C69.0531 140.124 69.3531 140.021 69.5598 139.814C69.7731 139.607 69.8798 139.341 69.8798 139.014C69.8798 138.621 69.7264 138.321 69.4198 138.114C69.1198 137.907 68.6831 137.804 68.1098 137.804H67.8398V136.864H68.1098C69.1964 136.877 69.7398 136.507 69.7398 135.754C69.7398 135.427 69.6398 135.171 69.4398 134.984C69.2398 134.797 68.9664 134.704 68.6198 134.704C68.2731 134.704 67.9831 134.811 67.7498 135.024C67.5164 135.231 67.3764 135.534 67.3298 135.934H66.2098C66.2564 135.241 66.4898 134.704 66.9098 134.324C67.3298 133.937 67.9098 133.744 68.6498 133.744ZM79.261 139.144C79.261 139.491 79.1777 139.814 79.011 140.114C78.8443 140.407 78.591 140.644 78.251 140.824C77.911 141.004 77.4943 141.094 77.001 141.094C76.521 141.094 76.091 141.011 75.711 140.844C75.331 140.671 75.0277 140.431 74.801 140.124C74.5743 139.817 74.4443 139.464 74.411 139.064H75.631C75.6643 139.371 75.7943 139.634 76.021 139.854C76.2543 140.074 76.5643 140.184 76.951 140.184C77.2977 140.184 77.5643 140.091 77.751 139.904C77.9443 139.717 78.041 139.477 78.041 139.184C78.041 138.931 77.971 138.724 77.831 138.564C77.691 138.397 77.5177 138.267 77.311 138.174C77.1043 138.081 76.821 137.974 76.461 137.854C76.021 137.714 75.661 137.574 75.381 137.434C75.1077 137.294 74.8743 137.091 74.681 136.824C74.4877 136.557 74.391 136.207 74.391 135.774C74.391 135.394 74.4843 135.061 74.671 134.774C74.8577 134.487 75.1243 134.267 75.471 134.114C75.8177 133.954 76.2177 133.874 76.671 133.874C77.391 133.874 77.961 134.047 78.381 134.394C78.8077 134.741 79.051 135.194 79.111 135.754H77.881C77.8343 135.487 77.7077 135.261 77.501 135.074C77.301 134.881 77.0243 134.784 76.671 134.784C76.351 134.784 76.0943 134.867 75.901 135.034C75.7077 135.194 75.611 135.427 75.611 135.734C75.611 135.974 75.6777 136.174 75.811 136.334C75.9443 136.487 76.111 136.611 76.311 136.704C76.5177 136.791 76.7977 136.894 77.151 137.014C77.5977 137.154 77.961 137.297 78.241 137.444C78.5277 137.584 78.7677 137.791 78.961 138.064C79.161 138.337 79.261 138.697 79.261 139.144ZM81.5423 134.884V137.024H84.1423V137.904H81.5423V140.094H84.4423V141.024H80.4023V133.964H84.4423V134.884H81.5423ZM88.6987 133.894C89.5654 133.894 90.2854 134.114 90.8587 134.554C91.4321 134.994 91.8187 135.591 92.0187 136.344H90.8087C90.6421 135.917 90.3754 135.581 90.0087 135.334C89.6487 135.081 89.2054 134.954 88.6787 134.954C88.2587 134.954 87.8821 135.057 87.5487 135.264C87.2221 135.471 86.9621 135.767 86.7687 136.154C86.5821 136.534 86.4887 136.981 86.4887 137.494C86.4887 138.001 86.5821 138.447 86.7687 138.834C86.9621 139.214 87.2221 139.507 87.5487 139.714C87.8821 139.921 88.2587 140.024 88.6787 140.024C89.2054 140.024 89.6487 139.901 90.0087 139.654C90.3754 139.401 90.6421 139.064 90.8087 138.644H92.0187C91.8187 139.397 91.4321 139.994 90.8587 140.434C90.2854 140.867 89.5654 141.084 88.6987 141.084C88.0321 141.084 87.4421 140.934 86.9287 140.634C86.4154 140.327 86.0187 139.904 85.7387 139.364C85.4587 138.817 85.3187 138.194 85.3187 137.494C85.3187 136.794 85.4587 136.174 85.7387 135.634C86.0187 135.087 86.4154 134.661 86.9287 134.354C87.4421 134.047 88.0321 133.894 88.6987 133.894Z" fill="white"/>
<path d="M31 93.5304H94" stroke="white" stroke-linejoin="round"/>
<path d="M31 129.598H94" stroke="white" stroke-linejoin="round"/>
</g>
<g opacity="0.25">
<path d="M304.641 101.071V102.175H302.277V109.543H300.897V102.175H298.545V101.071H304.641ZM307.03 101.071V109.543H305.662V101.071H307.03ZM317.47 101.203V109.543H316.09V103.291L313.678 109.543H312.478L310.054 103.291V109.543H308.686V101.203H310.342L313.102 107.863L315.814 101.203H317.47ZM320.483 102.175V104.743H323.603V105.799H320.483V108.427H323.963V109.543H319.115V101.071H323.963V102.175H320.483ZM329.743 109.543L327.631 106.159H326.659V109.543H325.291V101.071H328.279C329.247 101.071 329.979 101.307 330.475 101.779C330.979 102.251 331.231 102.875 331.231 103.651C331.231 104.315 331.043 104.859 330.667 105.283C330.299 105.707 329.763 105.979 329.059 106.099L331.279 109.543H329.743ZM326.659 105.187H328.171C329.275 105.187 329.827 104.699 329.827 103.723C329.827 103.259 329.691 102.899 329.419 102.643C329.155 102.379 328.739 102.247 328.171 102.247H326.659V105.187Z" fill="white"/>
<path d="M290.552 124.201C290.552 124.617 290.452 125.005 290.252 125.365C290.052 125.717 289.748 126.001 289.34 126.217C288.932 126.433 288.432 126.541 287.84 126.541C287.264 126.541 286.748 126.441 286.292 126.241C285.836 126.033 285.472 125.745 285.2 125.377C284.928 125.009 284.772 124.585 284.732 124.105H286.196C286.236 124.473 286.392 124.789 286.664 125.053C286.944 125.317 287.316 125.449 287.78 125.449C288.196 125.449 288.516 125.337 288.74 125.113C288.972 124.889 289.088 124.601 289.088 124.249C289.088 123.945 289.004 123.697 288.836 123.505C288.668 123.305 288.46 123.149 288.212 123.037C287.964 122.925 287.624 122.797 287.192 122.653C286.664 122.485 286.232 122.317 285.896 122.149C285.568 121.981 285.288 121.737 285.056 121.417C284.824 121.097 284.708 120.677 284.708 120.157C284.708 119.701 284.82 119.301 285.044 118.957C285.268 118.613 285.588 118.349 286.004 118.165C286.42 117.973 286.9 117.877 287.444 117.877C288.308 117.877 288.992 118.085 289.496 118.501C290.008 118.917 290.3 119.461 290.372 120.133H288.896C288.84 119.813 288.688 119.541 288.44 119.317C288.2 119.085 287.868 118.969 287.444 118.969C287.06 118.969 286.752 119.069 286.52 119.269C286.288 119.461 286.172 119.741 286.172 120.109C286.172 120.397 286.252 120.637 286.412 120.829C286.572 121.013 286.772 121.161 287.012 121.273C287.26 121.377 287.596 121.501 288.02 121.645C288.556 121.813 288.992 121.985 289.328 122.161C289.672 122.329 289.96 122.577 290.192 122.905C290.432 123.233 290.552 123.665 290.552 124.201ZM297.37 117.985V119.089H295.006V126.457H293.626V119.089H291.274V117.985H297.37ZM303.443 124.621H299.867L299.219 126.457H297.755L300.875 118.117H302.447L305.555 126.457H304.091L303.443 124.621ZM303.059 123.565L301.655 119.605L300.251 123.565H303.059ZM311.022 126.457L308.91 123.073H307.938V126.457H306.57V117.985H309.558C310.526 117.985 311.258 118.221 311.754 118.693C312.258 119.165 312.51 119.789 312.51 120.565C312.51 121.229 312.322 121.773 311.946 122.197C311.578 122.621 311.042 122.893 310.338 123.013L312.558 126.457H311.022ZM307.938 122.101H309.45C310.554 122.101 311.106 121.613 311.106 120.637C311.106 120.173 310.97 119.813 310.698 119.557C310.434 119.293 310.018 119.161 309.45 119.161H307.938V122.101ZM319.19 117.985V119.089H316.826V126.457H315.446V119.089H313.094V117.985H319.19ZM323.967 115.129L320.703 128.569H319.371L322.635 115.129H323.967ZM328.67 117.877C329.454 117.877 330.162 118.061 330.794 118.429C331.434 118.797 331.934 119.313 332.294 119.977C332.662 120.633 332.846 121.377 332.846 122.209C332.846 123.041 332.662 123.789 332.294 124.453C331.934 125.109 331.434 125.625 330.794 126.001C330.162 126.369 329.454 126.553 328.67 126.553C327.878 126.553 327.162 126.369 326.522 126.001C325.89 125.625 325.39 125.109 325.022 124.453C324.654 123.789 324.47 123.041 324.47 122.209C324.47 121.377 324.654 120.633 325.022 119.977C325.39 119.313 325.89 118.797 326.522 118.429C327.162 118.061 327.878 117.877 328.67 117.877ZM328.67 119.149C328.126 119.149 327.642 119.273 327.218 119.521C326.794 119.769 326.462 120.125 326.222 120.589C325.99 121.053 325.874 121.593 325.874 122.209C325.874 122.825 325.99 123.365 326.222 123.829C326.462 124.293 326.794 124.649 327.218 124.897C327.642 125.145 328.126 125.269 328.67 125.269C329.206 125.269 329.682 125.145 330.098 124.897C330.522 124.649 330.85 124.293 331.082 123.829C331.322 123.365 331.442 122.825 331.442 122.209C331.442 121.593 331.322 121.053 331.082 120.589C330.85 120.125 330.522 119.769 330.098 119.521C329.682 119.273 329.206 119.149 328.67 119.149ZM339.23 117.985V119.089H335.594V121.717H338.594V122.773H335.594V126.457H334.226V117.985H339.23ZM345.453 117.985V119.089H341.817V121.717H344.817V122.773H341.817V126.457H340.449V117.985H345.453Z" fill="white"/>
<path d="M282 95.5286H348" stroke="white" stroke-linejoin="round"/>
<path d="M296.903 113.5H335.226" stroke="white" stroke-linejoin="round"/>
<path d="M282 131.471H348" stroke="white" stroke-linejoin="round"/>
</g>
<path d="M263.967 125V117.482H271V114.553H263.967V107H261V114.553H254V117.482H261V125H263.967Z" fill="white"/>
<path d="M126 117V114H112V117H126Z" fill="#FDBA12"/>
<path fill-rule="evenodd" clip-rule="evenodd" d="M152.735 114.62C152.735 115.13 152.286 115.597 151.796 115.597H150.898C150.449 115.597 150 115.13 150 114.62V100.935C150 100.468 150.449 100 150.898 100H152.735V114.62ZM166.122 101.87C166.122 102.38 165.673 102.848 165.224 102.848H154.776C154.327 102.848 153.878 102.38 153.878 101.87V100H166.122V101.87ZM169.102 115.597C169.551 115.597 170 115.13 170 114.62V100.935C170 100.468 169.551 100 169.102 100H167.265V114.62C167.265 115.13 167.714 115.597 168.204 115.597H169.102ZM152.735 118.87V134H150.898C150.449 134 150 133.533 150 133.065V118.87C150 118.403 150.449 117.935 150.898 117.935H151.796C152.286 117.935 152.735 118.403 152.735 118.87ZM169.102 134C169.551 134 170 133.533 170 133.065V118.87C170 118.403 169.551 117.935 169.102 117.935H168.204C167.714 117.935 167.265 118.403 167.265 118.87V134H169.102ZM166.122 131.62V134H153.878V131.62C153.878 131.153 154.327 130.685 154.776 130.685H165.224C165.673 130.685 166.122 131.153 166.122 131.62Z" fill="white"/>
<path fill-rule="evenodd" clip-rule="evenodd" d="M140.387 95.4521L139.654 96V90.6878L137.676 92.0389L137 91.1649L139.244 89.6328L137 88.1008L137.676 87.2268L139.654 88.5779V83.681V83L144.259 86.2608L145 86.7775L144.994 86.7815L144.948 86.8141L141.183 89.4848L144.259 91.6628L145 92.1796L144.994 92.1835L144.948 92.2161L140.387 95.4521ZM140.429 93.8333L142.714 92.2083L140.429 90.5833V93.8333ZM142.714 86.7917L140.429 88.4167V85.1667L142.714 86.7917Z" fill="white"/>
<path fill-rule="evenodd" clip-rule="evenodd" d="M196.224 117.896C196.673 117.896 197.122 117.413 197.122 116.931V115.965C197.122 115.483 196.673 115 196.224 115H185.776C185.327 115 184.878 115.483 184.878 115.965V116.931C184.878 117.413 185.327 117.896 185.776 117.896H196.224ZM183.735 134V118.379C183.735 117.896 183.286 117.413 182.796 117.413H181.898C181.449 117.413 181 117.896 181 118.379V133.035C181 133.517 181.449 134 181.898 134H183.735ZM201 133.035C201 133.517 200.551 134 200.102 134H198.265V118.379C198.265 117.896 198.714 117.413 199.204 117.413H200.102C200.551 117.413 201 117.896 201 118.379V133.035Z" fill="white"/>
</svg>
