<svg width="276" height="152" viewBox="0 0 276 152" fill="none" xmlns="http://www.w3.org/2000/svg">
<rect x="108.915" y="100.499" width="57.7421" height="36.8032" rx="2.72856" stroke="white" stroke-width="0.887008"/>
<rect x="81.2228" y="64.9018" width="35.0777" height="17.9581" rx="2.72856" stroke="white" stroke-width="0.887008"/>
<rect x="164.7" y="64.9018" width="35.0777" height="17.9581" rx="2.72856" stroke="white" stroke-width="0.887008"/>
<path d="M38.0394 129.53C32.3676 119.898 33.667 107.31 41.9376 99.0398C51.7512 89.2262 67.6601 89.2265 77.4728 99.0392C85.7357 107.302 87.041 119.901 81.3877 129.53" stroke="white" stroke-width="1.90324" stroke-linecap="round" stroke-linejoin="round"/>
<rect x="52.1199" y="111.489" width="15.1252" height="38.7066" rx="5.42057" stroke="white" stroke-width="2.53765"/>
<path d="M38.0394 48.8071C32.3676 39.1752 33.667 26.5873 41.9376 18.3166C51.7512 8.50306 67.6601 8.50331 77.4728 18.3161C85.7357 26.579 87.041 39.1783 81.3877 48.8071" stroke="white" stroke-width="1.90324" stroke-linecap="round" stroke-linejoin="round"/>
<rect x="52.1199" y="30.7657" width="15.1252" height="38.7066" rx="5.42057" stroke="white" stroke-width="2.53765"/>
<path d="M194.247 129.53C188.576 119.898 189.875 107.31 198.146 99.0393C207.959 89.2257 223.868 89.226 233.681 99.0387C241.944 107.302 243.249 119.901 237.596 129.53" stroke="white" stroke-width="1.90324" stroke-linecap="round" stroke-linejoin="round"/>
<rect x="208.328" y="111.489" width="15.1252" height="38.7066" rx="5.42057" stroke="white" stroke-width="2.53765"/>
<path d="M194.247 48.8066C188.576 39.1747 189.875 26.5868 198.146 18.3162C207.959 8.50257 223.868 8.50282 233.681 18.3156C241.944 26.5785 243.249 39.1778 237.596 48.8066" stroke="white" stroke-width="1.90324" stroke-linecap="round" stroke-linejoin="round"/>
<rect x="208.328" y="30.7654" width="15.1252" height="38.7066" rx="5.42057" stroke="white" stroke-width="2.53765"/>
<g opacity="0.25">
<path d="M116.143 48.8071C110.471 39.1752 111.77 26.5873 120.041 18.3166C129.855 8.50306 145.764 8.50331 155.576 18.3161C163.839 26.579 165.144 39.1783 159.491 48.8071" stroke="white" stroke-width="1.90324" stroke-linecap="round" stroke-linejoin="round"/>
<rect x="130.223" y="30.7657" width="15.1252" height="38.7066" rx="5.42057" stroke="white" stroke-width="2.53765"/>
</g>
<rect x="1.3499" y="100.942" width="19.5142" height="11.5311" rx="1.77402" fill="#FDBA12" stroke="white" stroke-width="1.77402"/>
<rect x="0.906395" y="136.415" width="20.4012" height="12.4181" rx="2.21752" stroke="white" stroke-width="0.887008"/>
<rect x="254.319" y="136.415" width="20.4012" height="12.4181" rx="2.21752" stroke="white" stroke-width="0.887008"/>
<rect x="254.319" y="100.499" width="20.4012" height="12.4181" rx="2.21752" stroke="white" stroke-width="0.887008"/>
</svg>
