<svg width="375" height="232" viewBox="0 0 375 232" fill="none" xmlns="http://www.w3.org/2000/svg">
<path d="M43.1183 161.983C37.534 152.482 38.8133 140.066 46.9563 131.908C56.6185 122.228 72.2818 122.228 81.9432 131.907C90.0786 140.057 91.3637 152.485 85.7977 161.983" stroke="white" stroke-width="2" stroke-linecap="round" stroke-linejoin="round"/>
<path d="M58.1191 154.199C56.2278 150.981 56.6616 146.775 59.4204 144.011C62.6939 140.731 67.9999 140.731 71.2723 144.009C74.0279 146.77 74.4627 150.98 72.5768 154.197" stroke="white" stroke-linecap="round" stroke-linejoin="round"/>
<path d="M93.0848 108.453C87.5005 98.9524 88.7799 86.536 96.9229 78.3781C106.585 68.6982 122.248 68.6985 131.91 78.3775C140.045 86.5278 141.33 98.9555 135.764 108.453" stroke="white" stroke-width="2" stroke-linecap="round" stroke-linejoin="round"/>
<path d="M107.192 99.7843C105.301 96.5661 105.735 92.36 108.494 89.5962C111.767 86.3167 117.073 86.3162 120.346 89.5946C123.101 92.3552 123.536 96.5651 121.65 99.7826" stroke="white" stroke-linecap="round" stroke-linejoin="round"/>
<path d="M237.519 108.453C231.935 98.9524 233.214 86.536 241.357 78.3781C251.019 68.6982 266.682 68.6985 276.344 78.3775C284.479 86.5279 285.764 98.9555 280.198 108.453" stroke="white" stroke-width="2" stroke-linecap="round" stroke-linejoin="round"/>
<path d="M251.626 99.7843C249.735 96.5661 250.169 92.36 252.928 89.5962C256.201 86.3167 261.507 86.3162 264.78 89.5946C267.535 92.3552 267.97 96.5651 266.084 99.7826" stroke="white" stroke-linecap="round" stroke-linejoin="round"/>
<path opacity="0.25" d="M165.514 95.5687C159.929 86.0681 161.209 73.6517 169.352 65.4937C179.014 55.8139 194.677 55.8141 204.338 65.4932C212.474 73.6435 213.759 86.0711 208.193 95.5687" stroke="white" stroke-width="2" stroke-linecap="round" stroke-linejoin="round"/>
<path opacity="0.25" d="M179.735 87.2018C177.873 84.035 178.3 79.8962 181.014 77.1768C184.235 73.9502 189.456 73.9503 192.676 77.1767C195.388 79.8934 195.816 84.036 193.961 87.2018" stroke="white" stroke-linecap="round" stroke-linejoin="round"/>
<path d="M287.461 162.256C281.877 152.756 283.156 140.339 291.299 132.181C300.961 122.501 316.624 122.502 326.286 132.181C334.421 140.331 335.706 152.759 330.14 162.256" stroke="white" stroke-width="2" stroke-linecap="round" stroke-linejoin="round"/>
<path d="M301.461 154.472C299.57 151.254 300.004 147.048 302.763 144.284C306.036 141.005 311.342 141.004 314.615 144.283C317.37 147.043 317.805 151.253 315.919 154.471" stroke="white" stroke-linecap="round" stroke-linejoin="round"/>
<rect x="205.228" y="154.691" width="49" height="28" rx="0.5" stroke="white"/>
<rect x="176.001" y="146.919" width="22" height="13" rx="2" fill="#FDBA12" stroke="white" stroke-width="2"/>
<circle cx="187.001" cy="173.919" r="8.5" stroke="white"/>
<path d="M192.945 139.676C194.322 138.465 195.296 136.862 195.737 135.082C196.178 133.302 196.064 131.43 195.412 129.716C194.759 128.002 193.599 126.528 192.085 125.492C190.572 124.456 188.778 123.907 186.945 123.919C185.111 123.93 183.324 124.502 181.824 125.557C180.324 126.612 179.182 128.1 178.551 129.821C177.92 131.543 177.83 133.417 178.293 135.191C178.756 136.966 179.75 138.556 181.142 139.75" stroke="white" stroke-linecap="round" stroke-linejoin="round"/>
</svg>
