<svg width="375" height="232" viewBox="0 0 375 232" fill="none" xmlns="http://www.w3.org/2000/svg">
<rect x="17" y="35" width="341" height="162" rx="15" stroke="white" stroke-width="2"/>
<path d="M52.144 55.592C53.5307 55.592 54.6827 55.944 55.6 56.648C56.5173 57.352 57.136 58.3067 57.456 59.512H55.52C55.2533 58.8293 54.8267 58.2907 54.24 57.896C53.664 57.4907 52.9547 57.288 52.112 57.288C51.44 57.288 50.8373 57.4533 50.304 57.784C49.7813 58.1147 49.3653 58.5893 49.056 59.208C48.7573 59.816 48.608 60.5307 48.608 61.352C48.608 62.1627 48.7573 62.8773 49.056 63.496C49.3653 64.104 49.7813 64.5733 50.304 64.904C50.8373 65.2347 51.44 65.4 52.112 65.4C52.9547 65.4 53.664 65.2027 54.24 64.808C54.8267 64.4027 55.2533 63.864 55.52 63.192H57.456C57.136 64.3973 56.5173 65.352 55.6 66.056C54.6827 66.7493 53.5307 67.096 52.144 67.096C51.0773 67.096 50.1333 66.856 49.312 66.376C48.4907 65.8853 47.856 65.208 47.408 64.344C46.96 63.4693 46.736 62.472 46.736 61.352C46.736 60.232 46.96 59.24 47.408 58.376C47.856 57.5013 48.4907 56.8187 49.312 56.328C50.1333 55.8373 51.0773 55.592 52.144 55.592ZM63.6279 58.072C64.4812 58.072 65.2492 58.2533 65.9319 58.616C66.6145 58.9787 67.1479 59.5013 67.5319 60.184C67.9159 60.8667 68.1079 61.6667 68.1079 62.584C68.1079 63.512 67.9159 64.3173 67.5319 65C67.1479 65.6827 66.6145 66.2053 65.9319 66.568C65.2492 66.9307 64.4812 67.112 63.6279 67.112C62.7745 67.112 62.0065 66.9307 61.3239 66.568C60.6519 66.2053 60.1185 65.6827 59.7239 65C59.3399 64.3067 59.1479 63.5013 59.1479 62.584C59.1479 61.6667 59.3399 60.8667 59.7239 60.184C60.1185 59.5013 60.6519 58.9787 61.3239 58.616C62.0065 58.2533 62.7745 58.072 63.6279 58.072ZM63.6279 59.656C63.1585 59.656 62.7265 59.7627 62.3319 59.976C61.9372 60.1893 61.6172 60.52 61.3719 60.968C61.1372 61.4053 61.0199 61.944 61.0199 62.584C61.0199 63.2347 61.1372 63.7787 61.3719 64.216C61.6172 64.6533 61.9372 64.9787 62.3319 65.192C62.7265 65.4053 63.1585 65.512 63.6279 65.512C64.0972 65.512 64.5292 65.4053 64.9239 65.192C65.3185 64.9787 65.6332 64.6533 65.8679 64.216C66.1132 63.7787 66.2359 63.2347 66.2359 62.584C66.2359 61.944 66.1132 61.4053 65.8679 60.968C65.6332 60.52 65.3185 60.1893 64.9239 59.976C64.5292 59.7627 64.0972 59.656 63.6279 59.656ZM75.1095 58.04C76.1335 58.04 76.9548 58.3707 77.5735 59.032C78.1922 59.6933 78.5015 60.6373 78.5015 61.864V67H76.6775V62.056C76.6775 61.2667 76.4748 60.6587 76.0695 60.232C75.6642 59.7947 75.1095 59.576 74.4055 59.576C73.6802 59.576 73.0988 59.8107 72.6615 60.28C72.2242 60.7387 72.0055 61.416 72.0055 62.312V67H70.1815V58.184H72.0055V60.12C72.2402 59.4587 72.6348 58.9467 73.1895 58.584C73.7442 58.2213 74.3842 58.04 75.1095 58.04ZM85.8826 58.04C86.9066 58.04 87.728 58.3707 88.3466 59.032C88.9653 59.6933 89.2746 60.6373 89.2746 61.864V67H87.4506V62.056C87.4506 61.2667 87.248 60.6587 86.8426 60.232C86.4373 59.7947 85.8826 59.576 85.1786 59.576C84.4533 59.576 83.872 59.8107 83.4346 60.28C82.9973 60.7387 82.7786 61.416 82.7786 62.312V67H80.9546V58.184H82.7786V60.12C83.0133 59.4587 83.408 58.9467 83.9626 58.584C84.5173 58.2213 85.1573 58.04 85.8826 58.04ZM99.9197 62.168C99.9197 62.4667 99.8984 62.728 99.8557 62.952H93.0717C93.1037 63.8587 93.3544 64.5307 93.8237 64.968C94.2931 65.4053 94.8744 65.624 95.5677 65.624C96.1757 65.624 96.6877 65.4693 97.1037 65.16C97.5304 64.8507 97.7917 64.44 97.8877 63.928H99.8397C99.7224 64.5467 99.4771 65.096 99.1037 65.576C98.7304 66.056 98.2451 66.4347 97.6477 66.712C97.0504 66.9787 96.3837 67.112 95.6477 67.112C94.7944 67.112 94.0371 66.9307 93.3757 66.568C92.7251 66.2053 92.2131 65.6827 91.8397 65C91.4664 64.3173 91.2797 63.512 91.2797 62.584C91.2797 61.6667 91.4664 60.8667 91.8397 60.184C92.2131 59.5013 92.7251 58.9787 93.3757 58.616C94.0371 58.2533 94.7944 58.072 95.6477 58.072C96.5117 58.072 97.2637 58.2533 97.9037 58.616C98.5544 58.968 99.0504 59.4587 99.3917 60.088C99.7437 60.7067 99.9197 61.4 99.9197 62.168ZM98.0797 62.12C98.1011 61.544 97.9997 61.064 97.7757 60.68C97.5624 60.2853 97.2637 59.9973 96.8797 59.816C96.5064 59.624 96.0957 59.528 95.6477 59.528C94.9331 59.528 94.3357 59.7467 93.8557 60.184C93.3757 60.6213 93.1144 61.2667 93.0717 62.12H98.0797ZM105.921 58.072C107.062 58.072 108.006 58.376 108.753 58.984C109.5 59.5813 109.964 60.3973 110.145 61.432H108.209C108.102 60.8773 107.841 60.4453 107.425 60.136C107.02 59.816 106.508 59.656 105.889 59.656C105.185 59.656 104.598 59.9067 104.129 60.408C103.66 60.8987 103.425 61.624 103.425 62.584C103.425 63.544 103.66 64.2747 104.129 64.776C104.598 65.2773 105.185 65.528 105.889 65.528C106.508 65.528 107.02 65.368 107.425 65.048C107.841 64.728 108.102 64.2907 108.209 63.736H110.145C109.964 64.7707 109.5 65.592 108.753 66.2C108.006 66.808 107.062 67.112 105.921 67.112C105.068 67.112 104.31 66.9307 103.649 66.568C102.998 66.2053 102.486 65.6827 102.113 65C101.74 64.3173 101.553 63.512 101.553 62.584C101.553 61.6667 101.74 60.8667 102.113 60.184C102.486 59.5013 102.998 58.9787 103.649 58.616C104.31 58.2533 105.068 58.072 105.921 58.072ZM116.659 65.416V67H115.539C114.6 67 113.886 66.776 113.395 66.328C112.915 65.8693 112.675 65.112 112.675 64.056V59.736H111.411V58.184H112.675V55.992H114.515V58.184H116.643V59.736H114.515V64.088C114.515 64.5893 114.606 64.936 114.787 65.128C114.979 65.32 115.31 65.416 115.779 65.416H116.659ZM126.88 62.168C126.88 62.4667 126.858 62.728 126.816 62.952H120.032C120.064 63.8587 120.314 64.5307 120.784 64.968C121.253 65.4053 121.834 65.624 122.528 65.624C123.136 65.624 123.648 65.4693 124.064 65.16C124.49 64.8507 124.752 64.44 124.848 63.928H126.8C126.682 64.5467 126.437 65.096 126.064 65.576C125.69 66.056 125.205 66.4347 124.608 66.712C124.01 66.9787 123.344 67.112 122.608 67.112C121.754 67.112 120.997 66.9307 120.336 66.568C119.685 66.2053 119.173 65.6827 118.8 65C118.426 64.3173 118.24 63.512 118.24 62.584C118.24 61.6667 118.426 60.8667 118.8 60.184C119.173 59.5013 119.685 58.9787 120.336 58.616C120.997 58.2533 121.754 58.072 122.608 58.072C123.472 58.072 124.224 58.2533 124.864 58.616C125.514 58.968 126.01 59.4587 126.352 60.088C126.704 60.7067 126.88 61.4 126.88 62.168ZM125.04 62.12C125.061 61.544 124.96 61.064 124.736 60.68C124.522 60.2853 124.224 59.9973 123.84 59.816C123.466 59.624 123.056 59.528 122.608 59.528C121.893 59.528 121.296 59.7467 120.816 60.184C120.336 60.6213 120.074 61.2667 120.032 62.12H125.04ZM132.497 58.072C133.297 58.072 133.98 58.2693 134.545 58.664C135.11 59.0587 135.505 59.5813 135.729 60.232V55.16H137.569V67H135.729V64.952C135.505 65.6027 135.11 66.1253 134.545 66.52C133.98 66.9147 133.297 67.112 132.497 67.112C131.729 67.112 131.041 66.9307 130.433 66.568C129.836 66.2053 129.366 65.6827 129.025 65C128.684 64.3173 128.513 63.512 128.513 62.584C128.513 61.6667 128.684 60.8667 129.025 60.184C129.366 59.5013 129.836 58.9787 130.433 58.616C131.041 58.2533 131.729 58.072 132.497 58.072ZM133.057 59.672C132.246 59.672 131.596 59.9333 131.105 60.456C130.625 60.968 130.385 61.6773 130.385 62.584C130.385 63.4907 130.625 64.2053 131.105 64.728C131.596 65.24 132.246 65.496 133.057 65.496C133.569 65.496 134.028 65.3787 134.433 65.144C134.838 64.8987 135.158 64.5573 135.393 64.12C135.628 63.6827 135.745 63.1707 135.745 62.584C135.745 62.008 135.628 61.5013 135.393 61.064C135.158 60.616 134.838 60.2747 134.433 60.04C134.028 59.7947 133.569 59.672 133.057 59.672ZM150.884 64.552H146.116L145.252 67H143.3L147.46 55.88H149.556L153.7 67H151.748L150.884 64.552ZM150.372 63.144L148.5 57.864L146.628 63.144H150.372ZM160.43 58.072C161.198 58.072 161.881 58.2533 162.478 58.616C163.086 58.9787 163.561 59.5013 163.902 60.184C164.243 60.8667 164.414 61.6667 164.414 62.584C164.414 63.512 164.243 64.3173 163.902 65C163.561 65.6827 163.086 66.2053 162.478 66.568C161.881 66.9307 161.198 67.112 160.43 67.112C159.63 67.112 158.947 66.9147 158.382 66.52C157.817 66.1253 157.422 65.6027 157.198 64.952V71.192H155.374V58.184H157.198V60.232C157.422 59.5813 157.817 59.0587 158.382 58.664C158.947 58.2693 159.63 58.072 160.43 58.072ZM159.87 59.672C159.358 59.672 158.899 59.7947 158.494 60.04C158.089 60.2747 157.769 60.616 157.534 61.064C157.299 61.5013 157.182 62.008 157.182 62.584C157.182 63.1707 157.299 63.6827 157.534 64.12C157.769 64.5573 158.089 64.8987 158.494 65.144C158.899 65.3787 159.358 65.496 159.87 65.496C160.681 65.496 161.331 65.24 161.822 64.728C162.313 64.2053 162.558 63.4907 162.558 62.584C162.558 61.688 162.313 60.9787 161.822 60.456C161.331 59.9333 160.681 59.672 159.87 59.672ZM171.547 58.072C172.315 58.072 172.998 58.2533 173.595 58.616C174.203 58.9787 174.678 59.5013 175.019 60.184C175.36 60.8667 175.531 61.6667 175.531 62.584C175.531 63.512 175.36 64.3173 175.019 65C174.678 65.6827 174.203 66.2053 173.595 66.568C172.998 66.9307 172.315 67.112 171.547 67.112C170.747 67.112 170.064 66.9147 169.499 66.52C168.934 66.1253 168.539 65.6027 168.315 64.952V71.192H166.491V58.184H168.315V60.232C168.539 59.5813 168.934 59.0587 169.499 58.664C170.064 58.2693 170.747 58.072 171.547 58.072ZM170.987 59.672C170.475 59.672 170.016 59.7947 169.611 60.04C169.206 60.2747 168.886 60.616 168.651 61.064C168.416 61.5013 168.299 62.008 168.299 62.584C168.299 63.1707 168.416 63.6827 168.651 64.12C168.886 64.5573 169.206 64.8987 169.611 65.144C170.016 65.3787 170.475 65.496 170.987 65.496C171.798 65.496 172.448 65.24 172.939 64.728C173.43 64.2053 173.675 63.4907 173.675 62.584C173.675 61.688 173.43 60.9787 172.939 60.456C172.448 59.9333 171.798 59.672 170.987 59.672ZM179.432 55.16V67H177.608V55.16H179.432ZM181.703 55.624C181.703 55.3147 181.81 55.0587 182.023 54.856C182.236 54.6533 182.519 54.552 182.871 54.552C183.223 54.552 183.506 54.6533 183.719 54.856C183.943 55.0587 184.055 55.3147 184.055 55.624C184.055 55.9333 183.943 56.184 183.719 56.376C183.506 56.568 183.223 56.664 182.871 56.664C182.519 56.664 182.236 56.568 182.023 56.376C181.81 56.184 181.703 55.9333 181.703 55.624ZM183.783 58.184V67H181.959V58.184H183.783ZM189.846 58.072C190.646 58.072 191.329 58.2693 191.894 58.664C192.46 59.0587 192.86 59.5813 193.094 60.232V58.184H194.918V67H193.094V64.952C192.86 65.6027 192.46 66.1253 191.894 66.52C191.329 66.9147 190.646 67.112 189.846 67.112C189.078 67.112 188.39 66.9307 187.782 66.568C187.185 66.2053 186.716 65.6827 186.374 65C186.033 64.3173 185.862 63.512 185.862 62.584C185.862 61.6667 186.033 60.8667 186.374 60.184C186.716 59.5013 187.185 58.9787 187.782 58.616C188.39 58.2533 189.078 58.072 189.846 58.072ZM190.406 59.672C189.596 59.672 188.945 59.9333 188.454 60.456C187.974 60.968 187.734 61.6773 187.734 62.584C187.734 63.4907 187.974 64.2053 188.454 64.728C188.945 65.24 189.596 65.496 190.406 65.496C190.918 65.496 191.377 65.3787 191.782 65.144C192.188 64.8987 192.508 64.5573 192.742 64.12C192.977 63.6827 193.094 63.1707 193.094 62.584C193.094 62.008 192.977 61.5013 192.742 61.064C192.508 60.616 192.188 60.2747 191.782 60.04C191.377 59.7947 190.918 59.672 190.406 59.672ZM202.355 58.04C203.379 58.04 204.2 58.3707 204.819 59.032C205.438 59.6933 205.747 60.6373 205.747 61.864V67H203.923V62.056C203.923 61.2667 203.72 60.6587 203.315 60.232C202.91 59.7947 202.355 59.576 201.651 59.576C200.926 59.576 200.344 59.8107 199.907 60.28C199.47 60.7387 199.251 61.416 199.251 62.312V67H197.427V58.184H199.251V60.12C199.486 59.4587 199.88 58.9467 200.435 58.584C200.99 58.2213 201.63 58.04 202.355 58.04ZM212.12 58.072C213.262 58.072 214.206 58.376 214.952 58.984C215.699 59.5813 216.163 60.3973 216.344 61.432H214.408C214.302 60.8773 214.04 60.4453 213.624 60.136C213.219 59.816 212.707 59.656 212.088 59.656C211.384 59.656 210.798 59.9067 210.328 60.408C209.859 60.8987 209.624 61.624 209.624 62.584C209.624 63.544 209.859 64.2747 210.328 64.776C210.798 65.2773 211.384 65.528 212.088 65.528C212.707 65.528 213.219 65.368 213.624 65.048C214.04 64.728 214.302 64.2907 214.408 63.736H216.344C216.163 64.7707 215.699 65.592 214.952 66.2C214.206 66.808 213.262 67.112 212.12 67.112C211.267 67.112 210.51 66.9307 209.848 66.568C209.198 66.2053 208.686 65.6827 208.312 65C207.939 64.3173 207.752 63.512 207.752 62.584C207.752 61.6667 207.939 60.8667 208.312 60.184C208.686 59.5013 209.198 58.9787 209.848 58.616C210.51 58.2533 211.267 58.072 212.12 58.072ZM226.618 62.168C226.618 62.4667 226.597 62.728 226.554 62.952H219.77C219.802 63.8587 220.053 64.5307 220.522 64.968C220.992 65.4053 221.573 65.624 222.266 65.624C222.874 65.624 223.386 65.4693 223.802 65.16C224.229 64.8507 224.49 64.44 224.586 63.928H226.538C226.421 64.5467 226.176 65.096 225.802 65.576C225.429 66.056 224.944 66.4347 224.346 66.712C223.749 66.9787 223.082 67.112 222.346 67.112C221.493 67.112 220.736 66.9307 220.074 66.568C219.424 66.2053 218.912 65.6827 218.538 65C218.165 64.3173 217.978 63.512 217.978 62.584C217.978 61.6667 218.165 60.8667 218.538 60.184C218.912 59.5013 219.424 58.9787 220.074 58.616C220.736 58.2533 221.493 58.072 222.346 58.072C223.21 58.072 223.962 58.2533 224.602 58.616C225.253 58.968 225.749 59.4587 226.09 60.088C226.442 60.7067 226.618 61.4 226.618 62.168ZM224.778 62.12C224.8 61.544 224.698 61.064 224.474 60.68C224.261 60.2853 223.962 59.9973 223.578 59.816C223.205 59.624 222.794 59.528 222.346 59.528C221.632 59.528 221.034 59.7467 220.554 60.184C220.074 60.6213 219.813 61.2667 219.77 62.12H224.778ZM234.594 55.704V67H232.77V55.704H234.594ZM242.049 58.04C243.073 58.04 243.894 58.3707 244.513 59.032C245.132 59.6933 245.441 60.6373 245.441 61.864V67H243.617V62.056C243.617 61.2667 243.414 60.6587 243.009 60.232C242.604 59.7947 242.049 59.576 241.345 59.576C240.62 59.576 240.038 59.8107 239.601 60.28C239.164 60.7387 238.945 61.416 238.945 62.312V67H237.121V58.184H238.945V60.12C239.18 59.4587 239.574 58.9467 240.129 58.584C240.684 58.2213 241.324 58.04 242.049 58.04ZM252.006 56.36C251.291 56.328 250.79 56.4453 250.502 56.712C250.214 56.968 250.07 57.4107 250.07 58.04V58.184H252.006V59.752H250.07V67H248.23V59.752H247.03V58.184H248.23V57.896C248.23 56.8187 248.545 56.0133 249.174 55.48C249.803 54.936 250.747 54.696 252.006 54.76V56.36ZM257.824 58.072C258.677 58.072 259.445 58.2533 260.128 58.616C260.811 58.9787 261.344 59.5013 261.728 60.184C262.112 60.8667 262.304 61.6667 262.304 62.584C262.304 63.512 262.112 64.3173 261.728 65C261.344 65.6827 260.811 66.2053 260.128 66.568C259.445 66.9307 258.677 67.112 257.824 67.112C256.971 67.112 256.203 66.9307 255.52 66.568C254.848 66.2053 254.315 65.6827 253.92 65C253.536 64.3067 253.344 63.5013 253.344 62.584C253.344 61.6667 253.536 60.8667 253.92 60.184C254.315 59.5013 254.848 58.9787 255.52 58.616C256.203 58.2533 256.971 58.072 257.824 58.072ZM257.824 59.656C257.355 59.656 256.923 59.7627 256.528 59.976C256.133 60.1893 255.813 60.52 255.568 60.968C255.333 61.4053 255.216 61.944 255.216 62.584C255.216 63.2347 255.333 63.7787 255.568 64.216C255.813 64.6533 256.133 64.9787 256.528 65.192C256.923 65.4053 257.355 65.512 257.824 65.512C258.293 65.512 258.725 65.4053 259.12 65.192C259.515 64.9787 259.829 64.6533 260.064 64.216C260.309 63.7787 260.432 63.2347 260.432 62.584C260.432 61.944 260.309 61.4053 260.064 60.968C259.829 60.52 259.515 60.1893 259.12 59.976C258.725 59.7627 258.293 59.656 257.824 59.656ZM266.202 59.912C266.5 59.336 266.927 58.8827 267.482 58.552C268.036 58.2107 268.676 58.04 269.402 58.04V60.024H268.858C268.058 60.024 267.412 60.2213 266.922 60.616C266.442 61 266.202 61.64 266.202 62.536V67H264.378V58.184H266.202V59.912ZM282.112 58.04C283.158 58.04 283.99 58.3707 284.608 59.032C285.238 59.6933 285.552 60.6373 285.552 61.864V67H283.728V62.056C283.728 61.288 283.536 60.696 283.152 60.28C282.768 59.8533 282.24 59.64 281.568 59.64C280.854 59.64 280.283 59.8693 279.856 60.328C279.44 60.776 279.232 61.4373 279.232 62.312V67H277.408V62.056C277.408 61.288 277.216 60.696 276.832 60.28C276.448 59.8533 275.92 59.64 275.248 59.64C274.534 59.64 273.963 59.8693 273.536 60.328C273.12 60.776 272.912 61.4373 272.912 62.312V67H271.088V58.184H272.912V60.024C273.136 59.384 273.51 58.8933 274.032 58.552C274.555 58.2107 275.168 58.04 275.872 58.04C276.608 58.04 277.243 58.2213 277.776 58.584C278.32 58.9467 278.715 59.4693 278.96 60.152C279.216 59.4907 279.627 58.9733 280.192 58.6C280.758 58.2267 281.398 58.04 282.112 58.04ZM291.538 58.072C292.338 58.072 293.021 58.2693 293.586 58.664C294.151 59.0587 294.551 59.5813 294.786 60.232V58.184H296.61V67H294.786V64.952C294.551 65.6027 294.151 66.1253 293.586 66.52C293.021 66.9147 292.338 67.112 291.538 67.112C290.77 67.112 290.082 66.9307 289.474 66.568C288.877 66.2053 288.407 65.6827 288.066 65C287.725 64.3173 287.554 63.512 287.554 62.584C287.554 61.6667 287.725 60.8667 288.066 60.184C288.407 59.5013 288.877 58.9787 289.474 58.616C290.082 58.2533 290.77 58.072 291.538 58.072ZM292.098 59.672C291.287 59.672 290.637 59.9333 290.146 60.456C289.666 60.968 289.426 61.6773 289.426 62.584C289.426 63.4907 289.666 64.2053 290.146 64.728C290.637 65.24 291.287 65.496 292.098 65.496C292.61 65.496 293.069 65.3787 293.474 65.144C293.879 64.8987 294.199 64.5573 294.434 64.12C294.669 63.6827 294.786 63.1707 294.786 62.584C294.786 62.008 294.669 61.5013 294.434 61.064C294.199 60.616 293.879 60.2747 293.474 60.04C293.069 59.7947 292.61 59.672 292.098 59.672ZM303.551 65.416V67H302.431C301.492 67 300.778 66.776 300.287 66.328C299.807 65.8693 299.567 65.112 299.567 64.056V59.736H298.303V58.184H299.567V55.992H301.407V58.184H303.535V59.736H301.407V64.088C301.407 64.5893 301.498 64.936 301.679 65.128C301.871 65.32 302.202 65.416 302.671 65.416H303.551ZM305.324 55.624C305.324 55.3147 305.43 55.0587 305.644 54.856C305.857 54.6533 306.14 54.552 306.492 54.552C306.844 54.552 307.126 54.6533 307.34 54.856C307.564 55.0587 307.676 55.3147 307.676 55.624C307.676 55.9333 307.564 56.184 307.34 56.376C307.126 56.568 306.844 56.664 306.492 56.664C306.14 56.664 305.857 56.568 305.644 56.376C305.43 56.184 305.324 55.9333 305.324 55.624ZM307.404 58.184V67H305.58V58.184H307.404ZM313.963 58.072C314.816 58.072 315.584 58.2533 316.267 58.616C316.95 58.9787 317.483 59.5013 317.867 60.184C318.251 60.8667 318.443 61.6667 318.443 62.584C318.443 63.512 318.251 64.3173 317.867 65C317.483 65.6827 316.95 66.2053 316.267 66.568C315.584 66.9307 314.816 67.112 313.963 67.112C313.11 67.112 312.342 66.9307 311.659 66.568C310.987 66.2053 310.454 65.6827 310.059 65C309.675 64.3067 309.483 63.5013 309.483 62.584C309.483 61.6667 309.675 60.8667 310.059 60.184C310.454 59.5013 310.987 58.9787 311.659 58.616C312.342 58.2533 313.11 58.072 313.963 58.072ZM313.963 59.656C313.494 59.656 313.062 59.7627 312.667 59.976C312.272 60.1893 311.952 60.52 311.707 60.968C311.472 61.4053 311.355 61.944 311.355 62.584C311.355 63.2347 311.472 63.7787 311.707 64.216C311.952 64.6533 312.272 64.9787 312.667 65.192C313.062 65.4053 313.494 65.512 313.963 65.512C314.432 65.512 314.864 65.4053 315.259 65.192C315.654 64.9787 315.968 64.6533 316.203 64.216C316.448 63.7787 316.571 63.2347 316.571 62.584C316.571 61.944 316.448 61.4053 316.203 60.968C315.968 60.52 315.654 60.1893 315.259 59.976C314.864 59.7627 314.432 59.656 313.963 59.656ZM325.445 58.04C326.469 58.04 327.29 58.3707 327.909 59.032C328.527 59.6933 328.837 60.6373 328.837 61.864V67H327.013V62.056C327.013 61.2667 326.81 60.6587 326.405 60.232C325.999 59.7947 325.445 59.576 324.741 59.576C324.015 59.576 323.434 59.8107 322.997 60.28C322.559 60.7387 322.341 61.416 322.341 62.312V67H320.517V58.184H322.341V60.12C322.575 59.4587 322.97 58.9467 323.525 58.584C324.079 58.2213 324.719 58.04 325.445 58.04Z" fill="white"/>
<path d="M179.196 133.712V137H177.828V128.528H180.708C181.684 128.528 182.416 128.76 182.904 129.224C183.4 129.688 183.648 130.324 183.648 131.132C183.648 131.932 183.396 132.564 182.892 133.028C182.388 133.484 181.66 133.712 180.708 133.712H179.196ZM180.564 132.596C181.692 132.596 182.256 132.108 182.256 131.132C182.256 130.652 182.12 130.288 181.848 130.04C181.584 129.784 181.156 129.656 180.564 129.656H179.196V132.596H180.564ZM187.74 130.304C188.34 130.304 188.852 130.452 189.276 130.748C189.7 131.044 190 131.436 190.176 131.924V130.388H191.544V137H190.176V135.464C190 135.952 189.7 136.344 189.276 136.64C188.852 136.936 188.34 137.084 187.74 137.084C187.164 137.084 186.648 136.948 186.192 136.676C185.744 136.404 185.392 136.012 185.136 135.5C184.88 134.988 184.752 134.384 184.752 133.688C184.752 133 184.88 132.4 185.136 131.888C185.392 131.376 185.744 130.984 186.192 130.712C186.648 130.44 187.164 130.304 187.74 130.304ZM188.16 131.504C187.552 131.504 187.064 131.7 186.696 132.092C186.336 132.476 186.156 133.008 186.156 133.688C186.156 134.368 186.336 134.904 186.696 135.296C187.064 135.68 187.552 135.872 188.16 135.872C188.544 135.872 188.888 135.784 189.192 135.608C189.496 135.424 189.736 135.168 189.912 134.84C190.088 134.512 190.176 134.128 190.176 133.688C190.176 133.256 190.088 132.876 189.912 132.548C189.736 132.212 189.496 131.956 189.192 131.78C188.888 131.596 188.544 131.504 188.16 131.504ZM195.597 130.304C196.373 130.304 196.993 130.504 197.457 130.904C197.929 131.296 198.217 131.824 198.321 132.488H197.025C196.969 132.128 196.813 131.84 196.557 131.624C196.309 131.4 195.977 131.288 195.561 131.288C195.217 131.288 194.949 131.372 194.757 131.54C194.573 131.7 194.481 131.92 194.481 132.2C194.481 132.408 194.549 132.576 194.685 132.704C194.821 132.832 194.989 132.932 195.189 133.004C195.397 133.076 195.689 133.156 196.065 133.244C196.561 133.356 196.961 133.472 197.265 133.592C197.577 133.712 197.841 133.904 198.057 134.168C198.281 134.424 198.393 134.776 198.393 135.224C198.393 135.776 198.181 136.224 197.757 136.568C197.341 136.912 196.777 137.084 196.065 137.084C195.241 137.084 194.573 136.892 194.061 136.508C193.557 136.124 193.253 135.588 193.149 134.9H194.481C194.521 135.26 194.681 135.552 194.961 135.776C195.241 136 195.609 136.112 196.065 136.112C196.393 136.112 196.649 136.028 196.833 135.86C197.025 135.684 197.121 135.464 197.121 135.2C197.121 134.968 197.049 134.784 196.905 134.648C196.761 134.512 196.581 134.408 196.365 134.336C196.149 134.256 195.853 134.176 195.477 134.096C194.997 133.984 194.605 133.872 194.301 133.76C194.005 133.648 193.749 133.468 193.533 133.22C193.325 132.964 193.221 132.62 193.221 132.188C193.221 131.628 193.429 131.176 193.845 130.832C194.269 130.48 194.853 130.304 195.597 130.304ZM202.177 130.304C202.953 130.304 203.573 130.504 204.037 130.904C204.509 131.296 204.797 131.824 204.901 132.488H203.605C203.549 132.128 203.393 131.84 203.137 131.624C202.889 131.4 202.557 131.288 202.141 131.288C201.797 131.288 201.529 131.372 201.337 131.54C201.153 131.7 201.061 131.92 201.061 132.2C201.061 132.408 201.129 132.576 201.265 132.704C201.401 132.832 201.569 132.932 201.769 133.004C201.977 133.076 202.269 133.156 202.645 133.244C203.141 133.356 203.541 133.472 203.845 133.592C204.157 133.712 204.421 133.904 204.637 134.168C204.861 134.424 204.973 134.776 204.973 135.224C204.973 135.776 204.761 136.224 204.337 136.568C203.921 136.912 203.357 137.084 202.645 137.084C201.821 137.084 201.153 136.892 200.641 136.508C200.137 136.124 199.833 135.588 199.729 134.9H201.061C201.101 135.26 201.261 135.552 201.541 135.776C201.821 136 202.189 136.112 202.645 136.112C202.973 136.112 203.229 136.028 203.413 135.86C203.605 135.684 203.701 135.464 203.701 135.2C203.701 134.968 203.629 134.784 203.485 134.648C203.341 134.512 203.161 134.408 202.945 134.336C202.729 134.256 202.433 134.176 202.057 134.096C201.577 133.984 201.185 133.872 200.881 133.76C200.585 133.648 200.329 133.468 200.113 133.22C199.905 132.964 199.801 132.62 199.801 132.188C199.801 131.628 200.009 131.176 200.425 130.832C200.849 130.48 201.433 130.304 202.177 130.304ZM215.849 130.388L214.013 137H212.501L210.869 131.888L209.213 137H207.713L205.877 130.388H207.257L208.517 135.74L210.173 130.388H211.613L213.293 135.74L214.553 130.388H215.849ZM220.044 130.304C220.684 130.304 221.26 130.44 221.772 130.712C222.284 130.984 222.684 131.376 222.972 131.888C223.26 132.4 223.404 133 223.404 133.688C223.404 134.384 223.26 134.988 222.972 135.5C222.684 136.012 222.284 136.404 221.772 136.676C221.26 136.948 220.684 137.084 220.044 137.084C219.404 137.084 218.828 136.948 218.316 136.676C217.812 136.404 217.412 136.012 217.116 135.5C216.828 134.98 216.684 134.376 216.684 133.688C216.684 133 216.828 132.4 217.116 131.888C217.412 131.376 217.812 130.984 218.316 130.712C218.828 130.44 219.404 130.304 220.044 130.304ZM220.044 131.492C219.692 131.492 219.368 131.572 219.072 131.732C218.776 131.892 218.536 132.14 218.352 132.476C218.176 132.804 218.088 133.208 218.088 133.688C218.088 134.176 218.176 134.584 218.352 134.912C218.536 135.24 218.776 135.484 219.072 135.644C219.368 135.804 219.692 135.884 220.044 135.884C220.396 135.884 220.72 135.804 221.016 135.644C221.312 135.484 221.548 135.24 221.724 134.912C221.908 134.584 222 134.176 222 133.688C222 133.208 221.908 132.804 221.724 132.476C221.548 132.14 221.312 131.892 221.016 131.732C220.72 131.572 220.396 131.492 220.044 131.492ZM226.327 131.684C226.551 131.252 226.871 130.912 227.287 130.664C227.703 130.408 228.183 130.28 228.727 130.28V131.768H228.319C227.719 131.768 227.235 131.916 226.867 132.212C226.507 132.5 226.327 132.98 226.327 133.652V137H224.959V130.388H226.327V131.684ZM232.644 130.304C233.244 130.304 233.756 130.452 234.18 130.748C234.604 131.044 234.9 131.436 235.068 131.924V128.12H236.448V137H235.068V135.464C234.9 135.952 234.604 136.344 234.18 136.64C233.756 136.936 233.244 137.084 232.644 137.084C232.068 137.084 231.552 136.948 231.096 136.676C230.648 136.404 230.296 136.012 230.04 135.5C229.784 134.988 229.656 134.384 229.656 133.688C229.656 133 229.784 132.4 230.04 131.888C230.296 131.376 230.648 130.984 231.096 130.712C231.552 130.44 232.068 130.304 232.644 130.304ZM233.064 131.504C232.456 131.504 231.968 131.7 231.6 132.092C231.24 132.476 231.06 133.008 231.06 133.688C231.06 134.368 231.24 134.904 231.6 135.296C231.968 135.68 232.456 135.872 233.064 135.872C233.448 135.872 233.792 135.784 234.096 135.608C234.4 135.424 234.64 135.168 234.816 134.84C234.992 134.512 235.08 134.128 235.08 133.688C235.08 133.256 234.992 132.876 234.816 132.548C234.64 132.212 234.4 131.956 234.096 131.78C233.792 131.596 233.448 131.504 233.064 131.504ZM239.602 130.4V131.912H238.054V130.4H239.602ZM239.602 135.488V137H238.054V135.488H239.602ZM249.048 137L247.02 133.868L245.208 137H243.636L246.264 132.68L243.576 128.528H245.208L247.2 131.6L249 128.528H250.572L247.956 132.776L250.68 137H249.048ZM256.777 137L254.749 133.868L252.937 137H251.365L253.993 132.68L251.305 128.528H252.937L254.929 131.6L256.729 128.528H258.301L255.685 132.776L258.409 137H256.777ZM264.505 137L262.477 133.868L260.665 137H259.093L261.721 132.68L259.033 128.528H260.665L262.657 131.6L264.457 128.528H266.029L263.413 132.776L266.137 137H264.505ZM272.233 137L270.205 133.868L268.393 137H266.821L269.449 132.68L266.761 128.528H268.393L270.385 131.6L272.185 128.528H273.757L271.141 132.776L273.865 137H272.233ZM279.962 137L277.934 133.868L276.122 137H274.55L277.178 132.68L274.49 128.528H276.122L278.114 131.6L279.914 128.528H281.486L278.87 132.776L281.594 137H279.962ZM287.69 137L285.662 133.868L283.85 137H282.278L284.906 132.68L282.218 128.528H283.85L285.842 131.6L287.642 128.528H289.214L286.598 132.776L289.322 137H287.69ZM295.418 137L293.39 133.868L291.578 137H290.006L292.634 132.68L289.946 128.528H291.578L293.57 131.6L295.37 128.528H296.942L294.326 132.776L297.05 137H295.418ZM303.146 137L301.118 133.868L299.306 137H297.734L300.362 132.68L297.674 128.528H299.306L301.298 131.6L303.098 128.528H304.67L302.054 132.776L304.778 137H303.146Z" fill="white"/>
<path d="M34.196 128.528V137H32.828V128.528H34.196ZM39.8714 128.444C40.9114 128.444 41.7754 128.708 42.4634 129.236C43.1514 129.764 43.6154 130.48 43.8554 131.384H42.4034C42.2034 130.872 41.8834 130.468 41.4434 130.172C41.0114 129.868 40.4794 129.716 39.8474 129.716C39.3434 129.716 38.8914 129.84 38.4914 130.088C38.0994 130.336 37.7874 130.692 37.5554 131.156C37.3314 131.612 37.2194 132.148 37.2194 132.764C37.2194 133.372 37.3314 133.908 37.5554 134.372C37.7874 134.828 38.0994 135.18 38.4914 135.428C38.8914 135.676 39.3434 135.8 39.8474 135.8C40.4794 135.8 41.0114 135.652 41.4434 135.356C41.8834 135.052 42.2034 134.648 42.4034 134.144H43.8554C43.6154 135.048 43.1514 135.764 42.4634 136.292C41.7754 136.812 40.9114 137.072 39.8714 137.072C39.0714 137.072 38.3634 136.892 37.7474 136.532C37.1314 136.164 36.6554 135.656 36.3194 135.008C35.9834 134.352 35.8154 133.604 35.8154 132.764C35.8154 131.924 35.9834 131.18 36.3194 130.532C36.6554 129.876 37.1314 129.364 37.7474 128.996C38.3634 128.628 39.0714 128.444 39.8714 128.444ZM46.7323 130.4V131.912H45.1843V130.4H46.7323ZM46.7323 135.488V137H45.1843V135.488H46.7323ZM50.6707 129.812V128.528H53.3827V137H51.9427V129.812H50.6707ZM55.0584 132.704C55.0584 134.056 55.2984 135.116 55.7784 135.884C56.2584 136.644 57.0584 137.024 58.1784 137.024C59.2984 137.024 60.0984 136.64 60.5784 135.872C61.0584 135.104 61.2984 134.048 61.2984 132.704C61.2984 131.368 61.0584 130.32 60.5784 129.56C60.0984 128.792 59.2984 128.408 58.1784 128.408C57.0584 128.408 56.2584 128.788 55.7784 129.548C55.2984 130.308 55.0584 131.36 55.0584 132.704ZM59.9304 132.704C59.9304 133.68 59.8104 134.428 59.5704 134.948C59.3304 135.468 58.8664 135.728 58.1784 135.728C57.4824 135.728 57.0144 135.468 56.7744 134.948C56.5344 134.428 56.4144 133.68 56.4144 132.704C56.4144 131.736 56.5344 130.996 56.7744 130.484C57.0144 129.972 57.4824 129.716 58.1784 129.716C58.8664 129.716 59.3304 129.976 59.5704 130.496C59.8104 131.008 59.9304 131.744 59.9304 132.704ZM62.6309 135.932C63.9269 135.044 64.9629 134.176 65.7389 133.328C66.5229 132.472 66.9149 131.68 66.9149 130.952C66.9149 130.52 66.8069 130.176 66.5909 129.92C66.3829 129.664 66.0429 129.536 65.5709 129.536C65.0829 129.536 64.7149 129.696 64.4669 130.016C64.2189 130.328 64.0789 130.776 64.0469 131.36H62.7149C62.7709 130.392 63.0669 129.652 63.6029 129.14C64.1469 128.628 64.8389 128.372 65.6789 128.372C66.5029 128.372 67.1469 128.592 67.6109 129.032C68.0829 129.464 68.3189 130.064 68.3189 130.832C68.3189 131.448 68.1269 132.072 67.7429 132.704C67.3669 133.336 66.8869 133.92 66.3029 134.456C65.7189 134.984 65.1149 135.44 64.4909 135.824H68.5109V136.94H62.6309V135.932ZM69.6795 135.932C70.9755 135.044 72.0115 134.176 72.7875 133.328C73.5715 132.472 73.9635 131.68 73.9635 130.952C73.9635 130.52 73.8555 130.176 73.6395 129.92C73.4315 129.664 73.0915 129.536 72.6195 129.536C72.1315 129.536 71.7635 129.696 71.5155 130.016C71.2675 130.328 71.1275 130.776 71.0955 131.36H69.7635C69.8195 130.392 70.1155 129.652 70.6515 129.14C71.1955 128.628 71.8875 128.372 72.7275 128.372C73.5515 128.372 74.1955 128.592 74.6595 129.032C75.1315 129.464 75.3675 130.064 75.3675 130.832C75.3675 131.448 75.1755 132.072 74.7915 132.704C74.4155 133.336 73.9355 133.92 73.3515 134.456C72.7675 134.984 72.1635 135.44 71.5395 135.824H75.5595V136.94H69.6795V135.932ZM78.3721 134.552C78.4361 135.008 78.5921 135.36 78.8401 135.608C79.0961 135.856 79.4401 135.98 79.8721 135.98C80.4801 135.98 80.9321 135.74 81.2281 135.26C81.5321 134.772 81.6841 134.008 81.6841 132.968L81.6721 132.56C81.5441 132.992 81.2761 133.34 80.8681 133.604C80.4681 133.86 80.0001 133.988 79.4641 133.988C78.6321 133.988 77.9801 133.74 77.5081 133.244C77.0361 132.74 76.8001 132.04 76.8001 131.144C76.8001 130.6 76.9081 130.112 77.1241 129.68C77.3401 129.248 77.6641 128.908 78.0961 128.66C78.5281 128.404 79.0601 128.276 79.6921 128.276C80.9161 128.276 81.7561 128.652 82.2121 129.404C82.6761 130.148 82.9081 131.18 82.9081 132.5C82.9081 133.996 82.6721 135.136 82.2001 135.92C81.7361 136.704 80.9601 137.096 79.8721 137.096C79.0321 137.096 78.3721 136.86 77.8921 136.388C77.4201 135.908 77.1481 135.296 77.0761 134.552H78.3721ZM81.5401 131.288C81.5401 130.768 81.3881 130.336 81.0841 129.992C80.7881 129.64 80.3401 129.464 79.7401 129.464C79.2441 129.464 78.8441 129.612 78.5401 129.908C78.2441 130.204 78.0961 130.62 78.0961 131.156C78.0961 131.724 78.2441 132.16 78.5401 132.464C78.8441 132.768 79.2561 132.92 79.7761 132.92C80.0801 132.92 80.3641 132.86 80.6281 132.74C80.9001 132.612 81.1201 132.428 81.2881 132.188C81.4561 131.94 81.5401 131.64 81.5401 131.288ZM89.6455 135.164H86.0695L85.4215 137H83.9575L87.0775 128.66H88.6495L91.7575 137H90.2935L89.6455 135.164ZM89.2615 134.108L87.8575 130.148L86.4535 134.108H89.2615ZM97.0212 132.08V133.232H92.0772V132.08H97.0212ZM110.051 128.528L107.939 137H106.259L104.471 130.448L102.683 137H101.003L98.8915 128.528H100.391L101.855 135.416L103.715 128.528H105.227L107.087 135.416L108.551 128.528H110.051ZM115.297 128.444C116.337 128.444 117.201 128.708 117.889 129.236C118.577 129.764 119.041 130.48 119.281 131.384H117.829C117.629 130.872 117.309 130.468 116.869 130.172C116.437 129.868 115.905 129.716 115.273 129.716C114.769 129.716 114.317 129.84 113.917 130.088C113.525 130.336 113.213 130.692 112.981 131.156C112.757 131.612 112.645 132.148 112.645 132.764C112.645 133.372 112.757 133.908 112.981 134.372C113.213 134.828 113.525 135.18 113.917 135.428C114.317 135.676 114.769 135.8 115.273 135.8C115.905 135.8 116.437 135.652 116.869 135.356C117.309 135.052 117.629 134.648 117.829 134.144H119.281C119.041 135.048 118.577 135.764 117.889 136.292C117.201 136.812 116.337 137.072 115.297 137.072C114.497 137.072 113.789 136.892 113.173 136.532C112.557 136.164 112.081 135.656 111.745 135.008C111.409 134.352 111.241 133.604 111.241 132.764C111.241 131.924 111.409 131.18 111.745 130.532C112.081 129.876 112.557 129.364 113.173 128.996C113.789 128.628 114.497 128.444 115.297 128.444ZM125.938 135.164H122.362L121.714 137H120.25L123.37 128.66H124.942L128.05 137H126.586L125.938 135.164ZM125.554 134.108L124.15 130.148L122.746 134.108H125.554ZM134.753 128.528V129.632H132.389V137H131.009V129.632H128.657V128.528H134.753ZM141.066 135.164H137.49L136.842 137H135.378L138.498 128.66H140.07L143.178 137H141.714L141.066 135.164ZM140.682 134.108L139.278 130.148L137.874 134.108H140.682ZM144.23 132.704C144.23 134.056 144.47 135.116 144.95 135.884C145.43 136.644 146.23 137.024 147.35 137.024C148.47 137.024 149.27 136.64 149.75 135.872C150.23 135.104 150.47 134.048 150.47 132.704C150.47 131.368 150.23 130.32 149.75 129.56C149.27 128.792 148.47 128.408 147.35 128.408C146.23 128.408 145.43 128.788 144.95 129.548C144.47 130.308 144.23 131.36 144.23 132.704ZM149.102 132.704C149.102 133.68 148.982 134.428 148.742 134.948C148.502 135.468 148.038 135.728 147.35 135.728C146.654 135.728 146.186 135.468 145.946 134.948C145.706 134.428 145.586 133.68 145.586 132.704C145.586 131.736 145.706 130.996 145.946 130.484C146.186 129.972 146.654 129.716 147.35 129.716C148.038 129.716 148.502 129.976 148.742 130.496C148.982 131.008 149.102 131.744 149.102 132.704ZM151.946 132.704C151.946 134.056 152.186 135.116 152.666 135.884C153.146 136.644 153.946 137.024 155.066 137.024C156.186 137.024 156.986 136.64 157.466 135.872C157.946 135.104 158.186 134.048 158.186 132.704C158.186 131.368 157.946 130.32 157.466 129.56C156.986 128.792 156.186 128.408 155.066 128.408C153.946 128.408 153.146 128.788 152.666 129.548C152.186 130.308 151.946 131.36 151.946 132.704ZM156.818 132.704C156.818 133.68 156.698 134.428 156.458 134.948C156.218 135.468 155.754 135.728 155.066 135.728C154.37 135.728 153.902 135.468 153.662 134.948C153.422 134.428 153.302 133.68 153.302 132.704C153.302 131.736 153.422 130.996 153.662 130.484C153.902 129.972 154.37 129.716 155.066 129.716C155.754 129.716 156.218 129.976 156.458 130.496C156.698 131.008 156.818 131.744 156.818 132.704ZM159.195 129.812V128.528H161.907V137H160.467V129.812H159.195Z" fill="white"/>
<path d="M184.68 105H183.312L179.196 98.748V105H177.828V96.54H179.196L183.312 102.816V96.54H184.68V105ZM192.72 101.376C192.72 101.6 192.704 101.796 192.672 101.964H187.584C187.608 102.644 187.796 103.148 188.148 103.476C188.5 103.804 188.936 103.968 189.456 103.968C189.912 103.968 190.296 103.852 190.608 103.62C190.928 103.388 191.124 103.08 191.196 102.696H192.66C192.572 103.16 192.388 103.572 192.108 103.932C191.828 104.292 191.464 104.576 191.016 104.784C190.568 104.984 190.068 105.084 189.516 105.084C188.876 105.084 188.308 104.948 187.812 104.676C187.324 104.404 186.94 104.012 186.66 103.5C186.38 102.988 186.24 102.384 186.24 101.688C186.24 101 186.38 100.4 186.66 99.888C186.94 99.376 187.324 98.984 187.812 98.712C188.308 98.44 188.876 98.304 189.516 98.304C190.164 98.304 190.728 98.44 191.208 98.712C191.696 98.976 192.068 99.344 192.324 99.816C192.588 100.28 192.72 100.8 192.72 101.376ZM191.34 101.34C191.356 100.908 191.28 100.548 191.112 100.26C190.952 99.964 190.728 99.748 190.44 99.612C190.16 99.468 189.852 99.396 189.516 99.396C188.98 99.396 188.532 99.56 188.172 99.888C187.812 100.216 187.616 100.7 187.584 101.34H191.34ZM197.605 103.812V105H196.765C196.061 105 195.525 104.832 195.157 104.496C194.797 104.152 194.617 103.584 194.617 102.792V99.552H193.669V98.388H194.617V96.744H195.997V98.388H197.593V99.552H195.997V102.816C195.997 103.192 196.065 103.452 196.201 103.596C196.345 103.74 196.593 103.812 196.945 103.812H197.605ZM208.39 98.388L206.554 105H205.042L203.41 99.888L201.754 105H200.254L198.418 98.388H199.798L201.058 103.74L202.714 98.388H204.154L205.834 103.74L207.094 98.388H208.39ZM212.585 98.304C213.225 98.304 213.801 98.44 214.313 98.712C214.825 98.984 215.225 99.376 215.513 99.888C215.801 100.4 215.945 101 215.945 101.688C215.945 102.384 215.801 102.988 215.513 103.5C215.225 104.012 214.825 104.404 214.313 104.676C213.801 104.948 213.225 105.084 212.585 105.084C211.945 105.084 211.369 104.948 210.857 104.676C210.353 104.404 209.953 104.012 209.657 103.5C209.369 102.98 209.225 102.376 209.225 101.688C209.225 101 209.369 100.4 209.657 99.888C209.953 99.376 210.353 98.984 210.857 98.712C211.369 98.44 211.945 98.304 212.585 98.304ZM212.585 99.492C212.233 99.492 211.909 99.572 211.613 99.732C211.317 99.892 211.077 100.14 210.893 100.476C210.717 100.804 210.629 101.208 210.629 101.688C210.629 102.176 210.717 102.584 210.893 102.912C211.077 103.24 211.317 103.484 211.613 103.644C211.909 103.804 212.233 103.884 212.585 103.884C212.937 103.884 213.261 103.804 213.557 103.644C213.853 103.484 214.089 103.24 214.265 102.912C214.449 102.584 214.541 102.176 214.541 101.688C214.541 101.208 214.449 100.804 214.265 100.476C214.089 100.14 213.853 99.892 213.557 99.732C213.261 99.572 212.937 99.492 212.585 99.492ZM218.869 99.684C219.093 99.252 219.413 98.912 219.829 98.664C220.245 98.408 220.725 98.28 221.269 98.28V99.768H220.861C220.261 99.768 219.777 99.916 219.409 100.212C219.049 100.5 218.869 100.98 218.869 101.652V105H217.501V98.388H218.869V99.684ZM226.278 105L223.902 102.06V105H222.534V96.12H223.902V101.208L226.254 98.388H227.898L225.018 101.676L227.97 105H226.278ZM233.426 98.4V99.912H231.878V98.4H233.426ZM233.426 103.488V105H231.878V103.488H233.426ZM241.913 96.456C242.921 96.456 243.761 96.704 244.433 97.2C245.105 97.696 245.549 98.372 245.765 99.228H244.325C244.141 98.772 243.837 98.408 243.413 98.136C242.997 97.864 242.501 97.728 241.925 97.728C241.397 97.728 240.921 97.852 240.497 98.1C240.081 98.348 239.753 98.7 239.513 99.156C239.281 99.612 239.165 100.148 239.165 100.764C239.165 101.412 239.285 101.968 239.525 102.432C239.765 102.896 240.101 103.252 240.533 103.5C240.973 103.74 241.481 103.86 242.057 103.86C242.761 103.86 243.365 103.644 243.869 103.212C244.373 102.772 244.677 102.172 244.781 101.412H241.673V100.404H245.933V101.712C245.837 102.336 245.613 102.904 245.261 103.416C244.917 103.92 244.457 104.324 243.881 104.628C243.313 104.932 242.661 105.084 241.925 105.084C241.101 105.084 240.373 104.9 239.741 104.532C239.109 104.164 238.621 103.656 238.277 103.008C237.933 102.352 237.761 101.604 237.761 100.764C237.761 99.924 237.933 99.18 238.277 98.532C238.621 97.876 239.105 97.368 239.729 97.008C240.361 96.64 241.089 96.456 241.913 96.456ZM248.926 97.632V100.2H252.046V101.256H248.926V103.884H252.406V105H247.558V96.528H252.406V97.632H248.926ZM260.37 105.432V106.764H253.674V105.432H260.37ZM270.697 96.66V105H269.317V98.748L266.905 105H265.705L263.281 98.748V105H261.913V96.66H263.569L266.329 103.32L269.041 96.66H270.697ZM276.507 96.42C277.291 96.42 277.999 96.604 278.631 96.972C279.271 97.34 279.771 97.856 280.131 98.52C280.499 99.176 280.683 99.92 280.683 100.752C280.683 101.584 280.499 102.332 280.131 102.996C279.771 103.652 279.271 104.168 278.631 104.544C277.999 104.912 277.291 105.096 276.507 105.096C275.715 105.096 274.999 104.912 274.359 104.544C273.727 104.168 273.227 103.652 272.859 102.996C272.491 102.332 272.307 101.584 272.307 100.752C272.307 99.92 272.491 99.176 272.859 98.52C273.227 97.856 273.727 97.34 274.359 96.972C274.999 96.604 275.715 96.42 276.507 96.42ZM276.507 97.692C275.963 97.692 275.479 97.816 275.055 98.064C274.631 98.312 274.299 98.668 274.059 99.132C273.827 99.596 273.711 100.136 273.711 100.752C273.711 101.368 273.827 101.908 274.059 102.372C274.299 102.836 274.631 103.192 275.055 103.44C275.479 103.688 275.963 103.812 276.507 103.812C277.043 103.812 277.519 103.688 277.935 103.44C278.359 103.192 278.687 102.836 278.919 102.372C279.159 101.908 279.279 101.368 279.279 100.752C279.279 100.136 279.159 99.596 278.919 99.132C278.687 98.668 278.359 98.312 277.935 98.064C277.519 97.816 277.043 97.692 276.507 97.692ZM289.575 100.752C289.575 101.608 289.399 102.356 289.047 102.996C288.703 103.628 288.195 104.12 287.523 104.472C286.859 104.824 286.063 105 285.135 105H282.303V96.528H285.135C286.063 96.528 286.859 96.704 287.523 97.056C288.195 97.4 288.703 97.888 289.047 98.52C289.399 99.152 289.575 99.896 289.575 100.752ZM285.027 103.764C286.043 103.764 286.823 103.5 287.367 102.972C287.911 102.444 288.183 101.704 288.183 100.752C288.183 99.8 287.911 99.06 287.367 98.532C286.823 98.004 286.043 97.74 285.027 97.74H283.671V103.764H285.027ZM292.499 96.528V101.556C292.499 102.308 292.663 102.868 292.991 103.236C293.327 103.604 293.795 103.788 294.395 103.788C294.987 103.788 295.447 103.604 295.775 103.236C296.111 102.868 296.279 102.308 296.279 101.556V96.528H297.647V101.556C297.647 102.716 297.347 103.596 296.747 104.196C296.147 104.788 295.355 105.084 294.371 105.084C293.395 105.084 292.611 104.788 292.019 104.196C291.427 103.596 291.131 102.716 291.131 101.556V96.528H292.499ZM300.85 103.932H303.778V105H299.482V96.528H300.85V103.932ZM306.457 97.632V100.2H309.577V101.256H306.457V103.884H309.937V105H305.089V96.528H309.937V97.632H306.457ZM317.901 105.432V106.764H311.205V105.432H317.901ZM324.28 105L322.252 101.868L320.44 105H318.868L321.496 100.68L318.808 96.528H320.44L322.432 99.6L324.232 96.528H325.804L323.188 100.776L325.912 105H324.28ZM332.009 105L329.981 101.868L328.169 105H326.597L329.225 100.68L326.537 96.528H328.169L330.161 99.6L331.961 96.528H333.533L330.917 100.776L333.641 105H332.009ZM339.737 105L337.709 101.868L335.897 105H334.325L336.953 100.68L334.265 96.528H335.897L337.889 99.6L339.689 96.528H341.261L338.645 100.776L341.369 105H339.737ZM347.465 105L345.437 101.868L343.625 105H342.053L344.681 100.68L341.993 96.528H343.625L345.617 99.6L347.417 96.528H348.989L346.373 100.776L349.097 105H347.465Z" fill="white"/>
<path d="M38.832 96.528V97.632H35.196V100.26H38.196V101.316H35.196V105H33.828V96.528H38.832ZM44.0707 96.444C45.1107 96.444 45.9747 96.708 46.6627 97.236C47.3507 97.764 47.8147 98.48 48.0547 99.384H46.6027C46.4027 98.872 46.0827 98.468 45.6427 98.172C45.2107 97.868 44.6787 97.716 44.0467 97.716C43.5427 97.716 43.0907 97.84 42.6907 98.088C42.2987 98.336 41.9867 98.692 41.7547 99.156C41.5307 99.612 41.4187 100.148 41.4187 100.764C41.4187 101.372 41.5307 101.908 41.7547 102.372C41.9867 102.828 42.2987 103.18 42.6907 103.428C43.0907 103.676 43.5427 103.8 44.0467 103.8C44.6787 103.8 45.2107 103.652 45.6427 103.356C46.0827 103.052 46.4027 102.648 46.6027 102.144H48.0547C47.8147 103.048 47.3507 103.764 46.6627 104.292C45.9747 104.812 45.1107 105.072 44.0707 105.072C43.2707 105.072 42.5627 104.892 41.9467 104.532C41.3307 104.164 40.8547 103.656 40.5187 103.008C40.1827 102.352 40.0147 101.604 40.0147 100.764C40.0147 99.924 40.1827 99.18 40.5187 98.532C40.8547 97.876 41.3307 97.364 41.9467 96.996C42.5627 96.628 43.2707 96.444 44.0707 96.444ZM53.4396 96.444C54.4796 96.444 55.3436 96.708 56.0316 97.236C56.7196 97.764 57.1836 98.48 57.4236 99.384H55.9716C55.7716 98.872 55.4516 98.468 55.0116 98.172C54.5796 97.868 54.0476 97.716 53.4156 97.716C52.9116 97.716 52.4596 97.84 52.0596 98.088C51.6676 98.336 51.3556 98.692 51.1236 99.156C50.8996 99.612 50.7876 100.148 50.7876 100.764C50.7876 101.372 50.8996 101.908 51.1236 102.372C51.3556 102.828 51.6676 103.18 52.0596 103.428C52.4596 103.676 52.9116 103.8 53.4156 103.8C54.0476 103.8 54.5796 103.652 55.0116 103.356C55.4516 103.052 55.7716 102.648 55.9716 102.144H57.4236C57.1836 103.048 56.7196 103.764 56.0316 104.292C55.3436 104.812 54.4796 105.072 53.4396 105.072C52.6396 105.072 51.9316 104.892 51.3156 104.532C50.6996 104.164 50.2236 103.656 49.8876 103.008C49.5516 102.352 49.3836 101.604 49.3836 100.764C49.3836 99.924 49.5516 99.18 49.8876 98.532C50.2236 97.876 50.6996 97.364 51.3156 96.996C51.9316 96.628 52.6396 96.444 53.4396 96.444ZM60.3005 98.4V99.912H58.7525V98.4H60.3005ZM60.3005 103.488V105H58.7525V103.488H60.3005ZM66.1108 103.884H70.2268V105H64.5868V103.932L68.6188 97.644H64.6708V96.528H70.1668V97.596L66.1108 103.884ZM74.4473 100.716L78.1793 105H76.5113L73.1633 101.076V105H71.7953V96.528H73.1633V100.404L76.5233 96.528H78.1793L74.4473 100.716ZM83.8816 96.528V102.672C83.8816 103.432 83.6696 104.024 83.2456 104.448C82.8216 104.872 82.2336 105.084 81.4816 105.084C80.6656 105.084 80.0256 104.848 79.5616 104.376C79.0976 103.904 78.8656 103.236 78.8656 102.372H80.2216C80.2216 102.836 80.3176 103.196 80.5096 103.452C80.7096 103.708 81.0136 103.836 81.4216 103.836C81.7976 103.836 82.0736 103.728 82.2496 103.512C82.4256 103.296 82.5136 103.016 82.5136 102.672V96.528H83.8816ZM89.7247 100.08V101.232H84.7807V100.08H89.7247ZM102.755 96.528L100.643 105H98.9631L97.1751 98.448L95.3871 105H93.7071L91.5951 96.528H93.0951L94.5591 103.416L96.4191 96.528H97.9311L99.7911 103.416L101.255 96.528H102.755ZM108 96.444C109.04 96.444 109.904 96.708 110.592 97.236C111.28 97.764 111.744 98.48 111.984 99.384H110.532C110.332 98.872 110.012 98.468 109.572 98.172C109.14 97.868 108.608 97.716 107.976 97.716C107.472 97.716 107.02 97.84 106.62 98.088C106.228 98.336 105.916 98.692 105.684 99.156C105.46 99.612 105.348 100.148 105.348 100.764C105.348 101.372 105.46 101.908 105.684 102.372C105.916 102.828 106.228 103.18 106.62 103.428C107.02 103.676 107.472 103.8 107.976 103.8C108.608 103.8 109.14 103.652 109.572 103.356C110.012 103.052 110.332 102.648 110.532 102.144H111.984C111.744 103.048 111.28 103.764 110.592 104.292C109.904 104.812 109.04 105.072 108 105.072C107.2 105.072 106.492 104.892 105.876 104.532C105.26 104.164 104.784 103.656 104.448 103.008C104.112 102.352 103.944 101.604 103.944 100.764C103.944 99.924 104.112 99.18 104.448 98.532C104.784 97.876 105.26 97.364 105.876 96.996C106.492 96.628 107.2 96.444 108 96.444ZM118.641 103.164H115.065L114.417 105H112.953L116.073 96.66H117.645L120.753 105H119.289L118.641 103.164ZM118.257 102.108L116.853 98.148L115.449 102.108H118.257ZM127.457 96.528V97.632H125.093V105H123.713V97.632H121.361V96.528H127.457ZM133.77 103.164H130.194L129.546 105H128.082L131.202 96.66H132.774L135.882 105H134.418L133.77 103.164ZM133.386 102.108L131.982 98.148L130.578 102.108H133.386ZM136.933 100.704C136.933 102.056 137.173 103.116 137.653 103.884C138.133 104.644 138.933 105.024 140.053 105.024C141.173 105.024 141.973 104.64 142.453 103.872C142.933 103.104 143.173 102.048 143.173 100.704C143.173 99.368 142.933 98.32 142.453 97.56C141.973 96.792 141.173 96.408 140.053 96.408C138.933 96.408 138.133 96.788 137.653 97.548C137.173 98.308 136.933 99.36 136.933 100.704ZM141.805 100.704C141.805 101.68 141.685 102.428 141.445 102.948C141.205 103.468 140.741 103.728 140.053 103.728C139.357 103.728 138.889 103.468 138.649 102.948C138.409 102.428 138.289 101.68 138.289 100.704C138.289 99.736 138.409 98.996 138.649 98.484C138.889 97.972 139.357 97.716 140.053 97.716C140.741 97.716 141.205 97.976 141.445 98.496C141.685 99.008 141.805 99.744 141.805 100.704ZM144.65 100.704C144.65 102.056 144.89 103.116 145.37 103.884C145.85 104.644 146.65 105.024 147.77 105.024C148.89 105.024 149.69 104.64 150.17 103.872C150.65 103.104 150.89 102.048 150.89 100.704C150.89 99.368 150.65 98.32 150.17 97.56C149.69 96.792 148.89 96.408 147.77 96.408C146.65 96.408 145.85 96.788 145.37 97.548C144.89 98.308 144.65 99.36 144.65 100.704ZM149.522 100.704C149.522 101.68 149.402 102.428 149.162 102.948C148.922 103.468 148.458 103.728 147.77 103.728C147.074 103.728 146.606 103.468 146.366 102.948C146.126 102.428 146.006 101.68 146.006 100.704C146.006 99.736 146.126 98.996 146.366 98.484C146.606 97.972 147.074 97.716 147.77 97.716C148.458 97.716 148.922 97.976 149.162 98.496C149.402 99.008 149.522 99.744 149.522 100.704ZM151.898 97.812V96.528H154.61V105H153.17V97.812H151.898Z" fill="white"/>
<path d="M179.196 165.712V169H177.828V160.528H180.708C181.684 160.528 182.416 160.76 182.904 161.224C183.4 161.688 183.648 162.324 183.648 163.132C183.648 163.932 183.396 164.564 182.892 165.028C182.388 165.484 181.66 165.712 180.708 165.712H179.196ZM180.564 164.596C181.692 164.596 182.256 164.108 182.256 163.132C182.256 162.652 182.12 162.288 181.848 162.04C181.584 161.784 181.156 161.656 180.564 161.656H179.196V164.596H180.564ZM190.536 160.528V161.632H188.172V169H186.792V161.632H184.44V160.528H190.536ZM192.876 167.488V169H191.328V167.488H192.876ZM204.226 169H202.858L198.742 162.748V169H197.374V160.54H198.742L202.858 166.816V160.54H204.226V169ZM210.046 160.42C210.83 160.42 211.538 160.604 212.17 160.972C212.81 161.34 213.31 161.856 213.67 162.52C214.038 163.176 214.222 163.92 214.222 164.752C214.222 165.584 214.038 166.332 213.67 166.996C213.31 167.652 212.81 168.168 212.17 168.544C211.538 168.912 210.83 169.096 210.046 169.096C209.254 169.096 208.538 168.912 207.898 168.544C207.266 168.168 206.766 167.652 206.398 166.996C206.03 166.332 205.846 165.584 205.846 164.752C205.846 163.92 206.03 163.176 206.398 162.52C206.766 161.856 207.266 161.34 207.898 160.972C208.538 160.604 209.254 160.42 210.046 160.42ZM210.046 161.692C209.502 161.692 209.018 161.816 208.594 162.064C208.17 162.312 207.838 162.668 207.598 163.132C207.366 163.596 207.25 164.136 207.25 164.752C207.25 165.368 207.366 165.908 207.598 166.372C207.838 166.836 208.17 167.192 208.594 167.44C209.018 167.688 209.502 167.812 210.046 167.812C210.582 167.812 211.058 167.688 211.474 167.44C211.898 167.192 212.226 166.836 212.458 166.372C212.698 165.908 212.818 165.368 212.818 164.752C212.818 164.136 212.698 163.596 212.458 163.132C212.226 162.668 211.898 162.312 211.474 162.064C211.058 161.816 210.582 161.692 210.046 161.692ZM216.922 167.488V169H215.374V167.488H216.922ZM221.072 167.932C222.368 167.044 223.404 166.176 224.18 165.328C224.964 164.472 225.356 163.68 225.356 162.952C225.356 162.52 225.248 162.176 225.032 161.92C224.824 161.664 224.484 161.536 224.012 161.536C223.524 161.536 223.156 161.696 222.908 162.016C222.66 162.328 222.52 162.776 222.488 163.36H221.156C221.212 162.392 221.508 161.652 222.044 161.14C222.588 160.628 223.28 160.372 224.12 160.372C224.944 160.372 225.588 160.592 226.052 161.032C226.524 161.464 226.76 162.064 226.76 162.832C226.76 163.448 226.568 164.072 226.184 164.704C225.808 165.336 225.328 165.92 224.744 166.456C224.16 166.984 223.556 167.44 222.932 167.824H226.952V168.94H221.072V167.932ZM228.12 167.932C229.416 167.044 230.452 166.176 231.228 165.328C232.012 164.472 232.404 163.68 232.404 162.952C232.404 162.52 232.296 162.176 232.08 161.92C231.872 161.664 231.532 161.536 231.06 161.536C230.572 161.536 230.204 161.696 229.956 162.016C229.708 162.328 229.568 162.776 229.536 163.36H228.204C228.26 162.392 228.556 161.652 229.092 161.14C229.636 160.628 230.328 160.372 231.168 160.372C231.992 160.372 232.636 160.592 233.1 161.032C233.572 161.464 233.808 162.064 233.808 162.832C233.808 163.448 233.616 164.072 233.232 164.704C232.856 165.336 232.376 165.92 231.792 166.456C231.208 166.984 230.604 167.44 229.98 167.824H234V168.94H228.12V167.932ZM236.813 166.552C236.877 167.008 237.033 167.36 237.281 167.608C237.537 167.856 237.881 167.98 238.313 167.98C238.921 167.98 239.373 167.74 239.669 167.26C239.973 166.772 240.125 166.008 240.125 164.968L240.113 164.56C239.985 164.992 239.717 165.34 239.309 165.604C238.909 165.86 238.441 165.988 237.905 165.988C237.073 165.988 236.421 165.74 235.949 165.244C235.477 164.74 235.241 164.04 235.241 163.144C235.241 162.6 235.349 162.112 235.565 161.68C235.781 161.248 236.105 160.908 236.537 160.66C236.969 160.404 237.501 160.276 238.133 160.276C239.357 160.276 240.197 160.652 240.653 161.404C241.117 162.148 241.349 163.18 241.349 164.5C241.349 165.996 241.113 167.136 240.641 167.92C240.177 168.704 239.401 169.096 238.313 169.096C237.473 169.096 236.813 168.86 236.333 168.388C235.861 167.908 235.589 167.296 235.517 166.552H236.813ZM239.981 163.288C239.981 162.768 239.829 162.336 239.525 161.992C239.229 161.64 238.781 161.464 238.181 161.464C237.685 161.464 237.285 161.612 236.981 161.908C236.685 162.204 236.537 162.62 236.537 163.156C236.537 163.724 236.685 164.16 236.981 164.464C237.285 164.768 237.697 164.92 238.217 164.92C238.521 164.92 238.805 164.86 239.069 164.74C239.341 164.612 239.561 164.428 239.729 164.188C239.897 163.94 239.981 163.64 239.981 163.288ZM246.814 160.444C247.854 160.444 248.718 160.708 249.406 161.236C250.094 161.764 250.558 162.48 250.798 163.384H249.346C249.146 162.872 248.826 162.468 248.386 162.172C247.954 161.868 247.422 161.716 246.79 161.716C246.286 161.716 245.834 161.84 245.434 162.088C245.042 162.336 244.73 162.692 244.498 163.156C244.274 163.612 244.162 164.148 244.162 164.764C244.162 165.372 244.274 165.908 244.498 166.372C244.73 166.828 245.042 167.18 245.434 167.428C245.834 167.676 246.286 167.8 246.79 167.8C247.422 167.8 247.954 167.652 248.386 167.356C248.826 167.052 249.146 166.648 249.346 166.144H250.798C250.558 167.048 250.094 167.764 249.406 168.292C248.718 168.812 247.854 169.072 246.814 169.072C246.014 169.072 245.306 168.892 244.69 168.532C244.074 168.164 243.598 167.656 243.262 167.008C242.926 166.352 242.758 165.604 242.758 164.764C242.758 163.924 242.926 163.18 243.262 162.532C243.598 161.876 244.074 161.364 244.69 160.996C245.306 160.628 246.014 160.444 246.814 160.444ZM256.843 162.808C256.699 161.864 256.207 161.392 255.367 161.392C254.759 161.392 254.303 161.636 253.999 162.124C253.695 162.604 253.543 163.36 253.543 164.392L253.555 164.8C253.675 164.368 253.935 164.024 254.335 163.768C254.735 163.512 255.207 163.384 255.751 163.384C256.583 163.384 257.235 163.632 257.707 164.128C258.179 164.624 258.415 165.324 258.415 166.228C258.415 166.772 258.307 167.26 258.091 167.692C257.875 168.116 257.551 168.456 257.119 168.712C256.687 168.96 256.155 169.084 255.523 169.084C254.299 169.084 253.459 168.704 253.003 167.944C252.547 167.184 252.319 166.14 252.319 164.812C252.319 163.292 252.563 162.156 253.051 161.404C253.539 160.652 254.339 160.276 255.451 160.276C256.283 160.276 256.919 160.512 257.359 160.984C257.807 161.456 258.067 162.064 258.139 162.808H256.843ZM253.675 166.072C253.675 166.592 253.827 167.028 254.131 167.38C254.435 167.724 254.883 167.896 255.475 167.896C255.979 167.896 256.379 167.748 256.675 167.452C256.979 167.156 257.131 166.744 257.131 166.216C257.131 165.648 256.979 165.212 256.675 164.908C256.371 164.604 255.959 164.452 255.439 164.452C254.967 164.452 254.555 164.592 254.203 164.872C253.851 165.152 253.675 165.552 253.675 166.072ZM259.772 167.932C261.068 167.044 262.104 166.176 262.88 165.328C263.664 164.472 264.056 163.68 264.056 162.952C264.056 162.52 263.948 162.176 263.732 161.92C263.524 161.664 263.184 161.536 262.712 161.536C262.224 161.536 261.856 161.696 261.608 162.016C261.36 162.328 261.22 162.776 261.188 163.36H259.856C259.912 162.392 260.208 161.652 260.744 161.14C261.288 160.628 261.98 160.372 262.82 160.372C263.644 160.372 264.288 160.592 264.752 161.032C265.224 161.464 265.46 162.064 265.46 162.832C265.46 163.448 265.268 164.072 264.884 164.704C264.508 165.336 264.028 165.92 263.444 166.456C262.86 166.984 262.256 167.44 261.632 167.824H265.652V168.94H259.772V167.932ZM272.112 161.512L268.956 169H267.516L270.72 161.668H266.52V160.48H272.112V161.512ZM273.142 167.932C274.438 167.044 275.474 166.176 276.25 165.328C277.034 164.472 277.426 163.68 277.426 162.952C277.426 162.52 277.318 162.176 277.102 161.92C276.894 161.664 276.554 161.536 276.082 161.536C275.594 161.536 275.226 161.696 274.978 162.016C274.73 162.328 274.59 162.776 274.558 163.36H273.226C273.282 162.392 273.578 161.652 274.114 161.14C274.658 160.628 275.35 160.372 276.19 160.372C277.014 160.372 277.658 160.592 278.122 161.032C278.594 161.464 278.83 162.064 278.83 162.832C278.83 163.448 278.638 164.072 278.254 164.704C277.878 165.336 277.398 165.92 276.814 166.456C276.23 166.984 275.626 167.44 275.002 167.824H279.022V168.94H273.142V167.932ZM284.415 160.456C285.423 160.456 286.263 160.704 286.935 161.2C287.607 161.696 288.051 162.372 288.267 163.228H286.827C286.643 162.772 286.339 162.408 285.915 162.136C285.499 161.864 285.003 161.728 284.427 161.728C283.899 161.728 283.423 161.852 282.999 162.1C282.583 162.348 282.255 162.7 282.015 163.156C281.783 163.612 281.667 164.148 281.667 164.764C281.667 165.412 281.787 165.968 282.027 166.432C282.267 166.896 282.603 167.252 283.035 167.5C283.475 167.74 283.983 167.86 284.559 167.86C285.263 167.86 285.867 167.644 286.371 167.212C286.875 166.772 287.179 166.172 287.283 165.412H284.175V164.404H288.435V165.712C288.339 166.336 288.115 166.904 287.763 167.416C287.419 167.92 286.959 168.324 286.383 168.628C285.815 168.932 285.163 169.084 284.427 169.084C283.603 169.084 282.875 168.9 282.243 168.532C281.611 168.164 281.123 167.656 280.779 167.008C280.435 166.352 280.263 165.604 280.263 164.764C280.263 163.924 280.435 163.18 280.779 162.532C281.123 161.876 281.607 161.368 282.231 161.008C282.863 160.64 283.591 160.456 284.415 160.456ZM289.856 164.704C289.856 166.056 290.096 167.116 290.576 167.884C291.056 168.644 291.856 169.024 292.976 169.024C294.096 169.024 294.896 168.64 295.376 167.872C295.856 167.104 296.096 166.048 296.096 164.704C296.096 163.368 295.856 162.32 295.376 161.56C294.896 160.792 294.096 160.408 292.976 160.408C291.856 160.408 291.056 160.788 290.576 161.548C290.096 162.308 289.856 163.36 289.856 164.704ZM294.728 164.704C294.728 165.68 294.608 166.428 294.368 166.948C294.128 167.468 293.664 167.728 292.976 167.728C292.28 167.728 291.812 167.468 291.572 166.948C291.332 166.428 291.212 165.68 291.212 164.704C291.212 163.736 291.332 162.996 291.572 162.484C291.812 161.972 292.28 161.716 292.976 161.716C293.664 161.716 294.128 161.976 294.368 162.496C294.608 163.008 294.728 163.744 294.728 164.704ZM297.573 164.704C297.573 166.056 297.813 167.116 298.293 167.884C298.773 168.644 299.573 169.024 300.693 169.024C301.813 169.024 302.613 168.64 303.093 167.872C303.573 167.104 303.813 166.048 303.813 164.704C303.813 163.368 303.573 162.32 303.093 161.56C302.613 160.792 301.813 160.408 300.693 160.408C299.573 160.408 298.773 160.788 298.293 161.548C297.813 162.308 297.573 163.36 297.573 164.704ZM302.445 164.704C302.445 165.68 302.325 166.428 302.085 166.948C301.845 167.468 301.381 167.728 300.693 167.728C299.997 167.728 299.529 167.468 299.289 166.948C299.049 166.428 298.929 165.68 298.929 164.704C298.929 163.736 299.049 162.996 299.289 162.484C299.529 161.972 299.997 161.716 300.693 161.716C301.381 161.716 301.845 161.976 302.085 162.496C302.325 163.008 302.445 163.744 302.445 164.704ZM304.821 161.812V160.528H307.533V169H306.093V161.812H304.821ZM313.421 164.08V165.232H308.477V164.08H313.421ZM315.519 164.704C315.519 166.056 315.759 167.116 316.239 167.884C316.719 168.644 317.519 169.024 318.639 169.024C319.759 169.024 320.559 168.64 321.039 167.872C321.519 167.104 321.759 166.048 321.759 164.704C321.759 163.368 321.519 162.32 321.039 161.56C320.559 160.792 319.759 160.408 318.639 160.408C317.519 160.408 316.719 160.788 316.239 161.548C315.759 162.308 315.519 163.36 315.519 164.704ZM320.391 164.704C320.391 165.68 320.271 166.428 320.031 166.948C319.791 167.468 319.327 167.728 318.639 167.728C317.943 167.728 317.475 167.468 317.235 166.948C316.995 166.428 316.875 165.68 316.875 164.704C316.875 163.736 316.995 162.996 317.235 162.484C317.475 161.972 317.943 161.716 318.639 161.716C319.327 161.716 319.791 161.976 320.031 162.496C320.271 163.008 320.391 163.744 320.391 164.704Z" fill="white"/>
<path d="M42.612 160.66V169H41.232V162.748L38.82 169H37.62L35.196 162.748V169H33.828V160.66H35.484L38.244 167.32L40.956 160.66H42.612ZM48.7497 167.164H45.1737L44.5257 169H43.0617L46.1817 160.66H47.7537L50.8617 169H49.3977L48.7497 167.164ZM48.3657 166.108L46.9617 162.148L45.5577 166.108H48.3657ZM55.0974 160.444C56.1374 160.444 57.0014 160.708 57.6894 161.236C58.3774 161.764 58.8414 162.48 59.0814 163.384H57.6294C57.4294 162.872 57.1094 162.468 56.6694 162.172C56.2374 161.868 55.7054 161.716 55.0734 161.716C54.5694 161.716 54.1174 161.84 53.7174 162.088C53.3254 162.336 53.0134 162.692 52.7814 163.156C52.5574 163.612 52.4454 164.148 52.4454 164.764C52.4454 165.372 52.5574 165.908 52.7814 166.372C53.0134 166.828 53.3254 167.18 53.7174 167.428C54.1174 167.676 54.5694 167.8 55.0734 167.8C55.7054 167.8 56.2374 167.652 56.6694 167.356C57.1094 167.052 57.4294 166.648 57.6294 166.144H59.0814C58.8414 167.048 58.3774 167.764 57.6894 168.292C57.0014 168.812 56.1374 169.072 55.0974 169.072C54.2974 169.072 53.5894 168.892 52.9734 168.532C52.3574 168.164 51.8814 167.656 51.5454 167.008C51.2094 166.352 51.0414 165.604 51.0414 164.764C51.0414 163.924 51.2094 163.18 51.5454 162.532C51.8814 161.876 52.3574 161.364 52.9734 160.996C53.5894 160.628 54.2974 160.444 55.0974 160.444ZM63.5068 160.528V169H62.1388V160.528H63.5068ZM71.8742 164.752C71.8742 165.608 71.6982 166.356 71.3462 166.996C71.0022 167.628 70.4942 168.12 69.8222 168.472C69.1582 168.824 68.3622 169 67.4342 169H64.6022V160.528H67.4342C68.3622 160.528 69.1582 160.704 69.8222 161.056C70.4942 161.4 71.0022 161.888 71.3462 162.52C71.6982 163.152 71.8742 163.896 71.8742 164.752ZM67.3262 167.764C68.3422 167.764 69.1222 167.5 69.6662 166.972C70.2102 166.444 70.4822 165.704 70.4822 164.752C70.4822 163.8 70.2102 163.06 69.6662 162.532C69.1222 162.004 68.3422 161.74 67.3262 161.74H65.9702V167.764H67.3262ZM73.9627 162.4V163.912H72.4147V162.4H73.9627ZM73.9627 167.488V169H72.4147V167.488H73.9627ZM81.809 169L79.781 165.868L77.969 169H76.397L79.025 164.68L76.337 160.528H77.969L79.961 163.6L81.761 160.528H83.333L80.717 164.776L83.441 169H81.809ZM88.7373 169L86.7093 165.868L84.8973 169H83.3253L85.9533 164.68L83.2653 160.528H84.8973L86.8893 163.6L88.6893 160.528H90.2613L87.6453 164.776L90.3693 169H88.7373ZM94.8376 164.08V165.232H89.8936V164.08H94.8376ZM101.176 169L99.1479 165.868L97.3359 169H95.7639L98.3919 164.68L95.7039 160.528H97.3359L99.3279 163.6L101.128 160.528H102.7L100.084 164.776L102.808 169H101.176ZM108.104 169L106.076 165.868L104.264 169H102.692L105.32 164.68L102.632 160.528H104.264L106.256 163.6L108.056 160.528H109.628L107.012 164.776L109.736 169H108.104ZM114.204 164.08V165.232H109.26V164.08H114.204ZM120.543 169L118.515 165.868L116.703 169H115.131L117.759 164.68L115.071 160.528H116.703L118.695 163.6L120.495 160.528H122.067L119.451 164.776L122.175 169H120.543ZM127.471 169L125.443 165.868L123.631 169H122.059L124.687 164.68L121.999 160.528H123.631L125.623 163.6L127.423 160.528H128.995L126.379 164.776L129.103 169H127.471ZM133.571 164.08V165.232H128.627V164.08H133.571ZM139.91 169L137.882 165.868L136.07 169H134.498L137.126 164.68L134.438 160.528H136.07L138.062 163.6L139.862 160.528H141.434L138.818 164.776L141.542 169H139.91ZM146.838 169L144.81 165.868L142.998 169H141.426L144.054 164.68L141.366 160.528H142.998L144.99 163.6L146.79 160.528H148.362L145.746 164.776L148.47 169H146.838Z" fill="white"/>
</svg>
