<svg width="375" height="232" viewBox="0 0 375 232" fill="none" xmlns="http://www.w3.org/2000/svg">
<rect x="51" y="37" width="272" height="157" rx="4" stroke="white" stroke-width="2"/>
<path fill-rule="evenodd" clip-rule="evenodd" d="M114 137.057C114 138.071 113.015 139 111.94 139H109.97C108.985 139 108 138.071 108 137.057V109.858C108 108.929 108.985 108 109.97 108H114V137.057ZM141 111.94C141 113.015 140.083 114 139.167 114H117.833C116.917 114 116 113.015 116 111.94V108H141V111.94ZM147.03 139C148.015 139 149 138.071 149 137.057V109.858C149 108.929 148.015 108 147.03 108H143V137.057C143 138.071 143.985 139 145.06 139H147.03ZM141 143C141 144 140.083 145 139.167 145H117.833C116.917 145 116 144 116 143V141C116 140 116.917 139 117.833 139H139.167C140.083 139 141 140 141 141V143ZM114 175V144.862C114 143.931 113.015 143 111.94 143H109.97C108.985 143 108 143.931 108 144.862V173.138C108 174.069 108.985 175 109.97 175H114ZM149 173.138C149 174.069 148.015 175 147.03 175H143V144.862C143 143.931 143.985 143 145.06 143H147.03C148.015 143 149 143.931 149 144.862V173.138Z" fill="white"/>
<path fill-rule="evenodd" clip-rule="evenodd" d="M209.06 144C207.985 144 207 144.929 207 145.943V175H211.03C212.015 175 213 174.071 213 173.142V145.943C213 144.929 212.015 144 211.03 144H209.06ZM182.833 169C181.917 169 181 169.985 181 171.06V175H206V171.06C206 169.985 205.083 169 204.167 169H182.833ZM173 145.943C173 144.929 173.985 144 174.97 144H176.94C178.015 144 179 144.929 179 145.943V175H174.97C173.985 175 173 174.071 173 173.142V145.943ZM182.833 139C181.917 139 181 140 181 141V143C181 144 181.917 145 182.833 145H204.167C205.083 145 206 144 206 143V141C206 140 205.083 139 204.167 139H182.833ZM207 138.138V108H211.03C212.015 108 213 108.931 213 109.862V138.138C213 139.069 212.015 140 211.03 140H209.06C207.985 140 207 139.069 207 138.138Z" fill="white"/>
<path fill-rule="evenodd" clip-rule="evenodd" d="M258.06 144C256.985 144 256 144.929 256 145.943V175H260.03C261.015 175 262 174.071 262 173.142V145.943C262 144.929 261.015 144 260.03 144H258.06ZM231.833 169C230.917 169 230 169.985 230 171.06V175H255V171.06C255 169.985 254.083 169 253.167 169H231.833ZM222 145.943C222 144.929 222.985 144 223.97 144H225.94C227.015 144 228 144.929 228 145.943V175H223.97C222.985 175 222 174.071 222 173.142V145.943ZM231.833 139C230.917 139 230 140 230 141V143C230 144 230.917 145 231.833 145H253.167C254.083 145 255 144 255 143V141C255 140 254.083 139 253.167 139H231.833ZM256 138.138V108H260.03C261.015 108 262 108.931 262 109.862V138.138C262 139.069 261.015 140 260.03 140H258.06C256.985 140 256 139.069 256 138.138Z" fill="white"/>
<path fill-rule="evenodd" clip-rule="evenodd" d="M121.656 103.157L120.65 104V95.8274L117.929 97.906L117 96.5613L120.085 94.2044L117 91.8474L117.929 90.5027L120.65 92.5813V85.0477V84L126.981 89.0166L128 89.8116L127.992 89.8177L127.929 89.8679L122.752 93.9766L126.981 97.3274L128 98.1224L127.992 98.1285L127.929 98.1787L121.656 103.157ZM122 100L125 98.0024L122 96V100ZM125 90.0024L122 92V88L125 90.0024Z" fill="white"/>
<path d="M83 135H77.0077L71.5 145.5L65.9923 135H60L69.7653 152.798C70.5253 154.183 72.5159 154.182 73.2736 152.795L83 135Z" fill="#FDBA12"/>
<path d="M286 151H291.992L297.5 140.5L303.008 151H309L299.235 133.202C298.475 131.817 296.484 131.818 295.726 133.205L286 151Z" fill="white"/>
</svg>
