<svg width="375" height="232" viewBox="0 0 375 232" fill="none" xmlns="http://www.w3.org/2000/svg">
<rect x="51" y="37" width="272" height="157" rx="4" stroke="white" stroke-width="2"/>
<path fill-rule="evenodd" clip-rule="evenodd" d="M179 137.057C179 138.071 178.015 139 176.94 139H174.97C173.985 139 173 138.071 173 137.057V109.858C173 108.929 173.985 108 174.97 108H179V137.057ZM205 111.94C205 113.015 204.083 114 203.167 114H181.833C180.917 114 180 113.015 180 111.94V108H205V111.94ZM203.167 144C204.083 144 205 143 205 142V140C205 139 204.083 138 203.167 138H181.833C180.917 138 180 139 180 140V142C180 143 180.917 144 181.833 144H203.167ZM179 144.862V175H174.97C173.985 175 173 174.069 173 173.138V144.862C173 143.931 173.985 143 174.97 143H176.94C178.015 143 179 143.931 179 144.862Z" fill="white"/>
<path fill-rule="evenodd" clip-rule="evenodd" d="M113.611 136.81C113.611 137.815 112.69 138.736 111.685 138.736H109.842C108.921 138.736 108 137.815 108 136.81V109.842C108 108.921 108.921 108 109.842 108H113.611V136.81ZM141.081 111.685C141.081 112.69 140.16 113.611 139.239 113.611H117.799C116.878 113.611 115.956 112.69 115.956 111.685V108H141.081V111.685ZM147.195 138.736C148.116 138.736 149.037 137.815 149.037 136.81V109.842C149.037 108.921 148.116 108 147.195 108H143.426V136.81C143.426 137.815 144.347 138.736 145.353 138.736H147.195ZM113.611 145.185V175H109.842C108.921 175 108 174.079 108 173.158V145.185C108 144.264 108.921 143.342 109.842 143.342H111.685C112.69 143.342 113.611 144.264 113.611 145.185ZM147.195 175C148.116 175 149.037 174.079 149.037 173.158V145.185C149.037 144.264 148.116 143.342 147.195 143.342H145.353C144.347 143.342 143.426 144.264 143.426 145.185V175H147.195ZM141.081 170.31V175H115.956V170.31C115.956 169.389 116.878 168.467 117.799 168.467H139.239C140.16 168.467 141.081 169.389 141.081 170.31Z" fill="white"/>
<path fill-rule="evenodd" clip-rule="evenodd" d="M228 137.057C228 138.071 227.015 139 225.94 139H223.97C222.985 139 222 138.071 222 137.057V109.858C222 108.929 222.985 108 223.97 108H228V137.057ZM254 111.94C254 113.015 253.083 114 252.167 114H230.833C229.917 114 229 113.015 229 111.94V108H254V111.94ZM252.167 144C253.083 144 254 143 254 142V140C254 139 253.083 138 252.167 138H230.833C229.917 138 229 139 229 140V142C229 143 229.917 144 230.833 144H252.167ZM228 144.862V175H223.97C222.985 175 222 174.069 222 173.138V144.862C222 143.931 222.985 143 223.97 143H225.94C227.015 143 228 143.931 228 144.862Z" fill="white"/>
<path d="M83 135H77.0077L71.5 145.5L65.9923 135H60L69.7653 152.798C70.5253 154.183 72.5159 154.182 73.2736 152.795L83 135Z" fill="white"/>
<path d="M286 151H291.992L297.5 140.5L303.008 151H309L299.235 133.202C298.475 131.817 296.484 131.818 295.726 133.205L286 151Z" fill="#FDBA12"/>
</svg>
