<svg width="323" height="156" viewBox="0 0 323 156" fill="none" xmlns="http://www.w3.org/2000/svg">
<rect x="60.3389" y="11.0068" width="202" height="132" rx="3" stroke="white" stroke-width="2"/>
<path opacity="0.25" fill-rule="evenodd" clip-rule="evenodd" d="M119.339 41.0068C119.339 53.7096 109.042 64.0068 96.3396 64.0068C83.6358 64.0068 73.3389 53.7096 73.3389 41.0068C73.3389 28.3041 83.6358 18.0068 96.3396 18.0068C109.042 18.0068 119.339 28.3041 119.339 41.0068Z" stroke="white" stroke-width="2"/>
<path opacity="0.25" fill-rule="evenodd" clip-rule="evenodd" d="M256.339 93.0068C256.339 110.128 242.46 124.007 225.34 124.007C208.217 124.007 194.339 110.128 194.339 93.0068C194.339 75.8858 208.217 62.0068 225.34 62.0068C242.46 62.0068 256.339 75.8858 256.339 93.0068Z" stroke="white" stroke-width="2"/>
<rect x="153.833" y="117.507" width="13" height="8" rx="0.5" stroke="white"/>
<rect x="147.02" y="108.807" width="7.98798" height="3.9" rx="0.7" stroke="white" stroke-width="0.6"/>
<rect x="166.953" y="108.807" width="7.98798" height="3.9" rx="0.7" stroke="white" stroke-width="0.6"/>
<path opacity="0.25" fill-rule="evenodd" clip-rule="evenodd" d="M243.339 36.5068C243.339 46.7243 235.057 55.0068 224.839 55.0068C214.621 55.0068 206.339 46.7243 206.339 36.5068C206.339 26.2894 214.621 18.0068 224.839 18.0068C235.057 18.0068 243.339 26.2894 243.339 36.5068Z" stroke="white" stroke-width="2"/>
<path opacity="0.25" fill-rule="evenodd" clip-rule="evenodd" d="M189.339 48.0068C189.339 64.0233 176.356 77.0068 160.34 77.0068C144.322 77.0068 131.339 64.0233 131.339 48.0068C131.339 31.9903 144.322 19.0068 160.34 19.0068C176.356 19.0068 189.339 31.9903 189.339 48.0068Z" stroke="white" stroke-width="2"/>
<path opacity="0.25" fill-rule="evenodd" clip-rule="evenodd" d="M119.339 98.0068C119.339 110.71 109.042 121.007 96.3396 121.007C83.6358 121.007 73.3389 110.71 73.3389 98.0068C73.3389 85.3041 83.6358 75.0068 96.3396 75.0068C109.042 75.0068 119.339 85.3041 119.339 98.0068Z" stroke="white" stroke-width="2"/>
<rect opacity="0.25" x="69.5889" y="58.2568" width="0.5" height="23.5" stroke="white" stroke-width="0.5"/>
<rect opacity="0.25" x="122.589" y="58.2568" width="0.5" height="23.5" stroke="white" stroke-width="0.5"/>
<path d="M135.514 124.045C134.16 121.745 134.47 118.739 136.445 116.764C138.788 114.421 142.587 114.421 144.93 116.764C146.903 118.737 147.215 121.746 145.865 124.045" stroke="white" stroke-width="0.6" stroke-linecap="round" stroke-linejoin="round"/>
<rect x="138.973" y="119.834" width="3.41769" height="9.04867" rx="1.70885" stroke="white" stroke-width="0.8"/>
<path d="M135.514 103.769C134.16 101.469 134.47 98.4634 136.445 96.4884C138.788 94.1451 142.587 94.1451 144.93 96.4883C146.903 98.4614 147.215 101.47 145.865 103.769" stroke="white" stroke-width="0.6" stroke-linecap="round" stroke-linejoin="round"/>
<rect x="138.973" y="99.5582" width="3.41769" height="9.04867" rx="1.70885" stroke="white" stroke-width="0.8"/>
<path d="M174.815 124.045C173.46 121.745 173.771 118.739 175.746 116.764C178.089 114.421 181.888 114.421 184.231 116.764C186.204 118.737 186.516 121.746 185.166 124.045" stroke="white" stroke-width="0.6" stroke-linecap="round" stroke-linejoin="round"/>
<rect x="178.274" y="119.834" width="3.41769" height="9.04867" rx="1.70885" stroke="white" stroke-width="0.8"/>
<path d="M174.815 103.769C173.46 101.469 173.771 98.4634 175.746 96.4884C178.089 94.1451 181.888 94.1451 184.231 96.4883C186.204 98.4614 186.516 101.47 185.166 103.769" stroke="white" stroke-width="0.6" stroke-linecap="round" stroke-linejoin="round"/>
<rect x="178.274" y="99.5582" width="3.41769" height="9.04867" rx="1.70885" stroke="white" stroke-width="0.8"/>
<g opacity="0.25">
<path d="M155.164 103.769C153.81 101.469 154.12 98.4634 156.095 96.4884C158.439 94.1451 162.237 94.1451 164.581 96.4883C166.554 98.4614 166.865 101.47 165.515 103.769" stroke="white" stroke-width="0.6" stroke-linecap="round" stroke-linejoin="round"/>
<rect x="158.624" y="99.5582" width="3.41769" height="9.04867" rx="1.70885" stroke="white" stroke-width="0.8"/>
</g>
</svg>
