<svg width="323" height="142" viewBox="0 0 323 142" fill="none" xmlns="http://www.w3.org/2000/svg">
<path opacity="0.2" d="M118.5 22.4211L121.5 21H136.269L139.5 22.4211L136.5 24H121.5" fill="white"/>
<path opacity="0.2" d="M151.5 22.4211L154.357 21H168.423L171.5 22.4211L168.643 24H154.357" fill="white"/>
<path opacity="0.2" d="M184.5 22.4211L187.357 21H201.423L204.5 22.4211L201.643 24H187.357" fill="white"/>
<path opacity="0.2" d="M120.5 4.50516V20.6289L117.553 23H116.5V0" fill="white"/>
<path opacity="0.2" d="M153.5 4.50516V20.6289L150.553 23H149.5V0" fill="white"/>
<path opacity="0.2" d="M185.5 4.50516V20.6289L183.289 23H182.5V0" fill="white"/>
<path opacity="0.2" d="M137.5 4.50516V20.6289L139.711 23H140.5V0" fill="white"/>
<path opacity="0.2" d="M170.5 4.50516V20.6289L172.711 23H173.5V0" fill="white"/>
<path opacity="0.2" d="M202.5 4.50516V20.6289L205.447 23H206.5V0" fill="white"/>
<path opacity="0.2" d="M137.5 40.7347V25.2449L139.711 23H140.5V45" fill="white"/>
<path opacity="0.2" d="M170.5 40.7347V25.2449L172.711 23H173.5V45" fill="white"/>
<path opacity="0.2" d="M202.5 40.7347V25.2449L205.447 23H206.5V45" fill="white"/>
<path opacity="0.2" d="M140.5 0L136.198 4H120.802L116.5 0" fill="white"/>
<path opacity="0.2" d="M173.5 0L169.198 4H153.802L149.5 0" fill="white"/>
<path opacity="0.2" d="M206.5 0L202.198 4H186.802L182.5 0" fill="white"/>
<path opacity="0.2" d="M116.5 45L120.802 41H136.198L140.5 45" fill="white"/>
<path opacity="0.2" d="M149.5 45L153.802 41H169.198L173.5 45" fill="white"/>
<path opacity="0.2" d="M182.5 45L186.802 41H202.198L206.5 45" fill="white"/>
<path opacity="0.2" d="M120.5 40.7347V25.2449L117.553 23H116.5V45" fill="white"/>
<path opacity="0.2" d="M153.5 40.7347V25.2449L150.553 23H149.5V45" fill="white"/>
<path opacity="0.2" d="M185.5 40.7347V25.2449L183.289 23H182.5V45" fill="white"/>
<path d="M0.5 79L322.5 79L322.5 78L0.5 78L0.5 79Z" fill="#808080"/>
<circle cx="41.2355" cy="124.736" r="15.7355" stroke="#FFBB00" stroke-width="1.49862"/>
<circle cx="121.412" cy="124.736" r="15.7355" stroke="#FFBB00" stroke-width="1.49862"/>
<circle cx="201.588" cy="124.736" r="15.7355" stroke="#FFBB00" stroke-width="1.49862"/>
<circle cx="281.765" cy="124.736" r="15.7355" stroke="#FFBB00" stroke-width="1.49862"/>
</svg>
