<svg width="271" height="131" viewBox="0 0 271 131" fill="none" xmlns="http://www.w3.org/2000/svg">
<path fill-rule="evenodd" clip-rule="evenodd" d="M146.077 63.9088L135.907 57.2414V53.3813L152.039 64.6106L135.907 75.8398V71.9798L146.077 65.3124L146.779 64.9615L146.428 64.2597L146.077 63.9088Z" fill="#F2A900"/>
<path fill-rule="evenodd" clip-rule="evenodd" d="M134.501 63.9088L124.331 57.2414V53.3813L140.463 64.6106L124.331 75.8398V71.9798L134.501 65.3124L134.852 64.9615V64.2597L134.501 63.9088Z" fill="#F2A900"/>
<path d="M161.41 64.756H163C163 79.8615 150.81 92.052 135.704 92.052C120.599 92.052 108.408 79.8615 108.408 64.756C108.408 49.6504 120.599 37.46 135.704 37.46C150.81 37.46 163 49.6504 163 64.756H159.555C159.555 58.1307 156.905 52.0355 152.665 47.7953C148.425 43.5552 142.329 40.9051 135.704 40.9051C129.079 40.9051 122.984 43.5552 118.744 47.7953C114.503 52.0355 111.853 58.1307 111.853 64.756C111.853 71.3812 114.503 77.4765 118.744 81.7166C122.984 85.9568 129.079 88.6069 135.704 88.6069C142.329 88.6069 148.425 85.9568 152.665 81.7166C156.905 77.4765 159.555 71.3812 159.555 64.756H161.41Z" fill="#F2A900"/>
<path fill-rule="evenodd" clip-rule="evenodd" d="M0.5 2C0.5 1.17157 1.17157 0.5 2 0.5H269C269.828 0.5 270.5 1.17157 270.5 2C270.5 2.82843 269.828 3.5 269 3.5H2C1.17157 3.5 0.5 2.82843 0.5 2Z" fill="white"/>
<path fill-rule="evenodd" clip-rule="evenodd" d="M0.5 129C0.5 128.172 1.17157 127.5 2 127.5H269C269.828 127.5 270.5 128.172 270.5 129C270.5 129.828 269.828 130.5 269 130.5H2C1.17157 130.5 0.5 129.828 0.5 129Z" fill="white"/>
<path d="M80 86.7243C83.1352 83.4192 87.642 81.6694 92.1488 81.6694C96.8516 81.6694 101.162 83.4192 104.494 86.7243L104.69 86.9187L102.73 89.0573L102.534 88.8629C99.7908 86.141 96.2637 84.5857 92.3448 84.5857C88.4258 84.5857 84.8987 86.141 82.1554 88.8629H81.7635L80 86.7243Z" fill="#ED2024"/>
<path d="M92.1484 94.6956C90.9727 94.6956 89.9929 95.0844 89.2091 96.0565H89.0132L87.0537 94.1123L87.2497 93.9179C88.6213 92.557 90.3848 91.7793 92.1484 91.7793C94.1079 91.7793 95.8714 92.557 97.243 94.1123L97.439 94.3067L95.4795 96.4453L95.2835 96.0565C94.4998 95.2788 93.3241 94.6956 92.1484 94.6956Z" fill="#ED2024"/>
<path d="M94.1084 99.1673C94.1084 100.334 93.3246 101.111 92.1489 101.111C90.9732 101.111 90.1895 100.334 90.1895 99.1673C90.1895 98.1952 90.9732 97.2231 92.1489 97.2231C93.3246 97.2231 94.1084 98.0008 94.1084 99.1673Z" fill="#ED2024"/>
<path d="M92.1481 89.6404C89.6008 89.6404 87.2494 90.6125 85.4859 92.3622V92.5566L83.5264 90.6125L83.7223 90.4181C86.0737 88.085 89.0129 86.7241 92.344 86.7241C95.6752 86.7241 98.8103 88.085 101.162 90.4181L101.358 90.6125L99.3982 92.7511L98.8103 92.3622C97.0468 90.6125 94.6954 89.6404 92.1481 89.6404Z" fill="#ED2024"/>
</svg>
