<svg width="17" height="17" viewBox="0 0 17 17" fill="none" xmlns="http://www.w3.org/2000/svg">
<path d="M16.5049 8.5H17C17 13.2039 13.2039 17 8.5 17C3.79611 17 0 13.2039 0 8.5C0 3.79611 3.79611 0 8.5 0C13.2039 0 17 3.79611 17 8.5H15.9272C15.9272 6.43689 15.1019 4.53883 13.7816 3.21844C12.4612 1.89805 10.5631 1.07281 8.5 1.07281C6.43689 1.07281 4.53884 1.89805 3.21845 3.21844C1.89806 4.53883 1.07281 6.43689 1.07281 8.5C1.07281 10.5631 1.89806 12.4612 3.21845 13.7816C4.53884 15.1019 6.43689 15.9272 8.5 15.9272C10.5631 15.9272 12.4612 15.1019 13.7816 13.7816C15.1019 12.4612 15.9272 10.5631 15.9272 8.5H16.5049Z" fill="#F2A900"/>
<path d="M7.75502 8.96978L7.3916 7.87886L11.9949 6.42432L12.3583 7.51523" fill="#F2A900"/>
<path d="M8.72502 7.75759H7.63477V4H8.72502" fill="#F2A900"/>
<path d="M8.96617 8.24219L7.99707 8.96946L10.1776 11.9998L11.1467 11.2725" fill="#F2A900"/>
<path d="M7.99758 7.51523L7.63416 8.60615L4 7.51523L4.36341 6.42432" fill="#F2A900"/>
<path d="M7.51354 8.24219L8.36151 8.96946L6.18102 11.9998L5.21191 11.2725" fill="#F2A900"/>
</svg>
