<svg width="355" height="131" viewBox="0 0 355 131" fill="none" xmlns="http://www.w3.org/2000/svg">
<g clip-path="url(#clip0_29_5053)">
<path d="M10.2313 14.7091C10.2313 12.5 12.0222 10.7091 14.2313 10.7091H333.628C335.837 10.7091 337.628 12.5 337.628 14.7091V110.363C337.628 112.572 335.837 114.363 333.628 114.363H14.2313C12.0222 114.363 10.2313 112.572 10.2313 110.363V14.7091Z" fill="black" stroke="white" stroke-width="2"/>
<path d="M42.8816 50.5H40.8296L34.6556 41.122V50.5H32.6036V37.81H34.6556L40.8296 47.224V37.81H42.8816V50.5ZM54.9413 45.064C54.9413 45.4 54.9173 45.694 54.8693 45.946H47.2373C47.2733 46.966 47.5553 47.722 48.0833 48.214C48.6113 48.706 49.2653 48.952 50.0453 48.952C50.7293 48.952 51.3053 48.778 51.7733 48.43C52.2533 48.082 52.5473 47.62 52.6553 47.044H54.8513C54.7193 47.74 54.4433 48.358 54.0233 48.898C53.6033 49.438 53.0573 49.864 52.3853 50.176C51.7133 50.476 50.9633 50.626 50.1353 50.626C49.1753 50.626 48.3233 50.422 47.5793 50.014C46.8473 49.606 46.2713 49.018 45.8513 48.25C45.4313 47.482 45.2213 46.576 45.2213 45.532C45.2213 44.5 45.4313 43.6 45.8513 42.832C46.2713 42.064 46.8473 41.476 47.5793 41.068C48.3233 40.66 49.1753 40.456 50.1353 40.456C51.1073 40.456 51.9533 40.66 52.6733 41.068C53.4053 41.464 53.9633 42.016 54.3473 42.724C54.7433 43.42 54.9413 44.2 54.9413 45.064ZM52.8713 45.01C52.8953 44.362 52.7813 43.822 52.5293 43.39C52.2893 42.946 51.9533 42.622 51.5213 42.418C51.1013 42.202 50.6393 42.094 50.1353 42.094C49.3313 42.094 48.6593 42.34 48.1193 42.832C47.5793 43.324 47.2853 44.05 47.2373 45.01H52.8713ZM62.2686 48.718V50.5H61.0086C59.9526 50.5 59.1486 50.248 58.5966 49.744C58.0566 49.228 57.7866 48.376 57.7866 47.188V42.328H56.3646V40.582H57.7866V38.116H59.8566V40.582H62.2506V42.328H59.8566V47.224C59.8566 47.788 59.9586 48.178 60.1626 48.394C60.3786 48.61 60.7506 48.718 61.2786 48.718H62.2686ZM78.4468 40.582L75.6928 50.5H73.4248L70.9768 42.832L68.4928 50.5H66.2428L63.4888 40.582H65.5588L67.4488 48.61L69.9328 40.582H72.0928L74.6128 48.61L76.5028 40.582H78.4468ZM84.7397 40.456C85.6997 40.456 86.5637 40.66 87.3317 41.068C88.0997 41.476 88.6997 42.064 89.1317 42.832C89.5637 43.6 89.7797 44.5 89.7797 45.532C89.7797 46.576 89.5637 47.482 89.1317 48.25C88.6997 49.018 88.0997 49.606 87.3317 50.014C86.5637 50.422 85.6997 50.626 84.7397 50.626C83.7797 50.626 82.9157 50.422 82.1477 50.014C81.3917 49.606 80.7917 49.018 80.3477 48.25C79.9157 47.47 79.6997 46.564 79.6997 45.532C79.6997 44.5 79.9157 43.6 80.3477 42.832C80.7917 42.064 81.3917 41.476 82.1477 41.068C82.9157 40.66 83.7797 40.456 84.7397 40.456ZM84.7397 42.238C84.2117 42.238 83.7257 42.358 83.2817 42.598C82.8377 42.838 82.4777 43.21 82.2017 43.714C81.9377 44.206 81.8057 44.812 81.8057 45.532C81.8057 46.264 81.9377 46.876 82.2017 47.368C82.4777 47.86 82.8377 48.226 83.2817 48.466C83.7257 48.706 84.2117 48.826 84.7397 48.826C85.2677 48.826 85.7537 48.706 86.1977 48.466C86.6417 48.226 86.9957 47.86 87.2597 47.368C87.5357 46.876 87.6737 46.264 87.6737 45.532C87.6737 44.812 87.5357 44.206 87.2597 43.714C86.9957 43.21 86.6417 42.838 86.1977 42.598C85.7537 42.358 85.2677 42.238 84.7397 42.238ZM94.1646 42.526C94.5006 41.878 94.9806 41.368 95.6046 40.996C96.2286 40.612 96.9486 40.42 97.7646 40.42V42.652H97.1526C96.2526 42.652 95.5266 42.874 94.9746 43.318C94.4346 43.75 94.1646 44.47 94.1646 45.478V50.5H92.1126V40.582H94.1646V42.526ZM105.278 50.5L101.714 46.09V50.5H99.662V37.18H101.714V44.812L105.242 40.582H107.708L103.388 45.514L107.816 50.5H105.278ZM116.145 37.792V50.5H114.093V37.792H116.145ZM129.896 44.128C129.896 45.412 129.632 46.534 129.104 47.494C128.588 48.442 127.826 49.18 126.818 49.708C125.822 50.236 124.628 50.5 123.236 50.5H118.988V37.792H123.236C124.628 37.792 125.822 38.056 126.818 38.584C127.826 39.1 128.588 39.832 129.104 40.78C129.632 41.728 129.896 42.844 129.896 44.128ZM123.074 48.646C124.598 48.646 125.768 48.25 126.584 47.458C127.4 46.666 127.808 45.556 127.808 44.128C127.808 42.7 127.4 41.59 126.584 40.798C125.768 40.006 124.598 39.61 123.074 39.61H121.04V48.646H123.074ZM134.229 40.6V42.868H131.907V40.6H134.229ZM134.229 48.232V50.5H131.907V48.232H134.229ZM146.958 37.684C148.47 37.684 149.73 38.056 150.738 38.8C151.746 39.544 152.412 40.558 152.736 41.842H150.576C150.3 41.158 149.844 40.612 149.208 40.204C148.584 39.796 147.84 39.592 146.976 39.592C146.184 39.592 145.47 39.778 144.834 40.15C144.21 40.522 143.718 41.05 143.358 41.734C143.01 42.418 142.836 43.222 142.836 44.146C142.836 45.118 143.016 45.952 143.376 46.648C143.736 47.344 144.24 47.878 144.888 48.25C145.548 48.61 146.31 48.79 147.174 48.79C148.23 48.79 149.136 48.466 149.892 47.818C150.648 47.158 151.104 46.258 151.26 45.118H146.598V43.606H152.988V45.568C152.844 46.504 152.508 47.356 151.98 48.124C151.464 48.88 150.774 49.486 149.91 49.942C149.058 50.398 148.08 50.626 146.976 50.626C145.74 50.626 144.648 50.35 143.7 49.798C142.752 49.246 142.02 48.484 141.504 47.512C140.988 46.528 140.73 45.406 140.73 44.146C140.73 42.886 140.988 41.77 141.504 40.798C142.02 39.814 142.746 39.052 143.682 38.512C144.63 37.96 145.722 37.684 146.958 37.684ZM157.478 39.448V43.3H162.158V44.884H157.478V48.826H162.698V50.5H155.426V37.792H162.698V39.448H157.478ZM174.644 51.148V53.146H164.6V51.148H174.644ZM190.135 37.99V50.5H188.065V41.122L184.447 50.5H182.647L179.011 41.122V50.5H176.959V37.99H179.443L183.583 47.98L187.651 37.99H190.135ZM198.849 37.63C200.025 37.63 201.087 37.906 202.035 38.458C202.995 39.01 203.745 39.784 204.285 40.78C204.837 41.764 205.113 42.88 205.113 44.128C205.113 45.376 204.837 46.498 204.285 47.494C203.745 48.478 202.995 49.252 202.035 49.816C201.087 50.368 200.025 50.644 198.849 50.644C197.661 50.644 196.587 50.368 195.627 49.816C194.679 49.252 193.929 48.478 193.377 47.494C192.825 46.498 192.549 45.376 192.549 44.128C192.549 42.88 192.825 41.764 193.377 40.78C193.929 39.784 194.679 39.01 195.627 38.458C196.587 37.906 197.661 37.63 198.849 37.63ZM198.849 39.538C198.033 39.538 197.307 39.724 196.671 40.096C196.035 40.468 195.537 41.002 195.177 41.698C194.829 42.394 194.655 43.204 194.655 44.128C194.655 45.052 194.829 45.862 195.177 46.558C195.537 47.254 196.035 47.788 196.671 48.16C197.307 48.532 198.033 48.718 198.849 48.718C199.653 48.718 200.367 48.532 200.991 48.16C201.627 47.788 202.119 47.254 202.467 46.558C202.827 45.862 203.007 45.052 203.007 44.128C203.007 43.204 202.827 42.394 202.467 41.698C202.119 41.002 201.627 40.468 200.991 40.096C200.367 39.724 199.653 39.538 198.849 39.538ZM218.452 44.128C218.452 45.412 218.188 46.534 217.66 47.494C217.144 48.442 216.382 49.18 215.374 49.708C214.378 50.236 213.184 50.5 211.792 50.5H207.544V37.792H211.792C213.184 37.792 214.378 38.056 215.374 38.584C216.382 39.1 217.144 39.832 217.66 40.78C218.188 41.728 218.452 42.844 218.452 44.128ZM211.63 48.646C213.154 48.646 214.324 48.25 215.14 47.458C215.956 46.666 216.364 45.556 216.364 44.128C216.364 42.7 215.956 41.59 215.14 40.798C214.324 40.006 213.154 39.61 211.63 39.61H209.596V48.646H211.63ZM222.839 37.792V45.334C222.839 46.462 223.085 47.302 223.577 47.854C224.081 48.406 224.783 48.682 225.683 48.682C226.571 48.682 227.261 48.406 227.753 47.854C228.257 47.302 228.509 46.462 228.509 45.334V37.792H230.561V45.334C230.561 47.074 230.111 48.394 229.211 49.294C228.311 50.182 227.123 50.626 225.647 50.626C224.183 50.626 223.007 50.182 222.119 49.294C221.231 48.394 220.787 47.074 220.787 45.334V37.792H222.839ZM235.365 48.898H239.757V50.5H233.313V37.792H235.365V48.898ZM243.775 39.448V43.3H248.455V44.884H243.775V48.826H248.995V50.5H241.723V37.792H248.995V39.448H243.775ZM260.941 51.148V53.146H250.897V51.148H260.941ZM270.51 50.5L267.468 45.802L264.75 50.5H262.392L266.334 44.02L262.302 37.792H264.75L267.738 42.4L270.438 37.792H272.796L268.872 44.164L272.958 50.5H270.51ZM282.102 50.5L279.06 45.802L276.342 50.5H273.984L277.926 44.02L273.894 37.792H276.342L279.33 42.4L282.03 37.792H284.388L280.464 44.164L284.55 50.5H282.102ZM293.695 50.5L290.653 45.802L287.935 50.5H285.577L289.519 44.02L285.487 37.792H287.935L290.923 42.4L293.623 37.792H295.981L292.057 44.164L296.143 50.5H293.695ZM305.287 50.5L302.245 45.802L299.527 50.5H297.169L301.111 44.02L297.079 37.792H299.527L302.515 42.4L305.215 37.792H307.573L303.649 44.164L307.735 50.5H305.287ZM36.1196 82.376V89.5H33.1556V71.144H39.3956C41.5102 71.144 43.0962 71.6467 44.1536 72.652C45.2282 73.6573 45.7656 75.0353 45.7656 76.786C45.7656 78.5193 45.2196 79.8887 44.1276 80.894C43.0356 81.882 41.4582 82.376 39.3956 82.376H36.1196ZM39.0836 79.958C41.5276 79.958 42.7496 78.9007 42.7496 76.786C42.7496 75.746 42.4549 74.9573 41.8656 74.42C41.2936 73.8653 40.3662 73.588 39.0836 73.588H36.1196V79.958H39.0836ZM54.4706 74.992C55.7706 74.992 56.8799 75.3127 57.7986 75.954C58.7172 76.5953 59.3672 77.4447 59.7486 78.502V75.174H62.7126V89.5H59.7486V86.172C59.3672 87.2293 58.7172 88.0787 57.7986 88.72C56.8799 89.3613 55.7706 89.682 54.4706 89.682C53.2226 89.682 52.1046 89.3873 51.1166 88.798C50.1459 88.2087 49.3832 87.3593 48.8286 86.25C48.2739 85.1407 47.9966 83.832 47.9966 82.324C47.9966 80.8333 48.2739 79.5333 48.8286 78.424C49.3832 77.3147 50.1459 76.4653 51.1166 75.876C52.1046 75.2867 53.2226 74.992 54.4706 74.992ZM55.3806 77.592C54.0632 77.592 53.0059 78.0167 52.2086 78.866C51.4286 79.698 51.0386 80.8507 51.0386 82.324C51.0386 83.7973 51.4286 84.9587 52.2086 85.808C53.0059 86.64 54.0632 87.056 55.3806 87.056C56.2126 87.056 56.9579 86.8653 57.6166 86.484C58.2752 86.0853 58.7952 85.5307 59.1766 84.82C59.5579 84.1093 59.7486 83.2773 59.7486 82.324C59.7486 81.388 59.5579 80.5647 59.1766 79.854C58.7952 79.126 58.2752 78.5713 57.6166 78.19C56.9579 77.7913 56.2126 77.592 55.3806 77.592ZM71.3355 74.992C73.0168 74.992 74.3601 75.4253 75.3655 76.292C76.3881 77.1413 77.0121 78.2853 77.2375 79.724H74.4295C74.3081 78.944 73.9701 78.32 73.4155 77.852C72.8781 77.3667 72.1588 77.124 71.2575 77.124C70.5121 77.124 69.9315 77.306 69.5155 77.67C69.1168 78.0167 68.9175 78.4933 68.9175 79.1C68.9175 79.5507 69.0648 79.9147 69.3595 80.192C69.6541 80.4693 70.0181 80.686 70.4515 80.842C70.9021 80.998 71.5348 81.1713 72.3495 81.362C73.4241 81.6047 74.2908 81.856 74.9495 82.116C75.6255 82.376 76.1975 82.792 76.6655 83.364C77.1508 83.9187 77.3935 84.6813 77.3935 85.652C77.3935 86.848 76.9341 87.8187 76.0155 88.564C75.1141 89.3093 73.8921 89.682 72.3495 89.682C70.5641 89.682 69.1168 89.266 68.0075 88.434C66.9155 87.602 66.2568 86.4407 66.0315 84.95H68.9175C69.0041 85.73 69.3508 86.3627 69.9575 86.848C70.5641 87.3333 71.3615 87.576 72.3495 87.576C73.0601 87.576 73.6148 87.394 74.0135 87.03C74.4295 86.6487 74.6375 86.172 74.6375 85.6C74.6375 85.0973 74.4815 84.6987 74.1695 84.404C73.8575 84.1093 73.4675 83.884 72.9995 83.728C72.5315 83.5547 71.8901 83.3813 71.0755 83.208C70.0355 82.9653 69.1861 82.7227 68.5275 82.48C67.8861 82.2373 67.3315 81.8473 66.8635 81.31C66.4128 80.7553 66.1875 80.01 66.1875 79.074C66.1875 77.8607 66.6381 76.8813 67.5395 76.136C68.4581 75.3733 69.7235 74.992 71.3355 74.992ZM85.4318 74.992C87.1131 74.992 88.4565 75.4253 89.4618 76.292C90.4845 77.1413 91.1085 78.2853 91.3338 79.724H88.5258C88.4045 78.944 88.0665 78.32 87.5118 77.852C86.9745 77.3667 86.2551 77.124 85.3538 77.124C84.6085 77.124 84.0278 77.306 83.6118 77.67C83.2131 78.0167 83.0138 78.4933 83.0138 79.1C83.0138 79.5507 83.1611 79.9147 83.4558 80.192C83.7505 80.4693 84.1145 80.686 84.5478 80.842C84.9985 80.998 85.6311 81.1713 86.4458 81.362C87.5205 81.6047 88.3871 81.856 89.0458 82.116C89.7218 82.376 90.2938 82.792 90.7618 83.364C91.2471 83.9187 91.4898 84.6813 91.4898 85.652C91.4898 86.848 91.0305 87.8187 90.1118 88.564C89.2105 89.3093 87.9885 89.682 86.4458 89.682C84.6605 89.682 83.2131 89.266 82.1038 88.434C81.0118 87.602 80.3531 86.4407 80.1278 84.95H83.0138C83.1005 85.73 83.4471 86.3627 84.0538 86.848C84.6605 87.3333 85.4578 87.576 86.4458 87.576C87.1565 87.576 87.7111 87.394 88.1098 87.03C88.5258 86.6487 88.7338 86.172 88.7338 85.6C88.7338 85.0973 88.5778 84.6987 88.2658 84.404C87.9538 84.1093 87.5638 83.884 87.0958 83.728C86.6278 83.5547 85.9865 83.3813 85.1718 83.208C84.1318 82.9653 83.2825 82.7227 82.6238 82.48C81.9825 82.2373 81.4278 81.8473 80.9598 81.31C80.5091 80.7553 80.2838 80.01 80.2838 79.074C80.2838 77.8607 80.7345 76.8813 81.6358 76.136C82.5545 75.3733 83.8198 74.992 85.4318 74.992ZM114.894 75.174L110.916 89.5H107.64L104.104 78.424L100.516 89.5H97.2661L93.2881 75.174H96.2781L99.0081 86.77L102.596 75.174H105.716L109.356 86.77L112.086 75.174H114.894ZM123.824 74.992C125.211 74.992 126.459 75.2867 127.568 75.876C128.677 76.4653 129.544 77.3147 130.168 78.424C130.792 79.5333 131.104 80.8333 131.104 82.324C131.104 83.832 130.792 85.1407 130.168 86.25C129.544 87.3593 128.677 88.2087 127.568 88.798C126.459 89.3873 125.211 89.682 123.824 89.682C122.437 89.682 121.189 89.3873 120.08 88.798C118.988 88.2087 118.121 87.3593 117.48 86.25C116.856 85.1233 116.544 83.8147 116.544 82.324C116.544 80.8333 116.856 79.5333 117.48 78.424C118.121 77.3147 118.988 76.4653 120.08 75.876C121.189 75.2867 122.437 74.992 123.824 74.992ZM123.824 77.566C123.061 77.566 122.359 77.7393 121.718 78.086C121.077 78.4327 120.557 78.97 120.158 79.698C119.777 80.4087 119.586 81.284 119.586 82.324C119.586 83.3813 119.777 84.2653 120.158 84.976C120.557 85.6867 121.077 86.2153 121.718 86.562C122.359 86.9087 123.061 87.082 123.824 87.082C124.587 87.082 125.289 86.9087 125.93 86.562C126.571 86.2153 127.083 85.6867 127.464 84.976C127.863 84.2653 128.062 83.3813 128.062 82.324C128.062 81.284 127.863 80.4087 127.464 79.698C127.083 78.97 126.571 78.4327 125.93 78.086C125.289 77.7393 124.587 77.566 123.824 77.566ZM137.278 77.982C137.763 77.046 138.456 76.3093 139.358 75.772C140.259 75.2173 141.299 74.94 142.478 74.94V78.164H141.594C140.294 78.164 139.245 78.4847 138.448 79.126C137.668 79.75 137.278 80.79 137.278 82.246V89.5H134.314V75.174H137.278V77.982ZM150.804 74.992C152.104 74.992 153.214 75.3127 154.132 75.954C155.051 76.5953 155.692 77.4447 156.056 78.502V70.26H159.046V89.5H156.056V86.172C155.692 87.2293 155.051 88.0787 154.132 88.72C153.214 89.3613 152.104 89.682 150.804 89.682C149.556 89.682 148.438 89.3873 147.45 88.798C146.48 88.2087 145.717 87.3593 145.162 86.25C144.608 85.1407 144.33 83.832 144.33 82.324C144.33 80.8333 144.608 79.5333 145.162 78.424C145.717 77.3147 146.48 76.4653 147.45 75.876C148.438 75.2867 149.556 74.992 150.804 74.992ZM151.714 77.592C150.397 77.592 149.34 78.0167 148.542 78.866C147.762 79.698 147.372 80.8507 147.372 82.324C147.372 83.7973 147.762 84.9587 148.542 85.808C149.34 86.64 150.397 87.056 151.714 87.056C152.546 87.056 153.292 86.8653 153.95 86.484C154.609 86.0853 155.129 85.5307 155.51 84.82C155.892 84.1093 156.082 83.2773 156.082 82.324C156.082 81.388 155.892 80.5647 155.51 79.854C155.129 79.126 154.609 78.5713 153.95 78.19C153.292 77.7913 152.546 77.592 151.714 77.592ZM165.719 75.2V78.476H162.365V75.2H165.719ZM165.719 86.224V89.5H162.365V86.224H165.719ZM185.866 89.5L181.472 82.714L177.546 89.5H174.14L179.834 80.14L174.01 71.144H177.546L181.862 77.8L185.762 71.144H189.168L183.5 80.348L189.402 89.5H185.866ZM202.451 89.5L198.057 82.714L194.131 89.5H190.725L196.419 80.14L190.595 71.144H194.131L198.447 77.8L202.347 71.144H205.753L200.085 80.348L205.987 89.5H202.451ZM219.036 89.5L214.642 82.714L210.716 89.5H207.31L213.004 80.14L207.18 71.144H210.716L215.032 77.8L218.932 71.144H222.338L216.67 80.348L222.572 89.5H219.036ZM235.62 89.5L231.226 82.714L227.3 89.5H223.894L229.588 80.14L223.764 71.144H227.3L231.616 77.8L235.516 71.144H238.922L233.254 80.348L239.156 89.5H235.62ZM252.205 89.5L247.811 82.714L243.885 89.5H240.479L246.173 80.14L240.349 71.144H243.885L248.201 77.8L252.101 71.144H255.507L249.839 80.348L255.741 89.5H252.205ZM268.789 89.5L264.395 82.714L260.469 89.5H257.063L262.757 80.14L256.933 71.144H260.469L264.785 77.8L268.685 71.144H272.091L266.423 80.348L272.325 89.5H268.789ZM285.374 89.5L280.98 82.714L277.054 89.5H273.648L279.342 80.14L273.518 71.144H277.054L281.37 77.8L285.27 71.144H288.676L283.008 80.348L288.91 89.5H285.374ZM301.959 89.5L297.565 82.714L293.639 89.5H290.233L295.927 80.14L290.103 71.144H293.639L297.955 77.8L301.855 71.144H305.261L299.593 80.348L305.495 89.5H301.959Z" fill="white"/>
<rect x="23.1681" y="63.3438" width="299.49" height="35.1578" rx="2" stroke="#F2A900" stroke-width="3"/>
</g>
<defs>
<clipPath id="clip0_29_5053">
<rect width="355" height="131" rx="4" fill="white"/>
</clipPath>
</defs>
</svg>
