<svg width="17" height="17" viewBox="0 0 17 17" fill="none" xmlns="http://www.w3.org/2000/svg">
<path fill-rule="evenodd" clip-rule="evenodd" d="M11.7305 8.23625L8.56348 6.16003V4.95801L13.587 8.4548L8.56348 11.9516V10.7496L11.7305 8.67335L11.9489 8.56408L11.8397 8.34552L11.7305 8.23625Z" fill="#F2A900"/>
<path fill-rule="evenodd" clip-rule="evenodd" d="M8.12504 8.23625L4.95801 6.16003V4.95801L9.98159 8.4548L4.95801 11.9516V10.7496L8.12504 8.67335L8.23425 8.56408V8.34552L8.12504 8.23625Z" fill="#F2A900"/>
<path d="M16.5049 8.5H17C17 13.2039 13.2039 17 8.5 17C3.79611 17 0 13.2039 0 8.5C0 3.79611 3.79611 0 8.5 0C13.2039 0 17 3.79611 17 8.5H15.9272C15.9272 6.43689 15.1019 4.53883 13.7816 3.21844C12.4612 1.89805 10.5631 1.07281 8.5 1.07281C6.43689 1.07281 4.53884 1.89805 3.21845 3.21844C1.89806 4.53883 1.07281 6.43689 1.07281 8.5C1.07281 10.5631 1.89806 12.4612 3.21845 13.7816C4.53884 15.1019 6.43689 15.9272 8.5 15.9272C10.5631 15.9272 12.4612 15.1019 13.7816 13.7816C15.1019 12.4612 15.9272 10.5631 15.9272 8.5H16.5049Z" fill="#F2A900"/>
</svg>
