<svg width="212" height="81" viewBox="0 0 212 81" fill="none" xmlns="http://www.w3.org/2000/svg">
<path d="M35.7588 47.6514L35.4753 47.9351H33.2073L32.9238 47.6514V34.0354L33.2073 33.7517H35.4753L35.7588 34.0354" fill="#FFBB00"/>
<path d="M19.5986 31.7656V49.9204C22.7171 46.8001 27.5365 43.9634 30.655 40.843C27.5365 38.0063 22.4336 34.886 19.5986 31.7656Z" fill="#FFBB00"/>
<path d="M40.579 47.6514L40.2955 47.9351H38.0276L37.7441 47.6514V34.0354L38.0276 33.7517H40.2955L40.579 34.0354" fill="#FFBB00"/>
<path d="M57.1991 40.2178H58.9C58.9 56.3869 45.8593 69.4357 29.7 69.4357C13.5408 69.4357 0.5 56.3869 0.5 40.2178C0.5 24.0487 13.5408 11 29.7 11C45.8593 11 58.9 24.0487 58.9 40.2178H55.2146C55.2146 33.1261 52.3797 26.6017 47.8437 22.063C43.3078 17.5244 36.7874 14.6877 29.7 14.6877C22.6127 14.6877 16.0922 17.5244 11.5563 22.063C7.02038 26.6017 4.18545 33.1261 4.18545 40.2178C4.18545 47.3095 7.02038 53.8339 11.5563 58.3726C16.0922 62.9113 22.6127 65.748 29.7 65.748C36.7874 65.748 43.3078 62.9113 47.8437 58.3726C52.3797 53.8339 55.2146 47.3095 55.2146 40.2178H57.1991Z" fill="#FFBB00"/>
<path d="M110.5 0L110.5 81L111.5 81L111.5 -4.37116e-08L110.5 0Z" fill="#808080"/>
<path d="M163.5 31.7348C169.538 25.3697 178.217 22 186.897 22C195.953 22 204.255 25.3697 210.67 31.7348L211.048 32.1092L207.274 36.2278L206.897 35.8533C201.614 30.6115 194.821 27.6162 187.274 27.6162C179.727 27.6162 172.934 30.6115 167.651 35.8533H166.896L163.5 31.7348Z" fill="#ED2024"/>
<path d="M186.895 47.0862C184.631 47.0862 182.744 47.835 181.235 49.7071H180.858L177.084 45.9629L177.461 45.5885C180.103 42.9676 183.499 41.47 186.895 41.47C190.669 41.47 194.065 42.9676 196.707 45.9629L197.084 46.3374L193.311 50.4559L192.933 49.7071C191.424 48.2094 189.16 47.0862 186.895 47.0862Z" fill="#ED2024"/>
<path d="M190.67 55.698C190.67 57.9445 189.161 59.4422 186.897 59.4422C184.632 59.4422 183.123 57.9445 183.123 55.698C183.123 53.8259 184.632 51.9539 186.897 51.9539C189.161 51.9539 190.67 53.4515 190.67 55.698Z" fill="#ED2024"/>
<path d="M186.895 37.3506C181.989 37.3506 177.461 39.2227 174.065 42.5924V42.9668L170.291 39.2227L170.668 38.8483C175.197 34.3553 180.857 31.7344 187.272 31.7344C193.688 31.7344 199.725 34.3553 204.254 38.8483L204.631 39.2227L200.857 43.3412L199.725 42.5924C196.329 39.2227 191.801 37.3506 186.895 37.3506Z" fill="#ED2024"/>
</svg>
