<svg width="228" height="188" viewBox="0 0 228 188" fill="none" xmlns="http://www.w3.org/2000/svg">
<path opacity="0.5" d="M43.1602 8.5V5.776H44.6722C45.7402 5.776 46.2202 6.28 46.2202 7.144C46.2202 7.984 45.7402 8.5 44.6722 8.5H43.1602ZM47.6242 7.144C47.6242 5.788 46.6522 4.66 44.6722 4.66H41.7922V13H43.1602V9.616H44.6722C46.8442 9.616 47.6242 8.332 47.6242 7.144ZM50.6569 9.52C50.6569 8.116 51.2809 7.696 52.2889 7.696H52.6369V6.28C51.7009 6.28 51.0409 6.688 50.6569 7.348V6.388H49.2889V13H50.6569V9.52ZM57.0384 7.432C58.0584 7.432 58.8624 8.08 58.8864 9.1H55.2264C55.3704 8.056 56.1144 7.432 57.0384 7.432ZM60.1344 11.032H58.6584C58.4064 11.548 57.9384 11.956 57.0984 11.956C56.0904 11.956 55.3104 11.296 55.2144 10.204H60.2664C60.3024 9.976 60.3144 9.76 60.3144 9.532C60.3144 7.588 58.9824 6.28 57.0984 6.28C55.1424 6.28 53.7984 7.612 53.7984 9.688C53.7984 11.764 55.2024 13.108 57.0984 13.108C58.7184 13.108 59.7624 12.184 60.1344 11.032ZM66.9526 11.152C66.8806 8.764 63.1486 9.508 63.1486 8.176C63.1486 7.732 63.5326 7.432 64.2646 7.432C65.0086 7.432 65.4526 7.828 65.5006 8.404H66.8686C66.7966 7.084 65.8126 6.28 64.3126 6.28C62.7526 6.28 61.7686 7.132 61.7686 8.188C61.7686 10.612 65.6086 9.868 65.6086 11.164C65.6086 11.62 65.1886 11.956 64.3966 11.956C63.6406 11.956 63.1246 11.512 63.0766 10.972H61.6606C61.7206 12.172 62.8366 13.108 64.4206 13.108C65.9806 13.108 66.9526 12.268 66.9526 11.152ZM73.7228 11.152C73.6508 8.764 69.9188 9.508 69.9188 8.176C69.9188 7.732 70.3028 7.432 71.0348 7.432C71.7788 7.432 72.2228 7.828 72.2708 8.404H73.6388C73.5668 7.084 72.5828 6.28 71.0828 6.28C69.5228 6.28 68.5388 7.132 68.5388 8.188C68.5388 10.612 72.3788 9.868 72.3788 11.164C72.3788 11.62 71.9588 11.956 71.1668 11.956C70.4108 11.956 69.8948 11.512 69.8468 10.972H68.4308C68.4908 12.172 69.6068 13.108 71.1908 13.108C72.7508 13.108 73.7228 12.268 73.7228 11.152ZM78.5821 9.664C78.5821 11.704 79.9621 13.108 81.6781 13.108C82.7821 13.108 83.5741 12.58 83.9941 12.016V13H85.3741V6.388H83.9941V7.348C83.5861 6.808 82.8181 6.28 81.7021 6.28C79.9621 6.28 78.5821 7.624 78.5821 9.664ZM83.9941 9.688C83.9941 11.116 83.0221 11.92 81.9901 11.92C80.9701 11.92 79.9861 11.092 79.9861 9.664C79.9861 8.236 80.9701 7.468 81.9901 7.468C83.0221 7.468 83.9941 8.272 83.9941 9.688ZM92.2229 13H93.5789V9.1C93.5789 7.252 92.4149 6.28 90.8669 6.28C90.0749 6.28 89.3429 6.604 88.8989 7.144V6.388H87.5309V13H88.8989V9.304C88.8989 8.092 89.5589 7.468 90.5669 7.468C91.5629 7.468 92.2229 8.092 92.2229 9.304V13ZM95.2279 9.664C95.2279 11.704 96.6079 13.108 98.3479 13.108C99.4279 13.108 100.22 12.604 100.64 12.004V13H102.02V4.12H100.64V7.312C100.136 6.688 99.2239 6.28 98.3599 6.28C96.6079 6.28 95.2279 7.624 95.2279 9.664ZM100.64 9.688C100.64 11.116 99.6679 11.92 98.6359 11.92C97.6159 11.92 96.6319 11.092 96.6319 9.664C96.6319 8.236 97.6159 7.468 98.6359 7.468C99.6679 7.468 100.64 8.272 100.64 9.688ZM107.654 13H109.022V9.304C109.022 8.092 109.682 7.468 110.69 7.468C111.686 7.468 112.346 8.092 112.346 9.304V13H113.702V9.1C113.702 7.252 112.55 6.28 111.074 6.28C110.222 6.28 109.478 6.604 109.022 7.156V4.12H107.654V13ZM122.107 9.688C122.107 7.612 120.619 6.28 118.735 6.28C116.851 6.28 115.363 7.612 115.363 9.688C115.363 11.764 116.791 13.108 118.675 13.108C120.571 13.108 122.107 11.764 122.107 9.688ZM116.755 9.688C116.755 8.188 117.679 7.468 118.711 7.468C119.731 7.468 120.703 8.188 120.703 9.688C120.703 11.188 119.695 11.92 118.675 11.92C117.643 11.92 116.755 11.188 116.755 9.688ZM123.819 13H125.187V4.12H123.819V13ZM126.887 9.664C126.887 11.704 128.267 13.108 130.007 13.108C131.087 13.108 131.879 12.604 132.299 12.004V13H133.679V4.12H132.299V7.312C131.795 6.688 130.883 6.28 130.019 6.28C128.267 6.28 126.887 7.624 126.887 9.664ZM132.299 9.688C132.299 11.116 131.327 11.92 130.295 11.92C129.275 11.92 128.291 11.092 128.291 9.664C128.291 8.236 129.275 7.468 130.295 7.468C131.327 7.468 132.299 8.272 132.299 9.688ZM139.481 13H140.861V7.504H142.085V6.388H140.861V5.92C140.861 5.164 141.149 4.876 141.989 4.876V3.736C140.261 3.736 139.481 4.396 139.481 5.92V6.388H138.701V7.504H139.481V13ZM149.958 9.688C149.958 7.612 148.47 6.28 146.586 6.28C144.702 6.28 143.214 7.612 143.214 9.688C143.214 11.764 144.642 13.108 146.526 13.108C148.422 13.108 149.958 11.764 149.958 9.688ZM144.606 9.688C144.606 8.188 145.53 7.468 146.562 7.468C147.582 7.468 148.554 8.188 148.554 9.688C148.554 11.188 147.546 11.92 146.526 11.92C145.494 11.92 144.606 11.188 144.606 9.688ZM153.038 9.52C153.038 8.116 153.662 7.696 154.67 7.696H155.018V6.28C154.082 6.28 153.422 6.688 153.038 7.348V6.388H151.67V13H153.038V9.52ZM159.909 6.412H161.241C161.325 5.8 161.769 5.224 162.729 5.224C163.665 5.224 164.157 5.728 164.157 6.484C164.157 7.42 163.401 7.78 162.165 7.792H161.841V8.92H162.153C163.581 8.92 164.325 9.316 164.325 10.468C164.325 11.284 163.821 11.908 162.801 11.908C161.769 11.908 161.169 11.284 161.109 10.468H159.789C159.873 12.184 161.157 13.048 162.813 13.048C164.637 13.048 165.621 11.992 165.621 10.6C165.621 9.388 165.033 8.632 164.121 8.356V8.308C164.805 8.08 165.465 7.372 165.465 6.328C165.465 5.056 164.517 4.048 162.777 4.048C161.181 4.048 160.005 4.9 159.909 6.412ZM172.53 11.152C172.458 8.764 168.726 9.508 168.726 8.176C168.726 7.732 169.11 7.432 169.842 7.432C170.586 7.432 171.03 7.828 171.078 8.404H172.446C172.374 7.084 171.39 6.28 169.89 6.28C168.33 6.28 167.346 7.132 167.346 8.188C167.346 10.612 171.186 9.868 171.186 11.164C171.186 11.62 170.766 11.956 169.974 11.956C169.218 11.956 168.702 11.512 168.654 10.972H167.238C167.298 12.172 168.414 13.108 169.998 13.108C171.558 13.108 172.53 12.268 172.53 11.152Z" fill="white"/>
<path opacity="0.5" d="M19.0492 127.388V134H17.6812V133.22C17.4652 133.492 17.1812 133.708 16.8292 133.868C16.4852 134.02 16.1172 134.096 15.7252 134.096C15.2052 134.096 14.7372 133.988 14.3212 133.772C13.9132 133.556 13.5892 133.236 13.3492 132.812C13.1172 132.388 13.0012 131.876 13.0012 131.276V127.388H14.3572V131.072C14.3572 131.664 14.5052 132.12 14.8012 132.44C15.0972 132.752 15.5012 132.908 16.0132 132.908C16.5252 132.908 16.9292 132.752 17.2252 132.44C17.5292 132.12 17.6812 131.664 17.6812 131.072V127.388H19.0492ZM24.5502 127.28C25.0702 127.28 25.5342 127.388 25.9422 127.604C26.3582 127.82 26.6822 128.14 26.9142 128.564C27.1462 128.988 27.2622 129.5 27.2622 130.1V134H25.9062V130.304C25.9062 129.712 25.7582 129.26 25.4622 128.948C25.1662 128.628 24.7622 128.468 24.2502 128.468C23.7382 128.468 23.3302 128.628 23.0262 128.948C22.7302 129.26 22.5822 129.712 22.5822 130.304V134H21.2142V127.388H22.5822V128.144C22.8062 127.872 23.0902 127.66 23.4342 127.508C23.7862 127.356 24.1582 127.28 24.5502 127.28ZM30.9632 128.504V132.164C30.9632 132.412 31.0192 132.592 31.1312 132.704C31.2512 132.808 31.4512 132.86 31.7312 132.86H32.5712V134H31.4912C30.8752 134 30.4032 133.856 30.0752 133.568C29.7472 133.28 29.5832 132.812 29.5832 132.164V128.504H28.8032V127.388H29.5832V125.744H30.9632V127.388H32.5712V128.504H30.9632ZM34.888 126.512C34.64 126.512 34.432 126.428 34.264 126.26C34.096 126.092 34.012 125.884 34.012 125.636C34.012 125.388 34.096 125.18 34.264 125.012C34.432 124.844 34.64 124.76 34.888 124.76C35.128 124.76 35.332 124.844 35.5 125.012C35.668 125.18 35.752 125.388 35.752 125.636C35.752 125.884 35.668 126.092 35.5 126.26C35.332 126.428 35.128 126.512 34.888 126.512ZM35.56 127.388V134H34.192V127.388H35.56ZM39.0841 125.12V134H37.7161V125.12H39.0841ZM46.3133 128.504V132.164C46.3133 132.412 46.3693 132.592 46.4813 132.704C46.6013 132.808 46.8013 132.86 47.0813 132.86H47.9213V134H46.8413C46.2253 134 45.7533 133.856 45.4253 133.568C45.0973 133.28 44.9333 132.812 44.9333 132.164V128.504H44.1533V127.388H44.9333V125.744H46.3133V127.388H47.9213V128.504H46.3133ZM52.9622 127.28C53.4662 127.28 53.9142 127.388 54.3062 127.604C54.7062 127.82 55.0182 128.14 55.2422 128.564C55.4742 128.988 55.5902 129.5 55.5902 130.1V134H54.2342V130.304C54.2342 129.712 54.0862 129.26 53.7902 128.948C53.4942 128.628 53.0902 128.468 52.5782 128.468C52.0662 128.468 51.6582 128.628 51.3542 128.948C51.0582 129.26 50.9102 129.712 50.9102 130.304V134H49.5422V125.12H50.9102V128.156C51.1422 127.876 51.4342 127.66 51.7862 127.508C52.1462 127.356 52.5382 127.28 52.9622 127.28ZM63.7552 130.532C63.7552 130.78 63.7392 131.004 63.7072 131.204H58.6552C58.6952 131.732 58.8912 132.156 59.2432 132.476C59.5952 132.796 60.0272 132.956 60.5392 132.956C61.2752 132.956 61.7952 132.648 62.0992 132.032H63.5752C63.3752 132.64 63.0112 133.14 62.4832 133.532C61.9632 133.916 61.3152 134.108 60.5392 134.108C59.9072 134.108 59.3392 133.968 58.8352 133.688C58.3392 133.4 57.9472 133 57.6592 132.488C57.3792 131.968 57.2392 131.368 57.2392 130.688C57.2392 130.008 57.3752 129.412 57.6472 128.9C57.9272 128.38 58.3152 127.98 58.8112 127.7C59.3152 127.42 59.8912 127.28 60.5392 127.28C61.1632 127.28 61.7192 127.416 62.2072 127.688C62.6952 127.96 63.0752 128.344 63.3472 128.84C63.6192 129.328 63.7552 129.892 63.7552 130.532ZM62.3272 130.1C62.3192 129.596 62.1392 129.192 61.7872 128.888C61.4352 128.584 60.9992 128.432 60.4792 128.432C60.0072 128.432 59.6032 128.584 59.2672 128.888C58.9312 129.184 58.7312 129.588 58.6672 130.1H62.3272ZM69.6346 126.512C69.3866 126.512 69.1786 126.428 69.0106 126.26C68.8426 126.092 68.7586 125.884 68.7586 125.636C68.7586 125.388 68.8426 125.18 69.0106 125.012C69.1786 124.844 69.3866 124.76 69.6346 124.76C69.8746 124.76 70.0786 124.844 70.2466 125.012C70.4146 125.18 70.4986 125.388 70.4986 125.636C70.4986 125.884 70.4146 126.092 70.2466 126.26C70.0786 126.428 69.8746 126.512 69.6346 126.512ZM70.3066 127.388V134H68.9386V127.388H70.3066ZM75.7987 127.28C76.3187 127.28 76.7827 127.388 77.1907 127.604C77.6067 127.82 77.9307 128.14 78.1627 128.564C78.3947 128.988 78.5107 129.5 78.5107 130.1V134H77.1547V130.304C77.1547 129.712 77.0067 129.26 76.7107 128.948C76.4147 128.628 76.0107 128.468 75.4987 128.468C74.9867 128.468 74.5787 128.628 74.2747 128.948C73.9787 129.26 73.8307 129.712 73.8307 130.304V134H72.4627V127.388H73.8307V128.144C74.0547 127.872 74.3387 127.66 74.6827 127.508C75.0347 127.356 75.4067 127.28 75.7987 127.28ZM80.1596 130.664C80.1596 130 80.2956 129.412 80.5676 128.9C80.8476 128.388 81.2236 127.992 81.6956 127.712C82.1756 127.424 82.7076 127.28 83.2916 127.28C83.7236 127.28 84.1476 127.376 84.5636 127.568C84.9876 127.752 85.3236 128 85.5716 128.312V125.12H86.9516V134H85.5716V133.004C85.3476 133.324 85.0356 133.588 84.6356 133.796C84.2436 134.004 83.7916 134.108 83.2796 134.108C82.7036 134.108 82.1756 133.964 81.6956 133.676C81.2236 133.38 80.8476 132.972 80.5676 132.452C80.2956 131.924 80.1596 131.328 80.1596 130.664ZM85.5716 130.688C85.5716 130.232 85.4756 129.836 85.2836 129.5C85.0996 129.164 84.8556 128.908 84.5516 128.732C84.2476 128.556 83.9196 128.468 83.5676 128.468C83.2156 128.468 82.8876 128.556 82.5836 128.732C82.2796 128.9 82.0316 129.152 81.8396 129.488C81.6556 129.816 81.5636 130.208 81.5636 130.664C81.5636 131.12 81.6556 131.52 81.8396 131.864C82.0316 132.208 82.2796 132.472 82.5836 132.656C82.8956 132.832 83.2236 132.92 83.5676 132.92C83.9196 132.92 84.2476 132.832 84.5516 132.656C84.8556 132.48 85.0996 132.224 85.2836 131.888C85.4756 131.544 85.5716 131.144 85.5716 130.688ZM89.8044 126.512C89.5564 126.512 89.3484 126.428 89.1804 126.26C89.0124 126.092 88.9284 125.884 88.9284 125.636C88.9284 125.388 89.0124 125.18 89.1804 125.012C89.3484 124.844 89.5564 124.76 89.8044 124.76C90.0444 124.76 90.2484 124.844 90.4164 125.012C90.5844 125.18 90.6684 125.388 90.6684 125.636C90.6684 125.884 90.5844 126.092 90.4164 126.26C90.2484 126.428 90.0444 126.512 89.8044 126.512ZM90.4764 127.388V134H89.1084V127.388H90.4764ZM92.1765 130.688C92.1765 130.008 92.3125 129.412 92.5845 128.9C92.8645 128.38 93.2485 127.98 93.7365 127.7C94.2245 127.42 94.7845 127.28 95.4165 127.28C96.2165 127.28 96.8765 127.472 97.3965 127.856C97.9245 128.232 98.2805 128.772 98.4645 129.476H96.9885C96.8685 129.148 96.6765 128.892 96.4125 128.708C96.1485 128.524 95.8165 128.432 95.4165 128.432C94.8565 128.432 94.4085 128.632 94.0725 129.032C93.7445 129.424 93.5805 129.976 93.5805 130.688C93.5805 131.4 93.7445 131.956 94.0725 132.356C94.4085 132.756 94.8565 132.956 95.4165 132.956C96.2085 132.956 96.7325 132.608 96.9885 131.912H98.4645C98.2725 132.584 97.9125 133.12 97.3845 133.52C96.8565 133.912 96.2005 134.108 95.4165 134.108C94.7845 134.108 94.2245 133.968 93.7365 133.688C93.2485 133.4 92.8645 133 92.5845 132.488C92.3125 131.968 92.1765 131.368 92.1765 130.688ZM99.7318 130.664C99.7318 130 99.8678 129.412 100.14 128.9C100.42 128.388 100.796 127.992 101.268 127.712C101.748 127.424 102.276 127.28 102.852 127.28C103.372 127.28 103.824 127.384 104.208 127.592C104.6 127.792 104.912 128.044 105.144 128.348V127.388H106.524V134H105.144V133.016C104.912 133.328 104.596 133.588 104.196 133.796C103.796 134.004 103.34 134.108 102.828 134.108C102.26 134.108 101.74 133.964 101.268 133.676C100.796 133.38 100.42 132.972 100.14 132.452C99.8678 131.924 99.7318 131.328 99.7318 130.664ZM105.144 130.688C105.144 130.232 105.048 129.836 104.856 129.5C104.672 129.164 104.428 128.908 104.124 128.732C103.82 128.556 103.492 128.468 103.14 128.468C102.788 128.468 102.46 128.556 102.156 128.732C101.852 128.9 101.604 129.152 101.412 129.488C101.228 129.816 101.136 130.208 101.136 130.664C101.136 131.12 101.228 131.52 101.412 131.864C101.604 132.208 101.852 132.472 102.156 132.656C102.468 132.832 102.796 132.92 103.14 132.92C103.492 132.92 103.82 132.832 104.124 132.656C104.428 132.48 104.672 132.224 104.856 131.888C105.048 131.544 105.144 131.144 105.144 130.688ZM110.277 128.504V132.164C110.277 132.412 110.333 132.592 110.445 132.704C110.565 132.808 110.765 132.86 111.045 132.86H111.885V134H110.805C110.189 134 109.717 133.856 109.389 133.568C109.061 133.28 108.897 132.812 108.897 132.164V128.504H108.117V127.388H108.897V125.744H110.277V127.388H111.885V128.504H110.277ZM116.373 134.108C115.749 134.108 115.185 133.968 114.681 133.688C114.177 133.4 113.781 133 113.493 132.488C113.205 131.968 113.061 131.368 113.061 130.688C113.061 130.016 113.209 129.42 113.505 128.9C113.801 128.38 114.205 127.98 114.717 127.7C115.229 127.42 115.801 127.28 116.433 127.28C117.065 127.28 117.637 127.42 118.149 127.7C118.661 127.98 119.065 128.38 119.361 128.9C119.657 129.42 119.805 130.016 119.805 130.688C119.805 131.36 119.653 131.956 119.349 132.476C119.045 132.996 118.629 133.4 118.101 133.688C117.581 133.968 117.005 134.108 116.373 134.108ZM116.373 132.92C116.725 132.92 117.053 132.836 117.357 132.668C117.669 132.5 117.921 132.248 118.113 131.912C118.305 131.576 118.401 131.168 118.401 130.688C118.401 130.208 118.309 129.804 118.125 129.476C117.941 129.14 117.697 128.888 117.393 128.72C117.089 128.552 116.761 128.468 116.409 128.468C116.057 128.468 115.729 128.552 115.425 128.72C115.129 128.888 114.893 129.14 114.717 129.476C114.541 129.804 114.453 130.208 114.453 130.688C114.453 131.4 114.633 131.952 114.993 132.344C115.361 132.728 115.821 132.92 116.373 132.92ZM122.886 128.348C123.086 128.012 123.35 127.752 123.678 127.568C124.014 127.376 124.41 127.28 124.866 127.28V128.696H124.518C123.982 128.696 123.574 128.832 123.294 129.104C123.022 129.376 122.886 129.848 122.886 130.52V134H121.518V127.388H122.886V128.348ZM132.36 134.108C131.84 134.108 131.372 134.016 130.956 133.832C130.548 133.64 130.224 133.384 129.984 133.064C129.744 132.736 129.616 132.372 129.6 131.972H131.016C131.04 132.252 131.172 132.488 131.412 132.68C131.66 132.864 131.968 132.956 132.336 132.956C132.72 132.956 133.016 132.884 133.224 132.74C133.44 132.588 133.548 132.396 133.548 132.164C133.548 131.916 133.428 131.732 133.188 131.612C132.956 131.492 132.584 131.36 132.072 131.216C131.576 131.08 131.172 130.948 130.86 130.82C130.548 130.692 130.276 130.496 130.044 130.232C129.82 129.968 129.708 129.62 129.708 129.188C129.708 128.836 129.812 128.516 130.02 128.228C130.228 127.932 130.524 127.7 130.908 127.532C131.3 127.364 131.748 127.28 132.252 127.28C133.004 127.28 133.608 127.472 134.064 127.856C134.528 128.232 134.776 128.748 134.808 129.404H133.44C133.416 129.108 133.296 128.872 133.08 128.696C132.864 128.52 132.572 128.432 132.204 128.432C131.844 128.432 131.568 128.5 131.376 128.636C131.184 128.772 131.088 128.952 131.088 129.176C131.088 129.352 131.152 129.5 131.28 129.62C131.408 129.74 131.564 129.836 131.748 129.908C131.932 129.972 132.204 130.056 132.564 130.16C133.044 130.288 133.436 130.42 133.74 130.556C134.052 130.684 134.32 130.876 134.544 131.132C134.768 131.388 134.884 131.728 134.892 132.152C134.892 132.528 134.788 132.864 134.58 133.16C134.372 133.456 134.076 133.688 133.692 133.856C133.316 134.024 132.872 134.108 132.36 134.108ZM138.327 128.504V132.164C138.327 132.412 138.383 132.592 138.495 132.704C138.615 132.808 138.815 132.86 139.095 132.86H139.935V134H138.855C138.239 134 137.767 133.856 137.439 133.568C137.111 133.28 136.947 132.812 136.947 132.164V128.504H136.167V127.388H136.947V125.744H138.327V127.388H139.935V128.504H138.327ZM141.099 130.664C141.099 130 141.235 129.412 141.507 128.9C141.787 128.388 142.163 127.992 142.635 127.712C143.115 127.424 143.643 127.28 144.219 127.28C144.739 127.28 145.191 127.384 145.575 127.592C145.967 127.792 146.279 128.044 146.511 128.348V127.388H147.891V134H146.511V133.016C146.279 133.328 145.963 133.588 145.563 133.796C145.163 134.004 144.707 134.108 144.195 134.108C143.627 134.108 143.107 133.964 142.635 133.676C142.163 133.38 141.787 132.972 141.507 132.452C141.235 131.924 141.099 131.328 141.099 130.664ZM146.511 130.688C146.511 130.232 146.415 129.836 146.223 129.5C146.039 129.164 145.795 128.908 145.491 128.732C145.187 128.556 144.859 128.468 144.507 128.468C144.155 128.468 143.827 128.556 143.523 128.732C143.219 128.9 142.971 129.152 142.779 129.488C142.595 129.816 142.503 130.208 142.503 130.664C142.503 131.12 142.595 131.52 142.779 131.864C142.971 132.208 143.219 132.472 143.523 132.656C143.835 132.832 144.163 132.92 144.507 132.92C144.859 132.92 145.187 132.832 145.491 132.656C145.795 132.48 146.039 132.224 146.223 131.888C146.415 131.544 146.511 131.144 146.511 130.688ZM151.416 128.348C151.616 128.012 151.88 127.752 152.208 127.568C152.544 127.376 152.94 127.28 153.396 127.28V128.696H153.048C152.512 128.696 152.104 128.832 151.824 129.104C151.552 129.376 151.416 129.848 151.416 130.52V134H150.048V127.388H151.416V128.348ZM156.61 128.504V132.164C156.61 132.412 156.666 132.592 156.778 132.704C156.898 132.808 157.098 132.86 157.378 132.86H158.218V134H157.138C156.522 134 156.05 133.856 155.722 133.568C155.394 133.28 155.23 132.812 155.23 132.164V128.504H154.45V127.388H155.23V125.744H156.61V127.388H158.218V128.504H156.61ZM162.239 134.108C161.719 134.108 161.251 134.016 160.835 133.832C160.427 133.64 160.103 133.384 159.863 133.064C159.623 132.736 159.495 132.372 159.479 131.972H160.895C160.919 132.252 161.051 132.488 161.291 132.68C161.539 132.864 161.847 132.956 162.215 132.956C162.599 132.956 162.895 132.884 163.103 132.74C163.319 132.588 163.427 132.396 163.427 132.164C163.427 131.916 163.307 131.732 163.067 131.612C162.835 131.492 162.463 131.36 161.951 131.216C161.455 131.08 161.051 130.948 160.739 130.82C160.427 130.692 160.155 130.496 159.923 130.232C159.699 129.968 159.587 129.62 159.587 129.188C159.587 128.836 159.691 128.516 159.899 128.228C160.107 127.932 160.403 127.7 160.787 127.532C161.179 127.364 161.627 127.28 162.131 127.28C162.883 127.28 163.487 127.472 163.943 127.856C164.407 128.232 164.655 128.748 164.687 129.404H163.319C163.295 129.108 163.175 128.872 162.959 128.696C162.743 128.52 162.451 128.432 162.083 128.432C161.723 128.432 161.447 128.5 161.255 128.636C161.063 128.772 160.967 128.952 160.967 129.176C160.967 129.352 161.031 129.5 161.159 129.62C161.287 129.74 161.443 129.836 161.627 129.908C161.811 129.972 162.083 130.056 162.443 130.16C162.923 130.288 163.315 130.42 163.619 130.556C163.931 130.684 164.199 130.876 164.423 131.132C164.647 131.388 164.763 131.728 164.771 132.152C164.771 132.528 164.667 132.864 164.459 133.16C164.251 133.456 163.955 133.688 163.571 133.856C163.195 134.024 162.751 134.108 162.239 134.108ZM171.682 128.504V132.164C171.682 132.412 171.738 132.592 171.85 132.704C171.97 132.808 172.17 132.86 172.45 132.86H173.29V134H172.21C171.594 134 171.122 133.856 170.794 133.568C170.466 133.28 170.302 132.812 170.302 132.164V128.504H169.522V127.388H170.302V125.744H171.682V127.388H173.29V128.504H171.682ZM177.779 134.108C177.155 134.108 176.591 133.968 176.087 133.688C175.583 133.4 175.187 133 174.899 132.488C174.611 131.968 174.467 131.368 174.467 130.688C174.467 130.016 174.615 129.42 174.911 128.9C175.207 128.38 175.611 127.98 176.123 127.7C176.635 127.42 177.207 127.28 177.839 127.28C178.471 127.28 179.043 127.42 179.555 127.7C180.067 127.98 180.471 128.38 180.767 128.9C181.063 129.42 181.211 130.016 181.211 130.688C181.211 131.36 181.059 131.956 180.755 132.476C180.451 132.996 180.035 133.4 179.507 133.688C178.987 133.968 178.411 134.108 177.779 134.108ZM177.779 132.92C178.131 132.92 178.459 132.836 178.763 132.668C179.075 132.5 179.327 132.248 179.519 131.912C179.711 131.576 179.807 131.168 179.807 130.688C179.807 130.208 179.715 129.804 179.531 129.476C179.347 129.14 179.103 128.888 178.799 128.72C178.495 128.552 178.167 128.468 177.815 128.468C177.463 128.468 177.135 128.552 176.831 128.72C176.535 128.888 176.299 129.14 176.123 129.476C175.947 129.804 175.859 130.208 175.859 130.688C175.859 131.4 176.039 131.952 176.399 132.344C176.767 132.728 177.227 132.92 177.779 132.92ZM187.768 128.372C188 128.052 188.316 127.792 188.716 127.592C189.124 127.384 189.576 127.28 190.072 127.28C190.656 127.28 191.184 127.42 191.656 127.7C192.128 127.98 192.5 128.38 192.772 128.9C193.044 129.412 193.18 130 193.18 130.664C193.18 131.328 193.044 131.924 192.772 132.452C192.5 132.972 192.124 133.38 191.644 133.676C191.172 133.964 190.648 134.108 190.072 134.108C189.56 134.108 189.104 134.008 188.704 133.808C188.312 133.608 188 133.352 187.768 133.04V134H186.4V125.12H187.768V128.372ZM191.788 130.664C191.788 130.208 191.692 129.816 191.5 129.488C191.316 129.152 191.068 128.9 190.756 128.732C190.452 128.556 190.124 128.468 189.772 128.468C189.428 128.468 189.1 128.556 188.788 128.732C188.484 128.908 188.236 129.164 188.044 129.5C187.86 129.836 187.768 130.232 187.768 130.688C187.768 131.144 187.86 131.544 188.044 131.888C188.236 132.224 188.484 132.48 188.788 132.656C189.1 132.832 189.428 132.92 189.772 132.92C190.124 132.92 190.452 132.832 190.756 132.656C191.068 132.472 191.316 132.208 191.5 131.864C191.692 131.52 191.788 131.12 191.788 130.664ZM196.261 125.12V134H194.893V125.12H196.261ZM199.113 126.512C198.865 126.512 198.657 126.428 198.489 126.26C198.321 126.092 198.237 125.884 198.237 125.636C198.237 125.388 198.321 125.18 198.489 125.012C198.657 124.844 198.865 124.76 199.113 124.76C199.353 124.76 199.557 124.844 199.725 125.012C199.893 125.18 199.977 125.388 199.977 125.636C199.977 125.884 199.893 126.092 199.725 126.26C199.557 126.428 199.353 126.512 199.113 126.512ZM199.785 127.388V134H198.417V127.388H199.785ZM205.277 127.28C205.797 127.28 206.261 127.388 206.669 127.604C207.085 127.82 207.409 128.14 207.641 128.564C207.873 128.988 207.989 129.5 207.989 130.1V134H206.633V130.304C206.633 129.712 206.485 129.26 206.189 128.948C205.893 128.628 205.489 128.468 204.977 128.468C204.465 128.468 204.057 128.628 203.753 128.948C203.457 129.26 203.309 129.712 203.309 130.304V134H201.941V127.388H203.309V128.144C203.533 127.872 203.817 127.66 204.161 127.508C204.513 127.356 204.885 127.28 205.277 127.28ZM212.71 130.7L215.758 134H213.91L211.462 131.156V134H210.094V125.12H211.462V130.28L213.862 127.388H215.758L212.71 130.7Z" fill="white"/>
<g filter="url(#filter0_d_327_1847)">
<path fill-rule="evenodd" clip-rule="evenodd" d="M131.709 175.893L131.816 176L131.921 175.892L133.437 174.061C132.998 173.679 132.437 173.439 131.816 173.439C131.194 173.439 130.632 173.679 130.193 174.061L131.709 175.893ZM127.976 171.382C129.048 170.453 130.393 169.944 131.816 169.944C133.237 169.944 134.582 170.453 135.655 171.382L136.633 170.2C135.286 169.036 133.6 168.397 131.816 168.397C130.031 168.397 128.344 169.036 126.998 170.2L127.976 171.382V171.382ZM123.756 166.283C126.007 164.338 128.83 163.275 131.816 163.275C134.801 163.275 137.624 164.338 139.875 166.283L138.894 167.469C136.916 165.759 134.438 164.822 131.816 164.822C129.193 164.822 126.715 165.759 124.737 167.468L123.756 166.283Z" fill="white"/>
</g>
<g filter="url(#filter1_f_327_1847)">
<path fill-rule="evenodd" clip-rule="evenodd" d="M132.034 177.333L132.155 177.455L132.275 177.333L133.997 175.252C133.499 174.818 132.861 174.546 132.155 174.546C131.449 174.546 130.81 174.818 130.312 175.252L132.034 177.333ZM127.794 172.209C129.012 171.154 130.539 170.576 132.155 170.576C133.77 170.576 135.297 171.154 136.516 172.209L137.627 170.866C136.097 169.544 134.182 168.819 132.155 168.819C130.128 168.819 128.212 169.544 126.683 170.866L127.794 172.21V172.209ZM123 166.416C125.557 164.207 128.764 163 132.155 163C135.546 163 138.753 164.207 141.31 166.416L140.195 167.764C137.949 165.822 135.134 164.758 132.155 164.758C129.176 164.758 126.361 165.822 124.115 167.763L123 166.416Z" fill="white"/>
</g>
<g filter="url(#filter2_f_327_1847)">
<path fill-rule="evenodd" clip-rule="evenodd" d="M132.034 177.563L132.155 177.684L132.275 177.562L133.997 175.481C133.499 175.048 132.861 174.776 132.155 174.776C131.449 174.776 130.81 175.048 130.312 175.481L132.034 177.563ZM127.794 172.438C129.012 171.384 130.539 170.806 132.155 170.806C133.77 170.806 135.297 171.384 136.516 172.438L137.627 171.096C136.097 169.773 134.182 169.048 132.155 169.048C130.128 169.048 128.212 169.773 126.683 171.096L127.794 172.439V172.438ZM123 166.646C125.557 164.437 128.764 163.229 132.155 163.229C135.546 163.229 138.753 164.437 141.31 166.646L140.195 167.994C137.949 166.052 135.134 164.987 132.155 164.987C129.176 164.987 126.361 166.052 124.115 167.993L123 166.646Z" fill="white"/>
</g>
<path d="M88.1969 175.243L89.9889 175.229L92.1589 167.865L94.2029 175.229H96.0089L98.8929 165.499H97.1849L95.1549 173.381L93.1249 165.499H91.3329L89.1489 173.423L87.1329 165.499H85.4389L88.1969 175.243ZM100.569 175.229H102.165V167.515H100.569V175.229ZM101.381 166.493C101.941 166.493 102.389 166.045 102.389 165.471C102.389 164.897 101.941 164.449 101.381 164.449C100.807 164.449 100.359 164.897 100.359 165.471C100.359 166.045 100.807 166.493 101.381 166.493ZM104.621 175.229H106.217V170.973H109.437V169.671H106.217V166.801H110.347V165.499H104.621V175.229ZM112.186 175.229H113.782V167.515H112.186V175.229ZM112.998 166.493C113.558 166.493 114.006 166.045 114.006 165.471C114.006 164.897 113.558 164.449 112.998 164.449C112.424 164.449 111.976 164.897 111.976 165.471C111.976 166.045 112.424 166.493 112.998 166.493Z" fill="#EFEFEF"/>
<path d="M72.6815 83.51C72.6815 82.83 72.8348 82.22 73.1415 81.68C73.4482 81.1333 73.8648 80.7067 74.3915 80.4C74.9248 80.0933 75.5148 79.94 76.1615 79.94C76.9215 79.94 77.5848 80.1233 78.1515 80.49C78.7182 80.8567 79.1315 81.3767 79.3915 82.05H78.3015C78.1082 81.63 77.8282 81.3067 77.4615 81.08C77.1015 80.8533 76.6682 80.74 76.1615 80.74C75.6748 80.74 75.2382 80.8533 74.8515 81.08C74.4648 81.3067 74.1615 81.63 73.9415 82.05C73.7215 82.4633 73.6115 82.95 73.6115 83.51C73.6115 84.0633 73.7215 84.55 73.9415 84.97C74.1615 85.3833 74.4648 85.7033 74.8515 85.93C75.2382 86.1567 75.6748 86.27 76.1615 86.27C76.6682 86.27 77.1015 86.16 77.4615 85.94C77.8282 85.7133 78.1082 85.39 78.3015 84.97H79.3915C79.1315 85.6367 78.7182 86.1533 78.1515 86.52C77.5848 86.88 76.9215 87.06 76.1615 87.06C75.5148 87.06 74.9248 86.91 74.3915 86.61C73.8648 86.3033 73.4482 85.88 73.1415 85.34C72.8348 84.8 72.6815 84.19 72.6815 83.51ZM83.4961 87.09C82.9828 87.09 82.5161 86.9733 82.0961 86.74C81.6828 86.5067 81.3561 86.1767 81.1161 85.75C80.8828 85.3167 80.7661 84.8167 80.7661 84.25C80.7661 83.69 80.8861 83.1967 81.1261 82.77C81.3728 82.3367 81.7061 82.0067 82.1261 81.78C82.5461 81.5467 83.0161 81.43 83.5361 81.43C84.0561 81.43 84.5261 81.5467 84.9461 81.78C85.3661 82.0067 85.6961 82.3333 85.9361 82.76C86.1828 83.1867 86.3061 83.6833 86.3061 84.25C86.3061 84.8167 86.1794 85.3167 85.9261 85.75C85.6794 86.1767 85.3428 86.5067 84.9161 86.74C84.4894 86.9733 84.0161 87.09 83.4961 87.09ZM83.4961 86.29C83.8228 86.29 84.1294 86.2133 84.4161 86.06C84.7028 85.9067 84.9328 85.6767 85.1061 85.37C85.2861 85.0633 85.3761 84.69 85.3761 84.25C85.3761 83.81 85.2894 83.4367 85.1161 83.13C84.9428 82.8233 84.7161 82.5967 84.4361 82.45C84.1561 82.2967 83.8528 82.22 83.5261 82.22C83.1928 82.22 82.8861 82.2967 82.6061 82.45C82.3328 82.5967 82.1128 82.8233 81.9461 83.13C81.7794 83.4367 81.6961 83.81 81.6961 84.25C81.6961 84.6967 81.7761 85.0733 81.9361 85.38C82.1028 85.6867 82.3228 85.9167 82.5961 86.07C82.8694 86.2167 83.1694 86.29 83.4961 86.29ZM90.5326 81.42C91.1992 81.42 91.7392 81.6233 92.1526 82.03C92.5659 82.43 92.7726 83.01 92.7726 83.77V87H91.8726V83.9C91.8726 83.3533 91.7359 82.9367 91.4626 82.65C91.1892 82.3567 90.8159 82.21 90.3426 82.21C89.8626 82.21 89.4792 82.36 89.1926 82.66C88.9126 82.96 88.7726 83.3967 88.7726 83.97V87H87.8626V81.52H88.7726V82.3C88.9526 82.02 89.1959 81.8033 89.5026 81.65C89.8159 81.4967 90.1592 81.42 90.5326 81.42ZM97.2891 81.42C97.9557 81.42 98.4957 81.6233 98.9091 82.03C99.3224 82.43 99.5291 83.01 99.5291 83.77V87H98.6291V83.9C98.6291 83.3533 98.4924 82.9367 98.2191 82.65C97.9457 82.3567 97.5724 82.21 97.0991 82.21C96.6191 82.21 96.2357 82.36 95.9491 82.66C95.6691 82.96 95.5291 83.3967 95.5291 83.97V87H94.6191V81.52H95.5291V82.3C95.7091 82.02 95.9524 81.8033 96.2591 81.65C96.5724 81.4967 96.9157 81.42 97.2891 81.42ZM106.376 84.05C106.376 84.2233 106.366 84.4067 106.346 84.6H101.966C101.999 85.14 102.182 85.5633 102.516 85.87C102.856 86.17 103.266 86.32 103.746 86.32C104.139 86.32 104.466 86.23 104.726 86.05C104.992 85.8633 105.179 85.6167 105.286 85.31H106.266C106.119 85.8367 105.826 86.2667 105.386 86.6C104.946 86.9267 104.399 87.09 103.746 87.09C103.226 87.09 102.759 86.9733 102.346 86.74C101.939 86.5067 101.619 86.1767 101.386 85.75C101.152 85.3167 101.036 84.8167 101.036 84.25C101.036 83.6833 101.149 83.1867 101.376 82.76C101.602 82.3333 101.919 82.0067 102.326 81.78C102.739 81.5467 103.212 81.43 103.746 81.43C104.266 81.43 104.726 81.5433 105.126 81.77C105.526 81.9967 105.832 82.31 106.046 82.71C106.266 83.1033 106.376 83.55 106.376 84.05ZM105.436 83.86C105.436 83.5133 105.359 83.2167 105.206 82.97C105.052 82.7167 104.842 82.5267 104.576 82.4C104.316 82.2667 104.026 82.2 103.706 82.2C103.246 82.2 102.852 82.3467 102.526 82.64C102.206 82.9333 102.022 83.34 101.976 83.86H105.436ZM107.597 84.25C107.597 83.6833 107.71 83.19 107.937 82.77C108.163 82.3433 108.477 82.0133 108.877 81.78C109.283 81.5467 109.747 81.43 110.267 81.43C110.94 81.43 111.493 81.5933 111.927 81.92C112.367 82.2467 112.657 82.7 112.797 83.28H111.817C111.723 82.9467 111.54 82.6833 111.267 82.49C111 82.2967 110.667 82.2 110.267 82.2C109.747 82.2 109.327 82.38 109.007 82.74C108.687 83.0933 108.527 83.5967 108.527 84.25C108.527 84.91 108.687 85.42 109.007 85.78C109.327 86.14 109.747 86.32 110.267 86.32C110.667 86.32 111 86.2267 111.267 86.04C111.533 85.8533 111.717 85.5867 111.817 85.24H112.797C112.65 85.8 112.357 86.25 111.917 86.59C111.477 86.9233 110.927 87.09 110.267 87.09C109.747 87.09 109.283 86.9733 108.877 86.74C108.477 86.5067 108.163 86.1767 107.937 85.75C107.71 85.3233 107.597 84.8233 107.597 84.25ZM115.481 82.27V85.5C115.481 85.7667 115.538 85.9567 115.651 86.07C115.764 86.1767 115.961 86.23 116.241 86.23H116.911V87H116.091C115.584 87 115.204 86.8833 114.951 86.65C114.698 86.4167 114.571 86.0333 114.571 85.5V82.27H113.861V81.52H114.571V80.14H115.481V81.52H116.911V82.27H115.481ZM122.51 82.27V85.5C122.51 85.7667 122.566 85.9567 122.68 86.07C122.793 86.1767 122.99 86.23 123.27 86.23H123.94V87H123.12C122.613 87 122.233 86.8833 121.98 86.65C121.726 86.4167 121.6 86.0333 121.6 85.5V82.27H120.89V81.52H121.6V80.14H122.51V81.52H123.94V82.27H122.51ZM127.792 87.09C127.279 87.09 126.812 86.9733 126.392 86.74C125.979 86.5067 125.652 86.1767 125.412 85.75C125.179 85.3167 125.062 84.8167 125.062 84.25C125.062 83.69 125.182 83.1967 125.422 82.77C125.669 82.3367 126.002 82.0067 126.422 81.78C126.842 81.5467 127.312 81.43 127.832 81.43C128.352 81.43 128.822 81.5467 129.242 81.78C129.662 82.0067 129.992 82.3333 130.232 82.76C130.479 83.1867 130.602 83.6833 130.602 84.25C130.602 84.8167 130.475 85.3167 130.222 85.75C129.975 86.1767 129.639 86.5067 129.212 86.74C128.785 86.9733 128.312 87.09 127.792 87.09ZM127.792 86.29C128.119 86.29 128.425 86.2133 128.712 86.06C128.999 85.9067 129.229 85.6767 129.402 85.37C129.582 85.0633 129.672 84.69 129.672 84.25C129.672 83.81 129.585 83.4367 129.412 83.13C129.239 82.8233 129.012 82.5967 128.732 82.45C128.452 82.2967 128.149 82.22 127.822 82.22C127.489 82.22 127.182 82.2967 126.902 82.45C126.629 82.5967 126.409 82.8233 126.242 83.13C126.075 83.4367 125.992 83.81 125.992 84.25C125.992 84.6967 126.072 85.0733 126.232 85.38C126.399 85.6867 126.619 85.9167 126.892 86.07C127.165 86.2167 127.465 86.29 127.792 86.29ZM139.305 85.45H136.265L135.705 87H134.745L137.265 80.07H138.315L140.825 87H139.865L139.305 85.45ZM139.045 84.71L137.785 81.19L136.525 84.71H139.045ZM143.193 82.53C143.373 82.2167 143.64 81.9567 143.993 81.75C144.353 81.5367 144.77 81.43 145.243 81.43C145.73 81.43 146.17 81.5467 146.563 81.78C146.963 82.0133 147.276 82.3433 147.503 82.77C147.73 83.19 147.843 83.68 147.843 84.24C147.843 84.7933 147.73 85.2867 147.503 85.72C147.276 86.1533 146.963 86.49 146.563 86.73C146.17 86.97 145.73 87.09 145.243 87.09C144.776 87.09 144.363 86.9867 144.003 86.78C143.65 86.5667 143.38 86.3033 143.193 85.99V89.6H142.283V81.52H143.193V82.53ZM146.913 84.24C146.913 83.8267 146.83 83.4667 146.663 83.16C146.496 82.8533 146.27 82.62 145.983 82.46C145.703 82.3 145.393 82.22 145.053 82.22C144.72 82.22 144.41 82.3033 144.123 82.47C143.843 82.63 143.616 82.8667 143.443 83.18C143.276 83.4867 143.193 83.8433 143.193 84.25C143.193 84.6633 143.276 85.0267 143.443 85.34C143.616 85.6467 143.843 85.8833 144.123 86.05C144.41 86.21 144.72 86.29 145.053 86.29C145.393 86.29 145.703 86.21 145.983 86.05C146.27 85.8833 146.496 85.6467 146.663 85.34C146.83 85.0267 146.913 84.66 146.913 84.24ZM150.311 82.53C150.491 82.2167 150.757 81.9567 151.111 81.75C151.471 81.5367 151.887 81.43 152.361 81.43C152.847 81.43 153.287 81.5467 153.681 81.78C154.081 82.0133 154.394 82.3433 154.621 82.77C154.847 83.19 154.961 83.68 154.961 84.24C154.961 84.7933 154.847 85.2867 154.621 85.72C154.394 86.1533 154.081 86.49 153.681 86.73C153.287 86.97 152.847 87.09 152.361 87.09C151.894 87.09 151.481 86.9867 151.121 86.78C150.767 86.5667 150.497 86.3033 150.311 85.99V89.6H149.401V81.52H150.311V82.53ZM154.031 84.24C154.031 83.8267 153.947 83.4667 153.781 83.16C153.614 82.8533 153.387 82.62 153.101 82.46C152.821 82.3 152.511 82.22 152.171 82.22C151.837 82.22 151.527 82.3033 151.241 82.47C150.961 82.63 150.734 82.8667 150.561 83.18C150.394 83.4867 150.311 83.8433 150.311 84.25C150.311 84.6633 150.394 85.0267 150.561 85.34C150.734 85.6467 150.961 85.8833 151.241 86.05C151.527 86.21 151.837 86.29 152.171 86.29C152.511 86.29 152.821 86.21 153.101 86.05C153.387 85.8833 153.614 85.6467 153.781 85.34C153.947 85.0267 154.031 84.66 154.031 84.24ZM92.5679 95.03V102H91.6579V98.84H88.1079V102H87.1979V95.03H88.1079V98.09H91.6579V95.03H92.5679ZM96.8717 102.09C96.3583 102.09 95.8917 101.973 95.4717 101.74C95.0583 101.507 94.7317 101.177 94.4917 100.75C94.2583 100.317 94.1417 99.8167 94.1417 99.25C94.1417 98.69 94.2617 98.1967 94.5017 97.77C94.7483 97.3367 95.0817 97.0067 95.5017 96.78C95.9217 96.5467 96.3917 96.43 96.9117 96.43C97.4317 96.43 97.9017 96.5467 98.3217 96.78C98.7417 97.0067 99.0717 97.3333 99.3117 97.76C99.5583 98.1867 99.6817 98.6833 99.6817 99.25C99.6817 99.8167 99.555 100.317 99.3017 100.75C99.055 101.177 98.7183 101.507 98.2917 101.74C97.865 101.973 97.3917 102.09 96.8717 102.09ZM96.8717 101.29C97.1983 101.29 97.505 101.213 97.7917 101.06C98.0783 100.907 98.3083 100.677 98.4817 100.37C98.6617 100.063 98.7517 99.69 98.7517 99.25C98.7517 98.81 98.665 98.4367 98.4917 98.13C98.3183 97.8233 98.0917 97.5967 97.8117 97.45C97.5317 97.2967 97.2283 97.22 96.9017 97.22C96.5683 97.22 96.2617 97.2967 95.9817 97.45C95.7083 97.5967 95.4883 97.8233 95.3217 98.13C95.155 98.4367 95.0717 98.81 95.0717 99.25C95.0717 99.6967 95.1517 100.073 95.3117 100.38C95.4783 100.687 95.6983 100.917 95.9717 101.07C96.245 101.217 96.545 101.29 96.8717 101.29ZM102.148 94.6V102H101.238V94.6H102.148ZM103.719 99.24C103.719 98.68 103.832 98.19 104.059 97.77C104.286 97.3433 104.596 97.0133 104.989 96.78C105.389 96.5467 105.836 96.43 106.329 96.43C106.756 96.43 107.152 96.53 107.519 96.73C107.886 96.9233 108.166 97.18 108.359 97.5V94.6H109.279V102H108.359V100.97C108.179 101.297 107.912 101.567 107.559 101.78C107.206 101.987 106.792 102.09 106.319 102.09C105.832 102.09 105.389 101.97 104.989 101.73C104.596 101.49 104.286 101.153 104.059 100.72C103.832 100.287 103.719 99.7933 103.719 99.24ZM108.359 99.25C108.359 98.8367 108.276 98.4767 108.109 98.17C107.942 97.8633 107.716 97.63 107.429 97.47C107.149 97.3033 106.839 97.22 106.499 97.22C106.159 97.22 105.849 97.3 105.569 97.46C105.289 97.62 105.066 97.8533 104.899 98.16C104.732 98.4667 104.649 98.8267 104.649 99.24C104.649 99.66 104.732 100.027 104.899 100.34C105.066 100.647 105.289 100.883 105.569 101.05C105.849 101.21 106.159 101.29 106.499 101.29C106.839 101.29 107.149 101.21 107.429 101.05C107.716 100.883 107.942 100.647 108.109 100.34C108.276 100.027 108.359 99.6633 108.359 99.25ZM114.033 96.59C114.08 95.9767 114.316 95.4967 114.743 95.15C115.17 94.8033 115.723 94.63 116.403 94.63C116.856 94.63 117.246 94.7133 117.573 94.88C117.906 95.04 118.156 95.26 118.323 95.54C118.496 95.82 118.583 96.1367 118.583 96.49C118.583 96.9033 118.463 97.26 118.223 97.56C117.99 97.86 117.683 98.0533 117.303 98.14V98.19C117.736 98.2967 118.08 98.5067 118.333 98.82C118.586 99.1333 118.713 99.5433 118.713 100.05C118.713 100.43 118.626 100.773 118.453 101.08C118.28 101.38 118.02 101.617 117.673 101.79C117.326 101.963 116.91 102.05 116.423 102.05C115.716 102.05 115.136 101.867 114.683 101.5C114.23 101.127 113.976 100.6 113.923 99.92H114.803C114.85 100.32 115.013 100.647 115.293 100.9C115.573 101.153 115.946 101.28 116.413 101.28C116.88 101.28 117.233 101.16 117.473 100.92C117.72 100.673 117.843 100.357 117.843 99.97C117.843 99.47 117.676 99.11 117.343 98.89C117.01 98.67 116.506 98.56 115.833 98.56H115.603V97.8H115.843C116.456 97.7933 116.92 97.6933 117.233 97.5C117.546 97.3 117.703 96.9933 117.703 96.58C117.703 96.2267 117.586 95.9433 117.353 95.73C117.126 95.5167 116.8 95.41 116.373 95.41C115.96 95.41 115.626 95.5167 115.373 95.73C115.12 95.9433 114.97 96.23 114.923 96.59H114.033ZM125.688 102.07C125.228 102.07 124.814 101.99 124.448 101.83C124.088 101.663 123.804 101.437 123.598 101.15C123.391 100.857 123.284 100.52 123.278 100.14H124.248C124.281 100.467 124.414 100.743 124.648 100.97C124.888 101.19 125.234 101.3 125.688 101.3C126.121 101.3 126.461 101.193 126.708 100.98C126.961 100.76 127.088 100.48 127.088 100.14C127.088 99.8733 127.014 99.6567 126.868 99.49C126.721 99.3233 126.538 99.1967 126.318 99.11C126.098 99.0233 125.801 98.93 125.428 98.83C124.968 98.71 124.598 98.59 124.318 98.47C124.044 98.35 123.808 98.1633 123.608 97.91C123.414 97.65 123.318 97.3033 123.318 96.87C123.318 96.49 123.414 96.1533 123.608 95.86C123.801 95.5667 124.071 95.34 124.418 95.18C124.771 95.02 125.174 94.94 125.628 94.94C126.281 94.94 126.814 95.1033 127.228 95.43C127.648 95.7567 127.884 96.19 127.938 96.73H126.938C126.904 96.4633 126.764 96.23 126.518 96.03C126.271 95.8233 125.944 95.72 125.538 95.72C125.158 95.72 124.848 95.82 124.608 96.02C124.368 96.2133 124.248 96.4867 124.248 96.84C124.248 97.0933 124.318 97.3 124.458 97.46C124.604 97.62 124.781 97.7433 124.988 97.83C125.201 97.91 125.498 98.0033 125.878 98.11C126.338 98.2367 126.708 98.3633 126.988 98.49C127.268 98.61 127.508 98.8 127.708 99.06C127.908 99.3133 128.008 99.66 128.008 100.1C128.008 100.44 127.918 100.76 127.738 101.06C127.558 101.36 127.291 101.603 126.938 101.79C126.584 101.977 126.168 102.07 125.688 102.07ZM134.707 99.05C134.707 99.2233 134.697 99.4067 134.677 99.6H130.297C130.33 100.14 130.513 100.563 130.847 100.87C131.187 101.17 131.597 101.32 132.077 101.32C132.47 101.32 132.797 101.23 133.057 101.05C133.323 100.863 133.51 100.617 133.617 100.31H134.597C134.45 100.837 134.157 101.267 133.717 101.6C133.277 101.927 132.73 102.09 132.077 102.09C131.557 102.09 131.09 101.973 130.677 101.74C130.27 101.507 129.95 101.177 129.717 100.75C129.483 100.317 129.367 99.8167 129.367 99.25C129.367 98.6833 129.48 98.1867 129.707 97.76C129.933 97.3333 130.25 97.0067 130.657 96.78C131.07 96.5467 131.543 96.43 132.077 96.43C132.597 96.43 133.057 96.5433 133.457 96.77C133.857 96.9967 134.163 97.31 134.377 97.71C134.597 98.1033 134.707 98.55 134.707 99.05ZM133.767 98.86C133.767 98.5133 133.69 98.2167 133.537 97.97C133.383 97.7167 133.173 97.5267 132.907 97.4C132.647 97.2667 132.357 97.2 132.037 97.2C131.577 97.2 131.183 97.3467 130.857 97.64C130.537 97.9333 130.353 98.34 130.307 98.86H133.767ZM135.928 99.25C135.928 98.6833 136.041 98.19 136.268 97.77C136.495 97.3433 136.808 97.0133 137.208 96.78C137.615 96.5467 138.078 96.43 138.598 96.43C139.271 96.43 139.825 96.5933 140.258 96.92C140.698 97.2467 140.988 97.7 141.128 98.28H140.148C140.055 97.9467 139.871 97.6833 139.598 97.49C139.331 97.2967 138.998 97.2 138.598 97.2C138.078 97.2 137.658 97.38 137.338 97.74C137.018 98.0933 136.858 98.5967 136.858 99.25C136.858 99.91 137.018 100.42 137.338 100.78C137.658 101.14 138.078 101.32 138.598 101.32C138.998 101.32 139.331 101.227 139.598 101.04C139.865 100.853 140.048 100.587 140.148 100.24H141.128C140.981 100.8 140.688 101.25 140.248 101.59C139.808 101.923 139.258 102.09 138.598 102.09C138.078 102.09 137.615 101.973 137.208 101.74C136.808 101.507 136.495 101.177 136.268 100.75C136.041 100.323 135.928 99.8233 135.928 99.25Z" fill="white"/>
<path d="M92.075 35.4995V45.2295H90.479V40.9735H85.901V45.2295H84.305V35.4995H85.901V39.6715H90.479V35.4995H92.075ZM95.3481 36.4935C95.0587 36.4935 94.8161 36.3955 94.6201 36.1995C94.4241 36.0035 94.3261 35.7608 94.3261 35.4715C94.3261 35.1822 94.4241 34.9395 94.6201 34.7435C94.8161 34.5475 95.0587 34.4495 95.3481 34.4495C95.6281 34.4495 95.8661 34.5475 96.0621 34.7435C96.2581 34.9395 96.3561 35.1822 96.3561 35.4715C96.3561 35.7608 96.2581 36.0035 96.0621 36.1995C95.8661 36.3955 95.6281 36.4935 95.3481 36.4935ZM96.1321 37.5155V45.2295H94.5361V37.5155H96.1321ZM104.509 39.4895V40.8335H98.7555V39.4895H104.509ZM113.423 35.4995V36.8015H110.833V45.2295H109.237V36.8015H106.633V35.4995H113.423ZM122.469 41.1835C122.469 41.4728 122.451 41.7342 122.413 41.9675H116.519C116.566 42.5835 116.795 43.0782 117.205 43.4515C117.616 43.8248 118.12 44.0115 118.717 44.0115C119.576 44.0115 120.183 43.6522 120.537 42.9335H122.259C122.026 43.6428 121.601 44.2262 120.985 44.6835C120.379 45.1315 119.623 45.3555 118.717 45.3555C117.98 45.3555 117.317 45.1922 116.729 44.8655C116.151 44.5295 115.693 44.0628 115.357 43.4655C115.031 42.8588 114.867 42.1588 114.867 41.3655C114.867 40.5722 115.026 39.8768 115.343 39.2795C115.67 38.6728 116.123 38.2062 116.701 37.8795C117.289 37.5528 117.961 37.3895 118.717 37.3895C119.445 37.3895 120.094 37.5482 120.663 37.8655C121.233 38.1828 121.676 38.6308 121.993 39.2095C122.311 39.7788 122.469 40.4368 122.469 41.1835ZM120.803 40.6795C120.794 40.0915 120.584 39.6202 120.173 39.2655C119.763 38.9108 119.254 38.7335 118.647 38.7335C118.097 38.7335 117.625 38.9108 117.233 39.2655C116.841 39.6108 116.608 40.0822 116.533 40.6795H120.803ZM133.738 37.3895C134.345 37.3895 134.886 37.5155 135.362 37.7675C135.847 38.0195 136.225 38.3928 136.496 38.8875C136.776 39.3822 136.916 39.9795 136.916 40.6795V45.2295H135.334V40.9175C135.334 40.2268 135.161 39.6995 134.816 39.3355C134.471 38.9622 133.999 38.7755 133.402 38.7755C132.805 38.7755 132.329 38.9622 131.974 39.3355C131.629 39.6995 131.456 40.2268 131.456 40.9175V45.2295H129.874V40.9175C129.874 40.2268 129.701 39.6995 129.356 39.3355C129.011 38.9622 128.539 38.7755 127.942 38.7755C127.345 38.7755 126.869 38.9622 126.514 39.3355C126.169 39.6995 125.996 40.2268 125.996 40.9175V45.2295H124.4V37.5155H125.996V38.3975C126.257 38.0802 126.589 37.8328 126.99 37.6555C127.391 37.4782 127.821 37.3895 128.278 37.3895C128.894 37.3895 129.445 37.5202 129.93 37.7815C130.415 38.0428 130.789 38.4208 131.05 38.9155C131.283 38.4488 131.647 38.0802 132.142 37.8095C132.637 37.5295 133.169 37.3895 133.738 37.3895ZM140.903 38.6495C141.173 38.2948 141.542 37.9962 142.009 37.7535C142.475 37.5108 143.003 37.3895 143.591 37.3895C144.263 37.3895 144.874 37.5575 145.425 37.8935C145.985 38.2202 146.423 38.6822 146.741 39.2795C147.058 39.8768 147.217 40.5628 147.217 41.3375C147.217 42.1122 147.058 42.8075 146.741 43.4235C146.423 44.0302 145.985 44.5062 145.425 44.8515C144.874 45.1875 144.263 45.3555 143.591 45.3555C143.003 45.3555 142.48 45.2388 142.023 45.0055C141.565 44.7628 141.192 44.4642 140.903 44.1095V48.8975H139.307V37.5155H140.903V38.6495ZM145.593 41.3375C145.593 40.8055 145.481 40.3482 145.257 39.9655C145.042 39.5735 144.753 39.2795 144.389 39.0835C144.034 38.8782 143.651 38.7755 143.241 38.7755C142.839 38.7755 142.457 38.8782 142.093 39.0835C141.738 39.2888 141.449 39.5875 141.225 39.9795C141.01 40.3715 140.903 40.8335 140.903 41.3655C140.903 41.8975 141.01 42.3642 141.225 42.7655C141.449 43.1575 141.738 43.4562 142.093 43.6615C142.457 43.8668 142.839 43.9695 143.241 43.9695C143.651 43.9695 144.034 43.8668 144.389 43.6615C144.753 43.4468 145.042 43.1388 145.257 42.7375C145.481 42.3362 145.593 41.8695 145.593 41.3375ZM108.658 50.4995L105.774 60.2295H103.968L101.924 52.8655L99.7535 60.2295L97.9615 60.2435L95.2035 50.4995H96.8975L98.9135 58.4235L101.098 50.4995H102.89L104.92 58.3815L106.95 50.4995H108.658ZM109.802 56.3375C109.802 55.5628 109.961 54.8768 110.278 54.2795C110.605 53.6822 111.043 53.2202 111.594 52.8935C112.154 52.5575 112.77 52.3895 113.442 52.3895C114.049 52.3895 114.576 52.5108 115.024 52.7535C115.481 52.9868 115.845 53.2808 116.116 53.6355V52.5155H117.726V60.2295H116.116V59.0815C115.845 59.4455 115.477 59.7488 115.01 59.9915C114.543 60.2342 114.011 60.3555 113.414 60.3555C112.751 60.3555 112.145 60.1875 111.594 59.8515C111.043 59.5062 110.605 59.0302 110.278 58.4235C109.961 57.8075 109.802 57.1122 109.802 56.3375ZM116.116 56.3655C116.116 55.8335 116.004 55.3715 115.78 54.9795C115.565 54.5875 115.281 54.2888 114.926 54.0835C114.571 53.8782 114.189 53.7755 113.778 53.7755C113.367 53.7755 112.985 53.8782 112.63 54.0835C112.275 54.2795 111.986 54.5735 111.762 54.9655C111.547 55.3482 111.44 55.8055 111.44 56.3375C111.44 56.8695 111.547 57.3362 111.762 57.7375C111.986 58.1388 112.275 58.4468 112.63 58.6615C112.994 58.8668 113.377 58.9695 113.778 58.9695C114.189 58.9695 114.571 58.8668 114.926 58.6615C115.281 58.4562 115.565 58.1575 115.78 57.7655C116.004 57.3642 116.116 56.8975 116.116 56.3655ZM122.982 60.3555C122.375 60.3555 121.829 60.2482 121.344 60.0335C120.868 59.8095 120.49 59.5108 120.21 59.1375C119.93 58.7548 119.781 58.3302 119.762 57.8635H121.414C121.442 58.1902 121.596 58.4655 121.876 58.6895C122.165 58.9042 122.525 59.0115 122.954 59.0115C123.402 59.0115 123.747 58.9275 123.99 58.7595C124.242 58.5822 124.368 58.3582 124.368 58.0875C124.368 57.7982 124.228 57.5835 123.948 57.4435C123.677 57.3035 123.243 57.1495 122.646 56.9815C122.067 56.8228 121.596 56.6688 121.232 56.5195C120.868 56.3702 120.551 56.1415 120.28 55.8335C120.019 55.5255 119.888 55.1195 119.888 54.6155C119.888 54.2048 120.009 53.8315 120.252 53.4955C120.495 53.1502 120.84 52.8795 121.288 52.6835C121.745 52.4875 122.268 52.3895 122.856 52.3895C123.733 52.3895 124.438 52.6135 124.97 53.0615C125.511 53.5002 125.801 54.1022 125.838 54.8675H124.242C124.214 54.5222 124.074 54.2468 123.822 54.0415C123.57 53.8362 123.229 53.7335 122.8 53.7335C122.38 53.7335 122.058 53.8128 121.834 53.9715C121.61 54.1302 121.498 54.3402 121.498 54.6015C121.498 54.8068 121.573 54.9795 121.722 55.1195C121.871 55.2595 122.053 55.3715 122.268 55.4555C122.483 55.5302 122.8 55.6282 123.22 55.7495C123.78 55.8988 124.237 56.0528 124.592 56.2115C124.956 56.3608 125.269 56.5848 125.53 56.8835C125.791 57.1822 125.927 57.5788 125.936 58.0735C125.936 58.5122 125.815 58.9042 125.572 59.2495C125.329 59.5948 124.984 59.8655 124.536 60.0615C124.097 60.2575 123.579 60.3555 122.982 60.3555ZM132.011 52.3895C132.599 52.3895 133.121 52.5155 133.579 52.7675C134.045 53.0195 134.409 53.3928 134.671 53.8875C134.941 54.3822 135.077 54.9795 135.077 55.6795V60.2295H133.495V55.9175C133.495 55.2268 133.322 54.6995 132.977 54.3355C132.631 53.9622 132.16 53.7755 131.563 53.7755C130.965 53.7755 130.489 53.9622 130.135 54.3355C129.789 54.6995 129.617 55.2268 129.617 55.9175V60.2295H128.021V49.8695H129.617V53.4115C129.887 53.0848 130.228 52.8328 130.639 52.6555C131.059 52.4782 131.516 52.3895 132.011 52.3895Z" fill="white"/>
<line x1="70" y1="72.5" x2="158" y2="72.5" stroke="#B0B0B0"/>
<defs>
<filter id="filter0_d_327_1847" x="119.756" y="163.275" width="24.1187" height="20.7252" filterUnits="userSpaceOnUse" color-interpolation-filters="sRGB">
<feFlood flood-opacity="0" result="BackgroundImageFix"/>
<feColorMatrix in="SourceAlpha" type="matrix" values="0 0 0 0 0 0 0 0 0 0 0 0 0 0 0 0 0 0 127 0" result="hardAlpha"/>
<feOffset dy="4"/>
<feGaussianBlur stdDeviation="2"/>
<feComposite in2="hardAlpha" operator="out"/>
<feColorMatrix type="matrix" values="0 0 0 0 0 0 0 0 0 0 0 0 0 0 0 0 0 0 1 0"/>
<feBlend mode="normal" in2="BackgroundImageFix" result="effect1_dropShadow_327_1847"/>
<feBlend mode="normal" in="SourceGraphic" in2="effect1_dropShadow_327_1847" result="shape"/>
</filter>
<filter id="filter1_f_327_1847" x="113" y="153" width="38.3097" height="34.4549" filterUnits="userSpaceOnUse" color-interpolation-filters="sRGB">
<feFlood flood-opacity="0" result="BackgroundImageFix"/>
<feBlend mode="normal" in="SourceGraphic" in2="BackgroundImageFix" result="shape"/>
<feGaussianBlur stdDeviation="5" result="effect1_foregroundBlur_327_1847"/>
</filter>
<filter id="filter2_f_327_1847" x="113" y="153.229" width="38.3097" height="34.4549" filterUnits="userSpaceOnUse" color-interpolation-filters="sRGB">
<feFlood flood-opacity="0" result="BackgroundImageFix"/>
<feBlend mode="normal" in="SourceGraphic" in2="BackgroundImageFix" result="shape"/>
<feGaussianBlur stdDeviation="5" result="effect1_foregroundBlur_327_1847"/>
</filter>
</defs>
</svg>
