<svg width="278" height="81" viewBox="0 0 278 81" fill="none" xmlns="http://www.w3.org/2000/svg">
<path fill-rule="evenodd" clip-rule="evenodd" d="M28.984 38.0738L22.7852 34.01V31.6572L32.6179 38.5016L22.7852 45.3459V42.9932L28.984 38.9294L29.4115 38.7155L29.1978 38.2877L28.984 38.0738Z" fill="#FFBB00"/>
<path fill-rule="evenodd" clip-rule="evenodd" d="M21.9313 38.0738L15.7324 34.01V31.6572L25.5652 38.5016L15.7324 45.3459V42.9932L21.9313 38.9294L22.1451 38.7155V38.2877L21.9313 38.0738Z" fill="#FFBB00"/>
<path d="M43.251 39.0302H44.5336C44.5336 51.2217 34.7008 61.0605 22.5168 61.0605C10.3327 61.0605 0.5 51.2217 0.5 39.0302C0.5 26.8387 10.3327 17 22.5168 17C34.7008 17 44.5336 26.8387 44.5336 39.0302H41.7548C41.7548 33.6831 39.6172 28.7637 36.1971 25.3415C32.7771 21.9194 27.8607 19.7805 22.5168 19.7805C17.1729 19.7805 12.2565 21.9194 8.83646 25.3415C5.41638 28.7637 3.27881 33.6831 3.27881 39.0302C3.27881 44.3774 5.41638 49.2967 8.83646 52.7189C12.2565 56.1411 17.1729 58.2799 22.5168 58.2799C27.8607 58.2799 32.7771 56.1411 36.1971 52.7189C39.6172 49.2967 41.7548 44.3774 41.7548 39.0302H43.251Z" fill="#FFBB00"/>
<path d="M97.6844 44.6352L97.4707 44.8491H95.7606L95.5469 44.6352V34.3687L95.7606 34.1548H97.4707L97.6844 34.3687" fill="#FFBB00"/>
<path d="M85.5 32.6572V46.3459C87.8513 43.9932 91.4852 41.8543 93.8365 39.5016C91.4852 37.3627 87.6376 35.01 85.5 32.6572Z" fill="#FFBB00"/>
<path d="M101.319 44.6352L101.105 44.8491H99.3954L99.1816 44.6352V34.3687L99.3954 34.1548H101.105L101.319 34.3687" fill="#FFBB00"/>
<path d="M113.851 39.0302H115.133C115.133 51.2217 105.3 61.0605 93.1164 61.0605C80.9324 61.0605 71.0996 51.2217 71.0996 39.0302C71.0996 26.8387 80.9324 17 93.1164 17C105.3 17 115.133 26.8387 115.133 39.0302H112.354C112.354 33.6831 110.217 28.7637 106.797 25.3415C103.377 21.9194 98.4603 19.7805 93.1164 19.7805C87.7725 19.7805 82.8561 21.9194 79.4361 25.3415C76.016 28.7637 73.8784 33.6831 73.8784 39.0302C73.8784 44.3774 76.016 49.2967 79.4361 52.7189C82.8561 56.1411 87.7725 58.2799 93.1164 58.2799C98.4603 58.2799 103.377 56.1411 106.797 52.7189C110.217 49.2967 112.354 44.3774 112.354 39.0302H113.851Z" fill="#FFBB00"/>
<rect x="57.0244" y="33.6663" width="1.7595" height="10.557" fill="#808080"/>
<rect x="63.1816" y="38.0649" width="1.7595" height="10.557" transform="rotate(90 63.1816 38.0649)" fill="#808080"/>
<path d="M134.5 0L134.5 81L135.5 81L135.5 -4.37116e-08L134.5 0Z" fill="#808080"/>
<path d="M242.958 38.397L246.035 36.5417H261.186L264.5 38.397L261.422 40.4584H246.035" fill="white"/>
<path opacity="0.2" d="M244.917 19.6031V36.0773L242.031 38.5H241V15" fill="white"/>
<path opacity="0.2" d="M262.542 19.6031V36.0773L265.428 38.5H266.459V15" fill="white"/>
<path d="M262.542 57.4439V40.898L265.428 38.5H266.459V62" fill="white"/>
<path opacity="0.2" d="M266.458 15L261.895 18.9167H245.563L241 15" fill="white"/>
<path opacity="0.2" d="M241 61.9999L245.563 58.0833H261.895L266.458 61.9999" fill="white"/>
<path d="M244.917 57.4439V40.898L242.031 38.5H241V62" fill="white"/>
<path d="M207.708 38.397L210.785 36.5417H225.936L229.25 38.397L226.172 40.4584H210.785" fill="white"/>
<path opacity="0.2" d="M209.667 19.6031V36.0773L206.781 38.5H205.75V15" fill="white"/>
<path opacity="0.2" d="M227.292 19.6031V36.0773L230.178 38.5H231.209V15" fill="white"/>
<path d="M227.292 57.4439V40.898L230.178 38.5H231.209V62" fill="white"/>
<path opacity="0.2" d="M231.208 15L226.645 18.9167H210.313L205.75 15" fill="white"/>
<path d="M205.75 61.9999L210.313 58.0833H226.645L231.208 61.9999" fill="white"/>
<path d="M209.667 57.4439V40.898L206.781 38.5H205.75V62" fill="white"/>
<path opacity="0.2" d="M172.458 38.397L175.535 36.5417H190.686L194 38.397L190.922 40.4584H175.535" fill="white"/>
<path d="M174.417 19.6031V36.0773L171.531 38.5H170.5V15" fill="white"/>
<path opacity="0.2" d="M192.042 19.6031V36.0773L194.928 38.5H195.959V15" fill="white"/>
<path opacity="0.2" d="M192.042 57.4439V40.898L194.928 38.5H195.959V62" fill="white"/>
<path d="M195.958 15L191.395 18.9167H175.063L170.5 15" fill="white"/>
<path d="M170.5 61.9999L175.063 58.0833H191.395L195.958 61.9999" fill="white"/>
<path d="M174.417 57.4439V40.898L171.531 38.5H170.5V62" fill="white"/>
<rect x="157.75" y="3.25" width="119.921" height="71" rx="1.75" stroke="white" stroke-width="0.5"/>
</svg>
