<svg width="190" height="174" viewBox="0 0 190 174" fill="none" xmlns="http://www.w3.org/2000/svg">
    <path opacity="0.5" d="M30.5507 5.5V2.776H32.0627C33.1307 2.776 33.6107 3.28 33.6107 4.144C33.6107 4.984 33.1307 5.5 32.0627 5.5H30.5507ZM35.0147 4.144C35.0147 2.788 34.0427 1.66 32.0627 1.66H29.1827V10H30.5507V6.616H32.0627C34.2347 6.616 35.0147 5.332 35.0147 4.144ZM38.0474 6.52C38.0474 5.116 38.6714 4.696 39.6794 4.696H40.0274V3.28C39.0914 3.28 38.4314 3.688 38.0474 4.348V3.388H36.6794V10H38.0474V6.52ZM44.4288 4.432C45.4488 4.432 46.2528 5.08 46.2768 6.1H42.6168C42.7608 5.056 43.5048 4.432 44.4288 4.432ZM47.5248 8.032H46.0488C45.7968 8.548 45.3288 8.956 44.4888 8.956C43.4808 8.956 42.7008 8.296 42.6048 7.204H47.6568C47.6928 6.976 47.7048 6.76 47.7048 6.532C47.7048 4.588 46.3728 3.28 44.4888 3.28C42.5328 3.28 41.1888 4.612 41.1888 6.688C41.1888 8.764 42.5928 10.108 44.4888 10.108C46.1088 10.108 47.1528 9.184 47.5248 8.032ZM54.3431 8.152C54.2711 5.764 50.5391 6.508 50.5391 5.176C50.5391 4.732 50.9231 4.432 51.6551 4.432C52.3991 4.432 52.8431 4.828 52.8911 5.404H54.2591C54.1871 4.084 53.2031 3.28 51.7031 3.28C50.1431 3.28 49.1591 4.132 49.1591 5.188C49.1591 7.612 52.9991 6.868 52.9991 8.164C52.9991 8.62 52.5791 8.956 51.7871 8.956C51.0311 8.956 50.5151 8.512 50.4671 7.972H49.0511C49.1111 9.172 50.2271 10.108 51.8111 10.108C53.3711 10.108 54.3431 9.268 54.3431 8.152ZM61.1133 8.152C61.0413 5.764 57.3093 6.508 57.3093 5.176C57.3093 4.732 57.6933 4.432 58.4253 4.432C59.1693 4.432 59.6133 4.828 59.6613 5.404H61.0293C60.9573 4.084 59.9733 3.28 58.4733 3.28C56.9133 3.28 55.9293 4.132 55.9293 5.188C55.9293 7.612 59.7693 6.868 59.7693 8.164C59.7693 8.62 59.3493 8.956 58.5573 8.956C57.8013 8.956 57.2853 8.512 57.2373 7.972H55.8213C55.8813 9.172 56.9973 10.108 58.5813 10.108C60.1413 10.108 61.1133 9.268 61.1133 8.152ZM65.9726 6.664C65.9726 8.704 67.3526 10.108 69.0686 10.108C70.1726 10.108 70.9646 9.58 71.3846 9.016V10H72.7646V3.388H71.3846V4.348C70.9766 3.808 70.2086 3.28 69.0926 3.28C67.3526 3.28 65.9726 4.624 65.9726 6.664ZM71.3846 6.688C71.3846 8.116 70.4126 8.92 69.3806 8.92C68.3606 8.92 67.3766 8.092 67.3766 6.664C67.3766 5.236 68.3606 4.468 69.3806 4.468C70.4126 4.468 71.3846 5.272 71.3846 6.688ZM79.6134 10H80.9694V6.1C80.9694 4.252 79.8054 3.28 78.2574 3.28C77.4654 3.28 76.7334 3.604 76.2894 4.144V3.388H74.9214V10H76.2894V6.304C76.2894 5.092 76.9494 4.468 77.9574 4.468C78.9534 4.468 79.6134 5.092 79.6134 6.304V10ZM82.6184 6.664C82.6184 8.704 83.9984 10.108 85.7384 10.108C86.8184 10.108 87.6104 9.604 88.0304 9.004V10H89.4104V1.12H88.0304V4.312C87.5264 3.688 86.6144 3.28 85.7504 3.28C83.9984 3.28 82.6184 4.624 82.6184 6.664ZM88.0304 6.688C88.0304 8.116 87.0584 8.92 86.0264 8.92C85.0064 8.92 84.0224 8.092 84.0224 6.664C84.0224 5.236 85.0064 4.468 86.0264 4.468C87.0584 4.468 88.0304 5.272 88.0304 6.688ZM95.0444 10H96.4124V6.304C96.4124 5.092 97.0724 4.468 98.0804 4.468C99.0764 4.468 99.7364 5.092 99.7364 6.304V10H101.092V6.1C101.092 4.252 99.9404 3.28 98.4644 3.28C97.6124 3.28 96.8684 3.604 96.4124 4.156V1.12H95.0444V10ZM109.497 6.688C109.497 4.612 108.009 3.28 106.125 3.28C104.241 3.28 102.753 4.612 102.753 6.688C102.753 8.764 104.181 10.108 106.065 10.108C107.961 10.108 109.497 8.764 109.497 6.688ZM104.145 6.688C104.145 5.188 105.069 4.468 106.101 4.468C107.121 4.468 108.093 5.188 108.093 6.688C108.093 8.188 107.085 8.92 106.065 8.92C105.033 8.92 104.145 8.188 104.145 6.688ZM111.21 10H112.578V1.12H111.21V10ZM114.278 6.664C114.278 8.704 115.658 10.108 117.398 10.108C118.478 10.108 119.27 9.604 119.69 9.004V10H121.07V1.12H119.69V4.312C119.186 3.688 118.274 3.28 117.41 3.28C115.658 3.28 114.278 4.624 114.278 6.664ZM119.69 6.688C119.69 8.116 118.718 8.92 117.686 8.92C116.666 8.92 115.682 8.092 115.682 6.664C115.682 5.236 116.666 4.468 117.686 4.468C118.718 4.468 119.69 5.272 119.69 6.688ZM126.872 10H128.252V4.504H129.476V3.388H128.252V2.92C128.252 2.164 128.54 1.876 129.38 1.876V0.736C127.652 0.736 126.872 1.396 126.872 2.92V3.388H126.092V4.504H126.872V10ZM137.348 6.688C137.348 4.612 135.86 3.28 133.976 3.28C132.092 3.28 130.604 4.612 130.604 6.688C130.604 8.764 132.032 10.108 133.916 10.108C135.812 10.108 137.348 8.764 137.348 6.688ZM131.996 6.688C131.996 5.188 132.92 4.468 133.952 4.468C134.972 4.468 135.944 5.188 135.944 6.688C135.944 8.188 134.936 8.92 133.916 8.92C132.884 8.92 131.996 8.188 131.996 6.688ZM140.428 6.52C140.428 5.116 141.052 4.696 142.06 4.696H142.408V3.28C141.472 3.28 140.812 3.688 140.428 4.348V3.388H139.06V10H140.428V6.52ZM147.683 1.228V6.28H148.979C149.207 5.632 149.747 5.188 150.551 5.188C151.691 5.188 152.255 5.836 152.255 6.976C152.255 8.056 151.727 8.86 150.551 8.86C149.627 8.86 149.003 8.38 148.823 7.636H147.491C147.695 9.004 148.739 10 150.539 10C152.567 10 153.563 8.68 153.563 6.94C153.563 5.62 152.903 4.024 150.755 4.024C149.975 4.024 149.267 4.384 148.943 4.816V2.428H152.963V1.228H147.683ZM160.459 8.152C160.387 5.764 156.655 6.508 156.655 5.176C156.655 4.732 157.039 4.432 157.771 4.432C158.515 4.432 158.959 4.828 159.007 5.404H160.375C160.303 4.084 159.319 3.28 157.819 3.28C156.259 3.28 155.275 4.132 155.275 5.188C155.275 7.612 159.115 6.868 159.115 8.164C159.115 8.62 158.695 8.956 157.903 8.956C157.147 8.956 156.631 8.512 156.583 7.972H155.167C155.227 9.172 156.343 10.108 157.927 10.108C159.487 10.108 160.459 9.268 160.459 8.152Z" fill="white"/>
    <path opacity="0.5" d="M6.99339 107.429H5.62539V111.113C5.62539 112.325 4.96539 112.949 3.95739 112.949C2.96139 112.949 2.30139 112.325 2.30139 111.113V107.429H0.945392V111.317C0.945392 113.165 2.12139 114.137 3.66939 114.137C4.44939 114.137 5.19339 113.813 5.62539 113.249V114.041H6.99339V107.429ZM13.8504 114.041H15.2064V110.141C15.2064 108.293 14.0424 107.321 12.4944 107.321C11.7024 107.321 10.9704 107.645 10.5264 108.185V107.429H9.15836V114.041H10.5264V110.345C10.5264 109.133 11.1864 108.509 12.1944 108.509C13.1904 108.509 13.8504 109.133 13.8504 110.345V114.041ZM17.5273 112.205C17.5273 113.549 18.2593 114.041 19.4353 114.041H20.5153V112.901H19.6753C19.0993 112.901 18.9073 112.697 18.9073 112.205V108.545H20.5153V107.429H18.9073V105.785H17.5273V107.429H16.7473V108.545H17.5273V112.205ZM22.1362 114.041H23.5042V107.429H22.1362V114.041ZM22.8322 106.553C23.3122 106.553 23.6962 106.169 23.6962 105.677C23.6962 105.185 23.3122 104.801 22.8322 104.801C22.3402 104.801 21.9562 105.185 21.9562 105.677C21.9562 106.169 22.3402 106.553 22.8322 106.553ZM25.6602 114.041H27.0282V105.161H25.6602V114.041ZM32.8775 112.205C32.8775 113.549 33.6095 114.041 34.7855 114.041H35.8655V112.901H35.0255C34.4495 112.901 34.2575 112.697 34.2575 112.205V108.545H35.8655V107.429H34.2575V105.785H32.8775V107.429H32.0975V108.545H32.8775V112.205ZM37.4863 114.041H38.8543V110.345C38.8543 109.133 39.5143 108.509 40.5223 108.509C41.5183 108.509 42.1783 109.133 42.1783 110.345V114.041H43.5343V110.141C43.5343 108.293 42.3823 107.321 40.9063 107.321C40.0543 107.321 39.3103 107.645 38.8543 108.197V105.161H37.4863V114.041ZM48.4233 108.473C49.4433 108.473 50.2473 109.121 50.2713 110.141H46.6113C46.7553 109.097 47.4993 108.473 48.4233 108.473ZM51.5193 112.073H50.0433C49.7913 112.589 49.3233 112.997 48.4833 112.997C47.4753 112.997 46.6953 112.337 46.5993 111.245H51.6513C51.6873 111.017 51.6993 110.801 51.6993 110.573C51.6993 108.629 50.3673 107.321 48.4833 107.321C46.5273 107.321 45.1833 108.653 45.1833 110.729C45.1833 112.805 46.5873 114.149 48.4833 114.149C50.1033 114.149 51.1473 113.225 51.5193 112.073ZM61.8147 112.193C61.7427 109.805 58.0107 110.549 58.0107 109.217C58.0107 108.773 58.3947 108.473 59.1267 108.473C59.8707 108.473 60.3147 108.869 60.3627 109.445H61.7307C61.6587 108.125 60.6747 107.321 59.1747 107.321C57.6147 107.321 56.6307 108.173 56.6307 109.229C56.6307 111.653 60.4707 110.909 60.4707 112.205C60.4707 112.661 60.0507 112.997 59.2587 112.997C58.5027 112.997 57.9867 112.553 57.9387 112.013H56.5227C56.5827 113.213 57.6987 114.149 59.2827 114.149C60.8427 114.149 61.8147 113.309 61.8147 112.193ZM63.1969 110.729C63.1969 112.805 64.5409 114.149 66.4369 114.149C68.0569 114.149 69.1129 113.249 69.4849 111.953H68.0089C67.7569 112.637 67.2529 112.997 66.4369 112.997C65.3329 112.997 64.6009 112.181 64.6009 110.729C64.6009 109.289 65.3329 108.473 66.4369 108.473C67.2529 108.473 67.7809 108.881 68.0089 109.517H69.4849C69.1129 108.125 68.0569 107.321 66.4369 107.321C64.5409 107.321 63.1969 108.665 63.1969 110.729ZM72.5762 110.561C72.5762 109.157 73.2002 108.737 74.2082 108.737H74.5562V107.321C73.6202 107.321 72.9602 107.729 72.5762 108.389V107.429H71.2082V114.041H72.5762V110.561ZM78.9577 108.473C79.9777 108.473 80.7817 109.121 80.8057 110.141H77.1457C77.2897 109.097 78.0337 108.473 78.9577 108.473ZM82.0537 112.073H80.5777C80.3257 112.589 79.8577 112.997 79.0177 112.997C78.0097 112.997 77.2297 112.337 77.1337 111.245H82.1857C82.2217 111.017 82.2337 110.801 82.2337 110.573C82.2337 108.629 80.9017 107.321 79.0177 107.321C77.0617 107.321 75.7177 108.653 75.7177 110.729C75.7177 112.805 77.1217 114.149 79.0177 114.149C80.6377 114.149 81.6817 113.225 82.0537 112.073ZM86.7239 108.473C87.7439 108.473 88.5479 109.121 88.5719 110.141H84.9119C85.0559 109.097 85.7999 108.473 86.7239 108.473ZM89.8199 112.073H88.3439C88.0919 112.589 87.6239 112.997 86.7839 112.997C85.7759 112.997 84.9959 112.337 84.8999 111.245H89.9519C89.9879 111.017 89.9999 110.801 89.9999 110.573C89.9999 108.629 88.6679 107.321 86.7839 107.321C84.8279 107.321 83.4839 108.653 83.4839 110.729C83.4839 112.805 84.8879 114.149 86.7839 114.149C88.4039 114.149 89.4479 113.225 89.8199 112.073ZM96.3982 114.041H97.7542V110.141C97.7542 108.293 96.5902 107.321 95.0422 107.321C94.2502 107.321 93.5182 107.645 93.0742 108.185V107.429H91.7062V114.041H93.0742V110.345C93.0742 109.133 93.7342 108.509 94.7422 108.509C95.7382 108.509 96.3982 109.133 96.3982 110.345V114.041ZM108.268 112.193C108.196 109.805 104.464 110.549 104.464 109.217C104.464 108.773 104.848 108.473 105.58 108.473C106.324 108.473 106.768 108.869 106.816 109.445H108.184C108.112 108.125 107.128 107.321 105.628 107.321C104.068 107.321 103.084 108.173 103.084 109.229C103.084 111.653 106.924 110.909 106.924 112.205C106.924 112.661 106.504 112.997 105.712 112.997C104.956 112.997 104.44 112.553 104.392 112.013H102.976C103.036 113.213 104.152 114.149 105.736 114.149C107.296 114.149 108.268 113.309 108.268 112.193ZM110.322 112.205C110.322 113.549 111.054 114.041 112.23 114.041H113.31V112.901H112.47C111.894 112.901 111.702 112.697 111.702 112.205V108.545H113.31V107.429H111.702V105.785H110.322V107.429H109.542V108.545H110.322V112.205ZM114.475 110.705C114.475 112.745 115.855 114.149 117.571 114.149C118.675 114.149 119.467 113.621 119.887 113.057V114.041H121.267V107.429H119.887V108.389C119.479 107.849 118.711 107.321 117.595 107.321C115.855 107.321 114.475 108.665 114.475 110.705ZM119.887 110.729C119.887 112.157 118.915 112.961 117.883 112.961C116.863 112.961 115.879 112.133 115.879 110.705C115.879 109.277 116.863 108.509 117.883 108.509C118.915 108.509 119.887 109.313 119.887 110.729ZM124.792 110.561C124.792 109.157 125.416 108.737 126.424 108.737H126.772V107.321C125.836 107.321 125.176 107.729 124.792 108.389V107.429H123.424V114.041H124.792V110.561ZM128.606 112.205C128.606 113.549 129.338 114.041 130.514 114.041H131.594V112.901H130.754C130.178 112.901 129.986 112.697 129.986 112.205V108.545H131.594V107.429H129.986V105.785H128.606V107.429H127.826V108.545H128.606V112.205ZM138.146 112.193C138.074 109.805 134.342 110.549 134.342 109.217C134.342 108.773 134.726 108.473 135.458 108.473C136.202 108.473 136.646 108.869 136.694 109.445H138.062C137.99 108.125 137.006 107.321 135.506 107.321C133.946 107.321 132.962 108.173 132.962 109.229C132.962 111.653 136.802 110.909 136.802 112.205C136.802 112.661 136.382 112.997 135.59 112.997C134.834 112.997 134.318 112.553 134.27 112.013H132.854C132.914 113.213 134.03 114.149 135.614 114.149C137.174 114.149 138.146 113.309 138.146 112.193ZM143.678 112.205C143.678 113.549 144.41 114.041 145.586 114.041H146.666V112.901H145.826C145.25 112.901 145.058 112.697 145.058 112.205V108.545H146.666V107.429H145.058V105.785H143.678V107.429H142.898V108.545H143.678V112.205ZM154.587 110.729C154.587 108.653 153.099 107.321 151.215 107.321C149.331 107.321 147.843 108.653 147.843 110.729C147.843 112.805 149.271 114.149 151.155 114.149C153.051 114.149 154.587 112.805 154.587 110.729ZM149.235 110.729C149.235 109.229 150.159 108.509 151.191 108.509C152.211 108.509 153.183 109.229 153.183 110.729C153.183 112.229 152.175 112.961 151.155 112.961C150.123 112.961 149.235 112.229 149.235 110.729ZM161.144 108.413V105.161H159.776V114.041H161.144V113.081C161.576 113.657 162.356 114.149 163.448 114.149C165.188 114.149 166.556 112.745 166.556 110.705C166.556 108.665 165.2 107.321 163.448 107.321C162.404 107.321 161.576 107.813 161.144 108.413ZM165.164 110.705C165.164 112.133 164.18 112.961 163.148 112.961C162.128 112.961 161.144 112.157 161.144 110.729C161.144 109.313 162.128 108.509 163.148 108.509C164.18 108.509 165.164 109.277 165.164 110.705ZM168.269 114.041H169.637V105.161H168.269V114.041ZM171.793 114.041H173.161V107.429H171.793V114.041ZM172.489 106.553C172.969 106.553 173.353 106.169 173.353 105.677C173.353 105.185 172.969 104.801 172.489 104.801C171.997 104.801 171.613 105.185 171.613 105.677C171.613 106.169 171.997 106.553 172.489 106.553ZM180.009 114.041H181.365V110.141C181.365 108.293 180.201 107.321 178.653 107.321C177.861 107.321 177.129 107.645 176.685 108.185V107.429H175.317V114.041H176.685V110.345C176.685 109.133 177.345 108.509 178.353 108.509C179.349 108.509 180.009 109.133 180.009 110.345V114.041ZM183.47 114.041H184.838V111.197L187.286 114.041H189.134L186.086 110.741L189.134 107.429H187.238L184.838 110.321V105.161H183.47V114.041Z" fill="white"/>
    <path d="M93.965 45.5156V48.4136H91.137V49.7576H93.965V52.6556H95.449V49.7576H98.277V48.4136H95.449V45.5156H93.965Z" fill="white"/>
    <path d="M26.8693 44.6068L29.1653 44.5928L31.0833 37.6348L32.9173 44.5928H35.2273L37.9573 34.8208H35.8433L34.1073 42.3668L32.2313 34.8208H30.0473L28.0593 42.4088L26.3373 34.8208H24.2373L26.8693 44.6068ZM39.0931 40.6868C39.0931 43.1088 40.6611 44.7188 42.6211 44.7188C43.8531 44.7188 44.7351 44.1308 45.1971 43.4588V44.5928H47.1711V36.8368H45.1971V37.9428C44.7351 37.2988 43.8811 36.7108 42.6351 36.7108C40.6611 36.7108 39.0931 38.2648 39.0931 40.6868ZM45.1971 40.7148C45.1971 42.1848 44.2171 42.9968 43.1391 42.9968C42.0891 42.9968 41.0951 42.1568 41.0951 40.6868C41.0951 39.2168 42.0891 38.4328 43.1391 38.4328C44.2171 38.4328 45.1971 39.2448 45.1971 40.7148ZM55.4653 42.3808C55.4093 39.5388 51.1113 40.4208 51.1113 39.0068C51.1113 38.5588 51.4893 38.2648 52.2173 38.2648C52.9873 38.2648 53.4633 38.6708 53.5193 39.2728H55.3953C55.2833 37.7328 54.1493 36.7108 52.2733 36.7108C50.3553 36.7108 49.2073 37.7468 49.2073 39.0348C49.2073 41.8768 53.5893 40.9948 53.5893 42.3808C53.5893 42.8288 53.1693 43.1788 52.3993 43.1788C51.6153 43.1788 51.0693 42.7308 50.9993 42.1428H49.0253C49.1093 43.5848 50.4673 44.7188 52.4133 44.7188C54.3033 44.7188 55.4653 43.7108 55.4653 42.3808ZM57.4343 44.5928H59.3943V40.3088C59.3943 39.0628 60.0803 38.3908 61.1443 38.3908C62.1803 38.3908 62.8663 39.0628 62.8663 40.3088V44.5928H64.8263V40.0428C64.8263 37.9008 63.5523 36.7248 61.8023 36.7248C60.7663 36.7248 59.8983 37.1448 59.3943 37.8028V34.2328H57.4343V44.5928ZM24.2952 51.4028H26.8992V59.5928H28.8592V51.4028H31.4632V49.8208H24.2952V51.4028ZM36.5853 53.3208C37.5933 53.3208 38.4053 53.9648 38.4333 54.9868H34.7513C34.9053 53.9228 35.6473 53.3208 36.5853 53.3208ZM40.2673 57.1568H38.1533C37.9013 57.6748 37.4393 58.0948 36.5993 58.0948C35.6193 58.0948 34.8353 57.4508 34.7373 56.3028H40.4073C40.4493 56.0508 40.4633 55.7988 40.4633 55.5468C40.4633 53.2368 38.8813 51.7108 36.6413 51.7108C34.3453 51.7108 32.7493 53.2648 32.7493 55.7148C32.7493 58.1508 34.3873 59.7188 36.6413 59.7188C38.5593 59.7188 39.8473 58.5848 40.2673 57.1568ZM53.1039 59.5928H55.0639V55.0428C55.0639 52.9008 53.7479 51.7248 51.8859 51.7248C50.7519 51.7248 49.7299 52.3268 49.2259 53.2088C48.6939 52.2428 47.6999 51.7248 46.4959 51.7248C45.5299 51.7248 44.7039 52.1308 44.2139 52.7748V51.8368H42.2539V59.5928H44.2139V55.3088C44.2139 54.0768 44.8999 53.4328 45.9639 53.4328C46.9999 53.4328 47.6859 54.0768 47.6859 55.3088V59.5928H49.6459V55.3088C49.6459 54.0768 50.3319 53.4328 51.3819 53.4328C52.4179 53.4328 53.1039 54.0768 53.1039 55.3088V59.5928ZM59.2439 52.9568V51.8368H57.2839V63.2888H59.2439V58.4868C59.7199 59.1168 60.5879 59.7188 61.8059 59.7188C63.7939 59.7188 65.3479 58.1088 65.3479 55.6868C65.3479 53.2648 63.7939 51.7108 61.8059 51.7108C60.6019 51.7108 59.7059 52.2988 59.2439 52.9568ZM63.3459 55.6868C63.3459 57.1568 62.3519 57.9968 61.2879 57.9968C60.2379 57.9968 59.2439 57.1848 59.2439 55.7148C59.2439 54.2448 60.2379 53.4328 61.2879 53.4328C62.3519 53.4328 63.3459 54.2168 63.3459 55.6868Z" fill="white"/>
    <rect x="11.5717" y="25.4349" width="66.5099" height="46.4094" rx="2.5" stroke="#B0B0B0"/>
    <path d="M122.66 44.5928H124.62V34.8208H122.66V38.8388H118.474V34.8208H116.514V44.5928H118.474V40.4348H122.66V44.5928ZM130.241 38.3208C131.249 38.3208 132.061 38.9648 132.089 39.9868H128.407C128.561 38.9228 129.303 38.3208 130.241 38.3208ZM133.923 42.1568H131.809C131.557 42.6748 131.095 43.0948 130.255 43.0948C129.275 43.0948 128.491 42.4508 128.393 41.3028H134.063C134.105 41.0508 134.119 40.7988 134.119 40.5468C134.119 38.2368 132.537 36.7108 130.297 36.7108C128.001 36.7108 126.405 38.2648 126.405 40.7148C126.405 43.1508 128.043 44.7188 130.297 44.7188C132.215 44.7188 133.503 43.5848 133.923 42.1568ZM135.405 40.6868C135.405 43.1088 136.973 44.7188 138.933 44.7188C140.165 44.7188 141.047 44.1308 141.509 43.4588V44.5928H143.483V36.8368H141.509V37.9428C141.047 37.2988 140.193 36.7108 138.947 36.7108C136.973 36.7108 135.405 38.2648 135.405 40.6868ZM141.509 40.7148C141.509 42.1848 140.529 42.9968 139.451 42.9968C138.401 42.9968 137.407 42.1568 137.407 40.6868C137.407 39.2168 138.401 38.4328 139.451 38.4328C140.529 38.4328 141.509 39.2448 141.509 40.7148ZM146.066 42.1848C146.066 43.9628 147.06 44.5928 148.544 44.5928H149.776V42.9408H148.866C148.25 42.9408 148.04 42.7168 148.04 42.1988V38.4468H149.776V36.8368H148.04V34.9188H146.066V36.8368H145.142V38.4468H146.066V42.1848ZM154.877 38.3208C155.885 38.3208 156.697 38.9648 156.725 39.9868H153.043C153.197 38.9228 153.939 38.3208 154.877 38.3208ZM158.559 42.1568H156.445C156.193 42.6748 155.731 43.0948 154.891 43.0948C153.911 43.0948 153.127 42.4508 153.029 41.3028H158.699C158.741 41.0508 158.755 40.7988 158.755 40.5468C158.755 38.2368 157.173 36.7108 154.933 36.7108C152.637 36.7108 151.041 38.2648 151.041 40.7148C151.041 43.1508 152.679 44.7188 154.933 44.7188C156.851 44.7188 158.139 43.5848 158.559 42.1568ZM160.042 40.6868C160.042 43.1088 161.61 44.7188 163.584 44.7188C164.802 44.7188 165.67 44.1588 166.132 43.4448V44.5928H168.12V34.2328H166.132V37.9148C165.6 37.1868 164.62 36.7108 163.598 36.7108C161.61 36.7108 160.042 38.2648 160.042 40.6868ZM166.146 40.7148C166.146 42.1848 165.166 42.9968 164.088 42.9968C163.038 42.9968 162.044 42.1568 162.044 40.6868C162.044 39.2168 163.038 38.4328 164.088 38.4328C165.166 38.4328 166.146 39.2448 166.146 40.7148ZM134.244 49.8208H130.828V59.5928H134.244C137.366 59.5928 139.396 57.6748 139.396 54.7208C139.396 51.7528 137.366 49.8208 134.244 49.8208ZM132.788 57.9268V51.4728H134.174C136.232 51.4728 137.394 52.6908 137.394 54.7208C137.394 56.7508 136.232 57.9268 134.174 57.9268H132.788ZM143.183 55.7288C143.183 54.2308 143.883 53.7828 145.045 53.7828H145.563V51.7248C144.485 51.7248 143.673 52.2428 143.183 53.0408V51.8368H141.223V59.5928H143.183V55.7288ZM150.547 57.2548L148.545 51.8368H146.347L149.455 59.3968L147.775 63.2608H149.861L154.663 51.8368H152.577L150.547 57.2548Z" fill="white"/>
    <rect x="109.238" y="25.4349" width="66.5099" height="46.4094" rx="2.5" stroke="#B0B0B0"/>
    <rect x="45.192" y="129.805" width="97.616" height="43.0242" stroke="#B0B0B0"/>
    <path d="M60.251 163.515L57.8872 165.795L59.4068 166.386H75.2777L77.0506 165.795L74.7712 163.515H60.251Z" fill="white"/>
    <path d="M77.3883 139.118L79.752 136.839L78.2325 136.248L62.3615 136.248L60.5887 136.839L62.868 139.118L77.3883 139.118Z" fill="#181818"/>
    <path d="M75.6808 152.742L77.2708 151.24L75.8893 149.871L61.6767 149.871L60.0369 151.308L60.9458 152.64L75.6808 152.742Z" fill="#181818"/>
    <path d="M59.4123 138.901L60.4082 137.357L62.3223 139.409L61.4041 149.457L59.4123 151.001L58.4662 149.457L59.4123 138.901Z" fill="#181818"/>
    <path d="M59.8552 163.055L57.4563 165.328L56.789 164.233L57.4563 152.85L59.4046 151.392L60.5222 153.125L59.8552 163.055Z" fill="#181818"/>
    <path d="M75.0007 162.978L77.1835 165.259L77.968 163.427L79.2343 153.387L77.81 151.48L76.1699 153.094L75.0007 162.978Z" fill="#181818"/>
    <path d="M76.4459 149.515L77.86 151.047L79.4133 149.314L80.6795 138.486L79.9765 137.317L77.6152 139.767L76.4459 149.515Z" fill="#181818"/>
    <path d="M85.2168 163.515L82.853 165.795L84.3726 166.386H100.244L102.016 165.795L99.737 163.515H85.2168Z" fill="white"/>
    <path d="M102.354 139.118L104.718 136.839L103.198 136.248L87.3273 136.248L85.5545 136.839L87.8338 139.118L102.354 139.118Z" fill="#181818"/>
    <path d="M100.647 152.742L102.237 151.24L100.855 149.871L86.6425 149.871L85.0027 151.308L85.9117 152.64L100.647 152.742Z" fill="white"/>
    <path d="M84.378 138.901L85.374 137.357L87.2881 139.409L86.3699 149.457L84.378 151.001L83.4319 149.457L84.378 138.901Z" fill="#181818"/>
    <path d="M84.8211 163.055L82.4221 165.328L81.7549 164.233L82.4221 152.85L84.3705 151.392L85.4881 153.125L84.8211 163.055Z" fill="#181818"/>
    <path d="M99.9665 162.978L102.149 165.259L102.934 163.427L104.2 153.387L102.776 151.48L101.136 153.094L99.9665 162.978Z" fill="#181818"/>
    <path d="M101.412 149.515L102.826 151.047L104.379 149.314L105.645 138.486L104.942 137.317L102.581 139.767L101.412 149.515Z" fill="#181818"/>
    <path d="M110.183 163.515L107.819 165.795L109.338 166.386H125.209L126.982 165.795L124.703 163.515H110.183Z" fill="white"/>
    <path d="M127.32 139.118L129.684 136.839L128.164 136.248L112.293 136.248L110.52 136.839L112.8 139.118L127.32 139.118Z" fill="white"/>
    <path d="M125.612 152.742L127.202 151.24L125.821 149.871L111.608 149.871L109.968 151.308L110.877 152.64L125.612 152.742Z" fill="white"/>
    <path d="M109.344 138.901L110.34 137.357L112.254 139.409L111.336 149.457L109.344 151.001L108.398 149.457L109.344 138.901Z" fill="#181818"/>
    <path d="M109.787 163.055L107.388 165.328L106.721 164.233L107.388 152.85L109.336 151.392L110.454 153.125L109.787 163.055Z" fill="#181818"/>
    <path d="M124.932 162.978L127.115 165.259L127.9 163.427L129.166 153.387L127.742 151.48L126.102 153.094L124.932 162.978Z" fill="#181818"/>
    <path d="M126.378 149.515L127.792 151.047L129.345 149.314L130.611 138.486L129.908 137.317L127.547 139.767L126.378 149.515Z" fill="#181818"/>
</svg>
