<svg width="203" height="172" viewBox="0 0 203 172" fill="none" xmlns="http://www.w3.org/2000/svg">
    <line x1="118.153" y1="78.2303" x2="170.091" y2="78.2303" stroke="#B0B0B0"/>
    <path d="M137.817 49.1733H134.639V58.9033H137.817C140.939 58.9033 142.983 57.0693 142.983 54.0733C142.983 51.0633 140.939 49.1733 137.817 49.1733ZM136.235 57.6013V50.4753H137.817C140.113 50.4753 141.345 51.8473 141.345 54.0733C141.345 56.2853 140.113 57.6013 137.817 57.6013H136.235ZM146.52 54.8433C146.52 53.2053 147.248 52.7153 148.424 52.7153H148.83V51.0633C147.738 51.0633 146.968 51.5393 146.52 52.3093V51.1893H144.924V58.9033H146.52V54.8433ZM153.695 57.0693L151.525 51.1893H149.747L152.785 58.7773L151.217 62.5293H152.869L157.601 51.1893H155.949L153.695 57.0693Z" fill="white"/>
    <line x1="32.4318" y1="78.2305" x2="91.814" y2="78.2305" stroke="#B0B0B0"/>
    <path d="M37.3879 47.4423H38.9839V37.7123H37.3879V41.8843H32.8099V37.7123H31.2139V47.4423H32.8099V43.1863H37.3879V47.4423ZM41.445 47.4423H43.041V39.7283H41.445V47.4423ZM42.257 38.7063C42.817 38.7063 43.265 38.2583 43.265 37.6843C43.265 37.1103 42.817 36.6623 42.257 36.6623C41.683 36.6623 41.235 37.1103 41.235 37.6843C41.235 38.2583 41.683 38.7063 42.257 38.7063ZM45.6644 43.0463H51.4184V41.7023H45.6644V43.0463ZM53.5418 39.0143H56.1458V47.4423H57.7418V39.0143H60.3318V37.7123H53.5418V39.0143ZM65.5562 40.9463C66.7462 40.9463 67.6842 41.7023 67.7122 42.8923H63.4422C63.6102 41.6743 64.4782 40.9463 65.5562 40.9463ZM69.1682 45.1463H67.4462C67.1522 45.7483 66.6062 46.2243 65.6262 46.2243C64.4502 46.2243 63.5402 45.4543 63.4282 44.1803H69.3222C69.3642 43.9143 69.3782 43.6623 69.3782 43.3963C69.3782 41.1283 67.8242 39.6023 65.6262 39.6023C63.3442 39.6023 61.7762 41.1563 61.7762 43.5783C61.7762 46.0003 63.4142 47.5683 65.6262 47.5683C67.5162 47.5683 68.7342 46.4903 69.1682 45.1463ZM82.2428 47.4423H83.8248V42.8923C83.8248 40.7363 82.4528 39.6023 80.6468 39.6023C79.5268 39.6023 78.4348 40.1903 77.9588 41.1283C77.4268 40.1203 76.4048 39.6023 75.1868 39.6023C74.2628 39.6023 73.4228 39.9803 72.9048 40.6103V39.7283H71.3088V47.4423H72.9048V43.1303C72.9048 41.7163 73.6748 40.9883 74.8508 40.9883C76.0128 40.9883 76.7828 41.7163 76.7828 43.1303V47.4423H78.3648V43.1303C78.3648 41.7163 79.1348 40.9883 80.3108 40.9883C81.4728 40.9883 82.2428 41.7163 82.2428 43.1303V47.4423ZM87.8117 40.8623V39.7283H86.2157V51.1103H87.8117V46.3223C88.3157 46.9243 89.2257 47.5683 90.4997 47.5683C92.5297 47.5683 94.1257 45.9303 94.1257 43.5503C94.1257 41.1703 92.5297 39.6023 90.4997 39.6023C89.2397 39.6023 88.3017 40.2183 87.8117 40.8623ZM92.5017 43.5503C92.5017 45.2163 91.3537 46.1823 90.1497 46.1823C88.9597 46.1823 87.8117 45.2443 87.8117 43.5783C87.8117 41.9263 88.9597 40.9883 90.1497 40.9883C91.3537 40.9883 92.5017 41.8843 92.5017 43.5503ZM44.8705 68.4563L46.6625 68.4423L48.8325 61.0783L50.8765 68.4423H52.6825L55.5665 58.7123H53.8585L51.8285 66.5943L49.7985 58.7123H48.0065L45.8225 66.6363L43.8065 58.7123H42.1125L44.8705 68.4563ZM56.7108 64.5503C56.7108 66.9303 58.3208 68.5683 60.3228 68.5683C61.6108 68.5683 62.5348 67.9523 63.0248 67.2943V68.4423H64.6348V60.7283H63.0248V61.8483C62.5488 61.2183 61.6528 60.6023 60.3508 60.6023C58.3208 60.6023 56.7108 62.1703 56.7108 64.5503ZM63.0248 64.5783C63.0248 66.2443 61.8908 67.1823 60.6868 67.1823C59.4968 67.1823 58.3488 66.2163 58.3488 64.5503C58.3488 62.8843 59.4968 61.9883 60.6868 61.9883C61.8908 61.9883 63.0248 62.9263 63.0248 64.5783ZM72.8451 66.2863C72.7611 63.5003 68.4071 64.3683 68.4071 62.8143C68.4071 62.2963 68.8551 61.9463 69.7091 61.9463C70.5771 61.9463 71.0951 62.4083 71.1511 63.0803H72.7471C72.6631 61.5403 71.5151 60.6023 69.7651 60.6023C67.9451 60.6023 66.7971 61.5963 66.7971 62.8283C66.7971 65.6563 71.2771 64.7883 71.2771 66.3003C71.2771 66.8323 70.7871 67.2243 69.8631 67.2243C68.9811 67.2243 68.3791 66.7063 68.3231 66.0763H66.6711C66.7411 67.4763 68.0431 68.5683 69.8911 68.5683C71.7111 68.5683 72.8451 67.5883 72.8451 66.2863ZM74.9296 68.4423H76.5256V64.1303C76.5256 62.7163 77.2956 61.9883 78.4716 61.9883C79.6336 61.9883 80.4036 62.7163 80.4036 64.1303V68.4423H81.9856V63.8923C81.9856 61.7363 80.6416 60.6023 78.9196 60.6023C77.9256 60.6023 77.0576 60.9803 76.5256 61.6243V58.0823H74.9296V68.4423Z" fill="white"/>
    <path d="M105.79 54.2792V57.1772H102.962V58.5212H105.79V61.4192H107.274V58.5212H110.102V57.1772H107.274V54.2792H105.79Z" fill="white"/>
    <path opacity="0.5" d="M37.1602 5.60254V2.87854H38.6722C39.7402 2.87854 40.2202 3.38254 40.2202 4.24654C40.2202 5.08654 39.7402 5.60254 38.6722 5.60254H37.1602ZM41.6242 4.24654C41.6242 2.89054 40.6522 1.76254 38.6722 1.76254H35.7922V10.1025H37.1602V6.71854H38.6722C40.8442 6.71854 41.6242 5.43454 41.6242 4.24654ZM44.6569 6.62254C44.6569 5.21854 45.2809 4.79854 46.2889 4.79854H46.6369V3.38254C45.7009 3.38254 45.0409 3.79054 44.6569 4.45054V3.49054H43.2889V10.1025H44.6569V6.62254ZM51.0384 4.53454C52.0584 4.53454 52.8624 5.18254 52.8864 6.20254H49.2264C49.3704 5.15854 50.1144 4.53454 51.0384 4.53454ZM54.1344 8.13454H52.6584C52.4064 8.65054 51.9384 9.05854 51.0984 9.05854C50.0904 9.05854 49.3104 8.39854 49.2144 7.30654H54.2664C54.3024 7.07854 54.3144 6.86254 54.3144 6.63454C54.3144 4.69054 52.9824 3.38254 51.0984 3.38254C49.1424 3.38254 47.7984 4.71454 47.7984 6.79054C47.7984 8.86654 49.2024 10.2105 51.0984 10.2105C52.7184 10.2105 53.7624 9.28654 54.1344 8.13454ZM60.9526 8.25454C60.8806 5.86654 57.1486 6.61054 57.1486 5.27854C57.1486 4.83454 57.5326 4.53454 58.2646 4.53454C59.0086 4.53454 59.4526 4.93054 59.5006 5.50654H60.8686C60.7966 4.18654 59.8126 3.38254 58.3126 3.38254C56.7526 3.38254 55.7686 4.23454 55.7686 5.29054C55.7686 7.71454 59.6086 6.97054 59.6086 8.26654C59.6086 8.72254 59.1886 9.05854 58.3966 9.05854C57.6406 9.05854 57.1246 8.61454 57.0766 8.07454H55.6606C55.7206 9.27454 56.8366 10.2105 58.4206 10.2105C59.9806 10.2105 60.9526 9.37054 60.9526 8.25454ZM67.7228 8.25454C67.6508 5.86654 63.9188 6.61054 63.9188 5.27854C63.9188 4.83454 64.3028 4.53454 65.0348 4.53454C65.7788 4.53454 66.2228 4.93054 66.2708 5.50654H67.6388C67.5668 4.18654 66.5828 3.38254 65.0828 3.38254C63.5228 3.38254 62.5388 4.23454 62.5388 5.29054C62.5388 7.71454 66.3788 6.97054 66.3788 8.26654C66.3788 8.72254 65.9588 9.05854 65.1668 9.05854C64.4108 9.05854 63.8948 8.61454 63.8468 8.07454H62.4308C62.4908 9.27454 63.6068 10.2105 65.1908 10.2105C66.7508 10.2105 67.7228 9.37054 67.7228 8.25454ZM72.5821 6.76654C72.5821 8.80654 73.9621 10.2105 75.6781 10.2105C76.7821 10.2105 77.5741 9.68254 77.9941 9.11854V10.1025H79.3741V3.49054H77.9941V4.45054C77.5861 3.91054 76.8181 3.38254 75.7021 3.38254C73.9621 3.38254 72.5821 4.72654 72.5821 6.76654ZM77.9941 6.79054C77.9941 8.21854 77.0221 9.02254 75.9901 9.02254C74.9701 9.02254 73.9861 8.19454 73.9861 6.76654C73.9861 5.33854 74.9701 4.57054 75.9901 4.57054C77.0221 4.57054 77.9941 5.37454 77.9941 6.79054ZM86.2229 10.1025H87.5789V6.20254C87.5789 4.35454 86.4149 3.38254 84.8669 3.38254C84.0749 3.38254 83.3429 3.70654 82.8989 4.24654V3.49054H81.5309V10.1025H82.8989V6.40654C82.8989 5.19454 83.5589 4.57054 84.5669 4.57054C85.5629 4.57054 86.2229 5.19454 86.2229 6.40654V10.1025ZM89.2279 6.76654C89.2279 8.80654 90.6079 10.2105 92.3479 10.2105C93.4279 10.2105 94.2199 9.70654 94.6399 9.10654V10.1025H96.0199V1.22254H94.6399V4.41454C94.1359 3.79054 93.2239 3.38254 92.3599 3.38254C90.6079 3.38254 89.2279 4.72654 89.2279 6.76654ZM94.6399 6.79054C94.6399 8.21854 93.6679 9.02254 92.6359 9.02254C91.6159 9.02254 90.6319 8.19454 90.6319 6.76654C90.6319 5.33854 91.6159 4.57054 92.6359 4.57054C93.6679 4.57054 94.6399 5.37454 94.6399 6.79054ZM101.654 10.1025H103.022V6.40654C103.022 5.19454 103.682 4.57054 104.69 4.57054C105.686 4.57054 106.346 5.19454 106.346 6.40654V10.1025H107.702V6.20254C107.702 4.35454 106.55 3.38254 105.074 3.38254C104.222 3.38254 103.478 3.70654 103.022 4.25854V1.22254H101.654V10.1025ZM116.107 6.79054C116.107 4.71454 114.619 3.38254 112.735 3.38254C110.851 3.38254 109.363 4.71454 109.363 6.79054C109.363 8.86654 110.791 10.2105 112.675 10.2105C114.571 10.2105 116.107 8.86654 116.107 6.79054ZM110.755 6.79054C110.755 5.29054 111.679 4.57054 112.711 4.57054C113.731 4.57054 114.703 5.29054 114.703 6.79054C114.703 8.29054 113.695 9.02254 112.675 9.02254C111.643 9.02254 110.755 8.29054 110.755 6.79054ZM117.819 10.1025H119.187V1.22254H117.819V10.1025ZM120.887 6.76654C120.887 8.80654 122.267 10.2105 124.007 10.2105C125.087 10.2105 125.879 9.70654 126.299 9.10654V10.1025H127.679V1.22254H126.299V4.41454C125.795 3.79054 124.883 3.38254 124.019 3.38254C122.267 3.38254 120.887 4.72654 120.887 6.76654ZM126.299 6.79054C126.299 8.21854 125.327 9.02254 124.295 9.02254C123.275 9.02254 122.291 8.19454 122.291 6.76654C122.291 5.33854 123.275 4.57054 124.295 4.57054C125.327 4.57054 126.299 5.37454 126.299 6.79054ZM133.481 10.1025H134.861V4.60654H136.085V3.49054H134.861V3.02254C134.861 2.26654 135.149 1.97854 135.989 1.97854V0.838539C134.261 0.838539 133.481 1.49854 133.481 3.02254V3.49054H132.701V4.60654H133.481V10.1025ZM143.958 6.79054C143.958 4.71454 142.47 3.38254 140.586 3.38254C138.702 3.38254 137.214 4.71454 137.214 6.79054C137.214 8.86654 138.642 10.2105 140.526 10.2105C142.422 10.2105 143.958 8.86654 143.958 6.79054ZM138.606 6.79054C138.606 5.29054 139.53 4.57054 140.562 4.57054C141.582 4.57054 142.554 5.29054 142.554 6.79054C142.554 8.29054 141.546 9.02254 140.526 9.02254C139.494 9.02254 138.606 8.29054 138.606 6.79054ZM147.038 6.62254C147.038 5.21854 147.662 4.79854 148.67 4.79854H149.018V3.38254C148.082 3.38254 147.422 3.79054 147.038 4.45054V3.49054H145.67V10.1025H147.038V6.62254ZM153.909 3.51454H155.241C155.325 2.90254 155.769 2.32654 156.729 2.32654C157.665 2.32654 158.157 2.83054 158.157 3.58654C158.157 4.52254 157.401 4.88254 156.165 4.89454H155.841V6.02254H156.153C157.581 6.02254 158.325 6.41854 158.325 7.57054C158.325 8.38654 157.821 9.01054 156.801 9.01054C155.769 9.01054 155.169 8.38654 155.109 7.57054H153.789C153.873 9.28654 155.157 10.1505 156.813 10.1505C158.637 10.1505 159.621 9.09454 159.621 7.70254C159.621 6.49054 159.033 5.73454 158.121 5.45854V5.41054C158.805 5.18254 159.465 4.47454 159.465 3.43054C159.465 2.15854 158.517 1.15054 156.777 1.15054C155.181 1.15054 154.005 2.00254 153.909 3.51454ZM166.53 8.25454C166.458 5.86654 162.726 6.61054 162.726 5.27854C162.726 4.83454 163.11 4.53454 163.842 4.53454C164.586 4.53454 165.03 4.93054 165.078 5.50654H166.446C166.374 4.18654 165.39 3.38254 163.89 3.38254C162.33 3.38254 161.346 4.23454 161.346 5.29054C161.346 7.71454 165.186 6.97054 165.186 8.26654C165.186 8.72254 164.766 9.05854 163.974 9.05854C163.218 9.05854 162.702 8.61454 162.654 8.07454H161.238C161.298 9.27454 162.414 10.2105 163.998 10.2105C165.558 10.2105 166.53 9.37054 166.53 8.25454Z" fill="white"/>
    <path opacity="0.5" d="M6.04925 115.429H4.68125V119.113C4.68125 120.325 4.02125 120.949 3.01325 120.949C2.01725 120.949 1.35725 120.325 1.35725 119.113V115.429H0.00124726V119.317C0.00124726 121.165 1.17725 122.137 2.72525 122.137C3.50525 122.137 4.24925 121.813 4.68125 121.249V122.041H6.04925V115.429ZM12.9062 122.041H14.2622V118.141C14.2622 116.293 13.0982 115.321 11.5502 115.321C10.7582 115.321 10.0262 115.645 9.58222 116.185V115.429H8.21422V122.041H9.58222V118.345C9.58222 117.133 10.2422 116.509 11.2502 116.509C12.2462 116.509 12.9062 117.133 12.9062 118.345V122.041ZM16.5832 120.205C16.5832 121.549 17.3152 122.041 18.4912 122.041H19.5712V120.901H18.7312C18.1552 120.901 17.9632 120.697 17.9632 120.205V116.545H19.5712V115.429H17.9632V113.785H16.5832V115.429H15.8032V116.545H16.5832V120.205ZM21.192 122.041H22.56V115.429H21.192V122.041ZM21.888 114.553C22.368 114.553 22.752 114.169 22.752 113.677C22.752 113.185 22.368 112.801 21.888 112.801C21.396 112.801 21.012 113.185 21.012 113.677C21.012 114.169 21.396 114.553 21.888 114.553ZM24.7161 122.041H26.0841V113.161H24.7161V122.041ZM31.9333 120.205C31.9333 121.549 32.6653 122.041 33.8413 122.041H34.9213V120.901H34.0813C33.5053 120.901 33.3133 120.697 33.3133 120.205V116.545H34.9213V115.429H33.3133V113.785H31.9333V115.429H31.1533V116.545H31.9333V120.205ZM36.5422 122.041H37.9102V118.345C37.9102 117.133 38.5702 116.509 39.5782 116.509C40.5742 116.509 41.2342 117.133 41.2342 118.345V122.041H42.5902V118.141C42.5902 116.293 41.4382 115.321 39.9622 115.321C39.1102 115.321 38.3662 115.645 37.9102 116.197V113.161H36.5422V122.041ZM47.4792 116.473C48.4992 116.473 49.3032 117.121 49.3272 118.141H45.6672C45.8112 117.097 46.5552 116.473 47.4792 116.473ZM50.5752 120.073H49.0992C48.8472 120.589 48.3792 120.997 47.5392 120.997C46.5312 120.997 45.7512 120.337 45.6552 119.245H50.7072C50.7432 119.017 50.7552 118.801 50.7552 118.573C50.7552 116.629 49.4232 115.321 47.5392 115.321C45.5832 115.321 44.2392 116.653 44.2392 118.729C44.2392 120.805 45.6432 122.149 47.5392 122.149C49.1592 122.149 50.2032 121.225 50.5752 120.073ZM55.9386 122.041H57.3066V115.429H55.9386V122.041ZM56.6346 114.553C57.1146 114.553 57.4986 114.169 57.4986 113.677C57.4986 113.185 57.1146 112.801 56.6346 112.801C56.1426 112.801 55.7586 113.185 55.7586 113.677C55.7586 114.169 56.1426 114.553 56.6346 114.553ZM64.1547 122.041H65.5107V118.141C65.5107 116.293 64.3467 115.321 62.7987 115.321C62.0067 115.321 61.2747 115.645 60.8307 116.185V115.429H59.4627V122.041H60.8307V118.345C60.8307 117.133 61.4907 116.509 62.4987 116.509C63.4947 116.509 64.1547 117.133 64.1547 118.345V122.041ZM67.1596 118.705C67.1596 120.745 68.5396 122.149 70.2796 122.149C71.3596 122.149 72.1516 121.645 72.5716 121.045V122.041H73.9516V113.161H72.5716V116.353C72.0676 115.729 71.1556 115.321 70.2916 115.321C68.5396 115.321 67.1596 116.665 67.1596 118.705ZM72.5716 118.729C72.5716 120.157 71.5996 120.961 70.5676 120.961C69.5476 120.961 68.5636 120.133 68.5636 118.705C68.5636 117.277 69.5476 116.509 70.5676 116.509C71.5996 116.509 72.5716 117.313 72.5716 118.729ZM76.1084 122.041H77.4764V115.429H76.1084V122.041ZM76.8044 114.553C77.2844 114.553 77.6684 114.169 77.6684 113.677C77.6684 113.185 77.2844 112.801 76.8044 112.801C76.3124 112.801 75.9284 113.185 75.9284 113.677C75.9284 114.169 76.3124 114.553 76.8044 114.553ZM79.1765 118.729C79.1765 120.805 80.5205 122.149 82.4165 122.149C84.0365 122.149 85.0925 121.249 85.4645 119.953H83.9885C83.7365 120.637 83.2325 120.997 82.4165 120.997C81.3125 120.997 80.5805 120.181 80.5805 118.729C80.5805 117.289 81.3125 116.473 82.4165 116.473C83.2325 116.473 83.7605 116.881 83.9885 117.517H85.4645C85.0925 116.125 84.0365 115.321 82.4165 115.321C80.5205 115.321 79.1765 116.665 79.1765 118.729ZM86.7318 118.705C86.7318 120.745 88.1118 122.149 89.8278 122.149C90.9318 122.149 91.7238 121.621 92.1438 121.057V122.041H93.5238V115.429H92.1438V116.389C91.7358 115.849 90.9678 115.321 89.8518 115.321C88.1118 115.321 86.7318 116.665 86.7318 118.705ZM92.1438 118.729C92.1438 120.157 91.1718 120.961 90.1398 120.961C89.1198 120.961 88.1358 120.133 88.1358 118.705C88.1358 117.277 89.1198 116.509 90.1398 116.509C91.1718 116.509 92.1438 117.313 92.1438 118.729ZM95.8966 120.205C95.8966 121.549 96.6286 122.041 97.8046 122.041H98.8846V120.901H98.0446C97.4686 120.901 97.2766 120.697 97.2766 120.205V116.545H98.8846V115.429H97.2766V113.785H95.8966V115.429H95.1166V116.545H95.8966V120.205ZM106.805 118.729C106.805 116.653 105.317 115.321 103.433 115.321C101.549 115.321 100.061 116.653 100.061 118.729C100.061 120.805 101.489 122.149 103.373 122.149C105.269 122.149 106.805 120.805 106.805 118.729ZM101.453 118.729C101.453 117.229 102.377 116.509 103.409 116.509C104.429 116.509 105.401 117.229 105.401 118.729C105.401 120.229 104.393 120.961 103.373 120.961C102.341 120.961 101.453 120.229 101.453 118.729ZM109.886 118.561C109.886 117.157 110.51 116.737 111.518 116.737H111.866V115.321C110.93 115.321 110.27 115.729 109.886 116.389V115.429H108.518V122.041H109.886V118.561ZM121.892 120.193C121.82 117.805 118.088 118.549 118.088 117.217C118.088 116.773 118.472 116.473 119.204 116.473C119.948 116.473 120.392 116.869 120.44 117.445H121.808C121.736 116.125 120.752 115.321 119.252 115.321C117.692 115.321 116.708 116.173 116.708 117.229C116.708 119.653 120.548 118.909 120.548 120.205C120.548 120.661 120.128 120.997 119.336 120.997C118.58 120.997 118.064 120.553 118.016 120.013H116.6C116.66 121.213 117.776 122.149 119.36 122.149C120.92 122.149 121.892 121.309 121.892 120.193ZM123.947 120.205C123.947 121.549 124.679 122.041 125.855 122.041H126.935V120.901H126.095C125.519 120.901 125.327 120.697 125.327 120.205V116.545H126.935V115.429H125.327V113.785H123.947V115.429H123.167V116.545H123.947V120.205ZM128.099 118.705C128.099 120.745 129.479 122.149 131.195 122.149C132.299 122.149 133.091 121.621 133.511 121.057V122.041H134.891V115.429H133.511V116.389C133.103 115.849 132.335 115.321 131.219 115.321C129.479 115.321 128.099 116.665 128.099 118.705ZM133.511 118.729C133.511 120.157 132.539 120.961 131.507 120.961C130.487 120.961 129.503 120.133 129.503 118.705C129.503 117.277 130.487 116.509 131.507 116.509C132.539 116.509 133.511 117.313 133.511 118.729ZM138.416 118.561C138.416 117.157 139.04 116.737 140.048 116.737H140.396V115.321C139.46 115.321 138.8 115.729 138.416 116.389V115.429H137.048V122.041H138.416V118.561ZM142.23 120.205C142.23 121.549 142.962 122.041 144.138 122.041H145.218V120.901H144.378C143.802 120.901 143.61 120.697 143.61 120.205V116.545H145.218V115.429H143.61V113.785H142.23V115.429H141.45V116.545H142.23V120.205ZM151.771 120.193C151.699 117.805 147.967 118.549 147.967 117.217C147.967 116.773 148.351 116.473 149.083 116.473C149.827 116.473 150.271 116.869 150.319 117.445H151.687C151.615 116.125 150.631 115.321 149.131 115.321C147.571 115.321 146.587 116.173 146.587 117.229C146.587 119.653 150.427 118.909 150.427 120.205C150.427 120.661 150.007 120.997 149.215 120.997C148.459 120.997 147.943 120.553 147.895 120.013H146.479C146.539 121.213 147.655 122.149 149.239 122.149C150.799 122.149 151.771 121.309 151.771 120.193ZM157.302 120.205C157.302 121.549 158.034 122.041 159.21 122.041H160.29V120.901H159.45C158.874 120.901 158.682 120.697 158.682 120.205V116.545H160.29V115.429H158.682V113.785H157.302V115.429H156.522V116.545H157.302V120.205ZM168.211 118.729C168.211 116.653 166.723 115.321 164.839 115.321C162.955 115.321 161.467 116.653 161.467 118.729C161.467 120.805 162.895 122.149 164.779 122.149C166.675 122.149 168.211 120.805 168.211 118.729ZM162.859 118.729C162.859 117.229 163.783 116.509 164.815 116.509C165.835 116.509 166.807 117.229 166.807 118.729C166.807 120.229 165.799 120.961 164.779 120.961C163.747 120.961 162.859 120.229 162.859 118.729ZM174.768 116.413V113.161H173.4V122.041H174.768V121.081C175.2 121.657 175.98 122.149 177.072 122.149C178.812 122.149 180.18 120.745 180.18 118.705C180.18 116.665 178.824 115.321 177.072 115.321C176.028 115.321 175.2 115.813 174.768 116.413ZM178.788 118.705C178.788 120.133 177.804 120.961 176.772 120.961C175.752 120.961 174.768 120.157 174.768 118.729C174.768 117.313 175.752 116.509 176.772 116.509C177.804 116.509 178.788 117.277 178.788 118.705ZM181.893 122.041H183.261V113.161H181.893V122.041ZM185.417 122.041H186.785V115.429H185.417V122.041ZM186.113 114.553C186.593 114.553 186.977 114.169 186.977 113.677C186.977 113.185 186.593 112.801 186.113 112.801C185.621 112.801 185.237 113.185 185.237 113.677C185.237 114.169 185.621 114.553 186.113 114.553ZM193.633 122.041H194.989V118.141C194.989 116.293 193.825 115.321 192.277 115.321C191.485 115.321 190.753 115.645 190.309 116.185V115.429H188.941V122.041H190.309V118.345C190.309 117.133 190.969 116.509 191.977 116.509C192.973 116.509 193.633 117.133 193.633 118.345V122.041ZM197.094 122.041H198.462V119.197L200.91 122.041H202.758L199.71 118.741L202.758 115.429H200.862L198.462 118.321V113.161H197.094V122.041Z" fill="white"/>
    <g filter="url(#filter0_f_2_4333)">
        <path fill-rule="evenodd" clip-rule="evenodd" d="M129.916 161.799L130.037 161.921L130.157 161.798L131.878 159.718C131.38 159.284 130.742 159.012 130.037 159.012C129.33 159.012 128.692 159.284 128.193 159.718L129.916 161.799V161.799ZM125.675 156.675C126.893 155.62 128.42 155.042 130.037 155.042C131.652 155.042 133.179 155.62 134.398 156.675L135.509 155.332C133.979 154.01 132.063 153.285 130.037 153.285C128.009 153.285 126.093 154.01 124.564 155.332L125.675 156.676V156.675ZM120.881 150.882C123.438 148.673 126.645 147.466 130.037 147.466C133.427 147.466 136.634 148.673 139.191 150.882L138.076 152.23C135.83 150.288 133.016 149.224 130.037 149.224C127.058 149.224 124.242 150.288 121.996 152.229L120.881 150.882Z" fill="white"/>
    </g>
    <path fill-rule="evenodd" clip-rule="evenodd" d="M129.93 160.949L130.037 161.056L130.142 160.948L131.658 159.117C131.219 158.735 130.658 158.495 130.037 158.495C129.415 158.495 128.853 158.735 128.414 159.117L129.93 160.949V160.949ZM126.197 156.438C127.269 155.509 128.614 155 130.037 155C131.458 155 132.803 155.509 133.876 156.438L134.854 155.256C133.507 154.092 131.821 153.453 130.037 153.453C128.252 153.453 126.565 154.092 125.219 155.256L126.197 156.438V156.438ZM121.977 151.338C124.228 149.394 127.051 148.331 130.037 148.331C133.022 148.331 135.845 149.394 138.095 151.338L137.114 152.525C135.137 150.815 132.659 149.878 130.037 149.878C127.414 149.878 124.936 150.815 122.958 152.524L121.977 151.338Z" fill="white"/>
    <path d="M86.4177 160.07L88.2097 160.056L90.3797 152.692L92.4237 160.056H94.2297L97.1137 150.326H95.4057L93.3757 158.208L91.3457 150.326H89.5537L87.3697 158.25L85.3537 150.326H83.6597L86.4177 160.07ZM98.79 160.056H100.386V152.342H98.79V160.056ZM99.602 151.32C100.162 151.32 100.61 150.872 100.61 150.298C100.61 149.724 100.162 149.276 99.602 149.276C99.028 149.276 98.58 149.724 98.58 150.298C98.58 150.872 99.028 151.32 99.602 151.32ZM102.841 160.056H104.437V155.8H107.657V154.498H104.437V151.628H108.567V150.326H102.841V160.056ZM110.406 160.056H112.002V152.342H110.406V160.056ZM111.218 151.32C111.778 151.32 112.226 150.872 112.226 150.298C112.226 149.724 111.778 149.276 111.218 149.276C110.644 149.276 110.196 149.724 110.196 150.298C110.196 150.872 110.644 151.32 111.218 151.32Z" fill="#EFEFEF"/>
    <path fill-rule="evenodd" clip-rule="evenodd" d="M66.7048 159.267C66.7048 159.603 66.9915 159.907 67.3448 159.907C67.6981 159.907 67.9848 159.603 67.9848 159.267C67.9848 158.93 67.6981 158.627 67.3448 158.627C66.9915 158.627 66.7048 158.93 66.7048 159.267ZM66.0651 149.027H68.6251V148.387H66.0651V149.027ZM62.2248 162.467H72.4648V146.467H62.2248V162.467ZM71.1852 161.187H63.5052V147.782L71.1852 147.747V161.187Z" fill="#EFEFEF"/>
    <defs>
        <filter id="filter0_f_2_4333" x="110.881" y="137.466" width="38.3097" height="34.455" filterUnits="userSpaceOnUse" color-interpolation-filters="sRGB">
            <feFlood flood-opacity="0" result="BackgroundImageFix"/>
            <feBlend mode="normal" in="SourceGraphic" in2="BackgroundImageFix" result="shape"/>
            <feGaussianBlur stdDeviation="5" result="effect1_foregroundBlur_2_4333"/>
        </filter>
    </defs>
</svg>
