<svg width="338" height="289" viewBox="0 0 338 289" fill="none" xmlns="http://www.w3.org/2000/svg">
<path d="M225.779 182.497V207.682L236.389 210.006V184.163L225.779 182.497Z" fill="#F2A900"/>
<path d="M160.128 262.678L159.447 10.3042L166.888 12.6045L166.536 257.49L160.128 262.678Z" stroke="white" stroke-width="2.126" stroke-miterlimit="10"/>
<path d="M8.54395 24.1528L159.447 10.3042" stroke="white" stroke-width="2.126" stroke-miterlimit="10"/>
<path d="M10.8682 209.536L160.128 262.678" stroke="white" stroke-width="2.126" stroke-miterlimit="10"/>
<path d="M166.888 208.41L236.389 170.103" stroke="white" stroke-width="2.126" stroke-miterlimit="10"/>
<path d="M238.994 24.1528V279.554" stroke="white" stroke-width="2.126" stroke-miterlimit="10"/>
<path d="M166.888 27.627L235.802 40.4193" stroke="white" stroke-width="2.126" stroke-miterlimit="10"/>
<path d="M178.201 202.166L238.994 217.329" stroke="white" stroke-width="2.126" stroke-miterlimit="10"/>
<path d="M181.158 200.429L238.994 213.503" stroke="white" stroke-width="2.126" stroke-miterlimit="10"/>
<path d="M191.134 195.054L216.86 197.331C220.099 197.472 220.475 195.171 220.475 195.171L223.761 178.835L236.389 180.572V28.0962L185.407 31.0537" stroke="white" stroke-width="2.126" stroke-miterlimit="10" stroke-linecap="round" stroke-linejoin="round"/>
<path d="M173.977 28.9414L329.457 18.0737" stroke="white" stroke-width="2.126" stroke-miterlimit="10" stroke-linecap="round"/>
<path d="M166.888 22.2048L329.456 8.70825" stroke="white" stroke-width="2.126" stroke-miterlimit="10" stroke-linecap="round"/>
</svg>
