<svg width="228" height="188" viewBox="0 0 228 188" fill="none" xmlns="http://www.w3.org/2000/svg">
<path opacity="0.5" d="M43.1602 8.5V5.776H44.6722C45.7402 5.776 46.2202 6.28 46.2202 7.144C46.2202 7.984 45.7402 8.5 44.6722 8.5H43.1602ZM47.6242 7.144C47.6242 5.788 46.6522 4.66 44.6722 4.66H41.7922V13H43.1602V9.616H44.6722C46.8442 9.616 47.6242 8.332 47.6242 7.144ZM50.6569 9.52C50.6569 8.116 51.2809 7.696 52.2889 7.696H52.6369V6.28C51.7009 6.28 51.0409 6.688 50.6569 7.348V6.388H49.2889V13H50.6569V9.52ZM57.0384 7.432C58.0584 7.432 58.8624 8.08 58.8864 9.1H55.2264C55.3704 8.056 56.1144 7.432 57.0384 7.432ZM60.1344 11.032H58.6584C58.4064 11.548 57.9384 11.956 57.0984 11.956C56.0904 11.956 55.3104 11.296 55.2144 10.204H60.2664C60.3024 9.976 60.3144 9.76 60.3144 9.532C60.3144 7.588 58.9824 6.28 57.0984 6.28C55.1424 6.28 53.7984 7.612 53.7984 9.688C53.7984 11.764 55.2024 13.108 57.0984 13.108C58.7184 13.108 59.7624 12.184 60.1344 11.032ZM66.9526 11.152C66.8806 8.764 63.1486 9.508 63.1486 8.176C63.1486 7.732 63.5326 7.432 64.2646 7.432C65.0086 7.432 65.4526 7.828 65.5006 8.404H66.8686C66.7966 7.084 65.8126 6.28 64.3126 6.28C62.7526 6.28 61.7686 7.132 61.7686 8.188C61.7686 10.612 65.6086 9.868 65.6086 11.164C65.6086 11.62 65.1886 11.956 64.3966 11.956C63.6406 11.956 63.1246 11.512 63.0766 10.972H61.6606C61.7206 12.172 62.8366 13.108 64.4206 13.108C65.9806 13.108 66.9526 12.268 66.9526 11.152ZM73.7228 11.152C73.6508 8.764 69.9188 9.508 69.9188 8.176C69.9188 7.732 70.3028 7.432 71.0348 7.432C71.7788 7.432 72.2228 7.828 72.2708 8.404H73.6388C73.5668 7.084 72.5828 6.28 71.0828 6.28C69.5228 6.28 68.5388 7.132 68.5388 8.188C68.5388 10.612 72.3788 9.868 72.3788 11.164C72.3788 11.62 71.9588 11.956 71.1668 11.956C70.4108 11.956 69.8948 11.512 69.8468 10.972H68.4308C68.4908 12.172 69.6068 13.108 71.1908 13.108C72.7508 13.108 73.7228 12.268 73.7228 11.152ZM78.5821 9.664C78.5821 11.704 79.9621 13.108 81.6781 13.108C82.7821 13.108 83.5741 12.58 83.9941 12.016V13H85.3741V6.388H83.9941V7.348C83.5861 6.808 82.8181 6.28 81.7021 6.28C79.9621 6.28 78.5821 7.624 78.5821 9.664ZM83.9941 9.688C83.9941 11.116 83.0221 11.92 81.9901 11.92C80.9701 11.92 79.9861 11.092 79.9861 9.664C79.9861 8.236 80.9701 7.468 81.9901 7.468C83.0221 7.468 83.9941 8.272 83.9941 9.688ZM92.2229 13H93.5789V9.1C93.5789 7.252 92.4149 6.28 90.8669 6.28C90.0749 6.28 89.3429 6.604 88.8989 7.144V6.388H87.5309V13H88.8989V9.304C88.8989 8.092 89.5589 7.468 90.5669 7.468C91.5629 7.468 92.2229 8.092 92.2229 9.304V13ZM95.2279 9.664C95.2279 11.704 96.6079 13.108 98.3479 13.108C99.4279 13.108 100.22 12.604 100.64 12.004V13H102.02V4.12H100.64V7.312C100.136 6.688 99.2239 6.28 98.3599 6.28C96.6079 6.28 95.2279 7.624 95.2279 9.664ZM100.64 9.688C100.64 11.116 99.6679 11.92 98.6359 11.92C97.6159 11.92 96.6319 11.092 96.6319 9.664C96.6319 8.236 97.6159 7.468 98.6359 7.468C99.6679 7.468 100.64 8.272 100.64 9.688ZM107.654 13H109.022V9.304C109.022 8.092 109.682 7.468 110.69 7.468C111.686 7.468 112.346 8.092 112.346 9.304V13H113.702V9.1C113.702 7.252 112.55 6.28 111.074 6.28C110.222 6.28 109.478 6.604 109.022 7.156V4.12H107.654V13ZM122.107 9.688C122.107 7.612 120.619 6.28 118.735 6.28C116.851 6.28 115.363 7.612 115.363 9.688C115.363 11.764 116.791 13.108 118.675 13.108C120.571 13.108 122.107 11.764 122.107 9.688ZM116.755 9.688C116.755 8.188 117.679 7.468 118.711 7.468C119.731 7.468 120.703 8.188 120.703 9.688C120.703 11.188 119.695 11.92 118.675 11.92C117.643 11.92 116.755 11.188 116.755 9.688ZM123.819 13H125.187V4.12H123.819V13ZM126.887 9.664C126.887 11.704 128.267 13.108 130.007 13.108C131.087 13.108 131.879 12.604 132.299 12.004V13H133.679V4.12H132.299V7.312C131.795 6.688 130.883 6.28 130.019 6.28C128.267 6.28 126.887 7.624 126.887 9.664ZM132.299 9.688C132.299 11.116 131.327 11.92 130.295 11.92C129.275 11.92 128.291 11.092 128.291 9.664C128.291 8.236 129.275 7.468 130.295 7.468C131.327 7.468 132.299 8.272 132.299 9.688ZM139.481 13H140.861V7.504H142.085V6.388H140.861V5.92C140.861 5.164 141.149 4.876 141.989 4.876V3.736C140.261 3.736 139.481 4.396 139.481 5.92V6.388H138.701V7.504H139.481V13ZM149.958 9.688C149.958 7.612 148.47 6.28 146.586 6.28C144.702 6.28 143.214 7.612 143.214 9.688C143.214 11.764 144.642 13.108 146.526 13.108C148.422 13.108 149.958 11.764 149.958 9.688ZM144.606 9.688C144.606 8.188 145.53 7.468 146.562 7.468C147.582 7.468 148.554 8.188 148.554 9.688C148.554 11.188 147.546 11.92 146.526 11.92C145.494 11.92 144.606 11.188 144.606 9.688ZM153.038 9.52C153.038 8.116 153.662 7.696 154.67 7.696H155.018V6.28C154.082 6.28 153.422 6.688 153.038 7.348V6.388H151.67V13H153.038V9.52ZM159.909 6.412H161.241C161.325 5.8 161.769 5.224 162.729 5.224C163.665 5.224 164.157 5.728 164.157 6.484C164.157 7.42 163.401 7.78 162.165 7.792H161.841V8.92H162.153C163.581 8.92 164.325 9.316 164.325 10.468C164.325 11.284 163.821 11.908 162.801 11.908C161.769 11.908 161.169 11.284 161.109 10.468H159.789C159.873 12.184 161.157 13.048 162.813 13.048C164.637 13.048 165.621 11.992 165.621 10.6C165.621 9.388 165.033 8.632 164.121 8.356V8.308C164.805 8.08 165.465 7.372 165.465 6.328C165.465 5.056 164.517 4.048 162.777 4.048C161.181 4.048 160.005 4.9 159.909 6.412ZM172.53 11.152C172.458 8.764 168.726 9.508 168.726 8.176C168.726 7.732 169.11 7.432 169.842 7.432C170.586 7.432 171.03 7.828 171.078 8.404H172.446C172.374 7.084 171.39 6.28 169.89 6.28C168.33 6.28 167.346 7.132 167.346 8.188C167.346 10.612 171.186 9.868 171.186 11.164C171.186 11.62 170.766 11.956 169.974 11.956C169.218 11.956 168.702 11.512 168.654 10.972H167.238C167.298 12.172 168.414 13.108 169.998 13.108C171.558 13.108 172.53 12.268 172.53 11.152Z" fill="white"/>
<path opacity="0.5" d="M19.0492 127.388V134H17.6812V133.22C17.4652 133.492 17.1812 133.708 16.8292 133.868C16.4852 134.02 16.1172 134.096 15.7252 134.096C15.2052 134.096 14.7372 133.988 14.3212 133.772C13.9132 133.556 13.5892 133.236 13.3492 132.812C13.1172 132.388 13.0012 131.876 13.0012 131.276V127.388H14.3572V131.072C14.3572 131.664 14.5052 132.12 14.8012 132.44C15.0972 132.752 15.5012 132.908 16.0132 132.908C16.5252 132.908 16.9292 132.752 17.2252 132.44C17.5292 132.12 17.6812 131.664 17.6812 131.072V127.388H19.0492ZM24.5502 127.28C25.0702 127.28 25.5342 127.388 25.9422 127.604C26.3582 127.82 26.6822 128.14 26.9142 128.564C27.1462 128.988 27.2622 129.5 27.2622 130.1V134H25.9062V130.304C25.9062 129.712 25.7582 129.26 25.4622 128.948C25.1662 128.628 24.7622 128.468 24.2502 128.468C23.7382 128.468 23.3302 128.628 23.0262 128.948C22.7302 129.26 22.5822 129.712 22.5822 130.304V134H21.2142V127.388H22.5822V128.144C22.8062 127.872 23.0902 127.66 23.4342 127.508C23.7862 127.356 24.1582 127.28 24.5502 127.28ZM30.9632 128.504V132.164C30.9632 132.412 31.0192 132.592 31.1312 132.704C31.2512 132.808 31.4512 132.86 31.7312 132.86H32.5712V134H31.4912C30.8752 134 30.4032 133.856 30.0752 133.568C29.7472 133.28 29.5832 132.812 29.5832 132.164V128.504H28.8032V127.388H29.5832V125.744H30.9632V127.388H32.5712V128.504H30.9632ZM34.888 126.512C34.64 126.512 34.432 126.428 34.264 126.26C34.096 126.092 34.012 125.884 34.012 125.636C34.012 125.388 34.096 125.18 34.264 125.012C34.432 124.844 34.64 124.76 34.888 124.76C35.128 124.76 35.332 124.844 35.5 125.012C35.668 125.18 35.752 125.388 35.752 125.636C35.752 125.884 35.668 126.092 35.5 126.26C35.332 126.428 35.128 126.512 34.888 126.512ZM35.56 127.388V134H34.192V127.388H35.56ZM39.0841 125.12V134H37.7161V125.12H39.0841ZM46.3133 128.504V132.164C46.3133 132.412 46.3693 132.592 46.4813 132.704C46.6013 132.808 46.8013 132.86 47.0813 132.86H47.9213V134H46.8413C46.2253 134 45.7533 133.856 45.4253 133.568C45.0973 133.28 44.9333 132.812 44.9333 132.164V128.504H44.1533V127.388H44.9333V125.744H46.3133V127.388H47.9213V128.504H46.3133ZM52.9622 127.28C53.4662 127.28 53.9142 127.388 54.3062 127.604C54.7062 127.82 55.0182 128.14 55.2422 128.564C55.4742 128.988 55.5902 129.5 55.5902 130.1V134H54.2342V130.304C54.2342 129.712 54.0862 129.26 53.7902 128.948C53.4942 128.628 53.0902 128.468 52.5782 128.468C52.0662 128.468 51.6582 128.628 51.3542 128.948C51.0582 129.26 50.9102 129.712 50.9102 130.304V134H49.5422V125.12H50.9102V128.156C51.1422 127.876 51.4342 127.66 51.7862 127.508C52.1462 127.356 52.5382 127.28 52.9622 127.28ZM63.7552 130.532C63.7552 130.78 63.7392 131.004 63.7072 131.204H58.6552C58.6952 131.732 58.8912 132.156 59.2432 132.476C59.5952 132.796 60.0272 132.956 60.5392 132.956C61.2752 132.956 61.7952 132.648 62.0992 132.032H63.5752C63.3752 132.64 63.0112 133.14 62.4832 133.532C61.9632 133.916 61.3152 134.108 60.5392 134.108C59.9072 134.108 59.3392 133.968 58.8352 133.688C58.3392 133.4 57.9472 133 57.6592 132.488C57.3792 131.968 57.2392 131.368 57.2392 130.688C57.2392 130.008 57.3752 129.412 57.6472 128.9C57.9272 128.38 58.3152 127.98 58.8112 127.7C59.3152 127.42 59.8912 127.28 60.5392 127.28C61.1632 127.28 61.7192 127.416 62.2072 127.688C62.6952 127.96 63.0752 128.344 63.3472 128.84C63.6192 129.328 63.7552 129.892 63.7552 130.532ZM62.3272 130.1C62.3192 129.596 62.1392 129.192 61.7872 128.888C61.4352 128.584 60.9992 128.432 60.4792 128.432C60.0072 128.432 59.6032 128.584 59.2672 128.888C58.9312 129.184 58.7312 129.588 58.6672 130.1H62.3272ZM69.6346 126.512C69.3866 126.512 69.1786 126.428 69.0106 126.26C68.8426 126.092 68.7586 125.884 68.7586 125.636C68.7586 125.388 68.8426 125.18 69.0106 125.012C69.1786 124.844 69.3866 124.76 69.6346 124.76C69.8746 124.76 70.0786 124.844 70.2466 125.012C70.4146 125.18 70.4986 125.388 70.4986 125.636C70.4986 125.884 70.4146 126.092 70.2466 126.26C70.0786 126.428 69.8746 126.512 69.6346 126.512ZM70.3066 127.388V134H68.9386V127.388H70.3066ZM75.7987 127.28C76.3187 127.28 76.7827 127.388 77.1907 127.604C77.6067 127.82 77.9307 128.14 78.1627 128.564C78.3947 128.988 78.5107 129.5 78.5107 130.1V134H77.1547V130.304C77.1547 129.712 77.0067 129.26 76.7107 128.948C76.4147 128.628 76.0107 128.468 75.4987 128.468C74.9867 128.468 74.5787 128.628 74.2747 128.948C73.9787 129.26 73.8307 129.712 73.8307 130.304V134H72.4627V127.388H73.8307V128.144C74.0547 127.872 74.3387 127.66 74.6827 127.508C75.0347 127.356 75.4067 127.28 75.7987 127.28ZM80.1596 130.664C80.1596 130 80.2956 129.412 80.5676 128.9C80.8476 128.388 81.2236 127.992 81.6956 127.712C82.1756 127.424 82.7076 127.28 83.2916 127.28C83.7236 127.28 84.1476 127.376 84.5636 127.568C84.9876 127.752 85.3236 128 85.5716 128.312V125.12H86.9516V134H85.5716V133.004C85.3476 133.324 85.0356 133.588 84.6356 133.796C84.2436 134.004 83.7916 134.108 83.2796 134.108C82.7036 134.108 82.1756 133.964 81.6956 133.676C81.2236 133.38 80.8476 132.972 80.5676 132.452C80.2956 131.924 80.1596 131.328 80.1596 130.664ZM85.5716 130.688C85.5716 130.232 85.4756 129.836 85.2836 129.5C85.0996 129.164 84.8556 128.908 84.5516 128.732C84.2476 128.556 83.9196 128.468 83.5676 128.468C83.2156 128.468 82.8876 128.556 82.5836 128.732C82.2796 128.9 82.0316 129.152 81.8396 129.488C81.6556 129.816 81.5636 130.208 81.5636 130.664C81.5636 131.12 81.6556 131.52 81.8396 131.864C82.0316 132.208 82.2796 132.472 82.5836 132.656C82.8956 132.832 83.2236 132.92 83.5676 132.92C83.9196 132.92 84.2476 132.832 84.5516 132.656C84.8556 132.48 85.0996 132.224 85.2836 131.888C85.4756 131.544 85.5716 131.144 85.5716 130.688ZM89.8044 126.512C89.5564 126.512 89.3484 126.428 89.1804 126.26C89.0124 126.092 88.9284 125.884 88.9284 125.636C88.9284 125.388 89.0124 125.18 89.1804 125.012C89.3484 124.844 89.5564 124.76 89.8044 124.76C90.0444 124.76 90.2484 124.844 90.4164 125.012C90.5844 125.18 90.6684 125.388 90.6684 125.636C90.6684 125.884 90.5844 126.092 90.4164 126.26C90.2484 126.428 90.0444 126.512 89.8044 126.512ZM90.4764 127.388V134H89.1084V127.388H90.4764ZM92.1765 130.688C92.1765 130.008 92.3125 129.412 92.5845 128.9C92.8645 128.38 93.2485 127.98 93.7365 127.7C94.2245 127.42 94.7845 127.28 95.4165 127.28C96.2165 127.28 96.8765 127.472 97.3965 127.856C97.9245 128.232 98.2805 128.772 98.4645 129.476H96.9885C96.8685 129.148 96.6765 128.892 96.4125 128.708C96.1485 128.524 95.8165 128.432 95.4165 128.432C94.8565 128.432 94.4085 128.632 94.0725 129.032C93.7445 129.424 93.5805 129.976 93.5805 130.688C93.5805 131.4 93.7445 131.956 94.0725 132.356C94.4085 132.756 94.8565 132.956 95.4165 132.956C96.2085 132.956 96.7325 132.608 96.9885 131.912H98.4645C98.2725 132.584 97.9125 133.12 97.3845 133.52C96.8565 133.912 96.2005 134.108 95.4165 134.108C94.7845 134.108 94.2245 133.968 93.7365 133.688C93.2485 133.4 92.8645 133 92.5845 132.488C92.3125 131.968 92.1765 131.368 92.1765 130.688ZM99.7318 130.664C99.7318 130 99.8678 129.412 100.14 128.9C100.42 128.388 100.796 127.992 101.268 127.712C101.748 127.424 102.276 127.28 102.852 127.28C103.372 127.28 103.824 127.384 104.208 127.592C104.6 127.792 104.912 128.044 105.144 128.348V127.388H106.524V134H105.144V133.016C104.912 133.328 104.596 133.588 104.196 133.796C103.796 134.004 103.34 134.108 102.828 134.108C102.26 134.108 101.74 133.964 101.268 133.676C100.796 133.38 100.42 132.972 100.14 132.452C99.8678 131.924 99.7318 131.328 99.7318 130.664ZM105.144 130.688C105.144 130.232 105.048 129.836 104.856 129.5C104.672 129.164 104.428 128.908 104.124 128.732C103.82 128.556 103.492 128.468 103.14 128.468C102.788 128.468 102.46 128.556 102.156 128.732C101.852 128.9 101.604 129.152 101.412 129.488C101.228 129.816 101.136 130.208 101.136 130.664C101.136 131.12 101.228 131.52 101.412 131.864C101.604 132.208 101.852 132.472 102.156 132.656C102.468 132.832 102.796 132.92 103.14 132.92C103.492 132.92 103.82 132.832 104.124 132.656C104.428 132.48 104.672 132.224 104.856 131.888C105.048 131.544 105.144 131.144 105.144 130.688ZM110.277 128.504V132.164C110.277 132.412 110.333 132.592 110.445 132.704C110.565 132.808 110.765 132.86 111.045 132.86H111.885V134H110.805C110.189 134 109.717 133.856 109.389 133.568C109.061 133.28 108.897 132.812 108.897 132.164V128.504H108.117V127.388H108.897V125.744H110.277V127.388H111.885V128.504H110.277ZM116.373 134.108C115.749 134.108 115.185 133.968 114.681 133.688C114.177 133.4 113.781 133 113.493 132.488C113.205 131.968 113.061 131.368 113.061 130.688C113.061 130.016 113.209 129.42 113.505 128.9C113.801 128.38 114.205 127.98 114.717 127.7C115.229 127.42 115.801 127.28 116.433 127.28C117.065 127.28 117.637 127.42 118.149 127.7C118.661 127.98 119.065 128.38 119.361 128.9C119.657 129.42 119.805 130.016 119.805 130.688C119.805 131.36 119.653 131.956 119.349 132.476C119.045 132.996 118.629 133.4 118.101 133.688C117.581 133.968 117.005 134.108 116.373 134.108ZM116.373 132.92C116.725 132.92 117.053 132.836 117.357 132.668C117.669 132.5 117.921 132.248 118.113 131.912C118.305 131.576 118.401 131.168 118.401 130.688C118.401 130.208 118.309 129.804 118.125 129.476C117.941 129.14 117.697 128.888 117.393 128.72C117.089 128.552 116.761 128.468 116.409 128.468C116.057 128.468 115.729 128.552 115.425 128.72C115.129 128.888 114.893 129.14 114.717 129.476C114.541 129.804 114.453 130.208 114.453 130.688C114.453 131.4 114.633 131.952 114.993 132.344C115.361 132.728 115.821 132.92 116.373 132.92ZM122.886 128.348C123.086 128.012 123.35 127.752 123.678 127.568C124.014 127.376 124.41 127.28 124.866 127.28V128.696H124.518C123.982 128.696 123.574 128.832 123.294 129.104C123.022 129.376 122.886 129.848 122.886 130.52V134H121.518V127.388H122.886V128.348ZM132.36 134.108C131.84 134.108 131.372 134.016 130.956 133.832C130.548 133.64 130.224 133.384 129.984 133.064C129.744 132.736 129.616 132.372 129.6 131.972H131.016C131.04 132.252 131.172 132.488 131.412 132.68C131.66 132.864 131.968 132.956 132.336 132.956C132.72 132.956 133.016 132.884 133.224 132.74C133.44 132.588 133.548 132.396 133.548 132.164C133.548 131.916 133.428 131.732 133.188 131.612C132.956 131.492 132.584 131.36 132.072 131.216C131.576 131.08 131.172 130.948 130.86 130.82C130.548 130.692 130.276 130.496 130.044 130.232C129.82 129.968 129.708 129.62 129.708 129.188C129.708 128.836 129.812 128.516 130.02 128.228C130.228 127.932 130.524 127.7 130.908 127.532C131.3 127.364 131.748 127.28 132.252 127.28C133.004 127.28 133.608 127.472 134.064 127.856C134.528 128.232 134.776 128.748 134.808 129.404H133.44C133.416 129.108 133.296 128.872 133.08 128.696C132.864 128.52 132.572 128.432 132.204 128.432C131.844 128.432 131.568 128.5 131.376 128.636C131.184 128.772 131.088 128.952 131.088 129.176C131.088 129.352 131.152 129.5 131.28 129.62C131.408 129.74 131.564 129.836 131.748 129.908C131.932 129.972 132.204 130.056 132.564 130.16C133.044 130.288 133.436 130.42 133.74 130.556C134.052 130.684 134.32 130.876 134.544 131.132C134.768 131.388 134.884 131.728 134.892 132.152C134.892 132.528 134.788 132.864 134.58 133.16C134.372 133.456 134.076 133.688 133.692 133.856C133.316 134.024 132.872 134.108 132.36 134.108ZM138.327 128.504V132.164C138.327 132.412 138.383 132.592 138.495 132.704C138.615 132.808 138.815 132.86 139.095 132.86H139.935V134H138.855C138.239 134 137.767 133.856 137.439 133.568C137.111 133.28 136.947 132.812 136.947 132.164V128.504H136.167V127.388H136.947V125.744H138.327V127.388H139.935V128.504H138.327ZM141.099 130.664C141.099 130 141.235 129.412 141.507 128.9C141.787 128.388 142.163 127.992 142.635 127.712C143.115 127.424 143.643 127.28 144.219 127.28C144.739 127.28 145.191 127.384 145.575 127.592C145.967 127.792 146.279 128.044 146.511 128.348V127.388H147.891V134H146.511V133.016C146.279 133.328 145.963 133.588 145.563 133.796C145.163 134.004 144.707 134.108 144.195 134.108C143.627 134.108 143.107 133.964 142.635 133.676C142.163 133.38 141.787 132.972 141.507 132.452C141.235 131.924 141.099 131.328 141.099 130.664ZM146.511 130.688C146.511 130.232 146.415 129.836 146.223 129.5C146.039 129.164 145.795 128.908 145.491 128.732C145.187 128.556 144.859 128.468 144.507 128.468C144.155 128.468 143.827 128.556 143.523 128.732C143.219 128.9 142.971 129.152 142.779 129.488C142.595 129.816 142.503 130.208 142.503 130.664C142.503 131.12 142.595 131.52 142.779 131.864C142.971 132.208 143.219 132.472 143.523 132.656C143.835 132.832 144.163 132.92 144.507 132.92C144.859 132.92 145.187 132.832 145.491 132.656C145.795 132.48 146.039 132.224 146.223 131.888C146.415 131.544 146.511 131.144 146.511 130.688ZM151.416 128.348C151.616 128.012 151.88 127.752 152.208 127.568C152.544 127.376 152.94 127.28 153.396 127.28V128.696H153.048C152.512 128.696 152.104 128.832 151.824 129.104C151.552 129.376 151.416 129.848 151.416 130.52V134H150.048V127.388H151.416V128.348ZM156.61 128.504V132.164C156.61 132.412 156.666 132.592 156.778 132.704C156.898 132.808 157.098 132.86 157.378 132.86H158.218V134H157.138C156.522 134 156.05 133.856 155.722 133.568C155.394 133.28 155.23 132.812 155.23 132.164V128.504H154.45V127.388H155.23V125.744H156.61V127.388H158.218V128.504H156.61ZM162.239 134.108C161.719 134.108 161.251 134.016 160.835 133.832C160.427 133.64 160.103 133.384 159.863 133.064C159.623 132.736 159.495 132.372 159.479 131.972H160.895C160.919 132.252 161.051 132.488 161.291 132.68C161.539 132.864 161.847 132.956 162.215 132.956C162.599 132.956 162.895 132.884 163.103 132.74C163.319 132.588 163.427 132.396 163.427 132.164C163.427 131.916 163.307 131.732 163.067 131.612C162.835 131.492 162.463 131.36 161.951 131.216C161.455 131.08 161.051 130.948 160.739 130.82C160.427 130.692 160.155 130.496 159.923 130.232C159.699 129.968 159.587 129.62 159.587 129.188C159.587 128.836 159.691 128.516 159.899 128.228C160.107 127.932 160.403 127.7 160.787 127.532C161.179 127.364 161.627 127.28 162.131 127.28C162.883 127.28 163.487 127.472 163.943 127.856C164.407 128.232 164.655 128.748 164.687 129.404H163.319C163.295 129.108 163.175 128.872 162.959 128.696C162.743 128.52 162.451 128.432 162.083 128.432C161.723 128.432 161.447 128.5 161.255 128.636C161.063 128.772 160.967 128.952 160.967 129.176C160.967 129.352 161.031 129.5 161.159 129.62C161.287 129.74 161.443 129.836 161.627 129.908C161.811 129.972 162.083 130.056 162.443 130.16C162.923 130.288 163.315 130.42 163.619 130.556C163.931 130.684 164.199 130.876 164.423 131.132C164.647 131.388 164.763 131.728 164.771 132.152C164.771 132.528 164.667 132.864 164.459 133.16C164.251 133.456 163.955 133.688 163.571 133.856C163.195 134.024 162.751 134.108 162.239 134.108ZM171.682 128.504V132.164C171.682 132.412 171.738 132.592 171.85 132.704C171.97 132.808 172.17 132.86 172.45 132.86H173.29V134H172.21C171.594 134 171.122 133.856 170.794 133.568C170.466 133.28 170.302 132.812 170.302 132.164V128.504H169.522V127.388H170.302V125.744H171.682V127.388H173.29V128.504H171.682ZM177.779 134.108C177.155 134.108 176.591 133.968 176.087 133.688C175.583 133.4 175.187 133 174.899 132.488C174.611 131.968 174.467 131.368 174.467 130.688C174.467 130.016 174.615 129.42 174.911 128.9C175.207 128.38 175.611 127.98 176.123 127.7C176.635 127.42 177.207 127.28 177.839 127.28C178.471 127.28 179.043 127.42 179.555 127.7C180.067 127.98 180.471 128.38 180.767 128.9C181.063 129.42 181.211 130.016 181.211 130.688C181.211 131.36 181.059 131.956 180.755 132.476C180.451 132.996 180.035 133.4 179.507 133.688C178.987 133.968 178.411 134.108 177.779 134.108ZM177.779 132.92C178.131 132.92 178.459 132.836 178.763 132.668C179.075 132.5 179.327 132.248 179.519 131.912C179.711 131.576 179.807 131.168 179.807 130.688C179.807 130.208 179.715 129.804 179.531 129.476C179.347 129.14 179.103 128.888 178.799 128.72C178.495 128.552 178.167 128.468 177.815 128.468C177.463 128.468 177.135 128.552 176.831 128.72C176.535 128.888 176.299 129.14 176.123 129.476C175.947 129.804 175.859 130.208 175.859 130.688C175.859 131.4 176.039 131.952 176.399 132.344C176.767 132.728 177.227 132.92 177.779 132.92ZM187.768 128.372C188 128.052 188.316 127.792 188.716 127.592C189.124 127.384 189.576 127.28 190.072 127.28C190.656 127.28 191.184 127.42 191.656 127.7C192.128 127.98 192.5 128.38 192.772 128.9C193.044 129.412 193.18 130 193.18 130.664C193.18 131.328 193.044 131.924 192.772 132.452C192.5 132.972 192.124 133.38 191.644 133.676C191.172 133.964 190.648 134.108 190.072 134.108C189.56 134.108 189.104 134.008 188.704 133.808C188.312 133.608 188 133.352 187.768 133.04V134H186.4V125.12H187.768V128.372ZM191.788 130.664C191.788 130.208 191.692 129.816 191.5 129.488C191.316 129.152 191.068 128.9 190.756 128.732C190.452 128.556 190.124 128.468 189.772 128.468C189.428 128.468 189.1 128.556 188.788 128.732C188.484 128.908 188.236 129.164 188.044 129.5C187.86 129.836 187.768 130.232 187.768 130.688C187.768 131.144 187.86 131.544 188.044 131.888C188.236 132.224 188.484 132.48 188.788 132.656C189.1 132.832 189.428 132.92 189.772 132.92C190.124 132.92 190.452 132.832 190.756 132.656C191.068 132.472 191.316 132.208 191.5 131.864C191.692 131.52 191.788 131.12 191.788 130.664ZM196.261 125.12V134H194.893V125.12H196.261ZM199.113 126.512C198.865 126.512 198.657 126.428 198.489 126.26C198.321 126.092 198.237 125.884 198.237 125.636C198.237 125.388 198.321 125.18 198.489 125.012C198.657 124.844 198.865 124.76 199.113 124.76C199.353 124.76 199.557 124.844 199.725 125.012C199.893 125.18 199.977 125.388 199.977 125.636C199.977 125.884 199.893 126.092 199.725 126.26C199.557 126.428 199.353 126.512 199.113 126.512ZM199.785 127.388V134H198.417V127.388H199.785ZM205.277 127.28C205.797 127.28 206.261 127.388 206.669 127.604C207.085 127.82 207.409 128.14 207.641 128.564C207.873 128.988 207.989 129.5 207.989 130.1V134H206.633V130.304C206.633 129.712 206.485 129.26 206.189 128.948C205.893 128.628 205.489 128.468 204.977 128.468C204.465 128.468 204.057 128.628 203.753 128.948C203.457 129.26 203.309 129.712 203.309 130.304V134H201.941V127.388H203.309V128.144C203.533 127.872 203.817 127.66 204.161 127.508C204.513 127.356 204.885 127.28 205.277 127.28ZM212.71 130.7L215.758 134H213.91L211.462 131.156V134H210.094V125.12H211.462V130.28L213.862 127.388H215.758L212.71 130.7Z" fill="white"/>
<g filter="url(#filter0_d_327_1825)">
<path fill-rule="evenodd" clip-rule="evenodd" d="M131.709 175.893L131.816 176L131.921 175.892L133.437 174.061C132.998 173.679 132.437 173.439 131.816 173.439C131.194 173.439 130.632 173.679 130.193 174.061L131.709 175.893ZM127.976 171.382C129.048 170.453 130.393 169.944 131.816 169.944C133.237 169.944 134.582 170.453 135.655 171.382L136.633 170.2C135.286 169.036 133.6 168.397 131.816 168.397C130.031 168.397 128.344 169.036 126.998 170.2L127.976 171.382V171.382ZM123.756 166.283C126.007 164.338 128.83 163.275 131.816 163.275C134.801 163.275 137.624 164.338 139.875 166.283L138.894 167.469C136.916 165.759 134.438 164.822 131.816 164.822C129.193 164.822 126.715 165.759 124.737 167.468L123.756 166.283Z" fill="white"/>
</g>
<g filter="url(#filter1_f_327_1825)">
<path fill-rule="evenodd" clip-rule="evenodd" d="M132.034 177.333L132.155 177.455L132.275 177.333L133.997 175.252C133.499 174.818 132.861 174.546 132.155 174.546C131.449 174.546 130.81 174.818 130.312 175.252L132.034 177.333ZM127.794 172.209C129.012 171.154 130.539 170.576 132.155 170.576C133.77 170.576 135.297 171.154 136.516 172.209L137.627 170.866C136.097 169.544 134.182 168.819 132.155 168.819C130.128 168.819 128.212 169.544 126.683 170.866L127.794 172.21V172.209ZM123 166.416C125.557 164.207 128.764 163 132.155 163C135.546 163 138.753 164.207 141.31 166.416L140.195 167.764C137.949 165.822 135.134 164.758 132.155 164.758C129.176 164.758 126.361 165.822 124.115 167.763L123 166.416Z" fill="white"/>
</g>
<g filter="url(#filter2_f_327_1825)">
<path fill-rule="evenodd" clip-rule="evenodd" d="M132.034 177.333L132.155 177.455L132.275 177.333L133.997 175.252C133.499 174.818 132.861 174.546 132.155 174.546C131.449 174.546 130.81 174.818 130.312 175.252L132.034 177.333ZM127.794 172.209C129.012 171.154 130.539 170.576 132.155 170.576C133.77 170.576 135.297 171.154 136.516 172.209L137.627 170.866C136.097 169.544 134.182 168.819 132.155 168.819C130.128 168.819 128.212 169.544 126.683 170.866L127.794 172.21V172.209ZM123 166.416C125.557 164.207 128.764 163 132.155 163C135.546 163 138.753 164.207 141.31 166.416L140.195 167.764C137.949 165.822 135.134 164.758 132.155 164.758C129.176 164.758 126.361 165.822 124.115 167.763L123 166.416Z" fill="white"/>
</g>
<path d="M88.1969 175.014L89.9889 175L92.1589 167.636L94.2029 175H96.0089L98.8929 165.27H97.1849L95.1549 173.152L93.1249 165.27H91.3329L89.1489 173.194L87.1329 165.27H85.4389L88.1969 175.014ZM100.569 175H102.165V167.286H100.569V175ZM101.381 166.264C101.941 166.264 102.389 165.816 102.389 165.242C102.389 164.668 101.941 164.22 101.381 164.22C100.807 164.22 100.359 164.668 100.359 165.242C100.359 165.816 100.807 166.264 101.381 166.264ZM104.621 175H106.217V170.744H109.437V169.442H106.217V166.572H110.347V165.27H104.621V175ZM112.186 175H113.782V167.286H112.186V175ZM112.998 166.264C113.558 166.264 114.006 165.816 114.006 165.242C114.006 164.668 113.558 164.22 112.998 164.22C112.424 164.22 111.976 164.668 111.976 165.242C111.976 165.816 112.424 166.264 112.998 166.264Z" fill="#EFEFEF"/>
<path d="M63.6815 83.7395C63.6815 83.0595 63.8348 82.4495 64.1415 81.9095C64.4482 81.3628 64.8648 80.9362 65.3915 80.6295C65.9248 80.3228 66.5148 80.1695 67.1615 80.1695C67.9215 80.1695 68.5848 80.3528 69.1515 80.7195C69.7182 81.0862 70.1315 81.6062 70.3915 82.2795H69.3015C69.1082 81.8595 68.8282 81.5362 68.4615 81.3095C68.1015 81.0828 67.6682 80.9695 67.1615 80.9695C66.6748 80.9695 66.2382 81.0828 65.8515 81.3095C65.4648 81.5362 65.1615 81.8595 64.9415 82.2795C64.7215 82.6928 64.6115 83.1795 64.6115 83.7395C64.6115 84.2928 64.7215 84.7795 64.9415 85.1995C65.1615 85.6128 65.4648 85.9328 65.8515 86.1595C66.2382 86.3862 66.6748 86.4995 67.1615 86.4995C67.6682 86.4995 68.1015 86.3895 68.4615 86.1695C68.8282 85.9428 69.1082 85.6195 69.3015 85.1995H70.3915C70.1315 85.8662 69.7182 86.3828 69.1515 86.7495C68.5848 87.1095 67.9215 87.2895 67.1615 87.2895C66.5148 87.2895 65.9248 87.1395 65.3915 86.8395C64.8648 86.5328 64.4482 86.1095 64.1415 85.5695C63.8348 85.0295 63.6815 84.4195 63.6815 83.7395ZM74.4961 87.3195C73.9828 87.3195 73.5161 87.2028 73.0961 86.9695C72.6828 86.7362 72.3561 86.4062 72.1161 85.9795C71.8828 85.5462 71.7661 85.0462 71.7661 84.4795C71.7661 83.9195 71.8861 83.4262 72.1261 82.9995C72.3728 82.5662 72.7061 82.2362 73.1261 82.0095C73.5461 81.7762 74.0161 81.6595 74.5361 81.6595C75.0561 81.6595 75.5261 81.7762 75.9461 82.0095C76.3661 82.2362 76.6961 82.5628 76.9361 82.9895C77.1828 83.4162 77.3061 83.9128 77.3061 84.4795C77.3061 85.0462 77.1794 85.5462 76.9261 85.9795C76.6794 86.4062 76.3428 86.7362 75.9161 86.9695C75.4894 87.2028 75.0161 87.3195 74.4961 87.3195ZM74.4961 86.5195C74.8228 86.5195 75.1294 86.4428 75.4161 86.2895C75.7028 86.1362 75.9328 85.9062 76.1061 85.5995C76.2861 85.2928 76.3761 84.9195 76.3761 84.4795C76.3761 84.0395 76.2894 83.6662 76.1161 83.3595C75.9428 83.0528 75.7161 82.8262 75.4361 82.6795C75.1561 82.5262 74.8528 82.4495 74.5261 82.4495C74.1928 82.4495 73.8861 82.5262 73.6061 82.6795C73.3328 82.8262 73.1128 83.0528 72.9461 83.3595C72.7794 83.6662 72.6961 84.0395 72.6961 84.4795C72.6961 84.9262 72.7761 85.3028 72.9361 85.6095C73.1028 85.9162 73.3228 86.1462 73.5961 86.2995C73.8694 86.4462 74.1694 86.5195 74.4961 86.5195ZM81.5326 81.6495C82.1992 81.6495 82.7392 81.8528 83.1526 82.2595C83.5659 82.6595 83.7726 83.2395 83.7726 83.9995V87.2295H82.8726V84.1295C82.8726 83.5828 82.7359 83.1662 82.4626 82.8795C82.1892 82.5862 81.8159 82.4395 81.3426 82.4395C80.8626 82.4395 80.4792 82.5895 80.1926 82.8895C79.9126 83.1895 79.7726 83.6262 79.7726 84.1995V87.2295H78.8626V81.7495H79.7726V82.5295C79.9526 82.2495 80.1959 82.0328 80.5026 81.8795C80.8159 81.7262 81.1592 81.6495 81.5326 81.6495ZM88.2891 81.6495C88.9557 81.6495 89.4957 81.8528 89.9091 82.2595C90.3224 82.6595 90.5291 83.2395 90.5291 83.9995V87.2295H89.6291V84.1295C89.6291 83.5828 89.4924 83.1662 89.2191 82.8795C88.9457 82.5862 88.5724 82.4395 88.0991 82.4395C87.6191 82.4395 87.2357 82.5895 86.9491 82.8895C86.6691 83.1895 86.5291 83.6262 86.5291 84.1995V87.2295H85.6191V81.7495H86.5291V82.5295C86.7091 82.2495 86.9524 82.0328 87.2591 81.8795C87.5724 81.7262 87.9157 81.6495 88.2891 81.6495ZM97.3755 84.2795C97.3755 84.4528 97.3655 84.6362 97.3455 84.8295H92.9655C92.9989 85.3695 93.1822 85.7928 93.5155 86.0995C93.8555 86.3995 94.2655 86.5495 94.7455 86.5495C95.1389 86.5495 95.4655 86.4595 95.7255 86.2795C95.9922 86.0928 96.1789 85.8462 96.2855 85.5395H97.2655C97.1189 86.0662 96.8255 86.4962 96.3855 86.8295C95.9455 87.1562 95.3989 87.3195 94.7455 87.3195C94.2255 87.3195 93.7589 87.2028 93.3455 86.9695C92.9389 86.7362 92.6189 86.4062 92.3855 85.9795C92.1522 85.5462 92.0355 85.0462 92.0355 84.4795C92.0355 83.9128 92.1489 83.4162 92.3755 82.9895C92.6022 82.5628 92.9189 82.2362 93.3255 82.0095C93.7389 81.7762 94.2122 81.6595 94.7455 81.6595C95.2655 81.6595 95.7255 81.7728 96.1255 81.9995C96.5255 82.2262 96.8322 82.5395 97.0455 82.9395C97.2655 83.3328 97.3755 83.7795 97.3755 84.2795ZM96.4355 84.0895C96.4355 83.7428 96.3589 83.4462 96.2055 83.1995C96.0522 82.9462 95.8422 82.7562 95.5755 82.6295C95.3155 82.4962 95.0255 82.4295 94.7055 82.4295C94.2455 82.4295 93.8522 82.5762 93.5255 82.8695C93.2055 83.1628 93.0222 83.5695 92.9755 84.0895H96.4355ZM98.5967 84.4795C98.5967 83.9128 98.7101 83.4195 98.9367 82.9995C99.1634 82.5728 99.4767 82.2428 99.8767 82.0095C100.283 81.7762 100.747 81.6595 101.267 81.6595C101.94 81.6595 102.493 81.8228 102.927 82.1495C103.367 82.4762 103.657 82.9295 103.797 83.5095H102.817C102.723 83.1762 102.54 82.9128 102.267 82.7195C102 82.5262 101.667 82.4295 101.267 82.4295C100.747 82.4295 100.327 82.6095 100.007 82.9695C99.6867 83.3228 99.5267 83.8262 99.5267 84.4795C99.5267 85.1395 99.6867 85.6495 100.007 86.0095C100.327 86.3695 100.747 86.5495 101.267 86.5495C101.667 86.5495 102 86.4562 102.267 86.2695C102.533 86.0828 102.717 85.8162 102.817 85.4695H103.797C103.65 86.0295 103.357 86.4795 102.917 86.8195C102.477 87.1528 101.927 87.3195 101.267 87.3195C100.747 87.3195 100.283 87.2028 99.8767 86.9695C99.4767 86.7362 99.1634 86.4062 98.9367 85.9795C98.7101 85.5528 98.5967 85.0528 98.5967 84.4795ZM106.481 82.4995V85.7295C106.481 85.9962 106.538 86.1862 106.651 86.2995C106.764 86.4062 106.961 86.4595 107.241 86.4595H107.911V87.2295H107.091C106.584 87.2295 106.204 87.1128 105.951 86.8795C105.698 86.6462 105.571 86.2628 105.571 85.7295V82.4995H104.861V81.7495H105.571V80.3695H106.481V81.7495H107.911V82.4995H106.481ZM113.51 82.4995V85.7295C113.51 85.9962 113.566 86.1862 113.68 86.2995C113.793 86.4062 113.99 86.4595 114.27 86.4595H114.94V87.2295H114.12C113.613 87.2295 113.233 87.1128 112.98 86.8795C112.726 86.6462 112.6 86.2628 112.6 85.7295V82.4995H111.89V81.7495H112.6V80.3695H113.51V81.7495H114.94V82.4995H113.51ZM118.792 87.3195C118.279 87.3195 117.812 87.2028 117.392 86.9695C116.979 86.7362 116.652 86.4062 116.412 85.9795C116.179 85.5462 116.062 85.0462 116.062 84.4795C116.062 83.9195 116.182 83.4262 116.422 82.9995C116.669 82.5662 117.002 82.2362 117.422 82.0095C117.842 81.7762 118.312 81.6595 118.832 81.6595C119.352 81.6595 119.822 81.7762 120.242 82.0095C120.662 82.2362 120.992 82.5628 121.232 82.9895C121.479 83.4162 121.602 83.9128 121.602 84.4795C121.602 85.0462 121.475 85.5462 121.222 85.9795C120.975 86.4062 120.639 86.7362 120.212 86.9695C119.785 87.2028 119.312 87.3195 118.792 87.3195ZM118.792 86.5195C119.119 86.5195 119.425 86.4428 119.712 86.2895C119.999 86.1362 120.229 85.9062 120.402 85.5995C120.582 85.2928 120.672 84.9195 120.672 84.4795C120.672 84.0395 120.585 83.6662 120.412 83.3595C120.239 83.0528 120.012 82.8262 119.732 82.6795C119.452 82.5262 119.149 82.4495 118.822 82.4495C118.489 82.4495 118.182 82.5262 117.902 82.6795C117.629 82.8262 117.409 83.0528 117.242 83.3595C117.075 83.6662 116.992 84.0395 116.992 84.4795C116.992 84.9262 117.072 85.3028 117.232 85.6095C117.399 85.9162 117.619 86.1462 117.892 86.2995C118.165 86.4462 118.465 86.5195 118.792 86.5195ZM130.305 85.6795H127.265L126.705 87.2295H125.745L128.265 80.2995H129.315L131.825 87.2295H130.865L130.305 85.6795ZM130.045 84.9395L128.785 81.4195L127.525 84.9395H130.045ZM134.193 82.7595C134.373 82.4462 134.64 82.1862 134.993 81.9795C135.353 81.7662 135.77 81.6595 136.243 81.6595C136.73 81.6595 137.17 81.7762 137.563 82.0095C137.963 82.2428 138.276 82.5728 138.503 82.9995C138.73 83.4195 138.843 83.9095 138.843 84.4695C138.843 85.0228 138.73 85.5162 138.503 85.9495C138.276 86.3828 137.963 86.7195 137.563 86.9595C137.17 87.1995 136.73 87.3195 136.243 87.3195C135.776 87.3195 135.363 87.2162 135.003 87.0095C134.65 86.7962 134.38 86.5328 134.193 86.2195V89.8295H133.283V81.7495H134.193V82.7595ZM137.913 84.4695C137.913 84.0562 137.83 83.6962 137.663 83.3895C137.496 83.0828 137.27 82.8495 136.983 82.6895C136.703 82.5295 136.393 82.4495 136.053 82.4495C135.72 82.4495 135.41 82.5328 135.123 82.6995C134.843 82.8595 134.616 83.0962 134.443 83.4095C134.276 83.7162 134.193 84.0728 134.193 84.4795C134.193 84.8928 134.276 85.2562 134.443 85.5695C134.616 85.8762 134.843 86.1128 135.123 86.2795C135.41 86.4395 135.72 86.5195 136.053 86.5195C136.393 86.5195 136.703 86.4395 136.983 86.2795C137.27 86.1128 137.496 85.8762 137.663 85.5695C137.83 85.2562 137.913 84.8895 137.913 84.4695ZM141.311 82.7595C141.491 82.4462 141.757 82.1862 142.111 81.9795C142.471 81.7662 142.887 81.6595 143.361 81.6595C143.847 81.6595 144.287 81.7762 144.681 82.0095C145.081 82.2428 145.394 82.5728 145.621 82.9995C145.847 83.4195 145.961 83.9095 145.961 84.4695C145.961 85.0228 145.847 85.5162 145.621 85.9495C145.394 86.3828 145.081 86.7195 144.681 86.9595C144.287 87.1995 143.847 87.3195 143.361 87.3195C142.894 87.3195 142.481 87.2162 142.121 87.0095C141.767 86.7962 141.497 86.5328 141.311 86.2195V89.8295H140.401V81.7495H141.311V82.7595ZM145.031 84.4695C145.031 84.0562 144.947 83.6962 144.781 83.3895C144.614 83.0828 144.387 82.8495 144.101 82.6895C143.821 82.5295 143.511 82.4495 143.171 82.4495C142.837 82.4495 142.527 82.5328 142.241 82.6995C141.961 82.8595 141.734 83.0962 141.561 83.4095C141.394 83.7162 141.311 84.0728 141.311 84.4795C141.311 84.8928 141.394 85.2562 141.561 85.5695C141.734 85.8762 141.961 86.1128 142.241 86.2795C142.527 86.4395 142.837 86.5195 143.171 86.5195C143.511 86.5195 143.821 86.4395 144.101 86.2795C144.387 86.1128 144.614 85.8762 144.781 85.5695C144.947 85.2562 145.031 84.8895 145.031 84.4695ZM83.5679 95.2595V102.229H82.6579V99.0695H79.1079V102.229H78.1979V95.2595H79.1079V98.3195H82.6579V95.2595H83.5679ZM87.8717 102.319C87.3583 102.319 86.8917 102.203 86.4717 101.969C86.0583 101.736 85.7317 101.406 85.4917 100.979C85.2583 100.546 85.1417 100.046 85.1417 99.4795C85.1417 98.9195 85.2617 98.4262 85.5017 97.9995C85.7483 97.5662 86.0817 97.2362 86.5017 97.0095C86.9217 96.7762 87.3917 96.6595 87.9117 96.6595C88.4317 96.6595 88.9017 96.7762 89.3217 97.0095C89.7417 97.2362 90.0717 97.5628 90.3117 97.9895C90.5583 98.4162 90.6817 98.9128 90.6817 99.4795C90.6817 100.046 90.555 100.546 90.3017 100.979C90.055 101.406 89.7183 101.736 89.2917 101.969C88.865 102.203 88.3917 102.319 87.8717 102.319ZM87.8717 101.519C88.1983 101.519 88.505 101.443 88.7917 101.289C89.0783 101.136 89.3083 100.906 89.4817 100.599C89.6617 100.293 89.7517 99.9195 89.7517 99.4795C89.7517 99.0395 89.665 98.6662 89.4917 98.3595C89.3183 98.0528 89.0917 97.8262 88.8117 97.6795C88.5317 97.5262 88.2283 97.4495 87.9017 97.4495C87.5683 97.4495 87.2617 97.5262 86.9817 97.6795C86.7083 97.8262 86.4883 98.0528 86.3217 98.3595C86.155 98.6662 86.0717 99.0395 86.0717 99.4795C86.0717 99.9262 86.1517 100.303 86.3117 100.609C86.4783 100.916 86.6983 101.146 86.9717 101.299C87.245 101.446 87.545 101.519 87.8717 101.519ZM93.1482 94.8295V102.229H92.2382V94.8295H93.1482ZM94.7191 99.4695C94.7191 98.9095 94.8324 98.4195 95.0591 97.9995C95.2858 97.5728 95.5958 97.2428 95.9891 97.0095C96.3891 96.7762 96.8358 96.6595 97.3291 96.6595C97.7558 96.6595 98.1524 96.7595 98.5191 96.9595C98.8858 97.1528 99.1658 97.4095 99.3591 97.7295V94.8295H100.279V102.229H99.3591V101.199C99.1791 101.526 98.9124 101.796 98.5591 102.009C98.2058 102.216 97.7924 102.319 97.3191 102.319C96.8324 102.319 96.3891 102.199 95.9891 101.959C95.5958 101.719 95.2858 101.383 95.0591 100.949C94.8324 100.516 94.7191 100.023 94.7191 99.4695ZM99.3591 99.4795C99.3591 99.0662 99.2758 98.7062 99.1091 98.3995C98.9424 98.0928 98.7158 97.8595 98.4291 97.6995C98.1491 97.5328 97.8391 97.4495 97.4991 97.4495C97.1591 97.4495 96.8491 97.5295 96.5691 97.6895C96.2891 97.8495 96.0658 98.0828 95.8991 98.3895C95.7324 98.6962 95.6491 99.0562 95.6491 99.4695C95.6491 99.8895 95.7324 100.256 95.8991 100.569C96.0658 100.876 96.2891 101.113 96.5691 101.279C96.8491 101.439 97.1591 101.519 97.4991 101.519C97.8391 101.519 98.1491 101.439 98.4291 101.279C98.7158 101.113 98.9424 100.876 99.1091 100.569C99.2758 100.256 99.3591 99.8928 99.3591 99.4795ZM105.033 96.8195C105.08 96.2062 105.316 95.7262 105.743 95.3795C106.17 95.0328 106.723 94.8595 107.403 94.8595C107.856 94.8595 108.246 94.9428 108.573 95.1095C108.906 95.2695 109.156 95.4895 109.323 95.7695C109.496 96.0495 109.583 96.3662 109.583 96.7195C109.583 97.1328 109.463 97.4895 109.223 97.7895C108.99 98.0895 108.683 98.2828 108.303 98.3695V98.4195C108.736 98.5262 109.08 98.7362 109.333 99.0495C109.586 99.3628 109.713 99.7728 109.713 100.279C109.713 100.659 109.626 101.003 109.453 101.309C109.28 101.609 109.02 101.846 108.673 102.019C108.326 102.193 107.91 102.279 107.423 102.279C106.716 102.279 106.136 102.096 105.683 101.729C105.23 101.356 104.976 100.829 104.923 100.149H105.803C105.85 100.549 106.013 100.876 106.293 101.129C106.573 101.383 106.946 101.509 107.413 101.509C107.88 101.509 108.233 101.389 108.473 101.149C108.72 100.903 108.843 100.586 108.843 100.199C108.843 99.6995 108.676 99.3395 108.343 99.1195C108.01 98.8995 107.506 98.7895 106.833 98.7895H106.603V98.0295H106.843C107.456 98.0228 107.92 97.9228 108.233 97.7295C108.546 97.5295 108.703 97.2228 108.703 96.8095C108.703 96.4562 108.586 96.1728 108.353 95.9595C108.126 95.7462 107.8 95.6395 107.373 95.6395C106.96 95.6395 106.626 95.7462 106.373 95.9595C106.12 96.1728 105.97 96.4595 105.923 96.8195H105.033ZM116.688 102.299C116.228 102.299 115.814 102.219 115.448 102.059C115.088 101.893 114.804 101.666 114.598 101.379C114.391 101.086 114.284 100.749 114.278 100.369H115.248C115.281 100.696 115.414 100.973 115.648 101.199C115.888 101.419 116.234 101.529 116.688 101.529C117.121 101.529 117.461 101.423 117.708 101.209C117.961 100.989 118.088 100.709 118.088 100.369C118.088 100.103 118.014 99.8862 117.868 99.7195C117.721 99.5528 117.538 99.4262 117.318 99.3395C117.098 99.2528 116.801 99.1595 116.428 99.0595C115.968 98.9395 115.598 98.8195 115.318 98.6995C115.044 98.5795 114.808 98.3928 114.608 98.1395C114.414 97.8795 114.318 97.5328 114.318 97.0995C114.318 96.7195 114.414 96.3828 114.608 96.0895C114.801 95.7962 115.071 95.5695 115.418 95.4095C115.771 95.2495 116.174 95.1695 116.628 95.1695C117.281 95.1695 117.814 95.3328 118.228 95.6595C118.648 95.9862 118.884 96.4195 118.938 96.9595H117.938C117.904 96.6928 117.764 96.4595 117.518 96.2595C117.271 96.0528 116.944 95.9495 116.538 95.9495C116.158 95.9495 115.848 96.0495 115.608 96.2495C115.368 96.4428 115.248 96.7162 115.248 97.0695C115.248 97.3228 115.318 97.5295 115.458 97.6895C115.604 97.8495 115.781 97.9728 115.988 98.0595C116.201 98.1395 116.498 98.2328 116.878 98.3395C117.338 98.4662 117.708 98.5928 117.988 98.7195C118.268 98.8395 118.508 99.0295 118.708 99.2895C118.908 99.5428 119.008 99.8895 119.008 100.329C119.008 100.669 118.918 100.989 118.738 101.289C118.558 101.589 118.291 101.833 117.938 102.019C117.584 102.206 117.168 102.299 116.688 102.299ZM125.707 99.2795C125.707 99.4528 125.697 99.6362 125.677 99.8295H121.297C121.33 100.369 121.513 100.793 121.847 101.099C122.187 101.399 122.597 101.549 123.077 101.549C123.47 101.549 123.797 101.459 124.057 101.279C124.323 101.093 124.51 100.846 124.617 100.539H125.597C125.45 101.066 125.157 101.496 124.717 101.829C124.277 102.156 123.73 102.319 123.077 102.319C122.557 102.319 122.09 102.203 121.677 101.969C121.27 101.736 120.95 101.406 120.717 100.979C120.483 100.546 120.367 100.046 120.367 99.4795C120.367 98.9128 120.48 98.4162 120.707 97.9895C120.933 97.5628 121.25 97.2362 121.657 97.0095C122.07 96.7762 122.543 96.6595 123.077 96.6595C123.597 96.6595 124.057 96.7728 124.457 96.9995C124.857 97.2262 125.163 97.5395 125.377 97.9395C125.597 98.3328 125.707 98.7795 125.707 99.2795ZM124.767 99.0895C124.767 98.7428 124.69 98.4462 124.537 98.1995C124.383 97.9462 124.173 97.7562 123.907 97.6295C123.647 97.4962 123.357 97.4295 123.037 97.4295C122.577 97.4295 122.183 97.5762 121.857 97.8695C121.537 98.1628 121.353 98.5695 121.307 99.0895H124.767ZM126.928 99.4795C126.928 98.9128 127.041 98.4195 127.268 97.9995C127.495 97.5728 127.808 97.2428 128.208 97.0095C128.615 96.7762 129.078 96.6595 129.598 96.6595C130.271 96.6595 130.825 96.8228 131.258 97.1495C131.698 97.4762 131.988 97.9295 132.128 98.5095H131.148C131.055 98.1762 130.871 97.9128 130.598 97.7195C130.331 97.5262 129.998 97.4295 129.598 97.4295C129.078 97.4295 128.658 97.6095 128.338 97.9695C128.018 98.3228 127.858 98.8262 127.858 99.4795C127.858 100.139 128.018 100.649 128.338 101.009C128.658 101.369 129.078 101.549 129.598 101.549C129.998 101.549 130.331 101.456 130.598 101.269C130.865 101.083 131.048 100.816 131.148 100.469H132.128C131.981 101.029 131.688 101.479 131.248 101.819C130.808 102.153 130.258 102.319 129.598 102.319C129.078 102.319 128.615 102.203 128.208 101.969C127.808 101.736 127.495 101.406 127.268 100.979C127.041 100.553 126.928 100.053 126.928 99.4795Z" fill="white"/>
<path d="M68.6708 54.114C68.6708 53.162 68.8901 52.308 69.3288 51.552C69.7768 50.796 70.3788 50.208 71.1348 49.788C71.9001 49.3587 72.7354 49.144 73.6408 49.144C74.6768 49.144 75.5961 49.4007 76.3988 49.914C77.2108 50.418 77.7988 51.1367 78.1628 52.07H76.2448C75.9928 51.5567 75.6428 51.174 75.1948 50.922C74.7468 50.67 74.2288 50.544 73.6408 50.544C72.9968 50.544 72.4228 50.6887 71.9188 50.978C71.4148 51.2673 71.0181 51.6827 70.7288 52.224C70.4488 52.7653 70.3088 53.3953 70.3088 54.114C70.3088 54.8327 70.4488 55.4627 70.7288 56.004C71.0181 56.5453 71.4148 56.9653 71.9188 57.264C72.4228 57.5533 72.9968 57.698 73.6408 57.698C74.2288 57.698 74.7468 57.572 75.1948 57.32C75.6428 57.068 75.9928 56.6853 76.2448 56.172H78.1628C77.7988 57.1053 77.2108 57.824 76.3988 58.328C75.5961 58.832 74.6768 59.084 73.6408 59.084C72.7261 59.084 71.8908 58.874 71.1348 58.454C70.3788 58.0247 69.7768 57.432 69.3288 56.676C68.8901 55.92 68.6708 55.066 68.6708 54.114ZM83.7369 59.126C83.0089 59.126 82.3509 58.9627 81.7629 58.636C81.1749 58.3 80.7129 57.8333 80.3769 57.236C80.0409 56.6293 79.8729 55.9293 79.8729 55.136C79.8729 54.352 80.0456 53.6567 80.3909 53.05C80.7362 52.4433 81.2076 51.9767 81.8049 51.65C82.4022 51.3233 83.0696 51.16 83.8069 51.16C84.5442 51.16 85.2116 51.3233 85.8089 51.65C86.4062 51.9767 86.8776 52.4433 87.2229 53.05C87.5682 53.6567 87.7409 54.352 87.7409 55.136C87.7409 55.92 87.5636 56.6153 87.2089 57.222C86.8542 57.8287 86.3689 58.3 85.7529 58.636C85.1462 58.9627 84.4742 59.126 83.7369 59.126ZM83.7369 57.74C84.1476 57.74 84.5302 57.642 84.8849 57.446C85.2489 57.25 85.5429 56.956 85.7669 56.564C85.9909 56.172 86.1029 55.696 86.1029 55.136C86.1029 54.576 85.9956 54.1047 85.7809 53.722C85.5662 53.33 85.2816 53.036 84.9269 52.84C84.5722 52.644 84.1896 52.546 83.7789 52.546C83.3682 52.546 82.9856 52.644 82.6309 52.84C82.2856 53.036 82.0102 53.33 81.8049 53.722C81.5996 54.1047 81.4969 54.576 81.4969 55.136C81.4969 55.9667 81.7069 56.6107 82.1269 57.068C82.5562 57.516 83.0929 57.74 83.7369 57.74ZM93.5706 51.16C94.1773 51.16 94.7186 51.286 95.1946 51.538C95.68 51.79 96.058 52.1633 96.3286 52.658C96.5993 53.1527 96.7346 53.75 96.7346 54.45V59H95.1526V54.688C95.1526 53.9973 94.98 53.47 94.6346 53.106C94.2893 52.7327 93.818 52.546 93.2206 52.546C92.6233 52.546 92.1473 52.7327 91.7926 53.106C91.4473 53.47 91.2746 53.9973 91.2746 54.688V59H89.6786V51.286H91.2746V52.168C91.536 51.8507 91.8673 51.6033 92.2686 51.426C92.6793 51.2487 93.1133 51.16 93.5706 51.16ZM103.022 51.16C103.629 51.16 104.17 51.286 104.646 51.538C105.132 51.79 105.51 52.1633 105.78 52.658C106.051 53.1527 106.186 53.75 106.186 54.45V59H104.604V54.688C104.604 53.9973 104.432 53.47 104.086 53.106C103.741 52.7327 103.27 52.546 102.672 52.546C102.075 52.546 101.599 52.7327 101.244 53.106C100.899 53.47 100.726 53.9973 100.726 54.688V59H99.1304V51.286H100.726V52.168C100.988 51.8507 101.319 51.6033 101.72 51.426C102.131 51.2487 102.565 51.16 103.022 51.16ZM115.652 54.954C115.652 55.2433 115.634 55.5047 115.596 55.738H109.702C109.749 56.354 109.978 56.8487 110.388 57.222C110.799 57.5953 111.303 57.782 111.9 57.782C112.759 57.782 113.366 57.4227 113.72 56.704H115.442C115.209 57.4133 114.784 57.9967 114.168 58.454C113.562 58.902 112.806 59.126 111.9 59.126C111.163 59.126 110.5 58.9627 109.912 58.636C109.334 58.3 108.876 57.8333 108.54 57.236C108.214 56.6293 108.05 55.9293 108.05 55.136C108.05 54.3427 108.209 53.6473 108.526 53.05C108.853 52.4433 109.306 51.9767 109.884 51.65C110.472 51.3233 111.144 51.16 111.9 51.16C112.628 51.16 113.277 51.3187 113.846 51.636C114.416 51.9533 114.859 52.4013 115.176 52.98C115.494 53.5493 115.652 54.2073 115.652 54.954ZM113.986 54.45C113.977 53.862 113.767 53.3907 113.356 53.036C112.946 52.6813 112.437 52.504 111.83 52.504C111.28 52.504 110.808 52.6813 110.416 53.036C110.024 53.3813 109.791 53.8527 109.716 54.45H113.986ZM117.051 55.136C117.051 54.3427 117.21 53.6473 117.527 53.05C117.854 52.4433 118.302 51.9767 118.871 51.65C119.44 51.3233 120.094 51.16 120.831 51.16C121.764 51.16 122.534 51.384 123.141 51.832C123.757 52.2707 124.172 52.9007 124.387 53.722H122.665C122.525 53.3393 122.301 53.0407 121.993 52.826C121.685 52.6113 121.298 52.504 120.831 52.504C120.178 52.504 119.655 52.7373 119.263 53.204C118.88 53.6613 118.689 54.3053 118.689 55.136C118.689 55.9667 118.88 56.6153 119.263 57.082C119.655 57.5487 120.178 57.782 120.831 57.782C121.755 57.782 122.366 57.376 122.665 56.564H124.387C124.163 57.348 123.743 57.9733 123.127 58.44C122.511 58.8973 121.746 59.126 120.831 59.126C120.094 59.126 119.44 58.9627 118.871 58.636C118.302 58.3 117.854 57.8333 117.527 57.236C117.21 56.6293 117.051 55.9293 117.051 55.136ZM128.199 52.588V56.858C128.199 57.1473 128.265 57.3573 128.395 57.488C128.535 57.6093 128.769 57.67 129.095 57.67H130.075V59H128.815C128.097 59 127.546 58.832 127.163 58.496C126.781 58.16 126.589 57.614 126.589 56.858V52.588H125.679V51.286H126.589V49.368H128.199V51.286H130.075V52.588H128.199ZM143.421 54.618H140.593V57.516H139.109V54.618H136.281V53.274H139.109V50.376H140.593V53.274H143.421V54.618Z" fill="white"/>
<line x1="61" y1="72.5" x2="149" y2="72.5" stroke="#B0B0B0"/>
<defs>
<filter id="filter0_d_327_1825" x="119.756" y="163.275" width="24.1187" height="20.7252" filterUnits="userSpaceOnUse" color-interpolation-filters="sRGB">
<feFlood flood-opacity="0" result="BackgroundImageFix"/>
<feColorMatrix in="SourceAlpha" type="matrix" values="0 0 0 0 0 0 0 0 0 0 0 0 0 0 0 0 0 0 127 0" result="hardAlpha"/>
<feOffset dy="4"/>
<feGaussianBlur stdDeviation="2"/>
<feComposite in2="hardAlpha" operator="out"/>
<feColorMatrix type="matrix" values="0 0 0 0 0 0 0 0 0 0 0 0 0 0 0 0 0 0 1 0"/>
<feBlend mode="normal" in2="BackgroundImageFix" result="effect1_dropShadow_327_1825"/>
<feBlend mode="normal" in="SourceGraphic" in2="effect1_dropShadow_327_1825" result="shape"/>
</filter>
<filter id="filter1_f_327_1825" x="113" y="153" width="38.3097" height="34.4549" filterUnits="userSpaceOnUse" color-interpolation-filters="sRGB">
<feFlood flood-opacity="0" result="BackgroundImageFix"/>
<feBlend mode="normal" in="SourceGraphic" in2="BackgroundImageFix" result="shape"/>
<feGaussianBlur stdDeviation="5" result="effect1_foregroundBlur_327_1825"/>
</filter>
<filter id="filter2_f_327_1825" x="113" y="153" width="38.3097" height="34.4549" filterUnits="userSpaceOnUse" color-interpolation-filters="sRGB">
<feFlood flood-opacity="0" result="BackgroundImageFix"/>
<feBlend mode="normal" in="SourceGraphic" in2="BackgroundImageFix" result="shape"/>
<feGaussianBlur stdDeviation="5" result="effect1_foregroundBlur_327_1825"/>
</filter>
</defs>
</svg>
