<svg width="306" height="131" viewBox="0 0 306 131" fill="none" xmlns="http://www.w3.org/2000/svg">
<path d="M11.5674 29.7449H241.839" stroke="white"/>
<path d="M276.849 38.221C276.849 39.7621 275.615 41.1492 273.919 41.1492C272.376 41.1492 270.988 39.9163 270.988 38.221C270.988 36.6798 272.222 35.2927 273.919 35.2927C275.461 35.4468 276.849 36.6798 276.849 38.221Z" fill="white"/>
<path d="M265.436 30.207C267.595 28.0494 270.525 26.8164 273.918 26.8164C277.157 26.8164 280.242 28.2035 282.401 30.207" stroke="white" stroke-width="0.748" stroke-miterlimit="10" stroke-linecap="round" stroke-linejoin="round"/>
<path d="M260.192 24.967C263.74 21.4223 268.521 19.2646 273.919 19.2646C279.317 19.2646 284.099 21.4223 287.646 24.967" stroke="white" stroke-width="0.748" stroke-miterlimit="10" stroke-linecap="round" stroke-linejoin="round"/>
<path d="M254.948 19.8811C259.884 14.9493 266.516 11.8669 273.919 11.8669C281.322 11.8669 288.109 14.9493 292.89 19.8811" stroke="white" stroke-width="0.748" stroke-miterlimit="10" stroke-linecap="round" stroke-linejoin="round"/>
<path d="M14.9606 17.4153L11.7217 12.1753H13.881L15.886 15.5659L18.0453 12.1753H20.2045L16.9656 17.4153V20.8059H14.9606V17.4153Z" fill="white"/>
<path d="M20.667 16.4907C20.667 14.0248 22.672 12.0212 25.294 12.0212C27.916 12.0212 29.921 14.0248 29.921 16.4907C29.921 18.9565 27.916 20.9601 25.294 20.9601C22.672 20.9601 20.667 18.9565 20.667 16.4907ZM27.916 16.4907C27.916 14.9495 26.8363 13.7165 25.294 13.7165C23.7517 13.7165 22.672 14.9495 22.672 16.3365C22.672 17.8777 23.7517 19.1106 25.294 19.1106C26.8363 19.1106 27.916 18.0318 27.916 16.4907Z" fill="white"/>
<path d="M31.7725 17.1071V12.1753H33.6233V17.1071C33.6233 18.4941 34.3944 19.2647 35.4741 19.2647C36.7079 19.2647 37.3249 18.4941 37.3249 17.2612V12.1753H39.1757V16.9529C39.1757 19.5729 37.6333 20.8059 35.3198 20.8059C33.0063 20.8059 31.7725 19.5729 31.7725 17.1071Z" fill="white"/>
<path d="M41.6426 12.1753H45.6527C46.7323 12.1753 47.6577 12.4835 48.1204 13.1C48.5831 13.5624 48.8916 14.3329 48.8916 15.1035C48.8916 16.4906 48.1204 17.4153 47.0408 17.7235L49.2 20.8059H47.0408L45.19 18.0318H43.6476V20.8059H41.6426V12.1753ZM45.4984 16.3365C46.4238 16.3365 46.8865 15.8741 46.8865 15.1035C46.8865 14.3329 46.2696 13.8706 45.3442 13.8706H43.4934V16.3365H45.4984Z" fill="white"/>
<path d="M54.5986 16.4907C54.5986 14.0248 56.4494 12.0212 59.0714 12.0212C60.768 12.0212 61.6934 12.6377 62.4646 13.4083L61.2307 14.7954C60.6138 14.1789 59.8426 13.8707 59.0714 13.8707C57.6833 13.8707 56.6037 15.1036 56.6037 16.4907C56.6037 18.0318 57.6833 19.2648 59.0714 19.2648C59.9968 19.2648 60.6138 18.8024 61.3849 18.1859L62.6188 19.4189C61.6934 20.3436 60.768 20.9601 59.0714 20.9601C56.4494 20.9601 54.5986 18.9565 54.5986 16.4907Z" fill="white"/>
<path d="M63.8525 16.4907C63.8525 14.0248 65.8576 12.0212 68.4796 12.0212C71.1015 12.0212 73.1066 14.0248 73.1066 16.4907C73.1066 18.9565 71.1015 20.9601 68.4796 20.9601C65.8576 20.9601 63.8525 18.9565 63.8525 16.4907ZM71.1015 16.4907C71.1015 14.9495 70.0219 13.7165 68.4796 13.7165C66.9372 13.7165 65.8576 14.9495 65.8576 16.3365C65.8576 17.8777 66.9372 19.1106 68.4796 19.1106C70.0219 19.1106 71.1015 18.0318 71.1015 16.4907Z" fill="white"/>
<path d="M75.1123 12.1753H76.8089L80.819 17.4153V12.1753H82.6698V20.8059H81.1274L76.9631 15.2576V20.8059H75.1123V12.1753Z" fill="white"/>
<path d="M85.1367 12.1753H86.8333L90.8434 17.4153V12.1753H92.6942V20.8059H91.1518L86.9875 15.2576V20.8059H85.1367V12.1753Z" fill="white"/>
<path d="M95.3163 12.1753H101.794V13.8706H97.1671V15.5659H101.177V17.2612H97.1671V19.1106H101.794V20.8059H95.1621V12.1753H95.3163Z" fill="white"/>
<path d="M103.491 16.4907C103.491 14.0248 105.342 12.0212 107.964 12.0212C109.661 12.0212 110.586 12.6377 111.357 13.4083L110.123 14.7954C109.506 14.1789 108.889 13.7165 107.964 13.7165C106.576 13.7165 105.496 14.9495 105.496 16.3365C105.496 17.8777 106.576 19.1107 107.964 19.1107C108.889 19.1107 109.506 18.6483 110.278 18.0318L111.511 19.2648C110.586 20.1895 109.661 20.8059 107.964 20.8059C105.342 20.9601 103.491 18.9565 103.491 16.4907Z" fill="white"/>
<path d="M115.367 13.8706H112.745V12.1753H119.84V13.8706H117.218V20.8059H115.367V13.8706Z" fill="white"/>
<path d="M121.69 12.1753H128.168V13.8706H123.541V15.5659H127.551V17.2612H123.541V19.1106H128.168V20.8059H121.536V12.1753H121.69Z" fill="white"/>
<path d="M130.327 12.1753H133.72C136.496 12.1753 138.347 14.0247 138.347 16.4906C138.347 18.9565 136.496 20.8059 133.72 20.8059H130.327V12.1753ZM132.332 13.8706V19.1106H133.875C135.417 19.1106 136.497 18.0318 136.497 16.4906C136.497 14.9494 135.417 13.8706 133.875 13.8706H132.332Z" fill="white"/>
<path d="M147.448 12.0212H149.144L152.846 20.6518H150.841L150.07 18.6483H146.368L145.597 20.6518H143.592L147.448 12.0212ZM149.453 17.1071L148.373 14.333L147.293 17.1071H149.453Z" fill="white"/>
<path d="M154.542 12.1753H158.089C160.094 12.1753 161.328 13.4082 161.328 15.1035C161.328 17.1071 159.786 18.1859 157.781 18.1859H156.393V20.8059H154.542V12.1753ZM157.935 16.4906C158.861 16.4906 159.477 15.8741 159.477 15.2576C159.477 14.3329 158.861 14.0247 157.935 14.0247H156.393V16.6447H157.935V16.4906Z" fill="white"/>
<path d="M163.18 12.1753H166.727C168.732 12.1753 169.966 13.4082 169.966 15.1035C169.966 17.1071 168.424 18.1859 166.419 18.1859H165.03V20.8059H163.18V12.1753ZM166.573 16.4906C167.498 16.4906 168.115 15.8741 168.115 15.2576C168.115 14.3329 167.498 14.0247 166.573 14.0247H165.03V16.6447H166.573V16.4906Z" fill="white"/>
<path d="M171.816 12.1753H173.667V19.1106H177.986V20.8059H171.816V12.1753Z" fill="white"/>
<path d="M179.837 12.1753H181.688V20.8059H179.837V12.1753Z" fill="white"/>
<path d="M187.24 12.0212H188.936L192.638 20.6518H190.633L189.862 18.6483H186.16L185.389 20.6518H183.538L187.24 12.0212ZM189.245 17.1071L188.165 14.333L187.085 17.1071H189.245Z" fill="white"/>
<path d="M194.335 12.1753H196.032L200.042 17.4153V12.1753H201.892V20.8059H200.35L196.186 15.2576V20.8059H194.335V12.1753Z" fill="white"/>
<path d="M204.052 16.4907C204.052 14.0248 205.903 12.0212 208.525 12.0212C210.221 12.0212 211.147 12.6377 211.918 13.4083L210.684 14.7954C210.067 14.1789 209.296 13.8707 208.525 13.8707C207.136 13.8707 206.057 15.1036 206.057 16.4907C206.057 18.0318 207.136 19.2648 208.525 19.2648C209.45 19.2648 210.067 18.8024 210.838 18.1859L212.072 19.4189C211.147 20.3436 210.221 20.9601 208.525 20.9601C205.903 20.9601 204.052 18.9565 204.052 16.4907Z" fill="white"/>
<path d="M213.922 12.1753H220.4V13.8706H215.773V15.5659H219.783V17.2612H215.773V19.1106H220.4V20.8059H213.768V12.1753H213.922Z" fill="white"/>
<path d="M103.646 109.27C103.646 107.728 104.725 106.65 106.267 106.65C107.193 106.65 107.81 106.958 108.273 107.42L107.964 107.728C107.501 107.266 107.039 106.958 106.267 106.958C105.188 106.958 104.262 107.883 104.262 109.116C104.262 110.348 105.188 111.273 106.267 111.273C107.039 111.273 107.501 110.965 107.964 110.503L108.273 110.811C107.656 111.427 107.193 111.736 106.267 111.736C104.725 111.89 103.646 110.657 103.646 109.27Z" fill="white"/>
<path d="M109.044 109.27C109.044 107.883 110.124 106.65 111.666 106.65C113.208 106.65 114.288 107.883 114.288 109.27C114.288 110.657 113.208 111.89 111.666 111.89C110.124 111.89 109.044 110.657 109.044 109.27ZM113.671 109.27C113.671 108.037 112.746 107.112 111.666 107.112C110.586 107.112 109.661 108.037 109.661 109.27C109.661 110.503 110.586 111.427 111.666 111.427C112.746 111.427 113.671 110.348 113.671 109.27Z" fill="white"/>
<path d="M115.521 106.65H116.138L119.377 110.811V106.65H119.994V111.89H119.532L116.138 107.574V111.89H115.521V106.65Z" fill="white"/>
<path d="M122.771 107.112H121.074V106.495H125.084V107.112H123.388V111.735H122.771V107.112Z" fill="white"/>
<path d="M127.397 106.495H128.014L130.328 111.735H129.711L129.094 110.348H126.318L125.701 111.735H125.084L127.397 106.495ZM128.94 109.886L127.706 107.266L126.472 109.886H128.94Z" fill="white"/>
<path d="M131.407 106.65H132.024V111.89H131.407V106.65Z" fill="white"/>
<path d="M133.566 106.65H134.183L137.422 110.811V106.65H138.039V111.89H137.576L134.183 107.574V111.89H133.566V106.65Z" fill="white"/>
<path d="M138.965 110.965L139.273 110.502C139.89 110.965 140.353 111.273 141.124 111.273C141.895 111.273 142.204 110.965 142.204 110.348C142.204 109.886 141.895 109.578 140.816 109.424C139.582 109.115 139.119 108.807 139.119 107.882C139.119 107.112 139.89 106.495 140.816 106.495C141.587 106.495 142.05 106.649 142.666 107.112L142.358 107.574C141.895 107.112 141.433 106.958 140.816 106.958C140.199 106.958 139.736 107.266 139.736 107.728C139.736 108.191 140.044 108.499 141.124 108.807C142.358 109.115 142.821 109.424 142.821 110.348C142.821 111.273 142.05 111.889 141.124 111.889C140.353 111.889 139.582 111.581 138.965 110.965Z" fill="white"/>
<path d="M146.368 106.65H146.985V111.89H146.368V106.65Z" fill="white"/>
<path d="M148.219 109.27C148.219 107.728 149.298 106.65 150.841 106.65C151.766 106.65 152.383 106.958 152.846 107.42L152.383 107.883C151.92 107.42 151.458 107.112 150.686 107.112C149.607 107.112 148.681 108.037 148.681 109.27C148.681 110.503 149.607 111.427 150.686 111.427C151.458 111.427 151.92 111.119 152.383 110.657L152.692 110.965C152.075 111.581 151.612 111.89 150.686 111.89C149.298 111.89 148.219 110.657 148.219 109.27Z" fill="white"/>
<path d="M153.771 107.882H154.388V108.653H153.771V107.882ZM153.771 110.965H154.388V111.735H153.771V110.965Z" fill="white"/>
<path d="M12.0303 109.27C12.0303 107.728 13.1099 106.65 14.6522 106.65C15.5777 106.65 16.1946 106.958 16.6573 107.42L16.1946 107.883C15.7319 107.42 15.2692 107.112 14.498 107.112C13.4184 107.112 12.493 108.037 12.493 109.27C12.493 110.503 13.4184 111.427 14.498 111.427C15.2692 111.427 15.7319 111.119 16.1946 110.657L16.5031 110.965C15.8861 111.581 15.4234 111.89 14.498 111.89C13.1099 111.89 12.0303 110.657 12.0303 109.27Z" fill="white"/>
<path d="M17.4287 109.27C17.4287 107.883 18.5083 106.65 20.0507 106.65C21.593 106.65 22.6727 107.883 22.6727 109.27C22.6727 110.657 21.593 111.89 20.0507 111.89C18.5083 111.89 17.4287 110.657 17.4287 109.27ZM22.0557 109.27C22.0557 108.037 21.1303 107.112 20.0507 107.112C18.9711 107.112 18.0456 108.037 18.0456 109.27C18.0456 110.503 18.9711 111.427 20.0507 111.427C21.1303 111.427 22.0557 110.348 22.0557 109.27Z" fill="white"/>
<path d="M23.9062 106.65H24.5232L27.7621 110.811V106.65H28.379V111.89H27.9163L24.5232 107.574V111.89H23.9062V106.65Z" fill="white"/>
<path d="M31.1556 107.112H29.459V106.495H33.4691V107.112H31.7725V111.735H31.1556V107.112Z" fill="white"/>
<path d="M35.7823 106.495H36.3992L38.7127 111.735H38.0958L37.4788 110.348H34.7026L34.0857 111.735H33.4688L35.7823 106.495ZM37.3246 109.886L36.0907 107.266L34.8569 109.886H37.3246Z" fill="white"/>
<path d="M39.792 106.65H40.4089V111.89H39.792V106.65Z" fill="white"/>
<path d="M41.9521 106.65H42.569L45.8079 110.811V106.65H46.2706V111.89H45.8079L42.4148 107.574V111.89H41.7979V106.65H41.9521Z" fill="white"/>
<path d="M47.3496 110.965L47.6581 110.502C48.275 110.965 48.7377 111.273 49.5089 111.273C50.2801 111.273 50.5885 110.965 50.5885 110.348C50.5885 109.886 50.2801 109.578 49.2004 109.424C47.9665 109.115 47.5038 108.807 47.5038 107.882C47.5038 107.112 48.275 106.495 49.2004 106.495C49.9716 106.495 50.4343 106.649 51.0512 107.112L50.7428 107.574C50.2801 107.112 49.8174 106.958 49.2004 106.958C48.5835 106.958 48.1208 107.266 48.1208 107.728C48.1208 108.191 48.4292 108.499 49.5089 108.807C50.7428 109.115 51.2055 109.424 51.2055 110.348C51.2055 111.273 50.4343 111.889 49.5089 111.889C48.7377 111.889 47.9665 111.581 47.3496 110.965Z" fill="white"/>
<path d="M54.7529 106.65H58.4545V107.266H55.3699V109.116H58.1461V109.578H55.3699V111.89H54.7529V106.65Z" fill="white"/>
<path d="M59.2256 109.27C59.2256 107.728 60.3052 106.65 61.8476 106.65C62.773 106.65 63.3899 106.958 63.8526 107.42L63.3899 107.883C62.9272 107.42 62.4645 107.112 61.6933 107.112C60.6137 107.112 59.6883 108.037 59.6883 109.27C59.6883 110.503 60.6137 111.427 61.6933 111.427C62.4645 111.427 62.9272 111.119 63.3899 110.657L63.6984 110.965C63.0814 111.581 62.6187 111.89 61.6933 111.89C60.3052 111.89 59.2256 110.657 59.2256 109.27Z" fill="white"/>
<path d="M64.624 109.27C64.624 107.728 65.7037 106.65 67.246 106.65C68.1714 106.65 68.7883 106.958 69.251 107.42L68.7883 107.883C68.3256 107.42 67.8629 107.112 67.0918 107.112C66.0121 107.112 65.0867 108.037 65.0867 109.27C65.0867 110.503 66.0121 111.427 67.0918 111.427C67.8629 111.427 68.3256 111.119 68.7883 110.657L69.0968 110.965C68.4799 111.581 68.0172 111.89 67.0918 111.89C65.7037 111.89 64.624 110.657 64.624 109.27Z" fill="white"/>
<path d="M72.4902 106.65H73.1072V111.89H72.4902V106.65Z" fill="white"/>
<path d="M74.6494 106.65H76.5002C78.1968 106.65 79.2764 107.728 79.2764 109.27C79.2764 110.657 78.1968 111.89 76.5002 111.89H74.6494V106.65ZM75.2663 107.112V111.273H76.5002C77.8883 111.273 78.6595 110.348 78.6595 109.27C78.6595 108.191 77.8883 107.266 76.5002 107.266H75.2663V107.112Z" fill="white"/>
<path d="M80.3555 107.882H80.9724V108.653H80.3555V107.882ZM80.3555 110.965H80.9724V111.735H80.3555V110.965Z" fill="white"/>
<path d="M191.25 83.8398H193.255C194.489 83.8398 195.26 84.4563 195.26 85.5351C195.26 86.614 194.335 87.2304 193.255 87.2304H192.021V89.0798H191.25V83.8398ZM193.101 86.614C194.026 86.614 194.489 86.1516 194.489 85.5351C194.489 84.7645 193.872 84.4563 193.101 84.4563H191.713V86.7681H193.101V86.614Z" fill="white"/>
<path d="M197.573 83.6858H198.19L200.504 88.9258H199.887L199.27 87.5387H196.494L195.877 88.9258H195.26L197.573 83.6858ZM198.961 87.0764L197.728 84.4564L196.494 87.0764H198.961Z" fill="white"/>
<path d="M201.43 83.8398H203.589C204.206 83.8398 204.669 83.994 205.131 84.3022C205.44 84.6104 205.594 84.9187 205.594 85.381C205.594 86.3057 204.977 86.7681 204.206 86.9222L205.748 89.0798H204.977L203.435 87.0763H201.892V89.0798H201.275V83.8398H201.43ZM203.589 86.4598C204.36 86.4598 204.977 85.9975 204.977 85.381C204.977 84.7646 204.514 84.3022 203.589 84.3022H202.047V86.4598H203.589Z" fill="white"/>
<path d="M208.216 84.3023H206.52V83.6858H210.53V84.3023H208.833V88.9258H208.216V84.3023Z" fill="white"/>
<path d="M213.769 83.8398H214.385L217.624 88.001V83.8398H218.241V89.0798H217.779L214.385 84.7645V89.0798H213.769V83.8398Z" fill="white"/>
<path d="M219.475 86.4598C219.475 85.0728 220.554 83.8398 222.097 83.8398C223.639 83.8398 224.719 85.0728 224.719 86.4598C224.719 87.8469 223.639 89.0798 222.097 89.0798C220.554 89.0798 219.475 87.8469 219.475 86.4598ZM224.102 86.4598C224.102 85.2269 223.176 84.3022 222.097 84.3022C220.863 84.3022 220.092 85.2269 220.092 86.4598C220.092 87.6928 221.017 88.6175 222.097 88.6175C223.176 88.4634 224.102 87.5387 224.102 86.4598Z" fill="white"/>
<path d="M225.798 85.2271H226.415V85.9976H225.798V85.2271ZM225.798 88.1553H226.415V88.9259H225.798V88.1553Z" fill="white"/>
<path d="M103.953 83.8398H104.57L106.421 86.614L108.272 83.8398H108.889V89.0798H108.272V84.7645L106.421 87.5387L104.416 84.7645V88.9257H103.799V83.8398H103.953Z" fill="white"/>
<path d="M110.122 86.4598C110.122 85.0728 111.202 83.8398 112.744 83.8398C114.286 83.8398 115.366 85.0728 115.366 86.4598C115.366 87.8469 114.286 89.0798 112.744 89.0798C111.202 89.0798 110.122 87.8469 110.122 86.4598ZM114.749 86.4598C114.749 85.2269 113.824 84.3022 112.744 84.3022C111.664 84.3022 110.739 85.2269 110.739 86.4598C110.739 87.6928 111.664 88.6175 112.744 88.6175C113.824 88.6175 114.749 87.5387 114.749 86.4598Z" fill="white"/>
<path d="M116.6 83.8398H118.45C120.147 83.8398 121.227 84.9187 121.227 86.4598C121.227 87.8469 120.147 89.0798 118.45 89.0798H116.6V83.8398ZM117.217 84.3022V88.4634H118.45C119.839 88.4634 120.61 87.5387 120.61 86.4598C120.61 85.381 119.839 84.4563 118.45 84.4563H117.217V84.3022Z" fill="white"/>
<path d="M122.461 83.8398H126.162V84.3022H122.924V85.9975H125.7V86.4598H122.924V88.3092H126.162V88.7716H122.307V83.8398H122.461Z" fill="white"/>
<path d="M127.396 83.8398H128.013V88.4634H130.944V89.0798H127.396V83.8398Z" fill="white"/>
<path d="M134.183 83.8398H134.8V89.0798H134.183V83.8398Z" fill="white"/>
<path d="M136.342 83.8398H138.193C139.889 83.8398 140.969 84.9187 140.969 86.4598C140.969 87.8469 139.889 89.0798 138.193 89.0798H136.342V83.8398ZM136.959 84.3022V88.4634H138.193C139.581 88.4634 140.352 87.5387 140.352 86.4598C140.352 85.381 139.581 84.4563 138.193 84.4563H136.959V84.3022Z" fill="white"/>
<path d="M142.049 85.2268H142.666V85.9974H142.049V85.2268ZM142.049 88.155H142.666V88.9256H142.049V88.155Z" fill="white"/>
<path d="M12.3389 83.8398H12.9558L16.1947 88.001V83.8398H16.8116V89.0798H16.3489L12.8016 84.7645V89.0798H12.3389V83.8398Z" fill="white"/>
<path d="M18.2002 83.8398H21.9018V84.3022H18.6629V85.9975H21.5933V86.4598H18.8171V88.3093H22.056V88.7716H18.2002V83.8398Z" fill="white"/>
<path d="M24.5237 84.3023H22.8271V83.6858H26.8372V84.3023H25.1407V88.9258H24.5237V84.3023Z" fill="white"/>
<path d="M27.4541 83.8398H28.071L29.6134 88.1551L31.0015 83.8398H31.4642L32.8523 88.1551L34.3946 83.8398H35.0116L33.1608 89.0798H32.6981L31.3099 84.7645L29.9218 88.9257H29.3049L27.4541 83.8398Z" fill="white"/>
<path d="M35.6279 86.4598C35.6279 85.0728 36.7076 83.8398 38.2499 83.8398C39.7922 83.8398 40.8719 85.0728 40.8719 86.4598C40.8719 87.8469 39.7922 89.0798 38.2499 89.0798C36.7076 89.0798 35.6279 87.8469 35.6279 86.4598ZM40.255 86.4598C40.255 85.2269 39.3295 84.3022 38.2499 84.3022C37.1703 84.3022 36.2449 85.2269 36.2449 86.4598C36.2449 87.6928 37.1703 88.6175 38.2499 88.6175C39.3295 88.6175 40.255 87.5387 40.255 86.4598Z" fill="white"/>
<path d="M42.1064 83.8398H44.2657C44.8826 83.8398 45.3453 83.994 45.808 84.3022C46.1165 84.6104 46.2707 84.9187 46.2707 85.381C46.2707 86.3057 45.6538 86.7681 44.8826 86.9222L46.4249 89.0798H45.6538L44.1114 87.0763H42.5691V89.0798H41.9521V83.8398H42.1064ZM44.2657 86.4598C45.0368 86.4598 45.6538 85.9975 45.6538 85.381C45.6538 84.7646 45.1911 84.3022 44.2657 84.3022H42.7233V86.4598H44.2657Z" fill="white"/>
<path d="M47.5039 83.8398H48.1208V86.9222L51.0513 83.8398H51.8225L49.6632 86.1516L51.9767 89.0798H51.2055L49.2005 86.614L48.1208 87.6928V89.0798H47.5039V83.8398Z" fill="white"/>
<path d="M52.748 85.2271H53.365V85.9976H52.748V85.2271ZM52.748 88.1553H53.365V88.9259H52.748V88.1553Z" fill="white"/>
<path d="M12.3389 42.8447H14.3439C15.5778 42.8447 16.3489 43.4612 16.3489 44.54C16.3489 45.6188 15.4235 46.2353 14.3439 46.2353H12.9558V48.0847H12.3389V42.8447ZM14.1897 45.773C15.1151 45.773 15.5778 45.3106 15.5778 44.6941C15.5778 43.9236 14.9608 43.6153 14.1897 43.6153H12.9558V45.9271H14.1897V45.773Z" fill="white"/>
<path d="M18.6621 42.8447H19.2791L21.5926 48.0847H20.9757L20.3587 46.6977H17.5825L16.9656 48.0847H16.3486L18.6621 42.8447ZM20.0502 46.2353L18.8164 43.6153L17.7367 46.2353H20.0502Z" fill="white"/>
<path d="M22.21 47.3141L22.5184 46.8518C23.1354 47.3141 23.5981 47.6224 24.3692 47.6224C25.1404 47.6224 25.4489 47.3141 25.4489 46.6977C25.4489 46.2353 25.1404 45.9271 24.0608 45.773C22.8269 45.4647 22.3642 45.1565 22.3642 44.2318C22.3642 43.4612 23.1354 42.8447 24.0608 42.8447C24.8319 42.8447 25.2946 42.9988 25.9116 43.4612L25.6031 43.9236C25.1404 43.4612 24.6777 43.3071 24.0608 43.3071C23.4438 43.3071 22.9811 43.6153 22.9811 44.0777C22.9811 44.54 23.2896 44.8483 24.3692 45.1565C25.6031 45.4647 26.0658 45.773 26.0658 46.6977C26.0658 47.6224 25.2946 48.2388 24.3692 48.2388C23.4438 48.2388 22.8269 47.9306 22.21 47.3141Z" fill="white"/>
<path d="M26.8369 47.3141L27.1454 46.8518C27.7623 47.3141 28.225 47.6224 28.9962 47.6224C29.7674 47.6224 30.0758 47.3141 30.0758 46.6977C30.0758 46.2353 29.7674 45.9271 28.6877 45.773C27.4539 45.4647 26.9911 45.1565 26.9911 44.2318C26.9911 43.4612 27.7623 42.8447 28.6877 42.8447C29.4589 42.8447 29.9216 42.9988 30.5385 43.4612L30.2301 43.9236C29.7674 43.4612 29.3047 43.3071 28.6877 43.3071C28.0708 43.3071 27.6081 43.6153 27.6081 44.0777C27.6081 44.54 27.9166 44.8483 28.9962 45.1565C30.2301 45.4647 30.6928 45.773 30.6928 46.6977C30.6928 47.6224 29.9216 48.2388 28.9962 48.2388C28.0708 48.2388 27.4538 47.9306 26.8369 47.3141Z" fill="white"/>
<path d="M31.3096 42.8447H31.9265L33.4688 47.16L34.8569 42.8447H35.3196L36.7078 47.16L38.2501 42.8447H38.867L37.0162 48.0847H36.5535L35.1654 43.9236L33.7773 48.0847H33.3146L31.3096 42.8447Z" fill="white"/>
<path d="M39.4844 45.4647C39.4844 44.0777 40.564 42.8447 42.1064 42.8447C43.6487 42.8447 44.7283 44.0777 44.7283 45.4647C44.7283 46.8518 43.6487 48.0847 42.1064 48.0847C40.4098 48.2389 39.4844 47.0059 39.4844 45.4647ZM44.1114 45.4647C44.1114 44.2318 43.186 43.3071 42.1064 43.3071C41.0267 43.3071 40.1013 44.2318 40.1013 45.4647C40.1013 46.6977 41.0267 47.6224 42.1064 47.6224C43.186 47.6224 44.1114 46.6977 44.1114 45.4647Z" fill="white"/>
<path d="M45.9618 42.8447H48.1211C48.7381 42.8447 49.2008 42.9988 49.6635 43.3071C49.9719 43.6153 50.1262 43.9236 50.1262 44.3859C50.1262 45.3106 49.5092 45.773 48.7381 45.9271L50.2804 48.0847H49.5092L47.9669 46.0812H46.4246V48.0847H45.8076V42.8447H45.9618ZM48.1211 45.6188C48.8923 45.6188 49.5092 45.1565 49.5092 44.54C49.5092 43.9236 49.0465 43.4612 48.1211 43.4612H46.5788V45.6188H48.1211Z" fill="white"/>
<path d="M51.3604 42.8447H53.2112C54.9077 42.8447 55.9874 43.9236 55.9874 45.4647C55.9874 46.8518 54.9077 48.0847 53.2112 48.0847H51.3604V42.8447ZM51.8231 43.4612V47.6224H53.0569C54.445 47.6224 55.2162 46.6977 55.2162 45.6188C55.2162 44.54 54.445 43.6153 53.0569 43.6153H51.8231V43.4612Z" fill="white"/>
<path d="M56.9121 44.2317H57.529V45.0023H56.9121V44.2317ZM56.9121 47.314H57.529V48.0846H56.9121V47.314Z" fill="white"/>
<path d="M12.3389 63.1882H12.9558L14.8066 65.9624L16.6574 63.1882H17.2744V68.4282H16.6574V64.2671L14.8066 67.0412L12.9558 64.2671V68.4282H12.3389V63.1882Z" fill="white"/>
<path d="M20.667 63.1882H21.284L23.5975 68.4282H22.9805L22.3636 67.0412H19.5874L18.9705 68.4282H18.3535L20.667 63.1882ZM22.0551 66.5788L20.8213 63.9588L19.5874 66.5788H22.0551Z" fill="white"/>
<path d="M24.0605 65.8082C24.0605 64.2671 25.1402 63.1882 26.6825 63.1882C27.6079 63.1882 28.2249 63.4965 28.6876 63.9588L28.2249 64.4212C27.7622 63.9588 27.2995 63.6506 26.5283 63.6506C25.4487 63.6506 24.5232 64.5753 24.5232 65.8082C24.5232 67.0412 25.4487 67.9659 26.5283 67.9659C27.2995 67.9659 27.7622 67.6576 28.2249 67.1953L28.5333 67.5035C27.9164 68.12 27.4537 68.4282 26.5283 68.4282C25.1402 68.5824 24.0605 67.3494 24.0605 65.8082Z" fill="white"/>
<path d="M32.0811 63.1882H32.698V68.4282H32.0811V63.1882Z" fill="white"/>
<path d="M34.0859 63.1882H35.9367C37.6333 63.1882 38.713 64.2671 38.713 65.8082C38.713 67.1953 37.6333 68.4282 35.9367 68.4282H34.0859V63.1882ZM34.7029 63.8047V67.8118H35.9367C37.3248 67.8118 38.096 66.8871 38.096 65.8082C38.096 64.7294 37.3248 63.8047 35.9367 63.8047H34.7029Z" fill="white"/>
<path d="M39.793 64.5752H40.4099V65.3458H39.793V64.5752ZM39.793 67.6576H40.4099V68.4281H39.793V67.6576Z" fill="white"/>
<path d="M108.272 115.742L106.422 118.362L108.272 120.982H107.193L105.805 118.979L104.417 120.982H103.337L105.188 118.362L103.337 115.742H104.417L105.65 117.592L106.884 115.742H108.272Z" fill="white"/>
<path d="M113.671 115.742L111.82 118.208L113.671 120.828H112.591L111.203 118.825L109.815 120.828H108.735L110.586 118.208L108.735 115.588H109.815L111.049 117.438L112.283 115.588H113.671V115.742Z" fill="white"/>
<path d="M119.068 115.742L117.218 118.362L119.068 120.982H117.989L116.601 118.979L115.212 120.982H114.133L115.984 118.362L114.133 115.742H115.212L116.446 117.592L117.68 115.742H119.068Z" fill="white"/>
<path d="M124.467 115.742L122.616 118.208L124.467 120.828H123.387L121.999 118.825L120.611 120.828H119.531L121.382 118.208L119.531 115.588H120.611L121.845 117.438L123.079 115.588H124.467V115.742Z" fill="white"/>
<path d="M129.865 115.742L128.014 118.362L129.865 120.982H128.786L127.397 118.979L126.009 120.982H124.93L126.78 118.362L124.93 115.742H126.009L127.243 117.592L128.477 115.742H129.865Z" fill="white"/>
<path d="M135.264 115.742L133.413 118.208L135.264 120.828H134.184L132.796 118.825L131.408 120.828H130.328L132.179 118.208L130.328 115.588H131.408L132.642 117.438L133.876 115.588H135.264V115.742Z" fill="white"/>
<path d="M138.193 118.208H141.278V119.133H138.193V118.208Z" fill="white"/>
<path d="M148.99 115.742L147.139 118.208L148.99 120.828H147.911L146.522 118.979L145.134 120.982H144.055L145.905 118.362L144.055 115.742H145.134L146.368 117.592L147.602 115.742H148.99Z" fill="white"/>
<path d="M154.08 115.742L152.229 118.208L154.08 120.828H153L151.612 118.825L150.224 120.828H149.145L150.995 118.208L149.145 115.588H150.224L151.458 117.438L152.692 115.588H154.08V115.742Z" fill="white"/>
<path d="M159.17 115.742L157.319 118.208L159.17 120.828H158.09L156.702 118.825L155.314 120.828H154.234L156.085 118.208L154.234 115.588H155.314L156.548 117.438L157.782 115.588H159.17V115.742Z" fill="white"/>
<path d="M164.259 115.742L162.408 118.208L164.259 120.828H163.179L161.791 118.825L160.403 120.828H159.323L161.174 118.208L159.323 115.588H160.403L161.637 117.438L162.871 115.588H164.259V115.742Z" fill="white"/>
<path d="M169.504 115.742L167.653 118.208L169.504 120.828H168.424L167.036 118.825L165.648 120.828H164.568L166.419 118.208L164.568 115.588H165.648L166.882 117.438L168.116 115.588H169.504V115.742Z" fill="white"/>
<path d="M174.593 115.742L172.742 118.208L174.593 120.828H173.513L172.125 118.825L170.737 120.828H169.657L171.508 118.208L169.657 115.588H170.737L171.971 117.438L173.205 115.588H174.593V115.742Z" fill="white"/>
<path d="M179.683 115.742L177.832 118.208L179.683 120.828H178.603L177.215 118.825L175.827 120.828H174.747L176.598 118.208L174.747 115.588H175.827L177.061 117.438L178.294 115.588H179.683V115.742Z" fill="white"/>
<path d="M16.6572 115.742L14.8064 118.208L16.6572 120.828H15.5776L14.1895 118.825L12.8014 120.828H11.876L13.7268 118.208L11.876 115.588H12.9556L14.1895 117.438L15.4234 115.588H16.6572V115.742Z" fill="white"/>
<path d="M22.0556 115.742L20.2048 118.208L22.0556 120.828H20.976L19.5879 118.825L18.1998 120.828H17.1201L18.9709 118.208L17.1201 115.588H18.1998L19.4336 117.438L20.6675 115.588H22.0556V115.742Z" fill="white"/>
<path d="M27.4531 115.742L25.6023 118.208L27.4531 120.828H26.3734L24.9853 118.825L23.5972 120.828H22.5176L24.3684 118.208L22.5176 115.588H23.5972L24.8311 117.438L26.065 115.588H27.4531V115.742Z" fill="white"/>
<path d="M30.3838 118.208H33.4685V119.133H30.3838V118.208Z" fill="white"/>
<path d="M41.1806 115.742L39.3298 118.208L41.1806 120.828H40.101L38.7129 118.825L37.3248 120.828H36.2451L38.0959 118.208L36.2451 115.588H37.3248L38.5586 117.438L39.7925 115.588H41.1806V115.742Z" fill="white"/>
<path d="M46.2705 115.742L44.4196 118.208L46.2705 120.828H45.1908L43.8027 118.825L42.4146 120.828H41.335L43.1858 118.208L41.6434 115.742H42.7231L43.9569 117.592L45.1908 115.742H46.2705Z" fill="white"/>
<path d="M51.3593 115.742L49.5085 118.208L51.3593 120.828H50.2797L48.8916 118.825L47.5035 120.828H46.4238L48.2746 118.208L46.4238 115.588H47.8119L49.0458 117.438L50.2797 115.588H51.3593V115.742Z" fill="white"/>
<path d="M56.4492 115.742L54.5984 118.208L56.4492 120.828H55.5238L54.1357 118.825L52.7476 120.828H51.668L53.5188 118.208L51.668 115.588H52.7476L53.9815 117.438L55.2153 115.588H56.4492V115.742Z" fill="white"/>
<path d="M61.6933 115.742L59.8425 118.208L61.6933 120.828H60.6137L59.2256 118.825L57.8375 120.828H56.7578L58.6086 118.208L56.7578 115.588H57.8375L59.0713 117.438L60.3052 115.588H61.6933V115.742Z" fill="white"/>
<path d="M66.7831 115.742L64.9323 118.208L66.7831 120.828H65.7035L64.3154 118.825L62.9273 120.828H61.8477L63.6985 118.208L61.8477 115.588H62.9273L64.1612 117.438L65.395 115.588H66.7831V115.742Z" fill="white"/>
<path d="M71.873 115.742L70.0222 118.208L71.873 120.828H70.7934L69.4052 118.825L68.0171 120.828H66.9375L68.7883 118.208L66.9375 115.588H68.0171L69.251 117.438L70.4849 115.588H71.873V115.742Z" fill="white"/>
<path d="M76.9628 115.742L75.112 118.208L76.9628 120.828H75.8832L74.4951 118.825L73.107 120.828H72.0273L73.8781 118.208L72.0273 115.588H73.107L74.3408 117.438L75.5747 115.588H76.9628V115.742Z" fill="white"/>
<path d="M195.568 92.9329L193.718 95.3988L195.568 98.0188H194.489L193.101 96.0153L191.712 98.0188H190.633L192.484 95.3988L190.633 92.7788H191.712L192.946 94.6282L194.18 92.7788H195.568V92.9329Z" fill="white"/>
<path d="M200.967 92.9329L199.116 95.3988L200.967 98.0188H199.887L198.499 96.0153L197.111 98.0188H196.031L197.882 95.3988L196.031 92.7788H197.111L198.345 94.6282L199.579 92.7788H200.967V92.9329Z" fill="white"/>
<path d="M206.365 92.9329L204.514 95.3988L206.365 98.0188H205.286L203.897 96.0153L202.509 98.0188H201.43L203.28 95.3988L201.43 92.7788H202.509L203.743 94.6282L204.977 92.7788H206.365V92.9329Z" fill="white"/>
<path d="M211.763 92.9329L209.912 95.3988L211.763 98.0188H210.683L209.295 96.0153L207.907 98.0188H206.827L208.678 95.3988L206.827 92.7788H207.907L209.141 94.6282L210.375 92.7788H211.763V92.9329Z" fill="white"/>
<path d="M217.161 92.9329L215.31 95.3988L217.161 98.0188H216.081L214.693 96.0153L213.305 98.0188H212.226L214.076 95.3988L212.226 92.7788H213.305L214.539 94.6282L215.773 92.7788H217.161V92.9329Z" fill="white"/>
<path d="M222.56 92.9329L220.709 95.3988L222.56 98.0188H221.48L220.092 96.0153L218.704 98.0188H217.624L219.475 95.3988L217.624 92.7788H218.704L219.938 94.6282L221.171 92.7788H222.56V92.9329Z" fill="white"/>
<path d="M227.957 92.9329L226.106 95.3988L227.957 98.0188H226.877L225.489 96.0153L224.101 98.0188H223.021L224.872 95.3988L223.021 92.7788H224.101L225.335 94.6282L226.569 92.7788H227.957V92.9329Z" fill="white"/>
<path d="M235.515 92.9329L233.664 95.3988L235.515 98.0188H234.435L233.047 96.0153L231.659 98.0188H230.579L232.43 95.3988L230.579 92.7788H231.659L232.893 94.6282L234.127 92.7788H235.515V92.9329Z" fill="white"/>
<path d="M240.913 92.9331L239.062 95.5531L240.913 98.1731H239.833L238.445 96.1696L237.057 98.1731H235.978L237.828 95.5531L235.978 92.9331H237.057L238.291 94.7825L239.525 92.9331H240.913Z" fill="white"/>
<path d="M246.311 92.9329L244.461 95.3988L246.311 98.0188H245.232L243.844 96.0153L242.456 98.0188H241.376L243.227 95.3988L241.376 92.7788H242.456L243.689 94.6282L244.923 92.7788H246.311V92.9329Z" fill="white"/>
<path d="M251.709 92.9331L249.858 95.5531L251.709 98.1731H250.629L249.241 96.1696L247.853 98.1731H246.773L248.624 95.5531L246.773 92.9331H247.853L249.087 94.7825L250.321 92.9331H251.709Z" fill="white"/>
<path d="M257.107 92.9329L255.257 95.3988L257.107 98.0188H256.028L254.64 96.0153L253.252 98.0188H252.172L254.023 95.3988L252.172 92.7788H253.252L254.485 94.6282L255.719 92.7788H257.107V92.9329Z" fill="white"/>
<path d="M262.506 92.9331L260.655 95.5531L262.506 98.1731H261.426L260.038 96.1696L258.65 98.1731H257.57L259.421 95.5531L257.57 92.9331H258.65L259.884 94.7825L261.118 92.9331H262.506Z" fill="white"/>
<path d="M267.904 92.9329L266.053 95.3988L267.904 98.0188H266.825L265.437 96.0153L264.048 98.0188H262.969L264.82 95.3988L262.969 92.7788H264.048L265.282 94.6282L266.516 92.7788H267.904V92.9329Z" fill="white"/>
<path d="M108.272 92.9331L106.422 95.5531L108.272 98.1731H107.193L105.805 96.1696L104.417 98.1731H103.337L105.188 95.5531L103.337 92.9331H104.417L105.65 94.7825L106.884 92.9331H108.272Z" fill="white"/>
<path d="M113.671 92.9331L111.82 95.5531L113.671 98.1731H112.591L111.203 96.1696L109.815 98.1731H108.735L110.586 95.5531L108.735 92.9331H109.815L111.049 94.7825L112.283 92.9331H113.671Z" fill="white"/>
<path d="M119.068 92.9331L117.218 95.5531L119.068 98.1731H117.989L116.601 96.1696L115.212 98.1731H114.133L115.984 95.5531L114.133 92.9331H115.212L116.446 94.7825L117.68 92.9331H119.068Z" fill="white"/>
<path d="M124.467 92.9331L122.616 95.5531L124.467 98.1731H123.387L121.999 96.1696L120.611 98.1731H119.531L121.382 95.5531L119.531 92.9331H120.611L121.845 94.7825L123.079 92.9331H124.467Z" fill="white"/>
<path d="M129.865 92.9331L128.014 95.5531L129.865 98.1731H128.786L127.397 96.1696L126.009 98.1731H124.93L126.78 95.5531L124.93 92.9331H126.009L127.243 94.7825L128.477 92.9331H129.865Z" fill="white"/>
<path d="M135.264 92.9331L133.413 95.5531L135.264 98.1731H134.184L132.796 96.1696L131.408 98.1731H130.328L132.179 95.5531L130.328 92.9331H131.408L132.642 94.7825L133.876 92.9331H135.264Z" fill="white"/>
<path d="M140.661 92.9331L138.81 95.5531L140.661 98.1731H139.581L138.193 96.1696L136.805 98.1731H135.726L137.576 95.5531L135.726 92.9331H136.805L138.039 94.7825L139.273 92.9331H140.661Z" fill="white"/>
<path d="M146.06 92.9331L144.209 95.5531L146.06 98.1731H144.98L143.592 96.1696L142.204 98.1731H141.124L142.975 95.5531L141.124 92.9331H142.204L143.438 94.7825L144.671 92.9331H146.06Z" fill="white"/>
<path d="M151.458 92.9331L149.607 95.5531L151.458 98.1731H150.378L148.99 96.1696L147.602 98.1731H146.522L148.373 95.5531L146.522 92.9331H147.602L148.836 94.7825L150.07 92.9331H151.458Z" fill="white"/>
<path d="M156.856 92.9329L155.006 95.3988L156.856 98.0188H155.777L154.389 96.0153L153.001 98.0188H151.921L153.772 95.3988L151.921 92.7788H153.001L154.234 94.6282L155.468 92.7788H156.856V92.9329Z" fill="white"/>
<path d="M12.0303 95.5529C12.0303 94.0117 13.1099 92.9329 14.6522 92.9329C15.5777 92.9329 16.0404 93.2411 16.6573 93.7035L16.0404 94.3199C15.5777 94.0117 15.2692 93.7035 14.6522 93.7035C13.7268 93.7035 12.9557 94.474 12.9557 95.5529C12.9557 96.6317 13.7268 97.4023 14.6522 97.4023C15.115 97.4023 15.5777 97.2482 15.8861 96.9399V96.0152H14.6522V95.2446H16.8115V97.4023C16.3488 97.8646 15.5777 98.1729 14.6522 98.1729C13.1099 98.1729 12.0303 97.094 12.0303 95.5529Z" fill="white"/>
<path d="M18.0449 92.9329H21.9008V93.7035H18.9703V95.0905H21.5923V95.8611H18.9703V97.2482H21.9008V98.0188H18.0449V92.9329Z" fill="white"/>
<path d="M22.3643 98.6353H26.837V99.4058H22.3643V98.6353Z" fill="white"/>
<path d="M27.454 92.9329H28.3794L29.9217 95.3988L31.4641 92.9329H32.3895V98.1729H31.4641V94.474L29.7675 96.9399L28.0709 94.474V98.1729H27.1455V92.9329H27.454Z" fill="white"/>
<path d="M33.623 95.5529C33.623 94.0117 34.7027 92.9329 36.3993 92.9329C37.9416 92.9329 39.1755 94.1658 39.1755 95.5529C39.1755 96.9399 38.0958 98.1729 36.3993 98.1729C34.7027 98.1729 33.623 97.094 33.623 95.5529ZM38.0958 95.5529C38.0958 94.474 37.3247 93.7035 36.3993 93.7035C35.3196 93.7035 34.7027 94.474 34.7027 95.5529C34.7027 96.6317 35.4739 97.4023 36.3993 97.4023C37.3247 97.4023 38.0958 96.6317 38.0958 95.5529Z" fill="white"/>
<path d="M40.1006 92.9329H42.1056C43.8022 92.9329 44.8818 94.0117 44.8818 95.5529C44.8818 96.9399 43.8022 98.1729 42.1056 98.1729H40.1006V92.9329ZM41.026 93.8576V97.4023H42.1056C43.1853 97.4023 43.9564 96.6317 43.9564 95.707C43.9564 94.6282 43.1853 94.0117 42.1056 94.0117H41.026V93.8576Z" fill="white"/>
<path d="M45.8076 96.0154V93.0872H46.733V96.0154C46.733 96.9401 47.1957 97.5566 48.1211 97.5566C48.8923 97.5566 49.355 97.0942 49.355 96.1695V93.2413H50.2804V96.1695C50.2804 97.7107 49.355 98.4813 48.1211 98.4813C46.733 98.173 45.8076 97.4025 45.8076 96.0154Z" fill="white"/>
<path d="M51.5146 92.9329H52.44V97.2482H55.2163V98.0188H51.5146V92.9329Z" fill="white"/>
<path d="M56.1416 92.9329H59.9974V93.7035H57.067V95.0905H59.689V95.8611H57.067V97.2482H59.9974V98.0188H56.1416V92.9329Z" fill="white"/>
<path d="M60.46 98.6353H64.9327V99.4058H60.46V98.6353Z" fill="white"/>
<path d="M69.8682 92.9329L68.1716 95.5529L70.0224 98.1729H68.9428L67.5547 96.1693L66.1666 98.1729H65.0869L66.9377 95.5529L65.0869 92.9329H66.3208L67.5547 94.7823L68.7885 92.9329H69.8682Z" fill="white"/>
<path d="M75.2666 92.9329L73.57 95.5529L75.4208 98.1729H74.3412L72.9531 96.1693L71.565 98.1729H70.4854L72.4904 95.5529L70.6396 92.9329H71.7192L72.9531 94.7823L74.187 92.9329H75.2666Z" fill="white"/>
<path d="M80.6641 92.9329L78.9675 95.5529L80.8183 98.1729H79.7387L78.3506 96.1693L76.9625 98.1729H75.8828L77.7336 95.5529L75.8828 92.9329H77.1167L78.3506 94.7823L79.5844 92.9329H80.6641Z" fill="white"/>
<path d="M86.0625 92.9329L84.3659 95.5529L86.2167 98.1729H85.1371L83.749 96.1693L82.3609 98.1729H81.2812L83.2863 95.5529L81.4355 92.9329H82.5151L83.749 94.7823L84.9828 92.9329H86.0625Z" fill="white"/>
<path d="M77.1174 39.4541L72.3361 45.7729L77.2716 52.4H75.575L71.4107 46.8517L67.2464 52.4H65.5498L70.4853 45.7729L65.704 39.4541H67.4006L71.4107 44.8482L75.4208 39.4541H77.1174Z" fill="white"/>
<path d="M90.5363 39.4541L85.755 45.7729L90.6905 52.4H88.994L84.8296 46.8517L80.6653 52.4H78.9688L83.9042 45.7729L79.123 39.4541H80.8196L84.8296 44.8482L88.8397 39.4541H90.5363Z" fill="white"/>
<path d="M103.954 39.4541L99.1731 45.7729L104.109 52.4H102.412L98.2477 46.8517L94.0834 52.4H92.541L97.4765 45.7729L92.6952 39.4541H94.3918L98.4019 44.8482L102.412 39.4541H103.954Z" fill="white"/>
<path d="M117.372 39.4541L112.591 45.7729L117.526 52.4H115.83L111.666 46.8517L107.501 52.4H105.805L110.74 45.7729L105.959 39.4541H107.655L111.666 44.8482L115.676 39.4541H117.372Z" fill="white"/>
<path d="M130.79 39.4541L126.009 45.7729L130.944 52.4H129.248L125.084 46.8517L120.919 52.4H119.223L124.158 45.7729L119.377 39.4541H121.073L125.084 44.8482L129.094 39.4541H130.79Z" fill="white"/>
<path d="M144.209 39.4541L139.428 45.7729L144.363 52.4H142.667L138.502 46.8517L134.338 52.4H132.642L137.577 45.7729L132.796 39.4541H134.492L138.502 44.8482L142.513 39.4541H144.209Z" fill="white"/>
<path d="M157.627 39.4541L152.846 45.7729L157.781 52.4H156.085L151.92 46.8517L147.756 52.4H146.06L150.995 45.7729L146.214 39.4541H148.065L152.075 44.8482L156.085 39.4541H157.627Z" fill="white"/>
<path d="M171.046 39.4541L166.265 45.7729L171.2 52.4H169.504L165.339 46.8517L161.175 52.4H159.479L164.414 45.7729L159.633 39.4541H161.329L165.339 44.8482L169.349 39.4541H171.046Z" fill="white"/>
<path d="M77.1174 59.7976L72.3361 66.1164L77.2716 72.7435H75.575L71.4107 67.1953L67.2464 72.7435H65.5498L70.4853 66.1164L65.704 59.7976H67.4006L71.4107 65.1917L75.4208 59.7976H77.1174Z" fill="white"/>
<path d="M90.5363 59.7977L85.755 66.1165L90.6905 72.7436H88.994L84.8296 67.0412L80.6653 72.5894H78.9688L83.9042 65.9624L79.123 59.6436H80.8196L84.8296 65.0377L88.8397 59.6436H90.5363V59.7977Z" fill="white"/>
<path d="M109.506 59.7976L104.725 66.1164L109.66 72.7435H107.964L103.799 67.1953L99.635 72.7435H97.9385L102.874 66.1164L98.0927 59.7976H99.7893L103.799 65.1917L107.809 59.7976H109.506Z" fill="white"/>
<path d="M122.925 59.7977L118.144 66.1165L123.079 72.7436H121.383L117.218 67.0412L113.054 72.5894H111.357L116.293 65.9624L111.512 59.6436H113.208L117.218 65.0377L121.228 59.6436H122.925V59.7977Z" fill="white"/>
<path d="M141.896 59.7976L137.114 66.1164L142.05 72.7435H140.353L136.189 67.1953L132.025 72.7435H130.328L135.264 66.1164L130.482 59.7976H132.179L136.189 65.1917L140.199 59.7976H141.896Z" fill="white"/>
<path d="M155.314 59.7977L150.532 66.1165L155.468 72.7436H153.771L149.607 67.0412L145.443 72.5894H143.746L148.682 65.9624L143.9 59.6436H145.597L149.607 65.0377L153.617 59.6436H155.314V59.7977Z" fill="white"/>
<path d="M174.284 59.7976L169.503 66.1164L174.439 72.7435H172.742L168.578 67.1953L164.413 72.7435H162.717L167.652 66.1164L162.871 59.7976H164.568L168.578 65.1917L172.588 59.7976H174.284Z" fill="white"/>
<path d="M187.703 59.7976L182.922 66.1164L187.858 72.7435H186.161L181.997 67.1953L177.832 72.7435H176.136L181.071 66.1164L176.29 59.7976H177.987L181.997 65.1917L186.007 59.7976H187.703Z" fill="white"/>
<path d="M206.674 59.7976L201.893 66.1164L206.828 72.7435H205.132L200.967 67.1953L196.803 72.7435H195.106L200.042 66.1164L195.261 59.7976H196.957L200.967 65.1917L204.977 59.7976H206.674Z" fill="white"/>
<path d="M220.092 59.7976L215.311 66.1164L220.246 72.7435H218.55L214.385 67.1953L210.221 72.7435H208.524L213.46 66.1164L208.679 59.7976H210.375L214.385 65.1917L218.395 59.7976H220.092Z" fill="white"/>
<path d="M239.063 59.7976L234.281 66.1164L239.217 72.7435H237.52L233.356 67.1953L229.192 72.7435H227.495L232.431 66.1164L227.649 59.7976H229.346L233.356 65.1917L237.366 59.7976H239.063Z" fill="white"/>
<path d="M251.093 59.7976L246.312 66.1164L251.247 72.7435H249.551L245.386 67.1953L241.222 72.7435H239.525L244.461 66.1164L239.68 59.7976H241.376L245.386 65.1917L249.396 59.7976H251.093Z" fill="white"/>
<path d="M304.458 1.54118V129.459H1.54234V1.54118H304.458ZM306 0H0V131H306V0Z" fill="white"/>
<path d="M5 37C5 34.7909 6.79086 33 9 33H178C180.209 33 182 34.7909 182 37V53C182 55.2091 180.209 57 178 57H9C6.79086 57 5 55.2091 5 53V37Z" stroke="#F2A900" stroke-width="2"/>
</svg>
