<svg width="203" height="169" viewBox="0 0 203 169" fill="none" xmlns="http://www.w3.org/2000/svg">
    <line x1="22.5778" y1="77.7351" x2="90.7254" y2="77.7351" stroke="#B0B0B0"/>
    <path d="M39.1131 41.1536L40.9051 41.1396L43.0751 33.7756L45.1191 41.1396H46.9251L49.8091 31.4096H48.1011L46.0711 39.2916L44.0411 31.4096H42.2491L40.0651 39.3336L38.0491 31.4096H36.3551L39.1131 41.1536ZM50.9534 37.2476C50.9534 39.6276 52.5634 41.2656 54.5654 41.2656C55.8534 41.2656 56.7774 40.6496 57.2674 39.9916V41.1396H58.8774V33.4256H57.2674V34.5456C56.7914 33.9156 55.8954 33.2996 54.5934 33.2996C52.5634 33.2996 50.9534 34.8676 50.9534 37.2476ZM57.2674 37.2756C57.2674 38.9416 56.1334 39.8796 54.9294 39.8796C53.7394 39.8796 52.5914 38.9136 52.5914 37.2476C52.5914 35.5816 53.7394 34.6856 54.9294 34.6856C56.1334 34.6856 57.2674 35.6236 57.2674 37.2756ZM67.0877 38.9836C67.0037 36.1976 62.6497 37.0656 62.6497 35.5116C62.6497 34.9936 63.0977 34.6436 63.9517 34.6436C64.8197 34.6436 65.3377 35.1056 65.3937 35.7776H66.9897C66.9057 34.2376 65.7577 33.2996 64.0077 33.2996C62.1877 33.2996 61.0397 34.2936 61.0397 35.5256C61.0397 38.3536 65.5197 37.4856 65.5197 38.9976C65.5197 39.5296 65.0297 39.9216 64.1057 39.9216C63.2237 39.9216 62.6217 39.4036 62.5657 38.7736H60.9137C60.9837 40.1736 62.2857 41.2656 64.1337 41.2656C65.9537 41.2656 67.0877 40.2856 67.0877 38.9836ZM69.1722 41.1396H70.7682V36.8276C70.7682 35.4136 71.5382 34.6856 72.7142 34.6856C73.8762 34.6856 74.6462 35.4136 74.6462 36.8276V41.1396H76.2282V36.5896C76.2282 34.4336 74.8842 33.2996 73.1622 33.2996C72.1682 33.2996 71.3002 33.6776 70.7682 34.3216V30.7796H69.1722V41.1396ZM36.3685 53.7116H38.9725V62.1396H40.5685V53.7116H43.1585V52.4096H36.3685V53.7116ZM48.3828 55.6436C49.5728 55.6436 50.5108 56.3996 50.5388 57.5896H46.2688C46.4368 56.3716 47.3048 55.6436 48.3828 55.6436ZM51.9948 59.8436H50.2728C49.9788 60.4456 49.4328 60.9216 48.4528 60.9216C47.2768 60.9216 46.3668 60.1516 46.2548 58.8776H52.1488C52.1908 58.6116 52.2048 58.3596 52.2048 58.0936C52.2048 55.8256 50.6508 54.2996 48.4528 54.2996C46.1708 54.2996 44.6028 55.8536 44.6028 58.2756C44.6028 60.6976 46.2408 62.2656 48.4528 62.2656C50.3428 62.2656 51.5608 61.1876 51.9948 59.8436ZM65.0694 62.1396H66.6514V57.5896C66.6514 55.4336 65.2794 54.2996 63.4734 54.2996C62.3534 54.2996 61.2614 54.8876 60.7854 55.8256C60.2534 54.8176 59.2314 54.2996 58.0134 54.2996C57.0894 54.2996 56.2494 54.6776 55.7314 55.3076V54.4256H54.1354V62.1396H55.7314V57.8276C55.7314 56.4136 56.5014 55.6856 57.6774 55.6856C58.8394 55.6856 59.6094 56.4136 59.6094 57.8276V62.1396H61.1914V57.8276C61.1914 56.4136 61.9614 55.6856 63.1374 55.6856C64.2994 55.6856 65.0694 56.4136 65.0694 57.8276V62.1396ZM70.6383 55.5596V54.4256H69.0423V65.8076H70.6383V61.0196C71.1423 61.6216 72.0523 62.2656 73.3263 62.2656C75.3563 62.2656 76.9523 60.6276 76.9523 58.2476C76.9523 55.8676 75.3563 54.2996 73.3263 54.2996C72.0663 54.2996 71.1283 54.9156 70.6383 55.5596ZM75.3283 58.2476C75.3283 59.9136 74.1803 60.8796 72.9763 60.8796C71.7863 60.8796 70.6383 59.9416 70.6383 58.2756C70.6383 56.6236 71.7863 55.6856 72.9763 55.6856C74.1803 55.6856 75.3283 56.5816 75.3283 58.2476Z" fill="white"/>
    <line x1="119.744" y1="77.7351" x2="187.892" y2="77.7351" stroke="#B0B0B0"/>
    <path d="M144.562 31.4096H141.384V41.1396H144.562C147.684 41.1396 149.728 39.3056 149.728 36.3096C149.728 33.2996 147.684 31.4096 144.562 31.4096ZM142.98 39.8376V32.7116H144.562C146.858 32.7116 148.09 34.0836 148.09 36.3096C148.09 38.5216 146.858 39.8376 144.562 39.8376H142.98ZM156.836 34.3216C156.836 35.2876 156.276 35.9736 155.03 35.9736H153.266V32.7116H155.03C156.276 32.7116 156.836 33.3416 156.836 34.3216ZM151.67 31.4096V41.1396H153.266V37.2476H154.484L156.724 41.1396H158.628L156.22 37.1076C157.858 36.7016 158.474 35.4696 158.474 34.3216C158.474 32.7396 157.34 31.4096 155.03 31.4096H151.67ZM163.27 37.6116V41.1396H164.866V37.6116L168.086 31.4096H166.322L164.068 36.1836L161.814 31.4096H160.036L163.27 37.6116ZM136.573 59.3536C136.573 60.2916 135.915 60.8376 134.837 60.8376H132.681V57.7996H134.781C135.845 57.7996 136.573 58.3876 136.573 59.3536ZM136.321 55.1116C136.321 56.0076 135.691 56.4976 134.655 56.4976H132.681V53.7116H134.655C135.691 53.7116 136.321 54.2296 136.321 55.1116ZM138.169 59.5216C138.169 58.3596 137.329 57.3236 136.293 57.1416C137.231 56.8056 137.945 56.0916 137.945 54.9156C137.945 53.5436 136.853 52.4096 134.795 52.4096H131.085V62.1396H134.977C136.965 62.1396 138.169 61.0056 138.169 59.5216ZM149.671 57.2536C149.671 54.3416 147.473 52.2836 144.701 52.2836C141.957 52.2836 139.731 54.3416 139.731 57.2536C139.731 60.1796 141.957 62.2376 144.701 62.2376C147.473 62.2376 149.671 60.1796 149.671 57.2536ZM141.369 57.2536C141.369 55.0556 142.769 53.6836 144.701 53.6836C146.633 53.6836 148.033 55.0556 148.033 57.2536C148.033 59.4516 146.633 60.8516 144.701 60.8516C142.769 60.8516 141.369 59.4516 141.369 57.2536ZM161.01 57.2536C161.01 54.3416 158.812 52.2836 156.04 52.2836C153.296 52.2836 151.07 54.3416 151.07 57.2536C151.07 60.1796 153.296 62.2376 156.04 62.2376C158.812 62.2376 161.01 60.1796 161.01 57.2536ZM152.708 57.2536C152.708 55.0556 154.108 53.6836 156.04 53.6836C157.972 53.6836 159.372 55.0556 159.372 57.2536C159.372 59.4516 157.972 60.8516 156.04 60.8516C154.108 60.8516 152.708 59.4516 152.708 57.2536ZM169.506 59.3816C169.506 55.8256 164.354 57.1976 164.354 54.9996C164.354 54.0616 165.068 53.6136 165.992 53.6416C167 53.6696 167.574 54.2716 167.63 54.9296H169.394C169.254 53.2636 167.938 52.2836 166.076 52.2836C164.088 52.2836 162.73 53.3476 162.73 55.0556C162.73 58.6396 167.896 57.1136 167.896 59.4656C167.896 60.2916 167.266 60.8936 166.146 60.8936C165.04 60.8936 164.48 60.2496 164.41 59.4516H162.702C162.702 61.1736 164.2 62.2376 166.146 62.2376C168.316 62.2376 169.506 60.8376 169.506 59.3816ZM171.245 53.7116H173.849V62.1396H175.445V53.7116H178.035V52.4096H171.245V53.7116Z" fill="white"/>
    <path d="M105.79 53.5156V56.4136H102.962V57.7576H105.79V60.6556H107.274V57.7576H110.102V56.4136H107.274V53.5156H105.79Z" fill="white"/>
    <path opacity="0.5" d="M37.1602 5.60254V2.87854H38.6722C39.7402 2.87854 40.2202 3.38254 40.2202 4.24654C40.2202 5.08654 39.7402 5.60254 38.6722 5.60254H37.1602ZM41.6242 4.24654C41.6242 2.89054 40.6522 1.76254 38.6722 1.76254H35.7922V10.1025H37.1602V6.71854H38.6722C40.8442 6.71854 41.6242 5.43454 41.6242 4.24654ZM44.6569 6.62254C44.6569 5.21854 45.2809 4.79854 46.2889 4.79854H46.6369V3.38254C45.7009 3.38254 45.0409 3.79054 44.6569 4.45054V3.49054H43.2889V10.1025H44.6569V6.62254ZM51.0384 4.53454C52.0584 4.53454 52.8624 5.18254 52.8864 6.20254H49.2264C49.3704 5.15854 50.1144 4.53454 51.0384 4.53454ZM54.1344 8.13454H52.6584C52.4064 8.65054 51.9384 9.05854 51.0984 9.05854C50.0904 9.05854 49.3104 8.39854 49.2144 7.30654H54.2664C54.3024 7.07854 54.3144 6.86254 54.3144 6.63454C54.3144 4.69054 52.9824 3.38254 51.0984 3.38254C49.1424 3.38254 47.7984 4.71454 47.7984 6.79054C47.7984 8.86654 49.2024 10.2105 51.0984 10.2105C52.7184 10.2105 53.7624 9.28654 54.1344 8.13454ZM60.9526 8.25454C60.8806 5.86654 57.1486 6.61054 57.1486 5.27854C57.1486 4.83454 57.5326 4.53454 58.2646 4.53454C59.0086 4.53454 59.4526 4.93054 59.5006 5.50654H60.8686C60.7966 4.18654 59.8126 3.38254 58.3126 3.38254C56.7526 3.38254 55.7686 4.23454 55.7686 5.29054C55.7686 7.71454 59.6086 6.97054 59.6086 8.26654C59.6086 8.72254 59.1886 9.05854 58.3966 9.05854C57.6406 9.05854 57.1246 8.61454 57.0766 8.07454H55.6606C55.7206 9.27454 56.8366 10.2105 58.4206 10.2105C59.9806 10.2105 60.9526 9.37054 60.9526 8.25454ZM67.7228 8.25454C67.6508 5.86654 63.9188 6.61054 63.9188 5.27854C63.9188 4.83454 64.3028 4.53454 65.0348 4.53454C65.7788 4.53454 66.2228 4.93054 66.2708 5.50654H67.6388C67.5668 4.18654 66.5828 3.38254 65.0828 3.38254C63.5228 3.38254 62.5388 4.23454 62.5388 5.29054C62.5388 7.71454 66.3788 6.97054 66.3788 8.26654C66.3788 8.72254 65.9588 9.05854 65.1668 9.05854C64.4108 9.05854 63.8948 8.61454 63.8468 8.07454H62.4308C62.4908 9.27454 63.6068 10.2105 65.1908 10.2105C66.7508 10.2105 67.7228 9.37054 67.7228 8.25454ZM72.5821 6.76654C72.5821 8.80654 73.9621 10.2105 75.6781 10.2105C76.7821 10.2105 77.5741 9.68254 77.9941 9.11854V10.1025H79.3741V3.49054H77.9941V4.45054C77.5861 3.91054 76.8181 3.38254 75.7021 3.38254C73.9621 3.38254 72.5821 4.72654 72.5821 6.76654ZM77.9941 6.79054C77.9941 8.21854 77.0221 9.02254 75.9901 9.02254C74.9701 9.02254 73.9861 8.19454 73.9861 6.76654C73.9861 5.33854 74.9701 4.57054 75.9901 4.57054C77.0221 4.57054 77.9941 5.37454 77.9941 6.79054ZM86.2229 10.1025H87.5789V6.20254C87.5789 4.35454 86.4149 3.38254 84.8669 3.38254C84.0749 3.38254 83.3429 3.70654 82.8989 4.24654V3.49054H81.5309V10.1025H82.8989V6.40654C82.8989 5.19454 83.5589 4.57054 84.5669 4.57054C85.5629 4.57054 86.2229 5.19454 86.2229 6.40654V10.1025ZM89.2279 6.76654C89.2279 8.80654 90.6079 10.2105 92.3479 10.2105C93.4279 10.2105 94.2199 9.70654 94.6399 9.10654V10.1025H96.0199V1.22254H94.6399V4.41454C94.1359 3.79054 93.2239 3.38254 92.3599 3.38254C90.6079 3.38254 89.2279 4.72654 89.2279 6.76654ZM94.6399 6.79054C94.6399 8.21854 93.6679 9.02254 92.6359 9.02254C91.6159 9.02254 90.6319 8.19454 90.6319 6.76654C90.6319 5.33854 91.6159 4.57054 92.6359 4.57054C93.6679 4.57054 94.6399 5.37454 94.6399 6.79054ZM101.654 10.1025H103.022V6.40654C103.022 5.19454 103.682 4.57054 104.69 4.57054C105.686 4.57054 106.346 5.19454 106.346 6.40654V10.1025H107.702V6.20254C107.702 4.35454 106.55 3.38254 105.074 3.38254C104.222 3.38254 103.478 3.70654 103.022 4.25854V1.22254H101.654V10.1025ZM116.107 6.79054C116.107 4.71454 114.619 3.38254 112.735 3.38254C110.851 3.38254 109.363 4.71454 109.363 6.79054C109.363 8.86654 110.791 10.2105 112.675 10.2105C114.571 10.2105 116.107 8.86654 116.107 6.79054ZM110.755 6.79054C110.755 5.29054 111.679 4.57054 112.711 4.57054C113.731 4.57054 114.703 5.29054 114.703 6.79054C114.703 8.29054 113.695 9.02254 112.675 9.02254C111.643 9.02254 110.755 8.29054 110.755 6.79054ZM117.819 10.1025H119.187V1.22254H117.819V10.1025ZM120.887 6.76654C120.887 8.80654 122.267 10.2105 124.007 10.2105C125.087 10.2105 125.879 9.70654 126.299 9.10654V10.1025H127.679V1.22254H126.299V4.41454C125.795 3.79054 124.883 3.38254 124.019 3.38254C122.267 3.38254 120.887 4.72654 120.887 6.76654ZM126.299 6.79054C126.299 8.21854 125.327 9.02254 124.295 9.02254C123.275 9.02254 122.291 8.19454 122.291 6.76654C122.291 5.33854 123.275 4.57054 124.295 4.57054C125.327 4.57054 126.299 5.37454 126.299 6.79054ZM133.481 10.1025H134.861V4.60654H136.085V3.49054H134.861V3.02254C134.861 2.26654 135.149 1.97854 135.989 1.97854V0.838539C134.261 0.838539 133.481 1.49854 133.481 3.02254V3.49054H132.701V4.60654H133.481V10.1025ZM143.958 6.79054C143.958 4.71454 142.47 3.38254 140.586 3.38254C138.702 3.38254 137.214 4.71454 137.214 6.79054C137.214 8.86654 138.642 10.2105 140.526 10.2105C142.422 10.2105 143.958 8.86654 143.958 6.79054ZM138.606 6.79054C138.606 5.29054 139.53 4.57054 140.562 4.57054C141.582 4.57054 142.554 5.29054 142.554 6.79054C142.554 8.29054 141.546 9.02254 140.526 9.02254C139.494 9.02254 138.606 8.29054 138.606 6.79054ZM147.038 6.62254C147.038 5.21854 147.662 4.79854 148.67 4.79854H149.018V3.38254C148.082 3.38254 147.422 3.79054 147.038 4.45054V3.49054H145.67V10.1025H147.038V6.62254ZM153.909 3.51454H155.241C155.325 2.90254 155.769 2.32654 156.729 2.32654C157.665 2.32654 158.157 2.83054 158.157 3.58654C158.157 4.52254 157.401 4.88254 156.165 4.89454H155.841V6.02254H156.153C157.581 6.02254 158.325 6.41854 158.325 7.57054C158.325 8.38654 157.821 9.01054 156.801 9.01054C155.769 9.01054 155.169 8.38654 155.109 7.57054H153.789C153.873 9.28654 155.157 10.1505 156.813 10.1505C158.637 10.1505 159.621 9.09454 159.621 7.70254C159.621 6.49054 159.033 5.73454 158.121 5.45854V5.41054C158.805 5.18254 159.465 4.47454 159.465 3.43054C159.465 2.15854 158.517 1.15054 156.777 1.15054C155.181 1.15054 154.005 2.00254 153.909 3.51454ZM166.53 8.25454C166.458 5.86654 162.726 6.61054 162.726 5.27854C162.726 4.83454 163.11 4.53454 163.842 4.53454C164.586 4.53454 165.03 4.93054 165.078 5.50654H166.446C166.374 4.18654 165.39 3.38254 163.89 3.38254C162.33 3.38254 161.346 4.23454 161.346 5.29054C161.346 7.71454 165.186 6.97054 165.186 8.26654C165.186 8.72254 164.766 9.05854 163.974 9.05854C163.218 9.05854 162.702 8.61454 162.654 8.07454H161.238C161.298 9.27454 162.414 10.2105 163.998 10.2105C165.558 10.2105 166.53 9.37054 166.53 8.25454Z" fill="white"/>
    <path opacity="0.5" d="M6.04925 115.429H4.68125V119.113C4.68125 120.325 4.02125 120.949 3.01325 120.949C2.01725 120.949 1.35725 120.325 1.35725 119.113V115.429H0.00124726V119.317C0.00124726 121.165 1.17725 122.137 2.72525 122.137C3.50525 122.137 4.24925 121.813 4.68125 121.249V122.041H6.04925V115.429ZM12.9062 122.041H14.2622V118.141C14.2622 116.293 13.0982 115.321 11.5502 115.321C10.7582 115.321 10.0262 115.645 9.58222 116.185V115.429H8.21422V122.041H9.58222V118.345C9.58222 117.133 10.2422 116.509 11.2502 116.509C12.2462 116.509 12.9062 117.133 12.9062 118.345V122.041ZM16.5832 120.205C16.5832 121.549 17.3152 122.041 18.4912 122.041H19.5712V120.901H18.7312C18.1552 120.901 17.9632 120.697 17.9632 120.205V116.545H19.5712V115.429H17.9632V113.785H16.5832V115.429H15.8032V116.545H16.5832V120.205ZM21.192 122.041H22.56V115.429H21.192V122.041ZM21.888 114.553C22.368 114.553 22.752 114.169 22.752 113.677C22.752 113.185 22.368 112.801 21.888 112.801C21.396 112.801 21.012 113.185 21.012 113.677C21.012 114.169 21.396 114.553 21.888 114.553ZM24.7161 122.041H26.0841V113.161H24.7161V122.041ZM31.9333 120.205C31.9333 121.549 32.6653 122.041 33.8413 122.041H34.9213V120.901H34.0813C33.5053 120.901 33.3133 120.697 33.3133 120.205V116.545H34.9213V115.429H33.3133V113.785H31.9333V115.429H31.1533V116.545H31.9333V120.205ZM36.5422 122.041H37.9102V118.345C37.9102 117.133 38.5702 116.509 39.5782 116.509C40.5742 116.509 41.2342 117.133 41.2342 118.345V122.041H42.5902V118.141C42.5902 116.293 41.4382 115.321 39.9622 115.321C39.1102 115.321 38.3662 115.645 37.9102 116.197V113.161H36.5422V122.041ZM47.4792 116.473C48.4992 116.473 49.3032 117.121 49.3272 118.141H45.6672C45.8112 117.097 46.5552 116.473 47.4792 116.473ZM50.5752 120.073H49.0992C48.8472 120.589 48.3792 120.997 47.5392 120.997C46.5312 120.997 45.7512 120.337 45.6552 119.245H50.7072C50.7432 119.017 50.7552 118.801 50.7552 118.573C50.7552 116.629 49.4232 115.321 47.5392 115.321C45.5832 115.321 44.2392 116.653 44.2392 118.729C44.2392 120.805 45.6432 122.149 47.5392 122.149C49.1592 122.149 50.2032 121.225 50.5752 120.073ZM55.9386 122.041H57.3066V115.429H55.9386V122.041ZM56.6346 114.553C57.1146 114.553 57.4986 114.169 57.4986 113.677C57.4986 113.185 57.1146 112.801 56.6346 112.801C56.1426 112.801 55.7586 113.185 55.7586 113.677C55.7586 114.169 56.1426 114.553 56.6346 114.553ZM64.1547 122.041H65.5107V118.141C65.5107 116.293 64.3467 115.321 62.7987 115.321C62.0067 115.321 61.2747 115.645 60.8307 116.185V115.429H59.4627V122.041H60.8307V118.345C60.8307 117.133 61.4907 116.509 62.4987 116.509C63.4947 116.509 64.1547 117.133 64.1547 118.345V122.041ZM67.1596 118.705C67.1596 120.745 68.5396 122.149 70.2796 122.149C71.3596 122.149 72.1516 121.645 72.5716 121.045V122.041H73.9516V113.161H72.5716V116.353C72.0676 115.729 71.1556 115.321 70.2916 115.321C68.5396 115.321 67.1596 116.665 67.1596 118.705ZM72.5716 118.729C72.5716 120.157 71.5996 120.961 70.5676 120.961C69.5476 120.961 68.5636 120.133 68.5636 118.705C68.5636 117.277 69.5476 116.509 70.5676 116.509C71.5996 116.509 72.5716 117.313 72.5716 118.729ZM76.1084 122.041H77.4764V115.429H76.1084V122.041ZM76.8044 114.553C77.2844 114.553 77.6684 114.169 77.6684 113.677C77.6684 113.185 77.2844 112.801 76.8044 112.801C76.3124 112.801 75.9284 113.185 75.9284 113.677C75.9284 114.169 76.3124 114.553 76.8044 114.553ZM79.1765 118.729C79.1765 120.805 80.5205 122.149 82.4165 122.149C84.0365 122.149 85.0925 121.249 85.4645 119.953H83.9885C83.7365 120.637 83.2325 120.997 82.4165 120.997C81.3125 120.997 80.5805 120.181 80.5805 118.729C80.5805 117.289 81.3125 116.473 82.4165 116.473C83.2325 116.473 83.7605 116.881 83.9885 117.517H85.4645C85.0925 116.125 84.0365 115.321 82.4165 115.321C80.5205 115.321 79.1765 116.665 79.1765 118.729ZM86.7318 118.705C86.7318 120.745 88.1118 122.149 89.8278 122.149C90.9318 122.149 91.7238 121.621 92.1438 121.057V122.041H93.5238V115.429H92.1438V116.389C91.7358 115.849 90.9678 115.321 89.8518 115.321C88.1118 115.321 86.7318 116.665 86.7318 118.705ZM92.1438 118.729C92.1438 120.157 91.1718 120.961 90.1398 120.961C89.1198 120.961 88.1358 120.133 88.1358 118.705C88.1358 117.277 89.1198 116.509 90.1398 116.509C91.1718 116.509 92.1438 117.313 92.1438 118.729ZM95.8966 120.205C95.8966 121.549 96.6286 122.041 97.8046 122.041H98.8846V120.901H98.0446C97.4686 120.901 97.2766 120.697 97.2766 120.205V116.545H98.8846V115.429H97.2766V113.785H95.8966V115.429H95.1166V116.545H95.8966V120.205ZM106.805 118.729C106.805 116.653 105.317 115.321 103.433 115.321C101.549 115.321 100.061 116.653 100.061 118.729C100.061 120.805 101.489 122.149 103.373 122.149C105.269 122.149 106.805 120.805 106.805 118.729ZM101.453 118.729C101.453 117.229 102.377 116.509 103.409 116.509C104.429 116.509 105.401 117.229 105.401 118.729C105.401 120.229 104.393 120.961 103.373 120.961C102.341 120.961 101.453 120.229 101.453 118.729ZM109.886 118.561C109.886 117.157 110.51 116.737 111.518 116.737H111.866V115.321C110.93 115.321 110.27 115.729 109.886 116.389V115.429H108.518V122.041H109.886V118.561ZM121.892 120.193C121.82 117.805 118.088 118.549 118.088 117.217C118.088 116.773 118.472 116.473 119.204 116.473C119.948 116.473 120.392 116.869 120.44 117.445H121.808C121.736 116.125 120.752 115.321 119.252 115.321C117.692 115.321 116.708 116.173 116.708 117.229C116.708 119.653 120.548 118.909 120.548 120.205C120.548 120.661 120.128 120.997 119.336 120.997C118.58 120.997 118.064 120.553 118.016 120.013H116.6C116.66 121.213 117.776 122.149 119.36 122.149C120.92 122.149 121.892 121.309 121.892 120.193ZM123.947 120.205C123.947 121.549 124.679 122.041 125.855 122.041H126.935V120.901H126.095C125.519 120.901 125.327 120.697 125.327 120.205V116.545H126.935V115.429H125.327V113.785H123.947V115.429H123.167V116.545H123.947V120.205ZM128.099 118.705C128.099 120.745 129.479 122.149 131.195 122.149C132.299 122.149 133.091 121.621 133.511 121.057V122.041H134.891V115.429H133.511V116.389C133.103 115.849 132.335 115.321 131.219 115.321C129.479 115.321 128.099 116.665 128.099 118.705ZM133.511 118.729C133.511 120.157 132.539 120.961 131.507 120.961C130.487 120.961 129.503 120.133 129.503 118.705C129.503 117.277 130.487 116.509 131.507 116.509C132.539 116.509 133.511 117.313 133.511 118.729ZM138.416 118.561C138.416 117.157 139.04 116.737 140.048 116.737H140.396V115.321C139.46 115.321 138.8 115.729 138.416 116.389V115.429H137.048V122.041H138.416V118.561ZM142.23 120.205C142.23 121.549 142.962 122.041 144.138 122.041H145.218V120.901H144.378C143.802 120.901 143.61 120.697 143.61 120.205V116.545H145.218V115.429H143.61V113.785H142.23V115.429H141.45V116.545H142.23V120.205ZM151.771 120.193C151.699 117.805 147.967 118.549 147.967 117.217C147.967 116.773 148.351 116.473 149.083 116.473C149.827 116.473 150.271 116.869 150.319 117.445H151.687C151.615 116.125 150.631 115.321 149.131 115.321C147.571 115.321 146.587 116.173 146.587 117.229C146.587 119.653 150.427 118.909 150.427 120.205C150.427 120.661 150.007 120.997 149.215 120.997C148.459 120.997 147.943 120.553 147.895 120.013H146.479C146.539 121.213 147.655 122.149 149.239 122.149C150.799 122.149 151.771 121.309 151.771 120.193ZM157.302 120.205C157.302 121.549 158.034 122.041 159.21 122.041H160.29V120.901H159.45C158.874 120.901 158.682 120.697 158.682 120.205V116.545H160.29V115.429H158.682V113.785H157.302V115.429H156.522V116.545H157.302V120.205ZM168.211 118.729C168.211 116.653 166.723 115.321 164.839 115.321C162.955 115.321 161.467 116.653 161.467 118.729C161.467 120.805 162.895 122.149 164.779 122.149C166.675 122.149 168.211 120.805 168.211 118.729ZM162.859 118.729C162.859 117.229 163.783 116.509 164.815 116.509C165.835 116.509 166.807 117.229 166.807 118.729C166.807 120.229 165.799 120.961 164.779 120.961C163.747 120.961 162.859 120.229 162.859 118.729ZM174.768 116.413V113.161H173.4V122.041H174.768V121.081C175.2 121.657 175.98 122.149 177.072 122.149C178.812 122.149 180.18 120.745 180.18 118.705C180.18 116.665 178.824 115.321 177.072 115.321C176.028 115.321 175.2 115.813 174.768 116.413ZM178.788 118.705C178.788 120.133 177.804 120.961 176.772 120.961C175.752 120.961 174.768 120.157 174.768 118.729C174.768 117.313 175.752 116.509 176.772 116.509C177.804 116.509 178.788 117.277 178.788 118.705ZM181.893 122.041H183.261V113.161H181.893V122.041ZM185.417 122.041H186.785V115.429H185.417V122.041ZM186.113 114.553C186.593 114.553 186.977 114.169 186.977 113.677C186.977 113.185 186.593 112.801 186.113 112.801C185.621 112.801 185.237 113.185 185.237 113.677C185.237 114.169 185.621 114.553 186.113 114.553ZM193.633 122.041H194.989V118.141C194.989 116.293 193.825 115.321 192.277 115.321C191.485 115.321 190.753 115.645 190.309 116.185V115.429H188.941V122.041H190.309V118.345C190.309 117.133 190.969 116.509 191.977 116.509C192.973 116.509 193.633 117.133 193.633 118.345V122.041ZM197.094 122.041H198.462V119.197L200.91 122.041H202.758L199.71 118.741L202.758 115.429H200.862L198.462 118.321V113.161H197.094V122.041Z" fill="white"/>
    <circle cx="68.6538" cy="155.532" r="3" fill="white"/>
    <g filter="url(#filter0_f_2_4333)">
        <circle cx="68.6538" cy="155.532" r="3" fill="white"/>
    </g>
    <path fill-rule="evenodd" clip-rule="evenodd" d="M93.9035 160.925L94.0099 161.032L94.1156 160.924L95.6313 159.092C95.1924 158.711 94.6308 158.471 94.0099 158.471C93.3882 158.471 92.8259 158.711 92.387 159.092L93.9035 160.925V160.925ZM90.1702 156.413C91.2424 155.485 92.5868 154.976 94.01 154.976C95.4315 154.976 96.776 155.485 97.8489 156.413L98.827 155.231C97.4802 154.067 95.7941 153.429 94.01 153.429C92.2251 153.429 90.5382 154.067 89.1922 155.231L90.1702 156.414V156.413ZM85.9501 151.314C88.2009 149.37 91.024 148.307 94.0098 148.307C96.9949 148.307 99.818 149.37 102.069 151.314L101.088 152.501C99.1099 150.791 96.6324 149.854 94.0098 149.854C91.3873 149.854 88.909 150.791 86.9313 152.5L85.9501 151.314Z" fill="white"/>
    <path d="M108.972 160.046L110.764 160.032L112.934 152.668L114.978 160.032H116.784L119.668 150.302H117.96L115.93 158.184L113.9 150.302H112.108L109.924 158.226L107.908 150.302H106.214L108.972 160.046ZM121.344 160.032H122.94V152.318H121.344V160.032ZM122.156 151.296C122.716 151.296 123.164 150.848 123.164 150.274C123.164 149.7 122.716 149.252 122.156 149.252C121.582 149.252 121.134 149.7 121.134 150.274C121.134 150.848 121.582 151.296 122.156 151.296ZM125.592 160.032H127.202V153.62H128.63V152.318H127.202V151.772C127.202 150.89 127.538 150.554 128.518 150.554V149.224C126.502 149.224 125.592 149.994 125.592 151.772V152.318H124.682V153.62H125.592V160.032ZM130.404 160.032H132V152.318H130.404V160.032ZM131.216 151.296C131.776 151.296 132.224 150.848 132.224 150.274C132.224 149.7 131.776 149.252 131.216 149.252C130.642 149.252 130.194 149.7 130.194 150.274C130.194 150.848 130.642 151.296 131.216 151.296Z" fill="white"/>
    <defs>
        <filter id="filter0_f_2_4333" x="55.6538" y="142.532" width="26" height="26" filterUnits="userSpaceOnUse" color-interpolation-filters="sRGB">
            <feFlood flood-opacity="0" result="BackgroundImageFix"/>
            <feBlend mode="normal" in="SourceGraphic" in2="BackgroundImageFix" result="shape"/>
            <feGaussianBlur stdDeviation="5" result="effect1_foregroundBlur_2_4333"/>
        </filter>
    </defs>
</svg>
