<svg width="300" height="169" viewBox="0 0 300 169" fill="none" xmlns="http://www.w3.org/2000/svg">
<path fill-rule="evenodd" clip-rule="evenodd" d="M76.5554 83.4545L67.0811 77.2434V73.6475L82.1093 84.1083L67.0811 94.5691V90.9732L76.5554 84.7621L77.2088 84.4352L76.8821 83.7814L76.5554 83.4545Z" fill="#F2A900"/>
<path fill-rule="evenodd" clip-rule="evenodd" d="M65.7712 83.4545L56.2969 77.2434V73.6475L71.3251 84.1083L56.2969 94.5691V90.9732L65.7712 84.7621L66.0979 84.4352V83.7814L65.7712 83.4545Z" fill="#F2A900"/>
<path d="M90.8389 84.2436H92.3202C92.3202 98.3155 80.9639 109.672 66.892 109.672C52.8201 109.672 41.4639 98.3155 41.4639 84.2436C41.4639 70.1717 52.8201 58.8154 66.892 58.8154C80.9639 58.8154 92.3202 70.1717 92.3202 84.2436H89.1108C89.1108 78.0717 86.642 72.3936 82.692 68.4436C78.742 64.4935 73.0639 62.0248 66.892 62.0248C60.7201 62.0248 55.042 64.4935 51.092 68.4436C47.142 72.3936 44.6732 78.0717 44.6732 84.2436C44.6732 90.4155 47.142 96.0936 51.092 100.044C55.042 103.994 60.7201 106.462 66.892 106.462C73.0639 106.462 78.742 103.994 82.692 100.044C86.642 96.0936 89.1108 90.4155 89.1108 84.2436H90.8389Z" fill="#F2A900"/>
<path d="M252.213 84.2437H253.694C253.694 98.3156 242.338 109.672 228.266 109.672C214.194 109.672 202.838 98.3156 202.838 84.2437C202.838 70.1717 214.194 58.8154 228.266 58.8154C242.338 58.8154 253.694 70.1717 253.694 84.2437H250.485C250.485 78.0718 248.016 72.3936 244.066 68.4436C240.116 64.4936 234.438 62.0248 228.266 62.0248C222.094 62.0248 216.416 64.4936 212.466 68.4436C208.516 72.3936 206.047 78.0718 206.047 84.2437C206.047 90.4156 208.516 96.0937 212.466 100.044C216.416 103.994 222.094 106.463 228.266 106.463C234.438 106.463 240.116 103.994 244.066 100.044C248.016 96.0937 250.485 90.4156 250.485 84.2437H252.213Z" fill="#F2A900"/>
<path d="M227.408 86.3341L226.32 83.0706L240.091 78.7192L241.178 81.9828" fill="#F2A900"/>
<path d="M230.307 82.7079H227.046V71.4668H230.307" fill="#F2A900"/>
<path d="M231.031 84.1577L228.132 86.3334L234.655 95.3987L237.554 93.2231" fill="#F2A900"/>
<path d="M228.133 81.9828L227.046 85.2463L216.174 81.9828L217.261 78.7192" fill="#F2A900"/>
<path d="M226.683 84.1577L229.22 86.3334L222.697 95.3987L219.798 93.2231" fill="#F2A900"/>
<path fill-rule="evenodd" clip-rule="evenodd" d="M0.5 21C0.5 20.1716 1.17157 19.5 2 19.5H137C137.828 19.5 138.5 20.1716 138.5 21C138.5 21.8284 137.828 22.5 137 22.5H2C1.17157 22.5 0.5 21.8284 0.5 21Z" fill="white"/>
<path fill-rule="evenodd" clip-rule="evenodd" d="M0.5 148C0.5 147.172 1.17157 146.5 2 146.5H137C137.828 146.5 138.5 147.172 138.5 148C138.5 148.828 137.828 149.5 137 149.5H2C1.17157 149.5 0.5 148.828 0.5 148Z" fill="white"/>
<path fill-rule="evenodd" clip-rule="evenodd" d="M150.686 0.25C151.1 0.25 151.436 0.585786 151.436 1V63.6877C151.436 63.975 151.535 64.2534 151.716 64.4763L161.161 76.094C162.201 77.3725 161.89 79.2719 160.498 80.1528L142.554 91.5039C141.869 91.937 141.771 92.8973 142.354 93.4599L150.595 101.411C151.133 101.929 151.436 102.643 151.436 103.39V168C151.436 168.414 151.1 168.75 150.686 168.75C150.272 168.75 149.936 168.414 149.936 168V103.39C149.936 103.05 149.798 102.726 149.554 102.49L141.313 94.5394C140.03 93.3017 140.245 91.1892 141.752 90.2362L159.696 78.8851C160.329 78.4847 160.47 77.6214 159.998 77.0402L150.552 65.4225C150.154 64.9322 149.936 64.3196 149.936 63.6877V1C149.936 0.585786 150.272 0.25 150.686 0.25Z" fill="#898A8D"/>
<path fill-rule="evenodd" clip-rule="evenodd" d="M160.5 21C160.5 20.1716 161.172 19.5 162 19.5H298C298.828 19.5 299.5 20.1716 299.5 21C299.5 21.8284 298.828 22.5 298 22.5H162C161.172 22.5 160.5 21.8284 160.5 21Z" fill="white"/>
<path fill-rule="evenodd" clip-rule="evenodd" d="M160.5 148C160.5 147.172 161.172 146.5 162 146.5H298C298.828 146.5 299.5 147.172 299.5 148C299.5 148.828 298.828 149.5 298 149.5H162C161.172 149.5 160.5 148.828 160.5 148Z" fill="white"/>
</svg>
