<svg width="228" height="182" viewBox="0 0 228 182" fill="none" xmlns="http://www.w3.org/2000/svg">
<path opacity="0.5" d="M19.0492 128.159V134.771H17.6812V133.991C17.4652 134.263 17.1812 134.479 16.8292 134.639C16.4852 134.791 16.1172 134.867 15.7252 134.867C15.2052 134.867 14.7372 134.759 14.3212 134.543C13.9132 134.327 13.5892 134.007 13.3492 133.583C13.1172 133.159 13.0012 132.647 13.0012 132.047V128.159H14.3572V131.843C14.3572 132.435 14.5052 132.891 14.8012 133.211C15.0972 133.523 15.5012 133.679 16.0132 133.679C16.5252 133.679 16.9292 133.523 17.2252 133.211C17.5292 132.891 17.6812 132.435 17.6812 131.843V128.159H19.0492ZM24.5502 128.051C25.0702 128.051 25.5342 128.159 25.9422 128.375C26.3582 128.591 26.6822 128.911 26.9142 129.335C27.1462 129.759 27.2622 130.271 27.2622 130.871V134.771H25.9062V131.075C25.9062 130.483 25.7582 130.031 25.4622 129.719C25.1662 129.399 24.7622 129.239 24.2502 129.239C23.7382 129.239 23.3302 129.399 23.0262 129.719C22.7302 130.031 22.5822 130.483 22.5822 131.075V134.771H21.2142V128.159H22.5822V128.915C22.8062 128.643 23.0902 128.431 23.4342 128.279C23.7862 128.127 24.1582 128.051 24.5502 128.051ZM30.9632 129.275V132.935C30.9632 133.183 31.0192 133.363 31.1312 133.475C31.2512 133.579 31.4512 133.631 31.7312 133.631H32.5712V134.771H31.4912C30.8752 134.771 30.4032 134.627 30.0752 134.339C29.7472 134.051 29.5832 133.583 29.5832 132.935V129.275H28.8032V128.159H29.5832V126.515H30.9632V128.159H32.5712V129.275H30.9632ZM34.888 127.283C34.64 127.283 34.432 127.199 34.264 127.031C34.096 126.863 34.012 126.655 34.012 126.407C34.012 126.159 34.096 125.951 34.264 125.783C34.432 125.615 34.64 125.531 34.888 125.531C35.128 125.531 35.332 125.615 35.5 125.783C35.668 125.951 35.752 126.159 35.752 126.407C35.752 126.655 35.668 126.863 35.5 127.031C35.332 127.199 35.128 127.283 34.888 127.283ZM35.56 128.159V134.771H34.192V128.159H35.56ZM39.0841 125.891V134.771H37.7161V125.891H39.0841ZM46.3133 129.275V132.935C46.3133 133.183 46.3693 133.363 46.4813 133.475C46.6013 133.579 46.8013 133.631 47.0813 133.631H47.9213V134.771H46.8413C46.2253 134.771 45.7533 134.627 45.4253 134.339C45.0973 134.051 44.9333 133.583 44.9333 132.935V129.275H44.1533V128.159H44.9333V126.515H46.3133V128.159H47.9213V129.275H46.3133ZM52.9622 128.051C53.4662 128.051 53.9142 128.159 54.3062 128.375C54.7062 128.591 55.0182 128.911 55.2422 129.335C55.4742 129.759 55.5902 130.271 55.5902 130.871V134.771H54.2342V131.075C54.2342 130.483 54.0862 130.031 53.7902 129.719C53.4942 129.399 53.0902 129.239 52.5782 129.239C52.0662 129.239 51.6582 129.399 51.3542 129.719C51.0582 130.031 50.9102 130.483 50.9102 131.075V134.771H49.5422V125.891H50.9102V128.927C51.1422 128.647 51.4342 128.431 51.7862 128.279C52.1462 128.127 52.5382 128.051 52.9622 128.051ZM63.7552 131.303C63.7552 131.551 63.7392 131.775 63.7072 131.975H58.6552C58.6952 132.503 58.8912 132.927 59.2432 133.247C59.5952 133.567 60.0272 133.727 60.5392 133.727C61.2752 133.727 61.7952 133.419 62.0992 132.803H63.5752C63.3752 133.411 63.0112 133.911 62.4832 134.303C61.9632 134.687 61.3152 134.879 60.5392 134.879C59.9072 134.879 59.3392 134.739 58.8352 134.459C58.3392 134.171 57.9472 133.771 57.6592 133.259C57.3792 132.739 57.2392 132.139 57.2392 131.459C57.2392 130.779 57.3752 130.183 57.6472 129.671C57.9272 129.151 58.3152 128.751 58.8112 128.471C59.3152 128.191 59.8912 128.051 60.5392 128.051C61.1632 128.051 61.7192 128.187 62.2072 128.459C62.6952 128.731 63.0752 129.115 63.3472 129.611C63.6192 130.099 63.7552 130.663 63.7552 131.303ZM62.3272 130.871C62.3192 130.367 62.1392 129.963 61.7872 129.659C61.4352 129.355 60.9992 129.203 60.4792 129.203C60.0072 129.203 59.6032 129.355 59.2672 129.659C58.9312 129.955 58.7312 130.359 58.6672 130.871H62.3272ZM69.6346 127.283C69.3866 127.283 69.1786 127.199 69.0106 127.031C68.8426 126.863 68.7586 126.655 68.7586 126.407C68.7586 126.159 68.8426 125.951 69.0106 125.783C69.1786 125.615 69.3866 125.531 69.6346 125.531C69.8746 125.531 70.0786 125.615 70.2466 125.783C70.4146 125.951 70.4986 126.159 70.4986 126.407C70.4986 126.655 70.4146 126.863 70.2466 127.031C70.0786 127.199 69.8746 127.283 69.6346 127.283ZM70.3066 128.159V134.771H68.9386V128.159H70.3066ZM75.7987 128.051C76.3187 128.051 76.7827 128.159 77.1907 128.375C77.6067 128.591 77.9307 128.911 78.1627 129.335C78.3947 129.759 78.5107 130.271 78.5107 130.871V134.771H77.1547V131.075C77.1547 130.483 77.0067 130.031 76.7107 129.719C76.4147 129.399 76.0107 129.239 75.4987 129.239C74.9867 129.239 74.5787 129.399 74.2747 129.719C73.9787 130.031 73.8307 130.483 73.8307 131.075V134.771H72.4627V128.159H73.8307V128.915C74.0547 128.643 74.3387 128.431 74.6827 128.279C75.0347 128.127 75.4067 128.051 75.7987 128.051ZM80.1596 131.435C80.1596 130.771 80.2956 130.183 80.5676 129.671C80.8476 129.159 81.2236 128.763 81.6956 128.483C82.1756 128.195 82.7076 128.051 83.2916 128.051C83.7236 128.051 84.1476 128.147 84.5636 128.339C84.9876 128.523 85.3236 128.771 85.5716 129.083V125.891H86.9516V134.771H85.5716V133.775C85.3476 134.095 85.0356 134.359 84.6356 134.567C84.2436 134.775 83.7916 134.879 83.2796 134.879C82.7036 134.879 82.1756 134.735 81.6956 134.447C81.2236 134.151 80.8476 133.743 80.5676 133.223C80.2956 132.695 80.1596 132.099 80.1596 131.435ZM85.5716 131.459C85.5716 131.003 85.4756 130.607 85.2836 130.271C85.0996 129.935 84.8556 129.679 84.5516 129.503C84.2476 129.327 83.9196 129.239 83.5676 129.239C83.2156 129.239 82.8876 129.327 82.5836 129.503C82.2796 129.671 82.0316 129.923 81.8396 130.259C81.6556 130.587 81.5636 130.979 81.5636 131.435C81.5636 131.891 81.6556 132.291 81.8396 132.635C82.0316 132.979 82.2796 133.243 82.5836 133.427C82.8956 133.603 83.2236 133.691 83.5676 133.691C83.9196 133.691 84.2476 133.603 84.5516 133.427C84.8556 133.251 85.0996 132.995 85.2836 132.659C85.4756 132.315 85.5716 131.915 85.5716 131.459ZM89.8044 127.283C89.5564 127.283 89.3484 127.199 89.1804 127.031C89.0124 126.863 88.9284 126.655 88.9284 126.407C88.9284 126.159 89.0124 125.951 89.1804 125.783C89.3484 125.615 89.5564 125.531 89.8044 125.531C90.0444 125.531 90.2484 125.615 90.4164 125.783C90.5844 125.951 90.6684 126.159 90.6684 126.407C90.6684 126.655 90.5844 126.863 90.4164 127.031C90.2484 127.199 90.0444 127.283 89.8044 127.283ZM90.4764 128.159V134.771H89.1084V128.159H90.4764ZM92.1765 131.459C92.1765 130.779 92.3125 130.183 92.5845 129.671C92.8645 129.151 93.2485 128.751 93.7365 128.471C94.2245 128.191 94.7845 128.051 95.4165 128.051C96.2165 128.051 96.8765 128.243 97.3965 128.627C97.9245 129.003 98.2805 129.543 98.4645 130.247H96.9885C96.8685 129.919 96.6765 129.663 96.4125 129.479C96.1485 129.295 95.8165 129.203 95.4165 129.203C94.8565 129.203 94.4085 129.403 94.0725 129.803C93.7445 130.195 93.5805 130.747 93.5805 131.459C93.5805 132.171 93.7445 132.727 94.0725 133.127C94.4085 133.527 94.8565 133.727 95.4165 133.727C96.2085 133.727 96.7325 133.379 96.9885 132.683H98.4645C98.2725 133.355 97.9125 133.891 97.3845 134.291C96.8565 134.683 96.2005 134.879 95.4165 134.879C94.7845 134.879 94.2245 134.739 93.7365 134.459C93.2485 134.171 92.8645 133.771 92.5845 133.259C92.3125 132.739 92.1765 132.139 92.1765 131.459ZM99.7318 131.435C99.7318 130.771 99.8678 130.183 100.14 129.671C100.42 129.159 100.796 128.763 101.268 128.483C101.748 128.195 102.276 128.051 102.852 128.051C103.372 128.051 103.824 128.155 104.208 128.363C104.6 128.563 104.912 128.815 105.144 129.119V128.159H106.524V134.771H105.144V133.787C104.912 134.099 104.596 134.359 104.196 134.567C103.796 134.775 103.34 134.879 102.828 134.879C102.26 134.879 101.74 134.735 101.268 134.447C100.796 134.151 100.42 133.743 100.14 133.223C99.8678 132.695 99.7318 132.099 99.7318 131.435ZM105.144 131.459C105.144 131.003 105.048 130.607 104.856 130.271C104.672 129.935 104.428 129.679 104.124 129.503C103.82 129.327 103.492 129.239 103.14 129.239C102.788 129.239 102.46 129.327 102.156 129.503C101.852 129.671 101.604 129.923 101.412 130.259C101.228 130.587 101.136 130.979 101.136 131.435C101.136 131.891 101.228 132.291 101.412 132.635C101.604 132.979 101.852 133.243 102.156 133.427C102.468 133.603 102.796 133.691 103.14 133.691C103.492 133.691 103.82 133.603 104.124 133.427C104.428 133.251 104.672 132.995 104.856 132.659C105.048 132.315 105.144 131.915 105.144 131.459ZM110.277 129.275V132.935C110.277 133.183 110.333 133.363 110.445 133.475C110.565 133.579 110.765 133.631 111.045 133.631H111.885V134.771H110.805C110.189 134.771 109.717 134.627 109.389 134.339C109.061 134.051 108.897 133.583 108.897 132.935V129.275H108.117V128.159H108.897V126.515H110.277V128.159H111.885V129.275H110.277ZM116.373 134.879C115.749 134.879 115.185 134.739 114.681 134.459C114.177 134.171 113.781 133.771 113.493 133.259C113.205 132.739 113.061 132.139 113.061 131.459C113.061 130.787 113.209 130.191 113.505 129.671C113.801 129.151 114.205 128.751 114.717 128.471C115.229 128.191 115.801 128.051 116.433 128.051C117.065 128.051 117.637 128.191 118.149 128.471C118.661 128.751 119.065 129.151 119.361 129.671C119.657 130.191 119.805 130.787 119.805 131.459C119.805 132.131 119.653 132.727 119.349 133.247C119.045 133.767 118.629 134.171 118.101 134.459C117.581 134.739 117.005 134.879 116.373 134.879ZM116.373 133.691C116.725 133.691 117.053 133.607 117.357 133.439C117.669 133.271 117.921 133.019 118.113 132.683C118.305 132.347 118.401 131.939 118.401 131.459C118.401 130.979 118.309 130.575 118.125 130.247C117.941 129.911 117.697 129.659 117.393 129.491C117.089 129.323 116.761 129.239 116.409 129.239C116.057 129.239 115.729 129.323 115.425 129.491C115.129 129.659 114.893 129.911 114.717 130.247C114.541 130.575 114.453 130.979 114.453 131.459C114.453 132.171 114.633 132.723 114.993 133.115C115.361 133.499 115.821 133.691 116.373 133.691ZM122.886 129.119C123.086 128.783 123.35 128.523 123.678 128.339C124.014 128.147 124.41 128.051 124.866 128.051V129.467H124.518C123.982 129.467 123.574 129.603 123.294 129.875C123.022 130.147 122.886 130.619 122.886 131.291V134.771H121.518V128.159H122.886V129.119ZM132.36 134.879C131.84 134.879 131.372 134.787 130.956 134.603C130.548 134.411 130.224 134.155 129.984 133.835C129.744 133.507 129.616 133.143 129.6 132.743H131.016C131.04 133.023 131.172 133.259 131.412 133.451C131.66 133.635 131.968 133.727 132.336 133.727C132.72 133.727 133.016 133.655 133.224 133.511C133.44 133.359 133.548 133.167 133.548 132.935C133.548 132.687 133.428 132.503 133.188 132.383C132.956 132.263 132.584 132.131 132.072 131.987C131.576 131.851 131.172 131.719 130.86 131.591C130.548 131.463 130.276 131.267 130.044 131.003C129.82 130.739 129.708 130.391 129.708 129.959C129.708 129.607 129.812 129.287 130.02 128.999C130.228 128.703 130.524 128.471 130.908 128.303C131.3 128.135 131.748 128.051 132.252 128.051C133.004 128.051 133.608 128.243 134.064 128.627C134.528 129.003 134.776 129.519 134.808 130.175H133.44C133.416 129.879 133.296 129.643 133.08 129.467C132.864 129.291 132.572 129.203 132.204 129.203C131.844 129.203 131.568 129.271 131.376 129.407C131.184 129.543 131.088 129.723 131.088 129.947C131.088 130.123 131.152 130.271 131.28 130.391C131.408 130.511 131.564 130.607 131.748 130.679C131.932 130.743 132.204 130.827 132.564 130.931C133.044 131.059 133.436 131.191 133.74 131.327C134.052 131.455 134.32 131.647 134.544 131.903C134.768 132.159 134.884 132.499 134.892 132.923C134.892 133.299 134.788 133.635 134.58 133.931C134.372 134.227 134.076 134.459 133.692 134.627C133.316 134.795 132.872 134.879 132.36 134.879ZM138.327 129.275V132.935C138.327 133.183 138.383 133.363 138.495 133.475C138.615 133.579 138.815 133.631 139.095 133.631H139.935V134.771H138.855C138.239 134.771 137.767 134.627 137.439 134.339C137.111 134.051 136.947 133.583 136.947 132.935V129.275H136.167V128.159H136.947V126.515H138.327V128.159H139.935V129.275H138.327ZM141.099 131.435C141.099 130.771 141.235 130.183 141.507 129.671C141.787 129.159 142.163 128.763 142.635 128.483C143.115 128.195 143.643 128.051 144.219 128.051C144.739 128.051 145.191 128.155 145.575 128.363C145.967 128.563 146.279 128.815 146.511 129.119V128.159H147.891V134.771H146.511V133.787C146.279 134.099 145.963 134.359 145.563 134.567C145.163 134.775 144.707 134.879 144.195 134.879C143.627 134.879 143.107 134.735 142.635 134.447C142.163 134.151 141.787 133.743 141.507 133.223C141.235 132.695 141.099 132.099 141.099 131.435ZM146.511 131.459C146.511 131.003 146.415 130.607 146.223 130.271C146.039 129.935 145.795 129.679 145.491 129.503C145.187 129.327 144.859 129.239 144.507 129.239C144.155 129.239 143.827 129.327 143.523 129.503C143.219 129.671 142.971 129.923 142.779 130.259C142.595 130.587 142.503 130.979 142.503 131.435C142.503 131.891 142.595 132.291 142.779 132.635C142.971 132.979 143.219 133.243 143.523 133.427C143.835 133.603 144.163 133.691 144.507 133.691C144.859 133.691 145.187 133.603 145.491 133.427C145.795 133.251 146.039 132.995 146.223 132.659C146.415 132.315 146.511 131.915 146.511 131.459ZM151.416 129.119C151.616 128.783 151.88 128.523 152.208 128.339C152.544 128.147 152.94 128.051 153.396 128.051V129.467H153.048C152.512 129.467 152.104 129.603 151.824 129.875C151.552 130.147 151.416 130.619 151.416 131.291V134.771H150.048V128.159H151.416V129.119ZM156.61 129.275V132.935C156.61 133.183 156.666 133.363 156.778 133.475C156.898 133.579 157.098 133.631 157.378 133.631H158.218V134.771H157.138C156.522 134.771 156.05 134.627 155.722 134.339C155.394 134.051 155.23 133.583 155.23 132.935V129.275H154.45V128.159H155.23V126.515H156.61V128.159H158.218V129.275H156.61ZM162.239 134.879C161.719 134.879 161.251 134.787 160.835 134.603C160.427 134.411 160.103 134.155 159.863 133.835C159.623 133.507 159.495 133.143 159.479 132.743H160.895C160.919 133.023 161.051 133.259 161.291 133.451C161.539 133.635 161.847 133.727 162.215 133.727C162.599 133.727 162.895 133.655 163.103 133.511C163.319 133.359 163.427 133.167 163.427 132.935C163.427 132.687 163.307 132.503 163.067 132.383C162.835 132.263 162.463 132.131 161.951 131.987C161.455 131.851 161.051 131.719 160.739 131.591C160.427 131.463 160.155 131.267 159.923 131.003C159.699 130.739 159.587 130.391 159.587 129.959C159.587 129.607 159.691 129.287 159.899 128.999C160.107 128.703 160.403 128.471 160.787 128.303C161.179 128.135 161.627 128.051 162.131 128.051C162.883 128.051 163.487 128.243 163.943 128.627C164.407 129.003 164.655 129.519 164.687 130.175H163.319C163.295 129.879 163.175 129.643 162.959 129.467C162.743 129.291 162.451 129.203 162.083 129.203C161.723 129.203 161.447 129.271 161.255 129.407C161.063 129.543 160.967 129.723 160.967 129.947C160.967 130.123 161.031 130.271 161.159 130.391C161.287 130.511 161.443 130.607 161.627 130.679C161.811 130.743 162.083 130.827 162.443 130.931C162.923 131.059 163.315 131.191 163.619 131.327C163.931 131.455 164.199 131.647 164.423 131.903C164.647 132.159 164.763 132.499 164.771 132.923C164.771 133.299 164.667 133.635 164.459 133.931C164.251 134.227 163.955 134.459 163.571 134.627C163.195 134.795 162.751 134.879 162.239 134.879ZM171.682 129.275V132.935C171.682 133.183 171.738 133.363 171.85 133.475C171.97 133.579 172.17 133.631 172.45 133.631H173.29V134.771H172.21C171.594 134.771 171.122 134.627 170.794 134.339C170.466 134.051 170.302 133.583 170.302 132.935V129.275H169.522V128.159H170.302V126.515H171.682V128.159H173.29V129.275H171.682ZM177.779 134.879C177.155 134.879 176.591 134.739 176.087 134.459C175.583 134.171 175.187 133.771 174.899 133.259C174.611 132.739 174.467 132.139 174.467 131.459C174.467 130.787 174.615 130.191 174.911 129.671C175.207 129.151 175.611 128.751 176.123 128.471C176.635 128.191 177.207 128.051 177.839 128.051C178.471 128.051 179.043 128.191 179.555 128.471C180.067 128.751 180.471 129.151 180.767 129.671C181.063 130.191 181.211 130.787 181.211 131.459C181.211 132.131 181.059 132.727 180.755 133.247C180.451 133.767 180.035 134.171 179.507 134.459C178.987 134.739 178.411 134.879 177.779 134.879ZM177.779 133.691C178.131 133.691 178.459 133.607 178.763 133.439C179.075 133.271 179.327 133.019 179.519 132.683C179.711 132.347 179.807 131.939 179.807 131.459C179.807 130.979 179.715 130.575 179.531 130.247C179.347 129.911 179.103 129.659 178.799 129.491C178.495 129.323 178.167 129.239 177.815 129.239C177.463 129.239 177.135 129.323 176.831 129.491C176.535 129.659 176.299 129.911 176.123 130.247C175.947 130.575 175.859 130.979 175.859 131.459C175.859 132.171 176.039 132.723 176.399 133.115C176.767 133.499 177.227 133.691 177.779 133.691ZM187.768 129.143C188 128.823 188.316 128.563 188.716 128.363C189.124 128.155 189.576 128.051 190.072 128.051C190.656 128.051 191.184 128.191 191.656 128.471C192.128 128.751 192.5 129.151 192.772 129.671C193.044 130.183 193.18 130.771 193.18 131.435C193.18 132.099 193.044 132.695 192.772 133.223C192.5 133.743 192.124 134.151 191.644 134.447C191.172 134.735 190.648 134.879 190.072 134.879C189.56 134.879 189.104 134.779 188.704 134.579C188.312 134.379 188 134.123 187.768 133.811V134.771H186.4V125.891H187.768V129.143ZM191.788 131.435C191.788 130.979 191.692 130.587 191.5 130.259C191.316 129.923 191.068 129.671 190.756 129.503C190.452 129.327 190.124 129.239 189.772 129.239C189.428 129.239 189.1 129.327 188.788 129.503C188.484 129.679 188.236 129.935 188.044 130.271C187.86 130.607 187.768 131.003 187.768 131.459C187.768 131.915 187.86 132.315 188.044 132.659C188.236 132.995 188.484 133.251 188.788 133.427C189.1 133.603 189.428 133.691 189.772 133.691C190.124 133.691 190.452 133.603 190.756 133.427C191.068 133.243 191.316 132.979 191.5 132.635C191.692 132.291 191.788 131.891 191.788 131.435ZM196.261 125.891V134.771H194.893V125.891H196.261ZM199.113 127.283C198.865 127.283 198.657 127.199 198.489 127.031C198.321 126.863 198.237 126.655 198.237 126.407C198.237 126.159 198.321 125.951 198.489 125.783C198.657 125.615 198.865 125.531 199.113 125.531C199.353 125.531 199.557 125.615 199.725 125.783C199.893 125.951 199.977 126.159 199.977 126.407C199.977 126.655 199.893 126.863 199.725 127.031C199.557 127.199 199.353 127.283 199.113 127.283ZM199.785 128.159V134.771H198.417V128.159H199.785ZM205.277 128.051C205.797 128.051 206.261 128.159 206.669 128.375C207.085 128.591 207.409 128.911 207.641 129.335C207.873 129.759 207.989 130.271 207.989 130.871V134.771H206.633V131.075C206.633 130.483 206.485 130.031 206.189 129.719C205.893 129.399 205.489 129.239 204.977 129.239C204.465 129.239 204.057 129.399 203.753 129.719C203.457 130.031 203.309 130.483 203.309 131.075V134.771H201.941V128.159H203.309V128.915C203.533 128.643 203.817 128.431 204.161 128.279C204.513 128.127 204.885 128.051 205.277 128.051ZM212.71 131.471L215.758 134.771H213.91L211.462 131.927V134.771H210.094V125.891H211.462V131.051L213.862 128.159H215.758L212.71 131.471Z" fill="white"/>
<path d="M88.1969 176.014L89.9889 176L92.1589 168.636L94.2029 176H96.0089L98.8929 166.27H97.1849L95.1549 174.152L93.1249 166.27H91.3329L89.1489 174.194L87.1329 166.27H85.4389L88.1969 176.014ZM100.569 176H102.165V168.286H100.569V176ZM101.381 167.264C101.941 167.264 102.389 166.816 102.389 166.242C102.389 165.668 101.941 165.22 101.381 165.22C100.807 165.22 100.359 165.668 100.359 166.242C100.359 166.816 100.807 167.264 101.381 167.264ZM104.621 176H106.217V171.744H109.437V170.442H106.217V167.572H110.347V166.27H104.621V176ZM112.186 176H113.782V168.286H112.186V176ZM112.998 167.264C113.558 167.264 114.006 166.816 114.006 166.242C114.006 165.668 113.558 165.22 112.998 165.22C112.424 165.22 111.976 165.668 111.976 166.242C111.976 166.816 112.424 167.264 112.998 167.264Z" fill="#EFEFEF"/>
<path d="M72.6815 84.2805C72.6815 83.6005 72.8348 82.9905 73.1415 82.4505C73.4482 81.9038 73.8648 81.4772 74.3915 81.1705C74.9248 80.8638 75.5148 80.7105 76.1615 80.7105C76.9215 80.7105 77.5848 80.8938 78.1515 81.2605C78.7182 81.6272 79.1315 82.1472 79.3915 82.8205H78.3015C78.1082 82.4005 77.8282 82.0772 77.4615 81.8505C77.1015 81.6238 76.6682 81.5105 76.1615 81.5105C75.6748 81.5105 75.2382 81.6238 74.8515 81.8505C74.4648 82.0772 74.1615 82.4005 73.9415 82.8205C73.7215 83.2338 73.6115 83.7205 73.6115 84.2805C73.6115 84.8338 73.7215 85.3205 73.9415 85.7405C74.1615 86.1538 74.4648 86.4738 74.8515 86.7005C75.2382 86.9272 75.6748 87.0405 76.1615 87.0405C76.6682 87.0405 77.1015 86.9305 77.4615 86.7105C77.8282 86.4838 78.1082 86.1605 78.3015 85.7405H79.3915C79.1315 86.4072 78.7182 86.9238 78.1515 87.2905C77.5848 87.6505 76.9215 87.8305 76.1615 87.8305C75.5148 87.8305 74.9248 87.6805 74.3915 87.3805C73.8648 87.0738 73.4482 86.6505 73.1415 86.1105C72.8348 85.5705 72.6815 84.9605 72.6815 84.2805ZM83.4961 87.8605C82.9828 87.8605 82.5161 87.7438 82.0961 87.5105C81.6828 87.2772 81.3561 86.9472 81.1161 86.5205C80.8828 86.0872 80.7661 85.5872 80.7661 85.0205C80.7661 84.4605 80.8861 83.9672 81.1261 83.5405C81.3728 83.1072 81.7061 82.7772 82.1261 82.5505C82.5461 82.3172 83.0161 82.2005 83.5361 82.2005C84.0561 82.2005 84.5261 82.3172 84.9461 82.5505C85.3661 82.7772 85.6961 83.1038 85.9361 83.5305C86.1828 83.9572 86.3061 84.4538 86.3061 85.0205C86.3061 85.5872 86.1794 86.0872 85.9261 86.5205C85.6794 86.9472 85.3428 87.2772 84.9161 87.5105C84.4894 87.7438 84.0161 87.8605 83.4961 87.8605ZM83.4961 87.0605C83.8228 87.0605 84.1294 86.9838 84.4161 86.8305C84.7028 86.6772 84.9328 86.4472 85.1061 86.1405C85.2861 85.8338 85.3761 85.4605 85.3761 85.0205C85.3761 84.5805 85.2894 84.2072 85.1161 83.9005C84.9428 83.5938 84.7161 83.3672 84.4361 83.2205C84.1561 83.0672 83.8528 82.9905 83.5261 82.9905C83.1928 82.9905 82.8861 83.0672 82.6061 83.2205C82.3328 83.3672 82.1128 83.5938 81.9461 83.9005C81.7794 84.2072 81.6961 84.5805 81.6961 85.0205C81.6961 85.4672 81.7761 85.8438 81.9361 86.1505C82.1028 86.4572 82.3228 86.6872 82.5961 86.8405C82.8694 86.9872 83.1694 87.0605 83.4961 87.0605ZM90.5326 82.1905C91.1992 82.1905 91.7392 82.3938 92.1526 82.8005C92.5659 83.2005 92.7726 83.7805 92.7726 84.5405V87.7705H91.8726V84.6705C91.8726 84.1238 91.7359 83.7072 91.4626 83.4205C91.1892 83.1272 90.8159 82.9805 90.3426 82.9805C89.8626 82.9805 89.4792 83.1305 89.1926 83.4305C88.9126 83.7305 88.7726 84.1672 88.7726 84.7405V87.7705H87.8626V82.2905H88.7726V83.0705C88.9526 82.7905 89.1959 82.5738 89.5026 82.4205C89.8159 82.2672 90.1592 82.1905 90.5326 82.1905ZM97.2891 82.1905C97.9557 82.1905 98.4957 82.3938 98.9091 82.8005C99.3224 83.2005 99.5291 83.7805 99.5291 84.5405V87.7705H98.6291V84.6705C98.6291 84.1238 98.4924 83.7072 98.2191 83.4205C97.9457 83.1272 97.5724 82.9805 97.0991 82.9805C96.6191 82.9805 96.2357 83.1305 95.9491 83.4305C95.6691 83.7305 95.5291 84.1672 95.5291 84.7405V87.7705H94.6191V82.2905H95.5291V83.0705C95.7091 82.7905 95.9524 82.5738 96.2591 82.4205C96.5724 82.2672 96.9157 82.1905 97.2891 82.1905ZM106.376 84.8205C106.376 84.9938 106.366 85.1772 106.346 85.3705H101.966C101.999 85.9105 102.182 86.3338 102.516 86.6405C102.856 86.9405 103.266 87.0905 103.746 87.0905C104.139 87.0905 104.466 87.0005 104.726 86.8205C104.992 86.6338 105.179 86.3872 105.286 86.0805H106.266C106.119 86.6072 105.826 87.0372 105.386 87.3705C104.946 87.6972 104.399 87.8605 103.746 87.8605C103.226 87.8605 102.759 87.7438 102.346 87.5105C101.939 87.2772 101.619 86.9472 101.386 86.5205C101.152 86.0872 101.036 85.5872 101.036 85.0205C101.036 84.4538 101.149 83.9572 101.376 83.5305C101.602 83.1038 101.919 82.7772 102.326 82.5505C102.739 82.3172 103.212 82.2005 103.746 82.2005C104.266 82.2005 104.726 82.3138 105.126 82.5405C105.526 82.7672 105.832 83.0805 106.046 83.4805C106.266 83.8738 106.376 84.3205 106.376 84.8205ZM105.436 84.6305C105.436 84.2838 105.359 83.9872 105.206 83.7405C105.052 83.4872 104.842 83.2972 104.576 83.1705C104.316 83.0372 104.026 82.9705 103.706 82.9705C103.246 82.9705 102.852 83.1172 102.526 83.4105C102.206 83.7038 102.022 84.1105 101.976 84.6305H105.436ZM107.597 85.0205C107.597 84.4538 107.71 83.9605 107.937 83.5405C108.163 83.1138 108.477 82.7838 108.877 82.5505C109.283 82.3172 109.747 82.2005 110.267 82.2005C110.94 82.2005 111.493 82.3638 111.927 82.6905C112.367 83.0172 112.657 83.4705 112.797 84.0505H111.817C111.723 83.7172 111.54 83.4538 111.267 83.2605C111 83.0672 110.667 82.9705 110.267 82.9705C109.747 82.9705 109.327 83.1505 109.007 83.5105C108.687 83.8638 108.527 84.3672 108.527 85.0205C108.527 85.6805 108.687 86.1905 109.007 86.5505C109.327 86.9105 109.747 87.0905 110.267 87.0905C110.667 87.0905 111 86.9972 111.267 86.8105C111.533 86.6238 111.717 86.3572 111.817 86.0105H112.797C112.65 86.5705 112.357 87.0205 111.917 87.3605C111.477 87.6938 110.927 87.8605 110.267 87.8605C109.747 87.8605 109.283 87.7438 108.877 87.5105C108.477 87.2772 108.163 86.9472 107.937 86.5205C107.71 86.0938 107.597 85.5938 107.597 85.0205ZM115.481 83.0405V86.2705C115.481 86.5372 115.538 86.7272 115.651 86.8405C115.764 86.9472 115.961 87.0005 116.241 87.0005H116.911V87.7705H116.091C115.584 87.7705 115.204 87.6538 114.951 87.4205C114.698 87.1872 114.571 86.8038 114.571 86.2705V83.0405H113.861V82.2905H114.571V80.9105H115.481V82.2905H116.911V83.0405H115.481ZM122.51 83.0405V86.2705C122.51 86.5372 122.566 86.7272 122.68 86.8405C122.793 86.9472 122.99 87.0005 123.27 87.0005H123.94V87.7705H123.12C122.613 87.7705 122.233 87.6538 121.98 87.4205C121.726 87.1872 121.6 86.8038 121.6 86.2705V83.0405H120.89V82.2905H121.6V80.9105H122.51V82.2905H123.94V83.0405H122.51ZM127.792 87.8605C127.279 87.8605 126.812 87.7438 126.392 87.5105C125.979 87.2772 125.652 86.9472 125.412 86.5205C125.179 86.0872 125.062 85.5872 125.062 85.0205C125.062 84.4605 125.182 83.9672 125.422 83.5405C125.669 83.1072 126.002 82.7772 126.422 82.5505C126.842 82.3172 127.312 82.2005 127.832 82.2005C128.352 82.2005 128.822 82.3172 129.242 82.5505C129.662 82.7772 129.992 83.1038 130.232 83.5305C130.479 83.9572 130.602 84.4538 130.602 85.0205C130.602 85.5872 130.475 86.0872 130.222 86.5205C129.975 86.9472 129.639 87.2772 129.212 87.5105C128.785 87.7438 128.312 87.8605 127.792 87.8605ZM127.792 87.0605C128.119 87.0605 128.425 86.9838 128.712 86.8305C128.999 86.6772 129.229 86.4472 129.402 86.1405C129.582 85.8338 129.672 85.4605 129.672 85.0205C129.672 84.5805 129.585 84.2072 129.412 83.9005C129.239 83.5938 129.012 83.3672 128.732 83.2205C128.452 83.0672 128.149 82.9905 127.822 82.9905C127.489 82.9905 127.182 83.0672 126.902 83.2205C126.629 83.3672 126.409 83.5938 126.242 83.9005C126.075 84.2072 125.992 84.5805 125.992 85.0205C125.992 85.4672 126.072 85.8438 126.232 86.1505C126.399 86.4572 126.619 86.6872 126.892 86.8405C127.165 86.9872 127.465 87.0605 127.792 87.0605ZM139.305 86.2205H136.265L135.705 87.7705H134.745L137.265 80.8405H138.315L140.825 87.7705H139.865L139.305 86.2205ZM139.045 85.4805L137.785 81.9605L136.525 85.4805H139.045ZM143.193 83.3005C143.373 82.9872 143.64 82.7272 143.993 82.5205C144.353 82.3072 144.77 82.2005 145.243 82.2005C145.73 82.2005 146.17 82.3172 146.563 82.5505C146.963 82.7838 147.276 83.1138 147.503 83.5405C147.73 83.9605 147.843 84.4505 147.843 85.0105C147.843 85.5638 147.73 86.0572 147.503 86.4905C147.276 86.9238 146.963 87.2605 146.563 87.5005C146.17 87.7405 145.73 87.8605 145.243 87.8605C144.776 87.8605 144.363 87.7572 144.003 87.5505C143.65 87.3372 143.38 87.0738 143.193 86.7605V90.3705H142.283V82.2905H143.193V83.3005ZM146.913 85.0105C146.913 84.5972 146.83 84.2372 146.663 83.9305C146.496 83.6238 146.27 83.3905 145.983 83.2305C145.703 83.0705 145.393 82.9905 145.053 82.9905C144.72 82.9905 144.41 83.0738 144.123 83.2405C143.843 83.4005 143.616 83.6372 143.443 83.9505C143.276 84.2572 143.193 84.6138 143.193 85.0205C143.193 85.4338 143.276 85.7972 143.443 86.1105C143.616 86.4172 143.843 86.6538 144.123 86.8205C144.41 86.9805 144.72 87.0605 145.053 87.0605C145.393 87.0605 145.703 86.9805 145.983 86.8205C146.27 86.6538 146.496 86.4172 146.663 86.1105C146.83 85.7972 146.913 85.4305 146.913 85.0105ZM150.311 83.3005C150.491 82.9872 150.757 82.7272 151.111 82.5205C151.471 82.3072 151.887 82.2005 152.361 82.2005C152.847 82.2005 153.287 82.3172 153.681 82.5505C154.081 82.7838 154.394 83.1138 154.621 83.5405C154.847 83.9605 154.961 84.4505 154.961 85.0105C154.961 85.5638 154.847 86.0572 154.621 86.4905C154.394 86.9238 154.081 87.2605 153.681 87.5005C153.287 87.7405 152.847 87.8605 152.361 87.8605C151.894 87.8605 151.481 87.7572 151.121 87.5505C150.767 87.3372 150.497 87.0738 150.311 86.7605V90.3705H149.401V82.2905H150.311V83.3005ZM154.031 85.0105C154.031 84.5972 153.947 84.2372 153.781 83.9305C153.614 83.6238 153.387 83.3905 153.101 83.2305C152.821 83.0705 152.511 82.9905 152.171 82.9905C151.837 82.9905 151.527 83.0738 151.241 83.2405C150.961 83.4005 150.734 83.6372 150.561 83.9505C150.394 84.2572 150.311 84.6138 150.311 85.0205C150.311 85.4338 150.394 85.7972 150.561 86.1105C150.734 86.4172 150.961 86.6538 151.241 86.8205C151.527 86.9805 151.837 87.0605 152.171 87.0605C152.511 87.0605 152.821 86.9805 153.101 86.8205C153.387 86.6538 153.614 86.4172 153.781 86.1105C153.947 85.7972 154.031 85.4305 154.031 85.0105ZM92.5679 95.8005V102.771H91.6579V99.6105H88.1079V102.771H87.1979V95.8005H88.1079V98.8605H91.6579V95.8005H92.5679ZM96.8717 102.861C96.3583 102.861 95.8917 102.744 95.4717 102.511C95.0583 102.277 94.7317 101.947 94.4917 101.521C94.2583 101.087 94.1417 100.587 94.1417 100.021C94.1417 99.4605 94.2617 98.9672 94.5017 98.5405C94.7483 98.1072 95.0817 97.7772 95.5017 97.5505C95.9217 97.3172 96.3917 97.2005 96.9117 97.2005C97.4317 97.2005 97.9017 97.3172 98.3217 97.5505C98.7417 97.7772 99.0717 98.1038 99.3117 98.5305C99.5583 98.9572 99.6817 99.4538 99.6817 100.021C99.6817 100.587 99.555 101.087 99.3017 101.521C99.055 101.947 98.7183 102.277 98.2917 102.511C97.865 102.744 97.3917 102.861 96.8717 102.861ZM96.8717 102.061C97.1983 102.061 97.505 101.984 97.7917 101.831C98.0783 101.677 98.3083 101.447 98.4817 101.141C98.6617 100.834 98.7517 100.461 98.7517 100.021C98.7517 99.5805 98.665 99.2072 98.4917 98.9005C98.3183 98.5938 98.0917 98.3672 97.8117 98.2205C97.5317 98.0672 97.2283 97.9905 96.9017 97.9905C96.5683 97.9905 96.2617 98.0672 95.9817 98.2205C95.7083 98.3672 95.4883 98.5938 95.3217 98.9005C95.155 99.2072 95.0717 99.5805 95.0717 100.021C95.0717 100.467 95.1517 100.844 95.3117 101.151C95.4783 101.457 95.6983 101.687 95.9717 101.841C96.245 101.987 96.545 102.061 96.8717 102.061ZM102.148 95.3705V102.771H101.238V95.3705H102.148ZM103.719 100.011C103.719 99.4505 103.832 98.9605 104.059 98.5405C104.286 98.1138 104.596 97.7838 104.989 97.5505C105.389 97.3172 105.836 97.2005 106.329 97.2005C106.756 97.2005 107.152 97.3005 107.519 97.5005C107.886 97.6938 108.166 97.9505 108.359 98.2705V95.3705H109.279V102.771H108.359V101.741C108.179 102.067 107.912 102.337 107.559 102.551C107.206 102.757 106.792 102.861 106.319 102.861C105.832 102.861 105.389 102.741 104.989 102.501C104.596 102.261 104.286 101.924 104.059 101.491C103.832 101.057 103.719 100.564 103.719 100.011ZM108.359 100.021C108.359 99.6072 108.276 99.2472 108.109 98.9405C107.942 98.6338 107.716 98.4005 107.429 98.2405C107.149 98.0738 106.839 97.9905 106.499 97.9905C106.159 97.9905 105.849 98.0705 105.569 98.2305C105.289 98.3905 105.066 98.6238 104.899 98.9305C104.732 99.2372 104.649 99.5972 104.649 100.011C104.649 100.431 104.732 100.797 104.899 101.111C105.066 101.417 105.289 101.654 105.569 101.821C105.849 101.981 106.159 102.061 106.499 102.061C106.839 102.061 107.149 101.981 107.429 101.821C107.716 101.654 107.942 101.417 108.109 101.111C108.276 100.797 108.359 100.434 108.359 100.021ZM114.033 97.3605C114.08 96.7472 114.316 96.2672 114.743 95.9205C115.17 95.5738 115.723 95.4005 116.403 95.4005C116.856 95.4005 117.246 95.4838 117.573 95.6505C117.906 95.8105 118.156 96.0305 118.323 96.3105C118.496 96.5905 118.583 96.9072 118.583 97.2605C118.583 97.6738 118.463 98.0305 118.223 98.3305C117.99 98.6305 117.683 98.8238 117.303 98.9105V98.9605C117.736 99.0672 118.08 99.2772 118.333 99.5905C118.586 99.9038 118.713 100.314 118.713 100.821C118.713 101.201 118.626 101.544 118.453 101.851C118.28 102.151 118.02 102.387 117.673 102.561C117.326 102.734 116.91 102.821 116.423 102.821C115.716 102.821 115.136 102.637 114.683 102.271C114.23 101.897 113.976 101.371 113.923 100.691H114.803C114.85 101.091 115.013 101.417 115.293 101.671C115.573 101.924 115.946 102.051 116.413 102.051C116.88 102.051 117.233 101.931 117.473 101.691C117.72 101.444 117.843 101.127 117.843 100.741C117.843 100.241 117.676 99.8805 117.343 99.6605C117.01 99.4405 116.506 99.3305 115.833 99.3305H115.603V98.5705H115.843C116.456 98.5638 116.92 98.4638 117.233 98.2705C117.546 98.0705 117.703 97.7638 117.703 97.3505C117.703 96.9972 117.586 96.7138 117.353 96.5005C117.126 96.2872 116.8 96.1805 116.373 96.1805C115.96 96.1805 115.626 96.2872 115.373 96.5005C115.12 96.7138 114.97 97.0005 114.923 97.3605H114.033ZM125.688 102.841C125.228 102.841 124.814 102.761 124.448 102.601C124.088 102.434 123.804 102.207 123.598 101.921C123.391 101.627 123.284 101.291 123.278 100.911H124.248C124.281 101.237 124.414 101.514 124.648 101.741C124.888 101.961 125.234 102.071 125.688 102.071C126.121 102.071 126.461 101.964 126.708 101.751C126.961 101.531 127.088 101.251 127.088 100.911C127.088 100.644 127.014 100.427 126.868 100.261C126.721 100.094 126.538 99.9672 126.318 99.8805C126.098 99.7938 125.801 99.7005 125.428 99.6005C124.968 99.4805 124.598 99.3605 124.318 99.2405C124.044 99.1205 123.808 98.9338 123.608 98.6805C123.414 98.4205 123.318 98.0738 123.318 97.6405C123.318 97.2605 123.414 96.9238 123.608 96.6305C123.801 96.3372 124.071 96.1105 124.418 95.9505C124.771 95.7905 125.174 95.7105 125.628 95.7105C126.281 95.7105 126.814 95.8738 127.228 96.2005C127.648 96.5272 127.884 96.9605 127.938 97.5005H126.938C126.904 97.2338 126.764 97.0005 126.518 96.8005C126.271 96.5938 125.944 96.4905 125.538 96.4905C125.158 96.4905 124.848 96.5905 124.608 96.7905C124.368 96.9838 124.248 97.2572 124.248 97.6105C124.248 97.8638 124.318 98.0705 124.458 98.2305C124.604 98.3905 124.781 98.5138 124.988 98.6005C125.201 98.6805 125.498 98.7738 125.878 98.8805C126.338 99.0072 126.708 99.1338 126.988 99.2605C127.268 99.3805 127.508 99.5705 127.708 99.8305C127.908 100.084 128.008 100.431 128.008 100.871C128.008 101.211 127.918 101.531 127.738 101.831C127.558 102.131 127.291 102.374 126.938 102.561C126.584 102.747 126.168 102.841 125.688 102.841ZM134.707 99.8205C134.707 99.9938 134.697 100.177 134.677 100.371H130.297C130.33 100.911 130.513 101.334 130.847 101.641C131.187 101.941 131.597 102.091 132.077 102.091C132.47 102.091 132.797 102.001 133.057 101.821C133.323 101.634 133.51 101.387 133.617 101.081H134.597C134.45 101.607 134.157 102.037 133.717 102.371C133.277 102.697 132.73 102.861 132.077 102.861C131.557 102.861 131.09 102.744 130.677 102.511C130.27 102.277 129.95 101.947 129.717 101.521C129.483 101.087 129.367 100.587 129.367 100.021C129.367 99.4538 129.48 98.9572 129.707 98.5305C129.933 98.1038 130.25 97.7772 130.657 97.5505C131.07 97.3172 131.543 97.2005 132.077 97.2005C132.597 97.2005 133.057 97.3138 133.457 97.5405C133.857 97.7672 134.163 98.0805 134.377 98.4805C134.597 98.8738 134.707 99.3205 134.707 99.8205ZM133.767 99.6305C133.767 99.2838 133.69 98.9872 133.537 98.7405C133.383 98.4872 133.173 98.2972 132.907 98.1705C132.647 98.0372 132.357 97.9705 132.037 97.9705C131.577 97.9705 131.183 98.1172 130.857 98.4105C130.537 98.7038 130.353 99.1105 130.307 99.6305H133.767ZM135.928 100.021C135.928 99.4538 136.041 98.9605 136.268 98.5405C136.495 98.1138 136.808 97.7838 137.208 97.5505C137.615 97.3172 138.078 97.2005 138.598 97.2005C139.271 97.2005 139.825 97.3638 140.258 97.6905C140.698 98.0172 140.988 98.4705 141.128 99.0505H140.148C140.055 98.7172 139.871 98.4538 139.598 98.2605C139.331 98.0672 138.998 97.9705 138.598 97.9705C138.078 97.9705 137.658 98.1505 137.338 98.5105C137.018 98.8638 136.858 99.3672 136.858 100.021C136.858 100.681 137.018 101.191 137.338 101.551C137.658 101.911 138.078 102.091 138.598 102.091C138.998 102.091 139.331 101.997 139.598 101.811C139.865 101.624 140.048 101.357 140.148 101.011H141.128C140.981 101.571 140.688 102.021 140.248 102.361C139.808 102.694 139.258 102.861 138.598 102.861C138.078 102.861 137.615 102.744 137.208 102.511C136.808 102.277 136.495 101.947 136.268 101.521C136.041 101.094 135.928 100.594 135.928 100.021Z" fill="white"/>
<path d="M92.075 36.27V46H90.479V41.744H85.901V46H84.305V36.27H85.901V40.442H90.479V36.27H92.075ZM95.3481 37.264C95.0587 37.264 94.8161 37.166 94.6201 36.97C94.4241 36.774 94.3261 36.5313 94.3261 36.242C94.3261 35.9527 94.4241 35.71 94.6201 35.514C94.8161 35.318 95.0587 35.22 95.3481 35.22C95.6281 35.22 95.8661 35.318 96.0621 35.514C96.2581 35.71 96.3561 35.9527 96.3561 36.242C96.3561 36.5313 96.2581 36.774 96.0621 36.97C95.8661 37.166 95.6281 37.264 95.3481 37.264ZM96.1321 38.286V46H94.5361V38.286H96.1321ZM104.509 40.26V41.604H98.7555V40.26H104.509ZM113.423 36.27V37.572H110.833V46H109.237V37.572H106.633V36.27H113.423ZM122.469 41.954C122.469 42.2433 122.451 42.5047 122.413 42.738H116.519C116.566 43.354 116.795 43.8487 117.205 44.222C117.616 44.5953 118.12 44.782 118.717 44.782C119.576 44.782 120.183 44.4227 120.537 43.704H122.259C122.026 44.4133 121.601 44.9967 120.985 45.454C120.379 45.902 119.623 46.126 118.717 46.126C117.98 46.126 117.317 45.9627 116.729 45.636C116.151 45.3 115.693 44.8333 115.357 44.236C115.031 43.6293 114.867 42.9293 114.867 42.136C114.867 41.3427 115.026 40.6473 115.343 40.05C115.67 39.4433 116.123 38.9767 116.701 38.65C117.289 38.3233 117.961 38.16 118.717 38.16C119.445 38.16 120.094 38.3187 120.663 38.636C121.233 38.9533 121.676 39.4013 121.993 39.98C122.311 40.5493 122.469 41.2073 122.469 41.954ZM120.803 41.45C120.794 40.862 120.584 40.3907 120.173 40.036C119.763 39.6813 119.254 39.504 118.647 39.504C118.097 39.504 117.625 39.6813 117.233 40.036C116.841 40.3813 116.608 40.8527 116.533 41.45H120.803ZM133.738 38.16C134.345 38.16 134.886 38.286 135.362 38.538C135.847 38.79 136.225 39.1633 136.496 39.658C136.776 40.1527 136.916 40.75 136.916 41.45V46H135.334V41.688C135.334 40.9973 135.161 40.47 134.816 40.106C134.471 39.7327 133.999 39.546 133.402 39.546C132.805 39.546 132.329 39.7327 131.974 40.106C131.629 40.47 131.456 40.9973 131.456 41.688V46H129.874V41.688C129.874 40.9973 129.701 40.47 129.356 40.106C129.011 39.7327 128.539 39.546 127.942 39.546C127.345 39.546 126.869 39.7327 126.514 40.106C126.169 40.47 125.996 40.9973 125.996 41.688V46H124.4V38.286H125.996V39.168C126.257 38.8507 126.589 38.6033 126.99 38.426C127.391 38.2487 127.821 38.16 128.278 38.16C128.894 38.16 129.445 38.2907 129.93 38.552C130.415 38.8133 130.789 39.1913 131.05 39.686C131.283 39.2193 131.647 38.8507 132.142 38.58C132.637 38.3 133.169 38.16 133.738 38.16ZM140.903 39.42C141.173 39.0653 141.542 38.7667 142.009 38.524C142.475 38.2813 143.003 38.16 143.591 38.16C144.263 38.16 144.874 38.328 145.425 38.664C145.985 38.9907 146.423 39.4527 146.741 40.05C147.058 40.6473 147.217 41.3333 147.217 42.108C147.217 42.8827 147.058 43.578 146.741 44.194C146.423 44.8007 145.985 45.2767 145.425 45.622C144.874 45.958 144.263 46.126 143.591 46.126C143.003 46.126 142.48 46.0093 142.023 45.776C141.565 45.5333 141.192 45.2347 140.903 44.88V49.668H139.307V38.286H140.903V39.42ZM145.593 42.108C145.593 41.576 145.481 41.1187 145.257 40.736C145.042 40.344 144.753 40.05 144.389 39.854C144.034 39.6487 143.651 39.546 143.241 39.546C142.839 39.546 142.457 39.6487 142.093 39.854C141.738 40.0593 141.449 40.358 141.225 40.75C141.01 41.142 140.903 41.604 140.903 42.136C140.903 42.668 141.01 43.1347 141.225 43.536C141.449 43.928 141.738 44.2267 142.093 44.432C142.457 44.6373 142.839 44.74 143.241 44.74C143.651 44.74 144.034 44.6373 144.389 44.432C144.753 44.2173 145.042 43.9093 145.257 43.508C145.481 43.1067 145.593 42.64 145.593 42.108ZM108.658 51.27L105.774 61H103.968L101.924 53.636L99.7535 61L97.9615 61.014L95.2035 51.27H96.8975L98.9135 59.194L101.098 51.27H102.89L104.92 59.152L106.95 51.27H108.658ZM109.802 57.108C109.802 56.3333 109.961 55.6473 110.278 55.05C110.605 54.4527 111.043 53.9907 111.594 53.664C112.154 53.328 112.77 53.16 113.442 53.16C114.049 53.16 114.576 53.2813 115.024 53.524C115.481 53.7573 115.845 54.0513 116.116 54.406V53.286H117.726V61H116.116V59.852C115.845 60.216 115.477 60.5193 115.01 60.762C114.543 61.0047 114.011 61.126 113.414 61.126C112.751 61.126 112.145 60.958 111.594 60.622C111.043 60.2767 110.605 59.8007 110.278 59.194C109.961 58.578 109.802 57.8827 109.802 57.108ZM116.116 57.136C116.116 56.604 116.004 56.142 115.78 55.75C115.565 55.358 115.281 55.0593 114.926 54.854C114.571 54.6487 114.189 54.546 113.778 54.546C113.367 54.546 112.985 54.6487 112.63 54.854C112.275 55.05 111.986 55.344 111.762 55.736C111.547 56.1187 111.44 56.576 111.44 57.108C111.44 57.64 111.547 58.1067 111.762 58.508C111.986 58.9093 112.275 59.2173 112.63 59.432C112.994 59.6373 113.377 59.74 113.778 59.74C114.189 59.74 114.571 59.6373 114.926 59.432C115.281 59.2267 115.565 58.928 115.78 58.536C116.004 58.1347 116.116 57.668 116.116 57.136ZM122.982 61.126C122.375 61.126 121.829 61.0187 121.344 60.804C120.868 60.58 120.49 60.2813 120.21 59.908C119.93 59.5253 119.781 59.1007 119.762 58.634H121.414C121.442 58.9607 121.596 59.236 121.876 59.46C122.165 59.6747 122.525 59.782 122.954 59.782C123.402 59.782 123.747 59.698 123.99 59.53C124.242 59.3527 124.368 59.1287 124.368 58.858C124.368 58.5687 124.228 58.354 123.948 58.214C123.677 58.074 123.243 57.92 122.646 57.752C122.067 57.5933 121.596 57.4393 121.232 57.29C120.868 57.1407 120.551 56.912 120.28 56.604C120.019 56.296 119.888 55.89 119.888 55.386C119.888 54.9753 120.009 54.602 120.252 54.266C120.495 53.9207 120.84 53.65 121.288 53.454C121.745 53.258 122.268 53.16 122.856 53.16C123.733 53.16 124.438 53.384 124.97 53.832C125.511 54.2707 125.801 54.8727 125.838 55.638H124.242C124.214 55.2927 124.074 55.0173 123.822 54.812C123.57 54.6067 123.229 54.504 122.8 54.504C122.38 54.504 122.058 54.5833 121.834 54.742C121.61 54.9007 121.498 55.1107 121.498 55.372C121.498 55.5773 121.573 55.75 121.722 55.89C121.871 56.03 122.053 56.142 122.268 56.226C122.483 56.3007 122.8 56.3987 123.22 56.52C123.78 56.6693 124.237 56.8233 124.592 56.982C124.956 57.1313 125.269 57.3553 125.53 57.654C125.791 57.9527 125.927 58.3493 125.936 58.844C125.936 59.2827 125.815 59.6747 125.572 60.02C125.329 60.3653 124.984 60.636 124.536 60.832C124.097 61.028 123.579 61.126 122.982 61.126ZM132.011 53.16C132.599 53.16 133.121 53.286 133.579 53.538C134.045 53.79 134.409 54.1633 134.671 54.658C134.941 55.1527 135.077 55.75 135.077 56.45V61H133.495V56.688C133.495 55.9973 133.322 55.47 132.977 55.106C132.631 54.7327 132.16 54.546 131.563 54.546C130.965 54.546 130.489 54.7327 130.135 55.106C129.789 55.47 129.617 55.9973 129.617 56.688V61H128.021V50.64H129.617V54.182C129.887 53.8553 130.228 53.6033 130.639 53.426C131.059 53.2487 131.516 53.16 132.011 53.16Z" fill="white"/>
<line x1="70" y1="73.2705" x2="158" y2="73.2705" stroke="#B0B0B0"/>
<g clip-path="url(#clip0_715_2291)">
<path d="M127.307 165H120.706C120.322 165 120 165.311 120 165.709V175.491C120 175.876 120.31 176.2 120.706 176.2H127.307C127.69 176.2 128.012 175.889 128.012 175.491V165.709C128.012 165.324 127.703 165 127.307 165ZM124.012 175.528C123.43 175.528 122.96 175.055 122.96 174.47C122.96 173.885 123.43 173.412 124.012 173.412C124.594 173.412 125.065 173.885 125.065 174.47C125.065 175.055 124.594 175.528 124.012 175.528ZM126.935 172.778H121.077V166.083H126.91V172.778H126.935Z" fill="white"/>
</g>
<path opacity="0.5" d="M50.1602 9.27051V6.54651H51.6722C52.7402 6.54651 53.2202 7.05051 53.2202 7.91451C53.2202 8.75451 52.7402 9.27051 51.6722 9.27051H50.1602ZM54.6242 7.91451C54.6242 6.55851 53.6522 5.43051 51.6722 5.43051H48.7922V13.7705H50.1602V10.3865H51.6722C53.8442 10.3865 54.6242 9.10251 54.6242 7.91451ZM57.6569 10.2905C57.6569 8.88651 58.2809 8.46651 59.2889 8.46651H59.6369V7.05051C58.7009 7.05051 58.0409 7.45851 57.6569 8.11851V7.15851H56.2889V13.7705H57.6569V10.2905ZM64.0384 8.20251C65.0584 8.20251 65.8624 8.85051 65.8864 9.87051H62.2264C62.3704 8.82651 63.1144 8.20251 64.0384 8.20251ZM67.1344 11.8025H65.6584C65.4064 12.3185 64.9384 12.7265 64.0984 12.7265C63.0904 12.7265 62.3104 12.0665 62.2144 10.9745H67.2664C67.3024 10.7465 67.3144 10.5305 67.3144 10.3025C67.3144 8.35851 65.9824 7.05051 64.0984 7.05051C62.1424 7.05051 60.7984 8.38251 60.7984 10.4585C60.7984 12.5345 62.2024 13.8785 64.0984 13.8785C65.7184 13.8785 66.7624 12.9545 67.1344 11.8025ZM73.9526 11.9225C73.8806 9.53451 70.1486 10.2785 70.1486 8.94651C70.1486 8.50251 70.5326 8.20251 71.2646 8.20251C72.0086 8.20251 72.4526 8.59851 72.5006 9.17451H73.8686C73.7966 7.85451 72.8126 7.05051 71.3126 7.05051C69.7526 7.05051 68.7686 7.90251 68.7686 8.95851C68.7686 11.3825 72.6086 10.6385 72.6086 11.9345C72.6086 12.3905 72.1886 12.7265 71.3966 12.7265C70.6406 12.7265 70.1246 12.2825 70.0766 11.7425H68.6606C68.7206 12.9425 69.8366 13.8785 71.4206 13.8785C72.9806 13.8785 73.9526 13.0385 73.9526 11.9225ZM80.7228 11.9225C80.6508 9.53451 76.9188 10.2785 76.9188 8.94651C76.9188 8.50251 77.3028 8.20251 78.0348 8.20251C78.7788 8.20251 79.2228 8.59851 79.2708 9.17451H80.6388C80.5668 7.85451 79.5828 7.05051 78.0828 7.05051C76.5228 7.05051 75.5388 7.90251 75.5388 8.95851C75.5388 11.3825 79.3788 10.6385 79.3788 11.9345C79.3788 12.3905 78.9588 12.7265 78.1668 12.7265C77.4108 12.7265 76.8948 12.2825 76.8468 11.7425H75.4308C75.4908 12.9425 76.6068 13.8785 78.1908 13.8785C79.7508 13.8785 80.7228 13.0385 80.7228 11.9225ZM85.5821 10.4345C85.5821 12.4745 86.9621 13.8785 88.6781 13.8785C89.7821 13.8785 90.5741 13.3505 90.9941 12.7865V13.7705H92.3741V7.15851H90.9941V8.11851C90.5861 7.57851 89.8181 7.05051 88.7021 7.05051C86.9621 7.05051 85.5821 8.39451 85.5821 10.4345ZM90.9941 10.4585C90.9941 11.8865 90.0221 12.6905 88.9901 12.6905C87.9701 12.6905 86.9861 11.8625 86.9861 10.4345C86.9861 9.00651 87.9701 8.23851 88.9901 8.23851C90.0221 8.23851 90.9941 9.04251 90.9941 10.4585ZM99.2229 13.7705H100.579V9.87051C100.579 8.02251 99.4149 7.05051 97.8669 7.05051C97.0749 7.05051 96.3429 7.37451 95.8989 7.91451V7.15851H94.5309V13.7705H95.8989V10.0745C95.8989 8.86251 96.5589 8.23851 97.5669 8.23851C98.5629 8.23851 99.2229 8.86251 99.2229 10.0745V13.7705ZM102.228 10.4345C102.228 12.4745 103.608 13.8785 105.348 13.8785C106.428 13.8785 107.22 13.3745 107.64 12.7745V13.7705H109.02V4.89051H107.64V8.08251C107.136 7.45851 106.224 7.05051 105.36 7.05051C103.608 7.05051 102.228 8.39451 102.228 10.4345ZM107.64 10.4585C107.64 11.8865 106.668 12.6905 105.636 12.6905C104.616 12.6905 103.632 11.8625 103.632 10.4345C103.632 9.00651 104.616 8.23851 105.636 8.23851C106.668 8.23851 107.64 9.04251 107.64 10.4585ZM114.654 13.7705H116.022V10.0745C116.022 8.86251 116.682 8.23851 117.69 8.23851C118.686 8.23851 119.346 8.86251 119.346 10.0745V13.7705H120.702V9.87051C120.702 8.02251 119.55 7.05051 118.074 7.05051C117.222 7.05051 116.478 7.37451 116.022 7.92651V4.89051H114.654V13.7705ZM129.107 10.4585C129.107 8.38251 127.619 7.05051 125.735 7.05051C123.851 7.05051 122.363 8.38251 122.363 10.4585C122.363 12.5345 123.791 13.8785 125.675 13.8785C127.571 13.8785 129.107 12.5345 129.107 10.4585ZM123.755 10.4585C123.755 8.95851 124.679 8.23851 125.711 8.23851C126.731 8.23851 127.703 8.95851 127.703 10.4585C127.703 11.9585 126.695 12.6905 125.675 12.6905C124.643 12.6905 123.755 11.9585 123.755 10.4585ZM130.819 13.7705H132.187V4.89051H130.819V13.7705ZM133.887 10.4345C133.887 12.4745 135.267 13.8785 137.007 13.8785C138.087 13.8785 138.879 13.3745 139.299 12.7745V13.7705H140.679V4.89051H139.299V8.08251C138.795 7.45851 137.883 7.05051 137.019 7.05051C135.267 7.05051 133.887 8.39451 133.887 10.4345ZM139.299 10.4585C139.299 11.8865 138.327 12.6905 137.295 12.6905C136.275 12.6905 135.291 11.8625 135.291 10.4345C135.291 9.00651 136.275 8.23851 137.295 8.23851C138.327 8.23851 139.299 9.04251 139.299 10.4585ZM146.481 13.7705H147.861V8.27451H149.085V7.15851H147.861V6.69051C147.861 5.93451 148.149 5.64651 148.989 5.64651V4.50651C147.261 4.50651 146.481 5.16651 146.481 6.69051V7.15851H145.701V8.27451H146.481V13.7705ZM156.958 10.4585C156.958 8.38251 155.47 7.05051 153.586 7.05051C151.702 7.05051 150.214 8.38251 150.214 10.4585C150.214 12.5345 151.642 13.8785 153.526 13.8785C155.422 13.8785 156.958 12.5345 156.958 10.4585ZM151.606 10.4585C151.606 8.95851 152.53 8.23851 153.562 8.23851C154.582 8.23851 155.554 8.95851 155.554 10.4585C155.554 11.9585 154.546 12.6905 153.526 12.6905C152.494 12.6905 151.606 11.9585 151.606 10.4585ZM160.038 10.2905C160.038 8.88651 160.662 8.46651 161.67 8.46651H162.018V7.05051C161.082 7.05051 160.422 7.45851 160.038 8.11851V7.15851H158.67V13.7705H160.038V10.2905ZM166.909 7.18251H168.241C168.325 6.57051 168.769 5.99451 169.729 5.99451C170.665 5.99451 171.157 6.49851 171.157 7.25451C171.157 8.19051 170.401 8.55051 169.165 8.56251H168.841V9.69051H169.153C170.581 9.69051 171.325 10.0865 171.325 11.2385C171.325 12.0545 170.821 12.6785 169.801 12.6785C168.769 12.6785 168.169 12.0545 168.109 11.2385H166.789C166.873 12.9545 168.157 13.8185 169.813 13.8185C171.637 13.8185 172.621 12.7625 172.621 11.3705C172.621 10.1585 172.033 9.40251 171.121 9.12651V9.07851C171.805 8.85051 172.465 8.14251 172.465 7.09851C172.465 5.82651 171.517 4.81851 169.777 4.81851C168.181 4.81851 167.005 5.67051 166.909 7.18251ZM179.53 11.9225C179.458 9.53451 175.726 10.2785 175.726 8.94651C175.726 8.50251 176.11 8.20251 176.842 8.20251C177.586 8.20251 178.03 8.59851 178.078 9.17451H179.446C179.374 7.85451 178.39 7.05051 176.89 7.05051C175.33 7.05051 174.346 7.90251 174.346 8.95851C174.346 11.3825 178.186 10.6385 178.186 11.9345C178.186 12.3905 177.766 12.7265 176.974 12.7265C176.218 12.7265 175.702 12.2825 175.654 11.7425H174.238C174.298 12.9425 175.414 13.8785 176.998 13.8785C178.558 13.8785 179.53 13.0385 179.53 11.9225Z" fill="white"/>
<defs>
<clipPath id="clip0_715_2291">
<rect width="8" height="11.2" fill="white" transform="translate(120 165)"/>
</clipPath>
</defs>
</svg>
