<svg width="206" height="182" viewBox="0 0 206 182" fill="none" xmlns="http://www.w3.org/2000/svg">
    <path d="M44.8863 35.5189L46.6783 35.5049L48.8483 28.1409L50.8923 35.5049H52.6983L55.5823 25.7749H53.8743L51.8443 33.6569L49.8143 25.7749H48.0223L45.8383 33.6989L43.8223 25.7749H42.1283L44.8863 35.5189ZM63.8247 35.5049H65.5047L62.0187 25.7609H60.1707L56.6847 35.5049H58.3507L59.0507 33.5169H63.1247L63.8247 35.5049ZM62.6767 32.2149H59.4987L61.0947 27.6929L62.6767 32.2149ZM73.9464 32.7469C73.9464 29.1909 68.7944 30.5629 68.7944 28.3649C68.7944 27.4269 69.5084 26.9789 70.4324 27.0069C71.4404 27.0349 72.0144 27.6369 72.0704 28.2949H73.8344C73.6944 26.6289 72.3784 25.6489 70.5164 25.6489C68.5284 25.6489 67.1704 26.7129 67.1704 28.4209C67.1704 32.0049 72.3364 30.4789 72.3364 32.8309C72.3364 33.6569 71.7064 34.2589 70.5864 34.2589C69.4804 34.2589 68.9204 33.6149 68.8504 32.8169H67.1424C67.1424 34.5389 68.6404 35.6029 70.5864 35.6029C72.7564 35.6029 73.9464 34.2029 73.9464 32.7469ZM82.3636 35.5049H83.9596V25.7749H82.3636V29.9469H77.7856V25.7749H76.1896V35.5049H77.7856V31.2489H82.3636V35.5049ZM45.4845 48.0769H48.0885V56.5049H49.6845V48.0769H52.2745V46.7749H45.4845V48.0769ZM59.6269 46.7609H54.2509V56.5049H59.6269V55.2029H55.8469V52.2209H59.2069V50.9189H55.8469V48.0629H59.6269V46.7609ZM61.9527 56.5049H63.5487V49.8409L66.5307 56.5049H67.6367L70.6047 49.8409V56.5049H72.2007V46.7749H70.4927L67.0907 54.4049L63.6747 46.7749H61.9527V56.5049ZM76.2544 51.2549V48.0769H78.0184C79.2644 48.0769 79.8244 48.6649 79.8244 49.6729C79.8244 50.6529 79.2644 51.2549 78.0184 51.2549H76.2544ZM81.4624 49.6729C81.4624 48.0909 80.3284 46.7749 78.0184 46.7749H74.6584V56.5049H76.2544V52.5569H78.0184C80.5524 52.5569 81.4624 51.0589 81.4624 49.6729Z" fill="white"/>
    <circle cx="64.5646" cy="79.7194" r="13.3465" stroke="white" stroke-width="2"/>
    <path d="M101.521 53.3809V56.2789H98.6926V57.6229H101.521V60.5209H103.005V57.6229H105.833V56.2789H103.005V53.3809H101.521Z" fill="white"/>
    <path d="M116.25 30.2549V27.0769H118.014C119.26 27.0769 119.82 27.6649 119.82 28.6729C119.82 29.6529 119.26 30.2549 118.014 30.2549H116.25ZM121.458 28.6729C121.458 27.0909 120.324 25.7749 118.014 25.7749H114.654V35.5049H116.25V31.5569H118.014C120.548 31.5569 121.458 30.0589 121.458 28.6729ZM132.748 30.6189C132.748 27.7069 130.55 25.6489 127.778 25.6489C125.034 25.6489 122.808 27.7069 122.808 30.6189C122.808 33.5449 125.034 35.6029 127.778 35.6029C130.55 35.6029 132.748 33.5449 132.748 30.6189ZM124.446 30.6189C124.446 28.4209 125.846 27.0489 127.778 27.0489C129.71 27.0489 131.11 28.4209 131.11 30.6189C131.11 32.8169 129.71 34.2169 127.778 34.2169C125.846 34.2169 124.446 32.8169 124.446 30.6189ZM136.653 35.5189L138.445 35.5049L140.615 28.1409L142.659 35.5049H144.465L147.349 25.7749H145.641L143.611 33.6569L141.581 25.7749H139.789L137.605 33.6989L135.589 25.7749H133.895L136.653 35.5189ZM154.401 25.7609H149.025V35.5049H154.401V34.2029H150.621V31.2209H153.981V29.9189H150.621V27.0629H154.401V25.7609ZM161.893 28.6869C161.893 29.6529 161.333 30.3389 160.087 30.3389H158.323V27.0769H160.087C161.333 27.0769 161.893 27.7069 161.893 28.6869ZM156.727 25.7749V35.5049H158.323V31.6129H159.541L161.781 35.5049H163.685L161.277 31.4729C162.915 31.0669 163.531 29.8349 163.531 28.6869C163.531 27.1049 162.397 25.7749 160.087 25.7749H156.727ZM129.307 46.7749H126.129V56.5049H129.307C132.429 56.5049 134.473 54.6709 134.473 51.6749C134.473 48.6649 132.429 46.7749 129.307 46.7749ZM127.725 55.2029V48.0769H129.307C131.603 48.0769 132.835 49.4489 132.835 51.6749C132.835 53.8869 131.603 55.2029 129.307 55.2029H127.725ZM141.581 49.6869C141.581 50.6529 141.021 51.3389 139.775 51.3389H138.011V48.0769H139.775C141.021 48.0769 141.581 48.7069 141.581 49.6869ZM136.415 46.7749V56.5049H138.011V52.6129H139.229L141.469 56.5049H143.373L140.965 52.4729C142.603 52.0669 143.219 50.8349 143.219 49.6869C143.219 48.1049 142.085 46.7749 139.775 46.7749H136.415ZM148.015 52.9769V56.5049H149.611V52.9769L152.831 46.7749H151.067L148.813 51.5489L146.559 46.7749H144.781L148.015 52.9769Z" fill="white"/>
    <circle cx="139.063" cy="79.7194" r="13.3465" stroke="white" stroke-width="2"/>
    <path d="M46.4731 148.982C46.4731 150.23 45.7531 151.126 44.1051 151.126H41.9611V146.902H44.1051C45.7691 146.902 46.4731 147.718 46.4731 148.982ZM40.5051 145.702V156.854H41.9611V152.294H43.7211L46.3771 156.854H48.1211L45.3211 152.182C47.1931 151.766 47.9771 150.406 47.9771 148.982C47.9771 147.158 46.7291 145.702 44.1051 145.702H40.5051ZM54.3275 149.174C55.8315 149.174 57.1115 150.118 57.0955 151.83H51.5595C51.7195 150.118 52.9035 149.174 54.3275 149.174ZM58.4235 154.15H56.8555C56.5355 155.094 55.7035 155.766 54.3915 155.766C52.9035 155.766 51.6555 154.79 51.5435 153.014H58.5515C58.5835 152.71 58.5995 152.454 58.5995 152.134C58.5995 149.734 56.9355 147.942 54.3915 147.942C51.8315 147.942 50.0555 149.686 50.0555 152.454C50.0555 155.238 51.8955 156.998 54.3915 156.998C56.5675 156.998 57.9755 155.75 58.4235 154.15ZM60.3373 152.438C60.3373 155.158 62.1453 156.998 64.4813 156.998C66.0973 156.998 67.2333 156.166 67.7613 155.222V156.854H69.2333V148.086H67.7613V149.686C67.2493 148.774 66.1293 147.942 64.4973 147.942C62.1453 147.942 60.3373 149.702 60.3373 152.438ZM67.7613 152.454C67.7613 154.518 66.3853 155.718 64.7853 155.718C63.1853 155.718 61.8253 154.502 61.8253 152.438C61.8253 150.374 63.1853 149.206 64.7853 149.206C66.3853 149.206 67.7613 150.422 67.7613 152.454ZM71.5098 152.438C71.5098 155.158 73.3178 156.998 75.6698 156.998C77.2698 156.998 78.4058 156.182 78.9338 155.206V156.854H80.4058V145.014H78.9338V149.654C78.3258 148.646 77.0618 147.942 75.6858 147.942C73.3178 147.942 71.5098 149.702 71.5098 152.438ZM78.9338 152.454C78.9338 154.518 77.5578 155.718 75.9578 155.718C74.3578 155.718 72.9978 154.502 72.9978 152.438C72.9978 150.374 74.3578 149.206 75.9578 149.206C77.5578 149.206 78.9338 150.422 78.9338 152.454ZM86.5543 155.19L83.8023 148.086H82.1863L85.7223 156.758L83.9943 160.982H85.4983L90.7783 148.086H89.2743L86.5543 155.19ZM97.5476 154.454C97.5476 156.214 98.4276 156.854 99.9796 156.854H101.292V155.622H100.22C99.3236 155.622 99.0036 155.318 99.0036 154.454V149.286H101.292V148.086H99.0036V145.878H97.5476V148.086H96.4116V149.286H97.5476V154.454ZM111.736 152.454C111.736 149.686 109.8 147.942 107.304 147.942C104.824 147.942 102.872 149.686 102.872 152.454C102.872 155.238 104.76 156.998 107.24 156.998C109.736 156.998 111.736 155.238 111.736 152.454ZM104.36 152.454C104.36 150.246 105.752 149.206 107.288 149.206C108.792 149.206 110.248 150.246 110.248 152.454C110.248 154.678 108.76 155.718 107.24 155.718C105.72 155.718 104.36 154.678 104.36 152.454ZM118.092 152.454C118.092 155.238 119.868 156.998 122.364 156.998C124.54 156.998 125.964 155.782 126.412 154.038H124.844C124.524 155.142 123.66 155.766 122.364 155.766C120.764 155.766 119.58 154.63 119.58 152.454C119.58 150.31 120.764 149.174 122.364 149.174C123.66 149.174 124.54 149.846 124.844 150.902H126.412C125.964 149.062 124.54 147.942 122.364 147.942C119.868 147.942 118.092 149.702 118.092 152.454ZM137.034 152.454C137.034 149.686 135.098 147.942 132.602 147.942C130.122 147.942 128.17 149.686 128.17 152.454C128.17 155.238 130.058 156.998 132.538 156.998C135.034 156.998 137.034 155.238 137.034 152.454ZM129.658 152.454C129.658 150.246 131.05 149.206 132.586 149.206C134.09 149.206 135.546 150.246 135.546 152.454C135.546 154.678 134.058 155.718 132.538 155.718C131.018 155.718 129.658 154.678 129.658 152.454ZM145.725 156.854H147.165V151.686C147.165 149.174 145.613 147.926 143.581 147.926C142.397 147.926 141.341 148.422 140.765 149.334V148.086H139.309V156.854H140.765V152.006C140.765 150.118 141.789 149.19 143.277 149.19C144.749 149.19 145.725 150.102 145.725 151.894V156.854ZM156.319 156.854H157.759V151.686C157.759 149.174 156.207 147.926 154.175 147.926C152.991 147.926 151.935 148.422 151.359 149.334V148.086H149.903V156.854H151.359V152.006C151.359 150.118 152.383 149.19 153.871 149.19C155.343 149.19 156.319 150.102 156.319 151.894V156.854ZM164.226 149.174C165.73 149.174 167.01 150.118 166.994 151.83H161.458C161.618 150.118 162.802 149.174 164.226 149.174ZM168.322 154.15H166.754C166.434 155.094 165.602 155.766 164.29 155.766C162.802 155.766 161.554 154.79 161.442 153.014H168.45C168.482 152.71 168.498 152.454 168.498 152.134C168.498 149.734 166.834 147.942 164.29 147.942C161.73 147.942 159.954 149.686 159.954 152.454C159.954 155.238 161.794 156.998 164.29 156.998C166.466 156.998 167.874 155.75 168.322 154.15ZM170.235 152.454C170.235 155.238 172.011 156.998 174.507 156.998C176.683 156.998 178.107 155.782 178.555 154.038H176.987C176.667 155.142 175.803 155.766 174.507 155.766C172.907 155.766 171.723 154.63 171.723 152.454C171.723 150.31 172.907 149.174 174.507 149.174C175.803 149.174 176.683 149.846 176.987 150.902H178.555C178.107 149.062 176.683 147.942 174.507 147.942C172.011 147.942 170.235 149.702 170.235 152.454ZM181.178 154.454C181.178 156.214 182.058 156.854 183.61 156.854H184.922V155.622H183.85C182.954 155.622 182.634 155.318 182.634 154.454V149.286H184.922V148.086H182.634V145.878H181.178V148.086H180.042V149.286H181.178V154.454ZM188.47 155.958C188.47 155.398 188.038 154.966 187.51 154.966C186.95 154.966 186.518 155.398 186.518 155.958C186.518 156.518 186.95 156.95 187.51 156.95C188.038 156.95 188.47 156.518 188.47 155.958Z" fill="white"/>
    <path d="M41.5674 168.926V166.878H42.6394C43.4714 166.878 43.8234 167.262 43.8234 167.91C43.8234 168.534 43.4714 168.926 42.6394 168.926H41.5674ZM44.5674 167.91C44.5674 166.998 43.9514 166.278 42.6394 166.278H40.8394V171.854H41.5674V169.526H42.6394C44.0234 169.526 44.5674 168.758 44.5674 167.91ZM45.8322 171.854H46.5602V165.934H45.8322V171.854ZM50.025 168.014C50.777 168.014 51.417 168.486 51.409 169.342H48.641C48.721 168.486 49.313 168.014 50.025 168.014ZM52.073 170.502H51.289C51.129 170.974 50.713 171.31 50.057 171.31C49.313 171.31 48.689 170.822 48.633 169.934H52.137C52.153 169.782 52.161 169.654 52.161 169.494C52.161 168.294 51.329 167.398 50.057 167.398C48.777 167.398 47.889 168.27 47.889 169.654C47.889 171.046 48.809 171.926 50.057 171.926C51.145 171.926 51.849 171.302 52.073 170.502ZM53.2099 169.646C53.2099 171.006 54.1139 171.926 55.2819 171.926C56.0899 171.926 56.6579 171.51 56.9219 171.038V171.854H57.6579V167.47H56.9219V168.27C56.6659 167.814 56.1059 167.398 55.2899 167.398C54.1139 167.398 53.2099 168.278 53.2099 169.646ZM56.9219 169.654C56.9219 170.686 56.2339 171.286 55.4339 171.286C54.6339 171.286 53.9539 170.678 53.9539 169.646C53.9539 168.614 54.6339 168.03 55.4339 168.03C56.2339 168.03 56.9219 168.638 56.9219 169.654ZM62.4001 170.662C62.3681 169.094 59.8241 169.662 59.8241 168.622C59.8241 168.27 60.1441 168.014 60.6801 168.014C61.2641 168.014 61.6001 168.334 61.6321 168.774H62.3601C62.3121 167.918 61.6721 167.398 60.7041 167.398C59.7281 167.398 59.0961 167.95 59.0961 168.622C59.0961 170.254 61.6881 169.686 61.6881 170.662C61.6881 171.022 61.3681 171.31 60.7921 171.31C60.1761 171.31 59.8001 170.99 59.7601 170.566H59.0081C59.0561 171.366 59.7761 171.926 60.8001 171.926C61.7681 171.926 62.4001 171.382 62.4001 170.662ZM65.6518 168.014C66.4038 168.014 67.0438 168.486 67.0358 169.342H64.2678C64.3478 168.486 64.9398 168.014 65.6518 168.014ZM67.6998 170.502H66.9158C66.7558 170.974 66.3398 171.31 65.6838 171.31C64.9398 171.31 64.3158 170.822 64.2598 169.934H67.7638C67.7798 169.782 67.7878 169.654 67.7878 169.494C67.7878 168.294 66.9558 167.398 65.6838 167.398C64.4038 167.398 63.5158 168.27 63.5158 169.654C63.5158 171.046 64.4358 171.926 65.6838 171.926C66.7718 171.926 67.4758 171.302 67.6998 170.502ZM71.7376 171.854H72.4656V168.07H73.3856V167.47H72.4656V167.158C72.4656 166.59 72.6816 166.35 73.3376 166.35V165.742C72.2176 165.742 71.7376 166.182 71.7376 167.158V167.47H71.1696V168.07H71.7376V171.854ZM78.7544 169.654C78.7544 168.27 77.7864 167.398 76.5384 167.398C75.2984 167.398 74.3224 168.27 74.3224 169.654C74.3224 171.046 75.2664 171.926 76.5064 171.926C77.7544 171.926 78.7544 171.046 78.7544 169.654ZM75.0664 169.654C75.0664 168.55 75.7624 168.03 76.5304 168.03C77.2824 168.03 78.0104 168.55 78.0104 169.654C78.0104 170.766 77.2664 171.286 76.5064 171.286C75.7464 171.286 75.0664 170.766 75.0664 169.654ZM80.0716 171.854H80.7996V165.934H80.0716V171.854ZM82.4003 171.854H83.1283V165.934H82.4003V171.854ZM88.8891 169.654C88.8891 168.27 87.9211 167.398 86.6731 167.398C85.4331 167.398 84.4571 168.27 84.4571 169.654C84.4571 171.046 85.4011 171.926 86.6411 171.926C87.8891 171.926 88.8891 171.046 88.8891 169.654ZM85.2011 169.654C85.2011 168.55 85.8971 168.03 86.6651 168.03C87.4171 168.03 88.1451 168.55 88.1451 169.654C88.1451 170.766 87.4011 171.286 86.6411 171.286C85.8811 171.286 85.2011 170.766 85.2011 169.654ZM91.0623 171.854H91.8143L92.8703 168.374L93.9263 171.854H94.6783L96.0463 167.47H95.3263L94.3343 171.158L93.2703 167.47H92.5263L91.4383 171.15L90.4303 167.47H89.6863L91.0623 171.854ZM99.7816 170.654C99.7816 171.534 100.222 171.854 100.998 171.854H101.654V171.238H101.118C100.67 171.238 100.51 171.086 100.51 170.654V168.07H101.654V167.47H100.51V166.366H99.7816V167.47H99.2136V168.07H99.7816V170.654ZM102.896 171.854H103.624V169.43C103.624 168.486 104.136 168.022 104.88 168.022C105.616 168.022 106.104 168.478 106.104 169.374V171.854H106.824V169.27C106.824 168.014 106.048 167.39 105.072 167.39C104.456 167.39 103.912 167.638 103.624 168.102V165.934H102.896V171.854ZM110.237 168.014C110.989 168.014 111.629 168.486 111.621 169.342H108.853C108.933 168.486 109.525 168.014 110.237 168.014ZM112.285 170.502H111.501C111.341 170.974 110.925 171.31 110.269 171.31C109.525 171.31 108.901 170.822 108.845 169.934H112.349C112.365 169.782 112.373 169.654 112.373 169.494C112.373 168.294 111.541 167.398 110.269 167.398C108.989 167.398 108.101 168.27 108.101 169.654C108.101 171.046 109.021 171.926 110.269 171.926C111.357 171.926 112.061 171.302 112.285 170.502ZM119.811 170.334C119.811 168.27 116.803 169.166 116.803 167.726C116.803 167.126 117.275 166.814 117.875 166.83C118.555 166.838 118.907 167.262 118.955 167.638H119.755C119.667 166.79 118.971 166.206 117.907 166.206C116.803 166.206 116.059 166.83 116.059 167.75C116.059 169.822 119.075 168.862 119.075 170.366C119.075 170.894 118.659 171.294 117.955 171.294C117.179 171.294 116.851 170.83 116.803 170.366H116.027C116.043 171.286 116.835 171.91 117.955 171.91C119.163 171.91 119.811 171.126 119.811 170.334ZM127.57 171.854H128.29V169.27C128.29 168.014 127.514 167.39 126.514 167.39C125.842 167.39 125.218 167.734 124.962 168.366C124.674 167.71 124.074 167.39 123.354 167.39C122.778 167.39 122.258 167.638 121.97 168.102V167.47H121.242V171.854H121.97V169.438C121.97 168.494 122.474 168.022 123.21 168.022C123.93 168.022 124.41 168.478 124.41 169.374V171.854H125.13V169.438C125.13 168.494 125.634 168.022 126.37 168.022C127.09 168.022 127.57 168.478 127.57 169.374V171.854ZM129.572 169.646C129.572 171.006 130.476 171.926 131.644 171.926C132.452 171.926 133.02 171.51 133.284 171.038V171.854H134.02V167.47H133.284V168.27C133.028 167.814 132.468 167.398 131.652 167.398C130.476 167.398 129.572 168.278 129.572 169.646ZM133.284 169.654C133.284 170.686 132.596 171.286 131.796 171.286C130.996 171.286 130.316 170.678 130.316 169.646C130.316 168.614 130.996 168.03 131.796 168.03C132.596 168.03 133.284 168.638 133.284 169.654ZM136.338 169.47C136.338 168.454 136.866 168.142 137.562 168.142H137.754V167.39C137.058 167.39 136.586 167.694 136.338 168.182V167.47H135.61V171.854H136.338V169.47ZM139.115 170.654C139.115 171.534 139.555 171.854 140.331 171.854H140.987V171.238H140.451C140.003 171.238 139.843 171.086 139.843 170.654V168.07H140.987V167.47H139.843V166.366H139.115V167.47H138.547V168.07H139.115V170.654ZM145.797 171.854H146.525V166.278H145.797V168.726H142.957V166.278H142.229V171.854H142.957V169.326H145.797V171.854ZM148.592 169.062C148.592 167.694 149.472 166.846 150.648 166.846C151.824 166.846 152.704 167.694 152.704 169.062C152.704 170.422 151.824 171.278 150.648 171.278C149.472 171.278 148.592 170.422 148.592 169.062ZM153.448 169.062C153.448 167.39 152.224 166.214 150.648 166.214C149.08 166.214 147.848 167.39 147.848 169.062C147.848 170.734 149.08 171.91 150.648 171.91C150.936 171.91 151.216 171.87 151.48 171.798L152.592 172.91H153.536L152.128 171.51C152.928 171.03 153.448 170.15 153.448 169.062ZM161.022 171.854H161.79L159.782 166.31H158.942L156.926 171.854H157.694L158.142 170.614H160.574L161.022 171.854ZM160.366 170.022H158.35L159.358 167.206L160.366 170.022ZM163.756 168.278V167.47H163.028V173.934H163.756V171.046C164.028 171.494 164.596 171.926 165.396 171.926C166.572 171.926 167.476 171.006 167.476 169.646C167.476 168.278 166.572 167.398 165.396 167.398C164.596 167.398 164.02 167.814 163.756 168.278ZM166.732 169.646C166.732 170.678 166.052 171.286 165.244 171.286C164.452 171.286 163.756 170.686 163.756 169.654C163.756 168.638 164.452 168.03 165.244 168.03C166.052 168.03 166.732 168.614 166.732 169.646ZM169.522 168.278V167.47H168.794V173.934H169.522V171.046C169.794 171.494 170.362 171.926 171.162 171.926C172.338 171.926 173.242 171.006 173.242 169.646C173.242 168.278 172.338 167.398 171.162 167.398C170.362 167.398 169.786 167.814 169.522 168.278ZM172.498 169.646C172.498 170.678 171.818 171.286 171.01 171.286C170.218 171.286 169.522 170.686 169.522 169.654C169.522 168.638 170.218 168.03 171.01 168.03C171.818 168.03 172.498 168.614 172.498 169.646Z" fill="white"/>
    <rect x="1.435" y="137.805" width="203.13" height="43.0242" stroke="#9D9D9D"/>
    <path fill-rule="evenodd" clip-rule="evenodd" d="M21.7622 164.325L21.8474 164.411L21.932 164.325L23.1456 162.858C22.7942 162.553 22.3446 162.361 21.8474 162.361C21.3496 162.361 20.8994 162.553 20.548 162.858L21.7622 164.325V164.325ZM18.7731 160.713C19.6315 159.97 20.708 159.562 21.8475 159.562C22.9857 159.562 24.0622 159.97 24.9213 160.713L25.7044 159.767C24.6261 158.835 23.276 158.324 21.8475 158.324C20.4183 158.324 19.0677 158.835 17.9899 159.767L18.7731 160.714V160.713ZM15.394 156.63C17.1962 155.073 19.4566 154.222 21.8473 154.222C24.2375 154.222 26.4979 155.073 28.3 156.63L27.5144 157.58C25.9309 156.212 23.9472 155.461 21.8473 155.461C19.7475 155.461 17.7632 156.212 16.1796 157.58L15.394 156.63Z" fill="white"/>
    <circle cx="21.8471" cy="159.317" r="11.4382" stroke="white"/>
    <path opacity="0.5" d="M39.1602 5.60254V2.87854H40.6722C41.7402 2.87854 42.2202 3.38254 42.2202 4.24654C42.2202 5.08654 41.7402 5.60254 40.6722 5.60254H39.1602ZM43.6242 4.24654C43.6242 2.89054 42.6522 1.76254 40.6722 1.76254H37.7922V10.1025H39.1602V6.71854H40.6722C42.8442 6.71854 43.6242 5.43454 43.6242 4.24654ZM46.6569 6.62254C46.6569 5.21854 47.2809 4.79854 48.2889 4.79854H48.6369V3.38254C47.7009 3.38254 47.0409 3.79054 46.6569 4.45054V3.49054H45.2889V10.1025H46.6569V6.62254ZM53.0384 4.53454C54.0584 4.53454 54.8624 5.18254 54.8864 6.20254H51.2264C51.3704 5.15854 52.1144 4.53454 53.0384 4.53454ZM56.1344 8.13454H54.6584C54.4064 8.65054 53.9384 9.05854 53.0984 9.05854C52.0904 9.05854 51.3104 8.39854 51.2144 7.30654H56.2664C56.3024 7.07854 56.3144 6.86254 56.3144 6.63454C56.3144 4.69054 54.9824 3.38254 53.0984 3.38254C51.1424 3.38254 49.7984 4.71454 49.7984 6.79054C49.7984 8.86654 51.2024 10.2105 53.0984 10.2105C54.7184 10.2105 55.7624 9.28654 56.1344 8.13454ZM62.9526 8.25454C62.8806 5.86654 59.1486 6.61054 59.1486 5.27854C59.1486 4.83454 59.5326 4.53454 60.2646 4.53454C61.0086 4.53454 61.4526 4.93054 61.5006 5.50654H62.8686C62.7966 4.18654 61.8126 3.38254 60.3126 3.38254C58.7526 3.38254 57.7686 4.23454 57.7686 5.29054C57.7686 7.71454 61.6086 6.97054 61.6086 8.26654C61.6086 8.72254 61.1886 9.05854 60.3966 9.05854C59.6406 9.05854 59.1246 8.61454 59.0766 8.07454H57.6606C57.7206 9.27454 58.8366 10.2105 60.4206 10.2105C61.9806 10.2105 62.9526 9.37054 62.9526 8.25454ZM69.7228 8.25454C69.6508 5.86654 65.9188 6.61054 65.9188 5.27854C65.9188 4.83454 66.3028 4.53454 67.0348 4.53454C67.7788 4.53454 68.2228 4.93054 68.2708 5.50654H69.6388C69.5668 4.18654 68.5828 3.38254 67.0828 3.38254C65.5228 3.38254 64.5388 4.23454 64.5388 5.29054C64.5388 7.71454 68.3788 6.97054 68.3788 8.26654C68.3788 8.72254 67.9588 9.05854 67.1668 9.05854C66.4108 9.05854 65.8948 8.61454 65.8468 8.07454H64.4308C64.4908 9.27454 65.6068 10.2105 67.1908 10.2105C68.7508 10.2105 69.7228 9.37054 69.7228 8.25454ZM74.5821 6.76654C74.5821 8.80654 75.9621 10.2105 77.6781 10.2105C78.7821 10.2105 79.5741 9.68254 79.9941 9.11854V10.1025H81.3741V3.49054H79.9941V4.45054C79.5861 3.91054 78.8181 3.38254 77.7021 3.38254C75.9621 3.38254 74.5821 4.72654 74.5821 6.76654ZM79.9941 6.79054C79.9941 8.21854 79.0221 9.02254 77.9901 9.02254C76.9701 9.02254 75.9861 8.19454 75.9861 6.76654C75.9861 5.33854 76.9701 4.57054 77.9901 4.57054C79.0221 4.57054 79.9941 5.37454 79.9941 6.79054ZM88.2229 10.1025H89.5789V6.20254C89.5789 4.35454 88.4149 3.38254 86.8669 3.38254C86.0749 3.38254 85.3429 3.70654 84.8989 4.24654V3.49054H83.5309V10.1025H84.8989V6.40654C84.8989 5.19454 85.5589 4.57054 86.5669 4.57054C87.5629 4.57054 88.2229 5.19454 88.2229 6.40654V10.1025ZM91.2279 6.76654C91.2279 8.80654 92.6079 10.2105 94.3479 10.2105C95.4279 10.2105 96.2199 9.70654 96.6399 9.10654V10.1025H98.0199V1.22254H96.6399V4.41454C96.1359 3.79054 95.2239 3.38254 94.3599 3.38254C92.6079 3.38254 91.2279 4.72654 91.2279 6.76654ZM96.6399 6.79054C96.6399 8.21854 95.6679 9.02254 94.6359 9.02254C93.6159 9.02254 92.6319 8.19454 92.6319 6.76654C92.6319 5.33854 93.6159 4.57054 94.6359 4.57054C95.6679 4.57054 96.6399 5.37454 96.6399 6.79054ZM103.654 10.1025H105.022V6.40654C105.022 5.19454 105.682 4.57054 106.69 4.57054C107.686 4.57054 108.346 5.19454 108.346 6.40654V10.1025H109.702V6.20254C109.702 4.35454 108.55 3.38254 107.074 3.38254C106.222 3.38254 105.478 3.70654 105.022 4.25854V1.22254H103.654V10.1025ZM118.107 6.79054C118.107 4.71454 116.619 3.38254 114.735 3.38254C112.851 3.38254 111.363 4.71454 111.363 6.79054C111.363 8.86654 112.791 10.2105 114.675 10.2105C116.571 10.2105 118.107 8.86654 118.107 6.79054ZM112.755 6.79054C112.755 5.29054 113.679 4.57054 114.711 4.57054C115.731 4.57054 116.703 5.29054 116.703 6.79054C116.703 8.29054 115.695 9.02254 114.675 9.02254C113.643 9.02254 112.755 8.29054 112.755 6.79054ZM119.819 10.1025H121.187V1.22254H119.819V10.1025ZM122.887 6.76654C122.887 8.80654 124.267 10.2105 126.007 10.2105C127.087 10.2105 127.879 9.70654 128.299 9.10654V10.1025H129.679V1.22254H128.299V4.41454C127.795 3.79054 126.883 3.38254 126.019 3.38254C124.267 3.38254 122.887 4.72654 122.887 6.76654ZM128.299 6.79054C128.299 8.21854 127.327 9.02254 126.295 9.02254C125.275 9.02254 124.291 8.19454 124.291 6.76654C124.291 5.33854 125.275 4.57054 126.295 4.57054C127.327 4.57054 128.299 5.37454 128.299 6.79054ZM135.481 10.1025H136.861V4.60654H138.085V3.49054H136.861V3.02254C136.861 2.26654 137.149 1.97854 137.989 1.97854V0.838539C136.261 0.838539 135.481 1.49854 135.481 3.02254V3.49054H134.701V4.60654H135.481V10.1025ZM145.958 6.79054C145.958 4.71454 144.47 3.38254 142.586 3.38254C140.702 3.38254 139.214 4.71454 139.214 6.79054C139.214 8.86654 140.642 10.2105 142.526 10.2105C144.422 10.2105 145.958 8.86654 145.958 6.79054ZM140.606 6.79054C140.606 5.29054 141.53 4.57054 142.562 4.57054C143.582 4.57054 144.554 5.29054 144.554 6.79054C144.554 8.29054 143.546 9.02254 142.526 9.02254C141.494 9.02254 140.606 8.29054 140.606 6.79054ZM149.038 6.62254C149.038 5.21854 149.662 4.79854 150.67 4.79854H151.018V3.38254C150.082 3.38254 149.422 3.79054 149.038 4.45054V3.49054H147.67V10.1025H149.038V6.62254ZM155.909 3.51454H157.241C157.325 2.90254 157.769 2.32654 158.729 2.32654C159.665 2.32654 160.157 2.83054 160.157 3.58654C160.157 4.52254 159.401 4.88254 158.165 4.89454H157.841V6.02254H158.153C159.581 6.02254 160.325 6.41854 160.325 7.57054C160.325 8.38654 159.821 9.01054 158.801 9.01054C157.769 9.01054 157.169 8.38654 157.109 7.57054H155.789C155.873 9.28654 157.157 10.1505 158.813 10.1505C160.637 10.1505 161.621 9.09454 161.621 7.70254C161.621 6.49054 161.033 5.73454 160.121 5.45854V5.41054C160.805 5.18254 161.465 4.47454 161.465 3.43054C161.465 2.15854 160.517 1.15054 158.777 1.15054C157.181 1.15054 156.005 2.00254 155.909 3.51454ZM168.53 8.25454C168.458 5.86654 164.726 6.61054 164.726 5.27854C164.726 4.83454 165.11 4.53454 165.842 4.53454C166.586 4.53454 167.03 4.93054 167.078 5.50654H168.446C168.374 4.18654 167.39 3.38254 165.89 3.38254C164.33 3.38254 163.346 4.23454 163.346 5.29054C163.346 7.71454 167.186 6.97054 167.186 8.26654C167.186 8.72254 166.766 9.05854 165.974 9.05854C165.218 9.05854 164.702 8.61454 164.654 8.07454H163.238C163.298 9.27454 164.414 10.2105 165.998 10.2105C167.558 10.2105 168.53 9.37054 168.53 8.25454Z" fill="white"/>
    <path opacity="0.5" d="M38.9185 115.429H37.5505V119.113C37.5505 120.325 36.8905 120.949 35.8825 120.949C34.8865 120.949 34.2265 120.325 34.2265 119.113V115.429H32.8705V119.317C32.8705 121.165 34.0465 122.137 35.5945 122.137C36.3745 122.137 37.1185 121.813 37.5505 121.249V122.041H38.9185V115.429ZM45.7755 122.041H47.1315V118.141C47.1315 116.293 45.9675 115.321 44.4195 115.321C43.6275 115.321 42.8955 115.645 42.4515 116.185V115.429H41.0835V122.041H42.4515V118.345C42.4515 117.133 43.1115 116.509 44.1195 116.509C45.1155 116.509 45.7755 117.133 45.7755 118.345V122.041ZM49.4525 120.205C49.4525 121.549 50.1845 122.041 51.3605 122.041H52.4405V120.901H51.6005C51.0245 120.901 50.8325 120.697 50.8325 120.205V116.545H52.4405V115.429H50.8325V113.785H49.4525V115.429H48.6725V116.545H49.4525V120.205ZM54.0613 122.041H55.4293V115.429H54.0613V122.041ZM54.7573 114.553C55.2373 114.553 55.6213 114.169 55.6213 113.677C55.6213 113.185 55.2373 112.801 54.7573 112.801C54.2653 112.801 53.8813 113.185 53.8813 113.677C53.8813 114.169 54.2653 114.553 54.7573 114.553ZM57.5854 122.041H58.9534V113.161H57.5854V122.041ZM64.8026 120.205C64.8026 121.549 65.5346 122.041 66.7106 122.041H67.7906V120.901H66.9506C66.3746 120.901 66.1826 120.697 66.1826 120.205V116.545H67.7906V115.429H66.1826V113.785H64.8026V115.429H64.0226V116.545H64.8026V120.205ZM69.4115 122.041H70.7795V118.345C70.7795 117.133 71.4395 116.509 72.4475 116.509C73.4435 116.509 74.1035 117.133 74.1035 118.345V122.041H75.4595V118.141C75.4595 116.293 74.3075 115.321 72.8315 115.321C71.9795 115.321 71.2355 115.645 70.7795 116.197V113.161H69.4115V122.041ZM80.3485 116.473C81.3685 116.473 82.1725 117.121 82.1965 118.141H78.5365C78.6805 117.097 79.4245 116.473 80.3485 116.473ZM83.4445 120.073H81.9685C81.7165 120.589 81.2485 120.997 80.4085 120.997C79.4005 120.997 78.6205 120.337 78.5245 119.245H83.5765C83.6125 119.017 83.6245 118.801 83.6245 118.573C83.6245 116.629 82.2925 115.321 80.4085 115.321C78.4525 115.321 77.1085 116.653 77.1085 118.729C77.1085 120.805 78.5125 122.149 80.4085 122.149C82.0285 122.149 83.0725 121.225 83.4445 120.073ZM93.7399 120.193C93.6679 117.805 89.9359 118.549 89.9359 117.217C89.9359 116.773 90.3199 116.473 91.0519 116.473C91.7959 116.473 92.2399 116.869 92.2879 117.445H93.6559C93.5839 116.125 92.5999 115.321 91.0999 115.321C89.5399 115.321 88.5559 116.173 88.5559 117.229C88.5559 119.653 92.3959 118.909 92.3959 120.205C92.3959 120.661 91.9759 120.997 91.1839 120.997C90.4279 120.997 89.9119 120.553 89.8639 120.013H88.4479C88.5079 121.213 89.6239 122.149 91.2079 122.149C92.7679 122.149 93.7399 121.309 93.7399 120.193ZM95.122 118.729C95.122 120.805 96.466 122.149 98.362 122.149C99.982 122.149 101.038 121.249 101.41 119.953H99.934C99.682 120.637 99.178 120.997 98.362 120.997C97.258 120.997 96.526 120.181 96.526 118.729C96.526 117.289 97.258 116.473 98.362 116.473C99.178 116.473 99.706 116.881 99.934 117.517H101.41C101.038 116.125 99.982 115.321 98.362 115.321C96.466 115.321 95.122 116.665 95.122 118.729ZM104.501 118.561C104.501 117.157 105.125 116.737 106.133 116.737H106.481V115.321C105.545 115.321 104.885 115.729 104.501 116.389V115.429H103.133V122.041H104.501V118.561ZM110.883 116.473C111.903 116.473 112.707 117.121 112.731 118.141H109.071C109.215 117.097 109.959 116.473 110.883 116.473ZM113.979 120.073H112.503C112.251 120.589 111.783 120.997 110.943 120.997C109.935 120.997 109.155 120.337 109.059 119.245H114.111C114.147 119.017 114.159 118.801 114.159 118.573C114.159 116.629 112.827 115.321 110.943 115.321C108.987 115.321 107.643 116.653 107.643 118.729C107.643 120.805 109.047 122.149 110.943 122.149C112.563 122.149 113.607 121.225 113.979 120.073ZM118.649 116.473C119.669 116.473 120.473 117.121 120.497 118.141H116.837C116.981 117.097 117.725 116.473 118.649 116.473ZM121.745 120.073H120.269C120.017 120.589 119.549 120.997 118.709 120.997C117.701 120.997 116.921 120.337 116.825 119.245H121.877C121.913 119.017 121.925 118.801 121.925 118.573C121.925 116.629 120.593 115.321 118.709 115.321C116.753 115.321 115.409 116.653 115.409 118.729C115.409 120.805 116.813 122.149 118.709 122.149C120.329 122.149 121.373 121.225 121.745 120.073ZM128.323 122.041H129.679V118.141C129.679 116.293 128.515 115.321 126.967 115.321C126.175 115.321 125.443 115.645 124.999 116.185V115.429H123.631V122.041H124.999V118.345C124.999 117.133 125.659 116.509 126.667 116.509C127.663 116.509 128.323 117.133 128.323 118.345V122.041ZM140.193 120.193C140.121 117.805 136.389 118.549 136.389 117.217C136.389 116.773 136.773 116.473 137.505 116.473C138.249 116.473 138.693 116.869 138.741 117.445H140.109C140.037 116.125 139.053 115.321 137.553 115.321C135.993 115.321 135.009 116.173 135.009 117.229C135.009 119.653 138.849 118.909 138.849 120.205C138.849 120.661 138.429 120.997 137.637 120.997C136.881 120.997 136.365 120.553 136.317 120.013H134.901C134.961 121.213 136.077 122.149 137.661 122.149C139.221 122.149 140.193 121.309 140.193 120.193ZM142.032 122.041H143.4V118.345C143.4 117.133 144.06 116.509 145.068 116.509C146.064 116.509 146.724 117.133 146.724 118.345V122.041H148.08V118.141C148.08 116.293 146.928 115.321 145.452 115.321C144.6 115.321 143.856 115.645 143.4 116.197V113.161H142.032V122.041ZM156.485 118.729C156.485 116.653 154.997 115.321 153.113 115.321C151.229 115.321 149.741 116.653 149.741 118.729C149.741 120.805 151.169 122.149 153.053 122.149C154.949 122.149 156.485 120.805 156.485 118.729ZM151.133 118.729C151.133 117.229 152.057 116.509 153.089 116.509C154.109 116.509 155.081 117.229 155.081 118.729C155.081 120.229 154.073 120.961 153.053 120.961C152.021 120.961 151.133 120.229 151.133 118.729ZM159.481 122.041H160.921L162.253 117.157L163.585 122.041H165.025L167.077 115.429H165.733L164.365 120.721L163.021 115.429H161.593L160.189 120.745L158.809 115.429H157.417L159.481 122.041ZM173.391 120.193C173.319 117.805 169.587 118.549 169.587 117.217C169.587 116.773 169.971 116.473 170.703 116.473C171.447 116.473 171.891 116.869 171.939 117.445H173.307C173.235 116.125 172.251 115.321 170.751 115.321C169.191 115.321 168.207 116.173 168.207 117.229C168.207 119.653 172.047 118.909 172.047 120.205C172.047 120.661 171.627 120.997 170.835 120.997C170.079 120.997 169.563 120.553 169.515 120.013H168.099C168.159 121.213 169.275 122.149 170.859 122.149C172.419 122.149 173.391 121.309 173.391 120.193Z" fill="white"/>
</svg>
