<svg width="212" height="75" viewBox="0 0 212 75" fill="none" xmlns="http://www.w3.org/2000/svg">
<path d="M37.2768 35.6397C36.7548 35.6397 36.2542 35.4325 35.885 35.0636C35.5159 34.6947 35.3086 34.1943 35.3086 33.6726V1.9671C35.3086 1.44539 35.5159 0.945125 35.885 0.576218C36.2542 0.207311 36.7548 1.68967e-07 37.2768 1.68967e-07C37.8043 -0.00021505 38.311 0.205177 38.6894 0.57251C39.0677 0.939844 39.2879 1.44014 39.3029 1.9671V33.6726C39.2879 34.1996 39.0677 34.6999 38.6894 35.0672C38.311 35.4345 37.8043 35.6399 37.2768 35.6397Z" fill="#F2A900"/>
<path d="M37.2824 74.6351C28.6921 74.6489 20.3613 71.6926 13.7031 66.2678C7.04484 60.8429 2.46905 53.2832 0.751585 44.871C-0.965875 36.4587 0.28069 27.7117 4.28007 20.1134C8.27944 12.515 14.7855 6.53309 22.6945 3.18209C23.1793 2.98618 23.7209 2.98518 24.2064 3.17927C24.6919 3.37336 25.0835 3.74755 25.2994 4.22356C25.4954 4.70805 25.4964 5.24946 25.3022 5.73468C25.108 6.21991 24.7337 6.61137 24.2574 6.82709C17.2005 9.83398 11.3994 15.1848 7.8354 21.9744C4.27143 28.764 3.16341 36.5755 4.69876 44.0877C6.2341 51.5998 10.3185 58.3512 16.2611 63.2C22.2038 68.0487 29.6399 70.6971 37.3114 70.6971C44.9829 70.6971 52.4188 68.0487 58.3614 63.2C64.3041 58.3512 68.3886 51.5998 69.924 44.0877C71.4593 36.5755 70.3513 28.764 66.7873 21.9744C63.2234 15.1848 57.4223 9.83398 50.3653 6.82709C50.1245 6.72621 49.9061 6.57843 49.723 6.39239C49.5399 6.20634 49.3956 5.98573 49.2986 5.74342C49.2017 5.50111 49.154 5.24196 49.1582 4.98102C49.1624 4.72008 49.2184 4.4626 49.3232 4.22356C49.539 3.74755 49.9307 3.37336 50.4162 3.17927C50.9017 2.98518 51.4435 2.98618 51.9283 3.18209C59.8419 6.53497 66.3508 12.5219 70.3496 20.1262C74.3484 27.7305 75.5907 36.4837 73.8657 44.8995C72.1407 53.3153 67.5546 60.8751 60.8861 66.2954C54.2176 71.7157 45.8777 74.6623 37.2824 74.6351Z" fill="#F2A900"/>
<path d="M120.133 30.392H108.901V37.688C109.392 37.0053 110.117 36.4507 111.077 36.024C112.037 35.576 113.072 35.352 114.181 35.352C115.952 35.352 117.392 35.7253 118.501 36.472C119.61 37.1973 120.4 38.1467 120.869 39.32C121.36 40.472 121.605 41.6987 121.605 43C121.605 44.536 121.317 45.912 120.741 47.128C120.165 48.344 119.28 49.304 118.085 50.008C116.912 50.712 115.45 51.064 113.701 51.064C111.461 51.064 109.648 50.488 108.261 49.336C106.874 48.184 106.032 46.648 105.733 44.728H108.581C108.858 45.944 109.445 46.8933 110.341 47.576C111.237 48.2587 112.368 48.6 113.733 48.6C115.418 48.6 116.688 48.0987 117.541 47.096C118.394 46.072 118.821 44.728 118.821 43.064C118.821 41.4 118.394 40.12 117.541 39.224C116.688 38.3067 115.429 37.848 113.765 37.848C112.634 37.848 111.642 38.1253 110.789 38.68C109.957 39.2133 109.349 39.9493 108.965 40.888H106.213V27.832H120.133V30.392ZM142.278 51.224C140.806 51.224 139.483 50.968 138.31 50.456C137.158 49.9227 136.251 49.1973 135.59 48.28C134.929 47.3413 134.587 46.264 134.566 45.048H137.67C137.777 46.0933 138.203 46.9787 138.95 47.704C139.718 48.408 140.827 48.76 142.278 48.76C143.665 48.76 144.753 48.4187 145.542 47.736C146.353 47.032 146.758 46.136 146.758 45.048C146.758 44.1947 146.523 43.5013 146.054 42.968C145.585 42.4347 144.998 42.0293 144.294 41.752C143.59 41.4747 142.641 41.176 141.446 40.856C139.974 40.472 138.79 40.088 137.894 39.704C137.019 39.32 136.262 38.7227 135.622 37.912C135.003 37.08 134.694 35.9707 134.694 34.584C134.694 33.368 135.003 32.2907 135.622 31.352C136.241 30.4133 137.105 29.688 138.214 29.176C139.345 28.664 140.635 28.408 142.086 28.408C144.177 28.408 145.883 28.9307 147.206 29.976C148.55 31.0213 149.307 32.408 149.478 34.136H146.278C146.171 33.2827 145.723 32.536 144.934 31.896C144.145 31.2347 143.099 30.904 141.798 30.904C140.582 30.904 139.59 31.224 138.822 31.864C138.054 32.4827 137.67 33.3573 137.67 34.488C137.67 35.2987 137.894 35.96 138.342 36.472C138.811 36.984 139.377 37.3787 140.038 37.656C140.721 37.912 141.67 38.2107 142.886 38.552C144.358 38.9573 145.542 39.3627 146.438 39.768C147.334 40.152 148.102 40.76 148.742 41.592C149.382 42.4027 149.702 43.512 149.702 44.92C149.702 46.008 149.414 47.032 148.838 47.992C148.262 48.952 147.409 49.7307 146.278 50.328C145.147 50.9253 143.814 51.224 142.278 51.224ZM170.347 41.56C170.347 42.1147 170.315 42.7013 170.251 43.32H156.235C156.342 45.048 156.928 46.4027 157.995 47.384C159.083 48.344 160.395 48.824 161.931 48.824C163.19 48.824 164.235 48.536 165.067 47.96C165.92 47.3627 166.518 46.5733 166.859 45.592H169.995C169.526 47.2773 168.587 48.6533 167.179 49.72C165.771 50.7653 164.022 51.288 161.931 51.288C160.267 51.288 158.774 50.9147 157.451 50.168C156.15 49.4213 155.126 48.3653 154.379 47C153.632 45.6133 153.259 44.0133 153.259 42.2C153.259 40.3867 153.622 38.7973 154.347 37.432C155.072 36.0667 156.086 35.0213 157.387 34.296C158.71 33.5493 160.224 33.176 161.931 33.176C163.595 33.176 165.067 33.5387 166.347 34.264C167.627 34.9893 168.608 35.992 169.291 37.272C169.995 38.5307 170.347 39.96 170.347 41.56ZM167.339 40.952C167.339 39.8427 167.094 38.8933 166.603 38.104C166.112 37.2933 165.44 36.6853 164.587 36.28C163.755 35.8533 162.827 35.64 161.803 35.64C160.331 35.64 159.072 36.1093 158.027 37.048C157.003 37.9867 156.416 39.288 156.267 40.952H167.339ZM173.463 42.2C173.463 40.3867 173.826 38.808 174.551 37.464C175.276 36.0987 176.279 35.0427 177.559 34.296C178.86 33.5493 180.343 33.176 182.007 33.176C184.162 33.176 185.932 33.6987 187.319 34.744C188.727 35.7893 189.655 37.24 190.103 39.096H186.967C186.668 38.0293 186.082 37.1867 185.207 36.568C184.354 35.9493 183.287 35.64 182.007 35.64C180.343 35.64 178.999 36.216 177.975 37.368C176.951 38.4987 176.439 40.1093 176.439 42.2C176.439 44.312 176.951 45.944 177.975 47.096C178.999 48.248 180.343 48.824 182.007 48.824C183.287 48.824 184.354 48.5253 185.207 47.928C186.06 47.3307 186.647 46.4773 186.967 45.368H190.103C189.634 47.16 188.695 48.6 187.287 49.688C185.879 50.7547 184.119 51.288 182.007 51.288C180.343 51.288 178.86 50.9147 177.559 50.168C176.279 49.4213 175.276 48.3653 174.551 47C173.826 45.6347 173.463 44.0347 173.463 42.2ZM195.276 51.192C194.722 51.192 194.252 51 193.868 50.616C193.484 50.232 193.292 49.7627 193.292 49.208C193.292 48.6533 193.484 48.184 193.868 47.8C194.252 47.416 194.722 47.224 195.276 47.224C195.81 47.224 196.258 47.416 196.62 47.8C197.004 48.184 197.196 48.6533 197.196 49.208C197.196 49.7627 197.004 50.232 196.62 50.616C196.258 51 195.81 51.192 195.276 51.192Z" fill="#979797"/>
</svg>
