<svg width="155" height="125" viewBox="0 0 155 125" fill="none" xmlns="http://www.w3.org/2000/svg">
<path d="M24.6612 118.848V116.64L35.8932 101.088H39.3812V116.32H42.5812V118.848H39.3812V124H36.5012V118.848H24.6612ZM36.6292 104.128L28.0212 116.32H36.6292V104.128ZM62.2935 124.224C60.8215 124.224 59.4988 123.968 58.3255 123.456C57.1735 122.923 56.2668 122.197 55.6055 121.28C54.9442 120.341 54.6028 119.264 54.5815 118.048H57.6855C57.7922 119.093 58.2188 119.979 58.9655 120.704C59.7335 121.408 60.8428 121.76 62.2935 121.76C63.6802 121.76 64.7682 121.419 65.5575 120.736C66.3682 120.032 66.7735 119.136 66.7735 118.048C66.7735 117.195 66.5388 116.501 66.0695 115.968C65.6002 115.435 65.0135 115.029 64.3095 114.752C63.6055 114.475 62.6562 114.176 61.4615 113.856C59.9895 113.472 58.8055 113.088 57.9095 112.704C57.0348 112.32 56.2775 111.723 55.6375 110.912C55.0188 110.08 54.7095 108.971 54.7095 107.584C54.7095 106.368 55.0188 105.291 55.6375 104.352C56.2562 103.413 57.1202 102.688 58.2295 102.176C59.3602 101.664 60.6508 101.408 62.1015 101.408C64.1922 101.408 65.8988 101.931 67.2215 102.976C68.5655 104.021 69.3228 105.408 69.4935 107.136H66.2935C66.1868 106.283 65.7388 105.536 64.9495 104.896C64.1602 104.235 63.1148 103.904 61.8135 103.904C60.5975 103.904 59.6055 104.224 58.8375 104.864C58.0695 105.483 57.6855 106.357 57.6855 107.488C57.6855 108.299 57.9095 108.96 58.3575 109.472C58.8268 109.984 59.3922 110.379 60.0535 110.656C60.7362 110.912 61.6855 111.211 62.9015 111.552C64.3735 111.957 65.5575 112.363 66.4535 112.768C67.3495 113.152 68.1175 113.76 68.7575 114.592C69.3975 115.403 69.7175 116.512 69.7175 117.92C69.7175 119.008 69.4295 120.032 68.8535 120.992C68.2775 121.952 67.4242 122.731 66.2935 123.328C65.1628 123.925 63.8295 124.224 62.2935 124.224ZM90.3628 114.56C90.3628 115.115 90.3308 115.701 90.2668 116.32H76.2508C76.3574 118.048 76.9441 119.403 78.0108 120.384C79.0988 121.344 80.4108 121.824 81.9468 121.824C83.2054 121.824 84.2508 121.536 85.0828 120.96C85.9361 120.363 86.5334 119.573 86.8748 118.592H90.0108C89.5414 120.277 88.6028 121.653 87.1948 122.72C85.7868 123.765 84.0374 124.288 81.9468 124.288C80.2828 124.288 78.7894 123.915 77.4668 123.168C76.1654 122.421 75.1414 121.365 74.3948 120C73.6481 118.613 73.2748 117.013 73.2748 115.2C73.2748 113.387 73.6374 111.797 74.3628 110.432C75.0881 109.067 76.1014 108.021 77.4028 107.296C78.7254 106.549 80.2401 106.176 81.9468 106.176C83.6108 106.176 85.0828 106.539 86.3628 107.264C87.6428 107.989 88.6241 108.992 89.3068 110.272C90.0108 111.531 90.3628 112.96 90.3628 114.56ZM87.3548 113.952C87.3548 112.843 87.1094 111.893 86.6188 111.104C86.1281 110.293 85.4561 109.685 84.6028 109.28C83.7708 108.853 82.8428 108.64 81.8188 108.64C80.3468 108.64 79.0881 109.109 78.0428 110.048C77.0188 110.987 76.4321 112.288 76.2828 113.952H87.3548ZM93.4785 115.2C93.4785 113.387 93.8412 111.808 94.5665 110.464C95.2918 109.099 96.2945 108.043 97.5745 107.296C98.8758 106.549 100.359 106.176 102.023 106.176C104.177 106.176 105.948 106.699 107.335 107.744C108.743 108.789 109.671 110.24 110.119 112.096H106.983C106.684 111.029 106.097 110.187 105.223 109.568C104.369 108.949 103.303 108.64 102.023 108.64C100.359 108.64 99.0145 109.216 97.9905 110.368C96.9665 111.499 96.4545 113.109 96.4545 115.2C96.4545 117.312 96.9665 118.944 97.9905 120.096C99.0145 121.248 100.359 121.824 102.023 121.824C103.303 121.824 104.369 121.525 105.223 120.928C106.076 120.331 106.663 119.477 106.983 118.368H110.119C109.649 120.16 108.711 121.6 107.303 122.688C105.895 123.755 104.135 124.288 102.023 124.288C100.359 124.288 98.8758 123.915 97.5745 123.168C96.2945 122.421 95.2918 121.365 94.5665 120C93.8412 118.635 93.4785 117.035 93.4785 115.2ZM115.292 124.192C114.737 124.192 114.268 124 113.884 123.616C113.5 123.232 113.308 122.763 113.308 122.208C113.308 121.653 113.5 121.184 113.884 120.8C114.268 120.416 114.737 120.224 115.292 120.224C115.825 120.224 116.273 120.416 116.636 120.8C117.02 121.184 117.212 121.653 117.212 122.208C117.212 122.763 117.02 123.232 116.636 123.616C116.273 124 115.825 124.192 115.292 124.192Z" fill="#979797"/>
<path fill-rule="evenodd" clip-rule="evenodd" d="M48.7525 19.7523C48.988 19.9385 49.2811 20.0369 49.5813 20.0303H50.1184C50.2896 19.9985 50.4523 19.9324 50.5972 19.836C50.7421 19.7396 50.8662 19.615 50.9616 19.4695C51.057 19.324 51.1219 19.1607 51.1524 18.9894C51.183 18.8181 51.1785 18.6424 51.1393 18.4729C50.0451 13.2657 47.1971 8.5911 43.0706 5.2292C38.9441 1.86731 33.789 0.0215708 28.4653 0C28.1232 0 27.7951 0.135719 27.5532 0.377418C27.3114 0.619118 27.1754 0.946947 27.1754 1.28876C27.1682 1.46248 27.1962 1.6359 27.2578 1.79851C27.3193 1.96113 27.4131 2.10959 27.5336 2.23501C27.654 2.36044 27.7988 2.46018 27.9589 2.52828C28.119 2.59638 28.2913 2.63143 28.4653 2.63128C33.1374 2.71396 37.6428 4.37932 41.2446 7.35474C44.8464 10.3302 47.3308 14.4394 48.2915 19.01C48.3539 19.3035 48.5171 19.566 48.7525 19.7523ZM40.4027 20.7824C40.0948 20.7867 39.7957 20.6808 39.5592 20.4839C39.3227 20.2869 39.1645 20.0118 39.1132 19.7084C38.5959 17.5862 37.3859 15.6967 35.6743 14.3384C33.9169 12.888 31.7205 12.0741 29.4417 12.0292C29.2466 12.0688 29.045 12.0646 28.8518 12.0168C28.6585 11.9691 28.4782 11.879 28.3241 11.7531C28.17 11.6272 28.046 11.4686 27.9607 11.2888C27.8754 11.109 27.8312 10.9125 27.8312 10.7136C27.8312 10.5146 27.8754 10.3181 27.9607 10.1384C28.046 9.95858 28.17 9.79999 28.3241 9.67408C28.4782 9.54817 28.6585 9.45808 28.8518 9.41031C29.045 9.36255 29.2466 9.35835 29.4417 9.39794C32.3092 9.45449 35.0735 10.4767 37.2872 12.2993C39.5008 14.1218 41.0339 16.6379 41.6384 19.4399C41.7027 19.7811 41.6323 20.1338 41.4419 20.4242C41.2516 20.7146 40.9561 20.9199 40.6175 20.9972L40.4027 20.7824ZM5.96433 65.4078H28.8532V65.193C30.4208 65.193 31.9242 64.5706 33.0326 63.4628C34.141 62.3551 34.7638 60.8526 34.7638 59.2859V22.1788C34.7638 20.6121 34.141 19.1096 33.0326 18.0018C31.9242 16.8941 30.4208 16.2717 28.8532 16.2717H5.96433C4.39183 16.2717 2.88293 16.8923 1.76598 17.9986C0.649032 19.1048 0.0141667 20.6072 0 22.1788V59.5007C0.0141667 61.0723 0.649032 62.5747 1.76598 63.681C2.88293 64.7872 4.39183 65.4079 5.96433 65.4078ZM3.64675 19.6477C4.26141 19.0334 5.09507 18.6883 5.96433 18.6883H28.8532C29.7225 18.6883 30.5562 19.0334 31.1708 19.6477C31.7855 20.262 32.1311 21.0952 32.1311 21.964V59.2859C32.1311 59.7161 32.0462 60.1421 31.8815 60.5395C31.7168 60.937 31.4752 61.298 31.1708 61.6022C30.8665 61.9064 30.5053 62.1477 30.1076 62.3123C29.71 62.4769 29.2837 62.5617 28.8532 62.5617H5.96433C5.53392 62.5617 5.1076 62.4769 4.70994 62.3123C4.31229 62.1477 3.9511 61.9064 3.64675 61.6022C3.3424 61.298 3.1008 60.937 2.93609 60.5395C2.77138 60.1421 2.68652 59.7161 2.68652 59.2859V21.964C2.68652 21.0952 3.03209 20.262 3.64675 19.6477ZM14.2579 60.1824C15.0943 61.0182 16.2283 61.4878 17.4111 61.4878C18.5939 61.4878 19.7283 61.0182 20.5646 60.1824C21.401 59.3465 21.8708 58.2128 21.8708 57.0307C21.8708 55.8486 21.401 54.7149 20.5646 53.879C19.7283 53.0431 18.5939 52.5735 17.4111 52.5735C16.2283 52.5735 15.0943 53.0431 14.2579 53.879C13.4216 54.7149 12.9517 55.8486 12.9517 57.0307C12.9517 58.2128 13.4216 59.3465 14.2579 60.1824ZM16.6224 55.2949C16.8795 55.2255 17.1487 55.2131 17.4111 55.2585C17.6735 55.2131 17.9427 55.2255 18.1998 55.2949C18.4569 55.3643 18.6959 55.4892 18.8996 55.6605C19.1034 55.8319 19.2674 56.0457 19.3798 56.2871C19.4921 56.5284 19.5503 56.7914 19.5503 57.0575C19.5503 57.3237 19.4921 57.5866 19.3798 57.8279C19.2674 58.0693 19.1034 58.2832 18.8996 58.4545C18.6959 58.6259 18.4569 58.7506 18.1998 58.8201C17.9427 58.8895 17.6735 58.902 17.4111 58.8565C17.1487 58.902 16.8795 58.8895 16.6224 58.8201C16.3653 58.7506 16.1267 58.6259 15.9229 58.4545C15.7191 58.2832 15.5552 58.0693 15.4428 57.8279C15.3304 57.5866 15.2722 57.3237 15.2722 57.0575C15.2722 56.7914 15.3304 56.5284 15.4428 56.2871C15.5552 56.0457 15.7191 55.8319 15.9229 55.6605C16.1267 55.4892 16.3653 55.3643 16.6224 55.2949Z" fill="#F2A900"/>
<path d="M78.1821 43.536H71.3661V50.448H68.6461V43.536H61.8621V41.072H68.6461V34.128H71.3661V41.072H78.1821V43.536Z" fill="#979797"/>
<path fill-rule="evenodd" clip-rule="evenodd" d="M151.986 12.1517H101.717C100.967 12.1517 100.359 12.7834 100.359 13.5626V67.1781C100.359 67.9573 100.967 68.589 101.717 68.589H151.986C152.737 68.589 153.345 67.9573 153.345 67.1781V13.5626C153.345 12.7834 152.737 12.1517 151.986 12.1517ZM101.717 10.7407C100.217 10.7407 99 12.0041 99 13.5626V67.1781C99 68.7366 100.217 70 101.717 70H151.986C153.487 70 154.704 68.7366 154.704 67.1781V13.5626C154.704 12.0041 153.487 10.7407 151.986 10.7407H101.717Z" fill="white"/>
<path d="M118.089 58.125C117.922 58.1556 117.748 58.1556 117.581 58.125C117.344 58.0466 117.141 57.9189 116.999 57.7574C116.856 57.5958 116.779 57.4072 116.777 57.2141V22.3812C116.784 22.189 116.863 22.0019 117.005 21.8411C117.147 21.6802 117.347 21.5518 117.581 21.4703C117.825 21.4041 118.089 21.3897 118.343 21.4285C118.597 21.4674 118.831 21.558 119.02 21.6902L142.464 39.0909C142.587 39.1814 142.684 39.2891 142.751 39.4077C142.817 39.5263 142.851 39.6535 142.851 39.782C142.851 39.9104 142.817 40.0376 142.751 40.1562C142.684 40.2748 142.587 40.3825 142.464 40.473L119.02 57.8423C118.898 57.9326 118.752 58.004 118.593 58.0525C118.433 58.101 118.262 58.1257 118.089 58.125ZM119.401 24.7369V54.7956L139.671 39.782L119.401 24.7369Z" fill="#F2A900"/>
</svg>
