<svg width="343" height="74" viewBox="0 0 343 74" fill="none" xmlns="http://www.w3.org/2000/svg">
<circle cx="265" cy="34" r="18.5" stroke="#F2A900"/>
<path d="M262 27.8414V41.3814C261.996 41.5026 262.029 41.6223 262.094 41.7239C262.16 41.8255 262.254 41.9039 262.366 41.9482C262.477 41.9925 262.6 42.0005 262.716 41.9711C262.832 41.9418 262.936 41.8765 263.014 41.7844L269.196 34.9942C269.284 34.8945 269.332 34.7653 269.332 34.6315C269.332 34.4977 269.284 34.3686 269.196 34.2689L263.054 27.519C262.979 27.427 262.879 27.3594 262.767 27.3248C262.654 27.2902 262.534 27.2902 262.421 27.3246C262.309 27.3591 262.209 27.4265 262.134 27.5185C262.059 27.6104 262.012 27.7228 262 27.8414Z" fill="#F2A900"/>
<circle cx="210.932" cy="38.8424" r="13.9" stroke="white"/>
<circle cx="318.656" cy="38.8424" r="13.9" stroke="white"/>
<path fill-rule="evenodd" clip-rule="evenodd" d="M157.768 35.3772L157.849 35.4596L157.931 35.3766L159.097 33.967C158.759 33.6732 158.327 33.4889 157.849 33.4889C157.371 33.4889 156.938 33.6732 156.601 33.967L157.768 35.3772ZM154.894 31.9053C155.72 31.1909 156.754 30.7992 157.849 30.7992C158.943 30.7992 159.978 31.1909 160.804 31.9053L161.556 30.9957C160.52 30.0999 159.222 29.6085 157.849 29.6085C156.476 29.6085 155.178 30.0999 154.142 30.9957L154.894 31.9058V31.9053ZM151.647 27.9811C153.379 26.4845 155.552 25.6665 157.85 25.6665C160.147 25.6665 162.319 26.4845 164.052 27.9811L163.297 28.8942C161.774 27.5785 159.868 26.8572 157.85 26.8572C155.831 26.8572 153.924 27.5785 152.402 28.8936L151.647 27.9811Z" fill="#F2A900"/>
<rect x="70.5" y="21.5" width="97" height="33" rx="2.5" stroke="white"/>
<circle cx="29" cy="26" r="2" fill="#F2A900"/>
<path d="M13.924 49L12.484 46.498H11.701V49H10.675V42.745H12.835C13.315 42.745 13.72 42.829 14.05 42.997C14.386 43.165 14.635 43.39 14.797 43.672C14.965 43.954 15.049 44.269 15.049 44.617C15.049 45.025 14.929 45.397 14.689 45.733C14.455 46.063 14.092 46.288 13.6 46.408L15.148 49H13.924ZM11.701 45.679H12.835C13.219 45.679 13.507 45.583 13.699 45.391C13.897 45.199 13.996 44.941 13.996 44.617C13.996 44.293 13.9 44.041 13.708 43.861C13.516 43.675 13.225 43.582 12.835 43.582H11.701V45.679ZM21.2665 46.399C21.2665 46.585 21.2545 46.753 21.2305 46.903H17.4415C17.4715 47.299 17.6185 47.617 17.8825 47.857C18.1465 48.097 18.4705 48.217 18.8545 48.217C19.4065 48.217 19.7965 47.986 20.0245 47.524H21.1315C20.9815 47.98 20.7085 48.355 20.3125 48.649C19.9225 48.937 19.4365 49.081 18.8545 49.081C18.3805 49.081 17.9545 48.976 17.5765 48.766C17.2045 48.55 16.9105 48.25 16.6945 47.866C16.4845 47.476 16.3795 47.026 16.3795 46.516C16.3795 46.006 16.4815 45.559 16.6855 45.175C16.8955 44.785 17.1865 44.485 17.5585 44.275C17.9365 44.065 18.3685 43.96 18.8545 43.96C19.3225 43.96 19.7395 44.062 20.1055 44.266C20.4715 44.47 20.7565 44.758 20.9605 45.13C21.1645 45.496 21.2665 45.919 21.2665 46.399ZM20.1955 46.075C20.1895 45.697 20.0545 45.394 19.7905 45.166C19.5265 44.938 19.1995 44.824 18.8095 44.824C18.4555 44.824 18.1525 44.938 17.9005 45.166C17.6485 45.388 17.4985 45.691 17.4505 46.075H20.1955ZM28.6392 43.96C29.0292 43.96 29.3772 44.041 29.6832 44.203C29.9952 44.365 30.2382 44.605 30.4122 44.923C30.5922 45.241 30.6822 45.625 30.6822 46.075V49H29.6652V46.228C29.6652 45.784 29.5542 45.445 29.3322 45.211C29.1102 44.971 28.8072 44.851 28.4232 44.851C28.0392 44.851 27.7332 44.971 27.5052 45.211C27.2832 45.445 27.1722 45.784 27.1722 46.228V49H26.1552V46.228C26.1552 45.784 26.0442 45.445 25.8222 45.211C25.6002 44.971 25.2972 44.851 24.9132 44.851C24.5292 44.851 24.2232 44.971 23.9952 45.211C23.7732 45.445 23.6622 45.784 23.6622 46.228V49H22.6362V44.041H23.6622V44.608C23.8302 44.404 24.0432 44.245 24.3012 44.131C24.5592 44.017 24.8352 43.96 25.1292 43.96C25.5252 43.96 25.8792 44.044 26.1912 44.212C26.5032 44.38 26.7432 44.623 26.9112 44.941C27.0612 44.641 27.2952 44.404 27.6132 44.23C27.9312 44.05 28.2732 43.96 28.6392 43.96ZM34.4988 49.081C34.0308 49.081 33.6078 48.976 33.2298 48.766C32.8518 48.55 32.5548 48.25 32.3388 47.866C32.1228 47.476 32.0148 47.026 32.0148 46.516C32.0148 46.012 32.1258 45.565 32.3478 45.175C32.5698 44.785 32.8728 44.485 33.2568 44.275C33.6408 44.065 34.0698 43.96 34.5438 43.96C35.0178 43.96 35.4468 44.065 35.8308 44.275C36.2148 44.485 36.5178 44.785 36.7398 45.175C36.9618 45.565 37.0728 46.012 37.0728 46.516C37.0728 47.02 36.9588 47.467 36.7308 47.857C36.5028 48.247 36.1908 48.55 35.7948 48.766C35.4048 48.976 34.9728 49.081 34.4988 49.081ZM34.4988 48.19C34.7628 48.19 35.0088 48.127 35.2368 48.001C35.4708 47.875 35.6598 47.686 35.8038 47.434C35.9478 47.182 36.0198 46.876 36.0198 46.516C36.0198 46.156 35.9508 45.853 35.8128 45.607C35.6748 45.355 35.4918 45.166 35.2638 45.04C35.0358 44.914 34.7898 44.851 34.5258 44.851C34.2618 44.851 34.0158 44.914 33.7878 45.04C33.5658 45.166 33.3888 45.355 33.2568 45.607C33.1248 45.853 33.0588 46.156 33.0588 46.516C33.0588 47.05 33.1938 47.464 33.4638 47.758C33.7398 48.046 34.0848 48.19 34.4988 48.19ZM39.644 44.878V47.623C39.644 47.809 39.686 47.944 39.77 48.028C39.86 48.106 40.01 48.145 40.22 48.145H40.85V49H40.04C39.578 49 39.224 48.892 38.978 48.676C38.732 48.46 38.609 48.109 38.609 47.623V44.878H38.024V44.041H38.609V42.808H39.644V44.041H40.85V44.878H39.644ZM46.7007 46.399C46.7007 46.585 46.6887 46.753 46.6647 46.903H42.8757C42.9057 47.299 43.0527 47.617 43.3167 47.857C43.5807 48.097 43.9047 48.217 44.2887 48.217C44.8407 48.217 45.2307 47.986 45.4587 47.524H46.5657C46.4157 47.98 46.1427 48.355 45.7467 48.649C45.3567 48.937 44.8707 49.081 44.2887 49.081C43.8147 49.081 43.3887 48.976 43.0107 48.766C42.6387 48.55 42.3447 48.25 42.1287 47.866C41.9187 47.476 41.8137 47.026 41.8137 46.516C41.8137 46.006 41.9157 45.559 42.1197 45.175C42.3297 44.785 42.6207 44.485 42.9927 44.275C43.3707 44.065 43.8027 43.96 44.2887 43.96C44.7567 43.96 45.1737 44.062 45.5397 44.266C45.9057 44.47 46.1907 44.758 46.3947 45.13C46.5987 45.496 46.7007 45.919 46.7007 46.399ZM45.6297 46.075C45.6237 45.697 45.4887 45.394 45.2247 45.166C44.9607 44.938 44.6337 44.824 44.2437 44.824C43.8897 44.824 43.5867 44.938 43.3347 45.166C43.0827 45.388 42.9327 45.691 42.8847 46.075H45.6297Z" fill="#F2A900"/>
<path d="M0 73H343" stroke="#D8D8D8" stroke-width="2"/>
<path d="M0 1H343" stroke="#D8D8D8" stroke-width="2"/>
</svg>
