<svg width="248" height="125" viewBox="0 0 248 125" fill="none" xmlns="http://www.w3.org/2000/svg">
<path d="M246.531 72.4169H247C247 75.4411 244.422 78 241.374 78H6.62554C3.57837 78 1 75.4411 1 72.4169V6.58308C1 3.55891 3.57837 1 6.62554 1H241.374C244.422 1 247 3.55891 247 6.58308V72.4169H246.18V6.58308C246.18 5.30363 245.594 4.14048 244.773 3.20997C243.953 2.39577 242.664 1.8142 241.374 1.8142H6.62554C5.33635 1.8142 4.16436 2.39577 3.22677 3.20997C2.40638 4.14048 1.82039 5.30363 1.82039 6.58308V72.4169C1.82039 73.6964 2.40638 74.8595 3.22677 75.79C4.04717 76.6042 5.33635 77.1858 6.62554 77.1858H241.374C242.664 77.1858 243.836 76.6042 244.773 75.79C245.594 74.9758 246.18 73.6964 246.18 72.4169H246.531Z" fill="white"/>
<path fill-rule="evenodd" clip-rule="evenodd" d="M248 6.58308C248 2.9995 244.967 0 241.374 0H6.62554C3.03324 0 0 2.9995 0 6.58308V72.4169C0 76.0005 3.03324 79 6.62554 79H241.374C244.627 79 247.421 76.5415 247.921 73.4169H248V6.58308ZM245.18 72.4169V6.58308C245.18 5.62707 244.745 4.69911 244.046 3.89706C243.402 3.27179 242.376 2.8142 241.374 2.8142H6.62554C5.66485 2.8142 4.73554 3.24007 3.93305 3.92156C3.2464 4.71799 2.82039 5.63678 2.82039 6.58308V72.4169C2.82039 73.3729 3.25515 74.3008 3.9542 75.1029C4.59755 75.7282 5.6242 76.1858 6.62554 76.1858H241.374C242.345 76.1858 243.284 75.7511 244.092 75.0574C244.722 74.419 245.18 73.4037 245.18 72.4169Z" fill="white"/>
<path opacity="0.5" d="M53.301 112H54C54 118.641 48.6408 124 42 124C35.3592 124 30 118.641 30 112C30 105.359 35.3592 100 42 100C48.6408 100 54 105.359 54 112H52.4854C52.4854 109.087 51.3204 106.408 49.4563 104.544C47.5922 102.68 44.9126 101.515 42 101.515C39.0874 101.515 36.4078 102.68 34.5437 104.544C32.6796 106.408 31.5146 109.087 31.5146 112C31.5146 114.913 32.6796 117.592 34.5437 119.456C36.4078 121.32 39.0874 122.485 42 122.485C44.9126 122.485 47.5922 121.32 49.4563 119.456C51.3204 117.592 52.4854 114.913 52.4854 112H53.301Z" fill="white"/>
<path opacity="0.5" d="M107.301 112H108C108 118.641 102.641 124 96 124C89.3592 124 84 118.641 84 112C84 105.359 89.3592 100 96 100C102.641 100 108 105.359 108 112H106.485C106.485 109.087 105.32 106.408 103.456 104.544C101.592 102.68 98.9126 101.515 96 101.515C93.0874 101.515 90.4078 102.68 88.5437 104.544C86.6796 106.408 85.5146 109.087 85.5146 112C85.5146 114.913 86.6796 117.592 88.5437 119.456C90.4078 121.32 93.0874 122.485 96 122.485C98.9126 122.485 101.592 121.32 103.456 119.456C105.32 117.592 106.485 114.913 106.485 112H107.301Z" fill="white"/>
<path opacity="0.5" d="M162.301 112H163C163 118.641 157.641 124 151 124C144.359 124 139 118.641 139 112C139 105.359 144.359 100 151 100C157.641 100 163 105.359 163 112H161.485C161.485 109.087 160.32 106.408 158.456 104.544C156.592 102.68 153.913 101.515 151 101.515C148.087 101.515 145.408 102.68 143.544 104.544C141.68 106.408 140.515 109.087 140.515 112C140.515 114.913 141.68 117.592 143.544 119.456C145.408 121.32 148.087 122.485 151 122.485C153.913 122.485 156.592 121.32 158.456 119.456C160.32 117.592 161.485 114.913 161.485 112H162.301Z" fill="white"/>
<path d="M216.301 112H217C217 118.641 211.641 124 205 124C198.359 124 193 118.641 193 112C193 105.359 198.359 100 205 100C211.641 100 217 105.359 217 112H215.485C215.485 109.087 214.32 106.408 212.456 104.544C210.592 102.68 207.913 101.515 205 101.515C202.087 101.515 199.408 102.68 197.544 104.544C195.68 106.408 194.515 109.087 194.515 112C194.515 114.913 195.68 117.592 197.544 119.456C199.408 121.32 202.087 122.485 205 122.485C207.913 122.485 210.592 121.32 212.456 119.456C214.32 117.592 215.485 114.913 215.485 112H216.301Z" fill="#F2A900"/>
<path fill-rule="evenodd" clip-rule="evenodd" d="M205 100.5C198.635 100.5 193.5 105.635 193.5 112C193.5 118.365 198.635 123.5 205 123.5C211.197 123.5 216.229 118.631 216.489 112.5H215.974C215.849 115.351 214.66 117.959 212.81 119.81C210.852 121.768 208.045 122.985 205 122.985C201.955 122.985 199.148 121.768 197.19 119.81C195.232 117.852 194.015 115.045 194.015 112C194.015 108.955 195.232 106.148 197.19 104.19C199.148 102.232 201.955 101.015 205 101.015C208.045 101.015 210.852 102.232 212.81 104.19C214.66 106.041 215.849 108.649 215.974 111.5H216.489C216.229 105.369 211.197 100.5 205 100.5ZM217.49 112.5C217.229 119.184 211.749 124.5 205 124.5C198.083 124.5 192.5 118.917 192.5 112C192.5 105.083 198.083 99.5 205 99.5C211.749 99.5 217.229 104.816 217.49 111.5H217.5V112.5H217.49ZM205 102.015C202.22 102.015 199.667 103.127 197.897 104.897C196.127 106.667 195.015 109.22 195.015 112C195.015 114.78 196.127 117.333 197.897 119.103C199.667 120.873 202.22 121.985 205 121.985C207.78 121.985 210.333 120.873 212.103 119.103C213.873 117.333 214.985 114.78 214.985 112C214.985 109.22 213.873 106.667 212.103 104.897C210.333 103.127 207.78 102.015 205 102.015Z" fill="#F2A900"/>
<path d="M234 26H14V27H234V26Z" fill="white"/>
<path d="M154.125 50.9342L156.089 49.75H165.76L167.875 50.9342L165.911 52.25H156.089" fill="white"/>
<path opacity="0.2" d="M155.375 38.9381V49.4536L153.533 51H152.875V36" fill="white"/>
<path opacity="0.2" d="M166.625 38.9381V49.4536L168.467 51H169.125V36" fill="white"/>
<path d="M166.625 63.0918V52.5306L168.467 51H169.125V66" fill="white"/>
<path opacity="0.2" d="M169.125 36L166.212 38.5H155.788L152.875 36" fill="white"/>
<path opacity="0.2" d="M152.875 66L155.788 63.5H166.212L169.125 66" fill="white"/>
<path d="M155.375 63.0918V52.5306L153.533 51H152.875V66" fill="white"/>
<path d="M131.625 50.9342L133.589 49.75H143.26L145.375 50.9342L143.411 52.25H133.589" fill="white"/>
<path opacity="0.2" d="M132.875 38.9381V49.4536L131.033 51H130.375V36" fill="white"/>
<path opacity="0.2" d="M144.125 38.9381V49.4536L145.967 51H146.625V36" fill="white"/>
<path d="M144.125 63.0918V52.5306L145.967 51H146.625V66" fill="white"/>
<path opacity="0.2" d="M146.625 36L143.712 38.5H133.288L130.375 36" fill="white"/>
<path d="M130.375 66L133.288 63.5H143.712L146.625 66" fill="white"/>
<path d="M132.875 63.0918V52.5306L131.033 51H130.375V66" fill="white"/>
<path opacity="0.2" d="M109.125 50.9342L111.089 49.75H120.76L122.875 50.9342L120.911 52.25H111.089" fill="white"/>
<path d="M110.375 38.9381V49.4536L108.533 51H107.875V36" fill="white"/>
<path opacity="0.2" d="M121.625 38.9381V49.4536L123.467 51H124.125V36" fill="white"/>
<path opacity="0.2" d="M121.625 63.0918V52.5306L123.467 51H124.125V66" fill="white"/>
<path d="M124.125 36L121.212 38.5H110.788L107.875 36" fill="white"/>
<path d="M107.875 66L110.788 63.5H121.212L124.125 66" fill="white"/>
<path d="M110.375 63.0918V52.5306L108.533 51H107.875V66" fill="white"/>
<path d="M218.126 39.12C220.142 37.08 223.039 36 225.937 36C228.961 36 231.732 37.08 233.874 39.12L234 39.24L232.74 40.56L232.614 40.44C230.85 38.76 228.583 37.8 226.063 37.8C223.543 37.8 221.276 38.76 219.512 40.44H219.26L218.126 39.12Z" fill="#ED2024"/>
<path d="M225.937 44.04C225.181 44.04 224.551 44.28 224.047 44.88H223.921L222.661 43.68L222.787 43.56C223.669 42.72 224.803 42.24 225.937 42.24C227.197 42.24 228.331 42.72 229.213 43.68L229.339 43.8L228.079 45.12L227.953 44.88C227.449 44.4 226.693 44.04 225.937 44.04Z" fill="#ED2024"/>
<path d="M227.197 46.8C227.197 47.52 226.693 48 225.937 48C225.181 48 224.677 47.52 224.677 46.8C224.677 46.2 225.181 45.6 225.937 45.6C226.693 45.6 227.197 46.08 227.197 46.8Z" fill="#ED2024"/>
<path d="M225.937 40.9201C224.299 40.9201 222.788 41.5201 221.654 42.6001V42.7201L220.394 41.5201L220.52 41.4001C222.032 39.9601 223.921 39.1201 226.063 39.1201C228.205 39.1201 230.221 39.9601 231.732 41.4001L231.858 41.5201L230.599 42.8401L230.221 42.6001C229.087 41.5201 227.575 40.9201 225.937 40.9201Z" fill="#ED2024"/>
</svg>
