<svg width="263" height="269" viewBox="0 0 263 269" fill="none" xmlns="http://www.w3.org/2000/svg">
<path d="M85.1844 51.7537V263.662H0.826172" stroke="white" stroke-width="2" stroke-linejoin="round"/>
<path d="M182.027 74.6991L189.342 78.6027L92.0668 267.325L85.1841 263.662L182.027 74.6991Z" stroke="white" stroke-width="2" stroke-linejoin="round"/>
<path d="M166.77 69.6156L180.99 76.9455L85.1842 263.662L90.1458 253.988L89.952 218.985L166.77 69.6156Z" stroke="white" stroke-width="2" stroke-linejoin="round"/>
<path d="M85.1846 51.5512L157.395 1.13867V6.74006L85.1846 57.1525V51.5512Z" stroke="white" stroke-width="2" stroke-linejoin="round"/>
<path d="M90.0166 59.5535L153.342 14.9583L153.788 94.7836L90.0166 218.758V59.5535Z" stroke="white" stroke-width="2" stroke-linejoin="round"/>
<path d="M84.8467 51.7537L157.395 1.13381" stroke="white" stroke-width="2" stroke-linejoin="round"/>
<path d="M182.027 74.6991L189.451 78.7483L261.999 28.8082L254.913 24.4216L182.027 74.6991Z" stroke="white" stroke-width="2" stroke-linejoin="round"/>
<path d="M166.72 69.8103L180.99 76.9456L182.328 74.2698L251.512 26.6034L240.927 20.7557L166.72 69.8103Z" stroke="white" stroke-width="2" stroke-linejoin="round"/>
<path d="M261.999 28.8082L189.434 78.6828L91.9326 267.373L162.26 210.285L261.999 28.8082Z" stroke="white" stroke-width="2"/>
<path d="M157.395 6.53766V87.859" stroke="white" stroke-width="2"/>
<rect x="110.921" y="205.58" width="9.02544" height="37.4426" transform="rotate(-152.558 110.921 205.58)" fill="#F7B500"/>
<path d="M85.1847 51.7537H8.9248" stroke="white" stroke-width="2"/>
<path d="M157.396 1.13867H81.1357" stroke="white" stroke-width="2"/>
</svg>
