<svg width="327" height="85" viewBox="0 0 327 85" fill="none" xmlns="http://www.w3.org/2000/svg">
<path fill-rule="evenodd" clip-rule="evenodd" d="M324.632 13.3851H17.2071V11H327V75H3V72.6149H324.632V13.3851Z" fill="white"/>
<path fill-rule="evenodd" clip-rule="evenodd" d="M150.423 28.7949H71.5769C71.1415 28.7949 70.7885 29.1507 70.7885 29.5897V57.4103C70.7885 57.8493 71.1415 58.2051 71.5769 58.2051H150.423C150.859 58.2051 151.212 57.8493 151.212 57.4103V29.5897C151.212 29.1507 150.859 28.7949 150.423 28.7949ZM71.5769 28C70.706 28 70 28.7118 70 29.5897V57.4103C70 58.2882 70.706 59 71.5769 59H150.423C151.294 59 152 58.2882 152 57.4103V29.5897C152 28.7118 151.294 28 150.423 28H71.5769Z" fill="white"/>
<path fill-rule="evenodd" clip-rule="evenodd" d="M198.4 28.8H177.6C177.158 28.8 176.8 29.1582 176.8 29.6V50.4C176.8 50.8418 177.158 51.2 177.6 51.2H198.4C198.842 51.2 199.2 50.8418 199.2 50.4V29.6C199.2 29.1582 198.842 28.8 198.4 28.8ZM177.6 28C176.716 28 176 28.7163 176 29.6V50.4C176 51.2837 176.716 52 177.6 52H198.4C199.284 52 200 51.2837 200 50.4V29.6C200 28.7163 199.284 28 198.4 28H177.6Z" fill="white"/>
<path fill-rule="evenodd" clip-rule="evenodd" d="M288.467 28.8H268.533C268.11 28.8 267.767 29.1582 267.767 29.6V50.4C267.767 50.8418 268.11 51.2 268.533 51.2H288.467C288.89 51.2 289.233 50.8418 289.233 50.4V29.6C289.233 29.1582 288.89 28.8 288.467 28.8ZM268.533 28C267.686 28 267 28.7163 267 29.6V50.4C267 51.2837 267.686 52 268.533 52H288.467C289.314 52 290 51.2837 290 50.4V29.6C290 28.7163 289.314 28 288.467 28H268.533Z" fill="white"/>
<path fill-rule="evenodd" clip-rule="evenodd" d="M247.439 24.8095H218.561C218.13 24.8095 217.78 25.172 217.78 25.619V56.381C217.78 56.828 218.13 57.1905 218.561 57.1905H247.439C247.87 57.1905 248.22 56.828 248.22 56.381V25.619C248.22 25.172 247.87 24.8095 247.439 24.8095ZM218.561 24C217.699 24 217 24.7249 217 25.619V56.381C217 57.2751 217.699 58 218.561 58H247.439C248.301 58 249 57.2751 249 56.381V25.619C249 24.7249 248.301 24 247.439 24H218.561Z" fill="white"/>
<path fill-rule="evenodd" clip-rule="evenodd" d="M204 63H188V62H204V63Z" fill="white"/>
<path fill-rule="evenodd" clip-rule="evenodd" d="M234 63H215V62H234V63Z" fill="white"/>
<path fill-rule="evenodd" clip-rule="evenodd" d="M209 65.25C210.243 65.25 211.25 64.2426 211.25 63C211.25 61.7574 210.243 60.75 209 60.75C207.757 60.75 206.75 61.7574 206.75 63C206.75 64.2426 207.757 65.25 209 65.25ZM209 66C210.657 66 212 64.6569 212 63C212 61.3431 210.657 60 209 60C207.343 60 206 61.3431 206 63C206 64.6569 207.343 66 209 66Z" fill="white"/>
<path d="M130.27 53.9415H127.733C127.637 53.9415 127.542 53.9223 127.453 53.8848C127.364 53.8474 127.284 53.7926 127.217 53.7236C127.15 53.6547 127.097 53.573 127.063 53.4833C127.028 53.3937 127.011 53.298 127.014 53.2019V46.8624C127.014 46.7783 127.047 46.6977 127.107 46.6382C127.166 46.5788 127.247 46.5454 127.331 46.5454H132.088C132.175 46.5452 132.258 46.5779 132.32 46.6369C132.383 46.6958 132.421 46.7764 132.427 46.8624C132.427 46.952 132.391 47.0381 132.328 47.1015C132.264 47.1649 132.178 47.2005 132.088 47.2005H129.826V48.574H133.949C134.087 48.5723 134.223 48.6019 134.347 48.6605C134.472 48.719 134.582 48.8051 134.668 48.9121C134.822 49.1037 134.904 49.3428 134.901 49.5884C134.918 49.8597 134.828 50.127 134.65 50.3326C134.472 50.5382 134.22 50.6656 133.949 50.6872H131.729C131.63 50.6752 131.53 50.6883 131.438 50.7252C131.345 50.7621 131.264 50.8217 131.2 50.8985C131.076 51.0851 131.024 51.3102 131.052 51.5325V53.2441C131.055 53.3403 131.039 53.4359 131.004 53.5256C130.969 53.6152 130.916 53.6969 130.849 53.7659C130.782 53.8349 130.702 53.8897 130.614 53.9271C130.525 53.9645 130.43 53.9838 130.334 53.9838L130.27 53.9415ZM127.606 47.2639V53.2441H130.143V51.7227C130.102 51.3191 130.207 50.9141 130.439 50.5816C130.568 50.4352 130.728 50.3195 130.907 50.2427C131.086 50.1659 131.28 50.1301 131.475 50.1378H133.949C134.16 50.1378 134.245 49.8842 134.245 49.7152C134.27 49.6324 134.27 49.5443 134.245 49.4616C134.221 49.4281 134.189 49.401 134.152 49.3826C134.116 49.3642 134.075 49.3551 134.034 49.3559H129.636C129.552 49.3559 129.471 49.3225 129.412 49.2631C129.352 49.2036 129.319 49.123 129.319 49.0389V47.3273L127.606 47.2639Z" fill="white"/>
<path d="M145.589 34.6391C145.514 34.6311 145.445 34.5964 145.394 34.5414C145.365 34.5176 145.342 34.4877 145.326 34.454C145.31 34.4202 145.302 34.3833 145.302 34.346C145.302 34.3087 145.31 34.2719 145.326 34.2381C145.342 34.2043 145.365 34.1744 145.394 34.1506L146.039 33.5058C146.063 33.4771 146.092 33.454 146.126 33.4381C146.16 33.4223 146.197 33.4141 146.234 33.4141C146.272 33.4141 146.308 33.4223 146.342 33.4381C146.376 33.454 146.406 33.4771 146.43 33.5058C146.484 33.5606 146.514 33.6342 146.514 33.7109C146.514 33.7877 146.484 33.8613 146.43 33.9161L145.804 34.5414C145.748 34.6008 145.671 34.6359 145.589 34.6391Z" fill="white"/>
<path d="M144.592 35.6167C144.529 35.6408 144.459 35.6408 144.396 35.6167C144.367 35.591 144.344 35.5595 144.328 35.5241C144.312 35.4887 144.304 35.4503 144.304 35.4115C144.304 35.3727 144.312 35.3343 144.328 35.299C144.344 35.2636 144.367 35.232 144.396 35.2064L144.768 34.8351C144.826 34.7891 144.899 34.7642 144.973 34.7642C145.048 34.7642 145.12 34.7891 145.178 34.8351C145.232 34.8899 145.262 34.9635 145.262 35.0403C145.262 35.117 145.232 35.1907 145.178 35.2455L144.807 35.6167C144.738 35.6439 144.661 35.6439 144.592 35.6167Z" fill="white"/>
<path d="M147.231 36.594H146.331C146.254 36.594 146.179 36.5631 146.124 36.5082C146.069 36.4532 146.038 36.3787 146.038 36.3009C146.043 36.2266 146.076 36.157 146.131 36.1062C146.185 36.0554 146.257 36.0272 146.331 36.0273H147.231C147.305 36.0272 147.377 36.0554 147.431 36.1062C147.486 36.157 147.519 36.2266 147.524 36.3009C147.524 36.3787 147.493 36.4532 147.438 36.5082C147.383 36.5631 147.308 36.594 147.231 36.594Z" fill="white"/>
<path d="M145.529 36.594H145.001C144.923 36.594 144.849 36.5631 144.794 36.5082C144.739 36.4532 144.708 36.3787 144.708 36.3009C144.713 36.2266 144.746 36.157 144.8 36.1062C144.855 36.0554 144.927 36.0272 145.001 36.0273H145.529C145.602 36.0273 145.671 36.0562 145.723 36.1075C145.774 36.1588 145.803 36.2284 145.803 36.3009C145.803 36.3754 145.775 36.4471 145.724 36.5016C145.673 36.556 145.604 36.5891 145.529 36.594Z" fill="white"/>
<path d="M146.239 39.1929C146.176 39.2153 146.107 39.2153 146.044 39.1929L145.399 38.5481C145.365 38.5229 145.337 38.4908 145.317 38.4539C145.297 38.417 145.285 38.3763 145.282 38.3344C145.279 38.2925 145.285 38.2505 145.3 38.2111C145.314 38.1718 145.337 38.1361 145.367 38.1064C145.397 38.0767 145.433 38.0537 145.472 38.039C145.511 38.0243 145.553 38.0183 145.595 38.0212C145.637 38.0242 145.678 38.0362 145.715 38.0563C145.752 38.0764 145.784 38.1042 145.809 38.1378L146.435 38.7826C146.489 38.8374 146.519 38.9111 146.519 38.9878C146.519 39.0645 146.489 39.1382 146.435 39.1929C146.371 39.2114 146.303 39.2114 146.239 39.1929Z" fill="white"/>
<path d="M144.983 37.9224C144.914 37.9496 144.837 37.9496 144.768 37.9224L144.396 37.5511C144.367 37.5255 144.344 37.4939 144.328 37.4585C144.312 37.4231 144.304 37.3848 144.304 37.346C144.304 37.3071 144.312 37.2688 144.328 37.2334C144.344 37.198 144.367 37.1664 144.396 37.1408C144.455 37.0948 144.527 37.0698 144.602 37.0698C144.676 37.0698 144.748 37.0948 144.807 37.1408L145.178 37.512C145.232 37.5668 145.262 37.6405 145.262 37.7172C145.262 37.794 145.232 37.8676 145.178 37.9224C145.116 37.9465 145.046 37.9465 144.983 37.9224Z" fill="white"/>
<path d="M143.637 38.4892C143.559 38.4892 143.485 38.4584 143.43 38.4034C143.375 38.3484 143.344 38.2739 143.344 38.1961V37.7662C143.344 37.6885 143.375 37.614 143.43 37.559C143.485 37.504 143.559 37.4731 143.637 37.4731C143.715 37.4731 143.789 37.504 143.844 37.559C143.899 37.614 143.93 37.6885 143.93 37.7662V38.2939C143.93 38.3716 143.899 38.4461 143.844 38.5011C143.789 38.5561 143.715 38.587 143.637 38.587" fill="white"/>
<path d="M141.033 39.1929C140.969 39.2114 140.902 39.2114 140.838 39.1929C140.809 39.1673 140.785 39.1357 140.769 39.1003C140.753 39.065 140.745 39.0266 140.745 38.9878C140.745 38.949 140.753 38.9106 140.769 38.8752C140.785 38.8398 140.809 38.8083 140.838 38.7826L141.463 38.1378C141.489 38.1042 141.521 38.0764 141.558 38.0563C141.595 38.0362 141.635 38.0242 141.677 38.0212C141.719 38.0183 141.761 38.0243 141.801 38.039C141.84 38.0537 141.876 38.0767 141.905 38.1064C141.935 38.1361 141.958 38.1718 141.973 38.2111C141.988 38.2505 141.994 38.2925 141.991 38.3344C141.988 38.3763 141.976 38.417 141.956 38.4539C141.935 38.4908 141.908 38.5229 141.874 38.5481L141.229 39.1929C141.165 39.2114 141.097 39.2114 141.033 39.1929Z" fill="white"/>
<path d="M142.288 37.9223C142.225 37.9463 142.156 37.9463 142.093 37.9223C142.064 37.8966 142.04 37.8651 142.024 37.8297C142.008 37.7943 142 37.7559 142 37.7171C142 37.6783 142.008 37.6399 142.024 37.6046C142.04 37.5692 142.064 37.5376 142.093 37.5119L142.464 37.1406C142.521 37.0983 142.591 37.0778 142.661 37.0828C142.731 37.0878 142.798 37.118 142.848 37.1679C142.897 37.2178 142.928 37.284 142.933 37.3544C142.938 37.4247 142.917 37.4946 142.875 37.551L142.503 37.9223C142.434 37.9495 142.357 37.9495 142.288 37.9223Z" fill="white"/>
<path d="M140.86 36.594H139.96C139.883 36.594 139.808 36.5631 139.753 36.5082C139.698 36.4532 139.667 36.3787 139.667 36.3009C139.672 36.2266 139.705 36.157 139.759 36.1062C139.814 36.0554 139.886 36.0272 139.96 36.0273H140.86C140.934 36.0272 141.006 36.0554 141.06 36.1062C141.115 36.157 141.148 36.2266 141.153 36.3009C141.153 36.3787 141.122 36.4532 141.067 36.5082C141.012 36.5631 140.937 36.594 140.86 36.594Z" fill="white"/>
<path d="M142.264 36.594H141.736C141.658 36.594 141.583 36.5631 141.528 36.5082C141.473 36.4532 141.442 36.3787 141.442 36.3009C141.447 36.2266 141.481 36.157 141.535 36.1062C141.589 36.0554 141.661 36.0272 141.736 36.0273H142.264C142.338 36.0272 142.41 36.0554 142.464 36.1062C142.519 36.157 142.552 36.2266 142.557 36.3009C142.557 36.3787 142.526 36.4532 142.471 36.5082C142.416 36.5631 142.341 36.594 142.264 36.594Z" fill="white"/>
<path d="M141.678 34.6391C141.597 34.6359 141.52 34.6008 141.463 34.5414L140.838 33.9161C140.809 33.8904 140.785 33.8589 140.769 33.8235C140.753 33.7881 140.745 33.7498 140.745 33.7109C140.745 33.6721 140.753 33.6338 140.769 33.5984C140.785 33.563 140.809 33.5315 140.838 33.5058C140.862 33.4771 140.892 33.454 140.925 33.4381C140.959 33.4223 140.996 33.4141 141.033 33.4141C141.071 33.4141 141.108 33.4223 141.141 33.4381C141.175 33.454 141.205 33.4771 141.229 33.5058L141.874 34.1506C141.903 34.1744 141.926 34.2043 141.942 34.2381C141.958 34.2719 141.966 34.3087 141.966 34.346C141.966 34.3833 141.958 34.4202 141.942 34.454C141.926 34.4877 141.903 34.5176 141.874 34.5414C141.823 34.5964 141.753 34.6311 141.678 34.6391Z" fill="white"/>
<path d="M142.66 35.6167C142.597 35.6408 142.527 35.6408 142.464 35.6167L142.093 35.2455C142.064 35.2198 142.04 35.1882 142.024 35.1528C142.008 35.1174 142 35.0791 142 35.0403C142 35.0014 142.008 34.9631 142.024 34.9277C142.04 34.8923 142.064 34.8608 142.093 34.8351C142.151 34.7891 142.224 34.7642 142.298 34.7642C142.372 34.7642 142.445 34.7891 142.503 34.8351L142.875 35.2064C142.921 35.2649 142.946 35.3371 142.946 35.4115C142.946 35.4859 142.921 35.5582 142.875 35.6167C142.806 35.6439 142.729 35.6439 142.66 35.6167Z" fill="white"/>
<path d="M143.637 33.8576C143.562 33.8578 143.491 33.8296 143.436 33.7788C143.382 33.728 143.349 33.6584 143.344 33.5841V32.6657C143.344 32.5879 143.375 32.5134 143.43 32.4584C143.485 32.4034 143.559 32.3726 143.637 32.3726C143.715 32.3726 143.789 32.4034 143.844 32.4584C143.899 32.5134 143.93 32.5879 143.93 32.6657V33.5841C143.925 33.6584 143.892 33.728 143.838 33.7788C143.783 33.8296 143.711 33.8578 143.637 33.8576Z" fill="white"/>
<path d="M143.637 35.2261C143.559 35.2261 143.485 35.1952 143.43 35.1403C143.375 35.0853 143.344 35.0107 143.344 34.933V34.4054C143.344 34.3277 143.375 34.2531 143.43 34.1981C143.485 34.1432 143.559 34.1123 143.637 34.1123C143.715 34.1123 143.789 34.1432 143.844 34.1981C143.899 34.2531 143.93 34.3277 143.93 34.4054V34.933C143.93 35.0107 143.899 35.0853 143.844 35.1403C143.789 35.1952 143.715 35.2261 143.637 35.2261Z" fill="white"/>
<path d="M143.637 40.2673C143.559 40.2673 143.485 40.2364 143.43 40.1815C143.375 40.1265 143.344 40.0519 143.344 39.9742V39.0753C143.344 38.9976 143.375 38.923 143.43 38.8681C143.485 38.8131 143.559 38.7822 143.637 38.7822C143.715 38.7822 143.789 38.8131 143.844 38.8681C143.899 38.923 143.93 38.9976 143.93 39.0753V39.9742C143.93 40.0519 143.899 40.1265 143.844 40.1815C143.789 40.2364 143.715 40.2673 143.637 40.2673Z" fill="white"/>
<path d="M131.929 37.2736C131.869 37.291 131.805 37.291 131.744 37.2736C131.531 37.068 131.246 36.9532 130.949 36.9532C130.653 36.9532 130.367 37.068 130.154 37.2736C130.106 37.3177 130.043 37.3423 129.978 37.3423C129.913 37.3423 129.85 37.3177 129.802 37.2736C129.775 37.251 129.754 37.2228 129.739 37.1909C129.724 37.1589 129.716 37.1241 129.716 37.0888C129.716 37.0535 129.724 37.0187 129.739 36.9867C129.754 36.9548 129.775 36.9265 129.802 36.904C130.11 36.6004 130.526 36.4302 130.958 36.4302C131.391 36.4302 131.806 36.6004 132.114 36.904C132.159 36.9548 132.185 37.0206 132.185 37.0888C132.185 37.157 132.159 37.2228 132.114 37.2736C132.053 37.291 131.989 37.291 131.929 37.2736Z" fill="white"/>
<path d="M128.62 36.1829C128.56 36.2057 128.494 36.2057 128.435 36.1829C128.389 36.1321 128.364 36.0663 128.364 35.9981C128.364 35.9299 128.389 35.8641 128.435 35.8133C129.105 35.1518 130.008 34.7801 130.95 34.7784C131.417 34.7752 131.879 34.8651 132.311 35.0428C132.743 35.2205 133.135 35.4824 133.464 35.8133C133.492 35.8359 133.513 35.8641 133.528 35.8961C133.543 35.928 133.551 35.9628 133.551 35.9981C133.551 36.0334 133.543 36.0682 133.528 36.1002C133.513 36.1321 133.492 36.1604 133.464 36.1829C133.417 36.2271 133.354 36.2516 133.289 36.2516C133.224 36.2516 133.161 36.2271 133.113 36.1829C132.536 35.6152 131.759 35.2967 130.95 35.2959C130.551 35.2947 130.156 35.3725 129.788 35.5247C129.42 35.677 129.086 35.9007 128.805 36.1829C128.775 36.1951 128.744 36.2014 128.712 36.2014C128.68 36.2014 128.649 36.1951 128.62 36.1829Z" fill="white"/>
<path d="M127.269 35.0928C127.24 35.105 127.208 35.1113 127.177 35.1113C127.145 35.1113 127.114 35.105 127.084 35.0928C127.039 35.042 127.014 34.9762 127.014 34.908C127.014 34.8398 127.039 34.774 127.084 34.7232C127.591 34.2158 128.194 33.814 128.857 33.5412C129.521 33.2683 130.232 33.1299 130.949 33.1339C132.402 33.1351 133.796 33.7057 134.832 34.7232C134.878 34.774 134.903 34.8398 134.903 34.908C134.903 34.9762 134.878 35.042 134.832 35.0928C134.809 35.12 134.781 35.1418 134.749 35.1568C134.717 35.1718 134.682 35.1796 134.647 35.1796C134.612 35.1796 134.577 35.1718 134.545 35.1568C134.513 35.1418 134.485 35.12 134.462 35.0928C134.002 34.631 133.454 34.2656 132.851 34.0181C132.248 33.7705 131.601 33.6459 130.949 33.6513C130.3 33.6462 129.656 33.7712 129.056 34.0187C128.455 34.2663 127.911 34.6315 127.454 35.0928C127.395 35.1156 127.329 35.1156 127.269 35.0928Z" fill="white"/>
<path d="M130.951 39.473C130.883 39.473 130.817 39.4457 130.768 39.3972C130.72 39.3487 130.692 39.2829 130.692 39.2143V38.475C130.692 38.4064 130.72 38.3406 130.768 38.2921C130.817 38.2436 130.883 38.2163 130.951 38.2163C131.02 38.2163 131.086 38.2436 131.134 38.2921C131.183 38.3406 131.21 38.4064 131.21 38.475V39.2143C131.21 39.2829 131.183 39.3487 131.134 39.3972C131.086 39.4457 131.02 39.473 130.951 39.473Z" fill="white"/>
<path d="M145.933 48.8875C145.892 48.9076 145.847 48.918 145.802 48.918C145.756 48.918 145.711 48.9076 145.67 48.8875C145.452 48.5674 145.179 48.2885 144.863 48.0637C144.837 48.0391 144.816 48.0093 144.801 47.9761C144.787 47.9429 144.779 47.9071 144.779 47.8709C144.779 47.8347 144.787 47.7989 144.801 47.7657C144.816 47.7326 144.837 47.7027 144.863 47.6781C144.918 47.6276 144.99 47.5996 145.065 47.5996C145.14 47.5996 145.212 47.6276 145.267 47.6781C145.656 47.9385 145.985 48.2791 146.231 48.6771C146.26 48.719 146.276 48.7678 146.279 48.8184C146.282 48.8689 146.272 48.9194 146.248 48.9643C146.225 49.0092 146.19 49.047 146.147 49.0736C146.104 49.1002 146.054 49.1146 146.003 49.1153" fill="white"/>
<path d="M143.198 54.0052C142.959 54.0298 142.718 54.0298 142.479 54.0052C142.021 53.9166 141.586 53.7379 141.199 53.4794C140.814 53.214 140.486 52.8743 140.234 52.4804C139.976 52.0931 139.797 51.6581 139.708 51.201C139.612 50.7445 139.612 50.2728 139.708 49.8163C139.802 49.3608 139.981 48.9269 140.234 48.5369C140.5 48.1522 140.84 47.8244 141.234 47.5729C141.621 47.3144 142.057 47.1357 142.514 47.0471C142.972 46.9595 143.442 46.9595 143.899 47.0471C143.976 47.064 144.043 47.1102 144.085 47.1757C144.128 47.2413 144.143 47.321 144.127 47.3977C144.119 47.4351 144.104 47.4705 144.081 47.5016C144.059 47.5327 144.03 47.559 143.998 47.5787C143.965 47.5984 143.928 47.6111 143.89 47.6162C143.852 47.6212 143.813 47.6185 143.777 47.608C143.394 47.5379 143.002 47.5379 142.619 47.608C142.238 47.6833 141.874 47.8322 141.55 48.0462C141.219 48.2582 140.935 48.5354 140.714 48.8609C140.494 49.1863 140.343 49.5532 140.269 49.939C140.185 50.3192 140.179 50.7125 140.251 51.0952C140.323 51.4778 140.473 51.8417 140.69 52.1649C140.909 52.4948 141.189 52.7803 141.514 53.0062C142.173 53.4325 142.968 53.5952 143.742 53.4619C144.129 53.3907 144.497 53.2423 144.826 53.0255C145.154 52.8087 145.436 52.5279 145.653 52.2C145.875 51.8779 146.03 51.5142 146.109 51.1308C146.188 50.7493 146.188 50.3556 146.109 49.9741C146.101 49.9372 146.101 49.8992 146.109 49.8623C146.116 49.8253 146.131 49.7903 146.152 49.7592C146.173 49.7281 146.201 49.7017 146.233 49.6814C146.264 49.6611 146.3 49.6474 146.337 49.6411C146.374 49.6335 146.412 49.6334 146.449 49.6408C146.486 49.6483 146.521 49.663 146.552 49.6843C146.583 49.7056 146.609 49.7329 146.63 49.7646C146.65 49.7963 146.664 49.8318 146.67 49.8689C146.758 50.3263 146.758 50.7962 146.67 51.2535C146.57 51.71 146.386 52.1439 146.127 52.533C145.863 52.9134 145.53 53.2405 145.144 53.4969C144.752 53.7576 144.31 53.9364 143.847 54.0227C143.625 54.0408 143.402 54.0408 143.18 54.0227" fill="white"/>
<path d="M144.83 50.7631H143.2C143.125 50.7631 143.054 50.7335 143.001 50.6809C142.949 50.6283 142.919 50.557 142.919 50.4827V48.5197C142.919 48.4453 142.949 48.374 143.001 48.3214C143.054 48.2688 143.125 48.2393 143.2 48.2393C143.276 48.2391 143.349 48.2681 143.404 48.3202C143.46 48.3724 143.493 48.4437 143.498 48.5197V50.2723H144.83C144.906 50.2768 144.978 50.3102 145.03 50.3656C145.082 50.421 145.111 50.4942 145.111 50.5703C145.111 50.6447 145.081 50.716 145.029 50.7686C144.976 50.8212 144.905 50.8507 144.83 50.8507" fill="white"/>
<path d="M194.586 36.8085C194.49 36.8556 194.385 36.8801 194.278 36.8801C194.171 36.8801 194.066 36.8556 193.97 36.8085C193.459 36.0589 192.82 35.4058 192.081 34.8794C192.019 34.8217 191.969 34.7519 191.935 34.6742C191.901 34.5965 191.884 34.5126 191.884 34.4279C191.884 34.3431 191.901 34.2592 191.935 34.1815C191.969 34.1038 192.019 34.034 192.081 33.9764C192.21 33.8581 192.378 33.7925 192.553 33.7925C192.728 33.7925 192.897 33.8581 193.026 33.9764C193.937 34.5861 194.707 35.3838 195.284 36.316C195.351 36.414 195.39 36.5283 195.397 36.6467C195.404 36.7651 195.379 36.8832 195.324 36.9884C195.269 37.0936 195.187 37.182 195.086 37.2443C194.985 37.3066 194.869 37.3404 194.75 37.3421" fill="white"/>
<path d="M188.181 48.7935C187.621 48.8512 187.057 48.8512 186.497 48.7935C185.426 48.5862 184.407 48.1676 183.499 47.5622C182.598 46.9406 181.83 46.1452 181.241 45.2226C180.635 44.3156 180.216 43.297 180.008 42.2263C179.782 41.1573 179.782 40.0528 180.008 38.9837C180.229 37.917 180.647 36.9008 181.241 35.9874C181.863 35.0865 182.658 34.3189 183.581 33.7299C184.489 33.1245 185.508 32.7059 186.579 32.4986C187.651 32.2934 188.752 32.2934 189.824 32.4986C190.003 32.538 190.159 32.6462 190.259 32.7998C190.359 32.9533 190.394 33.14 190.358 33.3195C190.339 33.4071 190.302 33.49 190.25 33.5629C190.197 33.6358 190.131 33.6972 190.054 33.7433C189.977 33.7895 189.891 33.8194 189.802 33.8312C189.713 33.843 189.623 33.8365 189.536 33.8121C188.64 33.6479 187.722 33.6479 186.826 33.8121C185.932 33.9885 185.081 34.337 184.321 34.8382C183.546 35.3348 182.881 35.984 182.365 36.7461C181.85 37.5083 181.495 38.3674 181.323 39.2711C181.125 40.1614 181.111 41.0825 181.28 41.9786C181.449 42.8746 181.799 43.7269 182.308 44.4838C182.821 45.2564 183.477 45.9249 184.239 46.454C185.781 47.4523 187.643 47.8333 189.454 47.5211C190.361 47.3545 191.224 47.0069 191.993 46.4991C192.763 45.9914 193.421 45.3338 193.931 44.5659C194.451 43.8116 194.815 42.96 194.998 42.0621C195.183 41.1686 195.183 40.2467 194.998 39.3531C194.981 39.2667 194.98 39.1777 194.998 39.0913C195.015 39.0048 195.05 38.9227 195.1 38.85C195.149 38.7772 195.214 38.7152 195.288 38.6676C195.362 38.6201 195.445 38.588 195.532 38.5733C195.619 38.5555 195.708 38.5553 195.794 38.5727C195.881 38.5901 195.963 38.6247 196.036 38.6745C196.109 38.7243 196.171 38.7883 196.218 38.8625C196.266 38.9368 196.298 39.0199 196.313 39.1069C196.518 40.178 196.518 41.2783 196.313 42.3495C196.078 43.4185 195.646 44.4345 195.039 45.3458C194.422 46.2367 193.642 47.0027 192.74 47.6033C191.82 48.2137 190.786 48.6324 189.701 48.8346C189.181 48.877 188.659 48.877 188.14 48.8346" fill="white"/>
<path d="M192.005 41.2006H188.186C188.011 41.2006 187.844 41.1313 187.721 41.0082C187.598 40.885 187.528 40.718 187.528 40.5438V35.9467C187.528 35.7725 187.598 35.6055 187.721 35.4824C187.844 35.3592 188.011 35.29 188.186 35.29C188.364 35.2897 188.535 35.3576 188.665 35.4797C188.795 35.6018 188.873 35.7689 188.884 35.9467V40.0512H192.005C192.183 40.0617 192.35 40.1399 192.472 40.2696C192.594 40.3994 192.662 40.5709 192.662 40.7491C192.662 40.9232 192.593 41.0902 192.469 41.2134C192.346 41.3366 192.179 41.4057 192.005 41.4057" fill="white"/>
<path d="M104.469 43.7802L103.513 42.9961H95.4702L94.5146 43.7802L95.4702 44.5498H103.513L104.469 43.7802Z" fill="white"/>
<path d="M104.007 32.3379H94.9613L93.2412 33.9062H94.9613H96.6335H103.466L104.756 33.0059L104.007 32.3379Z" fill="white"/>
<path d="M104.007 55.2231H94.9613L93.2412 53.6548H103.466L104.756 54.5406L104.007 55.2231Z" fill="white"/>
<path d="M93.2549 34.7485V43.3595H93.6371L94.959 42.2849V34.7485H93.2549Z" fill="white"/>
<path d="M93.2549 52.8126V44.2017H93.6371L94.959 45.2762V52.8126H93.2549Z" fill="white"/>
<path d="M105.404 33.6157L104.003 34.5886V42.2848L105.325 43.3593H105.723V33.9061L105.404 33.6157Z" fill="white"/>
<path d="M105.404 53.9307L104.003 52.9723V45.2617L105.325 44.2017H105.723V53.6548L105.404 53.9307Z" fill="white"/>
<path d="M87.7508 43.7802L86.7952 42.9961H78.7524L77.7969 43.7802L78.7524 44.5498H86.7952L87.7508 43.7802Z" fill="white"/>
<path d="M87.2896 32.3379H78.2435L76.5234 33.9062H78.2435H79.9157H86.7481L88.0381 33.0059L87.2896 32.3379Z" fill="white"/>
<path d="M87.2896 55.2231H78.2435L76.5234 53.6548H86.7482L88.0382 54.5406L87.2896 55.2231Z" fill="white"/>
<path d="M76.5371 34.7485V43.3595H76.9194L78.2413 42.2849V34.7485H76.5371Z" fill="white"/>
<path d="M76.5371 52.8126V44.2017H76.9194L78.2413 45.2762V52.8126H76.5371Z" fill="white"/>
<path d="M88.6877 33.6157L87.2861 34.5886V42.2848L88.608 43.3593H89.0062V33.9061L88.6877 33.6157Z" fill="white"/>
<path d="M88.6877 53.9307L87.2861 52.9723V45.2617L88.608 44.2017H89.0062V53.6548L88.6877 53.9307Z" fill="white"/>
<path d="M120.235 43.7802L119.28 42.9961H111.237L110.281 43.7802L111.237 44.5498H119.28L120.235 43.7802Z" fill="white"/>
<path d="M119.79 32.3521H110.728C110.059 32.9474 109.023 33.9058 109.023 33.9058H119.232L120.522 33.02L119.79 32.3521Z" fill="white"/>
<path d="M119.79 55.2085H110.728L109.023 53.6548H110.743H112.4H119.248L120.522 54.5406L119.79 55.2085Z" fill="white"/>
<path d="M109.023 34.7485V43.3595H109.406L110.728 42.2849L110.743 34.7485H109.023Z" fill="white"/>
<path d="M109.023 52.8126V44.2017H109.406L110.728 45.2762L110.743 52.8126H109.023Z" fill="white"/>
<path d="M121.189 33.6157L119.787 34.5886V42.2848L121.093 43.3593H121.491V33.9061L121.189 33.6157Z" fill="white"/>
<path d="M121.189 53.9307L119.787 52.9723V45.2617L121.093 44.2017H121.491V53.6548L121.189 53.9307Z" fill="white"/>
<path fill-rule="evenodd" clip-rule="evenodd" d="M41.1019 45.7538C41.1708 45.8083 41.2566 45.8371 41.3446 45.8352H41.5019C41.552 45.8259 41.5997 45.8065 41.6421 45.7783C41.6846 45.7501 41.7209 45.7136 41.7488 45.671C41.7768 45.6283 41.7958 45.5805 41.8047 45.5304C41.8137 45.4802 41.8124 45.4287 41.8009 45.3791C41.4804 43.854 40.6463 42.4849 39.4377 41.5003C38.2292 40.5156 36.7193 39.9751 35.1601 39.9688C35.06 39.9688 34.9638 40.0085 34.893 40.0793C34.8222 40.1501 34.7824 40.2461 34.7824 40.3462C34.7802 40.3971 34.7884 40.4479 34.8065 40.4955C34.8245 40.5431 34.852 40.5866 34.8873 40.6233C34.9225 40.6601 34.9649 40.6893 35.0118 40.7092C35.0587 40.7292 35.1092 40.7394 35.1601 40.7394C36.5285 40.7636 37.848 41.2514 38.9029 42.1228C39.9578 42.9942 40.6855 44.1978 40.9668 45.5364C40.9851 45.6223 41.0329 45.6992 41.1019 45.7538ZM38.6563 46.0555C38.5662 46.0568 38.4786 46.0257 38.4093 45.968C38.34 45.9104 38.2937 45.8298 38.2787 45.7409C38.1272 45.1194 37.7728 44.566 37.2715 44.1682C36.7568 43.7434 36.1135 43.505 35.4461 43.4919C35.389 43.5035 35.3299 43.5022 35.2733 43.4882C35.2167 43.4742 35.1639 43.4479 35.1188 43.411C35.0736 43.3741 35.0373 43.3277 35.0124 43.275C34.9874 43.2224 34.9744 43.1648 34.9744 43.1065C34.9744 43.0483 34.9874 42.9907 35.0124 42.9381C35.0373 42.8854 35.0736 42.839 35.1188 42.8021C35.1639 42.7652 35.2167 42.7388 35.2733 42.7248C35.3299 42.7108 35.389 42.7096 35.4461 42.7212C36.2859 42.7378 37.0956 43.0372 37.7439 43.571C38.3922 44.1047 38.8412 44.8416 39.0183 45.6623C39.0371 45.7622 39.0165 45.8655 38.9607 45.9506C38.905 46.0356 38.8184 46.0958 38.7193 46.1184L38.6563 46.0555ZM28.5701 59.1253H35.2738V59.0624C35.7329 59.0624 36.1732 58.8801 36.4978 58.5557C36.8224 58.2313 37.0048 57.7912 37.0048 57.3324V46.4645C37.0048 46.0056 36.8224 45.5656 36.4978 45.2411C36.1732 44.9167 35.7329 44.7344 35.2738 44.7344H28.5701C28.1095 44.7344 27.6676 44.9162 27.3405 45.2402C27.0133 45.5642 26.8274 46.0042 26.8232 46.4645V57.3953C26.8274 57.8555 27.0133 58.2956 27.3405 58.6196C27.6676 58.9436 28.1095 59.1254 28.5701 59.1253ZM27.8913 45.7232C28.0713 45.5432 28.3155 45.4422 28.5701 45.4422H35.2738C35.5283 45.4422 35.7725 45.5432 35.9525 45.7232C36.1326 45.9031 36.2338 46.1471 36.2338 46.4016V57.3324C36.2338 57.4584 36.2089 57.5831 36.1607 57.6995C36.1124 57.8159 36.0417 57.9217 35.9525 58.0108C35.8634 58.0998 35.7576 58.1705 35.6411 58.2187C35.5247 58.2669 35.3998 58.2918 35.2738 58.2918H28.5701C28.444 58.2918 28.3192 58.2669 28.2027 58.2187C28.0862 58.1705 27.9804 58.0998 27.8913 58.0108C27.8022 57.9217 27.7314 57.8159 27.6832 57.6995C27.6349 57.5831 27.6101 57.4584 27.6101 57.3324V46.4016C27.6101 46.1471 27.7113 45.9031 27.8913 45.7232ZM30.9991 57.5949C31.244 57.8397 31.5762 57.9773 31.9226 57.9773C32.269 57.9773 32.6012 57.8397 32.8462 57.5949C33.0911 57.3501 33.2288 57.0181 33.2288 56.6718C33.2288 56.3256 33.0911 55.9936 32.8462 55.7488C32.6012 55.504 32.269 55.3664 31.9226 55.3664C31.5762 55.3664 31.244 55.504 30.9991 55.7488C30.7541 55.9936 30.6165 56.3256 30.6165 56.6718C30.6165 57.0181 30.7541 57.3501 30.9991 57.5949ZM31.6916 56.1635C31.7669 56.1431 31.8457 56.1395 31.9226 56.1528C31.9994 56.1395 32.0783 56.1431 32.1536 56.1635C32.2289 56.1838 32.2989 56.2204 32.3586 56.2706C32.4182 56.3208 32.4663 56.3834 32.4992 56.4541C32.5321 56.5247 32.5491 56.6018 32.5491 56.6797C32.5491 56.7577 32.5321 56.8347 32.4992 56.9054C32.4663 56.976 32.4182 57.0387 32.3586 57.0889C32.2989 57.1391 32.2289 57.1756 32.1536 57.1959C32.0783 57.2163 31.9994 57.2199 31.9226 57.2066C31.8457 57.2199 31.7669 57.2163 31.6916 57.1959C31.6163 57.1756 31.5464 57.1391 31.4867 57.0889C31.427 57.0387 31.379 56.976 31.3461 56.9054C31.3132 56.8347 31.2962 56.7577 31.2962 56.6797C31.2962 56.6018 31.3132 56.5247 31.3461 56.4541C31.379 56.3834 31.427 56.3208 31.4867 56.2706C31.5464 56.2204 31.6163 56.1838 31.6916 56.1635Z" fill="#F2A900"/>
<path d="M227.755 50.9869C227.659 51.0044 227.558 51.0044 227.463 50.9869C227.326 50.942 227.209 50.8691 227.127 50.7767C227.045 50.6844 227.001 50.5766 227 50.4662V30.5567C227.004 30.4468 227.049 30.3399 227.131 30.248C227.213 30.156 227.328 30.0827 227.463 30.0361C227.603 29.9982 227.754 29.99 227.901 30.0122C228.047 30.0344 228.182 30.0862 228.29 30.1617L241.777 40.1075C241.848 40.1593 241.904 40.2208 241.942 40.2886C241.98 40.3564 242 40.4291 242 40.5025C242 40.5759 241.98 40.6486 241.942 40.7164C241.904 40.7842 241.848 40.8457 241.777 40.8975L228.29 50.8253C228.22 50.8769 228.136 50.9177 228.044 50.9454C227.952 50.9732 227.854 50.9873 227.755 50.9869ZM228.509 31.9032V49.0839L240.17 40.5025L228.509 31.9032Z" fill="#F2A900"/>
<path fill-rule="evenodd" clip-rule="evenodd" d="M284.906 35.5005L272.961 47.4461L272.124 46.6094L284.07 34.6637L284.906 35.5005Z" fill="white"/>
<path fill-rule="evenodd" clip-rule="evenodd" d="M284.906 47.4465L272.96 35.5008L273.797 34.6641L285.743 46.6097L284.906 47.4465Z" fill="white"/>
<path fill-rule="evenodd" clip-rule="evenodd" d="M0.000454666 84.4127L19.723 0.000198698L20.4912 0.179688L0.768667 84.5922L0.000454666 84.4127Z" fill="white"/>
</svg>
