<svg width="240" height="101" viewBox="0 0 240 101" fill="none" xmlns="http://www.w3.org/2000/svg">
<g opacity="0.4">
<path d="M227.002 59.6376H219.934C219.666 59.6377 219.401 59.584 219.154 59.4798C218.907 59.3755 218.684 59.2229 218.497 59.0308C218.31 58.8386 218.164 58.611 218.067 58.3614C217.97 58.1117 217.924 57.8451 217.932 57.5773V39.9185C217.932 39.6844 218.025 39.4598 218.19 39.2942C218.356 39.1286 218.581 39.0356 218.815 39.0356H232.067C232.307 39.0352 232.538 39.1263 232.713 39.2904C232.888 39.4545 232.994 39.6791 233.009 39.9185C233.009 40.1683 232.91 40.4079 232.733 40.5845C232.556 40.7612 232.316 40.8604 232.067 40.8604H225.765V44.6864H237.249C237.633 44.6817 238.012 44.7641 238.359 44.9272C238.706 45.0904 239.011 45.33 239.252 45.6282C239.68 46.1618 239.909 46.8278 239.9 47.5119C239.948 48.2677 239.698 49.0123 239.202 49.585C238.706 50.1576 238.005 50.5124 237.249 50.5727H231.065C230.79 50.5392 230.511 50.5757 230.254 50.6786C229.996 50.7814 229.769 50.9475 229.593 51.1613C229.247 51.6811 229.101 52.3082 229.181 52.9272V57.6951C229.189 57.9628 229.143 58.2294 229.046 58.479C228.948 58.7287 228.802 58.9563 228.615 59.1484C228.429 59.3405 228.205 59.4933 227.959 59.5975C227.712 59.7017 227.446 59.7554 227.178 59.7553L227.002 59.6376ZM219.581 41.037V57.6951H226.648V53.457C226.533 52.3329 226.825 51.2048 227.473 50.2784C227.832 49.8708 228.277 49.5484 228.776 49.3345C229.275 49.1207 229.816 49.0208 230.359 49.0423H237.249C237.838 49.0423 238.074 48.3359 238.074 47.865C238.143 47.6346 238.143 47.3892 238.074 47.1587C238.007 47.0656 237.918 46.99 237.816 46.9388C237.713 46.8875 237.599 46.862 237.485 46.8644H225.235C225.001 46.8644 224.776 46.7714 224.61 46.6058C224.444 46.4402 224.351 46.2156 224.351 45.9814V41.2135L219.581 41.037Z" fill="#898A8D"/>
<path d="M232.825 7.59306C232.6 7.56893 232.391 7.46451 232.236 7.29882C232.15 7.22701 232.08 7.13703 232.033 7.0353C231.985 6.93356 231.96 6.82254 231.96 6.71016C231.96 6.59778 231.985 6.48675 232.033 6.38502C232.08 6.28329 232.15 6.1933 232.236 6.1215L234.18 4.17911C234.252 4.09266 234.342 4.02306 234.444 3.97531C234.545 3.92757 234.656 3.90283 234.769 3.90283C234.881 3.90283 234.992 3.92757 235.094 3.97531C235.196 4.02306 235.286 4.09266 235.358 4.17911C235.52 4.34416 235.61 4.56603 235.61 4.79714C235.61 5.02825 235.52 5.25013 235.358 5.41517L233.473 7.29882C233.304 7.47778 233.071 7.58336 232.825 7.59306Z" fill="#898A8D"/>
<path d="M229.821 10.5373C229.632 10.6098 229.422 10.6098 229.232 10.5373C229.144 10.46 229.074 10.3649 229.026 10.2584C228.978 10.1518 228.953 10.0362 228.953 9.91932C228.953 9.8024 228.978 9.68682 229.026 9.58026C229.074 9.4737 229.144 9.37863 229.232 9.3013L230.351 8.18291C230.528 8.04447 230.745 7.96924 230.969 7.96924C231.194 7.96924 231.412 8.04447 231.588 8.18291C231.75 8.34795 231.84 8.56982 231.84 8.80093C231.84 9.03204 231.75 9.254 231.588 9.41904L230.469 10.5373C230.261 10.6193 230.029 10.6193 229.821 10.5373Z" fill="#898A8D"/>
<path d="M237.773 13.4814H235.064C234.83 13.4814 234.605 13.3884 234.439 13.2228C234.274 13.0572 234.181 12.8327 234.181 12.5985C234.196 12.3747 234.295 12.165 234.459 12.0119C234.623 11.8588 234.839 11.7739 235.064 11.7744H237.773C237.998 11.7739 238.214 11.8588 238.378 12.0119C238.542 12.165 238.642 12.3747 238.657 12.5985C238.657 12.8327 238.564 13.0572 238.398 13.2228C238.232 13.3884 238.007 13.4814 237.773 13.4814Z" fill="#898A8D"/>
<path d="M232.646 13.4814H231.056C230.822 13.4814 230.597 13.3884 230.431 13.2228C230.266 13.0572 230.173 12.8327 230.173 12.5985C230.188 12.3747 230.287 12.165 230.451 12.0119C230.616 11.8588 230.832 11.7739 231.056 11.7744H232.646C232.865 11.7744 233.075 11.8612 233.23 12.0158C233.384 12.1703 233.471 12.3799 233.471 12.5985C233.472 12.8228 233.387 13.0389 233.233 13.2029C233.08 13.3669 232.87 13.4664 232.646 13.4814Z" fill="#898A8D"/>
<path d="M234.782 21.3106C234.592 21.3779 234.384 21.3779 234.194 21.3106L232.25 19.3681C232.149 19.2922 232.065 19.1954 232.004 19.0844C231.944 18.9733 231.908 18.8506 231.899 18.7244C231.89 18.5982 231.908 18.4716 231.952 18.3531C231.997 18.2346 232.066 18.1269 232.155 18.0375C232.245 17.948 232.352 17.8788 232.471 17.8346C232.59 17.7903 232.716 17.7721 232.843 17.781C232.969 17.79 233.092 17.826 233.203 17.8866C233.314 17.9471 233.411 18.0308 233.487 18.132L235.371 20.0745C235.533 20.2395 235.624 20.4614 235.624 20.6925C235.624 20.9236 235.533 21.1455 235.371 21.3106C235.179 21.3661 234.975 21.3661 234.782 21.3106Z" fill="#898A8D"/>
<path d="M230.999 17.4823C230.791 17.5643 230.559 17.5643 230.351 17.4823L229.232 16.3639C229.144 16.2866 229.074 16.1915 229.026 16.0849C228.978 15.9784 228.953 15.8628 228.953 15.7459C228.953 15.6289 228.978 15.5134 229.026 15.4068C229.074 15.3002 229.144 15.2051 229.232 15.1277C229.408 14.9893 229.626 14.9141 229.851 14.9141C230.075 14.9141 230.293 14.9893 230.469 15.1277L231.588 16.2461C231.75 16.4112 231.84 16.6331 231.84 16.8643C231.84 17.0954 231.75 17.3172 231.588 17.4823C231.398 17.5547 231.189 17.5547 230.999 17.4823Z" fill="#898A8D"/>
<path d="M226.945 19.1902C226.71 19.1902 226.486 19.0972 226.32 18.9316C226.155 18.766 226.062 18.5415 226.062 18.3073V17.0123C226.062 16.7781 226.155 16.5536 226.32 16.388C226.486 16.2224 226.71 16.1294 226.945 16.1294C227.179 16.1294 227.404 16.2224 227.57 16.388C227.735 16.5536 227.828 16.7781 227.828 17.0123V18.6016C227.828 18.8358 227.735 19.0603 227.57 19.2259C227.404 19.3915 227.179 19.4845 226.945 19.4845" fill="#898A8D"/>
<path d="M219.104 21.3106C218.912 21.3662 218.708 21.3662 218.515 21.3106C218.428 21.2332 218.357 21.1381 218.309 21.0316C218.261 20.925 218.236 20.8094 218.236 20.6925C218.236 20.5756 218.261 20.46 218.309 20.3535C218.357 20.2469 218.428 20.1518 218.515 20.0745L220.4 18.132C220.476 18.0308 220.573 17.9471 220.684 17.8866C220.795 17.826 220.918 17.79 221.044 17.781C221.17 17.7721 221.297 17.7903 221.416 17.8346C221.534 17.8788 221.642 17.948 221.731 18.0375C221.821 18.1269 221.89 18.2346 221.935 18.3531C221.979 18.4716 221.997 18.5982 221.988 18.7244C221.979 18.8506 221.943 18.9733 221.882 19.0844C221.822 19.1954 221.738 19.2922 221.637 19.3681L219.693 21.3106C219.501 21.3662 219.297 21.3662 219.104 21.3106Z" fill="#898A8D"/>
<path d="M222.882 17.4823C222.692 17.5547 222.483 17.5547 222.293 17.4823C222.205 17.4049 222.135 17.3099 222.087 17.2033C222.039 17.0967 222.014 16.9812 222.014 16.8642C222.014 16.7473 222.039 16.6317 222.087 16.5252C222.135 16.4186 222.205 16.3235 222.293 16.2461L223.412 15.1277C223.582 15.0002 223.793 14.9383 224.005 14.9534C224.217 14.9685 224.416 15.0595 224.567 15.2098C224.717 15.3601 224.808 15.5595 224.823 15.7715C224.838 15.9835 224.777 16.1938 224.649 16.3639L223.53 17.4823C223.322 17.5643 223.09 17.5643 222.882 17.4823Z" fill="#898A8D"/>
<path d="M218.58 13.4814H215.871C215.637 13.4814 215.412 13.3884 215.246 13.2228C215.08 13.0572 214.987 12.8327 214.987 12.5985C215.002 12.3747 215.102 12.165 215.266 12.0119C215.43 11.8588 215.646 11.7739 215.871 11.7744H218.58C218.804 11.7739 219.02 11.8588 219.184 12.0119C219.349 12.165 219.448 12.3747 219.463 12.5985C219.463 12.8327 219.37 13.0572 219.205 13.2228C219.039 13.3884 218.814 13.4814 218.58 13.4814Z" fill="#898A8D"/>
<path d="M222.808 13.4814H221.218C220.983 13.4814 220.758 13.3884 220.593 13.2228C220.427 13.0572 220.334 12.8327 220.334 12.5985C220.349 12.3747 220.449 12.165 220.613 12.0119C220.777 11.8588 220.993 11.7739 221.218 11.7744H222.808C223.032 11.7739 223.248 11.8588 223.413 12.0119C223.577 12.165 223.676 12.3747 223.691 12.5985C223.691 12.8327 223.598 13.0572 223.432 13.2228C223.267 13.3884 223.042 13.4814 222.808 13.4814Z" fill="#898A8D"/>
<path d="M221.048 7.59306C220.802 7.58336 220.569 7.47778 220.4 7.29882L218.515 5.41517C218.428 5.33784 218.357 5.24276 218.309 5.1362C218.261 5.02964 218.236 4.91406 218.236 4.79714C218.236 4.68023 218.261 4.56464 218.309 4.45808C218.357 4.35152 218.428 4.25644 218.515 4.17911C218.587 4.09266 218.677 4.02306 218.779 3.97531C218.881 3.92757 218.992 3.90283 219.104 3.90283C219.217 3.90283 219.328 3.92757 219.43 3.97531C219.532 4.02306 219.621 4.09266 219.693 4.17911L221.637 6.1215C221.724 6.1933 221.793 6.28329 221.841 6.38502C221.889 6.48675 221.913 6.59778 221.913 6.71016C221.913 6.82254 221.889 6.93356 221.841 7.0353C221.793 7.13703 221.724 7.22701 221.637 7.29882C221.483 7.46451 221.273 7.56893 221.048 7.59306Z" fill="#898A8D"/>
<path d="M224.001 10.5373C223.811 10.6098 223.602 10.6098 223.412 10.5373L222.293 9.41904C222.205 9.34171 222.135 9.24655 222.087 9.13999C222.039 9.03343 222.014 8.91785 222.014 8.80093C222.014 8.68402 222.039 8.56844 222.087 8.46188C222.135 8.35532 222.205 8.26024 222.293 8.18291C222.469 8.04447 222.687 7.96924 222.911 7.96924C223.136 7.96924 223.354 8.04447 223.53 8.18291L224.649 9.3013C224.787 9.47757 224.862 9.69518 224.862 9.91932C224.862 10.1435 224.787 10.3611 224.649 10.5373C224.441 10.6193 224.209 10.6193 224.001 10.5373Z" fill="#898A8D"/>
<path d="M226.945 5.23818C226.72 5.23868 226.504 5.15376 226.34 5.00071C226.176 4.84765 226.076 4.63793 226.062 4.41411V1.64755C226.062 1.41338 226.155 1.18882 226.32 1.02323C226.486 0.857649 226.71 0.764648 226.945 0.764648C227.179 0.764648 227.404 0.857649 227.57 1.02323C227.735 1.18882 227.828 1.41338 227.828 1.64755V4.41411C227.813 4.63793 227.714 4.84765 227.55 5.00071C227.386 5.15376 227.169 5.23868 226.945 5.23818Z" fill="#898A8D"/>
<path d="M226.945 9.36098C226.71 9.36098 226.486 9.26798 226.32 9.1024C226.155 8.93681 226.062 8.71225 226.062 8.47808V6.88876C226.062 6.65459 226.155 6.43003 226.32 6.26444C226.486 6.09886 226.71 6.00586 226.945 6.00586C227.179 6.00586 227.404 6.09886 227.57 6.26444C227.735 6.43003 227.828 6.65459 227.828 6.88876V8.47808C227.828 8.71225 227.735 8.93681 227.57 9.1024C227.404 9.26798 227.179 9.36098 226.945 9.36098Z" fill="#898A8D"/>
<path d="M226.945 24.5463C226.71 24.5463 226.486 24.4533 226.32 24.2877C226.155 24.1221 226.062 23.8975 226.062 23.6634V20.9557C226.062 20.7215 226.155 20.4969 226.32 20.3313C226.486 20.1658 226.71 20.0728 226.945 20.0728C227.179 20.0728 227.404 20.1658 227.57 20.3313C227.735 20.4969 227.828 20.7215 227.828 20.9557V23.6634C227.828 23.8975 227.735 24.1221 227.57 24.2877C227.404 24.4533 227.179 24.5463 226.945 24.5463Z" fill="#898A8D"/>
<path d="M15.7377 13.95C15.5453 14.0056 15.3412 14.0056 15.1488 13.95C14.4685 13.2954 13.5608 12.9297 12.6164 12.9297C11.672 12.9297 10.764 13.2954 10.0836 13.95C9.93124 14.0906 9.73163 14.1688 9.52424 14.1688C9.31685 14.1688 9.11689 14.0906 8.96455 13.95C8.87805 13.8782 8.8085 13.7883 8.76073 13.6866C8.71296 13.5848 8.68848 13.4738 8.68848 13.3614C8.68848 13.249 8.71296 13.138 8.76073 13.0363C8.8085 12.9346 8.87805 12.8446 8.96455 12.7728C9.94541 11.8058 11.2678 11.2637 12.6455 11.2637C14.0233 11.2637 15.3456 11.8058 16.3265 12.7728C16.4713 12.9346 16.5515 13.1442 16.5515 13.3614C16.5515 13.5786 16.4713 13.7881 16.3265 13.95C16.1341 14.0056 15.93 14.0056 15.7377 13.95Z" fill="#898A8D"/>
<path d="M5.19665 10.4767C5.00703 10.5492 4.7971 10.5492 4.60748 10.4767C4.46261 10.3148 4.38281 10.1053 4.38281 9.88815C4.38281 9.67097 4.46261 9.46137 4.60748 9.29949C6.74102 7.19258 9.61819 6.00864 12.6175 6.00319C14.1048 5.99305 15.5788 6.27934 16.9541 6.84532C18.3294 7.4113 19.5783 8.24561 20.6272 9.29949C20.7137 9.3713 20.7832 9.46128 20.831 9.56302C20.8788 9.66475 20.9036 9.77577 20.9036 9.88815C20.9036 10.0005 20.8788 10.1115 20.831 10.2132C20.7832 10.3149 20.7137 10.4049 20.6272 10.4767C20.4748 10.6174 20.2749 10.6955 20.0675 10.6955C19.8601 10.6955 19.6605 10.6174 19.5082 10.4767C17.6706 8.66852 15.1962 7.65391 12.6175 7.65134C11.3484 7.64758 10.0909 7.89533 8.91822 8.3803C7.74556 8.86527 6.68083 9.57782 5.78546 10.4767C5.69215 10.5156 5.59214 10.5356 5.49105 10.5356C5.38997 10.5356 5.28996 10.5156 5.19665 10.4767Z" fill="#898A8D"/>
<path d="M0.894894 7.00434C0.801585 7.0432 0.701573 7.06318 0.600488 7.06318C0.499404 7.06318 0.399392 7.0432 0.306083 7.00434C0.161213 6.84247 0.0810547 6.63287 0.0810547 6.41568C0.0810547 6.1985 0.161213 5.98899 0.306083 5.82711C1.92031 4.21087 3.8396 2.93114 5.95263 2.06215C8.06566 1.19316 10.3305 0.752203 12.6154 0.764916C17.2422 0.768732 21.6828 2.58631 24.9833 5.82711C25.1282 5.98899 25.2084 6.1985 25.2084 6.41568C25.2084 6.63287 25.1282 6.84247 24.9833 7.00434C24.9115 7.09079 24.8213 7.16039 24.7195 7.20814C24.6177 7.25589 24.507 7.28062 24.3945 7.28062C24.2821 7.28062 24.171 7.25589 24.0692 7.20814C23.9674 7.16039 23.8772 7.09079 23.8053 7.00434C22.3397 5.53334 20.5951 4.36953 18.6735 3.58114C16.752 2.79274 14.6925 2.39563 12.6154 2.41306C10.5473 2.39688 8.49672 2.79475 6.58494 3.58329C4.67316 4.37184 2.93881 5.53509 1.48407 7.00434C1.29444 7.07681 1.08452 7.07681 0.894894 7.00434Z" fill="#898A8D"/>
<path d="M12.6244 20.9558C12.4058 20.9558 12.196 20.869 12.0414 20.7144C11.8867 20.5599 11.7998 20.3503 11.7998 20.1317V17.7772C11.7998 17.5586 11.8867 17.349 12.0414 17.1945C12.196 17.0399 12.4058 16.9531 12.6244 16.9531C12.8431 16.9531 13.0525 17.0399 13.2072 17.1945C13.3618 17.349 13.4487 17.5586 13.4487 17.7772V20.1317C13.4487 20.3503 13.3618 20.5599 13.2072 20.7144C13.0525 20.869 12.8431 20.9558 12.6244 20.9558Z" fill="#898A8D"/>
<path d="M21.2289 83.7075C21.0915 83.7751 20.9403 83.8102 20.7872 83.8102C20.634 83.8102 20.4828 83.7751 20.3454 83.7075C19.6129 82.6327 18.6955 81.696 17.6361 80.941C17.5469 80.8584 17.4759 80.7582 17.4272 80.6468C17.3785 80.5354 17.3535 80.4151 17.3535 80.2935C17.3535 80.1719 17.3785 80.0517 17.4272 79.9403C17.4759 79.8289 17.5469 79.7287 17.6361 79.646C17.8208 79.4764 18.0628 79.3823 18.3137 79.3823C18.5645 79.3823 18.8062 79.4764 18.9909 79.646C20.298 80.5204 21.4024 81.6645 22.2301 83.0012C22.3258 83.1418 22.3818 83.3058 22.3918 83.4756C22.4019 83.6453 22.3654 83.8147 22.2869 83.9656C22.2083 84.1165 22.0906 84.2433 21.9457 84.3326C21.8009 84.4219 21.6346 84.4704 21.4644 84.4728" fill="#898A8D"/>
<path d="M12.0448 100.896C11.242 100.978 10.4326 100.978 9.62984 100.896C8.09358 100.598 6.63212 99.9981 5.33058 99.1299C4.03782 98.2385 2.93654 97.0978 2.09139 95.7748C1.22271 94.474 0.62177 93.0132 0.324238 91.4778C-6.34044e-06 89.9447 -6.34044e-06 88.3607 0.324238 86.8276C0.640221 85.2978 1.23975 83.8405 2.09139 82.5307C2.98327 81.2386 4.12435 80.1379 5.44812 79.2932C6.74966 78.425 8.21149 77.8246 9.74775 77.5273C11.2847 77.2331 12.8634 77.2331 14.4004 77.5273C14.6571 77.5838 14.8812 77.739 15.0244 77.9592C15.1677 78.1795 15.2186 78.4471 15.166 78.7045C15.1387 78.8302 15.0861 78.9491 15.0111 79.0536C14.9361 79.1582 14.8404 79.2462 14.73 79.3124C14.6196 79.3786 14.497 79.4215 14.3695 79.4384C14.2419 79.4554 14.1119 79.446 13.9881 79.4109C12.7031 79.1755 11.3861 79.1755 10.1011 79.4109C8.8194 79.6639 7.59927 80.1637 6.50856 80.8825C5.3975 81.5948 4.44316 82.5257 3.70398 83.6187C2.96479 84.7117 2.45602 85.9438 2.20894 87.2397C1.9256 88.5165 1.90485 89.8374 2.14783 91.1225C2.39081 92.4076 2.8924 93.6298 3.62238 94.7152C4.35839 95.8232 5.29781 96.7819 6.39065 97.5407C8.60279 98.9723 11.2734 99.5187 13.8705 99.0711C15.1706 98.8321 16.4089 98.3336 17.5119 97.6054C18.6149 96.8773 19.5598 95.9343 20.2899 94.8329C21.0368 93.7512 21.5577 92.5299 21.8213 91.2423C22.0863 89.9609 22.0863 88.6388 21.8213 87.3574C21.7958 87.2335 21.7956 87.1058 21.8205 86.9818C21.8455 86.8578 21.895 86.7401 21.9665 86.6358C22.0379 86.5314 22.1299 86.4425 22.2365 86.3743C22.343 86.3061 22.4622 86.2601 22.5869 86.2389C22.7109 86.2135 22.8385 86.2132 22.9626 86.2381C23.0866 86.2631 23.2047 86.3128 23.3091 86.3842C23.4135 86.4556 23.5022 86.5473 23.5704 86.6538C23.6387 86.7603 23.6848 86.8795 23.706 87.0042C24.0003 88.5403 24.0003 90.1183 23.706 91.6544C23.3693 93.1875 22.7502 94.6446 21.8802 95.9514C20.9953 97.229 19.8762 98.3275 18.5821 99.1888C17.2629 100.064 15.7806 100.665 14.2239 100.955C13.4791 101.016 12.7306 101.016 11.9858 100.955" fill="#898A8D"/>
<path d="M17.5291 90.006H12.0519C11.802 90.006 11.5622 89.9067 11.3854 89.7301C11.2087 89.5535 11.1094 89.314 11.1094 89.0642V82.4715C11.1094 82.2217 11.2087 81.9822 11.3854 81.8056C11.5622 81.629 11.802 81.5298 12.0519 81.5298C12.3075 81.5293 12.5534 81.6266 12.7396 81.8018C12.9257 81.9769 13.038 82.2165 13.053 82.4715V88.3578H17.5291C17.7843 88.3728 18.0239 88.4849 18.1992 88.671C18.3744 88.857 18.4717 89.103 18.4713 89.3585C18.4713 89.6083 18.3719 89.8478 18.1952 90.0244C18.0185 90.2011 17.779 90.3003 17.5291 90.3003" fill="#898A8D"/>
<path d="M141.692 50.0917L138.159 46.9131H108.416L104.883 50.0917L108.416 53.2114H138.159L141.692 50.0917Z" fill="#898A8D"/>
<path d="M139.987 3.7085H106.535L100.174 10.0657H106.535H112.719H137.985L142.755 6.4162L139.987 3.7085Z" fill="#898A8D"/>
<path d="M139.987 96.4763H106.535L100.174 90.1191H137.985L142.755 93.7098L139.987 96.4763Z" fill="#898A8D"/>
<path d="M100.226 13.4805V48.386H101.639L106.528 44.0302V13.4805H100.226Z" fill="#898A8D"/>
<path d="M100.226 86.7058V51.8003H101.639L106.528 56.1561V86.7058H100.226Z" fill="#898A8D"/>
<path d="M145.158 8.88916L139.975 12.833V44.0302L144.863 48.386H146.335V10.0664L145.158 8.88916Z" fill="#898A8D"/>
<path d="M145.158 91.2383L139.975 87.3534V56.0973L144.863 51.8003H146.335V90.1199L145.158 91.2383Z" fill="#898A8D"/>
<path d="M79.8712 50.0917L76.3374 46.9131H46.5952L43.0615 50.0917L46.5952 53.2114H76.3374L79.8712 50.0917Z" fill="#898A8D"/>
<path d="M78.1648 3.7085H44.7123L38.3516 10.0657H44.7123H50.8963H76.1624L80.9329 6.4162L78.1648 3.7085Z" fill="#898A8D"/>
<path d="M78.1649 96.4763H44.7124L38.3516 90.1191H76.1626L80.9331 93.7098L78.1649 96.4763Z" fill="#898A8D"/>
<path d="M38.4033 13.4805V48.386H39.8169L44.7052 44.0302V13.4805H38.4033Z" fill="#898A8D"/>
<path d="M38.4033 86.7058V51.8003H39.8169L44.7052 56.1561V86.7058H38.4033Z" fill="#898A8D"/>
<path d="M83.3362 8.88916L78.1533 12.833V44.0302L83.0417 48.386H84.5141V10.0664L83.3362 8.88916Z" fill="#898A8D"/>
<path d="M83.3362 91.2383L78.1533 87.3534V56.0973L83.0417 51.8003H84.5141V90.1199L83.3362 91.2383Z" fill="#898A8D"/>
<path d="M200.002 50.0917L196.468 46.9131H166.726L163.192 50.0917L166.726 53.2114H196.468L200.002 50.0917Z" fill="#898A8D"/>
<path d="M198.348 3.7666H164.837C162.363 6.17997 158.535 10.0649 158.535 10.0649H196.287L201.057 6.47432L198.348 3.7666Z" fill="#898A8D"/>
<path d="M198.348 96.4174H164.837L158.535 90.1191H164.896H171.021H196.346L201.058 93.7098L198.348 96.4174Z" fill="#898A8D"/>
<path d="M158.535 13.4805V48.386H159.949L164.837 44.0302L164.896 13.4805H158.535Z" fill="#898A8D"/>
<path d="M158.535 86.7058V51.8003H159.949L164.837 56.1561L164.896 86.7058H158.535Z" fill="#898A8D"/>
<path d="M203.525 8.88916L198.342 12.833V44.0302L203.171 48.386H204.644V10.0664L203.525 8.88916Z" fill="#898A8D"/>
<path d="M203.525 91.2383L198.342 87.3534V56.0973L203.171 51.8003H204.644V90.1199L203.525 91.2383Z" fill="#898A8D"/>
<path fill-rule="evenodd" clip-rule="evenodd" d="M25.6012 41.1014C25.696 41.1764 25.814 41.216 25.9349 41.2133H26.1512C26.2201 41.2005 26.2856 41.1739 26.344 41.1351C26.4023 41.0963 26.4523 41.0461 26.4907 40.9875C26.5291 40.9289 26.5552 40.8632 26.5675 40.7942C26.5798 40.7252 26.578 40.6545 26.5622 40.5862C26.1216 38.4895 24.9749 36.6072 23.3133 35.2535C21.6517 33.8998 19.576 33.1566 17.4323 33.1479C17.2946 33.1479 17.1625 33.2026 17.0651 33.2999C16.9677 33.3972 16.913 33.5292 16.913 33.6669C16.9101 33.7368 16.9214 33.8067 16.9461 33.8721C16.9709 33.9376 17.0087 33.9974 17.0572 34.0479C17.1057 34.0984 17.164 34.1386 17.2285 34.166C17.2929 34.1934 17.3623 34.2075 17.4323 34.2075C19.3136 34.2407 21.1278 34.9113 22.578 36.1094C24.0283 37.3075 25.0287 38.9621 25.4155 40.8025C25.4407 40.9207 25.5064 41.0264 25.6012 41.1014ZM22.2367 41.516C22.1127 41.5177 21.9923 41.4751 21.897 41.3958C21.8018 41.3165 21.7381 41.2057 21.7174 41.0836C21.5091 40.229 21.0219 39.4682 20.3328 38.9213C19.6251 38.3372 18.7407 38.0095 17.8231 37.9914C17.7446 38.0074 17.6634 38.0057 17.5856 37.9865C17.5078 37.9672 17.4352 37.931 17.3731 37.8803C17.3111 37.8296 17.2611 37.7657 17.2268 37.6933C17.1925 37.6209 17.1746 37.5418 17.1746 37.4617C17.1746 37.3816 17.1925 37.3025 17.2268 37.2301C17.2611 37.1577 17.3111 37.0938 17.3731 37.0431C17.4352 36.9924 17.5078 36.9562 17.5856 36.9369C17.6634 36.9177 17.7446 36.916 17.8231 36.9319C18.9777 36.9547 20.0908 37.3663 20.9822 38.1002C21.8735 38.8341 22.4908 39.8472 22.7342 40.9754C22.7601 41.1128 22.7318 41.2548 22.6551 41.3718C22.5785 41.4887 22.4595 41.5714 22.3231 41.6025L22.2367 41.516ZM8.36936 59.485H17.5858V59.3985C18.2169 59.3985 18.8223 59.1479 19.2686 58.7019C19.7149 58.2558 19.9657 57.6508 19.9657 57.02V42.0785C19.9657 41.4477 19.7149 40.8427 19.2686 40.3966C18.8223 39.9506 18.2169 39.7 17.5858 39.7H8.36936C7.73618 39.7 7.12861 39.9498 6.67886 40.3953C6.22911 40.8407 5.97348 41.4457 5.96777 42.0785V57.1065C5.97348 57.7393 6.22911 58.3442 6.67886 58.7897C7.12861 59.2351 7.73618 59.485 8.36936 59.485ZM7.43617 41.0593C7.68366 40.812 8.01935 40.673 8.36936 40.673H17.5858C17.9358 40.673 18.2715 40.812 18.519 41.0593C18.7665 41.3067 18.9056 41.6422 18.9056 41.992V57.02C18.9056 57.1932 18.8714 57.3647 18.8051 57.5248C18.7388 57.6848 18.6415 57.8302 18.519 57.9527C18.3964 58.0751 18.251 58.1723 18.0909 58.2386C17.9307 58.3049 17.7591 58.339 17.5858 58.339H8.36936C8.19605 58.339 8.02439 58.3049 7.86427 58.2386C7.70415 58.1723 7.55871 58.0751 7.43617 57.9527C7.31362 57.8302 7.21634 57.6848 7.15001 57.5248C7.08369 57.3647 7.04952 57.1932 7.04952 57.02V41.992C7.04952 41.6422 7.18867 41.3067 7.43617 41.0593ZM11.7057 57.3813C12.0424 57.7179 12.4991 57.907 12.9753 57.907C13.4516 57.907 13.9084 57.7179 14.2451 57.3813C14.5819 57.0447 14.7711 56.5882 14.7711 56.1123C14.7711 55.6363 14.5819 55.1798 14.2451 54.8432C13.9084 54.5066 13.4516 54.3175 12.9753 54.3175C12.4991 54.3175 12.0424 54.5066 11.7057 54.8432C11.3689 55.1798 11.1797 55.6363 11.1797 56.1123C11.1797 56.5882 11.3689 57.0447 11.7057 57.3813ZM12.6578 55.4133C12.7613 55.3854 12.8697 55.3804 12.9753 55.3987C13.081 55.3804 13.1894 55.3854 13.2929 55.4133C13.3964 55.4413 13.4927 55.4915 13.5747 55.5606C13.6568 55.6296 13.7228 55.7157 13.768 55.8128C13.8133 55.91 13.8367 56.0159 13.8367 56.1231C13.8367 56.2303 13.8133 56.3361 13.768 56.4333C13.7228 56.5305 13.6568 56.6166 13.5747 56.6856C13.4927 56.7546 13.3964 56.8048 13.2929 56.8328C13.1894 56.8607 13.081 56.8657 12.9753 56.8474C12.8697 56.8657 12.7613 56.8607 12.6578 56.8328C12.5542 56.8048 12.4581 56.7546 12.3761 56.6856C12.294 56.6166 12.228 56.5305 12.1828 56.4333C12.1375 56.3361 12.1141 56.2303 12.1141 56.1231C12.1141 56.0159 12.1375 55.91 12.1828 55.8128C12.228 55.7157 12.294 55.6296 12.3761 55.5606C12.4581 55.4915 12.5542 55.4413 12.6578 55.4133Z" fill="#898A8D"/>
<path fill-rule="evenodd" clip-rule="evenodd" d="M233.719 82.3658V80.4193C233.719 78.8829 233.108 77.4095 232.021 76.3231C230.934 75.2367 229.46 74.6263 227.922 74.6263C226.385 74.6263 224.911 75.2367 223.824 76.3231C222.737 77.4095 222.126 78.8829 222.126 80.4193V82.3658H233.719ZM220.99 82.3658V80.4193C221.208 78.7448 222.028 77.2068 223.297 76.0924C224.566 74.9779 226.198 74.3633 227.888 74.3633C229.577 74.3633 231.209 74.9779 232.478 76.0924C233.747 77.2068 234.568 78.7448 234.785 80.4193V82.3658H237.058C237.319 82.3719 237.566 82.4795 237.748 82.6657C237.93 82.8519 238.032 83.1019 238.032 83.3622V94.7629C238.032 95.021 237.93 95.2685 237.747 95.451C237.564 95.6336 237.317 95.7361 237.058 95.7361H218.928C218.798 95.7392 218.669 95.7163 218.548 95.6688C218.427 95.6213 218.317 95.5501 218.224 95.4594C218.131 95.3687 218.057 95.2604 218.007 95.1407C217.957 95.0211 217.931 94.8927 217.931 94.7629V83.3622C217.931 83.0979 218.036 82.8445 218.223 82.6576C218.41 82.4707 218.663 82.3658 218.928 82.3658H220.99ZM219.067 94.6007H236.896V83.5244H219.067V94.6007ZM227.992 91.2184C227.838 91.2184 227.691 91.1574 227.582 91.0487C227.474 90.9401 227.413 90.7927 227.413 90.6391V87.4877C227.395 87.4036 227.397 87.3167 227.418 87.2333C227.439 87.15 227.477 87.0723 227.532 87.0058C227.586 86.9393 227.655 86.8858 227.732 86.849C227.81 86.8122 227.895 86.7931 227.981 86.7931C228.066 86.7931 228.151 86.8122 228.229 86.849C228.307 86.8858 228.375 86.9393 228.429 87.0058C228.484 87.0723 228.523 87.15 228.543 87.2333C228.564 87.3167 228.566 87.4036 228.549 87.4877V90.6391C228.549 90.7888 228.491 90.9328 228.387 91.0408C228.283 91.1488 228.142 91.2124 227.992 91.2184Z" fill="#898A8D"/>
</g>
<path d="M15.7377 13.95C15.5453 14.0056 15.3412 14.0056 15.1488 13.95C14.4685 13.2954 13.5608 12.9297 12.6164 12.9297C11.672 12.9297 10.764 13.2954 10.0836 13.95C9.93124 14.0906 9.73163 14.1688 9.52424 14.1688C9.31685 14.1688 9.11689 14.0906 8.96455 13.95C8.87805 13.8782 8.8085 13.7883 8.76073 13.6866C8.71296 13.5848 8.68848 13.4738 8.68848 13.3614C8.68848 13.249 8.71296 13.138 8.76073 13.0363C8.8085 12.9346 8.87805 12.8446 8.96455 12.7728C9.94541 11.8058 11.2678 11.2637 12.6455 11.2637C14.0233 11.2637 15.3456 11.8058 16.3265 12.7728C16.4713 12.9346 16.5515 13.1442 16.5515 13.3614C16.5515 13.5786 16.4713 13.7881 16.3265 13.95C16.1341 14.0056 15.93 14.0056 15.7377 13.95Z" fill="white"/>
<path d="M5.19665 10.4767C5.00703 10.5492 4.7971 10.5492 4.60748 10.4767C4.46261 10.3148 4.38281 10.1053 4.38281 9.88815C4.38281 9.67097 4.46261 9.46137 4.60748 9.29949C6.74102 7.19258 9.61819 6.00864 12.6175 6.00319C14.1048 5.99305 15.5788 6.27934 16.9541 6.84532C18.3294 7.4113 19.5783 8.24561 20.6272 9.29949C20.7137 9.3713 20.7832 9.46128 20.831 9.56302C20.8788 9.66475 20.9036 9.77577 20.9036 9.88815C20.9036 10.0005 20.8788 10.1115 20.831 10.2132C20.7832 10.3149 20.7137 10.4049 20.6272 10.4767C20.4748 10.6174 20.2749 10.6955 20.0675 10.6955C19.8601 10.6955 19.6605 10.6174 19.5082 10.4767C17.6706 8.66852 15.1962 7.65391 12.6175 7.65134C11.3484 7.64758 10.0909 7.89533 8.91822 8.3803C7.74556 8.86527 6.68083 9.57782 5.78546 10.4767C5.69215 10.5156 5.59214 10.5356 5.49105 10.5356C5.38997 10.5356 5.28996 10.5156 5.19665 10.4767Z" fill="white"/>
<path d="M0.894894 7.00434C0.801585 7.0432 0.701573 7.06318 0.600488 7.06318C0.499404 7.06318 0.399392 7.0432 0.306083 7.00434C0.161213 6.84247 0.0810547 6.63287 0.0810547 6.41568C0.0810547 6.1985 0.161213 5.98899 0.306083 5.82711C1.92031 4.21087 3.8396 2.93114 5.95263 2.06215C8.06566 1.19316 10.3305 0.752203 12.6154 0.764916C17.2422 0.768732 21.6828 2.58631 24.9833 5.82711C25.1282 5.98899 25.2084 6.1985 25.2084 6.41568C25.2084 6.63287 25.1282 6.84247 24.9833 7.00434C24.9115 7.09079 24.8213 7.16039 24.7195 7.20814C24.6177 7.25589 24.507 7.28062 24.3945 7.28062C24.2821 7.28062 24.171 7.25589 24.0692 7.20814C23.9674 7.16039 23.8772 7.09079 23.8053 7.00434C22.3397 5.53334 20.5951 4.36953 18.6735 3.58114C16.752 2.79274 14.6925 2.39563 12.6154 2.41306C10.5473 2.39688 8.49672 2.79475 6.58494 3.58329C4.67316 4.37184 2.93881 5.53509 1.48407 7.00434C1.29444 7.07681 1.08452 7.07681 0.894894 7.00434Z" fill="white"/>
<path d="M12.6244 20.9558C12.4058 20.9558 12.196 20.869 12.0414 20.7144C11.8867 20.5599 11.7998 20.3503 11.7998 20.1317V17.7772C11.7998 17.5586 11.8867 17.349 12.0414 17.1945C12.196 17.0399 12.4058 16.9531 12.6244 16.9531C12.8431 16.9531 13.0525 17.0399 13.2072 17.1945C13.3618 17.349 13.4487 17.5586 13.4487 17.7772V20.1317C13.4487 20.3503 13.3618 20.5599 13.2072 20.7144C13.0525 20.869 12.8431 20.9558 12.6244 20.9558Z" fill="white"/>
<path d="M141.692 50.0917L138.159 46.9131H108.416L104.883 50.0917L108.416 53.2114H138.159L141.692 50.0917Z" fill="white"/>
<path d="M139.987 3.7085H106.535L100.174 10.0657H106.535H112.719H137.985L142.755 6.4162L139.987 3.7085Z" fill="white"/>
<path d="M100.226 13.4805V48.386H101.639L106.528 44.0302V13.4805H100.226Z" fill="white"/>
<path d="M100.226 86.7053V51.7998H101.639L106.528 56.1556V86.7053H100.226Z" fill="white"/>
<path d="M145.158 8.88916L139.975 12.833V44.0302L144.863 48.386H146.335V10.0664L145.158 8.88916Z" fill="white"/>
<path d="M79.8712 50.0917L76.3374 46.9131H46.5952L43.0615 50.0917L46.5952 53.2114H76.3374L79.8712 50.0917Z" fill="white"/>
<path d="M78.1648 3.7085H44.7123L38.3516 10.0657H44.7123H50.8963H76.1624L80.9329 6.4162L78.1648 3.7085Z" fill="white"/>
<path d="M38.4033 13.4805V48.386H39.8169L44.7052 44.0302V13.4805H38.4033Z" fill="white"/>
<path d="M38.4033 86.7053V51.7998H39.8169L44.7052 56.1556V86.7053H38.4033Z" fill="white"/>
<path d="M83.3362 8.88916L78.1533 12.833V44.0302L83.0417 48.386H84.5141V10.0664L83.3362 8.88916Z" fill="white"/>
<path d="M83.3362 91.2378L78.1533 87.3529V56.0968L83.0417 51.7998H84.5141V90.1194L83.3362 91.2378Z" fill="white"/>
<path d="M200.002 50.0917L196.468 46.9131H166.726L163.192 50.0917L166.726 53.2114H196.468L200.002 50.0917Z" fill="white"/>
<path d="M198.348 3.7666H164.837C162.363 6.17997 158.535 10.0649 158.535 10.0649H196.287L201.057 6.47432L198.348 3.7666Z" fill="white"/>
<path d="M158.535 13.4805V48.386H159.949L164.837 44.0302L164.896 13.4805H158.535Z" fill="white"/>
<path d="M158.535 86.7053V51.7998H159.949L164.837 56.1556L164.896 86.7053H158.535Z" fill="white"/>
<path d="M203.525 8.88916L198.342 12.833V44.0302L203.171 48.386H204.644V10.0664L203.525 8.88916Z" fill="white"/>
</svg>
