<svg width="319" height="65" viewBox="0 0 319 65" fill="none" xmlns="http://www.w3.org/2000/svg">
<path d="M292.002 31.7583C291.973 31.7655 291.943 31.7655 291.914 31.7583C291.872 31.7399 291.837 31.71 291.812 31.6721C291.787 31.6341 291.774 31.5899 291.773 31.5446V23.3706C291.775 23.3255 291.788 23.2816 291.813 23.2439C291.838 23.2062 291.873 23.176 291.914 23.1569C291.956 23.1414 292.002 23.138 292.046 23.1471C292.091 23.1562 292.131 23.1775 292.164 23.2085L296.25 27.2918C296.271 27.313 296.288 27.3383 296.3 27.3661C296.311 27.3939 296.317 27.4238 296.317 27.4539C296.317 27.4841 296.311 27.5139 296.3 27.5417C296.288 27.5696 296.271 27.5948 296.25 27.6161L292.164 31.692C292.143 31.7132 292.118 31.7299 292.09 31.7413C292.062 31.7527 292.032 31.7585 292.002 31.7583ZM292.231 23.9234V30.977L295.763 27.4539L292.231 23.9234Z" fill="white"/>
<path d="M298.063 31.7582C298.002 31.7582 297.944 31.7342 297.901 31.6913C297.858 31.6485 297.834 31.5904 297.834 31.5298V23.3706C297.834 23.31 297.858 23.2519 297.901 23.209C297.944 23.1662 298.002 23.1421 298.063 23.1421C298.123 23.1421 298.181 23.1662 298.224 23.209C298.267 23.2519 298.291 23.31 298.291 23.3706V31.5224C298.291 31.583 298.267 31.6411 298.224 31.684C298.181 31.7268 298.123 31.7509 298.063 31.7509" fill="white"/>
<path d="M299.905 31.7582C299.845 31.7582 299.787 31.7342 299.744 31.6913C299.701 31.6485 299.677 31.5904 299.677 31.5298V23.3706C299.677 23.31 299.701 23.2519 299.744 23.209C299.787 23.1662 299.845 23.1421 299.905 23.1421C299.966 23.1421 300.024 23.1662 300.067 23.209C300.11 23.2519 300.134 23.31 300.134 23.3706V31.5224C300.134 31.583 300.11 31.6411 300.067 31.684C300.024 31.7268 299.966 31.7509 299.905 31.7509" fill="white"/>
<path d="M23.0899 26.9161C23.008 26.9161 22.9295 26.8836 22.8716 26.8257C22.8138 26.7679 22.7812 26.6894 22.7812 26.6076V21.6356C22.7813 21.5538 22.8138 21.4754 22.8716 21.4175C22.9295 21.3597 23.008 21.3271 23.0899 21.3271C23.1726 21.3271 23.2521 21.3593 23.3114 21.4169C23.3708 21.4745 23.4053 21.553 23.4076 21.6356V26.6076C23.4053 26.6903 23.3708 26.7687 23.3114 26.8263C23.2521 26.8839 23.1726 26.9161 23.0899 26.9161Z" fill="#F2A900"/>
<path d="M23.0899 26.9161C23.008 26.9161 22.9295 26.8836 22.8716 26.8257C22.8138 26.7679 22.7812 26.6894 22.7812 26.6076V21.6356C22.7813 21.5538 22.8138 21.4754 22.8716 21.4175C22.9295 21.3597 23.008 21.3271 23.0899 21.3271C23.1726 21.3271 23.2521 21.3593 23.3114 21.4169C23.3708 21.4745 23.4053 21.553 23.4076 21.6356V26.6076C23.4053 26.6903 23.3708 26.7687 23.3114 26.8263C23.2521 26.8839 23.1726 26.9161 23.0899 26.9161" stroke="#F2A900" stroke-width="0.3"/>
<path d="M23.0897 33.0315C21.7426 33.0337 20.4362 32.5701 19.3921 31.7194C18.3479 30.8686 17.6304 29.6831 17.361 28.3639C17.0917 27.0448 17.2872 25.6731 17.9144 24.4815C18.5415 23.29 19.5618 22.3519 20.8021 21.8264C20.8781 21.7957 20.963 21.7955 21.0392 21.8259C21.1153 21.8564 21.1767 21.9151 21.2106 21.9897C21.2413 22.0657 21.2415 22.1506 21.211 22.2267C21.1806 22.3028 21.1219 22.3642 21.0472 22.398C19.9405 22.8695 19.0308 23.7086 18.4719 24.7733C17.913 25.8381 17.7392 27.0631 17.98 28.2411C18.2208 29.4191 18.8613 30.4779 19.7932 31.2383C20.7251 31.9986 21.8912 32.414 23.0943 32.414C24.2973 32.414 25.4634 31.9986 26.3953 31.2383C27.3272 30.4779 27.9677 29.4191 28.2085 28.2411C28.4493 27.0631 28.2755 25.8381 27.7166 24.7733C27.1577 23.7086 26.248 22.8695 25.1414 22.398C25.1036 22.3822 25.0693 22.359 25.0406 22.3298C25.0119 22.3006 24.9893 22.266 24.9741 22.228C24.9589 22.19 24.9514 22.1494 24.9521 22.1085C24.9527 22.0676 24.9615 22.0272 24.9779 21.9897C25.0118 21.9151 25.0732 21.8564 25.1493 21.8259C25.2255 21.7955 25.3104 21.7957 25.3865 21.8264C26.6275 22.3522 27.6482 23.291 28.2752 24.4835C28.9023 25.676 29.0971 27.0487 28.8266 28.3684C28.5561 29.6882 27.8369 30.8737 26.7912 31.7237C25.7455 32.5737 24.4376 33.0358 23.0897 33.0315Z" fill="#F2A900"/>
<path fill-rule="evenodd" clip-rule="evenodd" d="M25.1438 22.399C25.147 22.4004 25.1502 22.4018 25.1534 22.4031C25.2476 22.4436 25.3405 22.4867 25.4317 22.5324C25.6288 22.631 25.8187 22.7417 26.0006 22.8635C26.7186 23.3445 27.3103 23.9993 27.7166 24.7733C27.7172 24.7744 27.7177 24.7754 27.7182 24.7764C28.2759 25.8404 28.449 27.0642 28.2085 28.2411C28.2085 28.2413 28.2084 28.2415 28.2084 28.2417C27.9676 29.4192 27.3274 30.4774 26.3961 31.2376C26.3958 31.2378 26.3956 31.238 26.3953 31.2383C25.4634 31.9986 24.2973 32.414 23.0943 32.414C23.0934 32.414 23.0925 32.414 23.0917 32.414C23.0907 32.414 23.0897 32.414 23.0887 32.414C21.8877 32.4127 20.7237 31.9975 19.7932 31.2383C19.7914 31.2368 19.7895 31.2353 19.7877 31.2338C18.8588 30.4737 18.2203 29.4168 17.98 28.2411C17.9798 28.24 17.9796 28.2388 17.9793 28.2377C17.7397 27.0612 17.9134 25.838 18.4712 24.7746C18.4715 24.7742 18.4717 24.7738 18.4719 24.7733C18.8782 23.9993 19.4699 23.3445 20.1879 22.8635C20.3698 22.7417 20.5597 22.631 20.7567 22.5324C20.848 22.4867 20.9409 22.4436 21.0352 22.4031C21.0383 22.4018 21.0415 22.4004 21.0447 22.399C21.0455 22.3987 21.0463 22.3983 21.0472 22.398C21.1219 22.3642 21.1806 22.3028 21.211 22.2267C21.2415 22.1506 21.2413 22.0657 21.2106 21.9897C21.1767 21.9151 21.1153 21.8564 21.0392 21.8259C20.9635 21.7957 20.8791 21.7957 20.8034 21.8259C20.8029 21.826 20.8025 21.8262 20.8021 21.8264C20.7982 21.828 20.7943 21.8297 20.7905 21.8313C20.7009 21.8695 20.6125 21.9098 20.5253 21.9522C20.3062 22.0588 20.0948 22.1786 19.8921 22.3107C19.0634 22.8508 18.3806 23.5959 17.9147 24.4809C17.9146 24.4811 17.9145 24.4813 17.9144 24.4815C17.2872 25.6731 17.0917 27.0448 17.361 28.3639C17.3613 28.3651 17.3615 28.3663 17.3617 28.3675C17.6316 29.6853 18.3489 30.8694 19.3921 31.7194C19.3938 31.7208 19.3955 31.7222 19.3972 31.7236C20.4405 32.5716 21.7448 33.0337 23.0897 33.0315C23.0912 33.0315 23.0927 33.0315 23.0943 33.0315C24.4406 33.0347 25.7466 32.5727 26.7912 31.7237C26.7912 31.7237 26.7913 31.7236 26.7913 31.7236C27.837 30.8736 28.5561 29.6881 28.8266 28.3684C28.8267 28.3681 28.8268 28.3678 28.8268 28.3675C29.0971 27.048 28.9022 25.6757 28.2752 24.4835C28.2748 24.4826 28.2743 24.4817 28.2738 24.4809C27.8076 23.5954 27.1243 22.8499 26.2949 22.3097C26.1959 22.2453 26.0949 22.1838 25.992 22.1253C25.8845 22.0643 25.7748 22.0065 25.6632 21.9522C25.6097 21.9262 25.5557 21.9009 25.5012 21.8765C25.4632 21.8594 25.4249 21.8427 25.3865 21.8264C25.386 21.8262 25.3856 21.826 25.3851 21.8259C25.384 21.8254 25.3828 21.8249 25.3816 21.8245C25.3068 21.7957 25.2239 21.7961 25.1493 21.8259C25.0732 21.8564 25.0118 21.9151 24.9779 21.9897C24.9615 22.0272 24.9527 22.0676 24.9521 22.1085C24.9514 22.1494 24.9589 22.19 24.9741 22.228C24.9893 22.266 25.0119 22.3006 25.0406 22.3298C25.0693 22.359 25.1036 22.3822 25.1414 22.398C25.1422 22.3983 25.143 22.3987 25.1438 22.399Z" fill="#F2A900" stroke="#F2A900" stroke-width="0.3"/>
<path d="M176.099 32.2165H175.01C174.969 32.2166 174.928 32.2083 174.89 32.1922C174.852 32.1762 174.817 32.1526 174.788 32.123C174.76 32.0934 174.737 32.0583 174.722 32.0198C174.707 31.9814 174.7 31.9403 174.701 31.899V29.1771C174.701 29.141 174.716 29.1064 174.741 29.0809C174.767 29.0554 174.801 29.041 174.837 29.041H176.88C176.917 29.0409 176.953 29.055 176.98 29.0803C177.007 29.1056 177.023 29.1402 177.025 29.1771C177.025 29.2156 177.01 29.2525 176.983 29.2798C176.956 29.307 176.919 29.3223 176.88 29.3223H175.909V29.912H177.679C177.738 29.9113 177.796 29.924 177.85 29.9491C177.903 29.9743 177.95 30.0112 177.988 30.0572C178.054 30.1394 178.089 30.2421 178.087 30.3475C178.095 30.464 178.056 30.5788 177.98 30.6671C177.903 30.7553 177.795 30.81 177.679 30.8193H176.726C176.683 30.8141 176.64 30.8198 176.601 30.8356C176.561 30.8515 176.526 30.8771 176.499 30.91C176.445 30.9902 176.423 31.0868 176.435 31.1822V31.9171C176.436 31.9584 176.429 31.9995 176.414 32.038C176.399 32.0765 176.377 32.1115 176.348 32.1412C176.319 32.1708 176.285 32.1943 176.247 32.2104C176.209 32.2264 176.168 32.2347 176.127 32.2347L176.099 32.2165ZM174.956 29.3495V31.9171H176.045V31.2639C176.027 31.0906 176.072 30.9167 176.172 30.774C176.227 30.7111 176.296 30.6614 176.373 30.6285C176.45 30.5955 176.533 30.5801 176.617 30.5834H177.679C177.77 30.5834 177.806 30.4745 177.806 30.402C177.817 30.3664 177.817 30.3286 177.806 30.2931C177.796 30.2787 177.782 30.2671 177.766 30.2592C177.75 30.2513 177.733 30.2473 177.715 30.2477H175.827C175.791 30.2477 175.756 30.2334 175.731 30.2079C175.705 30.1823 175.691 30.1477 175.691 30.1116V29.3767L174.956 29.3495Z" fill="white"/>
<path d="M176.998 24.1948C176.963 24.1911 176.931 24.175 176.907 24.1494C176.894 24.1384 176.883 24.1245 176.875 24.1088C176.868 24.0931 176.864 24.076 176.864 24.0587C176.864 24.0414 176.868 24.0243 176.875 24.0086C176.883 23.9929 176.894 23.979 176.907 23.968L177.206 23.6686C177.218 23.6552 177.231 23.6445 177.247 23.6371C177.263 23.6298 177.28 23.626 177.297 23.626C177.315 23.626 177.332 23.6298 177.347 23.6371C177.363 23.6445 177.377 23.6552 177.388 23.6686C177.413 23.694 177.427 23.7282 177.427 23.7638C177.427 23.7994 177.413 23.8336 177.388 23.8591L177.098 24.1494C177.071 24.177 177.036 24.1933 176.998 24.1948Z" fill="white"/>
<path d="M176.534 24.6483C176.505 24.6595 176.473 24.6595 176.443 24.6483C176.43 24.6364 176.419 24.6217 176.412 24.6053C176.404 24.5889 176.4 24.571 176.4 24.553C176.4 24.535 176.404 24.5172 176.412 24.5008C176.419 24.4843 176.43 24.4697 176.443 24.4578L176.616 24.2854C176.643 24.264 176.677 24.2524 176.711 24.2524C176.746 24.2524 176.779 24.264 176.807 24.2854C176.831 24.3108 176.845 24.345 176.845 24.3806C176.845 24.4163 176.831 24.4505 176.807 24.4759L176.634 24.6483C176.602 24.6609 176.566 24.6609 176.534 24.6483Z" fill="white"/>
<path d="M177.76 25.1025H177.342C177.306 25.1025 177.271 25.0881 177.246 25.0626C177.22 25.0371 177.206 25.0025 177.206 24.9664C177.208 24.9319 177.224 24.8996 177.249 24.876C177.274 24.8524 177.308 24.8393 177.342 24.8394H177.76C177.794 24.8393 177.828 24.8524 177.853 24.876C177.878 24.8996 177.894 24.9319 177.896 24.9664C177.896 25.0025 177.882 25.0371 177.856 25.0626C177.831 25.0881 177.796 25.1025 177.76 25.1025Z" fill="white"/>
<path d="M176.97 25.1025H176.725C176.689 25.1025 176.654 25.0881 176.629 25.0626C176.603 25.0371 176.589 25.0025 176.589 24.9664C176.591 24.9319 176.607 24.8996 176.632 24.876C176.657 24.8524 176.69 24.8393 176.725 24.8394H176.97C177.004 24.8394 177.036 24.8527 177.06 24.8766C177.084 24.9004 177.097 24.9327 177.097 24.9664C177.097 25.001 177.084 25.0343 177.061 25.0595C177.037 25.0848 177.005 25.1002 176.97 25.1025Z" fill="white"/>
<path d="M177.298 26.309C177.269 26.3194 177.237 26.3194 177.208 26.309L176.908 26.0096C176.892 25.9979 176.879 25.983 176.87 25.9659C176.861 25.9488 176.855 25.9298 176.854 25.9104C176.852 25.8909 176.855 25.8714 176.862 25.8532C176.869 25.8349 176.88 25.8183 176.893 25.8045C176.907 25.7907 176.924 25.7801 176.942 25.7732C176.96 25.7664 176.98 25.7636 176.999 25.765C177.019 25.7664 177.038 25.7719 177.055 25.7813C177.072 25.7906 177.087 25.8035 177.099 25.8191L177.389 26.1185C177.414 26.1439 177.428 26.1781 177.428 26.2138C177.428 26.2494 177.414 26.2836 177.389 26.309C177.359 26.3176 177.328 26.3176 177.298 26.309Z" fill="white"/>
<path d="M176.716 25.7191C176.684 25.7317 176.648 25.7317 176.616 25.7191L176.443 25.5467C176.43 25.5348 176.419 25.5201 176.412 25.5037C176.404 25.4873 176.4 25.4695 176.4 25.4515C176.4 25.4334 176.404 25.4156 176.412 25.3992C176.419 25.3828 176.43 25.3681 176.443 25.3562C176.471 25.3348 176.504 25.3232 176.539 25.3232C176.573 25.3232 176.607 25.3348 176.634 25.3562L176.807 25.5286C176.831 25.554 176.845 25.5882 176.845 25.6238C176.845 25.6595 176.831 25.6937 176.807 25.7191C176.777 25.7303 176.745 25.7303 176.716 25.7191Z" fill="white"/>
<path d="M176.09 25.982C176.054 25.982 176.02 25.9677 175.994 25.9422C175.968 25.9167 175.954 25.882 175.954 25.8459V25.6463C175.954 25.6102 175.968 25.5756 175.994 25.5501C176.02 25.5246 176.054 25.5103 176.09 25.5103C176.126 25.5103 176.161 25.5246 176.187 25.5501C176.212 25.5756 176.226 25.6102 176.226 25.6463V25.8913C176.226 25.9274 176.212 25.962 176.187 25.9875C176.161 26.0131 176.126 26.0274 176.09 26.0274" fill="white"/>
<path d="M174.882 26.309C174.852 26.3176 174.821 26.3176 174.791 26.309C174.778 26.2971 174.767 26.2824 174.759 26.266C174.752 26.2496 174.748 26.2318 174.748 26.2138C174.748 26.1957 174.752 26.1779 174.759 26.1615C174.767 26.1451 174.778 26.1304 174.791 26.1185L175.082 25.8191C175.093 25.8035 175.108 25.7906 175.125 25.7813C175.142 25.7719 175.161 25.7664 175.181 25.765C175.2 25.7636 175.22 25.7664 175.238 25.7732C175.256 25.7801 175.273 25.7907 175.287 25.8045C175.301 25.8183 175.311 25.8349 175.318 25.8532C175.325 25.8714 175.328 25.8909 175.326 25.9104C175.325 25.9298 175.319 25.9488 175.31 25.9659C175.301 25.983 175.288 25.9979 175.272 26.0096L174.973 26.309C174.943 26.3176 174.912 26.3176 174.882 26.309Z" fill="white"/>
<path d="M175.464 25.7192C175.435 25.7304 175.402 25.7304 175.373 25.7192C175.36 25.7073 175.349 25.6927 175.341 25.6762C175.334 25.6598 175.33 25.642 175.33 25.624C175.33 25.606 175.334 25.5881 175.341 25.5717C175.349 25.5553 175.36 25.5406 175.373 25.5287L175.546 25.3563C175.572 25.3367 175.604 25.3271 175.637 25.3294C175.67 25.3318 175.7 25.3458 175.724 25.369C175.747 25.3921 175.761 25.4229 175.763 25.4556C175.765 25.4882 175.756 25.5206 175.736 25.5469L175.564 25.7192C175.532 25.7319 175.496 25.7319 175.464 25.7192Z" fill="white"/>
<path d="M174.801 25.1025H174.383C174.347 25.1025 174.313 25.0881 174.287 25.0626C174.261 25.0371 174.247 25.0025 174.247 24.9664C174.249 24.9319 174.265 24.8996 174.29 24.876C174.315 24.8524 174.349 24.8393 174.383 24.8394H174.801C174.835 24.8393 174.869 24.8524 174.894 24.876C174.919 24.8996 174.935 24.9319 174.937 24.9664C174.937 25.0025 174.923 25.0371 174.897 25.0626C174.872 25.0881 174.837 25.1025 174.801 25.1025Z" fill="white"/>
<path d="M175.454 25.1025H175.208C175.172 25.1025 175.138 25.0881 175.112 25.0626C175.087 25.0371 175.072 25.0025 175.072 24.9664C175.075 24.9319 175.09 24.8996 175.115 24.876C175.141 24.8524 175.174 24.8393 175.208 24.8394H175.454C175.488 24.8393 175.521 24.8524 175.547 24.876C175.572 24.8996 175.587 24.9319 175.59 24.9664C175.59 25.0025 175.575 25.0371 175.55 25.0626C175.524 25.0881 175.49 25.1025 175.454 25.1025Z" fill="white"/>
<path d="M175.181 24.1948C175.143 24.1933 175.108 24.177 175.082 24.1494L174.791 23.8591C174.778 23.8472 174.767 23.8325 174.759 23.8161C174.752 23.7997 174.748 23.7818 174.748 23.7638C174.748 23.7458 174.752 23.728 174.759 23.7116C174.767 23.6951 174.778 23.6805 174.791 23.6686C174.802 23.6552 174.816 23.6445 174.832 23.6371C174.847 23.6298 174.865 23.626 174.882 23.626C174.899 23.626 174.916 23.6298 174.932 23.6371C174.948 23.6445 174.962 23.6552 174.973 23.6686L175.272 23.968C175.286 23.979 175.296 23.9929 175.304 24.0086C175.311 24.0243 175.315 24.0414 175.315 24.0587C175.315 24.076 175.311 24.0931 175.304 24.1088C175.296 24.1245 175.286 24.1384 175.272 24.1494C175.248 24.175 175.216 24.1911 175.181 24.1948Z" fill="white"/>
<path d="M175.636 24.6483C175.607 24.6595 175.575 24.6595 175.546 24.6483L175.373 24.4759C175.36 24.464 175.349 24.4493 175.341 24.4329C175.334 24.4165 175.33 24.3987 175.33 24.3806C175.33 24.3626 175.334 24.3448 175.341 24.3284C175.349 24.312 175.36 24.2973 175.373 24.2854C175.4 24.264 175.434 24.2524 175.468 24.2524C175.503 24.2524 175.537 24.264 175.564 24.2854L175.736 24.4578C175.758 24.4849 175.769 24.5185 175.769 24.553C175.769 24.5876 175.758 24.6211 175.736 24.6483C175.704 24.6609 175.668 24.6609 175.636 24.6483Z" fill="white"/>
<path d="M176.09 23.8316C176.056 23.8317 176.022 23.8186 175.997 23.795C175.972 23.7714 175.956 23.7391 175.954 23.7046V23.2782C175.954 23.2421 175.968 23.2075 175.994 23.1819C176.02 23.1564 176.054 23.1421 176.09 23.1421C176.126 23.1421 176.161 23.1564 176.187 23.1819C176.212 23.2075 176.226 23.2421 176.226 23.2782V23.7046C176.224 23.7391 176.209 23.7714 176.183 23.795C176.158 23.8186 176.125 23.8317 176.09 23.8316Z" fill="white"/>
<path d="M176.09 24.4673C176.054 24.4673 176.02 24.453 175.994 24.4275C175.968 24.402 175.954 24.3674 175.954 24.3313V24.0863C175.954 24.0502 175.968 24.0156 175.994 23.9901C176.02 23.9645 176.054 23.9502 176.09 23.9502C176.126 23.9502 176.161 23.9645 176.187 23.9901C176.212 24.0156 176.226 24.0502 176.226 24.0863V24.3313C176.226 24.3674 176.212 24.402 176.187 24.4275C176.161 24.453 176.126 24.4673 176.09 24.4673Z" fill="white"/>
<path d="M176.09 26.8077C176.054 26.8077 176.02 26.7934 175.994 26.7678C175.968 26.7423 175.954 26.7077 175.954 26.6716V26.2543C175.954 26.2182 175.968 26.1835 175.994 26.158C176.02 26.1325 176.054 26.1182 176.09 26.1182C176.126 26.1182 176.161 26.1325 176.187 26.158C176.212 26.1835 176.226 26.2182 176.226 26.2543V26.6716C176.226 26.7077 176.212 26.7423 176.187 26.7678C176.161 26.7934 176.126 26.8077 176.09 26.8077Z" fill="white"/>
<path d="M143.536 25.1743C143.506 25.1829 143.475 25.1829 143.445 25.1743C143.34 25.0734 143.2 25.017 143.055 25.017C142.909 25.017 142.769 25.0734 142.664 25.1743C142.641 25.196 142.61 25.208 142.578 25.208C142.546 25.208 142.515 25.196 142.492 25.1743C142.478 25.1632 142.468 25.1494 142.46 25.1337C142.453 25.118 142.449 25.1009 142.449 25.0836C142.449 25.0663 142.453 25.0492 142.46 25.0335C142.468 25.0178 142.478 25.0039 142.492 24.9929C142.643 24.8438 142.847 24.7603 143.059 24.7603C143.272 24.7603 143.475 24.8438 143.627 24.9929C143.649 25.0178 143.661 25.0501 143.661 25.0836C143.661 25.1171 143.649 25.1494 143.627 25.1743C143.597 25.1829 143.565 25.1829 143.536 25.1743Z" fill="white"/>
<path d="M141.911 24.6393C141.881 24.6505 141.849 24.6505 141.82 24.6393C141.797 24.6143 141.785 24.582 141.785 24.5486C141.785 24.5151 141.797 24.4828 141.82 24.4578C142.149 24.1331 142.592 23.9506 143.054 23.9497C143.284 23.9482 143.511 23.9923 143.723 24.0796C143.935 24.1668 144.127 24.2954 144.289 24.4578C144.302 24.4689 144.313 24.4828 144.32 24.4985C144.328 24.5141 144.332 24.5312 144.332 24.5486C144.332 24.5659 144.328 24.583 144.32 24.5987C144.313 24.6143 144.302 24.6282 144.289 24.6393C144.266 24.661 144.235 24.673 144.203 24.673C144.171 24.673 144.14 24.661 144.117 24.6393C143.833 24.3606 143.452 24.2042 143.054 24.2038C142.859 24.2032 142.665 24.2414 142.484 24.3161C142.303 24.3909 142.139 24.5007 142.001 24.6393C141.987 24.6453 141.972 24.6484 141.956 24.6484C141.94 24.6484 141.925 24.6453 141.911 24.6393Z" fill="white"/>
<path d="M141.248 24.1039C141.234 24.1099 141.219 24.1129 141.203 24.1129C141.188 24.1129 141.172 24.1099 141.158 24.1039C141.135 24.0789 141.123 24.0466 141.123 24.0131C141.123 23.9797 141.135 23.9474 141.158 23.9224C141.407 23.6733 141.702 23.476 142.028 23.3421C142.354 23.2081 142.703 23.1402 143.055 23.1421C143.768 23.1427 144.453 23.4229 144.961 23.9224C144.984 23.9474 144.996 23.9797 144.996 24.0131C144.996 24.0466 144.984 24.0789 144.961 24.1039C144.95 24.1172 144.936 24.1279 144.921 24.1353C144.905 24.1426 144.888 24.1464 144.871 24.1464C144.853 24.1464 144.836 24.1426 144.821 24.1353C144.805 24.1279 144.791 24.1172 144.78 24.1039C144.554 23.8771 144.285 23.6977 143.989 23.5762C143.693 23.4547 143.375 23.3935 143.055 23.3962C142.736 23.3937 142.42 23.455 142.126 23.5765C141.831 23.6981 141.564 23.8774 141.339 24.1039C141.31 24.115 141.278 24.115 141.248 24.1039Z" fill="white"/>
<path d="M143.055 26.2542C143.021 26.2542 142.989 26.2408 142.965 26.217C142.941 26.1931 142.928 26.1608 142.928 26.1271V25.7642C142.928 25.7305 142.941 25.6982 142.965 25.6744C142.989 25.6506 143.021 25.6372 143.055 25.6372C143.089 25.6372 143.121 25.6506 143.145 25.6744C143.168 25.6982 143.182 25.7305 143.182 25.7642V26.1271C143.182 26.1608 143.168 26.1931 143.145 26.217C143.121 26.2408 143.089 26.2542 143.055 26.2542Z" fill="white"/>
<path d="M144.383 35.9269C144.361 35.9373 144.338 35.9428 144.314 35.9428C144.291 35.9428 144.267 35.9373 144.246 35.9269C144.133 35.7613 143.992 35.6169 143.829 35.5005C143.815 35.4878 143.804 35.4723 143.797 35.4552C143.789 35.438 143.785 35.4194 143.785 35.4007C143.785 35.382 143.789 35.3634 143.797 35.3463C143.804 35.3291 143.815 35.3136 143.829 35.3009C143.857 35.2748 143.894 35.2603 143.933 35.2603C143.972 35.2603 144.009 35.2748 144.038 35.3009C144.239 35.4357 144.409 35.612 144.537 35.8181C144.552 35.8397 144.56 35.865 144.562 35.8912C144.563 35.9173 144.558 35.9434 144.546 35.9667C144.533 35.99 144.515 36.0095 144.493 36.0233C144.471 36.037 144.445 36.0445 144.419 36.0449" fill="white"/>
<path d="M142.967 38.5764C142.843 38.5892 142.719 38.5892 142.595 38.5764C142.358 38.5306 142.133 38.438 141.932 38.3042C141.733 38.1668 141.563 37.991 141.433 37.7871C141.299 37.5866 141.206 37.3614 141.161 37.1247C141.111 36.8884 141.111 36.6443 141.161 36.408C141.209 36.1722 141.302 35.9475 141.433 35.7456C141.57 35.5465 141.746 35.3768 141.95 35.2466C142.151 35.1128 142.376 35.0203 142.613 34.9744C142.85 34.9291 143.093 34.9291 143.33 34.9744C143.37 34.9831 143.404 35.0071 143.426 35.041C143.448 35.075 143.456 35.1162 143.448 35.1559C143.444 35.1753 143.436 35.1936 143.424 35.2097C143.413 35.2258 143.398 35.2394 143.381 35.2496C143.364 35.2598 143.345 35.2664 143.325 35.269C143.306 35.2716 143.286 35.2702 143.267 35.2648C143.069 35.2285 142.866 35.2285 142.668 35.2648C142.47 35.3038 142.282 35.3808 142.114 35.4916C141.943 35.6014 141.795 35.7449 141.681 35.9134C141.568 36.0818 141.489 36.2717 141.451 36.4715C141.407 36.6683 141.404 36.8719 141.442 37.07C141.479 37.268 141.556 37.4564 141.669 37.6237C141.782 37.7945 141.927 37.9423 142.096 38.0593C142.437 38.2799 142.848 38.3641 143.249 38.2951C143.449 38.2583 143.64 38.1815 143.81 38.0692C143.98 37.957 144.125 37.8117 144.238 37.6419C144.353 37.4752 144.433 37.2869 144.474 37.0884C144.515 36.8909 144.515 36.6871 144.474 36.4896C144.47 36.4705 144.47 36.4509 144.474 36.4317C144.478 36.4126 144.485 36.3945 144.496 36.3784C144.507 36.3623 144.522 36.3486 144.538 36.3381C144.554 36.3276 144.573 36.3205 144.592 36.3172C144.611 36.3133 144.631 36.3133 144.65 36.3171C144.669 36.321 144.687 36.3286 144.703 36.3396C144.719 36.3506 144.733 36.3648 144.744 36.3812C144.754 36.3976 144.761 36.416 144.765 36.4352C144.81 36.672 144.81 36.9152 144.765 37.152C144.713 37.3883 144.617 37.6129 144.483 37.8143C144.347 38.0112 144.174 38.1805 143.975 38.3133C143.771 38.4482 143.543 38.5408 143.303 38.5855C143.188 38.5949 143.073 38.5949 142.958 38.5855" fill="white"/>
<path d="M143.812 36.8978H142.968C142.929 36.8978 142.892 36.8825 142.865 36.8553C142.838 36.8281 142.822 36.7911 142.822 36.7526V35.7365C142.822 35.698 142.838 35.661 142.865 35.6338C142.892 35.6066 142.929 35.5913 142.968 35.5913C143.007 35.5912 143.045 35.6062 143.074 35.6332C143.102 35.6602 143.12 35.6972 143.122 35.7365V36.6438H143.812C143.851 36.6461 143.888 36.6634 143.915 36.692C143.942 36.7207 143.957 36.7586 143.957 36.798C143.957 36.8365 143.942 36.8734 143.914 36.9007C143.887 36.9279 143.85 36.9432 143.812 36.9432" fill="white"/>
<path d="M162.95 30.7453L162.405 30.2554H157.821L157.276 30.7453L157.821 31.2262H162.405L162.95 30.7453Z" fill="white"/>
<path d="M162.688 23.5957H157.531L156.551 24.5756H157.531H158.484H162.379L163.114 24.0131L162.688 23.5957Z" fill="white"/>
<path d="M162.688 37.8949H157.531L156.551 36.915H162.379L163.114 37.4685L162.688 37.8949Z" fill="white"/>
<path d="M156.559 25.1021V30.4823H156.776L157.53 29.8109V25.1021H156.559Z" fill="white"/>
<path d="M156.559 36.389V31.0088H156.776L157.53 31.6802V36.389H156.559Z" fill="white"/>
<path d="M163.483 24.3945L162.685 25.0024V29.8111L163.438 30.4825H163.665V24.576L163.483 24.3945Z" fill="white"/>
<path d="M163.483 37.0877L162.685 36.4889V31.6711L163.438 31.0088H163.665V36.9153L163.483 37.0877Z" fill="white"/>
<path d="M153.422 30.7453L152.877 30.2554H148.293L147.748 30.7453L148.293 31.2262H152.877L153.422 30.7453Z" fill="white"/>
<path d="M153.158 23.5957H148.002L147.021 24.5756H148.002H148.955H152.85L153.585 24.0131L153.158 23.5957Z" fill="white"/>
<path d="M153.158 37.8949H148.002L147.021 36.915H152.85L153.585 37.4685L153.158 37.8949Z" fill="white"/>
<path d="M147.029 25.1021V30.4823H147.247L148.001 29.8109V25.1021H147.029Z" fill="white"/>
<path d="M147.029 36.389V31.0088H147.247L148.001 31.6802V36.389H147.029Z" fill="white"/>
<path d="M153.955 24.3945L153.156 25.0024V29.8111L153.91 30.4825H154.137V24.576L153.955 24.3945Z" fill="white"/>
<path d="M153.955 37.0877L153.156 36.4889V31.6711L153.91 31.0088H154.137V36.9153L153.955 37.0877Z" fill="white"/>
<path d="M171.937 30.7453L171.393 30.2554H166.808L166.264 30.7453L166.808 31.2262H171.393L171.937 30.7453Z" fill="white"/>
<path d="M171.683 23.6045H166.517C166.136 23.9765 165.546 24.5753 165.546 24.5753H171.365L172.1 24.0219L171.683 23.6045Z" fill="white"/>
<path d="M171.683 37.8858H166.517L165.546 36.915H166.526H167.47H171.374L172.1 37.4685L171.683 37.8858Z" fill="white"/>
<path d="M165.546 25.1021V30.4823H165.764L166.517 29.8109L166.526 25.1021H165.546Z" fill="white"/>
<path d="M165.546 36.389V31.0088H165.764L166.517 31.6802L166.526 36.389H165.546Z" fill="white"/>
<path d="M172.481 24.3945L171.682 25.0024V29.8111L172.426 30.4825H172.653V24.576L172.481 24.3945Z" fill="white"/>
<path d="M172.481 37.0877L171.682 36.4889V31.6711L172.426 31.0088H172.653V36.9153L172.481 37.0877Z" fill="white"/>
<path fill-rule="evenodd" clip-rule="evenodd" d="M199.354 33.8775C201.692 33.8775 203.588 31.9822 203.588 29.6442C203.588 27.3061 201.692 25.4108 199.354 25.4108C197.016 25.4108 195.121 27.3061 195.121 29.6442C195.121 31.9822 197.016 33.8775 199.354 33.8775ZM199.354 34.3313C201.943 34.3313 204.041 32.2328 204.041 29.6442C204.041 27.0555 201.943 24.957 199.354 24.957C196.765 24.957 194.667 27.0555 194.667 29.6442C194.667 32.2328 196.765 34.3313 199.354 34.3313Z" fill="white"/>
<path d="M201.02 21.1004C201.02 21.9775 200.309 22.6886 199.432 22.6886C198.555 22.6886 197.844 21.9775 197.844 21.1004C197.844 20.2233 198.555 19.5122 199.432 19.5122C200.309 19.5122 201.02 20.2233 201.02 21.1004Z" fill="white"/>
<path fill-rule="evenodd" clip-rule="evenodd" d="M199.432 22.2348C200.058 22.2348 200.566 21.7269 200.566 21.1004C200.566 20.4739 200.058 19.966 199.432 19.966C198.805 19.966 198.298 20.4739 198.298 21.1004C198.298 21.7269 198.805 22.2348 199.432 22.2348ZM199.432 22.6886C200.309 22.6886 201.02 21.9775 201.02 21.1004C201.02 20.2233 200.309 19.5122 199.432 19.5122C198.555 19.5122 197.844 20.2233 197.844 21.1004C197.844 21.9775 198.555 22.6886 199.432 22.6886Z" fill="white"/>
<path fill-rule="evenodd" clip-rule="evenodd" d="M199.354 58.381C201.692 58.381 203.588 56.4856 203.588 54.1476C203.588 51.8096 201.692 49.9142 199.354 49.9142C197.016 49.9142 195.121 51.8096 195.121 54.1476C195.121 56.4856 197.016 58.381 199.354 58.381ZM199.354 58.8347C201.943 58.8347 204.041 56.7362 204.041 54.1476C204.041 51.559 201.943 49.4604 199.354 49.4604C196.765 49.4604 194.667 51.559 194.667 54.1476C194.667 56.7362 196.765 58.8347 199.354 58.8347Z" fill="white"/>
<path d="M201.02 45.6038C201.02 46.481 200.309 47.192 199.432 47.192C198.555 47.192 197.844 46.481 197.844 45.6038C197.844 44.7267 198.555 44.0156 199.432 44.0156C200.309 44.0156 201.02 44.7267 201.02 45.6038Z" fill="white"/>
<path fill-rule="evenodd" clip-rule="evenodd" d="M199.432 46.7382C200.058 46.7382 200.566 46.2303 200.566 45.6038C200.566 44.9773 200.058 44.4694 199.432 44.4694C198.805 44.4694 198.298 44.9773 198.298 45.6038C198.298 46.2303 198.805 46.7382 199.432 46.7382ZM199.432 47.192C200.309 47.192 201.02 46.481 201.02 45.6038C201.02 44.7267 200.309 44.0156 199.432 44.0156C198.555 44.0156 197.844 44.7267 197.844 45.6038C197.844 46.481 198.555 47.192 199.432 47.192Z" fill="white"/>
<path fill-rule="evenodd" clip-rule="evenodd" d="M222.043 58.381C224.381 58.381 226.276 56.4856 226.276 54.1476C226.276 51.8096 224.381 49.9142 222.043 49.9142C219.705 49.9142 217.809 51.8096 217.809 54.1476C217.809 56.4856 219.705 58.381 222.043 58.381ZM222.043 58.8347C224.631 58.8347 226.73 56.7362 226.73 54.1476C226.73 51.559 224.631 49.4604 222.043 49.4604C219.454 49.4604 217.355 51.559 217.355 54.1476C217.355 56.7362 219.454 58.8347 222.043 58.8347Z" fill="white"/>
<path d="M223.709 45.6038C223.709 46.481 222.998 47.192 222.12 47.192C221.243 47.192 220.532 46.481 220.532 45.6038C220.532 44.7267 221.243 44.0156 222.12 44.0156C222.998 44.0156 223.709 44.7267 223.709 45.6038Z" fill="white"/>
<path fill-rule="evenodd" clip-rule="evenodd" d="M222.12 46.7382C222.747 46.7382 223.255 46.2303 223.255 45.6038C223.255 44.9773 222.747 44.4694 222.12 44.4694C221.494 44.4694 220.986 44.9773 220.986 45.6038C220.986 46.2303 221.494 46.7382 222.12 46.7382ZM222.12 47.192C222.998 47.192 223.709 46.481 223.709 45.6038C223.709 44.7267 222.998 44.0156 222.12 44.0156C221.243 44.0156 220.532 44.7267 220.532 45.6038C220.532 46.481 221.243 47.192 222.12 47.192Z" fill="white"/>
<path d="M223.255 21.1004C223.255 21.9775 222.544 22.6886 221.667 22.6886C220.79 22.6886 220.079 21.9775 220.079 21.1004C220.079 20.2233 220.79 19.5122 221.667 19.5122C222.544 19.5122 223.255 20.2233 223.255 21.1004Z" fill="white"/>
<path fill-rule="evenodd" clip-rule="evenodd" d="M221.667 22.2348C222.294 22.2348 222.802 21.7269 222.802 21.1004C222.802 20.4739 222.294 19.966 221.667 19.966C221.041 19.966 220.533 20.4739 220.533 21.1004C220.533 21.7269 221.041 22.2348 221.667 22.2348ZM221.667 22.6886C222.544 22.6886 223.255 21.9775 223.255 21.1004C223.255 20.2233 222.544 19.5122 221.667 19.5122C220.79 19.5122 220.079 20.2233 220.079 21.1004C220.079 21.9775 220.79 22.6886 221.667 22.6886Z" fill="white"/>
<path d="M245.489 21.1004C245.489 21.9775 244.778 22.6886 243.901 22.6886C243.024 22.6886 242.312 21.9775 242.312 21.1004C242.312 20.2233 243.024 19.5122 243.901 19.5122C244.778 19.5122 245.489 20.2233 245.489 21.1004Z" fill="white"/>
<path fill-rule="evenodd" clip-rule="evenodd" d="M243.901 22.2348C244.527 22.2348 245.035 21.7269 245.035 21.1004C245.035 20.4739 244.527 19.966 243.901 19.966C243.274 19.966 242.766 20.4739 242.766 21.1004C242.766 21.7269 243.274 22.2348 243.901 22.2348ZM243.901 22.6886C244.778 22.6886 245.489 21.9775 245.489 21.1004C245.489 20.2233 244.778 19.5122 243.901 19.5122C243.024 19.5122 242.312 20.2233 242.312 21.1004C242.312 21.9775 243.024 22.6886 243.901 22.6886Z" fill="white"/>
<path fill-rule="evenodd" clip-rule="evenodd" d="M222.043 33.8775C224.381 33.8775 226.276 31.9822 226.276 29.6442C226.276 27.3061 224.381 25.4108 222.043 25.4108C219.705 25.4108 217.809 27.3061 217.809 29.6442C217.809 31.9822 219.705 33.8775 222.043 33.8775ZM222.043 34.3313C224.631 34.3313 226.73 32.2328 226.73 29.6442C226.73 27.0555 224.631 24.957 222.043 24.957C219.454 24.957 217.355 27.0555 217.355 29.6442C217.355 32.2328 219.454 34.3313 222.043 34.3313Z" fill="white"/>
<path fill-rule="evenodd" clip-rule="evenodd" d="M244.277 33.8775C246.615 33.8775 248.51 31.9822 248.51 29.6442C248.51 27.3061 246.615 25.4108 244.277 25.4108C241.939 25.4108 240.044 27.3061 240.044 29.6442C240.044 31.9822 241.939 33.8775 244.277 33.8775ZM244.277 34.3313C246.866 34.3313 248.964 32.2328 248.964 29.6442C248.964 27.0555 246.866 24.957 244.277 24.957C241.688 24.957 239.59 27.0555 239.59 29.6442C239.59 32.2328 241.688 34.3313 244.277 34.3313Z" fill="white"/>
<path fill-rule="evenodd" clip-rule="evenodd" d="M75.9293 33.8775C78.2674 33.8775 80.1627 31.9822 80.1627 29.6442C80.1627 27.3061 78.2674 25.4108 75.9293 25.4108C73.5913 25.4108 71.696 27.3061 71.696 29.6442C71.696 31.9822 73.5913 33.8775 75.9293 33.8775ZM75.9293 34.3313C78.518 34.3313 80.6165 32.2328 80.6165 29.6442C80.6165 27.0555 78.518 24.957 75.9293 24.957C73.3407 24.957 71.2422 27.0555 71.2422 29.6442C71.2422 32.2328 73.3407 34.3313 75.9293 34.3313Z" fill="white"/>
<path d="M77.5944 21.1004C77.5944 21.9775 76.8833 22.6886 76.0062 22.6886C75.129 22.6886 74.418 21.9775 74.418 21.1004C74.418 20.2233 75.129 19.5122 76.0062 19.5122C76.8833 19.5122 77.5944 20.2233 77.5944 21.1004Z" fill="white"/>
<path fill-rule="evenodd" clip-rule="evenodd" d="M76.0062 22.2348C76.6327 22.2348 77.1406 21.7269 77.1406 21.1004C77.1406 20.4739 76.6327 19.966 76.0062 19.966C75.3796 19.966 74.8717 20.4739 74.8717 21.1004C74.8717 21.7269 75.3796 22.2348 76.0062 22.2348ZM76.0062 22.6886C76.8833 22.6886 77.5944 21.9775 77.5944 21.1004C77.5944 20.2233 76.8833 19.5122 76.0062 19.5122C75.129 19.5122 74.418 20.2233 74.418 21.1004C74.418 21.9775 75.129 22.6886 76.0062 22.6886Z" fill="white"/>
<path fill-rule="evenodd" clip-rule="evenodd" d="M98.1637 58.381C100.502 58.381 102.397 56.4856 102.397 54.1476C102.397 51.8096 100.502 49.9142 98.1637 49.9142C95.8257 49.9142 93.9303 51.8096 93.9303 54.1476C93.9303 56.4856 95.8257 58.381 98.1637 58.381ZM98.1637 58.8347C100.752 58.8347 102.851 56.7362 102.851 54.1476C102.851 51.559 100.752 49.4604 98.1637 49.4604C95.5751 49.4604 93.4766 51.559 93.4766 54.1476C93.4766 56.7362 95.5751 58.8347 98.1637 58.8347Z" fill="white"/>
<path d="M99.8287 45.6038C99.8287 46.481 99.1177 47.192 98.2405 47.192C97.3634 47.192 96.6523 46.481 96.6523 45.6038C96.6523 44.7267 97.3634 44.0156 98.2405 44.0156C99.1177 44.0156 99.8287 44.7267 99.8287 45.6038Z" fill="white"/>
<path fill-rule="evenodd" clip-rule="evenodd" d="M98.2405 46.7382C98.8671 46.7382 99.375 46.2303 99.375 45.6038C99.375 44.9773 98.8671 44.4694 98.2405 44.4694C97.614 44.4694 97.1061 44.9773 97.1061 45.6038C97.1061 46.2303 97.614 46.7382 98.2405 46.7382ZM98.2405 47.192C99.1177 47.192 99.8287 46.481 99.8287 45.6038C99.8287 44.7267 99.1177 44.0156 98.2405 44.0156C97.3634 44.0156 96.6523 44.7267 96.6523 45.6038C96.6523 46.481 97.3634 47.192 98.2405 47.192Z" fill="white"/>
<path fill-rule="evenodd" clip-rule="evenodd" d="M120.852 58.381C123.19 58.381 125.086 56.4856 125.086 54.1476C125.086 51.8096 123.19 49.9142 120.852 49.9142C118.514 49.9142 116.619 51.8096 116.619 54.1476C116.619 56.4856 118.514 58.381 120.852 58.381ZM120.852 58.8347C123.441 58.8347 125.539 56.7362 125.539 54.1476C125.539 51.559 123.441 49.4604 120.852 49.4604C118.264 49.4604 116.165 51.559 116.165 54.1476C116.165 56.7362 118.264 58.8347 120.852 58.8347Z" fill="white"/>
<path d="M122.518 45.6038C122.518 46.481 121.807 47.192 120.93 47.192C120.053 47.192 119.342 46.481 119.342 45.6038C119.342 44.7267 120.053 44.0156 120.93 44.0156C121.807 44.0156 122.518 44.7267 122.518 45.6038Z" fill="white"/>
<path fill-rule="evenodd" clip-rule="evenodd" d="M120.93 46.7382C121.557 46.7382 122.064 46.2303 122.064 45.6038C122.064 44.9773 121.557 44.4694 120.93 44.4694C120.303 44.4694 119.796 44.9773 119.796 45.6038C119.796 46.2303 120.303 46.7382 120.93 46.7382ZM120.93 47.192C121.807 47.192 122.518 46.481 122.518 45.6038C122.518 44.7267 121.807 44.0156 120.93 44.0156C120.053 44.0156 119.342 44.7267 119.342 45.6038C119.342 46.481 120.053 47.192 120.93 47.192Z" fill="white"/>
<path fill-rule="evenodd" clip-rule="evenodd" d="M144.28 56.2673C145.774 56.2673 146.984 55.0569 146.984 53.5637C146.984 52.0705 145.774 50.86 144.28 50.86C142.787 50.86 141.577 52.0705 141.577 53.5637C141.577 55.0569 142.787 56.2673 144.28 56.2673ZM144.28 56.7211C146.024 56.7211 147.438 55.3075 147.438 53.5637C147.438 51.8199 146.024 50.4062 144.28 50.4062C142.537 50.4062 141.123 51.8199 141.123 53.5637C141.123 55.3075 142.537 56.7211 144.28 56.7211Z" fill="white"/>
<path d="M145.401 47.8081C145.401 48.399 144.922 48.878 144.332 48.878C143.741 48.878 143.262 48.399 143.262 47.8081C143.262 47.2173 143.741 46.7383 144.332 46.7383C144.922 46.7383 145.401 47.2173 145.401 47.8081Z" fill="white"/>
<path fill-rule="evenodd" clip-rule="evenodd" d="M144.332 48.4242C144.672 48.4242 144.948 48.1484 144.948 47.8081C144.948 47.4679 144.672 47.1921 144.332 47.1921C143.991 47.1921 143.715 47.4679 143.715 47.8081C143.715 48.1484 143.991 48.4242 144.332 48.4242ZM144.332 48.878C144.922 48.878 145.401 48.399 145.401 47.8081C145.401 47.2173 144.922 46.7383 144.332 46.7383C143.741 46.7383 143.262 47.2173 143.262 47.8081C143.262 48.399 143.741 48.878 144.332 48.878Z" fill="white"/>
<path fill-rule="evenodd" clip-rule="evenodd" d="M160.161 56.2673C161.655 56.2673 162.865 55.0569 162.865 53.5637C162.865 52.0705 161.655 50.86 160.161 50.86C158.668 50.86 157.458 52.0705 157.458 53.5637C157.458 55.0569 158.668 56.2673 160.161 56.2673ZM160.161 56.7211C161.905 56.7211 163.319 55.3075 163.319 53.5637C163.319 51.8199 161.905 50.4062 160.161 50.4062C158.418 50.4062 157.004 51.8199 157.004 53.5637C157.004 55.3075 158.418 56.7211 160.161 56.7211Z" fill="white"/>
<path d="M161.283 47.8081C161.283 48.399 160.804 48.878 160.213 48.878C159.623 48.878 159.144 48.399 159.144 47.8081C159.144 47.2173 159.623 46.7383 160.213 46.7383C160.804 46.7383 161.283 47.2173 161.283 47.8081Z" fill="white"/>
<path fill-rule="evenodd" clip-rule="evenodd" d="M160.213 48.4242C160.554 48.4242 160.83 48.1484 160.83 47.8081C160.83 47.4679 160.554 47.1921 160.213 47.1921C159.873 47.1921 159.597 47.4679 159.597 47.8081C159.597 48.1484 159.873 48.4242 160.213 48.4242ZM160.213 48.878C160.804 48.878 161.283 48.399 161.283 47.8081C161.283 47.2173 160.804 46.7383 160.213 46.7383C159.623 46.7383 159.144 47.2173 159.144 47.8081C159.144 48.399 159.623 48.878 160.213 48.878Z" fill="white"/>
<path fill-rule="evenodd" clip-rule="evenodd" d="M175.136 56.2673C176.629 56.2673 177.84 55.0569 177.84 53.5637C177.84 52.0705 176.629 50.86 175.136 50.86C173.643 50.86 172.432 52.0705 172.432 53.5637C172.432 55.0569 173.643 56.2673 175.136 56.2673ZM175.136 56.7211C176.88 56.7211 178.293 55.3075 178.293 53.5637C178.293 51.8199 176.88 50.4062 175.136 50.4062C173.392 50.4062 171.979 51.8199 171.979 53.5637C171.979 55.3075 173.392 56.7211 175.136 56.7211Z" fill="white"/>
<path d="M176.258 47.8081C176.258 48.399 175.779 48.878 175.188 48.878C174.597 48.878 174.118 48.399 174.118 47.8081C174.118 47.2173 174.597 46.7383 175.188 46.7383C175.779 46.7383 176.258 47.2173 176.258 47.8081Z" fill="white"/>
<path fill-rule="evenodd" clip-rule="evenodd" d="M175.188 48.4242C175.528 48.4242 175.804 48.1484 175.804 47.8081C175.804 47.4679 175.528 47.1921 175.188 47.1921C174.848 47.1921 174.572 47.4679 174.572 47.8081C174.572 48.1484 174.848 48.4242 175.188 48.4242ZM175.188 48.878C175.779 48.878 176.258 48.399 176.258 47.8081C176.258 47.2173 175.779 46.7383 175.188 46.7383C174.597 46.7383 174.118 47.2173 174.118 47.8081C174.118 48.399 174.597 48.878 175.188 48.878Z" fill="white"/>
<path d="M99.8287 21.1004C99.8287 21.9775 99.1177 22.6886 98.2405 22.6886C97.3634 22.6886 96.6523 21.9775 96.6523 21.1004C96.6523 20.2233 97.3634 19.5122 98.2405 19.5122C99.1177 19.5122 99.8287 20.2233 99.8287 21.1004Z" fill="white"/>
<path fill-rule="evenodd" clip-rule="evenodd" d="M98.2405 22.2348C98.8671 22.2348 99.375 21.7269 99.375 21.1004C99.375 20.4739 98.8671 19.966 98.2405 19.966C97.614 19.966 97.1061 20.4739 97.1061 21.1004C97.1061 21.7269 97.614 22.2348 98.2405 22.2348ZM98.2405 22.6886C99.1177 22.6886 99.8287 21.9775 99.8287 21.1004C99.8287 20.2233 99.1177 19.5122 98.2405 19.5122C97.3634 19.5122 96.6523 20.2233 96.6523 21.1004C96.6523 21.9775 97.3634 22.6886 98.2405 22.6886Z" fill="white"/>
<path d="M122.064 21.1004C122.064 21.9775 121.353 22.6886 120.476 22.6886C119.599 22.6886 118.888 21.9775 118.888 21.1004C118.888 20.2233 119.599 19.5122 120.476 19.5122C121.353 19.5122 122.064 20.2233 122.064 21.1004Z" fill="white"/>
<path fill-rule="evenodd" clip-rule="evenodd" d="M120.476 22.2348C121.102 22.2348 121.61 21.7269 121.61 21.1004C121.61 20.4739 121.102 19.966 120.476 19.966C119.849 19.966 119.341 20.4739 119.341 21.1004C119.341 21.7269 119.849 22.2348 120.476 22.2348ZM120.476 22.6886C121.353 22.6886 122.064 21.9775 122.064 21.1004C122.064 20.2233 121.353 19.5122 120.476 19.5122C119.599 19.5122 118.888 20.2233 118.888 21.1004C118.888 21.9775 119.599 22.6886 120.476 22.6886Z" fill="white"/>
<path fill-rule="evenodd" clip-rule="evenodd" d="M98.6168 33.8775C100.955 33.8775 102.85 31.9822 102.85 29.6442C102.85 27.3061 100.955 25.4108 98.6168 25.4108C96.2788 25.4108 94.3835 27.3061 94.3835 29.6442C94.3835 31.9822 96.2788 33.8775 98.6168 33.8775ZM98.6168 34.3313C101.205 34.3313 103.304 32.2328 103.304 29.6442C103.304 27.0555 101.205 24.957 98.6168 24.957C96.0282 24.957 93.9297 27.0555 93.9297 29.6442C93.9297 32.2328 96.0282 34.3313 98.6168 34.3313Z" fill="white"/>
<path fill-rule="evenodd" clip-rule="evenodd" d="M120.852 33.8775C123.19 33.8775 125.086 31.9822 125.086 29.6442C125.086 27.3061 123.19 25.4108 120.852 25.4108C118.514 25.4108 116.619 27.3061 116.619 29.6442C116.619 31.9822 118.514 33.8775 120.852 33.8775ZM120.852 34.3313C123.441 34.3313 125.539 32.2328 125.539 29.6442C125.539 27.0555 123.441 24.957 120.852 24.957C118.264 24.957 116.165 27.0555 116.165 29.6442C116.165 32.2328 118.264 34.3313 120.852 34.3313Z" fill="white"/>
<path fill-rule="evenodd" clip-rule="evenodd" d="M296.538 35.394C300.924 35.394 304.479 31.8387 304.479 27.453C304.479 23.0673 300.924 19.512 296.538 19.512C292.152 19.512 288.597 23.0673 288.597 27.453C288.597 31.8387 292.152 35.394 296.538 35.394ZM296.538 36.3015C301.425 36.3015 305.386 32.3399 305.386 27.453C305.386 22.5661 301.425 18.6045 296.538 18.6045C291.651 18.6045 287.689 22.5661 287.689 27.453C287.689 32.3399 291.651 36.3015 296.538 36.3015Z" fill="white"/>
<path fill-rule="evenodd" clip-rule="evenodd" d="M269.766 51.2758C273.4 51.2758 276.346 48.33 276.346 44.6962C276.346 41.0623 273.4 38.1165 269.766 38.1165C266.133 38.1165 263.187 41.0623 263.187 44.6962C263.187 48.33 266.133 51.2758 269.766 51.2758ZM269.766 52.1834C273.902 52.1834 277.254 48.8312 277.254 44.6962C277.254 40.5611 273.902 37.209 269.766 37.209C265.631 37.209 262.279 40.5611 262.279 44.6962C262.279 48.8312 265.631 52.1834 269.766 52.1834Z" fill="white"/>
<path fill-rule="evenodd" clip-rule="evenodd" d="M269.766 34.0327C273.4 34.0327 276.346 31.0869 276.346 27.453C276.346 23.8192 273.4 20.8734 269.766 20.8734C266.133 20.8734 263.187 23.8192 263.187 27.453C263.187 31.0869 266.133 34.0327 269.766 34.0327ZM269.766 34.9402C273.902 34.9402 277.254 31.5881 277.254 27.453C277.254 23.318 273.902 19.9658 269.766 19.9658C265.631 19.9658 262.279 23.318 262.279 27.453C262.279 31.5881 265.631 34.9402 269.766 34.9402Z" fill="white"/>
<path fill-rule="evenodd" clip-rule="evenodd" d="M22.9146 35.3943C27.5509 35.3943 31.3093 31.6358 31.3093 26.9995C31.3093 22.3633 27.5509 18.6048 22.9146 18.6048C18.2783 18.6048 14.5198 22.3633 14.5198 26.9995C14.5198 31.6358 18.2783 35.3943 22.9146 35.3943ZM22.9146 36.3018C28.0521 36.3018 32.2169 32.137 32.2169 26.9995C32.2169 21.862 28.0521 17.6973 22.9146 17.6973C17.7771 17.6973 13.6123 21.862 13.6123 26.9995C13.6123 32.137 17.7771 36.3018 22.9146 36.3018Z" fill="white"/>
<path fill-rule="evenodd" clip-rule="evenodd" d="M49.6877 33.5788C53.071 33.5788 55.8136 30.8361 55.8136 27.4529C55.8136 24.0696 53.071 21.327 49.6877 21.327C46.3045 21.327 43.5618 24.0696 43.5618 27.4529C43.5618 30.8361 46.3045 33.5788 49.6877 33.5788ZM49.6877 34.4863C53.5722 34.4863 56.7212 31.3373 56.7212 27.4529C56.7212 23.5684 53.5722 20.4194 49.6877 20.4194C45.8033 20.4194 42.6543 23.5684 42.6543 27.4529C42.6543 31.3373 45.8033 34.4863 49.6877 34.4863Z" fill="white"/>
<path fill-rule="evenodd" clip-rule="evenodd" d="M49.6877 50.3683C53.071 50.3683 55.8136 47.6256 55.8136 44.2424C55.8136 40.8592 53.071 38.1165 49.6877 38.1165C46.3045 38.1165 43.5618 40.8592 43.5618 44.2424C43.5618 47.6256 46.3045 50.3683 49.6877 50.3683ZM49.6877 51.2758C53.5722 51.2758 56.7212 48.1269 56.7212 44.2424C56.7212 40.358 53.5722 37.209 49.6877 37.209C45.8033 37.209 42.6543 40.358 42.6543 44.2424C42.6543 48.1269 45.8033 51.2758 49.6877 51.2758Z" fill="white"/>
<path fill-rule="evenodd" clip-rule="evenodd" d="M317.639 1.36131H1.36131V63.5277H317.639V1.36131ZM0 0V64.889H319V0H0Z" fill="white"/>
<path d="M269.28 48.6331C269.112 48.6331 268.952 48.5666 268.833 48.4483C268.715 48.3301 268.648 48.1696 268.648 48.0023C268.648 47.835 268.715 47.6746 268.833 47.5563C268.952 47.438 269.112 47.3716 269.28 47.3716C269.447 47.3716 269.607 47.438 269.726 47.5563C269.844 47.6746 269.911 47.835 269.911 48.0023C269.911 48.1696 269.844 48.3301 269.726 48.4483C269.607 48.5666 269.447 48.6331 269.28 48.6331ZM269.28 47.7516C269.242 47.7451 269.204 47.7469 269.168 47.7567C269.132 47.7665 269.098 47.7842 269.069 47.8084C269.04 47.8327 269.017 47.863 269.001 47.8971C268.985 47.9313 268.977 47.9685 268.977 48.0061C268.977 48.0438 268.985 48.081 269.001 48.1152C269.017 48.1493 269.04 48.1796 269.069 48.2038C269.098 48.2281 269.132 48.2457 269.168 48.2556C269.204 48.2654 269.242 48.2671 269.28 48.2607C269.317 48.2671 269.355 48.2654 269.391 48.2556C269.427 48.2457 269.461 48.2281 269.49 48.2038C269.519 48.1796 269.542 48.1493 269.558 48.1152C269.574 48.081 269.582 48.0438 269.582 48.0061C269.582 47.9685 269.574 47.9313 269.558 47.8971C269.542 47.863 269.519 47.8327 269.49 47.8084C269.461 47.7842 269.427 47.7665 269.391 47.7567C269.355 47.7469 269.317 47.7451 269.28 47.7516Z" fill="white"/>
<path d="M270.9 49.1873H267.66C267.438 49.1873 267.224 49.0995 267.066 48.9429C266.908 48.7864 266.818 48.5738 266.816 48.3514V43.0698C266.818 42.8474 266.908 42.6348 267.066 42.4783C267.224 42.3217 267.438 42.2339 267.66 42.2339H270.9C271.121 42.2339 271.334 42.322 271.491 42.4787C271.648 42.6355 271.736 42.8481 271.736 43.0698V48.321C271.736 48.5427 271.648 48.7553 271.491 48.9121C271.334 49.0688 271.121 49.1569 270.9 49.1569V49.1873ZM267.66 42.5759C267.537 42.5759 267.419 42.6247 267.332 42.7116C267.245 42.7986 267.197 42.9165 267.197 43.0394V48.321C267.197 48.3819 267.209 48.4421 267.232 48.4984C267.255 48.5546 267.289 48.6057 267.332 48.6488C267.376 48.6918 267.427 48.726 267.483 48.7493C267.539 48.7726 267.6 48.7846 267.66 48.7846H270.9C270.96 48.7846 271.021 48.7726 271.077 48.7493C271.133 48.726 271.184 48.6918 271.228 48.6488C271.271 48.6057 271.305 48.5546 271.328 48.4984C271.351 48.4421 271.363 48.3819 271.363 48.321V43.0394C271.363 42.9165 271.314 42.7986 271.228 42.7116C271.141 42.6247 271.023 42.5759 270.9 42.5759H267.66Z" fill="white"/>
<path d="M272.534 42.8727C272.49 42.8733 272.448 42.8583 272.415 42.8304C272.381 42.8025 272.359 42.7636 272.351 42.7207C272.278 42.4204 272.107 42.153 271.865 41.9608C271.616 41.7555 271.305 41.6403 270.983 41.634C270.955 41.6396 270.927 41.639 270.899 41.6322C270.872 41.6255 270.846 41.6127 270.825 41.5949C270.803 41.5771 270.785 41.5546 270.773 41.5292C270.761 41.5038 270.755 41.476 270.755 41.4478C270.755 41.4196 270.761 41.3918 270.773 41.3664C270.785 41.341 270.803 41.3185 270.825 41.3007C270.846 41.2829 270.872 41.2701 270.899 41.2634C270.927 41.2566 270.955 41.256 270.983 41.2616C271.389 41.2696 271.78 41.4143 272.093 41.6722C272.406 41.9301 272.623 42.2862 272.709 42.6827C272.718 42.731 272.708 42.7809 272.681 42.822C272.654 42.8631 272.612 42.8921 272.564 42.9031" fill="white"/>
<path d="M273.834 42.7662C273.791 42.7671 273.75 42.7532 273.717 42.7269C273.683 42.7005 273.66 42.6634 273.651 42.6218C273.516 41.975 273.164 41.3935 272.654 40.9724C272.145 40.5514 271.507 40.3157 270.846 40.304C270.821 40.304 270.797 40.2991 270.774 40.2894C270.751 40.2798 270.731 40.2657 270.714 40.2479C270.697 40.2302 270.684 40.2092 270.675 40.1862C270.666 40.1631 270.662 40.1386 270.663 40.114C270.663 40.0656 270.682 40.0193 270.717 39.9851C270.751 39.9508 270.797 39.9316 270.846 39.9316C271.599 39.9347 272.329 40.1959 272.913 40.6716C273.497 41.1474 273.9 41.8089 274.054 42.5458C274.06 42.5698 274.061 42.5947 274.056 42.6189C274.052 42.6431 274.043 42.6663 274.029 42.6868C274.016 42.7074 273.998 42.7251 273.978 42.7387C273.957 42.7524 273.934 42.7617 273.91 42.7662" fill="white"/>
<path fill-rule="evenodd" clip-rule="evenodd" d="M145.056 29.3592C145.071 29.3708 145.089 29.3769 145.108 29.3765H145.141C145.152 29.3745 145.162 29.3704 145.171 29.3644C145.18 29.3584 145.188 29.3507 145.194 29.3417C145.199 29.3326 145.204 29.3225 145.205 29.3119C145.207 29.3012 145.207 29.2903 145.205 29.2798C145.137 28.9566 144.96 28.6665 144.704 28.4579C144.448 28.2492 144.128 28.1346 143.797 28.1333C143.776 28.1333 143.756 28.1417 143.741 28.1567C143.726 28.1717 143.717 28.1921 143.717 28.2133C143.717 28.2241 143.719 28.2348 143.722 28.2449C143.726 28.255 143.732 28.2642 143.74 28.272C143.747 28.2798 143.756 28.286 143.766 28.2902C143.776 28.2944 143.787 28.2966 143.797 28.2966C144.087 28.3017 144.367 28.4051 144.59 28.5898C144.814 28.7744 144.968 29.0295 145.028 29.3132C145.032 29.3314 145.042 29.3477 145.056 29.3592ZM144.538 29.4231C144.519 29.4234 144.5 29.4168 144.486 29.4046C144.471 29.3924 144.461 29.3753 144.458 29.3565C144.426 29.2248 144.351 29.1075 144.244 29.0232C144.135 28.9332 143.999 28.8827 143.858 28.8799C143.845 28.8823 143.833 28.8821 143.821 28.8791C143.809 28.8761 143.798 28.8705 143.788 28.8627C143.779 28.8549 143.771 28.8451 143.766 28.8339C143.76 28.8228 143.758 28.8106 143.758 28.7982C143.758 28.7859 143.76 28.7737 143.766 28.7625C143.771 28.7514 143.779 28.7415 143.788 28.7337C143.798 28.7259 143.809 28.7203 143.821 28.7173C143.833 28.7144 143.845 28.7141 143.858 28.7166C144.036 28.7201 144.207 28.7835 144.345 28.8966C144.482 29.0097 144.577 29.1659 144.615 29.3398C144.619 29.361 144.614 29.3829 144.602 29.4009C144.591 29.4189 144.572 29.4317 144.551 29.4365L144.538 29.4231ZM142.4 32.1928H143.821V32.1795C143.918 32.1795 144.012 32.1408 144.08 32.0721C144.149 32.0033 144.188 31.9101 144.188 31.8129V29.5098C144.188 29.4126 144.149 29.3193 144.08 29.2506C144.012 29.1818 143.918 29.1432 143.821 29.1432H142.4C142.303 29.1432 142.209 29.1817 142.14 29.2504C142.071 29.319 142.031 29.4123 142.03 29.5098V31.8262C142.031 31.9237 142.071 32.017 142.14 32.0856C142.209 32.1543 142.303 32.1928 142.4 32.1928ZM142.257 29.3527C142.295 29.3146 142.346 29.2932 142.4 29.2932H143.821C143.875 29.2932 143.927 29.3146 143.965 29.3527C144.003 29.3908 144.024 29.4426 144.024 29.4965V31.8129C144.024 31.8396 144.019 31.866 144.009 31.8907C143.999 31.9153 143.984 31.9377 143.965 31.9566C143.946 31.9755 143.924 31.9905 143.899 32.0007C143.874 32.0109 143.848 32.0162 143.821 32.0162H142.4C142.374 32.0162 142.347 32.0109 142.323 32.0007C142.298 31.9905 142.275 31.9755 142.257 31.9566C142.238 31.9377 142.223 31.9153 142.213 31.8907C142.202 31.866 142.197 31.8396 142.197 31.8129V29.4965C142.197 29.4426 142.218 29.3908 142.257 29.3527ZM142.915 31.8685C142.967 31.9204 143.037 31.9495 143.11 31.9495C143.184 31.9495 143.254 31.9204 143.306 31.8685C143.358 31.8166 143.387 31.7462 143.387 31.6729C143.387 31.5995 143.358 31.5292 143.306 31.4773C143.254 31.4254 143.184 31.3962 143.11 31.3962C143.037 31.3962 142.967 31.4254 142.915 31.4773C142.863 31.5292 142.834 31.5995 142.834 31.6729C142.834 31.7462 142.863 31.8166 142.915 31.8685ZM143.062 31.5652C143.077 31.5608 143.094 31.5601 143.11 31.5629C143.127 31.5601 143.143 31.5608 143.159 31.5652C143.175 31.5695 143.19 31.5772 143.203 31.5878C143.216 31.5985 143.226 31.6118 143.233 31.6267C143.24 31.6417 143.243 31.658 143.243 31.6745C143.243 31.6911 143.24 31.7074 143.233 31.7224C143.226 31.7373 143.216 31.7506 143.203 31.7613C143.19 31.7719 143.175 31.7796 143.159 31.7839C143.143 31.7882 143.127 31.789 143.11 31.7862C143.094 31.789 143.077 31.7882 143.062 31.7839C143.046 31.7796 143.031 31.7719 143.018 31.7613C143.005 31.7506 142.995 31.7373 142.988 31.7224C142.981 31.7074 142.978 31.6911 142.978 31.6745C142.978 31.658 142.981 31.6417 142.988 31.6267C142.995 31.6118 143.005 31.5985 143.018 31.5878C143.031 31.5772 143.046 31.5695 143.062 31.5652Z" fill="white"/>
<path d="M273.201 25.2239C273.16 25.2235 273.119 25.2133 273.083 25.1942C273.046 25.1752 273.015 25.1477 272.991 25.1141C272.718 24.6902 272.361 24.3268 271.943 24.0463C271.889 24.0098 271.852 23.954 271.839 23.8908C271.826 23.8275 271.838 23.7616 271.873 23.707C271.911 23.653 271.969 23.6157 272.034 23.6027C272.098 23.5897 272.166 23.602 272.222 23.6372C272.692 23.9568 273.093 24.3674 273.4 24.8446C273.419 24.8713 273.432 24.9014 273.438 24.9331C273.445 24.9648 273.445 24.9975 273.438 25.0292C273.432 25.0609 273.419 25.091 273.4 25.1176C273.382 25.1442 273.358 25.1668 273.33 25.1839C273.288 25.1984 273.243 25.1984 273.201 25.1839" fill="white"/>
<path d="M269.787 31.5512C269.495 31.551 269.204 31.5209 268.918 31.4614C268.36 31.3509 267.829 31.1297 267.357 30.811C266.886 30.4922 266.483 30.0822 266.172 29.6053C265.856 29.1313 265.639 28.5984 265.533 28.0385C265.426 27.4805 265.429 26.9067 265.544 26.3501C265.659 25.7935 265.882 25.2651 266.202 24.7953C266.525 24.3251 266.935 23.9218 267.411 23.6077C267.883 23.2956 268.412 23.0786 268.968 22.969C269.529 22.8593 270.105 22.8593 270.666 22.969C270.729 22.9834 270.783 23.0216 270.819 23.0755C270.854 23.1295 270.867 23.1951 270.855 23.2585C270.841 23.3213 270.803 23.3762 270.749 23.4116C270.695 23.4469 270.629 23.46 270.566 23.4481C270.071 23.3483 269.562 23.3483 269.068 23.4481C268.572 23.537 268.099 23.7272 267.68 24.0069C267.256 24.2832 266.892 24.6432 266.612 25.0647C266.327 25.4807 266.127 25.9486 266.023 26.4418C265.928 26.9363 265.928 27.4442 266.023 27.9387C266.12 28.4339 266.313 28.9052 266.592 29.3258C266.85 29.7449 267.189 30.1079 267.59 30.3936C268.011 30.6753 268.482 30.8719 268.978 30.9724C269.975 31.1762 271.012 30.979 271.864 30.4235C272.284 30.1417 272.646 29.7828 272.932 29.3657C273.214 28.9492 273.411 28.4813 273.511 27.9886C273.606 27.4941 273.606 26.9862 273.511 26.4917C273.499 26.4283 273.512 26.3628 273.548 26.3088C273.583 26.2549 273.638 26.2167 273.701 26.2023C273.733 26.1951 273.767 26.1946 273.799 26.2009C273.831 26.2072 273.862 26.2201 273.889 26.2389C273.917 26.2576 273.94 26.2818 273.957 26.3098C273.974 26.3379 273.986 26.3692 273.991 26.4019C274.105 26.9582 274.105 27.5321 273.991 28.0884C273.757 29.2117 273.09 30.1977 272.133 30.8327C271.428 31.3054 270.596 31.5525 269.747 31.5412" fill="white"/>
<path d="M271.825 27.5094H269.828C269.763 27.5068 269.702 27.4794 269.658 27.4329C269.613 27.3864 269.588 27.3244 269.588 27.2599V24.825C269.581 24.7888 269.581 24.7514 269.59 24.7155C269.599 24.6796 269.616 24.6461 269.639 24.6175C269.663 24.5888 269.692 24.5658 269.726 24.5499C269.759 24.5341 269.796 24.5259 269.833 24.5259C269.87 24.5259 269.906 24.5341 269.94 24.5499C269.973 24.5658 270.002 24.5888 270.026 24.6175C270.049 24.6461 270.066 24.6796 270.075 24.7155C270.084 24.7514 270.085 24.7888 270.077 24.825V27.0204H271.865C271.901 27.0131 271.938 27.0139 271.974 27.0227C272.01 27.0316 272.044 27.0484 272.072 27.0718C272.101 27.0952 272.124 27.1246 272.14 27.158C272.156 27.1914 272.164 27.228 272.164 27.2649C272.164 27.3019 272.156 27.3384 272.14 27.3718C272.124 27.4052 272.101 27.4347 272.072 27.4581C272.044 27.4815 272.01 27.4982 271.974 27.5071C271.938 27.516 271.901 27.5168 271.865 27.5094" fill="white"/>
<path fill-rule="evenodd" clip-rule="evenodd" d="M177.651 35.6209H174.928V37.8898H177.651V35.6209ZM174.701 35.394V38.1167H177.878V35.394H174.701Z" fill="white"/>
<path fill-rule="evenodd" clip-rule="evenodd" d="M181.054 19.966H137.946V40.8394H181.054V19.966ZM137.492 19.5122V41.2931H181.508V19.5122H137.492Z" fill="white"/>
</svg>
