<svg width="245" height="92" viewBox="0 0 245 92" fill="none" xmlns="http://www.w3.org/2000/svg">
<path fill-rule="evenodd" clip-rule="evenodd" d="M240.288 2.35897H4.71154C3.41048 2.35897 2.35577 3.41512 2.35577 4.71795V87.2821C2.35577 88.5849 3.41048 89.641 4.71154 89.641H240.288C241.59 89.641 242.644 88.5849 242.644 87.2821V4.71795C242.644 3.41513 241.59 2.35897 240.288 2.35897ZM4.71154 0C2.10943 0 0 2.1123 0 4.71795V87.2821C0 89.8877 2.10943 92 4.71154 92H240.288C242.891 92 245 89.8877 245 87.2821V4.71795C245 2.1123 242.891 0 240.288 0H4.71154Z" fill="white"/>
<g opacity="0.5">
<path d="M179.583 76.3721H171.996C171.709 76.3722 171.424 76.3146 171.159 76.2027C170.894 76.0908 170.654 75.9269 170.454 75.7207C170.253 75.5145 170.096 75.2701 169.992 75.0021C169.888 74.7341 169.838 74.4479 169.847 74.1605V55.2041C169.847 54.9528 169.947 54.7117 170.124 54.5339C170.302 54.3562 170.544 54.2563 170.795 54.2563H185.02C185.278 54.2558 185.526 54.3536 185.714 54.5298C185.902 54.7059 186.016 54.9471 186.032 55.2041C186.032 55.4723 185.925 55.7295 185.736 55.9191C185.546 56.1087 185.289 56.2152 185.02 56.2152H178.255V60.3223H190.584C190.995 60.3173 191.403 60.4057 191.775 60.5808C192.147 60.756 192.475 61.0132 192.734 61.3334C193.194 61.9061 193.439 62.6211 193.429 63.3554C193.481 64.1667 193.212 64.966 192.68 65.5808C192.148 66.1956 191.395 66.5764 190.584 66.6411H183.946C183.65 66.6052 183.351 66.6444 183.074 66.7548C182.798 66.8652 182.554 67.0434 182.365 67.273C181.994 67.831 181.837 68.5042 181.922 69.1687V74.2869C181.931 74.5743 181.882 74.8604 181.777 75.1284C181.673 75.3964 181.516 75.6408 181.315 75.847C181.115 76.0533 180.875 76.2172 180.61 76.3291C180.345 76.441 180.06 76.4986 179.773 76.4985L179.583 76.3721ZM171.617 56.4047V74.2869H179.204V69.7374C179.08 68.5307 179.394 67.3197 180.089 66.3253C180.474 65.8877 180.952 65.5416 181.488 65.312C182.024 65.0825 182.604 64.9752 183.187 64.9983H190.584C191.216 64.9983 191.469 64.24 191.469 63.7345C191.543 63.4872 191.543 63.2237 191.469 62.9763C191.397 62.8763 191.302 62.7952 191.192 62.7402C191.082 62.6851 190.96 62.6578 190.837 62.6603H177.687C177.435 62.6603 177.194 62.5605 177.016 62.3828C176.838 62.205 176.738 61.9638 176.738 61.7125V56.5943L171.617 56.4047Z" fill="white"/>
</g>
<g opacity="0.5">
<path d="M225.39 18.6558C225.166 18.6319 224.959 18.5282 224.806 18.3637C224.72 18.2925 224.651 18.2031 224.603 18.1022C224.556 18.0012 224.531 17.891 224.531 17.7794C224.531 17.6678 224.556 17.5576 224.603 17.4566C224.651 17.3557 224.72 17.2663 224.806 17.1951L226.735 15.2669C226.806 15.1811 226.896 15.112 226.997 15.0646C227.098 15.0172 227.208 14.9927 227.32 14.9927C227.431 14.9927 227.541 15.0172 227.642 15.0646C227.743 15.112 227.833 15.1811 227.904 15.2669C228.065 15.4308 228.155 15.651 228.155 15.8804C228.155 16.1098 228.065 16.3301 227.904 16.4939L226.033 18.3637C225.866 18.5414 225.634 18.6462 225.39 18.6558Z" fill="white"/>
<path d="M222.407 21.579C222.218 21.651 222.01 21.651 221.822 21.579C221.735 21.5023 221.665 21.4079 221.617 21.3021C221.57 21.1963 221.545 21.0816 221.545 20.9656C221.545 20.8495 221.57 20.7348 221.617 20.629C221.665 20.5232 221.735 20.4288 221.822 20.3521L222.933 19.2419C223.108 19.1045 223.324 19.0298 223.546 19.0298C223.769 19.0298 223.986 19.1045 224.161 19.2419C224.321 19.4057 224.411 19.626 224.411 19.8554C224.411 20.0848 224.321 20.3051 224.161 20.469L223.05 21.579C222.843 21.6604 222.613 21.6604 222.407 21.579Z" fill="white"/>
<path d="M230.3 24.5011H227.61C227.378 24.5011 227.155 24.4088 226.99 24.2444C226.826 24.08 226.733 23.8571 226.733 23.6247C226.748 23.4025 226.847 23.1943 227.01 23.0424C227.173 22.8904 227.387 22.8061 227.61 22.8066H230.3C230.522 22.8061 230.737 22.8904 230.9 23.0424C231.063 23.1943 231.162 23.4025 231.177 23.6247C231.177 23.8571 231.084 24.08 230.92 24.2444C230.755 24.4088 230.532 24.5011 230.3 24.5011Z" fill="white"/>
<path d="M225.21 24.5011H223.632C223.399 24.5011 223.176 24.4088 223.011 24.2444C222.847 24.08 222.755 23.8571 222.755 23.6247C222.77 23.4025 222.869 23.1943 223.031 23.0424C223.194 22.8904 223.409 22.8061 223.632 22.8066H225.21C225.427 22.8066 225.636 22.8928 225.789 23.0462C225.943 23.1996 226.029 23.4077 226.029 23.6247C226.029 23.8473 225.945 24.0618 225.793 24.2246C225.641 24.3874 225.433 24.4863 225.21 24.5011Z" fill="white"/>
<path d="M227.333 32.2719C227.144 32.3388 226.938 32.3388 226.749 32.2719L224.82 30.3437C224.719 30.2684 224.636 30.1723 224.576 30.0621C224.516 29.9518 224.48 29.83 224.471 29.7047C224.462 29.5795 224.48 29.4538 224.524 29.3362C224.568 29.2185 224.637 29.1117 224.726 29.0229C224.815 28.9341 224.921 28.8654 225.039 28.8215C225.157 28.7775 225.283 28.7594 225.408 28.7683C225.533 28.7772 225.655 28.813 225.766 28.8731C225.876 28.9332 225.972 29.0163 226.047 29.1167L227.918 31.045C228.079 31.2088 228.169 31.429 228.169 31.6584C228.169 31.8879 228.079 32.1081 227.918 32.2719C227.727 32.3271 227.524 32.3271 227.333 32.2719Z" fill="white"/>
<path d="M223.576 28.4727C223.369 28.5541 223.139 28.5541 222.933 28.4727L221.822 27.3625C221.735 27.2858 221.665 27.1914 221.617 27.0856C221.57 26.9798 221.545 26.8651 221.545 26.749C221.545 26.633 221.57 26.5182 221.617 26.4125C221.665 26.3067 221.735 26.2122 221.822 26.1354C221.997 25.998 222.213 25.9233 222.436 25.9233C222.659 25.9233 222.875 25.998 223.05 26.1354L224.161 27.2456C224.321 27.4095 224.411 27.6298 224.411 27.8592C224.411 28.0886 224.321 28.3089 224.161 28.4727C223.972 28.5446 223.764 28.5446 223.576 28.4727Z" fill="white"/>
<path d="M219.552 30.1677C219.319 30.1677 219.096 30.0754 218.932 29.911C218.767 29.7467 218.675 29.5238 218.675 29.2913V28.0058C218.675 27.7734 218.767 27.5504 218.932 27.3861C219.096 27.2217 219.319 27.1294 219.552 27.1294C219.784 27.1294 220.007 27.2217 220.172 27.3861C220.336 27.5504 220.429 27.7734 220.429 28.0058V29.5835C220.429 29.8159 220.336 30.0388 220.172 30.2032C220.007 30.3676 219.784 30.4599 219.552 30.4599" fill="white"/>
<path d="M211.769 32.2719C211.578 32.3271 211.375 32.3271 211.184 32.2719C211.097 32.1952 211.027 32.1008 210.98 31.995C210.932 31.8892 210.907 31.7745 210.907 31.6585C210.907 31.5424 210.932 31.4277 210.98 31.3219C211.027 31.2161 211.097 31.1217 211.184 31.045L213.055 29.1167C213.13 29.0163 213.227 28.9332 213.337 28.8731C213.447 28.813 213.569 28.7772 213.694 28.7683C213.82 28.7594 213.946 28.7775 214.063 28.8215C214.181 28.8654 214.288 28.9341 214.377 29.0229C214.466 29.1117 214.534 29.2185 214.578 29.3362C214.622 29.4538 214.64 29.5795 214.631 29.7047C214.623 29.83 214.587 29.9518 214.527 30.0621C214.466 30.1723 214.383 30.2684 214.283 30.3437L212.353 32.2719C212.163 32.3271 211.96 32.3271 211.769 32.2719Z" fill="white"/>
<path d="M215.519 28.473C215.331 28.5449 215.123 28.5449 214.934 28.473C214.847 28.3962 214.778 28.3018 214.73 28.1961C214.682 28.0903 214.657 27.9755 214.657 27.8595C214.657 27.7434 214.682 27.6287 214.73 27.5229C214.778 27.4171 214.847 27.3227 214.934 27.2459L216.045 26.1357C216.214 26.0091 216.423 25.9477 216.634 25.9627C216.844 25.9776 217.042 26.068 217.191 26.2172C217.341 26.3664 217.431 26.5643 217.446 26.7748C217.461 26.9852 217.4 27.194 217.273 27.3628L216.162 28.473C215.956 28.5544 215.726 28.5544 215.519 28.473Z" fill="white"/>
<path d="M211.248 24.5011H208.559C208.326 24.5011 208.103 24.4088 207.939 24.2444C207.774 24.08 207.682 23.8571 207.682 23.6247C207.696 23.4025 207.795 23.1943 207.958 23.0424C208.121 22.8904 208.336 22.8061 208.559 22.8066H211.248C211.471 22.8061 211.685 22.8904 211.848 23.0424C212.011 23.1943 212.11 23.4025 212.125 23.6247C212.125 23.8571 212.032 24.08 211.868 24.2444C211.704 24.4088 211.48 24.5011 211.248 24.5011Z" fill="white"/>
<path d="M215.445 24.5011H213.866C213.634 24.5011 213.411 24.4088 213.246 24.2444C213.082 24.08 212.989 23.8571 212.989 23.6247C213.004 23.4025 213.103 23.1943 213.266 23.0424C213.429 22.8904 213.644 22.8061 213.866 22.8066H215.445C215.668 22.8061 215.882 22.8904 216.045 23.0424C216.208 23.1943 216.307 23.4025 216.322 23.6247C216.322 23.8571 216.229 24.08 216.065 24.2444C215.9 24.4088 215.678 24.5011 215.445 24.5011Z" fill="white"/>
<path d="M213.698 18.6558C213.454 18.6462 213.223 18.5414 213.055 18.3637L211.184 16.4939C211.097 16.4172 211.027 16.3228 210.98 16.217C210.932 16.1112 210.907 15.9965 210.907 15.8804C210.907 15.7644 210.932 15.6496 210.98 15.5439C211.027 15.4381 211.097 15.3437 211.184 15.2669C211.255 15.1811 211.345 15.112 211.446 15.0646C211.547 15.0172 211.657 14.9927 211.769 14.9927C211.881 14.9927 211.991 15.0172 212.092 15.0646C212.193 15.112 212.282 15.1811 212.354 15.2669L214.283 17.1951C214.369 17.2663 214.438 17.3557 214.485 17.4566C214.533 17.5576 214.557 17.6678 214.557 17.7794C214.557 17.891 214.533 18.0012 214.485 18.1022C214.438 18.2031 214.369 18.2925 214.283 18.3637C214.13 18.5282 213.922 18.6319 213.698 18.6558Z" fill="white"/>
<path d="M216.63 21.579C216.442 21.651 216.234 21.651 216.045 21.579L214.934 20.469C214.847 20.3922 214.778 20.2977 214.73 20.1919C214.682 20.0862 214.657 19.9714 214.657 19.8554C214.657 19.7393 214.682 19.6246 214.73 19.5188C214.778 19.413 214.847 19.3187 214.934 19.2419C215.11 19.1045 215.326 19.0298 215.548 19.0298C215.771 19.0298 215.987 19.1045 216.162 19.2419L217.273 20.3521C217.411 20.527 217.485 20.7431 217.485 20.9656C217.485 21.188 217.411 21.4041 217.273 21.579C217.067 21.6604 216.836 21.6604 216.63 21.579Z" fill="white"/>
<path d="M219.552 16.3186C219.329 16.3191 219.114 16.2348 218.951 16.0829C218.788 15.931 218.69 15.7228 218.675 15.5006V12.7544C218.675 12.5219 218.767 12.299 218.932 12.1346C219.096 11.9702 219.319 11.8779 219.552 11.8779C219.784 11.8779 220.007 11.9702 220.172 12.1346C220.336 12.299 220.429 12.5219 220.429 12.7544V15.5006C220.414 15.7228 220.315 15.931 220.152 16.0829C219.989 16.2348 219.774 16.3191 219.552 16.3186Z" fill="white"/>
<path d="M219.552 20.4101C219.319 20.4101 219.096 20.3178 218.932 20.1534C218.767 19.989 218.675 19.7661 218.675 19.5337V17.956C218.675 17.7236 218.767 17.5006 218.932 17.3363C219.096 17.1719 219.319 17.0796 219.552 17.0796C219.784 17.0796 220.007 17.1719 220.172 17.3363C220.336 17.5006 220.429 17.7236 220.429 17.956V19.5337C220.429 19.7661 220.336 19.989 220.172 20.1534C220.007 20.3178 219.784 20.4101 219.552 20.4101Z" fill="white"/>
<path d="M219.552 35.4841C219.319 35.4841 219.096 35.3918 218.932 35.2275C218.767 35.0631 218.675 34.8402 218.675 34.6077V31.9199C218.675 31.6874 218.767 31.4645 218.932 31.3001C219.096 31.1358 219.319 31.0435 219.552 31.0435C219.784 31.0435 220.007 31.1358 220.172 31.3001C220.336 31.4645 220.429 31.6874 220.429 31.9199V34.6077C220.429 34.8402 220.336 35.0631 220.172 35.2275C220.007 35.3918 219.784 35.4841 219.552 35.4841Z" fill="white"/>
</g>
<path d="M185.205 28.1913C184.983 28.2553 184.748 28.2553 184.526 28.1913C183.742 27.437 182.697 27.0157 181.609 27.0157C180.52 27.0157 179.474 27.437 178.69 28.1913C178.515 28.3533 178.285 28.4433 178.046 28.4433C177.807 28.4433 177.577 28.3533 177.401 28.1913C177.301 28.1085 177.221 28.005 177.166 27.8877C177.111 27.7705 177.083 27.6426 177.083 27.5131C177.083 27.3837 177.111 27.2557 177.166 27.1385C177.221 27.0213 177.301 26.9176 177.401 26.8349C178.531 25.7208 180.055 25.0962 181.642 25.0962C183.23 25.0962 184.753 25.7208 185.883 26.8349C186.05 27.0214 186.142 27.2629 186.142 27.5131C186.142 27.7634 186.05 28.0047 185.883 28.1913C185.662 28.2553 185.426 28.2553 185.205 28.1913Z" fill="#F2A900"/>
<path d="M173.059 24.1887C172.84 24.2722 172.598 24.2722 172.38 24.1887C172.213 24.0022 172.121 23.7608 172.121 23.5106C172.121 23.2603 172.213 23.0188 172.38 22.8323C174.838 20.4048 178.153 19.0408 181.609 19.0345C183.322 19.0228 185.021 19.3526 186.605 20.0047C188.19 20.6568 189.629 21.6181 190.837 22.8323C190.937 22.9151 191.017 23.0187 191.072 23.136C191.127 23.2532 191.156 23.3811 191.156 23.5106C191.156 23.64 191.127 23.7679 191.072 23.8851C191.017 24.0023 190.937 24.106 190.837 24.1887C190.662 24.3508 190.431 24.4408 190.192 24.4408C189.953 24.4408 189.723 24.3508 189.548 24.1887C187.431 22.1054 184.58 20.9364 181.609 20.9334C180.147 20.9291 178.698 21.2145 177.347 21.7733C175.996 22.332 174.769 23.153 173.737 24.1887C173.63 24.2335 173.514 24.2565 173.398 24.2565C173.281 24.2565 173.166 24.2335 173.059 24.1887Z" fill="#F2A900"/>
<path d="M168.103 20.1891C167.995 20.2339 167.88 20.2569 167.764 20.2569C167.647 20.2569 167.532 20.2339 167.424 20.1891C167.257 20.0026 167.165 19.7611 167.165 19.5109C167.165 19.2606 167.257 19.0193 167.424 18.8327C169.284 16.9706 171.495 15.4961 173.93 14.4949C176.365 13.4937 178.974 12.9857 181.607 13.0003C186.937 13.0047 192.054 15.0988 195.856 18.8327C196.023 19.0193 196.116 19.2606 196.116 19.5109C196.116 19.7611 196.023 20.0026 195.856 20.1891C195.774 20.2887 195.67 20.3689 195.552 20.4239C195.435 20.4789 195.308 20.5074 195.178 20.5074C195.048 20.5074 194.92 20.4789 194.803 20.4239C194.686 20.3689 194.582 20.2887 194.499 20.1891C192.81 18.4943 190.8 17.1534 188.587 16.245C186.373 15.3367 184 14.8792 181.607 14.8992C179.224 14.8806 176.861 15.339 174.659 16.2475C172.456 17.1561 170.458 18.4963 168.782 20.1891C168.563 20.2726 168.321 20.2726 168.103 20.1891Z" fill="#F2A900"/>
<path d="M181.615 36.2626C181.363 36.2626 181.122 36.1626 180.943 35.9845C180.765 35.8064 180.665 35.5649 180.665 35.3131V32.6003C180.665 32.3485 180.765 32.107 180.943 31.9289C181.122 31.7509 181.363 31.6509 181.615 31.6509C181.867 31.6509 182.108 31.7509 182.287 31.9289C182.465 32.107 182.565 32.3485 182.565 32.6003V35.3131C182.565 35.5649 182.465 35.8064 182.287 35.9845C182.108 36.1626 181.867 36.2626 181.615 36.2626Z" fill="#F2A900"/>
<g opacity="0.5">
<path d="M226.42 61.2601C226.298 61.3202 226.163 61.3515 226.027 61.3515C225.89 61.3515 225.756 61.3202 225.633 61.2601C224.981 60.3031 224.165 59.4691 223.221 58.7969C223.142 58.7233 223.079 58.6342 223.035 58.535C222.992 58.4358 222.97 58.3287 222.97 58.2205C222.97 58.1122 222.992 58.0051 223.035 57.9059C223.079 57.8067 223.142 57.7176 223.221 57.644C223.386 57.493 223.601 57.4092 223.825 57.4092C224.048 57.4092 224.263 57.493 224.428 57.644C225.591 58.4225 226.575 59.4411 227.312 60.6312C227.397 60.7564 227.447 60.9024 227.456 61.0535C227.464 61.2047 227.432 61.3555 227.362 61.4898C227.292 61.6242 227.187 61.7371 227.058 61.8166C226.929 61.8961 226.781 61.9393 226.63 61.9414" fill="white"/>
<path d="M218.242 76.5629C217.527 76.6365 216.806 76.6365 216.092 76.5629C214.724 76.2982 213.423 75.7637 212.264 74.9907C211.113 74.1971 210.132 73.1814 209.38 72.0035C208.606 70.8453 208.071 69.5448 207.806 68.1777C207.518 66.8127 207.518 65.4024 207.806 64.0374C208.088 62.6754 208.621 61.3779 209.38 60.2117C210.174 59.0613 211.19 58.0813 212.368 57.3292C213.527 56.5562 214.829 56.0217 216.196 55.757C217.565 55.4951 218.97 55.4951 220.339 55.757C220.567 55.8073 220.767 55.9455 220.895 56.1416C221.022 56.3377 221.067 56.576 221.021 56.8051C220.996 56.9171 220.949 57.0229 220.883 57.116C220.816 57.209 220.731 57.2874 220.632 57.3464C220.534 57.4053 220.425 57.4435 220.311 57.4586C220.198 57.4736 220.082 57.4653 219.972 57.4341C218.828 57.2244 217.655 57.2244 216.511 57.4341C215.37 57.6593 214.284 58.1043 213.313 58.7443C212.323 59.3784 211.474 60.2073 210.815 61.1804C210.157 62.1536 209.704 63.2505 209.484 64.4043C209.232 65.5411 209.214 66.7172 209.43 67.8614C209.646 69.0055 210.093 70.0937 210.743 71.0601C211.398 72.0466 212.235 72.9002 213.208 73.5757C215.177 74.8504 217.555 75.3368 219.867 74.9383C221.025 74.7255 222.127 74.2817 223.109 73.6334C224.091 72.9851 224.933 72.1455 225.583 71.1649C226.248 70.2018 226.711 69.1145 226.946 67.968C227.182 66.8271 227.182 65.65 226.946 64.5091C226.923 64.3988 226.923 64.2851 226.945 64.1748C226.968 64.0644 227.012 63.9596 227.075 63.8666C227.139 63.7737 227.221 63.6945 227.316 63.6338C227.411 63.5732 227.517 63.5321 227.628 63.5133C227.738 63.4906 227.852 63.4904 227.962 63.5126C228.073 63.5348 228.178 63.5791 228.271 63.6426C228.364 63.7062 228.443 63.7879 228.503 63.8827C228.564 63.9776 228.605 64.0836 228.624 64.1947C228.886 65.5623 228.886 66.9673 228.624 68.3349C228.324 69.6999 227.773 70.9972 226.999 72.1607C226.211 73.2982 225.214 74.2763 224.062 75.0431C222.887 75.8226 221.568 76.3572 220.182 76.6153C219.519 76.6695 218.852 76.6695 218.189 76.6153" fill="white"/>
<path d="M223.124 66.868H218.247C218.025 66.868 217.811 66.7796 217.654 66.6224C217.497 66.4651 217.408 66.2519 217.408 66.0295V60.1598C217.408 59.9374 217.497 59.7241 217.654 59.5669C217.811 59.4096 218.025 59.3213 218.247 59.3213C218.475 59.3209 218.694 59.4075 218.86 59.5634C219.025 59.7193 219.125 59.9327 219.139 60.1598V65.4005H223.124C223.351 65.4139 223.565 65.5137 223.721 65.6794C223.877 65.845 223.963 66.0641 223.963 66.2915C223.963 66.5139 223.874 66.7272 223.717 66.8844C223.56 67.0417 223.346 67.13 223.124 67.13" fill="white"/>
</g>
<g opacity="0.5">
<path d="M102.434 45.9888L99.5768 43.644H75.5273L72.6699 45.9888L75.5273 48.29H99.5768L102.434 45.9888Z" fill="white"/>
<path d="M101.055 11.7739H74.0056L68.8623 16.4634H74.0056H79.006H99.4361L103.294 13.7713L101.055 11.7739Z" fill="white"/>
<path d="M101.055 80.2051H74.0056L68.8623 75.5156H99.4363L103.294 78.1643L101.055 80.2051Z" fill="white"/>
<path d="M68.9014 18.9819V44.7304H70.0444L73.9971 41.5173V18.9819H68.9014Z" fill="white"/>
<path d="M68.9014 72.9979V47.2495H70.0444L73.9971 50.4626V72.9979H68.9014Z" fill="white"/>
<path d="M105.233 15.5947L101.042 18.5039V41.5169L104.995 44.73H106.185V16.4631L105.233 15.5947Z" fill="white"/>
<path d="M105.233 76.3414L101.042 73.4756V50.4192L104.995 47.2495H106.185V75.5164L105.233 76.3414Z" fill="white"/>
<path d="M52.444 45.9888L49.5866 43.644H25.537L22.6797 45.9888L25.537 48.29H49.5866L52.444 45.9888Z" fill="white"/>
<path d="M51.0651 11.7739H24.0153L18.8721 16.4634H24.0153H29.0158H49.4459L53.3033 13.7713L51.0651 11.7739Z" fill="white"/>
<path d="M51.0651 80.2051H24.0154L18.8721 75.5156H49.4461L53.3035 78.1643L51.0651 80.2051Z" fill="white"/>
<path d="M18.9131 18.9819V44.7304H20.0561L24.0088 41.5173V18.9819H18.9131Z" fill="white"/>
<path d="M18.9131 72.9979V47.2495H20.0561L24.0088 50.4626V72.9979H18.9131Z" fill="white"/>
<path d="M55.2456 15.5947L51.0547 18.5039V41.5169L55.0075 44.73H56.198V16.4631L55.2456 15.5947Z" fill="white"/>
<path d="M55.2456 76.3414L51.0547 73.4756V50.4192L55.0075 47.2495H56.198V75.5164L55.2456 76.3414Z" fill="white"/>
<path d="M149.58 45.9888L146.722 43.644H122.673L119.815 45.9888L122.673 48.29H146.722L149.58 45.9888Z" fill="white"/>
<path d="M148.246 11.8164H121.148C119.148 13.5966 116.053 16.4624 116.053 16.4624H146.579L150.436 13.8138L148.246 11.8164Z" fill="white"/>
<path d="M148.246 80.1616H121.148L116.053 75.5156H121.196H126.149H146.627L150.436 78.1643L148.246 80.1616Z" fill="white"/>
<path d="M116.053 18.9819V44.7304H117.196L121.148 41.5173L121.196 18.9819H116.053Z" fill="white"/>
<path d="M116.053 72.9979V47.2495H117.196L121.148 50.4626L121.196 72.9979H116.053Z" fill="white"/>
<path d="M152.431 15.5947L148.24 18.5039V41.5169L152.145 44.73H153.336V16.4631L152.431 15.5947Z" fill="white"/>
<path d="M152.431 76.3414L148.24 73.4756V50.4192L152.145 47.2495H153.336V75.5164L152.431 76.3414Z" fill="white"/>
</g>
</svg>
