<svg width="263" height="269" viewBox="0 0 263 269" fill="none" xmlns="http://www.w3.org/2000/svg">
<path d="M85.1844 51.7534V263.661H0.826172" stroke="white" stroke-width="2" stroke-linejoin="round"/>
<path d="M182.027 74.6992L189.342 78.6028L92.0668 267.325L85.1841 263.662L182.027 74.6992Z" stroke="white" stroke-width="2" stroke-linejoin="round"/>
<path d="M166.77 69.6157L180.99 76.9457L85.1842 263.662L90.1458 253.988L89.952 218.985L166.77 69.6157Z" stroke="white" stroke-width="2" stroke-linejoin="round"/>
<path d="M85.1846 51.5512L157.395 1.13867V6.74006L85.1846 57.1525V51.5512Z" stroke="white" stroke-width="2" stroke-linejoin="round"/>
<path d="M90.0166 59.5536L153.342 14.9585L153.788 94.7838L90.0166 218.758V59.5536Z" stroke="white" stroke-width="2" stroke-linejoin="round"/>
<path d="M84.8467 51.7534L157.395 1.13356" stroke="white" stroke-width="2" stroke-linejoin="round"/>
<path d="M182.027 74.6989L189.451 78.748L261.999 28.808L254.913 24.4213L182.027 74.6989Z" stroke="white" stroke-width="2" stroke-linejoin="round"/>
<path d="M166.72 69.8101L180.99 76.9453L182.328 74.2696L251.512 26.6032L240.927 20.7554L166.72 69.8101Z" stroke="white" stroke-width="2" stroke-linejoin="round"/>
<path d="M261.999 28.8081L189.434 78.6827L91.9326 267.373L162.26 210.285L261.999 28.8081Z" stroke="white" stroke-width="2"/>
<path d="M157.395 6.5376V87.8589" stroke="white" stroke-width="2"/>
<rect x="147.01" y="135.389" width="9.02544" height="37.4426" transform="rotate(-152.558 147.01 135.389)" fill="#F7B500"/>
<path d="M85.1847 51.7534H8.9248" stroke="white" stroke-width="2"/>
<path d="M157.396 1.13867H81.1357" stroke="white" stroke-width="2"/>
</svg>
