<svg width="375" height="264" viewBox="0 0 375 264" fill="none" xmlns="http://www.w3.org/2000/svg">
<rect x="18" y="51" width="339" height="162" rx="15" stroke="white" stroke-width="2"/>
<path d="M46.592 77.416C46.592 80.76 49.136 83.096 52.272 83.096C54.592 83.096 56.592 81.944 57.44 79.768H55.248C54.656 80.952 53.6 81.512 52.272 81.512C50.064 81.512 48.464 79.928 48.464 77.416C48.464 74.904 50.064 73.336 52.272 73.336C53.6 73.336 54.656 73.896 55.248 75.08H57.44C56.592 72.904 54.592 71.736 52.272 71.736C49.136 71.736 46.592 74.088 46.592 77.416ZM68.295 78.584C68.295 75.816 66.311 74.04 63.799 74.04C61.287 74.04 59.303 75.816 59.303 78.584C59.303 81.352 61.207 83.144 63.719 83.144C66.247 83.144 68.295 81.352 68.295 78.584ZM61.159 78.584C61.159 76.584 62.391 75.624 63.767 75.624C65.127 75.624 66.423 76.584 66.423 78.584C66.423 80.584 65.079 81.56 63.719 81.56C62.343 81.56 61.159 80.584 61.159 78.584ZM76.6741 83H78.4821V77.8C78.4821 75.336 76.9301 74.04 74.8661 74.04C73.8101 74.04 72.8341 74.472 72.2421 75.192V74.184H70.4181V83H72.2421V78.072C72.2421 76.456 73.1221 75.624 74.4661 75.624C75.7941 75.624 76.6741 76.456 76.6741 78.072V83ZM87.3847 83H89.1927V77.8C89.1927 75.336 87.6407 74.04 85.5767 74.04C84.5207 74.04 83.5447 74.472 82.9527 75.192V74.184H81.1287V83H82.9527V78.072C82.9527 76.456 83.8327 75.624 85.1767 75.624C86.5047 75.624 87.3847 76.456 87.3847 78.072V83ZM95.5514 75.576C96.9114 75.576 97.9834 76.44 98.0154 77.8H93.1354C93.3274 76.408 94.3194 75.576 95.5514 75.576ZM99.6794 80.376H97.7114C97.3754 81.064 96.7514 81.608 95.6314 81.608C94.2874 81.608 93.2474 80.728 93.1194 79.272H99.8554C99.9034 78.968 99.9194 78.68 99.9194 78.376C99.9194 75.784 98.1434 74.04 95.6314 74.04C93.0234 74.04 91.2314 75.816 91.2314 78.584C91.2314 81.352 93.1034 83.144 95.6314 83.144C97.7914 83.144 99.1834 81.912 99.6794 80.376ZM101.426 78.584C101.426 81.352 103.218 83.144 105.746 83.144C107.906 83.144 109.314 81.944 109.81 80.216H107.842C107.506 81.128 106.834 81.608 105.746 81.608C104.274 81.608 103.298 80.52 103.298 78.584C103.298 76.664 104.274 75.576 105.746 75.576C106.834 75.576 107.538 76.12 107.842 76.968H109.81C109.314 75.112 107.906 74.04 105.746 74.04C103.218 74.04 101.426 75.832 101.426 78.584ZM112.236 80.552C112.236 82.344 113.212 83 114.78 83H116.22V81.48H115.1C114.332 81.48 114.076 81.208 114.076 80.552V75.672H116.22V74.184H114.076V71.992H112.236V74.184H111.196V75.672H112.236V80.552ZM121.933 75.576C123.293 75.576 124.365 76.44 124.397 77.8H119.517C119.709 76.408 120.701 75.576 121.933 75.576ZM126.061 80.376H124.093C123.757 81.064 123.133 81.608 122.013 81.608C120.669 81.608 119.629 80.728 119.501 79.272H126.237C126.285 78.968 126.301 78.68 126.301 78.376C126.301 75.784 124.525 74.04 122.013 74.04C119.405 74.04 117.613 75.816 117.613 78.584C117.613 81.352 119.485 83.144 122.013 83.144C124.173 83.144 125.565 81.912 126.061 80.376ZM127.808 78.552C127.808 81.272 129.648 83.144 131.968 83.144C133.408 83.144 134.464 82.472 135.024 81.672V83H136.864V71.16H135.024V75.416C134.352 74.584 133.136 74.04 131.984 74.04C129.648 74.04 127.808 75.832 127.808 78.552ZM135.024 78.584C135.024 80.488 133.728 81.56 132.352 81.56C130.992 81.56 129.68 80.456 129.68 78.552C129.68 76.648 130.992 75.624 132.352 75.624C133.728 75.624 135.024 76.696 135.024 78.584ZM151.56 83H153.48L149.496 71.864H147.384L143.4 83H145.304L146.104 80.728H150.76L151.56 83ZM150.248 79.24H146.616L148.44 74.072L150.248 79.24ZM157.356 75.48V74.184H155.532V87.192H157.356V81.72C157.932 82.408 158.972 83.144 160.428 83.144C162.748 83.144 164.572 81.272 164.572 78.552C164.572 75.832 162.748 74.04 160.428 74.04C158.988 74.04 157.916 74.744 157.356 75.48ZM162.716 78.552C162.716 80.456 161.404 81.56 160.028 81.56C158.668 81.56 157.356 80.488 157.356 78.584C157.356 76.696 158.668 75.624 160.028 75.624C161.404 75.624 162.716 76.648 162.716 78.552ZM168.52 75.48V74.184H166.696V87.192H168.52V81.72C169.096 82.408 170.136 83.144 171.592 83.144C173.912 83.144 175.736 81.272 175.736 78.552C175.736 75.832 173.912 74.04 171.592 74.04C170.152 74.04 169.08 74.744 168.52 75.48ZM173.88 78.552C173.88 80.456 172.568 81.56 171.192 81.56C169.832 81.56 168.52 80.488 168.52 78.584C168.52 76.696 169.832 75.624 171.192 75.624C172.568 75.624 173.88 76.648 173.88 78.552ZM177.86 83H179.684V71.16H177.86V83ZM182.399 83H184.223V74.184H182.399V83ZM183.327 73.016C183.967 73.016 184.479 72.504 184.479 71.848C184.479 71.192 183.967 70.68 183.327 70.68C182.671 70.68 182.159 71.192 182.159 71.848C182.159 72.504 182.671 73.016 183.327 73.016ZM186.33 78.552C186.33 81.272 188.17 83.144 190.458 83.144C191.93 83.144 192.986 82.44 193.546 81.688V83H195.386V74.184H193.546V75.464C193.002 74.744 191.978 74.04 190.49 74.04C188.17 74.04 186.33 75.832 186.33 78.552ZM193.546 78.584C193.546 80.488 192.25 81.56 190.874 81.56C189.514 81.56 188.202 80.456 188.202 78.552C188.202 76.648 189.514 75.624 190.874 75.624C192.25 75.624 193.546 76.696 193.546 78.584ZM204.357 83H206.165V77.8C206.165 75.336 204.613 74.04 202.549 74.04C201.493 74.04 200.517 74.472 199.925 75.192V74.184H198.101V83H199.925V78.072C199.925 76.456 200.805 75.624 202.149 75.624C203.477 75.624 204.357 76.456 204.357 78.072V83ZM208.204 78.584C208.204 81.352 209.996 83.144 212.524 83.144C214.684 83.144 216.092 81.944 216.588 80.216H214.62C214.284 81.128 213.612 81.608 212.524 81.608C211.052 81.608 210.076 80.52 210.076 78.584C210.076 76.664 211.052 75.576 212.524 75.576C213.612 75.576 214.316 76.12 214.62 76.968H216.588C216.092 75.112 214.684 74.04 212.524 74.04C209.996 74.04 208.204 75.832 208.204 78.584ZM222.438 75.576C223.798 75.576 224.87 76.44 224.902 77.8H220.022C220.214 76.408 221.206 75.576 222.438 75.576ZM226.566 80.376H224.598C224.262 81.064 223.638 81.608 222.518 81.608C221.174 81.608 220.134 80.728 220.006 79.272H226.742C226.79 78.968 226.806 78.68 226.806 78.376C226.806 75.784 225.03 74.04 222.518 74.04C219.91 74.04 218.118 75.816 218.118 78.584C218.118 81.352 219.99 83.144 222.518 83.144C224.678 83.144 226.07 81.912 226.566 80.376ZM233.397 83H235.221V71.88H233.397V83ZM244.192 83H246V77.8C246 75.336 244.448 74.04 242.384 74.04C241.328 74.04 240.352 74.472 239.76 75.192V74.184H237.936V83H239.76V78.072C239.76 76.456 240.64 75.624 241.984 75.624C243.312 75.624 244.192 76.456 244.192 78.072V83ZM248.87 83H250.71V75.672H252.342V74.184H250.71V73.56C250.71 72.552 251.094 72.168 252.214 72.168V70.648C249.91 70.648 248.87 71.528 248.87 73.56V74.184H247.83V75.672H248.87V83ZM262.679 78.584C262.679 75.816 260.695 74.04 258.183 74.04C255.671 74.04 253.687 75.816 253.687 78.584C253.687 81.352 255.591 83.144 258.103 83.144C260.631 83.144 262.679 81.352 262.679 78.584ZM255.543 78.584C255.543 76.584 256.775 75.624 258.151 75.624C259.511 75.624 260.807 76.584 260.807 78.584C260.807 80.584 259.463 81.56 258.103 81.56C256.727 81.56 255.543 80.584 255.543 78.584ZM266.626 78.36C266.626 76.488 267.458 75.928 268.802 75.928H269.266V74.04C268.018 74.04 267.138 74.584 266.626 75.464V74.184H264.802V83H266.626V78.36ZM283.759 83H285.567V77.8C285.567 75.336 283.999 74.04 281.935 74.04C280.655 74.04 279.407 74.712 278.863 75.784C278.255 74.632 277.087 74.04 275.695 74.04C274.639 74.04 273.679 74.472 273.087 75.192V74.184H271.263V83H273.087V78.072C273.087 76.456 273.967 75.624 275.311 75.624C276.639 75.624 277.519 76.456 277.519 78.072V83H279.327V78.072C279.327 76.456 280.207 75.624 281.551 75.624C282.879 75.624 283.759 76.456 283.759 78.072V83ZM287.6 78.552C287.6 81.272 289.44 83.144 291.728 83.144C293.2 83.144 294.256 82.44 294.816 81.688V83H296.656V74.184H294.816V75.464C294.272 74.744 293.248 74.04 291.76 74.04C289.44 74.04 287.6 75.832 287.6 78.552ZM294.816 78.584C294.816 80.488 293.52 81.56 292.144 81.56C290.784 81.56 289.472 80.456 289.472 78.552C289.472 76.648 290.784 75.624 292.144 75.624C293.52 75.624 294.816 76.696 294.816 78.584ZM299.659 80.552C299.659 82.344 300.635 83 302.203 83H303.643V81.48H302.523C301.755 81.48 301.499 81.208 301.499 80.552V75.672H303.643V74.184H301.499V71.992H299.659V74.184H298.619V75.672H299.659V80.552ZM305.644 83H307.468V74.184H305.644V83ZM306.572 73.016C307.212 73.016 307.724 72.504 307.724 71.848C307.724 71.192 307.212 70.68 306.572 70.68C305.916 70.68 305.404 71.192 305.404 71.848C305.404 72.504 305.916 73.016 306.572 73.016ZM318.583 78.584C318.583 75.816 316.599 74.04 314.087 74.04C311.575 74.04 309.591 75.816 309.591 78.584C309.591 81.352 311.495 83.144 314.007 83.144C316.535 83.144 318.583 81.352 318.583 78.584ZM311.447 78.584C311.447 76.584 312.679 75.624 314.055 75.624C315.415 75.624 316.711 76.584 316.711 78.584C316.711 80.584 315.367 81.56 314.007 81.56C312.631 81.56 311.447 80.584 311.447 78.584ZM326.962 83H328.77V77.8C328.77 75.336 327.218 74.04 325.154 74.04C324.098 74.04 323.122 74.472 322.53 75.192V74.184H320.706V83H322.53V78.072C322.53 76.456 323.41 75.624 324.754 75.624C326.082 75.624 326.962 76.456 326.962 78.072V83Z" fill="white"/>
<path d="M203.268 148.5V145.776H204.78C205.848 145.776 206.328 146.28 206.328 147.144C206.328 147.984 205.848 148.5 204.78 148.5H203.268ZM207.732 147.144C207.732 145.788 206.76 144.66 204.78 144.66H201.9V153H203.268V149.616H204.78C206.952 149.616 207.732 148.332 207.732 147.144ZM208.821 149.664C208.821 151.704 210.201 153.108 211.917 153.108C213.021 153.108 213.813 152.58 214.233 152.016V153H215.613V146.388H214.233V147.348C213.825 146.808 213.057 146.28 211.941 146.28C210.201 146.28 208.821 147.624 208.821 149.664ZM214.233 149.688C214.233 151.116 213.261 151.92 212.229 151.92C211.209 151.92 210.225 151.092 210.225 149.664C210.225 148.236 211.209 147.468 212.229 147.468C213.261 147.468 214.233 148.272 214.233 149.688ZM222.582 151.152C222.51 148.764 218.778 149.508 218.778 148.176C218.778 147.732 219.162 147.432 219.894 147.432C220.638 147.432 221.082 147.828 221.13 148.404H222.498C222.426 147.084 221.442 146.28 219.942 146.28C218.382 146.28 217.398 147.132 217.398 148.188C217.398 150.612 221.238 149.868 221.238 151.164C221.238 151.62 220.818 151.956 220.026 151.956C219.27 151.956 218.754 151.512 218.706 150.972H217.29C217.35 152.172 218.466 153.108 220.05 153.108C221.61 153.108 222.582 152.268 222.582 151.152ZM229.232 151.152C229.16 148.764 225.428 149.508 225.428 148.176C225.428 147.732 225.812 147.432 226.544 147.432C227.288 147.432 227.732 147.828 227.78 148.404H229.148C229.076 147.084 228.092 146.28 226.592 146.28C225.032 146.28 224.048 147.132 224.048 148.188C224.048 150.612 227.888 149.868 227.888 151.164C227.888 151.62 227.468 151.956 226.676 151.956C225.92 151.956 225.404 151.512 225.356 150.972H223.94C224 152.172 225.116 153.108 226.7 153.108C228.26 153.108 229.232 152.268 229.232 151.152ZM232.234 153H233.674L235.006 148.116L236.338 153H237.778L239.83 146.388H238.486L237.118 151.68L235.774 146.388H234.346L232.942 151.704L231.562 146.388H230.17L232.234 153ZM247.392 149.688C247.392 147.612 245.904 146.28 244.02 146.28C242.136 146.28 240.648 147.612 240.648 149.688C240.648 151.764 242.076 153.108 243.96 153.108C245.856 153.108 247.392 151.764 247.392 149.688ZM242.04 149.688C242.04 148.188 242.964 147.468 243.996 147.468C245.016 147.468 245.988 148.188 245.988 149.688C245.988 151.188 244.98 151.92 243.96 151.92C242.928 151.92 242.04 151.188 242.04 149.688ZM250.353 149.52C250.353 148.116 250.977 147.696 251.985 147.696H252.333V146.28C251.397 146.28 250.737 146.688 250.353 147.348V146.388H248.985V153H250.353V149.52ZM253.374 149.664C253.374 151.704 254.754 153.108 256.494 153.108C257.574 153.108 258.366 152.604 258.786 152.004V153H260.166V144.12H258.786V147.312C258.282 146.688 257.37 146.28 256.506 146.28C254.754 146.28 253.374 147.624 253.374 149.664ZM258.786 149.688C258.786 151.116 257.814 151.92 256.782 151.92C255.762 151.92 254.778 151.092 254.778 149.664C254.778 148.236 255.762 147.468 256.782 147.468C257.814 147.468 258.786 148.272 258.786 149.688ZM263.619 152.208C263.619 151.716 263.235 151.332 262.755 151.332C262.263 151.332 261.879 151.716 261.879 152.208C261.879 152.7 262.263 153.084 262.755 153.084C263.235 153.084 263.619 152.7 263.619 152.208ZM263.619 147.168C263.619 146.676 263.235 146.292 262.755 146.292C262.263 146.292 261.879 146.676 261.879 147.168C261.879 147.66 262.263 148.044 262.755 148.044C263.235 148.044 263.619 147.66 263.619 147.168ZM273.625 153H275.161L272.569 148.836L275.173 144.66H273.649L271.873 147.708L269.977 144.66H268.441L271.045 148.836L268.453 153H269.977L271.741 149.976L273.625 153ZM281.787 153H283.323L280.731 148.836L283.335 144.66H281.811L280.035 147.708L278.139 144.66H276.603L279.207 148.836L276.615 153H278.139L279.903 149.976L281.787 153ZM289.949 153H291.485L288.893 148.836L291.497 144.66H289.973L288.197 147.708L286.301 144.66H284.765L287.369 148.836L284.777 153H286.301L288.065 149.976L289.949 153ZM298.111 153H299.647L297.055 148.836L299.659 144.66H298.135L296.359 147.708L294.463 144.66H292.927L295.531 148.836L292.939 153H294.463L296.227 149.976L298.111 153ZM306.273 153H307.809L305.217 148.836L307.821 144.66H306.297L304.521 147.708L302.625 144.66H301.089L303.693 148.836L301.101 153H302.625L304.389 149.976L306.273 153ZM314.435 153H315.971L313.379 148.836L315.983 144.66H314.459L312.683 147.708L310.787 144.66H309.251L311.855 148.836L309.263 153H310.787L312.551 149.976L314.435 153ZM322.597 153H324.133L321.541 148.836L324.145 144.66H322.621L320.845 147.708L318.949 144.66H317.413L320.017 148.836L317.425 153H318.949L320.713 149.976L322.597 153ZM330.759 153H332.295L329.703 148.836L332.307 144.66H330.783L329.007 147.708L327.111 144.66H325.575L328.179 148.836L325.587 153H327.111L328.875 149.976L330.759 153Z" fill="white"/>
<path d="M32.9 153H34.268V144.66H32.9V153ZM35.8481 148.812C35.8481 151.32 37.7561 153.072 40.1081 153.072C41.8481 153.072 43.3481 152.208 43.9841 150.576H42.3401C41.8961 151.464 41.1041 151.884 40.1081 151.884C38.4521 151.884 37.2521 150.696 37.2521 148.812C37.2521 146.928 38.4521 145.752 40.1081 145.752C41.1041 145.752 41.8961 146.172 42.3401 147.06H43.9841C43.3481 145.428 41.8481 144.552 40.1081 144.552C37.7561 144.552 35.8481 146.316 35.8481 148.812ZM47.2413 152.208C47.2413 151.716 46.8573 151.332 46.3773 151.332C45.8853 151.332 45.5013 151.716 45.5013 152.208C45.5013 152.7 45.8853 153.084 46.3773 153.084C46.8573 153.084 47.2413 152.7 47.2413 152.208ZM47.2413 147.168C47.2413 146.676 46.8573 146.292 46.3773 146.292C45.8853 146.292 45.5013 146.676 45.5013 147.168C45.5013 147.66 45.8853 148.044 46.3773 148.044C46.8573 148.044 47.2413 147.66 47.2413 147.168ZM53.1199 153H54.4999V144.252H52.0039V145.5H53.1199V153ZM56.6192 148.512C56.6192 151.056 57.2912 152.976 59.7392 152.976C62.1872 152.976 62.8592 151.056 62.8592 148.512C62.8592 146.016 62.1872 144.096 59.7392 144.096C57.2912 144.096 56.6192 146.016 56.6192 148.512ZM61.5152 148.512C61.5152 150.228 61.3352 151.728 59.7392 151.728C58.1432 151.728 57.9632 150.228 57.9632 148.512C57.9632 146.88 58.1432 145.344 59.7392 145.344C61.3352 145.344 61.5152 146.88 61.5152 148.512ZM64.4387 152.88H70.2707V151.74H66.4667C67.8707 150.456 70.0307 148.836 70.0307 146.712C70.0307 145.14 69.0227 144.072 67.2467 144.072C65.6987 144.072 64.4747 144.996 64.4267 146.892H65.7467C65.7827 145.908 66.2987 145.236 67.2587 145.236C68.2787 145.236 68.6747 145.86 68.6747 146.772C68.6747 148.488 66.5027 150.072 64.4387 151.884V152.88ZM71.6045 152.88H77.4365V151.74H73.6325C75.0365 150.456 77.1965 148.836 77.1965 146.712C77.1965 145.14 76.1885 144.072 74.4125 144.072C72.8645 144.072 71.6405 144.996 71.5925 146.892H72.9125C72.9485 145.908 73.4645 145.236 74.4245 145.236C75.4445 145.236 75.8405 145.86 75.8405 146.772C75.8405 148.488 73.6685 150.072 71.6045 151.884V152.88ZM79.3223 150.624C79.4303 151.872 80.2703 152.988 82.0823 152.988C84.3743 152.988 84.9983 151.416 84.9983 148.464C84.9983 145.596 84.2423 144.048 81.9863 144.048C80.1503 144.048 79.0823 145.2 79.0823 146.94C79.0823 148.788 80.3303 149.736 81.8663 149.736C82.6583 149.736 83.4143 149.436 83.8103 148.884C83.8103 151.116 83.2583 151.848 82.1663 151.848C81.2543 151.848 80.7383 151.404 80.5823 150.624H79.3223ZM82.1063 148.584C80.8943 148.584 80.3903 147.804 80.3903 146.904C80.3903 145.896 81.0023 145.188 82.0223 145.188C83.0183 145.188 83.6543 145.824 83.6543 146.94C83.6543 147.924 83.0783 148.584 82.1063 148.584ZM92.5435 153H93.9835L90.9955 144.648H89.4115L86.4235 153H87.8515L88.4515 151.296H91.9435L92.5435 153ZM91.5595 150.18H88.8355L90.2035 146.304L91.5595 150.18ZM95.6667 149.232H100.599V148.08H95.6667V149.232ZM104.474 153.012L106.01 153L107.87 146.688L109.622 153H111.17L113.642 144.66H112.178L110.438 151.416L108.698 144.66H107.162L105.29 151.452L103.562 144.66H102.11L104.474 153.012ZM114.554 148.812C114.554 151.32 116.462 153.072 118.814 153.072C120.554 153.072 122.054 152.208 122.69 150.576H121.046C120.602 151.464 119.81 151.884 118.814 151.884C117.158 151.884 115.958 150.696 115.958 148.812C115.958 146.928 117.158 145.752 118.814 145.752C119.81 145.752 120.602 146.172 121.046 147.06H122.69C122.054 145.428 120.554 144.552 118.814 144.552C116.462 144.552 114.554 146.316 114.554 148.812ZM130.16 153H131.6L128.612 144.648H127.028L124.04 153H125.468L126.068 151.296H129.56L130.16 153ZM129.176 150.18H126.452L127.82 146.304L129.176 150.18ZM132.707 145.776H134.939V153H136.307V145.776H138.527V144.66H132.707V145.776ZM145.78 153H147.22L144.232 144.648H142.648L139.66 153H141.088L141.688 151.296H145.18L145.78 153ZM144.796 150.18H142.072L143.44 146.304L144.796 150.18ZM148.58 148.512C148.58 151.056 149.252 152.976 151.7 152.976C154.148 152.976 154.82 151.056 154.82 148.512C154.82 146.016 154.148 144.096 151.7 144.096C149.252 144.096 148.58 146.016 148.58 148.512ZM153.476 148.512C153.476 150.228 153.296 151.728 151.7 151.728C150.104 151.728 149.924 150.228 149.924 148.512C149.924 146.88 150.104 145.344 151.7 145.344C153.296 145.344 153.476 146.88 153.476 148.512ZM156.507 148.512C156.507 151.056 157.179 152.976 159.627 152.976C162.075 152.976 162.747 151.056 162.747 148.512C162.747 146.016 162.075 144.096 159.627 144.096C157.179 144.096 156.507 146.016 156.507 148.512ZM161.403 148.512C161.403 150.228 161.223 151.728 159.627 151.728C158.031 151.728 157.851 150.228 157.851 148.512C157.851 146.88 158.031 145.344 159.627 145.344C161.223 145.344 161.403 146.88 161.403 148.512ZM165.371 153H166.751V144.252H164.255V145.5H165.371V153Z" fill="white"/>
<path d="M208.752 121H207.384L203.268 114.772V121H201.9V112.648H203.268L207.384 118.864V112.648H208.752V121ZM216.848 117.532C216.848 117.78 216.832 118.004 216.8 118.204H211.748C211.788 118.732 211.984 119.156 212.336 119.476C212.688 119.796 213.12 119.956 213.632 119.956C214.368 119.956 214.888 119.648 215.192 119.032H216.668C216.468 119.64 216.104 120.14 215.576 120.532C215.056 120.916 214.408 121.108 213.632 121.108C213 121.108 212.432 120.968 211.928 120.688C211.432 120.4 211.04 120 210.752 119.488C210.472 118.968 210.332 118.368 210.332 117.688C210.332 117.008 210.468 116.412 210.74 115.9C211.02 115.38 211.408 114.98 211.904 114.7C212.408 114.42 212.984 114.28 213.632 114.28C214.256 114.28 214.812 114.416 215.3 114.688C215.788 114.96 216.168 115.344 216.44 115.84C216.712 116.328 216.848 116.892 216.848 117.532ZM215.42 117.1C215.412 116.596 215.232 116.192 214.88 115.888C214.528 115.584 214.092 115.432 213.572 115.432C213.1 115.432 212.696 115.584 212.36 115.888C212.024 116.184 211.824 116.588 211.76 117.1H215.42ZM220.031 115.504V119.164C220.031 119.412 220.087 119.592 220.199 119.704C220.319 119.808 220.519 119.86 220.799 119.86H221.639V121H220.559C219.943 121 219.471 120.856 219.143 120.568C218.815 120.28 218.651 119.812 218.651 119.164V115.504H217.871V114.388H218.651V112.744H220.031V114.388H221.639V115.504H220.031ZM232.02 114.388L229.968 121H228.528L227.196 116.116L225.864 121H224.424L222.36 114.388H223.752L225.132 119.704L226.536 114.388H227.964L229.308 119.68L230.676 114.388H232.02ZM236.15 121.108C235.526 121.108 234.962 120.968 234.458 120.688C233.954 120.4 233.558 120 233.27 119.488C232.982 118.968 232.838 118.368 232.838 117.688C232.838 117.016 232.986 116.42 233.282 115.9C233.578 115.38 233.982 114.98 234.494 114.7C235.006 114.42 235.578 114.28 236.21 114.28C236.842 114.28 237.414 114.42 237.926 114.7C238.438 114.98 238.842 115.38 239.138 115.9C239.434 116.42 239.582 117.016 239.582 117.688C239.582 118.36 239.43 118.956 239.126 119.476C238.822 119.996 238.406 120.4 237.878 120.688C237.358 120.968 236.782 121.108 236.15 121.108ZM236.15 119.92C236.502 119.92 236.83 119.836 237.134 119.668C237.446 119.5 237.698 119.248 237.89 118.912C238.082 118.576 238.178 118.168 238.178 117.688C238.178 117.208 238.086 116.804 237.902 116.476C237.718 116.14 237.474 115.888 237.17 115.72C236.866 115.552 236.538 115.468 236.186 115.468C235.834 115.468 235.506 115.552 235.202 115.72C234.906 115.888 234.67 116.14 234.494 116.476C234.318 116.804 234.23 117.208 234.23 117.688C234.23 118.4 234.41 118.952 234.77 119.344C235.138 119.728 235.598 119.92 236.15 119.92ZM242.542 115.348C242.742 115.012 243.006 114.752 243.334 114.568C243.67 114.376 244.066 114.28 244.522 114.28V115.696H244.174C243.638 115.696 243.23 115.832 242.95 116.104C242.678 116.376 242.542 116.848 242.542 117.52V121H241.174V114.388H242.542V115.348ZM248.636 117.7L251.684 121H249.836L247.388 118.156V121H246.02V112.12H247.388V117.28L249.788 114.388H251.684L248.636 117.7ZM256.813 121.084C256.565 121.084 256.357 121 256.189 120.832C256.021 120.664 255.937 120.456 255.937 120.208C255.937 119.96 256.021 119.752 256.189 119.584C256.357 119.416 256.565 119.332 256.813 119.332C257.053 119.332 257.257 119.416 257.425 119.584C257.593 119.752 257.677 119.96 257.677 120.208C257.677 120.456 257.593 120.664 257.425 120.832C257.257 121 257.053 121.084 256.813 121.084ZM256.813 116.044C256.565 116.044 256.357 115.96 256.189 115.792C256.021 115.624 255.937 115.416 255.937 115.168C255.937 114.92 256.021 114.712 256.189 114.544C256.357 114.376 256.565 114.292 256.813 114.292C257.053 114.292 257.257 114.376 257.425 114.544C257.593 114.712 257.677 114.92 257.677 115.168C257.677 115.416 257.593 115.624 257.425 115.792C257.257 115.96 257.053 116.044 256.813 116.044ZM268.836 115.06C268.62 114.644 268.32 114.332 267.936 114.124C267.552 113.908 267.108 113.8 266.604 113.8C266.052 113.8 265.56 113.924 265.128 114.172C264.696 114.42 264.356 114.772 264.108 115.228C263.868 115.684 263.748 116.212 263.748 116.812C263.748 117.412 263.868 117.944 264.108 118.408C264.356 118.864 264.696 119.216 265.128 119.464C265.56 119.712 266.052 119.836 266.604 119.836C267.348 119.836 267.952 119.628 268.416 119.212C268.88 118.796 269.164 118.232 269.268 117.52H266.136V116.428H270.732V117.496C270.644 118.144 270.412 118.74 270.036 119.284C269.668 119.828 269.184 120.264 268.584 120.592C267.992 120.912 267.332 121.072 266.604 121.072C265.82 121.072 265.104 120.892 264.456 120.532C263.808 120.164 263.292 119.656 262.908 119.008C262.532 118.36 262.344 117.628 262.344 116.812C262.344 115.996 262.532 115.264 262.908 114.616C263.292 113.968 263.808 113.464 264.456 113.104C265.112 112.736 265.828 112.552 266.604 112.552C267.492 112.552 268.28 112.772 268.968 113.212C269.664 113.644 270.168 114.26 270.48 115.06H268.836ZM273.689 113.764V116.212H276.569V117.328H273.689V119.884H276.929V121H272.321V112.648H276.929V113.764H273.689ZM283.882 119.296H280.39L279.79 121H278.362L281.35 112.648H282.934L285.922 121H284.482L283.882 119.296ZM283.498 118.18L282.142 114.304L280.774 118.18H283.498ZM294.769 121.48V122.752H288.073V121.48H294.769ZM298.644 113.764V116.212H301.524V117.328H298.644V119.884H301.884V121H297.276V112.648H301.884V113.764H298.644ZM306.209 121.108C305.689 121.108 305.221 121.016 304.805 120.832C304.397 120.64 304.073 120.384 303.833 120.064C303.593 119.736 303.465 119.372 303.449 118.972H304.865C304.889 119.252 305.021 119.488 305.261 119.68C305.509 119.864 305.817 119.956 306.185 119.956C306.569 119.956 306.865 119.884 307.073 119.74C307.289 119.588 307.397 119.396 307.397 119.164C307.397 118.916 307.277 118.732 307.037 118.612C306.805 118.492 306.433 118.36 305.921 118.216C305.425 118.08 305.021 117.948 304.709 117.82C304.397 117.692 304.125 117.496 303.893 117.232C303.669 116.968 303.557 116.62 303.557 116.188C303.557 115.836 303.661 115.516 303.869 115.228C304.077 114.932 304.373 114.7 304.757 114.532C305.149 114.364 305.597 114.28 306.101 114.28C306.853 114.28 307.457 114.472 307.913 114.856C308.377 115.232 308.625 115.748 308.657 116.404H307.289C307.265 116.108 307.145 115.872 306.929 115.696C306.713 115.52 306.421 115.432 306.053 115.432C305.693 115.432 305.417 115.5 305.225 115.636C305.033 115.772 304.937 115.952 304.937 116.176C304.937 116.352 305.001 116.5 305.129 116.62C305.257 116.74 305.413 116.836 305.597 116.908C305.781 116.972 306.053 117.056 306.413 117.16C306.893 117.288 307.285 117.42 307.589 117.556C307.901 117.684 308.169 117.876 308.393 118.132C308.617 118.388 308.733 118.728 308.741 119.152C308.741 119.528 308.637 119.864 308.429 120.16C308.221 120.456 307.925 120.688 307.541 120.856C307.165 121.024 306.721 121.108 306.209 121.108ZM311.827 115.36C312.059 115.056 312.375 114.8 312.775 114.592C313.175 114.384 313.627 114.28 314.131 114.28C314.707 114.28 315.231 114.424 315.703 114.712C316.183 114.992 316.559 115.388 316.831 115.9C317.103 116.412 317.239 117 317.239 117.664C317.239 118.328 317.103 118.924 316.831 119.452C316.559 119.972 316.183 120.38 315.703 120.676C315.231 120.964 314.707 121.108 314.131 121.108C313.627 121.108 313.179 121.008 312.787 120.808C312.395 120.6 312.075 120.344 311.827 120.04V124.144H310.459V114.388H311.827V115.36ZM315.847 117.664C315.847 117.208 315.751 116.816 315.559 116.488C315.375 116.152 315.127 115.9 314.815 115.732C314.511 115.556 314.183 115.468 313.831 115.468C313.487 115.468 313.159 115.556 312.847 115.732C312.543 115.908 312.295 116.164 312.103 116.5C311.919 116.836 311.827 117.232 311.827 117.688C311.827 118.144 311.919 118.544 312.103 118.888C312.295 119.224 312.543 119.48 312.847 119.656C313.159 119.832 313.487 119.92 313.831 119.92C314.183 119.92 314.511 119.832 314.815 119.656C315.127 119.472 315.375 119.208 315.559 118.864C315.751 118.52 315.847 118.12 315.847 117.664ZM320.2 115.348C320.4 115.012 320.664 114.752 320.992 114.568C321.328 114.376 321.724 114.28 322.18 114.28V115.696H321.832C321.296 115.696 320.888 115.832 320.608 116.104C320.336 116.376 320.2 116.848 320.2 117.52V121H318.832V114.388H320.2V115.348ZM329.737 117.532C329.737 117.78 329.721 118.004 329.689 118.204H324.637C324.677 118.732 324.873 119.156 325.225 119.476C325.577 119.796 326.009 119.956 326.521 119.956C327.257 119.956 327.777 119.648 328.081 119.032H329.557C329.357 119.64 328.993 120.14 328.465 120.532C327.945 120.916 327.297 121.108 326.521 121.108C325.889 121.108 325.321 120.968 324.817 120.688C324.321 120.4 323.929 120 323.641 119.488C323.361 118.968 323.221 118.368 323.221 117.688C323.221 117.008 323.357 116.412 323.629 115.9C323.909 115.38 324.297 114.98 324.793 114.7C325.297 114.42 325.873 114.28 326.521 114.28C327.145 114.28 327.701 114.416 328.189 114.688C328.677 114.96 329.057 115.344 329.329 115.84C329.601 116.328 329.737 116.892 329.737 117.532ZM328.309 117.1C328.301 116.596 328.121 116.192 327.769 115.888C327.417 115.584 326.981 115.432 326.461 115.432C325.989 115.432 325.585 115.584 325.249 115.888C324.913 116.184 324.713 116.588 324.649 117.1H328.309ZM338.631 121.48V122.752H331.935V121.48H338.631ZM344.966 116.836L347.558 121H346.022L344.138 117.976L342.374 121H340.85L343.442 116.836L340.838 112.66H342.374L344.27 115.708L346.046 112.66H347.57L344.966 116.836Z" fill="white"/>
<path d="M33.9 121H35.268V117.352H38.028V116.236H35.268V113.776H38.808V112.66H33.9V121ZM39.8598 116.812C39.8598 119.32 41.7678 121.072 44.1198 121.072C45.8598 121.072 47.3598 120.208 47.9958 118.576H46.3518C45.9078 119.464 45.1158 119.884 44.1198 119.884C42.4638 119.884 41.2638 118.696 41.2638 116.812C41.2638 114.928 42.4638 113.752 44.1198 113.752C45.1158 113.752 45.9078 114.172 46.3518 115.06H47.9958C47.3598 113.428 45.8598 112.552 44.1198 112.552C41.7678 112.552 39.8598 114.316 39.8598 116.812ZM49.381 116.812C49.381 119.32 51.289 121.072 53.641 121.072C55.381 121.072 56.881 120.208 57.517 118.576H55.873C55.429 119.464 54.637 119.884 53.641 119.884C51.985 119.884 50.785 118.696 50.785 116.812C50.785 114.928 51.985 113.752 53.641 113.752C54.637 113.752 55.429 114.172 55.873 115.06H57.517C56.881 113.428 55.381 112.552 53.641 112.552C51.289 112.552 49.381 114.316 49.381 116.812ZM60.7743 120.208C60.7743 119.716 60.3903 119.332 59.9103 119.332C59.4183 119.332 59.0343 119.716 59.0343 120.208C59.0343 120.7 59.4183 121.084 59.9103 121.084C60.3903 121.084 60.7743 120.7 60.7743 120.208ZM60.7743 115.168C60.7743 114.676 60.3903 114.292 59.9103 114.292C59.4183 114.292 59.0343 114.676 59.0343 115.168C59.0343 115.66 59.4183 116.044 59.9103 116.044C60.3903 116.044 60.7743 115.66 60.7743 115.168ZM71.0929 112.66H65.5969V113.848H69.4609L65.5969 119.932V121H71.0929V119.812H67.2169L71.0929 113.728V112.66ZM77.4243 121H79.2123L75.5283 116.836L79.1523 112.66H77.4363L74.1963 116.464V112.66H72.8283V121H74.1963V117.268L77.4243 121ZM83.83 118.672C83.83 119.368 83.482 119.872 82.75 119.872C82.018 119.872 81.682 119.368 81.67 118.672H80.29C80.29 120.184 81.31 121.084 82.75 121.084C84.19 121.084 85.21 120.184 85.21 118.672V112.66H83.83V118.672ZM87.8195 117.232H92.7515V116.08H87.8195V117.232ZM96.627 121.012L98.163 121L100.023 114.688L101.775 121H103.323L105.795 112.66H104.331L102.591 119.416L100.851 112.66H99.315L97.443 119.452L95.715 112.66H94.263L96.627 121.012ZM106.707 116.812C106.707 119.32 108.615 121.072 110.967 121.072C112.707 121.072 114.207 120.208 114.843 118.576H113.199C112.755 119.464 111.963 119.884 110.967 119.884C109.311 119.884 108.111 118.696 108.111 116.812C108.111 114.928 109.311 113.752 110.967 113.752C111.963 113.752 112.755 114.172 113.199 115.06H114.843C114.207 113.428 112.707 112.552 110.967 112.552C108.615 112.552 106.707 114.316 106.707 116.812ZM122.313 121H123.753L120.765 112.648H119.181L116.193 121H117.621L118.221 119.296H121.713L122.313 121ZM121.329 118.18H118.605L119.973 114.304L121.329 118.18ZM124.86 113.776H127.092V121H128.46V113.776H130.68V112.66H124.86V113.776ZM137.933 121H139.373L136.385 112.648H134.801L131.813 121H133.241L133.841 119.296H137.333L137.933 121ZM136.949 118.18H134.225L135.593 114.304L136.949 118.18ZM140.732 116.512C140.732 119.056 141.404 120.976 143.852 120.976C146.3 120.976 146.972 119.056 146.972 116.512C146.972 114.016 146.3 112.096 143.852 112.096C141.404 112.096 140.732 114.016 140.732 116.512ZM145.628 116.512C145.628 118.228 145.448 119.728 143.852 119.728C142.256 119.728 142.076 118.228 142.076 116.512C142.076 114.88 142.256 113.344 143.852 113.344C145.448 113.344 145.628 114.88 145.628 116.512ZM148.66 116.512C148.66 119.056 149.332 120.976 151.78 120.976C154.228 120.976 154.9 119.056 154.9 116.512C154.9 114.016 154.228 112.096 151.78 112.096C149.332 112.096 148.66 114.016 148.66 116.512ZM153.556 116.512C153.556 118.228 153.376 119.728 151.78 119.728C150.184 119.728 150.004 118.228 150.004 116.512C150.004 114.88 150.184 113.344 151.78 113.344C153.376 113.344 153.556 114.88 153.556 116.512ZM157.523 121H158.903V112.252H156.407V113.5H157.523V121Z" fill="white"/>
<path d="M203.268 180.5V177.776H204.78C205.848 177.776 206.328 178.28 206.328 179.144C206.328 179.984 205.848 180.5 204.78 180.5H203.268ZM207.732 179.144C207.732 177.788 206.76 176.66 204.78 176.66H201.9V185H203.268V181.616H204.78C206.952 181.616 207.732 180.332 207.732 179.144ZM208.845 177.776H211.077V185H212.445V177.776H214.665V176.66H208.845V177.776ZM217.706 184.208C217.706 183.716 217.322 183.332 216.842 183.332C216.35 183.332 215.966 183.716 215.966 184.208C215.966 184.7 216.35 185.084 216.842 185.084C217.322 185.084 217.706 184.7 217.706 184.208ZM228.266 176.648V182.864L224.15 176.648H222.782V185H224.15V178.772L228.266 185H229.634V176.648H228.266ZM239.734 180.812C239.734 178.316 237.85 176.552 235.474 176.552C233.122 176.552 231.214 178.316 231.214 180.812C231.214 183.32 233.122 185.084 235.474 185.084C237.85 185.084 239.734 183.32 239.734 180.812ZM232.618 180.812C232.618 178.928 233.818 177.752 235.474 177.752C237.13 177.752 238.33 178.928 238.33 180.812C238.33 182.696 237.13 183.896 235.474 183.896C233.818 183.896 232.618 182.696 232.618 180.812ZM242.736 184.208C242.736 183.716 242.352 183.332 241.872 183.332C241.38 183.332 240.996 183.716 240.996 184.208C240.996 184.7 241.38 185.084 241.872 185.084C242.352 185.084 242.736 184.7 242.736 184.208ZM247.524 184.88H253.356V183.74H249.552C250.956 182.456 253.116 180.836 253.116 178.712C253.116 177.14 252.108 176.072 250.332 176.072C248.784 176.072 247.56 176.996 247.512 178.892H248.832C248.868 177.908 249.384 177.236 250.344 177.236C251.364 177.236 251.76 177.86 251.76 178.772C251.76 180.488 249.588 182.072 247.524 183.884V184.88ZM254.69 184.88H260.522V183.74H256.718C258.122 182.456 260.282 180.836 260.282 178.712C260.282 177.14 259.274 176.072 257.498 176.072C255.95 176.072 254.726 176.996 254.678 178.892H255.998C256.034 177.908 256.55 177.236 257.51 177.236C258.53 177.236 258.926 177.86 258.926 178.772C258.926 180.488 256.754 182.072 254.69 183.884V184.88ZM262.408 182.624C262.516 183.872 263.356 184.988 265.168 184.988C267.46 184.988 268.084 183.416 268.084 180.464C268.084 177.596 267.328 176.048 265.072 176.048C263.236 176.048 262.168 177.2 262.168 178.94C262.168 180.788 263.416 181.736 264.952 181.736C265.744 181.736 266.5 181.436 266.896 180.884C266.896 183.116 266.344 183.848 265.252 183.848C264.34 183.848 263.824 183.404 263.668 182.624H262.408ZM265.192 180.584C263.98 180.584 263.476 179.804 263.476 178.904C263.476 177.896 264.088 177.188 265.108 177.188C266.104 177.188 266.74 177.824 266.74 178.94C266.74 179.924 266.164 180.584 265.192 180.584ZM269.545 180.812C269.545 183.32 271.453 185.072 273.805 185.072C275.545 185.072 277.045 184.208 277.681 182.576H276.037C275.593 183.464 274.801 183.884 273.805 183.884C272.149 183.884 270.949 182.696 270.949 180.812C270.949 178.928 272.149 177.752 273.805 177.752C274.801 177.752 275.593 178.172 276.037 179.06H277.681C277.045 177.428 275.545 176.552 273.805 176.552C271.453 176.552 269.545 178.316 269.545 180.812ZM285.306 178.28C285.162 177.116 284.31 176.036 282.606 176.036C280.422 176.036 279.51 177.692 279.51 180.428C279.51 183.212 280.17 185 282.714 185C284.586 185 285.582 183.74 285.582 182.084C285.582 180.26 284.466 179.204 282.894 179.204C281.982 179.204 281.118 179.588 280.686 180.308C280.722 178.016 281.358 177.176 282.594 177.176C283.458 177.176 283.878 177.572 284.046 178.28H285.306ZM282.594 180.356C283.746 180.356 284.274 181.1 284.274 182.144C284.274 183.176 283.65 183.86 282.642 183.86C281.478 183.86 280.842 183.14 280.842 182.06C280.842 180.896 281.694 180.356 282.594 180.356ZM287.173 184.88H293.005V183.74H289.201C290.605 182.456 292.765 180.836 292.765 178.712C292.765 177.14 291.757 176.072 289.981 176.072C288.433 176.072 287.209 176.996 287.161 178.892H288.481C288.517 177.908 289.033 177.236 289.993 177.236C291.013 177.236 291.409 177.86 291.409 178.772C291.409 180.488 289.237 182.072 287.173 183.884V184.88ZM294.207 176.288V177.452H298.647L295.275 185H296.655L299.991 177.308V176.288H294.207ZM301.294 184.88H307.126V183.74H303.322C304.726 182.456 306.886 180.836 306.886 178.712C306.886 177.14 305.878 176.072 304.102 176.072C302.554 176.072 301.33 176.996 301.282 178.892H302.602C302.638 177.908 303.154 177.236 304.114 177.236C305.134 177.236 305.53 177.86 305.53 178.772C305.53 180.488 303.358 182.072 301.294 183.884V184.88ZM312.552 176.552C310.2 176.552 308.292 178.316 308.292 180.812C308.292 183.32 310.2 185.072 312.552 185.072C314.796 185.072 316.428 183.428 316.68 181.496V180.428H312.084V181.52H315.216C315.012 182.924 314.064 183.836 312.552 183.836C310.896 183.836 309.696 182.648 309.696 180.812C309.696 178.976 310.896 177.8 312.552 177.8C313.548 177.8 314.34 178.22 314.784 179.06H316.428C315.792 177.428 314.292 176.552 312.552 176.552ZM318.089 180.512C318.089 183.056 318.761 184.976 321.209 184.976C323.657 184.976 324.329 183.056 324.329 180.512C324.329 178.016 323.657 176.096 321.209 176.096C318.761 176.096 318.089 178.016 318.089 180.512ZM322.985 180.512C322.985 182.228 322.805 183.728 321.209 183.728C319.613 183.728 319.433 182.228 319.433 180.512C319.433 178.88 319.613 177.344 321.209 177.344C322.805 177.344 322.985 178.88 322.985 180.512ZM326.017 180.512C326.017 183.056 326.689 184.976 329.137 184.976C331.585 184.976 332.257 183.056 332.257 180.512C332.257 178.016 331.585 176.096 329.137 176.096C326.689 176.096 326.017 178.016 326.017 180.512ZM330.913 180.512C330.913 182.228 330.733 183.728 329.137 183.728C327.541 183.728 327.361 182.228 327.361 180.512C327.361 178.88 327.541 177.344 329.137 177.344C330.733 177.344 330.913 178.88 330.913 180.512ZM334.88 185H336.26V176.252H333.764V177.5H334.88V185ZM338.703 181.232H343.635V180.08H338.703V181.232ZM345.639 180.512C345.639 183.056 346.311 184.976 348.759 184.976C351.207 184.976 351.879 183.056 351.879 180.512C351.879 178.016 351.207 176.096 348.759 176.096C346.311 176.096 345.639 178.016 345.639 180.512ZM350.535 180.512C350.535 182.228 350.355 183.728 348.759 183.728C347.163 183.728 346.983 182.228 346.983 180.512C346.983 178.88 347.163 177.344 348.759 177.344C350.355 177.344 350.535 178.88 350.535 180.512Z" fill="white"/>
<path d="M33.9 185H35.268V179.288L37.824 185H38.772L41.316 179.288V185H42.684V176.66H41.22L38.304 183.2L35.376 176.66H33.9V185ZM49.55 185H50.99L48.002 176.648H46.418L43.43 185H44.858L45.458 183.296H48.95L49.55 185ZM48.566 182.18H45.842L47.21 178.304L48.566 182.18ZM51.2732 180.812C51.2732 183.32 53.1812 185.072 55.5332 185.072C57.2732 185.072 58.7732 184.208 59.4092 182.576H57.7652C57.3212 183.464 56.5292 183.884 55.5332 183.884C53.8772 183.884 52.6772 182.696 52.6772 180.812C52.6772 178.928 53.8772 177.752 55.5332 177.752C56.5292 177.752 57.3212 178.172 57.7652 179.06H59.4092C58.7732 177.428 57.2732 176.552 55.5332 176.552C53.1812 176.552 51.2732 178.316 51.2732 180.812ZM63.0077 185H64.3757V176.66H63.0077V185ZM68.3357 176.66H65.6117V185H68.3357C71.0117 185 72.7637 183.428 72.7637 180.86C72.7637 178.28 71.0117 176.66 68.3357 176.66ZM66.9797 183.884V177.776H68.3357C70.3037 177.776 71.3597 178.952 71.3597 180.86C71.3597 182.756 70.3037 183.884 68.3357 183.884H66.9797ZM74.9755 184.208C74.9755 183.716 74.5915 183.332 74.1115 183.332C73.6195 183.332 73.2355 183.716 73.2355 184.208C73.2355 184.7 73.6195 185.084 74.1115 185.084C74.5915 185.084 74.9755 184.7 74.9755 184.208ZM74.9755 179.168C74.9755 178.676 74.5915 178.292 74.1115 178.292C73.6195 178.292 73.2355 178.676 73.2355 179.168C73.2355 179.66 73.6195 180.044 74.1115 180.044C74.5915 180.044 74.9755 179.66 74.9755 179.168ZM83.3821 185H84.9181L82.3261 180.836L84.9301 176.66H83.4061L81.6301 179.708L79.7341 176.66H78.1981L80.8021 180.836L78.2101 185H79.7341L81.4981 181.976L83.3821 185ZM90.744 185H92.28L89.688 180.836L92.292 176.66H90.768L88.992 179.708L87.096 176.66H85.56L88.164 180.836L85.572 185H87.096L88.86 181.976L90.744 185ZM93.3659 181.232H98.2979V180.08H93.3659V181.232ZM104.565 185H106.101L103.509 180.836L106.113 176.66H104.589L102.813 179.708L100.917 176.66H99.3814L101.985 180.836L99.3934 185H100.917L102.681 181.976L104.565 185ZM111.927 185H113.463L110.871 180.836L113.475 176.66H111.951L110.175 179.708L108.279 176.66H106.743L109.347 180.836L106.755 185H108.279L110.043 181.976L111.927 185ZM114.549 181.232H119.481V180.08H114.549V181.232ZM125.749 185H127.285L124.693 180.836L127.297 176.66H125.773L123.997 179.708L122.101 176.66H120.565L123.169 180.836L120.577 185H122.101L123.865 181.976L125.749 185ZM133.111 185H134.647L132.055 180.836L134.659 176.66H133.135L131.359 179.708L129.463 176.66H127.927L130.531 180.836L127.939 185H129.463L131.227 181.976L133.111 185ZM135.732 181.232H140.664V180.08H135.732V181.232ZM146.932 185H148.468L145.876 180.836L148.48 176.66H146.956L145.18 179.708L143.284 176.66H141.748L144.352 180.836L141.76 185H143.284L145.048 181.976L146.932 185ZM154.294 185H155.83L153.238 180.836L155.842 176.66H154.318L152.542 179.708L150.646 176.66H149.11L151.714 180.836L149.122 185H150.646L152.41 181.976L154.294 185ZM156.916 181.232H161.848V180.08H156.916V181.232ZM168.115 185H169.651L167.059 180.836L169.663 176.66H168.139L166.363 179.708L164.467 176.66H162.931L165.535 180.836L162.943 185H164.467L166.231 181.976L168.115 185ZM175.477 185H177.013L174.421 180.836L177.025 176.66H175.501L173.725 179.708L171.829 176.66H170.293L172.897 180.836L170.305 185H171.829L173.593 181.976L175.477 185ZM178.099 181.232H183.031V180.08H178.099V181.232ZM189.299 185H190.835L188.243 180.836L190.847 176.66H189.323L187.547 179.708L185.651 176.66H184.115L186.719 180.836L184.127 185H185.651L187.415 181.976L189.299 185ZM196.66 185H198.196L195.604 180.836L198.208 176.66H196.684L194.908 179.708L193.012 176.66H191.476L194.08 180.836L191.488 185H193.012L194.776 181.976L196.66 185Z" fill="white"/>
</svg>
