<svg width="218" height="88" viewBox="0 0 218 88" fill="none" xmlns="http://www.w3.org/2000/svg">
<path d="M44 87C67.7482 87 87 67.7482 87 44C87 20.2518 67.7482 1 44 1C20.2518 1 1 20.2518 1 44C1 67.7482 20.2518 87 44 87Z" stroke="#F2A900"/>
<path d="M174 87C197.748 87 217 67.7482 217 44C217 20.2518 197.748 1 174 1C150.252 1 131 20.2518 131 44C131 67.7482 150.252 87 174 87Z" stroke="#F2A900"/>
<path d="M44 79C63.8823 79 80 63.33 80 44C80 24.67 63.8823 9 44 9C24.1178 9 8 24.67 8 44C8 63.33 24.1178 79 44 79Z" stroke="#F2A900" stroke-width="2"/>
<path d="M174 79C193.882 79 210 63.33 210 44C210 24.67 193.882 9 174 9C154.118 9 138 24.67 138 44C138 63.33 154.118 79 174 79Z" stroke="#F2A900" stroke-width="2"/>
<path d="M24.256 50.098C23.6027 50.098 23.0147 49.986 22.492 49.762C21.9693 49.5287 21.5587 49.202 21.26 48.782C20.9613 48.362 20.812 47.872 20.812 47.312H22.52C22.5573 47.732 22.7207 48.0773 23.01 48.348C23.3087 48.6187 23.724 48.754 24.256 48.754C24.8067 48.754 25.236 48.6233 25.544 48.362C25.852 48.0913 26.006 47.746 26.006 47.326C26.006 46.9993 25.908 46.7333 25.712 46.528C25.5253 46.3227 25.2873 46.164 24.998 46.052C24.718 45.94 24.326 45.8187 23.822 45.688C23.1873 45.52 22.6693 45.352 22.268 45.184C21.876 45.0067 21.54 44.736 21.26 44.372C20.98 44.008 20.84 43.5227 20.84 42.916C20.84 42.356 20.98 41.866 21.26 41.446C21.54 41.026 21.932 40.704 22.436 40.48C22.94 40.256 23.5233 40.144 24.186 40.144C25.1287 40.144 25.8987 40.382 26.496 40.858C27.1027 41.3247 27.4387 41.9687 27.504 42.79H25.74C25.712 42.4353 25.544 42.132 25.236 41.88C24.928 41.628 24.522 41.502 24.018 41.502C23.5607 41.502 23.1873 41.6187 22.898 41.852C22.6087 42.0853 22.464 42.4213 22.464 42.86C22.464 43.1587 22.5527 43.406 22.73 43.602C22.9167 43.7887 23.15 43.938 23.43 44.05C23.71 44.162 24.0927 44.2833 24.578 44.414C25.222 44.5913 25.7447 44.7687 26.146 44.946C26.5567 45.1233 26.902 45.3987 27.182 45.772C27.4713 46.136 27.616 46.626 27.616 47.242C27.616 47.7367 27.4807 48.2033 27.21 48.642C26.9487 49.0807 26.5613 49.4353 26.048 49.706C25.544 49.9673 24.9467 50.098 24.256 50.098ZM31.4552 40.27V50H29.8592V40.27H31.4552ZM41.9046 50H40.3086L35.5066 42.734V50H33.9106V40.256H35.5066L40.3086 47.508V40.256H41.9046V50ZM51.4025 43.07C51.1505 42.5847 50.8005 42.2207 50.3525 41.978C49.9045 41.726 49.3865 41.6 48.7985 41.6C48.1545 41.6 47.5805 41.7447 47.0765 42.034C46.5725 42.3233 46.1758 42.734 45.8865 43.266C45.6065 43.798 45.4665 44.414 45.4665 45.114C45.4665 45.814 45.6065 46.4347 45.8865 46.976C46.1758 47.508 46.5725 47.9187 47.0765 48.208C47.5805 48.4973 48.1545 48.642 48.7985 48.642C49.6665 48.642 50.3711 48.3993 50.9125 47.914C51.4538 47.4287 51.7851 46.7707 51.9065 45.94H48.2525V44.666H53.6145V45.912C53.5118 46.668 53.2411 47.3633 52.8025 47.998C52.3731 48.6327 51.8085 49.1413 51.1085 49.524C50.4178 49.8973 49.6478 50.084 48.7985 50.084C47.8838 50.084 47.0485 49.874 46.2925 49.454C45.5365 49.0247 44.9345 48.432 44.4865 47.676C44.0478 46.92 43.8285 46.066 43.8285 45.114C43.8285 44.162 44.0478 43.308 44.4865 42.552C44.9345 41.796 45.5365 41.208 46.2925 40.788C47.0578 40.3587 47.8931 40.144 48.7985 40.144C49.8345 40.144 50.7538 40.4007 51.5565 40.914C52.3685 41.418 52.9565 42.1367 53.3205 43.07H51.4025ZM57.1446 48.712H60.4346V50H55.5486V40.27H57.1446V48.712ZM63.7253 41.558V44.414H67.0853V45.716H63.7253V48.698H67.5053V50H62.1293V40.256H67.5053V41.558H63.7253Z" fill="white"/>
<path d="M151.228 39.27C152.264 39.27 153.169 39.4707 153.944 39.872C154.728 40.264 155.33 40.8333 155.75 41.58C156.179 42.3173 156.394 43.1807 156.394 44.17C156.394 45.1593 156.179 46.018 155.75 46.746C155.33 47.474 154.728 48.034 153.944 48.426C153.169 48.8087 152.264 49 151.228 49H148.05V39.27H151.228ZM151.228 47.698C152.367 47.698 153.239 47.39 153.846 46.774C154.453 46.158 154.756 45.29 154.756 44.17C154.756 43.0407 154.453 42.1587 153.846 41.524C153.239 40.8893 152.367 40.572 151.228 40.572H149.646V47.698H151.228ZM162.774 49.098C161.868 49.098 161.033 48.888 160.268 48.468C159.512 48.0387 158.91 47.446 158.462 46.69C158.023 45.9247 157.804 45.066 157.804 44.114C157.804 43.162 158.023 42.308 158.462 41.552C158.91 40.796 159.512 40.208 160.268 39.788C161.033 39.3587 161.868 39.144 162.774 39.144C163.688 39.144 164.524 39.3587 165.28 39.788C166.045 40.208 166.647 40.796 167.086 41.552C167.524 42.308 167.744 43.162 167.744 44.114C167.744 45.066 167.524 45.9247 167.086 46.69C166.647 47.446 166.045 48.0387 165.28 48.468C164.524 48.888 163.688 49.098 162.774 49.098ZM162.774 47.712C163.418 47.712 163.992 47.5673 164.496 47.278C165 46.9793 165.392 46.5593 165.672 46.018C165.961 45.4673 166.106 44.8327 166.106 44.114C166.106 43.3953 165.961 42.7653 165.672 42.224C165.392 41.6827 165 41.2673 164.496 40.978C163.992 40.6887 163.418 40.544 162.774 40.544C162.13 40.544 161.556 40.6887 161.052 40.978C160.548 41.2673 160.151 41.6827 159.862 42.224C159.582 42.7653 159.442 43.3953 159.442 44.114C159.442 44.8327 159.582 45.4673 159.862 46.018C160.151 46.5593 160.548 46.9793 161.052 47.278C161.556 47.5673 162.13 47.712 162.774 47.712ZM171.256 39.27V45.472C171.256 46.2093 171.448 46.7647 171.83 47.138C172.222 47.5113 172.764 47.698 173.454 47.698C174.154 47.698 174.696 47.5113 175.078 47.138C175.47 46.7647 175.666 46.2093 175.666 45.472V39.27H177.262V45.444C177.262 46.2373 177.09 46.9093 176.744 47.46C176.399 48.0107 175.937 48.4213 175.358 48.692C174.78 48.9627 174.14 49.098 173.44 49.098C172.74 49.098 172.101 48.9627 171.522 48.692C170.953 48.4213 170.5 48.0107 170.164 47.46C169.828 46.9093 169.66 46.2373 169.66 45.444V39.27H171.256ZM184.908 44.002C185.431 44.0953 185.874 44.3707 186.238 44.828C186.602 45.2853 186.784 45.8033 186.784 46.382C186.784 46.8767 186.654 47.3247 186.392 47.726C186.14 48.118 185.772 48.4307 185.286 48.664C184.801 48.888 184.236 49 183.592 49H179.7V39.27H183.41C184.073 39.27 184.642 39.382 185.118 39.606C185.594 39.83 185.954 40.1333 186.196 40.516C186.439 40.8893 186.56 41.3093 186.56 41.776C186.56 42.336 186.411 42.8027 186.112 43.176C185.814 43.5493 185.412 43.8247 184.908 44.002ZM181.296 43.358H183.27C183.793 43.358 184.199 43.2413 184.488 43.008C184.787 42.7653 184.936 42.42 184.936 41.972C184.936 41.5333 184.787 41.1927 184.488 40.95C184.199 40.698 183.793 40.572 183.27 40.572H181.296V43.358ZM183.452 47.698C183.994 47.698 184.418 47.5673 184.726 47.306C185.034 47.0447 185.188 46.6807 185.188 46.214C185.188 45.738 185.025 45.36 184.698 45.08C184.372 44.8 183.938 44.66 183.396 44.66H181.296V47.698H183.452ZM190.475 47.712H193.765V49H188.879V39.27H190.475V47.712ZM197.055 40.558V43.414H200.415V44.716H197.055V47.698H200.835V49H195.459V39.256H200.835V40.558H197.055Z" fill="white"/>
</svg>
