<svg width="30" height="30" viewBox="0 0 30 30" fill="none" xmlns="http://www.w3.org/2000/svg">
<path d="M10.4347 13.6267L11.0947 13.72L10.4347 13.6267ZM10.4213 13.72L9.76133 13.6267L10.4213 13.72ZM19.5653 13.6267L20.2253 13.5333L19.5653 13.6267ZM19.5787 13.72L18.9187 13.8133L19.5787 13.72ZM17.6667 21.6667V22.3333C17.8435 22.3333 18.013 22.2631 18.1381 22.1381C18.2631 22.013 18.3333 21.8435 18.3333 21.6667H17.6667ZM12.3333 21.6667H11.6667C11.6667 21.8435 11.7369 22.013 11.8619 22.1381C11.987 22.2631 12.1565 22.3333 12.3333 22.3333V21.6667ZM11.34 17.204L11.868 16.796L11.34 17.204ZM18.66 17.204L18.132 16.796L18.66 17.204ZM13 25H17V23.6667H13V25ZM9.77333 13.5333L9.76 13.6267L11.08 13.8133L11.0933 13.72L9.77333 13.5333ZM15 9C13.729 8.99979 12.5006 9.45818 11.5404 10.291C10.5802 11.1238 9.9528 12.2751 9.77333 13.5333L11.0933 13.72C11.2278 12.7798 11.697 11.9197 12.4146 11.2976C13.1323 10.6754 14.0502 10.3331 15 10.3333V9ZM20.2267 13.5333C20.0472 12.2751 19.4198 11.1238 18.4596 10.291C17.4994 9.45818 16.271 8.99979 15 9V10.3333C15.9497 10.3333 16.8675 10.6758 17.5851 11.2979C18.3027 11.92 18.7719 12.7799 18.9067 13.72L20.2267 13.5333ZM20.24 13.6267L20.2267 13.5333L18.9067 13.72L18.92 13.8133L20.24 13.6267ZM19.1867 17.612C20.0267 16.5267 20.4507 15.112 20.24 13.6253L18.92 13.8147C18.9964 14.339 18.966 14.8733 18.8309 15.3856C18.6957 15.8979 18.4584 16.3776 18.1333 16.796L19.1867 17.612ZM17 19.5333V21.6667H18.3333V19.5347H17V19.5333ZM17.6667 21H12.3333V22.3333H17.6667V21ZM13 21.6667V19.5347H11.6667V21.6667H13ZM9.76 13.6267C9.65865 14.3277 9.69969 15.0419 9.88067 15.7266C10.0617 16.4114 10.3789 17.0526 10.8133 17.612L11.8667 16.796C11.5416 16.3776 11.3043 15.8979 11.1691 15.3856C11.034 14.8733 11.0036 14.339 11.08 13.8147L9.76 13.6253V13.6267ZM13 19.5333C13 18.436 12.416 17.5027 11.8667 16.7947L10.8133 17.6107C11.324 18.2707 11.6667 18.9013 11.6667 19.5333H13ZM18.1333 16.7947C17.5827 17.504 17 18.436 17 19.5333H18.3333C18.3333 18.9013 18.676 18.2707 19.1867 17.6107L18.1333 16.7947ZM14.3333 5V7.66667H15.6667V5H14.3333ZM5 15.6667H7.66667V14.3333H5V15.6667ZM22.3333 15.6667H25V14.3333H22.3333V15.6667ZM9.472 9.86133L7.472 7.86133L6.528 8.80533L8.528 10.8053L9.472 9.86133ZM21.472 10.8053L23.472 8.80533L22.528 7.86133L20.528 9.86133L21.472 10.8053Z" fill="white"/>
</svg>
