<svg width="354" height="224" viewBox="0 0 354 224" fill="none" xmlns="http://www.w3.org/2000/svg">
<rect width="354" height="224" fill="#D9D9D9"/>
<rect x="2" y="2" width="351" height="218" fill="#D9D9D9"/>
<path d="M117 63.5H115.5V65V157.999V159.499H117H236.57H238.07V157.999V65V63.5H236.57H117Z" fill="#D0D0D0" stroke="white" stroke-width="3"/>
<path opacity="0.675" d="M186.947 108.79L185.875 107.695L184.804 108.79L164.598 129.42L155.75 120.385L154.678 119.291L153.607 120.385L127.553 146.986L125.056 149.536H128.625H223.286H226.854L224.357 146.986L186.947 108.79Z" fill="white" stroke="white" stroke-width="3"/>
<path opacity="0.675" d="M146.624 102.217C151.772 102.217 155.94 98.0359 155.94 92.885C155.94 87.734 151.772 83.5529 146.624 83.5529C141.477 83.5529 137.309 87.734 137.309 92.885C137.309 98.0359 141.477 102.217 146.624 102.217Z" fill="white" stroke="white" stroke-width="3"/>
<path d="M125.311 70.8145H123.811V72.3145V149.55V151.05H125.311H226.623H228.123V149.55V72.3145V70.8145H226.623H125.311Z" stroke="white" stroke-width="3"/>
</svg>
