<svg width="24" height="24" viewBox="0 0 24 24" fill="none" xmlns="http://www.w3.org/2000/svg">
<path fill-rule="evenodd" clip-rule="evenodd" d="M19.2 3.5999H4.79995C4.57904 3.5999 4.39995 3.77899 4.39995 3.9999V19.9999C4.39995 20.2208 4.57904 20.3999 4.79995 20.3999H19.2C19.4209 20.3999 19.6 20.2208 19.6 19.9999V3.9999C19.6 3.77899 19.4209 3.5999 19.2 3.5999ZM4.79995 2.3999C3.9163 2.3999 3.19995 3.11625 3.19995 3.9999V19.9999C3.19995 20.8836 3.9163 21.5999 4.79995 21.5999H19.2C20.0836 21.5999 20.7999 20.8836 20.7999 19.9999V3.9999C20.7999 3.11625 20.0836 2.3999 19.2 2.3999H4.79995Z" fill="white"/>
<path d="M8 7.5C8 7.77614 7.77614 8 7.5 8C7.22386 8 7 7.77614 7 7.5C7 7.22386 7.22386 7 7.5 7C7.77614 7 8 7.22386 8 7.5Z" fill="white"/>
<path fill-rule="evenodd" clip-rule="evenodd" d="M9 7.6002C9 7.37928 9.17909 7.2002 9.4 7.2002H16.6C16.8209 7.2002 17 7.37928 17 7.6002C17 7.82111 16.8209 8.0002 16.6 8.0002H9.4C9.17909 8.0002 9 7.82111 9 7.6002Z" fill="white"/>
<path d="M8 11.5C8 11.7761 7.77614 12 7.5 12C7.22386 12 7 11.7761 7 11.5C7 11.2239 7.22386 11 7.5 11C7.77614 11 8 11.2239 8 11.5Z" fill="white"/>
<path fill-rule="evenodd" clip-rule="evenodd" d="M9 11.6002C9 11.3793 9.17909 11.2002 9.4 11.2002H16.6C16.8209 11.2002 17 11.3793 17 11.6002C17 11.8211 16.8209 12.0002 16.6 12.0002H9.4C9.17909 12.0002 9 11.8211 9 11.6002Z" fill="white"/>
<path d="M8 15.5C8 15.7761 7.77614 16 7.5 16C7.22386 16 7 15.7761 7 15.5C7 15.2239 7.22386 15 7.5 15C7.77614 15 8 15.2239 8 15.5Z" fill="white"/>
<path fill-rule="evenodd" clip-rule="evenodd" d="M9 15.6002C9 15.3793 9.17909 15.2002 9.4 15.2002H16.6C16.8209 15.2002 17 15.3793 17 15.6002C17 15.8211 16.8209 16.0002 16.6 16.0002H9.4C9.17909 16.0002 9 15.8211 9 15.6002Z" fill="white"/>
</svg>
