<svg width="21" height="14" viewBox="0 0 21 14" fill="none" xmlns="http://www.w3.org/2000/svg">
<path d="M12.3863 11.4705L17.2164 6.75047C17.7364 6.24224 17.7364 5.41871 17.2164 4.91047C16.6963 4.40224 15.8535 4.40224 15.3334 4.91047L10.5033 9.63048C9.98326 10.1387 9.98326 10.9634 10.5033 11.4705C11.0234 11.9787 11.8662 11.9787 12.3863 11.4705Z" fill="#949494"/>
<path fill-rule="evenodd" clip-rule="evenodd" d="M20.6719 7.30507C21.2119 8.57898 21.4898 9.94436 21.4898 11.3232H18.0211C18.0211 10.3895 17.8329 9.46488 17.4673 8.60221C17.3316 8.28214 17.1725 7.97293 16.9915 7.67685L17.5782 7.10354C18.2981 6.40004 18.2981 5.25993 17.5782 4.55643C16.8583 3.85293 15.6916 3.85293 14.9717 4.55643L14.3611 5.15312C14.0934 5.00329 13.8156 4.86994 13.5294 4.75408C12.6466 4.39675 11.7004 4.21284 10.7449 4.21284C9.78937 4.21284 8.84319 4.39675 7.9604 4.75408C7.0776 5.11141 6.27548 5.63516 5.59981 6.29543C4.92415 6.95569 4.38819 7.73953 4.02252 8.60221C3.65686 9.46488 3.46865 10.3895 3.46865 11.3232H0C0 9.94436 0.277925 8.57898 0.817906 7.30507C1.35789 6.03115 2.14935 4.87364 3.14711 3.89862C4.14486 2.92361 5.32937 2.15018 6.633 1.62251C7.93663 1.09483 9.33386 0.823242 10.7449 0.823242C12.1559 0.823242 13.5532 1.09483 14.8568 1.62251C16.1604 2.15018 17.3449 2.92361 18.3427 3.89862C19.3404 4.87364 20.1319 6.03115 20.6719 7.30507Z" fill="#949494"/>
<ellipse cx="10.7455" cy="11.3236" rx="1.89616" ry="1.85294" fill="#949494"/>
</svg>
