<svg width="25" height="30" viewBox="0 0 25 30" fill="none" xmlns="http://www.w3.org/2000/svg">
<path fill-rule="evenodd" clip-rule="evenodd" d="M25 16.6666C25 23.5703 19.4037 29.1666 12.5 29.1666C5.59628 29.1666 0 23.5703 0 16.6666C0 9.76284 5.59628 4.16656 12.5 4.16656C19.4037 4.16656 25 9.76284 25 16.6666Z" fill="white"/>
<path fill-rule="evenodd" clip-rule="evenodd" d="M18.5355 11.7803L13.4477 16.8681C12.8999 17.4159 12.0122 17.4159 11.4643 16.8681C10.9165 16.3215 10.9165 15.4326 11.4643 14.8847L16.5521 9.79698C17.0999 9.24915 17.9876 9.24915 18.5355 9.79698C19.0833 10.3448 19.0833 11.2325 18.5355 11.7803Z" fill="#202020"/>
<path fill-rule="evenodd" clip-rule="evenodd" d="M14.9998 1.66633H9.99955C9.53921 1.66633 9.16638 1.2935 9.16638 0.833164C9.16638 0.372831 9.53921 0 9.99955 0H14.9998C15.4601 0 15.833 0.372831 15.833 0.833164C15.833 1.2935 15.4601 1.66633 14.9998 1.66633Z" fill="white"/>
</svg>
