<svg xmlns="http://www.w3.org/2000/svg" xmlns:xlink="http://www.w3.org/1999/xlink" width="375" height="232" viewBox="0 0 375 232">
    <defs>
        <path id="7f4n1kbaia" d="M0 0.277L248.461 0.277 248.461 230.07 0 230.07z"/>
    </defs>
    <g fill="none" fill-rule="evenodd">
        <g>
            <g>
                <g transform="translate(0 -110) translate(0 110) translate(63 1)">
                    <mask id="0fal0eo3tb" fill="#fff">
                        <use xlink:href="#7f4n1kbaia"/>
                    </mask>
                    <path fill="#FFF" d="M225.313 230.07H23.148C10.384 230.07 0 219.706 0 206.966V.276h2.653v206.69c0 11.28 9.193 20.456 20.495 20.456h202.165c11.3 0 20.495-9.176 20.495-20.456V.276h2.653v206.69c0 12.74-10.385 23.104-23.148 23.104" mask="url(#0fal0eo3tb)"/>
                </g>
                <path fill="#FFF" d="M232.16 142.974h-26.706c-1.472 0-2.665-1.204-2.665-2.69v-28.113c0-1.485 1.193-2.689 2.665-2.689h26.706c1.472 0 2.665 1.204 2.665 2.69v28.113c0 1.485-1.193 2.689-2.665 2.689M178.283 143.702h-26.706c-1.472 0-2.665-1.203-2.665-2.69V112.9c0-1.485 1.193-2.688 2.665-2.688h26.706c1.471 0 2.664 1.203 2.664 2.688v28.113c0 1.487-1.193 2.69-2.664 2.69M124.406 142.974H97.699c-1.472 0-2.664-1.204-2.664-2.69v-28.113c0-1.485 1.192-2.689 2.664-2.689h26.707c1.471 0 2.664 1.204 2.664 2.69v28.113c0 1.485-1.193 2.689-2.664 2.689" opacity=".25" transform="translate(0 -110) translate(0 110)"/>
                <path fill="#FDBA12" d="M261.79 133.751h-5.151c-.387 0-.7-.324-.7-.725v-5.102c0-.4.313-.725.7-.725h5.152c.386 0 .7.325.7.725v5.102c0 .401-.314.725-.7.725M270.042 133.751h-5.151c-.387 0-.7-.324-.7-.725v-5.102c0-.4.313-.725.7-.725h5.151c.387 0 .7.325.7.725v5.102c0 .401-.313.725-.7.725M278.294 133.751h-5.152c-.387 0-.7-.324-.7-.725v-5.102c0-.4.313-.725.7-.725h5.152c.386 0 .7.325.7.725v5.102c0 .401-.314.725-.7.725M261.79 142.246h-5.151c-.387 0-.7-.325-.7-.726v-5.101c0-.401.313-.726.7-.726h5.152c.386 0 .7.325.7.726v5.101c0 .401-.314.726-.7.726M270.042 142.246h-5.151c-.387 0-.7-.325-.7-.726v-5.101c0-.401.313-.726.7-.726h5.151c.387 0 .7.325.7.726v5.101c0 .401-.313.726-.7.726M278.294 142.246h-5.152c-.387 0-.7-.325-.7-.726v-5.101c0-.401.313-.726.7-.726h5.152c.386 0 .7.325.7.726v5.101c0 .401-.314.726-.7.726M286.545 133.751h-5.152c-.386 0-.7-.324-.7-.725v-5.102c0-.4.314-.725.7-.725h5.152c.387 0 .7.325.7.725v5.102c0 .401-.313.725-.7.725M286.545 142.246h-5.152c-.386 0-.7-.325-.7-.726v-5.101c0-.401.314-.726.7-.726h5.152c.387 0 .7.325.7.726v5.101c0 .401-.313.726-.7.726M261.79 116.763h-5.151c-.387 0-.7-.324-.7-.725v-5.102c0-.401.313-.725.7-.725h5.152c.386 0 .7.324.7.725v5.102c0 .4-.314.725-.7.725M270.042 116.763h-5.151c-.387 0-.7-.324-.7-.725v-5.102c0-.401.313-.725.7-.725h5.151c.387 0 .7.324.7.725v5.102c0 .4-.313.725-.7.725M278.294 116.763h-5.152c-.387 0-.7-.324-.7-.725v-5.102c0-.401.313-.725.7-.725h5.152c.386 0 .7.324.7.725v5.102c0 .4-.314.725-.7.725M261.79 125.257h-5.151c-.387 0-.7-.324-.7-.725v-5.102c0-.4.313-.725.7-.725h5.152c.386 0 .7.325.7.725v5.102c0 .401-.314.725-.7.725M270.042 125.257h-5.151c-.387 0-.7-.324-.7-.725v-5.102c0-.4.313-.725.7-.725h5.151c.387 0 .7.325.7.725v5.102c0 .401-.313.725-.7.725M273.142 125.257c-.387 0-.7-.324-.7-.725v-5.102c0-.4.313-.725.7-.725h5.152c.386 0 .7.325.7.725v5.102c0 .401-.314.725-.7.725h-5.152zM286.545 116.763h-5.152c-.386 0-.7-.324-.7-.725v-5.102c0-.401.314-.725.7-.725h5.152c.387 0 .7.324.7.725v5.102c0 .4-.313.725-.7.725M281.393 125.257c-.386 0-.7-.324-.7-.725v-5.102c0-.4.314-.725.7-.725h5.152c.387 0 .7.325.7.725v5.102c0 .401-.313.725-.7.725h-5.152z" transform="translate(0 -110) translate(0 110)"/>
                <path fill="#FFF" d="M294.977 172.825H80.022c-4.568 0-8.285-3.707-8.285-8.265V1h1.324v163.56c0 3.828 3.122 6.943 6.961 6.943h214.955c3.838 0 6.961-3.115 6.961-6.943V1h1.325v163.56c0 4.558-3.717 8.265-8.286 8.265M156.61 188.59c-5.195 0-9.42 4.248-9.42 9.47v3.406c0 5.222 4.225 9.47 9.42 9.47h61.782c5.193 0 9.418-4.248 9.418-9.47v-3.406c0-5.222-4.225-9.47-9.418-9.47h-61.783zm61.782 25.006h-61.783c-6.652 0-12.065-5.44-12.065-12.13v-3.406c0-6.689 5.413-12.13 12.065-12.13h61.783c6.652 0 12.064 5.441 12.064 12.13v3.406c0 6.69-5.412 12.13-12.064 12.13z" transform="translate(0 -110) translate(0 110)"/>
                <path fill="#FDBA12" d="M263.485 155.13l-1.358-3.7-1.357 3.7h2.715zm.28.776h-3.276l-.603 1.63h-1.035l2.716-7.282h1.131l2.706 7.281h-1.035l-.603-1.629zM271.448 152.831c-.175-.326-.41-.577-.707-.746-.298-.172-.623-.26-.98-.26-.349 0-.672.09-.969.265-.297.175-.534.428-.712.76-.178.331-.267.713-.267 1.149 0 .44.09.827.267 1.159.178.332.415.585.712.76.297.175.62.26.97.26.356 0 .681-.085.979-.26.297-.175.532-.428.707-.76.175-.332.262-.721.262-1.17 0-.444-.087-.828-.262-1.157m-2.792-1.511c.374-.226.808-.338 1.304-.338.51 0 .973.126 1.388.373.416.251.743.601.98 1.056.237.452.356.976.356 1.577 0 .59-.12 1.117-.357 1.582-.236.463-.563.823-.979 1.081-.415.256-.879.384-1.388.384-.488 0-.92-.113-1.293-.336-.374-.225-.659-.505-.854-.839v3.86h-.953v-8.64h.953v1.078c.188-.334.47-.614.843-.838M278.73 152.831c-.176-.326-.411-.577-.708-.746-.297-.172-.624-.26-.98-.26-.349 0-.672.09-.969.265-.297.175-.535.428-.712.76-.178.331-.267.713-.267 1.149 0 .44.089.827.267 1.159.177.332.415.585.712.76.297.175.62.26.97.26.355 0 .682-.085.979-.26.297-.175.532-.428.707-.76.175-.332.262-.721.262-1.17 0-.444-.087-.828-.262-1.157m-2.792-1.511c.373-.226.808-.338 1.304-.338.51 0 .973.126 1.388.373.416.251.743.601.98 1.056.237.452.356.976.356 1.577 0 .59-.119 1.117-.356 1.582-.237.463-.564.823-.98 1.081-.415.256-.878.384-1.388.384-.489 0-.92-.113-1.294-.336-.374-.225-.658-.505-.853-.839v3.86h-.954v-8.64h.954v1.078c.188-.334.469-.614.843-.838M281.837 157.314c-.344-.148-.615-.354-.815-.618-.198-.264-.308-.568-.329-.91h.968c.028.281.16.51.397.688.238.18.548.27.932.27.358 0 .639-.08.845-.236.206-.159.31-.358.31-.599 0-.246-.11-.43-.33-.55-.22-.12-.56-.239-1.02-.357-.42-.108-.76-.221-1.025-.334-.264-.113-.491-.281-.68-.502-.19-.224-.284-.518-.284-.883 0-.286.087-.55.258-.79.172-.24.416-.43.731-.571.316-.141.677-.211 1.082-.211.625 0 1.13.158 1.514.472.384.316.591.748.619 1.296h-.938c-.02-.293-.139-.53-.355-.708-.216-.179-.507-.269-.87-.269-.337 0-.605.073-.804.216-.2.146-.3.334-.3.565 0 .187.061.34.18.46.121.12.272.217.455.287.181.073.434.153.757.244.405.108.735.216.989.323.254.107.472.267.653.479.183.213.277.49.284.833 0 .31-.086.586-.258.835-.171.246-.413.44-.726.58-.312.14-.671.211-1.076.211-.433 0-.82-.072-1.164-.22" transform="translate(0 -110) translate(0 110)"/>
            </g>
        </g>
    </g>
</svg>
