<svg xmlns="http://www.w3.org/2000/svg" xmlns:xlink="http://www.w3.org/1999/xlink" width="375" height="232" viewBox="0 0 375 232">
    <defs>
        <path id="mz0qak4lwa" d="M0 0.276L247.817 0.276 247.817 230.07 0 230.07z"/>
        <path id="kfsspyge6c" d="M0.494 0.171L232.041 0.171 232.041 189.298 0.494 189.298z"/>
        <path id="0xjqs2hlle" d="M0 230.07L247.629 230.07 247.629 0 0 0z"/>
    </defs>
    <g fill="none" fill-rule="evenodd">
        <g>
            <g>
                <g transform="translate(0 -110) translate(0 110) translate(62.832 1)">
                    <path fill="#FFF" d="M78.901 71.35h26.635c1.468 0 2.658 1.204 2.658 2.69v28.113c0 1.485-1.19 2.69-2.658 2.69H78.901c-1.467 0-2.657-1.205-2.657-2.69V74.04c0-1.486 1.19-2.69 2.657-2.69M26.62 71.35h26.635c1.468 0 2.657 1.204 2.657 2.69v28.113c0 1.485-1.19 2.69-2.657 2.69H26.62c-1.468 0-2.658-1.205-2.658-2.69V74.04c0-1.486 1.19-2.69 2.658-2.69M133.361 70.623h26.635c1.468 0 2.658 1.203 2.658 2.69v28.113c0 1.485-1.19 2.688-2.658 2.688h-26.635c-1.467 0-2.657-1.203-2.657-2.688V73.312c0-1.486 1.19-2.69 2.657-2.69M187.095 71.35h26.635c1.468 0 2.658 1.204 2.658 2.69v28.113c0 1.485-1.19 2.69-2.658 2.69h-26.635c-1.467 0-2.657-1.205-2.657-2.69V74.04c0-1.486 1.19-2.69 2.657-2.69M78.901 141.246h26.635c1.468 0 2.658 1.204 2.658 2.69v28.113c0 1.485-1.19 2.688-2.658 2.688H78.901c-1.467 0-2.657-1.203-2.657-2.688v-28.114c0-1.485 1.19-2.69 2.657-2.69M26.62 141.246h26.635c1.468 0 2.657 1.204 2.657 2.69v28.113c0 1.485-1.19 2.688-2.657 2.688H26.62c-1.468 0-2.658-1.203-2.658-2.688v-28.114c0-1.485 1.19-2.69 2.658-2.69M133.361 140.518h26.635c1.468 0 2.658 1.203 2.658 2.688v28.114c0 1.485-1.19 2.689-2.658 2.689h-26.635c-1.467 0-2.657-1.204-2.657-2.69v-28.113c0-1.485 1.19-2.688 2.657-2.688" opacity=".25"/>
                    <g>
                        <mask id="uoiu3w75ab" fill="#fff">
                            <use xlink:href="#mz0qak4lwa"/>
                        </mask>
                        <path fill="#FFF" d="M247.818 230.07h-2.646V23.38c0-11.278-9.17-20.456-20.442-20.456H23.088c-11.272 0-20.442 9.178-20.442 20.457v206.69H0V23.38C0 10.64 10.357.276 23.088.276H224.73c12.73 0 23.088 10.364 23.088 23.105v206.69z" mask="url(#uoiu3w75ab)"/>
                    </g>
                    <g transform="translate(7.987 40.044)">
                        <mask id="4zqbstbe1d" fill="#fff">
                            <use xlink:href="#kfsspyge6c"/>
                        </mask>
                        <path fill="#FFF" d="M232.04 189.298h-1.324V8.494c0-3.86-3.148-7.001-7.018-7.001H8.836c-3.869 0-7.018 3.141-7.018 7.001v180.804H.494V8.494C.494 3.905 4.237.171 8.836.171h214.862c4.6 0 8.343 3.734 8.343 8.323v180.804z" mask="url(#4zqbstbe1d)"/>
                    </g>
                    <path fill="#FFF" d="M85.043 18.757c-.923 0-1.673.73-1.673 1.628 0 .899.75 1.63 1.673 1.63h78.252c.922 0 1.672-.731 1.672-1.63 0-.898-.75-1.628-1.672-1.628H85.043zm78.252 4.541H85.043c-1.649 0-2.99-1.308-2.99-2.913 0-1.606 1.341-2.911 2.99-2.911h78.252c1.648 0 2.99 1.305 2.99 2.91 0 1.606-1.342 2.914-2.99 2.914z"/>
                    <path fill="#FDBA12" d="M180.618 186.865c-.391-.167-.697-.4-.92-.695-.222-.296-.336-.638-.343-1.027h1.042c.036.335.18.615.436.843.254.228.625.343 1.111.343.466 0 .834-.111 1.103-.334.268-.22.402-.504.402-.852 0-.271-.079-.493-.236-.662-.158-.171-.355-.3-.59-.388-.238-.09-.556-.185-.958-.287-.494-.122-.89-.244-1.187-.368-.297-.122-.552-.314-.763-.577-.212-.262-.317-.613-.317-1.056 0-.389.104-.732.312-1.032.207-.299.499-.53.876-.694.375-.163.807-.246 1.294-.246.702 0 1.277.167 1.725.502.447.334.7.775.758 1.326h-1.075c-.035-.272-.187-.512-.451-.72-.265-.207-.616-.31-1.053-.31-.41 0-.742.1-1 .3-.257.201-.387.483-.387.843 0 .26.077.47.231.633.155.164.345.288.57.373.226.084.543.182.95.29.495.13.893.259 1.193.385.301.125.56.319.774.58.216.263.323.619.323 1.069 0 .346-.097.672-.29.979-.194.307-.48.555-.86.746-.38.19-.827.285-1.344.285-.494 0-.936-.082-1.326-.25M189.7 182.87c-.167-.258-.394-.454-.68-.588-.286-.133-.603-.2-.951-.2-.501 0-.927.15-1.279.452-.352.303-.553.721-.603 1.257h3.763c0-.358-.083-.665-.25-.921m1.24 1.682h-4.765c.037.555.238.99.605 1.301.366.313.81.469 1.332.469.428 0 .785-.095 1.071-.282.287-.19.488-.442.605-.757h1.066c-.16.541-.48.982-.957 1.321-.48.341-1.074.51-1.785.51-.566 0-1.071-.12-1.517-.36-.447-.24-.797-.582-1.05-1.023-.255-.443-.38-.957-.38-1.54 0-.583.122-1.094.369-1.533.246-.44.592-.777 1.039-1.013.446-.238.959-.356 1.54-.356.565 0 1.065.117 1.5.351.435.233.77.554 1.006.962.236.408.354.87.354 1.383 0 .178-.011.368-.033.567M193.968 182.094v3.428c0 .284.054.483.162.6.108.116.295.174.561.174h.639v.818h-.78c-.484 0-.845-.123-1.086-.372-.241-.247-.362-.654-.362-1.22v-3.428h-.677v-.795h.677v-1.466h.866v1.466h1.362v.795h-1.362zM197.599 182.094v3.428c0 .284.053.483.162.6.107.116.295.174.561.174h.639v.818h-.781c-.483 0-.845-.123-1.086-.372-.241-.247-.362-.654-.362-1.22v-3.428h-.676v-.795h.676v-1.466h.867v1.466h1.362v.795h-1.362z"/>
                    <mask id="1wpn2ja7zf" fill="#fff">
                        <use xlink:href="#0xjqs2hlle"/>
                    </mask>
                    <path fill="#FDBA12" d="M199.866 187.114h1.082v-5.767h-1.082v5.767zm.035-6.894c-.142-.126-.214-.28-.214-.462 0-.183.072-.337.214-.464.143-.126.317-.189.524-.189.199 0 .367.063.506.189.139.127.208.281.208.464 0 .181-.07.336-.208.462-.139.127-.307.19-.506.19-.207 0-.38-.063-.524-.19zM207.032 181.92c.428.422.642 1.028.642 1.823v3.371h-.931v-3.237c0-.57-.142-1.007-.425-1.31-.283-.302-.67-.454-1.16-.454-.497 0-.892.157-1.185.47-.294.314-.44.77-.44 1.368v3.163h-.942v-5.72h.942v.814c.186-.293.44-.519.761-.68.322-.159.674-.239 1.06-.239.692 0 1.25.21 1.678.631M213.713 183.127c-.174-.324-.41-.571-.706-.744-.295-.173-.621-.26-.976-.26-.356 0-.68.086-.972.255-.293.17-.526.415-.7.739-.174.324-.261.703-.261 1.141 0 .444.087.83.261 1.157.174.327.407.578.7.75.292.173.616.258.972.258.355 0 .68-.085.976-.257.297-.173.532-.424.706-.751.174-.327.262-.71.262-1.147 0-.436-.088-.816-.262-1.141m-.57-1.51c.373.218.65.493.832.824v-1.056h.96v5.916c0 .528-.11.998-.334 1.41-.222.411-.541.734-.955.968-.415.231-.898.347-1.449.347-.751 0-1.378-.179-1.88-.539-.501-.357-.798-.848-.888-1.469h.94c.105.352.32.637.648.852.327.213.722.323 1.18.323.523 0 .95-.168 1.28-.498.332-.33.498-.797.498-1.394v-1.215c-.188.337-.467.62-.837.846-.369.223-.8.337-1.296.337-.508 0-.97-.127-1.384-.38-.415-.254-.74-.61-.977-1.067-.237-.459-.354-.98-.354-1.564 0-.591.117-1.11.354-1.558.237-.447.562-.794.977-1.04.415-.247.876-.37 1.384-.37.496 0 .93.11 1.301.327M217.529 186.893c-.343-.148-.613-.354-.813-.618-.198-.263-.307-.568-.328-.91h.966c.027.28.16.51.396.69.236.178.546.267.93.267.355 0 .636-.079.842-.236.205-.158.308-.357.308-.598 0-.247-.11-.43-.329-.55-.219-.12-.558-.24-1.017-.356-.418-.11-.758-.221-1.022-.334-.263-.114-.49-.281-.678-.503-.189-.225-.283-.517-.283-.882 0-.287.086-.552.257-.791.171-.24.415-.43.73-.571.314-.142.674-.212 1.078-.212.624 0 1.127.158 1.511.474.383.315.588.747.616 1.296h-.935c-.02-.295-.138-.53-.354-.71-.216-.178-.506-.267-.869-.267-.335 0-.603.071-.801.216-.2.145-.298.333-.298.565 0 .187.06.338.18.459.12.12.27.216.452.287.181.074.434.154.755.243.404.11.733.217.987.324.253.107.471.266.652.479.181.212.276.49.283.833 0 .309-.086.586-.257.834-.172.247-.413.44-.724.582-.312.14-.67.21-1.074.21-.432 0-.819-.074-1.161-.22M200.005 163.363c-3.257 0-5.848-2.537-5.848-5.734 0-3.196 2.591-5.734 5.848-5.734 3.258 0 5.848 2.538 5.848 5.734.003 3.197-2.587 5.734-5.848 5.734zm12.449-4.095c.083-.492.083-1.063.083-1.639 0-.575-.083-1.063-.083-1.638l3.508-2.701c.333-.244.416-.655.166-1.064l-3.34-5.654c-.167-.327-.668-.492-1.004-.327l-4.177 1.638c-.837-.655-1.838-1.23-2.841-1.638l-.584-4.344c-.083-.327-.416-.655-.833-.655h-6.685c-.417 0-.753.328-.837.655l-.666 4.34c-1.004.412-1.92.983-2.84 1.638l-4.178-1.638c-.417-.164-.837 0-1.004.328l-3.34 5.654c-.167.327-.084.819.167 1.063l3.594 2.705c0 .575-.084 1.063-.084 1.638 0 .576.084 1.064.084 1.639l-3.51 2.702c-.335.244-.418.655-.168 1.062l3.34 5.654c.167.328.668.492 1.004.328l4.177-1.638c.837.655 1.838 1.23 2.841 1.638l.667 4.34c.084.41.417.655.837.655h6.685c.416 0 .752-.328.836-.656l.67-4.339c1.004-.411 1.92-.983 2.841-1.638l4.177 1.638c.417.164.837 0 1.004-.328l3.34-5.654c.167-.328.083-.818-.167-1.062l-3.68-2.702z" mask="url(#1wpn2ja7zf)"/>
                </g>
            </g>
        </g>
    </g>
</svg>
