<svg xmlns="http://www.w3.org/2000/svg" xmlns:xlink="http://www.w3.org/1999/xlink" width="375" height="232" viewBox="0 0 375 232">
    <defs>
        <path id="rm2crzlwfa" d="M0 0.276L247.817 0.276 247.817 230.07 0 230.07z"/>
        <path id="jsurcrm4yc" d="M0.494 0.171L232.04 0.171 232.04 189.298 0.494 189.298z"/>
        <path id="lw7ensxzge" d="M0 230.07L247.629 230.07 247.629 0 0 0z"/>
    </defs>
    <g fill="none" fill-rule="evenodd">
        <g>
            <g>
                <g transform="translate(0 -110) translate(0 110) translate(62.832 1)">
                    <path fill="#FFF" d="M25.116 103.386h107.34c.636 0 1.153.493 1.153 1.101v4.35c0 .609-.517 1.102-1.154 1.102H25.116c-.637 0-1.154-.493-1.154-1.102v-4.35c0-.608.517-1.101 1.154-1.101M25.6 84.456h155.747c.906 0 1.639.733 1.639 1.636v9.832c0 .904-.733 1.637-1.639 1.637H25.601c-.905 0-1.639-.733-1.639-1.637v-9.832c0-.903.734-1.636 1.639-1.636M25.116 157.991h107.34c.636 0 1.153.493 1.153 1.101v4.35c0 .609-.517 1.102-1.154 1.102H25.116c-.637 0-1.154-.493-1.154-1.101v-4.35c0-.609.517-1.102 1.154-1.102M25.6 139.061h155.747c.906 0 1.639.733 1.639 1.637v9.832c0 .904-.733 1.637-1.639 1.637H25.601c-.905 0-1.639-.733-1.639-1.637v-9.832c0-.904.734-1.637 1.639-1.637M25.116 206.044h107.34c.636 0 1.153.493 1.153 1.1v4.352c0 .608-.517 1.1-1.154 1.1H25.116c-.637 0-1.154-.492-1.154-1.1v-4.351c0-.608.517-1.101 1.154-1.101M25.6 187.114h155.747c.906 0 1.639.733 1.639 1.637v9.832c0 .903-.733 1.636-1.639 1.636H25.601c-.905 0-1.639-.733-1.639-1.636v-9.832c0-.904.734-1.637 1.639-1.637" opacity=".25"/>
                    <g>
                        <mask id="k3lpgzppxb" fill="#fff">
                            <use xlink:href="#rm2crzlwfa"/>
                        </mask>
                        <path fill="#FFF" d="M247.818 230.07h-2.646V23.38c0-11.278-9.17-20.456-20.442-20.456H23.087c-11.271 0-20.441 9.178-20.441 20.457v206.69H0V23.38C0 10.64 10.357.276 23.087.276H224.73c12.73 0 23.088 10.364 23.088 23.105v206.69z" mask="url(#k3lpgzppxb)"/>
                    </g>
                    <g transform="translate(7.987 40.044)">
                        <mask id="i494bi490d" fill="#fff">
                            <use xlink:href="#jsurcrm4yc"/>
                        </mask>
                        <path fill="#FFF" d="M232.04 189.298h-1.324V8.494c0-3.86-3.148-7.001-7.018-7.001H8.836c-3.869 0-7.018 3.141-7.018 7.001v180.804H.494V8.494C.494 3.905 4.237.171 8.836.171h214.862c4.6 0 8.342 3.734 8.342 8.323v180.804z" mask="url(#i494bi490d)"/>
                    </g>
                    <path fill="#FFF" d="M85.043 18.757c-.922 0-1.673.73-1.673 1.628 0 .899.751 1.63 1.673 1.63h78.252c.922 0 1.672-.731 1.672-1.63 0-.898-.75-1.628-1.672-1.628H85.043zm78.252 4.541H85.043c-1.649 0-2.99-1.308-2.99-2.913 0-1.606 1.341-2.911 2.99-2.911h78.252c1.649 0 2.99 1.305 2.99 2.91 0 1.606-1.341 2.914-2.99 2.914z"/>
                    <path fill="#212121" d="M221.56 221.333H74.703c-1.155 0-2.09-.938-2.09-2.095V71.99c0-1.157.935-2.095 2.09-2.095h146.855c1.155 0 2.09.938 2.09 2.095v147.248c0 1.157-.935 2.095-2.09 2.095"/>
                    <path fill="#FFF" d="M89.844 175.943c-.39-.168-.697-.405-.92-.713-.223-.306-.336-.665-.336-1.075h1.277c.028.308.152.56.371.758.22.198.528.297.925.297.412 0 .733-.097.963-.292.23-.194.345-.446.345-.753 0-.239-.071-.432-.214-.583-.143-.15-.322-.267-.534-.348-.213-.082-.507-.172-.884-.266-.474-.123-.859-.247-1.155-.375-.297-.126-.55-.322-.758-.588-.21-.266-.315-.621-.315-1.065 0-.41.106-.77.315-1.075.209-.308.502-.543.878-.708.377-.164.812-.245 1.307-.245.705 0 1.282.173 1.73.518.451.344.7.817.749 1.417H92.27c-.02-.259-.146-.481-.376-.665-.23-.185-.533-.277-.91-.277-.342 0-.62.086-.837.256-.216.171-.324.416-.324.737 0 .22.068.398.204.538.136.14.308.252.518.333.209.082.495.17.858.266.48.13.873.26 1.176.39.303.129.56.328.773.599.213.27.32.63.32 1.08 0 .363-.1.704-.298 1.024-.2.32-.489.578-.869.773-.38.196-.827.292-1.344.292-.488 0-.927-.083-1.317-.25M103.396 170.65c.363.187.648.465.856.831.207.37.311.812.311 1.333v3.379h-1.193v-3.203c0-.513-.13-.906-.391-1.18-.26-.275-.615-.412-1.066-.412-.45 0-.808.137-1.072.411-.264.275-.396.668-.396 1.18v3.204h-1.193v-3.203c0-.513-.13-.906-.39-1.18-.26-.275-.617-.412-1.067-.412-.45 0-.808.137-1.072.411-.264.275-.396.668-.396 1.18v3.204h-1.203v-5.731h1.203v.655c.197-.235.447-.419.75-.55.302-.133.626-.199.971-.199.465 0 .88.098 1.246.293.366.193.647.474.845.841.176-.346.45-.622.823-.827.374-.204.775-.307 1.204-.307.458 0 .868.094 1.23.282M110.403 172.262c-.16-.286-.371-.504-.631-.654-.26-.15-.54-.226-.842-.226-.301 0-.581.073-.842.22-.26.147-.47.362-.63.646-.162.282-.242.618-.242 1.007 0 .39.08.73.241 1.023.161.294.373.518.637.67.263.155.542.231.836.231.301 0 .582-.074.842-.225.26-.15.47-.37.63-.66.162-.29.242-.63.242-1.018 0-.39-.08-.727-.241-1.014m-4.034-.512c.236-.436.558-.776.966-1.017.406-.242.857-.365 1.349-.365.444 0 .833.088 1.165.262.332.175.596.39.795.65v-.819h1.18v5.64h-1.18v-.84c-.199.266-.469.488-.811.666-.342.177-.732.266-1.17.266-.485 0-.93-.125-1.334-.373-.404-.25-.724-.598-.96-1.045-.236-.446-.353-.954-.353-1.52 0-.566.117-1.067.353-1.505M115.156 170.614c.288-.163.63-.246 1.025-.246v1.228h-.301c-.465 0-.818.118-1.057.355-.24.235-.36.645-.36 1.226v3.016h-1.186v-5.73h1.187v.833c.172-.292.404-.52.692-.682M118.99 171.347v3.227c0 .218.055.375.167.47.111.097.302.144.572.144h.81v1.005h-1.041c-.593 0-1.048-.126-1.365-.381-.316-.254-.473-.666-.473-1.238v-3.227h-.752v-.985h.752v-1.45h1.33v1.45h1.548v.985h-1.549zM128.147 170.65c.347.187.617.465.813.831.194.37.292.812.292 1.333v3.379h-1.14v-3.203c0-.513-.124-.906-.373-1.18-.248-.275-.588-.412-1.019-.412-.43 0-.77.137-1.023.411-.253.275-.378.668-.378 1.18v3.204h-1.15v-5.731h1.15v.655c.188-.235.428-.419.72-.55.293-.133.604-.199.934-.199.437 0 .828.094 1.174.282M135.24 172.775c-.007-.43-.168-.775-.481-1.035-.314-.258-.702-.388-1.167-.388-.42 0-.78.127-1.08.384-.3.256-.478.601-.535 1.04h3.263zm1.23.94h-4.503c.035.451.21.813.524 1.086.313.273.7.41 1.155.41.657 0 1.12-.263 1.391-.788h1.315c-.177.518-.5.943-.968 1.273-.467.33-1.046.497-1.738.497-.563 0-1.068-.12-1.514-.363-.445-.242-.795-.583-1.048-1.023-.253-.442-.38-.952-.38-1.531 0-.58.123-1.089.369-1.53.246-.44.592-.78 1.038-1.019.446-.238.957-.359 1.535-.359.557 0 1.052.116 1.487.35.435.232.773.556 1.017.976.241.42.363.903.363 1.45 0 .211-.014.402-.043.571zM138.594 171.347v3.227c0 .218.056.375.168.47.112.097.302.144.572.144h.81v1.005h-1.04c-.594 0-1.05-.126-1.366-.381-.316-.254-.473-.666-.473-1.238v-3.227h-.752v-.985h.752v-1.45h1.33v1.45h1.549v.985h-1.55zM149.584 170.368L147.732 176.193 146.434 176.193 145.233 171.891 144.031 176.193 142.732 176.193 140.87 170.368 142.126 170.368 143.37 175.05 144.637 170.368 145.925 170.368 147.137 175.031 148.372 170.368zM153.289 174.965c.265-.144.48-.358.646-.644.165-.288.248-.635.248-1.045 0-.41-.079-.756-.238-1.039-.158-.283-.368-.497-.63-.639-.262-.144-.545-.217-.848-.217-.303 0-.584.073-.842.217-.259.142-.464.356-.615.64-.152.282-.228.628-.228 1.038 0 .607.157 1.076.47 1.406.315.331.708.497 1.184.497.303 0 .588-.072.853-.214m-2.31.865c-.435-.243-.776-.584-1.024-1.023-.248-.442-.371-.952-.371-1.531 0-.573.126-1.082.382-1.526.255-.443.602-.785 1.044-1.023.44-.238.934-.359 1.478-.359.544 0 1.037.12 1.478.359.441.238.789.58 1.044 1.023.255.444.383.953.383 1.526 0 .573-.131 1.082-.393 1.525-.262.444-.619.786-1.07 1.029-.451.242-.95.363-1.494.363-.537 0-1.023-.121-1.457-.363M158.724 170.614c.288-.163.63-.246 1.025-.246v1.228h-.301c-.465 0-.818.118-1.057.355-.24.235-.36.645-.36 1.226v3.016h-1.186v-5.73h1.187v.833c.172-.292.404-.52.692-.682M163.549 173.216L166.285 176.193 164.626 176.193 162.429 173.627 162.429 176.193 161.202 176.193 161.202 168.184 162.429 168.184 162.429 172.838 164.583 170.23 166.285 170.23zM170.31 175.951c-.339-.159-.607-.378-.804-.654-.198-.275-.304-.585-.317-.926h1.166c.02.239.13.439.33.598.202.161.453.24.757.24.316 0 .56-.062.735-.187.175-.127.262-.29.262-.487 0-.213-.097-.37-.292-.47-.194-.103-.501-.215-.923-.34-.408-.114-.74-.227-.997-.337-.257-.109-.48-.276-.667-.501-.188-.226-.281-.522-.281-.89 0-.3.085-.575.257-.824.17-.25.416-.446.735-.588.319-.144.687-.217 1.101-.217.62 0 1.118.163 1.496.488.38.324.582.765.608 1.324h-1.126c-.02-.252-.118-.453-.296-.603-.178-.15-.418-.225-.72-.225-.298 0-.525.057-.683.173-.158.117-.237.27-.237.462 0 .15.053.275.158.378.105.103.235.182.386.24.15.059.375.132.671.22.395.11.72.221.973.334.253.112.473.277.657.495.184.219.28.51.287.87 0 .321-.086.608-.257.86-.172.253-.413.45-.727.594-.312.142-.68.215-1.1.215-.43 0-.812-.082-1.151-.242M182.986 170.368L181.134 176.193 179.836 176.193 178.634 171.891 177.432 176.193 176.134 176.193 174.272 170.368 175.527 170.368 176.773 175.05 178.038 170.368 179.327 170.368 180.539 175.031 181.774 170.368z"/>
                    <mask id="e7k7v2c0jf" fill="#fff">
                        <use xlink:href="#lw7ensxzge"/>
                    </mask>
                    <path fill="#FFF" d="M183.862 176.193h1.142v-5.731h-1.142v5.731zm.06-6.708c-.14-.147-.21-.326-.21-.542 0-.214.07-.394.21-.54.14-.145.314-.219.521-.219.2 0 .37.074.511.218.14.147.21.327.21.541 0 .216-.07.395-.21.542-.14.146-.31.217-.511.217-.207 0-.38-.071-.521-.217zM187.972 171.347v3.227c0 .218.056.375.167.47.112.097.303.144.573.144h.809v1.005h-1.04c-.594 0-1.049-.126-1.365-.381-.316-.254-.474-.666-.474-1.238v-3.227h-.752v-.985h.752v-1.45h1.33v1.45h1.549v.985h-1.55zM190.63 171.746c.254-.44.607-.78 1.059-1.019.45-.238.967-.359 1.552-.359.739 0 1.35.162 1.834.488.485.324.812.786.981 1.387h-1.363c-.111-.28-.288-.499-.532-.656-.244-.156-.55-.235-.92-.235-.518 0-.93.169-1.236.506-.308.339-.46.81-.46 1.418 0 .607.152 1.083.46 1.424.306.34.718.51 1.236.51.731 0 1.215-.296 1.452-.89h1.363c-.177.573-.51 1.029-.998 1.366-.487.339-1.093.507-1.817.507-.585 0-1.102-.12-1.552-.363-.452-.242-.805-.583-1.06-1.023-.254-.442-.382-.952-.382-1.531 0-.58.128-1.089.382-1.53M200.791 170.425c.333.195.595.483.787.865.192.384.287.844.287 1.387v3.516h-1.14v-3.333c0-.534-.124-.943-.372-1.229-.249-.285-.589-.428-1.02-.428-.43 0-.77.143-1.022.428-.253.286-.38.695-.38 1.229v3.333h-1.149v-8.009h1.15v2.738c.195-.252.442-.447.742-.584.299-.138.626-.206.982-.206.424 0 .803.097 1.135.293" mask="url(#e7k7v2c0jf)"/>
                    <g fill="#A5A5A5" mask="url(#e7k7v2c0jf)">
                        <g>
                            <path d="M4.48 4.984L3.322 1.638 2.164 4.984H4.48zm.24.703H1.924L1.41 7.159H.528L2.844.575h.966L6.117 7.16h-.883L4.72 5.687zM10.85 3.521c-.152-.292-.36-.516-.62-.671-.26-.155-.546-.232-.86-.232-.312 0-.597.075-.853.228-.258.15-.463.374-.618.664-.152.292-.23.634-.23 1.027 0 .4.078.745.23 1.04.155.295.36.52.618.674.256.157.54.233.853.233.314 0 .6-.076.86-.233.26-.155.468-.379.62-.673.155-.296.23-.64.23-1.031 0-.393-.075-.735-.23-1.026m-3.723-.386c.21-.402.496-.713.86-.935.365-.222.775-.333 1.227-.333.392 0 .757.093 1.094.28.337.187.595.433.772.736V.13h.847v7.03h-.847v-.978c-.165.31-.41.565-.735.765-.324.199-.705.3-1.14.3-.448 0-.853-.116-1.218-.344-.364-.228-.65-.547-.86-.96-.207-.41-.312-.88-.312-1.405 0-.533.105-1 .312-1.402M15.217 6.362L16.781 1.952 17.672 1.952 15.696 7.159 14.721 7.159 12.745 1.952 13.645 1.952zM22.222 3.521c-.152-.292-.36-.516-.62-.671-.26-.155-.547-.232-.86-.232-.312 0-.597.075-.853.228-.258.15-.464.374-.617.664-.153.292-.23.634-.23 1.027 0 .4.077.745.23 1.04.153.295.359.52.617.674.256.157.54.233.853.233.313 0 .6-.076.86-.233.26-.155.468-.379.62-.673.154-.296.23-.64.23-1.031 0-.393-.076-.735-.23-1.026M18.5 3.135c.21-.402.495-.713.86-.935.365-.222.77-.333 1.218-.333.442 0 .825.099 1.149.295.325.196.567.442.726.74v-.95h.846V7.16h-.846V6.19c-.165.304-.412.556-.74.756-.327.199-.709.3-1.144.3-.448 0-.852-.116-1.213-.344-.362-.228-.646-.547-.856-.96-.207-.41-.312-.88-.312-1.405 0-.533.105-1 .312-1.402M28.658 2.432c.38.383.57.936.57 1.658v3.07H28.4V4.213c0-.52-.125-.917-.377-1.193-.251-.275-.594-.412-1.03-.412-.44 0-.79.142-1.051.426-.262.286-.391.7-.391 1.245v2.88h-.837V1.952h.837v.74c.165-.266.39-.47.675-.617.285-.146.599-.219.943-.219.612 0 1.108.193 1.489.575M30.597 3.135c.209-.402.498-.713.87-.936.37-.221.795-.332 1.272-.332.619 0 1.13.156 1.531.466.402.31.666.74.796 1.293h-.902c-.086-.318-.253-.568-.5-.752-.249-.182-.557-.276-.925-.276-.477 0-.863.17-1.158.51-.294.339-.441.818-.441 1.439 0 .627.147 1.11.44 1.454.296.342.682.513 1.159.513.368 0 .675-.089.92-.267.244-.177.414-.43.505-.761h.902c-.136.534-.405.959-.81 1.28-.403.32-.91.48-1.517.48-.477 0-.902-.113-1.272-.334-.372-.222-.661-.535-.87-.94-.208-.406-.313-.88-.313-1.425 0-.538.105-1.009.313-1.412M39.7 3.326c-.142-.237-.335-.42-.576-.542-.242-.123-.51-.186-.805-.186-.422 0-.782.14-1.08.419-.298.279-.467.665-.51 1.159h3.18c0-.33-.07-.613-.21-.85m1.048 1.553H36.72c.03.513.201.914.51 1.2.31.29.685.435 1.126.435.362 0 .663-.088.906-.262.242-.174.411-.407.51-.698h.9c-.135.5-.404.907-.807 1.22-.406.313-.908.471-1.509.471-.478 0-.905-.112-1.282-.332-.377-.223-.672-.538-.888-.947-.214-.408-.321-.882-.321-1.419 0-.539.105-1.01.312-1.417.209-.404.501-.716.879-.935.377-.219.81-.329 1.3-.329.479 0 .9.11 1.268.324.369.216.652.512.85.888.2.378.3.804.3 1.278 0 .166-.009.339-.027.523M45.6 3.521c-.153-.292-.36-.516-.621-.671-.26-.155-.546-.232-.86-.232-.312 0-.597.075-.853.228-.258.15-.463.374-.617.664-.152.292-.23.634-.23 1.027 0 .4.078.745.23 1.04.154.295.359.52.617.674.256.157.54.233.854.233.313 0 .6-.076.859-.233.26-.155.468-.379.62-.673.155-.296.23-.64.23-1.031 0-.393-.075-.735-.23-1.026m-3.722-.386c.209-.402.495-.713.859-.935.366-.222.775-.333 1.227-.333.393 0 .757.093 1.094.28.338.187.595.433.772.736V.13h.847v7.03h-.847v-.978c-.165.31-.41.565-.734.765-.325.199-.706.3-1.14.3-.448 0-.853-.116-1.219-.344-.364-.228-.65-.547-.86-.96-.207-.41-.312-.88-.312-1.405 0-.533.105-1 .313-1.402" transform="translate(83.505 197.307)"/>
                        </g>
                    </g>
                    <g fill="#A5A5A5" mask="url(#e7k7v2c0jf)">
                        <g>
                            <path d="M9.05.828L7.18 7.451 6.235 7.451 4.735 2.121 3.18 7.451 2.245 7.46.438.828 1.337.828 2.745 6.443 4.3.828 5.245.828 6.726 6.425 8.143.828zM13.098 3.66c.222-.21.334-.506.334-.894 0-.817-.458-1.224-1.371-1.224H10.82v2.432h1.24c.47 0 .816-.105 1.038-.314m.644.48c-.367.363-.928.545-1.681.545H10.82v2.766h-.843V.828h2.084c.728 0 1.283.18 1.662.541.38.362.569.827.569 1.397 0 .551-.184 1.009-.55 1.373M16.241 7.285c-.335-.156-.6-.371-.792-.647-.19-.276-.29-.594-.296-.954h.898c.031.31.157.57.375.783.22.212.54.318.958.318.402 0 .72-.102.95-.309.231-.206.348-.47.348-.792 0-.253-.068-.46-.205-.618-.135-.16-.304-.279-.509-.362-.204-.082-.477-.171-.824-.265-.426-.114-.767-.229-1.023-.342-.256-.114-.475-.293-.658-.537-.182-.244-.273-.57-.273-.983 0-.362.09-.681.269-.96.18-.278.431-.494.755-.647.323-.15.695-.227 1.115-.227.606 0 1.1.156 1.487.466.385.31.604.721.653 1.234h-.926c-.032-.254-.16-.476-.39-.67-.229-.193-.53-.29-.906-.29-.354 0-.64.094-.862.281-.223.187-.334.448-.334.784 0 .24.066.437.2.59.132.15.297.267.49.345.195.08.468.17.82.272.425.12.768.238 1.028.356s.482.297.667.541c.186.244.277.576.277.993 0 .323-.083.627-.249.912-.167.285-.414.517-.741.693-.328.178-.714.267-1.159.267-.425 0-.806-.077-1.143-.232M26.367 3.66c.222-.21.334-.506.334-.894 0-.817-.456-1.224-1.371-1.224h-1.24v2.432h1.24c.47 0 .815-.105 1.037-.314m.644.48c-.367.363-.928.545-1.681.545h-1.24v2.766h-.842V.828h2.082c.729 0 1.283.18 1.663.541.38.362.57.827.57 1.397 0 .551-.184 1.009-.552 1.373M28.609 7.451h.842V2.245h-.842V7.45zm.028-6.223c-.111-.115-.167-.254-.167-.418 0-.166.056-.305.167-.419.112-.114.247-.171.407-.171.154 0 .286.057.394.171.107.114.162.253.162.419 0 .164-.055.303-.162.418-.108.113-.24.17-.394.17-.16 0-.295-.057-.407-.17zM34.859 2.724c.382.383.575.936.575 1.658V7.45H34.6V4.505c0-.52-.127-.917-.38-1.193-.253-.275-.6-.412-1.037-.412-.445 0-.799.142-1.061.427-.263.285-.394.7-.394 1.244v2.88h-.843V2.244h.843v.74c.167-.266.394-.471.68-.617.288-.145.604-.218.95-.218.618 0 1.117.192 1.5.575M42.833 3.617c-.142-.237-.335-.419-.579-.542-.245-.123-.514-.185-.81-.185-.427 0-.79.14-1.088.418-.3.278-.471.666-.514 1.159h3.204c0-.329-.071-.613-.213-.85m1.056 1.554h-4.056c.03.513.202.913.513 1.2.312.29.69.434 1.135.434.363 0 .668-.087.912-.262.244-.175.415-.408.513-.697h.909c-.136.5-.408.906-.816 1.22-.406.313-.913.47-1.518.47-.481 0-.913-.111-1.292-.332-.38-.223-.678-.537-.893-.946-.217-.409-.324-.882-.324-1.42 0-.539.104-1.01.315-1.416.209-.405.503-.717.883-.936.38-.219.816-.328 1.311-.328.48 0 .907.11 1.278.323.37.216.655.512.857.888.2.378.3.803.3 1.278 0 .166-.008.34-.027.524M49 2.724c.383.383.574.936.574 1.658V7.45h-.833V4.505c0-.52-.127-.917-.38-1.193-.253-.275-.598-.412-1.038-.412-.444 0-.796.142-1.059.427-.263.285-.394.7-.394 1.244v2.88h-.842V2.244h.842v.74c.167-.266.394-.471.68-.617.288-.145.604-.218.95-.218.617 0 1.116.192 1.5.575M51.982 2.957v3.069c0 .253.052.432.157.537.106.104.287.156.547.156h.62v.732h-.76c-.468 0-.82-.112-1.054-.333-.236-.222-.352-.586-.352-1.092V2.957h-.658v-.713h.658V.934h.842v1.31h1.324v.713h-1.324zM55.801 2.396c.275-.166.61-.247 1.006-.247v.893h-.223c-.945 0-1.417.526-1.417 1.578v2.83h-.843V2.244h.843v.845c.148-.297.36-.528.634-.693M62.149 2.244L59.094 9.902 58.224 9.902 59.223 7.393 57.177 2.244 58.112 2.244 59.705 6.463 61.28 2.244z" transform="translate(82.78 138.333)"/>
                        </g>
                    </g>
                    <g fill="#A5A5A5" mask="url(#e7k7v2c0jf)">
                        <g>
                            <path d="M9.011.75L7.148 7.373 6.208 7.373 4.714 2.043 3.166 7.373 2.235 7.381.436.75 1.331.75 2.732 6.365 4.281.75 5.222.75 6.697 6.347 8.108.75zM13.04 3.581c.222-.21.333-.506.333-.894 0-.816-.456-1.224-1.365-1.224h-1.236v2.433h1.236c.467 0 .811-.105 1.033-.315m.64.48c-.365.364-.923.546-1.673.546h-1.236v2.766h-.839V.75h2.075c.725 0 1.277.18 1.655.54.379.364.566.828.566 1.397 0 .552-.183 1.01-.548 1.374M16.17 7.207c-.334-.155-.599-.371-.789-.647-.19-.276-.288-.594-.294-.954h.893c.032.31.157.57.373.783.22.212.537.318.955.318.4 0 .716-.102.945-.309.23-.205.346-.47.346-.792 0-.254-.067-.46-.203-.618-.135-.16-.303-.28-.507-.362-.203-.082-.475-.17-.82-.265-.424-.114-.764-.229-1.019-.342-.255-.114-.473-.293-.655-.537-.181-.244-.272-.57-.272-.984 0-.361.09-.68.268-.96.178-.277.43-.494.752-.646.321-.151.692-.228 1.11-.228.603 0 1.096.157 1.48.466.384.31.601.722.65 1.235h-.922c-.031-.253-.16-.477-.388-.67-.227-.193-.528-.29-.902-.29-.352 0-.637.094-.858.28-.222.188-.333.449-.333.784 0 .241.066.438.199.59.132.151.296.268.489.346.193.08.465.17.817.271.422.12.763.24 1.022.356.259.118.48.298.664.542.185.244.276.575.276.993 0 .323-.082.626-.248.912-.166.285-.412.517-.738.693-.326.178-.71.266-1.153.266-.423 0-.803-.076-1.138-.231M27.182 3.723c-.152-.29-.36-.513-.622-.664-.26-.152-.548-.228-.862-.228-.307 0-.591.077-.853.232-.26.155-.469.38-.626.675-.157.294-.235.635-.235 1.022 0 .392.078.736.235 1.031.157.295.366.519.626.674.262.156.546.233.853.233.314 0 .601-.077.862-.233.261-.155.47-.38.622-.674.155-.295.23-.642.23-1.04 0-.394-.075-.736-.23-1.028m-2.456-1.344c.33-.199.711-.3 1.147-.3.449 0 .857.112 1.222.333.366.223.653.535.862.936.21.403.314.87.314 1.402 0 .525-.104.994-.314 1.405-.209.412-.496.732-.862.96-.365.229-.773.344-1.222.344-.43 0-.809-.102-1.138-.3-.33-.2-.58-.448-.75-.747v3.431h-.84V2.166h.84v.96c.165-.299.412-.546.74-.747M33.858 2.166v5.206h-.839v-.77c-.16.266-.383.475-.669.623-.285.149-.6.223-.945.223-.394 0-.746-.083-1.06-.252-.313-.167-.56-.419-.742-.754-.181-.337-.272-.745-.272-1.226v-3.05h.83V5.1c0 .514.125.907.377 1.183s.597.414 1.033.414c.449 0 .803-.143 1.06-.427.258-.286.388-.7.388-1.245v-2.86h.839zM36.024 7.253c-.307-.135-.549-.326-.728-.57-.18-.244-.277-.523-.294-.84h.865c.025.26.144.472.355.636.213.165.49.248.835.248.32 0 .572-.073.756-.219.184-.146.277-.33.277-.55 0-.23-.099-.4-.295-.51-.196-.11-.501-.22-.913-.328-.375-.1-.68-.204-.917-.309-.237-.104-.44-.259-.609-.464-.17-.206-.254-.477-.254-.813 0-.267.077-.51.231-.732.153-.222.372-.397.655-.527.282-.13.605-.195.967-.195.56 0 1.011.146 1.356.437.345.292.529.69.553 1.197h-.838c-.02-.272-.125-.49-.32-.655-.193-.164-.453-.248-.778-.248-.3 0-.541.068-.719.2-.179.133-.268.308-.268.523 0 .17.055.312.162.423.108.11.243.2.406.266.162.066.388.14.677.223.362.102.658.201.886.3.226.097.422.245.585.44.162.198.247.454.253.771 0 .284-.077.542-.23.77-.154.228-.37.407-.65.537-.28.128-.601.194-.964.194-.387 0-.735-.069-1.042-.205M43.63 2.322c.308.168.548.42.724.756.175.335.263.745.263 1.226v3.069h-.83V4.427c0-.519-.125-.917-.377-1.192-.253-.276-.597-.413-1.033-.413-.443 0-.795.142-1.056.426-.261.286-.393.7-.393 1.245v2.88h-.838V.342h.838v2.565c.166-.267.395-.473.687-.618.293-.146.62-.219.983-.219.38 0 .725.086 1.033.252M52.49 3.723c-.153-.29-.361-.513-.622-.664-.261-.152-.548-.228-.862-.228-.307 0-.591.077-.853.232-.261.155-.47.38-.626.675-.157.294-.236.635-.236 1.022 0 .392.079.736.236 1.031.156.295.365.519.626.674.262.156.546.233.853.233.314 0 .6-.077.862-.233.26-.155.47-.38.622-.674.154-.295.23-.642.23-1.04 0-.394-.076-.736-.23-1.028m-2.443-1.348c.332-.196.711-.295 1.134-.295.455 0 .864.111 1.227.332.363.223.648.535.857.936.21.403.313.87.313 1.402 0 .525-.103.994-.313 1.405-.209.412-.497.732-.862.96-.365.229-.773.344-1.222.344-.436 0-.818-.1-1.148-.296-.328-.197-.576-.447-.742-.75v.96h-.838V.342h.838v2.793c.173-.31.425-.564.756-.76M59.166 2.166v5.206h-.839v-.77c-.16.266-.382.475-.669.623-.285.149-.6.223-.945.223-.393 0-.746-.083-1.06-.252-.314-.167-.56-.419-.742-.754-.181-.337-.273-.745-.273-1.226v-3.05h.83V5.1c0 .514.126.907.378 1.183s.597.414 1.033.414c.449 0 .803-.143 1.06-.427.258-.286.388-.7.388-1.245v-2.86h.84zM61.608 2.879v3.069c0 .252.053.432.157.536.105.105.286.157.544.157h.618v.732h-.755c-.468 0-.818-.112-1.052-.333-.233-.222-.35-.586-.35-1.092V2.879h-.655v-.713h.655V.855h.838v1.311h1.319v.713h-1.319zM64.965 2.879v3.069c0 .252.052.432.157.536.105.105.286.157.544.157h.618v.732h-.756c-.467 0-.818-.112-1.051-.333-.234-.222-.35-.586-.35-1.092V2.879h-.654v-.713h.654V.855h.838v1.311h1.319v.713h-1.319zM70.35 6.479c.263-.146.477-.364.64-.655.164-.292.244-.646.244-1.064 0-.42-.079-.773-.238-1.065-.162-.292-.37-.509-.629-.65-.258-.143-.537-.214-.838-.214-.307 0-.59.07-.844.213-.254.142-.459.36-.613.651-.153.292-.23.645-.23 1.065 0 .424.075.782.226 1.073.15.292.35.508.603.652.252.14.529.213.83.213.3 0 .584-.074.849-.22m-2.135.648c-.384-.223-.685-.537-.903-.946-.22-.409-.329-.882-.329-1.42 0-.533.114-1.002.337-1.412.224-.408.53-.72.918-.94.387-.218.82-.328 1.3-.328.48 0 .914.11 1.3.328.388.22.692.53.918.936.224.406.337.877.337 1.416 0 .538-.116 1.011-.346 1.42-.23.409-.544.723-.937.946-.393.22-.829.333-1.31.333-.473 0-.9-.112-1.285-.333M77.154 2.646c.38.383.571.935.571 1.658v3.068h-.83V4.427c0-.52-.126-.917-.378-1.192-.252-.276-.595-.413-1.033-.413-.442 0-.793.142-1.055.427-.262.285-.392.7-.392 1.245v2.878H73.2V2.166h.838v.74c.166-.266.392-.471.678-.617.286-.146.6-.218.946-.218.613 0 1.11.192 1.493.575" transform="translate(83.505 108.482)"/>
                        </g>
                    </g>
                    <g fill="#A5A5A5" mask="url(#e7k7v2c0jf)">
                        <g>
                            <path d="M4.506 4.972L3.34 1.627 2.176 4.972h2.33zm.24.703h-2.81l-.518 1.473H.531L2.86.564h.971l2.32 6.584h-.887l-.518-1.473zM10.911 3.509c-.153-.291-.362-.516-.624-.67-.261-.156-.549-.232-.864-.232-.314 0-.6.075-.859.227-.259.151-.465.374-.62.664-.153.293-.231.633-.231 1.027 0 .4.078.746.23 1.041.156.294.362.519.621.674.258.156.545.233.86.233.314 0 .602-.077.863-.233.262-.155.471-.38.624-.674.156-.295.231-.639.231-1.031 0-.393-.075-.735-.23-1.026m-3.745-.385c.21-.402.498-.714.865-.936.367-.222.779-.333 1.234-.333.394 0 .76.094 1.1.28.34.188.599.433.776.737V.118h.852v7.03h-.852v-.979c-.166.31-.412.565-.738.765-.327.2-.71.3-1.147.3-.45 0-.858-.115-1.225-.343-.367-.229-.654-.548-.865-.96-.209-.411-.314-.88-.314-1.406 0-.532.105-.999.314-1.401M17.162 3.509c-.155-.291-.363-.516-.624-.67-.263-.156-.552-.232-.865-.232-.314 0-.601.075-.86.227-.259.151-.466.374-.619.664-.155.293-.23.633-.23 1.027 0 .4.075.746.23 1.041.153.294.36.519.62.674.258.156.545.233.86.233.312 0 .601-.077.864-.233.261-.155.469-.38.624-.674.153-.295.23-.639.23-1.031 0-.393-.077-.735-.23-1.026m-3.744-.385c.209-.402.497-.714.864-.936.366-.222.777-.333 1.234-.333.395 0 .76.094 1.1.28.339.188.597.433.777.737V.118h.849v7.03h-.85v-.979c-.166.31-.412.565-.74.765-.326.2-.708.3-1.145.3-.45 0-.859-.115-1.225-.343-.367-.229-.655-.548-.864-.96-.21-.411-.315-.88-.315-1.406 0-.532.104-.999.315-1.401M26.1 2.421c.383.383.575.936.575 1.658v3.069h-.832V4.202c0-.52-.126-.917-.38-1.193-.252-.275-.598-.412-1.035-.412-.444 0-.797.142-1.059.427-.262.285-.393.7-.393 1.244v2.88h-.841V1.94h.84v.74c.167-.266.394-.471.68-.617.288-.145.602-.218.948-.218.616 0 1.116.192 1.498.575M31.592 3.314c-.142-.237-.334-.419-.577-.542-.245-.123-.514-.185-.81-.185-.425 0-.787.14-1.085.418-.3.279-.47.666-.513 1.159h3.198c0-.329-.07-.613-.213-.85m1.054 1.554h-4.048c.03.513.2.914.512 1.2.311.29.688.434 1.133.434.362 0 .667-.087.91-.262.244-.175.415-.408.513-.697h.907c-.136.5-.408.906-.814 1.22-.406.313-.912.471-1.516.471-.48 0-.912-.112-1.29-.333-.379-.222-.676-.537-.892-.946-.216-.409-.323-.882-.323-1.42 0-.539.104-1.01.314-1.416.21-.405.503-.716.882-.936.38-.219.815-.328 1.31-.328.479 0 .905.11 1.274.323.37.216.654.512.856.889.2.377.3.803.3 1.277 0 .166-.009.34-.028.524M34.81 2.654v3.07c0 .252.052.43.157.536.105.105.286.156.546.156h.619v.732h-.759c-.467 0-.82-.111-1.053-.333-.235-.222-.35-.586-.35-1.092V2.654h-.658v-.712h.657V.63h.841v1.312h1.322v.712H34.81zM43.897 1.941L42.316 7.148 41.447 7.148 40.227 3.015 39.006 7.148 38.138 7.148 36.548 1.941 37.408 1.941 38.572 6.311 39.83 1.941 40.69 1.941 41.919 6.321 43.066 1.941zM47.789 6.254c.265-.145.48-.365.641-.654.165-.292.246-.648.246-1.065 0-.42-.08-.773-.24-1.064-.16-.292-.37-.51-.628-.651-.26-.143-.54-.214-.843-.214-.308 0-.589.071-.845.214-.255.142-.46.359-.615.65-.154.292-.23.646-.23 1.065 0 .425.075.782.225 1.073.151.292.354.509.607.652.253.141.53.213.831.213.302 0 .586-.073.85-.219m-2.14.647c-.385-.222-.687-.537-.906-.946-.218-.409-.328-.882-.328-1.42 0-.533.113-1.002.338-1.412.225-.407.532-.72.92-.94.389-.219.823-.328 1.304-.328.48 0 .915.11 1.302.328.389.22.696.531.92.936.226.406.338.877.338 1.416 0 .538-.116 1.011-.347 1.42-.23.41-.545.724-.938.946-.394.221-.831.333-1.313.333-.474 0-.905-.112-1.29-.333M52.12 2.093c.274-.166.608-.247 1.003-.247v.893h-.222c-.943 0-1.415.526-1.415 1.578v2.83h-.84V1.942h.84v.845c.148-.297.36-.528.633-.693M56.922 7.148L54.934 4.848 54.934 7.148 54.094 7.148 54.094.118 54.934.118 54.934 4.25 56.885 1.941 58.059 1.941 55.674 4.535 58.069 7.148z" transform="translate(82.78 80.088)"/>
                        </g>
                    </g>
                    <path fill="#FDBA12" d="M85.613 160.774c-3.236 0-5.87 2.643-5.87 5.893v11.77c0 3.25 2.634 5.894 5.87 5.894h124.31c3.237 0 5.87-2.643 5.87-5.894v-11.77c0-3.25-2.633-5.893-5.87-5.893H85.613zm124.31 24.884H85.613c-3.965 0-7.19-3.24-7.19-7.22v-11.77c0-3.98 3.225-7.22 7.19-7.22h124.31c3.965 0 7.191 3.24 7.191 7.22v11.77c0 3.98-3.226 7.22-7.191 7.22z" mask="url(#e7k7v2c0jf)"/>
                </g>
            </g>
        </g>
    </g>
</svg>
