<svg xmlns="http://www.w3.org/2000/svg" xmlns:xlink="http://www.w3.org/1999/xlink" width="375" height="232" viewBox="0 0 375 232">
    <defs>
        <path id="lznb66m1ya" d="M0 0.276L247.817 0.276 247.817 230.088 0 230.088z"/>
        <path id="ybwo7tr4wc" d="M0.493 0.171L231.696 0.171 231.696 189.61 0.493 189.61z"/>
        <path id="fk39ulepwe" d="M0 230.522L247.817 230.522 247.817 0.71 0 0.71z"/>
    </defs>
    <g fill="none" fill-rule="evenodd">
        <g>
            <g>
                <g>
                    <g transform="translate(0 -110) translate(0 110) translate(62.832)">
                        <path fill="#FFF" d="M24.966 104.196h107.516c.638 0 1.155.518 1.155 1.157v4.57c0 .639-.517 1.157-1.155 1.157H24.966c-.638 0-1.156-.518-1.156-1.157v-4.57c0-.64.518-1.157 1.156-1.157M25.448 85.128h155.618c.905 0 1.637.733 1.637 1.638v9.844c0 .905-.732 1.639-1.637 1.639H25.448c-.904 0-1.637-.734-1.637-1.64v-9.843c0-.905.733-1.638 1.637-1.638M24.966 206.943h107.516c.638 0 1.155.518 1.155 1.156v4.57c0 .64-.517 1.157-1.155 1.157H24.966c-.638 0-1.156-.517-1.156-1.156v-4.57c0-.64.518-1.157 1.156-1.157M25.448 187.874h155.618c.905 0 1.637.733 1.637 1.639v9.844c0 .904-.732 1.638-1.637 1.638H25.448c-.904 0-1.637-.734-1.637-1.638v-9.844c0-.906.733-1.64 1.637-1.64" opacity=".25"/>
                        <g transform="translate(0 .434)">
                            <mask id="hc8jahk0qb" fill="#fff">
                                <use xlink:href="#lznb66m1ya"/>
                            </mask>
                            <path fill="#FFF" d="M247.818 230.088h-2.646V23.382c0-11.28-9.17-20.458-20.442-20.458H23.087c-11.271 0-20.441 9.178-20.441 20.458v206.706H0V23.382C0 10.641 10.357.276 23.087.276H224.73c12.73 0 23.088 10.365 23.088 23.106v206.706z" mask="url(#hc8jahk0qb)"/>
                        </g>
                        <g transform="translate(7.805 40.912)">
                            <mask id="53jg6uussd" fill="#fff">
                                <use xlink:href="#ybwo7tr4wc"/>
                            </mask>
                            <path fill="#FFF" d="M231.696 189.61h-1.322V8.508c0-3.866-3.143-7.013-7.008-7.013H8.823c-3.864 0-7.007 3.147-7.007 7.013V189.61H.493V8.508C.493 3.912 4.23.171 8.823.171h214.543c4.593 0 8.33 3.74 8.33 8.337V189.61z" mask="url(#53jg6uussd)"/>
                        </g>
                        <path fill="#FFF" d="M84.618 19.612c-.926 0-1.68.754-1.68 1.679 0 .927.754 1.68 1.68 1.68h78.564c.926 0 1.68-.753 1.68-1.68 0-.925-.754-1.679-1.68-1.679H84.618zm78.564 4.684H84.618c-1.655 0-3.002-1.349-3.002-3.005s1.347-3.003 3.002-3.003h78.564c1.655 0 3.002 1.347 3.002 3.003 0 1.656-1.347 3.005-3.002 3.005z"/>
                        <path fill="#FDBA12" d="M78.217 135.289L75.01 146.362 73.392 146.362 70.821 137.449 68.154 146.362 66.551 146.378 63.455 135.289 64.995 135.289 67.408 144.678 70.074 135.289 71.693 135.289 74.233 144.647 76.661 135.289z"/>
                        <mask id="iztxc434ef" fill="#fff">
                            <use xlink:href="#fk39ulepwe"/>
                        </mask>
                        <path fill="#FDBA12" d="M79.804 146.362h1.445v-8.706h-1.445v8.706zm.048-10.406c-.19-.19-.286-.423-.286-.698 0-.276.095-.51.286-.7.19-.19.423-.285.698-.285.265 0 .49.096.675.285.184.19.277.424.277.7 0 .275-.093.508-.277.698-.185.192-.41.287-.675.287-.275 0-.508-.095-.698-.287zM89.963 135.289L89.963 136.465 85.153 136.465 85.153 140.198 89.058 140.198 89.058 141.374 85.153 141.374 85.153 146.362 83.709 146.362 83.709 135.289zM91.708 146.362h1.446v-8.706h-1.446v8.706zm.049-10.406c-.191-.19-.286-.423-.286-.698 0-.276.095-.51.286-.7.19-.19.422-.285.697-.285.265 0 .49.096.676.285.184.19.277.424.277.7 0 .275-.093.508-.277.698-.186.192-.41.287-.676.287-.275 0-.507-.095-.697-.287z" mask="url(#iztxc434ef)"/>
                        <g fill="#FDBA12" mask="url(#iztxc434ef)">
                            <g>
                                <path d="M.926 2.515c.317-.576.75-1.022 1.3-1.345C2.778.85 3.392.69 4.069.69c.826 0 1.533.196 2.122.588.59.392 1.018.944 1.285 1.657h-.867c-.212-.501-.534-.893-.968-1.175-.435-.283-.958-.424-1.572-.424-.543 0-1.032.127-1.465.381-.434.253-.775.62-1.021 1.097-.248.476-.371 1.029-.371 1.657 0 .629.123 1.18.37 1.652.247.474.588.837 1.022 1.092.433.253.922.38 1.465.38.614 0 1.137-.139 1.572-.418.434-.279.756-.666.968-1.16h.867c-.267.706-.698 1.253-1.29 1.642-.593.388-1.298.583-2.117.583-.677 0-1.29-.16-1.841-.483-.55-.32-.984-.768-1.301-1.34C.608 5.847.449 5.196.449 4.47c0-.727.159-1.378.477-1.955M12.534 7.356c.324-.173.587-.434.788-.784.202-.349.302-.777.302-1.286 0-.51-.1-.937-.296-1.288-.198-.349-.46-.61-.784-.783-.324-.173-.676-.26-1.058-.26-.381 0-.734.087-1.058.26-.324.173-.584.434-.778.783-.193.35-.29.779-.29 1.288s.097.937.29 1.286c.194.35.452.61.772.784.322.173.673.26 1.053.26.381 0 .734-.087 1.059-.26m-2.524.54c-.434-.244-.776-.589-1.027-1.038-.25-.448-.376-.972-.376-1.572 0-.601.128-1.125.381-1.574.254-.448.6-.793 1.038-1.038.437-.243.927-.363 1.47-.363.544 0 1.036.12 1.477.363.44.245.787.59 1.037 1.038.25.45.376.973.376 1.574 0 .592-.128 1.116-.381 1.567-.254.453-.603.8-1.048 1.044-.444.242-.939.365-1.482.365s-1.031-.123-1.465-.365M20.142 2.93c.437.426.656 1.047.656 1.858v3.389h-.73V4.872c0-.628-.157-1.107-.471-1.44-.314-.332-.743-.498-1.286-.498-.557 0-1.002.177-1.333.53-.332.353-.498.872-.498 1.557v3.156h-.74V2.394h.74v.985c.184-.353.448-.623.794-.811.345-.186.738-.28 1.175-.28.69 0 1.255.213 1.693.642M26.84 2.93c.438.426.657 1.047.657 1.858v3.389h-.73V4.872c0-.628-.157-1.107-.471-1.44-.314-.332-.742-.498-1.286-.498-.557 0-1.002.177-1.332.53-.333.353-.499.872-.499 1.557v3.156h-.74V2.394h.74v.985c.184-.353.448-.623.794-.811.345-.186.738-.28 1.175-.28.69 0 1.256.213 1.693.642M33.354 3.866c-.18-.304-.425-.532-.736-.69-.311-.153-.65-.231-1.016-.231-.55 0-1.02.176-1.407.53-.39.352-.604.85-.646 1.493h4.064c.007-.43-.08-.798-.26-1.102m.99 1.705H29.55c.02.438.127.813.317 1.123.191.311.441.546.752.705.31.159.649.238 1.016.238.48 0 .883-.117 1.21-.35.33-.233.546-.547.652-.942h.783c-.14.565-.442 1.025-.904 1.382-.463.356-1.042.535-1.741.535-.544 0-1.03-.123-1.46-.366-.43-.244-.768-.589-1.011-1.038-.243-.449-.365-.972-.365-1.572 0-.602.12-1.126.36-1.579.24-.45.575-.797 1.005-1.038.43-.239.92-.359 1.47-.359.55 0 1.032.12 1.445.36.413.24.73.563.952.97.223.405.333.855.333 1.348 0 .255-.006.45-.02.583M35.74 3.712c.24-.448.571-.793.995-1.038.423-.243.906-.364 1.449-.364.713 0 1.3.175 1.762.529.462.353.76.833.894 1.44h-.793c-.1-.416-.313-.742-.64-.978-.329-.238-.736-.356-1.223-.356-.389 0-.737.09-1.048.265-.31.176-.555.44-.736.788-.179.35-.268.779-.268 1.288s.089.938.268 1.291c.18.353.426.619.736.794.311.177.66.265 1.048.265.487 0 .894-.117 1.222-.354.328-.237.541-.566.64-.99h.794c-.134.593-.433 1.07-.9 1.43-.465.36-1.051.54-1.756.54-.543 0-1.026-.123-1.45-.365-.423-.245-.754-.59-.995-1.039-.24-.448-.36-.972-.36-1.572 0-.601.12-1.125.36-1.574M43.168 3.018V6.61c0 .353.067.595.201.73.133.134.37.2.709.2h.677v.637h-.793c-.523 0-.91-.122-1.164-.366-.254-.244-.382-.643-.382-1.2V3.017h-.804v-.624h.804V.944h.752v1.45h1.587v.624h-1.587zM50.19 3.866c-.18-.304-.426-.532-.736-.69-.311-.153-.65-.231-1.016-.231-.55 0-1.02.176-1.407.53-.39.352-.603.85-.646 1.493h4.063c.008-.43-.079-.798-.259-1.102m.99 1.705h-4.794c.02.438.127.813.317 1.123.191.311.441.546.752.705.31.159.649.238 1.016.238.48 0 .883-.117 1.211-.35.328-.233.545-.547.651-.942h.783c-.14.565-.442 1.025-.904 1.382-.463.356-1.043.535-1.741.535-.544 0-1.03-.123-1.46-.366-.43-.244-.768-.589-1.011-1.038-.243-.449-.365-.972-.365-1.572 0-.602.12-1.126.36-1.579.24-.45.575-.797 1.005-1.038.43-.239.92-.359 1.47-.359.551 0 1.032.12 1.445.36.413.24.73.563.952.97.222.405.333.855.333 1.348 0 .255-.006.45-.02.583M56.978 4.056c-.191-.353-.45-.624-.778-.813-.329-.192-.69-.288-1.085-.288-.41 0-.776.092-1.1.276-.325.183-.58.45-.767.8-.188.349-.28.764-.28 1.243 0 .474.092.889.28 1.246.186.356.442.628.767.815.324.188.69.28 1.1.28.395 0 .756-.095 1.085-.285.328-.19.587-.463.778-.816.19-.353.285-.762.285-1.228 0-.467-.095-.877-.285-1.23m-4.403-.343c.24-.45.57-.794.99-1.039.42-.242.894-.364 1.423-.364.508 0 .966.123 1.376.37.408.248.71.568.9.964V.34h.74v7.837h-.74V6.885c-.177.403-.466.732-.868.99-.402.258-.875.388-1.418.388-.53 0-1.004-.125-1.424-.372-.42-.247-.747-.597-.984-1.048-.236-.453-.354-.975-.354-1.569 0-.592.12-1.113.359-1.561M63.56 3.018V6.61c0 .353.066.595.2.73.134.134.37.2.71.2h.677v.637h-.794c-.523 0-.91-.122-1.164-.366-.254-.244-.382-.643-.382-1.2V3.017h-.804v-.624h.804V.944h.752v1.45h1.588v.624h-1.588zM69.95 7.356c.325-.173.587-.434.789-.784.201-.349.301-.777.301-1.286 0-.51-.099-.937-.296-1.288-.197-.349-.459-.61-.783-.783-.324-.173-.677-.26-1.058-.26-.382 0-.734.087-1.058.26-.325.173-.584.434-.778.783-.194.35-.291.779-.291 1.288s.097.937.29 1.286c.195.35.452.61.773.784.321.173.673.26 1.053.26.38 0 .734-.087 1.059-.26m-2.525.54c-.433-.244-.776-.589-1.026-1.038-.25-.448-.376-.972-.376-1.572 0-.601.128-1.125.381-1.574.254-.448.6-.793 1.037-1.038.438-.243.928-.363 1.471-.363.544 0 1.035.12 1.477.363.44.245.787.59 1.036 1.038.25.45.376.973.376 1.574 0 .592-.127 1.116-.38 1.567-.255.453-.604.8-1.049 1.044-.444.242-.938.365-1.481.365-.543 0-1.032-.123-1.466-.365M81.548.774L81.548 8.177 80.808 8.177 80.808 4.713 76.797 4.713 76.797 8.177 76.057 8.177 76.057.774 76.797.774 76.797 4.1 80.808 4.1 80.808.774zM86.828 7.356c.325-.173.588-.434.789-.784.201-.349.301-.777.301-1.286 0-.51-.1-.937-.296-1.288-.198-.349-.458-.61-.783-.783-.324-.173-.677-.26-1.059-.26-.38 0-.733.087-1.058.26-.324.173-.584.434-.777.783-.194.35-.291.779-.291 1.288s.097.937.29 1.286c.194.35.452.61.773.784.321.173.672.26 1.053.26.38 0 .733-.087 1.058-.26m-2.524.54c-.433-.244-.775-.589-1.026-1.038-.25-.448-.376-.972-.376-1.572 0-.601.127-1.125.38-1.574.255-.448.601-.793 1.038-1.038.438-.243.927-.363 1.471-.363.543 0 1.036.12 1.477.363.44.245.786.59 1.036 1.038.25.45.376.973.376 1.574 0 .592-.127 1.116-.38 1.567-.255.453-.604.8-1.049 1.044-.444.242-.939.365-1.481.365-.543 0-1.032-.123-1.466-.365M98.569 2.93c.427.426.64 1.047.64 1.858v3.389h-.73V4.872c0-.628-.151-1.107-.454-1.44-.304-.332-.717-.498-1.238-.498-.545 0-.978.18-1.302.54-.325.36-.487.884-.487 1.568v3.135h-.73V4.872c0-.628-.152-1.107-.455-1.44-.304-.332-.72-.498-1.249-.498-.543 0-.977.18-1.302.54-.324.36-.486.884-.486 1.568v3.135h-.74V2.394h.74v.995c.183-.359.444-.633.783-.821.338-.186.715-.28 1.132-.28.501 0 .94.12 1.318.36.376.241.65.594.82 1.06.155-.46.42-.811.798-1.055.378-.243.806-.365 1.286-.365.677 0 1.229.213 1.656.642M105.066 3.866c-.18-.304-.425-.532-.735-.69-.311-.153-.649-.231-1.016-.231-.55 0-1.02.176-1.408.53-.388.352-.603.85-.645 1.493h4.063c.007-.43-.08-.798-.259-1.102m.99 1.705h-4.794c.021.438.127.813.317 1.123.19.311.442.546.752.705.31.159.649.238 1.015.238.48 0 .884-.117 1.212-.35.328-.233.545-.547.65-.942h.784c-.14.565-.442 1.025-.904 1.382-.463.356-1.043.535-1.742.535-.542 0-1.03-.123-1.46-.366-.43-.244-.766-.589-1.01-1.038-.244-.449-.366-.972-.366-1.572 0-.602.121-1.126.36-1.579.24-.45.576-.797 1.006-1.038.43-.239.92-.359 1.47-.359.551 0 1.033.12 1.445.36.413.24.73.563.952.97.222.405.334.855.334 1.348 0 .255-.007.45-.02.583M116.405.774L114.309 8.177 113.484 8.177 111.622 1.865 109.717 8.177 108.913 8.187 106.86.774 107.654.774 109.347 7.266 111.241.774 112.067.774 113.908 7.266 115.611.774zM117.537 8.177h.74V2.394h-.74v5.783zm-.012-7.032c-.105-.106-.157-.237-.157-.393 0-.155.052-.283.157-.386.107-.103.234-.153.382-.153.149 0 .275.05.381.153.106.103.16.23.16.386s-.054.287-.16.393c-.106.105-.232.157-.38.157-.15 0-.276-.052-.383-.157zM123.96.774L123.96 1.388 120.701 1.388 120.701 4.152 123.452 4.152 123.452 4.767 120.701 4.767 120.701 8.177 119.96 8.177 119.96.774zM125.177 8.177h.74V2.394h-.74v5.783zm-.011-7.032c-.106-.106-.158-.237-.158-.393 0-.155.052-.283.158-.386.106-.103.233-.153.38-.153.15 0 .276.05.382.153.106.103.159.23.159.386s-.053.287-.16.393c-.105.105-.231.157-.38.157-.148 0-.275-.052-.381-.157z" transform="translate(63.149 154.536)"/>
                            </g>
                        </g>
                    </g>
                    <g fill="#FDBA12">
                        <path d="M11.107 18.049l.149.153.147-.154 2.117-2.62c-.613-.546-1.397-.89-2.264-.89-.869 0-1.654.344-2.267.89l2.118 2.62zm-5.214-6.453c1.498-1.328 3.375-2.056 5.363-2.056 1.985 0 3.862.728 5.36 2.056l1.367-1.691c-1.881-1.665-4.236-2.578-6.727-2.578-2.493 0-4.849.913-6.729 2.578l1.366 1.692v-.001zM0 4.302C3.143 1.52 7.086 0 11.256 0c4.168 0 8.11 1.52 11.254 4.302l-1.37 1.697c-2.762-2.445-6.222-3.786-9.884-3.786-3.663 0-7.124 1.34-9.886 3.785L0 4.302z" transform="translate(0 -110) translate(0 110) translate(62.832) translate(23.962 139.061)"/>
                    </g>
                </g>
            </g>
        </g>
    </g>
</svg>
