<svg xmlns="http://www.w3.org/2000/svg" xmlns:xlink="http://www.w3.org/1999/xlink" width="375" height="232" viewBox="0 0 375 232">
    <defs>
        <path id="8yufyz2qda" d="M0 0.277L248.461 0.277 248.461 230.07 0 230.07z"/>
    </defs>
    <g fill="none" fill-rule="evenodd">
        <g>
            <g>
                <g>
                    <g transform="translate(0 -110) translate(0 110) translate(63 1)">
                        <mask id="treg2gghdb" fill="#fff">
                            <use xlink:href="#8yufyz2qda"/>
                        </mask>
                        <path fill="#FFF" d="M225.313 230.07H23.148C10.384 230.07 0 219.706 0 206.966V.276h2.652v206.69c0 11.28 9.194 20.456 20.496 20.456h202.165c11.3 0 20.495-9.176 20.495-20.456V.276h2.653v206.69c0 12.74-10.385 23.104-23.148 23.104" mask="url(#treg2gghdb)"/>
                    </g>
                    <path fill="#FFF" d="M231.977 171.825H17.022c-4.568 0-8.285-3.707-8.285-8.265V0h1.324v163.56c0 3.828 3.123 6.943 6.961 6.943h214.955c3.838 0 6.961-3.115 6.961-6.943V0h1.325v163.56c0 4.558-3.717 8.265-8.286 8.265" transform="translate(0 -110) translate(0 110) translate(63 1)"/>
                    <path fill="#FDBA12" d="M160.206 211.14h-72.14c-3.2 0-5.794-2.568-5.794-5.735v-13.284c0-3.167 2.594-5.735 5.794-5.735h72.14c3.2 0 5.794 2.568 5.794 5.735v13.284c0 3.167-2.594 5.735-5.794 5.735" transform="translate(0 -110) translate(0 110) translate(63 1)"/>
                    <path fill="#FFF" d="M93.61 187.59c-5.194 0-9.42 4.248-9.42 9.47v3.406c0 5.222 4.226 9.47 9.42 9.47h61.782c5.193 0 9.418-4.248 9.418-9.47v-3.406c0-5.222-4.225-9.47-9.418-9.47H93.609zm61.782 25.006H93.609c-6.652 0-12.065-5.44-12.065-12.13v-3.406c0-6.689 5.413-12.13 12.065-12.13h61.783c6.652 0 12.064 5.441 12.064 12.13v3.406c0 6.69-5.412 12.13-12.064 12.13z" transform="translate(0 -110) translate(0 110) translate(63 1)"/>
                </g>
            </g>
        </g>
    </g>
</svg>
