<svg width="375" height="232" viewBox="0 0 375 232" fill="none" xmlns="http://www.w3.org/2000/svg">
<path d="M228.933 159.713C244.776 159.713 282.94 151.471 300.074 144.922C301.522 144.368 302.847 143.492 303.733 142.219C304.652 140.901 304.74 139.957 304.74 137.116C302.872 99.1133 295.506 70.2245 286.651 45.8159C286.381 45.0711 287.04 44.3212 287.813 44.4945L293.967 45.8737C296.081 46.3475 297.641 48.1296 297.926 50.2773C298.54 54.911 299.599 60.7234 300.902 64.0062C308.406 82.9051 321.771 106.022 322.606 133.569C323.002 146.637 318.003 184.123 312.322 224.128" stroke="white" stroke-width="2"/>
<path fill-rule="evenodd" clip-rule="evenodd" d="M187.742 75.2732L187.845 75.3479L187.947 75.2726L189.413 73.993C188.988 73.7264 188.445 73.559 187.845 73.559C187.244 73.559 186.7 73.7264 186.276 73.993L187.742 75.2732ZM184.132 72.1213C185.169 71.4729 186.469 71.1173 187.845 71.1173C189.219 71.1173 190.519 71.4729 191.557 72.1213L192.503 71.2957C191.2 70.4825 189.57 70.0365 187.845 70.0365C186.119 70.0365 184.488 70.4825 183.186 71.2957L184.132 72.1219V72.1213ZM180.052 68.5593C182.229 67.2008 184.958 66.4583 187.846 66.4583C190.732 66.4583 193.462 67.2008 195.638 68.5593L194.69 69.3882C192.777 68.1938 190.381 67.5391 187.846 67.5391C185.31 67.5391 182.913 68.1938 181.001 69.3876L180.052 68.5593Z" fill="#F2A900"/>
<path d="M188.003 133.259C181.644 133.327 168.252 133.896 158.543 135.571C155.983 136.013 153.507 134.137 153.486 131.54C153.325 111.719 153.82 74.8589 155.243 51.6705C155.363 49.7147 156.891 48.16 158.848 48.0489C166.643 47.6062 179.387 47.4829 188.003 47.4829" stroke="white"/>
<path d="M188.003 133.258C194.363 133.326 207.754 133.895 217.464 135.57C220.024 136.012 222.5 134.136 222.521 131.539C222.681 111.718 222.187 74.8579 220.764 51.6696C220.644 49.7137 219.116 48.1591 217.159 48.048C209.363 47.6052 196.619 47.4819 188.003 47.4819" stroke="white"/>
<path d="M147.28 146.701C148.282 145.269 150.525 142.249 151.487 141.635C152.689 140.868 160.953 136.416 188 136.416" stroke="white"/>
<path d="M228.72 146.701C227.718 145.268 225.474 142.249 224.512 141.635C223.31 140.868 215.046 136.416 187.999 136.416" stroke="white"/>
<path d="M177.908 110.917H178.82V108.485H180.66V107.741H178.82V106.101H181.18V105.357H177.908V110.917ZM182.385 110.917H183.297V106.509H182.385V110.917ZM182.849 105.925C183.169 105.925 183.425 105.669 183.425 105.341C183.425 105.013 183.169 104.757 182.849 104.757C182.521 104.757 182.265 105.013 182.265 105.341C182.265 105.669 182.521 105.925 182.849 105.925ZM184.854 110.917H185.766V104.997H184.854V110.917ZM187.468 109.693C187.468 110.589 187.956 110.917 188.74 110.917H189.46V110.157H188.9C188.516 110.157 188.388 110.021 188.388 109.693V107.253H189.46V106.509H188.388V105.413H187.468V106.509H186.948V107.253H187.468V109.693ZM192.516 107.205C193.196 107.205 193.732 107.637 193.748 108.317H191.308C191.404 107.621 191.9 107.205 192.516 107.205ZM194.58 109.605H193.596C193.428 109.949 193.116 110.221 192.556 110.221C191.884 110.221 191.364 109.781 191.3 109.053H194.668C194.692 108.901 194.7 108.757 194.7 108.605C194.7 107.309 193.812 106.437 192.556 106.437C191.252 106.437 190.356 107.325 190.356 108.709C190.356 110.093 191.292 110.989 192.556 110.989C193.636 110.989 194.332 110.373 194.58 109.605ZM196.87 108.597C196.87 107.661 197.286 107.381 197.958 107.381H198.19V106.437C197.566 106.437 197.126 106.709 196.87 107.149V106.509H195.958V110.917H196.87V108.597Z" fill="white"/>
<path d="M164.787 115.426C164.787 115.806 164.567 116.075 164.077 116.075H163.384V114.794H164.077C164.567 114.794 164.787 115.041 164.787 115.426ZM162.757 114.282V118.105H163.384V116.576H163.863L164.743 118.105H165.491L164.545 116.521C165.188 116.361 165.43 115.877 165.43 115.426C165.43 114.805 164.985 114.282 164.077 114.282H162.757ZM167.868 115.553C168.336 115.553 168.704 115.85 168.715 116.317H167.038C167.104 115.839 167.445 115.553 167.868 115.553ZM169.287 117.203H168.611C168.495 117.439 168.281 117.626 167.896 117.626C167.434 117.626 167.076 117.324 167.032 116.823H169.348C169.364 116.719 169.37 116.62 169.37 116.515C169.37 115.624 168.759 115.025 167.896 115.025C166.999 115.025 166.383 115.635 166.383 116.587C166.383 117.538 167.027 118.154 167.896 118.154C168.638 118.154 169.117 117.731 169.287 117.203ZM172.607 117.258C172.574 116.163 170.864 116.504 170.864 115.894C170.864 115.69 171.04 115.553 171.375 115.553C171.716 115.553 171.92 115.734 171.942 115.998H172.569C172.536 115.393 172.085 115.025 171.397 115.025C170.682 115.025 170.231 115.415 170.231 115.899C170.231 117.01 171.991 116.669 171.991 117.263C171.991 117.472 171.799 117.626 171.436 117.626C171.089 117.626 170.853 117.423 170.831 117.175H170.182C170.209 117.725 170.721 118.154 171.447 118.154C172.162 118.154 172.607 117.769 172.607 117.258ZM174.921 115.553C175.388 115.553 175.757 115.85 175.768 116.317H174.09C174.156 115.839 174.497 115.553 174.921 115.553ZM176.34 117.203H175.663C175.548 117.439 175.333 117.626 174.948 117.626C174.486 117.626 174.129 117.324 174.085 116.823H176.4C176.417 116.719 176.422 116.62 176.422 116.515C176.422 115.624 175.812 115.025 174.948 115.025C174.052 115.025 173.436 115.635 173.436 116.587C173.436 117.538 174.079 118.154 174.948 118.154C175.691 118.154 176.169 117.731 176.34 117.203ZM177.498 117.263C177.498 117.879 177.834 118.105 178.373 118.105H178.868V117.582H178.483C178.219 117.582 178.131 117.489 178.131 117.263V115.586H178.868V115.074H178.131V114.321H177.498V115.074H177.141V115.586H177.498V117.263ZM184.02 118.105H184.647V114.282H184.02V115.921H182.221V114.282H181.594V118.105H182.221V116.433H184.02V118.105ZM188.72 116.587C188.72 115.635 188.038 115.025 187.174 115.025C186.311 115.025 185.629 115.635 185.629 116.587C185.629 117.538 186.283 118.154 187.147 118.154C188.016 118.154 188.72 117.538 188.72 116.587ZM186.267 116.587C186.267 115.899 186.69 115.569 187.163 115.569C187.631 115.569 188.076 115.899 188.076 116.587C188.076 117.274 187.614 117.61 187.147 117.61C186.674 117.61 186.267 117.274 186.267 116.587ZM189.7 118.105H190.327V114.035H189.7V118.105ZM191.301 116.576C191.301 117.511 191.933 118.154 192.731 118.154C193.226 118.154 193.589 117.923 193.781 117.648V118.105H194.414V114.035H193.781V115.498C193.55 115.212 193.132 115.025 192.736 115.025C191.933 115.025 191.301 115.641 191.301 116.576ZM193.781 116.587C193.781 117.241 193.336 117.61 192.863 117.61C192.395 117.61 191.944 117.23 191.944 116.576C191.944 115.921 192.395 115.569 192.863 115.569C193.336 115.569 193.781 115.938 193.781 116.587ZM197.293 115.085H197.903C197.942 114.805 198.145 114.541 198.585 114.541C199.014 114.541 199.24 114.772 199.24 115.118C199.24 115.547 198.893 115.712 198.327 115.718H198.178V116.235H198.321C198.976 116.235 199.317 116.416 199.317 116.944C199.317 117.318 199.086 117.604 198.618 117.604C198.145 117.604 197.87 117.318 197.843 116.944H197.238C197.276 117.731 197.865 118.127 198.624 118.127C199.46 118.127 199.911 117.643 199.911 117.005C199.911 116.449 199.641 116.103 199.223 115.976V115.954C199.537 115.85 199.839 115.525 199.839 115.047C199.839 114.464 199.405 114.002 198.607 114.002C197.876 114.002 197.337 114.392 197.293 115.085ZM205.38 117.021C205.38 115.624 203.356 116.163 203.356 115.3C203.356 114.931 203.637 114.755 204 114.766C204.396 114.777 204.621 115.014 204.643 115.272H205.336C205.281 114.618 204.764 114.233 204.033 114.233C203.252 114.233 202.718 114.651 202.718 115.322C202.718 116.73 204.748 116.13 204.748 117.054C204.748 117.379 204.5 117.615 204.06 117.615C203.626 117.615 203.406 117.362 203.378 117.049H202.707C202.707 117.725 203.296 118.143 204.06 118.143C204.913 118.143 205.38 117.593 205.38 117.021ZM207.756 115.553C208.223 115.553 208.592 115.85 208.603 116.317H206.925C206.991 115.839 207.332 115.553 207.756 115.553ZM209.175 117.203H208.498C208.383 117.439 208.168 117.626 207.783 117.626C207.321 117.626 206.964 117.324 206.92 116.823H209.235C209.252 116.719 209.257 116.62 209.257 116.515C209.257 115.624 208.647 115.025 207.783 115.025C206.887 115.025 206.271 115.635 206.271 116.587C206.271 117.538 206.914 118.154 207.783 118.154C208.526 118.154 209.004 117.731 209.175 117.203ZM210.025 116.587C210.025 117.538 210.641 118.154 211.51 118.154C212.253 118.154 212.737 117.742 212.907 117.148H212.231C212.115 117.461 211.884 117.626 211.51 117.626C211.004 117.626 210.669 117.252 210.669 116.587C210.669 115.927 211.004 115.553 211.51 115.553C211.884 115.553 212.126 115.74 212.231 116.031H212.907C212.737 115.393 212.253 115.025 211.51 115.025C210.641 115.025 210.025 115.641 210.025 116.587Z" fill="white"/>
<path d="M78.6073 145.796C75.9344 144.319 76.1488 138.3 76.2917 136.312C79.6932 88.7475 85.2634 69.4168 94.8278 45.1684C95.0664 44.6911 95.963 43.7032 97.6409 43.5708C99.7383 43.4053 116.803 41.2309 120.066 40.4587C123.093 39.7422 127.632 35.1485 131.077 29.1441C131.583 28.2632 132.461 27.6601 133.473 27.5694C145.157 26.5227 169.991 24.6853 187.846 24.6853" stroke="white" stroke-width="2"/>
<path d="M297.543 146.094C300.216 144.618 299.542 138.3 299.399 136.312C295.998 88.7475 290.427 69.4168 280.863 45.1684C280.624 44.6911 279.728 43.7032 278.05 43.5708C275.953 43.4053 258.888 41.2309 255.625 40.4587C252.598 39.7422 248.059 35.1485 244.613 29.1441C244.108 28.2632 243.23 27.6601 242.218 27.5694C230.534 26.5227 205.7 24.6853 187.845 24.6853" stroke="white" stroke-width="2"/>
<path d="M228.623 224.119C228.623 215.841 229.411 114.729 226.962 51.595C226.928 50.7243 226.667 49.8968 226.204 49.1584L224.394 46.2687C223.616 45.0276 222.339 44.1834 220.882 44.0389C213.373 43.2943 198.998 43.0306 187.845 43.1774" stroke="white" stroke-width="2"/>
<path d="M147.225 224.053C147.225 215.783 146.438 114.909 148.88 51.7643C148.918 50.7861 149.242 49.8615 149.814 49.0665L151.993 46.0334C152.783 44.9336 153.984 44.1945 155.331 44.0561C162.705 43.2983 176.765 43.0295 188.003 43.1774" stroke="white" stroke-width="2"/>
<rect x="179.405" y="59.6138" width="16.8805" height="2.55651" rx="1.27826" fill="#F2A900"/>
<rect x="179.405" y="97.7781" width="16.8805" height="2.55651" rx="1.27826" fill="white"/>
<path d="M147.051 159.736C131.207 159.736 93.0438 151.494 75.9095 144.945C74.4609 144.391 73.1369 143.515 72.2503 142.243C71.3317 140.924 71.2434 139.98 71.2434 137.139C73.1111 99.1364 80.4771 70.2477 89.3324 45.8391C89.6026 45.0943 88.9433 44.3444 88.1702 44.5177L82.0168 45.8969C79.9027 46.3707 78.342 48.1528 78.0573 50.3005C77.4433 54.9342 76.3843 60.7466 75.081 64.0294C67.5778 82.9283 54.2123 106.045 53.3775 133.592C52.9815 146.66 57.9799 184.146 63.6615 224.151" stroke="white" stroke-width="2"/>
</svg>
