<svg width="375" height="232" viewBox="0 0 375 232" fill="none" xmlns="http://www.w3.org/2000/svg">
<rect x="18" y="57" width="339" height="117" rx="5" stroke="white" stroke-width="2"/>
<path d="M113.196 109.712V113H111.828V104.528H114.708C115.684 104.528 116.416 104.76 116.904 105.224C117.4 105.688 117.648 106.324 117.648 107.132C117.648 107.932 117.396 108.564 116.892 109.028C116.388 109.484 115.66 109.712 114.708 109.712H113.196ZM114.564 108.596C115.692 108.596 116.256 108.108 116.256 107.132C116.256 106.652 116.12 106.288 115.848 106.04C115.584 105.784 115.156 105.656 114.564 105.656H113.196V108.596H114.564ZM121.74 106.304C122.34 106.304 122.852 106.452 123.276 106.748C123.7 107.044 124 107.436 124.176 107.924V106.388H125.544V113H124.176V111.464C124 111.952 123.7 112.344 123.276 112.64C122.852 112.936 122.34 113.084 121.74 113.084C121.164 113.084 120.648 112.948 120.192 112.676C119.744 112.404 119.392 112.012 119.136 111.5C118.88 110.988 118.752 110.384 118.752 109.688C118.752 109 118.88 108.4 119.136 107.888C119.392 107.376 119.744 106.984 120.192 106.712C120.648 106.44 121.164 106.304 121.74 106.304ZM122.16 107.504C121.552 107.504 121.064 107.7 120.696 108.092C120.336 108.476 120.156 109.008 120.156 109.688C120.156 110.368 120.336 110.904 120.696 111.296C121.064 111.68 121.552 111.872 122.16 111.872C122.544 111.872 122.888 111.784 123.192 111.608C123.496 111.424 123.736 111.168 123.912 110.84C124.088 110.512 124.176 110.128 124.176 109.688C124.176 109.256 124.088 108.876 123.912 108.548C123.736 108.212 123.496 107.956 123.192 107.78C122.888 107.596 122.544 107.504 122.16 107.504ZM129.597 106.304C130.373 106.304 130.993 106.504 131.457 106.904C131.929 107.296 132.217 107.824 132.321 108.488H131.025C130.969 108.128 130.813 107.84 130.557 107.624C130.309 107.4 129.977 107.288 129.561 107.288C129.217 107.288 128.949 107.372 128.757 107.54C128.573 107.7 128.481 107.92 128.481 108.2C128.481 108.408 128.549 108.576 128.685 108.704C128.821 108.832 128.989 108.932 129.189 109.004C129.397 109.076 129.689 109.156 130.065 109.244C130.561 109.356 130.961 109.472 131.265 109.592C131.577 109.712 131.841 109.904 132.057 110.168C132.281 110.424 132.393 110.776 132.393 111.224C132.393 111.776 132.181 112.224 131.757 112.568C131.341 112.912 130.777 113.084 130.065 113.084C129.241 113.084 128.573 112.892 128.061 112.508C127.557 112.124 127.253 111.588 127.149 110.9H128.481C128.521 111.26 128.681 111.552 128.961 111.776C129.241 112 129.609 112.112 130.065 112.112C130.393 112.112 130.649 112.028 130.833 111.86C131.025 111.684 131.121 111.464 131.121 111.2C131.121 110.968 131.049 110.784 130.905 110.648C130.761 110.512 130.581 110.408 130.365 110.336C130.149 110.256 129.853 110.176 129.477 110.096C128.997 109.984 128.605 109.872 128.301 109.76C128.005 109.648 127.749 109.468 127.533 109.22C127.325 108.964 127.221 108.62 127.221 108.188C127.221 107.628 127.429 107.176 127.845 106.832C128.269 106.48 128.853 106.304 129.597 106.304ZM136.177 106.304C136.953 106.304 137.573 106.504 138.037 106.904C138.509 107.296 138.797 107.824 138.901 108.488H137.605C137.549 108.128 137.393 107.84 137.137 107.624C136.889 107.4 136.557 107.288 136.141 107.288C135.797 107.288 135.529 107.372 135.337 107.54C135.153 107.7 135.061 107.92 135.061 108.2C135.061 108.408 135.129 108.576 135.265 108.704C135.401 108.832 135.569 108.932 135.769 109.004C135.977 109.076 136.269 109.156 136.645 109.244C137.141 109.356 137.541 109.472 137.845 109.592C138.157 109.712 138.421 109.904 138.637 110.168C138.861 110.424 138.973 110.776 138.973 111.224C138.973 111.776 138.761 112.224 138.337 112.568C137.921 112.912 137.357 113.084 136.645 113.084C135.821 113.084 135.153 112.892 134.641 112.508C134.137 112.124 133.833 111.588 133.729 110.9H135.061C135.101 111.26 135.261 111.552 135.541 111.776C135.821 112 136.189 112.112 136.645 112.112C136.973 112.112 137.229 112.028 137.413 111.86C137.605 111.684 137.701 111.464 137.701 111.2C137.701 110.968 137.629 110.784 137.485 110.648C137.341 110.512 137.161 110.408 136.945 110.336C136.729 110.256 136.433 110.176 136.057 110.096C135.577 109.984 135.185 109.872 134.881 109.76C134.585 109.648 134.329 109.468 134.113 109.22C133.905 108.964 133.801 108.62 133.801 108.188C133.801 107.628 134.009 107.176 134.425 106.832C134.849 106.48 135.433 106.304 136.177 106.304ZM149.849 106.388L148.013 113H146.501L144.869 107.888L143.213 113H141.713L139.877 106.388H141.257L142.517 111.74L144.173 106.388H145.613L147.293 111.74L148.553 106.388H149.849ZM154.044 106.304C154.684 106.304 155.26 106.44 155.772 106.712C156.284 106.984 156.684 107.376 156.972 107.888C157.26 108.4 157.404 109 157.404 109.688C157.404 110.384 157.26 110.988 156.972 111.5C156.684 112.012 156.284 112.404 155.772 112.676C155.26 112.948 154.684 113.084 154.044 113.084C153.404 113.084 152.828 112.948 152.316 112.676C151.812 112.404 151.412 112.012 151.116 111.5C150.828 110.98 150.684 110.376 150.684 109.688C150.684 109 150.828 108.4 151.116 107.888C151.412 107.376 151.812 106.984 152.316 106.712C152.828 106.44 153.404 106.304 154.044 106.304ZM154.044 107.492C153.692 107.492 153.368 107.572 153.072 107.732C152.776 107.892 152.536 108.14 152.352 108.476C152.176 108.804 152.088 109.208 152.088 109.688C152.088 110.176 152.176 110.584 152.352 110.912C152.536 111.24 152.776 111.484 153.072 111.644C153.368 111.804 153.692 111.884 154.044 111.884C154.396 111.884 154.72 111.804 155.016 111.644C155.312 111.484 155.548 111.24 155.724 110.912C155.908 110.584 156 110.176 156 109.688C156 109.208 155.908 108.804 155.724 108.476C155.548 108.14 155.312 107.892 155.016 107.732C154.72 107.572 154.396 107.492 154.044 107.492ZM160.327 107.684C160.551 107.252 160.871 106.912 161.287 106.664C161.703 106.408 162.183 106.28 162.727 106.28V107.768H162.319C161.719 107.768 161.235 107.916 160.867 108.212C160.507 108.5 160.327 108.98 160.327 109.652V113H158.959V106.388H160.327V107.684ZM166.644 106.304C167.244 106.304 167.756 106.452 168.18 106.748C168.604 107.044 168.9 107.436 169.068 107.924V104.12H170.448V113H169.068V111.464C168.9 111.952 168.604 112.344 168.18 112.64C167.756 112.936 167.244 113.084 166.644 113.084C166.068 113.084 165.552 112.948 165.096 112.676C164.648 112.404 164.296 112.012 164.04 111.5C163.784 110.988 163.656 110.384 163.656 109.688C163.656 109 163.784 108.4 164.04 107.888C164.296 107.376 164.648 106.984 165.096 106.712C165.552 106.44 166.068 106.304 166.644 106.304ZM167.064 107.504C166.456 107.504 165.968 107.7 165.6 108.092C165.24 108.476 165.06 109.008 165.06 109.688C165.06 110.368 165.24 110.904 165.6 111.296C165.968 111.68 166.456 111.872 167.064 111.872C167.448 111.872 167.792 111.784 168.096 111.608C168.4 111.424 168.64 111.168 168.816 110.84C168.992 110.512 169.08 110.128 169.08 109.688C169.08 109.256 168.992 108.876 168.816 108.548C168.64 108.212 168.4 107.956 168.096 107.78C167.792 107.596 167.448 107.504 167.064 107.504ZM173.602 106.4V107.912H172.054V106.4H173.602ZM173.602 111.488V113H172.054V111.488H173.602ZM183.048 113L181.02 109.868L179.208 113H177.636L180.264 108.68L177.576 104.528H179.208L181.2 107.6L183 104.528H184.572L181.956 108.776L184.68 113H183.048ZM190.777 113L188.749 109.868L186.937 113H185.365L187.993 108.68L185.305 104.528H186.937L188.929 107.6L190.729 104.528H192.301L189.685 108.776L192.409 113H190.777ZM198.505 113L196.477 109.868L194.665 113H193.093L195.721 108.68L193.033 104.528H194.665L196.657 107.6L198.457 104.528H200.029L197.413 108.776L200.137 113H198.505ZM206.233 113L204.205 109.868L202.393 113H200.821L203.449 108.68L200.761 104.528H202.393L204.385 107.6L206.185 104.528H207.757L205.141 108.776L207.865 113H206.233ZM213.962 113L211.934 109.868L210.122 113H208.55L211.178 108.68L208.49 104.528H210.122L212.114 107.6L213.914 104.528H215.486L212.87 108.776L215.594 113H213.962ZM221.69 113L219.662 109.868L217.85 113H216.278L218.906 108.68L216.218 104.528H217.85L219.842 107.6L221.642 104.528H223.214L220.598 108.776L223.322 113H221.69ZM229.418 113L227.39 109.868L225.578 113H224.006L226.634 108.68L223.946 104.528H225.578L227.57 107.6L229.37 104.528H230.942L228.326 108.776L231.05 113H229.418ZM237.146 113L235.118 109.868L233.306 113H231.734L234.362 108.68L231.674 104.528H233.306L235.298 107.6L237.098 104.528H238.67L236.054 108.776L238.778 113H237.146Z" fill="white"/>
<path opacity="0.25" d="M118.68 86H117.312L113.196 79.748V86H111.828V77.54H113.196L117.312 83.816V77.54H118.68V86ZM126.48 82.376C126.48 82.6 126.464 82.796 126.432 82.964H121.344C121.368 83.644 121.556 84.148 121.908 84.476C122.26 84.804 122.696 84.968 123.216 84.968C123.672 84.968 124.056 84.852 124.368 84.62C124.688 84.388 124.884 84.08 124.956 83.696H126.42C126.332 84.16 126.148 84.572 125.868 84.932C125.588 85.292 125.224 85.576 124.776 85.784C124.328 85.984 123.828 86.084 123.276 86.084C122.636 86.084 122.068 85.948 121.572 85.676C121.084 85.404 120.7 85.012 120.42 84.5C120.14 83.988 120 83.384 120 82.688C120 82 120.14 81.4 120.42 80.888C120.7 80.376 121.084 79.984 121.572 79.712C122.068 79.44 122.636 79.304 123.276 79.304C123.924 79.304 124.488 79.44 124.968 79.712C125.456 79.976 125.828 80.344 126.084 80.816C126.348 81.28 126.48 81.8 126.48 82.376ZM125.1 82.34C125.116 81.908 125.04 81.548 124.872 81.26C124.712 80.964 124.488 80.748 124.2 80.612C123.92 80.468 123.612 80.396 123.276 80.396C122.74 80.396 122.292 80.56 121.932 80.888C121.572 81.216 121.376 81.7 121.344 82.34H125.1ZM131.125 84.812V86H130.285C129.581 86 129.045 85.832 128.677 85.496C128.317 85.152 128.137 84.584 128.137 83.792V80.552H127.189V79.388H128.137V77.744H129.517V79.388H131.113V80.552H129.517V83.816C129.517 84.192 129.585 84.452 129.721 84.596C129.865 84.74 130.113 84.812 130.465 84.812H131.125ZM141.67 79.388L139.834 86H138.322L136.69 80.888L135.034 86H133.534L131.698 79.388H133.078L134.338 84.74L135.994 79.388H137.434L139.114 84.74L140.374 79.388H141.67ZM145.625 79.304C146.265 79.304 146.841 79.44 147.353 79.712C147.865 79.984 148.265 80.376 148.553 80.888C148.841 81.4 148.985 82 148.985 82.688C148.985 83.384 148.841 83.988 148.553 84.5C148.265 85.012 147.865 85.404 147.353 85.676C146.841 85.948 146.265 86.084 145.625 86.084C144.985 86.084 144.409 85.948 143.897 85.676C143.393 85.404 142.993 85.012 142.697 84.5C142.409 83.98 142.265 83.376 142.265 82.688C142.265 82 142.409 81.4 142.697 80.888C142.993 80.376 143.393 79.984 143.897 79.712C144.409 79.44 144.985 79.304 145.625 79.304ZM145.625 80.492C145.273 80.492 144.949 80.572 144.653 80.732C144.357 80.892 144.117 81.14 143.933 81.476C143.757 81.804 143.669 82.208 143.669 82.688C143.669 83.176 143.757 83.584 143.933 83.912C144.117 84.24 144.357 84.484 144.653 84.644C144.949 84.804 145.273 84.884 145.625 84.884C145.977 84.884 146.301 84.804 146.597 84.644C146.893 84.484 147.129 84.24 147.305 83.912C147.489 83.584 147.581 83.176 147.581 82.688C147.581 82.208 147.489 81.804 147.305 81.476C147.129 81.14 146.893 80.892 146.597 80.732C146.301 80.572 145.977 80.492 145.625 80.492ZM151.669 80.684C151.893 80.252 152.213 79.912 152.629 79.664C153.045 79.408 153.525 79.28 154.069 79.28V80.768H153.661C153.061 80.768 152.577 80.916 152.209 81.212C151.849 81.5 151.669 81.98 151.669 82.652V86H150.301V79.388H151.669V80.684ZM158.838 86L156.462 83.06V86H155.094V77.12H156.462V82.208L158.814 79.388H160.458L157.578 82.676L160.53 86H158.838ZM165.506 79.4V80.912H163.958V79.4H165.506ZM165.506 84.488V86H163.958V84.488H165.506ZM173.513 77.456C174.521 77.456 175.361 77.704 176.033 78.2C176.705 78.696 177.149 79.372 177.365 80.228H175.925C175.741 79.772 175.437 79.408 175.013 79.136C174.597 78.864 174.101 78.728 173.525 78.728C172.997 78.728 172.521 78.852 172.097 79.1C171.681 79.348 171.353 79.7 171.113 80.156C170.881 80.612 170.765 81.148 170.765 81.764C170.765 82.412 170.885 82.968 171.125 83.432C171.365 83.896 171.701 84.252 172.133 84.5C172.573 84.74 173.081 84.86 173.657 84.86C174.361 84.86 174.965 84.644 175.469 84.212C175.973 83.772 176.277 83.172 176.381 82.412H173.273V81.404H177.533V82.712C177.437 83.336 177.213 83.904 176.861 84.416C176.517 84.92 176.057 85.324 175.481 85.628C174.913 85.932 174.261 86.084 173.525 86.084C172.701 86.084 171.973 85.9 171.341 85.532C170.709 85.164 170.221 84.656 169.877 84.008C169.533 83.352 169.361 82.604 169.361 81.764C169.361 80.924 169.533 80.18 169.877 79.532C170.221 78.876 170.705 78.368 171.329 78.008C171.961 77.64 172.689 77.456 173.513 77.456ZM180.286 78.632V81.2H183.406V82.256H180.286V84.884H183.766V86H178.918V77.528H183.766V78.632H180.286ZM191.49 86.432V87.764H184.794V86.432H191.49ZM201.577 77.66V86H200.197V79.748L197.785 86H196.585L194.161 79.748V86H192.793V77.66H194.449L197.209 84.32L199.921 77.66H201.577ZM207.147 77.42C207.931 77.42 208.639 77.604 209.271 77.972C209.911 78.34 210.411 78.856 210.771 79.52C211.139 80.176 211.323 80.92 211.323 81.752C211.323 82.584 211.139 83.332 210.771 83.996C210.411 84.652 209.911 85.168 209.271 85.544C208.639 85.912 207.931 86.096 207.147 86.096C206.355 86.096 205.639 85.912 204.999 85.544C204.367 85.168 203.867 84.652 203.499 83.996C203.131 83.332 202.947 82.584 202.947 81.752C202.947 80.92 203.131 80.176 203.499 79.52C203.867 78.856 204.367 78.34 204.999 77.972C205.639 77.604 206.355 77.42 207.147 77.42ZM207.147 78.692C206.603 78.692 206.119 78.816 205.695 79.064C205.271 79.312 204.939 79.668 204.699 80.132C204.467 80.596 204.351 81.136 204.351 81.752C204.351 82.368 204.467 82.908 204.699 83.372C204.939 83.836 205.271 84.192 205.695 84.44C206.119 84.688 206.603 84.812 207.147 84.812C207.683 84.812 208.159 84.688 208.575 84.44C208.999 84.192 209.327 83.836 209.559 83.372C209.799 82.908 209.919 82.368 209.919 81.752C209.919 81.136 209.799 80.596 209.559 80.132C209.327 79.668 208.999 79.312 208.575 79.064C208.159 78.816 207.683 78.692 207.147 78.692ZM219.975 81.752C219.975 82.608 219.799 83.356 219.447 83.996C219.103 84.628 218.595 85.12 217.923 85.472C217.259 85.824 216.463 86 215.535 86H212.703V77.528H215.535C216.463 77.528 217.259 77.704 217.923 78.056C218.595 78.4 219.103 78.888 219.447 79.52C219.799 80.152 219.975 80.896 219.975 81.752ZM215.427 84.764C216.443 84.764 217.223 84.5 217.767 83.972C218.311 83.444 218.583 82.704 218.583 81.752C218.583 80.8 218.311 80.06 217.767 79.532C217.223 79.004 216.443 78.74 215.427 78.74H214.071V84.764H215.427ZM222.659 77.528V82.556C222.659 83.308 222.823 83.868 223.151 84.236C223.487 84.604 223.955 84.788 224.555 84.788C225.147 84.788 225.607 84.604 225.935 84.236C226.271 83.868 226.439 83.308 226.439 82.556V77.528H227.807V82.556C227.807 83.716 227.507 84.596 226.907 85.196C226.307 85.788 225.515 86.084 224.531 86.084C223.555 86.084 222.771 85.788 222.179 85.196C221.587 84.596 221.291 83.716 221.291 82.556V77.528H222.659ZM230.77 84.932H233.698V86H229.402V77.528H230.77V84.932ZM236.137 78.632V81.2H239.257V82.256H236.137V84.884H239.617V86H234.769V77.528H239.617V78.632H236.137ZM247.341 86.432V87.764H240.645V86.432H247.341ZM253.48 86L251.452 82.868L249.64 86H248.068L250.696 81.68L248.008 77.528H249.64L251.632 80.6L253.432 77.528H255.004L252.388 81.776L255.112 86H253.48ZM260.969 86L258.941 82.868L257.129 86H255.557L258.185 81.68L255.497 77.528H257.129L259.121 80.6L260.921 77.528H262.493L259.877 81.776L262.601 86H260.969ZM268.457 86L266.429 82.868L264.617 86H263.045L265.673 81.68L262.985 77.528H264.617L266.609 80.6L268.409 77.528H269.981L267.365 81.776L270.089 86H268.457ZM275.945 86L273.917 82.868L272.105 86H270.533L273.161 81.68L270.473 77.528H272.105L274.097 80.6L275.897 77.528H277.469L274.853 81.776L277.577 86H275.945Z" fill="white"/>
<path opacity="0.25" d="M120.612 131.66V140H119.232V133.748L116.82 140H115.62L113.196 133.748V140H111.828V131.66H113.484L116.244 138.32L118.956 131.66H120.612ZM126.75 138.164H123.174L122.526 140H121.062L124.182 131.66H125.754L128.862 140H127.398L126.75 138.164ZM126.366 137.108L124.962 133.148L123.558 137.108H126.366ZM133.097 131.444C134.137 131.444 135.001 131.708 135.689 132.236C136.377 132.764 136.841 133.48 137.081 134.384H135.629C135.429 133.872 135.109 133.468 134.669 133.172C134.237 132.868 133.705 132.716 133.073 132.716C132.569 132.716 132.117 132.84 131.717 133.088C131.325 133.336 131.013 133.692 130.781 134.156C130.557 134.612 130.445 135.148 130.445 135.764C130.445 136.372 130.557 136.908 130.781 137.372C131.013 137.828 131.325 138.18 131.717 138.428C132.117 138.676 132.569 138.8 133.073 138.8C133.705 138.8 134.237 138.652 134.669 138.356C135.109 138.052 135.429 137.648 135.629 137.144H137.081C136.841 138.048 136.377 138.764 135.689 139.292C135.001 139.812 134.137 140.072 133.097 140.072C132.297 140.072 131.589 139.892 130.973 139.532C130.357 139.164 129.881 138.656 129.545 138.008C129.209 137.352 129.041 136.604 129.041 135.764C129.041 134.924 129.209 134.18 129.545 133.532C129.881 132.876 130.357 132.364 130.973 131.996C131.589 131.628 132.297 131.444 133.097 131.444ZM139.158 133.4V134.912H137.61V133.4H139.158ZM139.158 138.488V140H137.61V138.488H139.158ZM147.005 140L144.977 136.868L143.165 140H141.593L144.221 135.68L141.533 131.528H143.165L145.157 134.6L146.957 131.528H148.529L145.913 135.776L148.637 140H147.005ZM153.933 140L151.905 136.868L150.093 140H148.521L151.149 135.68L148.461 131.528H150.093L152.085 134.6L153.885 131.528H155.457L152.841 135.776L155.565 140H153.933ZM160.033 135.08V136.232H155.089V135.08H160.033ZM166.372 140L164.344 136.868L162.532 140H160.96L163.588 135.68L160.9 131.528H162.532L164.524 134.6L166.324 131.528H167.896L165.28 135.776L168.004 140H166.372ZM173.3 140L171.272 136.868L169.46 140H167.888L170.516 135.68L167.828 131.528H169.46L171.452 134.6L173.252 131.528H174.824L172.208 135.776L174.932 140H173.3ZM179.4 135.08V136.232H174.456V135.08H179.4ZM185.738 140L183.71 136.868L181.898 140H180.326L182.954 135.68L180.266 131.528H181.898L183.89 134.6L185.69 131.528H187.262L184.646 135.776L187.37 140H185.738ZM192.667 140L190.639 136.868L188.827 140H187.255L189.883 135.68L187.195 131.528H188.827L190.819 134.6L192.619 131.528H194.191L191.575 135.776L194.299 140H192.667ZM198.767 135.08V136.232H193.823V135.08H198.767ZM205.105 140L203.077 136.868L201.265 140H199.693L202.321 135.68L199.633 131.528H201.265L203.257 134.6L205.057 131.528H206.629L204.013 135.776L206.737 140H205.105ZM212.034 140L210.006 136.868L208.194 140H206.622L209.25 135.68L206.562 131.528H208.194L210.186 134.6L211.986 131.528H213.558L210.942 135.776L213.666 140H212.034ZM218.134 135.08V136.232H213.19V135.08H218.134ZM224.472 140L222.444 136.868L220.632 140H219.06L221.688 135.68L219 131.528H220.632L222.624 134.6L224.424 131.528H225.996L223.38 135.776L226.104 140H224.472ZM231.4 140L229.372 136.868L227.56 140H225.988L228.616 135.68L225.928 131.528H227.56L229.552 134.6L231.352 131.528H232.924L230.308 135.776L233.032 140H231.4ZM237.501 135.08V136.232H232.557V135.08H237.501ZM243.839 140L241.811 136.868L239.999 140H238.427L241.055 135.68L238.367 131.528H239.999L241.991 134.6L243.791 131.528H245.363L242.747 135.776L245.471 140H243.839ZM250.767 140L248.739 136.868L246.927 140H245.355L247.983 135.68L245.295 131.528H246.927L248.919 134.6L250.719 131.528H252.291L249.675 135.776L252.399 140H250.767Z" fill="white"/>
<path opacity="0.25" d="M39 158H157" stroke="white" stroke-linecap="square"/>
<path opacity="0.25" d="M219 158H337" stroke="white" stroke-linecap="square"/>
<rect opacity="0.25" x="285.5" y="84.5" width="51" height="51" rx="1.5" fill="white" stroke="white"/>
<rect opacity="0.25" x="39.5" y="84.5" width="51" height="51" rx="1.5" fill="white" stroke="white"/>
<rect x="100" y="94" width="150" height="30" rx="5" stroke="#FDBA12" stroke-width="2"/>
</svg>
