<svg width="24" height="24" viewBox="0 0 24 24" fill="none" xmlns="http://www.w3.org/2000/svg">
<path d="M21.75 3.875H3" stroke="#949494"/>
<path fill-rule="evenodd" clip-rule="evenodd" d="M7.375 5.75C6.34 5.75 5.5 4.911 5.5 3.875C5.5 2.839 6.34 2 7.375 2C8.411 2 9.25 2.839 9.25 3.875C9.25 4.911 8.411 5.75 7.375 5.75Z" fill="#949494"/>
<path d="M21.75 12H3" stroke="#949494"/>
<path fill-rule="evenodd" clip-rule="evenodd" d="M12.375 13.875C11.34 13.875 10.5 13.036 10.5 12C10.5 10.964 11.34 10.125 12.375 10.125C13.411 10.125 14.25 10.964 14.25 12C14.25 13.036 13.411 13.875 12.375 13.875Z" fill="#949494"/>
<path d="M3 20.125H21.75" stroke="#949494"/>
<path fill-rule="evenodd" clip-rule="evenodd" d="M17.375 18.25C18.411 18.25 19.25 19.089 19.25 20.125C19.25 21.161 18.411 22 17.375 22C16.34 22 15.5 21.161 15.5 20.125C15.5 19.089 16.34 18.25 17.375 18.25Z" fill="#949494"/>
</svg>
