<svg width="80" height="80" viewBox="0 0 80 80" fill="none" xmlns="http://www.w3.org/2000/svg">
<path d="M23.9421 18V62.5941" stroke="#CACACA" stroke-width="2" stroke-linejoin="round"/>
<path d="M28.6341 30.9079C28.6341 33.5002 26.5324 35.6019 23.9401 35.6019C21.3478 35.6019 19.2461 33.5002 19.2461 30.9079C19.2461 28.3137 21.3478 26.2139 23.9401 26.2139C26.5324 26.2139 28.6341 28.3137 28.6341 30.9079Z" fill="#C4C4C4" stroke="#CACACA"/>
<path d="M56.7971 62.5941V18" stroke="#CACACA" stroke-width="2" stroke-linejoin="round"/>
<path d="M52.1006 49.6833C52.1006 47.091 54.2023 44.9893 56.7946 44.9893C59.3869 44.9893 61.4886 47.091 61.4886 49.6833C61.4886 52.2775 59.3869 54.3773 56.7946 54.3773C54.2023 54.3773 52.1006 52.2775 52.1006 49.6833Z" fill="#C4C4C4" stroke="#CACACA"/>
<path d="M40.3689 18V62.5941" stroke="#CACACA" stroke-width="2" stroke-linejoin="round"/>
<path d="M45.0619 40.2956C45.0619 42.8879 42.9601 44.9896 40.3678 44.9896C37.7756 44.9896 35.6738 42.8879 35.6738 40.2956C35.6738 37.7033 37.7756 35.6016 40.3678 35.6016C42.9601 35.6016 45.0619 37.7033 45.0619 40.2956Z" fill="#C4C4C4" stroke="#CACACA"/>
</svg>
