<svg width="25" height="25" viewBox="0 0 25 25" fill="none" xmlns="http://www.w3.org/2000/svg">
<g opacity="0.9">
<path fill-rule="evenodd" clip-rule="evenodd" d="M12.3901 19.0542L12.5002 19.1663L12.6094 19.0534L14.1766 17.1342C13.7228 16.7342 13.1422 16.4832 12.5002 16.4832C11.8573 16.4832 11.2759 16.7342 10.8221 17.1342L12.3901 19.0542ZM8.52997 14.3271C9.63858 13.3546 11.0287 12.8212 12.5002 12.8212C13.9701 12.8212 15.3603 13.3546 16.4697 14.3271L17.481 13.0887C16.0885 11.8691 14.345 11.2001 12.5002 11.2001C10.6547 11.2001 8.9104 11.8691 7.51866 13.0887L8.52997 14.3279V14.3271ZM4.1665 8.98438C6.49379 6.94673 9.41287 5.83301 12.5002 5.83301C15.5868 5.83301 18.5059 6.94673 20.8332 8.98438L19.8187 10.2275C17.7737 8.43615 15.212 7.45418 12.5002 7.45418C9.78852 7.45418 7.22595 8.43615 5.181 10.2267L4.1665 8.98438Z" fill="white"/>
<rect x="19.46" y="4.04582" width="2.5" height="18.6565" transform="rotate(45 19.46 4.04582)" fill="white" stroke="#1A1B1C"/>
</g>
</svg>
