<svg width="80" height="80" viewBox="0 0 80 80" fill="none" xmlns="http://www.w3.org/2000/svg">
<path fill-rule="evenodd" clip-rule="evenodd" d="M37.3333 37.3333C37.3333 38.8061 38.5272 40 40 40C41.4728 40 42.6667 38.8061 42.6667 37.3333V18.6667C42.6667 17.1939 41.4728 16 40 16C38.5272 16 37.3333 17.1939 37.3333 18.6667V37.3333ZM22.2469 45.7683C21.0288 42.0192 21.0288 37.9808 22.2469 34.2317C23.4651 30.4826 25.8389 27.2154 29.028 24.8984C30.2195 24.0327 30.4836 22.365 29.618 21.1735C28.7523 19.9821 27.0846 19.7179 25.8932 20.5836C21.7928 23.5627 18.7408 27.7633 17.1746 32.5836C15.6085 37.4038 15.6085 42.5962 17.1746 47.4164C18.7408 52.2366 21.7928 56.4373 25.8932 59.4164C29.9935 62.3955 34.9317 64 40 64C45.0683 64 50.0065 62.3955 54.1068 59.4164C58.2072 56.4373 61.2592 52.2367 62.8254 47.4164C64.3915 42.5962 64.3916 37.4038 62.8254 32.5836C61.2592 27.7634 58.2072 23.5627 54.1068 20.5836C52.9154 19.7179 51.2477 19.9821 50.382 21.1735C49.5164 22.365 49.7805 24.0327 50.972 24.8984C54.1611 27.2154 56.5349 30.4826 57.7531 34.2317C58.9712 37.9808 58.9712 42.0192 57.7531 45.7683C56.5349 49.5174 54.1611 52.7846 50.972 55.1017C47.7828 57.4187 43.942 58.6667 40 58.6667C36.058 58.6667 32.2172 57.4187 29.028 55.1016C25.8389 52.7846 23.4651 49.5174 22.2469 45.7683Z" fill="#C4C4C4"/>
</svg>
