<svg width="24" height="25" viewBox="0 0 24 25" fill="none" xmlns="http://www.w3.org/2000/svg">
<path d="M16.3359 3.71137H17.9939V2.88238H16.3359V3.71137Z" fill="#949494"/>
<path d="M16.3359 6.477H17.9939V5.648H16.3359V6.477Z" fill="#949494"/>
<path d="M16.3359 9.24117H17.9939V8.41117H16.3359V9.24117Z" fill="#949494"/>
<path d="M16.3359 12.0063H17.9939V11.1773H16.3359V12.0063Z" fill="#949494"/>
<path d="M14.9252 18.2666C14.9822 20.0586 13.5742 21.5566 11.7822 21.6126C9.99022 21.6686 8.49222 20.2616 8.43722 18.4696C8.38022 16.6776 9.78722 15.1796 11.5792 15.1236C13.3712 15.0686 14.8692 16.4746 14.9252 18.2666Z" fill="#949494"/>
<path fill-rule="evenodd" clip-rule="evenodd" d="M17.178 19.775C16.662 21.816 14.963 23.448 12.902 23.874C9.213 24.635 6 21.847 6 18.319C6 16.047 7.332 14.099 9.246 13.191V3.434C9.246 2.089 10.336 1 11.681 1C13.026 1 14.115 2.089 14.115 3.434V13.191C16.434 14.291 17.896 16.936 17.178 19.775Z" stroke="#949494"/>
<path d="M11.681 11.5332C12.034 11.5332 12.32 11.8182 12.32 12.1722V18.1972C12.32 18.5502 12.034 18.8362 11.681 18.8362C11.328 18.8362 11.042 18.5502 11.042 18.1972V12.1722C11.042 11.8182 11.328 11.5332 11.681 11.5332Z" fill="#949494"/>
</svg>
