<svg width="25" height="25" viewBox="0 0 25 25" fill="none" xmlns="http://www.w3.org/2000/svg">
<path d="M12.5848 10.3748C12.5848 10.3748 12.5148 6.97383 13.6948 5.79384C14.8748 4.61384 17.0958 5.44684 18.5538 6.90484C20.0108 8.36184 21.1908 10.7918 20.3578 11.6248C19.4558 12.5268 17.9288 11.5548 16.9568 11.5548C15.9848 11.5548 14.4578 12.2488 14.4578 12.2488L12.5848 10.3748Z" fill="#808080"/>
<path d="M12.4143 14.625C12.4143 14.625 12.4843 18.026 11.3043 19.206C10.1243 20.386 7.90325 19.553 6.44526 18.095C4.98826 16.638 3.80926 14.208 4.64125 13.375C5.54325 12.474 7.07025 13.445 8.04225 13.445C9.01426 13.445 10.5413 12.751 10.5413 12.751L12.4143 14.625Z" fill="#808080"/>
<path d="M14.624 12.5847C14.624 12.5847 18.025 12.5157 19.205 13.6947C20.385 14.8747 19.552 17.0957 18.095 18.5537C16.637 20.0107 14.208 21.1907 13.375 20.3577C12.473 19.4557 13.444 17.9287 13.444 16.9577C13.444 15.9857 12.75 14.4587 12.75 14.4587L14.624 12.5847Z" fill="#808080"/>
<path d="M10.3749 12.4152C10.3749 12.4152 6.97387 12.4842 5.79387 11.3042C4.61387 10.1242 5.44687 7.90324 6.90387 6.44624C8.36187 4.98824 10.7909 3.80924 11.6239 4.64124C12.5259 5.54324 11.5549 7.07024 11.5549 8.04224C11.5549 9.01424 12.2489 10.5412 12.2489 10.5412L10.3749 12.4152Z" fill="#808080"/>
<path d="M15.5984 12.5004C15.5984 14.2114 14.2104 15.5994 12.4994 15.5994C10.7874 15.5994 9.40039 14.2114 9.40039 12.5004C9.40039 10.7884 10.7874 9.40137 12.4994 9.40137C14.2104 9.40137 15.5984 10.7884 15.5984 12.5004Z" fill="#202020"/>
<path d="M14.3596 12.4996C14.3596 13.5266 13.5266 14.3586 12.5006 14.3586C11.4726 14.3586 10.6396 13.5266 10.6396 12.4996C10.6396 11.4726 11.4726 10.6406 12.5006 10.6406C13.5266 10.6406 14.3596 11.4726 14.3596 12.4996Z" fill="#808080"/>
<path fill-rule="evenodd" clip-rule="evenodd" d="M24 12.5C24 18.851 18.851 24 12.5 24C6.148 24 1 18.851 1 12.5C1 6.148 6.148 1 12.5 1C18.851 1 24 6.148 24 12.5Z" stroke="#808080"/>
</svg>
