<svg width="375" height="233" viewBox="0 0 375 233" fill="none" xmlns="http://www.w3.org/2000/svg">
    <rect x="18" y="34.418" width="340" height="164" rx="15" stroke="white" stroke-width="2"/>
    <path d="M46.592 58.834C46.592 62.178 49.136 64.514 52.272 64.514C54.592 64.514 56.592 63.362 57.44 61.186H55.248C54.656 62.37 53.6 62.93 52.272 62.93C50.064 62.93 48.464 61.346 48.464 58.834C48.464 56.322 50.064 54.754 52.272 54.754C53.6 54.754 54.656 55.314 55.248 56.498H57.44C56.592 54.322 54.592 53.154 52.272 53.154C49.136 53.154 46.592 55.506 46.592 58.834ZM68.295 60.002C68.295 57.234 66.311 55.458 63.799 55.458C61.287 55.458 59.303 57.234 59.303 60.002C59.303 62.77 61.207 64.562 63.719 64.562C66.247 64.562 68.295 62.77 68.295 60.002ZM61.159 60.002C61.159 58.002 62.391 57.042 63.767 57.042C65.127 57.042 66.423 58.002 66.423 60.002C66.423 62.002 65.079 62.978 63.719 62.978C62.343 62.978 61.159 62.002 61.159 60.002ZM76.6741 64.418H78.4821V59.218C78.4821 56.754 76.9301 55.458 74.8661 55.458C73.8101 55.458 72.8341 55.89 72.2421 56.61V55.602H70.4181V64.418H72.2421V59.49C72.2421 57.874 73.1221 57.042 74.4661 57.042C75.7941 57.042 76.6741 57.874 76.6741 59.49V64.418ZM87.3847 64.418H89.1927V59.218C89.1927 56.754 87.6407 55.458 85.5767 55.458C84.5207 55.458 83.5447 55.89 82.9527 56.61V55.602H81.1287V64.418H82.9527V59.49C82.9527 57.874 83.8327 57.042 85.1767 57.042C86.5047 57.042 87.3847 57.874 87.3847 59.49V64.418ZM95.5514 56.994C96.9114 56.994 97.9834 57.858 98.0154 59.218H93.1354C93.3274 57.826 94.3194 56.994 95.5514 56.994ZM99.6794 61.794H97.7114C97.3754 62.482 96.7514 63.026 95.6314 63.026C94.2874 63.026 93.2474 62.146 93.1194 60.69H99.8554C99.9034 60.386 99.9194 60.098 99.9194 59.794C99.9194 57.202 98.1434 55.458 95.6314 55.458C93.0234 55.458 91.2314 57.234 91.2314 60.002C91.2314 62.77 93.1034 64.562 95.6314 64.562C97.7914 64.562 99.1834 63.33 99.6794 61.794ZM101.426 60.002C101.426 62.77 103.218 64.562 105.746 64.562C107.906 64.562 109.314 63.362 109.81 61.634H107.842C107.506 62.546 106.834 63.026 105.746 63.026C104.274 63.026 103.298 61.938 103.298 60.002C103.298 58.082 104.274 56.994 105.746 56.994C106.834 56.994 107.538 57.538 107.842 58.386H109.81C109.314 56.53 107.906 55.458 105.746 55.458C103.218 55.458 101.426 57.25 101.426 60.002ZM112.236 61.97C112.236 63.762 113.212 64.418 114.78 64.418H116.22V62.898H115.1C114.332 62.898 114.076 62.626 114.076 61.97V57.09H116.22V55.602H114.076V53.41H112.236V55.602H111.196V57.09H112.236V61.97ZM121.933 56.994C123.293 56.994 124.365 57.858 124.397 59.218H119.517C119.709 57.826 120.701 56.994 121.933 56.994ZM126.061 61.794H124.093C123.757 62.482 123.133 63.026 122.013 63.026C120.669 63.026 119.629 62.146 119.501 60.69H126.237C126.285 60.386 126.301 60.098 126.301 59.794C126.301 57.202 124.525 55.458 122.013 55.458C119.405 55.458 117.613 57.234 117.613 60.002C117.613 62.77 119.485 64.562 122.013 64.562C124.173 64.562 125.565 63.33 126.061 61.794ZM127.808 59.97C127.808 62.69 129.648 64.562 131.968 64.562C133.408 64.562 134.464 63.89 135.024 63.09V64.418H136.864V52.578H135.024V56.834C134.352 56.002 133.136 55.458 131.984 55.458C129.648 55.458 127.808 57.25 127.808 59.97ZM135.024 60.002C135.024 61.906 133.728 62.978 132.352 62.978C130.992 62.978 129.68 61.874 129.68 59.97C129.68 58.066 130.992 57.042 132.352 57.042C133.728 57.042 135.024 58.114 135.024 60.002ZM151.56 64.418H153.48L149.496 53.282H147.384L143.4 64.418H145.304L146.104 62.146H150.76L151.56 64.418ZM150.248 60.658H146.616L148.44 55.49L150.248 60.658ZM157.356 56.898V55.602H155.532V68.61H157.356V63.138C157.932 63.826 158.972 64.562 160.428 64.562C162.748 64.562 164.572 62.69 164.572 59.97C164.572 57.25 162.748 55.458 160.428 55.458C158.988 55.458 157.916 56.162 157.356 56.898ZM162.716 59.97C162.716 61.874 161.404 62.978 160.028 62.978C158.668 62.978 157.356 61.906 157.356 60.002C157.356 58.114 158.668 57.042 160.028 57.042C161.404 57.042 162.716 58.066 162.716 59.97ZM168.52 56.898V55.602H166.696V68.61H168.52V63.138C169.096 63.826 170.136 64.562 171.592 64.562C173.912 64.562 175.736 62.69 175.736 59.97C175.736 57.25 173.912 55.458 171.592 55.458C170.152 55.458 169.08 56.162 168.52 56.898ZM173.88 59.97C173.88 61.874 172.568 62.978 171.192 62.978C169.832 62.978 168.52 61.906 168.52 60.002C168.52 58.114 169.832 57.042 171.192 57.042C172.568 57.042 173.88 58.066 173.88 59.97ZM177.86 64.418H179.684V52.578H177.86V64.418ZM182.399 64.418H184.223V55.602H182.399V64.418ZM183.327 54.434C183.967 54.434 184.479 53.922 184.479 53.266C184.479 52.61 183.967 52.098 183.327 52.098C182.671 52.098 182.159 52.61 182.159 53.266C182.159 53.922 182.671 54.434 183.327 54.434ZM186.33 59.97C186.33 62.69 188.17 64.562 190.458 64.562C191.93 64.562 192.986 63.858 193.546 63.106V64.418H195.386V55.602H193.546V56.882C193.002 56.162 191.978 55.458 190.49 55.458C188.17 55.458 186.33 57.25 186.33 59.97ZM193.546 60.002C193.546 61.906 192.25 62.978 190.874 62.978C189.514 62.978 188.202 61.874 188.202 59.97C188.202 58.066 189.514 57.042 190.874 57.042C192.25 57.042 193.546 58.114 193.546 60.002ZM204.357 64.418H206.165V59.218C206.165 56.754 204.613 55.458 202.549 55.458C201.493 55.458 200.517 55.89 199.925 56.61V55.602H198.101V64.418H199.925V59.49C199.925 57.874 200.805 57.042 202.149 57.042C203.477 57.042 204.357 57.874 204.357 59.49V64.418ZM208.204 60.002C208.204 62.77 209.996 64.562 212.524 64.562C214.684 64.562 216.092 63.362 216.588 61.634H214.62C214.284 62.546 213.612 63.026 212.524 63.026C211.052 63.026 210.076 61.938 210.076 60.002C210.076 58.082 211.052 56.994 212.524 56.994C213.612 56.994 214.316 57.538 214.62 58.386H216.588C216.092 56.53 214.684 55.458 212.524 55.458C209.996 55.458 208.204 57.25 208.204 60.002ZM222.438 56.994C223.798 56.994 224.87 57.858 224.902 59.218H220.022C220.214 57.826 221.206 56.994 222.438 56.994ZM226.566 61.794H224.598C224.262 62.482 223.638 63.026 222.518 63.026C221.174 63.026 220.134 62.146 220.006 60.69H226.742C226.79 60.386 226.806 60.098 226.806 59.794C226.806 57.202 225.03 55.458 222.518 55.458C219.91 55.458 218.118 57.234 218.118 60.002C218.118 62.77 219.99 64.562 222.518 64.562C224.678 64.562 226.07 63.33 226.566 61.794ZM233.397 64.418H235.221V53.298H233.397V64.418ZM244.192 64.418H246V59.218C246 56.754 244.448 55.458 242.384 55.458C241.328 55.458 240.352 55.89 239.76 56.61V55.602H237.936V64.418H239.76V59.49C239.76 57.874 240.64 57.042 241.984 57.042C243.312 57.042 244.192 57.874 244.192 59.49V64.418ZM248.87 64.418H250.71V57.09H252.342V55.602H250.71V54.978C250.71 53.97 251.094 53.586 252.214 53.586V52.066C249.91 52.066 248.87 52.946 248.87 54.978V55.602H247.83V57.09H248.87V64.418ZM262.679 60.002C262.679 57.234 260.695 55.458 258.183 55.458C255.671 55.458 253.687 57.234 253.687 60.002C253.687 62.77 255.591 64.562 258.103 64.562C260.631 64.562 262.679 62.77 262.679 60.002ZM255.543 60.002C255.543 58.002 256.775 57.042 258.151 57.042C259.511 57.042 260.807 58.002 260.807 60.002C260.807 62.002 259.463 62.978 258.103 62.978C256.727 62.978 255.543 62.002 255.543 60.002ZM266.626 59.778C266.626 57.906 267.458 57.346 268.802 57.346H269.266V55.458C268.018 55.458 267.138 56.002 266.626 56.882V55.602H264.802V64.418H266.626V59.778ZM283.759 64.418H285.567V59.218C285.567 56.754 283.999 55.458 281.935 55.458C280.655 55.458 279.407 56.13 278.863 57.202C278.255 56.05 277.087 55.458 275.695 55.458C274.639 55.458 273.679 55.89 273.087 56.61V55.602H271.263V64.418H273.087V59.49C273.087 57.874 273.967 57.042 275.311 57.042C276.639 57.042 277.519 57.874 277.519 59.49V64.418H279.327V59.49C279.327 57.874 280.207 57.042 281.551 57.042C282.879 57.042 283.759 57.874 283.759 59.49V64.418ZM287.6 59.97C287.6 62.69 289.44 64.562 291.728 64.562C293.2 64.562 294.256 63.858 294.816 63.106V64.418H296.656V55.602H294.816V56.882C294.272 56.162 293.248 55.458 291.76 55.458C289.44 55.458 287.6 57.25 287.6 59.97ZM294.816 60.002C294.816 61.906 293.52 62.978 292.144 62.978C290.784 62.978 289.472 61.874 289.472 59.97C289.472 58.066 290.784 57.042 292.144 57.042C293.52 57.042 294.816 58.114 294.816 60.002ZM299.659 61.97C299.659 63.762 300.635 64.418 302.203 64.418H303.643V62.898H302.523C301.755 62.898 301.499 62.626 301.499 61.97V57.09H303.643V55.602H301.499V53.41H299.659V55.602H298.619V57.09H299.659V61.97ZM305.644 64.418H307.468V55.602H305.644V64.418ZM306.572 54.434C307.212 54.434 307.724 53.922 307.724 53.266C307.724 52.61 307.212 52.098 306.572 52.098C305.916 52.098 305.404 52.61 305.404 53.266C305.404 53.922 305.916 54.434 306.572 54.434ZM318.583 60.002C318.583 57.234 316.599 55.458 314.087 55.458C311.575 55.458 309.591 57.234 309.591 60.002C309.591 62.77 311.495 64.562 314.007 64.562C316.535 64.562 318.583 62.77 318.583 60.002ZM311.447 60.002C311.447 58.002 312.679 57.042 314.055 57.042C315.415 57.042 316.711 58.002 316.711 60.002C316.711 62.002 315.367 62.978 314.007 62.978C312.631 62.978 311.447 62.002 311.447 60.002ZM326.962 64.418H328.77V59.218C328.77 56.754 327.218 55.458 325.154 55.458C324.098 55.458 323.122 55.89 322.53 56.61V55.602H320.706V64.418H322.53V59.49C322.53 57.874 323.41 57.042 324.754 57.042C326.082 57.042 326.962 57.874 326.962 59.49V64.418Z" fill="white"/>
    <path d="M179.268 131.918V129.194H180.78C181.848 129.194 182.328 129.698 182.328 130.562C182.328 131.402 181.848 131.918 180.78 131.918H179.268ZM183.732 130.562C183.732 129.206 182.76 128.078 180.78 128.078H177.9V136.418H179.268V133.034H180.78C182.952 133.034 183.732 131.75 183.732 130.562ZM184.821 133.082C184.821 135.122 186.201 136.526 187.917 136.526C189.021 136.526 189.813 135.998 190.233 135.434V136.418H191.613V129.806H190.233V130.766C189.825 130.226 189.057 129.698 187.941 129.698C186.201 129.698 184.821 131.042 184.821 133.082ZM190.233 133.106C190.233 134.534 189.261 135.338 188.229 135.338C187.209 135.338 186.225 134.51 186.225 133.082C186.225 131.654 187.209 130.886 188.229 130.886C189.261 130.886 190.233 131.69 190.233 133.106ZM198.582 134.57C198.51 132.182 194.778 132.926 194.778 131.594C194.778 131.15 195.162 130.85 195.894 130.85C196.638 130.85 197.082 131.246 197.13 131.822H198.498C198.426 130.502 197.442 129.698 195.942 129.698C194.382 129.698 193.398 130.55 193.398 131.606C193.398 134.03 197.238 133.286 197.238 134.582C197.238 135.038 196.818 135.374 196.026 135.374C195.27 135.374 194.754 134.93 194.706 134.39H193.29C193.35 135.59 194.466 136.526 196.05 136.526C197.61 136.526 198.582 135.686 198.582 134.57ZM205.232 134.57C205.16 132.182 201.428 132.926 201.428 131.594C201.428 131.15 201.812 130.85 202.544 130.85C203.288 130.85 203.732 131.246 203.78 131.822H205.148C205.076 130.502 204.092 129.698 202.592 129.698C201.032 129.698 200.048 130.55 200.048 131.606C200.048 134.03 203.888 133.286 203.888 134.582C203.888 135.038 203.468 135.374 202.676 135.374C201.92 135.374 201.404 134.93 201.356 134.39H199.94C200 135.59 201.116 136.526 202.7 136.526C204.26 136.526 205.232 135.686 205.232 134.57ZM208.234 136.418H209.674L211.006 131.534L212.338 136.418H213.778L215.83 129.806H214.486L213.118 135.098L211.774 129.806H210.346L208.942 135.122L207.562 129.806H206.17L208.234 136.418ZM223.392 133.106C223.392 131.03 221.904 129.698 220.02 129.698C218.136 129.698 216.648 131.03 216.648 133.106C216.648 135.182 218.076 136.526 219.96 136.526C221.856 136.526 223.392 135.182 223.392 133.106ZM218.04 133.106C218.04 131.606 218.964 130.886 219.996 130.886C221.016 130.886 221.988 131.606 221.988 133.106C221.988 134.606 220.98 135.338 219.96 135.338C218.928 135.338 218.04 134.606 218.04 133.106ZM226.353 132.938C226.353 131.534 226.977 131.114 227.985 131.114H228.333V129.698C227.397 129.698 226.737 130.106 226.353 130.766V129.806H224.985V136.418H226.353V132.938ZM229.374 133.082C229.374 135.122 230.754 136.526 232.494 136.526C233.574 136.526 234.366 136.022 234.786 135.422V136.418H236.166V127.538H234.786V130.73C234.282 130.106 233.37 129.698 232.506 129.698C230.754 129.698 229.374 131.042 229.374 133.082ZM234.786 133.106C234.786 134.534 233.814 135.338 232.782 135.338C231.762 135.338 230.778 134.51 230.778 133.082C230.778 131.654 231.762 130.886 232.782 130.886C233.814 130.886 234.786 131.69 234.786 133.106ZM242.976 135.626C242.976 135.134 242.592 134.75 242.112 134.75C241.62 134.75 241.236 135.134 241.236 135.626C241.236 136.118 241.62 136.502 242.112 136.502C242.592 136.502 242.976 136.118 242.976 135.626ZM242.976 130.586C242.976 130.094 242.592 129.71 242.112 129.71C241.62 129.71 241.236 130.094 241.236 130.586C241.236 131.078 241.62 131.462 242.112 131.462C242.592 131.462 242.976 131.078 242.976 130.586ZM252.983 136.418H254.519L251.927 132.254L254.531 128.078H253.007L251.231 131.126L249.335 128.078H247.799L250.403 132.254L247.811 136.418H249.335L251.099 133.394L252.983 136.418ZM261.144 136.418H262.68L260.088 132.254L262.692 128.078H261.168L259.392 131.126L257.496 128.078H255.96L258.564 132.254L255.972 136.418H257.496L259.26 133.394L261.144 136.418ZM269.306 136.418H270.842L268.25 132.254L270.854 128.078H269.33L267.554 131.126L265.658 128.078H264.122L266.726 132.254L264.134 136.418H265.658L267.422 133.394L269.306 136.418ZM277.468 136.418H279.004L276.412 132.254L279.016 128.078H277.492L275.716 131.126L273.82 128.078H272.284L274.888 132.254L272.296 136.418H273.82L275.584 133.394L277.468 136.418ZM285.63 136.418H287.166L284.574 132.254L287.178 128.078H285.654L283.878 131.126L281.982 128.078H280.446L283.05 132.254L280.458 136.418H281.982L283.746 133.394L285.63 136.418ZM293.792 136.418H295.328L292.736 132.254L295.34 128.078H293.816L292.04 131.126L290.144 128.078H288.608L291.212 132.254L288.62 136.418H290.144L291.908 133.394L293.792 136.418ZM301.954 136.418H303.49L300.898 132.254L303.502 128.078H301.978L300.202 131.126L298.306 128.078H296.77L299.374 132.254L296.782 136.418H298.306L300.07 133.394L301.954 136.418ZM310.116 136.418H311.652L309.06 132.254L311.664 128.078H310.14L308.364 131.126L306.468 128.078H304.932L307.536 132.254L304.944 136.418H306.468L308.232 133.394L310.116 136.418Z" fill="white"/>
    <path d="M38.9 136.418H40.268V132.77H43.028V131.654H40.268V129.194H43.808V128.078H38.9V136.418ZM44.8598 132.23C44.8598 134.738 46.7678 136.49 49.1198 136.49C50.8598 136.49 52.3598 135.626 52.9958 133.994H51.3518C50.9078 134.882 50.1158 135.302 49.1198 135.302C47.4638 135.302 46.2638 134.114 46.2638 132.23C46.2638 130.346 47.4638 129.17 49.1198 129.17C50.1158 129.17 50.9078 129.59 51.3518 130.478H52.9958C52.3598 128.846 50.8598 127.97 49.1198 127.97C46.7678 127.97 44.8598 129.734 44.8598 132.23ZM54.381 132.23C54.381 134.738 56.289 136.49 58.641 136.49C60.381 136.49 61.881 135.626 62.517 133.994H60.873C60.429 134.882 59.637 135.302 58.641 135.302C56.985 135.302 55.785 134.114 55.785 132.23C55.785 130.346 56.985 129.17 58.641 129.17C59.637 129.17 60.429 129.59 60.873 130.478H62.517C61.881 128.846 60.381 127.97 58.641 127.97C56.289 127.97 54.381 129.734 54.381 132.23ZM64.3583 136.418H65.7263V128.078H64.3583V136.418ZM70.4863 128.078H67.7623V136.418H70.4863C73.1623 136.418 74.9143 134.846 74.9143 132.278C74.9143 129.698 73.1623 128.078 70.4863 128.078ZM69.1303 135.302V129.194H70.4863C72.4543 129.194 73.5103 130.37 73.5103 132.278C73.5103 134.174 72.4543 135.302 70.4863 135.302H69.1303ZM81.2833 135.626C81.2833 135.134 80.8993 134.75 80.4193 134.75C79.9273 134.75 79.5433 135.134 79.5433 135.626C79.5433 136.118 79.9273 136.502 80.4193 136.502C80.8993 136.502 81.2833 136.118 81.2833 135.626ZM81.2833 130.586C81.2833 130.094 80.8993 129.71 80.4193 129.71C79.9273 129.71 79.5433 130.094 79.5433 130.586C79.5433 131.078 79.9273 131.462 80.4193 131.462C80.8993 131.462 81.2833 131.078 81.2833 130.586ZM90.8339 130.574C90.8339 131.402 90.3539 131.99 89.2859 131.99H87.7739V129.194H89.2859C90.3539 129.194 90.8339 129.734 90.8339 130.574ZM86.4059 128.078V136.418H87.7739V133.082H88.8179L90.7379 136.418H92.3699L90.3059 132.962C91.7099 132.614 92.2379 131.558 92.2379 130.574C92.2379 129.218 91.2659 128.078 89.2859 128.078H86.4059ZM93.796 129.194H96.028V136.418H97.396V129.194H99.616V128.078H93.796V129.194ZM104.409 134.09C104.409 134.786 104.061 135.29 103.329 135.29C102.597 135.29 102.261 134.786 102.249 134.09H100.869C100.869 135.602 101.889 136.502 103.329 136.502C104.769 136.502 105.789 135.602 105.789 134.09V128.078H104.409V134.09ZM108.399 132.65H113.331V131.498H108.399V132.65ZM115.082 129.194H117.314V136.418H118.682V129.194H120.902V128.078H115.082V129.194ZM127.82 136.418H129.188V128.078H127.82V131.654H123.896V128.078H122.528V136.418H123.896V132.77H127.82V136.418ZM136.857 136.418H138.297L135.309 128.066H133.725L130.737 136.418H132.165L132.765 134.714H136.257L136.857 136.418ZM135.873 133.598H133.149L134.517 129.722L135.873 133.598ZM145.62 129.698C145.476 128.534 144.624 127.454 142.92 127.454C140.736 127.454 139.824 129.11 139.824 131.846C139.824 134.63 140.484 136.418 143.028 136.418C144.9 136.418 145.896 135.158 145.896 133.502C145.896 131.678 144.78 130.622 143.208 130.622C142.296 130.622 141.432 131.006 141 131.726C141.036 129.434 141.672 128.594 142.908 128.594C143.772 128.594 144.192 128.99 144.36 129.698H145.62ZM142.908 131.774C144.06 131.774 144.588 132.518 144.588 133.562C144.588 134.594 143.964 135.278 142.956 135.278C141.792 135.278 141.156 134.558 141.156 133.478C141.156 132.314 142.008 131.774 142.908 131.774ZM147.955 127.646V132.698H149.251C149.479 132.05 150.019 131.606 150.823 131.606C151.963 131.606 152.527 132.254 152.527 133.394C152.527 134.474 151.999 135.278 150.823 135.278C149.899 135.278 149.275 134.798 149.095 134.054H147.763C147.967 135.422 149.011 136.418 150.811 136.418C152.839 136.418 153.835 135.098 153.835 133.358C153.835 132.038 153.175 130.442 151.027 130.442C150.247 130.442 149.539 130.802 149.215 131.234V128.846H153.235V127.646H147.955ZM155.259 127.706V128.87H159.699L156.327 136.418H157.707L161.043 128.726V127.706H155.259Z" fill="#4B4B4B"/>
    <path d="M184.68 103.418H183.312L179.196 97.166V103.418H177.828V94.958H179.196L183.312 101.234V94.958H184.68V103.418ZM192.72 99.794C192.72 100.018 192.704 100.214 192.672 100.382H187.584C187.608 101.062 187.796 101.566 188.148 101.894C188.5 102.222 188.936 102.386 189.456 102.386C189.912 102.386 190.296 102.27 190.608 102.038C190.928 101.806 191.124 101.498 191.196 101.114H192.66C192.572 101.578 192.388 101.99 192.108 102.35C191.828 102.71 191.464 102.994 191.016 103.202C190.568 103.402 190.068 103.502 189.516 103.502C188.876 103.502 188.308 103.366 187.812 103.094C187.324 102.822 186.94 102.43 186.66 101.918C186.38 101.406 186.24 100.802 186.24 100.106C186.24 99.418 186.38 98.818 186.66 98.306C186.94 97.794 187.324 97.402 187.812 97.13C188.308 96.858 188.876 96.722 189.516 96.722C190.164 96.722 190.728 96.858 191.208 97.13C191.696 97.394 192.068 97.762 192.324 98.234C192.588 98.698 192.72 99.218 192.72 99.794ZM191.34 99.758C191.356 99.326 191.28 98.966 191.112 98.678C190.952 98.382 190.728 98.166 190.44 98.03C190.16 97.886 189.852 97.814 189.516 97.814C188.98 97.814 188.532 97.978 188.172 98.306C187.812 98.634 187.616 99.118 187.584 99.758H191.34ZM197.605 102.23V103.418H196.765C196.061 103.418 195.525 103.25 195.157 102.914C194.797 102.57 194.617 102.002 194.617 101.21V97.97H193.669V96.806H194.617V95.162H195.997V96.806H197.593V97.97H195.997V101.234C195.997 101.61 196.065 101.87 196.201 102.014C196.345 102.158 196.593 102.23 196.945 102.23H197.605ZM208.39 96.806L206.554 103.418H205.042L203.41 98.306L201.754 103.418H200.254L198.418 96.806H199.798L201.058 102.158L202.714 96.806H204.154L205.834 102.158L207.094 96.806H208.39ZM212.585 96.722C213.225 96.722 213.801 96.858 214.313 97.13C214.825 97.402 215.225 97.794 215.513 98.306C215.801 98.818 215.945 99.418 215.945 100.106C215.945 100.802 215.801 101.406 215.513 101.918C215.225 102.43 214.825 102.822 214.313 103.094C213.801 103.366 213.225 103.502 212.585 103.502C211.945 103.502 211.369 103.366 210.857 103.094C210.353 102.822 209.953 102.43 209.657 101.918C209.369 101.398 209.225 100.794 209.225 100.106C209.225 99.418 209.369 98.818 209.657 98.306C209.953 97.794 210.353 97.402 210.857 97.13C211.369 96.858 211.945 96.722 212.585 96.722ZM212.585 97.91C212.233 97.91 211.909 97.99 211.613 98.15C211.317 98.31 211.077 98.558 210.893 98.894C210.717 99.222 210.629 99.626 210.629 100.106C210.629 100.594 210.717 101.002 210.893 101.33C211.077 101.658 211.317 101.902 211.613 102.062C211.909 102.222 212.233 102.302 212.585 102.302C212.937 102.302 213.261 102.222 213.557 102.062C213.853 101.902 214.089 101.658 214.265 101.33C214.449 101.002 214.541 100.594 214.541 100.106C214.541 99.626 214.449 99.222 214.265 98.894C214.089 98.558 213.853 98.31 213.557 98.15C213.261 97.99 212.937 97.91 212.585 97.91ZM218.869 98.102C219.093 97.67 219.413 97.33 219.829 97.082C220.245 96.826 220.725 96.698 221.269 96.698V98.186H220.861C220.261 98.186 219.777 98.334 219.409 98.63C219.049 98.918 218.869 99.398 218.869 100.07V103.418H217.501V96.806H218.869V98.102ZM226.278 103.418L223.902 100.478V103.418H222.534V94.538H223.902V99.626L226.254 96.806H227.898L225.018 100.094L227.97 103.418H226.278ZM233.426 96.818V98.33H231.878V96.818H233.426ZM233.426 101.906V103.418H231.878V101.906H233.426ZM241.913 94.874C242.921 94.874 243.761 95.122 244.433 95.618C245.105 96.114 245.549 96.79 245.765 97.646H244.325C244.141 97.19 243.837 96.826 243.413 96.554C242.997 96.282 242.501 96.146 241.925 96.146C241.397 96.146 240.921 96.27 240.497 96.518C240.081 96.766 239.753 97.118 239.513 97.574C239.281 98.03 239.165 98.566 239.165 99.182C239.165 99.83 239.285 100.386 239.525 100.85C239.765 101.314 240.101 101.67 240.533 101.918C240.973 102.158 241.481 102.278 242.057 102.278C242.761 102.278 243.365 102.062 243.869 101.63C244.373 101.19 244.677 100.59 244.781 99.83H241.673V98.822H245.933V100.13C245.837 100.754 245.613 101.322 245.261 101.834C244.917 102.338 244.457 102.742 243.881 103.046C243.313 103.35 242.661 103.502 241.925 103.502C241.101 103.502 240.373 103.318 239.741 102.95C239.109 102.582 238.621 102.074 238.277 101.426C237.933 100.77 237.761 100.022 237.761 99.182C237.761 98.342 237.933 97.598 238.277 96.95C238.621 96.294 239.105 95.786 239.729 95.426C240.361 95.058 241.089 94.874 241.913 94.874ZM248.926 96.05V98.618H252.046V99.674H248.926V102.302H252.406V103.418H247.558V94.946H252.406V96.05H248.926ZM260.37 103.85V105.182H253.674V103.85H260.37ZM270.697 95.078V103.418H269.317V97.166L266.905 103.418H265.705L263.281 97.166V103.418H261.913V95.078H263.569L266.329 101.738L269.041 95.078H270.697ZM276.507 94.838C277.291 94.838 277.999 95.022 278.631 95.39C279.271 95.758 279.771 96.274 280.131 96.938C280.499 97.594 280.683 98.338 280.683 99.17C280.683 100.002 280.499 100.75 280.131 101.414C279.771 102.07 279.271 102.586 278.631 102.962C277.999 103.33 277.291 103.514 276.507 103.514C275.715 103.514 274.999 103.33 274.359 102.962C273.727 102.586 273.227 102.07 272.859 101.414C272.491 100.75 272.307 100.002 272.307 99.17C272.307 98.338 272.491 97.594 272.859 96.938C273.227 96.274 273.727 95.758 274.359 95.39C274.999 95.022 275.715 94.838 276.507 94.838ZM276.507 96.11C275.963 96.11 275.479 96.234 275.055 96.482C274.631 96.73 274.299 97.086 274.059 97.55C273.827 98.014 273.711 98.554 273.711 99.17C273.711 99.786 273.827 100.326 274.059 100.79C274.299 101.254 274.631 101.61 275.055 101.858C275.479 102.106 275.963 102.23 276.507 102.23C277.043 102.23 277.519 102.106 277.935 101.858C278.359 101.61 278.687 101.254 278.919 100.79C279.159 100.326 279.279 99.786 279.279 99.17C279.279 98.554 279.159 98.014 278.919 97.55C278.687 97.086 278.359 96.73 277.935 96.482C277.519 96.234 277.043 96.11 276.507 96.11ZM289.575 99.17C289.575 100.026 289.399 100.774 289.047 101.414C288.703 102.046 288.195 102.538 287.523 102.89C286.859 103.242 286.063 103.418 285.135 103.418H282.303V94.946H285.135C286.063 94.946 286.859 95.122 287.523 95.474C288.195 95.818 288.703 96.306 289.047 96.938C289.399 97.57 289.575 98.314 289.575 99.17ZM285.027 102.182C286.043 102.182 286.823 101.918 287.367 101.39C287.911 100.862 288.183 100.122 288.183 99.17C288.183 98.218 287.911 97.478 287.367 96.95C286.823 96.422 286.043 96.158 285.027 96.158H283.671V102.182H285.027ZM292.499 94.946V99.974C292.499 100.726 292.663 101.286 292.991 101.654C293.327 102.022 293.795 102.206 294.395 102.206C294.987 102.206 295.447 102.022 295.775 101.654C296.111 101.286 296.279 100.726 296.279 99.974V94.946H297.647V99.974C297.647 101.134 297.347 102.014 296.747 102.614C296.147 103.206 295.355 103.502 294.371 103.502C293.395 103.502 292.611 103.206 292.019 102.614C291.427 102.014 291.131 101.134 291.131 99.974V94.946H292.499ZM300.85 102.35H303.778V103.418H299.482V94.946H300.85V102.35ZM306.457 96.05V98.618H309.577V99.674H306.457V102.302H309.937V103.418H305.089V94.946H309.937V96.05H306.457ZM317.901 103.85V105.182H311.205V103.85H317.901Z" fill="#4B4B4B"/>
    <path d="M324.28 103.418L322.252 100.286L320.44 103.418H318.868L321.496 99.098L318.808 94.946H320.44L322.432 98.018L324.232 94.946H325.804L323.188 99.194L325.912 103.418H324.28ZM332.009 103.418L329.981 100.286L328.169 103.418H326.597L329.225 99.098L326.537 94.946H328.169L330.161 98.018L331.961 94.946H333.533L330.917 99.194L333.641 103.418H332.009ZM339.737 103.418L337.709 100.286L335.897 103.418H334.325L336.953 99.098L334.265 94.946H335.897L337.889 98.018L339.689 94.946H341.261L338.645 99.194L341.369 103.418H339.737ZM347.465 103.418L345.437 100.286L343.625 103.418H342.053L344.681 99.098L341.993 94.946H343.625L345.617 98.018L347.417 94.946H348.989L346.373 99.194L349.097 103.418H347.465Z" fill="white"/>
    <path d="M48.612 95.078V103.418H47.232V97.166L44.82 103.418H43.62L41.196 97.166V103.418H39.828V95.078H41.484L44.244 101.738L46.956 95.078H48.612ZM55.5497 101.582H51.9737L51.3257 103.418H49.8617L52.9817 95.078H54.5537L57.6617 103.418H56.1977L55.5497 101.582ZM55.1657 100.526L53.7617 96.566L52.3577 100.526H55.1657ZM62.6974 94.862C63.7374 94.862 64.6014 95.126 65.2894 95.654C65.9774 96.182 66.4414 96.898 66.6814 97.802H65.2294C65.0294 97.29 64.7094 96.886 64.2694 96.59C63.8374 96.286 63.3054 96.134 62.6734 96.134C62.1694 96.134 61.7174 96.258 61.3174 96.506C60.9254 96.754 60.6134 97.11 60.3814 97.574C60.1574 98.03 60.0454 98.566 60.0454 99.182C60.0454 99.79 60.1574 100.326 60.3814 100.79C60.6134 101.246 60.9254 101.598 61.3174 101.846C61.7174 102.094 62.1694 102.218 62.6734 102.218C63.3054 102.218 63.8374 102.07 64.2694 101.774C64.7094 101.47 65.0294 101.066 65.2294 100.562H66.6814C66.4414 101.466 65.9774 102.182 65.2894 102.71C64.6014 103.23 63.7374 103.49 62.6974 103.49C61.8974 103.49 61.1894 103.31 60.5734 102.95C59.9574 102.582 59.4814 102.074 59.1454 101.426C58.8094 100.77 58.6414 100.022 58.6414 99.182C58.6414 98.342 58.8094 97.598 59.1454 96.95C59.4814 96.294 59.9574 95.782 60.5734 95.414C61.1894 95.046 61.8974 94.862 62.6974 94.862ZM72.6108 96.818V98.33H71.0628V96.818H72.6108ZM72.6108 101.906V103.418H71.0628V101.906H72.6108ZM79.2206 101.582H75.6446L74.9966 103.418H73.5326L76.6526 95.078H78.2246L81.3326 103.418H79.8686L79.2206 101.582ZM78.8366 100.526L77.4326 96.566L76.0286 100.526H78.8366ZM87.0283 97.226C86.8843 96.282 86.3923 95.81 85.5523 95.81C84.9443 95.81 84.4883 96.054 84.1843 96.542C83.8803 97.022 83.7283 97.778 83.7283 98.81L83.7403 99.218C83.8603 98.786 84.1203 98.442 84.5203 98.186C84.9203 97.93 85.3923 97.802 85.9363 97.802C86.7683 97.802 87.4203 98.05 87.8923 98.546C88.3643 99.042 88.6003 99.742 88.6003 100.646C88.6003 101.19 88.4923 101.678 88.2763 102.11C88.0603 102.534 87.7363 102.874 87.3043 103.13C86.8723 103.378 86.3403 103.502 85.7083 103.502C84.4843 103.502 83.6443 103.122 83.1883 102.362C82.7323 101.602 82.5043 100.558 82.5043 99.23C82.5043 97.71 82.7483 96.574 83.2363 95.822C83.7243 95.07 84.5243 94.694 85.6363 94.694C86.4683 94.694 87.1043 94.93 87.5443 95.402C87.9923 95.874 88.2523 96.482 88.3243 97.226H87.0283ZM83.8603 100.49C83.8603 101.01 84.0123 101.446 84.3163 101.798C84.6203 102.142 85.0683 102.314 85.6603 102.314C86.1643 102.314 86.5643 102.166 86.8603 101.87C87.1643 101.574 87.3163 101.162 87.3163 100.634C87.3163 100.066 87.1643 99.63 86.8603 99.326C86.5563 99.022 86.1443 98.87 85.6243 98.87C85.1523 98.87 84.7403 99.01 84.3883 99.29C84.0363 99.57 83.8603 99.97 83.8603 100.49ZM94.3129 98.498V99.65H89.3689V98.498H94.3129ZM103.887 99.17C103.887 100.026 103.711 100.774 103.359 101.414C103.015 102.046 102.507 102.538 101.835 102.89C101.171 103.242 100.375 103.418 99.4472 103.418H96.6152V94.946H99.4472C100.375 94.946 101.171 95.122 101.835 95.474C102.507 95.818 103.015 96.306 103.359 96.938C103.711 97.57 103.887 98.314 103.887 99.17ZM99.3392 102.182C100.355 102.182 101.135 101.918 101.679 101.39C102.223 100.862 102.495 100.122 102.495 99.17C102.495 98.218 102.223 97.478 101.679 96.95C101.135 96.422 100.355 96.158 99.3392 96.158H97.9832V102.182H99.3392ZM111.168 96.026H106.98V98.546C107.172 98.298 107.444 98.102 107.796 97.958C108.148 97.806 108.536 97.73 108.96 97.73C109.552 97.73 110.044 97.858 110.436 98.114C110.828 98.362 111.116 98.694 111.3 99.11C111.492 99.526 111.588 99.986 111.588 100.49C111.588 101.378 111.34 102.098 110.844 102.65C110.348 103.194 109.628 103.466 108.684 103.466C107.796 103.466 107.08 103.23 106.536 102.758C105.992 102.286 105.696 101.658 105.648 100.874H106.992C107.064 101.306 107.24 101.646 107.52 101.894C107.808 102.142 108.172 102.266 108.612 102.266C109.156 102.266 109.564 102.102 109.836 101.774C110.108 101.446 110.244 101.01 110.244 100.466C110.244 99.954 110.104 99.554 109.824 99.266C109.544 98.97 109.144 98.822 108.624 98.822C108.256 98.822 107.932 98.902 107.652 99.062C107.38 99.222 107.18 99.434 107.052 99.698H105.72V94.814H111.168V96.026ZM117.24 98.498V99.65H112.296V98.498H117.24ZM124.546 94.946V96.05H120.91V98.678H123.91V99.734H120.91V103.418H119.542V94.946H124.546ZM126.017 96.914C126.017 96.498 126.129 96.118 126.353 95.774C126.577 95.43 126.909 95.154 127.349 94.946C127.797 94.738 128.333 94.634 128.957 94.634C129.581 94.634 130.113 94.738 130.553 94.946C131.001 95.154 131.337 95.43 131.561 95.774C131.793 96.118 131.909 96.498 131.909 96.914C131.909 97.378 131.785 97.778 131.537 98.114C131.297 98.45 130.937 98.694 130.457 98.846C130.993 99.014 131.405 99.286 131.693 99.662C131.981 100.03 132.125 100.482 132.125 101.018C132.125 101.842 131.833 102.486 131.249 102.95C130.665 103.406 129.901 103.634 128.957 103.634C128.013 103.634 127.249 103.406 126.665 102.95C126.089 102.486 125.801 101.842 125.801 101.018C125.801 100.482 125.945 100.03 126.233 99.662C126.521 99.286 126.933 99.014 127.469 98.846C126.989 98.694 126.625 98.45 126.377 98.114C126.137 97.778 126.017 97.378 126.017 96.914ZM127.373 97.13C127.373 97.562 127.513 97.898 127.793 98.138C128.081 98.37 128.469 98.486 128.957 98.486C129.445 98.486 129.833 98.37 130.121 98.138C130.409 97.898 130.553 97.562 130.553 97.13C130.553 96.698 130.405 96.362 130.109 96.122C129.821 95.882 129.437 95.762 128.957 95.762C128.477 95.762 128.093 95.882 127.805 96.122C127.517 96.362 127.373 96.698 127.373 97.13ZM127.133 100.946C127.133 101.434 127.297 101.818 127.625 102.098C127.953 102.37 128.397 102.506 128.957 102.506C129.517 102.506 129.961 102.37 130.289 102.098C130.617 101.818 130.781 101.434 130.781 100.946C130.781 100.45 130.609 100.078 130.265 99.83C129.929 99.574 129.493 99.446 128.957 99.446C128.429 99.446 127.993 99.574 127.649 99.83C127.305 100.086 127.133 100.458 127.133 100.946ZM137.823 98.498V99.65H132.879V98.498H137.823ZM143.906 94.862C144.946 94.862 145.81 95.126 146.498 95.654C147.186 96.182 147.65 96.898 147.89 97.802H146.438C146.238 97.29 145.918 96.886 145.478 96.59C145.046 96.286 144.514 96.134 143.882 96.134C143.378 96.134 142.926 96.258 142.526 96.506C142.134 96.754 141.822 97.11 141.59 97.574C141.366 98.03 141.254 98.566 141.254 99.182C141.254 99.79 141.366 100.326 141.59 100.79C141.822 101.246 142.134 101.598 142.526 101.846C142.926 102.094 143.378 102.218 143.882 102.218C144.514 102.218 145.046 102.07 145.478 101.774C145.918 101.47 146.238 101.066 146.438 100.562H147.89C147.65 101.466 147.186 102.182 146.498 102.71C145.81 103.23 144.946 103.49 143.906 103.49C143.106 103.49 142.398 103.31 141.782 102.95C141.166 102.582 140.69 102.074 140.354 101.426C140.018 100.77 139.85 100.022 139.85 99.182C139.85 98.342 140.018 97.598 140.354 96.95C140.69 96.294 141.166 95.782 141.782 95.414C142.398 95.046 143.106 94.862 143.906 94.862ZM154.438 95.93L151.282 103.418H149.842L153.046 96.086H148.846V94.898H154.438V95.93Z" fill="#4B4B4B"/>
    <path d="M179.268 163.918V161.194H180.78C181.848 161.194 182.328 161.698 182.328 162.562C182.328 163.402 181.848 163.918 180.78 163.918H179.268ZM183.732 162.562C183.732 161.206 182.76 160.078 180.78 160.078H177.9V168.418H179.268V165.034H180.78C182.952 165.034 183.732 163.75 183.732 162.562ZM184.845 161.194H187.077V168.418H188.445V161.194H190.665V160.078H184.845V161.194ZM193.706 167.626C193.706 167.134 193.322 166.75 192.842 166.75C192.35 166.75 191.966 167.134 191.966 167.626C191.966 168.118 192.35 168.502 192.842 168.502C193.322 168.502 193.706 168.118 193.706 167.626ZM204.266 160.066V166.282L200.15 160.066H198.782V168.418H200.15V162.19L204.266 168.418H205.634V160.066H204.266ZM213.97 165.106C213.97 163.03 212.482 161.698 210.598 161.698C208.714 161.698 207.226 163.03 207.226 165.106C207.226 167.182 208.654 168.526 210.538 168.526C212.434 168.526 213.97 167.182 213.97 165.106ZM208.618 165.106C208.618 163.606 209.542 162.886 210.574 162.886C211.594 162.886 212.566 163.606 212.566 165.106C212.566 166.606 211.558 167.338 210.538 167.338C209.506 167.338 208.618 166.606 208.618 165.106ZM222.916 168.418H224.26V166.594H225.376V165.406H224.26V159.778H222.604L218.572 165.562V166.594H222.916V168.418ZM220.144 165.406L222.976 161.17V165.406H220.144ZM227.109 159.646V164.698H228.405C228.633 164.05 229.173 163.606 229.977 163.606C231.117 163.606 231.681 164.254 231.681 165.394C231.681 166.474 231.153 167.278 229.977 167.278C229.053 167.278 228.429 166.798 228.249 166.054H226.917C227.121 167.422 228.165 168.418 229.965 168.418C231.993 168.418 232.989 167.098 232.989 165.358C232.989 164.038 232.329 162.442 230.181 162.442C229.401 162.442 228.693 162.802 228.369 163.234V160.846H232.389V159.646H227.109ZM234.629 161.83H235.961C236.045 161.218 236.489 160.642 237.449 160.642C238.385 160.642 238.877 161.146 238.877 161.902C238.877 162.838 238.121 163.198 236.885 163.21H236.561V164.338H236.873C238.301 164.338 239.045 164.734 239.045 165.886C239.045 166.702 238.541 167.326 237.521 167.326C236.489 167.326 235.889 166.702 235.829 165.886H234.509C234.593 167.602 235.877 168.466 237.533 168.466C239.357 168.466 240.341 167.41 240.341 166.018C240.341 164.806 239.753 164.05 238.841 163.774V163.726C239.525 163.498 240.185 162.79 240.185 161.746C240.185 160.474 239.237 159.466 237.497 159.466C235.901 159.466 234.725 160.318 234.629 161.83ZM241.778 159.706V160.87H246.218L242.846 168.418H244.226L247.562 160.726V159.706H241.778ZM248.865 168.298H254.697V167.158H250.893C252.297 165.874 254.457 164.254 254.457 162.13C254.457 160.558 253.449 159.49 251.673 159.49C250.125 159.49 248.901 160.414 248.853 162.31H250.173C250.209 161.326 250.725 160.654 251.685 160.654C252.705 160.654 253.101 161.278 253.101 162.19C253.101 163.906 250.929 165.49 248.865 167.302V168.298ZM256.583 166.042C256.691 167.29 257.531 168.406 259.343 168.406C261.635 168.406 262.259 166.834 262.259 163.882C262.259 161.014 261.503 159.466 259.247 159.466C257.411 159.466 256.343 160.618 256.343 162.358C256.343 164.206 257.591 165.154 259.127 165.154C259.919 165.154 260.675 164.854 261.071 164.302C261.071 166.534 260.519 167.266 259.427 167.266C258.515 167.266 257.999 166.822 257.843 166.042H256.583ZM259.367 164.002C258.155 164.002 257.651 163.222 257.651 162.322C257.651 161.314 258.263 160.606 259.283 160.606C260.279 160.606 260.915 161.242 260.915 162.358C260.915 163.342 260.339 164.002 259.367 164.002ZM263.888 168.298H269.72V167.158H265.916C267.32 165.874 269.48 164.254 269.48 162.13C269.48 160.558 268.472 159.49 266.696 159.49C265.148 159.49 263.924 160.414 263.876 162.31H265.196C265.232 161.326 265.748 160.654 266.708 160.654C267.728 160.654 268.124 161.278 268.124 162.19C268.124 163.906 265.952 165.49 263.888 167.302V168.298ZM272.098 168.418H273.478V159.67H270.982V160.918H272.098V168.418ZM276.533 168.418H277.913V159.67H275.417V160.918H276.533V168.418ZM280.009 161.83H281.341C281.425 161.218 281.869 160.642 282.829 160.642C283.765 160.642 284.257 161.146 284.257 161.902C284.257 162.838 283.501 163.198 282.265 163.21H281.941V164.338H282.253C283.681 164.338 284.425 164.734 284.425 165.886C284.425 166.702 283.921 167.326 282.901 167.326C281.869 167.326 281.269 166.702 281.209 165.886H279.889C279.973 167.602 281.257 168.466 282.913 168.466C284.737 168.466 285.721 167.41 285.721 166.018C285.721 164.806 285.133 164.05 284.221 163.774V163.726C284.905 163.498 285.565 162.79 285.565 161.746C285.565 160.474 284.617 159.466 282.877 159.466C281.281 159.466 280.105 160.318 280.009 161.83Z" fill="#4B4B4B"/>
    <path d="M39.9 168.418H41.268V160.078H39.9V168.418ZM42.8481 164.23C42.8481 166.738 44.7561 168.49 47.1081 168.49C48.8481 168.49 50.3481 167.626 50.9841 165.994H49.3401C48.8961 166.882 48.1041 167.302 47.1081 167.302C45.4521 167.302 44.2521 166.114 44.2521 164.23C44.2521 162.346 45.4521 161.17 47.1081 161.17C48.1041 161.17 48.8961 161.59 49.3401 162.478H50.9841C50.3481 160.846 48.8481 159.97 47.1081 159.97C44.7561 159.97 42.8481 161.734 42.8481 164.23ZM54.2413 167.626C54.2413 167.134 53.8573 166.75 53.3773 166.75C52.8853 166.75 52.5013 167.134 52.5013 167.626C52.5013 168.118 52.8853 168.502 53.3773 168.502C53.8573 168.502 54.2413 168.118 54.2413 167.626ZM54.2413 162.586C54.2413 162.094 53.8573 161.71 53.3773 161.71C52.8853 161.71 52.5013 162.094 52.5013 162.586C52.5013 163.078 52.8853 163.462 53.3773 163.462C53.8573 163.462 54.2413 163.078 54.2413 162.586ZM62.5319 166.09C62.5319 166.786 62.1839 167.29 61.4519 167.29C60.7199 167.29 60.3839 166.786 60.3719 166.09H58.9919C58.9919 167.602 60.0119 168.502 61.4519 168.502C62.8919 168.502 63.9119 167.602 63.9119 166.09V160.078H62.5319V166.09ZM66.3773 168.418H67.7453V164.77H70.5053V163.654H67.7453V161.194H71.2853V160.078H66.3773V168.418ZM78.2771 160.066V166.282L74.1611 160.066H72.7931V168.418H74.1611V162.19L78.2771 168.418H79.6451V160.066H78.2771ZM87.3096 166.054C87.3096 163.006 82.8936 164.182 82.8936 162.298C82.8936 161.494 83.5056 161.11 84.2976 161.134C85.1616 161.158 85.6536 161.674 85.7016 162.238H87.2136C87.0936 160.81 85.9656 159.97 84.3696 159.97C82.6656 159.97 81.5016 160.882 81.5016 162.346C81.5016 165.418 85.9296 164.11 85.9296 166.126C85.9296 166.834 85.3896 167.35 84.4296 167.35C83.4816 167.35 83.0016 166.798 82.9416 166.114H81.4776C81.4776 167.59 82.7616 168.502 84.4296 168.502C86.2896 168.502 87.3096 167.302 87.3096 166.054ZM94.4557 168.418H95.8237V160.078H94.4557V163.654H90.5317V160.078H89.1637V168.418H90.5317V164.77H94.4557V168.418ZM98.1287 166.042C98.2367 167.29 99.0767 168.406 100.889 168.406C103.181 168.406 103.805 166.834 103.805 163.882C103.805 161.014 103.049 159.466 100.793 159.466C98.9567 159.466 97.8887 160.618 97.8887 162.358C97.8887 164.206 99.1367 165.154 100.673 165.154C101.465 165.154 102.221 164.854 102.617 164.302C102.617 166.534 102.065 167.266 100.973 167.266C100.061 167.266 99.5447 166.822 99.3887 166.042H98.1287ZM100.913 164.002C99.7007 164.002 99.1967 163.222 99.1967 162.322C99.1967 161.314 99.8087 160.606 100.829 160.606C101.825 160.606 102.461 161.242 102.461 162.358C102.461 163.342 101.885 164.002 100.913 164.002ZM110.33 160.066H105.722V168.418H110.33V167.302H107.09V164.746H109.97V163.63H107.09V161.182H110.33V160.066ZM111.967 168.298H117.799V167.158H113.995C115.399 165.874 117.559 164.254 117.559 162.13C117.559 160.558 116.551 159.49 114.775 159.49C113.227 159.49 112.003 160.414 111.955 162.31H113.275C113.311 161.326 113.827 160.654 114.787 160.654C115.807 160.654 116.203 161.278 116.203 162.19C116.203 163.906 114.031 165.49 111.967 167.302V168.298ZM125.205 161.698C125.061 160.534 124.209 159.454 122.505 159.454C120.321 159.454 119.409 161.11 119.409 163.846C119.409 166.63 120.069 168.418 122.613 168.418C124.485 168.418 125.481 167.158 125.481 165.502C125.481 163.678 124.365 162.622 122.793 162.622C121.881 162.622 121.017 163.006 120.585 163.726C120.621 161.434 121.257 160.594 122.493 160.594C123.357 160.594 123.777 160.99 123.945 161.698H125.205ZM122.493 163.774C123.645 163.774 124.173 164.518 124.173 165.562C124.173 166.594 123.549 167.278 122.541 167.278C121.377 167.278 120.741 166.558 120.741 165.478C120.741 164.314 121.593 163.774 122.493 163.774ZM127.072 168.298H132.904V167.158H129.1C130.504 165.874 132.664 164.254 132.664 162.13C132.664 160.558 131.656 159.49 129.88 159.49C128.332 159.49 127.108 160.414 127.06 162.31H128.38C128.416 161.326 128.932 160.654 129.892 160.654C130.912 160.654 131.308 161.278 131.308 162.19C131.308 163.906 129.136 165.49 127.072 167.302V168.298ZM135.822 163.846C134.946 164.17 134.358 164.95 134.358 166.006C134.358 167.602 135.654 168.634 137.454 168.634C139.266 168.634 140.562 167.602 140.562 166.006C140.562 164.962 139.974 164.182 139.086 163.846C139.794 163.498 140.334 162.814 140.334 161.878C140.334 160.618 139.386 159.514 137.454 159.514C135.522 159.514 134.574 160.606 134.574 161.878C134.574 162.85 135.078 163.474 135.822 163.846ZM137.454 163.414C136.542 163.414 135.894 162.85 135.894 162.058C135.894 161.134 136.518 160.654 137.454 160.654C138.414 160.654 139.026 161.146 139.026 162.046C139.026 162.838 138.366 163.414 137.454 163.414ZM137.454 164.446C138.486 164.446 139.218 164.974 139.218 165.958C139.218 166.834 138.558 167.494 137.454 167.494C136.338 167.494 135.666 166.846 135.666 165.958C135.666 164.938 136.446 164.446 137.454 164.446ZM147.71 168.418H149.078V160.078H147.71V163.654H143.786V160.078H142.418V168.418H143.786V164.77H147.71V168.418Z" fill="#4B4B4B"/>
    <rect x="172" y="120.418" width="145.813" height="22" rx="4" stroke="#F2A900" stroke-width="2"/>
    <rect x="314" y="88" width="39" height="22" rx="4" stroke="#F2A900" stroke-width="2"/>
</svg>
