<svg width="375" height="233" viewBox="0 0 375 233" fill="none" xmlns="http://www.w3.org/2000/svg">
    <rect x="18" y="34.9141" width="340" height="164" rx="15" stroke="white" stroke-width="2"/>
    <path d="M52.144 53.5061C53.5307 53.5061 54.6827 53.8581 55.6 54.5621C56.5173 55.2661 57.136 56.2207 57.456 57.4261H55.52C55.2533 56.7434 54.8267 56.2047 54.24 55.8101C53.664 55.4047 52.9547 55.2021 52.112 55.2021C51.44 55.2021 50.8373 55.3674 50.304 55.6981C49.7813 56.0287 49.3653 56.5034 49.056 57.1221C48.7573 57.7301 48.608 58.4447 48.608 59.2661C48.608 60.0767 48.7573 60.7914 49.056 61.4101C49.3653 62.0181 49.7813 62.4874 50.304 62.8181C50.8373 63.1487 51.44 63.3141 52.112 63.3141C52.9547 63.3141 53.664 63.1167 54.24 62.7221C54.8267 62.3167 55.2533 61.7781 55.52 61.1061H57.456C57.136 62.3114 56.5173 63.2661 55.6 63.9701C54.6827 64.6634 53.5307 65.0101 52.144 65.0101C51.0773 65.0101 50.1333 64.7701 49.312 64.2901C48.4907 63.7994 47.856 63.1221 47.408 62.2581C46.96 61.3834 46.736 60.3861 46.736 59.2661C46.736 58.1461 46.96 57.1541 47.408 56.2901C47.856 55.4154 48.4907 54.7327 49.312 54.2421C50.1333 53.7514 51.0773 53.5061 52.144 53.5061ZM63.6279 55.9861C64.4812 55.9861 65.2492 56.1674 65.9319 56.5301C66.6145 56.8927 67.1479 57.4154 67.5319 58.0981C67.9159 58.7807 68.1079 59.5807 68.1079 60.4981C68.1079 61.4261 67.9159 62.2314 67.5319 62.9141C67.1479 63.5967 66.6145 64.1194 65.9319 64.4821C65.2492 64.8447 64.4812 65.0261 63.6279 65.0261C62.7745 65.0261 62.0065 64.8447 61.3239 64.4821C60.6519 64.1194 60.1185 63.5967 59.7239 62.9141C59.3399 62.2207 59.1479 61.4154 59.1479 60.4981C59.1479 59.5807 59.3399 58.7807 59.7239 58.0981C60.1185 57.4154 60.6519 56.8927 61.3239 56.5301C62.0065 56.1674 62.7745 55.9861 63.6279 55.9861ZM63.6279 57.5701C63.1585 57.5701 62.7265 57.6767 62.3319 57.8901C61.9372 58.1034 61.6172 58.4341 61.3719 58.8821C61.1372 59.3194 61.0199 59.8581 61.0199 60.4981C61.0199 61.1487 61.1372 61.6927 61.3719 62.1301C61.6172 62.5674 61.9372 62.8927 62.3319 63.1061C62.7265 63.3194 63.1585 63.4261 63.6279 63.4261C64.0972 63.4261 64.5292 63.3194 64.9239 63.1061C65.3185 62.8927 65.6332 62.5674 65.8679 62.1301C66.1132 61.6927 66.2359 61.1487 66.2359 60.4981C66.2359 59.8581 66.1132 59.3194 65.8679 58.8821C65.6332 58.4341 65.3185 58.1034 64.9239 57.8901C64.5292 57.6767 64.0972 57.5701 63.6279 57.5701ZM75.1095 55.9541C76.1335 55.9541 76.9548 56.2847 77.5735 56.9461C78.1922 57.6074 78.5015 58.5514 78.5015 59.7781V64.9141H76.6775V59.9701C76.6775 59.1807 76.4748 58.5727 76.0695 58.1461C75.6642 57.7087 75.1095 57.4901 74.4055 57.4901C73.6802 57.4901 73.0988 57.7247 72.6615 58.1941C72.2242 58.6527 72.0055 59.3301 72.0055 60.2261V64.9141H70.1815V56.0981H72.0055V58.0341C72.2402 57.3727 72.6348 56.8607 73.1895 56.4981C73.7442 56.1354 74.3842 55.9541 75.1095 55.9541ZM85.8826 55.9541C86.9066 55.9541 87.728 56.2847 88.3466 56.9461C88.9653 57.6074 89.2746 58.5514 89.2746 59.7781V64.9141H87.4506V59.9701C87.4506 59.1807 87.248 58.5727 86.8426 58.1461C86.4373 57.7087 85.8826 57.4901 85.1786 57.4901C84.4533 57.4901 83.872 57.7247 83.4346 58.1941C82.9973 58.6527 82.7786 59.3301 82.7786 60.2261V64.9141H80.9546V56.0981H82.7786V58.0341C83.0133 57.3727 83.408 56.8607 83.9626 56.4981C84.5173 56.1354 85.1573 55.9541 85.8826 55.9541ZM99.9197 60.0821C99.9197 60.3807 99.8984 60.6421 99.8557 60.8661H93.0717C93.1037 61.7727 93.3544 62.4447 93.8237 62.8821C94.2931 63.3194 94.8744 63.5381 95.5677 63.5381C96.1757 63.5381 96.6877 63.3834 97.1037 63.0741C97.5304 62.7647 97.7917 62.3541 97.8877 61.8421H99.8397C99.7224 62.4607 99.4771 63.0101 99.1037 63.4901C98.7304 63.9701 98.2451 64.3487 97.6477 64.6261C97.0504 64.8927 96.3837 65.0261 95.6477 65.0261C94.7944 65.0261 94.0371 64.8447 93.3757 64.4821C92.7251 64.1194 92.2131 63.5967 91.8397 62.9141C91.4664 62.2314 91.2797 61.4261 91.2797 60.4981C91.2797 59.5807 91.4664 58.7807 91.8397 58.0981C92.2131 57.4154 92.7251 56.8927 93.3757 56.5301C94.0371 56.1674 94.7944 55.9861 95.6477 55.9861C96.5117 55.9861 97.2637 56.1674 97.9037 56.5301C98.5544 56.8821 99.0504 57.3727 99.3917 58.0021C99.7437 58.6207 99.9197 59.3141 99.9197 60.0821ZM98.0797 60.0341C98.1011 59.4581 97.9997 58.9781 97.7757 58.5941C97.5624 58.1994 97.2637 57.9114 96.8797 57.7301C96.5064 57.5381 96.0957 57.4421 95.6477 57.4421C94.9331 57.4421 94.3357 57.6607 93.8557 58.0981C93.3757 58.5354 93.1144 59.1807 93.0717 60.0341H98.0797ZM105.921 55.9861C107.062 55.9861 108.006 56.2901 108.753 56.8981C109.5 57.4954 109.964 58.3114 110.145 59.3461H108.209C108.102 58.7914 107.841 58.3594 107.425 58.0501C107.02 57.7301 106.508 57.5701 105.889 57.5701C105.185 57.5701 104.598 57.8207 104.129 58.3221C103.66 58.8127 103.425 59.5381 103.425 60.4981C103.425 61.4581 103.66 62.1887 104.129 62.6901C104.598 63.1914 105.185 63.4421 105.889 63.4421C106.508 63.4421 107.02 63.2821 107.425 62.9621C107.841 62.6421 108.102 62.2047 108.209 61.6501H110.145C109.964 62.6847 109.5 63.5061 108.753 64.1141C108.006 64.7221 107.062 65.0261 105.921 65.0261C105.068 65.0261 104.31 64.8447 103.649 64.4821C102.998 64.1194 102.486 63.5967 102.113 62.9141C101.74 62.2314 101.553 61.4261 101.553 60.4981C101.553 59.5807 101.74 58.7807 102.113 58.0981C102.486 57.4154 102.998 56.8927 103.649 56.5301C104.31 56.1674 105.068 55.9861 105.921 55.9861ZM116.659 63.3301V64.9141H115.539C114.6 64.9141 113.886 64.6901 113.395 64.2421C112.915 63.7834 112.675 63.0261 112.675 61.9701V57.6501H111.411V56.0981H112.675V53.9061H114.515V56.0981H116.643V57.6501H114.515V62.0021C114.515 62.5034 114.606 62.8501 114.787 63.0421C114.979 63.2341 115.31 63.3301 115.779 63.3301H116.659ZM126.88 60.0821C126.88 60.3807 126.858 60.6421 126.816 60.8661H120.032C120.064 61.7727 120.314 62.4447 120.784 62.8821C121.253 63.3194 121.834 63.5381 122.528 63.5381C123.136 63.5381 123.648 63.3834 124.064 63.0741C124.49 62.7647 124.752 62.3541 124.848 61.8421H126.8C126.682 62.4607 126.437 63.0101 126.064 63.4901C125.69 63.9701 125.205 64.3487 124.608 64.6261C124.01 64.8927 123.344 65.0261 122.608 65.0261C121.754 65.0261 120.997 64.8447 120.336 64.4821C119.685 64.1194 119.173 63.5967 118.8 62.9141C118.426 62.2314 118.24 61.4261 118.24 60.4981C118.24 59.5807 118.426 58.7807 118.8 58.0981C119.173 57.4154 119.685 56.8927 120.336 56.5301C120.997 56.1674 121.754 55.9861 122.608 55.9861C123.472 55.9861 124.224 56.1674 124.864 56.5301C125.514 56.8821 126.01 57.3727 126.352 58.0021C126.704 58.6207 126.88 59.3141 126.88 60.0821ZM125.04 60.0341C125.061 59.4581 124.96 58.9781 124.736 58.5941C124.522 58.1994 124.224 57.9114 123.84 57.7301C123.466 57.5381 123.056 57.4421 122.608 57.4421C121.893 57.4421 121.296 57.6607 120.816 58.0981C120.336 58.5354 120.074 59.1807 120.032 60.0341H125.04ZM132.497 55.9861C133.297 55.9861 133.98 56.1834 134.545 56.5781C135.11 56.9727 135.505 57.4954 135.729 58.1461V53.0741H137.569V64.9141H135.729V62.8661C135.505 63.5167 135.11 64.0394 134.545 64.4341C133.98 64.8287 133.297 65.0261 132.497 65.0261C131.729 65.0261 131.041 64.8447 130.433 64.4821C129.836 64.1194 129.366 63.5967 129.025 62.9141C128.684 62.2314 128.513 61.4261 128.513 60.4981C128.513 59.5807 128.684 58.7807 129.025 58.0981C129.366 57.4154 129.836 56.8927 130.433 56.5301C131.041 56.1674 131.729 55.9861 132.497 55.9861ZM133.057 57.5861C132.246 57.5861 131.596 57.8474 131.105 58.3701C130.625 58.8821 130.385 59.5914 130.385 60.4981C130.385 61.4047 130.625 62.1194 131.105 62.6421C131.596 63.1541 132.246 63.4101 133.057 63.4101C133.569 63.4101 134.028 63.2927 134.433 63.0581C134.838 62.8127 135.158 62.4714 135.393 62.0341C135.628 61.5967 135.745 61.0847 135.745 60.4981C135.745 59.9221 135.628 59.4154 135.393 58.9781C135.158 58.5301 134.838 58.1887 134.433 57.9541C134.028 57.7087 133.569 57.5861 133.057 57.5861ZM150.884 62.4661H146.116L145.252 64.9141H143.3L147.46 53.7941H149.556L153.7 64.9141H151.748L150.884 62.4661ZM150.372 61.0581L148.5 55.7781L146.628 61.0581H150.372ZM160.43 55.9861C161.198 55.9861 161.881 56.1674 162.478 56.5301C163.086 56.8927 163.561 57.4154 163.902 58.0981C164.243 58.7807 164.414 59.5807 164.414 60.4981C164.414 61.4261 164.243 62.2314 163.902 62.9141C163.561 63.5967 163.086 64.1194 162.478 64.4821C161.881 64.8447 161.198 65.0261 160.43 65.0261C159.63 65.0261 158.947 64.8287 158.382 64.4341C157.817 64.0394 157.422 63.5167 157.198 62.8661V69.1061H155.374V56.0981H157.198V58.1461C157.422 57.4954 157.817 56.9727 158.382 56.5781C158.947 56.1834 159.63 55.9861 160.43 55.9861ZM159.87 57.5861C159.358 57.5861 158.899 57.7087 158.494 57.9541C158.089 58.1887 157.769 58.5301 157.534 58.9781C157.299 59.4154 157.182 59.9221 157.182 60.4981C157.182 61.0847 157.299 61.5967 157.534 62.0341C157.769 62.4714 158.089 62.8127 158.494 63.0581C158.899 63.2927 159.358 63.4101 159.87 63.4101C160.681 63.4101 161.331 63.1541 161.822 62.6421C162.313 62.1194 162.558 61.4047 162.558 60.4981C162.558 59.6021 162.313 58.8927 161.822 58.3701C161.331 57.8474 160.681 57.5861 159.87 57.5861ZM171.547 55.9861C172.315 55.9861 172.998 56.1674 173.595 56.5301C174.203 56.8927 174.678 57.4154 175.019 58.0981C175.36 58.7807 175.531 59.5807 175.531 60.4981C175.531 61.4261 175.36 62.2314 175.019 62.9141C174.678 63.5967 174.203 64.1194 173.595 64.4821C172.998 64.8447 172.315 65.0261 171.547 65.0261C170.747 65.0261 170.064 64.8287 169.499 64.4341C168.934 64.0394 168.539 63.5167 168.315 62.8661V69.1061H166.491V56.0981H168.315V58.1461C168.539 57.4954 168.934 56.9727 169.499 56.5781C170.064 56.1834 170.747 55.9861 171.547 55.9861ZM170.987 57.5861C170.475 57.5861 170.016 57.7087 169.611 57.9541C169.206 58.1887 168.886 58.5301 168.651 58.9781C168.416 59.4154 168.299 59.9221 168.299 60.4981C168.299 61.0847 168.416 61.5967 168.651 62.0341C168.886 62.4714 169.206 62.8127 169.611 63.0581C170.016 63.2927 170.475 63.4101 170.987 63.4101C171.798 63.4101 172.448 63.1541 172.939 62.6421C173.43 62.1194 173.675 61.4047 173.675 60.4981C173.675 59.6021 173.43 58.8927 172.939 58.3701C172.448 57.8474 171.798 57.5861 170.987 57.5861ZM179.432 53.0741V64.9141H177.608V53.0741H179.432ZM181.703 53.5381C181.703 53.2287 181.81 52.9727 182.023 52.7701C182.236 52.5674 182.519 52.4661 182.871 52.4661C183.223 52.4661 183.506 52.5674 183.719 52.7701C183.943 52.9727 184.055 53.2287 184.055 53.5381C184.055 53.8474 183.943 54.0981 183.719 54.2901C183.506 54.4821 183.223 54.5781 182.871 54.5781C182.519 54.5781 182.236 54.4821 182.023 54.2901C181.81 54.0981 181.703 53.8474 181.703 53.5381ZM183.783 56.0981V64.9141H181.959V56.0981H183.783ZM189.846 55.9861C190.646 55.9861 191.329 56.1834 191.894 56.5781C192.46 56.9727 192.86 57.4954 193.094 58.1461V56.0981H194.918V64.9141H193.094V62.8661C192.86 63.5167 192.46 64.0394 191.894 64.4341C191.329 64.8287 190.646 65.0261 189.846 65.0261C189.078 65.0261 188.39 64.8447 187.782 64.4821C187.185 64.1194 186.716 63.5967 186.374 62.9141C186.033 62.2314 185.862 61.4261 185.862 60.4981C185.862 59.5807 186.033 58.7807 186.374 58.0981C186.716 57.4154 187.185 56.8927 187.782 56.5301C188.39 56.1674 189.078 55.9861 189.846 55.9861ZM190.406 57.5861C189.596 57.5861 188.945 57.8474 188.454 58.3701C187.974 58.8821 187.734 59.5914 187.734 60.4981C187.734 61.4047 187.974 62.1194 188.454 62.6421C188.945 63.1541 189.596 63.4101 190.406 63.4101C190.918 63.4101 191.377 63.2927 191.782 63.0581C192.188 62.8127 192.508 62.4714 192.742 62.0341C192.977 61.5967 193.094 61.0847 193.094 60.4981C193.094 59.9221 192.977 59.4154 192.742 58.9781C192.508 58.5301 192.188 58.1887 191.782 57.9541C191.377 57.7087 190.918 57.5861 190.406 57.5861ZM202.355 55.9541C203.379 55.9541 204.2 56.2847 204.819 56.9461C205.438 57.6074 205.747 58.5514 205.747 59.7781V64.9141H203.923V59.9701C203.923 59.1807 203.72 58.5727 203.315 58.1461C202.91 57.7087 202.355 57.4901 201.651 57.4901C200.926 57.4901 200.344 57.7247 199.907 58.1941C199.47 58.6527 199.251 59.3301 199.251 60.2261V64.9141H197.427V56.0981H199.251V58.0341C199.486 57.3727 199.88 56.8607 200.435 56.4981C200.99 56.1354 201.63 55.9541 202.355 55.9541ZM212.12 55.9861C213.262 55.9861 214.206 56.2901 214.952 56.8981C215.699 57.4954 216.163 58.3114 216.344 59.3461H214.408C214.302 58.7914 214.04 58.3594 213.624 58.0501C213.219 57.7301 212.707 57.5701 212.088 57.5701C211.384 57.5701 210.798 57.8207 210.328 58.3221C209.859 58.8127 209.624 59.5381 209.624 60.4981C209.624 61.4581 209.859 62.1887 210.328 62.6901C210.798 63.1914 211.384 63.4421 212.088 63.4421C212.707 63.4421 213.219 63.2821 213.624 62.9621C214.04 62.6421 214.302 62.2047 214.408 61.6501H216.344C216.163 62.6847 215.699 63.5061 214.952 64.1141C214.206 64.7221 213.262 65.0261 212.12 65.0261C211.267 65.0261 210.51 64.8447 209.848 64.4821C209.198 64.1194 208.686 63.5967 208.312 62.9141C207.939 62.2314 207.752 61.4261 207.752 60.4981C207.752 59.5807 207.939 58.7807 208.312 58.0981C208.686 57.4154 209.198 56.8927 209.848 56.5301C210.51 56.1674 211.267 55.9861 212.12 55.9861ZM226.618 60.0821C226.618 60.3807 226.597 60.6421 226.554 60.8661H219.77C219.802 61.7727 220.053 62.4447 220.522 62.8821C220.992 63.3194 221.573 63.5381 222.266 63.5381C222.874 63.5381 223.386 63.3834 223.802 63.0741C224.229 62.7647 224.49 62.3541 224.586 61.8421H226.538C226.421 62.4607 226.176 63.0101 225.802 63.4901C225.429 63.9701 224.944 64.3487 224.346 64.6261C223.749 64.8927 223.082 65.0261 222.346 65.0261C221.493 65.0261 220.736 64.8447 220.074 64.4821C219.424 64.1194 218.912 63.5967 218.538 62.9141C218.165 62.2314 217.978 61.4261 217.978 60.4981C217.978 59.5807 218.165 58.7807 218.538 58.0981C218.912 57.4154 219.424 56.8927 220.074 56.5301C220.736 56.1674 221.493 55.9861 222.346 55.9861C223.21 55.9861 223.962 56.1674 224.602 56.5301C225.253 56.8821 225.749 57.3727 226.09 58.0021C226.442 58.6207 226.618 59.3141 226.618 60.0821ZM224.778 60.0341C224.8 59.4581 224.698 58.9781 224.474 58.5941C224.261 58.1994 223.962 57.9114 223.578 57.7301C223.205 57.5381 222.794 57.4421 222.346 57.4421C221.632 57.4421 221.034 57.6607 220.554 58.0981C220.074 58.5354 219.813 59.1807 219.77 60.0341H224.778ZM234.594 53.6181V64.9141H232.77V53.6181H234.594ZM242.049 55.9541C243.073 55.9541 243.894 56.2847 244.513 56.9461C245.132 57.6074 245.441 58.5514 245.441 59.7781V64.9141H243.617V59.9701C243.617 59.1807 243.414 58.5727 243.009 58.1461C242.604 57.7087 242.049 57.4901 241.345 57.4901C240.62 57.4901 240.038 57.7247 239.601 58.1941C239.164 58.6527 238.945 59.3301 238.945 60.2261V64.9141H237.121V56.0981H238.945V58.0341C239.18 57.3727 239.574 56.8607 240.129 56.4981C240.684 56.1354 241.324 55.9541 242.049 55.9541ZM252.006 54.2741C251.291 54.2421 250.79 54.3594 250.502 54.6261C250.214 54.8821 250.07 55.3247 250.07 55.9541V56.0981H252.006V57.6661H250.07V64.9141H248.23V57.6661H247.03V56.0981H248.23V55.8101C248.23 54.7327 248.545 53.9274 249.174 53.3941C249.803 52.8501 250.747 52.6101 252.006 52.6741V54.2741ZM257.824 55.9861C258.677 55.9861 259.445 56.1674 260.128 56.5301C260.811 56.8927 261.344 57.4154 261.728 58.0981C262.112 58.7807 262.304 59.5807 262.304 60.4981C262.304 61.4261 262.112 62.2314 261.728 62.9141C261.344 63.5967 260.811 64.1194 260.128 64.4821C259.445 64.8447 258.677 65.0261 257.824 65.0261C256.971 65.0261 256.203 64.8447 255.52 64.4821C254.848 64.1194 254.315 63.5967 253.92 62.9141C253.536 62.2207 253.344 61.4154 253.344 60.4981C253.344 59.5807 253.536 58.7807 253.92 58.0981C254.315 57.4154 254.848 56.8927 255.52 56.5301C256.203 56.1674 256.971 55.9861 257.824 55.9861ZM257.824 57.5701C257.355 57.5701 256.923 57.6767 256.528 57.8901C256.133 58.1034 255.813 58.4341 255.568 58.8821C255.333 59.3194 255.216 59.8581 255.216 60.4981C255.216 61.1487 255.333 61.6927 255.568 62.1301C255.813 62.5674 256.133 62.8927 256.528 63.1061C256.923 63.3194 257.355 63.4261 257.824 63.4261C258.293 63.4261 258.725 63.3194 259.12 63.1061C259.515 62.8927 259.829 62.5674 260.064 62.1301C260.309 61.6927 260.432 61.1487 260.432 60.4981C260.432 59.8581 260.309 59.3194 260.064 58.8821C259.829 58.4341 259.515 58.1034 259.12 57.8901C258.725 57.6767 258.293 57.5701 257.824 57.5701ZM266.202 57.8261C266.5 57.2501 266.927 56.7967 267.482 56.4661C268.036 56.1247 268.676 55.9541 269.402 55.9541V57.9381H268.858C268.058 57.9381 267.412 58.1354 266.922 58.5301C266.442 58.9141 266.202 59.5541 266.202 60.4501V64.9141H264.378V56.0981H266.202V57.8261ZM282.112 55.9541C283.158 55.9541 283.99 56.2847 284.608 56.9461C285.238 57.6074 285.552 58.5514 285.552 59.7781V64.9141H283.728V59.9701C283.728 59.2021 283.536 58.6101 283.152 58.1941C282.768 57.7674 282.24 57.5541 281.568 57.5541C280.854 57.5541 280.283 57.7834 279.856 58.2421C279.44 58.6901 279.232 59.3514 279.232 60.2261V64.9141H277.408V59.9701C277.408 59.2021 277.216 58.6101 276.832 58.1941C276.448 57.7674 275.92 57.5541 275.248 57.5541C274.534 57.5541 273.963 57.7834 273.536 58.2421C273.12 58.6901 272.912 59.3514 272.912 60.2261V64.9141H271.088V56.0981H272.912V57.9381C273.136 57.2981 273.51 56.8074 274.032 56.4661C274.555 56.1247 275.168 55.9541 275.872 55.9541C276.608 55.9541 277.243 56.1354 277.776 56.4981C278.32 56.8607 278.715 57.3834 278.96 58.0661C279.216 57.4047 279.627 56.8874 280.192 56.5141C280.758 56.1407 281.398 55.9541 282.112 55.9541ZM291.538 55.9861C292.338 55.9861 293.021 56.1834 293.586 56.5781C294.151 56.9727 294.551 57.4954 294.786 58.1461V56.0981H296.61V64.9141H294.786V62.8661C294.551 63.5167 294.151 64.0394 293.586 64.4341C293.021 64.8287 292.338 65.0261 291.538 65.0261C290.77 65.0261 290.082 64.8447 289.474 64.4821C288.877 64.1194 288.407 63.5967 288.066 62.9141C287.725 62.2314 287.554 61.4261 287.554 60.4981C287.554 59.5807 287.725 58.7807 288.066 58.0981C288.407 57.4154 288.877 56.8927 289.474 56.5301C290.082 56.1674 290.77 55.9861 291.538 55.9861ZM292.098 57.5861C291.287 57.5861 290.637 57.8474 290.146 58.3701C289.666 58.8821 289.426 59.5914 289.426 60.4981C289.426 61.4047 289.666 62.1194 290.146 62.6421C290.637 63.1541 291.287 63.4101 292.098 63.4101C292.61 63.4101 293.069 63.2927 293.474 63.0581C293.879 62.8127 294.199 62.4714 294.434 62.0341C294.669 61.5967 294.786 61.0847 294.786 60.4981C294.786 59.9221 294.669 59.4154 294.434 58.9781C294.199 58.5301 293.879 58.1887 293.474 57.9541C293.069 57.7087 292.61 57.5861 292.098 57.5861ZM303.551 63.3301V64.9141H302.431C301.492 64.9141 300.778 64.6901 300.287 64.2421C299.807 63.7834 299.567 63.0261 299.567 61.9701V57.6501H298.303V56.0981H299.567V53.9061H301.407V56.0981H303.535V57.6501H301.407V62.0021C301.407 62.5034 301.498 62.8501 301.679 63.0421C301.871 63.2341 302.202 63.3301 302.671 63.3301H303.551ZM305.324 53.5381C305.324 53.2287 305.43 52.9727 305.644 52.7701C305.857 52.5674 306.14 52.4661 306.492 52.4661C306.844 52.4661 307.126 52.5674 307.34 52.7701C307.564 52.9727 307.676 53.2287 307.676 53.5381C307.676 53.8474 307.564 54.0981 307.34 54.2901C307.126 54.4821 306.844 54.5781 306.492 54.5781C306.14 54.5781 305.857 54.4821 305.644 54.2901C305.43 54.0981 305.324 53.8474 305.324 53.5381ZM307.404 56.0981V64.9141H305.58V56.0981H307.404ZM313.963 55.9861C314.816 55.9861 315.584 56.1674 316.267 56.5301C316.95 56.8927 317.483 57.4154 317.867 58.0981C318.251 58.7807 318.443 59.5807 318.443 60.4981C318.443 61.4261 318.251 62.2314 317.867 62.9141C317.483 63.5967 316.95 64.1194 316.267 64.4821C315.584 64.8447 314.816 65.0261 313.963 65.0261C313.11 65.0261 312.342 64.8447 311.659 64.4821C310.987 64.1194 310.454 63.5967 310.059 62.9141C309.675 62.2207 309.483 61.4154 309.483 60.4981C309.483 59.5807 309.675 58.7807 310.059 58.0981C310.454 57.4154 310.987 56.8927 311.659 56.5301C312.342 56.1674 313.11 55.9861 313.963 55.9861ZM313.963 57.5701C313.494 57.5701 313.062 57.6767 312.667 57.8901C312.272 58.1034 311.952 58.4341 311.707 58.8821C311.472 59.3194 311.355 59.8581 311.355 60.4981C311.355 61.1487 311.472 61.6927 311.707 62.1301C311.952 62.5674 312.272 62.8927 312.667 63.1061C313.062 63.3194 313.494 63.4261 313.963 63.4261C314.432 63.4261 314.864 63.3194 315.259 63.1061C315.654 62.8927 315.968 62.5674 316.203 62.1301C316.448 61.6927 316.571 61.1487 316.571 60.4981C316.571 59.8581 316.448 59.3194 316.203 58.8821C315.968 58.4341 315.654 58.1034 315.259 57.8901C314.864 57.6767 314.432 57.5701 313.963 57.5701ZM325.445 55.9541C326.469 55.9541 327.29 56.2847 327.909 56.9461C328.527 57.6074 328.837 58.5514 328.837 59.7781V64.9141H327.013V59.9701C327.013 59.1807 326.81 58.5727 326.405 58.1461C325.999 57.7087 325.445 57.4901 324.741 57.4901C324.015 57.4901 323.434 57.7247 322.997 58.1941C322.559 58.6527 322.341 59.3301 322.341 60.2261V64.9141H320.517V56.0981H322.341V58.0341C322.575 57.3727 322.97 56.8607 323.525 56.4981C324.079 56.1354 324.719 55.9541 325.445 55.9541Z" fill="white"/>
    <path d="M179.196 133.626V136.914H177.828V128.442H180.708C181.684 128.442 182.416 128.674 182.904 129.138C183.4 129.602 183.648 130.238 183.648 131.046C183.648 131.846 183.396 132.478 182.892 132.942C182.388 133.398 181.66 133.626 180.708 133.626H179.196ZM180.564 132.51C181.692 132.51 182.256 132.022 182.256 131.046C182.256 130.566 182.12 130.202 181.848 129.954C181.584 129.698 181.156 129.57 180.564 129.57H179.196V132.51H180.564ZM187.74 130.218C188.34 130.218 188.852 130.366 189.276 130.662C189.7 130.958 190 131.35 190.176 131.838V130.302H191.544V136.914H190.176V135.378C190 135.866 189.7 136.258 189.276 136.554C188.852 136.85 188.34 136.998 187.74 136.998C187.164 136.998 186.648 136.862 186.192 136.59C185.744 136.318 185.392 135.926 185.136 135.414C184.88 134.902 184.752 134.298 184.752 133.602C184.752 132.914 184.88 132.314 185.136 131.802C185.392 131.29 185.744 130.898 186.192 130.626C186.648 130.354 187.164 130.218 187.74 130.218ZM188.16 131.418C187.552 131.418 187.064 131.614 186.696 132.006C186.336 132.39 186.156 132.922 186.156 133.602C186.156 134.282 186.336 134.818 186.696 135.21C187.064 135.594 187.552 135.786 188.16 135.786C188.544 135.786 188.888 135.698 189.192 135.522C189.496 135.338 189.736 135.082 189.912 134.754C190.088 134.426 190.176 134.042 190.176 133.602C190.176 133.17 190.088 132.79 189.912 132.462C189.736 132.126 189.496 131.87 189.192 131.694C188.888 131.51 188.544 131.418 188.16 131.418ZM195.597 130.218C196.373 130.218 196.993 130.418 197.457 130.818C197.929 131.21 198.217 131.738 198.321 132.402H197.025C196.969 132.042 196.813 131.754 196.557 131.538C196.309 131.314 195.977 131.202 195.561 131.202C195.217 131.202 194.949 131.286 194.757 131.454C194.573 131.614 194.481 131.834 194.481 132.114C194.481 132.322 194.549 132.49 194.685 132.618C194.821 132.746 194.989 132.846 195.189 132.918C195.397 132.99 195.689 133.07 196.065 133.158C196.561 133.27 196.961 133.386 197.265 133.506C197.577 133.626 197.841 133.818 198.057 134.082C198.281 134.338 198.393 134.69 198.393 135.138C198.393 135.69 198.181 136.138 197.757 136.482C197.341 136.826 196.777 136.998 196.065 136.998C195.241 136.998 194.573 136.806 194.061 136.422C193.557 136.038 193.253 135.502 193.149 134.814H194.481C194.521 135.174 194.681 135.466 194.961 135.69C195.241 135.914 195.609 136.026 196.065 136.026C196.393 136.026 196.649 135.942 196.833 135.774C197.025 135.598 197.121 135.378 197.121 135.114C197.121 134.882 197.049 134.698 196.905 134.562C196.761 134.426 196.581 134.322 196.365 134.25C196.149 134.17 195.853 134.09 195.477 134.01C194.997 133.898 194.605 133.786 194.301 133.674C194.005 133.562 193.749 133.382 193.533 133.134C193.325 132.878 193.221 132.534 193.221 132.102C193.221 131.542 193.429 131.09 193.845 130.746C194.269 130.394 194.853 130.218 195.597 130.218ZM202.177 130.218C202.953 130.218 203.573 130.418 204.037 130.818C204.509 131.21 204.797 131.738 204.901 132.402H203.605C203.549 132.042 203.393 131.754 203.137 131.538C202.889 131.314 202.557 131.202 202.141 131.202C201.797 131.202 201.529 131.286 201.337 131.454C201.153 131.614 201.061 131.834 201.061 132.114C201.061 132.322 201.129 132.49 201.265 132.618C201.401 132.746 201.569 132.846 201.769 132.918C201.977 132.99 202.269 133.07 202.645 133.158C203.141 133.27 203.541 133.386 203.845 133.506C204.157 133.626 204.421 133.818 204.637 134.082C204.861 134.338 204.973 134.69 204.973 135.138C204.973 135.69 204.761 136.138 204.337 136.482C203.921 136.826 203.357 136.998 202.645 136.998C201.821 136.998 201.153 136.806 200.641 136.422C200.137 136.038 199.833 135.502 199.729 134.814H201.061C201.101 135.174 201.261 135.466 201.541 135.69C201.821 135.914 202.189 136.026 202.645 136.026C202.973 136.026 203.229 135.942 203.413 135.774C203.605 135.598 203.701 135.378 203.701 135.114C203.701 134.882 203.629 134.698 203.485 134.562C203.341 134.426 203.161 134.322 202.945 134.25C202.729 134.17 202.433 134.09 202.057 134.01C201.577 133.898 201.185 133.786 200.881 133.674C200.585 133.562 200.329 133.382 200.113 133.134C199.905 132.878 199.801 132.534 199.801 132.102C199.801 131.542 200.009 131.09 200.425 130.746C200.849 130.394 201.433 130.218 202.177 130.218ZM215.849 130.302L214.013 136.914H212.501L210.869 131.802L209.213 136.914H207.713L205.877 130.302H207.257L208.517 135.654L210.173 130.302H211.613L213.293 135.654L214.553 130.302H215.849ZM220.044 130.218C220.684 130.218 221.26 130.354 221.772 130.626C222.284 130.898 222.684 131.29 222.972 131.802C223.26 132.314 223.404 132.914 223.404 133.602C223.404 134.298 223.26 134.902 222.972 135.414C222.684 135.926 222.284 136.318 221.772 136.59C221.26 136.862 220.684 136.998 220.044 136.998C219.404 136.998 218.828 136.862 218.316 136.59C217.812 136.318 217.412 135.926 217.116 135.414C216.828 134.894 216.684 134.29 216.684 133.602C216.684 132.914 216.828 132.314 217.116 131.802C217.412 131.29 217.812 130.898 218.316 130.626C218.828 130.354 219.404 130.218 220.044 130.218ZM220.044 131.406C219.692 131.406 219.368 131.486 219.072 131.646C218.776 131.806 218.536 132.054 218.352 132.39C218.176 132.718 218.088 133.122 218.088 133.602C218.088 134.09 218.176 134.498 218.352 134.826C218.536 135.154 218.776 135.398 219.072 135.558C219.368 135.718 219.692 135.798 220.044 135.798C220.396 135.798 220.72 135.718 221.016 135.558C221.312 135.398 221.548 135.154 221.724 134.826C221.908 134.498 222 134.09 222 133.602C222 133.122 221.908 132.718 221.724 132.39C221.548 132.054 221.312 131.806 221.016 131.646C220.72 131.486 220.396 131.406 220.044 131.406ZM226.327 131.598C226.551 131.166 226.871 130.826 227.287 130.578C227.703 130.322 228.183 130.194 228.727 130.194V131.682H228.319C227.719 131.682 227.235 131.83 226.867 132.126C226.507 132.414 226.327 132.894 226.327 133.566V136.914H224.959V130.302H226.327V131.598ZM232.644 130.218C233.244 130.218 233.756 130.366 234.18 130.662C234.604 130.958 234.9 131.35 235.068 131.838V128.034H236.448V136.914H235.068V135.378C234.9 135.866 234.604 136.258 234.18 136.554C233.756 136.85 233.244 136.998 232.644 136.998C232.068 136.998 231.552 136.862 231.096 136.59C230.648 136.318 230.296 135.926 230.04 135.414C229.784 134.902 229.656 134.298 229.656 133.602C229.656 132.914 229.784 132.314 230.04 131.802C230.296 131.29 230.648 130.898 231.096 130.626C231.552 130.354 232.068 130.218 232.644 130.218ZM233.064 131.418C232.456 131.418 231.968 131.614 231.6 132.006C231.24 132.39 231.06 132.922 231.06 133.602C231.06 134.282 231.24 134.818 231.6 135.21C231.968 135.594 232.456 135.786 233.064 135.786C233.448 135.786 233.792 135.698 234.096 135.522C234.4 135.338 234.64 135.082 234.816 134.754C234.992 134.426 235.08 134.042 235.08 133.602C235.08 133.17 234.992 132.79 234.816 132.462C234.64 132.126 234.4 131.87 234.096 131.694C233.792 131.51 233.448 131.418 233.064 131.418ZM242.655 130.314V131.826H241.107V130.314H242.655ZM242.655 135.402V136.914H241.107V135.402H242.655ZM252.101 136.914L250.073 133.782L248.261 136.914H246.689L249.317 132.594L246.629 128.442H248.261L250.253 131.514L252.053 128.442H253.625L251.009 132.69L253.733 136.914H252.101ZM259.829 136.914L257.801 133.782L255.989 136.914H254.417L257.045 132.594L254.357 128.442H255.989L257.981 131.514L259.781 128.442H261.353L258.737 132.69L261.461 136.914H259.829ZM267.557 136.914L265.529 133.782L263.717 136.914H262.145L264.773 132.594L262.085 128.442H263.717L265.709 131.514L267.509 128.442H269.081L266.465 132.69L269.189 136.914H267.557ZM275.286 136.914L273.258 133.782L271.446 136.914H269.874L272.502 132.594L269.814 128.442H271.446L273.438 131.514L275.238 128.442H276.81L274.194 132.69L276.918 136.914H275.286ZM283.014 136.914L280.986 133.782L279.174 136.914H277.602L280.23 132.594L277.542 128.442H279.174L281.166 131.514L282.966 128.442H284.538L281.922 132.69L284.646 136.914H283.014ZM290.742 136.914L288.714 133.782L286.902 136.914H285.33L287.958 132.594L285.27 128.442H286.902L288.894 131.514L290.694 128.442H292.266L289.65 132.69L292.374 136.914H290.742ZM298.471 136.914L296.443 133.782L294.631 136.914H293.059L295.687 132.594L292.999 128.442H294.631L296.623 131.514L298.423 128.442H299.995L297.379 132.69L300.103 136.914H298.471ZM306.199 136.914L304.171 133.782L302.359 136.914H300.787L303.415 132.594L300.727 128.442H302.359L304.351 131.514L306.151 128.442H307.723L305.107 132.69L307.831 136.914H306.199Z" fill="white"/>
    <path d="M43.832 128.442V129.546H40.196V132.174H43.196V133.23H40.196V136.914H38.828V128.442H43.832ZM49.0707 128.358C50.1107 128.358 50.9747 128.622 51.6627 129.15C52.3507 129.678 52.8147 130.394 53.0547 131.298H51.6027C51.4027 130.786 51.0827 130.382 50.6427 130.086C50.2107 129.782 49.6787 129.63 49.0467 129.63C48.5427 129.63 48.0907 129.754 47.6907 130.002C47.2987 130.25 46.9867 130.606 46.7547 131.07C46.5307 131.526 46.4187 132.062 46.4187 132.678C46.4187 133.286 46.5307 133.822 46.7547 134.286C46.9867 134.742 47.2987 135.094 47.6907 135.342C48.0907 135.59 48.5427 135.714 49.0467 135.714C49.6787 135.714 50.2107 135.566 50.6427 135.27C51.0827 134.966 51.4027 134.562 51.6027 134.058H53.0547C52.8147 134.962 52.3507 135.678 51.6627 136.206C50.9747 136.726 50.1107 136.986 49.0707 136.986C48.2707 136.986 47.5627 136.806 46.9467 136.446C46.3307 136.078 45.8547 135.57 45.5187 134.922C45.1827 134.266 45.0147 133.518 45.0147 132.678C45.0147 131.838 45.1827 131.094 45.5187 130.446C45.8547 129.79 46.3307 129.278 46.9467 128.91C47.5627 128.542 48.2707 128.358 49.0707 128.358ZM58.4396 128.358C59.4796 128.358 60.3436 128.622 61.0316 129.15C61.7196 129.678 62.1836 130.394 62.4236 131.298H60.9716C60.7716 130.786 60.4516 130.382 60.0116 130.086C59.5796 129.782 59.0476 129.63 58.4156 129.63C57.9116 129.63 57.4596 129.754 57.0596 130.002C56.6676 130.25 56.3556 130.606 56.1236 131.07C55.8996 131.526 55.7876 132.062 55.7876 132.678C55.7876 133.286 55.8996 133.822 56.1236 134.286C56.3556 134.742 56.6676 135.094 57.0596 135.342C57.4596 135.59 57.9116 135.714 58.4156 135.714C59.0476 135.714 59.5796 135.566 60.0116 135.27C60.4516 134.966 60.7716 134.562 60.9716 134.058H62.4236C62.1836 134.962 61.7196 135.678 61.0316 136.206C60.3436 136.726 59.4796 136.986 58.4396 136.986C57.6396 136.986 56.9316 136.806 56.3156 136.446C55.6996 136.078 55.2236 135.57 54.8876 134.922C54.5516 134.266 54.3836 133.518 54.3836 132.678C54.3836 131.838 54.5516 131.094 54.8876 130.446C55.2236 129.79 55.6996 129.278 56.3156 128.91C56.9316 128.542 57.6396 128.358 58.4396 128.358ZM65.3965 128.442V136.914H64.0285V128.442H65.3965ZM74.5639 132.666C74.5639 133.522 74.3879 134.27 74.0359 134.91C73.6919 135.542 73.1839 136.034 72.5119 136.386C71.8479 136.738 71.0519 136.914 70.1239 136.914H67.2919V128.442H70.1239C71.0519 128.442 71.8479 128.618 72.5119 128.97C73.1839 129.314 73.6919 129.802 74.0359 130.434C74.3879 131.066 74.5639 131.81 74.5639 132.666ZM70.0159 135.678C71.0319 135.678 71.8119 135.414 72.3559 134.886C72.8999 134.358 73.1719 133.618 73.1719 132.666C73.1719 131.714 72.8999 130.974 72.3559 130.446C71.8119 129.918 71.0319 129.654 70.0159 129.654H68.6599V135.678H70.0159ZM80.5048 130.314V131.826H78.9568V130.314H80.5048ZM80.5048 135.402V136.914H78.9568V135.402H80.5048ZM89.5672 136.914L87.4552 133.53H86.4832V136.914H85.1152V128.442H88.1032C89.0712 128.442 89.8032 128.678 90.2992 129.15C90.8032 129.622 91.0552 130.246 91.0552 131.022C91.0552 131.686 90.8672 132.23 90.4912 132.654C90.1232 133.078 89.5872 133.35 88.8832 133.47L91.1032 136.914H89.5672ZM86.4832 132.558H87.9952C89.0992 132.558 89.6512 132.07 89.6512 131.094C89.6512 130.63 89.5152 130.27 89.2432 130.014C88.9792 129.75 88.5632 129.618 87.9952 129.618H86.4832V132.558ZM97.9751 128.442V129.546H95.6111V136.914H94.2311V129.546H91.8791V128.442H97.9751ZM103.676 128.442V134.586C103.676 135.346 103.464 135.938 103.04 136.362C102.616 136.786 102.028 136.998 101.276 136.998C100.46 136.998 99.8198 136.762 99.3558 136.29C98.8918 135.818 98.6598 135.15 98.6598 134.286H100.016C100.016 134.75 100.112 135.11 100.304 135.366C100.504 135.622 100.808 135.75 101.216 135.75C101.592 135.75 101.868 135.642 102.044 135.426C102.22 135.21 102.308 134.93 102.308 134.586V128.442H103.676ZM109.519 131.994V133.146H104.575V131.994H109.519ZM117.269 128.442V129.546H114.905V136.914H113.525V129.546H111.173V128.442H117.269ZM125.262 128.442V136.914H123.882V133.11H119.898V136.914H118.53V128.442H119.898V131.994H123.882V128.442H125.262ZM132.213 135.078H128.637L127.989 136.914H126.525L129.645 128.574H131.217L134.325 136.914H132.861L132.213 135.078ZM131.829 134.022L130.425 130.062L129.021 134.022H131.829ZM140.02 130.722C139.876 129.778 139.384 129.306 138.544 129.306C137.936 129.306 137.48 129.55 137.176 130.038C136.872 130.518 136.72 131.274 136.72 132.306L136.732 132.714C136.852 132.282 137.112 131.938 137.512 131.682C137.912 131.426 138.384 131.298 138.928 131.298C139.76 131.298 140.412 131.546 140.884 132.042C141.356 132.538 141.592 133.238 141.592 134.142C141.592 134.686 141.484 135.174 141.268 135.606C141.052 136.03 140.728 136.37 140.296 136.626C139.864 136.874 139.332 136.998 138.7 136.998C137.476 136.998 136.636 136.618 136.18 135.858C135.724 135.098 135.496 134.054 135.496 132.726C135.496 131.206 135.74 130.07 136.228 129.318C136.716 128.566 137.516 128.19 138.628 128.19C139.46 128.19 140.096 128.426 140.536 128.898C140.984 129.37 141.244 129.978 141.316 130.722H140.02ZM136.852 133.986C136.852 134.506 137.004 134.942 137.308 135.294C137.612 135.638 138.06 135.81 138.652 135.81C139.156 135.81 139.556 135.662 139.852 135.366C140.156 135.07 140.308 134.658 140.308 134.13C140.308 133.562 140.156 133.126 139.852 132.822C139.548 132.518 139.136 132.366 138.616 132.366C138.144 132.366 137.732 132.506 137.38 132.786C137.028 133.066 136.852 133.466 136.852 133.986ZM148.961 129.522H144.773V132.042C144.965 131.794 145.237 131.598 145.589 131.454C145.941 131.302 146.329 131.226 146.753 131.226C147.345 131.226 147.837 131.354 148.229 131.61C148.621 131.858 148.909 132.19 149.093 132.606C149.285 133.022 149.381 133.482 149.381 133.986C149.381 134.874 149.133 135.594 148.637 136.146C148.141 136.69 147.421 136.962 146.477 136.962C145.589 136.962 144.873 136.726 144.329 136.254C143.785 135.782 143.489 135.154 143.441 134.37H144.785C144.857 134.802 145.033 135.142 145.313 135.39C145.601 135.638 145.965 135.762 146.405 135.762C146.949 135.762 147.357 135.598 147.629 135.27C147.901 134.942 148.037 134.506 148.037 133.962C148.037 133.45 147.897 133.05 147.617 132.762C147.337 132.466 146.937 132.318 146.417 132.318C146.049 132.318 145.725 132.398 145.445 132.558C145.173 132.718 144.973 132.93 144.845 133.194H143.513V128.31H148.961V129.522ZM155.969 129.426L152.813 136.914H151.373L154.577 129.582H150.377V128.394H155.969V129.426Z" fill="white"/>
    <path d="M184.68 103.914H183.312L179.196 97.6621V103.914H177.828V95.4541H179.196L183.312 101.73V95.4541H184.68V103.914ZM192.72 100.29C192.72 100.514 192.704 100.71 192.672 100.878H187.584C187.608 101.558 187.796 102.062 188.148 102.39C188.5 102.718 188.936 102.882 189.456 102.882C189.912 102.882 190.296 102.766 190.608 102.534C190.928 102.302 191.124 101.994 191.196 101.61H192.66C192.572 102.074 192.388 102.486 192.108 102.846C191.828 103.206 191.464 103.49 191.016 103.698C190.568 103.898 190.068 103.998 189.516 103.998C188.876 103.998 188.308 103.862 187.812 103.59C187.324 103.318 186.94 102.926 186.66 102.414C186.38 101.902 186.24 101.298 186.24 100.602C186.24 99.9141 186.38 99.3141 186.66 98.8021C186.94 98.2901 187.324 97.8981 187.812 97.6261C188.308 97.3541 188.876 97.2181 189.516 97.2181C190.164 97.2181 190.728 97.3541 191.208 97.6261C191.696 97.8901 192.068 98.2581 192.324 98.7301C192.588 99.1941 192.72 99.7141 192.72 100.29ZM191.34 100.254C191.356 99.8221 191.28 99.4621 191.112 99.1741C190.952 98.8781 190.728 98.6621 190.44 98.5261C190.16 98.3821 189.852 98.3101 189.516 98.3101C188.98 98.3101 188.532 98.4741 188.172 98.8021C187.812 99.1301 187.616 99.6141 187.584 100.254H191.34ZM197.605 102.726V103.914H196.765C196.061 103.914 195.525 103.746 195.157 103.41C194.797 103.066 194.617 102.498 194.617 101.706V98.4661H193.669V97.3021H194.617V95.6581H195.997V97.3021H197.593V98.4661H195.997V101.73C195.997 102.106 196.065 102.366 196.201 102.51C196.345 102.654 196.593 102.726 196.945 102.726H197.605ZM208.39 97.3021L206.554 103.914H205.042L203.41 98.8021L201.754 103.914H200.254L198.418 97.3021H199.798L201.058 102.654L202.714 97.3021H204.154L205.834 102.654L207.094 97.3021H208.39ZM212.585 97.2181C213.225 97.2181 213.801 97.3541 214.313 97.6261C214.825 97.8981 215.225 98.2901 215.513 98.8021C215.801 99.3141 215.945 99.9141 215.945 100.602C215.945 101.298 215.801 101.902 215.513 102.414C215.225 102.926 214.825 103.318 214.313 103.59C213.801 103.862 213.225 103.998 212.585 103.998C211.945 103.998 211.369 103.862 210.857 103.59C210.353 103.318 209.953 102.926 209.657 102.414C209.369 101.894 209.225 101.29 209.225 100.602C209.225 99.9141 209.369 99.3141 209.657 98.8021C209.953 98.2901 210.353 97.8981 210.857 97.6261C211.369 97.3541 211.945 97.2181 212.585 97.2181ZM212.585 98.4061C212.233 98.4061 211.909 98.4861 211.613 98.6461C211.317 98.8061 211.077 99.0541 210.893 99.3901C210.717 99.7181 210.629 100.122 210.629 100.602C210.629 101.09 210.717 101.498 210.893 101.826C211.077 102.154 211.317 102.398 211.613 102.558C211.909 102.718 212.233 102.798 212.585 102.798C212.937 102.798 213.261 102.718 213.557 102.558C213.853 102.398 214.089 102.154 214.265 101.826C214.449 101.498 214.541 101.09 214.541 100.602C214.541 100.122 214.449 99.7181 214.265 99.3901C214.089 99.0541 213.853 98.8061 213.557 98.6461C213.261 98.4861 212.937 98.4061 212.585 98.4061ZM218.869 98.5981C219.093 98.1661 219.413 97.8261 219.829 97.5781C220.245 97.3221 220.725 97.1941 221.269 97.1941V98.6821H220.861C220.261 98.6821 219.777 98.8301 219.409 99.1261C219.049 99.4141 218.869 99.8941 218.869 100.566V103.914H217.501V97.3021H218.869V98.5981ZM226.278 103.914L223.902 100.974V103.914H222.534V95.0341H223.902V100.122L226.254 97.3021H227.898L225.018 100.59L227.97 103.914H226.278ZM233.426 97.3141V98.8261H231.878V97.3141H233.426ZM233.426 102.402V103.914H231.878V102.402H233.426ZM241.913 95.3701C242.921 95.3701 243.761 95.6181 244.433 96.1141C245.105 96.6101 245.549 97.2861 245.765 98.1421H244.325C244.141 97.6861 243.837 97.3221 243.413 97.0501C242.997 96.7781 242.501 96.6421 241.925 96.6421C241.397 96.6421 240.921 96.7661 240.497 97.0141C240.081 97.2621 239.753 97.6141 239.513 98.0701C239.281 98.5261 239.165 99.0621 239.165 99.6781C239.165 100.326 239.285 100.882 239.525 101.346C239.765 101.81 240.101 102.166 240.533 102.414C240.973 102.654 241.481 102.774 242.057 102.774C242.761 102.774 243.365 102.558 243.869 102.126C244.373 101.686 244.677 101.086 244.781 100.326H241.673V99.3181H245.933V100.626C245.837 101.25 245.613 101.818 245.261 102.33C244.917 102.834 244.457 103.238 243.881 103.542C243.313 103.846 242.661 103.998 241.925 103.998C241.101 103.998 240.373 103.814 239.741 103.446C239.109 103.078 238.621 102.57 238.277 101.922C237.933 101.266 237.761 100.518 237.761 99.6781C237.761 98.8381 237.933 98.0941 238.277 97.4461C238.621 96.7901 239.105 96.2821 239.729 95.9221C240.361 95.5541 241.089 95.3701 241.913 95.3701ZM248.926 96.5461V99.1141H252.046V100.17H248.926V102.798H252.406V103.914H247.558V95.4421H252.406V96.5461H248.926ZM260.37 104.346V105.678H253.674V104.346H260.37ZM270.697 95.5741V103.914H269.317V97.6621L266.905 103.914H265.705L263.281 97.6621V103.914H261.913V95.5741H263.569L266.329 102.234L269.041 95.5741H270.697ZM276.507 95.3341C277.291 95.3341 277.999 95.5181 278.631 95.8861C279.271 96.2541 279.771 96.7701 280.131 97.4341C280.499 98.0901 280.683 98.8341 280.683 99.6661C280.683 100.498 280.499 101.246 280.131 101.91C279.771 102.566 279.271 103.082 278.631 103.458C277.999 103.826 277.291 104.01 276.507 104.01C275.715 104.01 274.999 103.826 274.359 103.458C273.727 103.082 273.227 102.566 272.859 101.91C272.491 101.246 272.307 100.498 272.307 99.6661C272.307 98.8341 272.491 98.0901 272.859 97.4341C273.227 96.7701 273.727 96.2541 274.359 95.8861C274.999 95.5181 275.715 95.3341 276.507 95.3341ZM276.507 96.6061C275.963 96.6061 275.479 96.7301 275.055 96.9781C274.631 97.2261 274.299 97.5821 274.059 98.0461C273.827 98.5101 273.711 99.0501 273.711 99.6661C273.711 100.282 273.827 100.822 274.059 101.286C274.299 101.75 274.631 102.106 275.055 102.354C275.479 102.602 275.963 102.726 276.507 102.726C277.043 102.726 277.519 102.602 277.935 102.354C278.359 102.106 278.687 101.75 278.919 101.286C279.159 100.822 279.279 100.282 279.279 99.6661C279.279 99.0501 279.159 98.5101 278.919 98.0461C278.687 97.5821 278.359 97.2261 277.935 96.9781C277.519 96.7301 277.043 96.6061 276.507 96.6061ZM289.575 99.6661C289.575 100.522 289.399 101.27 289.047 101.91C288.703 102.542 288.195 103.034 287.523 103.386C286.859 103.738 286.063 103.914 285.135 103.914H282.303V95.4421H285.135C286.063 95.4421 286.859 95.6181 287.523 95.9701C288.195 96.3141 288.703 96.8021 289.047 97.4341C289.399 98.0661 289.575 98.8101 289.575 99.6661ZM285.027 102.678C286.043 102.678 286.823 102.414 287.367 101.886C287.911 101.358 288.183 100.618 288.183 99.6661C288.183 98.7141 287.911 97.9741 287.367 97.4461C286.823 96.9181 286.043 96.6541 285.027 96.6541H283.671V102.678H285.027ZM292.499 95.4421V100.47C292.499 101.222 292.663 101.782 292.991 102.15C293.327 102.518 293.795 102.702 294.395 102.702C294.987 102.702 295.447 102.518 295.775 102.15C296.111 101.782 296.279 101.222 296.279 100.47V95.4421H297.647V100.47C297.647 101.63 297.347 102.51 296.747 103.11C296.147 103.702 295.355 103.998 294.371 103.998C293.395 103.998 292.611 103.702 292.019 103.11C291.427 102.51 291.131 101.63 291.131 100.47V95.4421H292.499ZM300.85 102.846H303.778V103.914H299.482V95.4421H300.85V102.846ZM306.457 96.5461V99.1141H309.577V100.17H306.457V102.798H309.937V103.914H305.089V95.4421H309.937V96.5461H306.457ZM317.901 104.346V105.678H311.205V104.346H317.901ZM324.28 103.914L322.252 100.782L320.44 103.914H318.868L321.496 99.5941L318.808 95.4421H320.44L322.432 98.5141L324.232 95.4421H325.804L323.188 99.6901L325.912 103.914H324.28ZM332.009 103.914L329.981 100.782L328.169 103.914H326.597L329.225 99.5941L326.537 95.4421H328.169L330.161 98.5141L331.961 95.4421H333.533L330.917 99.6901L333.641 103.914H332.009ZM339.737 103.914L337.709 100.782L335.897 103.914H334.325L336.953 99.5941L334.265 95.4421H335.897L337.889 98.5141L339.689 95.4421H341.261L338.645 99.6901L341.369 103.914H339.737ZM347.465 103.914L345.437 100.782L343.625 103.914H342.053L344.681 99.5941L341.993 95.4421H343.625L345.617 98.5141L347.417 95.4421H348.989L346.373 99.6901L349.097 103.914H347.465Z" fill="white"/>
    <path d="M48.612 95.5741V103.914H47.232V97.6621L44.82 103.914H43.62L41.196 97.6621V103.914H39.828V95.5741H41.484L44.244 102.234L46.956 95.5741H48.612ZM55.5497 102.078H51.9737L51.3257 103.914H49.8617L52.9817 95.5741H54.5537L57.6617 103.914H56.1977L55.5497 102.078ZM55.1657 101.022L53.7617 97.0621L52.3577 101.022H55.1657ZM62.6974 95.3581C63.7374 95.3581 64.6014 95.6221 65.2894 96.1501C65.9774 96.6781 66.4414 97.3941 66.6814 98.2981H65.2294C65.0294 97.7861 64.7094 97.3821 64.2694 97.0861C63.8374 96.7821 63.3054 96.6301 62.6734 96.6301C62.1694 96.6301 61.7174 96.7541 61.3174 97.0021C60.9254 97.2501 60.6134 97.6061 60.3814 98.0701C60.1574 98.5261 60.0454 99.0621 60.0454 99.6781C60.0454 100.286 60.1574 100.822 60.3814 101.286C60.6134 101.742 60.9254 102.094 61.3174 102.342C61.7174 102.59 62.1694 102.714 62.6734 102.714C63.3054 102.714 63.8374 102.566 64.2694 102.27C64.7094 101.966 65.0294 101.562 65.2294 101.058H66.6814C66.4414 101.962 65.9774 102.678 65.2894 103.206C64.6014 103.726 63.7374 103.986 62.6974 103.986C61.8974 103.986 61.1894 103.806 60.5734 103.446C59.9574 103.078 59.4814 102.57 59.1454 101.922C58.8094 101.266 58.6414 100.518 58.6414 99.6781C58.6414 98.8381 58.8094 98.0941 59.1454 97.4461C59.4814 96.7901 59.9574 96.2781 60.5734 95.9101C61.1894 95.5421 61.8974 95.3581 62.6974 95.3581ZM72.6108 97.3141V98.8261H71.0628V97.3141H72.6108ZM72.6108 102.402V103.914H71.0628V102.402H72.6108ZM79.2206 102.078H75.6446L74.9966 103.914H73.5326L76.6526 95.5741H78.2246L81.3326 103.914H79.8686L79.2206 102.078ZM78.8366 101.022L77.4326 97.0621L76.0286 101.022H78.8366ZM87.0283 97.7221C86.8843 96.7781 86.3923 96.3061 85.5523 96.3061C84.9443 96.3061 84.4883 96.5501 84.1843 97.0381C83.8803 97.5181 83.7283 98.2741 83.7283 99.3061L83.7403 99.7141C83.8603 99.2821 84.1203 98.9381 84.5203 98.6821C84.9203 98.4261 85.3923 98.2981 85.9363 98.2981C86.7683 98.2981 87.4203 98.5461 87.8923 99.0421C88.3643 99.5381 88.6003 100.238 88.6003 101.142C88.6003 101.686 88.4923 102.174 88.2763 102.606C88.0603 103.03 87.7363 103.37 87.3043 103.626C86.8723 103.874 86.3403 103.998 85.7083 103.998C84.4843 103.998 83.6443 103.618 83.1883 102.858C82.7323 102.098 82.5043 101.054 82.5043 99.7261C82.5043 98.2061 82.7483 97.0701 83.2363 96.3181C83.7243 95.5661 84.5243 95.1901 85.6363 95.1901C86.4683 95.1901 87.1043 95.4261 87.5443 95.8981C87.9923 96.3701 88.2523 96.9781 88.3243 97.7221H87.0283ZM83.8603 100.986C83.8603 101.506 84.0123 101.942 84.3163 102.294C84.6203 102.638 85.0683 102.81 85.6603 102.81C86.1643 102.81 86.5643 102.662 86.8603 102.366C87.1643 102.07 87.3163 101.658 87.3163 101.13C87.3163 100.562 87.1643 100.126 86.8603 99.8221C86.5563 99.5181 86.1443 99.3661 85.6243 99.3661C85.1523 99.3661 84.7403 99.5061 84.3883 99.7861C84.0363 100.066 83.8603 100.466 83.8603 100.986ZM94.3129 98.9941V100.146H89.3689V98.9941H94.3129ZM103.887 99.6661C103.887 100.522 103.711 101.27 103.359 101.91C103.015 102.542 102.507 103.034 101.835 103.386C101.171 103.738 100.375 103.914 99.4472 103.914H96.6152V95.4421H99.4472C100.375 95.4421 101.171 95.6181 101.835 95.9701C102.507 96.3141 103.015 96.8021 103.359 97.4341C103.711 98.0661 103.887 98.8101 103.887 99.6661ZM99.3392 102.678C100.355 102.678 101.135 102.414 101.679 101.886C102.223 101.358 102.495 100.618 102.495 99.6661C102.495 98.7141 102.223 97.9741 101.679 97.4461C101.135 96.9181 100.355 96.6541 99.3392 96.6541H97.9832V102.678H99.3392ZM111.168 96.5221H106.98V99.0421C107.172 98.7941 107.444 98.5981 107.796 98.4541C108.148 98.3021 108.536 98.2261 108.96 98.2261C109.552 98.2261 110.044 98.3541 110.436 98.6101C110.828 98.8581 111.116 99.1901 111.3 99.6061C111.492 100.022 111.588 100.482 111.588 100.986C111.588 101.874 111.34 102.594 110.844 103.146C110.348 103.69 109.628 103.962 108.684 103.962C107.796 103.962 107.08 103.726 106.536 103.254C105.992 102.782 105.696 102.154 105.648 101.37H106.992C107.064 101.802 107.24 102.142 107.52 102.39C107.808 102.638 108.172 102.762 108.612 102.762C109.156 102.762 109.564 102.598 109.836 102.27C110.108 101.942 110.244 101.506 110.244 100.962C110.244 100.45 110.104 100.05 109.824 99.7621C109.544 99.4661 109.144 99.3181 108.624 99.3181C108.256 99.3181 107.932 99.3981 107.652 99.5581C107.38 99.7181 107.18 99.9301 107.052 100.194H105.72V95.3101H111.168V96.5221ZM117.24 98.9941V100.146H112.296V98.9941H117.24ZM124.546 95.4421V96.5461H120.91V99.1741H123.91V100.23H120.91V103.914H119.542V95.4421H124.546ZM126.017 97.4101C126.017 96.9941 126.129 96.6141 126.353 96.2701C126.577 95.9261 126.909 95.6501 127.349 95.4421C127.797 95.2341 128.333 95.1301 128.957 95.1301C129.581 95.1301 130.113 95.2341 130.553 95.4421C131.001 95.6501 131.337 95.9261 131.561 96.2701C131.793 96.6141 131.909 96.9941 131.909 97.4101C131.909 97.8741 131.785 98.2741 131.537 98.6101C131.297 98.9461 130.937 99.1901 130.457 99.3421C130.993 99.5101 131.405 99.7821 131.693 100.158C131.981 100.526 132.125 100.978 132.125 101.514C132.125 102.338 131.833 102.982 131.249 103.446C130.665 103.902 129.901 104.13 128.957 104.13C128.013 104.13 127.249 103.902 126.665 103.446C126.089 102.982 125.801 102.338 125.801 101.514C125.801 100.978 125.945 100.526 126.233 100.158C126.521 99.7821 126.933 99.5101 127.469 99.3421C126.989 99.1901 126.625 98.9461 126.377 98.6101C126.137 98.2741 126.017 97.8741 126.017 97.4101ZM127.373 97.6261C127.373 98.0581 127.513 98.3941 127.793 98.6341C128.081 98.8661 128.469 98.9821 128.957 98.9821C129.445 98.9821 129.833 98.8661 130.121 98.6341C130.409 98.3941 130.553 98.0581 130.553 97.6261C130.553 97.1941 130.405 96.8581 130.109 96.6181C129.821 96.3781 129.437 96.2581 128.957 96.2581C128.477 96.2581 128.093 96.3781 127.805 96.6181C127.517 96.8581 127.373 97.1941 127.373 97.6261ZM127.133 101.442C127.133 101.93 127.297 102.314 127.625 102.594C127.953 102.866 128.397 103.002 128.957 103.002C129.517 103.002 129.961 102.866 130.289 102.594C130.617 102.314 130.781 101.93 130.781 101.442C130.781 100.946 130.609 100.574 130.265 100.326C129.929 100.07 129.493 99.9421 128.957 99.9421C128.429 99.9421 127.993 100.07 127.649 100.326C127.305 100.582 127.133 100.954 127.133 101.442ZM137.823 98.9941V100.146H132.879V98.9941H137.823ZM143.906 95.3581C144.946 95.3581 145.81 95.6221 146.498 96.1501C147.186 96.6781 147.65 97.3941 147.89 98.2981H146.438C146.238 97.7861 145.918 97.3821 145.478 97.0861C145.046 96.7821 144.514 96.6301 143.882 96.6301C143.378 96.6301 142.926 96.7541 142.526 97.0021C142.134 97.2501 141.822 97.6061 141.59 98.0701C141.366 98.5261 141.254 99.0621 141.254 99.6781C141.254 100.286 141.366 100.822 141.59 101.286C141.822 101.742 142.134 102.094 142.526 102.342C142.926 102.59 143.378 102.714 143.882 102.714C144.514 102.714 145.046 102.566 145.478 102.27C145.918 101.966 146.238 101.562 146.438 101.058H147.89C147.65 101.962 147.186 102.678 146.498 103.206C145.81 103.726 144.946 103.986 143.906 103.986C143.106 103.986 142.398 103.806 141.782 103.446C141.166 103.078 140.69 102.57 140.354 101.922C140.018 101.266 139.85 100.518 139.85 99.6781C139.85 98.8381 140.018 98.0941 140.354 97.4461C140.69 96.7901 141.166 96.2781 141.782 95.9101C142.398 95.5421 143.106 95.3581 143.906 95.3581ZM154.438 96.4261L151.282 103.914H149.842L153.046 96.5821H148.846V95.3941H154.438V96.4261Z" fill="white"/>
    <path d="M179.196 165.626V168.914H177.828V160.442H180.708C181.684 160.442 182.416 160.674 182.904 161.138C183.4 161.602 183.648 162.238 183.648 163.046C183.648 163.846 183.396 164.478 182.892 164.942C182.388 165.398 181.66 165.626 180.708 165.626H179.196ZM180.564 164.51C181.692 164.51 182.256 164.022 182.256 163.046C182.256 162.566 182.12 162.202 181.848 161.954C181.584 161.698 181.156 161.57 180.564 161.57H179.196V164.51H180.564ZM190.536 160.442V161.546H188.172V168.914H186.792V161.546H184.44V160.442H190.536ZM192.876 167.402V168.914H191.328V167.402H192.876ZM204.226 168.914H202.858L198.742 162.662V168.914H197.374V160.454H198.742L202.858 166.73V160.454H204.226V168.914ZM209.146 162.218C209.786 162.218 210.362 162.354 210.874 162.626C211.386 162.898 211.786 163.29 212.074 163.802C212.362 164.314 212.506 164.914 212.506 165.602C212.506 166.298 212.362 166.902 212.074 167.414C211.786 167.926 211.386 168.318 210.874 168.59C210.362 168.862 209.786 168.998 209.146 168.998C208.506 168.998 207.93 168.862 207.418 168.59C206.914 168.318 206.514 167.926 206.218 167.414C205.93 166.894 205.786 166.29 205.786 165.602C205.786 164.914 205.93 164.314 206.218 163.802C206.514 163.29 206.914 162.898 207.418 162.626C207.93 162.354 208.506 162.218 209.146 162.218ZM209.146 163.406C208.794 163.406 208.47 163.486 208.174 163.646C207.878 163.806 207.638 164.054 207.454 164.39C207.278 164.718 207.19 165.122 207.19 165.602C207.19 166.09 207.278 166.498 207.454 166.826C207.638 167.154 207.878 167.398 208.174 167.558C208.47 167.718 208.794 167.798 209.146 167.798C209.498 167.798 209.822 167.718 210.118 167.558C210.414 167.398 210.65 167.154 210.826 166.826C211.01 166.498 211.102 166.09 211.102 165.602C211.102 165.122 211.01 164.718 210.826 164.39C210.65 164.054 210.414 163.806 210.118 163.646C209.822 163.486 209.498 163.406 209.146 163.406ZM216.705 167.09V165.938L220.917 160.37H222.381V165.89H223.569V167.09H222.381V168.914H221.001V167.09H216.705ZM221.097 162.002L218.121 165.89H221.097V162.002ZM230.635 161.522H226.447V164.042C226.639 163.794 226.911 163.598 227.263 163.454C227.615 163.302 228.003 163.226 228.427 163.226C229.019 163.226 229.511 163.354 229.903 163.61C230.295 163.858 230.583 164.19 230.767 164.606C230.959 165.022 231.055 165.482 231.055 165.986C231.055 166.874 230.807 167.594 230.311 168.146C229.815 168.69 229.095 168.962 228.151 168.962C227.263 168.962 226.547 168.726 226.003 168.254C225.459 167.782 225.163 167.154 225.115 166.37H226.459C226.531 166.802 226.707 167.142 226.987 167.39C227.275 167.638 227.639 167.762 228.079 167.762C228.623 167.762 229.031 167.598 229.303 167.27C229.575 166.942 229.711 166.506 229.711 165.962C229.711 165.45 229.571 165.05 229.291 164.762C229.011 164.466 228.611 164.318 228.091 164.318C227.723 164.318 227.399 164.398 227.119 164.558C226.847 164.718 226.647 164.93 226.519 165.194H225.187V160.31H230.635V161.522ZM235.471 160.178C236.031 160.178 236.511 160.278 236.911 160.478C237.311 160.67 237.611 160.938 237.811 161.282C238.019 161.626 238.123 162.01 238.123 162.434C238.123 162.97 237.971 163.418 237.667 163.778C237.371 164.13 236.951 164.342 236.407 164.414V164.474C236.991 164.642 237.447 164.894 237.775 165.23C238.111 165.558 238.279 166.014 238.279 166.598C238.279 167.31 238.043 167.89 237.571 168.338C237.099 168.778 236.423 168.998 235.543 168.998C234.639 168.998 233.911 168.77 233.359 168.314C232.807 167.85 232.491 167.166 232.411 166.262H233.767C233.815 166.742 233.987 167.126 234.283 167.414C234.579 167.694 234.979 167.834 235.483 167.834C235.955 167.834 236.315 167.71 236.563 167.462C236.819 167.214 236.947 166.894 236.947 166.502C236.947 166.03 236.763 165.67 236.395 165.422C236.035 165.174 235.511 165.05 234.823 165.05H234.499V163.922H234.823C236.127 163.938 236.779 163.494 236.779 162.59C236.779 162.198 236.659 161.89 236.419 161.666C236.179 161.442 235.851 161.33 235.435 161.33C235.019 161.33 234.671 161.458 234.391 161.714C234.111 161.962 233.943 162.326 233.887 162.806H232.543C232.599 161.974 232.879 161.33 233.383 160.874C233.887 160.41 234.583 160.178 235.471 160.178ZM245.008 161.426L241.852 168.914H240.412L243.616 161.582H239.416V160.394H245.008V161.426ZM246.038 167.846C247.334 166.958 248.37 166.09 249.146 165.242C249.93 164.386 250.322 163.594 250.322 162.866C250.322 162.434 250.214 162.09 249.998 161.834C249.79 161.578 249.45 161.45 248.978 161.45C248.49 161.45 248.122 161.61 247.874 161.93C247.626 162.242 247.486 162.69 247.454 163.274H246.122C246.178 162.306 246.474 161.566 247.01 161.054C247.554 160.542 248.246 160.286 249.086 160.286C249.91 160.286 250.554 160.506 251.018 160.946C251.49 161.378 251.726 161.978 251.726 162.746C251.726 163.362 251.534 163.986 251.15 164.618C250.774 165.25 250.294 165.834 249.71 166.37C249.126 166.898 248.522 167.354 247.898 167.738H251.918V168.854H246.038V167.846ZM254.731 166.466C254.795 166.922 254.951 167.274 255.199 167.522C255.455 167.77 255.799 167.894 256.231 167.894C256.839 167.894 257.291 167.654 257.587 167.174C257.891 166.686 258.043 165.922 258.043 164.882L258.031 164.474C257.903 164.906 257.635 165.254 257.227 165.518C256.827 165.774 256.359 165.902 255.823 165.902C254.991 165.902 254.339 165.654 253.867 165.158C253.395 164.654 253.159 163.954 253.159 163.058C253.159 162.514 253.267 162.026 253.483 161.594C253.699 161.162 254.023 160.822 254.455 160.574C254.887 160.318 255.419 160.19 256.051 160.19C257.275 160.19 258.115 160.566 258.571 161.318C259.035 162.062 259.267 163.094 259.267 164.414C259.267 165.91 259.031 167.05 258.559 167.834C258.095 168.618 257.319 169.01 256.231 169.01C255.391 169.01 254.731 168.774 254.251 168.302C253.779 167.822 253.507 167.21 253.435 166.466H254.731ZM257.899 163.202C257.899 162.682 257.747 162.25 257.443 161.906C257.147 161.554 256.699 161.378 256.099 161.378C255.603 161.378 255.203 161.526 254.899 161.822C254.603 162.118 254.455 162.534 254.455 163.07C254.455 163.638 254.603 164.074 254.899 164.378C255.203 164.682 255.615 164.834 256.135 164.834C256.439 164.834 256.723 164.774 256.987 164.654C257.259 164.526 257.479 164.342 257.647 164.102C257.815 163.854 257.899 163.554 257.899 163.202ZM260.604 167.846C261.9 166.958 262.936 166.09 263.712 165.242C264.496 164.386 264.888 163.594 264.888 162.866C264.888 162.434 264.78 162.09 264.564 161.834C264.356 161.578 264.016 161.45 263.544 161.45C263.056 161.45 262.688 161.61 262.44 161.93C262.192 162.242 262.052 162.69 262.02 163.274H260.688C260.744 162.306 261.04 161.566 261.576 161.054C262.12 160.542 262.812 160.286 263.652 160.286C264.476 160.286 265.12 160.506 265.584 160.946C266.056 161.378 266.292 161.978 266.292 162.746C266.292 163.362 266.1 163.986 265.716 164.618C265.34 165.25 264.86 165.834 264.276 166.37C263.692 166.898 263.088 167.354 262.464 167.738H266.484V168.854H260.604V167.846ZM267.329 161.726V160.442H270.041V168.914H268.601V161.726H267.329ZM271.248 161.726V160.442H273.96V168.914H272.52V161.726H271.248ZM278.612 160.178C279.172 160.178 279.652 160.278 280.052 160.478C280.452 160.67 280.752 160.938 280.952 161.282C281.16 161.626 281.264 162.01 281.264 162.434C281.264 162.97 281.112 163.418 280.808 163.778C280.512 164.13 280.092 164.342 279.548 164.414V164.474C280.132 164.642 280.588 164.894 280.916 165.23C281.252 165.558 281.42 166.014 281.42 166.598C281.42 167.31 281.184 167.89 280.712 168.338C280.24 168.778 279.564 168.998 278.684 168.998C277.78 168.998 277.052 168.77 276.5 168.314C275.948 167.85 275.632 167.166 275.552 166.262H276.908C276.956 166.742 277.128 167.126 277.424 167.414C277.72 167.694 278.12 167.834 278.624 167.834C279.096 167.834 279.456 167.71 279.704 167.462C279.96 167.214 280.088 166.894 280.088 166.502C280.088 166.03 279.904 165.67 279.536 165.422C279.176 165.174 278.652 165.05 277.964 165.05H277.64V163.922H277.964C279.268 163.938 279.92 163.494 279.92 162.59C279.92 162.198 279.8 161.89 279.56 161.666C279.32 161.442 278.992 161.33 278.576 161.33C278.16 161.33 277.812 161.458 277.532 161.714C277.252 161.962 277.084 162.326 277.028 162.806H275.684C275.74 161.974 276.02 161.33 276.524 160.874C277.028 160.41 277.724 160.178 278.612 160.178Z" fill="white"/>
    <path d="M41.196 160.442V168.914H39.828V160.442H41.196ZM46.8714 160.358C47.9114 160.358 48.7754 160.622 49.4634 161.15C50.1514 161.678 50.6154 162.394 50.8554 163.298H49.4034C49.2034 162.786 48.8834 162.382 48.4434 162.086C48.0114 161.782 47.4794 161.63 46.8474 161.63C46.3434 161.63 45.8914 161.754 45.4914 162.002C45.0994 162.25 44.7874 162.606 44.5554 163.07C44.3314 163.526 44.2194 164.062 44.2194 164.678C44.2194 165.286 44.3314 165.822 44.5554 166.286C44.7874 166.742 45.0994 167.094 45.4914 167.342C45.8914 167.59 46.3434 167.714 46.8474 167.714C47.4794 167.714 48.0114 167.566 48.4434 167.27C48.8834 166.966 49.2034 166.562 49.4034 166.058H50.8554C50.6154 166.962 50.1514 167.678 49.4634 168.206C48.7754 168.726 47.9114 168.986 46.8714 168.986C46.0714 168.986 45.3634 168.806 44.7474 168.446C44.1314 168.078 43.6554 167.57 43.3194 166.922C42.9834 166.266 42.8154 165.518 42.8154 164.678C42.8154 163.838 42.9834 163.094 43.3194 162.446C43.6554 161.79 44.1314 161.278 44.7474 160.91C45.3634 160.542 46.0714 160.358 46.8714 160.358ZM53.7323 162.314V163.826H52.1843V162.314H53.7323ZM53.7323 167.402V168.914H52.1843V167.402H53.7323ZM62.7827 160.442V166.586C62.7827 167.346 62.5707 167.938 62.1467 168.362C61.7227 168.786 61.1347 168.998 60.3827 168.998C59.5667 168.998 58.9267 168.762 58.4627 168.29C57.9987 167.818 57.7667 167.15 57.7667 166.286H59.1227C59.1227 166.75 59.2187 167.11 59.4107 167.366C59.6107 167.622 59.9147 167.75 60.3227 167.75C60.6987 167.75 60.9747 167.642 61.1507 167.426C61.3267 167.21 61.4147 166.93 61.4147 166.586V160.442H62.7827ZM69.6218 160.442V161.546H65.9858V164.174H68.9858V165.23H65.9858V168.914H64.6178V160.442H69.6218ZM77.9325 168.914H76.5645L72.4485 162.662V168.914H71.0805V160.454H72.4485L76.5645 166.73V160.454H77.9325V168.914ZM85.3963 166.658C85.3963 167.074 85.2963 167.462 85.0963 167.822C84.8963 168.174 84.5923 168.458 84.1843 168.674C83.7763 168.89 83.2763 168.998 82.6843 168.998C82.1083 168.998 81.5923 168.898 81.1363 168.698C80.6803 168.49 80.3163 168.202 80.0443 167.834C79.7723 167.466 79.6163 167.042 79.5763 166.562H81.0403C81.0803 166.93 81.2363 167.246 81.5083 167.51C81.7883 167.774 82.1603 167.906 82.6243 167.906C83.0403 167.906 83.3603 167.794 83.5843 167.57C83.8163 167.346 83.9323 167.058 83.9323 166.706C83.9323 166.402 83.8483 166.154 83.6803 165.962C83.5123 165.762 83.3043 165.606 83.0563 165.494C82.8083 165.382 82.4683 165.254 82.0363 165.11C81.5083 164.942 81.0763 164.774 80.7403 164.606C80.4123 164.438 80.1323 164.194 79.9003 163.874C79.6683 163.554 79.5523 163.134 79.5523 162.614C79.5523 162.158 79.6643 161.758 79.8883 161.414C80.1123 161.07 80.4323 160.806 80.8483 160.622C81.2643 160.43 81.7443 160.334 82.2883 160.334C83.1523 160.334 83.8363 160.542 84.3403 160.958C84.8523 161.374 85.1443 161.918 85.2163 162.59H83.7403C83.6843 162.27 83.5323 161.998 83.2843 161.774C83.0443 161.542 82.7123 161.426 82.2883 161.426C81.9043 161.426 81.5963 161.526 81.3643 161.726C81.1323 161.918 81.0163 162.198 81.0163 162.566C81.0163 162.854 81.0963 163.094 81.2563 163.286C81.4163 163.47 81.6163 163.618 81.8563 163.73C82.1043 163.834 82.4403 163.958 82.8643 164.102C83.4003 164.27 83.8363 164.442 84.1723 164.618C84.5163 164.786 84.8043 165.034 85.0363 165.362C85.2763 165.69 85.3963 166.122 85.3963 166.658ZM93.7378 160.442V168.914H92.3578V165.11H88.3738V168.914H87.0058V160.442H88.3738V163.994H92.3578V160.442H93.7378ZM96.9324 166.466C96.9964 166.922 97.1524 167.274 97.4004 167.522C97.6564 167.77 98.0004 167.894 98.4324 167.894C99.0404 167.894 99.4924 167.654 99.7884 167.174C100.092 166.686 100.244 165.922 100.244 164.882L100.232 164.474C100.104 164.906 99.8364 165.254 99.4284 165.518C99.0284 165.774 98.5604 165.902 98.0244 165.902C97.1924 165.902 96.5404 165.654 96.0684 165.158C95.5964 164.654 95.3604 163.954 95.3604 163.058C95.3604 162.514 95.4684 162.026 95.6844 161.594C95.9004 161.162 96.2244 160.822 96.6564 160.574C97.0884 160.318 97.6204 160.19 98.2524 160.19C99.4764 160.19 100.316 160.566 100.772 161.318C101.236 162.062 101.468 163.094 101.468 164.414C101.468 165.91 101.232 167.05 100.76 167.834C100.296 168.618 99.5204 169.01 98.4324 169.01C97.5924 169.01 96.9324 168.774 96.4524 168.302C95.9804 167.822 95.7084 167.21 95.6364 166.466H96.9324ZM100.1 163.202C100.1 162.682 99.9484 162.25 99.6444 161.906C99.3484 161.554 98.9004 161.378 98.3004 161.378C97.8044 161.378 97.4044 161.526 97.1004 161.822C96.8044 162.118 96.6564 162.534 96.6564 163.07C96.6564 163.638 96.8044 164.074 97.1004 164.378C97.4044 164.682 97.8164 164.834 98.3364 164.834C98.6404 164.834 98.9244 164.774 99.1884 164.654C99.4604 164.526 99.6804 164.342 99.8484 164.102C100.016 163.854 100.1 163.554 100.1 163.202ZM104.522 161.546V164.114H107.642V165.17H104.522V167.798H108.002V168.914H103.154V160.442H108.002V161.546H104.522ZM109.222 167.846C110.518 166.958 111.554 166.09 112.33 165.242C113.114 164.386 113.506 163.594 113.506 162.866C113.506 162.434 113.398 162.09 113.182 161.834C112.974 161.578 112.634 161.45 112.162 161.45C111.674 161.45 111.306 161.61 111.058 161.93C110.81 162.242 110.67 162.69 110.638 163.274H109.306C109.362 162.306 109.658 161.566 110.194 161.054C110.738 160.542 111.43 160.286 112.27 160.286C113.094 160.286 113.738 160.506 114.202 160.946C114.674 161.378 114.91 161.978 114.91 162.746C114.91 163.362 114.718 163.986 114.334 164.618C113.958 165.25 113.478 165.834 112.894 166.37C112.31 166.898 111.706 167.354 111.082 167.738H115.102V168.854H109.222V167.846ZM121.058 162.722C120.914 161.778 120.422 161.306 119.582 161.306C118.974 161.306 118.518 161.55 118.214 162.038C117.91 162.518 117.758 163.274 117.758 164.306L117.77 164.714C117.89 164.282 118.15 163.938 118.55 163.682C118.95 163.426 119.422 163.298 119.966 163.298C120.798 163.298 121.45 163.546 121.922 164.042C122.394 164.538 122.63 165.238 122.63 166.142C122.63 166.686 122.522 167.174 122.306 167.606C122.09 168.03 121.766 168.37 121.334 168.626C120.902 168.874 120.37 168.998 119.738 168.998C118.514 168.998 117.674 168.618 117.218 167.858C116.762 167.098 116.534 166.054 116.534 164.726C116.534 163.206 116.778 162.07 117.266 161.318C117.754 160.566 118.554 160.19 119.666 160.19C120.498 160.19 121.134 160.426 121.574 160.898C122.022 161.37 122.282 161.978 122.354 162.722H121.058ZM117.89 165.986C117.89 166.506 118.042 166.942 118.346 167.294C118.65 167.638 119.098 167.81 119.69 167.81C120.194 167.81 120.594 167.662 120.89 167.366C121.194 167.07 121.346 166.658 121.346 166.13C121.346 165.562 121.194 165.126 120.89 164.822C120.586 164.518 120.174 164.366 119.654 164.366C119.182 164.366 118.77 164.506 118.418 164.786C118.066 165.066 117.89 165.466 117.89 165.986ZM123.987 167.846C125.283 166.958 126.319 166.09 127.095 165.242C127.879 164.386 128.271 163.594 128.271 162.866C128.271 162.434 128.163 162.09 127.947 161.834C127.739 161.578 127.399 161.45 126.927 161.45C126.439 161.45 126.071 161.61 125.823 161.93C125.575 162.242 125.435 162.69 125.403 163.274H124.071C124.127 162.306 124.423 161.566 124.959 161.054C125.503 160.542 126.195 160.286 127.035 160.286C127.859 160.286 128.503 160.506 128.967 160.946C129.439 161.378 129.675 161.978 129.675 162.746C129.675 163.362 129.483 163.986 129.099 164.618C128.723 165.25 128.243 165.834 127.659 166.37C127.075 166.898 126.471 167.354 125.847 167.738H129.867V168.854H123.987V167.846ZM131.395 162.41C131.395 161.994 131.507 161.614 131.731 161.27C131.955 160.926 132.287 160.65 132.727 160.442C133.175 160.234 133.711 160.13 134.335 160.13C134.959 160.13 135.491 160.234 135.931 160.442C136.379 160.65 136.715 160.926 136.939 161.27C137.171 161.614 137.287 161.994 137.287 162.41C137.287 162.874 137.163 163.274 136.915 163.61C136.675 163.946 136.315 164.19 135.835 164.342C136.371 164.51 136.783 164.782 137.071 165.158C137.359 165.526 137.503 165.978 137.503 166.514C137.503 167.338 137.211 167.982 136.627 168.446C136.043 168.902 135.279 169.13 134.335 169.13C133.391 169.13 132.627 168.902 132.043 168.446C131.467 167.982 131.179 167.338 131.179 166.514C131.179 165.978 131.323 165.526 131.611 165.158C131.899 164.782 132.311 164.51 132.847 164.342C132.367 164.19 132.003 163.946 131.755 163.61C131.515 163.274 131.395 162.874 131.395 162.41ZM132.751 162.626C132.751 163.058 132.891 163.394 133.171 163.634C133.459 163.866 133.847 163.982 134.335 163.982C134.823 163.982 135.211 163.866 135.499 163.634C135.787 163.394 135.931 163.058 135.931 162.626C135.931 162.194 135.783 161.858 135.487 161.618C135.199 161.378 134.815 161.258 134.335 161.258C133.855 161.258 133.471 161.378 133.183 161.618C132.895 161.858 132.751 162.194 132.751 162.626ZM132.511 166.442C132.511 166.93 132.675 167.314 133.003 167.594C133.331 167.866 133.775 168.002 134.335 168.002C134.895 168.002 135.339 167.866 135.667 167.594C135.995 167.314 136.159 166.93 136.159 166.442C136.159 165.946 135.987 165.574 135.643 165.326C135.307 165.07 134.871 164.942 134.335 164.942C133.807 164.942 133.371 165.07 133.027 165.326C132.683 165.582 132.511 165.954 132.511 166.442ZM145.926 160.442V168.914H144.546V165.11H140.562V168.914H139.194V160.442H140.562V163.994H144.546V160.442H145.926Z" fill="white"/>
</svg>
