<svg width="375" height="232" viewBox="0 0 375 232" fill="none" xmlns="http://www.w3.org/2000/svg">
    <g clip-path="url(#clip0_3969_14127)">
        <path d="M94.3462 45.6226H96.8302L98.2222 40.0786L99.5662 45.6226H102.05L104.246 37.1986H102.038L100.814 43.3306L99.3742 37.1986H97.1182L95.6182 43.3306L94.4062 37.1986H92.2102L94.3462 45.6226ZM105.755 45.6226H107.807V37.1986H105.755V45.6226ZM109.774 45.6226H111.826V42.2146H114.394V40.6186H111.826V38.8426H115.258V37.1986H109.774V45.6226ZM116.817 45.6226H118.869V37.1986H116.817V45.6226Z" fill="white"/>
        <path fill-rule="evenodd" clip-rule="evenodd" d="M74.375 47.4964L74.5005 47.6226L74.625 47.4955L76.4116 45.3364C75.8943 44.8864 75.2324 44.604 74.5005 44.604C73.7676 44.604 73.1048 44.8864 72.5875 45.3364L74.375 47.4964ZM69.9744 42.1784C71.2382 41.0843 72.8229 40.4843 74.5005 40.4843C76.1761 40.4843 77.7609 41.0843 79.0257 42.1784L80.1785 40.7852C78.591 39.4131 76.6035 38.6605 74.5005 38.6605C72.3965 38.6605 70.408 39.4131 68.8215 40.7852L69.9744 42.1793V42.1784ZM65 36.1679C67.6531 33.8755 70.9809 32.6226 74.5005 32.6226C78.0191 32.6226 81.3469 33.8755 84 36.1679L82.8435 37.5664C80.5122 35.5511 77.5918 34.4464 74.5005 34.4464C71.4091 34.4464 68.4878 35.5511 66.1565 37.5655L65 36.1679Z" fill="white"/>
        <path opacity="0.5" d="M267.572 132.832H261.812V143.272H267.572V141.877H263.522V138.682H267.122V137.287H263.522V134.227H267.572V132.832ZM275.903 143.272H277.598V138.397C277.598 136.087 276.143 134.872 274.208 134.872C273.218 134.872 272.303 135.277 271.748 135.952V135.007H270.038V143.272H271.748V138.652C271.748 137.137 272.573 136.357 273.833 136.357C275.078 136.357 275.903 137.137 275.903 138.652V143.272ZM280.41 140.977C280.41 142.657 281.325 143.272 282.795 143.272H284.145V141.847H283.095C282.375 141.847 282.135 141.592 282.135 140.977V136.402H284.145V135.007H282.135V132.952H280.41V135.007H279.435V136.402H280.41V140.977ZM289.561 136.312C290.836 136.312 291.841 137.122 291.871 138.397H287.296C287.476 137.092 288.406 136.312 289.561 136.312ZM293.431 140.812H291.586C291.271 141.457 290.686 141.967 289.636 141.967C288.376 141.967 287.401 141.142 287.281 139.777H293.596C293.641 139.492 293.656 139.222 293.656 138.937C293.656 136.507 291.991 134.872 289.636 134.872C287.191 134.872 285.511 136.537 285.511 139.132C285.511 141.727 287.266 143.407 289.636 143.407C291.661 143.407 292.966 142.252 293.431 140.812ZM297.409 138.922C297.409 137.167 298.189 136.642 299.449 136.642H299.884V134.872C298.714 134.872 297.889 135.382 297.409 136.207V135.007H295.699V143.272H297.409V138.922Z" fill="white"/>
        <path d="M279.655 65.8391V75.2791H270.335V76.7991H279.655V86.2391H281.375V76.7991H290.735V75.2791H281.375V65.8391H279.655Z" fill="white"/>
        <rect x="250.056" y="55.1226" width="60.9599" height="45.6424" rx="7.5" stroke="white"/>
        <path opacity="0.5" d="M65.5 58.3916H186.976H220.183V138.486H186.976H65.5V58.3916Z" stroke="white"/>
        <rect opacity="0.5" x="250.056" y="116.355" width="60.9599" height="45.6424" rx="7.5" stroke="white"/>
        <rect width="12.601" height="6.98303" rx="3.49152" transform="matrix(1 0 0 -1 274.237 119.347)" fill="black"/>
        <rect x="0.5" y="-0.5" width="11.601" height="5.98303" rx="2.99152" transform="matrix(1 0 0 -1 274.237 118.347)" stroke="white" stroke-opacity="0.5"/>
        <rect x="250.056" y="177.589" width="60.9599" height="45.6424" rx="7.5" stroke="white"/>
        <line x1="269.42" y1="201.385" x2="291.653" y2="201.385" stroke="white" stroke-width="2"/>
        <path opacity="0.5" d="M343 233.711V208.803V36.1177C343 25.072 334.046 16.1177 323 16.1177H45C33.9543 16.1177 25 25.072 25 36.1177V233.711" stroke="white"/>
    </g>
    <defs>
        <clipPath id="clip0_3969_14127">
            <rect width="375" height="232" fill="white"/>
        </clipPath>
    </defs>
</svg>
