<svg width="83" height="81" viewBox="0 0 83 81" fill="none" xmlns="http://www.w3.org/2000/svg">
<mask id="mask0_5665_18504" style="mask-type:alpha" maskUnits="userSpaceOnUse" x="0" y="0" width="83" height="81">
<path fill-rule="evenodd" clip-rule="evenodd" d="M0 0H82.8631V80.9933H0V0Z" fill="white"/>
</mask>
<g mask="url(#mask0_5665_18504)">
<path fill-rule="evenodd" clip-rule="evenodd" d="M50.7239 29.9483C50.7239 25.3443 53.9171 20.8754 55.6512 21.7242C57.6386 22.6934 54.1745 27.0312 50.7239 29.9483M29.0341 31.6292C29.0341 27.9256 32.7705 20.8932 35.0641 21.6361C37.7561 22.5153 32.8206 29.6059 29.0341 31.6292M25.2474 58.1121C23.5336 58.1836 22.3821 57.111 22.3821 55.3182C22.3821 50.4931 29.2223 45.8944 34.384 43.4223C33.4722 50.1541 31.1434 57.8473 25.2474 58.1121M56.8068 42.408C52.9064 42.408 49.9218 45.2058 49.9218 48.5731C49.9218 51.3815 51.6451 53.6219 53.9387 53.6219C54.7435 53.6219 55.5482 53.177 55.5482 52.1681C55.5482 50.7076 53.5743 50.3553 53.7192 48.1705C53.8195 46.7326 55.2095 45.7673 56.5792 45.7673C59.3361 45.7673 60.6231 48.3798 60.6231 51.0717C60.5093 55.2228 57.3785 58.112 53.7111 58.112C48.8881 58.112 45.7911 53.6219 45.7911 48.7955C45.7911 41.6175 50.6155 38.8104 53.1367 38.139C53.1638 38.139 59.7385 39.2897 59.5353 36.4521C59.4377 35.2035 57.5478 34.7294 56.1714 34.6751C54.6473 34.6129 53.1137 35.1545 53.1137 35.1545C52.3171 34.7586 51.7643 33.9826 51.4202 33.0875C56.1185 29.6064 59.4472 26.2445 59.4472 22.4323C59.4472 20.4104 58.0748 18.6175 55.4344 18.6175C50.7238 18.6175 47.173 24.4529 47.173 29.7229C47.173 30.6207 47.173 31.5184 47.4006 32.301C44.416 34.4328 42.1956 35.7622 38.1787 38.1152C38.1787 37.6239 38.2816 36.3568 38.6231 34.7175C39.9968 33.2557 41.8908 31.0656 41.8908 29.384C41.8908 28.5974 41.4369 27.9261 40.5102 27.9261C38.2207 27.9261 36.4934 31.2933 36.0382 33.6463C35.0031 34.887 32.9344 36.4547 31.2206 36.4547C29.836 36.4547 29.3808 35.2233 29.2616 34.7744C33.6253 33.3153 39.0227 27.4812 39.0227 22.2046C39.0227 21.0884 38.5621 18.6175 35.1196 18.6175C29.9552 18.6175 25.5915 26.1306 25.5915 31.9647C23.7558 31.9647 23.073 30.0593 23.073 28.5974C23.073 27.1396 23.6447 25.683 23.6447 25.2355C23.6447 24.7893 23.4144 24.2278 22.7181 24.2278C21.0016 24.2278 19.9692 26.4643 19.9692 29.0476C20.0857 32.6373 22.4932 34.887 25.708 35.1094C26.1659 37.2413 28.1182 39.2606 30.5297 39.2606C32.0213 39.2606 33.8529 38.8104 35.1196 37.6915C35.0031 38.4714 34.8893 39.1493 34.7742 39.822C29.7222 42.408 26.0521 44.2035 22.7181 47.1152C20.0857 49.4761 18.5901 52.6103 18.5901 55.0798C18.5901 58.447 20.774 61.5878 25.2474 61.5878C30.5297 61.5878 34.5493 57.4341 36.4934 51.7126C37.4146 49.0233 37.7844 45.1052 38.012 41.5129C43.297 38.5958 45.7911 36.9102 48.5467 34.9969C48.8881 35.5596 49.2363 36.0045 49.6942 36.3435C47.2868 37.5829 41.5453 41.0587 41.5453 49.2457C41.5453 55.0798 45.5635 61.5878 53.4808 61.5878C60.0271 61.5878 64.5046 56.3165 64.5046 51.269C64.5046 46.6703 61.8614 42.408 56.8068 42.408M76.5418 52.0423C76.5255 52.0754 76.4565 52.1271 76.3264 52.0807C76.2316 52.0463 76.2058 51.9973 76.2099 51.9404C76.2126 51.8742 77.5972 47.8806 77.5836 43.3058C77.5728 38.3615 75.5176 35.332 72.8812 35.332C71.2704 35.332 70.127 36.4548 70.127 38.1391C70.127 41.1674 73.9108 41.3951 73.9108 48.0157C73.9108 50.7076 73.3391 53.2857 72.4247 56.0888C68.1748 70.1099 54.6325 76.6193 41.437 76.6193C35.3473 76.6193 31.027 75.3932 29.7386 74.8291C29.6858 74.8013 29.6424 74.7046 29.683 74.6013C29.7115 74.5312 29.8023 74.4716 29.8524 74.4928C30.374 74.694 34.086 75.8328 38.676 75.8328C43.7225 75.8328 46.7098 73.8095 46.7098 71.348C46.7098 69.7763 45.4526 68.5448 43.8444 68.5448C40.738 68.5448 40.5104 72.3517 33.853 72.3517C30.9877 72.3517 28.457 71.7929 25.4805 70.8978C11.2419 66.6315 4.46401 53.5081 4.47621 40.4947C4.48162 34.1561 6.29702 29.1073 6.32818 29.0609C6.34443 29.0225 6.42978 28.9881 6.53004 29.0225C6.633 29.0609 6.66009 29.147 6.65197 29.1722C6.48533 29.6952 5.27823 33.3153 5.27823 37.8028C5.27823 42.7444 7.3429 45.6561 9.98876 45.6561C11.4722 45.6561 12.7376 44.5399 12.7376 42.9668C12.7376 39.9359 8.94559 39.5969 8.94559 33.0876C8.94559 30.2844 9.52543 27.8123 10.4467 24.8992C14.8009 10.992 28.2321 4.47206 41.437 4.37672C47.5728 4.32905 52.9309 6.12191 53.1368 6.27683C53.1747 6.30993 53.2167 6.38806 53.1747 6.4781C53.1314 6.58667 53.0609 6.59727 53.0203 6.59462C52.9526 6.58667 49.4667 5.15927 44.1886 5.15927C39.2504 5.15663 36.1494 7.17988 36.1494 9.76323C36.1494 11.2171 37.3009 12.4499 39.0228 12.4499C42.1212 12.4499 42.3515 8.74631 49.0061 8.74631C51.8782 8.74631 54.4022 9.30774 57.3786 10.2055C71.731 14.4718 78.261 27.709 78.3884 40.4947C78.4493 47.0478 76.5594 52.0026 76.5418 52.0423M41.437 1.90281C19.6252 1.90281 1.94951 19.1786 1.94951 40.4942C1.94951 61.8099 19.6252 79.0804 41.437 79.0804C63.2366 79.0804 80.9122 61.8099 80.9122 40.4942C80.9122 19.2925 63.2366 1.90281 41.437 1.90281M41.437 80.9937C18.5901 80.9937 0 62.9327 0 40.4942C0 18.1696 18.5901 0 41.437 0C64.2689 0 82.8631 18.1696 82.8631 40.4942C82.8631 62.9327 64.2689 80.9937 41.437 80.9937" fill="#FEFEFE"/>
</g>
</svg>
