<svg width="74" height="23" viewBox="0 0 74 23" fill="none" xmlns="http://www.w3.org/2000/svg">
<path fill-rule="evenodd" clip-rule="evenodd" d="M54.725 9.41052C56.6798 9.41052 58.3386 10.6665 59.017 12.4425H50.4309C51.1072 10.6665 52.7783 9.41052 54.725 9.41052ZM62.8752 15.0469C62.9143 14.7652 62.9307 14.4692 62.9307 14.1712C62.9307 9.6798 59.2102 6.03735 54.6119 6.03735C50.0198 6.03735 46.291 9.6798 46.291 14.1712C46.291 18.6605 50.0198 22.3009 54.6119 22.3009C58.1063 22.3009 61.1013 20.2022 62.3326 17.2155L58.7395 16.5885C57.944 18.0418 56.4434 19.0182 54.725 19.0182C52.4412 19.0182 50.5583 17.2997 50.1863 15.0469H62.8752Z" fill="#FEFEFE"/>
<mask id="mask0_0_468" style="mask-type:alpha" maskUnits="userSpaceOnUse" x="0" y="-1" width="73" height="24">
<path fill-rule="evenodd" clip-rule="evenodd" d="M0 22.3019H72.4213V-0.000854492H0V22.3019Z" fill="white"/>
</mask>
<g mask="url(#mask0_0_468)">
<path fill-rule="evenodd" clip-rule="evenodd" d="M39.8162 22.008H44.0568V6.37549H39.8162V22.008Z" fill="#FEFEFE"/>
<path fill-rule="evenodd" clip-rule="evenodd" d="M41.931 0C40.6257 0 39.563 1.06067 39.563 2.368C39.563 3.67328 40.6257 4.73806 41.931 4.73806C43.2465 4.73806 44.2969 3.67328 44.2969 2.368C44.2969 1.06067 43.2465 0 41.931 0Z" fill="#FEFEFE"/>
<path fill-rule="evenodd" clip-rule="evenodd" d="M13.8038 1.36096V9.78463H4.64012V1.36096H0.000732422V22.0008H4.64012V13.5812H13.8038V22.0008H18.4493V1.36096H13.8038Z" fill="#FEFEFE"/>
<path fill-rule="evenodd" clip-rule="evenodd" d="M28.9504 18.8774C26.3275 18.8774 24.2 16.7786 24.2 14.1763C24.2 11.5822 26.3275 9.46704 28.9504 9.46704C31.5815 9.46704 33.7131 11.5822 33.7131 14.1763C33.7131 16.7786 31.5815 18.8774 28.9504 18.8774ZM32.9813 6.37959V7.21826C31.7418 6.4762 30.2988 6.04248 28.7448 6.04248C24.2411 6.04248 20.5884 9.67876 20.5884 14.1722C20.5884 18.6615 24.2411 22.3019 28.7448 22.3019C30.2598 22.3019 31.6699 21.897 32.8827 21.1858V22.0018H37.0287V6.37959H32.9813Z" fill="#FEFEFE"/>
<path fill-rule="evenodd" clip-rule="evenodd" d="M71.7195 4.922C67.8057 5.60855 64.8293 9.01255 64.782 13.1154V22.0098H68.8499L68.852 12.951C68.852 10.8728 70.4142 9.16261 72.4225 8.90772L71.7195 4.922Z" fill="#FEFEFE"/>
</g>
</svg>
