<svg width="270" height="17" viewBox="0 0 270 17" fill="none" xmlns="http://www.w3.org/2000/svg">
<g clip-path="url(#clip0_5665_18516)">
<path d="M0 16.5734V0.261719H11.4658V3.83362H4.25064V7.1793H10.8824V10.7512H4.25064V16.5377L0 16.5734Z" fill="white"/>
<path d="M23.7886 16.5734H19.5381V0.261719H23.7886V16.5734Z" fill="white"/>
<path d="M31.9447 11.4183C33.5723 12.5498 35.4887 13.1941 37.4693 13.2757C38.6599 13.2757 39.8505 12.9899 39.8505 11.8945C39.8505 11.1325 39.2911 10.8349 38.4695 10.5967L36.0048 9.85854C33.2664 9.02509 31.8257 7.7273 31.8257 5.096C31.8257 1.98845 34.5641 -0.0594396 38.0765 -0.0594396C39.8336 -0.102404 41.5721 0.307629 43.1248 1.13119V5.06028C41.6732 4.04556 39.9544 3.48224 38.1838 3.44102C36.9098 3.44102 36.0048 3.81012 36.0048 4.715C36.0048 5.38175 36.4572 5.64369 37.3026 5.90563L39.7673 6.65573C42.7438 7.58443 44.1012 9.037 44.1012 11.4183C44.1012 14.9902 40.946 16.7285 37.4337 16.7285C35.5057 16.7364 33.6065 16.2616 31.9091 15.3474L31.9447 11.4183Z" fill="white"/>
<path d="M66.9017 0.261719V16.5734H62.651V10.0368H56.4121V16.5734H52.1616V0.261719H56.4121V6.45301H62.651V0.261719H66.9017Z" fill="white"/>
<path d="M87.5831 0.26247V3.83437H80.1773V6.42995H86.952V10.0019H80.1773V12.9546H87.5831V16.5265H75.9268V0.214844L87.5831 0.26247Z" fill="white"/>
<path d="M96.3225 0.261719H103.264C106.836 0.261719 109.657 2.26198 109.657 5.89342C109.704 7.0243 109.38 8.13947 108.736 9.06983C108.091 10.0002 107.161 10.695 106.086 11.0489L110.396 16.5734H105.478L101.633 11.5251H100.561V16.5734H96.3105L96.3225 0.261719ZM100.573 7.94131H102.954C104.502 7.94131 105.478 7.14358 105.478 5.89342C105.478 4.64325 104.502 3.85743 102.954 3.85743H100.573V7.94131Z" fill="white"/>
<path d="M134.994 15.2157C133.741 16.2933 132.134 16.87 130.481 16.835C127.029 16.835 124.159 14.5847 124.159 10.8818C124.184 9.81633 124.462 8.77211 124.971 7.83603C125.481 6.89995 126.207 6.09909 127.088 5.50013L125.457 3.47605V0.285156H136.411V3.85706H130.589L134.994 9.47684L136.03 7.94093H140.447L137.304 12.4534L140.554 16.573H136.113L134.994 15.2157ZM132.767 12.4534L129.338 8.23859C128.91 8.52392 128.559 8.90958 128.314 9.36197C128.069 9.81437 127.938 10.3198 127.933 10.8342C127.93 11.1675 127.994 11.4981 128.122 11.8061C128.249 12.1141 128.437 12.3931 128.675 12.6266C128.913 12.8601 129.196 13.0431 129.506 13.1648C129.816 13.2864 130.148 13.3441 130.481 13.3345C130.902 13.3502 131.322 13.2802 131.715 13.1288C132.108 12.9773 132.466 12.7475 132.767 12.4534V12.4534Z" fill="white"/>
<path d="M161.045 16.5734H156.806V0.261719H163.724C167.296 0.261719 170.117 2.26198 170.117 5.89342C170.117 9.52485 167.355 11.5251 163.724 11.5251H161.033L161.045 16.5734ZM161.045 7.94131H163.426C164.962 7.94131 165.938 7.14358 165.938 5.89342C165.938 4.64325 164.962 3.85743 163.426 3.85743H161.045V7.94131Z" fill="white"/>
<path d="M186.203 13.573H179.666L178.476 16.5734H174.309L180.952 0.261719H184.989L191.62 16.5734H187.346L186.203 13.573ZM181.083 10.0011H184.798L182.941 5.23857L181.083 10.0011Z" fill="white"/>
<path d="M200.634 16.5734V10.2511L194.478 0.261719H199.241L202.884 6.56017L206.527 0.261719H211.04L204.872 10.2511V16.5734H200.634Z" fill="white"/>
<path d="M221.291 7.20311L226.494 0.261719H231.459L225.434 8.07227L231.697 16.5734H226.649L221.291 9.27482V16.5734H217.041V0.261719H221.291V7.20311Z" fill="white"/>
<path d="M249.676 0.26247V3.83437H242.306V6.42995H249.08V10.0019H242.306V12.9546H249.711V16.5265H238.055V0.214844L249.676 0.26247Z" fill="white"/>
<path d="M258.415 0.261719H262.666V12.9896H270V16.5615H258.415V0.261719Z" fill="white"/>
</g>
<defs>
<clipPath id="clip0_5665_18516">
<rect width="270" height="16.8356" fill="white"/>
</clipPath>
</defs>
</svg>
