<svg width="343" height="165" viewBox="0 0 343 165" fill="none" xmlns="http://www.w3.org/2000/svg">
    <rect x="1" y="1.10938" width="341" height="162" rx="15" stroke="white" stroke-width="2" />

    <rect x="155" y="83" width="142" height="32" rx="4" stroke="#FDBA12" stroke-width="2" />


    <path
        d="M36.144 21.7014C37.5307 21.7014 38.6827 22.0534 39.6 22.7574C40.5173 23.4614 41.136 24.416 41.456 25.6214H39.52C39.2533 24.9387 38.8267 24.4 38.24 24.0054C37.664 23.6 36.9547 23.3974 36.112 23.3974C35.44 23.3974 34.8373 23.5627 34.304 23.8934C33.7813 24.224 33.3653 24.6987 33.056 25.3174C32.7573 25.9254 32.608 26.64 32.608 27.4614C32.608 28.272 32.7573 28.9867 33.056 29.6054C33.3653 30.2134 33.7813 30.6827 34.304 31.0134C34.8373 31.344 35.44 31.5094 36.112 31.5094C36.9547 31.5094 37.664 31.312 38.24 30.9174C38.8267 30.512 39.2533 29.9734 39.52 29.3014H41.456C41.136 30.5067 40.5173 31.4614 39.6 32.1654C38.6827 32.8587 37.5307 33.2054 36.144 33.2054C35.0773 33.2054 34.1333 32.9654 33.312 32.4854C32.4907 31.9947 31.856 31.3174 31.408 30.4534C30.96 29.5787 30.736 28.5814 30.736 27.4614C30.736 26.3414 30.96 25.3494 31.408 24.4854C31.856 23.6107 32.4907 22.928 33.312 22.4374C34.1333 21.9467 35.0773 21.7014 36.144 21.7014ZM47.6279 24.1814C48.4812 24.1814 49.2492 24.3627 49.9319 24.7254C50.6145 25.088 51.1479 25.6107 51.5319 26.2934C51.9159 26.976 52.1079 27.776 52.1079 28.6934C52.1079 29.6214 51.9159 30.4267 51.5319 31.1094C51.1479 31.792 50.6145 32.3147 49.9319 32.6774C49.2492 33.04 48.4812 33.2214 47.6279 33.2214C46.7745 33.2214 46.0065 33.04 45.3239 32.6774C44.6519 32.3147 44.1185 31.792 43.7239 31.1094C43.3399 30.416 43.1479 29.6107 43.1479 28.6934C43.1479 27.776 43.3399 26.976 43.7239 26.2934C44.1185 25.6107 44.6519 25.088 45.3239 24.7254C46.0065 24.3627 46.7745 24.1814 47.6279 24.1814ZM47.6279 25.7654C47.1585 25.7654 46.7265 25.872 46.3319 26.0854C45.9372 26.2987 45.6172 26.6294 45.3719 27.0774C45.1372 27.5147 45.0199 28.0534 45.0199 28.6934C45.0199 29.344 45.1372 29.888 45.3719 30.3254C45.6172 30.7627 45.9372 31.088 46.3319 31.3014C46.7265 31.5147 47.1585 31.6214 47.6279 31.6214C48.0972 31.6214 48.5292 31.5147 48.9239 31.3014C49.3185 31.088 49.6332 30.7627 49.8679 30.3254C50.1132 29.888 50.2359 29.344 50.2359 28.6934C50.2359 28.0534 50.1132 27.5147 49.8679 27.0774C49.6332 26.6294 49.3185 26.2987 48.9239 26.0854C48.5292 25.872 48.0972 25.7654 47.6279 25.7654ZM59.1095 24.1494C60.1335 24.1494 60.9548 24.48 61.5735 25.1414C62.1922 25.8027 62.5015 26.7467 62.5015 27.9734V33.1094H60.6775V28.1654C60.6775 27.376 60.4748 26.768 60.0695 26.3414C59.6642 25.904 59.1095 25.6854 58.4055 25.6854C57.6802 25.6854 57.0988 25.92 56.6615 26.3894C56.2242 26.848 56.0055 27.5254 56.0055 28.4214V33.1094H54.1815V24.2934H56.0055V26.2294C56.2402 25.568 56.6348 25.056 57.1895 24.6934C57.7442 24.3307 58.3842 24.1494 59.1095 24.1494ZM69.8826 24.1494C70.9066 24.1494 71.728 24.48 72.3466 25.1414C72.9653 25.8027 73.2746 26.7467 73.2746 27.9734V33.1094H71.4506V28.1654C71.4506 27.376 71.248 26.768 70.8426 26.3414C70.4373 25.904 69.8826 25.6854 69.1786 25.6854C68.4533 25.6854 67.872 25.92 67.4346 26.3894C66.9973 26.848 66.7786 27.5254 66.7786 28.4214V33.1094H64.9546V24.2934H66.7786V26.2294C67.0133 25.568 67.408 25.056 67.9626 24.6934C68.5173 24.3307 69.1573 24.1494 69.8826 24.1494ZM83.9197 28.2774C83.9197 28.576 83.8984 28.8374 83.8557 29.0614H77.0717C77.1037 29.968 77.3544 30.64 77.8237 31.0774C78.2931 31.5147 78.8744 31.7334 79.5677 31.7334C80.1757 31.7334 80.6877 31.5787 81.1037 31.2694C81.5304 30.96 81.7917 30.5494 81.8877 30.0374H83.8397C83.7224 30.656 83.4771 31.2054 83.1037 31.6854C82.7304 32.1654 82.2451 32.544 81.6477 32.8214C81.0504 33.088 80.3837 33.2214 79.6477 33.2214C78.7944 33.2214 78.0371 33.04 77.3757 32.6774C76.7251 32.3147 76.2131 31.792 75.8397 31.1094C75.4664 30.4267 75.2797 29.6214 75.2797 28.6934C75.2797 27.776 75.4664 26.976 75.8397 26.2934C76.2131 25.6107 76.7251 25.088 77.3757 24.7254C78.0371 24.3627 78.7944 24.1814 79.6477 24.1814C80.5117 24.1814 81.2637 24.3627 81.9037 24.7254C82.5544 25.0774 83.0504 25.568 83.3917 26.1974C83.7437 26.816 83.9197 27.5094 83.9197 28.2774ZM82.0797 28.2294C82.1011 27.6534 81.9997 27.1734 81.7757 26.7894C81.5624 26.3947 81.2637 26.1067 80.8797 25.9254C80.5064 25.7334 80.0957 25.6374 79.6477 25.6374C78.9331 25.6374 78.3357 25.856 77.8557 26.2934C77.3757 26.7307 77.1144 27.376 77.0717 28.2294H82.0797ZM89.9209 24.1814C91.0622 24.1814 92.0062 24.4854 92.7529 25.0934C93.4995 25.6907 93.9635 26.5067 94.1449 27.5414H92.2089C92.1022 26.9867 91.8409 26.5547 91.4249 26.2454C91.0195 25.9254 90.5075 25.7654 89.8889 25.7654C89.1849 25.7654 88.5982 26.016 88.1289 26.5174C87.6595 27.008 87.4249 27.7334 87.4249 28.6934C87.4249 29.6534 87.6595 30.384 88.1289 30.8854C88.5982 31.3867 89.1849 31.6374 89.8889 31.6374C90.5075 31.6374 91.0195 31.4774 91.4249 31.1574C91.8409 30.8374 92.1022 30.4 92.2089 29.8454H94.1449C93.9635 30.88 93.4995 31.7014 92.7529 32.3094C92.0062 32.9174 91.0622 33.2214 89.9209 33.2214C89.0675 33.2214 88.3102 33.04 87.6489 32.6774C86.9982 32.3147 86.4862 31.792 86.1129 31.1094C85.7395 30.4267 85.5529 29.6214 85.5529 28.6934C85.5529 27.776 85.7395 26.976 86.1129 26.2934C86.4862 25.6107 86.9982 25.088 87.6489 24.7254C88.3102 24.3627 89.0675 24.1814 89.9209 24.1814ZM100.659 31.5254V33.1094H99.5391C98.6005 33.1094 97.8858 32.8854 97.3951 32.4374C96.9151 31.9787 96.6751 31.2214 96.6751 30.1654V25.8454H95.4111V24.2934H96.6751V22.1014H98.5151V24.2934H100.643V25.8454H98.5151V30.1974C98.5151 30.6987 98.6058 31.0454 98.7871 31.2374C98.9791 31.4294 99.3098 31.5254 99.7791 31.5254H100.659ZM110.88 28.2774C110.88 28.576 110.858 28.8374 110.816 29.0614H104.032C104.064 29.968 104.314 30.64 104.784 31.0774C105.253 31.5147 105.834 31.7334 106.528 31.7334C107.136 31.7334 107.648 31.5787 108.064 31.2694C108.49 30.96 108.752 30.5494 108.848 30.0374H110.8C110.682 30.656 110.437 31.2054 110.064 31.6854C109.69 32.1654 109.205 32.544 108.608 32.8214C108.01 33.088 107.344 33.2214 106.608 33.2214C105.754 33.2214 104.997 33.04 104.336 32.6774C103.685 32.3147 103.173 31.792 102.8 31.1094C102.426 30.4267 102.24 29.6214 102.24 28.6934C102.24 27.776 102.426 26.976 102.8 26.2934C103.173 25.6107 103.685 25.088 104.336 24.7254C104.997 24.3627 105.754 24.1814 106.608 24.1814C107.472 24.1814 108.224 24.3627 108.864 24.7254C109.514 25.0774 110.01 25.568 110.352 26.1974C110.704 26.816 110.88 27.5094 110.88 28.2774ZM109.04 28.2294C109.061 27.6534 108.96 27.1734 108.736 26.7894C108.522 26.3947 108.224 26.1067 107.84 25.9254C107.466 25.7334 107.056 25.6374 106.608 25.6374C105.893 25.6374 105.296 25.856 104.816 26.2934C104.336 26.7307 104.074 27.376 104.032 28.2294H109.04ZM116.497 24.1814C117.297 24.1814 117.98 24.3787 118.545 24.7734C119.11 25.168 119.505 25.6907 119.729 26.3414V21.2694H121.569V33.1094H119.729V31.0614C119.505 31.712 119.11 32.2347 118.545 32.6294C117.98 33.024 117.297 33.2214 116.497 33.2214C115.729 33.2214 115.041 33.04 114.433 32.6774C113.836 32.3147 113.366 31.792 113.025 31.1094C112.684 30.4267 112.513 29.6214 112.513 28.6934C112.513 27.776 112.684 26.976 113.025 26.2934C113.366 25.6107 113.836 25.088 114.433 24.7254C115.041 24.3627 115.729 24.1814 116.497 24.1814ZM117.057 25.7814C116.246 25.7814 115.596 26.0427 115.105 26.5654C114.625 27.0774 114.385 27.7867 114.385 28.6934C114.385 29.6 114.625 30.3147 115.105 30.8374C115.596 31.3494 116.246 31.6054 117.057 31.6054C117.569 31.6054 118.028 31.488 118.433 31.2534C118.838 31.008 119.158 30.6667 119.393 30.2294C119.628 29.792 119.745 29.28 119.745 28.6934C119.745 28.1174 119.628 27.6107 119.393 27.1734C119.158 26.7254 118.838 26.384 118.433 26.1494C118.028 25.904 117.569 25.7814 117.057 25.7814ZM134.884 30.6614H130.116L129.252 33.1094H127.3L131.46 21.9894H133.556L137.7 33.1094H135.748L134.884 30.6614ZM134.372 29.2534L132.5 23.9734L130.628 29.2534H134.372ZM144.43 24.1814C145.198 24.1814 145.881 24.3627 146.478 24.7254C147.086 25.088 147.561 25.6107 147.902 26.2934C148.243 26.976 148.414 27.776 148.414 28.6934C148.414 29.6214 148.243 30.4267 147.902 31.1094C147.561 31.792 147.086 32.3147 146.478 32.6774C145.881 33.04 145.198 33.2214 144.43 33.2214C143.63 33.2214 142.947 33.024 142.382 32.6294C141.817 32.2347 141.422 31.712 141.198 31.0614V37.3014H139.374V24.2934H141.198V26.3414C141.422 25.6907 141.817 25.168 142.382 24.7734C142.947 24.3787 143.63 24.1814 144.43 24.1814ZM143.87 25.7814C143.358 25.7814 142.899 25.904 142.494 26.1494C142.089 26.384 141.769 26.7254 141.534 27.1734C141.299 27.6107 141.182 28.1174 141.182 28.6934C141.182 29.28 141.299 29.792 141.534 30.2294C141.769 30.6667 142.089 31.008 142.494 31.2534C142.899 31.488 143.358 31.6054 143.87 31.6054C144.681 31.6054 145.331 31.3494 145.822 30.8374C146.313 30.3147 146.558 29.6 146.558 28.6934C146.558 27.7974 146.313 27.088 145.822 26.5654C145.331 26.0427 144.681 25.7814 143.87 25.7814ZM155.547 24.1814C156.315 24.1814 156.998 24.3627 157.595 24.7254C158.203 25.088 158.678 25.6107 159.019 26.2934C159.36 26.976 159.531 27.776 159.531 28.6934C159.531 29.6214 159.36 30.4267 159.019 31.1094C158.678 31.792 158.203 32.3147 157.595 32.6774C156.998 33.04 156.315 33.2214 155.547 33.2214C154.747 33.2214 154.064 33.024 153.499 32.6294C152.934 32.2347 152.539 31.712 152.315 31.0614V37.3014H150.491V24.2934H152.315V26.3414C152.539 25.6907 152.934 25.168 153.499 24.7734C154.064 24.3787 154.747 24.1814 155.547 24.1814ZM154.987 25.7814C154.475 25.7814 154.016 25.904 153.611 26.1494C153.206 26.384 152.886 26.7254 152.651 27.1734C152.416 27.6107 152.299 28.1174 152.299 28.6934C152.299 29.28 152.416 29.792 152.651 30.2294C152.886 30.6667 153.206 31.008 153.611 31.2534C154.016 31.488 154.475 31.6054 154.987 31.6054C155.798 31.6054 156.448 31.3494 156.939 30.8374C157.43 30.3147 157.675 29.6 157.675 28.6934C157.675 27.7974 157.43 27.088 156.939 26.5654C156.448 26.0427 155.798 25.7814 154.987 25.7814ZM163.432 21.2694V33.1094H161.608V21.2694H163.432ZM165.703 21.7334C165.703 21.424 165.81 21.168 166.023 20.9654C166.236 20.7627 166.519 20.6614 166.871 20.6614C167.223 20.6614 167.506 20.7627 167.719 20.9654C167.943 21.168 168.055 21.424 168.055 21.7334C168.055 22.0427 167.943 22.2934 167.719 22.4854C167.506 22.6774 167.223 22.7734 166.871 22.7734C166.519 22.7734 166.236 22.6774 166.023 22.4854C165.81 22.2934 165.703 22.0427 165.703 21.7334ZM167.783 24.2934V33.1094H165.959V24.2934H167.783ZM173.846 24.1814C174.646 24.1814 175.329 24.3787 175.894 24.7734C176.46 25.168 176.86 25.6907 177.094 26.3414V24.2934H178.918V33.1094H177.094V31.0614C176.86 31.712 176.46 32.2347 175.894 32.6294C175.329 33.024 174.646 33.2214 173.846 33.2214C173.078 33.2214 172.39 33.04 171.782 32.6774C171.185 32.3147 170.716 31.792 170.374 31.1094C170.033 30.4267 169.862 29.6214 169.862 28.6934C169.862 27.776 170.033 26.976 170.374 26.2934C170.716 25.6107 171.185 25.088 171.782 24.7254C172.39 24.3627 173.078 24.1814 173.846 24.1814ZM174.406 25.7814C173.596 25.7814 172.945 26.0427 172.454 26.5654C171.974 27.0774 171.734 27.7867 171.734 28.6934C171.734 29.6 171.974 30.3147 172.454 30.8374C172.945 31.3494 173.596 31.6054 174.406 31.6054C174.918 31.6054 175.377 31.488 175.782 31.2534C176.188 31.008 176.508 30.6667 176.742 30.2294C176.977 29.792 177.094 29.28 177.094 28.6934C177.094 28.1174 176.977 27.6107 176.742 27.1734C176.508 26.7254 176.188 26.384 175.782 26.1494C175.377 25.904 174.918 25.7814 174.406 25.7814ZM186.355 24.1494C187.379 24.1494 188.2 24.48 188.819 25.1414C189.438 25.8027 189.747 26.7467 189.747 27.9734V33.1094H187.923V28.1654C187.923 27.376 187.72 26.768 187.315 26.3414C186.91 25.904 186.355 25.6854 185.651 25.6854C184.926 25.6854 184.344 25.92 183.907 26.3894C183.47 26.848 183.251 27.5254 183.251 28.4214V33.1094H181.427V24.2934H183.251V26.2294C183.486 25.568 183.88 25.056 184.435 24.6934C184.99 24.3307 185.63 24.1494 186.355 24.1494ZM196.12 24.1814C197.262 24.1814 198.206 24.4854 198.952 25.0934C199.699 25.6907 200.163 26.5067 200.344 27.5414H198.408C198.302 26.9867 198.04 26.5547 197.624 26.2454C197.219 25.9254 196.707 25.7654 196.088 25.7654C195.384 25.7654 194.798 26.016 194.328 26.5174C193.859 27.008 193.624 27.7334 193.624 28.6934C193.624 29.6534 193.859 30.384 194.328 30.8854C194.798 31.3867 195.384 31.6374 196.088 31.6374C196.707 31.6374 197.219 31.4774 197.624 31.1574C198.04 30.8374 198.302 30.4 198.408 29.8454H200.344C200.163 30.88 199.699 31.7014 198.952 32.3094C198.206 32.9174 197.262 33.2214 196.12 33.2214C195.267 33.2214 194.51 33.04 193.848 32.6774C193.198 32.3147 192.686 31.792 192.312 31.1094C191.939 30.4267 191.752 29.6214 191.752 28.6934C191.752 27.776 191.939 26.976 192.312 26.2934C192.686 25.6107 193.198 25.088 193.848 24.7254C194.51 24.3627 195.267 24.1814 196.12 24.1814ZM210.618 28.2774C210.618 28.576 210.597 28.8374 210.554 29.0614H203.77C203.802 29.968 204.053 30.64 204.522 31.0774C204.992 31.5147 205.573 31.7334 206.266 31.7334C206.874 31.7334 207.386 31.5787 207.802 31.2694C208.229 30.96 208.49 30.5494 208.586 30.0374H210.538C210.421 30.656 210.176 31.2054 209.802 31.6854C209.429 32.1654 208.944 32.544 208.346 32.8214C207.749 33.088 207.082 33.2214 206.346 33.2214C205.493 33.2214 204.736 33.04 204.074 32.6774C203.424 32.3147 202.912 31.792 202.538 31.1094C202.165 30.4267 201.978 29.6214 201.978 28.6934C201.978 27.776 202.165 26.976 202.538 26.2934C202.912 25.6107 203.424 25.088 204.074 24.7254C204.736 24.3627 205.493 24.1814 206.346 24.1814C207.21 24.1814 207.962 24.3627 208.602 24.7254C209.253 25.0774 209.749 25.568 210.09 26.1974C210.442 26.816 210.618 27.5094 210.618 28.2774ZM208.778 28.2294C208.8 27.6534 208.698 27.1734 208.474 26.7894C208.261 26.3947 207.962 26.1067 207.578 25.9254C207.205 25.7334 206.794 25.6374 206.346 25.6374C205.632 25.6374 205.034 25.856 204.554 26.2934C204.074 26.7307 203.813 27.376 203.77 28.2294H208.778ZM218.594 21.8134V33.1094H216.77V21.8134H218.594ZM226.049 24.1494C227.073 24.1494 227.894 24.48 228.513 25.1414C229.132 25.8027 229.441 26.7467 229.441 27.9734V33.1094H227.617V28.1654C227.617 27.376 227.414 26.768 227.009 26.3414C226.604 25.904 226.049 25.6854 225.345 25.6854C224.62 25.6854 224.038 25.92 223.601 26.3894C223.164 26.848 222.945 27.5254 222.945 28.4214V33.1094H221.121V24.2934H222.945V26.2294C223.18 25.568 223.574 25.056 224.129 24.6934C224.684 24.3307 225.324 24.1494 226.049 24.1494ZM236.006 22.4694C235.291 22.4374 234.79 22.5547 234.502 22.8214C234.214 23.0774 234.07 23.52 234.07 24.1494V24.2934H236.006V25.8614H234.07V33.1094H232.23V25.8614H231.03V24.2934H232.23V24.0054C232.23 22.928 232.545 22.1227 233.174 21.5894C233.803 21.0454 234.747 20.8054 236.006 20.8694V22.4694ZM241.824 24.1814C242.677 24.1814 243.445 24.3627 244.128 24.7254C244.811 25.088 245.344 25.6107 245.728 26.2934C246.112 26.976 246.304 27.776 246.304 28.6934C246.304 29.6214 246.112 30.4267 245.728 31.1094C245.344 31.792 244.811 32.3147 244.128 32.6774C243.445 33.04 242.677 33.2214 241.824 33.2214C240.971 33.2214 240.203 33.04 239.52 32.6774C238.848 32.3147 238.315 31.792 237.92 31.1094C237.536 30.416 237.344 29.6107 237.344 28.6934C237.344 27.776 237.536 26.976 237.92 26.2934C238.315 25.6107 238.848 25.088 239.52 24.7254C240.203 24.3627 240.971 24.1814 241.824 24.1814ZM241.824 25.7654C241.355 25.7654 240.923 25.872 240.528 26.0854C240.133 26.2987 239.813 26.6294 239.568 27.0774C239.333 27.5147 239.216 28.0534 239.216 28.6934C239.216 29.344 239.333 29.888 239.568 30.3254C239.813 30.7627 240.133 31.088 240.528 31.3014C240.923 31.5147 241.355 31.6214 241.824 31.6214C242.293 31.6214 242.725 31.5147 243.12 31.3014C243.515 31.088 243.829 30.7627 244.064 30.3254C244.309 29.888 244.432 29.344 244.432 28.6934C244.432 28.0534 244.309 27.5147 244.064 27.0774C243.829 26.6294 243.515 26.2987 243.12 26.0854C242.725 25.872 242.293 25.7654 241.824 25.7654ZM250.202 26.0214C250.5 25.4454 250.927 24.992 251.482 24.6614C252.036 24.32 252.676 24.1494 253.402 24.1494V26.1334H252.858C252.058 26.1334 251.412 26.3307 250.922 26.7254C250.442 27.1094 250.202 27.7494 250.202 28.6454V33.1094H248.378V24.2934H250.202V26.0214ZM266.112 24.1494C267.158 24.1494 267.99 24.48 268.608 25.1414C269.238 25.8027 269.552 26.7467 269.552 27.9734V33.1094H267.728V28.1654C267.728 27.3974 267.536 26.8054 267.152 26.3894C266.768 25.9627 266.24 25.7494 265.568 25.7494C264.854 25.7494 264.283 25.9787 263.856 26.4374C263.44 26.8854 263.232 27.5467 263.232 28.4214V33.1094H261.408V28.1654C261.408 27.3974 261.216 26.8054 260.832 26.3894C260.448 25.9627 259.92 25.7494 259.248 25.7494C258.534 25.7494 257.963 25.9787 257.536 26.4374C257.12 26.8854 256.912 27.5467 256.912 28.4214V33.1094H255.088V24.2934H256.912V26.1334C257.136 25.4934 257.51 25.0027 258.032 24.6614C258.555 24.32 259.168 24.1494 259.872 24.1494C260.608 24.1494 261.243 24.3307 261.776 24.6934C262.32 25.056 262.715 25.5787 262.96 26.2614C263.216 25.6 263.627 25.0827 264.192 24.7094C264.758 24.336 265.398 24.1494 266.112 24.1494ZM275.538 24.1814C276.338 24.1814 277.021 24.3787 277.586 24.7734C278.151 25.168 278.551 25.6907 278.786 26.3414V24.2934H280.61V33.1094H278.786V31.0614C278.551 31.712 278.151 32.2347 277.586 32.6294C277.021 33.024 276.338 33.2214 275.538 33.2214C274.77 33.2214 274.082 33.04 273.474 32.6774C272.877 32.3147 272.407 31.792 272.066 31.1094C271.725 30.4267 271.554 29.6214 271.554 28.6934C271.554 27.776 271.725 26.976 272.066 26.2934C272.407 25.6107 272.877 25.088 273.474 24.7254C274.082 24.3627 274.77 24.1814 275.538 24.1814ZM276.098 25.7814C275.287 25.7814 274.637 26.0427 274.146 26.5654C273.666 27.0774 273.426 27.7867 273.426 28.6934C273.426 29.6 273.666 30.3147 274.146 30.8374C274.637 31.3494 275.287 31.6054 276.098 31.6054C276.61 31.6054 277.069 31.488 277.474 31.2534C277.879 31.008 278.199 30.6667 278.434 30.2294C278.669 29.792 278.786 29.28 278.786 28.6934C278.786 28.1174 278.669 27.6107 278.434 27.1734C278.199 26.7254 277.879 26.384 277.474 26.1494C277.069 25.904 276.61 25.7814 276.098 25.7814ZM287.551 31.5254V33.1094H286.431C285.492 33.1094 284.778 32.8854 284.287 32.4374C283.807 31.9787 283.567 31.2214 283.567 30.1654V25.8454H282.303V24.2934H283.567V22.1014H285.407V24.2934H287.535V25.8454H285.407V30.1974C285.407 30.6987 285.498 31.0454 285.679 31.2374C285.871 31.4294 286.202 31.5254 286.671 31.5254H287.551ZM289.324 21.7334C289.324 21.424 289.43 21.168 289.644 20.9654C289.857 20.7627 290.14 20.6614 290.492 20.6614C290.844 20.6614 291.126 20.7627 291.34 20.9654C291.564 21.168 291.676 21.424 291.676 21.7334C291.676 22.0427 291.564 22.2934 291.34 22.4854C291.126 22.6774 290.844 22.7734 290.492 22.7734C290.14 22.7734 289.857 22.6774 289.644 22.4854C289.43 22.2934 289.324 22.0427 289.324 21.7334ZM291.404 24.2934V33.1094H289.58V24.2934H291.404ZM297.963 24.1814C298.816 24.1814 299.584 24.3627 300.267 24.7254C300.95 25.088 301.483 25.6107 301.867 26.2934C302.251 26.976 302.443 27.776 302.443 28.6934C302.443 29.6214 302.251 30.4267 301.867 31.1094C301.483 31.792 300.95 32.3147 300.267 32.6774C299.584 33.04 298.816 33.2214 297.963 33.2214C297.11 33.2214 296.342 33.04 295.659 32.6774C294.987 32.3147 294.454 31.792 294.059 31.1094C293.675 30.416 293.483 29.6107 293.483 28.6934C293.483 27.776 293.675 26.976 294.059 26.2934C294.454 25.6107 294.987 25.088 295.659 24.7254C296.342 24.3627 297.11 24.1814 297.963 24.1814ZM297.963 25.7654C297.494 25.7654 297.062 25.872 296.667 26.0854C296.272 26.2987 295.952 26.6294 295.707 27.0774C295.472 27.5147 295.355 28.0534 295.355 28.6934C295.355 29.344 295.472 29.888 295.707 30.3254C295.952 30.7627 296.272 31.088 296.667 31.3014C297.062 31.5147 297.494 31.6214 297.963 31.6214C298.432 31.6214 298.864 31.5147 299.259 31.3014C299.654 31.088 299.968 30.7627 300.203 30.3254C300.448 29.888 300.571 29.344 300.571 28.6934C300.571 28.0534 300.448 27.5147 300.203 27.0774C299.968 26.6294 299.654 26.2987 299.259 26.0854C298.864 25.872 298.432 25.7654 297.963 25.7654ZM309.445 24.1494C310.469 24.1494 311.29 24.48 311.909 25.1414C312.527 25.8027 312.837 26.7467 312.837 27.9734V33.1094H311.013V28.1654C311.013 27.376 310.81 26.768 310.405 26.3414C309.999 25.904 309.445 25.6854 308.741 25.6854C308.015 25.6854 307.434 25.92 306.997 26.3894C306.559 26.848 306.341 27.5254 306.341 28.4214V33.1094H304.517V24.2934H306.341V26.2294C306.575 25.568 306.97 25.056 307.525 24.6934C308.079 24.3307 308.719 24.1494 309.445 24.1494Z"
        fill="white" />
    <path
        d="M163.196 99.8214V103.109H161.828V94.6374H164.708C165.684 94.6374 166.416 94.8694 166.904 95.3334C167.4 95.7974 167.648 96.4334 167.648 97.2414C167.648 98.0414 167.396 98.6734 166.892 99.1374C166.388 99.5934 165.66 99.8214 164.708 99.8214H163.196ZM164.564 98.7054C165.692 98.7054 166.256 98.2174 166.256 97.2414C166.256 96.7614 166.12 96.3974 165.848 96.1494C165.584 95.8934 165.156 95.7654 164.564 95.7654H163.196V98.7054H164.564ZM171.74 96.4134C172.34 96.4134 172.852 96.5614 173.276 96.8574C173.7 97.1534 174 97.5454 174.176 98.0334V96.4974H175.544V103.109H174.176V101.573C174 102.061 173.7 102.453 173.276 102.749C172.852 103.045 172.34 103.193 171.74 103.193C171.164 103.193 170.648 103.057 170.192 102.785C169.744 102.513 169.392 102.121 169.136 101.609C168.88 101.097 168.752 100.493 168.752 99.7974C168.752 99.1094 168.88 98.5094 169.136 97.9974C169.392 97.4854 169.744 97.0934 170.192 96.8214C170.648 96.5494 171.164 96.4134 171.74 96.4134ZM172.16 97.6134C171.552 97.6134 171.064 97.8094 170.696 98.2014C170.336 98.5854 170.156 99.1174 170.156 99.7974C170.156 100.477 170.336 101.013 170.696 101.405C171.064 101.789 171.552 101.981 172.16 101.981C172.544 101.981 172.888 101.893 173.192 101.717C173.496 101.533 173.736 101.277 173.912 100.949C174.088 100.621 174.176 100.237 174.176 99.7974C174.176 99.3654 174.088 98.9854 173.912 98.6574C173.736 98.3214 173.496 98.0654 173.192 97.8894C172.888 97.7054 172.544 97.6134 172.16 97.6134ZM179.597 96.4134C180.373 96.4134 180.993 96.6134 181.457 97.0134C181.929 97.4054 182.217 97.9334 182.321 98.5974H181.025C180.969 98.2374 180.813 97.9494 180.557 97.7334C180.309 97.5094 179.977 97.3974 179.561 97.3974C179.217 97.3974 178.949 97.4814 178.757 97.6494C178.573 97.8094 178.481 98.0294 178.481 98.3094C178.481 98.5174 178.549 98.6854 178.685 98.8134C178.821 98.9414 178.989 99.0414 179.189 99.1134C179.397 99.1854 179.689 99.2654 180.065 99.3534C180.561 99.4654 180.961 99.5814 181.265 99.7014C181.577 99.8214 181.841 100.013 182.057 100.277C182.281 100.533 182.393 100.885 182.393 101.333C182.393 101.885 182.181 102.333 181.757 102.677C181.341 103.021 180.777 103.193 180.065 103.193C179.241 103.193 178.573 103.001 178.061 102.617C177.557 102.233 177.253 101.697 177.149 101.009H178.481C178.521 101.369 178.681 101.661 178.961 101.885C179.241 102.109 179.609 102.221 180.065 102.221C180.393 102.221 180.649 102.137 180.833 101.969C181.025 101.793 181.121 101.573 181.121 101.309C181.121 101.077 181.049 100.893 180.905 100.757C180.761 100.621 180.581 100.517 180.365 100.445C180.149 100.365 179.853 100.285 179.477 100.205C178.997 100.093 178.605 99.9814 178.301 99.8694C178.005 99.7574 177.749 99.5774 177.533 99.3294C177.325 99.0734 177.221 98.7294 177.221 98.2974C177.221 97.7374 177.429 97.2854 177.845 96.9414C178.269 96.5894 178.853 96.4134 179.597 96.4134ZM186.177 96.4134C186.953 96.4134 187.573 96.6134 188.037 97.0134C188.509 97.4054 188.797 97.9334 188.901 98.5974H187.605C187.549 98.2374 187.393 97.9494 187.137 97.7334C186.889 97.5094 186.557 97.3974 186.141 97.3974C185.797 97.3974 185.529 97.4814 185.337 97.6494C185.153 97.8094 185.061 98.0294 185.061 98.3094C185.061 98.5174 185.129 98.6854 185.265 98.8134C185.401 98.9414 185.569 99.0414 185.769 99.1134C185.977 99.1854 186.269 99.2654 186.645 99.3534C187.141 99.4654 187.541 99.5814 187.845 99.7014C188.157 99.8214 188.421 100.013 188.637 100.277C188.861 100.533 188.973 100.885 188.973 101.333C188.973 101.885 188.761 102.333 188.337 102.677C187.921 103.021 187.357 103.193 186.645 103.193C185.821 103.193 185.153 103.001 184.641 102.617C184.137 102.233 183.833 101.697 183.729 101.009H185.061C185.101 101.369 185.261 101.661 185.541 101.885C185.821 102.109 186.189 102.221 186.645 102.221C186.973 102.221 187.229 102.137 187.413 101.969C187.605 101.793 187.701 101.573 187.701 101.309C187.701 101.077 187.629 100.893 187.485 100.757C187.341 100.621 187.161 100.517 186.945 100.445C186.729 100.365 186.433 100.285 186.057 100.205C185.577 100.093 185.185 99.9814 184.881 99.8694C184.585 99.7574 184.329 99.5774 184.113 99.3294C183.905 99.0734 183.801 98.7294 183.801 98.2974C183.801 97.7374 184.009 97.2854 184.425 96.9414C184.849 96.5894 185.433 96.4134 186.177 96.4134ZM199.849 96.4974L198.013 103.109H196.501L194.869 97.9974L193.213 103.109H191.713L189.877 96.4974H191.257L192.517 101.849L194.173 96.4974H195.613L197.293 101.849L198.553 96.4974H199.849ZM204.044 96.4134C204.684 96.4134 205.26 96.5494 205.772 96.8214C206.284 97.0934 206.684 97.4854 206.972 97.9974C207.26 98.5094 207.404 99.1094 207.404 99.7974C207.404 100.493 207.26 101.097 206.972 101.609C206.684 102.121 206.284 102.513 205.772 102.785C205.26 103.057 204.684 103.193 204.044 103.193C203.404 103.193 202.828 103.057 202.316 102.785C201.812 102.513 201.412 102.121 201.116 101.609C200.828 101.089 200.684 100.485 200.684 99.7974C200.684 99.1094 200.828 98.5094 201.116 97.9974C201.412 97.4854 201.812 97.0934 202.316 96.8214C202.828 96.5494 203.404 96.4134 204.044 96.4134ZM204.044 97.6014C203.692 97.6014 203.368 97.6814 203.072 97.8414C202.776 98.0014 202.536 98.2494 202.352 98.5854C202.176 98.9134 202.088 99.3174 202.088 99.7974C202.088 100.285 202.176 100.693 202.352 101.021C202.536 101.349 202.776 101.593 203.072 101.753C203.368 101.913 203.692 101.993 204.044 101.993C204.396 101.993 204.72 101.913 205.016 101.753C205.312 101.593 205.548 101.349 205.724 101.021C205.908 100.693 206 100.285 206 99.7974C206 99.3174 205.908 98.9134 205.724 98.5854C205.548 98.2494 205.312 98.0014 205.016 97.8414C204.72 97.6814 204.396 97.6014 204.044 97.6014ZM210.327 97.7934C210.551 97.3614 210.871 97.0214 211.287 96.7734C211.703 96.5174 212.183 96.3894 212.727 96.3894V97.8774H212.319C211.719 97.8774 211.235 98.0254 210.867 98.3214C210.507 98.6094 210.327 99.0894 210.327 99.7614V103.109H208.959V96.4974H210.327V97.7934ZM216.644 96.4134C217.244 96.4134 217.756 96.5614 218.18 96.8574C218.604 97.1534 218.9 97.5454 219.068 98.0334V94.2294H220.448V103.109H219.068V101.573C218.9 102.061 218.604 102.453 218.18 102.749C217.756 103.045 217.244 103.193 216.644 103.193C216.068 103.193 215.552 103.057 215.096 102.785C214.648 102.513 214.296 102.121 214.04 101.609C213.784 101.097 213.656 100.493 213.656 99.7974C213.656 99.1094 213.784 98.5094 214.04 97.9974C214.296 97.4854 214.648 97.0934 215.096 96.8214C215.552 96.5494 216.068 96.4134 216.644 96.4134ZM217.064 97.6134C216.456 97.6134 215.968 97.8094 215.6 98.2014C215.24 98.5854 215.06 99.1174 215.06 99.7974C215.06 100.477 215.24 101.013 215.6 101.405C215.968 101.789 216.456 101.981 217.064 101.981C217.448 101.981 217.792 101.893 218.096 101.717C218.4 101.533 218.64 101.277 218.816 100.949C218.992 100.621 219.08 100.237 219.08 99.7974C219.08 99.3654 218.992 98.9854 218.816 98.6574C218.64 98.3214 218.4 98.0654 218.096 97.8894C217.792 97.7054 217.448 97.6134 217.064 97.6134ZM223.602 96.5094V98.0214H222.054V96.5094H223.602ZM223.602 101.597V103.109H222.054V101.597H223.602ZM233.048 103.109L231.02 99.9774L229.208 103.109H227.636L230.264 98.7894L227.576 94.6374H229.208L231.2 97.7094L233 94.6374H234.572L231.956 98.8854L234.68 103.109H233.048ZM240.777 103.109L238.749 99.9774L236.937 103.109H235.365L237.993 98.7894L235.305 94.6374H236.937L238.929 97.7094L240.729 94.6374H242.301L239.685 98.8854L242.409 103.109H240.777ZM248.505 103.109L246.477 99.9774L244.665 103.109H243.093L245.721 98.7894L243.033 94.6374H244.665L246.657 97.7094L248.457 94.6374H250.029L247.413 98.8854L250.137 103.109H248.505ZM256.233 103.109L254.205 99.9774L252.393 103.109H250.821L253.449 98.7894L250.761 94.6374H252.393L254.385 97.7094L256.185 94.6374H257.757L255.141 98.8854L257.865 103.109H256.233ZM263.962 103.109L261.934 99.9774L260.122 103.109H258.55L261.178 98.7894L258.49 94.6374H260.122L262.114 97.7094L263.914 94.6374H265.486L262.87 98.8854L265.594 103.109H263.962ZM271.69 103.109L269.662 99.9774L267.85 103.109H266.278L268.906 98.7894L266.218 94.6374H267.85L269.842 97.7094L271.642 94.6374H273.214L270.598 98.8854L273.322 103.109H271.69ZM279.418 103.109L277.39 99.9774L275.578 103.109H274.006L276.634 98.7894L273.946 94.6374H275.578L277.57 97.7094L279.37 94.6374H280.942L278.326 98.8854L281.05 103.109H279.418ZM287.146 103.109L285.118 99.9774L283.306 103.109H281.734L284.362 98.7894L281.674 94.6374H283.306L285.298 97.7094L287.098 94.6374H288.67L286.054 98.8854L288.778 103.109H287.146Z"
        fill="white" />
    <path opacity="0.25"
        d="M18.196 94.6374V103.109H16.828V94.6374H18.196ZM23.8714 94.5534C24.9114 94.5534 25.7754 94.8174 26.4634 95.3454C27.1514 95.8734 27.6154 96.5894 27.8554 97.4934H26.4034C26.2034 96.9814 25.8834 96.5774 25.4434 96.2814C25.0114 95.9774 24.4794 95.8254 23.8474 95.8254C23.3434 95.8254 22.8914 95.9494 22.4914 96.1974C22.0994 96.4454 21.7874 96.8014 21.5554 97.2654C21.3314 97.7214 21.2194 98.2574 21.2194 98.8734C21.2194 99.4814 21.3314 100.017 21.5554 100.481C21.7874 100.937 22.0994 101.289 22.4914 101.537C22.8914 101.785 23.3434 101.909 23.8474 101.909C24.4794 101.909 25.0114 101.761 25.4434 101.465C25.8834 101.161 26.2034 100.757 26.4034 100.253H27.8554C27.6154 101.157 27.1514 101.873 26.4634 102.401C25.7754 102.921 24.9114 103.181 23.8714 103.181C23.0714 103.181 22.3634 103.001 21.7474 102.641C21.1314 102.273 20.6554 101.765 20.3194 101.117C19.9834 100.461 19.8154 99.7134 19.8154 98.8734C19.8154 98.0334 19.9834 97.2894 20.3194 96.6414C20.6554 95.9854 21.1314 95.4734 21.7474 95.1054C22.3634 94.7374 23.0714 94.5534 23.8714 94.5534ZM30.7323 96.5094V98.0214H29.1843V96.5094H30.7323ZM30.7323 101.597V103.109H29.1843V101.597H30.7323ZM34.6707 95.9214V94.6374H37.3827V103.109H35.9427V95.9214H34.6707ZM39.0584 98.8134C39.0584 100.165 39.2984 101.225 39.7784 101.993C40.2584 102.753 41.0584 103.133 42.1784 103.133C43.2984 103.133 44.0984 102.749 44.5784 101.981C45.0584 101.213 45.2984 100.157 45.2984 98.8134C45.2984 97.4774 45.0584 96.4294 44.5784 95.6694C44.0984 94.9014 43.2984 94.5174 42.1784 94.5174C41.0584 94.5174 40.2584 94.8974 39.7784 95.6574C39.2984 96.4174 39.0584 97.4694 39.0584 98.8134ZM43.9304 98.8134C43.9304 99.7894 43.8104 100.537 43.5704 101.057C43.3304 101.577 42.8664 101.837 42.1784 101.837C41.4824 101.837 41.0144 101.577 40.7744 101.057C40.5344 100.537 40.4144 99.7894 40.4144 98.8134C40.4144 97.8454 40.5344 97.1054 40.7744 96.5934C41.0144 96.0814 41.4824 95.8254 42.1784 95.8254C42.8664 95.8254 43.3304 96.0854 43.5704 96.6054C43.8104 97.1174 43.9304 97.8534 43.9304 98.8134ZM46.6309 102.041C47.9269 101.153 48.9629 100.285 49.7389 99.4374C50.5229 98.5814 50.9149 97.7894 50.9149 97.0614C50.9149 96.6294 50.8069 96.2854 50.5909 96.0294C50.3829 95.7734 50.0429 95.6454 49.5709 95.6454C49.0829 95.6454 48.7149 95.8054 48.4669 96.1254C48.2189 96.4374 48.0789 96.8854 48.0469 97.4694H46.7149C46.7709 96.5014 47.0669 95.7614 47.6029 95.2494C48.1469 94.7374 48.8389 94.4814 49.6789 94.4814C50.5029 94.4814 51.1469 94.7014 51.6109 95.1414C52.0829 95.5734 52.3189 96.1734 52.3189 96.9414C52.3189 97.5574 52.1269 98.1814 51.7429 98.8134C51.3669 99.4454 50.8869 100.029 50.3029 100.565C49.7189 101.093 49.1149 101.549 48.4909 101.933H52.5109V103.049H46.6309V102.041ZM53.6795 102.041C54.9755 101.153 56.0115 100.285 56.7875 99.4374C57.5715 98.5814 57.9635 97.7894 57.9635 97.0614C57.9635 96.6294 57.8555 96.2854 57.6395 96.0294C57.4315 95.7734 57.0915 95.6454 56.6195 95.6454C56.1315 95.6454 55.7635 95.8054 55.5155 96.1254C55.2675 96.4374 55.1275 96.8854 55.0955 97.4694H53.7635C53.8195 96.5014 54.1155 95.7614 54.6515 95.2494C55.1955 94.7374 55.8875 94.4814 56.7275 94.4814C57.5515 94.4814 58.1955 94.7014 58.6595 95.1414C59.1315 95.5734 59.3675 96.1734 59.3675 96.9414C59.3675 97.5574 59.1755 98.1814 58.7915 98.8134C58.4155 99.4454 57.9355 100.029 57.3515 100.565C56.7675 101.093 56.1635 101.549 55.5395 101.933H59.5595V103.049H53.6795V102.041ZM62.3721 100.661C62.4361 101.117 62.5921 101.469 62.8401 101.717C63.0961 101.965 63.4401 102.089 63.8721 102.089C64.4801 102.089 64.9321 101.849 65.2281 101.369C65.5321 100.881 65.6841 100.117 65.6841 99.0774L65.6721 98.6694C65.5441 99.1014 65.2761 99.4494 64.8681 99.7134C64.4681 99.9694 64.0001 100.097 63.4641 100.097C62.6321 100.097 61.9801 99.8494 61.5081 99.3534C61.0361 98.8494 60.8001 98.1494 60.8001 97.2534C60.8001 96.7094 60.9081 96.2214 61.1241 95.7894C61.3401 95.3574 61.6641 95.0174 62.0961 94.7694C62.5281 94.5134 63.0601 94.3854 63.6921 94.3854C64.9161 94.3854 65.7561 94.7614 66.2121 95.5134C66.6761 96.2574 66.9081 97.2894 66.9081 98.6094C66.9081 100.105 66.6721 101.245 66.2001 102.029C65.7361 102.813 64.9601 103.205 63.8721 103.205C63.0321 103.205 62.3721 102.969 61.8921 102.497C61.4201 102.017 61.1481 101.405 61.0761 100.661H62.3721ZM65.5401 97.3974C65.5401 96.8774 65.3881 96.4454 65.0841 96.1014C64.7881 95.7494 64.3401 95.5734 63.7401 95.5734C63.2441 95.5734 62.8441 95.7214 62.5401 96.0174C62.2441 96.3134 62.0961 96.7294 62.0961 97.2654C62.0961 97.8334 62.2441 98.2694 62.5401 98.5734C62.8441 98.8774 63.2561 99.0294 63.7761 99.0294C64.0801 99.0294 64.3641 98.9694 64.6281 98.8494C64.9001 98.7214 65.1201 98.5374 65.2881 98.2974C65.4561 98.0494 65.5401 97.7494 65.5401 97.3974ZM73.6455 101.273H70.0695L69.4215 103.109H67.9575L71.0775 94.7694H72.6495L75.7575 103.109H74.2935L73.6455 101.273ZM73.2615 100.217L71.8575 96.2574L70.4535 100.217H73.2615ZM81.0212 98.1894V99.3414H76.0772V98.1894H81.0212ZM94.0515 94.6374L91.9395 103.109H90.2595L88.4715 96.5574L86.6835 103.109H85.0035L82.8915 94.6374H84.3915L85.8555 101.525L87.7155 94.6374H89.2275L91.0875 101.525L92.5515 94.6374H94.0515ZM99.2966 94.5534C100.337 94.5534 101.201 94.8174 101.889 95.3454C102.577 95.8734 103.041 96.5894 103.281 97.4934H101.829C101.629 96.9814 101.309 96.5774 100.869 96.2814C100.437 95.9774 99.9046 95.8254 99.2726 95.8254C98.7686 95.8254 98.3166 95.9494 97.9166 96.1974C97.5246 96.4454 97.2126 96.8014 96.9806 97.2654C96.7566 97.7214 96.6446 98.2574 96.6446 98.8734C96.6446 99.4814 96.7566 100.017 96.9806 100.481C97.2126 100.937 97.5246 101.289 97.9166 101.537C98.3166 101.785 98.7686 101.909 99.2726 101.909C99.9046 101.909 100.437 101.761 100.869 101.465C101.309 101.161 101.629 100.757 101.829 100.253H103.281C103.041 101.157 102.577 101.873 101.889 102.401C101.201 102.921 100.337 103.181 99.2966 103.181C98.4966 103.181 97.7886 103.001 97.1726 102.641C96.5566 102.273 96.0806 101.765 95.7446 101.117C95.4086 100.461 95.2406 99.7134 95.2406 98.8734C95.2406 98.0334 95.4086 97.2894 95.7446 96.6414C96.0806 95.9854 96.5566 95.4734 97.1726 95.1054C97.7886 94.7374 98.4966 94.5534 99.2966 94.5534ZM109.938 101.273H106.362L105.714 103.109H104.25L107.37 94.7694H108.942L112.05 103.109H110.586L109.938 101.273ZM109.554 100.217L108.15 96.2574L106.746 100.217H109.554ZM118.753 94.6374V95.7414H116.389V103.109H115.009V95.7414H112.657V94.6374H118.753ZM125.066 101.273H121.49L120.842 103.109H119.378L122.498 94.7694H124.07L127.178 103.109H125.714L125.066 101.273ZM124.682 100.217L123.278 96.2574L121.874 100.217H124.682ZM128.23 98.8134C128.23 100.165 128.47 101.225 128.95 101.993C129.43 102.753 130.23 103.133 131.35 103.133C132.47 103.133 133.27 102.749 133.75 101.981C134.23 101.213 134.47 100.157 134.47 98.8134C134.47 97.4774 134.23 96.4294 133.75 95.6694C133.27 94.9014 132.47 94.5174 131.35 94.5174C130.23 94.5174 129.43 94.8974 128.95 95.6574C128.47 96.4174 128.23 97.4694 128.23 98.8134ZM133.102 98.8134C133.102 99.7894 132.982 100.537 132.742 101.057C132.502 101.577 132.038 101.837 131.35 101.837C130.654 101.837 130.186 101.577 129.946 101.057C129.706 100.537 129.586 99.7894 129.586 98.8134C129.586 97.8454 129.706 97.1054 129.946 96.5934C130.186 96.0814 130.654 95.8254 131.35 95.8254C132.038 95.8254 132.502 96.0854 132.742 96.6054C132.982 97.1174 133.102 97.8534 133.102 98.8134ZM135.946 98.8134C135.946 100.165 136.186 101.225 136.666 101.993C137.146 102.753 137.946 103.133 139.066 103.133C140.186 103.133 140.986 102.749 141.466 101.981C141.946 101.213 142.186 100.157 142.186 98.8134C142.186 97.4774 141.946 96.4294 141.466 95.6694C140.986 94.9014 140.186 94.5174 139.066 94.5174C137.946 94.5174 137.146 94.8974 136.666 95.6574C136.186 96.4174 135.946 97.4694 135.946 98.8134ZM140.818 98.8134C140.818 99.7894 140.698 100.537 140.458 101.057C140.218 101.577 139.754 101.837 139.066 101.837C138.37 101.837 137.902 101.577 137.662 101.057C137.422 100.537 137.302 99.7894 137.302 98.8134C137.302 97.8454 137.422 97.1054 137.662 96.5934C137.902 96.0814 138.37 95.8254 139.066 95.8254C139.754 95.8254 140.218 96.0854 140.458 96.6054C140.698 97.1174 140.818 97.8534 140.818 98.8134ZM143.195 95.9214V94.6374H145.907V103.109H144.467V95.9214H143.195Z"
        fill="white" />
    <path opacity="0.25"
        d="M168.68 71.1094H167.312L163.196 64.8574V71.1094H161.828V62.6494H163.196L167.312 68.9254V62.6494H168.68V71.1094ZM176.72 67.4854C176.72 67.7094 176.704 67.9054 176.672 68.0734H171.584C171.608 68.7534 171.796 69.2574 172.148 69.5854C172.5 69.9134 172.936 70.0774 173.456 70.0774C173.912 70.0774 174.296 69.9614 174.608 69.7294C174.928 69.4974 175.124 69.1894 175.196 68.8054H176.66C176.572 69.2694 176.388 69.6814 176.108 70.0414C175.828 70.4014 175.464 70.6854 175.016 70.8934C174.568 71.0934 174.068 71.1934 173.516 71.1934C172.876 71.1934 172.308 71.0574 171.812 70.7854C171.324 70.5134 170.94 70.1214 170.66 69.6094C170.38 69.0974 170.24 68.4934 170.24 67.7974C170.24 67.1094 170.38 66.5094 170.66 65.9974C170.94 65.4854 171.324 65.0934 171.812 64.8214C172.308 64.5494 172.876 64.4134 173.516 64.4134C174.164 64.4134 174.728 64.5494 175.208 64.8214C175.696 65.0854 176.068 65.4534 176.324 65.9254C176.588 66.3894 176.72 66.9094 176.72 67.4854ZM175.34 67.4494C175.356 67.0174 175.28 66.6574 175.112 66.3694C174.952 66.0734 174.728 65.8574 174.44 65.7214C174.16 65.5774 173.852 65.5054 173.516 65.5054C172.98 65.5054 172.532 65.6694 172.172 65.9974C171.812 66.3254 171.616 66.8094 171.584 67.4494H175.34ZM181.605 69.9214V71.1094H180.765C180.061 71.1094 179.525 70.9414 179.157 70.6054C178.797 70.2614 178.617 69.6934 178.617 68.9014V65.6614H177.669V64.4974H178.617V62.8534H179.997V64.4974H181.593V65.6614H179.997V68.9254C179.997 69.3014 180.065 69.5614 180.201 69.7054C180.345 69.8494 180.593 69.9214 180.945 69.9214H181.605ZM192.39 64.4974L190.554 71.1094H189.042L187.41 65.9974L185.754 71.1094H184.254L182.418 64.4974H183.798L185.058 69.8494L186.714 64.4974H188.154L189.834 69.8494L191.094 64.4974H192.39ZM196.585 64.4134C197.225 64.4134 197.801 64.5494 198.313 64.8214C198.825 65.0934 199.225 65.4854 199.513 65.9974C199.801 66.5094 199.945 67.1094 199.945 67.7974C199.945 68.4934 199.801 69.0974 199.513 69.6094C199.225 70.1214 198.825 70.5134 198.313 70.7854C197.801 71.0574 197.225 71.1934 196.585 71.1934C195.945 71.1934 195.369 71.0574 194.857 70.7854C194.353 70.5134 193.953 70.1214 193.657 69.6094C193.369 69.0894 193.225 68.4854 193.225 67.7974C193.225 67.1094 193.369 66.5094 193.657 65.9974C193.953 65.4854 194.353 65.0934 194.857 64.8214C195.369 64.5494 195.945 64.4134 196.585 64.4134ZM196.585 65.6014C196.233 65.6014 195.909 65.6814 195.613 65.8414C195.317 66.0014 195.077 66.2494 194.893 66.5854C194.717 66.9134 194.629 67.3174 194.629 67.7974C194.629 68.2854 194.717 68.6934 194.893 69.0214C195.077 69.3494 195.317 69.5934 195.613 69.7534C195.909 69.9134 196.233 69.9934 196.585 69.9934C196.937 69.9934 197.261 69.9134 197.557 69.7534C197.853 69.5934 198.089 69.3494 198.265 69.0214C198.449 68.6934 198.541 68.2854 198.541 67.7974C198.541 67.3174 198.449 66.9134 198.265 66.5854C198.089 66.2494 197.853 66.0014 197.557 65.8414C197.261 65.6814 196.937 65.6014 196.585 65.6014ZM202.869 65.7934C203.093 65.3614 203.413 65.0214 203.829 64.7734C204.245 64.5174 204.725 64.3894 205.269 64.3894V65.8774H204.861C204.261 65.8774 203.777 66.0254 203.409 66.3214C203.049 66.6094 202.869 67.0894 202.869 67.7614V71.1094H201.501V64.4974H202.869V65.7934ZM210.278 71.1094L207.902 68.1694V71.1094H206.534V62.2294H207.902V67.3174L210.254 64.4974H211.898L209.018 67.7854L211.97 71.1094H210.278ZM217.426 64.5094V66.0214H215.878V64.5094H217.426ZM217.426 69.5974V71.1094H215.878V69.5974H217.426ZM225.913 62.5654C226.921 62.5654 227.761 62.8134 228.433 63.3094C229.105 63.8054 229.549 64.4814 229.765 65.3374H228.325C228.141 64.8814 227.837 64.5174 227.413 64.2454C226.997 63.9734 226.501 63.8374 225.925 63.8374C225.397 63.8374 224.921 63.9614 224.497 64.2094C224.081 64.4574 223.753 64.8094 223.513 65.2654C223.281 65.7214 223.165 66.2574 223.165 66.8734C223.165 67.5214 223.285 68.0774 223.525 68.5414C223.765 69.0054 224.101 69.3614 224.533 69.6094C224.973 69.8494 225.481 69.9694 226.057 69.9694C226.761 69.9694 227.365 69.7534 227.869 69.3214C228.373 68.8814 228.677 68.2814 228.781 67.5214H225.673V66.5134H229.933V67.8214C229.837 68.4454 229.613 69.0134 229.261 69.5254C228.917 70.0294 228.457 70.4334 227.881 70.7374C227.313 71.0414 226.661 71.1934 225.925 71.1934C225.101 71.1934 224.373 71.0094 223.741 70.6414C223.109 70.2734 222.621 69.7654 222.277 69.1174C221.933 68.4614 221.761 67.7134 221.761 66.8734C221.761 66.0334 221.933 65.2894 222.277 64.6414C222.621 63.9854 223.105 63.4774 223.729 63.1174C224.361 62.7494 225.089 62.5654 225.913 62.5654ZM232.926 63.7414V66.3094H236.046V67.3654H232.926V69.9934H236.406V71.1094H231.558V62.6374H236.406V63.7414H232.926ZM244.37 71.5414V72.8734H237.674V71.5414H244.37ZM254.697 62.7694V71.1094H253.317V64.8574L250.905 71.1094H249.705L247.281 64.8574V71.1094H245.913V62.7694H247.569L250.329 69.4294L253.041 62.7694H254.697ZM260.507 62.5294C261.291 62.5294 261.999 62.7134 262.631 63.0814C263.271 63.4494 263.771 63.9654 264.131 64.6294C264.499 65.2854 264.683 66.0294 264.683 66.8614C264.683 67.6934 264.499 68.4414 264.131 69.1054C263.771 69.7614 263.271 70.2774 262.631 70.6534C261.999 71.0214 261.291 71.2054 260.507 71.2054C259.715 71.2054 258.999 71.0214 258.359 70.6534C257.727 70.2774 257.227 69.7614 256.859 69.1054C256.491 68.4414 256.307 67.6934 256.307 66.8614C256.307 66.0294 256.491 65.2854 256.859 64.6294C257.227 63.9654 257.727 63.4494 258.359 63.0814C258.999 62.7134 259.715 62.5294 260.507 62.5294ZM260.507 63.8014C259.963 63.8014 259.479 63.9254 259.055 64.1734C258.631 64.4214 258.299 64.7774 258.059 65.2414C257.827 65.7054 257.711 66.2454 257.711 66.8614C257.711 67.4774 257.827 68.0174 258.059 68.4814C258.299 68.9454 258.631 69.3014 259.055 69.5494C259.479 69.7974 259.963 69.9214 260.507 69.9214C261.043 69.9214 261.519 69.7974 261.935 69.5494C262.359 69.3014 262.687 68.9454 262.919 68.4814C263.159 68.0174 263.279 67.4774 263.279 66.8614C263.279 66.2454 263.159 65.7054 262.919 65.2414C262.687 64.7774 262.359 64.4214 261.935 64.1734C261.519 63.9254 261.043 63.8014 260.507 63.8014ZM273.575 66.8614C273.575 67.7174 273.399 68.4654 273.047 69.1054C272.703 69.7374 272.195 70.2294 271.523 70.5814C270.859 70.9334 270.063 71.1094 269.135 71.1094H266.303V62.6374H269.135C270.063 62.6374 270.859 62.8134 271.523 63.1654C272.195 63.5094 272.703 63.9974 273.047 64.6294C273.399 65.2614 273.575 66.0054 273.575 66.8614ZM269.027 69.8734C270.043 69.8734 270.823 69.6094 271.367 69.0814C271.911 68.5534 272.183 67.8134 272.183 66.8614C272.183 65.9094 271.911 65.1694 271.367 64.6414C270.823 64.1134 270.043 63.8494 269.027 63.8494H267.671V69.8734H269.027ZM276.499 62.6374V67.6654C276.499 68.4174 276.663 68.9774 276.991 69.3454C277.327 69.7134 277.795 69.8974 278.395 69.8974C278.987 69.8974 279.447 69.7134 279.775 69.3454C280.111 68.9774 280.279 68.4174 280.279 67.6654V62.6374H281.647V67.6654C281.647 68.8254 281.347 69.7054 280.747 70.3054C280.147 70.8974 279.355 71.1934 278.371 71.1934C277.395 71.1934 276.611 70.8974 276.019 70.3054C275.427 69.7054 275.131 68.8254 275.131 67.6654V62.6374H276.499ZM284.85 70.0414H287.778V71.1094H283.482V62.6374H284.85V70.0414ZM290.457 63.7414V66.3094H293.577V67.3654H290.457V69.9934H293.937V71.1094H289.089V62.6374H293.937V63.7414H290.457ZM301.901 71.5414V72.8734H295.205V71.5414H301.901ZM308.28 71.1094L306.252 67.9774L304.44 71.1094H302.868L305.496 66.7894L302.808 62.6374H304.44L306.432 65.7094L308.232 62.6374H309.804L307.188 66.8854L309.912 71.1094H308.28ZM316.009 71.1094L313.981 67.9774L312.169 71.1094H310.597L313.225 66.7894L310.537 62.6374H312.169L314.161 65.7094L315.961 62.6374H317.533L314.917 66.8854L317.641 71.1094H316.009ZM323.737 71.1094L321.709 67.9774L319.897 71.1094H318.325L320.953 66.7894L318.265 62.6374H319.897L321.889 65.7094L323.689 62.6374H325.261L322.645 66.8854L325.369 71.1094H323.737ZM331.465 71.1094L329.437 67.9774L327.625 71.1094H326.053L328.681 66.7894L325.993 62.6374H327.625L329.617 65.7094L331.417 62.6374H332.989L330.373 66.8854L333.097 71.1094H331.465Z"
        fill="white" />
    <path opacity="0.25"
        d="M22.832 62.6374V63.7414H19.196V66.3694H22.196V67.4254H19.196V71.1094H17.828V62.6374H22.832ZM28.0707 62.5534C29.1107 62.5534 29.9747 62.8174 30.6627 63.3454C31.3507 63.8734 31.8147 64.5894 32.0547 65.4934H30.6027C30.4027 64.9814 30.0827 64.5774 29.6427 64.2814C29.2107 63.9774 28.6787 63.8254 28.0467 63.8254C27.5427 63.8254 27.0907 63.9494 26.6907 64.1974C26.2987 64.4454 25.9867 64.8014 25.7547 65.2654C25.5307 65.7214 25.4187 66.2574 25.4187 66.8734C25.4187 67.4814 25.5307 68.0174 25.7547 68.4814C25.9867 68.9374 26.2987 69.2894 26.6907 69.5374C27.0907 69.7854 27.5427 69.9094 28.0467 69.9094C28.6787 69.9094 29.2107 69.7614 29.6427 69.4654C30.0827 69.1614 30.4027 68.7574 30.6027 68.2534H32.0547C31.8147 69.1574 31.3507 69.8734 30.6627 70.4014C29.9747 70.9214 29.1107 71.1814 28.0707 71.1814C27.2707 71.1814 26.5627 71.0014 25.9467 70.6414C25.3307 70.2734 24.8547 69.7654 24.5187 69.1174C24.1827 68.4614 24.0147 67.7134 24.0147 66.8734C24.0147 66.0334 24.1827 65.2894 24.5187 64.6414C24.8547 63.9854 25.3307 63.4734 25.9467 63.1054C26.5627 62.7374 27.2707 62.5534 28.0707 62.5534ZM37.4396 62.5534C38.4796 62.5534 39.3436 62.8174 40.0316 63.3454C40.7196 63.8734 41.1836 64.5894 41.4236 65.4934H39.9716C39.7716 64.9814 39.4516 64.5774 39.0116 64.2814C38.5796 63.9774 38.0476 63.8254 37.4156 63.8254C36.9116 63.8254 36.4596 63.9494 36.0596 64.1974C35.6676 64.4454 35.3556 64.8014 35.1236 65.2654C34.8996 65.7214 34.7876 66.2574 34.7876 66.8734C34.7876 67.4814 34.8996 68.0174 35.1236 68.4814C35.3556 68.9374 35.6676 69.2894 36.0596 69.5374C36.4596 69.7854 36.9116 69.9094 37.4156 69.9094C38.0476 69.9094 38.5796 69.7614 39.0116 69.4654C39.4516 69.1614 39.7716 68.7574 39.9716 68.2534H41.4236C41.1836 69.1574 40.7196 69.8734 40.0316 70.4014C39.3436 70.9214 38.4796 71.1814 37.4396 71.1814C36.6396 71.1814 35.9316 71.0014 35.3156 70.6414C34.6996 70.2734 34.2236 69.7654 33.8876 69.1174C33.5516 68.4614 33.3836 67.7134 33.3836 66.8734C33.3836 66.0334 33.5516 65.2894 33.8876 64.6414C34.2236 63.9854 34.6996 63.4734 35.3156 63.1054C35.9316 62.7374 36.6396 62.5534 37.4396 62.5534ZM44.3005 64.5094V66.0214H42.7525V64.5094H44.3005ZM44.3005 69.5974V71.1094H42.7525V69.5974H44.3005ZM50.1108 69.9934H54.2268V71.1094H48.5868V70.0414L52.6188 63.7534H48.6708V62.6374H54.1668V63.7054L50.1108 69.9934ZM58.4473 66.8254L62.1793 71.1094H60.5113L57.1633 67.1854V71.1094H55.7953V62.6374H57.1633V66.5134L60.5233 62.6374H62.1793L58.4473 66.8254ZM67.8816 62.6374V68.7814C67.8816 69.5414 67.6696 70.1334 67.2456 70.5574C66.8216 70.9814 66.2336 71.1934 65.4816 71.1934C64.6656 71.1934 64.0256 70.9574 63.5616 70.4854C63.0976 70.0134 62.8656 69.3454 62.8656 68.4814H64.2216C64.2216 68.9454 64.3176 69.3054 64.5096 69.5614C64.7096 69.8174 65.0136 69.9454 65.4216 69.9454C65.7976 69.9454 66.0736 69.8374 66.2496 69.6214C66.4256 69.4054 66.5136 69.1254 66.5136 68.7814V62.6374H67.8816ZM73.7247 66.1894V67.3414H68.7807V66.1894H73.7247ZM86.7551 62.6374L84.6431 71.1094H82.9631L81.1751 64.5574L79.3871 71.1094H77.7071L75.5951 62.6374H77.0951L78.5591 69.5254L80.4191 62.6374H81.9311L83.7911 69.5254L85.2551 62.6374H86.7551ZM92.0002 62.5534C93.0402 62.5534 93.9042 62.8174 94.5922 63.3454C95.2802 63.8734 95.7442 64.5894 95.9842 65.4934H94.5322C94.3322 64.9814 94.0122 64.5774 93.5722 64.2814C93.1402 63.9774 92.6082 63.8254 91.9762 63.8254C91.4722 63.8254 91.0202 63.9494 90.6202 64.1974C90.2282 64.4454 89.9162 64.8014 89.6842 65.2654C89.4602 65.7214 89.3482 66.2574 89.3482 66.8734C89.3482 67.4814 89.4602 68.0174 89.6842 68.4814C89.9162 68.9374 90.2282 69.2894 90.6202 69.5374C91.0202 69.7854 91.4722 69.9094 91.9762 69.9094C92.6082 69.9094 93.1402 69.7614 93.5722 69.4654C94.0122 69.1614 94.3322 68.7574 94.5322 68.2534H95.9842C95.7442 69.1574 95.2802 69.8734 94.5922 70.4014C93.9042 70.9214 93.0402 71.1814 92.0002 71.1814C91.2002 71.1814 90.4922 71.0014 89.8762 70.6414C89.2602 70.2734 88.7842 69.7654 88.4482 69.1174C88.1122 68.4614 87.9442 67.7134 87.9442 66.8734C87.9442 66.0334 88.1122 65.2894 88.4482 64.6414C88.7842 63.9854 89.2602 63.4734 89.8762 63.1054C90.4922 62.7374 91.2002 62.5534 92.0002 62.5534ZM102.641 69.2734H99.0651L98.4171 71.1094H96.9531L100.073 62.7694H101.645L104.753 71.1094H103.289L102.641 69.2734ZM102.257 68.2174L100.853 64.2574L99.4491 68.2174H102.257ZM111.457 62.6374V63.7414H109.093V71.1094H107.713V63.7414H105.361V62.6374H111.457ZM117.77 69.2734H114.194L113.546 71.1094H112.082L115.202 62.7694H116.774L119.882 71.1094H118.418L117.77 69.2734ZM117.386 68.2174L115.982 64.2574L114.578 68.2174H117.386ZM120.933 66.8134C120.933 68.1654 121.173 69.2254 121.653 69.9934C122.133 70.7534 122.933 71.1334 124.053 71.1334C125.173 71.1334 125.973 70.7494 126.453 69.9814C126.933 69.2134 127.173 68.1574 127.173 66.8134C127.173 65.4774 126.933 64.4294 126.453 63.6694C125.973 62.9014 125.173 62.5174 124.053 62.5174C122.933 62.5174 122.133 62.8974 121.653 63.6574C121.173 64.4174 120.933 65.4694 120.933 66.8134ZM125.805 66.8134C125.805 67.7894 125.685 68.5374 125.445 69.0574C125.205 69.5774 124.741 69.8374 124.053 69.8374C123.357 69.8374 122.889 69.5774 122.649 69.0574C122.409 68.5374 122.289 67.7894 122.289 66.8134C122.289 65.8454 122.409 65.1054 122.649 64.5934C122.889 64.0814 123.357 63.8254 124.053 63.8254C124.741 63.8254 125.205 64.0854 125.445 64.6054C125.685 65.1174 125.805 65.8534 125.805 66.8134ZM128.65 66.8134C128.65 68.1654 128.89 69.2254 129.37 69.9934C129.85 70.7534 130.65 71.1334 131.77 71.1334C132.89 71.1334 133.69 70.7494 134.17 69.9814C134.65 69.2134 134.89 68.1574 134.89 66.8134C134.89 65.4774 134.65 64.4294 134.17 63.6694C133.69 62.9014 132.89 62.5174 131.77 62.5174C130.65 62.5174 129.85 62.8974 129.37 63.6574C128.89 64.4174 128.65 65.4694 128.65 66.8134ZM133.522 66.8134C133.522 67.7894 133.402 68.5374 133.162 69.0574C132.922 69.5774 132.458 69.8374 131.77 69.8374C131.074 69.8374 130.606 69.5774 130.366 69.0574C130.126 68.5374 130.006 67.7894 130.006 66.8134C130.006 65.8454 130.126 65.1054 130.366 64.5934C130.606 64.0814 131.074 63.8254 131.77 63.8254C132.458 63.8254 132.922 64.0854 133.162 64.6054C133.402 65.1174 133.522 65.8534 133.522 66.8134ZM135.898 63.9214V62.6374H138.61V71.1094H137.17V63.9214H135.898Z"
        fill="white" />
    <path opacity="0.25"
        d="M26.612 126.769V135.109H25.232V128.857L22.82 135.109H21.62L19.196 128.857V135.109H17.828V126.769H19.484L22.244 133.429L24.956 126.769H26.612ZM32.7497 133.273H29.1737L28.5257 135.109H27.0617L30.1817 126.769H31.7537L34.8617 135.109H33.3977L32.7497 133.273ZM32.3657 132.217L30.9617 128.257L29.5577 132.217H32.3657ZM39.0974 126.553C40.1374 126.553 41.0014 126.817 41.6894 127.345C42.3774 127.873 42.8414 128.589 43.0814 129.493H41.6294C41.4294 128.981 41.1094 128.577 40.6694 128.281C40.2374 127.977 39.7054 127.825 39.0734 127.825C38.5694 127.825 38.1174 127.949 37.7174 128.197C37.3254 128.445 37.0134 128.801 36.7814 129.265C36.5574 129.721 36.4454 130.257 36.4454 130.873C36.4454 131.481 36.5574 132.017 36.7814 132.481C37.0134 132.937 37.3254 133.289 37.7174 133.537C38.1174 133.785 38.5694 133.909 39.0734 133.909C39.7054 133.909 40.2374 133.761 40.6694 133.465C41.1094 133.161 41.4294 132.757 41.6294 132.253H43.0814C42.8414 133.157 42.3774 133.873 41.6894 134.401C41.0014 134.921 40.1374 135.181 39.0974 135.181C38.2974 135.181 37.5894 135.001 36.9734 134.641C36.3574 134.273 35.8814 133.765 35.5454 133.117C35.2094 132.461 35.0414 131.713 35.0414 130.873C35.0414 130.033 35.2094 129.289 35.5454 128.641C35.8814 127.985 36.3574 127.473 36.9734 127.105C37.5894 126.737 38.2974 126.553 39.0974 126.553ZM47.5068 126.637V135.109H46.1388V126.637H47.5068ZM55.8742 130.861C55.8742 131.717 55.6982 132.465 55.3462 133.105C55.0022 133.737 54.4942 134.229 53.8222 134.581C53.1582 134.933 52.3622 135.109 51.4342 135.109H48.6022V126.637H51.4342C52.3622 126.637 53.1582 126.813 53.8222 127.165C54.4942 127.509 55.0022 127.997 55.3462 128.629C55.6982 129.261 55.8742 130.005 55.8742 130.861ZM51.3262 133.873C52.3422 133.873 53.1222 133.609 53.6662 133.081C54.2102 132.553 54.4822 131.813 54.4822 130.861C54.4822 129.909 54.2102 129.169 53.6662 128.641C53.1222 128.113 52.3422 127.849 51.3262 127.849H49.9702V133.873H51.3262ZM57.9627 128.509V130.021H56.4147V128.509H57.9627ZM57.9627 133.597V135.109H56.4147V133.597H57.9627ZM65.809 135.109L63.781 131.977L61.969 135.109H60.397L63.025 130.789L60.337 126.637H61.969L63.961 129.709L65.761 126.637H67.333L64.717 130.885L67.441 135.109H65.809ZM72.7373 135.109L70.7093 131.977L68.8973 135.109H67.3253L69.9533 130.789L67.2653 126.637H68.8973L70.8893 129.709L72.6893 126.637H74.2613L71.6453 130.885L74.3693 135.109H72.7373ZM78.8376 130.189V131.341H73.8936V130.189H78.8376ZM85.1759 135.109L83.1479 131.977L81.3359 135.109H79.7639L82.3919 130.789L79.7039 126.637H81.3359L83.3279 129.709L85.1279 126.637H86.6999L84.0839 130.885L86.8079 135.109H85.1759ZM92.1042 135.109L90.0762 131.977L88.2642 135.109H86.6922L89.3202 130.789L86.6322 126.637H88.2642L90.2562 129.709L92.0562 126.637H93.6282L91.0122 130.885L93.7362 135.109H92.1042ZM98.2044 130.189V131.341H93.2604V130.189H98.2044ZM104.543 135.109L102.515 131.977L100.703 135.109H99.1308L101.759 130.789L99.0708 126.637H100.703L102.695 129.709L104.495 126.637H106.067L103.451 130.885L106.175 135.109H104.543ZM111.471 135.109L109.443 131.977L107.631 135.109H106.059L108.687 130.789L105.999 126.637H107.631L109.623 129.709L111.423 126.637H112.995L110.379 130.885L113.103 135.109H111.471ZM117.571 130.189V131.341H112.627V130.189H117.571ZM123.91 135.109L121.882 131.977L120.07 135.109H118.498L121.126 130.789L118.438 126.637H120.07L122.062 129.709L123.862 126.637H125.434L122.818 130.885L125.542 135.109H123.91ZM130.838 135.109L128.81 131.977L126.998 135.109H125.426L128.054 130.789L125.366 126.637H126.998L128.99 129.709L130.79 126.637H132.362L129.746 130.885L132.47 135.109H130.838Z"
        fill="white" />
</svg>
