<svg width="375" height="262" viewBox="0 0 375 262" fill="none" xmlns="http://www.w3.org/2000/svg">
<path d="M307 34H67C65.3431 34 64 35.3431 64 37V199C64 200.657 65.3431 202 67 202H307C308.657 202 310 200.657 310 199V37C310 35.3431 308.657 34 307 34Z" stroke="white" stroke-width="2"/>
<path d="M298 74H76C74.8954 74 74 74.8954 74 76V180C74 181.105 74.8954 182 76 182H298C299.105 182 300 181.105 300 180V76C300 74.8954 299.105 74 298 74Z" stroke="white" stroke-width="2"/>
<path d="M279 74H95C93.8954 74 93 74.8954 93 76V180C93 181.105 93.8954 182 95 182H279C280.105 182 281 181.105 281 180V76C281 74.8954 280.105 74 279 74Z" stroke="white" stroke-width="2"/>
<path d="M97 65.5C103.351 65.5 108.5 60.3513 108.5 54C108.5 47.6487 103.351 42.5 97 42.5C90.6487 42.5 85.5 47.6487 85.5 54C85.5 60.3513 90.6487 65.5 97 65.5Z" stroke="white"/>
<path d="M97 62.5C101.694 62.5 105.5 58.6944 105.5 54C105.5 49.3056 101.694 45.5 97 45.5C92.3056 45.5 88.5 49.3056 88.5 54C88.5 58.6944 92.3056 62.5 97 62.5Z" stroke="white"/>
<path d="M279 65.5C285.351 65.5 290.5 60.3513 290.5 54C290.5 47.6487 285.351 42.5 279 42.5C272.649 42.5 267.5 47.6487 267.5 54C267.5 60.3513 272.649 65.5 279 65.5Z" stroke="white"/>
<path d="M279 62.5C283.694 62.5 287.5 58.6944 287.5 54C287.5 49.3056 283.694 45.5 279 45.5C274.306 45.5 270.5 49.3056 270.5 54C270.5 58.6944 274.306 62.5 279 62.5Z" stroke="white"/>
<path d="M188 65.5C194.351 65.5 199.5 60.3513 199.5 54C199.5 47.6487 194.351 42.5 188 42.5C181.649 42.5 176.5 47.6487 176.5 54C176.5 60.3513 181.649 65.5 188 65.5Z" stroke="white"/>
<path d="M188 62.5C192.694 62.5 196.5 58.6944 196.5 54C196.5 49.3056 192.694 45.5 188 45.5C183.306 45.5 179.5 49.3056 179.5 54C179.5 58.6944 183.306 62.5 188 62.5Z" stroke="white"/>
<path d="M222 114H155V142H222V114Z" fill="#FDBA12"/>
</svg>
