<svg width="332" height="155" viewBox="0 0 332 155" fill="none" xmlns="http://www.w3.org/2000/svg">
<rect x="130.5" y="58" width="71" height="39" rx="3.5" stroke="white"/>
<path d="M151.848 81.898H156.24V83.5H149.796V70.792H151.848V81.898ZM162.382 73.456C163.342 73.456 164.206 73.66 164.974 74.068C165.742 74.476 166.342 75.064 166.774 75.832C167.206 76.6 167.422 77.5 167.422 78.532C167.422 79.576 167.206 80.482 166.774 81.25C166.342 82.018 165.742 82.606 164.974 83.014C164.206 83.422 163.342 83.626 162.382 83.626C161.422 83.626 160.558 83.422 159.79 83.014C159.034 82.606 158.434 82.018 157.99 81.25C157.558 80.47 157.342 79.564 157.342 78.532C157.342 77.5 157.558 76.6 157.99 75.832C158.434 75.064 159.034 74.476 159.79 74.068C160.558 73.66 161.422 73.456 162.382 73.456ZM162.382 75.238C161.854 75.238 161.368 75.358 160.924 75.598C160.48 75.838 160.12 76.21 159.844 76.714C159.58 77.206 159.448 77.812 159.448 78.532C159.448 79.264 159.58 79.876 159.844 80.368C160.12 80.86 160.48 81.226 160.924 81.466C161.368 81.706 161.854 81.826 162.382 81.826C162.91 81.826 163.396 81.706 163.84 81.466C164.284 81.226 164.638 80.86 164.902 80.368C165.178 79.876 165.316 79.264 165.316 78.532C165.316 77.812 165.178 77.206 164.902 76.714C164.638 76.21 164.284 75.838 163.84 75.598C163.396 75.358 162.91 75.238 162.382 75.238ZM183.291 73.582L180.537 83.5H178.269L175.821 75.832L173.337 83.5H171.087L168.333 73.582H170.403L172.293 81.61L174.777 73.582H176.937L179.457 81.61L181.347 73.582H183.291Z" fill="white"/>
</svg>
