<svg width="375" height="232" viewBox="0 0 375 232" fill="none" xmlns="http://www.w3.org/2000/svg">
<g clip-path="url(#clip0)">
<path d="M235.949 83.166C237.509 83.166 238.805 83.562 239.837 84.354C240.869 85.146 241.565 86.22 241.925 87.576H239.747C239.447 86.808 238.967 86.202 238.307 85.758C237.659 85.302 236.861 85.074 235.913 85.074C235.157 85.074 234.479 85.26 233.879 85.632C233.291 86.004 232.823 86.538 232.475 87.234C232.139 87.918 231.971 88.722 231.971 89.646C231.971 90.558 232.139 91.362 232.475 92.058C232.823 92.742 233.291 93.27 233.879 93.642C234.479 94.014 235.157 94.2 235.913 94.2C236.861 94.2 237.659 93.978 238.307 93.534C238.967 93.078 239.447 92.472 239.747 91.716H241.925C241.565 93.072 240.869 94.146 239.837 94.938C238.805 95.718 237.509 96.108 235.949 96.108C234.749 96.108 233.687 95.838 232.763 95.298C231.839 94.746 231.125 93.984 230.621 93.012C230.117 92.028 229.865 90.906 229.865 89.646C229.865 88.386 230.117 87.27 230.621 86.298C231.125 85.314 231.839 84.546 232.763 83.994C233.687 83.442 234.749 83.166 235.949 83.166ZM249.516 85.92C250.668 85.92 251.592 86.292 252.288 87.036C252.984 87.78 253.332 88.842 253.332 90.222V96H251.28V90.438C251.28 89.55 251.052 88.866 250.596 88.386C250.14 87.894 249.516 87.648 248.724 87.648C247.908 87.648 247.254 87.912 246.762 88.44C246.27 88.956 246.024 89.718 246.024 90.726V96H243.972V82.68H246.024V88.26C246.288 87.516 246.732 86.94 247.356 86.532C247.98 86.124 248.7 85.92 249.516 85.92ZM264.948 90.564C264.948 90.9 264.924 91.194 264.876 91.446H257.244C257.28 92.466 257.562 93.222 258.09 93.714C258.618 94.206 259.272 94.452 260.052 94.452C260.736 94.452 261.312 94.278 261.78 93.93C262.26 93.582 262.554 93.12 262.662 92.544H264.858C264.726 93.24 264.45 93.858 264.03 94.398C263.61 94.938 263.064 95.364 262.392 95.676C261.72 95.976 260.97 96.126 260.142 96.126C259.182 96.126 258.33 95.922 257.586 95.514C256.854 95.106 256.278 94.518 255.858 93.75C255.438 92.982 255.228 92.076 255.228 91.032C255.228 90 255.438 89.1 255.858 88.332C256.278 87.564 256.854 86.976 257.586 86.568C258.33 86.16 259.182 85.956 260.142 85.956C261.114 85.956 261.96 86.16 262.68 86.568C263.412 86.964 263.97 87.516 264.354 88.224C264.75 88.92 264.948 89.7 264.948 90.564ZM262.878 90.51C262.902 89.862 262.788 89.322 262.536 88.89C262.296 88.446 261.96 88.122 261.528 87.918C261.108 87.702 260.646 87.594 260.142 87.594C259.338 87.594 258.666 87.84 258.126 88.332C257.586 88.824 257.292 89.55 257.244 90.51H262.878ZM271.556 84.03C270.752 83.994 270.188 84.126 269.864 84.426C269.54 84.714 269.378 85.212 269.378 85.92V86.082H271.556V87.846H269.378V96H267.308V87.846H265.958V86.082H267.308V85.758C267.308 84.546 267.662 83.64 268.37 83.04C269.078 82.428 270.14 82.158 271.556 82.23V84.03ZM218.406 103.166C219.966 103.166 221.262 103.562 222.294 104.354C223.326 105.146 224.022 106.22 224.382 107.576H222.204C221.904 106.808 221.424 106.202 220.764 105.758C220.116 105.302 219.318 105.074 218.37 105.074C217.614 105.074 216.936 105.26 216.336 105.632C215.748 106.004 215.28 106.538 214.932 107.234C214.596 107.918 214.428 108.722 214.428 109.646C214.428 110.558 214.596 111.362 214.932 112.058C215.28 112.742 215.748 113.27 216.336 113.642C216.936 114.014 217.614 114.2 218.37 114.2C219.318 114.2 220.116 113.978 220.764 113.534C221.424 113.078 221.904 112.472 222.204 111.716H224.382C224.022 113.072 223.326 114.146 222.294 114.938C221.262 115.718 219.966 116.108 218.406 116.108C217.206 116.108 216.144 115.838 215.22 115.298C214.296 114.746 213.582 113.984 213.078 113.012C212.574 112.028 212.322 110.906 212.322 109.646C212.322 108.386 212.574 107.27 213.078 106.298C213.582 105.314 214.296 104.546 215.22 103.994C216.144 103.442 217.206 103.166 218.406 103.166ZM230.966 105.956C231.926 105.956 232.79 106.16 233.558 106.568C234.326 106.976 234.926 107.564 235.357 108.332C235.79 109.1 236.006 110 236.006 111.032C236.006 112.076 235.79 112.982 235.357 113.75C234.926 114.518 234.326 115.106 233.558 115.514C232.79 115.922 231.926 116.126 230.966 116.126C230.006 116.126 229.142 115.922 228.374 115.514C227.618 115.106 227.018 114.518 226.574 113.75C226.142 112.97 225.926 112.064 225.926 111.032C225.926 110 226.142 109.1 226.574 108.332C227.018 107.564 227.618 106.976 228.374 106.568C229.142 106.16 230.006 105.956 230.966 105.956ZM230.966 107.738C230.438 107.738 229.952 107.858 229.508 108.098C229.064 108.338 228.704 108.71 228.428 109.214C228.164 109.706 228.032 110.312 228.032 111.032C228.032 111.764 228.164 112.376 228.428 112.868C228.704 113.36 229.064 113.726 229.508 113.966C229.952 114.206 230.438 114.326 230.966 114.326C231.494 114.326 231.98 114.206 232.424 113.966C232.868 113.726 233.222 113.36 233.486 112.868C233.762 112.376 233.9 111.764 233.9 111.032C233.9 110.312 233.762 109.706 233.486 109.214C233.222 108.71 232.868 108.338 232.424 108.098C231.98 107.858 231.494 107.738 230.966 107.738ZM243.522 105.92C244.674 105.92 245.598 106.292 246.294 107.036C246.99 107.78 247.338 108.842 247.338 110.222V116H245.286V110.438C245.286 109.55 245.058 108.866 244.602 108.386C244.146 107.894 243.522 107.648 242.73 107.648C241.914 107.648 241.26 107.912 240.768 108.44C240.276 108.956 240.03 109.718 240.03 110.726V116H237.978V106.082H240.03V108.26C240.294 107.516 240.738 106.94 241.362 106.532C241.986 106.124 242.706 105.92 243.522 105.92ZM255.282 105.92C256.434 105.92 257.358 106.292 258.054 107.036C258.75 107.78 259.098 108.842 259.098 110.222V116H257.046V110.438C257.046 109.55 256.818 108.866 256.362 108.386C255.906 107.894 255.282 107.648 254.49 107.648C253.674 107.648 253.02 107.912 252.528 108.44C252.036 108.956 251.79 109.718 251.79 110.726V116H249.738V106.082H251.79V108.26C252.054 107.516 252.498 106.94 253.122 106.532C253.746 106.124 254.466 105.92 255.282 105.92ZM270.714 110.564C270.714 110.9 270.69 111.194 270.642 111.446H263.01C263.046 112.466 263.328 113.222 263.856 113.714C264.384 114.206 265.038 114.452 265.818 114.452C266.502 114.452 267.078 114.278 267.546 113.93C268.026 113.582 268.32 113.12 268.428 112.544H270.624C270.492 113.24 270.216 113.858 269.796 114.398C269.376 114.938 268.83 115.364 268.158 115.676C267.486 115.976 266.736 116.126 265.908 116.126C264.948 116.126 264.096 115.922 263.352 115.514C262.62 115.106 262.044 114.518 261.624 113.75C261.204 112.982 260.994 112.076 260.994 111.032C260.994 110 261.204 109.1 261.624 108.332C262.044 107.564 262.62 106.976 263.352 106.568C264.096 106.16 264.948 105.956 265.908 105.956C266.88 105.956 267.726 106.16 268.446 106.568C269.178 106.964 269.736 107.516 270.12 108.224C270.516 108.92 270.714 109.7 270.714 110.564ZM268.644 110.51C268.668 109.862 268.554 109.322 268.302 108.89C268.062 108.446 267.726 108.122 267.294 107.918C266.874 107.702 266.412 107.594 265.908 107.594C265.104 107.594 264.432 107.84 263.892 108.332C263.352 108.824 263.058 109.55 263.01 110.51H268.644ZM277.105 105.956C278.389 105.956 279.451 106.298 280.291 106.982C281.131 107.654 281.653 108.572 281.857 109.736H279.679C279.559 109.112 279.265 108.626 278.797 108.278C278.341 107.918 277.765 107.738 277.069 107.738C276.277 107.738 275.617 108.02 275.089 108.584C274.561 109.136 274.297 109.952 274.297 111.032C274.297 112.112 274.561 112.934 275.089 113.498C275.617 114.062 276.277 114.344 277.069 114.344C277.765 114.344 278.341 114.164 278.797 113.804C279.265 113.444 279.559 112.952 279.679 112.328H281.857C281.653 113.492 281.131 114.416 280.291 115.1C279.451 115.784 278.389 116.126 277.105 116.126C276.145 116.126 275.293 115.922 274.549 115.514C273.817 115.106 273.241 114.518 272.821 113.75C272.401 112.982 272.191 112.076 272.191 111.032C272.191 110 272.401 109.1 272.821 108.332C273.241 107.564 273.817 106.976 274.549 106.568C275.293 106.16 276.145 105.956 277.105 105.956ZM288.826 114.218V116H287.566C286.51 116 285.706 115.748 285.154 115.244C284.614 114.728 284.344 113.876 284.344 112.688V107.828H282.922V106.082H284.344V103.616H286.414V106.082H288.808V107.828H286.414V112.724C286.414 113.288 286.516 113.678 286.72 113.894C286.936 114.11 287.308 114.218 287.836 114.218H288.826Z" fill="white"/>
<path d="M235.39 129.54V130.428H233.002V138H231.91V130.428H229.522V129.54H235.39ZM239.464 131.328C240.096 131.328 240.66 131.464 241.156 131.736C241.66 132.008 242.052 132.4 242.332 132.912C242.62 133.424 242.764 134.024 242.764 134.712C242.764 135.4 242.62 136 242.332 136.512C242.052 137.016 241.66 137.404 241.156 137.676C240.66 137.948 240.096 138.084 239.464 138.084C238.832 138.084 238.264 137.948 237.76 137.676C237.264 137.404 236.872 137.016 236.584 136.512C236.296 136 236.152 135.4 236.152 134.712C236.152 134.024 236.296 133.424 236.584 132.912C236.872 132.4 237.264 132.008 237.76 131.736C238.264 131.464 238.832 131.328 239.464 131.328ZM239.464 132.288C239.072 132.288 238.708 132.376 238.372 132.552C238.044 132.728 237.776 133 237.568 133.368C237.368 133.728 237.268 134.176 237.268 134.712C237.268 135.24 237.368 135.688 237.568 136.056C237.776 136.416 238.044 136.684 238.372 136.86C238.708 137.036 239.072 137.124 239.464 137.124C239.856 137.124 240.216 137.036 240.544 136.86C240.88 136.684 241.148 136.416 241.348 136.056C241.556 135.688 241.66 135.24 241.66 134.712C241.66 134.176 241.556 133.728 241.348 133.368C241.148 133 240.88 132.728 240.544 132.552C240.216 132.376 239.856 132.288 239.464 132.288ZM248.243 134.592V138H247.151V129.54H249.839C250.807 129.54 251.531 129.768 252.011 130.224C252.491 130.672 252.731 131.288 252.731 132.072C252.731 132.864 252.483 133.484 251.987 133.932C251.491 134.372 250.775 134.592 249.839 134.592H248.243ZM249.743 133.68C250.407 133.68 250.883 133.54 251.171 133.26C251.467 132.98 251.615 132.584 251.615 132.072C251.615 131.544 251.467 131.144 251.171 130.872C250.883 130.592 250.407 130.452 249.743 130.452H248.243V133.68H249.743ZM256.707 131.328C257.347 131.328 257.887 131.488 258.327 131.808C258.775 132.128 259.087 132.556 259.263 133.092V131.412H260.355V138H259.263V136.32C259.087 136.856 258.775 137.284 258.327 137.604C257.887 137.924 257.347 138.084 256.707 138.084C256.123 138.084 255.603 137.948 255.147 137.676C254.691 137.404 254.331 137.016 254.067 136.512C253.811 136 253.683 135.4 253.683 134.712C253.683 134.024 253.811 133.424 254.067 132.912C254.331 132.4 254.691 132.008 255.147 131.736C255.603 131.464 256.123 131.328 256.707 131.328ZM257.019 132.3C256.347 132.3 255.807 132.516 255.399 132.948C254.999 133.372 254.799 133.96 254.799 134.712C254.799 135.464 254.999 136.056 255.399 136.488C255.807 136.912 256.347 137.124 257.019 137.124C257.451 137.124 257.835 137.024 258.171 136.824C258.515 136.624 258.783 136.344 258.975 135.984C259.167 135.616 259.263 135.192 259.263 134.712C259.263 134.232 259.167 133.808 258.975 133.44C258.783 133.072 258.515 132.792 258.171 132.6C257.835 132.4 257.451 132.3 257.019 132.3ZM261.901 129.48C261.901 129.28 261.969 129.12 262.105 129C262.241 128.872 262.421 128.808 262.645 128.808C262.869 128.808 263.049 128.872 263.185 129C263.321 129.12 263.389 129.28 263.389 129.48C263.389 129.68 263.321 129.844 263.185 129.972C263.049 130.092 262.869 130.152 262.645 130.152C262.421 130.152 262.241 130.092 262.105 129.972C261.969 129.844 261.901 129.68 261.901 129.48ZM263.185 131.412V138H262.093V131.412H263.185ZM266.032 132.744C266.248 132.288 266.564 131.936 266.98 131.688C267.396 131.432 267.892 131.304 268.468 131.304V132.492H268.132C267.516 132.492 267.012 132.652 266.62 132.972C266.228 133.284 266.032 133.804 266.032 134.532V138H264.94V131.412H266.032V132.744ZM225.548 141.54V150H224.444V146.088H220.148V150H219.056V141.54H220.148V145.2H224.444V141.54H225.548ZM230.282 143.328C230.914 143.328 231.478 143.464 231.974 143.736C232.478 144.008 232.87 144.4 233.15 144.912C233.438 145.424 233.582 146.024 233.582 146.712C233.582 147.4 233.438 148 233.15 148.512C232.87 149.016 232.478 149.404 231.974 149.676C231.478 149.948 230.914 150.084 230.282 150.084C229.65 150.084 229.082 149.948 228.578 149.676C228.082 149.404 227.69 149.016 227.402 148.512C227.114 148 226.97 147.4 226.97 146.712C226.97 146.024 227.114 145.424 227.402 144.912C227.69 144.4 228.082 144.008 228.578 143.736C229.082 143.464 229.65 143.328 230.282 143.328ZM230.282 144.288C229.89 144.288 229.526 144.376 229.19 144.552C228.862 144.728 228.594 145 228.386 145.368C228.186 145.728 228.086 146.176 228.086 146.712C228.086 147.24 228.186 147.688 228.386 148.056C228.594 148.416 228.862 148.684 229.19 148.86C229.526 149.036 229.89 149.124 230.282 149.124C230.674 149.124 231.034 149.036 231.362 148.86C231.698 148.684 231.966 148.416 232.166 148.056C232.374 147.688 232.478 147.24 232.478 146.712C232.478 146.176 232.374 145.728 232.166 145.368C231.966 145 231.698 144.728 231.362 144.552C231.034 144.376 230.674 144.288 230.282 144.288ZM236.097 141.12V150H235.005V141.12H236.097ZM240.553 143.328C241.193 143.328 241.733 143.488 242.173 143.808C242.621 144.128 242.933 144.556 243.109 145.092V141.12H244.201V150H243.109V148.32C242.933 148.856 242.621 149.284 242.173 149.604C241.733 149.924 241.193 150.084 240.553 150.084C239.969 150.084 239.449 149.948 238.993 149.676C238.537 149.404 238.177 149.016 237.913 148.512C237.657 148 237.529 147.4 237.529 146.712C237.529 146.024 237.657 145.424 237.913 144.912C238.177 144.4 238.537 144.008 238.993 143.736C239.449 143.464 239.969 143.328 240.553 143.328ZM240.865 144.3C240.193 144.3 239.653 144.516 239.245 144.948C238.845 145.372 238.645 145.96 238.645 146.712C238.645 147.464 238.845 148.056 239.245 148.488C239.653 148.912 240.193 149.124 240.865 149.124C241.297 149.124 241.681 149.024 242.017 148.824C242.361 148.624 242.629 148.344 242.821 147.984C243.013 147.616 243.109 147.192 243.109 146.712C243.109 146.232 243.013 145.808 242.821 145.44C242.629 145.072 242.361 144.792 242.017 144.6C241.681 144.4 241.297 144.3 240.865 144.3ZM251.615 141.312C252.159 141.312 252.627 141.408 253.019 141.6C253.411 141.792 253.707 142.056 253.907 142.392C254.107 142.728 254.207 143.108 254.207 143.532C254.207 144.06 254.051 144.504 253.739 144.864C253.435 145.224 252.987 145.44 252.395 145.512V145.584C253.011 145.744 253.491 145.992 253.835 146.328C254.187 146.664 254.363 147.128 254.363 147.72C254.363 148.416 254.131 148.984 253.667 149.424C253.203 149.864 252.535 150.084 251.663 150.084C250.791 150.084 250.083 149.86 249.539 149.412C249.003 148.956 248.687 148.292 248.591 147.42H249.671C249.743 147.948 249.943 148.368 250.271 148.68C250.607 148.992 251.059 149.148 251.627 149.148C252.163 149.148 252.575 149.012 252.863 148.74C253.151 148.46 253.295 148.1 253.295 147.66C253.295 147.132 253.087 146.732 252.671 146.46C252.263 146.18 251.679 146.04 250.919 146.04H250.631V145.128H250.919C252.391 145.128 253.127 144.636 253.127 143.652C253.127 143.22 252.991 142.876 252.719 142.62C252.447 142.364 252.071 142.236 251.591 142.236C251.111 142.236 250.707 142.376 250.379 142.656C250.051 142.928 249.859 143.332 249.803 143.868H248.735C248.791 143.068 249.067 142.444 249.563 141.996C250.067 141.54 250.751 141.312 251.615 141.312ZM264.287 147.804C264.287 148.204 264.191 148.576 263.999 148.92C263.807 149.264 263.515 149.544 263.123 149.76C262.731 149.976 262.247 150.084 261.671 150.084C261.111 150.084 260.611 149.984 260.171 149.784C259.739 149.576 259.391 149.296 259.127 148.944C258.871 148.584 258.723 148.176 258.683 147.72H259.847C259.871 147.96 259.951 148.196 260.087 148.428C260.231 148.652 260.431 148.84 260.687 148.992C260.951 149.136 261.267 149.208 261.635 149.208C262.115 149.208 262.483 149.08 262.739 148.824C262.995 148.568 263.123 148.24 263.123 147.84C263.123 147.496 263.031 147.216 262.847 147C262.671 146.784 262.451 146.616 262.187 146.496C261.923 146.368 261.563 146.232 261.107 146.088C260.571 145.912 260.139 145.748 259.811 145.596C259.491 145.436 259.215 145.2 258.983 144.888C258.759 144.576 258.647 144.164 258.647 143.652C258.647 143.212 258.751 142.824 258.959 142.488C259.175 142.152 259.479 141.892 259.871 141.708C260.271 141.524 260.739 141.432 261.275 141.432C262.107 141.432 262.767 141.636 263.255 142.044C263.743 142.444 264.027 142.956 264.107 143.58H262.931C262.867 143.244 262.695 142.948 262.415 142.692C262.135 142.436 261.755 142.308 261.275 142.308C260.835 142.308 260.483 142.424 260.219 142.656C259.955 142.88 259.823 143.2 259.823 143.616C259.823 143.944 259.907 144.212 260.075 144.42C260.251 144.62 260.467 144.78 260.723 144.9C260.979 145.012 261.331 145.14 261.779 145.284C262.323 145.46 262.759 145.628 263.087 145.788C263.423 145.948 263.707 146.192 263.939 146.52C264.171 146.84 264.287 147.268 264.287 147.804ZM271.815 146.34C271.815 146.572 271.799 146.772 271.767 146.94H266.499C266.523 147.692 266.735 148.256 267.135 148.632C267.543 149.008 268.039 149.196 268.623 149.196C269.151 149.196 269.591 149.064 269.943 148.8C270.303 148.528 270.523 148.168 270.603 147.72H271.767C271.687 148.176 271.507 148.584 271.227 148.944C270.955 149.304 270.599 149.584 270.159 149.784C269.719 149.984 269.223 150.084 268.671 150.084C268.039 150.084 267.479 149.948 266.991 149.676C266.503 149.404 266.119 149.016 265.839 148.512C265.567 148 265.431 147.4 265.431 146.712C265.431 146.024 265.567 145.424 265.839 144.912C266.119 144.4 266.503 144.008 266.991 143.736C267.479 143.464 268.039 143.328 268.671 143.328C269.311 143.328 269.867 143.464 270.339 143.736C270.819 144.008 271.183 144.372 271.431 144.828C271.687 145.284 271.815 145.788 271.815 146.34ZM270.711 146.412C270.735 145.924 270.655 145.516 270.471 145.188C270.287 144.86 270.035 144.616 269.715 144.456C269.395 144.296 269.047 144.216 268.671 144.216C268.071 144.216 267.567 144.404 267.159 144.78C266.751 145.148 266.531 145.692 266.499 146.412H270.711ZM276.159 143.328C276.999 143.328 277.695 143.552 278.247 144C278.799 144.448 279.139 145.048 279.267 145.8H278.115C278.035 145.328 277.815 144.96 277.455 144.696C277.103 144.424 276.663 144.288 276.135 144.288C275.751 144.288 275.399 144.376 275.079 144.552C274.767 144.728 274.515 145 274.323 145.368C274.131 145.728 274.035 146.176 274.035 146.712C274.035 147.248 274.131 147.7 274.323 148.068C274.515 148.428 274.767 148.696 275.079 148.872C275.399 149.048 275.751 149.136 276.135 149.136C276.663 149.136 277.103 149 277.455 148.728C277.815 148.456 278.035 148.084 278.115 147.612H279.267C279.139 148.372 278.799 148.976 278.247 149.424C277.695 149.864 276.999 150.084 276.159 150.084C275.527 150.084 274.967 149.948 274.479 149.676C273.991 149.404 273.607 149.016 273.327 148.512C273.055 148 272.919 147.4 272.919 146.712C272.919 146.024 273.055 145.424 273.327 144.912C273.607 144.4 273.991 144.008 274.479 143.736C274.967 143.464 275.527 143.328 276.159 143.328Z" fill="white"/>
<rect x="214.5" y="124.5" width="71" height="1" stroke="white"/>
</g>
<path d="M109.594 103.398H113.986V105H107.542V92.292H109.594V103.398ZM115.305 92.202C115.305 91.854 115.425 91.566 115.665 91.338C115.905 91.11 116.223 90.996 116.619 90.996C117.015 90.996 117.333 91.11 117.573 91.338C117.825 91.566 117.951 91.854 117.951 92.202C117.951 92.55 117.825 92.832 117.573 93.048C117.333 93.264 117.015 93.372 116.619 93.372C116.223 93.372 115.905 93.264 115.665 93.048C115.425 92.832 115.305 92.55 115.305 92.202ZM117.645 95.082V105H115.593V95.082H117.645ZM124.106 94.956C125.006 94.956 125.774 95.178 126.41 95.622C127.046 96.066 127.496 96.654 127.76 97.386V95.082H129.812V105.108C129.812 106.032 129.62 106.848 129.236 107.556C128.864 108.276 128.324 108.84 127.616 109.248C126.908 109.656 126.068 109.86 125.096 109.86C123.704 109.86 122.576 109.53 121.712 108.87C120.86 108.21 120.326 107.316 120.11 106.188H122.144C122.312 106.776 122.636 107.232 123.116 107.556C123.596 107.892 124.208 108.06 124.952 108.06C125.768 108.06 126.44 107.808 126.968 107.304C127.496 106.8 127.76 106.068 127.76 105.108V102.696C127.496 103.428 127.046 104.016 126.41 104.46C125.774 104.904 125.006 105.126 124.106 105.126C123.242 105.126 122.468 104.922 121.784 104.514C121.112 104.106 120.584 103.518 120.2 102.75C119.816 101.982 119.624 101.076 119.624 100.032C119.624 99 119.816 98.1 120.2 97.332C120.584 96.564 121.112 95.976 121.784 95.568C122.468 95.16 123.242 94.956 124.106 94.956ZM124.736 96.756C123.824 96.756 123.092 97.05 122.54 97.638C122 98.214 121.73 99.012 121.73 100.032C121.73 101.052 122 101.856 122.54 102.444C123.092 103.02 123.824 103.308 124.736 103.308C125.312 103.308 125.828 103.176 126.284 102.912C126.74 102.636 127.1 102.252 127.364 101.76C127.628 101.268 127.76 100.692 127.76 100.032C127.76 99.384 127.628 98.814 127.364 98.322C127.1 97.818 126.74 97.434 126.284 97.17C125.828 96.894 125.312 96.756 124.736 96.756ZM137.818 94.92C138.97 94.92 139.894 95.292 140.59 96.036C141.286 96.78 141.634 97.842 141.634 99.222V105H139.582V99.438C139.582 98.55 139.354 97.866 138.898 97.386C138.442 96.894 137.818 96.648 137.026 96.648C136.21 96.648 135.556 96.912 135.064 97.44C134.572 97.956 134.326 98.718 134.326 99.726V105H132.274V91.68H134.326V97.26C134.59 96.516 135.034 95.94 135.658 95.532C136.282 95.124 137.002 94.92 137.818 94.92ZM149.02 103.218V105H147.76C146.704 105 145.9 104.748 145.348 104.244C144.808 103.728 144.538 102.876 144.538 101.688V96.828H143.116V95.082H144.538V92.616H146.608V95.082H149.002V96.828H146.608V101.724C146.608 102.288 146.71 102.678 146.914 102.894C147.13 103.11 147.502 103.218 148.03 103.218H149.02Z" fill="white"/>
<rect x="92.5" y="124.5" width="71" height="1" stroke="white"/>
<defs>
<clipPath id="clip0">
<rect width="79" height="72" fill="white" transform="translate(210 80)"/>
</clipPath>
</defs>
</svg>
