<svg width="332" height="155" viewBox="0 0 332 155" fill="none" xmlns="http://www.w3.org/2000/svg">
<rect x="130.5" y="36.5" width="71" height="39" rx="3.5" stroke="white"/>
<path d="M151.848 60.398H156.24V62H149.796V49.292H151.848V60.398ZM162.382 51.956C163.342 51.956 164.206 52.16 164.974 52.568C165.742 52.976 166.342 53.564 166.774 54.332C167.206 55.1 167.422 56 167.422 57.032C167.422 58.076 167.206 58.982 166.774 59.75C166.342 60.518 165.742 61.106 164.974 61.514C164.206 61.922 163.342 62.126 162.382 62.126C161.422 62.126 160.558 61.922 159.79 61.514C159.034 61.106 158.434 60.518 157.99 59.75C157.558 58.97 157.342 58.064 157.342 57.032C157.342 56 157.558 55.1 157.99 54.332C158.434 53.564 159.034 52.976 159.79 52.568C160.558 52.16 161.422 51.956 162.382 51.956ZM162.382 53.738C161.854 53.738 161.368 53.858 160.924 54.098C160.48 54.338 160.12 54.71 159.844 55.214C159.58 55.706 159.448 56.312 159.448 57.032C159.448 57.764 159.58 58.376 159.844 58.868C160.12 59.36 160.48 59.726 160.924 59.966C161.368 60.206 161.854 60.326 162.382 60.326C162.91 60.326 163.396 60.206 163.84 59.966C164.284 59.726 164.638 59.36 164.902 58.868C165.178 58.376 165.316 57.764 165.316 57.032C165.316 56.312 165.178 55.706 164.902 55.214C164.638 54.71 164.284 54.338 163.84 54.098C163.396 53.858 162.91 53.738 162.382 53.738ZM183.291 52.082L180.537 62H178.269L175.821 54.332L173.337 62H171.087L168.333 52.082H170.403L172.293 60.11L174.777 52.082H176.937L179.457 60.11L181.347 52.082H183.291Z" fill="white"/>
<path d="M165.02 89.704L162.204 101H159.964L157.58 92.264L155.196 101H152.956L150.14 89.704H152.14L154.092 98.888L156.572 89.704H158.588L161.068 98.888L163.02 89.704H165.02ZM166.557 89.624C166.557 89.3147 166.664 89.0587 166.877 88.856C167.09 88.6533 167.373 88.552 167.725 88.552C168.077 88.552 168.36 88.6533 168.573 88.856C168.797 89.0587 168.909 89.3147 168.909 89.624C168.909 89.9333 168.797 90.184 168.573 90.376C168.36 90.568 168.077 90.664 167.725 90.664C167.373 90.664 167.09 90.568 166.877 90.376C166.664 90.184 166.557 89.9333 166.557 89.624ZM168.637 92.184V101H166.813V92.184H168.637ZM177.676 89.704V91.176H172.828V94.68H176.828V96.088H172.828V101H171.004V89.704H177.676ZM179.205 89.624C179.205 89.3147 179.312 89.0587 179.525 88.856C179.739 88.6533 180.021 88.552 180.373 88.552C180.725 88.552 181.008 88.6533 181.221 88.856C181.445 89.0587 181.557 89.3147 181.557 89.624C181.557 89.9333 181.445 90.184 181.221 90.376C181.008 90.568 180.725 90.664 180.373 90.664C180.021 90.664 179.739 90.568 179.525 90.376C179.312 90.184 179.205 89.9333 179.205 89.624ZM181.285 92.184V101H179.461V92.184H181.285ZM140.518 112.616V117H138.694V105.704H142.534C143.836 105.704 144.812 106.013 145.462 106.632C146.124 107.251 146.454 108.099 146.454 109.176C146.454 110.243 146.118 111.085 145.446 111.704C144.774 112.312 143.804 112.616 142.534 112.616H140.518ZM142.342 111.128C143.846 111.128 144.598 110.477 144.598 109.176C144.598 108.536 144.417 108.051 144.054 107.72C143.702 107.379 143.132 107.208 142.342 107.208H140.518V111.128H142.342ZM151.75 108.072C152.55 108.072 153.232 108.269 153.798 108.664C154.363 109.059 154.763 109.581 154.998 110.232V108.184H156.822V117H154.998V114.952C154.763 115.603 154.363 116.125 153.798 116.52C153.232 116.915 152.55 117.112 151.75 117.112C150.982 117.112 150.294 116.931 149.686 116.568C149.088 116.205 148.619 115.683 148.278 115C147.936 114.317 147.766 113.512 147.766 112.584C147.766 111.667 147.936 110.867 148.278 110.184C148.619 109.501 149.088 108.979 149.686 108.616C150.294 108.253 150.982 108.072 151.75 108.072ZM152.31 109.672C151.499 109.672 150.848 109.933 150.358 110.456C149.878 110.968 149.638 111.677 149.638 112.584C149.638 113.491 149.878 114.205 150.358 114.728C150.848 115.24 151.499 115.496 152.31 115.496C152.822 115.496 153.28 115.379 153.686 115.144C154.091 114.899 154.411 114.557 154.646 114.12C154.88 113.683 154.998 113.171 154.998 112.584C154.998 112.008 154.88 111.501 154.646 111.064C154.411 110.616 154.091 110.275 153.686 110.04C153.28 109.795 152.822 109.672 152.31 109.672ZM158.915 105.624C158.915 105.315 159.021 105.059 159.235 104.856C159.448 104.653 159.731 104.552 160.083 104.552C160.435 104.552 160.717 104.653 160.931 104.856C161.155 105.059 161.267 105.315 161.267 105.624C161.267 105.933 161.155 106.184 160.931 106.376C160.717 106.568 160.435 106.664 160.083 106.664C159.731 106.664 159.448 106.568 159.235 106.376C159.021 106.184 158.915 105.933 158.915 105.624ZM160.995 108.184V117H159.171V108.184H160.995ZM165.186 109.912C165.484 109.336 165.911 108.883 166.466 108.552C167.02 108.211 167.66 108.04 168.386 108.04V110.024H167.842C167.042 110.024 166.396 110.221 165.906 110.616C165.426 111 165.186 111.64 165.186 112.536V117H163.362V108.184H165.186V109.912ZM169.656 105.624C169.656 105.315 169.763 105.059 169.976 104.856C170.19 104.653 170.472 104.552 170.824 104.552C171.176 104.552 171.459 104.653 171.672 104.856C171.896 105.059 172.008 105.315 172.008 105.624C172.008 105.933 171.896 106.184 171.672 106.376C171.459 106.568 171.176 106.664 170.824 106.664C170.472 106.664 170.19 106.568 169.976 106.376C169.763 106.184 169.656 105.933 169.656 105.624ZM171.736 108.184V117H169.912V108.184H171.736ZM179.032 108.04C180.056 108.04 180.877 108.371 181.496 109.032C182.114 109.693 182.424 110.637 182.424 111.864V117H180.6V112.056C180.6 111.267 180.397 110.659 179.992 110.232C179.586 109.795 179.032 109.576 178.328 109.576C177.602 109.576 177.021 109.811 176.584 110.28C176.146 110.739 175.928 111.416 175.928 112.312V117H174.104V108.184H175.928V110.12C176.162 109.459 176.557 108.947 177.112 108.584C177.666 108.221 178.306 108.04 179.032 108.04ZM188.253 108.072C189.053 108.072 189.735 108.269 190.301 108.664C190.866 109.059 191.266 109.581 191.501 110.232V108.184H193.325V117.096C193.325 117.917 193.154 118.643 192.813 119.272C192.482 119.912 192.002 120.413 191.373 120.776C190.743 121.139 189.997 121.32 189.133 121.32C187.895 121.32 186.893 121.027 186.125 120.44C185.367 119.853 184.893 119.059 184.701 118.056H186.509C186.658 118.579 186.946 118.984 187.373 119.272C187.799 119.571 188.343 119.72 189.005 119.72C189.73 119.72 190.327 119.496 190.797 119.048C191.266 118.6 191.501 117.949 191.501 117.096V114.952C191.266 115.603 190.866 116.125 190.301 116.52C189.735 116.915 189.053 117.112 188.253 117.112C187.485 117.112 186.797 116.931 186.189 116.568C185.591 116.205 185.122 115.683 184.781 115C184.439 114.317 184.269 113.512 184.269 112.584C184.269 111.667 184.439 110.867 184.781 110.184C185.122 109.501 185.591 108.979 186.189 108.616C186.797 108.253 187.485 108.072 188.253 108.072ZM188.813 109.672C188.002 109.672 187.351 109.933 186.861 110.456C186.381 110.968 186.141 111.677 186.141 112.584C186.141 113.491 186.381 114.205 186.861 114.728C187.351 115.24 188.002 115.496 188.813 115.496C189.325 115.496 189.783 115.379 190.189 115.144C190.594 114.899 190.914 114.557 191.149 114.12C191.383 113.683 191.501 113.171 191.501 112.584C191.501 112.008 191.383 111.501 191.149 111.064C190.914 110.616 190.594 110.275 190.189 110.04C189.783 109.795 189.325 109.672 188.813 109.672Z" fill="white"/>
</svg>
