<svg width="375" height="232" viewBox="0 0 375 232" fill="none" xmlns="http://www.w3.org/2000/svg">
<rect x="151.5" y="73.5" width="71" height="39" rx="3.5" stroke="white"/>
<path d="M172.848 97.398H177.24V99H170.796V86.292H172.848V97.398ZM183.382 88.956C184.342 88.956 185.206 89.16 185.974 89.568C186.742 89.976 187.342 90.564 187.774 91.332C188.206 92.1 188.422 93 188.422 94.032C188.422 95.076 188.206 95.982 187.774 96.75C187.342 97.518 186.742 98.106 185.974 98.514C185.206 98.922 184.342 99.126 183.382 99.126C182.422 99.126 181.558 98.922 180.79 98.514C180.034 98.106 179.434 97.518 178.99 96.75C178.558 95.97 178.342 95.064 178.342 94.032C178.342 93 178.558 92.1 178.99 91.332C179.434 90.564 180.034 89.976 180.79 89.568C181.558 89.16 182.422 88.956 183.382 88.956ZM183.382 90.738C182.854 90.738 182.368 90.858 181.924 91.098C181.48 91.338 181.12 91.71 180.844 92.214C180.58 92.706 180.448 93.312 180.448 94.032C180.448 94.764 180.58 95.376 180.844 95.868C181.12 96.36 181.48 96.726 181.924 96.966C182.368 97.206 182.854 97.326 183.382 97.326C183.91 97.326 184.396 97.206 184.84 96.966C185.284 96.726 185.638 96.36 185.902 95.868C186.178 95.376 186.316 94.764 186.316 94.032C186.316 93.312 186.178 92.706 185.902 92.214C185.638 91.71 185.284 91.338 184.84 91.098C184.396 90.858 183.91 90.738 183.382 90.738ZM204.291 89.082L201.537 99H199.269L196.821 91.332L194.337 99H192.087L189.333 89.082H191.403L193.293 97.11L195.777 89.082H197.937L200.457 97.11L202.347 89.082H204.291Z" fill="white"/>
<path d="M186.02 126.704L183.204 138H180.964L178.58 129.264L176.196 138H173.956L171.14 126.704H173.14L175.092 135.888L177.572 126.704H179.588L182.068 135.888L184.02 126.704H186.02ZM187.557 126.624C187.557 126.315 187.664 126.059 187.877 125.856C188.09 125.653 188.373 125.552 188.725 125.552C189.077 125.552 189.36 125.653 189.573 125.856C189.797 126.059 189.909 126.315 189.909 126.624C189.909 126.933 189.797 127.184 189.573 127.376C189.36 127.568 189.077 127.664 188.725 127.664C188.373 127.664 188.09 127.568 187.877 127.376C187.664 127.184 187.557 126.933 187.557 126.624ZM189.637 129.184V138H187.813V129.184H189.637ZM198.676 126.704V128.176H193.828V131.68H197.828V133.088H193.828V138H192.004V126.704H198.676ZM200.205 126.624C200.205 126.315 200.312 126.059 200.525 125.856C200.739 125.653 201.021 125.552 201.373 125.552C201.725 125.552 202.008 125.653 202.221 125.856C202.445 126.059 202.557 126.315 202.557 126.624C202.557 126.933 202.445 127.184 202.221 127.376C202.008 127.568 201.725 127.664 201.373 127.664C201.021 127.664 200.739 127.568 200.525 127.376C200.312 127.184 200.205 126.933 200.205 126.624ZM202.285 129.184V138H200.461V129.184H202.285ZM161.518 149.616V154H159.694V142.704H163.534C164.836 142.704 165.812 143.013 166.462 143.632C167.124 144.251 167.454 145.099 167.454 146.176C167.454 147.243 167.118 148.085 166.446 148.704C165.774 149.312 164.804 149.616 163.534 149.616H161.518ZM163.342 148.128C164.846 148.128 165.598 147.477 165.598 146.176C165.598 145.536 165.417 145.051 165.054 144.72C164.702 144.379 164.132 144.208 163.342 144.208H161.518V148.128H163.342ZM172.75 145.072C173.55 145.072 174.232 145.269 174.798 145.664C175.363 146.059 175.763 146.581 175.998 147.232V145.184H177.822V154H175.998V151.952C175.763 152.603 175.363 153.125 174.798 153.52C174.232 153.915 173.55 154.112 172.75 154.112C171.982 154.112 171.294 153.931 170.686 153.568C170.088 153.205 169.619 152.683 169.278 152C168.936 151.317 168.766 150.512 168.766 149.584C168.766 148.667 168.936 147.867 169.278 147.184C169.619 146.501 170.088 145.979 170.686 145.616C171.294 145.253 171.982 145.072 172.75 145.072ZM173.31 146.672C172.499 146.672 171.848 146.933 171.358 147.456C170.878 147.968 170.638 148.677 170.638 149.584C170.638 150.491 170.878 151.205 171.358 151.728C171.848 152.24 172.499 152.496 173.31 152.496C173.822 152.496 174.28 152.379 174.686 152.144C175.091 151.899 175.411 151.557 175.646 151.12C175.88 150.683 175.998 150.171 175.998 149.584C175.998 149.008 175.88 148.501 175.646 148.064C175.411 147.616 175.091 147.275 174.686 147.04C174.28 146.795 173.822 146.672 173.31 146.672ZM179.915 142.624C179.915 142.315 180.021 142.059 180.235 141.856C180.448 141.653 180.731 141.552 181.083 141.552C181.435 141.552 181.717 141.653 181.931 141.856C182.155 142.059 182.267 142.315 182.267 142.624C182.267 142.933 182.155 143.184 181.931 143.376C181.717 143.568 181.435 143.664 181.083 143.664C180.731 143.664 180.448 143.568 180.235 143.376C180.021 143.184 179.915 142.933 179.915 142.624ZM181.995 145.184V154H180.171V145.184H181.995ZM186.186 146.912C186.484 146.336 186.911 145.883 187.466 145.552C188.02 145.211 188.66 145.04 189.386 145.04V147.024H188.842C188.042 147.024 187.396 147.221 186.906 147.616C186.426 148 186.186 148.64 186.186 149.536V154H184.362V145.184H186.186V146.912ZM190.656 142.624C190.656 142.315 190.763 142.059 190.976 141.856C191.19 141.653 191.472 141.552 191.824 141.552C192.176 141.552 192.459 141.653 192.672 141.856C192.896 142.059 193.008 142.315 193.008 142.624C193.008 142.933 192.896 143.184 192.672 143.376C192.459 143.568 192.176 143.664 191.824 143.664C191.472 143.664 191.19 143.568 190.976 143.376C190.763 143.184 190.656 142.933 190.656 142.624ZM192.736 145.184V154H190.912V145.184H192.736ZM200.032 145.04C201.056 145.04 201.877 145.371 202.496 146.032C203.114 146.693 203.424 147.637 203.424 148.864V154H201.6V149.056C201.6 148.267 201.397 147.659 200.992 147.232C200.586 146.795 200.032 146.576 199.328 146.576C198.602 146.576 198.021 146.811 197.584 147.28C197.146 147.739 196.928 148.416 196.928 149.312V154H195.104V145.184H196.928V147.12C197.162 146.459 197.557 145.947 198.112 145.584C198.666 145.221 199.306 145.04 200.032 145.04ZM209.253 145.072C210.053 145.072 210.735 145.269 211.301 145.664C211.866 146.059 212.266 146.581 212.501 147.232V145.184H214.325V154.096C214.325 154.917 214.154 155.643 213.813 156.272C213.482 156.912 213.002 157.413 212.373 157.776C211.743 158.139 210.997 158.32 210.133 158.32C208.895 158.32 207.893 158.027 207.125 157.44C206.367 156.853 205.893 156.059 205.701 155.056H207.509C207.658 155.579 207.946 155.984 208.373 156.272C208.799 156.571 209.343 156.72 210.005 156.72C210.73 156.72 211.327 156.496 211.797 156.048C212.266 155.6 212.501 154.949 212.501 154.096V151.952C212.266 152.603 211.866 153.125 211.301 153.52C210.735 153.915 210.053 154.112 209.253 154.112C208.485 154.112 207.797 153.931 207.189 153.568C206.591 153.205 206.122 152.683 205.781 152C205.439 151.317 205.269 150.512 205.269 149.584C205.269 148.667 205.439 147.867 205.781 147.184C206.122 146.501 206.591 145.979 207.189 145.616C207.797 145.253 208.485 145.072 209.253 145.072ZM209.813 146.672C209.002 146.672 208.351 146.933 207.861 147.456C207.381 147.968 207.141 148.677 207.141 149.584C207.141 150.491 207.381 151.205 207.861 151.728C208.351 152.24 209.002 152.496 209.813 152.496C210.325 152.496 210.783 152.379 211.189 152.144C211.594 151.899 211.914 151.557 212.149 151.12C212.383 150.683 212.501 150.171 212.501 149.584C212.501 149.008 212.383 148.501 212.149 148.064C211.914 147.616 211.594 147.275 211.189 147.04C210.783 146.795 210.325 146.672 209.813 146.672Z" fill="white"/>
<g opacity="0.25">
<rect x="253.5" y="73.5" width="71" height="39" rx="3.5" stroke="white"/>
</g>
<g opacity="0.25">
<rect x="49.5" y="73.5" width="71" height="39" rx="3.5" stroke="white"/>
</g>
</svg>
