<svg width="341" height="164" viewBox="0 0 341 164" fill="none" xmlns="http://www.w3.org/2000/svg">
    <rect x="1" y="1" width="339" height="162" rx="15" stroke="white" stroke-width="2"/>
    <path d="M29.592 27.416C29.592 30.76 32.136 33.096 35.272 33.096C37.592 33.096 39.592 31.944 40.44 29.768H38.248C37.656 30.952 36.6 31.512 35.272 31.512C33.064 31.512 31.464 29.928 31.464 27.416C31.464 24.904 33.064 23.336 35.272 23.336C36.6 23.336 37.656 23.896 38.248 25.08H40.44C39.592 22.904 37.592 21.736 35.272 21.736C32.136 21.736 29.592 24.088 29.592 27.416ZM51.295 28.584C51.295 25.816 49.311 24.04 46.799 24.04C44.287 24.04 42.303 25.816 42.303 28.584C42.303 31.352 44.207 33.144 46.719 33.144C49.247 33.144 51.295 31.352 51.295 28.584ZM44.159 28.584C44.159 26.584 45.391 25.624 46.767 25.624C48.127 25.624 49.423 26.584 49.423 28.584C49.423 30.584 48.079 31.56 46.719 31.56C45.343 31.56 44.159 30.584 44.159 28.584ZM59.6741 33H61.4821V27.8C61.4821 25.336 59.9301 24.04 57.8661 24.04C56.8101 24.04 55.8341 24.472 55.2421 25.192V24.184H53.4181V33H55.2421V28.072C55.2421 26.456 56.1221 25.624 57.4661 25.624C58.7941 25.624 59.6741 26.456 59.6741 28.072V33ZM70.3847 33H72.1927V27.8C72.1927 25.336 70.6407 24.04 68.5767 24.04C67.5207 24.04 66.5447 24.472 65.9527 25.192V24.184H64.1287V33H65.9527V28.072C65.9527 26.456 66.8327 25.624 68.1767 25.624C69.5047 25.624 70.3847 26.456 70.3847 28.072V33ZM78.5514 25.576C79.9114 25.576 80.9834 26.44 81.0154 27.8H76.1354C76.3274 26.408 77.3194 25.576 78.5514 25.576ZM82.6794 30.376H80.7114C80.3754 31.064 79.7514 31.608 78.6314 31.608C77.2874 31.608 76.2474 30.728 76.1194 29.272H82.8554C82.9034 28.968 82.9194 28.68 82.9194 28.376C82.9194 25.784 81.1434 24.04 78.6314 24.04C76.0234 24.04 74.2314 25.816 74.2314 28.584C74.2314 31.352 76.1034 33.144 78.6314 33.144C80.7914 33.144 82.1834 31.912 82.6794 30.376ZM84.4264 28.584C84.4264 31.352 86.2184 33.144 88.7464 33.144C90.9064 33.144 92.3144 31.944 92.8104 30.216H90.8424C90.5064 31.128 89.8344 31.608 88.7464 31.608C87.2744 31.608 86.2984 30.52 86.2984 28.584C86.2984 26.664 87.2744 25.576 88.7464 25.576C89.8344 25.576 90.5384 26.12 90.8424 26.968H92.8104C92.3144 25.112 90.9064 24.04 88.7464 24.04C86.2184 24.04 84.4264 25.832 84.4264 28.584ZM95.2361 30.552C95.2361 32.344 96.2121 33 97.7801 33H99.2201V31.48H98.1001C97.3321 31.48 97.0761 31.208 97.0761 30.552V25.672H99.2201V24.184H97.0761V21.992H95.2361V24.184H94.1961V25.672H95.2361V30.552ZM104.933 25.576C106.293 25.576 107.365 26.44 107.397 27.8H102.517C102.709 26.408 103.701 25.576 104.933 25.576ZM109.061 30.376H107.093C106.757 31.064 106.133 31.608 105.013 31.608C103.669 31.608 102.629 30.728 102.501 29.272H109.237C109.285 28.968 109.301 28.68 109.301 28.376C109.301 25.784 107.525 24.04 105.013 24.04C102.405 24.04 100.613 25.816 100.613 28.584C100.613 31.352 102.485 33.144 105.013 33.144C107.173 33.144 108.565 31.912 109.061 30.376ZM110.808 28.552C110.808 31.272 112.648 33.144 114.968 33.144C116.408 33.144 117.464 32.472 118.024 31.672V33H119.864V21.16H118.024V25.416C117.352 24.584 116.136 24.04 114.984 24.04C112.648 24.04 110.808 25.832 110.808 28.552ZM118.024 28.584C118.024 30.488 116.728 31.56 115.352 31.56C113.992 31.56 112.68 30.456 112.68 28.552C112.68 26.648 113.992 25.624 115.352 25.624C116.728 25.624 118.024 26.696 118.024 28.584ZM134.56 33H136.48L132.496 21.864H130.384L126.4 33H128.304L129.104 30.728H133.76L134.56 33ZM133.248 29.24H129.616L131.44 24.072L133.248 29.24ZM140.356 25.48V24.184H138.532V37.192H140.356V31.72C140.932 32.408 141.972 33.144 143.428 33.144C145.748 33.144 147.572 31.272 147.572 28.552C147.572 25.832 145.748 24.04 143.428 24.04C141.988 24.04 140.916 24.744 140.356 25.48ZM145.716 28.552C145.716 30.456 144.404 31.56 143.028 31.56C141.668 31.56 140.356 30.488 140.356 28.584C140.356 26.696 141.668 25.624 143.028 25.624C144.404 25.624 145.716 26.648 145.716 28.552ZM151.52 25.48V24.184H149.696V37.192H151.52V31.72C152.096 32.408 153.136 33.144 154.592 33.144C156.912 33.144 158.736 31.272 158.736 28.552C158.736 25.832 156.912 24.04 154.592 24.04C153.152 24.04 152.08 24.744 151.52 25.48ZM156.88 28.552C156.88 30.456 155.568 31.56 154.192 31.56C152.832 31.56 151.52 30.488 151.52 28.584C151.52 26.696 152.832 25.624 154.192 25.624C155.568 25.624 156.88 26.648 156.88 28.552ZM160.86 33H162.684V21.16H160.86V33ZM165.399 33H167.223V24.184H165.399V33ZM166.327 23.016C166.967 23.016 167.479 22.504 167.479 21.848C167.479 21.192 166.967 20.68 166.327 20.68C165.671 20.68 165.159 21.192 165.159 21.848C165.159 22.504 165.671 23.016 166.327 23.016ZM169.33 28.552C169.33 31.272 171.17 33.144 173.458 33.144C174.93 33.144 175.986 32.44 176.546 31.688V33H178.386V24.184H176.546V25.464C176.002 24.744 174.978 24.04 173.49 24.04C171.17 24.04 169.33 25.832 169.33 28.552ZM176.546 28.584C176.546 30.488 175.25 31.56 173.874 31.56C172.514 31.56 171.202 30.456 171.202 28.552C171.202 26.648 172.514 25.624 173.874 25.624C175.25 25.624 176.546 26.696 176.546 28.584ZM187.357 33H189.165V27.8C189.165 25.336 187.613 24.04 185.549 24.04C184.493 24.04 183.517 24.472 182.925 25.192V24.184H181.101V33H182.925V28.072C182.925 26.456 183.805 25.624 185.149 25.624C186.477 25.624 187.357 26.456 187.357 28.072V33ZM191.204 28.584C191.204 31.352 192.996 33.144 195.524 33.144C197.684 33.144 199.092 31.944 199.588 30.216H197.62C197.284 31.128 196.612 31.608 195.524 31.608C194.052 31.608 193.076 30.52 193.076 28.584C193.076 26.664 194.052 25.576 195.524 25.576C196.612 25.576 197.316 26.12 197.62 26.968H199.588C199.092 25.112 197.684 24.04 195.524 24.04C192.996 24.04 191.204 25.832 191.204 28.584ZM205.438 25.576C206.798 25.576 207.87 26.44 207.902 27.8H203.022C203.214 26.408 204.206 25.576 205.438 25.576ZM209.566 30.376H207.598C207.262 31.064 206.638 31.608 205.518 31.608C204.174 31.608 203.134 30.728 203.006 29.272H209.742C209.79 28.968 209.806 28.68 209.806 28.376C209.806 25.784 208.03 24.04 205.518 24.04C202.91 24.04 201.118 25.816 201.118 28.584C201.118 31.352 202.99 33.144 205.518 33.144C207.678 33.144 209.07 31.912 209.566 30.376ZM216.397 33H218.221V21.88H216.397V33ZM227.192 33H229V27.8C229 25.336 227.448 24.04 225.384 24.04C224.328 24.04 223.352 24.472 222.76 25.192V24.184H220.936V33H222.76V28.072C222.76 26.456 223.64 25.624 224.984 25.624C226.312 25.624 227.192 26.456 227.192 28.072V33ZM231.87 33H233.71V25.672H235.342V24.184H233.71V23.56C233.71 22.552 234.094 22.168 235.214 22.168V20.648C232.91 20.648 231.87 21.528 231.87 23.56V24.184H230.83V25.672H231.87V33ZM245.679 28.584C245.679 25.816 243.695 24.04 241.183 24.04C238.671 24.04 236.687 25.816 236.687 28.584C236.687 31.352 238.591 33.144 241.103 33.144C243.631 33.144 245.679 31.352 245.679 28.584ZM238.543 28.584C238.543 26.584 239.775 25.624 241.151 25.624C242.511 25.624 243.807 26.584 243.807 28.584C243.807 30.584 242.463 31.56 241.103 31.56C239.727 31.56 238.543 30.584 238.543 28.584ZM249.626 28.36C249.626 26.488 250.458 25.928 251.802 25.928H252.266V24.04C251.018 24.04 250.138 24.584 249.626 25.464V24.184H247.802V33H249.626V28.36ZM266.759 33H268.567V27.8C268.567 25.336 266.999 24.04 264.935 24.04C263.655 24.04 262.407 24.712 261.863 25.784C261.255 24.632 260.087 24.04 258.695 24.04C257.639 24.04 256.679 24.472 256.087 25.192V24.184H254.263V33H256.087V28.072C256.087 26.456 256.967 25.624 258.311 25.624C259.639 25.624 260.519 26.456 260.519 28.072V33H262.327V28.072C262.327 26.456 263.207 25.624 264.551 25.624C265.879 25.624 266.759 26.456 266.759 28.072V33ZM270.6 28.552C270.6 31.272 272.44 33.144 274.728 33.144C276.2 33.144 277.256 32.44 277.816 31.688V33H279.656V24.184H277.816V25.464C277.272 24.744 276.248 24.04 274.76 24.04C272.44 24.04 270.6 25.832 270.6 28.552ZM277.816 28.584C277.816 30.488 276.52 31.56 275.144 31.56C273.784 31.56 272.472 30.456 272.472 28.552C272.472 26.648 273.784 25.624 275.144 25.624C276.52 25.624 277.816 26.696 277.816 28.584ZM282.659 30.552C282.659 32.344 283.635 33 285.203 33H286.643V31.48H285.523C284.755 31.48 284.499 31.208 284.499 30.552V25.672H286.643V24.184H284.499V21.992H282.659V24.184H281.619V25.672H282.659V30.552ZM288.644 33H290.468V24.184H288.644V33ZM289.572 23.016C290.212 23.016 290.724 22.504 290.724 21.848C290.724 21.192 290.212 20.68 289.572 20.68C288.916 20.68 288.404 21.192 288.404 21.848C288.404 22.504 288.916 23.016 289.572 23.016ZM301.583 28.584C301.583 25.816 299.599 24.04 297.087 24.04C294.575 24.04 292.591 25.816 292.591 28.584C292.591 31.352 294.495 33.144 297.007 33.144C299.535 33.144 301.583 31.352 301.583 28.584ZM294.447 28.584C294.447 26.584 295.679 25.624 297.055 25.624C298.415 25.624 299.711 26.584 299.711 28.584C299.711 30.584 298.367 31.56 297.007 31.56C295.631 31.56 294.447 30.584 294.447 28.584ZM309.962 33H311.77V27.8C311.77 25.336 310.218 24.04 308.154 24.04C307.098 24.04 306.122 24.472 305.53 25.192V24.184H303.706V33H305.53V28.072C305.53 26.456 306.41 25.624 307.754 25.624C309.082 25.624 309.962 26.456 309.962 28.072V33Z" fill="white"/>
    <path d="M186.268 98.5V95.776H187.78C188.848 95.776 189.328 96.28 189.328 97.144C189.328 97.984 188.848 98.5 187.78 98.5H186.268ZM190.732 97.144C190.732 95.788 189.76 94.66 187.78 94.66H184.9V103H186.268V99.616H187.78C189.952 99.616 190.732 98.332 190.732 97.144ZM191.821 99.664C191.821 101.704 193.201 103.108 194.917 103.108C196.021 103.108 196.813 102.58 197.233 102.016V103H198.613V96.388H197.233V97.348C196.825 96.808 196.057 96.28 194.941 96.28C193.201 96.28 191.821 97.624 191.821 99.664ZM197.233 99.688C197.233 101.116 196.261 101.92 195.229 101.92C194.209 101.92 193.225 101.092 193.225 99.664C193.225 98.236 194.209 97.468 195.229 97.468C196.261 97.468 197.233 98.272 197.233 99.688ZM205.582 101.152C205.51 98.764 201.778 99.508 201.778 98.176C201.778 97.732 202.162 97.432 202.894 97.432C203.638 97.432 204.082 97.828 204.13 98.404H205.498C205.426 97.084 204.442 96.28 202.942 96.28C201.382 96.28 200.398 97.132 200.398 98.188C200.398 100.612 204.238 99.868 204.238 101.164C204.238 101.62 203.818 101.956 203.026 101.956C202.27 101.956 201.754 101.512 201.706 100.972H200.29C200.35 102.172 201.466 103.108 203.05 103.108C204.61 103.108 205.582 102.268 205.582 101.152ZM212.232 101.152C212.16 98.764 208.428 99.508 208.428 98.176C208.428 97.732 208.812 97.432 209.544 97.432C210.288 97.432 210.732 97.828 210.78 98.404H212.148C212.076 97.084 211.092 96.28 209.592 96.28C208.032 96.28 207.048 97.132 207.048 98.188C207.048 100.612 210.888 99.868 210.888 101.164C210.888 101.62 210.468 101.956 209.676 101.956C208.92 101.956 208.404 101.512 208.356 100.972H206.94C207 102.172 208.116 103.108 209.7 103.108C211.26 103.108 212.232 102.268 212.232 101.152ZM215.234 103H216.674L218.006 98.116L219.338 103H220.778L222.83 96.388H221.486L220.118 101.68L218.774 96.388H217.346L215.942 101.704L214.562 96.388H213.17L215.234 103ZM230.392 99.688C230.392 97.612 228.904 96.28 227.02 96.28C225.136 96.28 223.648 97.612 223.648 99.688C223.648 101.764 225.076 103.108 226.96 103.108C228.856 103.108 230.392 101.764 230.392 99.688ZM225.04 99.688C225.04 98.188 225.964 97.468 226.996 97.468C228.016 97.468 228.988 98.188 228.988 99.688C228.988 101.188 227.98 101.92 226.96 101.92C225.928 101.92 225.04 101.188 225.04 99.688ZM233.353 99.52C233.353 98.116 233.977 97.696 234.985 97.696H235.333V96.28C234.397 96.28 233.737 96.688 233.353 97.348V96.388H231.985V103H233.353V99.52ZM236.374 99.664C236.374 101.704 237.754 103.108 239.494 103.108C240.574 103.108 241.366 102.604 241.786 102.004V103H243.166V94.12H241.786V97.312C241.282 96.688 240.37 96.28 239.506 96.28C237.754 96.28 236.374 97.624 236.374 99.664ZM241.786 99.688C241.786 101.116 240.814 101.92 239.782 101.92C238.762 101.92 237.778 101.092 237.778 99.664C237.778 98.236 238.762 97.468 239.782 97.468C240.814 97.468 241.786 98.272 241.786 99.688ZM246.619 102.208C246.619 101.716 246.235 101.332 245.755 101.332C245.263 101.332 244.879 101.716 244.879 102.208C244.879 102.7 245.263 103.084 245.755 103.084C246.235 103.084 246.619 102.7 246.619 102.208ZM246.619 97.168C246.619 96.676 246.235 96.292 245.755 96.292C245.263 96.292 244.879 96.676 244.879 97.168C244.879 97.66 245.263 98.044 245.755 98.044C246.235 98.044 246.619 97.66 246.619 97.168ZM256.625 103H258.161L255.569 98.836L258.173 94.66H256.649L254.873 97.708L252.977 94.66H251.441L254.045 98.836L251.453 103H252.977L254.741 99.976L256.625 103ZM264.787 103H266.323L263.731 98.836L266.335 94.66H264.811L263.035 97.708L261.139 94.66H259.603L262.207 98.836L259.615 103H261.139L262.903 99.976L264.787 103ZM272.949 103H274.485L271.893 98.836L274.497 94.66H272.973L271.197 97.708L269.301 94.66H267.765L270.369 98.836L267.777 103H269.301L271.065 99.976L272.949 103ZM281.111 103H282.647L280.055 98.836L282.659 94.66H281.135L279.359 97.708L277.463 94.66H275.927L278.531 98.836L275.939 103H277.463L279.227 99.976L281.111 103ZM289.273 103H290.809L288.217 98.836L290.821 94.66H289.297L287.521 97.708L285.625 94.66H284.089L286.693 98.836L284.101 103H285.625L287.389 99.976L289.273 103ZM297.435 103H298.971L296.379 98.836L298.983 94.66H297.459L295.683 97.708L293.787 94.66H292.251L294.855 98.836L292.263 103H293.787L295.551 99.976L297.435 103ZM305.597 103H307.133L304.541 98.836L307.145 94.66H305.621L303.845 97.708L301.949 94.66H300.413L303.017 98.836L300.425 103H301.949L303.713 99.976L305.597 103ZM313.759 103H315.295L312.703 98.836L315.307 94.66H313.783L312.007 97.708L310.111 94.66H308.575L311.179 98.836L308.587 103H310.111L311.875 99.976L313.759 103Z" fill="white"/>
    <path d="M15.9 103H17.268V94.66H15.9V103ZM18.8481 98.812C18.8481 101.32 20.7561 103.072 23.1081 103.072C24.8481 103.072 26.3481 102.208 26.9841 100.576H25.3401C24.8961 101.464 24.1041 101.884 23.1081 101.884C21.4521 101.884 20.2521 100.696 20.2521 98.812C20.2521 96.928 21.4521 95.752 23.1081 95.752C24.1041 95.752 24.8961 96.172 25.3401 97.06H26.9841C26.3481 95.428 24.8481 94.552 23.1081 94.552C20.7561 94.552 18.8481 96.316 18.8481 98.812ZM30.2413 102.208C30.2413 101.716 29.8573 101.332 29.3773 101.332C28.8853 101.332 28.5013 101.716 28.5013 102.208C28.5013 102.7 28.8853 103.084 29.3773 103.084C29.8573 103.084 30.2413 102.7 30.2413 102.208ZM30.2413 97.168C30.2413 96.676 29.8573 96.292 29.3773 96.292C28.8853 96.292 28.5013 96.676 28.5013 97.168C28.5013 97.66 28.8853 98.044 29.3773 98.044C29.8573 98.044 30.2413 97.66 30.2413 97.168ZM36.1199 103H37.4999V94.252H35.0039V95.5H36.1199V103ZM39.6192 98.512C39.6192 101.056 40.2912 102.976 42.7392 102.976C45.1872 102.976 45.8592 101.056 45.8592 98.512C45.8592 96.016 45.1872 94.096 42.7392 94.096C40.2912 94.096 39.6192 96.016 39.6192 98.512ZM44.5152 98.512C44.5152 100.228 44.3352 101.728 42.7392 101.728C41.1432 101.728 40.9632 100.228 40.9632 98.512C40.9632 96.88 41.1432 95.344 42.7392 95.344C44.3352 95.344 44.5152 96.88 44.5152 98.512ZM47.4387 102.88H53.2707V101.74H49.4667C50.8707 100.456 53.0307 98.836 53.0307 96.712C53.0307 95.14 52.0227 94.072 50.2467 94.072C48.6987 94.072 47.4747 94.996 47.4267 96.892H48.7467C48.7827 95.908 49.2987 95.236 50.2587 95.236C51.2787 95.236 51.6747 95.86 51.6747 96.772C51.6747 98.488 49.5027 100.072 47.4387 101.884V102.88ZM54.6045 102.88H60.4365V101.74H56.6325C58.0365 100.456 60.1965 98.836 60.1965 96.712C60.1965 95.14 59.1885 94.072 57.4125 94.072C55.8645 94.072 54.6405 94.996 54.5925 96.892H55.9125C55.9485 95.908 56.4645 95.236 57.4245 95.236C58.4445 95.236 58.8405 95.86 58.8405 96.772C58.8405 98.488 56.6685 100.072 54.6045 101.884V102.88ZM62.3223 100.624C62.4303 101.872 63.2703 102.988 65.0823 102.988C67.3743 102.988 67.9983 101.416 67.9983 98.464C67.9983 95.596 67.2423 94.048 64.9863 94.048C63.1503 94.048 62.0823 95.2 62.0823 96.94C62.0823 98.788 63.3303 99.736 64.8663 99.736C65.6583 99.736 66.4143 99.436 66.8103 98.884C66.8103 101.116 66.2583 101.848 65.1663 101.848C64.2543 101.848 63.7383 101.404 63.5823 100.624H62.3223ZM65.1063 98.584C63.8943 98.584 63.3903 97.804 63.3903 96.904C63.3903 95.896 64.0023 95.188 65.0223 95.188C66.0183 95.188 66.6543 95.824 66.6543 96.94C66.6543 97.924 66.0783 98.584 65.1063 98.584ZM75.5435 103H76.9835L73.9955 94.648H72.4115L69.4235 103H70.8515L71.4515 101.296H74.9435L75.5435 103ZM74.5595 100.18H71.8355L73.2035 96.304L74.5595 100.18ZM78.6667 99.232H83.5987V98.08H78.6667V99.232ZM87.4742 103.012L89.0102 103L90.8702 96.688L92.6222 103H94.1702L96.6422 94.66H95.1782L93.4382 101.416L91.6982 94.66H90.1622L88.2902 101.452L86.5622 94.66H85.1102L87.4742 103.012ZM97.5545 98.812C97.5545 101.32 99.4625 103.072 101.814 103.072C103.554 103.072 105.054 102.208 105.69 100.576H104.046C103.602 101.464 102.81 101.884 101.814 101.884C100.158 101.884 98.9585 100.696 98.9585 98.812C98.9585 96.928 100.158 95.752 101.814 95.752C102.81 95.752 103.602 96.172 104.046 97.06H105.69C105.054 95.428 103.554 94.552 101.814 94.552C99.4625 94.552 97.5545 96.316 97.5545 98.812ZM113.16 103H114.6L111.612 94.648H110.028L107.04 103H108.468L109.068 101.296H112.56L113.16 103ZM112.176 100.18H109.452L110.82 96.304L112.176 100.18ZM115.707 95.776H117.939V103H119.307V95.776H121.527V94.66H115.707V95.776ZM128.78 103H130.22L127.232 94.648H125.648L122.66 103H124.088L124.688 101.296H128.18L128.78 103ZM127.796 100.18H125.072L126.44 96.304L127.796 100.18ZM131.58 98.512C131.58 101.056 132.252 102.976 134.7 102.976C137.148 102.976 137.82 101.056 137.82 98.512C137.82 96.016 137.148 94.096 134.7 94.096C132.252 94.096 131.58 96.016 131.58 98.512ZM136.476 98.512C136.476 100.228 136.296 101.728 134.7 101.728C133.104 101.728 132.924 100.228 132.924 98.512C132.924 96.88 133.104 95.344 134.7 95.344C136.296 95.344 136.476 96.88 136.476 98.512ZM139.507 98.512C139.507 101.056 140.179 102.976 142.627 102.976C145.075 102.976 145.747 101.056 145.747 98.512C145.747 96.016 145.075 94.096 142.627 94.096C140.179 94.096 139.507 96.016 139.507 98.512ZM144.403 98.512C144.403 100.228 144.223 101.728 142.627 101.728C141.031 101.728 140.851 100.228 140.851 98.512C140.851 96.88 141.031 95.344 142.627 95.344C144.223 95.344 144.403 96.88 144.403 98.512ZM148.371 103H149.751V94.252H147.255V95.5H148.371V103Z" fill="white"/>
    <path d="M190.384 62.648V68.864L186.268 62.648H184.9V71H186.268V64.772L190.384 71H191.752V62.648H190.384ZM196.572 65.432C197.592 65.432 198.396 66.08 198.42 67.1H194.76C194.904 66.056 195.648 65.432 196.572 65.432ZM199.668 69.032H198.192C197.94 69.548 197.472 69.956 196.632 69.956C195.624 69.956 194.844 69.296 194.748 68.204H199.8C199.836 67.976 199.848 67.76 199.848 67.532C199.848 65.588 198.516 64.28 196.632 64.28C194.676 64.28 193.332 65.612 193.332 67.688C193.332 69.764 194.736 71.108 196.632 71.108C198.252 71.108 199.296 70.184 199.668 69.032ZM201.651 69.164C201.651 70.508 202.383 71 203.559 71H204.639V69.86H203.799C203.223 69.86 203.031 69.656 203.031 69.164V65.504H204.639V64.388H203.031V62.744H201.651V64.388H200.871V65.504H201.651V69.164ZM207.424 71H208.864L210.196 66.116L211.528 71H212.968L215.02 64.388H213.676L212.308 69.68L210.964 64.388H209.536L208.132 69.704L206.752 64.388H205.36L207.424 71ZM222.582 67.688C222.582 65.612 221.094 64.28 219.21 64.28C217.326 64.28 215.838 65.612 215.838 67.688C215.838 69.764 217.266 71.108 219.15 71.108C221.046 71.108 222.582 69.764 222.582 67.688ZM217.23 67.688C217.23 66.188 218.154 65.468 219.186 65.468C220.206 65.468 221.178 66.188 221.178 67.688C221.178 69.188 220.17 69.92 219.15 69.92C218.118 69.92 217.23 69.188 217.23 67.688ZM225.542 67.52C225.542 66.116 226.166 65.696 227.174 65.696H227.522V64.28C226.586 64.28 225.926 64.688 225.542 65.348V64.388H224.174V71H225.542V67.52ZM229.02 71H230.388V68.156L232.836 71H234.684L231.636 67.7L234.684 64.388H232.788L230.388 67.28V62.12H229.02V71ZM240.677 70.208C240.677 69.716 240.293 69.332 239.813 69.332C239.321 69.332 238.937 69.716 238.937 70.208C238.937 70.7 239.321 71.084 239.813 71.084C240.293 71.084 240.677 70.7 240.677 70.208ZM240.677 65.168C240.677 64.676 240.293 64.292 239.813 64.292C239.321 64.292 238.937 64.676 238.937 65.168C238.937 65.66 239.321 66.044 239.813 66.044C240.293 66.044 240.677 65.66 240.677 65.168ZM249.604 62.552C247.252 62.552 245.344 64.316 245.344 66.812C245.344 69.32 247.252 71.072 249.604 71.072C251.848 71.072 253.48 69.428 253.732 67.496V66.428H249.136V67.52H252.268C252.064 68.924 251.116 69.836 249.604 69.836C247.948 69.836 246.748 68.648 246.748 66.812C246.748 64.976 247.948 63.8 249.604 63.8C250.6 63.8 251.392 64.22 251.836 65.06H253.48C252.844 63.428 251.344 62.552 249.604 62.552ZM259.929 62.648H255.321V71H259.929V69.884H256.689V67.328H259.569V66.212H256.689V63.764H259.929V62.648ZM267.482 71H268.922L265.934 62.648H264.35L261.362 71H262.79L263.39 69.296H266.882L267.482 71ZM266.498 68.18H263.774L265.142 64.304L266.498 68.18ZM271.073 72.752H277.769V71.48H271.073V72.752ZM288.34 66.812C288.34 64.316 286.456 62.552 284.08 62.552C281.728 62.552 279.82 64.316 279.82 66.812C279.82 69.32 281.728 71.084 284.08 71.084C286.456 71.084 288.34 69.32 288.34 66.812ZM281.224 66.812C281.224 64.928 282.424 63.752 284.08 63.752C285.736 63.752 286.936 64.928 286.936 66.812C286.936 68.696 285.736 69.896 284.08 69.896C282.424 69.896 281.224 68.696 281.224 66.812ZM293.19 69.596L290.718 62.66H289.254L292.398 71H293.982L297.114 62.66H295.674L293.19 69.596ZM303.106 62.648H298.498V71H303.106V69.884H299.866V67.328H302.746V66.212H299.866V63.764H303.106V62.648ZM310.515 62.648V68.864L306.399 62.648H305.031V71H306.399V64.772L310.515 71H311.883V62.648H310.515ZM314.531 72.752H321.227V71.48H314.531V72.752ZM328.617 71H330.153L327.561 66.836L330.165 62.66H328.641L326.865 65.708L324.969 62.66H323.433L326.037 66.836L323.445 71H324.969L326.733 67.976L328.617 71Z" fill="white"/>
    <path d="M16.9 71H18.268V67.352H21.028V66.236H18.268V63.776H21.808V62.66H16.9V71ZM22.8598 66.812C22.8598 69.32 24.7678 71.072 27.1198 71.072C28.8598 71.072 30.3598 70.208 30.9958 68.576H29.3518C28.9078 69.464 28.1158 69.884 27.1198 69.884C25.4638 69.884 24.2638 68.696 24.2638 66.812C24.2638 64.928 25.4638 63.752 27.1198 63.752C28.1158 63.752 28.9078 64.172 29.3518 65.06H30.9958C30.3598 63.428 28.8598 62.552 27.1198 62.552C24.7678 62.552 22.8598 64.316 22.8598 66.812ZM32.381 66.812C32.381 69.32 34.289 71.072 36.641 71.072C38.381 71.072 39.881 70.208 40.517 68.576H38.873C38.429 69.464 37.637 69.884 36.641 69.884C34.985 69.884 33.785 68.696 33.785 66.812C33.785 64.928 34.985 63.752 36.641 63.752C37.637 63.752 38.429 64.172 38.873 65.06H40.517C39.881 63.428 38.381 62.552 36.641 62.552C34.289 62.552 32.381 64.316 32.381 66.812ZM43.7743 70.208C43.7743 69.716 43.3903 69.332 42.9103 69.332C42.4183 69.332 42.0343 69.716 42.0343 70.208C42.0343 70.7 42.4183 71.084 42.9103 71.084C43.3903 71.084 43.7743 70.7 43.7743 70.208ZM43.7743 65.168C43.7743 64.676 43.3903 64.292 42.9103 64.292C42.4183 64.292 42.0343 64.676 42.0343 65.168C42.0343 65.66 42.4183 66.044 42.9103 66.044C43.3903 66.044 43.7743 65.66 43.7743 65.168ZM54.0929 62.66H48.5969V63.848H52.4609L48.5969 69.932V71H54.0929V69.812H50.2169L54.0929 63.728V62.66ZM60.4243 71H62.2123L58.5283 66.836L62.1523 62.66H60.4363L57.1963 66.464V62.66H55.8283V71H57.1963V67.268L60.4243 71ZM66.83 68.672C66.83 69.368 66.482 69.872 65.75 69.872C65.018 69.872 64.682 69.368 64.67 68.672H63.29C63.29 70.184 64.31 71.084 65.75 71.084C67.19 71.084 68.21 70.184 68.21 68.672V62.66H66.83V68.672ZM70.8195 67.232H75.7515V66.08H70.8195V67.232ZM79.627 71.012L81.163 71L83.023 64.688L84.775 71H86.323L88.795 62.66H87.331L85.591 69.416L83.851 62.66H82.315L80.443 69.452L78.715 62.66H77.263L79.627 71.012ZM89.7073 66.812C89.7073 69.32 91.6153 71.072 93.9673 71.072C95.7073 71.072 97.2073 70.208 97.8433 68.576H96.1993C95.7553 69.464 94.9633 69.884 93.9673 69.884C92.3113 69.884 91.1113 68.696 91.1113 66.812C91.1113 64.928 92.3113 63.752 93.9673 63.752C94.9633 63.752 95.7553 64.172 96.1993 65.06H97.8433C97.2073 63.428 95.7073 62.552 93.9673 62.552C91.6153 62.552 89.7073 64.316 89.7073 66.812ZM105.313 71H106.753L103.765 62.648H102.181L99.1925 71H100.621L101.221 69.296H104.713L105.313 71ZM104.329 68.18H101.605L102.973 64.304L104.329 68.18ZM107.86 63.776H110.092V71H111.46V63.776H113.68V62.66H107.86V63.776ZM120.933 71H122.373L119.385 62.648H117.801L114.813 71H116.241L116.841 69.296H120.333L120.933 71ZM119.949 68.18H117.225L118.593 64.304L119.949 68.18ZM123.732 66.512C123.732 69.056 124.404 70.976 126.852 70.976C129.3 70.976 129.972 69.056 129.972 66.512C129.972 64.016 129.3 62.096 126.852 62.096C124.404 62.096 123.732 64.016 123.732 66.512ZM128.628 66.512C128.628 68.228 128.448 69.728 126.852 69.728C125.256 69.728 125.076 68.228 125.076 66.512C125.076 64.88 125.256 63.344 126.852 63.344C128.448 63.344 128.628 64.88 128.628 66.512ZM131.66 66.512C131.66 69.056 132.332 70.976 134.78 70.976C137.228 70.976 137.9 69.056 137.9 66.512C137.9 64.016 137.228 62.096 134.78 62.096C132.332 62.096 131.66 64.016 131.66 66.512ZM136.556 66.512C136.556 68.228 136.376 69.728 134.78 69.728C133.184 69.728 133.004 68.228 133.004 66.512C133.004 64.88 133.184 63.344 134.78 63.344C136.376 63.344 136.556 64.88 136.556 66.512ZM140.523 71H141.903V62.252H139.407V63.5H140.523V71Z" fill="white"/>
    <path d="M186.268 130.5V127.776H187.78C188.848 127.776 189.328 128.28 189.328 129.144C189.328 129.984 188.848 130.5 187.78 130.5H186.268ZM190.732 129.144C190.732 127.788 189.76 126.66 187.78 126.66H184.9V135H186.268V131.616H187.78C189.952 131.616 190.732 130.332 190.732 129.144ZM191.845 127.776H194.077V135H195.445V127.776H197.665V126.66H191.845V127.776ZM200.706 134.208C200.706 133.716 200.322 133.332 199.842 133.332C199.35 133.332 198.966 133.716 198.966 134.208C198.966 134.7 199.35 135.084 199.842 135.084C200.322 135.084 200.706 134.7 200.706 134.208ZM211.266 126.648V132.864L207.15 126.648H205.782V135H207.15V128.772L211.266 135H212.634V126.648H211.266ZM222.734 130.812C222.734 128.316 220.85 126.552 218.474 126.552C216.122 126.552 214.214 128.316 214.214 130.812C214.214 133.32 216.122 135.084 218.474 135.084C220.85 135.084 222.734 133.32 222.734 130.812ZM215.618 130.812C215.618 128.928 216.818 127.752 218.474 127.752C220.13 127.752 221.33 128.928 221.33 130.812C221.33 132.696 220.13 133.896 218.474 133.896C216.818 133.896 215.618 132.696 215.618 130.812ZM225.736 134.208C225.736 133.716 225.352 133.332 224.872 133.332C224.38 133.332 223.996 133.716 223.996 134.208C223.996 134.7 224.38 135.084 224.872 135.084C225.352 135.084 225.736 134.7 225.736 134.208ZM230.524 134.88H236.356V133.74H232.552C233.956 132.456 236.116 130.836 236.116 128.712C236.116 127.14 235.108 126.072 233.332 126.072C231.784 126.072 230.56 126.996 230.512 128.892H231.832C231.868 127.908 232.384 127.236 233.344 127.236C234.364 127.236 234.76 127.86 234.76 128.772C234.76 130.488 232.588 132.072 230.524 133.884V134.88ZM237.69 134.88H243.522V133.74H239.718C241.122 132.456 243.282 130.836 243.282 128.712C243.282 127.14 242.274 126.072 240.498 126.072C238.95 126.072 237.726 126.996 237.678 128.892H238.998C239.034 127.908 239.55 127.236 240.51 127.236C241.53 127.236 241.926 127.86 241.926 128.772C241.926 130.488 239.754 132.072 237.69 133.884V134.88ZM245.408 132.624C245.516 133.872 246.356 134.988 248.168 134.988C250.46 134.988 251.084 133.416 251.084 130.464C251.084 127.596 250.328 126.048 248.072 126.048C246.236 126.048 245.168 127.2 245.168 128.94C245.168 130.788 246.416 131.736 247.952 131.736C248.744 131.736 249.5 131.436 249.896 130.884C249.896 133.116 249.344 133.848 248.252 133.848C247.34 133.848 246.824 133.404 246.668 132.624H245.408ZM248.192 130.584C246.98 130.584 246.476 129.804 246.476 128.904C246.476 127.896 247.088 127.188 248.108 127.188C249.104 127.188 249.74 127.824 249.74 128.94C249.74 129.924 249.164 130.584 248.192 130.584ZM252.545 130.812C252.545 133.32 254.453 135.072 256.805 135.072C258.545 135.072 260.045 134.208 260.681 132.576H259.037C258.593 133.464 257.801 133.884 256.805 133.884C255.149 133.884 253.949 132.696 253.949 130.812C253.949 128.928 255.149 127.752 256.805 127.752C257.801 127.752 258.593 128.172 259.037 129.06H260.681C260.045 127.428 258.545 126.552 256.805 126.552C254.453 126.552 252.545 128.316 252.545 130.812ZM268.306 128.28C268.162 127.116 267.31 126.036 265.606 126.036C263.422 126.036 262.51 127.692 262.51 130.428C262.51 133.212 263.17 135 265.714 135C267.586 135 268.582 133.74 268.582 132.084C268.582 130.26 267.466 129.204 265.894 129.204C264.982 129.204 264.118 129.588 263.686 130.308C263.722 128.016 264.358 127.176 265.594 127.176C266.458 127.176 266.878 127.572 267.046 128.28H268.306ZM265.594 130.356C266.746 130.356 267.274 131.1 267.274 132.144C267.274 133.176 266.65 133.86 265.642 133.86C264.478 133.86 263.842 133.14 263.842 132.06C263.842 130.896 264.694 130.356 265.594 130.356ZM270.173 134.88H276.005V133.74H272.201C273.605 132.456 275.765 130.836 275.765 128.712C275.765 127.14 274.757 126.072 272.981 126.072C271.433 126.072 270.209 126.996 270.161 128.892H271.481C271.517 127.908 272.033 127.236 272.993 127.236C274.013 127.236 274.409 127.86 274.409 128.772C274.409 130.488 272.237 132.072 270.173 133.884V134.88ZM277.207 126.288V127.452H281.647L278.275 135H279.655L282.991 127.308V126.288H277.207ZM284.294 134.88H290.126V133.74H286.322C287.726 132.456 289.886 130.836 289.886 128.712C289.886 127.14 288.878 126.072 287.102 126.072C285.554 126.072 284.33 126.996 284.282 128.892H285.602C285.638 127.908 286.154 127.236 287.114 127.236C288.134 127.236 288.53 127.86 288.53 128.772C288.53 130.488 286.358 132.072 284.294 133.884V134.88ZM295.552 126.552C293.2 126.552 291.292 128.316 291.292 130.812C291.292 133.32 293.2 135.072 295.552 135.072C297.796 135.072 299.428 133.428 299.68 131.496V130.428H295.084V131.52H298.216C298.012 132.924 297.064 133.836 295.552 133.836C293.896 133.836 292.696 132.648 292.696 130.812C292.696 128.976 293.896 127.8 295.552 127.8C296.548 127.8 297.34 128.22 297.784 129.06H299.428C298.792 127.428 297.292 126.552 295.552 126.552ZM301.089 130.512C301.089 133.056 301.761 134.976 304.209 134.976C306.657 134.976 307.329 133.056 307.329 130.512C307.329 128.016 306.657 126.096 304.209 126.096C301.761 126.096 301.089 128.016 301.089 130.512ZM305.985 130.512C305.985 132.228 305.805 133.728 304.209 133.728C302.613 133.728 302.433 132.228 302.433 130.512C302.433 128.88 302.613 127.344 304.209 127.344C305.805 127.344 305.985 128.88 305.985 130.512ZM309.017 130.512C309.017 133.056 309.689 134.976 312.137 134.976C314.585 134.976 315.257 133.056 315.257 130.512C315.257 128.016 314.585 126.096 312.137 126.096C309.689 126.096 309.017 128.016 309.017 130.512ZM313.913 130.512C313.913 132.228 313.733 133.728 312.137 133.728C310.541 133.728 310.361 132.228 310.361 130.512C310.361 128.88 310.541 127.344 312.137 127.344C313.733 127.344 313.913 128.88 313.913 130.512ZM317.88 135H319.26V126.252H316.764V127.5H317.88V135ZM321.703 131.232H326.635V130.08H321.703V131.232ZM328.639 130.512C328.639 133.056 329.311 134.976 331.759 134.976C334.207 134.976 334.879 133.056 334.879 130.512C334.879 128.016 334.207 126.096 331.759 126.096C329.311 126.096 328.639 128.016 328.639 130.512ZM333.535 130.512C333.535 132.228 333.355 133.728 331.759 133.728C330.163 133.728 329.983 132.228 329.983 130.512C329.983 128.88 330.163 127.344 331.759 127.344C333.355 127.344 333.535 128.88 333.535 130.512Z" fill="white"/>
    <path d="M16.9 135H18.268V129.288L20.824 135H21.772L24.316 129.288V135H25.684V126.66H24.22L21.304 133.2L18.376 126.66H16.9V135ZM32.55 135H33.99L31.002 126.648H29.418L26.43 135H27.858L28.458 133.296H31.95L32.55 135ZM31.566 132.18H28.842L30.21 128.304L31.566 132.18ZM34.2732 130.812C34.2732 133.32 36.1812 135.072 38.5332 135.072C40.2732 135.072 41.7732 134.208 42.4092 132.576H40.7652C40.3212 133.464 39.5292 133.884 38.5332 133.884C36.8772 133.884 35.6772 132.696 35.6772 130.812C35.6772 128.928 36.8772 127.752 38.5332 127.752C39.5292 127.752 40.3212 128.172 40.7652 129.06H42.4092C41.7732 127.428 40.2732 126.552 38.5332 126.552C36.1812 126.552 34.2732 128.316 34.2732 130.812ZM46.0077 135H47.3757V126.66H46.0077V135ZM51.3357 126.66H48.6117V135H51.3357C54.0117 135 55.7637 133.428 55.7637 130.86C55.7637 128.28 54.0117 126.66 51.3357 126.66ZM49.9797 133.884V127.776H51.3357C53.3037 127.776 54.3597 128.952 54.3597 130.86C54.3597 132.756 53.3037 133.884 51.3357 133.884H49.9797ZM57.9755 134.208C57.9755 133.716 57.5915 133.332 57.1115 133.332C56.6195 133.332 56.2355 133.716 56.2355 134.208C56.2355 134.7 56.6195 135.084 57.1115 135.084C57.5915 135.084 57.9755 134.7 57.9755 134.208ZM57.9755 129.168C57.9755 128.676 57.5915 128.292 57.1115 128.292C56.6195 128.292 56.2355 128.676 56.2355 129.168C56.2355 129.66 56.6195 130.044 57.1115 130.044C57.5915 130.044 57.9755 129.66 57.9755 129.168ZM66.3821 135H67.9181L65.3261 130.836L67.9301 126.66H66.4061L64.6301 129.708L62.7341 126.66H61.1981L63.8021 130.836L61.2101 135H62.7341L64.4981 131.976L66.3821 135ZM73.744 135H75.28L72.688 130.836L75.292 126.66H73.768L71.992 129.708L70.096 126.66H68.56L71.164 130.836L68.572 135H70.096L71.86 131.976L73.744 135ZM76.3659 131.232H81.2979V130.08H76.3659V131.232ZM87.5654 135H89.1014L86.5094 130.836L89.1134 126.66H87.5894L85.8134 129.708L83.9174 126.66H82.3814L84.9854 130.836L82.3934 135H83.9174L85.6814 131.976L87.5654 135ZM94.9273 135H96.4633L93.8713 130.836L96.4753 126.66H94.9513L93.1753 129.708L91.2793 126.66H89.7433L92.3473 130.836L89.7553 135H91.2793L93.0433 131.976L94.9273 135ZM97.5492 131.232H102.481V130.08H97.5492V131.232ZM108.749 135H110.285L107.693 130.836L110.297 126.66H108.773L106.997 129.708L105.101 126.66H103.565L106.169 130.836L103.577 135H105.101L106.865 131.976L108.749 135ZM116.111 135H117.647L115.055 130.836L117.659 126.66H116.135L114.359 129.708L112.463 126.66H110.927L113.531 130.836L110.939 135H112.463L114.227 131.976L116.111 135ZM118.732 131.232H123.664V130.08H118.732V131.232ZM129.932 135H131.468L128.876 130.836L131.48 126.66H129.956L128.18 129.708L126.284 126.66H124.748L127.352 130.836L124.76 135H126.284L128.048 131.976L129.932 135ZM137.294 135H138.83L136.238 130.836L138.842 126.66H137.318L135.542 129.708L133.646 126.66H132.11L134.714 130.836L132.122 135H133.646L135.41 131.976L137.294 135ZM139.916 131.232H144.848V130.08H139.916V131.232ZM151.115 135H152.651L150.059 130.836L152.663 126.66H151.139L149.363 129.708L147.467 126.66H145.931L148.535 130.836L145.943 135H147.467L149.231 131.976L151.115 135ZM158.477 135H160.013L157.421 130.836L160.025 126.66H158.501L156.725 129.708L154.829 126.66H153.293L155.897 130.836L153.305 135H154.829L156.593 131.976L158.477 135ZM161.099 131.232H166.031V130.08H161.099V131.232ZM172.299 135H173.835L171.243 130.836L173.847 126.66H172.323L170.547 129.708L168.651 126.66H167.115L169.719 130.836L167.127 135H168.651L170.415 131.976L172.299 135ZM179.66 135H181.196L178.604 130.836L181.208 126.66H179.684L177.908 129.708L176.012 126.66H174.476L177.08 130.836L174.488 135H176.012L177.776 131.976L179.66 135Z" fill="white"/>
</svg>
